<?xml version="1.0" encoding="utf-8" standalone="no"?>
<!DOCTYPE svg PUBLIC "-//W3C//DTD SVG 1.1//EN"
  "http://www.w3.org/Graphics/SVG/1.1/DTD/svg11.dtd">
<svg xmlns:xlink="http://www.w3.org/1999/xlink" width="113.04pt" height="79.056pt" viewBox="0 0 113.04 79.056" xmlns="http://www.w3.org/2000/svg" version="1.1">
 <metadata>
  <rdf:RDF xmlns:dc="http://purl.org/dc/elements/1.1/" xmlns:cc="http://creativecommons.org/ns#" xmlns:rdf="http://www.w3.org/1999/02/22-rdf-syntax-ns#">
   <cc:Work>
    <dc:type rdf:resource="http://purl.org/dc/dcmitype/StillImage"/>
    <dc:date>2024-12-25T19:59:01.454177</dc:date>
    <dc:format>image/svg+xml</dc:format>
    <dc:creator>
     <cc:Agent>
      <dc:title>Matplotlib v3.7.5, https://matplotlib.org/</dc:title>
     </cc:Agent>
    </dc:creator>
   </cc:Work>
  </rdf:RDF>
 </metadata>
 <defs>
  <style type="text/css">*{stroke-linejoin: round; stroke-linecap: butt}</style>
 </defs>
 <g id="figure_1">
  <g id="patch_1">
   <path d="M 0 79.056 
L 113.04 79.056 
L 113.04 0 
L 0 0 
z
" style="fill: #ffffff"/>
  </g>
  <g id="axes_1">
   <g id="patch_2">
    <path d="M 0.72 78.336 
L 112.32 78.336 
L 112.32 0.72 
L 0.72 0.72 
z
" style="fill: #ffffff"/>
   </g>
   <g id="matplotlib.axis_1"/>
   <g id="matplotlib.axis_2"/>
   <g id="line2d_1">
    <path d="M 0.72 37.075976 
L 0.74232 37.861475 
L 0.813001 41.823477 
L 0.866322 38.841937 
L 0.899802 37.253561 
L 0.958083 40.273186 
L 0.989083 41.706246 
L 1.042404 38.797192 
L 1.084564 36.97402 
L 1.135405 39.864515 
L 1.176325 41.913789 
L 1.230886 38.914474 
L 1.266846 37.131953 
L 1.325127 40.372513 
L 1.354887 41.710107 
L 1.410688 38.661908 
L 1.447888 37.018235 
L 1.502449 39.95531 
L 1.538409 41.885048 
L 1.59793 38.635684 
L 1.63141 36.969409 
L 1.687211 40.265323 
L 1.720691 41.875898 
L 1.775252 38.852711 
L 1.819892 36.951916 
L 1.869493 40.048888 
L 1.902973 41.849472 
L 1.963734 38.531735 
L 1.997214 37.008396 
L 2.050535 40.267992 
L 2.088975 42.008488 
L 2.142296 38.70973 
L 2.180736 36.90473 
L 2.236537 40.191357 
L 2.270017 41.80017 
L 2.327058 38.590694 
L 2.364258 37.061708 
L 2.415099 40.268717 
L 2.452299 41.935755 
L 2.50562 38.805501 
L 2.54158 36.964618 
L 2.599861 40.03859 
L 2.635821 41.901408 
L 2.692862 38.421586 
L 2.727582 36.95714 
L 2.780903 40.36036 
L 2.820583 41.999125 
L 2.871424 38.736187 
L 2.908624 37.032646 
L 2.963185 39.995334 
L 3.001625 41.847661 
L 3.053706 38.589749 
L 3.092146 36.792383 
L 3.140507 39.95118 
L 3.180187 42.2659 
L 3.234748 38.936622 
L 3.273188 36.834407 
L 3.330229 40.255045 
L 3.366189 41.938408 
L 3.41703 38.580158 
L 3.45671 36.74603 
L 3.506311 40.063497 
L 3.544751 42.458044 
L 3.603032 38.614087 
L 3.640232 36.558788 
L 3.694793 40.219389 
L 3.730753 42.223743 
L 3.781594 38.669601 
L 3.822514 36.591728 
L 3.873355 40.057362 
L 3.911795 42.444689 
L 3.967596 38.777373 
L 4.007277 36.597744 
L 4.061837 40.526107 
L 4.095318 42.351905 
L 4.146158 38.787083 
L 4.189559 36.434398 
L 4.242879 40.33614 
L 4.27636 42.549175 
L 4.33464 38.690205 
L 4.369361 36.513512 
L 4.423921 40.201443 
L 4.458642 42.332826 
L 4.511962 38.592083 
L 4.554123 36.359356 
L 4.604963 40.038963 
L 4.643404 42.577605 
L 4.701684 38.401369 
L 4.733925 36.333294 
L 4.790965 40.442853 
L 4.825686 42.566633 
L 4.881486 38.234869 
L 4.918687 36.126041 
L 4.970767 40.072593 
L 5.009208 42.559413 
L 5.065008 38.55082 
L 5.102209 36.26285 
L 5.154289 40.460305 
L 5.19025 42.711314 
L 5.24605 38.359493 
L 5.285731 36.176518 
L 5.339051 40.336588 
L 5.376252 42.711758 
L 5.430812 38.48429 
L 5.469253 36.210842 
L 5.521333 40.552614 
L 5.558534 42.790097 
L 5.610614 38.492255 
L 5.649055 36.092627 
L 5.704855 40.284191 
L 5.738336 42.735027 
L 5.795376 38.511057 
L 5.831337 36.22109 
L 5.885897 40.429201 
L 5.923098 42.767216 
L 5.977658 38.385637 
L 6.013619 36.055379 
L 6.069419 40.256817 
L 6.10414 42.780074 
L 6.15994 38.468571 
L 6.198381 36.059363 
L 6.250461 40.483512 
L 6.287662 43.071935 
L 6.340982 38.617248 
L 6.380663 35.986667 
L 6.433983 40.196706 
L 6.472424 42.951678 
L 6.526985 38.245439 
L 6.562945 35.9959 
L 6.616266 40.452426 
L 6.652226 43.240177 
L 6.709267 38.365156 
L 6.745227 35.785892 
L 6.801028 40.29267 
L 6.836988 43.012434 
L 6.892789 38.228027 
L 6.929989 35.965636 
L 6.98083 40.261883 
L 7.01927 43.31397 
L 7.075071 38.343603 
L 7.112271 35.833625 
L 7.169312 40.800736 
L 7.204032 43.246857 
L 7.259833 37.950622 
L 7.294553 35.612347 
L 7.350354 40.675844 
L 7.386314 43.427777 
L 7.440875 38.440026 
L 7.476835 35.782718 
L 7.532636 40.456987 
L 7.568596 43.195822 
L 7.624397 38.038564 
L 7.659117 35.648308 
L 7.712438 40.223475 
L 7.750878 43.444731 
L 7.809159 38.136792 
L 7.845119 35.631095 
L 7.89968 40.746484 
L 7.9344 43.262052 
L 7.987721 38.278655 
L 8.029881 35.670772 
L 8.079482 40.325699 
L 8.114202 43.513736 
L 8.173723 38.191538 
L 8.208443 35.592329 
L 8.265484 40.928147 
L 8.300204 43.547974 
L 8.354765 38.078057 
L 8.394445 35.340531 
L 8.445286 40.268788 
L 8.482486 43.542908 
L 8.539527 38.233851 
L 8.571767 35.600083 
L 8.628808 40.667242 
L 8.663528 43.567673 
L 8.720569 38.036822 
L 8.759009 35.29388 
L 8.81233 40.575547 
L 8.84829 43.674129 
L 8.906571 37.900447 
L 8.938811 35.404329 
L 8.994612 40.714621 
L 9.030572 43.745483 
L 9.083893 38.418261 
L 9.122333 35.40595 
L 9.179374 40.698436 
L 9.216574 43.645735 
L 9.269895 38.103416 
L 9.303375 35.322749 
L 9.360416 40.858915 
L 9.395136 43.894489 
L 9.452177 37.986117 
L 9.490617 35.082696 
L 9.543938 40.606815 
L 9.581138 43.803652 
L 9.636939 37.881419 
L 9.670419 35.200029 
L 9.72622 40.857664 
L 9.76218 44.03144 
L 9.816741 38.310783 
L 9.855182 34.986841 
L 9.910982 40.760002 
L 9.944462 43.880994 
L 10.003983 37.796645 
L 10.039944 35.071582 
L 10.090784 40.520594 
L 10.130465 44.099808 
L 10.185025 37.988759 
L 10.218506 35.108219 
L 10.278026 40.995616 
L 10.311507 43.897793 
L 10.367307 38.03494 
L 10.405748 35.007352 
L 10.457828 40.719392 
L 10.493789 44.226568 
L 10.549589 38.21426 
L 10.58555 35.054812 
L 10.64259 40.86467 
L 10.677311 43.918949 
L 10.731871 38.233789 
L 10.769072 35.091227 
L 10.824872 41.038937 
L 10.858353 44.247859 
L 10.912913 38.555622 
L 10.952594 34.938247 
L 11.007154 40.884785 
L 11.043115 44.171245 
L 11.096435 38.322294 
L 11.133636 34.934868 
L 11.189436 40.776541 
L 11.225397 44.315138 
L 11.282437 37.847158 
L 11.319638 34.940847 
L 11.371718 40.752788 
L 11.411399 44.252237 
L 11.464719 37.791305 
L 11.49944 34.764805 
L 11.55524 40.849109 
L 11.593681 44.466925 
L 11.647001 37.920604 
L 11.682962 34.848815 
L 11.737522 41.003365 
L 11.774723 44.356148 
L 11.828043 38.077459 
L 11.866484 34.721866 
L 11.921044 40.970201 
L 11.959485 44.553832 
L 12.014045 37.569079 
L 12.048766 34.635384 
L 12.102086 40.913584 
L 12.140527 44.502254 
L 12.192607 38.274606 
L 12.231048 34.638834 
L 12.285609 40.940568 
L 12.322809 44.617207 
L 12.37737 37.734966 
L 12.41457 34.446799 
L 12.467891 41.098311 
L 12.505091 44.589647 
L 12.559652 37.863913 
L 12.599332 34.345881 
L 12.650173 40.731327 
L 12.686133 44.817081 
L 12.744414 37.524718 
L 12.780374 34.301473 
L 12.831215 40.602327 
L 12.869655 44.701797 
L 12.926696 37.522621 
L 12.962656 34.166711 
L 13.015977 40.79589 
L 13.054417 44.836263 
L 13.108978 37.644843 
L 13.144938 34.125261 
L 13.199499 41.127617 
L 13.236699 44.925533 
L 13.2925 37.450171 
L 13.32598 34.112616 
L 13.383021 41.186946 
L 13.418981 45.045451 
L 13.473542 37.677339 
L 13.509502 33.941599 
L 13.565303 41.131245 
L 13.600023 44.992609 
L 13.655824 37.9619 
L 13.690544 34.013045 
L 13.750065 41.418718 
L 13.783545 45.19546 
L 13.839346 37.691247 
L 13.876546 34.011608 
L 13.927387 40.493834 
L 13.967067 45.070652 
L 14.024108 37.266825 
L 14.060068 33.861677 
L 14.114629 41.34244 
L 14.149349 45.288228 
L 14.20515 37.649618 
L 14.24235 33.843954 
L 14.296911 41.262733 
L 14.332871 45.229324 
L 14.387432 37.619911 
L 14.424632 33.802197 
L 14.479193 41.308122 
L 14.513913 45.457783 
L 14.569714 37.717025 
L 14.606914 33.645966 
L 14.661475 41.067041 
L 14.696195 45.445133 
L 14.753236 37.512567 
L 14.789196 33.630263 
L 14.843757 41.180712 
L 14.880957 45.587502 
L 14.935518 37.589937 
L 14.972718 33.490533 
L 15.026039 40.895429 
L 15.064479 45.647053 
L 15.11904 37.42436 
L 15.15624 33.486582 
L 15.209561 41.229427 
L 15.249241 45.72642 
L 15.301322 37.654384 
L 15.338522 33.346993 
L 15.394323 41.48978 
L 15.430283 45.778219 
L 15.484844 37.391536 
L 15.522044 33.330371 
L 15.575365 41.296943 
L 15.613805 45.786091 
L 15.667126 37.587792 
L 15.705567 33.185591 
L 15.758887 41.253483 
L 15.794847 46.00488 
L 15.850648 37.476981 
L 15.887849 33.263136 
L 15.942409 41.477515 
L 15.97961 45.788447 
L 16.03417 37.250659 
L 16.071371 33.109515 
L 16.124691 41.289857 
L 16.163132 46.108619 
L 16.216452 37.403176 
L 16.253653 33.09076 
L 16.305733 41.020518 
L 16.344174 46.003683 
L 16.398734 37.505229 
L 16.435935 33.007581 
L 16.491735 41.606448 
L 16.527696 46.267887 
L 16.583496 37.151013 
L 16.619457 32.864969 
L 16.671537 41.015827 
L 16.708738 46.10173 
L 16.764538 37.449757 
L 16.801739 32.937221 
L 16.856299 41.397842 
L 16.89474 46.413421 
L 16.94806 37.297337 
L 16.985261 32.747925 
L 17.036101 40.708554 
L 17.075782 46.23144 
L 17.131582 37.086189 
L 17.168783 32.841081 
L 17.220863 41.217305 
L 17.258064 46.541266 
L 17.312624 37.49087 
L 17.349825 32.600212 
L 17.403145 41.007082 
L 17.441586 46.457131 
L 17.497386 37.050453 
L 17.533347 32.74013 
L 17.586667 41.317652 
L 17.625108 46.706438 
L 17.679668 37.193172 
L 17.713149 32.430295 
L 17.768949 41.08705 
L 17.80739 46.580234 
L 17.86319 36.862788 
L 17.897911 32.612111 
L 17.951231 41.20655 
L 17.990912 46.838292 
L 18.045473 37.029217 
L 18.081433 32.176265 
L 18.134753 41.191665 
L 18.171954 46.783725 
L 18.228995 36.800852 
L 18.264955 32.392024 
L 18.318276 41.596283 
L 18.356716 46.992334 
L 18.410037 37.241923 
L 18.447237 31.923672 
L 18.500558 41.31963 
L 18.538998 47.000264 
L 18.594799 36.749485 
L 18.628279 32.075403 
L 18.68284 41.393886 
L 18.72128 47.160147 
L 18.775841 37.185458 
L 18.813041 31.719334 
L 18.867602 41.783592 
L 18.903562 47.155172 
L 18.959363 36.891611 
L 18.995323 31.932486 
L 19.048644 41.461596 
L 19.087084 47.347028 
L 19.140405 37.438827 
L 19.178845 31.540631 
L 19.233406 41.827551 
L 19.269366 47.296949 
L 19.325167 36.844485 
L 19.363607 31.793969 
L 19.415688 41.869053 
L 19.452888 47.433838 
L 19.506209 37.387264 
L 19.543409 31.313875 
L 19.59921 41.88298 
L 19.63641 47.500236 
L 19.690971 36.790245 
L 19.726931 31.584555 
L 19.779012 41.107644 
L 19.819932 47.561617 
L 19.874493 36.707995 
L 19.909213 31.176921 
L 19.965014 41.96931 
L 20.000974 47.706757 
L 20.056775 36.725571 
L 20.095215 31.421017 
L 20.147296 41.749071 
L 20.184496 47.746719 
L 20.239057 37.044225 
L 20.277497 31.03312 
L 20.330818 41.946545 
L 20.368018 47.931197 
L 20.422579 36.723097 
L 20.459779 31.250346 
L 20.5131 41.775141 
L 20.55154 47.869561 
L 20.606101 36.580932 
L 20.642061 30.960756 
L 20.695382 41.677425 
L 20.732582 48.069583 
L 20.788383 36.764478 
L 20.824343 31.024114 
L 20.881384 42.457264 
L 20.916104 48.086668 
L 20.971905 36.605677 
L 21.009105 30.765863 
L 21.061186 41.708684 
L 21.100866 48.32624 
L 21.154187 36.671221 
L 21.191387 30.899889 
L 21.243468 41.278022 
L 21.281908 48.187969 
L 21.338949 36.23179 
L 21.374909 30.595881 
L 21.42699 41.685832 
L 21.465431 48.494911 
L 21.519991 36.724264 
L 21.557192 30.640753 
L 21.612992 42.552828 
L 21.648953 48.329615 
L 21.703513 36.515151 
L 21.739474 30.384269 
L 21.792794 41.702357 
L 21.832475 48.542309 
L 21.885795 36.674792 
L 21.922996 30.440186 
L 21.976316 41.692822 
L 22.014757 48.535879 
L 22.070557 36.123482 
L 22.106518 30.115869 
L 22.159838 42.131094 
L 22.198279 48.768563 
L 22.251599 36.667062 
L 22.28756 30.078501 
L 22.34336 42.169005 
L 22.380561 48.767764 
L 22.436361 36.200543 
L 22.471082 29.917447 
L 22.526882 42.483503 
L 22.562843 48.940576 
L 22.618643 36.321741 
L 22.654604 29.888243 
L 22.707924 41.77643 
L 22.745125 48.881827 
L 22.802165 36.080167 
L 22.836886 29.784297 
L 22.891446 42.10243 
L 22.927407 49.079704 
L 22.984447 36.27739 
L 23.020408 29.705275 
L 23.074968 42.320475 
L 23.112169 49.085887 
L 23.166729 36.289963 
L 23.20269 29.556143 
L 23.25725 42.021528 
L 23.294451 49.295947 
L 23.351491 35.919724 
L 23.387452 29.677324 
L 23.440772 42.330296 
L 23.477973 49.175959 
L 23.532533 36.325557 
L 23.569734 29.506978 
L 23.624294 42.642953 
L 23.659015 49.352352 
L 23.716056 36.156028 
L 23.752016 29.465309 
L 23.806577 42.395999 
L 23.842537 49.412071 
L 23.899578 35.829527 
L 23.934298 29.280933 
L 23.990099 42.652409 
L 24.027299 49.509557 
L 24.08186 36.077538 
L 24.11782 29.26623 
L 24.172381 42.590119 
L 24.208341 49.582942 
L 24.264142 36.10358 
L 24.301342 29.125461 
L 24.354663 42.263406 
L 24.391863 49.695633 
L 24.447664 35.98088 
L 24.482384 29.090926 
L 24.536945 42.250519 
L 24.575385 49.728055 
L 24.629946 36.055859 
L 24.665906 29.005393 
L 24.721707 42.876148 
L 24.757667 49.845602 
L 24.813468 35.891659 
L 24.849428 28.822834 
L 24.903989 42.914525 
L 24.939949 49.972756 
L 24.99575 35.940381 
L 25.03295 28.808346 
L 25.086271 42.5268 
L 25.123471 50.057349 
L 25.178032 36.179783 
L 25.215232 28.567871 
L 25.268553 42.427485 
L 25.304513 50.191755 
L 25.362794 35.446783 
L 25.397514 28.593672 
L 25.452075 42.502534 
L 25.489275 50.259739 
L 25.543836 36.169304 
L 25.579796 28.272789 
L 25.635597 43.068695 
L 25.672797 50.363637 
L 25.727358 35.904674 
L 25.764558 28.366055 
L 25.817879 42.53783 
L 25.855079 50.433303 
L 25.91088 35.830928 
L 25.94684 28.100136 
L 26.001401 42.933527 
L 26.038601 50.420583 
L 26.094402 35.475935 
L 26.127882 28.296262 
L 26.183683 42.681578 
L 26.220883 50.594487 
L 26.276684 35.694401 
L 26.312644 27.899739 
L 26.367205 42.910532 
L 26.403165 50.680119 
L 26.460206 35.476633 
L 26.494926 28.124004 
L 26.549487 42.732818 
L 26.586687 50.776306 
L 26.641248 35.99088 
L 26.678448 27.648194 
L 26.733009 42.986434 
L 26.771449 50.887085 
L 26.82601 35.365818 
L 26.86197 27.843472 
L 26.915291 42.893903 
L 26.953731 51.038749 
L 27.007052 36.032834 
L 27.044252 27.452002 
L 27.098813 43.026199 
L 27.137254 51.116199 
L 27.191814 35.270231 
L 27.227775 27.540024 
L 27.281095 42.861875 
L 27.319536 51.268136 
L 27.372856 35.906997 
L 27.410057 27.297119 
L 27.464617 43.100622 
L 27.501818 51.375571 
L 27.556378 35.716763 
L 27.592339 27.434228 
L 27.646899 42.865226 
L 27.6841 51.37304 
L 27.73866 35.903329 
L 27.775861 27.143065 
L 27.830421 43.162241 
L 27.867622 51.57225 
L 27.922182 35.619753 
L 27.959383 27.163285 
L 28.012703 43.105229 
L 28.051144 51.603668 
L 28.104464 35.748606 
L 28.141665 26.922202 
L 28.196225 43.228102 
L 28.233426 51.820647 
L 28.287986 35.573003 
L 28.325187 26.896319 
L 28.379747 43.583471 
L 28.416948 51.850242 
L 28.470268 35.793319 
L 28.508709 26.854185 
L 28.562029 43.246155 
L 28.59923 51.963534 
L 28.65379 35.495503 
L 28.690991 26.619474 
L 28.745551 43.611978 
L 28.780272 52.119943 
L 28.837312 35.248702 
L 28.873273 26.584404 
L 28.927833 43.264065 
L 28.965034 52.141698 
L 29.020834 34.971255 
L 29.056795 26.432982 
L 29.110115 43.145734 
L 29.147316 52.388749 
L 29.203116 35.227116 
L 29.240317 26.393105 
L 29.293637 43.294936 
L 29.330838 52.39415 
L 29.386639 35.053645 
L 29.422599 26.206724 
L 29.47716 43.615047 
L 29.51312 52.565225 
L 29.568921 35.212411 
L 29.604881 26.221645 
L 29.659442 43.406933 
L 29.696642 52.594688 
L 29.752443 34.931512 
L 29.788403 26.011021 
L 29.842964 43.590312 
L 29.880164 52.854561 
L 29.934725 35.142048 
L 29.971925 26.040272 
L 30.025246 43.494259 
L 30.062446 52.805511 
L 30.118247 34.716674 
L 30.154207 25.803268 
L 30.207528 43.199358 
L 30.247208 53.201582 
L 30.300529 35.013259 
L 30.337729 25.775302 
L 30.39105 43.587479 
L 30.42825 53.078261 
L 30.482811 35.338351 
L 30.520011 25.589649 
L 30.575812 44.349832 
L 30.611772 53.454173 
L 30.666333 34.954691 
L 30.703533 25.652611 
L 30.756854 43.615962 
L 30.794054 53.366491 
L 30.848615 35.299299 
L 30.885815 25.339289 
L 30.940376 43.759228 
L 30.977576 53.588639 
L 31.032137 34.869645 
L 31.068097 25.425697 
L 31.121418 43.02414 
L 31.159858 53.63734 
L 31.214419 35.22279 
L 31.251619 25.087294 
L 31.30618 43.88174 
L 31.34462 53.72393 
L 31.397941 34.82162 
L 31.435141 25.159675 
L 31.487222 43.052905 
L 31.525662 53.905402 
L 31.580223 35.250464 
L 31.617423 24.902125 
L 31.671984 43.926852 
L 31.709184 53.836577 
L 31.764985 34.274316 
L 31.800945 25.009263 
L 31.853026 42.946808 
L 31.891466 54.05318 
L 31.946027 35.282641 
L 31.983227 24.767927 
L 32.037788 43.937252 
L 32.074988 54.036957 
L 32.129549 34.792632 
L 32.166749 24.822877 
L 32.21883 42.956571 
L 32.25851 54.359634 
L 32.311831 35.275106 
L 32.349031 24.591748 
L 32.403592 43.944705 
L 32.440792 54.230436 
L 32.496593 34.307147 
L 32.532553 24.617292 
L 32.585874 43.573932 
L 32.623074 54.601961 
L 32.677635 35.208056 
L 32.716076 24.348265 
L 32.769396 44.059173 
L 32.806597 54.474493 
L 32.861157 34.90493 
L 32.898358 24.411775 
L 32.951678 43.466102 
L 32.988879 54.791827 
L 33.043439 35.227687 
L 33.08064 24.159406 
L 33.1352 43.971287 
L 33.172401 54.675032 
L 33.226961 34.860139 
L 33.264162 24.255715 
L 33.318722 44.093776 
L 33.354683 55.201915 
L 33.410483 34.575902 
L 33.447684 23.996999 
L 33.499764 43.290131 
L 33.539445 55.005977 
L 33.594005 34.252988 
L 33.629966 23.866667 
L 33.683286 43.4642 
L 33.721727 55.577824 
L 33.776287 34.585345 
L 33.812248 23.843794 
L 33.866808 44.009991 
L 33.904009 55.504114 
L 33.958569 34.840435 
L 33.99701 23.543433 
L 34.05033 44.159472 
L 34.087531 55.747815 
L 34.142091 34.500803 
L 34.179292 23.60375 
L 34.232612 44.021258 
L 34.272293 55.768083 
L 34.324373 34.818476 
L 34.361574 23.368263 
L 34.416134 44.296005 
L 34.453335 56.022102 
L 34.507895 34.464686 
L 34.545096 23.380432 
L 34.598416 43.985627 
L 34.636857 55.941992 
L 34.690177 34.830602 
L 34.727378 23.062022 
L 34.781938 44.289005 
L 34.819139 56.343084 
L 34.873699 34.456944 
L 34.9109 23.115375 
L 34.96422 43.923668 
L 35.001421 56.3108 
L 35.057222 34.171859 
L 35.093182 22.834941 
L 35.147743 44.283361 
L 35.186183 56.508693 
L 35.239504 34.446115 
L 35.276704 22.951098 
L 35.328785 43.199772 
L 35.368465 56.499845 
L 35.423026 34.152504 
L 35.460226 22.735219 
L 35.513547 44.335657 
L 35.550747 56.540586 
L 35.605308 34.444562 
L 35.643748 22.81173 
L 35.695829 43.923687 
L 35.733029 56.70598 
L 35.78883 34.13839 
L 35.82603 22.554191 
L 35.879351 44.418659 
L 35.916551 56.698237 
L 35.971112 34.425819 
L 36.008312 22.608146 
L 36.061633 43.918898 
L 36.100073 56.882797 
L 36.154634 34.085441 
L 36.191834 22.339071 
L 36.245155 44.485288 
L 36.282355 56.850309 
L 36.335676 35.073766 
L 36.374116 22.39869 
L 36.428677 44.604916 
L 36.465877 57.13043 
L 36.520438 34.088046 
L 36.557638 22.222965 
L 36.609719 43.743972 
L 36.649399 57.05002 
L 36.70272 34.372831 
L 36.73992 22.151512 
L 36.793241 43.887398 
L 36.832921 57.367826 
L 36.886242 34.073083 
L 36.923442 21.987393 
L 36.976763 44.473816 
L 37.013963 57.312366 
L 37.068524 34.444753 
L 37.105724 21.88588 
L 37.160285 44.576696 
L 37.197485 57.619825 
L 37.253286 33.494549 
L 37.289246 21.838997 
L 37.343807 45.067734 
L 37.381007 57.411427 
L 37.434328 34.455541 
L 37.472768 21.801774 
L 37.526089 44.649357 
L 37.563289 57.729821 
L 37.61785 34.104507 
L 37.65629 21.624001 
L 37.708371 44.449039 
L 37.746811 57.630383 
L 37.800132 34.479371 
L 37.837332 21.555428 
L 37.891893 44.590776 
L 37.929093 57.930543 
L 37.983654 34.11783 
L 38.020854 21.586751 
L 38.074175 44.287665 
L 38.113855 57.857545 
L 38.165936 34.569191 
L 38.204376 21.242856 
L 38.258937 45.258619 
L 38.296138 58.239107 
L 38.350698 33.527064 
L 38.386659 21.332236 
L 38.441219 44.886695 
L 38.47842 58.165731 
L 38.53298 33.96626 
L 38.570181 21.118892 
L 38.623501 44.39341 
L 38.660702 58.426871 
L 38.715262 34.38893 
L 38.752463 21.128736 
L 38.807023 44.669398 
L 38.845464 58.402166 
L 38.900024 33.379366 
L 38.935985 21.014701 
L 38.990545 45.038505 
L 39.027746 58.591811 
L 39.082306 33.747126 
L 39.119507 21.057735 
L 39.172827 44.600148 
L 39.210028 58.659711 
L 39.265828 33.409145 
L 39.301789 20.627932 
L 39.356349 45.055366 
L 39.39479 58.861766 
L 39.44811 33.852921 
L 39.485311 20.93729 
L 39.539871 45.318547 
L 39.577072 58.793922 
L 39.632872 32.730194 
L 39.668833 20.599153 
L 39.722153 44.987372 
L 39.759354 59.056836 
L 39.812674 34.589342 
L 39.851115 20.645424 
L 39.905675 45.264376 
L 39.942876 59.064887 
L 39.998676 32.677993 
L 40.034637 20.615023 
L 40.087957 44.980596 
L 40.125158 59.126018 
L 40.179718 33.912911 
L 40.216919 20.543034 
L 40.270239 44.406595 
L 40.30868 59.321779 
L 40.36324 33.508873 
L 40.400441 20.238527 
L 40.453761 44.978939 
L 40.492202 59.375796 
L 40.545523 33.856098 
L 40.582723 20.455917 
L 40.637284 45.18841 
L 40.674484 59.363615 
L 40.730285 32.814909 
L 40.765005 20.064769 
L 40.820806 45.679369 
L 40.858006 59.529929 
L 40.912567 33.199502 
L 40.948527 20.168375 
L 41.003088 45.187571 
L 41.041528 59.439472 
L 41.096089 32.655413 
L 41.132049 20.19564 
L 41.18537 44.89867 
L 41.22381 59.687261 
L 41.277131 33.932974 
L 41.314331 19.751483 
L 41.368892 45.151886 
L 41.406092 59.822249 
L 41.460653 33.483735 
L 41.497853 19.930743 
L 41.552414 45.747444 
L 41.589614 59.81085 
L 41.644175 33.123152 
L 41.680135 19.722045 
L 41.734696 45.278261 
L 41.771896 59.979842 
L 41.826457 33.508625 
L 41.863657 19.502889 
L 41.916978 44.899604 
L 41.956658 60.009234 
L 42.009979 33.058682 
L 42.047179 19.530867 
L 42.1005 45.098337 
L 42.1377 59.928022 
L 42.192261 33.573367 
L 42.229461 19.666527 
L 42.282782 44.728933 
L 42.321222 60.158577 
L 42.377023 32.369403 
L 42.411743 19.201207 
L 42.467544 45.856234 
L 42.503504 60.206527 
L 42.559305 32.762939 
L 42.595265 19.481378 
L 42.649826 45.62098 
L 42.687026 60.180285 
L 42.741587 33.188584 
L 42.778787 19.148925 
L 42.832108 45.131454 
L 42.870548 60.457095 
L 42.925109 32.893682 
L 42.961069 19.248836 
L 43.01563 45.487394 
L 43.05283 60.416667 
L 43.108631 32.367866 
L 43.144591 19.139761 
L 43.199152 45.836672 
L 43.235112 60.378443 
L 43.290913 32.943537 
L 43.326873 19.099947 
L 43.381434 45.443278 
L 43.418634 60.63821 
L 43.474435 32.41261 
L 43.510395 18.86751 
L 43.564956 45.843687 
L 43.602156 60.560441 
L 43.656717 32.874553 
L 43.692677 18.807292 
L 43.747238 45.428081 
L 43.785679 60.839987 
L 43.840239 32.396617 
L 43.8762 18.554703 
L 43.93076 45.942082 
L 43.966721 61.081038 
L 44.022521 32.933899 
L 44.058482 18.5218 
L 44.113042 45.298988 
L 44.150243 60.898805 
L 44.206043 32.463576 
L 44.242004 18.485244 
L 44.296564 45.826253 
L 44.333765 61.197803 
L 44.389565 32.279945 
L 44.425526 18.285044 
L 44.478846 45.232588 
L 44.517287 61.340222 
L 44.571847 32.490419 
L 44.607808 18.212982 
L 44.662368 45.784829 
L 44.699569 61.186585 
L 44.754129 33.183104 
L 44.79133 18.129545 
L 44.84465 45.240971 
L 44.883091 61.491094 
L 44.936411 33.55915 
L 44.974852 17.99153 
L 45.029412 46.664542 
L 45.066613 61.545093 
L 45.117453 34.965556 
L 45.157134 17.953186 
L 45.211694 45.872057 
L 45.250135 61.411846 
L 45.304695 31.914655 
L 45.340656 17.87521 
L 45.395216 46.553232 
L 45.432417 61.777844 
L 45.484497 34.148829 
L 45.522938 17.826642 
L 45.577498 45.737018 
L 45.615939 61.52415 
L 45.670499 31.961021 
L 45.70646 17.825153 
L 45.76102 46.439325 
L 45.798221 61.672885 
L 45.850301 34.255417 
L 45.888742 17.848904 
L 45.942062 44.954695 
L 45.980503 61.588841 
L 46.033823 33.819449 
L 46.072264 17.560221 
L 46.126825 46.367227 
L 46.164025 61.798623 
L 46.216106 34.293598 
L 46.254546 17.791406 
L 46.309107 45.686286 
L 46.346307 61.622268 
L 46.402108 32.283909 
L 46.438068 17.366973 
L 46.492629 46.368379 
L 46.529829 62.073437 
L 46.58315 33.44247 
L 46.62159 17.581842 
L 46.676151 46.506193 
L 46.712111 61.728694 
L 46.767912 32.36096 
L 46.803872 17.4456 
L 46.858433 46.146842 
L 46.895633 62.086895 
L 46.950194 32.820498 
L 46.987394 17.298846 
L 47.041955 46.402471 
L 47.079155 61.901084 
L 47.133716 32.448342 
L 47.169676 17.301379 
L 47.224237 45.969973 
L 47.262677 62.074301 
L 47.315998 32.855427 
L 47.353198 17.358703 
L 47.407759 46.258614 
L 47.443719 61.95086 
L 47.49952 32.572826 
L 47.53548 17.119446 
L 47.588801 44.877036 
L 47.627241 62.423008 
L 47.681802 32.876288 
L 47.720242 16.944848 
L 47.774803 47.156835 
L 47.810763 62.090487 
L 47.864084 33.50292 
L 47.902524 16.953235 
L 47.955845 45.64175 
L 47.993045 62.464679 
L 48.048846 32.085168 
L 48.084806 16.693846 
L 48.140607 47.093116 
L 48.176567 62.279151 
L 48.229888 33.549945 
L 48.268328 16.825022 
L 48.322889 46.548552 
L 48.360089 62.3949 
L 48.41465 32.169265 
L 48.44937 16.651411 
L 48.506411 47.109324 
L 48.541131 62.53979 
L 48.595692 33.609743 
L 48.632892 16.724418 
L 48.688693 46.513951 
L 48.727133 62.67628 
L 48.780454 32.147732 
L 48.816414 16.470516 
L 48.872215 47.072818 
L 48.908175 62.535824 
L 48.961496 33.574873 
L 48.999936 16.572992 
L 49.053257 45.528298 
L 49.091697 62.819385 
L 49.146258 32.26654 
L 49.183458 16.144979 
L 49.238019 47.041739 
L 49.273979 62.851375 
L 49.3273 33.749528 
L 49.365741 16.426541 
L 49.420301 46.365015 
L 49.457502 62.782857 
L 49.512062 32.457755 
L 49.548023 16.082776 
L 49.603823 46.971784 
L 49.641024 63.12631 
L 49.693104 33.756811 
L 49.731545 16.299213 
L 49.786105 46.330543 
L 49.823306 62.936545 
L 49.879106 31.38192 
L 49.915067 16.085415 
L 49.969627 46.994454 
L 50.005588 63.181833 
L 50.060148 32.871852 
L 50.097349 16.172289 
L 50.151909 46.426858 
L 50.18911 63.155898 
L 50.24367 32.38445 
L 50.279631 15.822367 
L 50.335431 46.989168 
L 50.372632 63.209505 
L 50.424712 33.794455 
L 50.464393 16.032806 
L 50.517713 46.355432 
L 50.556154 63.256862 
L 50.609474 32.557575 
L 50.646675 15.609405 
L 50.701235 46.885463 
L 50.737196 63.616403 
L 50.791756 32.802901 
L 50.828957 15.946166 
L 50.883517 46.277798 
L 50.920718 63.464144 
L 50.975278 32.649245 
L 51.012479 15.741342 
L 51.067039 46.804775 
L 51.10424 63.707458 
L 51.1588 32.217771 
L 51.194761 15.649718 
L 51.250561 47.075654 
L 51.286522 63.431449 
L 51.341082 32.576684 
L 51.377043 15.71935 
L 51.431603 45.59557 
L 51.470044 63.540818 
L 51.525845 31.141508 
L 51.560565 15.676558 
L 51.616366 47.099738 
L 51.652326 63.645219 
L 51.706887 32.671406 
L 51.744087 15.443393 
L 51.797408 45.566678 
L 51.835848 64.030655 
L 51.890409 32.05258 
L 51.926369 15.399984 
L 51.98217 47.049001 
L 52.01937 63.90711 
L 52.072691 32.724491 
L 52.111131 15.435271 
L 52.163212 45.494041 
L 52.201652 64.202033 
L 52.257453 31.224747 
L 52.293413 15.11124 
L 52.347974 47.030316 
L 52.385174 63.973954 
L 52.438495 32.809671 
L 52.475695 15.279236 
L 52.531496 47.388264 
L 52.567456 64.004646 
L 52.622017 32.342918 
L 52.659217 14.960502 
L 52.713778 46.921726 
L 52.750978 64.073608 
L 52.804299 32.893617 
L 52.842739 15.20398 
L 52.89606 46.382144 
L 52.93326 64.228403 
L 52.987821 32.297325 
L 53.025021 14.88797 
L 53.079582 46.888473 
L 53.116782 64.165365 
L 53.170103 32.822413 
L 53.208543 15.194349 
L 53.261864 46.366781 
L 53.300304 64.399324 
L 53.353625 32.400845 
L 53.390825 14.686188 
L 53.445386 46.866298 
L 53.482586 64.310142 
L 53.535907 32.978946 
L 53.574347 15.016654 
L 53.627668 46.31096 
L 53.664868 64.396389 
L 53.719429 32.499377 
L 53.756629 14.564177 
L 53.81243 47.751482 
L 53.84839 64.484387 
L 53.902951 32.049869 
L 53.940151 14.956287 
L 53.992232 45.113674 
L 54.031912 64.468696 
L 54.086473 31.481365 
L 54.122433 14.512362 
L 54.178234 47.697752 
L 54.214194 64.533184 
L 54.267515 33.073981 
L 54.305955 14.856461 
L 54.359276 46.125448 
L 54.397716 64.604877 
L 54.452277 31.571988 
L 54.488237 14.386004 
L 54.544038 47.63909 
L 54.579998 64.596457 
L 54.633319 33.188307 
L 54.671759 14.691651 
L 54.72632 47.06887 
L 54.76352 64.666104 
L 54.816841 32.780863 
L 54.855282 14.236455 
L 54.909842 47.58812 
L 54.945803 64.740361 
L 55.000363 32.188204 
L 55.037564 14.61675 
L 55.090884 45.967595 
L 55.129325 64.771576 
L 55.183885 31.66796 
L 55.219846 14.175748 
L 55.275646 47.587792 
L 55.312847 64.838036 
L 55.366167 32.370343 
L 55.404608 14.51093 
L 55.456688 45.886307 
L 55.495129 64.860742 
L 55.549689 31.652155 
L 55.58689 14.113312 
L 55.64021 46.462445 
L 55.678651 64.913325 
L 55.731971 32.500006 
L 55.769172 14.330677 
L 55.823732 46.93 
L 55.860933 64.947272 
L 55.915493 31.948329 
L 55.952694 14.016041 
L 56.007254 47.361249 
L 56.044455 65.004527 
L 56.096535 33.376566 
L 56.136216 14.262615 
L 56.189536 46.836339 
L 56.226737 64.992276 
L 56.281297 31.94011 
L 56.318498 14.167597 
L 56.373058 47.481002 
L 56.409019 65.146406 
L 56.463579 32.490087 
L 56.50078 14.107434 
L 56.55534 46.82685 
L 56.592541 65.090093 
L 56.647101 31.824784 
L 56.684302 14.209742 
L 56.737622 46.380314 
L 56.776063 65.064008 
L 56.829383 32.544576 
L 56.866584 13.997227 
L 56.921144 46.870797 
L 56.958345 65.101692 
L 57.012905 32.003718 
L 57.050106 13.863737 
L 57.103426 46.320228 
L 57.140627 65.140386 
L 57.195188 32.454329 
L 57.232388 13.96962 
L 57.286949 46.736103 
L 57.325389 65.288448 
L 57.37871 32.080481 
L 57.41715 13.971817 
L 57.469231 46.315137 
L 57.507671 65.391864 
L 57.560992 32.476537 
L 57.599432 13.673072 
L 57.653993 47.755221 
L 57.689953 65.451107 
L 57.743274 33.126568 
L 57.781714 13.859922 
L 57.836275 47.236416 
L 57.873475 65.405627 
L 57.926796 32.668693 
L 57.965236 13.478695 
L 58.019797 47.605459 
L 58.056997 65.418702 
L 58.110318 32.127317 
L 58.147518 13.767685 
L 58.202079 47.13141 
L 58.239279 65.384911 
L 58.2926 32.642797 
L 58.3298 13.464189 
L 58.385601 47.616803 
L 58.422801 65.506163 
L 58.476122 32.25543 
L 58.513322 13.597513 
L 58.566643 45.963186 
L 58.605083 65.609586 
L 58.659644 31.515068 
L 58.695604 13.206213 
L 58.752645 48.483173 
L 58.788605 65.646596 
L 58.841926 32.357596 
L 58.880366 13.42968 
L 58.932447 45.839521 
L 58.970887 65.775453 
L 59.026688 30.574493 
L 59.062648 13.004674 
L 59.118449 48.430253 
L 59.154409 65.764855 
L 59.20773 32.302841 
L 59.24493 13.278745 
L 59.299491 46.88018 
L 59.336691 65.834279 
L 59.391252 31.784488 
L 59.427212 12.828129 
L 59.484253 48.554595 
L 59.520213 65.867552 
L 59.573534 32.475289 
L 59.611974 13.153459 
L 59.664055 45.605072 
L 59.703735 65.883323 
L 59.758296 30.584135 
L 59.794256 12.795154 
L 59.848817 47.329454 
L 59.886017 65.95757 
L 59.939338 32.563126 
L 59.977778 13.128705 
L 60.031099 46.797078 
L 60.068299 65.937866 
L 60.1241 30.74756 
L 60.16006 12.789758 
L 60.215861 48.201627 
L 60.251821 66.021163 
L 60.306382 31.514075 
L 60.343582 12.982475 
L 60.398143 47.729312 
L 60.434103 66.115891 
L 60.488664 32.16688 
L 60.527105 12.712055 
L 60.581665 48.280892 
L 60.617626 66.135066 
L 60.670946 32.593709 
L 60.709387 12.948702 
L 60.762707 46.509793 
L 60.801148 66.176167 
L 60.855708 30.949108 
L 60.891669 12.646479 
L 60.947469 48.152196 
L 60.98343 66.123263 
L 61.03799 31.785312 
L 61.075191 13.041005 
L 61.129751 47.651703 
L 61.166952 66.133164 
L 61.220272 32.156643 
L 61.258713 12.825341 
L 61.312033 47.109455 
L 61.349234 66.160742 
L 61.402554 32.71639 
L 61.440995 12.984291 
L 61.495555 47.638137 
L 61.532756 66.206594 
L 61.586076 32.406264 
L 61.624517 12.688505 
L 61.679077 48.075952 
L 61.715038 66.342113 
L 61.769598 31.534903 
L 61.806799 12.945472 
L 61.860119 46.423513 
L 61.89732 66.276801 
L 61.95312 31.333114 
L 61.990321 12.76437 
L 62.044881 48.166686 
L 62.080842 66.373929 
L 62.135402 31.775318 
L 62.172603 12.584837 
L 62.228403 48.614133 
L 62.264364 66.416252 
L 62.317684 32.237546 
L 62.356125 12.675575 
L 62.409445 47.018155 
L 62.446646 66.404985 
L 62.501206 31.673026 
L 62.537167 12.614396 
L 62.592967 47.552582 
L 62.630168 66.456491 
L 62.684728 31.447719 
L 62.720689 12.534318 
L 62.77649 47.969056 
L 62.81245 66.479601 
L 62.865771 32.707441 
L 62.904211 12.445353 
L 62.958772 47.479491 
L 62.994732 66.495539 
L 63.050533 31.453204 
L 63.086493 12.56784 
L 63.142294 48.002657 
L 63.178254 66.52907 
L 63.232815 31.686394 
L 63.270015 12.255209 
L 63.325816 48.459172 
L 63.361776 66.520522 
L 63.416337 31.352714 
L 63.453537 12.546114 
L 63.508098 47.841376 
L 63.545298 66.563352 
L 63.598619 31.922306 
L 63.635819 12.18125 
L 63.69162 48.426374 
L 63.72758 66.569251 
L 63.780901 32.496562 
L 63.819341 12.493609 
L 63.872662 46.702718 
L 63.909862 66.579593 
L 63.964423 31.922186 
L 64.001623 12.148061 
L 64.057424 48.325931 
L 64.093384 66.770689 
L 64.147945 31.536657 
L 64.183905 12.46484 
L 64.238466 46.746964 
L 64.275666 66.728992 
L 64.330227 32.004477 
L 64.367427 12.08393 
L 64.423228 48.259346 
L 64.460428 66.862686 
L 64.513749 31.630322 
L 64.550949 12.35495 
L 64.60427 46.584013 
L 64.64271 66.775928 
L 64.697271 31.049752 
L 64.734471 12.012619 
L 64.789032 48.281834 
L 64.824992 66.880175 
L 64.879553 31.648902 
L 64.916753 12.458933 
L 64.970074 46.562107 
L 65.007274 66.841544 
L 65.063075 30.982249 
L 65.099035 12.028306 
L 65.154836 48.241482 
L 65.190796 66.833538 
L 65.245357 31.657822 
L 65.282557 12.441181 
L 65.337118 47.732098 
L 65.374318 66.836337 
L 65.427639 32.117067 
L 65.466079 12.070316 
L 65.52064 48.091847 
L 65.55784 66.93659 
L 65.609921 32.766797 
L 65.648361 12.285443 
L 65.702922 47.520228 
L 65.740122 66.926653 
L 65.794683 31.364104 
L 65.831883 12.017961 
L 65.886444 47.971136 
L 65.923644 67.003549 
L 65.976965 31.733816 
L 66.014165 12.291776 
L 66.068726 47.348922 
L 66.104686 66.903786 
L 66.160487 31.486248 
L 66.197688 12.146846 
L 66.252248 47.909713 
L 66.288209 66.859133 
L 66.342769 32.015414 
L 66.37997 12.168846 
L 66.43577 48.377785 
L 66.471731 66.895501 
L 66.526291 31.417849 
L 66.563492 12.119712 
L 66.618052 47.713952 
L 66.655253 66.905715 
L 66.708573 32.089011 
L 66.745774 12.165023 
L 66.801574 48.252663 
L 66.837535 66.907144 
L 66.892095 31.713193 
L 66.929296 12.125677 
L 66.983856 47.655626 
L 67.021057 66.992555 
L 67.074377 32.084183 
L 67.111578 11.914996 
L 67.167378 48.166817 
L 67.204579 67.041647 
L 67.257899 31.720113 
L 67.2951 12.148007 
L 67.34842 46.494328 
L 67.386861 67.074475 
L 67.441421 31.126721 
L 67.477382 11.832482 
L 67.533182 48.127012 
L 67.570383 67.171348 
L 67.623703 31.792529 
L 67.660904 12.033089 
L 67.714224 46.344147 
L 67.752665 67.132556 
L 67.807225 31.359597 
L 67.844426 11.81595 
L 67.898986 47.990973 
L 67.934947 67.059766 
L 67.989507 31.961017 
L 68.026708 12.170018 
L 68.080028 46.265915 
L 68.118469 67.100689 
L 68.173029 31.282204 
L 68.21023 11.785513 
L 68.26479 47.889558 
L 68.301991 67.16636 
L 68.355312 31.96938 
L 68.392512 12.196232 
L 68.447073 47.340174 
L 68.484273 67.145815 
L 68.538834 31.34443 
L 68.576034 11.715879 
L 68.630595 47.818663 
L 68.667795 67.157959 
L 68.721116 32.014361 
L 68.758316 12.14178 
L 68.811637 46.18168 
L 68.850077 67.16724 
L 68.904638 31.460534 
L 68.941838 11.659155 
L 68.996399 47.708399 
L 69.033599 67.11594 
L 69.08692 32.071152 
L 69.12412 12.152766 
L 69.178681 47.219228 
L 69.215881 67.215501 
L 69.270442 31.51641 
L 69.307642 11.611126 
L 69.363443 48.754197 
L 69.399403 67.172622 
L 69.451484 33.18838 
L 69.489924 12.036776 
L 69.544485 47.2009 
L 69.582925 67.252994 
L 69.636246 31.373982 
L 69.673446 11.490608 
L 69.729247 48.713486 
L 69.765207 67.180258 
L 69.818528 32.174627 
L 69.855728 11.87339 
L 69.910289 47.225887 
L 69.948729 67.256067 
L 70.00205 31.456168 
L 70.03925 11.476401 
L 70.095051 48.73895 
L 70.131011 67.270189 
L 70.184332 32.076355 
L 70.222772 11.817234 
L 70.276093 47.244643 
L 70.313293 67.319542 
L 70.367854 31.593126 
L 70.406294 11.468925 
L 70.460855 48.876329 
L 70.496815 67.30206 
L 70.548896 33.244587 
L 70.587336 11.830792 
L 70.641897 47.211794 
L 70.680337 67.37542 
L 70.733658 31.459043 
L 70.770858 11.536452 
L 70.825419 47.708233 
L 70.862619 67.352947 
L 70.91594 32.30541 
L 70.95438 11.757294 
L 71.008941 48.334135 
L 71.044901 67.327014 
L 71.098222 32.658309 
L 71.136662 11.582499 
L 71.191223 47.621783 
L 71.228423 67.408768 
L 71.281744 32.152319 
L 71.320184 11.658228 
L 71.374745 48.166996 
L 71.410705 67.447398 
L 71.465266 31.772686 
L 71.502466 11.657726 
L 71.557027 47.63172 
L 71.594227 67.509966 
L 71.647548 32.285813 
L 71.685989 11.590969 
L 71.740549 47.977776 
L 71.77775 67.452847 
L 71.83107 31.858259 
L 71.868271 11.579473 
L 71.921591 46.418322 
L 71.960032 67.557424 
L 72.014592 31.325694 
L 72.051793 11.390512 
L 72.107593 48.970354 
L 72.142314 67.553042 
L 72.198114 30.848553 
L 72.234075 11.63282 
L 72.289875 48.456776 
L 72.325836 67.650442 
L 72.380396 31.187428 
L 72.418837 11.218868 
L 72.472157 47.880059 
L 72.509358 67.503787 
L 72.562678 32.03284 
L 72.601119 11.611027 
L 72.654439 47.402378 
L 72.69164 67.606312 
L 72.7462 31.172256 
L 72.783401 11.103437 
L 72.837961 47.823908 
L 72.875162 67.575616 
L 72.928482 32.081416 
L 72.966923 11.488782 
L 73.020243 47.298332 
L 73.058684 67.625254 
L 73.112004 31.380746 
L 73.149205 11.08691 
L 73.205005 48.841549 
L 73.239726 67.550642 
L 73.294286 32.008986 
L 73.332727 11.445747 
L 73.387287 48.35637 
L 73.423248 67.716788 
L 73.476568 32.622951 
L 73.515009 10.981104 
L 73.570809 48.904947 
L 73.60677 67.660655 
L 73.66009 32.155318 
L 73.697291 11.490649 
L 73.751851 47.234131 
L 73.790292 67.689813 
L 73.843612 31.278849 
L 73.880813 10.983255 
L 73.936614 48.826437 
L 73.973814 67.709219 
L 74.025895 32.230592 
L 74.063095 11.418056 
L 74.117656 47.18715 
L 74.154856 67.739327 
L 74.209417 31.467542 
L 74.246617 10.904219 
L 74.302418 48.680945 
L 74.338378 67.792922 
L 74.391699 32.203607 
L 74.430139 11.265969 
L 74.48346 47.001653 
L 74.5219 67.844311 
L 74.575221 31.688709 
L 74.613661 10.793587 
L 74.668222 48.708276 
L 74.704182 67.860744 
L 74.757503 32.320981 
L 74.795943 11.302617 
L 74.849264 46.898285 
L 74.887704 67.822789 
L 74.941025 31.643247 
L 74.978225 10.799359 
L 75.034026 48.56353 
L 75.069986 67.880161 
L 75.123307 32.418267 
L 75.161747 11.276802 
L 75.215068 46.898125 
L 75.252268 67.829408 
L 75.306829 31.839041 
L 75.345269 10.755981 
L 75.39983 48.381435 
L 75.43579 67.873914 
L 75.490351 31.494767 
L 75.527551 11.126937 
L 75.582112 47.898102 
L 75.619312 67.823285 
L 75.672633 32.117814 
L 75.709833 10.764412 
L 75.765634 48.403742 
L 75.802834 67.880113 
L 75.856155 31.533498 
L 75.893355 11.310279 
L 75.947916 47.756269 
L 75.985116 67.757208 
L 76.038437 32.201456 
L 76.076877 10.891081 
L 76.131438 48.305719 
L 76.167398 67.801635 
L 76.221959 31.651409 
L 76.259159 11.302639 
L 76.31372 47.777426 
L 76.35092 67.837703 
L 76.404241 32.190541 
L 76.442681 10.993497 
L 76.497242 48.17337 
L 76.533202 67.957842 
L 76.587763 31.614684 
L 76.624963 11.188186 
L 76.679524 47.732508 
L 76.716724 67.890594 
L 76.770045 32.375561 
L 76.808485 11.036109 
L 76.863046 48.121023 
L 76.899006 68.007678 
L 76.953567 31.549807 
L 76.990767 11.140892 
L 77.045328 47.651812 
L 77.082528 67.888721 
L 77.137089 31.299411 
L 77.174289 11.002856 
L 77.23009 49.223471 
L 77.266051 68.004601 
L 77.318131 32.87413 
L 77.356572 11.04042 
L 77.412372 48.693962 
L 77.449573 67.985209 
L 77.501653 32.238751 
L 77.540094 11.045166 
L 77.594654 47.995703 
L 77.631855 67.977104 
L 77.685175 31.770683 
L 77.722376 11.045176 
L 77.778176 48.624744 
L 77.814137 67.964436 
L 77.868697 31.38834 
L 77.905898 11.149381 
L 77.961698 49.015621 
L 77.997659 67.981774 
L 78.050979 31.620391 
L 78.08818 10.815796 
L 78.14398 48.61194 
L 78.179941 67.99694 
L 78.234501 31.34359 
L 78.271702 11.139474 
L 78.326262 48.038613 
L 78.362223 67.989303 
L 78.416783 31.835807 
L 78.455224 10.787899 
L 78.509784 48.507988 
L 78.545745 68.004753 
L 78.600305 31.443164 
L 78.637506 11.006704 
L 78.692066 47.863769 
L 78.729267 67.928486 
L 78.782587 31.978474 
L 78.819788 10.744866 
L 78.875588 48.459759 
L 78.912789 67.932582 
L 78.966109 31.52048 
L 79.00331 11.309843 
L 79.05663 46.734062 
L 79.095071 67.913343 
L 79.149631 30.696075 
L 79.186832 10.76577 
L 79.240152 47.380786 
L 79.277353 67.997556 
L 79.331913 31.444803 
L 79.369114 11.309396 
L 79.423674 47.936074 
L 79.459635 67.949103 
L 79.514195 31.897588 
L 79.552636 10.674155 
L 79.607197 48.343795 
L 79.643157 67.990329 
L 79.697718 31.597344 
L 79.734918 11.201021 
L 79.788239 46.710364 
L 79.826679 68.010214 
L 79.88124 30.880667 
L 79.91844 10.721776 
L 79.971761 47.17139 
L 80.010201 67.984366 
L 80.063522 31.679914 
L 80.100722 11.311729 
L 80.155283 47.71695 
L 80.192483 67.914285 
L 80.247044 31.049007 
L 80.284244 10.811718 
L 80.338805 48.330831 
L 80.374765 68.000063 
L 80.429326 31.699827 
L 80.467766 11.280243 
L 80.521087 47.629281 
L 80.558287 67.985548 
L 80.612848 31.081764 
L 80.650048 10.870442 
L 80.704609 48.072715 
L 80.741809 67.890338 
L 80.79513 31.831845 
L 80.83233 11.312711 
L 80.886891 47.474053 
L 80.924091 67.972223 
L 80.978652 31.206232 
L 81.015852 10.888671 
L 81.070413 48.079492 
L 81.107613 67.904957 
L 81.160934 31.705917 
L 81.198134 11.125785 
L 81.252695 47.496704 
L 81.289895 67.911567 
L 81.344456 31.350274 
L 81.381656 11.008792 
L 81.437457 49.139619 
L 81.472177 67.882011 
L 81.525498 32.949511 
L 81.563938 11.210738 
L 81.618499 47.508927 
L 81.655699 67.910474 
L 81.71026 31.273969 
L 81.74746 10.929245 
L 81.802021 48.049395 
L 81.837981 67.956263 
L 81.892542 31.988694 
L 81.929742 11.057744 
L 81.985543 48.577522 
L 82.021503 67.994221 
L 82.076064 31.427077 
L 82.113264 11.148566 
L 82.167825 47.992821 
L 82.205025 67.945915 
L 82.258346 31.862047 
L 82.295546 10.954836 
L 82.351347 48.570189 
L 82.387307 67.918658 
L 82.441868 31.367236 
L 82.479068 11.187303 
L 82.532389 46.879066 
L 82.570829 67.993478 
L 82.62539 30.621604 
L 82.66259 10.935359 
L 82.715911 47.409757 
L 82.753111 67.981779 
L 82.807672 31.451539 
L 82.844872 11.104074 
L 82.898193 46.816945 
L 82.936634 68.040268 
L 82.991194 30.829212 
L 83.027155 10.810247 
L 83.081715 47.260476 
L 83.118916 68.058428 
L 83.173476 31.47004 
L 83.210677 11.181708 
L 83.263997 46.765196 
L 83.302438 67.98812 
L 83.355758 32.068579 
L 83.394199 10.838089 
L 83.448759 48.313188 
L 83.48596 68.022592 
L 83.53928 31.676902 
L 83.576481 11.24796 
L 83.631041 47.739945 
L 83.668242 68.041809 
L 83.722802 30.879194 
L 83.760003 10.767131 
L 83.814563 48.138703 
L 83.851764 67.996431 
L 83.905084 31.73477 
L 83.943525 11.1822 
L 83.996845 47.562884 
L 84.034046 68.045387 
L 84.088606 31.110148 
L 84.125807 10.734047 
L 84.181607 49.120745 
L 84.217568 67.986722 
L 84.270888 31.736284 
L 84.308089 11.108023 
L 84.362649 47.540736 
L 84.39985 68.031518 
L 84.45441 31.217753 
L 84.491611 10.812926 
L 84.546171 48.101345 
L 84.582132 67.980835 
L 84.636692 31.919965 
L 84.675133 11.227185 
L 84.729693 48.618651 
L 84.765654 67.977601 
L 84.818974 32.318548 
L 84.857415 10.850605 
L 84.911975 47.952584 
L 84.949176 67.916467 
L 85.002496 32.040596 
L 85.039697 11.198123 
L 85.095498 48.479454 
L 85.131458 67.870381 
L 85.186019 31.380312 
L 85.223219 10.969477 
L 85.27778 47.915136 
L 85.31374 67.920289 
L 85.368301 31.944812 
L 85.406741 10.993666 
L 85.461302 48.508304 
L 85.497262 68.003945 
L 85.551823 31.50031 
L 85.590263 11.06446 
L 85.643584 47.862035 
L 85.680784 67.952448 
L 85.735345 30.798192 
L 85.772545 11.018491 
L 85.827106 48.395282 
L 85.864306 67.93304 
L 85.917627 31.566185 
L 85.954827 11.078249 
L 86.009388 47.855398 
L 86.046588 68.001902 
L 86.099909 32.121918 
L 86.138349 11.015549 
L 86.19291 48.408523 
L 86.23011 68.018916 
L 86.283431 31.449976 
L 86.320631 11.081554 
L 86.375192 47.811565 
L 86.412392 68.028368 
L 86.466953 30.869916 
L 86.504153 10.825302 
L 86.558714 48.392815 
L 86.594674 68.10974 
L 86.649235 31.617161 
L 86.686435 11.106879 
L 86.740996 47.783022 
L 86.778196 68.109694 
L 86.832757 30.871894 
L 86.869957 10.779584 
L 86.924518 48.177435 
L 86.961718 68.002591 
L 87.015039 31.699278 
L 87.052239 11.017452 
L 87.1068 47.699368 
L 87.14524 68.095628 
L 87.198561 31.072817 
L 87.234521 10.744398 
L 87.291562 49.09018 
L 87.326282 68.051151 
L 87.380843 31.697901 
L 87.418043 10.891889 
L 87.472604 47.576641 
L 87.509804 68.079518 
L 87.564365 31.219402 
L 87.601565 10.777673 
L 87.657366 49.159158 
L 87.693326 68.091225 
L 87.745407 32.918269 
L 87.783847 11.063001 
L 87.838408 47.511782 
L 87.876848 68.143705 
L 87.930169 31.227807 
L 87.967369 10.720097 
L 88.02317 49.04355 
L 88.05789 68.062665 
L 88.112451 31.997874 
L 88.149651 10.960148 
L 88.205452 48.575628 
L 88.241412 68.157591 
L 88.295973 31.3543 
L 88.334413 10.773335 
L 88.387734 47.885123 
L 88.424934 68.046193 
L 88.478255 31.998516 
L 88.516696 10.90627 
L 88.571256 48.422436 
L 88.607217 68.070941 
L 88.661777 31.57255 
L 88.700218 10.801284 
L 88.754778 48.867972 
L 88.790739 68.12898 
L 88.844059 32.171903 
L 88.88126 10.931983 
L 88.93706 48.236833 
L 88.974261 68.042323 
L 89.027581 31.62946 
L 89.066022 10.843763 
L 89.119342 47.653065 
L 89.156543 68.140057 
L 89.211103 31.245304 
L 89.248304 10.92373 
L 89.302864 48.133813 
L 89.340065 68.177393 
L 89.393385 31.731845 
L 89.430586 10.904319 
L 89.485146 47.499431 
L 89.523587 68.145364 
L 89.576907 31.218778 
L 89.614108 10.747027 
L 89.669908 49.117358 
L 89.705869 68.150383 
L 89.759189 31.872262 
L 89.79639 10.941505 
L 89.85095 47.499385 
L 89.888151 68.201908 
L 89.942711 31.160029 
L 89.979912 10.63348 
L 90.035712 49.007861 
L 90.071673 68.104905 
L 90.124993 31.942215 
L 90.162194 10.933543 
L 90.216754 47.414083 
L 90.255195 68.193496 
L 90.308515 31.256777 
L 90.345716 10.67611 
L 90.401516 48.914821 
L 90.437477 68.132819 
L 90.492037 30.816887 
L 90.529238 10.795141 
L 90.583798 48.430895 
L 90.620999 68.224834 
L 90.674319 31.411793 
L 90.71152 10.53668 
L 90.767321 48.954118 
L 90.803281 68.189889 
L 90.856602 32.071201 
L 90.895042 11.008872 
L 90.948363 47.291488 
L 90.986803 68.27251 
L 91.040124 31.385762 
L 91.077324 10.502526 
L 91.133125 48.754907 
L 91.169085 68.143885 
L 91.222406 32.256281 
L 91.259606 10.953555 
L 91.314167 47.132188 
L 91.352607 68.202582 
L 91.405928 31.525141 
L 91.443128 10.576573 
L 91.498929 48.616718 
L 91.536129 68.074545 
L 91.58821 32.310422 
L 91.62665 10.823928 
L 91.679971 47.023784 
L 91.717171 68.165808 
L 91.771732 31.764223 
L 91.808932 10.548422 
L 91.864733 48.648049 
L 91.900693 68.206538 
L 91.954014 32.355816 
L 91.992454 10.953258 
L 92.045775 46.877769 
L 92.082975 68.16016 
L 92.138776 30.53777 
L 92.174736 10.556975 
L 92.231777 49.61299 
L 92.267737 68.17223 
L 92.319818 32.551596 
L 92.358258 11.012596 
L 92.411579 46.826913 
L 92.450019 68.253913 
L 92.50458 30.651922 
L 92.54054 10.509295 
L 92.596341 48.387757 
L 92.632301 68.181441 
L 92.686862 31.596837 
L 92.725302 10.803016 
L 92.778623 47.895855 
L 92.815823 68.261207 
L 92.869144 32.111499 
L 92.907584 10.484409 
L 92.962145 48.360149 
L 92.998105 68.34065 
L 93.052666 31.457132 
L 93.089866 10.676922 
L 93.144427 47.812076 
L 93.181627 68.235984 
L 93.234948 32.154708 
L 93.273388 10.385353 
L 93.327949 48.375658 
L 93.365149 68.418087 
L 93.41847 31.658896 
L 93.45567 10.816707 
L 93.510231 47.791342 
L 93.547431 68.395841 
L 93.600752 32.014373 
L 93.639192 10.345353 
L 93.693753 48.259215 
L 93.730953 68.421431 
L 93.784274 31.76339 
L 93.821474 10.679435 
L 93.876035 47.734946 
L 93.913235 68.418603 
L 93.966556 32.293497 
L 94.004996 10.296972 
L 94.059557 48.115635 
L 94.096758 68.487796 
L 94.150078 31.735286 
L 94.187279 10.548244 
L 94.241839 47.598561 
L 94.27904 68.375808 
L 94.3336 31.340915 
L 94.370801 10.372995 
L 94.426601 49.135093 
L 94.462562 68.463555 
L 94.515882 31.868005 
L 94.553083 10.726663 
L 94.607643 47.458425 
L 94.646084 68.406544 
L 94.699404 31.402356 
L 94.736605 10.373857 
L 94.792405 48.990103 
L 94.828366 68.449727 
L 94.880446 33.232968 
L 94.918887 10.633537 
L 94.974687 48.405659 
L 95.010648 68.474487 
L 95.065208 31.597478 
L 95.103649 10.474517 
L 95.158209 48.695692 
L 95.19417 68.415529 
L 95.24873 31.081864 
L 95.285931 10.594077 
L 95.341731 49.272303 
L 95.376452 68.375431 
L 95.431012 31.829455 
L 95.468213 10.519509 
L 95.522773 47.536722 
L 95.559974 68.472915 
L 95.614534 31.240778 
L 95.650495 10.551779 
L 95.707535 49.061993 
L 95.743496 68.379105 
L 95.796816 32.047386 
L 95.834017 10.427575 
L 95.889817 48.480159 
L 95.925778 68.471017 
L 95.980338 31.376532 
L 96.017539 10.525978 
L 96.072099 47.919266 
L 96.1093 68.469048 
L 96.16386 30.932915 
L 96.201061 10.541206 
L 96.255622 48.305349 
L 96.291582 68.452925 
L 96.346143 31.533782 
L 96.383343 10.46395 
L 96.439144 48.865471 
L 96.475104 68.463241 
L 96.529665 31.126906 
L 96.566865 10.712325 
L 96.621426 48.227052 
L 96.657386 68.436489 
L 96.711947 31.495375 
L 96.750387 10.375514 
L 96.804948 48.738751 
L 96.840908 68.321795 
L 96.895469 31.347383 
L 96.932669 10.720653 
L 96.98847 49.197697 
L 97.02443 68.458376 
L 97.076511 32.96282 
L 97.114951 10.320517 
L 97.170752 48.597277 
L 97.206712 68.442918 
L 97.260033 32.404527 
L 97.298473 10.545247 
L 97.351794 46.789906 
L 97.390234 68.397772 
L 97.444795 30.746481 
L 97.481995 10.338523 
L 97.536556 48.495092 
L 97.573756 68.49876 
L 97.627077 31.475268 
L 97.664277 10.712573 
L 97.718838 47.937456 
L 97.756038 68.414126 
L 97.809359 31.976391 
L 97.846559 10.346875 
L 97.90236 48.409695 
L 97.93956 68.46638 
L 97.992881 31.621673 
L 98.030081 10.740307 
L 98.084642 47.847946 
L 98.121842 68.459902 
L 98.175163 32.084227 
L 98.213603 10.358698 
L 98.268164 48.238901 
L 98.305364 68.437129 
L 98.358685 31.677485 
L 98.395885 10.609775 
L 98.450446 47.780813 
L 98.487646 68.379942 
L 98.540967 32.326879 
L 98.578167 10.449297 
L 98.633968 48.190438 
L 98.671168 68.479438 
L 98.724489 31.655798 
L 98.762929 10.695493 
L 98.81625 47.65221 
L 98.85345 68.351781 
L 98.908011 31.19948 
L 98.945211 10.426823 
L 98.999772 48.11397 
L 99.036972 68.43943 
L 99.090293 31.880219 
L 99.128733 10.76573 
L 99.182054 47.506432 
L 99.219254 68.438394 
L 99.273815 31.280126 
L 99.311015 10.505557 
L 99.366816 48.985493 
L 99.402776 68.369059 
L 99.456097 31.940547 
L 99.494537 10.663878 
L 99.549098 48.55346 
L 99.585059 68.441043 
L 99.639619 31.466653 
L 99.67682 10.615682 
L 99.73262 48.890798 
L 99.768581 68.371844 
L 99.821901 31.814694 
L 99.860342 10.523915 
L 99.913662 47.308097 
L 99.950863 68.272049 
L 100.005423 31.650883 
L 100.042624 10.571461 
L 100.098424 48.909753 
L 100.134385 68.40324 
L 100.187705 32.103659 
L 100.224906 10.576945 
L 100.280706 48.37362 
L 100.317907 68.392259 
L 100.371227 31.584299 
L 100.408428 10.528784 
L 100.462988 47.694719 
L 100.500189 68.329702 
L 100.553509 32.248779 
L 100.59195 10.563479 
L 100.64651 48.289852 
L 100.683711 68.424165 
L 100.737031 31.67619 
L 100.774232 10.696272 
L 100.828792 47.734045 
L 100.865993 68.363804 
L 100.919313 32.191122 
L 100.957754 10.415931 
L 101.012314 48.194546 
L 101.048275 68.434805 
L 101.102835 31.744927 
L 101.140036 10.757503 
L 101.194596 47.582933 
L 101.231797 68.411227 
L 101.286357 30.992181 
L 101.323558 10.402824 
L 101.378118 48.142799 
L 101.415319 68.43232 
L 101.468639 31.801201 
L 101.50584 10.568303 
L 101.5604 47.570032 
L 101.597601 68.443031 
L 101.652161 31.233104 
L 101.689362 10.437697 
L 101.743922 48.04424 
L 101.781123 68.441674 
L 101.834443 31.776897 
L 101.872884 10.683418 
L 101.926205 47.514906 
L 101.964645 68.370954 
L 102.017966 31.319929 
L 102.055166 10.401263 
L 102.110967 49.133442 
L 102.146927 68.47825 
L 102.199008 33.118003 
L 102.238688 10.708696 
L 102.292009 47.279854 
L 102.329209 68.488187 
L 102.38377 31.421925 
L 102.42221 10.406889 
L 102.476771 48.7355 
L 102.512731 68.340519 
L 102.567292 31.181623 
L 102.604492 10.640555 
L 102.659053 48.265925 
L 102.696253 68.494379 
L 102.750814 30.43623 
L 102.788014 10.418374 
L 102.841335 47.640514 
L 102.878535 68.453727 
L 102.931856 32.115351 
L 102.970296 10.532292 
L 103.023617 47.097686 
L 103.062057 68.376487 
L 103.116618 30.528527 
L 103.153818 10.428038 
L 103.208379 48.786145 
L 103.244339 68.456991 
L 103.29766 32.280954 
L 103.3361 10.664936 
L 103.389421 47.063068 
L 103.427861 68.492375 
L 103.482422 30.460553 
L 103.519622 10.396952 
L 103.574183 48.634491 
L 103.610143 68.402841 
L 103.663464 32.426729 
L 103.701904 10.639598 
L 103.756465 48.144323 
L 103.793665 68.464247 
L 103.846986 31.786863 
L 103.884186 10.540601 
L 103.938747 47.512955 
L 103.975947 68.337907 
L 104.030508 31.200784 
L 104.067708 10.519774 
L 104.123509 49.203231 
L 104.158229 68.36516 
L 104.21279 31.877393 
L 104.25123 10.591707 
L 104.304551 47.502257 
L 104.341751 68.444863 
L 104.396312 31.273437 
L 104.433512 10.528914 
L 104.489313 49.070439 
L 104.525273 68.426472 
L 104.578594 31.943999 
L 104.617034 10.53166 
L 104.670355 47.377327 
L 104.707555 68.416915 
L 104.762116 31.483582 
L 104.799316 10.586016 
L 104.855117 49.002277 
L 104.891077 68.495684 
L 104.945638 30.980943 
L 104.981598 10.682392 
L 105.037399 48.434807 
L 105.074599 68.416525 
L 105.12792 31.376574 
L 105.165121 10.426176 
L 105.220921 48.923609 
L 105.256882 68.389424 
L 105.310202 32.052056 
L 105.348643 10.740288 
L 105.401963 47.306313 
L 105.440404 68.447113 
L 105.493724 31.35005 
L 105.530925 10.457684 
L 105.586725 48.860711 
L 105.622686 68.304138 
L 105.677246 31.091332 
L 105.714447 10.647564 
L 105.769007 48.400753 
L 105.804968 68.437227 
L 105.859528 31.490884 
L 105.896729 10.45754 
L 105.952529 48.86306 
L 105.98849 68.456682 
L 106.04181 32.090802 
L 106.080251 10.611465 
L 106.133571 47.179979 
L 106.172012 68.434725 
L 106.225332 31.564443 
L 106.263773 10.392129 
L 106.318333 48.79236 
L 106.355534 68.403386 
L 106.407614 32.289693 
L 106.446055 10.804864 
L 106.499375 47.082832 
L 106.537816 68.438193 
L 106.591136 31.565822 
L 106.629577 10.355467 
L 106.684137 48.657638 
L 106.720098 68.369809 
L 106.773418 32.376348 
L 106.811859 10.712586 
L 106.865179 46.969131 
L 106.90362 68.456274 
L 106.95818 30.480043 
L 106.995381 10.357231 
L 107.049941 48.540704 
L 107.087142 68.374698 
L 107.139222 32.468073 
L 107.177663 10.608125 
L 107.230983 46.79473 
L 107.269424 68.450672 
L 107.323984 30.746104 
L 107.361185 10.328209 
L 107.415746 48.388577 
L 107.451706 68.389344 
L 107.506267 31.580913 
L 107.543467 10.717124 
L 107.599268 48.894436 
L 107.635228 68.376511 
L 107.689789 30.91051 
L 107.726989 10.456444 
L 107.78279 49.385902 
L 107.81875 68.371018 
L 107.870831 32.780749 
L 107.909271 10.790402 
L 107.963832 47.722718 
L 108.001032 68.392382 
L 108.054353 32.088852 
L 108.092793 10.494692 
L 108.147354 48.153827 
L 108.184554 68.329969 
L 108.237875 31.813204 
L 108.275075 10.708894 
L 108.330876 48.729493 
L 108.366836 68.38024 
L 108.421397 31.196633 
L 108.458597 10.511245 
L 108.513158 48.086103 
L 108.550358 68.407205 
L 108.603679 31.775868 
L 108.642119 10.652864 
L 108.69668 48.609177 
L 108.73264 68.259687 
L 108.787201 31.329547 
L 108.824401 10.547067 
L 108.880202 49.143063 
L 108.916162 68.403987 
L 108.968243 33.097037 
L 109.006683 10.713244 
L 109.062484 48.51761 
L 109.098444 68.35601 
L 109.153005 31.371251 
L 109.190205 10.565206 
L 109.246006 48.961004 
L 109.281966 68.378505 
L 109.335287 32.098224 
L 109.372487 10.6108 
L 109.428288 48.383221 
L 109.464248 68.345613 
L 109.518809 31.617138 
L 109.556009 10.733341 
L 109.61057 47.735009 
L 109.64777 68.384446 
L 109.701091 32.026755 
L 109.738291 10.570411 
L 109.792852 47.051207 
L 109.831292 68.25125 
L 109.885853 30.618861 
L 109.921813 10.739904 
L 109.977614 48.732374 
L 110.014814 68.343586 
L 110.066895 32.2156 
L 110.105335 10.600739 
L 110.159896 48.16426 
L 110.197096 68.314692 
L 110.250417 31.805239 
L 110.287617 10.542921 
L 110.343418 48.649539 
L 110.379378 68.408333 
L 110.433939 31.244123 
L 110.471139 10.499394 
L 110.52694 49.169489 
L 110.5629 68.463973 
L 110.616221 31.877833 
L 110.654661 10.652829 
L 110.707982 47.470524 
L 110.746423 68.405247 
L 110.799743 31.296662 
L 110.836944 10.375683 
L 110.892744 49.052057 
L 110.928705 68.433085 
L 110.982025 32.112268 
L 111.020466 10.724727 
L 111.073786 47.268456 
L 111.110987 68.447803 
L 111.165547 31.426676 
L 111.202748 10.446974 
L 111.258548 48.860438 
L 111.294509 68.391816 
L 111.347829 32.171243 
L 111.38627 10.55658 
L 111.43959 47.229246 
L 111.476791 68.463883 
L 111.531351 31.572244 
L 111.568552 10.40651 
L 111.624352 48.821173 
L 111.660313 68.518794 
L 111.713633 32.148941 
L 111.752074 10.608376 
L 111.805394 47.104564 
L 111.843835 68.367732 
L 111.897155 31.749942 
L 111.935596 10.405815 
L 111.990156 48.767535 
L 112.026117 68.476966 
L 112.079437 32.320815 
L 112.117878 10.730156 
L 112.171198 46.989735 
L 112.209639 68.454532 
L 112.264199 30.518776 
L 112.30016 10.374577 
L 112.32 17.013439 
" clip-path="url(#p048d2db7b8)" style="fill: none; stroke: #cc9900; stroke-width: 0.1; stroke-linecap: square"/>
   </g>
   <g id="patch_3">
    <path d="M 0.72 78.336 
L 0.72 0.72 
" style="fill: none; stroke: #cc9900; stroke-width: 0.5; stroke-linejoin: miter; stroke-linecap: square"/>
   </g>
   <g id="patch_4">
    <path d="M 112.32 78.336 
L 112.32 0.72 
" style="fill: none; stroke: #cc9900; stroke-width: 0.5; stroke-linejoin: miter; stroke-linecap: square"/>
   </g>
   <g id="patch_5">
    <path d="M 0.72 78.336 
L 112.32 78.336 
" style="fill: none; stroke: #cc9900; stroke-width: 0.5; stroke-linejoin: miter; stroke-linecap: square"/>
   </g>
   <g id="patch_6">
    <path d="M 0.72 0.72 
L 112.32 0.72 
" style="fill: none; stroke: #cc9900; stroke-width: 0.5; stroke-linejoin: miter; stroke-linecap: square"/>
   </g>
  </g>
 </g>
 <defs>
  <clipPath id="p048d2db7b8">
   <rect x="0.72" y="0.72" width="111.6" height="77.616"/>
  </clipPath>
 </defs>
</svg>
