<?xml version="1.0" encoding="utf-8" standalone="no"?>
<!DOCTYPE svg PUBLIC "-//W3C//DTD SVG 1.1//EN"
  "http://www.w3.org/Graphics/SVG/1.1/DTD/svg11.dtd">
<svg xmlns:xlink="http://www.w3.org/1999/xlink" width="113.04pt" height="79.056pt" viewBox="0 0 113.04 79.056" xmlns="http://www.w3.org/2000/svg" version="1.1">
 <metadata>
  <rdf:RDF xmlns:dc="http://purl.org/dc/elements/1.1/" xmlns:cc="http://creativecommons.org/ns#" xmlns:rdf="http://www.w3.org/1999/02/22-rdf-syntax-ns#">
   <cc:Work>
    <dc:type rdf:resource="http://purl.org/dc/dcmitype/StillImage"/>
    <dc:date>2024-12-25T19:59:01.906054</dc:date>
    <dc:format>image/svg+xml</dc:format>
    <dc:creator>
     <cc:Agent>
      <dc:title>Matplotlib v3.7.5, https://matplotlib.org/</dc:title>
     </cc:Agent>
    </dc:creator>
   </cc:Work>
  </rdf:RDF>
 </metadata>
 <defs>
  <style type="text/css">*{stroke-linejoin: round; stroke-linecap: butt}</style>
 </defs>
 <g id="figure_1">
  <g id="patch_1">
   <path d="M 0 79.056 
L 113.04 79.056 
L 113.04 0 
L 0 0 
z
" style="fill: #ffffff"/>
  </g>
  <g id="axes_1">
   <g id="patch_2">
    <path d="M 0.72 78.336 
L 112.32 78.336 
L 112.32 0.72 
L 0.72 0.72 
z
" style="fill: #ffffff"/>
   </g>
   <g id="matplotlib.axis_1"/>
   <g id="matplotlib.axis_2"/>
   <g id="line2d_1">
    <path d="M 0.72 36.960791 
L 0.814241 41.897581 
L 0.872522 38.303479 
L 0.906002 36.953313 
L 0.956843 40.15067 
L 0.999003 41.995298 
L 1.051084 38.643516 
L 1.087044 37.02882 
L 1.142845 40.086023 
L 1.180045 41.843835 
L 1.233366 38.515497 
L 1.270566 36.788556 
L 1.323887 40.355216 
L 1.358607 42.262073 
L 1.418128 38.541405 
L 1.451608 36.830581 
L 1.509889 40.337187 
L 1.544609 41.934581 
L 1.59173 38.882127 
L 1.63513 36.742203 
L 1.683491 39.923891 
L 1.723171 42.454218 
L 1.781452 38.61026 
L 1.818652 36.554961 
L 1.873213 40.215562 
L 1.909173 42.219916 
L 1.960014 38.665775 
L 2.000934 36.587902 
L 2.051775 40.053536 
L 2.090215 42.440862 
L 2.146016 38.773547 
L 2.185696 36.593918 
L 2.240257 40.522281 
L 2.273737 42.348078 
L 2.324578 38.783257 
L 2.367978 36.430571 
L 2.421299 40.332313 
L 2.454779 42.545348 
L 2.51306 38.686379 
L 2.54778 36.509685 
L 2.602341 40.197617 
L 2.637061 42.329 
L 2.690382 38.588257 
L 2.732542 36.355529 
L 2.783383 40.035137 
L 2.821823 42.573779 
L 2.880104 38.397542 
L 2.912344 36.329467 
L 2.969385 40.439027 
L 3.004105 42.562807 
L 3.059906 38.231043 
L 3.097106 36.122215 
L 3.149187 40.068767 
L 3.187627 42.555587 
L 3.243428 38.546993 
L 3.280628 36.259023 
L 3.332709 40.456478 
L 3.368669 42.707487 
L 3.42447 38.355667 
L 3.46415 36.172691 
L 3.517471 40.332761 
L 3.554671 42.707932 
L 3.609232 38.480463 
L 3.647673 36.207016 
L 3.699753 40.548788 
L 3.736954 42.78627 
L 3.789034 38.488429 
L 3.827475 36.0888 
L 3.883275 40.280364 
L 3.916756 42.731201 
L 3.973796 38.50723 
L 4.009757 36.217263 
L 4.064317 40.425375 
L 4.101518 42.76339 
L 4.156078 38.38181 
L 4.192039 36.051552 
L 4.247839 40.25299 
L 4.28256 42.776248 
L 4.33836 38.464745 
L 4.376801 36.055536 
L 4.428881 40.479685 
L 4.466082 43.068108 
L 4.519402 38.613422 
L 4.559083 35.98284 
L 4.612403 40.19288 
L 4.650844 42.947852 
L 4.705404 38.241613 
L 4.741365 35.992074 
L 4.794685 40.448599 
L 4.830646 43.236351 
L 4.887686 38.361329 
L 4.923647 35.782065 
L 4.979447 40.288844 
L 5.015408 43.008608 
L 5.071208 38.224201 
L 5.108409 35.96181 
L 5.159249 40.258056 
L 5.19769 43.310144 
L 5.25349 38.339777 
L 5.290691 35.829799 
L 5.347731 40.79691 
L 5.382452 43.24303 
L 5.438252 37.946796 
L 5.472973 35.60852 
L 5.528773 40.672018 
L 5.564734 43.42395 
L 5.619294 38.436199 
L 5.655255 35.778891 
L 5.711055 40.45316 
L 5.747016 43.191995 
L 5.802816 38.034737 
L 5.837537 35.644481 
L 5.890857 40.219649 
L 5.929298 43.440904 
L 5.987579 38.132965 
L 6.023539 35.627269 
L 6.0781 40.742658 
L 6.11282 43.258226 
L 6.166141 38.274829 
L 6.208301 35.666946 
L 6.257902 40.321872 
L 6.292622 43.509909 
L 6.352143 38.187712 
L 6.386863 35.588502 
L 6.443904 40.924321 
L 6.478624 43.544147 
L 6.533185 38.074231 
L 6.572865 35.336705 
L 6.623706 40.264962 
L 6.660906 43.539082 
L 6.717947 38.230025 
L 6.750187 35.596256 
L 6.807228 40.663415 
L 6.841948 43.563846 
L 6.898989 38.032995 
L 6.937429 35.290054 
L 6.99075 40.571721 
L 7.02671 43.670303 
L 7.084991 37.89662 
L 7.117231 35.400503 
L 7.173032 40.710794 
L 7.208992 43.741657 
L 7.262313 38.414435 
L 7.300753 35.402124 
L 7.357794 40.694609 
L 7.394994 43.641909 
L 7.448315 38.099589 
L 7.481795 35.318923 
L 7.538836 40.855088 
L 7.573556 43.890662 
L 7.630597 37.982291 
L 7.669037 35.078869 
L 7.722358 40.602989 
L 7.759558 43.799825 
L 7.815359 37.877592 
L 7.848839 35.196203 
L 7.90464 40.853838 
L 7.9406 44.027614 
L 7.995161 38.306957 
L 8.033601 34.983015 
L 8.089402 40.756176 
L 8.122882 43.877167 
L 8.182403 37.792819 
L 8.218363 35.067755 
L 8.269204 40.516767 
L 8.308884 44.095982 
L 8.363445 37.984932 
L 8.396925 35.104392 
L 8.456446 40.99179 
L 8.489926 43.893967 
L 8.545727 38.031113 
L 8.584167 35.003526 
L 8.636248 40.715565 
L 8.672208 44.222741 
L 8.728009 38.210434 
L 8.763969 35.050985 
L 8.82101 40.860843 
L 8.85573 43.915123 
L 8.910291 38.229962 
L 8.947491 35.087401 
L 9.003292 41.035111 
L 9.036772 44.244033 
L 9.091333 38.551795 
L 9.131013 34.934421 
L 9.185574 40.880958 
L 9.221534 44.167419 
L 9.274855 38.318468 
L 9.312055 34.931042 
L 9.367856 40.772715 
L 9.403816 44.311312 
L 9.460857 37.843332 
L 9.498058 34.93702 
L 9.550138 40.748962 
L 9.589819 44.24841 
L 9.643139 37.787478 
L 9.67786 34.760979 
L 9.73366 40.845282 
L 9.772101 44.463098 
L 9.825421 37.916778 
L 9.861382 34.844988 
L 9.915942 40.999538 
L 9.953143 44.352322 
L 10.006463 38.073632 
L 10.044904 34.71804 
L 10.099464 40.966375 
L 10.137905 44.550005 
L 10.192465 37.565252 
L 10.227186 34.631557 
L 10.280506 40.909758 
L 10.318947 44.498427 
L 10.371027 38.27078 
L 10.409468 34.635007 
L 10.464028 40.936741 
L 10.501229 44.613381 
L 10.555789 37.731139 
L 10.59299 34.442973 
L 10.64631 41.094485 
L 10.683511 44.585821 
L 10.738071 37.860086 
L 10.777752 34.342054 
L 10.828592 40.7275 
L 10.864553 44.813255 
L 10.922833 37.520891 
L 10.958794 34.297647 
L 11.009634 40.598501 
L 11.048075 44.69797 
L 11.105115 37.518794 
L 11.141076 34.162885 
L 11.194396 40.792063 
L 11.232837 44.832436 
L 11.287397 37.641017 
L 11.323358 34.121435 
L 11.377918 41.123791 
L 11.415119 44.921707 
L 11.470919 37.446344 
L 11.5044 34.108789 
L 11.56144 41.183119 
L 11.597401 45.041625 
L 11.651961 37.673513 
L 11.687922 33.937773 
L 11.743722 41.127419 
L 11.778443 44.988783 
L 11.834243 37.958073 
L 11.868964 34.009219 
L 11.928485 41.414892 
L 11.961965 45.191634 
L 12.017766 37.68742 
L 12.054966 34.007782 
L 12.105807 40.490007 
L 12.145487 45.066825 
L 12.202528 37.262999 
L 12.238488 33.857851 
L 12.293049 41.338613 
L 12.327769 45.284402 
L 12.38357 37.645791 
L 12.42077 33.840127 
L 12.475331 41.258907 
L 12.511291 45.225497 
L 12.565852 37.616084 
L 12.603052 33.798371 
L 12.657613 41.304295 
L 12.692333 45.453956 
L 12.748134 37.713198 
L 12.785334 33.642139 
L 12.839895 41.063215 
L 12.874615 45.441307 
L 12.931656 37.50874 
L 12.967616 33.626437 
L 13.022177 41.176886 
L 13.059377 45.583676 
L 13.113938 37.586111 
L 13.151138 33.486707 
L 13.204459 40.891603 
L 13.242899 45.643227 
L 13.29746 37.420534 
L 13.33466 33.482756 
L 13.387981 41.2256 
L 13.427661 45.722593 
L 13.479742 37.650558 
L 13.516942 33.343167 
L 13.572743 41.485954 
L 13.608703 45.774392 
L 13.663264 37.38771 
L 13.700464 33.326545 
L 13.753785 41.293117 
L 13.792225 45.782265 
L 13.845546 37.583965 
L 13.883986 33.181765 
L 13.937307 41.249657 
L 13.973267 46.001053 
L 14.029068 37.473154 
L 14.066268 33.25931 
L 14.120829 41.473689 
L 14.158029 45.784621 
L 14.21259 37.246833 
L 14.24979 33.105689 
L 14.303111 41.286031 
L 14.341551 46.104792 
L 14.394872 37.399349 
L 14.432072 33.086934 
L 14.484153 41.016691 
L 14.522593 45.999856 
L 14.577154 37.501403 
L 14.614354 33.003754 
L 14.670155 41.602622 
L 14.706115 46.264061 
L 14.761916 37.147187 
L 14.797876 32.861143 
L 14.849957 41.012001 
L 14.887157 46.097904 
L 14.942958 37.445931 
L 14.980158 32.933394 
L 15.034719 41.394015 
L 15.073159 46.409595 
L 15.12648 37.29351 
L 15.16368 32.744098 
L 15.214521 40.704727 
L 15.254201 46.227613 
L 15.310002 37.082362 
L 15.347203 32.837254 
L 15.399283 41.213479 
L 15.436484 46.537439 
L 15.491044 37.487043 
L 15.528245 32.596386 
L 15.581565 41.003255 
L 15.620006 46.453304 
L 15.675806 37.046626 
L 15.711767 32.736304 
L 15.765087 41.313825 
L 15.803528 46.702612 
L 15.858088 37.189346 
L 15.891569 32.426468 
L 15.947369 41.083224 
L 15.98581 46.576408 
L 16.04161 36.858961 
L 16.076331 32.608284 
L 16.129651 41.202724 
L 16.169332 46.834465 
L 16.223892 37.025391 
L 16.259853 32.172438 
L 16.313173 41.187839 
L 16.350374 46.779899 
L 16.407414 36.797026 
L 16.443375 32.388197 
L 16.496695 41.592456 
L 16.535136 46.988507 
L 16.588456 37.238096 
L 16.625657 31.919845 
L 16.678977 41.315804 
L 16.717418 46.996438 
L 16.773218 36.745658 
L 16.806699 32.071576 
L 16.861259 41.39006 
L 16.8997 47.15632 
L 16.95426 37.181632 
L 16.991461 31.715508 
L 17.046021 41.779766 
L 17.081982 47.151345 
L 17.137782 36.887785 
L 17.173743 31.92866 
L 17.227063 41.45777 
L 17.265504 47.343201 
L 17.318824 37.435001 
L 17.357265 31.536804 
L 17.411825 41.823724 
L 17.447786 47.293122 
L 17.503586 36.840659 
L 17.542027 31.790142 
L 17.594107 41.865227 
L 17.631308 47.430012 
L 17.684628 37.383438 
L 17.721829 31.310048 
L 17.77763 41.879154 
L 17.81483 47.49641 
L 17.869391 36.786418 
L 17.905351 31.580728 
L 17.957432 41.103817 
L 17.998352 47.557791 
L 18.052913 36.704169 
L 18.087633 31.173094 
L 18.143434 41.965483 
L 18.179394 47.702931 
L 18.235195 36.721744 
L 18.273635 31.41719 
L 18.325716 41.745244 
L 18.362916 47.742892 
L 18.417477 37.040398 
L 18.455917 31.029293 
L 18.509238 41.942719 
L 18.546438 47.927371 
L 18.600999 36.719271 
L 18.638199 31.246519 
L 18.69152 41.771315 
L 18.72996 47.865735 
L 18.784521 36.577106 
L 18.820481 30.95693 
L 18.873802 41.673598 
L 18.911002 48.065756 
L 18.966803 36.760652 
L 19.002763 31.020288 
L 19.059804 42.453438 
L 19.094524 48.082841 
L 19.150325 36.60185 
L 19.187525 30.762037 
L 19.239606 41.704857 
L 19.279286 48.322414 
L 19.332607 36.667394 
L 19.369807 30.896063 
L 19.421888 41.274196 
L 19.460328 48.184142 
L 19.517369 36.227964 
L 19.553329 30.592055 
L 19.60541 41.682006 
L 19.64385 48.491084 
L 19.698411 36.720438 
L 19.735611 30.636926 
L 19.791412 42.549002 
L 19.827372 48.325788 
L 19.881933 36.511324 
L 19.917893 30.380442 
L 19.971214 41.698531 
L 20.010894 48.538482 
L 20.064215 36.670966 
L 20.101415 30.43636 
L 20.154736 41.688995 
L 20.193176 48.532052 
L 20.248977 36.119656 
L 20.284937 30.112042 
L 20.338258 42.127267 
L 20.376698 48.764737 
L 20.430019 36.663235 
L 20.465979 30.074674 
L 20.52178 42.165178 
L 20.55898 48.763937 
L 20.614781 36.196717 
L 20.649501 29.91362 
L 20.705302 42.479677 
L 20.741262 48.936749 
L 20.797063 36.317914 
L 20.833023 29.884416 
L 20.886344 41.772603 
L 20.923544 48.878 
L 20.980585 36.076341 
L 21.015306 29.78047 
L 21.069866 42.098604 
L 21.105827 49.075878 
L 21.162867 36.273564 
L 21.198828 29.701449 
L 21.253388 42.316649 
L 21.290589 49.08206 
L 21.345149 36.286137 
L 21.38111 29.552317 
L 21.43567 42.017702 
L 21.472871 49.29212 
L 21.529911 35.915898 
L 21.565872 29.673497 
L 21.619192 42.326469 
L 21.656393 49.172132 
L 21.710953 36.32173 
L 21.748154 29.503152 
L 21.802714 42.639127 
L 21.837435 49.348525 
L 21.894475 36.152201 
L 21.930436 29.461483 
L 21.984996 42.392172 
L 22.020957 49.408244 
L 22.077997 35.8257 
L 22.112718 29.277106 
L 22.168518 42.648583 
L 22.205719 49.50573 
L 22.260279 36.073711 
L 22.29624 29.262404 
L 22.3508 42.586292 
L 22.386761 49.579116 
L 22.442561 36.099754 
L 22.479762 29.121634 
L 22.533082 42.259579 
L 22.570283 49.691807 
L 22.626083 35.977053 
L 22.660804 29.087099 
L 22.715364 42.246692 
L 22.753805 49.724229 
L 22.808365 36.052032 
L 22.844326 29.001566 
L 22.900126 42.872322 
L 22.936087 49.841776 
L 22.991887 35.887833 
L 23.027848 28.819008 
L 23.082408 42.910699 
L 23.118369 49.96893 
L 23.174169 35.936554 
L 23.21137 28.804519 
L 23.26469 42.522973 
L 23.301891 50.053523 
L 23.356452 36.175956 
L 23.393652 28.564044 
L 23.446973 42.423659 
L 23.482933 50.187928 
L 23.541214 35.442956 
L 23.575934 28.589845 
L 23.630495 42.498707 
L 23.667695 50.255912 
L 23.722256 36.165477 
L 23.758216 28.268962 
L 23.814017 43.064869 
L 23.851217 50.35981 
L 23.905778 35.900848 
L 23.942978 28.362229 
L 23.996299 42.534003 
L 24.033499 50.429476 
L 24.0893 35.827102 
L 24.12526 28.09631 
L 24.179821 42.9297 
L 24.217021 50.416757 
L 24.272822 35.472108 
L 24.306302 28.292436 
L 24.362103 42.677751 
L 24.399303 50.59066 
L 24.455104 35.690574 
L 24.491064 27.895912 
L 24.545625 42.906706 
L 24.581585 50.676293 
L 24.638626 35.472806 
L 24.673346 28.120178 
L 24.727907 42.728992 
L 24.765107 50.772479 
L 24.819668 35.987053 
L 24.856868 27.644368 
L 24.911429 42.982607 
L 24.949869 50.883259 
L 25.00443 35.361991 
L 25.04039 27.839646 
L 25.093711 42.890077 
L 25.132151 51.034923 
L 25.185472 36.029008 
L 25.222672 27.448175 
L 25.277233 43.022372 
L 25.315673 51.112372 
L 25.370234 35.266405 
L 25.406194 27.536198 
L 25.459515 42.858048 
L 25.497955 51.264309 
L 25.551276 35.90317 
L 25.588476 27.293292 
L 25.643037 43.096796 
L 25.680237 51.371744 
L 25.734798 35.712937 
L 25.770758 27.430401 
L 25.825319 42.861399 
L 25.862519 51.369214 
L 25.91708 35.899502 
L 25.95428 27.139238 
L 26.008841 43.158414 
L 26.046041 51.568424 
L 26.100602 35.615926 
L 26.137802 27.159459 
L 26.191123 43.101402 
L 26.229563 51.599842 
L 26.282884 35.744779 
L 26.320084 26.918376 
L 26.374645 43.224276 
L 26.411845 51.81682 
L 26.466406 35.569176 
L 26.503606 26.892493 
L 26.558167 43.579645 
L 26.595368 51.846415 
L 26.648688 35.789493 
L 26.687129 26.850359 
L 26.740449 43.242328 
L 26.77765 51.959708 
L 26.83221 35.491676 
L 26.869411 26.615648 
L 26.923971 43.608152 
L 26.958692 52.116117 
L 27.015732 35.244875 
L 27.051693 26.580577 
L 27.106253 43.260239 
L 27.143454 52.137872 
L 27.199254 34.967429 
L 27.235215 26.429156 
L 27.288535 43.141908 
L 27.325736 52.384923 
L 27.381536 35.223289 
L 27.418737 26.389279 
L 27.472057 43.291109 
L 27.509258 52.390324 
L 27.565058 35.049818 
L 27.601019 26.202897 
L 27.655579 43.611221 
L 27.69154 52.561399 
L 27.74734 35.208585 
L 27.783301 26.217818 
L 27.837861 43.403107 
L 27.875062 52.590862 
L 27.930862 34.927686 
L 27.966823 26.007195 
L 28.021383 43.586486 
L 28.058584 52.850734 
L 28.113144 35.138221 
L 28.150345 26.036446 
L 28.203665 43.490433 
L 28.240866 52.801685 
L 28.296666 34.712848 
L 28.332627 25.799442 
L 28.385947 43.195532 
L 28.425628 53.197756 
L 28.478948 35.009433 
L 28.516149 25.771476 
L 28.569469 43.583653 
L 28.60667 53.074434 
L 28.66123 35.334524 
L 28.698431 25.585822 
L 28.754231 44.346005 
L 28.790192 53.450346 
L 28.844752 34.950864 
L 28.881953 25.648784 
L 28.935274 43.612136 
L 28.972474 53.362665 
L 29.027035 35.295473 
L 29.064235 25.335462 
L 29.118796 43.755401 
L 29.155996 53.584813 
L 29.210557 34.865818 
L 29.246517 25.421871 
L 29.299838 43.020314 
L 29.338278 53.633514 
L 29.392839 35.218964 
L 29.430039 25.083467 
L 29.4846 43.877914 
L 29.52304 53.720104 
L 29.576361 34.817793 
L 29.613561 25.155849 
L 29.665642 43.049079 
L 29.704082 53.901576 
L 29.758643 35.246638 
L 29.795843 24.898299 
L 29.850404 43.923025 
L 29.887604 53.83275 
L 29.943405 34.270489 
L 29.979365 25.005436 
L 30.031446 42.942981 
L 30.069886 54.049353 
L 30.124447 35.278815 
L 30.161647 24.764101 
L 30.216208 43.933425 
L 30.253408 54.033131 
L 30.307969 34.788806 
L 30.345169 24.81905 
L 30.39725 42.952744 
L 30.43693 54.355807 
L 30.490251 35.27128 
L 30.527451 24.587922 
L 30.582012 43.940879 
L 30.619212 54.22661 
L 30.675013 34.30332 
L 30.710973 24.613465 
L 30.764294 43.570106 
L 30.801494 54.598135 
L 30.856055 35.204229 
L 30.894495 24.344439 
L 30.947816 44.055346 
L 30.985016 54.470666 
L 31.039577 34.901103 
L 31.076777 24.407948 
L 31.130098 43.462276 
L 31.167298 54.788001 
L 31.221859 35.223861 
L 31.259059 24.15558 
L 31.31362 43.96746 
L 31.35082 54.671206 
L 31.405381 34.856312 
L 31.442581 24.251889 
L 31.497142 44.08995 
L 31.533102 55.198089 
L 31.588903 34.572076 
L 31.626103 23.993172 
L 31.678184 43.286304 
L 31.717864 55.002151 
L 31.772425 34.249162 
L 31.808385 23.862841 
L 31.861706 43.460374 
L 31.900146 55.573997 
L 31.954707 34.581519 
L 31.990667 23.839968 
L 32.045228 44.006165 
L 32.082428 55.500287 
L 32.136989 34.836608 
L 32.17543 23.539607 
L 32.22875 44.155646 
L 32.265951 55.743988 
L 32.320511 34.496977 
L 32.357712 23.599924 
L 32.411032 44.017432 
L 32.450713 55.764256 
L 32.502793 34.814649 
L 32.539994 23.364437 
L 32.594554 44.292179 
L 32.631755 56.018276 
L 32.686315 34.460859 
L 32.723516 23.376606 
L 32.776836 43.9818 
L 32.815277 55.938165 
L 32.868597 34.826775 
L 32.905798 23.058196 
L 32.960358 44.285179 
L 32.997559 56.339257 
L 33.052119 34.453117 
L 33.08932 23.111549 
L 33.14264 43.919842 
L 33.179841 56.306973 
L 33.235641 34.168032 
L 33.271602 22.831114 
L 33.326162 44.279534 
L 33.364603 56.504867 
L 33.417923 34.442289 
L 33.455124 22.947272 
L 33.507204 43.195946 
L 33.546885 56.496019 
L 33.601445 34.148677 
L 33.638646 22.731393 
L 33.691966 44.33183 
L 33.729167 56.536759 
L 33.783727 34.440735 
L 33.822168 22.807903 
L 33.874248 43.919861 
L 33.911449 56.702153 
L 33.967249 34.134563 
L 34.00445 22.550364 
L 34.05777 44.414833 
L 34.094971 56.69441 
L 34.149531 34.421993 
L 34.186732 22.604319 
L 34.240052 43.915071 
L 34.278493 56.878971 
L 34.333053 34.081614 
L 34.370254 22.335245 
L 34.423574 44.481462 
L 34.460775 56.846483 
L 34.514095 35.069939 
L 34.552536 22.394864 
L 34.607097 44.601089 
L 34.644297 57.126603 
L 34.698858 34.08422 
L 34.736058 22.219138 
L 34.788139 43.740146 
L 34.827819 57.046193 
L 34.88114 34.369005 
L 34.91834 22.147686 
L 34.971661 43.883571 
L 35.011341 57.364 
L 35.064662 34.069256 
L 35.101862 21.983566 
L 35.155183 44.46999 
L 35.192383 57.308539 
L 35.246944 34.440926 
L 35.284144 21.882054 
L 35.338705 44.57287 
L 35.375905 57.615998 
L 35.431706 33.490723 
L 35.467666 21.83517 
L 35.522227 45.063908 
L 35.559427 57.4076 
L 35.612748 34.451715 
L 35.651188 21.797948 
L 35.704509 44.645531 
L 35.741709 57.725994 
L 35.79627 34.100681 
L 35.83471 21.620174 
L 35.886791 44.445213 
L 35.925231 57.626557 
L 35.978552 34.475545 
L 36.015752 21.551602 
L 36.070313 44.58695 
L 36.107513 57.926717 
L 36.162074 34.114003 
L 36.199274 21.582925 
L 36.252595 44.283838 
L 36.292275 57.853719 
L 36.344356 34.565364 
L 36.382796 21.239029 
L 36.437357 45.254792 
L 36.474557 58.235281 
L 36.529118 33.523238 
L 36.565078 21.32841 
L 36.619639 44.882869 
L 36.656839 58.161905 
L 36.7114 33.962433 
L 36.7486 21.115065 
L 36.801921 44.389583 
L 36.839121 58.423045 
L 36.893682 34.385104 
L 36.930882 21.124909 
L 36.985443 44.665572 
L 37.023883 58.398339 
L 37.078444 33.37554 
L 37.114404 21.010875 
L 37.168965 45.034679 
L 37.206165 58.587984 
L 37.260726 33.7433 
L 37.297926 21.053908 
L 37.351247 44.596322 
L 37.388447 58.655884 
L 37.444248 33.405318 
L 37.480208 20.624105 
L 37.534769 45.05154 
L 37.573209 58.85794 
L 37.62653 33.849095 
L 37.66373 20.933464 
L 37.718291 45.314721 
L 37.755492 58.790095 
L 37.811292 32.726368 
L 37.847253 20.595326 
L 37.900573 44.983546 
L 37.937774 59.05301 
L 37.991094 34.585515 
L 38.029535 20.641597 
L 38.084095 45.26055 
L 38.121296 59.061061 
L 38.177096 32.674166 
L 38.213057 20.611196 
L 38.266377 44.976769 
L 38.303578 59.122192 
L 38.358138 33.909085 
L 38.395339 20.539208 
L 38.448659 44.402769 
L 38.4871 59.317952 
L 38.54166 33.505047 
L 38.578861 20.2347 
L 38.632181 44.975113 
L 38.670622 59.371969 
L 38.723942 33.852272 
L 38.761143 20.452091 
L 38.815703 45.184584 
L 38.852904 59.359789 
L 38.908704 32.811082 
L 38.943425 20.060942 
L 38.999225 45.675542 
L 39.036426 59.526103 
L 39.090986 33.195675 
L 39.126947 20.164549 
L 39.181507 45.183745 
L 39.219948 59.435645 
L 39.274508 32.651587 
L 39.310469 20.191814 
L 39.363789 44.894844 
L 39.40223 59.683434 
L 39.45555 33.929147 
L 39.492751 19.747656 
L 39.547311 45.14806 
L 39.584512 59.818422 
L 39.639072 33.479909 
L 39.676273 19.926916 
L 39.730833 45.743617 
L 39.768034 59.807023 
L 39.822594 33.119326 
L 39.858555 19.718219 
L 39.913115 45.274435 
L 39.950316 59.976016 
L 40.004876 33.504799 
L 40.042077 19.499062 
L 40.095398 44.895778 
L 40.135078 60.005408 
L 40.188399 33.054856 
L 40.225599 19.52704 
L 40.27892 45.094511 
L 40.31612 59.924196 
L 40.370681 33.56954 
L 40.407881 19.662701 
L 40.461202 44.725107 
L 40.499642 60.154751 
L 40.555443 32.365576 
L 40.590163 19.197381 
L 40.645964 45.852408 
L 40.681924 60.2027 
L 40.737725 32.759112 
L 40.773685 19.477551 
L 40.828246 45.617153 
L 40.865446 60.176458 
L 40.920007 33.184757 
L 40.957207 19.145098 
L 41.010528 45.127628 
L 41.048968 60.453268 
L 41.103529 32.889856 
L 41.139489 19.245009 
L 41.19405 45.483568 
L 41.23125 60.412841 
L 41.287051 32.36404 
L 41.323011 19.135935 
L 41.377572 45.832846 
L 41.413532 60.374616 
L 41.469333 32.939711 
L 41.505293 19.096121 
L 41.559854 45.439451 
L 41.597054 60.634384 
L 41.652855 32.408784 
L 41.688815 18.863683 
L 41.743376 45.83986 
L 41.780576 60.556614 
L 41.835137 32.870726 
L 41.871097 18.803466 
L 41.925658 45.424254 
L 41.964098 60.83616 
L 42.018659 32.392791 
L 42.054619 18.550876 
L 42.10918 45.938256 
L 42.14514 61.077212 
L 42.200941 32.930072 
L 42.236901 18.517974 
L 42.291462 45.295161 
L 42.328662 60.894978 
L 42.384463 32.459749 
L 42.420423 18.481418 
L 42.474984 45.822427 
L 42.512184 61.193976 
L 42.567985 32.276119 
L 42.603945 18.281217 
L 42.657266 45.228761 
L 42.695706 61.336396 
L 42.750267 32.486593 
L 42.786227 18.209156 
L 42.840788 45.781002 
L 42.877988 61.182759 
L 42.932549 33.179278 
L 42.969749 18.125719 
L 43.02307 45.237144 
L 43.06151 61.487268 
L 43.114831 33.555324 
L 43.153271 17.987704 
L 43.207832 46.660716 
L 43.245033 61.541267 
L 43.295873 34.96173 
L 43.335554 17.94936 
L 43.390114 45.86823 
L 43.428555 61.40802 
L 43.483115 31.910828 
L 43.519076 17.871384 
L 43.573636 46.549405 
L 43.610837 61.774018 
L 43.662917 34.145003 
L 43.701358 17.822815 
L 43.755918 45.733192 
L 43.794359 61.520324 
L 43.848919 31.957194 
L 43.88488 17.821327 
L 43.93944 46.435498 
L 43.976641 61.669058 
L 44.028721 34.251591 
L 44.067162 17.845078 
L 44.120482 44.950869 
L 44.158923 61.585015 
L 44.212243 33.815623 
L 44.250684 17.556394 
L 44.305244 46.3634 
L 44.342445 61.794796 
L 44.394525 34.289772 
L 44.432966 17.787579 
L 44.487526 45.682459 
L 44.524727 61.618442 
L 44.580527 32.280082 
L 44.616488 17.363147 
L 44.671048 46.364552 
L 44.708249 62.069611 
L 44.761569 33.438644 
L 44.80001 17.578015 
L 44.85457 46.502367 
L 44.890531 61.724867 
L 44.946331 32.357133 
L 44.982292 17.441773 
L 45.036852 46.143015 
L 45.074053 62.083068 
L 45.128613 32.816672 
L 45.165814 17.29502 
L 45.220374 46.398645 
L 45.257575 61.897258 
L 45.312135 32.444516 
L 45.348096 17.297553 
L 45.402656 45.966147 
L 45.441097 62.070475 
L 45.494417 32.8516 
L 45.531618 17.354877 
L 45.586179 46.254787 
L 45.622139 61.947033 
L 45.67794 32.569 
L 45.7139 17.11562 
L 45.767221 44.87321 
L 45.805661 62.419181 
L 45.860222 32.872462 
L 45.898662 16.941021 
L 45.953223 47.153009 
L 45.989183 62.086661 
L 46.042504 33.499093 
L 46.080944 16.949408 
L 46.134265 45.637924 
L 46.171465 62.460853 
L 46.227266 32.081341 
L 46.263226 16.69002 
L 46.319027 47.08929 
L 46.354987 62.275325 
L 46.408308 33.546119 
L 46.446748 16.821196 
L 46.501309 46.544725 
L 46.538509 62.391073 
L 46.59307 32.165438 
L 46.62779 16.647585 
L 46.684831 47.105497 
L 46.719551 62.535964 
L 46.774112 33.605916 
L 46.811312 16.720592 
L 46.867113 46.510125 
L 46.905553 62.672453 
L 46.958874 32.143905 
L 46.994834 16.466689 
L 47.050635 47.068992 
L 47.086595 62.531998 
L 47.139916 33.571047 
L 47.178356 16.569165 
L 47.231677 45.524472 
L 47.270117 62.815558 
L 47.324678 32.262714 
L 47.361878 16.141153 
L 47.416439 47.037913 
L 47.452399 62.847549 
L 47.50572 33.745702 
L 47.54416 16.422714 
L 47.598721 46.361189 
L 47.635921 62.779031 
L 47.690482 32.453929 
L 47.726442 16.078949 
L 47.782243 46.967957 
L 47.819443 63.122483 
L 47.871524 33.752984 
L 47.909964 16.295387 
L 47.964525 46.326717 
L 48.001725 62.932718 
L 48.057526 31.378093 
L 48.093486 16.081589 
L 48.148047 46.990627 
L 48.184007 63.178006 
L 48.238568 32.868026 
L 48.275768 16.168462 
L 48.330329 46.423032 
L 48.367529 63.152071 
L 48.42209 32.380624 
L 48.45805 15.818541 
L 48.513851 46.985341 
L 48.551051 63.205678 
L 48.603132 33.790629 
L 48.642812 16.02898 
L 48.696133 46.351606 
L 48.734573 63.253036 
L 48.787894 32.553749 
L 48.825095 15.605579 
L 48.879655 46.881637 
L 48.915616 63.612577 
L 48.970176 32.799075 
L 49.007377 15.942339 
L 49.061937 46.273972 
L 49.099138 63.460318 
L 49.153698 32.645419 
L 49.190899 15.737515 
L 49.245459 46.800949 
L 49.28266 63.703632 
L 49.33722 32.213945 
L 49.373181 15.645891 
L 49.428981 47.071828 
L 49.464942 63.427622 
L 49.519502 32.572857 
L 49.555463 15.715523 
L 49.610023 45.591743 
L 49.648464 63.536992 
L 49.704264 31.137682 
L 49.738985 15.672732 
L 49.794785 47.095912 
L 49.830746 63.641393 
L 49.885306 32.66758 
L 49.922507 15.439566 
L 49.975827 45.562852 
L 50.014268 64.026828 
L 50.068828 32.048754 
L 50.104789 15.396158 
L 50.160589 47.045174 
L 50.19779 63.903284 
L 50.25111 32.720664 
L 50.289551 15.431444 
L 50.341631 45.490214 
L 50.380072 64.198207 
L 50.435872 31.22092 
L 50.471833 15.107413 
L 50.526393 47.02649 
L 50.563594 63.970128 
L 50.616914 32.805844 
L 50.654115 15.275409 
L 50.709915 47.384437 
L 50.745876 64.00082 
L 50.800436 32.339092 
L 50.837637 14.956675 
L 50.892197 46.917899 
L 50.929398 64.069782 
L 50.982718 32.889791 
L 51.021159 15.200154 
L 51.074479 46.378317 
L 51.11168 64.224576 
L 51.166241 32.293498 
L 51.203441 14.884144 
L 51.258002 46.884647 
L 51.295202 64.161538 
L 51.348523 32.818586 
L 51.386963 15.190523 
L 51.440284 46.362954 
L 51.478724 64.395497 
L 51.532045 32.397018 
L 51.569245 14.682361 
L 51.623806 46.862471 
L 51.661006 64.306316 
L 51.714327 32.975119 
L 51.752767 15.012828 
L 51.806088 46.307134 
L 51.843288 64.392563 
L 51.897849 32.495551 
L 51.935049 14.56035 
L 51.99085 47.747656 
L 52.02681 64.480561 
L 52.081371 32.046042 
L 52.118571 14.952461 
L 52.170652 45.109848 
L 52.210332 64.46487 
L 52.264893 31.477539 
L 52.300853 14.508535 
L 52.356654 47.693925 
L 52.392614 64.529358 
L 52.445935 33.070154 
L 52.484375 14.852635 
L 52.537696 46.121622 
L 52.576136 64.601051 
L 52.630697 31.568162 
L 52.666657 14.382177 
L 52.722458 47.635264 
L 52.758418 64.59263 
L 52.811739 33.184481 
L 52.850179 14.687825 
L 52.90474 47.065043 
L 52.94194 64.662277 
L 52.995261 32.777037 
L 53.033701 14.232629 
L 53.088262 47.584294 
L 53.124222 64.736534 
L 53.178783 32.184378 
L 53.215983 14.612924 
L 53.269304 45.963769 
L 53.307744 64.76775 
L 53.362305 31.664133 
L 53.398265 14.171922 
L 53.454066 47.583965 
L 53.491266 64.834209 
L 53.544587 32.366516 
L 53.583027 14.507104 
L 53.635108 45.882481 
L 53.673548 64.856916 
L 53.728109 31.648328 
L 53.765309 14.109485 
L 53.81863 46.458619 
L 53.85707 64.909498 
L 53.910391 32.496179 
L 53.947591 14.326851 
L 54.002152 46.926174 
L 54.039352 64.943445 
L 54.093913 31.944503 
L 54.131113 14.012215 
L 54.185674 47.357423 
L 54.222874 65.000701 
L 54.274955 33.37274 
L 54.314635 14.258788 
L 54.367956 46.832513 
L 54.405157 64.988449 
L 54.459717 31.936284 
L 54.496918 14.16377 
L 54.551478 47.477175 
L 54.587439 65.142579 
L 54.641999 32.486261 
L 54.6792 14.103608 
L 54.73376 46.823023 
L 54.770961 65.086267 
L 54.825521 31.820957 
L 54.862722 14.205915 
L 54.916042 46.376487 
L 54.954483 65.060181 
L 55.007803 32.540749 
L 55.045004 13.993401 
L 55.099564 46.866971 
L 55.136765 65.097865 
L 55.191325 31.999891 
L 55.228526 13.859911 
L 55.281846 46.316401 
L 55.319047 65.13656 
L 55.373607 32.450502 
L 55.410808 13.965793 
L 55.465368 46.732277 
L 55.503809 65.284622 
L 55.557129 32.076655 
L 55.59557 13.967991 
L 55.64765 46.311311 
L 55.686091 65.388038 
L 55.739411 32.472711 
L 55.777852 13.669245 
L 55.832412 47.751395 
L 55.868373 65.44728 
L 55.921693 33.122741 
L 55.960134 13.856095 
L 56.014694 47.23259 
L 56.051895 65.4018 
L 56.105215 32.664867 
L 56.143656 13.474869 
L 56.198216 47.601632 
L 56.235417 65.414876 
L 56.288737 32.123491 
L 56.325938 13.763858 
L 56.380498 47.127584 
L 56.417699 65.381084 
L 56.471019 32.638971 
L 56.50822 13.460363 
L 56.56402 47.612977 
L 56.601221 65.502336 
L 56.654541 32.251603 
L 56.691742 13.593686 
L 56.745063 45.959359 
L 56.783503 65.605759 
L 56.838064 31.511242 
L 56.874024 13.202387 
L 56.931065 48.479347 
L 56.967025 65.642769 
L 57.020346 32.353769 
L 57.058786 13.425854 
L 57.110867 45.835695 
L 57.149307 65.771627 
L 57.205108 30.570667 
L 57.241068 13.000848 
L 57.296869 48.426427 
L 57.332829 65.761029 
L 57.38615 32.299014 
L 57.42335 13.274918 
L 57.477911 46.876353 
L 57.515111 65.830452 
L 57.569672 31.780662 
L 57.605632 12.824302 
L 57.662673 48.550769 
L 57.698633 65.863725 
L 57.751954 32.471463 
L 57.790394 13.149632 
L 57.842475 45.601245 
L 57.882155 65.879496 
L 57.936716 30.580309 
L 57.972676 12.791328 
L 58.027237 47.325627 
L 58.064437 65.953743 
L 58.117758 32.559299 
L 58.156198 13.124878 
L 58.209519 46.793251 
L 58.246719 65.93404 
L 58.30252 30.743733 
L 58.33848 12.785932 
L 58.394281 48.197801 
L 58.430241 66.017337 
L 58.484802 31.510248 
L 58.522002 12.978649 
L 58.576563 47.725486 
L 58.612523 66.112065 
L 58.667084 32.163054 
L 58.705524 12.708229 
L 58.760085 48.277065 
L 58.796045 66.13124 
L 58.849366 32.589883 
L 58.887806 12.944875 
L 58.941127 46.505967 
L 58.979567 66.172341 
L 59.034128 30.945282 
L 59.070088 12.642652 
L 59.125889 48.148369 
L 59.161849 66.119436 
L 59.21641 31.781486 
L 59.25361 13.037178 
L 59.308171 47.647876 
L 59.345371 66.129337 
L 59.398692 32.152816 
L 59.437132 12.821514 
L 59.490453 47.105629 
L 59.527653 66.156916 
L 59.580974 32.712564 
L 59.619414 12.980464 
L 59.673975 47.634311 
L 59.711175 66.202767 
L 59.764496 32.402438 
L 59.802936 12.684678 
L 59.857497 48.072126 
L 59.893457 66.338287 
L 59.948018 31.531076 
L 59.985219 12.941646 
L 60.038539 46.419687 
L 60.07574 66.272975 
L 60.13154 31.329288 
L 60.168741 12.760543 
L 60.223301 48.16286 
L 60.259262 66.370103 
L 60.313822 31.771492 
L 60.351023 12.58101 
L 60.406823 48.610306 
L 60.442784 66.412426 
L 60.496104 32.23372 
L 60.534545 12.671749 
L 60.587865 47.014329 
L 60.625066 66.401158 
L 60.679626 31.669199 
L 60.715587 12.61057 
L 60.771387 47.548756 
L 60.808588 66.452664 
L 60.863148 31.443893 
L 60.899109 12.530492 
L 60.954909 47.965229 
L 60.99087 66.475775 
L 61.04419 32.703615 
L 61.082631 12.441527 
L 61.137191 47.475664 
L 61.173152 66.491712 
L 61.228952 31.449377 
L 61.264913 12.564013 
L 61.320713 47.998831 
L 61.356674 66.525243 
L 61.411234 31.682568 
L 61.448435 12.251382 
L 61.504235 48.455345 
L 61.540196 66.516695 
L 61.594756 31.348888 
L 61.631957 12.542288 
L 61.686517 47.83755 
L 61.723718 66.559525 
L 61.777038 31.918479 
L 61.814239 12.177423 
L 61.870039 48.422547 
L 61.906 66.565425 
L 61.95932 32.492735 
L 61.997761 12.489783 
L 62.051081 46.698891 
L 62.088282 66.575766 
L 62.142842 31.918359 
L 62.180043 12.144234 
L 62.235844 48.322104 
L 62.271804 66.766862 
L 62.326365 31.532831 
L 62.362325 12.461013 
L 62.416886 46.743137 
L 62.454086 66.725166 
L 62.508647 32.000651 
L 62.545847 12.080103 
L 62.601648 48.25552 
L 62.638848 66.858859 
L 62.692169 31.626495 
L 62.729369 12.351123 
L 62.78269 46.580186 
L 62.82113 66.772102 
L 62.875691 31.045926 
L 62.912891 12.008793 
L 62.967452 48.278008 
L 63.003412 66.876348 
L 63.057973 31.645075 
L 63.095173 12.455107 
L 63.148494 46.55828 
L 63.185694 66.837717 
L 63.241495 30.978423 
L 63.277455 12.02448 
L 63.333256 48.237656 
L 63.369216 66.829712 
L 63.423777 31.653995 
L 63.460977 12.437355 
L 63.515538 47.728271 
L 63.552738 66.83251 
L 63.606059 32.113241 
L 63.644499 12.06649 
L 63.69906 48.088021 
L 63.73626 66.932763 
L 63.788341 32.76297 
L 63.826781 12.281616 
L 63.881342 47.516402 
L 63.918542 66.922826 
L 63.973103 31.360278 
L 64.010303 12.014135 
L 64.064864 47.96731 
L 64.102064 66.999722 
L 64.155385 31.72999 
L 64.192585 12.28795 
L 64.247146 47.345095 
L 64.283106 66.89996 
L 64.338907 31.482421 
L 64.376107 12.14302 
L 64.430668 47.905886 
L 64.466628 66.855307 
L 64.521189 32.011588 
L 64.558389 12.16502 
L 64.61419 48.373959 
L 64.65015 66.891674 
L 64.704711 31.414023 
L 64.741911 12.115886 
L 64.796472 47.710125 
L 64.833672 66.901889 
L 64.886993 32.085185 
L 64.924193 12.161197 
L 64.979994 48.248836 
L 65.015954 66.903318 
L 65.070515 31.709367 
L 65.107715 12.12185 
L 65.162276 47.6518 
L 65.199476 66.988728 
L 65.252797 32.080356 
L 65.289997 11.91117 
L 65.345798 48.16299 
L 65.382998 67.037821 
L 65.436319 31.716286 
L 65.473519 12.14418 
L 65.52684 46.490501 
L 65.565281 67.070648 
L 65.619841 31.122895 
L 65.655802 11.828655 
L 65.711602 48.123186 
L 65.748803 67.167521 
L 65.802123 31.788702 
L 65.839324 12.029263 
L 65.892644 46.34032 
L 65.931085 67.128729 
L 65.985645 31.355771 
L 66.022846 11.812124 
L 66.077406 47.987147 
L 66.113367 67.05594 
L 66.167927 31.957191 
L 66.205128 12.166191 
L 66.258448 46.262089 
L 66.296889 67.096863 
L 66.351449 31.278378 
L 66.38865 11.781686 
L 66.44321 47.885732 
L 66.480411 67.162534 
L 66.533731 31.965554 
L 66.570932 12.192406 
L 66.625492 47.336348 
L 66.662693 67.141989 
L 66.717253 31.340604 
L 66.754454 11.712053 
L 66.809014 47.814836 
L 66.846215 67.154132 
L 66.899535 32.010535 
L 66.936736 12.137954 
L 66.990056 46.177854 
L 67.028497 67.163413 
L 67.083057 31.456707 
L 67.120258 11.655328 
L 67.174818 47.704572 
L 67.212019 67.112114 
L 67.265339 32.067325 
L 67.30254 12.14894 
L 67.3571 47.215401 
L 67.394301 67.211675 
L 67.448861 31.512584 
L 67.486062 11.6073 
L 67.541862 48.75037 
L 67.577823 67.168796 
L 67.629903 33.184554 
L 67.668344 12.03295 
L 67.722904 47.197074 
L 67.761345 67.249167 
L 67.814665 31.370155 
L 67.851866 11.486781 
L 67.907667 48.709659 
L 67.943627 67.176431 
L 67.996948 32.170801 
L 68.034148 11.869563 
L 68.088709 47.22206 
L 68.127149 67.25224 
L 68.18047 31.452341 
L 68.21767 11.472574 
L 68.273471 48.735123 
L 68.309431 67.266363 
L 68.362752 32.072528 
L 68.401192 11.813407 
L 68.454513 47.240816 
L 68.491713 67.315715 
L 68.546274 31.5893 
L 68.584714 11.465099 
L 68.639275 48.872503 
L 68.675235 67.298233 
L 68.727316 33.24076 
L 68.765756 11.826966 
L 68.820317 47.207968 
L 68.858757 67.371593 
L 68.912078 31.455216 
L 68.949278 11.532626 
L 69.003839 47.704406 
L 69.041039 67.34912 
L 69.09436 32.301583 
L 69.1328 11.753468 
L 69.187361 48.330309 
L 69.223321 67.323188 
L 69.276642 32.654483 
L 69.315082 11.578672 
L 69.369643 47.617956 
L 69.406843 67.404942 
L 69.460164 32.148493 
L 69.498604 11.654401 
L 69.553165 48.163169 
L 69.589125 67.443572 
L 69.643686 31.768859 
L 69.680886 11.653899 
L 69.735447 47.627893 
L 69.772647 67.50614 
L 69.825968 32.281987 
L 69.864408 11.587143 
L 69.918969 47.97395 
L 69.956169 67.449021 
L 70.00949 31.854432 
L 70.04669 11.575647 
L 70.100011 46.414495 
L 70.138451 67.553597 
L 70.193012 31.321868 
L 70.230212 11.386685 
L 70.286013 48.966527 
L 70.320733 67.549215 
L 70.376534 30.844726 
L 70.412494 11.628994 
L 70.468295 48.45295 
L 70.504255 67.646615 
L 70.558816 31.183602 
L 70.597256 11.215042 
L 70.650577 47.876232 
L 70.687777 67.49996 
L 70.741098 32.029013 
L 70.779538 11.6072 
L 70.832859 47.398552 
L 70.870059 67.602486 
L 70.92462 31.168429 
L 70.96182 11.09961 
L 71.016381 47.820082 
L 71.053581 67.57179 
L 71.106902 32.07759 
L 71.145343 11.484956 
L 71.198663 47.294506 
L 71.237104 67.621428 
L 71.290424 31.37692 
L 71.327625 11.083084 
L 71.383425 48.837723 
L 71.418146 67.546815 
L 71.472706 32.005159 
L 71.511147 11.441921 
L 71.565707 48.352544 
L 71.601668 67.712961 
L 71.654988 32.619125 
L 71.693429 10.977277 
L 71.749229 48.901121 
L 71.78519 67.656829 
L 71.83851 32.151491 
L 71.875711 11.486822 
L 71.930271 47.230304 
L 71.968712 67.685987 
L 72.022032 31.275022 
L 72.059233 10.979428 
L 72.115033 48.822611 
L 72.152234 67.705393 
L 72.204314 32.226766 
L 72.241515 11.414229 
L 72.296075 47.183324 
L 72.333276 67.7355 
L 72.387836 31.463715 
L 72.425037 10.900393 
L 72.480837 48.677118 
L 72.516798 67.789096 
L 72.570118 32.19978 
L 72.608559 11.262143 
L 72.661879 46.997826 
L 72.70032 67.840485 
L 72.75364 31.684883 
L 72.792081 10.789761 
L 72.846641 48.704449 
L 72.882602 67.856918 
L 72.935922 32.317155 
L 72.974363 11.298791 
L 73.027683 46.894458 
L 73.066124 67.818962 
L 73.119444 31.63942 
L 73.156645 10.795532 
L 73.212445 48.559703 
L 73.248406 67.876334 
L 73.301726 32.41444 
L 73.340167 11.272975 
L 73.393487 46.894299 
L 73.430688 67.825582 
L 73.485249 31.835215 
L 73.523689 10.752154 
L 73.57825 48.377608 
L 73.61421 67.870087 
L 73.668771 31.490941 
L 73.705971 11.123111 
L 73.760532 47.894275 
L 73.797732 67.819458 
L 73.851053 32.113988 
L 73.888253 10.760585 
L 73.944054 48.399915 
L 73.981254 67.876287 
L 74.034575 31.529671 
L 74.071775 11.306453 
L 74.126336 47.752443 
L 74.163536 67.753381 
L 74.216857 32.19763 
L 74.255297 10.887255 
L 74.309858 48.301893 
L 74.345818 67.797809 
L 74.400379 31.647583 
L 74.437579 11.298813 
L 74.49214 47.7736 
L 74.52934 67.833877 
L 74.582661 32.186715 
L 74.621101 10.98967 
L 74.675662 48.169543 
L 74.711622 67.954016 
L 74.766183 31.610858 
L 74.803383 11.18436 
L 74.857944 47.728682 
L 74.895144 67.886767 
L 74.948465 32.371735 
L 74.986905 11.032282 
L 75.041466 48.117196 
L 75.077426 68.003851 
L 75.131987 31.54598 
L 75.169187 11.137066 
L 75.223748 47.647985 
L 75.260948 67.884895 
L 75.315509 31.295585 
L 75.352709 10.99903 
L 75.40851 49.219644 
L 75.44447 68.000775 
L 75.496551 32.870303 
L 75.534991 11.036593 
L 75.590792 48.690135 
L 75.627992 67.981382 
L 75.680073 32.234925 
L 75.718513 11.04134 
L 75.773074 47.991876 
L 75.810274 67.973278 
L 75.863595 31.766857 
L 75.900795 11.04135 
L 75.956596 48.620918 
L 75.992556 67.960609 
L 76.047117 31.384514 
L 76.084317 11.145554 
L 76.140118 49.011794 
L 76.176078 67.977947 
L 76.229399 31.616564 
L 76.266599 10.811969 
L 76.3224 48.608114 
L 76.35836 67.993114 
L 76.412921 31.339764 
L 76.450121 11.135648 
L 76.504682 48.034786 
L 76.540642 67.985477 
L 76.595203 31.831981 
L 76.633643 10.784073 
L 76.688204 48.504161 
L 76.724164 68.000926 
L 76.778725 31.439337 
L 76.815926 11.002878 
L 76.870486 47.859942 
L 76.907687 67.924659 
L 76.961007 31.974648 
L 76.998208 10.741039 
L 77.054008 48.455933 
L 77.091209 67.928756 
L 77.144529 31.516653 
L 77.18173 11.306017 
L 77.23505 46.730235 
L 77.273491 67.909517 
L 77.328051 30.692248 
L 77.365252 10.761943 
L 77.418572 47.376959 
L 77.455773 67.993729 
L 77.510333 31.440976 
L 77.547534 11.30557 
L 77.602094 47.932248 
L 77.638055 67.945276 
L 77.692615 31.893761 
L 77.731056 10.670329 
L 77.785616 48.339969 
L 77.821577 67.986503 
L 77.876137 31.593517 
L 77.913338 11.197194 
L 77.966658 46.706537 
L 78.005099 68.006387 
L 78.059659 30.876841 
L 78.09686 10.717949 
L 78.15018 47.167563 
L 78.188621 67.980539 
L 78.241941 31.676087 
L 78.279142 11.307902 
L 78.333702 47.713123 
L 78.370903 67.910459 
L 78.425463 31.045181 
L 78.462664 10.807892 
L 78.517224 48.327004 
L 78.553185 67.996236 
L 78.607745 31.696001 
L 78.646186 11.276417 
L 78.699506 47.625455 
L 78.736707 67.981721 
L 78.791267 31.077938 
L 78.828468 10.866616 
L 78.883028 48.068888 
L 78.920229 67.886512 
L 78.973549 31.828019 
L 79.01075 11.308884 
L 79.065311 47.470227 
L 79.102511 67.968397 
L 79.157072 31.202406 
L 79.194272 10.884845 
L 79.248833 48.075665 
L 79.286033 67.901131 
L 79.339354 31.70209 
L 79.376554 11.121958 
L 79.431115 47.492878 
L 79.468315 67.90774 
L 79.522876 31.346448 
L 79.560076 11.004965 
L 79.615877 49.135793 
L 79.650597 67.878184 
L 79.703918 32.945685 
L 79.742358 11.206912 
L 79.796919 47.5051 
L 79.834119 67.906647 
L 79.88868 31.270143 
L 79.92588 10.925419 
L 79.980441 48.045568 
L 80.016401 67.952437 
L 80.070962 31.984868 
L 80.108162 11.053918 
L 80.163963 48.573696 
L 80.199923 67.990394 
L 80.254484 31.423251 
L 80.291684 11.14474 
L 80.346245 47.988995 
L 80.383445 67.942089 
L 80.436766 31.858221 
L 80.473966 10.951009 
L 80.529767 48.566363 
L 80.565727 67.914832 
L 80.620288 31.363409 
L 80.657488 11.183477 
L 80.710809 46.875239 
L 80.749249 67.989651 
L 80.80381 30.617778 
L 80.84101 10.931532 
L 80.894331 47.40593 
L 80.931531 67.977953 
L 80.986092 31.447712 
L 81.023292 11.100247 
L 81.076613 46.813118 
L 81.115053 68.036442 
L 81.169614 30.825386 
L 81.205574 10.80642 
L 81.260135 47.25665 
L 81.297335 68.054601 
L 81.351896 31.466213 
L 81.389096 11.177882 
L 81.442417 46.761369 
L 81.480857 67.984293 
L 81.534178 32.064753 
L 81.572618 10.834263 
L 81.627179 48.309361 
L 81.664379 68.018765 
L 81.7177 31.673076 
L 81.7549 11.244133 
L 81.809461 47.736119 
L 81.846661 68.037983 
L 81.901222 30.875367 
L 81.938422 10.763304 
L 81.992983 48.134877 
L 82.030183 67.992604 
L 82.083504 31.730944 
L 82.121944 11.178373 
L 82.175265 47.559057 
L 82.212465 68.04156 
L 82.267026 31.106322 
L 82.304226 10.730221 
L 82.360027 49.116918 
L 82.395988 67.982896 
L 82.449308 31.732458 
L 82.486509 11.104196 
L 82.541069 47.53691 
L 82.57827 68.027692 
L 82.63283 31.213927 
L 82.670031 10.8091 
L 82.724591 48.097518 
L 82.760552 67.977008 
L 82.815112 31.916139 
L 82.853553 11.223359 
L 82.908113 48.614824 
L 82.944074 67.973774 
L 82.997394 32.314722 
L 83.035835 10.846779 
L 83.090395 47.948757 
L 83.127596 67.91264 
L 83.180916 32.03677 
L 83.218117 11.194297 
L 83.273917 48.475627 
L 83.309878 67.866555 
L 83.364438 31.376486 
L 83.401639 10.965651 
L 83.456199 47.911309 
L 83.49216 67.916462 
L 83.54672 31.940986 
L 83.585161 10.989839 
L 83.639721 48.504478 
L 83.675682 68.000118 
L 83.730242 31.496483 
L 83.768683 11.060633 
L 83.822003 47.858209 
L 83.859204 67.948622 
L 83.913764 30.794366 
L 83.950965 11.014665 
L 84.005525 48.391455 
L 84.042726 67.929214 
L 84.096046 31.562359 
L 84.133247 11.074423 
L 84.187807 47.851572 
L 84.225008 67.998076 
L 84.278328 32.118092 
L 84.316769 11.011722 
L 84.371329 48.404696 
L 84.40853 68.015089 
L 84.46185 31.446149 
L 84.499051 11.077728 
L 84.553611 47.807739 
L 84.590812 68.024542 
L 84.645373 30.86609 
L 84.682573 10.821475 
L 84.737134 48.388989 
L 84.773094 68.105914 
L 84.827655 31.613335 
L 84.864855 11.103053 
L 84.919416 47.779196 
L 84.956616 68.105868 
L 85.011177 30.868067 
L 85.048377 10.775757 
L 85.102938 48.173608 
L 85.140138 67.998764 
L 85.193459 31.695452 
L 85.230659 11.013626 
L 85.28522 47.695541 
L 85.32366 68.091802 
L 85.376981 31.06899 
L 85.412941 10.740572 
L 85.469982 49.086353 
L 85.504702 68.047325 
L 85.559263 31.694075 
L 85.596463 10.888063 
L 85.651024 47.572814 
L 85.688224 68.075692 
L 85.742785 31.215575 
L 85.779985 10.773847 
L 85.835786 49.155332 
L 85.871746 68.087399 
L 85.923827 32.914442 
L 85.962267 11.059174 
L 86.016828 47.507955 
L 86.055268 68.139878 
L 86.108589 31.223981 
L 86.145789 10.716271 
L 86.20159 49.039723 
L 86.23631 68.058838 
L 86.290871 31.994047 
L 86.328071 10.956321 
L 86.383872 48.571801 
L 86.419832 68.153765 
L 86.474393 31.350473 
L 86.512833 10.769509 
L 86.566154 47.881297 
L 86.603354 68.042367 
L 86.656675 31.99469 
L 86.695115 10.902444 
L 86.749676 48.41861 
L 86.785636 68.067115 
L 86.840197 31.568724 
L 86.878637 10.797457 
L 86.933198 48.864145 
L 86.969158 68.125153 
L 87.022479 32.168077 
L 87.059679 10.928156 
L 87.11548 48.233007 
L 87.15268 68.038497 
L 87.206001 31.625633 
L 87.244441 10.839937 
L 87.297762 47.649238 
L 87.334962 68.136231 
L 87.389523 31.241477 
L 87.426723 10.919904 
L 87.481284 48.129986 
L 87.518484 68.173567 
L 87.571805 31.728019 
L 87.609005 10.900492 
L 87.663566 47.495605 
L 87.702006 68.141538 
L 87.755327 31.214951 
L 87.792527 10.743201 
L 87.848328 49.113531 
L 87.884288 68.146556 
L 87.937609 31.868436 
L 87.974809 10.937678 
L 88.02937 47.495558 
L 88.066571 68.198082 
L 88.121131 31.156203 
L 88.158332 10.629654 
L 88.214132 49.004035 
L 88.250093 68.101078 
L 88.303413 31.938388 
L 88.340614 10.929716 
L 88.395174 47.410257 
L 88.433615 68.18967 
L 88.486935 31.252951 
L 88.524136 10.672283 
L 88.579936 48.910995 
L 88.615897 68.128993 
L 88.670457 30.813061 
L 88.707658 10.791315 
L 88.762218 48.427068 
L 88.799419 68.221007 
L 88.852739 31.407967 
L 88.88994 10.532854 
L 88.94574 48.950292 
L 88.981701 68.186062 
L 89.035021 32.067374 
L 89.073462 11.005046 
L 89.126782 47.287662 
L 89.165223 68.268683 
L 89.218543 31.381935 
L 89.255744 10.498699 
L 89.311544 48.751081 
L 89.347505 68.140058 
L 89.400825 32.252454 
L 89.438026 10.949728 
L 89.492586 47.128361 
L 89.531027 68.198755 
L 89.584347 31.521315 
L 89.621548 10.572746 
L 89.677348 48.612891 
L 89.714549 68.070718 
L 89.766629 32.306596 
L 89.80507 10.820102 
L 89.85839 47.019958 
L 89.895591 68.161982 
L 89.950151 31.760397 
L 89.987352 10.544596 
L 90.043152 48.644223 
L 90.079113 68.202712 
L 90.132433 32.35199 
L 90.170874 10.949432 
L 90.224194 46.873943 
L 90.261395 68.156333 
L 90.317196 30.533943 
L 90.353156 10.553148 
L 90.410197 49.609164 
L 90.446157 68.168403 
L 90.498238 32.54777 
L 90.536678 11.008769 
L 90.589999 46.823087 
L 90.628439 68.250087 
L 90.683 30.648095 
L 90.71896 10.505469 
L 90.774761 48.38393 
L 90.810721 68.177614 
L 90.865282 31.59301 
L 90.903722 10.79919 
L 90.957043 47.892029 
L 90.994243 68.25738 
L 91.047564 32.107673 
L 91.086004 10.480582 
L 91.140565 48.356323 
L 91.176525 68.336823 
L 91.231086 31.453306 
L 91.268286 10.673095 
L 91.322847 47.80825 
L 91.360047 68.232158 
L 91.413368 32.150882 
L 91.451808 10.381527 
L 91.506369 48.371832 
L 91.543569 68.414261 
L 91.59689 31.655069 
L 91.63409 10.81288 
L 91.688651 47.787515 
L 91.725851 68.392014 
L 91.779172 32.010547 
L 91.817612 10.341526 
L 91.872173 48.255388 
L 91.909373 68.417604 
L 91.962694 31.759563 
L 91.999894 10.675609 
L 92.054455 47.731119 
L 92.091655 68.414776 
L 92.144976 32.289671 
L 92.183416 10.293146 
L 92.237977 48.111808 
L 92.275177 68.483969 
L 92.328498 31.73146 
L 92.365698 10.544417 
L 92.420259 47.594735 
L 92.457459 68.371982 
L 92.51202 31.337089 
L 92.54922 10.369169 
L 92.605021 49.131267 
L 92.640981 68.459729 
L 92.694302 31.864179 
L 92.731502 10.722837 
L 92.786063 47.454598 
L 92.824503 68.402717 
L 92.877824 31.39853 
L 92.915024 10.370031 
L 92.970825 48.986276 
L 93.006785 68.4459 
L 93.058866 33.229141 
L 93.097306 10.629711 
L 93.153107 48.401832 
L 93.189067 68.470661 
L 93.243628 31.593652 
L 93.282068 10.470691 
L 93.336629 48.691865 
L 93.372589 68.411703 
L 93.42715 31.078037 
L 93.46435 10.590251 
L 93.520151 49.268477 
L 93.554871 68.371604 
L 93.609432 31.825628 
L 93.646633 10.515682 
L 93.701193 47.532896 
L 93.738394 68.469089 
L 93.792954 31.236952 
L 93.828915 10.547953 
L 93.885955 49.058166 
L 93.921916 68.375279 
L 93.975236 32.04356 
L 94.012437 10.423749 
L 94.068237 48.476332 
L 94.104198 68.467191 
L 94.158758 31.372705 
L 94.195959 10.522152 
L 94.250519 47.91544 
L 94.28772 68.465221 
L 94.34228 30.929088 
L 94.379481 10.537379 
L 94.434041 48.301522 
L 94.470002 68.449098 
L 94.524562 31.529955 
L 94.561763 10.460123 
L 94.617563 48.861645 
L 94.653524 68.459414 
L 94.708084 31.123079 
L 94.745285 10.708499 
L 94.799845 48.223226 
L 94.835806 68.432663 
L 94.890366 31.491549 
L 94.928807 10.371687 
L 94.983367 48.734925 
L 95.019328 68.317969 
L 95.073888 31.343557 
L 95.111089 10.716827 
L 95.166889 49.19387 
L 95.20285 68.454549 
L 95.25493 32.958993 
L 95.293371 10.31669 
L 95.349171 48.59345 
L 95.385132 68.439091 
L 95.438452 32.400701 
L 95.476893 10.54142 
L 95.530213 46.786079 
L 95.568654 68.393946 
L 95.623214 30.742655 
L 95.660415 10.334697 
L 95.714975 48.491266 
L 95.752176 68.494934 
L 95.805497 31.471442 
L 95.842697 10.708746 
L 95.897258 47.93363 
L 95.934458 68.4103 
L 95.987779 31.972565 
L 96.024979 10.343049 
L 96.08078 48.405869 
L 96.11798 68.462554 
L 96.171301 31.617847 
L 96.208501 10.73648 
L 96.263062 47.844119 
L 96.300262 68.456075 
L 96.353583 32.0804 
L 96.392023 10.354871 
L 96.446584 48.235075 
L 96.483784 68.433302 
L 96.537105 31.673658 
L 96.574305 10.605949 
L 96.628866 47.776987 
L 96.666066 68.376116 
L 96.719387 32.323053 
L 96.756587 10.445471 
L 96.812388 48.186612 
L 96.849588 68.475611 
L 96.902909 31.651971 
L 96.941349 10.691667 
L 96.99467 47.648383 
L 97.03187 68.347955 
L 97.086431 31.195653 
L 97.123631 10.422997 
L 97.178192 48.110143 
L 97.215392 68.435604 
L 97.268713 31.876393 
L 97.307153 10.761904 
L 97.360474 47.502605 
L 97.397674 68.434567 
L 97.452235 31.2763 
L 97.489435 10.501731 
L 97.545236 48.981667 
L 97.581196 68.365233 
L 97.634517 31.936721 
L 97.672957 10.660052 
L 97.727518 48.549633 
L 97.763478 68.437217 
L 97.818039 31.462826 
L 97.855239 10.611856 
L 97.91104 48.886972 
L 97.947 68.368018 
L 98.000321 31.810868 
L 98.038761 10.520088 
L 98.092082 47.304271 
L 98.129282 68.268223 
L 98.183843 31.647057 
L 98.221043 10.567635 
L 98.276844 48.905927 
L 98.312804 68.399414 
L 98.366125 32.099833 
L 98.403325 10.573119 
L 98.459126 48.369793 
L 98.496326 68.388433 
L 98.549647 31.580472 
L 98.586847 10.524958 
L 98.641408 47.690893 
L 98.678608 68.325875 
L 98.731929 32.244952 
L 98.770369 10.559652 
L 98.82493 48.286026 
L 98.86213 68.420339 
L 98.915451 31.672364 
L 98.952651 10.692445 
L 99.007212 47.730218 
L 99.044412 68.359978 
L 99.097733 32.187296 
L 99.136174 10.412104 
L 99.190734 48.190719 
L 99.226695 68.430979 
L 99.281255 31.7411 
L 99.318456 10.753677 
L 99.373016 47.579106 
L 99.410217 68.4074 
L 99.464777 30.988355 
L 99.501978 10.398998 
L 99.556538 48.138972 
L 99.593739 68.428493 
L 99.647059 31.797375 
L 99.68426 10.564477 
L 99.73882 47.566205 
L 99.776021 68.439204 
L 99.830581 31.229277 
L 99.867782 10.433871 
L 99.922342 48.040414 
L 99.959543 68.437848 
L 100.012863 31.773071 
L 100.051304 10.679592 
L 100.104624 47.511079 
L 100.143065 68.367128 
L 100.196385 31.316103 
L 100.233586 10.397436 
L 100.289386 49.129616 
L 100.325347 68.474424 
L 100.377427 33.114176 
L 100.417108 10.70487 
L 100.470428 47.276028 
L 100.507629 68.484361 
L 100.562189 31.418098 
L 100.60063 10.403062 
L 100.65519 48.731674 
L 100.691151 68.336693 
L 100.745711 31.177797 
L 100.782912 10.636728 
L 100.837472 48.262099 
L 100.874673 68.490553 
L 100.929233 30.432404 
L 100.966434 10.414547 
L 101.019754 47.636688 
L 101.056955 68.4499 
L 101.110275 32.111524 
L 101.148716 10.528465 
L 101.202036 47.09386 
L 101.240477 68.37266 
L 101.295038 30.524701 
L 101.332238 10.424211 
L 101.386799 48.782319 
L 101.422759 68.453165 
L 101.47608 32.277128 
L 101.51452 10.66111 
L 101.567841 47.059242 
L 101.606281 68.488549 
L 101.660842 30.456727 
L 101.698042 10.393125 
L 101.752603 48.630665 
L 101.788563 68.399014 
L 101.841884 32.422903 
L 101.880324 10.635771 
L 101.934885 48.140497 
L 101.972085 68.46042 
L 102.025406 31.783036 
L 102.062606 10.536774 
L 102.117167 47.509128 
L 102.154367 68.33408 
L 102.208928 31.196958 
L 102.246128 10.515948 
L 102.301929 49.199404 
L 102.336649 68.361334 
L 102.39121 31.873566 
L 102.42965 10.58788 
L 102.482971 47.498431 
L 102.520171 68.441037 
L 102.574732 31.269611 
L 102.611932 10.525088 
L 102.667733 49.066612 
L 102.703693 68.422646 
L 102.757014 31.940173 
L 102.795454 10.527834 
L 102.848775 47.373501 
L 102.885975 68.413089 
L 102.940536 31.479756 
L 102.977736 10.582189 
L 103.033537 48.99845 
L 103.069497 68.491858 
L 103.124058 30.977117 
L 103.160018 10.678565 
L 103.215819 48.43098 
L 103.253019 68.412699 
L 103.30634 31.372748 
L 103.34354 10.42235 
L 103.399341 48.919783 
L 103.435301 68.385598 
L 103.488622 32.048229 
L 103.527062 10.736461 
L 103.580383 47.302486 
L 103.618823 68.443286 
L 103.672144 31.346224 
L 103.709344 10.453857 
L 103.765145 48.856885 
L 103.801105 68.300312 
L 103.855666 31.087505 
L 103.892866 10.643738 
L 103.947427 48.396927 
L 103.983387 68.433401 
L 104.037948 31.487057 
L 104.075148 10.453714 
L 104.130949 48.859233 
L 104.166909 68.452856 
L 104.22023 32.086976 
L 104.25867 10.607638 
L 104.311991 47.176153 
L 104.350431 68.430899 
L 104.403752 31.560617 
L 104.442192 10.388303 
L 104.496753 48.788534 
L 104.533953 68.399559 
L 104.586034 32.285866 
L 104.624474 10.801037 
L 104.677795 47.079006 
L 104.716236 68.434367 
L 104.769556 31.561995 
L 104.807997 10.351641 
L 104.862557 48.653811 
L 104.898518 68.365983 
L 104.951838 32.372521 
L 104.990279 10.708759 
L 105.043599 46.965305 
L 105.08204 68.452447 
L 105.1366 30.476216 
L 105.173801 10.353404 
L 105.228361 48.536877 
L 105.265562 68.370872 
L 105.317642 32.464247 
L 105.356083 10.604298 
L 105.409403 46.790903 
L 105.447844 68.446845 
L 105.502404 30.742277 
L 105.539605 10.324382 
L 105.594165 48.384751 
L 105.630126 68.385518 
L 105.684686 31.577087 
L 105.721887 10.713297 
L 105.777687 48.890609 
L 105.813648 68.372685 
L 105.868208 30.906684 
L 105.905409 10.452618 
L 105.961209 49.382076 
L 105.99717 68.367192 
L 106.04925 32.776923 
L 106.087691 10.786576 
L 106.142251 47.718892 
L 106.179452 68.388555 
L 106.232772 32.085025 
L 106.271213 10.490865 
L 106.325773 48.150001 
L 106.362974 68.326142 
L 106.416294 31.809378 
L 106.453495 10.705067 
L 106.509295 48.725667 
L 106.545256 68.376414 
L 106.599816 31.192806 
L 106.637017 10.507419 
L 106.691577 48.082277 
L 106.728778 68.403378 
L 106.782098 31.772041 
L 106.820539 10.649038 
L 106.8751 48.60535 
L 106.91106 68.255861 
L 106.965621 31.325721 
L 107.002821 10.543241 
L 107.058622 49.139237 
L 107.094582 68.40016 
L 107.146663 33.093211 
L 107.185103 10.709418 
L 107.240904 48.513784 
L 107.276864 68.352183 
L 107.331425 31.367425 
L 107.368625 10.56138 
L 107.424426 48.957178 
L 107.460386 68.374679 
L 107.513707 32.094397 
L 107.550907 10.606973 
L 107.606708 48.379394 
L 107.642668 68.341786 
L 107.697229 31.613312 
L 107.734429 10.729515 
L 107.78899 47.731183 
L 107.82619 68.38062 
L 107.879511 32.022929 
L 107.916711 10.566585 
L 107.971272 47.04738 
L 108.009712 68.247423 
L 108.064273 30.615035 
L 108.100233 10.736078 
L 108.156034 48.728548 
L 108.193234 68.339759 
L 108.245315 32.211774 
L 108.283755 10.596913 
L 108.338316 48.160434 
L 108.375516 68.310865 
L 108.428837 31.801413 
L 108.466037 10.539094 
L 108.521838 48.645713 
L 108.557798 68.404507 
L 108.612359 31.240296 
L 108.649559 10.495568 
L 108.70536 49.165662 
L 108.74132 68.460147 
L 108.794641 31.874007 
L 108.833081 10.649003 
L 108.886402 47.466697 
L 108.924842 68.401421 
L 108.978163 31.292836 
L 109.015363 10.371856 
L 109.071164 49.048231 
L 109.107124 68.429259 
L 109.160445 32.108442 
L 109.198885 10.720901 
L 109.252206 47.264629 
L 109.289406 68.443976 
L 109.343967 31.42285 
L 109.381167 10.443148 
L 109.436968 48.856611 
L 109.472928 68.387989 
L 109.526249 32.167416 
L 109.564689 10.552753 
L 109.61801 47.225419 
L 109.65521 68.460056 
L 109.709771 31.568418 
L 109.746971 10.402683 
L 109.802772 48.817347 
L 109.838732 68.514967 
L 109.892053 32.145115 
L 109.930493 10.604549 
L 109.983814 47.100737 
L 110.022254 68.363906 
L 110.075575 31.746115 
L 110.114015 10.401989 
L 110.168576 48.763709 
L 110.204536 68.47314 
L 110.257857 32.316989 
L 110.296298 10.72633 
L 110.349618 46.985908 
L 110.388059 68.450706 
L 110.442619 30.51495 
L 110.47858 10.370751 
L 110.53438 48.54577 
L 110.571581 68.433012 
L 110.624901 31.465767 
L 110.662102 10.644194 
L 110.717902 49.075626 
L 110.753863 68.531445 
L 110.807183 31.980315 
L 110.845624 10.332559 
L 110.900184 48.363181 
L 110.937385 68.494888 
L 110.990705 31.476418 
L 111.027906 10.462571 
L 111.082466 47.845144 
L 111.119667 68.37964 
L 111.172987 32.240578 
L 111.211428 10.374928 
L 111.265988 48.350025 
L 111.303189 68.487013 
L 111.356509 31.604235 
L 111.39371 10.714155 
L 111.44827 47.761901 
L 111.485471 68.334876 
L 111.538791 32.065487 
L 111.577232 10.412974 
L 111.630552 47.162307 
L 111.668993 68.40141 
L 111.722313 31.726295 
L 111.759514 10.684139 
L 111.815314 48.795119 
L 111.851275 68.47763 
L 111.904595 32.251148 
L 111.943036 10.519496 
L 111.996356 47.034912 
L 112.034797 68.394721 
L 112.088117 31.757101 
L 112.126558 10.433465 
L 112.179878 47.471618 
L 112.217079 68.453239 
L 112.271639 31.459858 
L 112.30884 10.531838 
L 112.32 12.640045 
" clip-path="url(#p7d29337353)" style="fill: none; stroke: #cc9900; stroke-width: 0.1; stroke-linecap: square"/>
   </g>
   <g id="patch_3">
    <path d="M 0.72 78.336 
L 0.72 0.72 
" style="fill: none; stroke: #cc9900; stroke-width: 0.5; stroke-linejoin: miter; stroke-linecap: square"/>
   </g>
   <g id="patch_4">
    <path d="M 112.32 78.336 
L 112.32 0.72 
" style="fill: none; stroke: #cc9900; stroke-width: 0.5; stroke-linejoin: miter; stroke-linecap: square"/>
   </g>
   <g id="patch_5">
    <path d="M 0.72 78.336 
L 112.32 78.336 
" style="fill: none; stroke: #cc9900; stroke-width: 0.5; stroke-linejoin: miter; stroke-linecap: square"/>
   </g>
   <g id="patch_6">
    <path d="M 0.72 0.72 
L 112.32 0.72 
" style="fill: none; stroke: #cc9900; stroke-width: 0.5; stroke-linejoin: miter; stroke-linecap: square"/>
   </g>
  </g>
 </g>
 <defs>
  <clipPath id="p7d29337353">
   <rect x="0.72" y="0.72" width="111.6" height="77.616"/>
  </clipPath>
 </defs>
</svg>
