<?xml version="1.0" encoding="utf-8" standalone="no"?>
<!DOCTYPE svg PUBLIC "-//W3C//DTD SVG 1.1//EN"
  "http://www.w3.org/Graphics/SVG/1.1/DTD/svg11.dtd">
<svg xmlns:xlink="http://www.w3.org/1999/xlink" width="113.04pt" height="79.056pt" viewBox="0 0 113.04 79.056" xmlns="http://www.w3.org/2000/svg" version="1.1">
 <metadata>
  <rdf:RDF xmlns:dc="http://purl.org/dc/elements/1.1/" xmlns:cc="http://creativecommons.org/ns#" xmlns:rdf="http://www.w3.org/1999/02/22-rdf-syntax-ns#">
   <cc:Work>
    <dc:type rdf:resource="http://purl.org/dc/dcmitype/StillImage"/>
    <dc:date>2024-12-25T19:59:02.367880</dc:date>
    <dc:format>image/svg+xml</dc:format>
    <dc:creator>
     <cc:Agent>
      <dc:title>Matplotlib v3.7.5, https://matplotlib.org/</dc:title>
     </cc:Agent>
    </dc:creator>
   </cc:Work>
  </rdf:RDF>
 </metadata>
 <defs>
  <style type="text/css">*{stroke-linejoin: round; stroke-linecap: butt}</style>
 </defs>
 <g id="figure_1">
  <g id="patch_1">
   <path d="M 0 79.056 
L 113.04 79.056 
L 113.04 0 
L 0 0 
z
" style="fill: #ffffff"/>
  </g>
  <g id="axes_1">
   <g id="patch_2">
    <path d="M 0.72 78.336 
L 112.32 78.336 
L 112.32 0.72 
L 0.72 0.72 
z
" style="fill: #ffffff"/>
   </g>
   <g id="matplotlib.axis_1"/>
   <g id="matplotlib.axis_2"/>
   <g id="line2d_1">
    <path d="M 0.72 37.02757 
L 0.72248 37.022953 
L 0.73736 37.452466 
L 0.810521 41.91372 
L 0.866322 38.741699 
L 0.897322 37.113142 
L 0.955603 40.35674 
L 0.992803 42.19027 
L 1.046124 38.78112 
L 1.083324 36.775311 
L 1.141605 40.380494 
L 1.175085 42.159212 
L 1.232126 38.553724 
L 1.264366 36.845091 
L 1.320167 40.306485 
L 1.359847 42.311057 
L 1.413168 38.667894 
L 1.447888 36.646197 
L 1.506169 40.426808 
L 1.538409 42.27076 
L 1.59545 38.483636 
L 1.62769 36.643654 
L 1.682251 40.140588 
L 1.725651 42.516685 
L 1.776492 38.897038 
L 1.813692 36.523117 
L 1.871973 40.624651 
L 1.906693 42.480131 
L 1.958774 38.552681 
L 1.997214 36.582434 
L 2.048055 40.386644 
L 2.082775 42.53119 
L 2.141056 38.648715 
L 2.183216 36.502055 
L 2.232817 40.44427 
L 2.267537 42.543134 
L 2.319618 38.84551 
L 2.360538 36.412659 
L 2.413859 40.421178 
L 2.451059 42.583136 
L 2.50686 38.527138 
L 2.54158 36.554051 
L 2.596141 40.391917 
L 2.632101 42.566106 
L 2.686662 38.478737 
L 2.725102 36.259909 
L 2.778423 40.510827 
L 2.814383 42.735274 
L 2.870184 38.672411 
L 2.904904 36.469664 
L 2.960705 40.67236 
L 2.996665 42.83231 
L 3.048746 38.584401 
L 3.089666 36.077977 
L 3.139267 40.31355 
L 3.178947 43.019618 
L 3.233508 38.481938 
L 3.266988 36.223843 
L 3.322789 40.433371 
L 3.357509 42.944553 
L 3.41703 38.108647 
L 3.45423 36.074678 
L 3.508791 40.785208 
L 3.542271 42.92815 
L 3.595592 38.580497 
L 3.631552 36.046163 
L 3.688593 40.858736 
L 3.723313 43.103353 
L 3.776634 38.630534 
L 3.816314 36.001137 
L 3.870875 40.597142 
L 3.904355 43.017028 
L 3.960156 38.574121 
L 3.998596 35.979074 
L 4.050677 40.62356 
L 4.089117 43.196187 
L 4.143678 38.225943 
L 4.178398 35.799695 
L 4.235439 40.832548 
L 4.268919 43.278343 
L 4.32348 38.476204 
L 4.36068 35.623704 
L 4.412761 40.313134 
L 4.453681 43.353703 
L 4.505762 38.401339 
L 4.544202 35.65881 
L 4.598763 40.842767 
L 4.633483 43.423138 
L 4.686804 38.4188 
L 4.722764 35.391634 
L 4.778565 40.688442 
L 4.818246 43.512701 
L 4.869086 38.436978 
L 4.906287 35.531879 
L 4.963327 40.950368 
L 4.999288 43.578984 
L 5.051368 38.367142 
L 5.089809 35.313644 
L 5.141889 40.627089 
L 5.17785 43.66837 
L 5.23365 38.324477 
L 5.273331 35.311159 
L 5.325411 40.795721 
L 5.363852 43.835113 
L 5.417172 38.245209 
L 5.454373 35.044669 
L 5.508933 40.969239 
L 5.544894 43.924816 
L 5.598214 38.206237 
L 5.636655 35.144331 
L 5.688735 40.755777 
L 5.727176 44.031666 
L 5.781736 37.89213 
L 5.818937 34.840859 
L 5.871017 40.829872 
L 5.908218 44.140202 
L 5.964018 37.815359 
L 6.001219 34.936223 
L 6.052059 40.812385 
L 6.0905 44.313909 
L 6.14382 38.204407 
L 6.181021 34.776014 
L 6.235581 41.008171 
L 6.271542 44.264402 
L 6.326102 38.034726 
L 6.363303 34.769302 
L 6.416623 40.943611 
L 6.452584 44.443951 
L 6.508384 38.023857 
L 6.545585 34.634187 
L 6.600145 41.165437 
L 6.636106 44.476807 
L 6.691906 37.631088 
L 6.722907 34.554654 
L 6.781187 41.091691 
L 6.814668 44.711128 
L 6.872948 37.861236 
L 6.910149 34.453223 
L 6.963469 41.092266 
L 7.00191 44.721355 
L 7.05399 37.905419 
L 7.088711 34.356554 
L 7.143271 40.725496 
L 7.179232 44.950928 
L 7.237512 37.752705 
L 7.274713 34.201868 
L 7.328033 41.317201 
L 7.361514 45.090327 
L 7.418554 37.859129 
L 7.456995 34.061358 
L 7.510315 41.281673 
L 7.547516 45.130475 
L 7.602076 37.628672 
L 7.636797 33.985492 
L 7.691357 41.208032 
L 7.727318 45.276307 
L 7.783118 37.56861 
L 7.819079 33.810957 
L 7.873639 41.196768 
L 7.9096 45.331665 
L 7.966641 37.326406 
L 8.002601 33.709931 
L 8.054681 41.207891 
L 8.091882 45.566665 
L 8.146443 37.847767 
L 8.182403 33.524075 
L 8.239444 41.47861 
L 8.275404 45.645795 
L 8.331205 37.259386 
L 8.365925 33.564993 
L 8.419246 41.279021 
L 8.457686 45.712024 
L 8.511007 37.746985 
L 8.548207 33.446303 
L 8.602768 41.351968 
L 8.638728 45.751468 
L 8.693289 37.54409 
L 8.729249 33.275441 
L 8.78381 41.419696 
L 8.82225 45.857844 
L 8.874331 37.878423 
L 8.911531 33.185186 
L 8.967332 41.483703 
L 9.003292 46.027668 
L 9.057853 37.449956 
L 9.093813 33.028599 
L 9.149614 41.620891 
L 9.186814 46.065121 
L 9.240135 37.705826 
L 9.278575 32.90883 
L 9.333136 41.756116 
L 9.366616 46.250879 
L 9.422417 37.488718 
L 9.459617 32.820922 
L 9.512938 41.36736 
L 9.550138 46.307346 
L 9.605939 37.446941 
L 9.640659 32.712854 
L 9.6977 41.834038 
L 9.73242 46.548413 
L 9.786981 37.447279 
L 9.824181 32.598415 
L 9.878742 41.799507 
L 9.914702 46.460233 
L 9.968023 37.786158 
L 10.006463 32.47633 
L 10.059784 41.520544 
L 10.099464 46.84516 
L 10.151545 37.233362 
L 10.186265 32.252661 
L 10.240826 41.246741 
L 10.278026 46.789073 
L 10.335067 37.217068 
L 10.369787 32.28334 
L 10.425588 41.959344 
L 10.460308 47.056978 
L 10.516109 37.166193 
L 10.552069 32.159341 
L 10.60663 41.597941 
L 10.64259 47.012362 
L 10.699631 37.052735 
L 10.735591 32.091208 
L 10.788912 41.839166 
L 10.827352 47.305301 
L 10.879433 37.299703 
L 10.916633 31.851919 
L 10.971194 41.743302 
L 11.008394 47.390166 
L 11.062955 37.194378 
L 11.100155 31.840808 
L 11.154716 42.257276 
L 11.190676 47.580874 
L 11.243997 37.228755 
L 11.281197 31.569067 
L 11.335758 41.771958 
L 11.372958 47.641566 
L 11.428759 36.697591 
L 11.463479 31.61681 
L 11.51804 42.084002 
L 11.55524 47.808601 
L 11.609801 36.852248 
L 11.645761 31.357799 
L 11.701562 42.271812 
L 11.738762 47.928256 
L 11.792083 36.854339 
L 11.829283 31.281928 
L 11.882604 42.042729 
L 11.921044 47.954901 
L 11.973125 37.156192 
L 12.011565 31.171129 
L 12.066126 42.315623 
L 12.102086 48.149218 
L 12.156647 36.770022 
L 12.192607 31.109796 
L 12.247168 42.126152 
L 12.284368 48.154088 
L 12.336449 37.52834 
L 12.37613 30.893137 
L 12.43069 42.390628 
L 12.466651 48.386635 
L 12.521211 36.641939 
L 12.557172 30.867292 
L 12.610492 41.90812 
L 12.647693 48.426246 
L 12.703493 36.82467 
L 12.740694 30.702372 
L 12.795254 42.484931 
L 12.829975 48.642157 
L 12.885775 36.664595 
L 12.922976 30.457389 
L 12.977536 42.602796 
L 13.013497 48.753068 
L 13.068057 36.809783 
L 13.105258 30.311243 
L 13.159818 42.535543 
L 13.197019 48.985331 
L 13.250339 36.602316 
L 13.2863 30.039154 
L 13.34086 42.168391 
L 13.379301 49.042495 
L 13.432621 36.85776 
L 13.469822 29.926812 
L 13.524382 42.624652 
L 13.561583 49.205569 
L 13.614903 36.566357 
L 13.652104 29.683165 
L 13.705424 42.297508 
L 13.743865 49.420912 
L 13.797185 36.726251 
L 13.834386 29.573469 
L 13.888946 42.625243 
L 13.926147 49.488268 
L 13.980707 36.210688 
L 14.015428 29.165346 
L 14.071228 42.672913 
L 14.108429 49.661164 
L 14.162989 36.19908 
L 14.19895 29.321033 
L 14.25351 42.857094 
L 14.289471 49.740387 
L 14.344031 36.368485 
L 14.381232 28.818233 
L 14.435792 42.77963 
L 14.472993 50.036185 
L 14.526313 36.53829 
L 14.564754 28.964663 
L 14.618074 42.951904 
L 14.654035 50.03077 
L 14.707355 36.751008 
L 14.745796 28.678376 
L 14.800356 42.814434 
L 14.837557 50.326079 
L 14.890877 36.45166 
L 14.928078 28.628368 
L 14.982638 42.968994 
L 15.019839 50.364159 
L 15.073159 36.206705 
L 15.1116 28.373992 
L 15.16492 42.918744 
L 15.202121 50.690337 
L 15.255442 36.306792 
L 15.292642 28.427672 
L 15.348443 43.418666 
L 15.384403 50.738825 
L 15.440204 35.468055 
L 15.474924 28.032363 
L 15.529485 42.921442 
L 15.567925 50.945033 
L 15.620006 36.169466 
L 15.658446 28.189617 
L 15.713007 43.52004 
L 15.747727 51.085919 
L 15.804768 35.559371 
L 15.839488 27.885681 
L 15.894049 42.934011 
L 15.932489 51.260131 
L 15.98581 35.721228 
L 16.02177 27.692741 
L 16.076331 43.015886 
L 16.113531 51.46673 
L 16.169332 35.540386 
L 16.205292 27.538063 
L 16.258613 43.000015 
L 16.297053 51.590242 
L 16.349134 36.311075 
L 16.386334 27.61831 
L 16.442135 43.42117 
L 16.478095 51.754776 
L 16.533896 35.619183 
L 16.568616 27.073052 
L 16.625657 44.016256 
L 16.661617 51.845889 
L 16.714938 35.669818 
L 16.752138 27.166551 
L 16.805459 43.042128 
L 16.842659 52.277668 
L 16.89846 35.470596 
L 16.93442 26.8856 
L 16.990221 44.046743 
L 17.024941 52.400628 
L 17.080742 35.290239 
L 17.116702 26.566148 
L 17.170023 42.916336 
L 17.207223 52.618589 
L 17.264264 34.779927 
L 17.298984 26.572896 
L 17.353545 43.503845 
L 17.390745 52.572961 
L 17.445306 35.337601 
L 17.481266 26.221468 
L 17.535827 43.410045 
L 17.571787 52.988332 
L 17.627588 35.329473 
L 17.662308 26.294726 
L 17.718109 43.640329 
L 17.757789 52.914347 
L 17.80987 35.238022 
L 17.84707 25.966781 
L 17.900391 43.496072 
L 17.938831 53.504559 
L 17.992152 35.301684 
L 18.029352 25.868403 
L 18.082673 43.429095 
L 18.121113 53.541345 
L 18.175674 34.779134 
L 18.210394 25.536742 
L 18.264955 43.492033 
L 18.303395 53.801532 
L 18.356716 35.000837 
L 18.393916 25.661507 
L 18.447237 43.524019 
L 18.484437 53.640423 
L 18.540238 34.661165 
L 18.576198 25.234532 
L 18.630759 44.124019 
L 18.666719 54.133339 
L 18.72128 34.974537 
L 18.75848 25.284255 
L 18.813041 44.208931 
L 18.849001 54.049977 
L 18.904802 34.742017 
L 18.939522 25.007068 
L 18.995323 44.067677 
L 19.031283 54.473619 
L 19.087084 34.617094 
L 19.123044 24.831187 
L 19.177605 44.081526 
L 19.214805 54.445743 
L 19.269366 34.783843 
L 19.305327 24.543252 
L 19.359887 44.015314 
L 19.397088 54.819786 
L 19.452888 33.973059 
L 19.488849 24.594763 
L 19.540929 43.177097 
L 19.57937 55.060482 
L 19.63393 34.885216 
L 19.669891 24.156594 
L 19.725691 44.492641 
L 19.761652 55.211259 
L 19.814972 35.244456 
L 19.853413 24.26218 
L 19.906733 43.952739 
L 19.943934 55.514055 
L 19.998494 34.962131 
L 20.035695 23.951944 
L 20.089015 43.802548 
L 20.126216 55.54024 
L 20.182016 34.285672 
L 20.217977 23.643823 
L 20.272537 44.484298 
L 20.310978 55.760119 
L 20.363058 34.827808 
L 20.400259 23.651114 
L 20.453579 43.827089 
L 20.49202 55.906082 
L 20.54658 34.387862 
L 20.582541 23.436819 
L 20.638341 44.920236 
L 20.674302 56.17053 
L 20.727622 35.046973 
L 20.764823 23.032051 
L 20.819383 44.447872 
L 20.856584 56.395083 
L 20.909904 34.95281 
L 20.947105 22.972687 
L 21.001665 44.460521 
L 21.038866 56.749915 
L 21.093426 34.545188 
L 21.130627 22.644568 
L 21.186427 45.52315 
L 21.222388 56.743078 
L 21.275708 34.571259 
L 21.311669 22.420337 
L 21.367469 45.17244 
L 21.40467 57.003708 
L 21.45675 34.823526 
L 21.495191 22.252863 
L 21.548511 44.25447 
L 21.586952 57.161218 
L 21.640272 34.554464 
L 21.678713 21.98428 
L 21.732033 44.823102 
L 21.769234 57.120934 
L 21.821314 34.998395 
L 21.859755 21.766505 
L 21.914315 44.988527 
L 21.951516 57.545608 
L 22.004836 34.523029 
L 22.042037 21.601195 
L 22.096598 44.921135 
L 22.133798 57.622084 
L 22.185879 35.103454 
L 22.224319 21.400423 
L 22.27888 44.9103 
L 22.31484 57.686843 
L 22.369401 34.54099 
L 22.407841 21.291655 
L 22.462402 45.757829 
L 22.498362 58.017617 
L 22.551683 34.258627 
L 22.590123 21.285711 
L 22.643444 44.869296 
L 22.681884 58.224875 
L 22.735205 33.82794 
L 22.772405 21.077357 
L 22.826966 45.477882 
L 22.862926 58.127702 
L 22.916247 34.351466 
L 22.954687 20.86613 
L 23.008008 44.96782 
L 23.046448 58.609273 
L 23.099769 33.845923 
L 23.136969 20.712093 
L 23.19029 44.802363 
L 23.22873 58.540162 
L 23.280811 34.566427 
L 23.319251 20.486991 
L 23.373812 45.629616 
L 23.411012 58.7059 
L 23.464333 33.862104 
L 23.500293 20.603839 
L 23.554854 44.9085 
L 23.592054 58.904788 
L 23.645375 34.51871 
L 23.683815 20.359042 
L 23.739616 46.302528 
L 23.774336 58.9065 
L 23.828897 33.870721 
L 23.866097 20.374213 
L 23.920658 45.516204 
L 23.956618 58.990469 
L 24.011179 33.777069 
L 24.048379 20.11825 
L 24.10294 45.715648 
L 24.14014 59.243465 
L 24.193461 33.93068 
L 24.230661 20.125302 
L 24.285222 45.511783 
L 24.321182 59.259666 
L 24.375743 33.871449 
L 24.412943 19.762325 
L 24.467504 45.662638 
L 24.504704 59.314825 
L 24.556785 34.465936 
L 24.595225 19.913362 
L 24.648546 44.81384 
L 24.685746 59.776472 
L 24.740307 33.893999 
L 24.777507 19.575906 
L 24.832068 45.342364 
L 24.869268 59.446799 
L 24.923829 33.023429 
L 24.959789 19.704838 
L 25.01311 44.846544 
L 25.05031 59.965682 
L 25.104871 33.928854 
L 25.143311 19.371742 
L 25.196632 45.534552 
L 25.232592 59.77132 
L 25.287153 33.834106 
L 25.325593 19.356769 
L 25.378914 45.457651 
L 25.414874 59.93573 
L 25.471915 32.495114 
L 25.506635 19.060525 
L 25.559956 44.824374 
L 25.598396 60.022282 
L 25.651717 33.922906 
L 25.690157 19.128388 
L 25.743478 45.25079 
L 25.780678 60.440372 
L 25.836479 32.306795 
L 25.872439 18.941638 
L 25.92576 45.188788 
L 25.9642 60.06743 
L 26.016281 33.847805 
L 26.053481 18.755833 
L 26.109282 46.304341 
L 26.145243 60.778464 
L 26.201043 32.509155 
L 26.237004 18.713612 
L 26.291564 45.927453 
L 26.327525 60.420091 
L 26.384565 31.5774 
L 26.419286 18.33374 
L 26.473846 46.168945 
L 26.509807 60.621145 
L 26.564367 33.412925 
L 26.601568 18.495403 
L 26.656128 46.103303 
L 26.692089 60.749875 
L 26.746649 33.140225 
L 26.78385 18.084482 
L 26.83717 44.9823 
L 26.875611 60.985247 
L 26.928931 33.416273 
L 26.966132 18.338429 
L 27.021932 46.81756 
L 27.057893 60.992417 
L 27.112453 32.496993 
L 27.148414 17.734413 
L 27.202974 45.984632 
L 27.240175 61.551796 
L 27.294735 32.663858 
L 27.330696 17.826785 
L 27.385256 45.697996 
L 27.422457 61.231785 
L 27.478257 31.902324 
L 27.512978 17.466987 
L 27.568778 46.664252 
L 27.604739 61.523425 
L 27.660539 32.081087 
L 27.69526 17.391688 
L 27.75106 46.559358 
L 27.787021 61.585109 
L 27.841581 32.781578 
L 27.878782 17.129169 
L 27.930862 44.470486 
L 27.969303 61.650905 
L 28.023863 33.097505 
L 28.061064 17.559238 
L 28.115624 46.389526 
L 28.151585 61.800613 
L 28.206145 32.955408 
L 28.243346 16.982352 
L 28.296666 45.34314 
L 28.335107 61.889694 
L 28.388427 33.237721 
L 28.425628 17.170708 
L 28.480188 46.242996 
L 28.516149 61.997801 
L 28.571949 32.363464 
L 28.60791 16.8435 
L 28.66123 45.233313 
L 28.700911 61.994844 
L 28.752991 33.502279 
L 28.790192 16.841767 
L 28.844752 45.992712 
L 28.881953 62.321258 
L 28.937754 31.661885 
L 28.972474 16.704828 
L 29.028275 46.802561 
L 29.064235 62.125064 
L 29.120036 31.855481 
L 29.154756 16.862481 
L 29.210557 46.940467 
L 29.245277 62.493549 
L 29.299838 33.508524 
L 29.338278 16.737027 
L 29.391599 45.720029 
L 29.428799 62.221961 
L 29.4846 31.871061 
L 29.51932 16.796188 
L 29.575121 46.863564 
L 29.612321 62.406613 
L 29.665642 32.824685 
L 29.702842 16.688255 
L 29.756163 45.631809 
L 29.794603 62.429121 
L 29.847924 32.733127 
L 29.885124 16.574044 
L 29.937205 44.697555 
L 29.976885 62.647919 
L 30.031446 32.121959 
L 30.067406 16.539342 
L 30.121967 46.350546 
L 30.159167 62.484733 
L 30.213728 32.095947 
L 30.249688 16.464526 
L 30.304249 46.423338 
L 30.340209 62.829377 
L 30.39601 32.283738 
L 30.43197 16.469063 
L 30.486531 46.198026 
L 30.523731 62.709401 
L 30.578292 32.121028 
L 30.615492 16.258828 
L 30.668813 46.281091 
L 30.706013 62.846392 
L 30.760574 32.406992 
L 30.796534 16.332812 
L 30.852335 47.216593 
L 30.888295 62.813504 
L 30.942856 32.142044 
L 30.978816 16.172069 
L 31.033377 46.172255 
L 31.070577 62.829732 
L 31.125138 32.311376 
L 31.161098 16.287985 
L 31.216899 47.243098 
L 31.252859 62.833124 
L 31.30618 32.970134 
L 31.34462 16.0111 
L 31.397941 46.127629 
L 31.435141 63.018594 
L 31.490942 31.323749 
L 31.526902 16.177055 
L 31.581463 47.066052 
L 31.618663 62.793629 
L 31.671984 32.173373 
L 31.709184 15.946749 
L 31.762505 46.103954 
L 31.799705 63.050764 
L 31.854266 32.549345 
L 31.891466 15.919686 
L 31.944787 45.977368 
L 31.983227 62.942545 
L 32.036548 32.409218 
L 32.073748 15.844169 
L 32.125829 44.91139 
L 32.165509 63.07523 
L 32.21759 33.658103 
L 32.25603 15.940426 
L 32.310591 46.852036 
L 32.347791 62.987617 
L 32.401112 32.436216 
L 32.438312 15.675306 
L 32.491633 45.580302 
L 32.528833 63.071747 
L 32.584634 31.780062 
L 32.619354 15.843974 
L 32.675155 46.763513 
L 32.712355 63.191966 
L 32.765676 32.49142 
L 32.802876 15.564036 
L 32.856197 45.630897 
L 32.893397 63.17096 
L 32.949198 31.963882 
L 32.985159 15.688638 
L 33.040959 47.591942 
L 33.07568 63.253793 
L 33.13024 32.691088 
L 33.167441 15.547034 
L 33.220761 45.399973 
L 33.259202 63.351974 
L 33.313762 32.122319 
L 33.349723 15.53889 
L 33.405523 47.435554 
L 33.441484 63.538614 
L 33.494804 32.772786 
L 33.533245 15.290191 
L 33.585325 45.266018 
L 33.623766 63.499797 
L 33.678326 32.282788 
L 33.714287 15.591339 
L 33.768847 46.237902 
L 33.806048 63.614445 
L 33.860608 32.237921 
L 33.897809 15.312592 
L 33.951129 46.035826 
L 33.98957 63.641429 
L 34.04289 32.451537 
L 34.078851 15.476317 
L 34.133411 46.076184 
L 34.171852 63.654248 
L 34.226412 31.621466 
L 34.262373 15.341261 
L 34.316933 46.899902 
L 34.352894 63.733721 
L 34.408694 31.523128 
L 34.444655 15.323446 
L 34.500455 47.89087 
L 34.536416 63.951323 
L 34.589736 32.51676 
L 34.626937 15.427158 
L 34.680257 45.802737 
L 34.717458 63.731879 
L 34.773258 31.611192 
L 34.809219 15.364849 
L 34.863779 46.940465 
L 34.90098 63.983293 
L 34.95554 31.87599 
L 34.991501 15.295339 
L 35.046061 46.722025 
L 35.083262 63.949199 
L 35.137822 31.754698 
L 35.173783 15.284587 
L 35.229583 47.646549 
L 35.264304 63.911796 
L 35.318864 32.975988 
L 35.356065 15.305243 
L 35.410625 46.581954 
L 35.447826 64.033802 
L 35.502386 31.79242 
L 35.538347 15.171657 
L 35.594147 47.461844 
L 35.630108 64.08413 
L 35.684668 31.958622 
L 35.720629 15.294346 
L 35.77643 47.379802 
L 35.81363 63.875818 
L 35.866951 31.90521 
L 35.904151 15.085188 
L 35.958712 47.46989 
L 35.994672 64.092245 
L 36.047993 33.091804 
L 36.085193 15.082928 
L 36.139754 46.263867 
L 36.176954 64.016834 
L 36.232755 31.101225 
L 36.267475 14.868802 
L 36.323276 47.288756 
L 36.359236 64.07283 
L 36.413797 32.263636 
L 36.449757 15.094397 
L 36.505558 47.261042 
L 36.542758 64.116509 
L 36.596079 32.169726 
L 36.633279 14.687969 
L 36.6866 45.913265 
L 36.72504 64.128193 
L 36.779601 31.291202 
L 36.815561 14.937401 
L 36.870122 47.055476 
L 36.907322 64.054879 
L 36.960643 32.331596 
L 36.997843 14.553773 
L 37.052404 46.891511 
L 37.089604 64.266033 
L 37.144165 31.573054 
L 37.180125 14.778496 
L 37.235926 47.798029 
L 37.271886 64.149975 
L 37.326447 31.652088 
L 37.362407 14.510543 
L 37.418208 47.717347 
L 37.452928 64.372651 
L 37.507489 32.7716 
L 37.544689 14.630609 
L 37.60049 47.667049 
L 37.63645 64.368462 
L 37.689771 32.659863 
L 37.728211 14.328501 
L 37.781532 46.417832 
L 37.819972 64.457571 
L 37.874533 30.872312 
L 37.909253 14.44928 
L 37.963814 46.480222 
L 38.001014 64.464354 
L 38.055575 31.83554 
L 38.092775 14.199935 
L 38.147336 47.183377 
L 38.184536 64.559976 
L 38.239097 31.203271 
L 38.275057 14.44484 
L 38.329618 47.325475 
L 38.365578 64.581696 
L 38.420139 32.179616 
L 38.457339 14.280866 
L 38.5119 46.939238 
L 38.54786 64.583314 
L 38.603661 31.590279 
L 38.639621 14.375216 
L 38.694182 46.995051 
L 38.731382 64.607516 
L 38.784703 32.402431 
L 38.821903 14.204081 
L 38.876464 46.945819 
L 38.913664 64.514537 
L 38.968225 31.814311 
L 39.004185 14.434816 
L 39.059986 47.847282 
L 39.095946 64.69807 
L 39.149267 32.609903 
L 39.187707 14.277805 
L 39.239788 45.608783 
L 39.278228 64.6037 
L 39.332789 31.867566 
L 39.368749 14.551494 
L 39.42455 47.700881 
L 39.46051 64.640472 
L 39.513831 32.824301 
L 39.552271 14.370223 
L 39.605592 46.425353 
L 39.642792 64.647489 
L 39.697353 31.951765 
L 39.734553 14.514624 
L 39.787874 46.58377 
L 39.826315 64.678611 
L 39.879635 32.110154 
L 39.916836 14.489762 
L 39.970156 46.274452 
L 40.007357 64.527344 
L 40.063157 31.136788 
L 40.099118 14.58084 
L 40.153678 47.336981 
L 40.189639 64.744671 
L 40.244199 32.354387 
L 40.2814 14.606429 
L 40.33596 47.159687 
L 40.371921 64.558026 
L 40.426481 32.171813 
L 40.463682 14.577109 
L 40.517002 46.112406 
L 40.554203 64.553929 
L 40.610003 31.541112 
L 40.645964 14.556523 
L 40.701764 48.119385 
L 40.736485 64.662154 
L 40.788565 34.242219 
L 40.828246 14.496445 
L 40.884046 47.978388 
L 40.920007 64.679083 
L 40.973327 32.529969 
L 41.010528 14.505715 
L 41.065088 46.872707 
L 41.102289 64.66758 
L 41.156849 31.458784 
L 41.19281 14.289627 
L 41.24861 47.951559 
L 41.284571 64.785473 
L 41.337891 32.712959 
L 41.376332 14.335027 
L 41.430892 47.627445 
L 41.466853 64.741648 
L 41.521413 31.603243 
L 41.558614 14.125943 
L 41.613174 47.746831 
L 41.649135 64.854849 
L 41.703695 31.965707 
L 41.740896 14.127447 
L 41.795456 47.54464 
L 41.832657 64.991781 
L 41.885977 31.98297 
L 41.923178 13.935922 
L 41.977738 47.226896 
L 42.014939 64.973806 
L 42.069499 31.158188 
L 42.10546 14.150232 
L 42.16002 47.302367 
L 42.197221 64.994058 
L 42.250541 32.120494 
L 42.287742 13.838199 
L 42.342302 47.068829 
L 42.379503 64.948507 
L 42.434063 31.320148 
L 42.470024 14.097563 
L 42.525825 48.076993 
L 42.561785 64.962175 
L 42.615106 32.259619 
L 42.652306 13.819258 
L 42.706867 46.921969 
L 42.744067 65.066418 
L 42.798628 31.612173 
L 42.834588 13.923908 
L 42.890389 47.936633 
L 42.927589 65.100788 
L 42.97967 32.456282 
L 43.01687 13.809446 
L 43.070191 45.608482 
L 43.109871 65.050436 
L 43.163192 31.853856 
L 43.200392 13.928398 
L 43.254953 47.765989 
L 43.290913 65.148327 
L 43.345474 31.673764 
L 43.382674 13.716597 
L 43.437235 47.667084 
L 43.473195 65.103358 
L 43.527756 31.984718 
L 43.563716 14.000127 
L 43.619517 47.611206 
L 43.655477 65.162799 
L 43.710038 31.896006 
L 43.747238 13.73795 
L 43.801799 47.421415 
L 43.838999 65.230989 
L 43.89232 32.182944 
L 43.92952 13.893759 
L 43.984081 47.461603 
L 44.021281 65.223556 
L 44.074602 32.217301 
L 44.111802 13.741748 
L 44.166363 47.134181 
L 44.203563 65.190645 
L 44.258124 31.358511 
L 44.294084 13.854136 
L 44.349885 48.179927 
L 44.385845 65.2867 
L 44.439166 32.464277 
L 44.476366 13.746144 
L 44.530927 46.980333 
L 44.566887 65.252893 
L 44.622688 31.471216 
L 44.658648 13.813279 
L 44.714449 48.036613 
L 44.750409 65.349011 
L 44.80373 32.658421 
L 44.84093 13.743023 
L 44.895491 46.844699 
L 44.931451 65.29857 
L 44.987252 31.466678 
L 45.023212 13.805056 
L 45.079013 47.880038 
L 45.114973 65.340711 
L 45.169534 31.823593 
L 45.205494 13.746828 
L 45.261295 47.7395 
L 45.297255 65.382584 
L 45.350576 32.545765 
L 45.387776 13.713043 
L 45.442337 46.637833 
L 45.479537 65.398211 
L 45.534098 31.993585 
L 45.571298 13.67962 
L 45.625859 47.519109 
L 45.661819 65.38877 
L 45.71638 31.881522 
L 45.75358 13.608605 
L 45.808141 47.533722 
L 45.844101 65.486055 
L 45.898662 32.233063 
L 45.935862 13.561066 
L 45.990423 47.33403 
L 46.027623 65.534414 
L 46.080944 31.996051 
L 46.119384 13.422522 
L 46.172705 47.280752 
L 46.209905 65.568712 
L 46.264466 31.374998 
L 46.300426 13.529585 
L 46.356227 48.263507 
L 46.392187 65.598232 
L 46.444268 33.173982 
L 46.483948 13.40768 
L 46.537269 46.993723 
L 46.574469 65.601155 
L 46.62903 31.406309 
L 46.66499 13.588027 
L 46.720791 48.011174 
L 46.756752 65.550438 
L 46.810072 32.257671 
L 46.847273 13.385851 
L 46.900593 45.800025 
L 46.939034 65.523766 
L 46.993594 31.563363 
L 47.029555 13.635598 
L 47.085355 47.932566 
L 47.121316 65.461842 
L 47.174636 32.348818 
L 47.213077 13.441637 
L 47.265157 45.731383 
L 47.303598 65.457798 
L 47.358158 31.791487 
L 47.395359 13.578409 
L 47.449919 47.862634 
L 47.48588 65.439092 
L 47.5392 32.504899 
L 47.577641 13.475682 
L 47.630961 46.717816 
L 47.668162 65.31721 
L 47.723962 30.780795 
L 47.759923 13.733129 
L 47.814483 47.736062 
L 47.851684 65.467103 
L 47.905004 31.778988 
L 47.942205 13.459274 
L 47.998005 48.559488 
L 48.033966 65.515239 
L 48.086046 33.00249 
L 48.123247 13.648501 
L 48.179047 47.549946 
L 48.215008 65.519339 
L 48.269568 31.949719 
L 48.308009 13.367662 
L 48.361329 47.307883 
L 48.39729 65.602315 
L 48.45185 32.224607 
L 48.489051 13.41065 
L 48.543611 47.378182 
L 48.580812 65.694861 
L 48.634132 32.166092 
L 48.671333 13.333467 
L 48.725893 47.164821 
L 48.763094 65.556649 
L 48.817654 31.446612 
L 48.853615 13.560401 
L 48.909415 48.188259 
L 48.945376 65.660384 
L 48.998696 32.381304 
L 49.037137 13.380207 
L 49.090457 47.055442 
L 49.126418 65.612088 
L 49.182218 31.554694 
L 49.218179 13.500649 
L 49.273979 47.991339 
L 49.30994 65.678515 
L 49.36326 32.640743 
L 49.401701 13.418702 
L 49.455022 46.731093 
L 49.492222 65.597038 
L 49.546783 31.691777 
L 49.582743 13.543214 
L 49.638544 47.818188 
L 49.674504 65.643981 
L 49.729065 31.895417 
L 49.766265 13.403667 
L 49.820826 47.670313 
L 49.856786 65.6533 
L 49.910107 32.731117 
L 49.948547 13.440427 
L 50.001868 46.605639 
L 50.040308 65.710684 
L 50.094869 30.96976 
L 50.130829 13.436825 
L 50.18539 47.551533 
L 50.22135 65.605834 
L 50.275911 31.94171 
L 50.313111 13.489689 
L 50.367672 47.576756 
L 50.403632 65.668012 
L 50.458193 32.203011 
L 50.495393 13.490727 
L 50.549954 47.374173 
L 50.587154 65.596944 
L 50.640475 32.06309 
L 50.677675 13.465257 
L 50.732236 47.333751 
L 50.769436 65.69624 
L 50.822757 32.3867 
L 50.859957 13.476229 
L 50.914518 47.229645 
L 50.951718 65.630514 
L 51.006279 31.309126 
L 51.042239 13.477677 
L 51.09804 48.123562 
L 51.134 65.644841 
L 51.187321 32.635805 
L 51.224521 13.616309 
L 51.279082 46.952716 
L 51.316282 65.520126 
L 51.370843 31.474886 
L 51.406803 13.512497 
L 51.462604 48.0018 
L 51.498564 65.588621 
L 51.551885 32.797878 
L 51.589085 13.522727 
L 51.643646 46.705342 
L 51.682086 65.593172 
L 51.735407 31.638156 
L 51.771367 13.464237 
L 51.828408 48.708558 
L 51.864368 65.604258 
L 51.916449 32.948669 
L 51.953649 13.496506 
L 52.00821 46.63523 
L 52.04665 65.632404 
L 52.101211 30.732235 
L 52.137171 13.421919 
L 52.191732 47.565156 
L 52.228932 65.628787 
L 52.282253 32.101433 
L 52.318213 13.547356 
L 52.372774 46.428965 
L 52.411214 65.610282 
L 52.465775 31.01235 
L 52.500495 13.451553 
L 52.556296 47.421515 
L 52.593496 65.691087 
L 52.646817 32.365582 
L 52.684017 13.469617 
L 52.738578 47.258788 
L 52.774538 65.689482 
L 52.830339 31.203135 
L 52.866299 13.385648 
L 52.9221 48.170738 
L 52.95806 65.627799 
L 53.011381 32.485104 
L 53.048581 13.416698 
L 53.103142 47.125585 
L 53.140342 65.70084 
L 53.194903 31.467785 
L 53.232103 13.479511 
L 53.286664 47.997725 
L 53.322624 65.509954 
L 53.375945 32.583793 
L 53.413145 13.603305 
L 53.466466 45.898356 
L 53.504906 65.613151 
L 53.559467 31.738335 
L 53.596668 13.571719 
L 53.651228 47.877376 
L 53.687189 65.569333 
L 53.740509 32.737316 
L 53.77771 13.609393 
L 53.83227 46.640533 
L 53.869471 65.502365 
L 53.924031 31.928467 
L 53.961232 13.589739 
L 54.015792 47.721245 
L 54.052993 65.566174 
L 54.105073 32.816478 
L 54.143514 13.547787 
L 54.196834 46.505929 
L 54.235275 65.59653 
L 54.289835 31.017779 
L 54.325796 13.572159 
L 54.380356 47.406741 
L 54.417557 65.434438 
L 54.472117 31.034573 
L 54.508078 13.565819 
L 54.563878 48.43153 
L 54.598599 65.54762 
L 54.651919 33.283936 
L 54.69036 13.517729 
L 54.74492 47.25835 
L 54.782121 65.510861 
L 54.836681 31.023872 
L 54.872642 13.465252 
L 54.927202 47.245173 
L 54.964403 65.575106 
L 55.018963 31.448343 
L 55.054924 13.577519 
L 55.110724 48.279239 
L 55.146685 65.598863 
L 55.198765 33.072067 
L 55.238446 13.550924 
L 55.290526 45.883315 
L 55.328967 65.471581 
L 55.384767 30.330886 
L 55.419488 13.726003 
L 55.474048 47.123443 
L 55.511249 65.421489 
L 55.565809 31.338427 
L 55.60301 13.505674 
L 55.65757 48.149106 
L 55.693531 65.545372 
L 55.746851 32.661861 
L 55.785292 13.5776 
L 55.838612 46.830743 
L 55.875813 65.494516 
L 55.930373 31.481018 
L 55.966334 13.433255 
L 56.023374 48.823462 
L 56.058095 65.582202 
L 56.111415 32.886822 
L 56.148616 13.526697 
L 56.203176 46.756604 
L 56.240377 65.598216 
L 56.294937 31.742315 
L 56.332138 13.487835 
L 56.387939 48.551302 
L 56.422659 65.472732 
L 56.47722 32.100375 
L 56.51318 13.671354 
L 56.568981 47.60026 
L 56.604941 65.53048 
L 56.659502 31.97996 
L 56.696702 13.463839 
L 56.751263 47.375917 
L 56.788463 65.595462 
L 56.841784 32.109077 
L 56.878984 13.64328 
L 56.933545 47.358028 
L 56.970745 65.508228 
L 57.025306 31.121357 
L 57.061266 13.455197 
L 57.117067 48.250342 
L 57.151787 65.638979 
L 57.205108 33.402659 
L 57.243548 13.492757 
L 57.296869 46.111616 
L 57.335309 65.560705 
L 57.38987 31.184957 
L 57.42583 13.434569 
L 57.481631 48.108099 
L 57.517591 65.446314 
L 57.570912 32.524535 
L 57.608112 13.566869 
L 57.662673 47.096747 
L 57.699873 65.595557 
L 57.754434 31.511256 
L 57.791634 13.522612 
L 57.846195 47.919124 
L 57.882155 65.584719 
L 57.935476 32.668571 
L 57.973916 13.56421 
L 58.027237 46.788849 
L 58.064437 65.581346 
L 58.118998 31.816091 
L 58.156198 13.552342 
L 58.210759 47.761503 
L 58.246719 65.569597 
L 58.30004 32.771818 
L 58.33724 13.52301 
L 58.391801 46.534878 
L 58.430241 65.554788 
L 58.484802 30.923671 
L 58.520762 13.507637 
L 58.575323 47.49743 
L 58.612523 65.467727 
L 58.665844 32.003678 
L 58.701804 13.506939 
L 58.757605 47.57973 
L 58.794805 65.575505 
L 58.848126 32.175998 
L 58.884086 13.603139 
L 58.939887 47.295652 
L 58.977087 65.513143 
L 59.031648 31.09322 
L 59.067608 13.541403 
L 59.122169 47.364844 
L 59.159369 65.561925 
L 59.21269 32.339728 
L 59.24865 13.628705 
L 59.304451 47.357586 
L 59.341651 65.535359 
L 59.394972 32.288217 
L 59.433412 13.638617 
L 59.486733 47.122828 
L 59.522693 65.445728 
L 59.578494 31.513422 
L 59.614454 13.715011 
L 59.670255 48.17753 
L 59.704975 65.412986 
L 59.758296 33.406224 
L 59.796736 13.670976 
L 59.851297 46.963084 
L 59.888497 65.493795 
L 59.943058 31.661961 
L 59.979018 13.69986 
L 60.034819 47.892447 
L 60.070779 65.346808 
L 60.1241 32.489074 
L 60.16254 13.64705 
L 60.214621 45.840601 
L 60.253061 65.450146 
L 60.307622 31.854826 
L 60.343582 13.667186 
L 60.399383 47.796421 
L 60.435344 65.441139 
L 60.489904 31.676754 
L 60.527105 13.620611 
L 60.581665 47.72708 
L 60.617626 65.400283 
L 60.672186 31.997115 
L 60.709387 13.729867 
L 60.763947 47.792504 
L 60.799908 65.441835 
L 60.853228 32.721967 
L 60.891669 13.665149 
L 60.944989 46.501339 
L 60.98219 65.516474 
L 61.03799 31.066177 
L 61.073951 13.636417 
L 61.128511 47.402558 
L 61.165712 65.399143 
L 61.219032 31.98958 
L 61.256233 13.558745 
L 61.310793 47.42777 
L 61.347994 65.528981 
L 61.401314 32.346163 
L 61.437275 13.534867 
L 61.493075 47.267746 
L 61.530276 65.493051 
L 61.584836 31.083143 
L 61.620797 13.492694 
L 61.675357 47.126272 
L 61.712558 65.504166 
L 61.767118 31.50362 
L 61.803079 13.53937 
L 61.858879 48.162169 
L 61.89484 65.541124 
L 61.94692 33.303756 
L 61.985361 13.609882 
L 62.039921 46.850574 
L 62.077122 65.440501 
L 62.132922 30.486692 
L 62.167643 13.6258 
L 62.222203 46.860962 
L 62.259404 65.359004 
L 62.313964 31.549616 
L 62.349925 13.688599 
L 62.405725 47.987726 
L 62.441686 65.41098 
L 62.495006 32.797789 
L 62.532207 13.672683 
L 62.586767 46.642585 
L 62.623968 65.366876 
L 62.678528 31.67489 
L 62.715729 13.645996 
L 62.770289 47.740166 
L 62.80625 65.383152 
L 62.86081 32.056093 
L 62.896771 13.67043 
L 62.952571 47.655763 
L 62.988532 65.543766 
L 63.043092 31.983347 
L 63.079053 13.668827 
L 63.134853 47.381966 
L 63.170814 65.485565 
L 63.226615 31.213466 
L 63.262575 13.609846 
L 63.318376 48.325278 
L 63.354336 65.63172 
L 63.406417 33.1693 
L 63.443617 13.495372 
L 63.498178 46.106884 
L 63.536618 65.519778 
L 63.591179 31.491151 
L 63.627139 13.653035 
L 63.68294 48.081741 
L 63.7189 65.454484 
L 63.772221 32.502248 
L 63.810661 13.560002 
L 63.863982 47.006412 
L 63.901182 65.472923 
L 63.955743 31.709339 
L 63.991703 13.66705 
L 64.047504 47.985137 
L 64.083464 65.539415 
L 64.136785 32.586902 
L 64.175225 13.490766 
L 64.228546 46.773178 
L 64.265746 65.519615 
L 64.321547 30.739072 
L 64.357507 13.601853 
L 64.412068 47.846732 
L 64.448028 65.712965 
L 64.502589 31.941008 
L 64.539789 13.32995 
L 64.59435 47.585204 
L 64.63155 65.683648 
L 64.684871 31.955782 
L 64.722071 13.542972 
L 64.776632 47.57049 
L 64.812592 65.715301 
L 64.868393 31.124616 
L 64.905593 13.390752 
L 64.960154 48.442947 
L 64.996114 65.776567 
L 65.048195 33.071214 
L 65.086635 13.524827 
L 65.139956 46.301137 
L 65.178396 65.681132 
L 65.232957 31.369386 
L 65.270157 13.441181 
L 65.324718 48.253146 
L 65.360678 65.591872 
L 65.412759 33.342297 
L 65.451199 13.502807 
L 65.50576 47.139878 
L 65.54296 65.547552 
L 65.597521 31.628744 
L 65.633481 13.512897 
L 65.689282 47.958726 
L 65.725242 65.512341 
L 65.778563 32.495128 
L 65.817003 13.492408 
L 65.870324 47.015343 
L 65.907524 65.641216 
L 65.962085 31.805267 
L 65.998045 13.466776 
L 66.053846 47.899574 
L 66.089806 65.729322 
L 66.143127 32.716821 
L 66.181567 13.443401 
L 66.234888 46.600315 
L 66.272088 65.65863 
L 66.327889 30.905483 
L 66.363849 13.491922 
L 66.41841 47.790843 
L 66.45561 65.739582 
L 66.507691 32.854357 
L 66.546131 13.324777 
L 66.599452 46.390968 
L 66.637892 65.733424 
L 66.692453 31.120015 
L 66.728413 13.488639 
L 66.784214 48.34214 
L 66.820174 65.59837 
L 66.873495 32.100182 
L 66.910695 13.344756 
L 66.965256 47.425829 
L 67.002456 65.782433 
L 67.055777 32.447308 
L 67.092977 13.400517 
L 67.147538 47.207561 
L 67.184738 65.808383 
L 67.239299 31.300358 
L 67.2765 13.319076 
L 67.33106 48.100167 
L 67.367021 65.670472 
L 67.420341 32.55842 
L 67.457542 13.506058 
L 67.512102 47.149061 
L 67.549303 65.736593 
L 67.603863 31.481158 
L 67.641064 13.3112 
L 67.696864 48.94578 
L 67.731585 65.695082 
L 67.786145 31.732954 
L 67.823346 13.534757 
L 67.877906 47.887072 
L 67.913867 65.676874 
L 67.968427 31.708023 
L 68.005628 13.371135 
L 68.061428 48.719149 
L 68.096149 65.760528 
L 68.149469 32.952161 
L 68.18667 13.475864 
L 68.24123 46.527505 
L 68.279671 65.646864 
L 68.334231 30.863169 
L 68.370192 13.403114 
L 68.424752 47.540119 
L 68.461953 65.596143 
L 68.515273 32.091501 
L 68.552474 13.523807 
L 68.607034 47.573495 
L 68.642995 65.591523 
L 68.697555 32.017851 
L 68.734756 13.525337 
L 68.789316 47.462476 
L 68.825277 65.488689 
L 68.881077 31.172987 
L 68.917038 13.534828 
L 68.972838 48.437969 
L 69.008799 65.651197 
L 69.062119 32.205825 
L 69.09808 13.483671 
L 69.15264 46.143522 
L 69.191081 65.766878 
L 69.245641 31.355263 
L 69.281602 13.394327 
L 69.337402 48.13235 
L 69.373363 65.578051 
L 69.426683 32.47992 
L 69.465124 13.435131 
L 69.518444 47.047377 
L 69.555645 65.642866 
L 69.610205 31.693666 
L 69.646166 13.389778 
L 69.701966 47.985765 
L 69.737927 65.697928 
L 69.791247 32.646111 
L 69.829688 13.511959 
L 69.883008 46.626907 
L 69.920209 65.515451 
L 69.97601 30.80321 
L 70.01197 13.485697 
L 70.066531 47.775282 
L 70.103731 65.609623 
L 70.155812 32.838691 
L 70.194252 13.635838 
L 70.247573 46.490412 
L 70.286013 65.642277 
L 70.340574 30.893298 
L 70.376534 13.488475 
L 70.431095 47.450936 
L 70.468295 65.588765 
L 70.521616 32.155379 
L 70.558816 13.514948 
L 70.612137 46.406555 
L 70.650577 65.713068 
L 70.705138 31.303464 
L 70.741098 13.271254 
L 70.796899 48.167188 
L 70.832859 65.773996 
L 70.88618 32.384011 
L 70.92462 13.341642 
L 70.977941 47.094286 
L 71.015141 65.695612 
L 71.069702 31.596519 
L 71.106902 13.325 
L 71.161463 48.160942 
L 71.197423 65.906231 
L 71.249504 33.674514 
L 71.287944 13.336776 
L 71.343745 47.817995 
L 71.380945 65.766005 
L 71.434266 31.708462 
L 71.471466 13.331379 
L 71.526027 47.741013 
L 71.561987 65.727679 
L 71.615308 32.946473 
L 71.652508 13.396571 
L 71.707069 46.705298 
L 71.745509 65.742139 
L 71.80007 30.880616 
L 71.83603 13.363574 
L 71.890591 47.445384 
L 71.927791 65.744389 
L 71.981112 32.092522 
L 72.019552 13.337153 
L 72.072873 47.59555 
L 72.108833 65.853803 
L 72.163394 32.042226 
L 72.200594 13.326236 
L 72.253915 46.271258 
L 72.292355 65.96842 
L 72.346916 31.217674 
L 72.382876 13.224289 
L 72.438677 48.277018 
L 72.474637 65.756185 
L 72.527958 32.162466 
L 72.565158 13.249184 
L 72.619719 47.384805 
L 72.656919 65.946248 
L 72.71024 32.424801 
L 72.74744 13.132496 
L 72.802001 47.110102 
L 72.839201 65.94546 
L 72.893762 31.305781 
L 72.929722 13.267273 
L 72.985523 48.143216 
L 73.021483 65.725611 
L 73.076044 31.598293 
L 73.113244 13.254341 
L 73.167805 48.112102 
L 73.203765 65.879467 
L 73.255846 33.392888 
L 73.294286 13.40482 
L 73.348847 46.898389 
L 73.386047 65.911762 
L 73.440608 31.593226 
L 73.477808 13.236939 
L 73.532369 47.917548 
L 73.568329 65.76871 
L 73.62165 32.661999 
L 73.65885 13.254085 
L 73.713411 46.867616 
L 73.751851 65.869981 
L 73.805172 31.809523 
L 73.841132 13.197257 
L 73.896933 47.697742 
L 73.932893 65.860532 
L 73.987454 31.802782 
L 74.023414 13.280916 
L 74.079215 47.79032 
L 74.115176 65.723451 
L 74.169736 31.860459 
L 74.206937 13.331712 
L 74.261497 47.762451 
L 74.297458 65.827659 
L 74.350778 32.873119 
L 74.389219 13.364076 
L 74.442539 46.338744 
L 74.48098 65.722783 
L 74.53554 30.975442 
L 74.571501 13.354696 
L 74.626061 47.545922 
L 74.662022 65.741413 
L 74.716582 32.17728 
L 74.752543 13.239043 
L 74.808343 47.56862 
L 74.844304 65.82558 
L 74.898864 32.052528 
L 74.936065 13.447427 
L 74.990625 47.215476 
L 75.027826 65.706756 
L 75.082386 31.198417 
L 75.118347 13.331269 
L 75.172907 47.379522 
L 75.208868 65.74958 
L 75.263428 32.247597 
L 75.301869 13.493122 
L 75.353949 46.090747 
L 75.39239 65.789857 
L 75.44695 31.40816 
L 75.482911 13.314257 
L 75.538711 48.123513 
L 75.574672 65.658133 
L 75.627992 32.344932 
L 75.665193 13.353798 
L 75.718513 46.033445 
L 75.756954 65.861533 
L 75.811514 31.735983 
L 75.847475 13.182696 
L 75.903275 47.888549 
L 75.939236 65.903451 
L 75.992556 32.684367 
L 76.029757 13.379141 
L 76.084317 46.572358 
L 76.121518 65.700974 
L 76.177318 30.861244 
L 76.212039 13.302108 
L 76.267839 47.792768 
L 76.3038 65.851301 
L 76.35712 32.6649 
L 76.395561 13.480789 
L 76.447641 45.477962 
L 76.486082 65.836573 
L 76.540642 31.919108 
L 76.577843 13.313226 
L 76.632403 47.503362 
L 76.668364 65.638937 
L 76.722924 32.026258 
L 76.760125 13.318937 
L 76.814685 47.5277 
L 76.850646 65.783478 
L 76.905207 32.204535 
L 76.942407 13.254415 
L 76.996968 47.276974 
L 77.032928 65.851748 
L 77.087489 32.250337 
L 77.124689 13.285231 
L 77.17925 47.281818 
L 77.21645 65.763736 
L 77.271011 31.394044 
L 77.306971 13.352383 
L 77.362772 48.212185 
L 77.398732 65.872579 
L 77.450813 33.412796 
L 77.489253 13.306017 
L 77.543814 46.928645 
L 77.581014 65.767236 
L 77.636815 30.511528 
L 77.671535 13.350247 
L 77.726096 46.912128 
L 77.763296 65.740112 
L 77.817857 31.806793 
L 77.853817 13.303789 
L 77.910858 48.801545 
L 77.946818 65.787386 
L 77.998899 32.720422 
L 78.037339 13.454693 
L 78.09066 46.577164 
L 78.12786 65.75326 
L 78.183661 30.846148 
L 78.219621 13.341828 
L 78.274182 47.716725 
L 78.310142 65.70142 
L 78.363463 32.864424 
L 78.401903 13.418048 
L 78.455224 46.539515 
L 78.493664 65.827867 
L 78.548225 30.88987 
L 78.584185 13.299892 
L 78.638746 47.433297 
L 78.675946 65.682732 
L 78.729267 32.078752 
L 78.766467 13.3955 
L 78.819788 46.399323 
L 78.858228 65.740816 
L 78.912789 31.266192 
L 78.948749 13.326022 
L 79.00455 48.347714 
L 79.04051 65.720847 
L 79.092591 33.20961 
L 79.131031 13.516559 
L 79.185592 47.196317 
L 79.222792 65.603534 
L 79.277353 31.378147 
L 79.313313 13.51156 
L 79.369114 48.293724 
L 79.405074 65.661273 
L 79.457155 33.325805 
L 79.495595 13.569843 
L 79.550156 47.151105 
L 79.587356 65.654783 
L 79.641917 31.401933 
L 79.677877 13.499217 
L 79.733678 48.072165 
L 79.769638 65.493205 
L 79.822959 32.440962 
L 79.860159 13.49496 
L 79.91472 47.130584 
L 79.95192 65.589259 
L 80.006481 31.652592 
L 80.042441 13.536795 
L 80.098242 47.89784 
L 80.134202 65.613481 
L 80.188763 31.744342 
L 80.225963 13.524887 
L 80.280524 47.792856 
L 80.316484 65.600531 
L 80.371045 31.933874 
L 80.407005 13.62981 
L 80.462806 47.739022 
L 80.498766 65.608723 
L 80.553327 31.995524 
L 80.589287 13.523681 
L 80.645088 47.539665 
L 80.682288 65.601435 
L 80.735609 32.04844 
L 80.772809 13.499512 
L 80.82737 47.490539 
L 80.86457 65.630782 
L 80.917891 32.210124 
L 80.955092 13.412804 
L 81.009652 47.352088 
L 81.046853 65.665597 
L 81.100173 32.306708 
L 81.137374 13.587128 
L 81.190694 45.923168 
L 81.229135 65.585107 
L 81.284935 30.333797 
L 81.319656 13.541041 
L 81.372976 45.953335 
L 81.411417 65.595324 
L 81.465977 31.642852 
L 81.501938 13.660373 
L 81.557738 47.973647 
L 81.593699 65.54252 
L 81.648259 31.707322 
L 81.68422 13.552199 
L 81.74126 48.741448 
L 81.775981 65.471012 
L 81.829301 32.788473 
L 81.866502 13.610531 
L 81.921062 46.806472 
L 81.958263 65.519398 
L 82.012823 31.936557 
L 82.048784 13.563601 
L 82.104584 47.60663 
L 82.141785 65.626015 
L 82.195105 31.956049 
L 82.232306 13.588968 
L 82.286866 47.524933 
L 82.324067 65.529139 
L 82.378627 31.109422 
L 82.414588 13.554467 
L 82.469148 47.53293 
L 82.505109 65.630084 
L 82.559669 32.233739 
L 82.59687 13.490728 
L 82.65143 47.225203 
L 82.688631 65.553497 
L 82.743191 31.332778 
L 82.779152 13.6273 
L 82.834952 48.175019 
L 82.870913 65.473064 
L 82.922993 33.467875 
L 82.961434 13.569842 
L 83.015994 47.117682 
L 83.053195 65.537886 
L 83.107755 31.605029 
L 83.143716 13.653527 
L 83.199516 47.898984 
L 83.235477 65.611311 
L 83.288797 32.641365 
L 83.327238 13.481406 
L 83.380558 46.830062 
L 83.417759 65.554002 
L 83.472319 31.762491 
L 83.50828 13.630409 
L 83.56408 47.912419 
L 83.600041 65.609236 
L 83.653361 32.781174 
L 83.691802 13.450932 
L 83.745123 46.480519 
L 83.783563 65.595869 
L 83.838124 30.865643 
L 83.874084 13.63676 
L 83.928645 47.671465 
L 83.964605 65.570616 
L 84.019166 32.094052 
L 84.055126 13.519877 
L 84.110927 47.525772 
L 84.148127 65.571719 
L 84.201448 32.173076 
L 84.238648 13.722309 
L 84.293209 47.247311 
L 84.329169 65.48054 
L 84.38497 31.245632 
L 84.42093 13.608985 
L 84.476731 48.280426 
L 84.512691 65.438916 
L 84.564772 33.421797 
L 84.603212 13.700161 
L 84.657773 47.21507 
L 84.694973 65.425738 
L 84.749534 31.461048 
L 84.785494 13.683222 
L 84.841295 48.02825 
L 84.877255 65.371339 
L 84.930576 32.560034 
L 84.967776 13.759877 
L 85.021097 46.063733 
L 85.059537 65.41914 
L 85.114098 31.628139 
L 85.151298 13.740802 
L 85.205859 47.869319 
L 85.241819 65.494874 
L 85.29514 32.765345 
L 85.33234 13.738331 
L 85.386901 46.590823 
L 85.424101 65.359461 
L 85.479902 30.819807 
L 85.515862 13.705824 
L 85.570423 47.756756 
L 85.606383 65.535111 
L 85.659704 32.975317 
L 85.696904 13.593608 
L 85.751465 46.432707 
L 85.788665 65.47233 
L 85.844466 31.064733 
L 85.880426 13.606899 
L 85.934987 47.397939 
L 85.972187 65.432687 
L 86.026748 31.1938 
L 86.062708 13.587641 
L 86.117269 47.539106 
L 86.154469 65.548696 
L 86.20779 32.158206 
L 86.24499 13.624885 
L 86.299551 47.221071 
L 86.336751 65.552547 
L 86.391312 31.204353 
L 86.427272 13.595353 
L 86.483073 48.300213 
L 86.519033 65.506661 
L 86.572354 32.280247 
L 86.609554 13.598198 
L 86.662875 46.205201 
L 86.701315 65.627851 
L 86.755876 31.349597 
L 86.791836 13.486494 
L 86.847637 48.090906 
L 86.883597 65.53506 
L 86.936918 32.444892 
L 86.974118 13.553496 
L 87.027439 46.000791 
L 87.065879 65.528274 
L 87.12168 30.454696 
L 87.1564 13.432701 
L 87.210961 46.991634 
L 87.248161 65.649018 
L 87.302722 31.61326 
L 87.338682 13.578086 
L 87.394483 47.797641 
L 87.430443 65.542946 
L 87.485004 31.828761 
L 87.522204 13.433682 
L 87.578005 48.844944 
L 87.612725 65.693888 
L 87.666046 32.772931 
L 87.703246 13.508134 
L 87.757807 46.734751 
L 87.795008 65.685551 
L 87.849568 31.781554 
L 87.885529 13.464086 
L 87.941329 47.627314 
L 87.97729 65.514349 
L 88.03185 31.940011 
L 88.069051 13.54623 
L 88.123611 47.790158 
L 88.159572 65.545163 
L 88.212892 32.833149 
L 88.251333 13.446052 
L 88.304653 46.482091 
L 88.343094 65.643213 
L 88.397654 30.832672 
L 88.433615 13.475982 
L 88.488175 47.427951 
L 88.524136 65.547258 
L 88.579936 31.027034 
L 88.615897 13.556789 
L 88.670457 47.500281 
L 88.706418 65.626538 
L 88.760978 32.272662 
L 88.798179 13.542396 
L 88.852739 47.285921 
L 88.88994 65.491216 
L 88.9445 31.072212 
L 88.980461 13.547969 
L 89.035021 47.255684 
L 89.070982 65.502858 
L 89.126782 31.433176 
L 89.162743 13.56388 
L 89.218543 48.29722 
L 89.254504 65.558596 
L 89.306584 33.214533 
L 89.346265 13.606387 
L 89.399585 47.036543 
L 89.435546 65.542906 
L 89.491346 31.399876 
L 89.527307 13.609668 
L 89.583107 48.180485 
L 89.619068 65.558054 
L 89.672388 32.366232 
L 89.710829 13.637417 
L 89.762909 45.980817 
L 89.80135 65.65614 
L 89.85591 31.683992 
L 89.891871 13.476958 
L 89.947671 47.899697 
L 89.983632 65.525967 
L 90.036952 32.514292 
L 90.075393 13.462271 
L 90.128713 46.900225 
L 90.165914 65.662541 
L 90.220474 31.848727 
L 90.256435 13.335017 
L 90.312235 47.838003 
L 90.349436 65.743922 
L 90.401516 32.701333 
L 90.439957 13.426852 
L 90.493277 46.450361 
L 90.530478 65.615142 
L 90.587519 29.95513 
L 90.622239 13.467299 
L 90.67556 46.557584 
L 90.714 65.708322 
L 90.768561 30.956555 
L 90.804521 13.516269 
L 90.859082 47.445594 
L 90.896282 65.718863 
L 90.949603 32.121557 
L 90.986803 13.43367 
L 91.041364 47.271177 
L 91.077324 65.536935 
L 91.131885 32.186737 
L 91.170325 13.366636 
L 91.222406 46.292765 
L 91.260846 65.752884 
L 91.315407 31.484656 
L 91.351367 13.315263 
L 91.407168 48.019128 
L 91.443128 65.773812 
L 91.496449 32.52105 
L 91.534889 13.421559 
L 91.58821 46.828531 
L 91.62665 65.566437 
L 91.681211 30.68951 
L 91.715931 13.511929 
L 91.770492 46.93648 
L 91.807692 65.681148 
L 91.862253 31.76692 
L 91.898213 13.410385 
L 91.954014 47.727405 
L 91.989974 65.638084 
L 92.044535 31.863123 
L 92.081735 13.515479 
L 92.136296 47.702104 
L 92.172256 65.520488 
L 92.226817 32.008641 
L 92.264017 13.491129 
L 92.318578 47.676321 
L 92.355778 65.647531 
L 92.407859 32.936903 
L 92.446299 13.546583 
L 92.49962 46.261976 
L 92.53806 65.570311 
L 92.592621 31.039475 
L 92.628581 13.495705 
L 92.683142 47.47821 
L 92.719102 65.485511 
L 92.773663 32.215005 
L 92.810863 13.608342 
L 92.864184 46.267428 
L 92.902624 65.610717 
L 92.957185 31.326166 
L 92.993145 13.531444 
L 93.048946 48.169241 
L 93.084906 65.486186 
L 93.138227 32.357861 
L 93.175427 13.510155 
L 93.229988 47.254074 
L 93.267188 65.586882 
L 93.321749 31.496387 
L 93.357709 13.488116 
L 93.41351 48.132727 
L 93.44947 65.694554 
L 93.501551 33.527258 
L 93.539991 13.580069 
L 93.594552 46.755253 
L 93.631752 65.454655 
L 93.687553 30.57389 
L 93.723513 13.589926 
L 93.776834 46.913708 
L 93.815274 65.538138 
L 93.868595 31.693349 
L 93.904555 13.565513 
L 93.960356 47.91165 
L 93.996316 65.503689 
L 94.049637 32.753442 
L 94.088077 13.623751 
L 94.141398 46.527842 
L 94.179838 65.330295 
L 94.234399 30.689354 
L 94.270359 13.632342 
L 94.32368 46.808592 
L 94.36088 65.50772 
L 94.415441 31.993114 
L 94.451401 13.631744 
L 94.507202 47.580165 
L 94.544402 65.573958 
L 94.597723 31.958012 
L 94.634923 13.583159 
L 94.689484 47.425551 
L 94.725445 65.461471 
L 94.781245 31.158463 
L 94.817206 13.659439 
L 94.871766 47.534915 
L 94.908967 65.597039 
L 94.961047 33.101654 
L 94.999488 13.518777 
L 95.052808 45.986587 
L 95.091249 65.513711 
L 95.147049 30.139694 
L 95.18177 13.655779 
L 95.23633 47.288196 
L 95.273531 65.427187 
L 95.326851 32.325303 
L 95.364052 13.530095 
L 95.418612 47.190205 
L 95.455813 65.497095 
L 95.509133 32.532335 
L 95.546334 13.712901 
L 95.600894 46.914606 
L 95.638095 65.459033 
L 95.693895 30.34593 
L 95.728616 13.593397 
L 95.783176 46.953642 
L 95.820377 65.433902 
L 95.874937 31.638361 
L 95.910898 13.726201 
L 95.966698 47.989324 
L 96.002659 65.470542 
L 96.055979 32.507148 
L 96.09318 13.617585 
L 96.14774 46.671358 
L 96.184941 65.420849 
L 96.240741 30.841868 
L 96.276702 13.757665 
L 96.331262 47.866209 
L 96.368463 65.449619 
L 96.420543 32.732901 
L 96.457744 13.583183 
L 96.512304 46.606659 
L 96.550745 65.583821 
L 96.604065 31.933926 
L 96.641266 13.61291 
L 96.695826 47.555662 
L 96.731787 65.496025 
L 96.786347 31.982515 
L 96.823548 13.508049 
L 96.878108 47.584978 
L 96.915309 65.586971 
L 96.968629 32.203304 
L 97.00583 13.484385 
L 97.06039 47.392346 
L 97.096351 65.62058 
L 97.152151 31.101637 
L 97.188112 13.528985 
L 97.243912 48.250397 
L 97.278633 65.453507 
L 97.333193 32.41679 
L 97.370394 13.522268 
L 97.424954 47.329351 
L 97.462155 65.577214 
L 97.515476 32.261481 
L 97.552676 13.484724 
L 97.607237 47.061932 
L 97.644437 65.661526 
L 97.698998 31.442082 
L 97.734958 13.541381 
L 97.790759 47.994796 
L 97.826719 65.464058 
L 97.88128 31.497281 
L 97.91848 13.484914 
L 97.973041 48.0678 
L 98.009001 65.677602 
L 98.061082 33.658198 
L 98.100762 13.43741 
L 98.154083 46.786786 
L 98.191283 65.553789 
L 98.245844 31.626837 
L 98.281804 13.517058 
L 98.337605 47.784992 
L 98.373565 65.401722 
L 98.428126 31.781497 
L 98.464086 13.481355 
L 98.519887 47.820295 
L 98.557087 65.613781 
L 98.609168 32.872855 
L 98.646368 13.55053 
L 98.700929 46.498802 
L 98.738129 65.665259 
L 98.79393 30.719074 
L 98.82989 13.427133 
L 98.883211 46.443993 
L 98.921651 65.672719 
L 98.976212 31.107854 
L 99.010932 13.553412 
L 99.066733 47.482275 
L 99.103933 65.725034 
L 99.157254 32.14182 
L 99.194454 13.425079 
L 99.249015 47.264591 
L 99.286215 65.621293 
L 99.340776 31.287851 
L 99.376736 13.577095 
L 99.432537 48.25751 
L 99.468497 65.455675 
L 99.521818 32.159697 
L 99.559018 13.475427 
L 99.612339 46.151742 
L 99.649539 65.643824 
L 99.70534 31.494677 
L 99.7413 13.515668 
L 99.797101 48.176736 
L 99.833061 65.517004 
L 99.886382 32.295037 
L 99.924822 13.474762 
L 99.978143 47.102346 
L 100.015343 65.588036 
L 100.069904 31.521456 
L 100.105864 13.531745 
L 100.160425 47.095126 
L 100.197625 65.616118 
L 100.252186 31.333825 
L 100.289386 13.425522 
L 100.343947 47.963382 
L 100.379907 65.563877 
L 100.433228 32.655302 
L 100.470428 13.483863 
L 100.524989 47.028078 
L 100.562189 65.645056 
L 100.61551 32.435433 
L 100.65271 13.43244 
L 100.707271 46.667789 
L 100.744471 65.683456 
L 100.800272 30.668826 
L 100.836232 13.478057 
L 100.890793 47.688564 
L 100.926753 65.489708 
L 100.981314 31.658404 
L 101.018514 13.434394 
L 101.073075 47.699685 
L 101.110275 65.617058 
L 101.163596 31.991837 
L 101.200796 13.355576 
L 101.255357 47.551571 
L 101.292557 65.646276 
L 101.345878 31.824059 
L 101.383078 13.434496 
L 101.437639 47.480319 
L 101.473599 65.503252 
L 101.5294 31.252924 
L 101.565361 13.511433 
L 101.621161 48.384931 
L 101.657122 65.641999 
L 101.709202 32.901338 
L 101.747643 13.399334 
L 101.800963 46.085604 
L 101.839404 65.616805 
L 101.893964 31.230016 
L 101.929925 13.487532 
L 101.985725 48.167385 
L 102.020446 65.514438 
L 102.075006 32.26995 
L 102.112207 13.468589 
L 102.166767 47.136768 
L 102.203968 65.596072 
L 102.257288 32.555966 
L 102.294489 13.390947 
L 102.349049 46.924675 
L 102.38625 65.629475 
L 102.44081 31.508159 
L 102.476771 13.407894 
L 102.532571 47.894496 
L 102.568532 65.527424 
L 102.623092 31.747387 
L 102.659053 13.452917 
L 102.714853 47.844229 
L 102.750814 65.66876 
L 102.804134 32.562279 
L 102.841335 13.394837 
L 102.895895 46.689189 
L 102.933096 65.550136 
L 102.987656 31.830508 
L 103.024857 13.495464 
L 103.079417 47.681277 
L 103.115378 65.618461 
L 103.168698 32.91906 
L 103.207139 13.451173 
L 103.260459 46.545228 
L 103.2989 65.564542 
L 103.35346 30.838289 
L 103.388181 13.54918 
L 103.443981 47.569094 
L 103.479942 65.566564 
L 103.534502 32.047301 
L 103.571703 13.466868 
L 103.627503 48.575285 
L 103.662224 65.482372 
L 103.715544 32.897792 
L 103.753985 13.617148 
L 103.807305 46.487504 
L 103.845746 65.630893 
L 103.900306 31.157248 
L 103.936267 13.407865 
L 103.992067 48.374253 
L 104.026788 65.509506 
L 104.080108 33.053808 
L 104.119789 13.508295 
L 104.171869 46.319836 
L 104.21031 65.663971 
L 104.26487 31.418102 
L 104.300831 13.320229 
L 104.356632 48.239029 
L 104.391352 65.790379 
L 104.444672 33.298019 
L 104.483113 13.465927 
L 104.537674 47.040717 
L 104.574874 65.664386 
L 104.629435 31.645816 
L 104.665395 13.380919 
L 104.721196 48.018845 
L 104.757156 65.699232 
L 104.809237 33.573599 
L 104.847677 13.50652 
L 104.903478 47.927874 
L 104.939438 65.669805 
L 104.993999 31.715195 
L 105.029959 13.444136 
L 105.08576 47.742878 
L 105.12172 65.55538 
L 105.176281 31.737849 
L 105.213481 13.373995 
L 105.269282 48.748053 
L 105.304002 65.666051 
L 105.357323 33.049329 
L 105.394523 13.420272 
L 105.450324 47.521672 
L 105.486284 65.670794 
L 105.540845 32.011288 
L 105.578045 13.369913 
L 105.633846 48.562291 
L 105.669806 65.705919 
L 105.721887 33.237681 
L 105.760327 13.420476 
L 105.813648 46.39269 
L 105.850848 65.844294 
L 105.906649 30.929289 
L 105.942609 13.287338 
L 105.99841 48.293843 
L 106.03437 65.714815 
L 106.087691 32.283039 
L 106.124891 13.361163 
L 106.179452 47.257758 
L 106.216652 65.690695 
L 106.271213 31.262843 
L 106.307173 13.231089 
L 106.364214 49.051576 
L 106.398934 65.693602 
L 106.452255 32.46501 
L 106.489455 13.369532 
L 106.544016 46.908878 
L 106.581216 65.544324 
L 106.635777 31.487901 
L 106.671737 13.263214 
L 106.728778 48.906977 
L 106.763498 65.727325 
L 106.816819 32.680936 
L 106.854019 13.273639 
L 106.90982 48.030898 
L 106.94578 65.74795 
L 107.000341 31.567747 
L 107.037541 13.274317 
L 107.093342 48.827656 
L 107.128062 65.639725 
L 107.182623 31.762287 
L 107.218583 13.31558 
L 107.274384 47.901978 
L 107.310344 65.787345 
L 107.364905 31.73874 
L 107.402105 13.24445 
L 107.457906 48.593368 
L 107.492626 65.799868 
L 107.545947 32.938802 
L 107.584387 13.431717 
L 107.638948 47.630761 
L 107.674908 65.653088 
L 107.729469 31.948364 
L 107.766669 13.325398 
L 107.82123 47.523402 
L 107.85843 65.70707 
L 107.911751 32.160175 
L 107.948951 13.423561 
L 108.003512 47.553637 
L 108.040712 65.634969 
L 108.094033 32.133992 
L 108.131233 13.360111 
L 108.185794 47.267148 
L 108.221754 65.527538 
L 108.276315 32.374334 
L 108.313515 13.504471 
L 108.368076 47.305719 
L 108.405277 65.597171 
L 108.458597 32.368482 
L 108.495798 13.50712 
L 108.550358 47.106932 
L 108.587559 65.647523 
L 108.642119 31.469445 
L 108.67932 13.365094 
L 108.73388 48.035655 
L 108.769841 65.695191 
L 108.824401 31.611589 
L 108.861602 13.52186 
L 108.916162 47.996286 
L 108.952123 65.799885 
L 109.004203 33.688542 
L 109.043884 13.285876 
L 109.097204 46.687097 
L 109.134405 65.683356 
L 109.190205 30.809025 
L 109.226166 13.433983 
L 109.281966 48.644164 
L 109.316687 65.633153 
L 109.370007 32.844384 
L 109.407208 13.260179 
L 109.461768 46.506162 
L 109.500209 65.762763 
L 109.554769 31.143933 
L 109.59073 13.540032 
L 109.64653 48.479821 
L 109.681251 65.557448 
L 109.735811 31.968835 
L 109.773012 13.364023 
L 109.827572 47.426401 
L 109.864773 65.745286 
L 109.918093 32.296399 
L 109.955294 13.4456 
L 110.009854 47.389479 
L 110.047055 65.753005 
L 110.100375 32.155155 
L 110.137576 13.390548 
L 110.192136 47.143943 
L 110.229337 65.598461 
L 110.283897 31.481439 
L 110.321098 13.520224 
L 110.375658 48.260667 
L 110.411619 65.642215 
L 110.464939 32.256534 
L 110.50214 13.320788 
L 110.5567 46.965838 
L 110.595141 65.72024 
L 110.648461 31.467775 
L 110.684422 13.517355 
L 110.740222 47.940129 
L 110.776183 65.585595 
L 110.830743 31.518345 
L 110.866704 13.377491 
L 110.922504 47.90316 
L 110.958465 65.6904 
L 111.011785 32.908038 
L 111.048986 13.430247 
L 111.104786 47.723588 
L 111.140747 65.582898 
L 111.195308 31.721947 
L 111.232508 13.425195 
L 111.287069 47.626163 
L 111.324269 65.511517 
L 111.37759 32.17043 
L 111.41479 13.446744 
L 111.469351 47.631024 
L 111.505311 65.625447 
L 111.559872 31.934515 
L 111.597072 13.419073 
L 111.651633 47.293012 
L 111.688833 65.645741 
L 111.743394 31.123953 
L 111.779354 13.523482 
L 111.833915 47.31786 
L 111.869875 65.56727 
L 111.924436 32.191854 
L 111.962876 13.495417 
L 112.014957 46.100679 
L 112.053397 65.704393 
L 112.107958 31.431874 
L 112.143918 13.396093 
L 112.199719 48.091259 
L 112.235679 65.621387 
L 112.289 32.400366 
L 112.32 14.147077 
L 112.32 14.147077 
" clip-path="url(#p1df95b9619)" style="fill: none; stroke: #cc9900; stroke-width: 0.1; stroke-linecap: square"/>
   </g>
   <g id="patch_3">
    <path d="M 0.72 78.336 
L 0.72 0.72 
" style="fill: none; stroke: #cc9900; stroke-width: 0.5; stroke-linejoin: miter; stroke-linecap: square"/>
   </g>
   <g id="patch_4">
    <path d="M 112.32 78.336 
L 112.32 0.72 
" style="fill: none; stroke: #cc9900; stroke-width: 0.5; stroke-linejoin: miter; stroke-linecap: square"/>
   </g>
   <g id="patch_5">
    <path d="M 0.72 78.336 
L 112.32 78.336 
" style="fill: none; stroke: #cc9900; stroke-width: 0.5; stroke-linejoin: miter; stroke-linecap: square"/>
   </g>
   <g id="patch_6">
    <path d="M 0.72 0.72 
L 112.32 0.72 
" style="fill: none; stroke: #cc9900; stroke-width: 0.5; stroke-linejoin: miter; stroke-linecap: square"/>
   </g>
  </g>
 </g>
 <defs>
  <clipPath id="p1df95b9619">
   <rect x="0.72" y="0.72" width="111.6" height="77.616"/>
  </clipPath>
 </defs>
</svg>
