<?xml version="1.0" encoding="utf-8" standalone="no"?>
<!DOCTYPE svg PUBLIC "-//W3C//DTD SVG 1.1//EN"
  "http://www.w3.org/Graphics/SVG/1.1/DTD/svg11.dtd">
<svg xmlns:xlink="http://www.w3.org/1999/xlink" width="113.04pt" height="79.056pt" viewBox="0 0 113.04 79.056" xmlns="http://www.w3.org/2000/svg" version="1.1">
 <metadata>
  <rdf:RDF xmlns:dc="http://purl.org/dc/elements/1.1/" xmlns:cc="http://creativecommons.org/ns#" xmlns:rdf="http://www.w3.org/1999/02/22-rdf-syntax-ns#">
   <cc:Work>
    <dc:type rdf:resource="http://purl.org/dc/dcmitype/StillImage"/>
    <dc:date>2024-12-25T19:59:03.040998</dc:date>
    <dc:format>image/svg+xml</dc:format>
    <dc:creator>
     <cc:Agent>
      <dc:title>Matplotlib v3.7.5, https://matplotlib.org/</dc:title>
     </cc:Agent>
    </dc:creator>
   </cc:Work>
  </rdf:RDF>
 </metadata>
 <defs>
  <style type="text/css">*{stroke-linejoin: round; stroke-linecap: butt}</style>
 </defs>
 <g id="figure_1">
  <g id="patch_1">
   <path d="M 0 79.056 
L 113.04 79.056 
L 113.04 0 
L 0 0 
z
" style="fill: #ffffff"/>
  </g>
  <g id="axes_1">
   <g id="patch_2">
    <path d="M 0.72 78.336 
L 112.32 78.336 
L 112.32 0.72 
L 0.72 0.72 
z
" style="fill: #ffffff"/>
   </g>
   <g id="matplotlib.axis_1"/>
   <g id="matplotlib.axis_2"/>
   <g id="line2d_1">
    <path d="M 0.72 36.788038 
L 0.725862 36.785888 
L 0.75517 37.907021 
L 0.832837 42.415893 
L 0.885592 39.735264 
L 0.935416 36.838893 
L 0.995498 39.659909 
L 1.049718 42.37711 
L 1.102473 39.42784 
L 1.150831 36.715138 
L 1.209448 39.731991 
L 1.260737 42.160903 
L 1.317889 39.497289 
L 1.367713 37.0444 
L 1.421933 39.737659 
L 1.473222 42.341993 
L 1.527443 39.555985 
L 1.581663 36.460325 
L 1.637349 39.522195 
L 1.693034 42.452097 
L 1.747255 39.633017 
L 1.795613 36.99508 
L 1.85423 39.903206 
L 1.902588 42.336287 
L 1.958274 39.325815 
L 2.012494 36.443172 
L 2.065249 39.525026 
L 2.118004 42.645298 
L 2.17369 39.545943 
L 2.226445 36.715944 
L 2.280665 39.747002 
L 2.336351 42.563083 
L 2.389106 39.560635 
L 2.44186 36.455578 
L 2.497546 39.637171 
L 2.545905 42.476368 
L 2.603056 39.192668 
L 2.657276 36.738869 
L 2.7071 39.752496 
L 2.759855 42.806315 
L 2.815541 39.78249 
L 2.871226 36.101276 
L 2.925447 39.635327 
L 2.976736 42.815321 
L 3.033887 39.44081 
L 3.083711 36.667055 
L 3.139397 39.91041 
L 3.187756 42.731619 
L 3.244907 39.56546 
L 3.297662 36.252035 
L 3.354813 39.658075 
L 3.409033 42.893606 
L 3.461788 39.316184 
L 3.513077 36.276783 
L 3.567298 39.57263 
L 3.618587 42.864451 
L 3.677204 39.627724 
L 3.731424 36.410434 
L 3.784179 39.746611 
L 3.834003 42.971191 
L 3.889689 39.220309 
L 3.943909 36.008385 
L 3.995198 39.594939 
L 4.050884 43.186306 
L 4.10657 39.684855 
L 4.163721 36.28819 
L 4.213545 39.782746 
L 4.264834 43.129325 
L 4.319055 39.298673 
L 4.371809 36.063342 
L 4.42603 39.710195 
L 4.474388 43.125374 
L 4.53447 39.430132 
L 4.587225 36.1695 
L 4.63998 39.733332 
L 4.6942 43.359111 
L 4.746955 39.572767 
L 4.801175 35.762889 
L 4.856861 39.629305 
L 4.908151 43.266789 
L 4.965302 39.35162 
L 5.016591 36.140977 
L 5.069346 39.983224 
L 5.123566 43.487715 
L 5.174856 39.653825 
L 5.229076 35.353717 
L 5.286227 39.59233 
L 5.337517 43.462342 
L 5.394668 39.423149 
L 5.443026 36.035109 
L 5.500178 39.932188 
L 5.551467 43.430079 
L 5.605687 39.479646 
L 5.655511 35.412807 
L 5.714128 39.670343 
L 5.765417 43.712475 
L 5.822568 39.413646 
L 5.876789 35.691972 
L 5.929544 39.776576 
L 5.982298 43.758441 
L 6.037984 39.492888 
L 6.092204 35.384893 
L 6.144959 39.657256 
L 6.197714 43.821654 
L 6.251934 39.130029 
L 6.303224 35.581422 
L 6.357444 39.897586 
L 6.411664 43.944731 
L 6.465885 39.718725 
L 6.52157 35.105528 
L 6.574325 39.664566 
L 6.624149 43.931486 
L 6.682766 39.245657 
L 6.735521 35.338237 
L 6.78681 39.833748 
L 6.841031 44.071947 
L 6.893785 39.633567 
L 6.953867 35.1587 
L 7.002226 39.705914 
L 7.054981 44.254919 
L 7.109201 39.541025 
L 7.163421 35.008167 
L 7.217642 39.648012 
L 7.268931 44.176022 
L 7.326082 39.642888 
L 7.378837 35.141781 
L 7.433057 39.932156 
L 7.485812 44.244301 
L 7.538567 39.349781 
L 7.592787 34.819987 
L 7.647008 39.668318 
L 7.699763 44.250947 
L 7.756914 39.536268 
L 7.806738 35.218087 
L 7.863889 39.916523 
L 7.915178 44.258754 
L 7.969399 39.283442 
L 8.022153 34.9227 
L 8.076374 39.72836 
L 8.129129 44.410558 
L 8.183349 39.585457 
L 8.236104 35.031702 
L 8.291789 39.93841 
L 8.343079 44.508178 
L 8.398765 39.537824 
L 8.45152 34.61201 
L 8.507205 39.598352 
L 8.558495 44.536698 
L 8.615646 39.341636 
L 8.668401 34.76087 
L 8.721156 40.072748 
L 8.77391 44.656372 
L 8.826665 39.545122 
L 8.882351 34.361533 
L 8.936571 39.659145 
L 8.989326 44.628696 
L 9.045012 39.374809 
L 9.096301 34.682272 
L 9.151987 39.989533 
L 9.206207 44.610933 
L 9.257497 39.483358 
L 9.313182 34.523471 
L 9.365937 39.835484 
L 9.417227 44.686197 
L 9.472912 39.38847 
L 9.522736 34.584699 
L 9.579888 39.773685 
L 9.634108 44.845466 
L 9.688328 39.579285 
L 9.739618 34.504164 
L 9.796769 39.780659 
L 9.846593 44.776646 
L 9.902278 39.305682 
L 9.955033 34.53635 
L 10.009254 39.958422 
L 10.062009 44.995122 
L 10.117694 39.600026 
L 10.171914 34.149038 
L 10.226135 39.64986 
L 10.27889 44.881653 
L 10.334575 39.164804 
L 10.384399 34.329791 
L 10.440085 39.93151 
L 10.491375 44.862523 
L 10.54706 39.561097 
L 10.602746 34.205394 
L 10.655501 39.801825 
L 10.709721 44.98413 
L 10.762476 39.380017 
L 10.815231 34.138077 
L 10.869451 39.550168 
L 10.923671 44.980565 
L 10.979357 39.469476 
L 11.029181 34.071397 
L 11.086332 39.994734 
L 11.139087 45.081607 
L 11.191842 39.238048 
L 11.244597 33.951657 
L 11.298817 39.482391 
L 11.351572 45.344471 
L 11.408723 39.661383 
L 11.462943 34.083038 
L 11.517164 39.971862 
L 11.569919 45.167536 
L 11.622673 39.326925 
L 11.675428 34.003161 
L 11.729649 39.654504 
L 11.783869 45.283236 
L 11.838089 39.486997 
L 11.892309 33.994433 
L 11.945064 39.800637 
L 11.997819 45.2827 
L 12.053505 39.42665 
L 12.10626 33.956228 
L 12.161945 39.824499 
L 12.213235 45.21982 
L 12.268921 39.24483 
L 12.318745 33.912162 
L 12.37443 39.954193 
L 12.427185 45.404641 
L 12.481406 39.504607 
L 12.537091 33.683672 
L 12.589846 39.5096 
L 12.641136 45.462067 
L 12.698287 39.410262 
L 12.752507 33.598862 
L 12.805262 40.038199 
L 12.858017 45.397237 
L 12.910772 39.677722 
L 12.963526 33.526093 
L 13.020678 39.795191 
L 13.073432 45.733112 
L 13.127653 39.417984 
L 13.181873 33.388666 
L 13.234628 39.706361 
L 13.288848 45.691201 
L 13.343068 39.62745 
L 13.394358 33.32213 
L 13.451509 39.917743 
L 13.502798 45.89335 
L 13.557019 39.313725 
L 13.609774 33.220856 
L 13.663994 39.741052 
L 13.718214 46.002703 
L 13.772434 39.682359 
L 13.826655 32.986453 
L 13.880875 39.728361 
L 13.932165 46.211383 
L 13.98785 39.331215 
L 14.03914 32.98073 
L 14.094825 39.853511 
L 14.14758 46.031092 
L 14.201801 39.548837 
L 14.254555 32.872533 
L 14.310241 39.921676 
L 14.362996 46.511008 
L 14.417216 39.375027 
L 14.469971 32.730263 
L 14.525657 39.887758 
L 14.576946 46.395488 
L 14.632632 39.536287 
L 14.686852 32.625729 
L 14.739607 39.867613 
L 14.790897 46.617109 
L 14.846582 39.324066 
L 14.900803 32.530295 
L 14.955023 39.866478 
L 15.007778 46.808167 
L 15.061998 39.644204 
L 15.116218 32.373409 
L 15.170439 40.002818 
L 15.223193 46.879692 
L 15.277414 39.248511 
L 15.330169 32.211604 
L 15.384389 39.75047 
L 15.438609 47.027139 
L 15.491364 39.476709 
L 15.544119 32.213903 
L 15.599805 40.00211 
L 15.654025 47.073798 
L 15.70678 39.602541 
L 15.758069 32.11823 
L 15.81522 39.742431 
L 15.867975 47.148478 
L 15.923661 39.05745 
L 15.973485 32.093392 
L 16.029171 39.914526 
L 16.081926 47.241086 
L 16.136146 39.670922 
L 16.191832 31.960542 
L 16.246052 39.904125 
L 16.295876 47.461121 
L 16.353027 39.473557 
L 16.407247 31.759442 
L 16.460002 39.842473 
L 16.512757 47.45703 
L 16.568443 39.284136 
L 16.621198 31.740147 
L 16.675418 39.866477 
L 16.728173 47.717865 
L 16.782393 39.528264 
L 16.836613 31.516876 
L 16.890834 39.919467 
L 16.943588 47.725471 
L 16.999274 39.351521 
L 17.050564 31.371512 
L 17.106249 40.023936 
L 17.16047 47.869548 
L 17.213224 39.105116 
L 17.267445 31.310745 
L 17.3202 39.841202 
L 17.37442 48.094367 
L 17.42864 39.432171 
L 17.481395 31.075228 
L 17.535615 39.683456 
L 17.589836 48.196334 
L 17.644056 39.198663 
L 17.698276 30.853647 
L 17.751031 39.930857 
L 17.803786 48.336402 
L 17.858006 39.361458 
L 17.910761 30.791661 
L 17.964981 39.707082 
L 18.019202 48.306035 
L 18.073422 39.395845 
L 18.127642 30.816391 
L 18.180397 39.731954 
L 18.233152 48.416651 
L 18.288838 39.286766 
L 18.341593 30.534721 
L 18.395813 39.985816 
L 18.448568 48.495024 
L 18.502788 39.384427 
L 18.557008 30.508677 
L 18.611229 39.908917 
L 18.663983 48.755219 
L 18.719669 39.164617 
L 18.770959 30.282805 
L 18.826644 39.936808 
L 18.879399 48.782973 
L 18.933619 39.329141 
L 18.984909 30.269513 
L 19.040595 39.764895 
L 19.09628 48.92969 
L 19.149035 39.292253 
L 19.203255 30.058811 
L 19.25601 39.717838 
L 19.308765 48.896514 
L 19.364451 39.480382 
L 19.418671 29.934205 
L 19.472891 40.137004 
L 19.522715 49.124315 
L 19.579867 39.134244 
L 19.631156 29.879604 
L 19.686842 39.951765 
L 19.739597 49.107132 
L 19.793817 39.572345 
L 19.846572 29.881273 
L 19.902257 39.817097 
L 19.955012 49.345789 
L 20.010698 39.1255 
L 20.063453 29.56787 
L 20.117673 39.975445 
L 20.168963 49.385369 
L 20.224648 39.255754 
L 20.278869 29.706623 
L 20.331624 39.769994 
L 20.382913 49.521983 
L 20.440064 39.351922 
L 20.494284 29.438434 
L 20.547039 39.754321 
L 20.599794 49.63095 
L 20.65548 39.286188 
L 20.7097 29.132217 
L 20.762455 39.961063 
L 20.816675 49.746687 
L 20.86943 39.431613 
L 20.92365 29.194758 
L 20.977871 40.018225 
L 21.02916 49.868312 
L 21.084846 39.592995 
L 21.137601 29.16455 
L 21.193286 39.887738 
L 21.247507 50.029171 
L 21.301727 39.02049 
L 21.351551 28.800997 
L 21.408702 40.117967 
L 21.459992 50.25817 
L 21.515677 39.050395 
L 21.566967 28.856041 
L 21.622652 39.785088 
L 21.675407 50.300707 
L 21.731093 39.367412 
L 21.785313 28.697211 
L 21.838068 39.906317 
L 21.892288 50.450769 
L 21.946509 39.064281 
L 21.999264 28.385111 
L 22.053484 40.06314 
L 22.104773 50.490306 
L 22.160459 39.294371 
L 22.213214 28.520149 
L 22.2689 40.143283 
L 22.32312 50.741678 
L 22.375875 39.464574 
L 22.430095 28.271549 
L 22.484315 40.16687 
L 22.53707 50.789183 
L 22.591291 39.12832 
L 22.645511 28.094742 
L 22.698266 39.937951 
L 22.749555 50.979681 
L 22.805241 39.512874 
L 22.857996 28.090224 
L 22.913681 39.956741 
L 22.964971 51.062445 
L 23.020657 39.562094 
L 23.073411 27.768582 
L 23.129097 40.063796 
L 23.183317 51.317429 
L 23.236072 39.348395 
L 23.288827 27.72482 
L 23.344513 40.168931 
L 23.397268 51.459612 
L 23.451488 39.410983 
L 23.504243 27.619385 
L 23.559929 40.184471 
L 23.612683 51.585313 
L 23.666904 39.314767 
L 23.719659 27.279083 
L 23.773879 39.888099 
L 23.828099 51.668416 
L 23.880854 39.525835 
L 23.935074 27.369939 
L 23.989295 39.993968 
L 24.043515 51.911577 
L 24.09627 39.526048 
L 24.15049 27.2094 
L 24.20471 40.027228 
L 24.258931 51.82027 
L 24.311685 39.433287 
L 24.36444 27.094429 
L 24.420126 40.2838 
L 24.471416 52.068472 
L 24.527101 39.215691 
L 24.578391 26.963101 
L 24.634076 39.886826 
L 24.686831 52.099286 
L 24.742517 39.075764 
L 24.793806 27.023671 
L 24.849492 40.020699 
L 24.902247 52.230339 
L 24.956467 39.392674 
L 25.009222 26.817011 
L 25.064908 40.248118 
L 25.116197 52.333576 
L 25.171883 39.104868 
L 25.224638 26.840902 
L 25.278858 39.765774 
L 25.331613 52.529489 
L 25.387299 39.220656 
L 25.440054 26.598801 
L 25.494274 39.996438 
L 25.548494 52.528819 
L 25.601249 39.545768 
L 25.654004 26.473495 
L 25.70969 40.135895 
L 25.76391 52.703527 
L 25.816665 39.31501 
L 25.86942 26.409885 
L 25.925105 40.224686 
L 25.979326 52.852694 
L 26.03208 39.454363 
L 26.084835 26.321915 
L 26.140521 40.266172 
L 26.19181 52.917767 
L 26.247496 39.198889 
L 26.301716 26.155707 
L 26.354471 39.767667 
L 26.407226 53.188713 
L 26.462912 39.093735 
L 26.514201 26.13773 
L 26.569887 39.810639 
L 26.624107 53.271198 
L 26.678328 39.174387 
L 26.731083 25.861234 
L 26.785303 39.962721 
L 26.838058 53.553097 
L 26.893743 38.895799 
L 26.946498 25.720687 
L 27.000719 40.092971 
L 27.054939 53.629274 
L 27.107694 39.547139 
L 27.161914 25.598358 
L 27.216134 40.20876 
L 27.268889 53.988137 
L 27.323109 39.381305 
L 27.37733 25.35567 
L 27.43155 40.20885 
L 27.482839 53.984693 
L 27.538525 39.292974 
L 27.59128 25.243796 
L 27.646966 40.389379 
L 27.699721 54.28149 
L 27.753941 39.072901 
L 27.80523 25.278917 
L 27.860916 39.809638 
L 27.915136 54.19509 
L 27.969357 39.172809 
L 28.020646 24.951214 
L 28.076332 40.07116 
L 28.129087 54.450927 
L 28.183307 39.329858 
L 28.236062 24.919319 
L 28.291747 40.155116 
L 28.344502 54.529772 
L 28.398723 39.473749 
L 28.451477 24.710549 
L 28.507163 40.315331 
L 28.559918 54.791741 
L 28.614138 39.284135 
L 28.666893 24.587166 
L 28.722579 40.239241 
L 28.775334 54.775756 
L 28.829554 39.266571 
L 28.882309 24.410106 
L 28.936529 39.849718 
L 28.99075 54.961439 
L 29.04497 39.12286 
L 29.097725 24.459447 
L 29.151945 39.773469 
L 29.2047 55.070109 
L 29.260386 39.003468 
L 29.31314 24.172585 
L 29.367361 40.069932 
L 29.421581 55.138566 
L 29.474336 39.531357 
L 29.528556 24.050939 
L 29.582776 40.109211 
L 29.635531 55.475685 
L 29.689752 39.425663 
L 29.742506 23.928635 
L 29.798192 40.251287 
L 29.852412 55.578739 
L 29.905167 39.374677 
L 29.957922 23.740063 
L 30.013608 40.36818 
L 30.066363 55.713321 
L 30.120583 39.114449 
L 30.173338 23.593786 
L 30.227558 39.787389 
L 30.280313 55.860262 
L 30.335999 39.204742 
L 30.388754 23.535937 
L 30.442974 39.813164 
L 30.495729 55.918472 
L 30.551414 39.043328 
L 30.604169 23.346415 
L 30.65839 39.93904 
L 30.711144 55.931095 
L 30.76683 39.018051 
L 30.819585 23.27029 
L 30.873805 40.093632 
L 30.92656 56.20375 
L 30.980781 39.519621 
L 31.035001 23.09348 
L 31.089221 40.180277 
L 31.141976 56.262989 
L 31.196196 39.48249 
L 31.250417 23.006561 
L 31.304637 40.391629 
L 31.357392 56.423794 
L 31.411612 39.104024 
L 31.464367 22.854661 
L 31.518587 39.707546 
L 31.571342 56.511841 
L 31.627028 39.262654 
L 31.679783 22.757712 
L 31.734003 39.898041 
L 31.786758 56.558872 
L 31.842443 38.970396 
L 31.893733 22.575811 
L 31.949419 40.00537 
L 32.002173 56.682849 
L 32.057859 38.876013 
L 32.109149 22.472364 
L 32.164834 40.212802 
L 32.217589 56.857785 
L 32.271809 39.443877 
L 32.324564 22.246467 
L 32.38025 40.229248 
L 32.433005 56.975637 
L 32.487225 39.416305 
L 32.541445 22.06743 
L 32.595666 40.433943 
L 32.646955 57.101143 
L 32.702641 39.220011 
L 32.756861 21.931116 
L 32.809616 39.763033 
L 32.863836 57.253145 
L 32.918057 39.115021 
L 32.972277 21.796286 
L 33.025032 39.914618 
L 33.077787 57.406588 
L 33.133472 39.036345 
L 33.186227 21.601199 
L 33.240448 39.95235 
L 33.293202 57.477797 
L 33.348888 38.877158 
L 33.401643 21.501883 
L 33.455863 40.101291 
L 33.508618 57.739685 
L 33.564304 38.898123 
L 33.617059 21.386963 
L 33.671279 40.123906 
L 33.724034 57.757124 
L 33.77972 38.762398 
L 33.831009 21.226989 
L 33.886695 40.232394 
L 33.937984 57.819243 
L 33.99367 39.407979 
L 34.04789 21.158632 
L 34.10211 40.273323 
L 34.154865 58.015019 
L 34.209086 39.382824 
L 34.263306 21.055815 
L 34.317526 40.36784 
L 34.368816 58.109343 
L 34.424501 39.43889 
L 34.477256 20.785207 
L 34.532942 40.381665 
L 34.585697 58.238031 
L 34.639917 39.247066 
L 34.692672 20.743546 
L 34.748358 40.474188 
L 34.799647 58.449108 
L 34.855333 39.251217 
L 34.908088 20.626119 
L 34.963773 40.585182 
L 35.016528 58.572101 
L 35.070748 39.150519 
L 35.123503 20.420632 
L 35.177724 39.874693 
L 35.230478 58.631317 
L 35.286164 38.825502 
L 35.338919 20.418066 
L 35.393139 40.058436 
L 35.445894 58.722163 
L 35.50158 38.863764 
L 35.554335 20.49097 
L 35.608555 40.290963 
L 35.662775 58.618295 
L 35.71553 39.427002 
L 35.769751 20.309642 
L 35.823971 40.391239 
L 35.876726 58.818954 
L 35.930946 39.291336 
L 35.983701 20.263906 
L 36.039387 40.471244 
L 36.092141 58.937807 
L 36.146362 39.34331 
L 36.199117 20.140686 
L 36.254802 40.52105 
L 36.307557 58.935338 
L 36.361777 39.103646 
L 36.414532 20.03377 
L 36.468753 39.827945 
L 36.522973 59.044033 
L 36.577193 38.92353 
L 36.629948 19.989113 
L 36.684168 39.92655 
L 36.738389 59.194789 
L 36.792609 39.021115 
L 36.845364 19.797312 
L 36.899584 40.127259 
L 36.952339 59.183253 
L 37.008025 38.738753 
L 37.060779 19.755137 
L 37.115 40.2761 
L 37.167755 59.382385 
L 37.221975 39.421761 
L 37.27473 19.740058 
L 37.330415 40.529185 
L 37.38317 59.353039 
L 37.437391 39.214264 
L 37.490145 19.505164 
L 37.545831 40.606534 
L 37.597121 59.408471 
L 37.652806 38.868181 
L 37.705561 19.514625 
L 37.759782 39.823422 
L 37.812536 59.545433 
L 37.868222 38.937794 
L 37.920977 19.539816 
L 37.975197 40.065894 
L 38.029418 59.518265 
L 38.083638 38.861032 
L 38.134927 19.359675 
L 38.190613 40.080479 
L 38.243368 59.591399 
L 38.299054 38.796936 
L 38.351808 19.342479 
L 38.406029 40.268296 
L 38.458784 59.742723 
L 38.514469 38.699434 
L 38.567224 19.240287 
L 38.621444 40.286997 
L 38.674199 59.766244 
L 38.72842 39.371341 
L 38.78264 19.103662 
L 38.83686 40.49386 
L 38.889615 59.8425 
L 38.943835 39.118614 
L 38.99659 19.180483 
L 39.052276 40.525763 
L 39.105031 59.903628 
L 39.159251 39.173145 
L 39.212006 19.052462 
L 39.266226 39.964125 
L 39.318981 59.88168 
L 39.374667 38.958326 
L 39.427422 18.990979 
L 39.481642 39.92634 
L 39.534397 59.995738 
L 39.590082 38.788237 
L 39.641372 18.970045 
L 39.697058 40.199666 
L 39.749812 60.02864 
L 39.805498 38.792553 
L 39.856788 18.879303 
L 39.912473 40.199829 
L 39.965228 59.942068 
L 40.019449 39.277165 
L 40.073669 18.853017 
L 40.127889 40.358661 
L 40.179179 60.00736 
L 40.234864 39.267285 
L 40.287619 18.983325 
L 40.343305 40.672377 
L 40.39606 59.997138 
L 40.45028 39.047803 
L 40.503035 18.783813 
L 40.557255 39.903954 
L 40.611475 60.083456 
L 40.665696 38.865259 
L 40.718451 18.739859 
L 40.772671 39.968532 
L 40.826891 60.212724 
L 40.881111 38.862565 
L 40.933866 18.769663 
L 40.988087 40.170942 
L 41.040841 60.088569 
L 41.096527 38.846709 
L 41.149282 18.769614 
L 41.203502 40.228105 
L 41.256257 60.111551 
L 41.310477 39.324721 
L 41.364698 18.699585 
L 41.418918 40.382483 
L 41.471673 60.26986 
L 41.525893 39.417937 
L 41.578648 18.629878 
L 41.634334 40.508687 
L 41.685623 60.250436 
L 41.741309 39.076022 
L 41.792598 18.525487 
L 41.849749 40.605305 
L 41.901039 60.321276 
L 41.956725 39.00795 
L 42.009479 18.430203 
L 42.0637 40.001223 
L 42.11792 60.572702 
L 42.17214 39.01946 
L 42.224895 18.342806 
L 42.279115 40.117863 
L 42.33187 60.461644 
L 42.387556 38.701277 
L 42.440311 18.33463 
L 42.494531 40.295605 
L 42.547286 60.72921 
L 42.601506 39.42792 
L 42.654261 18.219648 
L 42.709947 40.389175 
L 42.762702 60.615314 
L 42.816922 39.481216 
L 42.871142 18.195121 
L 42.925363 40.55186 
L 42.978118 60.703292 
L 43.032338 39.130051 
L 43.085093 18.228472 
L 43.140778 40.521654 
L 43.193533 60.690746 
L 43.247754 39.079865 
L 43.300508 18.169201 
L 43.354729 39.935457 
L 43.408949 60.687483 
L 43.463169 39.115617 
L 43.515924 18.233839 
L 43.570144 39.920562 
L 43.624365 60.694601 
L 43.678585 38.803621 
L 43.73134 18.090845 
L 43.78556 40.007342 
L 43.83978 60.958961 
L 43.894001 38.87181 
L 43.946756 17.975021 
L 44.000976 40.213112 
L 44.053731 60.829782 
L 44.109416 38.663013 
L 44.162171 17.867752 
L 44.216392 40.307054 
L 44.269146 60.962682 
L 44.323367 39.266961 
L 44.377587 17.867424 
L 44.431807 40.454088 
L 44.484562 61.072566 
L 44.538782 39.246108 
L 44.591537 17.801929 
L 44.647223 40.660127 
L 44.699978 60.98865 
L 44.754198 39.14934 
L 44.806953 17.866424 
L 44.861173 39.878672 
L 44.913928 61.046135 
L 44.969614 38.811679 
L 45.022369 17.763581 
L 45.076589 39.993834 
L 45.129344 61.147994 
L 45.18503 38.7702 
L 45.237785 17.751769 
L 45.292005 40.240039 
L 45.34476 61.183114 
L 45.39898 39.501341 
L 45.451735 17.631236 
L 45.507421 40.203146 
L 45.560175 61.12595 
L 45.614396 39.318523 
L 45.667151 17.619309 
L 45.722836 40.468613 
L 45.775591 61.35687 
L 45.829811 39.364155 
L 45.882566 17.518657 
L 45.938252 40.62479 
L 45.991007 61.237954 
L 46.045227 39.032312 
L 46.097982 17.594202 
L 46.152202 39.84308 
L 46.204957 61.421857 
L 46.260643 38.94194 
L 46.313398 17.528891 
L 46.367618 40.176043 
L 46.420373 61.259234 
L 46.476059 38.798483 
L 46.528813 17.545709 
L 46.583034 40.242834 
L 46.635789 61.419367 
L 46.690009 39.39353 
L 46.744229 17.401654 
L 46.798449 40.310387 
L 46.85267 61.45449 
L 46.905425 39.264416 
L 46.95818 17.344162 
L 47.013865 40.549798 
L 47.06662 61.520453 
L 47.12084 39.350005 
L 47.175061 17.323414 
L 47.229281 40.616653 
L 47.28057 61.432956 
L 47.336256 38.998165 
L 47.389011 17.365987 
L 47.443231 39.801062 
L 47.495986 61.660021 
L 47.551672 39.088078 
L 47.604427 17.305687 
L 47.658647 40.067132 
L 47.711402 61.407332 
L 47.767088 38.791405 
L 47.819842 17.307726 
L 47.874063 40.056488 
L 47.926818 61.56807 
L 47.982503 38.586492 
L 48.035258 17.250332 
L 48.089478 40.251826 
L 48.143699 61.674019 
L 48.197919 38.550506 
L 48.249208 17.246697 
L 48.304894 40.420519 
L 48.357649 61.668315 
L 48.411869 39.370362 
L 48.464624 17.241953 
L 48.52031 40.497079 
L 48.573065 61.67496 
L 48.627285 39.109945 
L 48.68004 17.131108 
L 48.735726 40.62432 
L 48.78848 61.825933 
L 48.842701 39.158864 
L 48.895456 17.133589 
L 48.949676 39.940381 
L 49.003896 61.764437 
L 49.058116 38.890393 
L 49.110871 17.062491 
L 49.165092 39.845467 
L 49.217847 61.850389 
L 49.273532 38.711581 
L 49.326287 17.056226 
L 49.380507 40.194555 
L 49.433262 61.841326 
L 49.488948 38.633436 
L 49.541703 17.072765 
L 49.595923 40.351263 
L 49.648678 61.600194 
L 49.702898 39.141834 
L 49.755653 17.198989 
L 49.811339 40.538002 
L 49.862628 61.836059 
L 49.918314 39.192101 
L 49.971069 17.09546 
L 50.026755 40.734836 
L 50.079509 61.651781 
L 50.13373 39.138958 
L 50.186485 17.227109 
L 50.240705 39.815071 
L 50.294925 61.691281 
L 50.349145 38.961021 
L 50.4019 17.198447 
L 50.456121 39.895758 
L 50.508875 61.562358 
L 50.564561 38.708702 
L 50.617316 17.305912 
L 50.671536 40.199905 
L 50.724291 61.618317 
L 50.779977 38.562724 
L 50.831266 17.23894 
L 50.886952 40.468299 
L 50.939707 61.433608 
L 50.993927 39.068478 
L 51.046682 17.326487 
L 51.102368 40.675538 
L 51.155123 61.777292 
L 51.209343 39.203182 
L 51.262098 17.201105 
L 51.317783 40.790919 
L 51.370538 61.541046 
L 51.424759 38.994674 
L 51.477514 17.244022 
L 51.531734 39.969356 
L 51.584489 61.717517 
L 51.640174 38.808616 
L 51.692929 17.180341 
L 51.74715 40.132445 
L 51.799904 61.682082 
L 51.85559 38.755108 
L 51.90688 17.29275 
L 51.962565 40.325465 
L 52.013855 61.645448 
L 52.06954 39.44603 
L 52.122295 17.174033 
L 52.177981 40.431073 
L 52.230736 61.637707 
L 52.284956 39.203325 
L 52.339176 17.182945 
L 52.393397 40.588686 
L 52.446152 61.841691 
L 52.500372 39.246348 
L 52.554592 17.149168 
L 52.608812 40.802874 
L 52.661567 61.610754 
L 52.715788 38.913103 
L 52.770008 17.235873 
L 52.822763 39.857259 
L 52.875518 61.727716 
L 52.931203 38.789749 
L 52.983958 17.134047 
L 53.038178 40.109121 
L 53.090933 61.669271 
L 53.146619 38.760263 
L 53.197909 17.181189 
L 53.253594 40.110748 
L 53.306349 61.709371 
L 53.362035 38.5352 
L 53.41479 17.226929 
L 53.46901 40.320051 
L 53.521765 61.755826 
L 53.57745 38.501047 
L 53.62874 17.19509 
L 53.684426 40.453727 
L 53.735715 61.635433 
L 53.791401 39.39504 
L 53.844156 17.242537 
L 53.899841 40.54543 
L 53.952596 61.675432 
L 54.006817 39.240126 
L 54.059571 17.192199 
L 54.115257 40.546534 
L 54.168012 61.672664 
L 54.222232 39.151799 
L 54.274987 17.202888 
L 54.330673 40.703245 
L 54.383428 61.734842 
L 54.437648 39.026769 
L 54.490403 17.124045 
L 54.544623 39.813498 
L 54.598843 61.610456 
L 54.653064 38.675343 
L 54.705819 17.202817 
L 54.760039 40.021603 
L 54.812794 61.864524 
L 54.868479 38.780956 
L 54.921234 17.084306 
L 54.975455 40.194472 
L 55.028209 61.719325 
L 55.083895 38.591293 
L 55.13665 17.189923 
L 55.19087 40.266687 
L 55.243625 61.823209 
L 55.299311 38.642102 
L 55.352066 17.04441 
L 55.406286 40.423613 
L 55.459041 61.785718 
L 55.513261 39.324113 
L 55.566016 17.208929 
L 55.621702 40.462217 
L 55.674457 61.741172 
L 55.728677 39.234638 
L 55.781432 16.99726 
L 55.837117 40.795093 
L 55.888407 61.795474 
L 55.944093 38.805984 
L 55.996848 17.179525 
L 56.051068 39.838057 
L 56.103823 61.807774 
L 56.159508 38.795209 
L 56.212263 17.028111 
L 56.266484 40.318091 
L 56.319238 61.738807 
L 56.373459 39.491263 
L 56.427679 17.208759 
L 56.481899 40.227156 
L 56.534654 61.681248 
L 56.59034 38.493148 
L 56.641629 17.116159 
L 56.697315 40.653907 
L 56.75007 61.773001 
L 56.80429 39.320282 
L 56.857045 17.27527 
L 56.912731 40.480227 
L 56.965486 61.622118 
L 57.019706 38.989726 
L 57.072461 17.204388 
L 57.126681 39.844901 
L 57.179436 61.617618 
L 57.235122 38.877388 
L 57.287876 17.293668 
L 57.342097 39.967714 
L 57.394852 61.512802 
L 57.450537 38.751685 
L 57.501827 17.303864 
L 57.557512 40.391992 
L 57.610267 61.573133 
L 57.664488 39.532186 
L 57.717243 17.317124 
L 57.772928 40.343346 
L 57.825683 61.577836 
L 57.879903 39.242135 
L 57.934124 17.256997 
L 57.988344 40.67581 
L 58.041099 61.703061 
L 58.095319 39.28622 
L 58.148074 17.258767 
L 58.20376 40.701159 
L 58.256515 61.550021 
L 58.310735 38.714783 
L 58.36349 17.307058 
L 58.41771 39.840592 
L 58.47193 61.66192 
L 58.526151 38.860267 
L 58.578905 17.198105 
L 58.633126 40.114793 
L 58.685881 61.547233 
L 58.741566 38.728087 
L 58.794321 17.311097 
L 58.848541 40.176046 
L 58.901296 61.493073 
L 58.956982 38.713686 
L 59.008271 17.227214 
L 59.063957 40.442474 
L 59.116712 61.709498 
L 59.170932 39.312492 
L 59.223687 17.330969 
L 59.279373 40.580722 
L 59.332128 61.489833 
L 59.386348 39.185105 
L 59.439103 17.281486 
L 59.494789 40.7737 
L 59.546078 61.618156 
L 59.601764 38.801535 
L 59.654519 17.427384 
L 59.708739 39.783206 
L 59.761494 61.444694 
L 59.817179 38.911643 
L 59.869934 17.362532 
L 59.924155 40.245887 
L 59.97691 61.458521 
L 60.032595 38.713203 
L 60.08535 17.492067 
L 60.13957 40.176897 
L 60.192325 61.297413 
L 60.248011 38.571535 
L 60.300766 17.390467 
L 60.354986 40.474586 
L 60.407741 61.606494 
L 60.461961 39.457173 
L 60.516182 17.394109 
L 60.570402 40.444964 
L 60.621691 61.363863 
L 60.677377 39.08516 
L 60.730132 17.342282 
L 60.785818 40.663623 
L 60.838572 61.647251 
L 60.892793 39.174461 
L 60.945548 17.283363 
L 61.001233 40.683261 
L 61.053988 61.471002 
L 61.108208 39.001859 
L 61.160963 17.31104 
L 61.215184 40.065765 
L 61.267938 61.607428 
L 61.323624 38.928767 
L 61.376379 17.356195 
L 61.430599 40.14158 
L 61.483354 61.425143 
L 61.53904 38.48831 
L 61.591795 17.378882 
L 61.646015 40.406975 
L 61.69877 61.525377 
L 61.75299 39.461147 
L 61.80721 17.379207 
L 61.861431 40.482952 
L 61.914186 61.431192 
L 61.968406 38.919283 
L 62.021161 17.462287 
L 62.075381 39.550895 
L 62.129601 61.4251 
L 62.183822 39.022996 
L 62.236577 17.285031 
L 62.290797 39.96827 
L 62.345017 61.474542 
L 62.399237 38.754624 
L 62.451992 17.447816 
L 62.506213 39.927579 
L 62.560433 61.31594 
L 62.614653 38.86512 
L 62.667408 17.351485 
L 62.721628 40.234521 
L 62.774383 61.51285 
L 62.830069 38.573716 
L 62.881358 17.549886 
L 62.937044 40.317594 
L 62.989799 61.218438 
L 63.044019 39.387027 
L 63.098239 17.371214 
L 63.15246 40.62705 
L 63.205215 61.522122 
L 63.259435 39.027521 
L 63.31219 17.523579 
L 63.367875 40.626407 
L 63.42063 61.234702 
L 63.474851 38.974979 
L 63.527605 17.357526 
L 63.581826 40.120949 
L 63.634581 61.599455 
L 63.690266 38.870634 
L 63.743021 17.468398 
L 63.797241 39.938827 
L 63.851462 61.241258 
L 63.905682 38.707372 
L 63.958437 17.299319 
L 64.012657 40.323786 
L 64.065412 61.714757 
L 64.121098 38.764493 
L 64.173853 17.343371 
L 64.228073 40.242034 
L 64.280828 61.390635 
L 64.335048 39.262715 
L 64.387803 17.152374 
L 64.443489 40.538407 
L 64.496244 61.870658 
L 64.550464 39.238687 
L 64.603219 17.095231 
L 64.658904 40.528889 
L 64.710194 61.596027 
L 64.76588 39.048422 
L 64.818634 17.008491 
L 64.87432 40.736352 
L 64.927075 61.731662 
L 64.981295 39.080855 
L 65.03405 17.268466 
L 65.08827 39.986092 
L 65.142491 61.59203 
L 65.196711 38.657214 
L 65.249466 17.162849 
L 65.303686 40.153852 
L 65.356441 61.781809 
L 65.412127 38.906074 
L 65.463416 17.248686 
L 65.519102 40.169185 
L 65.571857 61.689578 
L 65.626077 39.269224 
L 65.678832 17.104847 
L 65.734518 40.203634 
L 65.787272 61.718537 
L 65.842958 38.548001 
L 65.895713 17.103603 
L 65.949933 40.475652 
L 66.002688 61.825034 
L 66.056908 39.246765 
L 66.109663 17.087324 
L 66.165349 40.595179 
L 66.218104 61.658515 
L 66.272324 39.220734 
L 66.325079 17.049443 
L 66.380765 40.813441 
L 66.43352 62.027913 
L 66.48774 39.057032 
L 66.540495 17.111156 
L 66.594715 39.86585 
L 66.648935 61.677357 
L 66.703156 38.924526 
L 66.75591 17.008061 
L 66.810131 40.112427 
L 66.862886 62.029736 
L 66.918571 38.578676 
L 66.969861 17.036883 
L 67.025547 39.951957 
L 67.079767 61.880259 
L 67.133987 38.634794 
L 67.186742 16.948838 
L 67.240962 40.400307 
L 67.293717 62.08608 
L 67.347937 39.581322 
L 67.402158 16.940394 
L 67.456378 40.308192 
L 67.507667 61.721945 
L 67.563353 39.185243 
L 67.616108 16.947738 
L 67.671794 40.672461 
L 67.724549 62.120842 
L 67.778769 39.35156 
L 67.831524 16.967715 
L 67.887209 40.830505 
L 67.938499 61.757371 
L 67.994185 38.766635 
L 68.046939 16.854107 
L 68.10116 40.035932 
L 68.15538 62.116915 
L 68.2096 38.671041 
L 68.262355 16.79401 
L 68.316575 40.162232 
L 68.36933 61.928592 
L 68.425016 38.455526 
L 68.476305 16.852546 
L 68.531991 40.410248 
L 68.584746 62.078465 
L 68.638966 39.446126 
L 68.691721 16.947986 
L 68.747407 40.5013 
L 68.800162 61.958304 
L 68.854382 39.056716 
L 68.908602 16.830122 
L 68.962823 40.650504 
L 69.015577 62.118771 
L 69.069798 39.358523 
L 69.122553 16.867362 
L 69.178238 40.883815 
L 69.229528 62.055408 
L 69.285214 38.768973 
L 69.336503 16.749386 
L 69.392189 39.717472 
L 69.444944 62.194634 
L 69.500629 38.86173 
L 69.553384 16.704127 
L 69.607604 40.216276 
L 69.660359 62.166169 
L 69.716045 38.682464 
L 69.767334 16.752781 
L 69.82302 40.11617 
L 69.87724 62.022904 
L 69.931461 38.416887 
L 69.984216 16.749063 
L 70.038436 40.489542 
L 70.091191 62.261858 
L 70.145411 39.428867 
L 70.199631 16.785116 
L 70.253852 40.536219 
L 70.305141 61.903613 
L 70.360827 39.211709 
L 70.413582 16.77103 
L 70.469267 40.803514 
L 70.522022 62.3036 
L 70.576242 39.097115 
L 70.628997 16.751868 
L 70.683218 39.692179 
L 70.735972 62.217129 
L 70.791658 38.879118 
L 70.844413 16.737981 
L 70.898633 40.176154 
L 70.952854 62.268912 
L 71.007074 38.753389 
L 71.058363 16.65996 
L 71.114049 40.061334 
L 71.166804 61.97279 
L 71.22249 38.309678 
L 71.273779 16.880137 
L 71.329465 40.334282 
L 71.38222 62.258079 
L 71.43644 39.611414 
L 71.49066 16.719218 
L 71.544881 40.490191 
L 71.59617 62.01681 
L 71.651856 39.067385 
L 71.704611 16.767714 
L 71.760296 40.484615 
L 71.813051 62.316741 
L 71.867271 39.385258 
L 71.921492 16.580854 
L 71.975712 40.753596 
L 72.028467 62.257682 
L 72.082687 39.07845 
L 72.135442 16.703773 
L 72.191128 40.674276 
L 72.243883 62.302409 
L 72.298103 39.117692 
L 72.352323 16.67922 
L 72.405078 39.868812 
L 72.459298 62.199755 
L 72.513519 38.661704 
L 72.566273 16.861008 
L 72.620494 40.039489 
L 72.674714 62.218787 
L 72.728934 38.83849 
L 72.781689 16.744059 
L 72.835909 40.406688 
L 72.89013 62.121653 
L 72.942885 39.360046 
L 72.995639 16.890664 
L 73.051325 40.183574 
L 73.10408 62.199019 
L 73.159766 38.415069 
L 73.212521 16.644399 
L 73.266741 40.678225 
L 73.319496 62.281723 
L 73.373716 39.31845 
L 73.426471 16.738047 
L 73.482157 40.510278 
L 73.534911 62.049547 
L 73.589132 38.896307 
L 73.641887 16.780956 
L 73.696107 39.880956 
L 73.748862 62.163247 
L 73.804548 38.968862 
L 73.857302 16.886153 
L 73.911523 39.938678 
L 73.964278 62.004893 
L 74.019963 38.838785 
L 74.072718 16.808513 
L 74.126938 40.205172 
L 74.181159 62.106259 
L 74.235379 38.804408 
L 74.288134 16.894747 
L 74.342354 40.186933 
L 74.395109 62.047289 
L 74.450795 38.558925 
L 74.50355 17.030273 
L 74.55777 40.477393 
L 74.610525 61.966893 
L 74.664745 39.426063 
L 74.718965 16.931123 
L 74.773186 40.488103 
L 74.82594 61.75062 
L 74.880161 38.906392 
L 74.932916 17.061343 
L 74.987136 39.675551 
L 75.041356 62.003516 
L 75.095576 39.126008 
L 75.148331 17.041418 
L 75.204017 40.924041 
L 75.256772 61.775301 
L 75.310992 38.746135 
L 75.363747 17.075036 
L 75.417967 40.029798 
L 75.472188 61.874976 
L 75.526408 38.81932 
L 75.579163 16.917969 
L 75.633383 40.334816 
L 75.687603 61.869374 
L 75.740358 39.429511 
L 75.793113 17.02996 
L 75.848799 40.404672 
L 75.901554 61.972811 
L 75.955774 39.42917 
L 76.008529 16.901994 
L 76.064215 40.539231 
L 76.116969 62.073482 
L 76.17119 39.047377 
L 76.223945 16.950362 
L 76.27963 40.636831 
L 76.332385 61.953961 
L 76.386605 39.15487 
L 76.43936 16.858135 
L 76.495046 40.930085 
L 76.547801 62.011483 
L 76.602021 38.776091 
L 76.654776 17.003943 
L 76.708996 39.771239 
L 76.763217 62.020385 
L 76.817437 38.818725 
L 76.870192 16.847762 
L 76.924412 40.311486 
L 76.977167 62.061271 
L 77.031387 39.734863 
L 77.084142 16.912982 
L 77.139828 40.198528 
L 77.192583 61.860615 
L 77.248268 38.426856 
L 77.299558 16.972544 
L 77.355243 40.513641 
L 77.409464 62.078565 
L 77.462219 39.354856 
L 77.516439 16.934497 
L 77.570659 40.682669 
L 77.623414 61.793488 
L 77.677634 39.069822 
L 77.730389 16.851024 
L 77.784609 39.832273 
L 77.83883 61.97688 
L 77.89305 38.943453 
L 77.945805 16.914517 
L 78.000025 39.981355 
L 78.05278 62.038075 
L 78.108466 38.785736 
L 78.162686 16.935336 
L 78.215441 40.233191 
L 78.268196 61.990639 
L 78.323882 38.753996 
L 78.376636 16.902152 
L 78.430857 40.264 
L 78.483612 61.912608 
L 78.537832 39.260959 
L 78.592052 17.003045 
L 78.646272 40.371593 
L 78.699027 62.047425 
L 78.753248 39.415252 
L 78.806002 16.96468 
L 78.861688 40.638859 
L 78.914443 61.917522 
L 78.968663 39.010941 
L 79.021418 16.863336 
L 79.075638 39.600385 
L 79.128393 61.887776 
L 79.184079 39.044152 
L 79.235368 16.834701 
L 79.291054 40.108162 
L 79.343809 62.064727 
L 79.399495 38.797954 
L 79.45225 17.030087 
L 79.50647 40.271811 
L 79.559225 61.908968 
L 79.61491 38.692573 
L 79.6662 16.922851 
L 79.721886 40.453837 
L 79.77464 62.111198 
L 79.828861 39.309877 
L 79.881616 16.932732 
L 79.937301 40.460138 
L 79.990056 61.889589 
L 80.044276 39.206141 
L 80.097031 16.918578 
L 80.152717 40.782324 
L 80.205472 62.08093 
L 80.259692 38.900409 
L 80.312447 17.002849 
L 80.366667 39.68581 
L 80.419422 61.90967 
L 80.475108 38.855429 
L 80.527863 16.832298 
L 80.582083 40.192227 
L 80.636303 62.100703 
L 80.690524 38.905116 
L 80.743279 16.902691 
L 80.797499 40.115025 
L 80.850254 61.907873 
L 80.905939 38.555376 
L 80.957229 16.924236 
L 81.012915 40.291729 
L 81.065669 62.263134 
L 81.121355 38.730655 
L 81.172645 16.782297 
L 81.22833 40.394477 
L 81.27962 61.887664 
L 81.335305 39.215085 
L 81.38806 16.762844 
L 81.443746 40.464011 
L 81.495035 62.137532 
L 81.550721 39.125085 
L 81.603476 16.731284 
L 81.659162 40.639326 
L 81.711917 62.219216 
L 81.766137 39.024257 
L 81.818892 16.767705 
L 81.874577 40.81539 
L 81.925867 62.125503 
L 81.981553 39.07836 
L 82.034307 16.827668 
L 82.088528 40.07543 
L 82.144213 62.067796 
L 82.196968 38.717457 
L 82.248258 16.805706 
L 82.303943 40.130816 
L 82.356698 62.182344 
L 82.412384 38.774854 
L 82.465139 16.834275 
L 82.519359 40.424021 
L 82.572114 62.147641 
L 82.626334 39.31751 
L 82.679089 16.697596 
L 82.734775 40.199362 
L 82.78753 62.139086 
L 82.843216 38.296118 
L 82.894505 16.741352 
L 82.950191 40.616545 
L 83.002946 62.186117 
L 83.057166 39.242089 
L 83.109921 16.738861 
L 83.165606 40.710831 
L 83.218361 61.993606 
L 83.272582 38.922497 
L 83.325336 16.93024 
L 83.379557 40.115364 
L 83.432312 62.155693 
L 83.487997 38.90656 
L 83.540752 16.827211 
L 83.594972 40.034447 
L 83.649193 61.878353 
L 83.703413 38.900569 
L 83.754702 16.9319 
L 83.810388 40.168211 
L 83.864608 62.1605 
L 83.918829 38.734543 
L 83.971584 16.828378 
L 84.025804 40.018622 
L 84.080024 61.979353 
L 84.134244 38.470348 
L 84.186999 16.79757 
L 84.24122 40.331862 
L 84.293974 62.220557 
L 84.348195 39.567942 
L 84.40095 16.752436 
L 84.456635 40.441626 
L 84.50939 61.93274 
L 84.56361 39.108233 
L 84.616365 16.830419 
L 84.672051 40.641966 
L 84.724806 62.325991 
L 84.779026 39.347101 
L 84.830316 16.777944 
L 84.887467 40.819149 
L 84.940222 61.970452 
L 84.994442 38.843664 
L 85.048662 16.783065 
L 85.101417 39.952874 
L 85.155637 62.204429 
L 85.209858 38.687573 
L 85.262613 16.748062 
L 85.316833 40.16205 
L 85.369588 61.993883 
L 85.425273 38.491143 
L 85.476563 16.903394 
L 85.532249 40.25998 
L 85.586469 62.103067 
L 85.640689 38.574202 
L 85.691979 16.903433 
L 85.747664 40.498183 
L 85.798954 61.982772 
L 85.854639 39.217866 
L 85.907394 16.841802 
L 85.96308 40.657805 
L 86.015835 62.296375 
L 86.070055 39.397171 
L 86.12281 16.819351 
L 86.178496 40.734619 
L 86.231251 62.103527 
L 86.285471 39.093271 
L 86.338226 16.808959 
L 86.393911 40.658631 
L 86.446666 62.134503 
L 86.500887 38.89367 
L 86.553641 16.712368 
L 86.607862 40.042169 
L 86.660617 62.223332 
L 86.716302 38.853761 
L 86.769057 16.642942 
L 86.823277 40.110367 
L 86.876032 62.113895 
L 86.931718 38.592191 
L 86.984473 16.774154 
L 87.038693 40.318319 
L 87.092913 62.219518 
L 87.145668 39.47517 
L 87.199889 16.754813 
L 87.254109 40.488854 
L 87.306864 62.013836 
L 87.361084 39.378388 
L 87.413839 16.801423 
L 87.469525 40.507796 
L 87.52228 62.242967 
L 87.5765 39.323993 
L 87.629255 16.760665 
L 87.68494 40.48979 
L 87.737695 62.120639 
L 87.791916 39.045323 
L 87.84467 16.849688 
L 87.898891 39.838625 
L 87.953111 62.131066 
L 88.007331 38.958084 
L 88.060086 16.72033 
L 88.114306 39.932766 
L 88.167061 61.909354 
L 88.222747 38.482611 
L 88.275502 16.906361 
L 88.329722 40.112006 
L 88.382477 62.196055 
L 88.438163 38.724865 
L 88.489452 16.8218 
L 88.545138 40.384348 
L 88.597893 61.980513 
L 88.652113 39.346524 
L 88.706333 16.792419 
L 88.760554 40.396494 
L 88.813308 62.194015 
L 88.867529 39.356371 
L 88.920284 16.747107 
L 88.975969 40.542259 
L 89.028724 62.133043 
L 89.082944 39.179286 
L 89.135699 16.939302 
L 89.191385 40.591593 
L 89.24414 62.164104 
L 89.29836 39.193199 
L 89.351115 16.801221 
L 89.406801 40.739972 
L 89.45809 62.043409 
L 89.513776 38.886035 
L 89.566531 16.83016 
L 89.620751 39.888256 
L 89.673506 62.16356 
L 89.729192 38.953866 
L 89.781947 16.822645 
L 89.836167 40.285223 
L 89.888922 62.147304 
L 89.943142 39.566379 
L 89.997362 16.744509 
L 90.051583 40.073417 
L 90.105803 62.21144 
L 90.160023 38.432636 
L 90.212778 16.651751 
L 90.266998 40.4973 
L 90.318288 62.209561 
L 90.373973 39.346752 
L 90.426728 16.740097 
L 90.482414 40.505513 
L 90.535169 62.156011 
L 90.589389 39.034698 
L 90.643609 16.744121 
L 90.69783 40.663323 
L 90.750585 62.306876 
L 90.804805 39.154587 
L 90.85756 16.688113 
L 90.913245 40.738376 
L 90.966 62.218962 
L 91.020221 39.098258 
L 91.072975 16.745875 
L 91.128661 40.902623 
L 91.181416 62.278397 
L 91.235636 39.002145 
L 91.286926 16.75338 
L 91.342611 39.959844 
L 91.395366 62.321669 
L 91.451052 38.782363 
L 91.502342 16.660858 
L 91.558027 40.186929 
L 91.610782 62.257797 
L 91.666468 38.585288 
L 91.719223 16.567626 
L 91.773443 40.217477 
L 91.826198 62.232924 
L 91.880418 39.178836 
L 91.933173 16.696964 
L 91.988859 40.397851 
L 92.041614 62.348878 
L 92.095834 39.300599 
L 92.148589 16.631271 
L 92.204274 40.648381 
L 92.257029 62.221067 
L 92.31125 39.164159 
L 92.364004 16.689721 
L 92.41969 40.66995 
L 92.47098 62.173187 
L 92.526665 39.192682 
L 92.580886 16.672763 
L 92.635106 40.878775 
L 92.686395 62.298614 
L 92.742081 39.085329 
L 92.794836 16.826742 
L 92.849056 39.973098 
L 92.901811 62.141925 
L 92.957497 38.898264 
L 93.010252 16.64584 
L 93.064472 40.040685 
L 93.117227 62.211703 
L 93.172912 38.553347 
L 93.225667 16.781614 
L 93.279888 40.130587 
L 93.332642 62.217145 
L 93.388328 38.686315 
L 93.441083 16.652773 
L 93.495303 40.433719 
L 93.548058 62.138258 
L 93.602278 39.285123 
L 93.655033 16.791119 
L 93.710719 40.437441 
L 93.763474 62.08786 
L 93.817694 39.165746 
L 93.871914 16.779303 
L 93.926135 40.784643 
L 93.97889 62.131328 
L 94.03311 39.201267 
L 94.085865 16.91657 
L 94.141551 40.792259 
L 94.194305 61.991215 
L 94.248526 38.879386 
L 94.301281 16.811568 
L 94.355501 39.944889 
L 94.409721 62.095989 
L 94.463941 38.727907 
L 94.516696 16.878038 
L 94.570917 40.145739 
L 94.623671 62.011959 
L 94.679357 38.695404 
L 94.732112 16.896217 
L 94.786332 40.388126 
L 94.839087 61.980288 
L 94.893307 39.332331 
L 94.946062 16.894486 
L 95.001748 40.439416 
L 95.054503 62.094849 
L 95.108723 39.236778 
L 95.161478 16.88428 
L 95.217164 40.666498 
L 95.269919 62.070324 
L 95.324139 39.198168 
L 95.376894 16.83554 
L 95.432579 40.733163 
L 95.485334 62.107956 
L 95.539555 38.770692 
L 95.592309 16.785299 
L 95.64653 39.852232 
L 95.699285 62.160495 
L 95.75497 38.809436 
L 95.807725 16.797707 
L 95.861945 40.009048 
L 95.9147 62.210839 
L 95.970386 38.660258 
L 96.023141 16.76613 
L 96.077361 40.094741 
L 96.130116 62.036249 
L 96.185802 38.64457 
L 96.237091 16.736246 
L 96.292777 40.453875 
L 96.345532 62.279501 
L 96.399752 39.412845 
L 96.452507 16.829134 
L 96.508193 40.55742 
L 96.560948 62.024995 
L 96.615168 39.226761 
L 96.667923 16.790346 
L 96.723608 40.683315 
L 96.776363 62.233155 
L 96.830584 38.929723 
L 96.883338 16.804708 
L 96.937559 39.803342 
L 96.991779 62.134599 
L 97.045999 38.891748 
L 97.097289 16.64969 
L 97.152974 39.970877 
L 97.205729 62.26794 
L 97.261415 38.679963 
L 97.312704 16.821847 
L 97.36839 39.973955 
L 97.421145 62.101797 
L 97.476831 38.766794 
L 97.529586 16.706186 
L 97.583806 40.326933 
L 97.638026 62.304593 
L 97.692246 38.775595 
L 97.743536 16.789861 
L 97.799222 40.328793 
L 97.851976 62.095929 
L 97.906197 39.458068 
L 97.960417 16.700132 
L 98.014637 40.481606 
L 98.067392 62.302558 
L 98.121612 39.350388 
L 98.174367 16.724407 
L 98.230053 40.580564 
L 98.282808 62.063342 
L 98.337028 39.117066 
L 98.391248 16.619235 
L 98.445469 40.719027 
L 98.498224 62.283566 
L 98.552444 38.976662 
L 98.605199 16.667329 
L 98.659419 39.743819 
L 98.713639 62.284295 
L 98.76786 38.95034 
L 98.82208 16.622543 
L 98.874835 39.914016 
L 98.929055 62.223477 
L 98.983275 38.987606 
L 99.03603 16.742196 
L 99.090251 40.100282 
L 99.143005 62.204849 
L 99.198691 38.677673 
L 99.251446 16.553212 
L 99.305666 40.25615 
L 99.358421 62.331243 
L 99.414107 38.684484 
L 99.466862 16.649971 
L 99.521082 40.357212 
L 99.573837 62.219815 
L 99.628057 39.28448 
L 99.682277 16.565071 
L 99.736498 40.449573 
L 99.789253 62.227793 
L 99.843473 39.149557 
L 99.896228 16.63621 
L 99.951913 40.639328 
L 100.004668 62.275187 
L 100.058889 39.109511 
L 100.113109 16.664731 
L 100.167329 40.822926 
L 100.220084 62.047834 
L 100.274304 38.915313 
L 100.327059 16.748686 
L 100.381279 40.037741 
L 100.434034 62.298667 
L 100.48972 38.849428 
L 100.542475 16.705339 
L 100.596695 40.031783 
L 100.64945 62.060056 
L 100.705136 38.823115 
L 100.757891 16.842417 
L 100.812111 40.165099 
L 100.864866 62.132483 
L 100.920551 38.552007 
L 100.973306 16.812158 
L 101.027527 40.331046 
L 101.078816 62.032602 
L 101.134502 39.295541 
L 101.187257 16.809453 
L 101.242942 40.469578 
L 101.295697 62.2566 
L 101.349918 39.393371 
L 101.404138 16.741705 
L 101.458358 40.731995 
L 101.511113 62.072169 
L 101.565333 39.057536 
L 101.619554 16.815943 
L 101.672308 39.885331 
L 101.725063 62.287388 
L 101.780749 39.049915 
L 101.833504 16.730373 
L 101.887724 40.076134 
L 101.941944 62.034793 
L 101.996165 38.784263 
L 102.04892 16.766772 
L 102.10314 40.092396 
L 102.155895 62.206504 
L 102.21158 38.461763 
L 102.26287 16.750671 
L 102.318556 40.243077 
L 102.37131 62.233224 
L 102.426996 38.406619 
L 102.479751 16.720226 
L 102.533971 40.412467 
L 102.588192 62.263757 
L 102.640946 39.473143 
L 102.695167 16.806378 
L 102.749387 40.571564 
L 102.800677 62.090271 
L 102.856362 39.198769 
L 102.909117 16.805791 
L 102.964803 40.671063 
L 103.016092 62.261448 
L 103.071778 39.165547 
L 103.124533 16.821129 
L 103.180218 40.798642 
L 103.232973 62.066074 
L 103.287194 38.991926 
L 103.339949 16.680969 
L 103.395634 40.823333 
L 103.446924 62.165869 
L 103.502609 38.736487 
L 103.555364 16.765512 
L 103.609585 39.988041 
L 103.662339 62.207301 
L 103.718025 38.793246 
L 103.77078 16.64428 
L 103.825 40.249018 
L 103.877755 62.114584 
L 103.933441 38.588268 
L 103.986196 16.785979 
L 104.040416 40.221722 
L 104.093171 62.20135 
L 104.148857 38.635255 
L 104.200146 16.708763 
L 104.255832 40.428534 
L 104.308587 62.136021 
L 104.362807 39.486602 
L 104.417027 16.765972 
L 104.471247 40.435742 
L 104.524002 62.213773 
L 104.578223 39.298553 
L 104.632443 16.651294 
L 104.686663 40.541306 
L 104.739418 62.174599 
L 104.793638 39.115645 
L 104.847859 16.793354 
L 104.902079 40.642299 
L 104.953368 62.195299 
L 105.009054 39.071033 
L 105.061809 16.747595 
L 105.116029 39.927864 
L 105.168784 61.969195 
L 105.22447 38.759576 
L 105.277225 16.889422 
L 105.331445 40.036128 
L 105.385665 62.234549 
L 105.439885 38.804737 
L 105.491175 16.815332 
L 105.546861 40.276154 
L 105.599616 61.995906 
L 105.653836 39.479447 
L 105.708056 16.858465 
L 105.762276 40.308588 
L 105.815031 62.14719 
L 105.869252 39.289368 
L 105.922006 16.807631 
L 105.977692 40.544374 
L 106.030447 62.09735 
L 106.084667 39.210661 
L 106.137422 16.965659 
L 106.193108 40.546096 
L 106.245863 62.113361 
L 106.300083 39.215866 
L 106.352838 16.854201 
L 106.407058 39.92301 
L 106.459813 61.979403 
L 106.515499 38.993436 
L 106.568254 16.923996 
L 106.622474 39.865224 
L 106.676694 62.206018 
L 106.730914 38.916577 
L 106.783669 16.890371 
L 106.83789 40.314945 
L 106.89211 62.042718 
L 106.944865 39.64804 
L 106.999085 16.844064 
L 107.053305 40.156927 
L 107.10606 62.12248 
L 107.16028 39.199468 
L 107.214501 16.860788 
L 107.268721 40.518901 
L 107.321476 61.913018 
L 107.375696 39.351844 
L 107.428451 16.837022 
L 107.484137 40.551421 
L 107.536892 61.925658 
L 107.591112 38.871081 
L 107.643867 17.001996 
L 107.698087 39.806874 
L 107.752307 61.974005 
L 107.806528 39.051347 
L 107.859283 16.897571 
L 107.913503 39.933721 
L 107.967723 62.011539 
L 108.021943 38.843054 
L 108.073233 17.007499 
L 108.128919 40.028238 
L 108.181673 61.93946 
L 108.237359 38.789519 
L 108.288649 16.802887 
L 108.344334 40.1352 
L 108.398555 62.023493 
L 108.452775 38.325402 
L 108.50553 16.923445 
L 108.55975 40.258833 
L 108.61397 62.052985 
L 108.666725 39.468046 
L 108.720945 16.740947 
L 108.775166 40.578569 
L 108.827921 61.971902 
L 108.882141 38.936843 
L 108.934896 16.976694 
L 108.990581 40.527845 
L 109.043336 62.064457 
L 109.097557 39.220744 
L 109.150311 16.775109 
L 109.205997 40.771456 
L 109.258752 61.952257 
L 109.312972 39.056358 
L 109.365727 17.136592 
L 109.419947 39.734925 
L 109.472702 61.867312 
L 109.528388 39.017157 
L 109.581143 16.75854 
L 109.635363 39.998724 
L 109.689583 62.078225 
L 109.743804 38.751005 
L 109.796559 17.001984 
L 109.850779 39.953852 
L 109.903534 61.854806 
L 109.959219 38.596274 
L 110.011974 16.846147 
L 110.066195 40.491641 
L 110.11895 61.879233 
L 110.17317 39.130108 
L 110.225925 17.01963 
L 110.28161 40.457913 
L 110.334365 61.980032 
L 110.388586 39.172662 
L 110.442806 16.909402 
L 110.497026 40.722013 
L 110.549781 61.957756 
L 110.604001 39.209608 
L 110.658222 17.107106 
L 110.712442 40.731464 
L 110.763731 61.888297 
L 110.819417 38.827548 
L 110.873637 16.91894 
L 110.926392 40.051655 
L 110.980612 61.865733 
L 111.034833 38.936911 
L 111.087588 17.041339 
L 111.141808 39.85014 
L 111.194563 61.97722 
L 111.250248 38.662905 
L 111.303003 16.936715 
L 111.357224 40.212013 
L 111.409978 61.881881 
L 111.465664 38.712972 
L 111.518419 16.871668 
L 111.572639 40.212497 
L 111.625394 62.150311 
L 111.679614 39.412828 
L 111.733835 16.981911 
L 111.788055 40.509529 
L 111.84081 61.936932 
L 111.89503 39.34861 
L 111.947785 17.022305 
L 112.003471 40.709989 
L 112.05476 62.061463 
L 112.110446 38.746383 
L 112.163201 17.015968 
L 112.217421 39.987208 
L 112.270176 61.83025 
L 112.32 42.651802 
" clip-path="url(#pb858feef92)" style="fill: none; stroke: #cc9900; stroke-width: 0.1; stroke-linecap: square"/>
   </g>
   <g id="patch_3">
    <path d="M 0.72 78.336 
L 0.72 0.72 
" style="fill: none; stroke: #cc9900; stroke-width: 0.5; stroke-linejoin: miter; stroke-linecap: square"/>
   </g>
   <g id="patch_4">
    <path d="M 112.32 78.336 
L 112.32 0.72 
" style="fill: none; stroke: #cc9900; stroke-width: 0.5; stroke-linejoin: miter; stroke-linecap: square"/>
   </g>
   <g id="patch_5">
    <path d="M 0.72 78.336 
L 112.32 78.336 
" style="fill: none; stroke: #cc9900; stroke-width: 0.5; stroke-linejoin: miter; stroke-linecap: square"/>
   </g>
   <g id="patch_6">
    <path d="M 0.72 0.72 
L 112.32 0.72 
" style="fill: none; stroke: #cc9900; stroke-width: 0.5; stroke-linejoin: miter; stroke-linecap: square"/>
   </g>
  </g>
 </g>
 <defs>
  <clipPath id="pb858feef92">
   <rect x="0.72" y="0.72" width="111.6" height="77.616"/>
  </clipPath>
 </defs>
</svg>
