<?xml version="1.0" encoding="utf-8" standalone="no"?>
<!DOCTYPE svg PUBLIC "-//W3C//DTD SVG 1.1//EN"
  "http://www.w3.org/Graphics/SVG/1.1/DTD/svg11.dtd">
<svg xmlns:xlink="http://www.w3.org/1999/xlink" width="113.04pt" height="79.056pt" viewBox="0 0 113.04 79.056" xmlns="http://www.w3.org/2000/svg" version="1.1">
 <metadata>
  <rdf:RDF xmlns:dc="http://purl.org/dc/elements/1.1/" xmlns:cc="http://creativecommons.org/ns#" xmlns:rdf="http://www.w3.org/1999/02/22-rdf-syntax-ns#">
   <cc:Work>
    <dc:type rdf:resource="http://purl.org/dc/dcmitype/StillImage"/>
    <dc:date>2024-12-25T19:59:03.578816</dc:date>
    <dc:format>image/svg+xml</dc:format>
    <dc:creator>
     <cc:Agent>
      <dc:title>Matplotlib v3.7.5, https://matplotlib.org/</dc:title>
     </cc:Agent>
    </dc:creator>
   </cc:Work>
  </rdf:RDF>
 </metadata>
 <defs>
  <style type="text/css">*{stroke-linejoin: round; stroke-linecap: butt}</style>
 </defs>
 <g id="figure_1">
  <g id="patch_1">
   <path d="M 0 79.056 
L 113.04 79.056 
L 113.04 0 
L 0 0 
z
" style="fill: #ffffff"/>
  </g>
  <g id="axes_1">
   <g id="patch_2">
    <path d="M 0.72 78.336 
L 112.32 78.336 
L 112.32 0.72 
L 0.72 0.72 
z
" style="fill: #ffffff"/>
   </g>
   <g id="matplotlib.axis_1"/>
   <g id="matplotlib.axis_2"/>
   <g id="line2d_1">
    <path d="M 0.72 37.297812 
L 0.810521 41.879981 
L 0.872522 38.508855 
L 0.901042 37.607016 
L 0.949403 39.844448 
L 0.990323 41.559156 
L 1.044884 38.956089 
L 1.080844 37.606742 
L 1.136645 40.241152 
L 1.175085 41.864392 
L 1.228406 39.06504 
L 1.268086 37.61055 
L 1.316447 40.375519 
L 1.358607 41.842791 
L 1.406968 39.224403 
L 1.446648 37.361819 
L 1.501209 40.499172 
L 1.530969 41.879967 
L 1.58925 39.048441 
L 1.62521 37.494464 
L 1.678531 40.503608 
L 1.713251 41.940913 
L 1.767812 39.021265 
L 1.811212 37.08923 
L 1.862053 40.331133 
L 1.898013 42.007022 
L 1.952574 38.935202 
L 1.984814 37.360967 
L 2.036895 39.926212 
L 2.079055 41.722862 
L 2.133616 38.985466 
L 2.168336 37.590078 
L 2.225377 40.30361 
L 2.262577 41.949485 
L 2.309698 39.442482 
L 2.350618 37.542036 
L 2.405179 40.394435 
L 2.439899 41.817262 
L 2.49818 39.094536 
L 2.5329 37.719373 
L 2.588701 40.422753 
L 2.622181 41.843873 
L 2.681702 38.693018 
L 2.717662 37.221246 
L 2.763543 40.168494 
L 2.804463 42.032578 
L 2.860264 38.943713 
L 2.894984 37.453685 
L 2.950785 40.405132 
L 2.990465 41.990747 
L 3.043786 38.534247 
L 3.074786 37.039411 
L 3.128107 40.206061 
L 3.165307 41.873108 
L 3.222348 38.826132 
L 3.258308 37.440957 
L 3.305429 40.001674 
L 3.346349 42.051706 
L 3.40215 38.883362 
L 3.43811 37.149849 
L 3.491431 40.372574 
L 3.529871 42.001512 
L 3.581952 39.281479 
L 3.617912 37.371932 
L 3.676193 40.542757 
L 3.710913 42.015741 
L 3.762994 39.023668 
L 3.805154 36.962348 
L 3.857235 40.472268 
L 3.893195 42.279316 
L 3.948996 38.952049 
L 3.982476 37.27377 
L 4.038277 40.381299 
L 4.074237 41.987685 
L 4.131278 38.67279 
L 4.162278 36.931579 
L 4.213119 39.822494 
L 4.256519 42.313503 
L 4.31232 38.623769 
L 4.3458 37.034559 
L 4.400361 40.50636 
L 4.438801 42.288449 
L 4.488402 39.222935 
L 4.529322 36.829685 
L 4.582643 40.688431 
L 4.616123 42.303471 
L 4.673164 38.759175 
L 4.705404 37.054122 
L 4.761205 40.576817 
L 4.795925 42.381307 
L 4.851726 38.894748 
L 4.890166 36.640103 
L 4.944727 40.669304 
L 4.976967 42.646011 
L 5.035248 38.754864 
L 5.069968 36.777303 
L 5.124529 40.446863 
L 5.162969 42.350374 
L 5.21381 38.947491 
L 5.25473 36.924001 
L 5.305571 40.448135 
L 5.340291 42.715391 
L 5.401052 38.368473 
L 5.434532 36.622227 
L 5.486613 40.394574 
L 5.526293 42.41346 
L 5.577134 39.056643 
L 5.614334 36.847615 
L 5.671375 40.820595 
L 5.706095 42.573352 
L 5.760656 38.760016 
L 5.795376 36.360566 
L 5.852417 40.840113 
L 5.883417 42.659348 
L 5.941698 38.836542 
L 5.977658 36.751254 
L 6.030979 40.469893 
L 6.073139 42.589259 
L 6.12026 38.914939 
L 6.1587 36.320385 
L 6.213261 40.563214 
L 6.246741 42.471449 
L 6.305022 38.64374 
L 6.339742 36.757862 
L 6.395543 40.799644 
L 6.430263 42.808138 
L 6.483584 38.779435 
L 6.518304 36.21114 
L 6.577825 40.780293 
L 6.612545 42.599117 
L 6.665866 38.889435 
L 6.703066 36.711097 
L 6.756387 40.665892 
L 6.789867 42.729415 
L 6.845668 39.012165 
L 6.884108 36.206 
L 6.937429 40.585901 
L 6.972149 42.850807 
L 7.03043 38.719798 
L 7.066391 36.621427 
L 7.119711 40.540945 
L 7.156912 42.695658 
L 7.210232 38.634229 
L 7.251153 36.025219 
L 7.300753 40.661476 
L 7.336714 43.020623 
L 7.388794 38.762896 
L 7.424754 36.303039 
L 7.481795 40.635169 
L 7.518996 43.014129 
L 7.572316 38.672447 
L 7.610757 35.962013 
L 7.664077 40.923432 
L 7.700038 43.046229 
L 7.755838 38.270069 
L 7.790559 36.277641 
L 7.841399 40.465963 
L 7.87984 43.071456 
L 7.9344 38.758125 
L 7.971601 36.07667 
L 8.023681 40.619876 
L 8.063362 43.253373 
L 8.117922 38.475066 
L 8.150163 36.242504 
L 8.208443 40.812067 
L 8.243164 43.009726 
L 8.298964 38.482481 
L 8.334925 35.985239 
L 8.389485 40.946256 
L 8.425446 43.454962 
L 8.478766 38.48876 
L 8.514727 35.716352 
L 8.571767 40.896074 
L 8.606488 43.13997 
L 8.661048 38.685506 
L 8.697009 36.077732 
L 8.752809 41.149141 
L 8.78753 43.225115 
L 8.84209 38.428945 
L 8.876811 35.582764 
L 8.932611 40.802601 
L 8.968572 43.33823 
L 9.023132 38.71474 
L 9.061573 35.973345 
L 9.114893 41.092728 
L 9.149614 43.302123 
L 9.201694 38.771875 
L 9.241375 35.629262 
L 9.295935 40.88147 
L 9.331896 43.345128 
L 9.386456 38.405114 
L 9.421177 35.9686 
L 9.476977 40.957207 
L 9.514178 43.537221 
L 9.567498 38.312021 
L 9.603459 35.502253 
L 9.658019 40.841684 
L 9.6915 43.359249 
L 9.74854 38.560328 
L 9.783261 36.045775 
L 9.837821 40.808718 
L 9.873782 43.395097 
L 9.929582 38.637867 
L 9.968023 35.476024 
L 10.022583 41.073001 
L 10.058544 43.533076 
L 10.111864 38.532232 
L 10.146585 35.973793 
L 10.201145 40.692071 
L 10.235866 43.215273 
L 10.292906 38.482837 
L 10.327627 35.419125 
L 10.384667 41.006291 
L 10.419388 43.666452 
L 10.473948 38.310503 
L 10.509909 35.589818 
L 10.563229 40.565255 
L 10.60291 43.581023 
L 10.65623 38.496872 
L 10.694671 35.399512 
L 10.747991 41.097774 
L 10.783952 43.628321 
L 10.837272 38.257305 
L 10.873233 35.559553 
L 10.927793 40.91148 
L 10.963754 43.761569 
L 11.017074 38.760943 
L 11.057995 35.287383 
L 11.111315 41.303539 
L 11.146036 43.860976 
L 11.199356 38.489361 
L 11.237797 35.497464 
L 11.289877 40.799812 
L 11.329558 43.780236 
L 11.381638 38.428399 
L 11.421319 35.173315 
L 11.470919 40.883264 
L 11.50936 44.068983 
L 11.56392 38.145873 
L 11.599881 35.112717 
L 11.655682 41.099678 
L 11.689162 43.926028 
L 11.744962 38.377954 
L 11.782163 35.17916 
L 11.835484 41.160058 
L 11.872684 43.922807 
L 11.926005 38.256781 
L 11.964445 35.064951 
L 12.019006 41.103593 
L 12.054966 44.028922 
L 12.109527 38.282477 
L 12.145487 35.0981 
L 12.200048 41.227681 
L 12.234768 43.879762 
L 12.288089 38.625692 
L 12.327769 35.191159 
L 12.37985 40.864923 
L 12.41705 44.113397 
L 12.470371 38.285953 
L 12.508811 34.922804 
L 12.559652 40.934762 
L 12.599332 44.219952 
L 12.652653 38.304134 
L 12.687373 35.008754 
L 12.744414 41.134079 
L 12.777894 44.08854 
L 12.834935 38.050982 
L 12.869655 35.02401 
L 12.924216 41.267416 
L 12.958936 44.208307 
L 13.014737 38.311912 
L 13.048217 34.95418 
L 13.105258 40.974626 
L 13.141218 44.175768 
L 13.197019 38.235463 
L 13.234219 35.051265 
L 13.2863 41.088236 
L 13.32598 44.006496 
L 13.378061 38.228047 
L 13.415261 34.800434 
L 13.469822 41.354228 
L 13.504542 44.359529 
L 13.556623 38.541585 
L 13.593823 34.755119 
L 13.649624 41.074168 
L 13.686824 44.31211 
L 13.740145 38.320842 
L 13.778585 34.742881 
L 13.831906 41.191268 
L 13.869106 44.416988 
L 13.922427 38.03949 
L 13.960867 34.647996 
L 14.014188 41.266599 
L 14.050148 44.583514 
L 14.105949 38.024881 
L 14.140669 34.566817 
L 14.19647 41.361021 
L 14.23243 44.546981 
L 14.284511 38.416803 
L 14.321711 34.632726 
L 14.377512 41.32821 
L 14.412232 44.549614 
L 14.468033 38.192921 
L 14.502753 34.316812 
L 14.558554 41.368778 
L 14.595754 44.81168 
L 14.649075 38.035504 
L 14.687515 34.377916 
L 14.739596 41.103732 
L 14.778036 44.676337 
L 14.830117 38.144683 
L 14.866077 34.314508 
L 14.921878 41.467003 
L 14.956598 44.691576 
L 15.011159 38.070588 
L 15.048359 34.376183 
L 15.10168 40.971235 
L 15.14012 44.819544 
L 15.194681 37.918169 
L 15.229401 34.16428 
L 15.285202 41.387096 
L 15.322402 44.555509 
L 15.373243 38.441727 
L 15.411683 34.400969 
L 15.466244 41.348888 
L 15.500964 44.924169 
L 15.555525 38.2003 
L 15.593965 34.221452 
L 15.647286 41.445992 
L 15.683246 44.988992 
L 15.736567 38.377252 
L 15.777487 34.231456 
L 15.828328 41.071916 
L 15.865528 44.966335 
L 15.921329 37.550998 
L 15.957289 33.929613 
L 16.01061 41.642498 
L 16.04657 45.25382 
L 16.101131 37.960186 
L 16.137091 34.16023 
L 16.191652 41.301083 
L 16.226372 45.065945 
L 16.282173 37.995692 
L 16.320613 33.91678 
L 16.373934 41.692154 
L 16.409894 44.850904 
L 16.463215 38.098172 
L 16.499175 33.977121 
L 16.554976 41.570247 
L 16.592176 45.267508 
L 16.644257 38.039095 
L 16.681457 33.755901 
L 16.734778 41.324032 
L 16.771978 45.052442 
L 16.824059 38.406372 
L 16.861259 33.829645 
L 16.9183 41.633163 
L 16.95426 45.247794 
L 17.006341 38.023077 
L 17.044781 33.738597 
L 17.098102 41.37457 
L 17.134062 45.495894 
L 17.189863 37.841724 
L 17.225823 33.661232 
L 17.281624 41.609802 
L 17.318824 45.290772 
L 17.370905 38.01434 
L 17.408105 33.650556 
L 17.462666 41.66953 
L 17.498626 45.418444 
L 17.553187 37.869405 
L 17.589147 33.507807 
L 17.644948 41.787228 
L 17.679668 45.510158 
L 17.732989 38.231671 
L 17.771429 33.618511 
L 17.82599 41.63576 
L 17.86071 45.297444 
L 17.914031 38.232889 
L 17.951231 33.471595 
L 18.007032 41.675243 
L 18.042992 45.566455 
L 18.096313 37.970991 
L 18.133513 33.413828 
L 18.188074 41.427339 
L 18.224034 45.773886 
L 18.279835 37.568726 
L 18.314555 33.254267 
L 18.371596 41.846145 
L 18.406317 45.37538 
L 18.459637 37.945037 
L 18.496838 33.344961 
L 18.551398 41.528885 
L 18.588599 45.906505 
L 18.641919 37.678008 
L 18.67788 33.102816 
L 18.73368 41.765947 
L 18.768401 45.703835 
L 18.822961 38.060864 
L 18.860162 33.248703 
L 18.914722 41.633379 
L 18.948203 45.73392 
L 19.004003 37.85603 
L 19.042444 33.016529 
L 19.097004 42.00286 
L 19.131725 45.928518 
L 19.186285 37.913462 
L 19.224726 33.217197 
L 19.279286 41.869882 
L 19.312767 45.959681 
L 19.367327 37.922171 
L 19.407008 33.017534 
L 19.460328 42.016963 
L 19.495049 45.662582 
L 19.548369 38.120313 
L 19.58681 33.254475 
L 19.64261 41.970338 
L 19.676091 46.081503 
L 19.731891 37.644918 
L 19.769092 32.823251 
L 19.824892 42.076974 
L 19.860853 45.785058 
L 19.911693 38.143407 
L 19.948894 33.116209 
L 20.004694 41.681521 
L 20.040655 46.027409 
L 20.095215 37.529674 
L 20.133656 32.894765 
L 20.186976 41.963713 
L 20.221697 46.118543 
L 20.276257 37.893842 
L 20.313458 32.964721 
L 20.369258 41.901639 
L 20.403979 46.03121 
L 20.457299 37.915292 
L 20.49822 32.848572 
L 20.54906 41.64436 
L 20.586261 46.167103 
L 20.640821 37.587102 
L 20.678022 32.902387 
L 20.731342 41.669414 
L 20.767303 46.165543 
L 20.821863 37.825326 
L 20.860304 32.770943 
L 20.914864 42.14877 
L 20.948345 46.166486 
L 21.002905 37.7525 
L 21.040106 32.785769 
L 21.094666 41.883324 
L 21.130627 46.30081 
L 21.185187 37.597768 
L 21.221148 32.635646 
L 21.276948 42.046723 
L 21.312909 46.563772 
L 21.366229 37.530282 
L 21.40219 32.530136 
L 21.45923 42.123853 
L 21.495191 46.301023 
L 21.547271 37.830803 
L 21.584472 32.578214 
L 21.639032 41.821824 
L 21.677473 46.730995 
L 21.729553 37.504427 
L 21.766754 32.445091 
L 21.821314 41.924712 
L 21.857275 46.518448 
L 21.910595 38.032172 
L 21.949036 32.482334 
L 22.003596 42.048429 
L 22.038317 46.661353 
L 22.092877 37.570417 
L 22.130078 32.220754 
L 22.187119 42.556725 
L 22.220599 46.714461 
L 22.272679 38.205698 
L 22.31236 32.339824 
L 22.366921 42.030082 
L 22.402881 46.933455 
L 22.457442 37.197737 
L 22.493402 32.004157 
L 22.547963 42.010318 
L 22.583923 46.832805 
L 22.638484 37.569707 
L 22.675684 32.280673 
L 22.730245 42.090019 
L 22.766205 47.077792 
L 22.820766 37.205722 
L 22.855486 31.899889 
L 22.912527 42.299268 
L 22.948487 46.904716 
L 22.999328 38.088733 
L 23.037768 32.059863 
L 23.092329 41.946884 
L 23.129529 47.188542 
L 23.18409 37.012852 
L 23.22005 31.686386 
L 23.275851 42.403911 
L 23.311811 47.308697 
L 23.362652 38.07739 
L 23.401092 31.747299 
L 23.456893 42.21692 
L 23.490373 47.273177 
L 23.546174 37.322045 
L 23.582134 31.521054 
L 23.639175 42.557828 
L 23.672655 47.496452 
L 23.725976 37.941559 
L 23.764416 31.651906 
L 23.820217 42.307707 
L 23.856177 47.495879 
L 23.908258 37.847113 
L 23.947938 31.346668 
L 24.003739 42.795496 
L 24.037219 47.535567 
L 24.09054 37.544299 
L 24.12898 31.386409 
L 24.183541 42.432883 
L 24.219501 47.765854 
L 24.271582 37.685596 
L 24.310022 31.164057 
L 24.365823 42.569935 
L 24.399303 47.826369 
L 24.453864 37.414465 
L 24.491064 30.979795 
L 24.546865 42.454887 
L 24.582825 47.909761 
L 24.634906 37.64528 
L 24.674586 31.008315 
L 24.727907 42.344963 
L 24.765107 48.078852 
L 24.817188 37.512847 
L 24.855628 30.878838 
L 24.911429 42.602388 
L 24.947389 48.006363 
L 24.99947 37.536638 
L 25.03667 30.850102 
L 25.093711 42.830349 
L 25.128431 48.129357 
L 25.180512 37.478309 
L 25.218952 30.59357 
L 25.274753 42.762985 
L 25.309473 48.279305 
L 25.362794 37.444214 
L 25.401234 30.752226 
L 25.457035 42.849933 
L 25.491755 48.318159 
L 25.545076 36.966234 
L 25.581036 30.429226 
L 25.636837 42.435955 
L 25.671557 48.41397 
L 25.726118 37.483968 
L 25.767038 30.633217 
L 25.820359 42.827618 
L 25.855079 48.482359 
L 25.9084 37.037086 
L 25.94436 30.294408 
L 26.000161 42.418143 
L 26.036121 48.518901 
L 26.089442 37.466714 
L 26.129122 30.321381 
L 26.184923 43.186461 
L 26.219643 48.682364 
L 26.271724 37.156074 
L 26.310164 30.148928 
L 26.364725 42.727392 
L 26.399445 48.773045 
L 26.454006 36.978121 
L 26.492446 30.131036 
L 26.544527 42.15498 
L 26.582967 48.734101 
L 26.635048 37.187292 
L 26.672248 30.074924 
L 26.728049 42.768613 
L 26.764009 48.875348 
L 26.81733 36.878211 
L 26.85453 29.953692 
L 26.910331 42.867892 
L 26.946291 48.866339 
L 26.999612 36.772383 
L 27.035572 30.022007 
L 27.091373 42.810901 
L 27.126093 48.943625 
L 27.179414 37.249423 
L 27.217854 29.889926 
L 27.273655 42.931085 
L 27.308375 49.008043 
L 27.361696 37.218797 
L 27.398896 29.76413 
L 27.454697 42.777815 
L 27.491897 49.158101 
L 27.543978 36.810372 
L 27.581178 29.642258 
L 27.636979 43.002938 
L 27.671699 49.25635 
L 27.72626 36.828042 
L 27.7647 29.606274 
L 27.818021 42.754178 
L 27.852741 49.326783 
L 27.907302 36.833219 
L 27.944502 29.46892 
L 27.999063 42.61212 
L 28.035024 49.420758 
L 28.088344 37.189016 
L 28.128025 29.393627 
L 28.182585 43.235686 
L 28.217306 49.564601 
L 28.271866 36.312281 
L 28.307827 29.264297 
L 28.363627 42.971998 
L 28.399588 49.612368 
L 28.452908 36.81292 
L 28.488869 29.209834 
L 28.544669 42.819454 
L 28.58063 49.679231 
L 28.63395 36.715334 
L 28.671151 29.11406 
L 28.726951 43.179636 
L 28.762912 49.77896 
L 28.817472 36.142824 
L 28.853433 29.116247 
L 28.906753 42.468029 
L 28.945194 49.80248 
L 28.997274 36.803776 
L 29.034475 29.009596 
L 29.089035 42.700123 
L 29.127476 49.970626 
L 29.179556 36.517265 
L 29.217997 28.934775 
L 29.271317 43.014357 
L 29.307278 50.067924 
L 29.360598 36.752647 
L 29.399039 28.851278 
L 29.453599 43.077643 
L 29.48956 50.108601 
L 29.54412 36.068736 
L 29.580081 28.790235 
L 29.633401 42.519867 
L 29.671842 50.084782 
L 29.723922 36.765719 
L 29.761123 28.796414 
L 29.816923 43.243322 
L 29.851644 50.180964 
L 29.906204 36.415133 
L 29.943405 28.62348 
L 29.997965 42.920375 
L 30.033926 50.349985 
L 30.088486 36.355631 
L 30.124447 28.510675 
L 30.180247 43.218897 
L 30.216208 50.476654 
L 30.270768 35.950799 
L 30.306729 28.424155 
L 30.361289 42.999327 
L 30.39849 50.54896 
L 30.45181 36.330442 
L 30.487771 28.224141 
L 30.543571 43.217916 
L 30.579532 50.794937 
L 30.634092 35.809231 
L 30.670053 28.132372 
L 30.723373 42.645646 
L 30.761814 50.765939 
L 30.813894 36.772452 
L 30.852335 28.147879 
L 30.906895 43.205224 
L 30.942856 50.973838 
L 30.997416 35.828385 
L 31.033377 27.835062 
L 31.089177 43.522118 
L 31.126378 51.109772 
L 31.178458 36.263176 
L 31.215659 27.856694 
L 31.268979 42.874468 
L 31.30742 51.09301 
L 31.3595 36.344982 
L 31.396701 27.700135 
L 31.452501 43.472015 
L 31.489702 51.243761 
L 31.543022 35.811339 
L 31.578983 27.609108 
L 31.634783 43.836761 
L 31.669504 51.390177 
L 31.724064 35.816443 
L 31.761265 27.457481 
L 31.814585 43.17214 
L 31.851786 51.535423 
L 31.906347 35.689108 
L 31.941067 27.432394 
L 31.996868 43.291816 
L 32.032828 51.660516 
L 32.087389 35.834974 
L 32.124589 27.272925 
L 32.17915 43.658184 
L 32.21511 51.840337 
L 32.268431 36.124138 
L 32.305631 27.207399 
L 32.361432 43.87523 
L 32.394912 51.842054 
L 32.451953 35.415887 
L 32.487913 27.114762 
L 32.543714 43.993409 
L 32.577194 51.964035 
L 32.632995 35.716277 
L 32.667715 27.071039 
L 32.724756 43.809113 
L 32.760716 52.046141 
L 32.815277 35.538037 
L 32.851237 26.93278 
L 32.905798 43.437289 
L 32.942998 52.161864 
L 32.996319 35.839628 
L 33.032279 26.878886 
L 33.08808 43.682194 
L 33.12404 52.21225 
L 33.178601 35.566442 
L 33.214561 26.809776 
L 33.270362 44.035688 
L 33.306322 52.395725 
L 33.359643 35.655655 
L 33.395603 26.660164 
L 33.451404 43.712985 
L 33.487364 52.435448 
L 33.541925 35.593342 
L 33.577885 26.61732 
L 33.633686 43.998109 
L 33.668406 52.60341 
L 33.722967 35.669436 
L 33.761407 26.493528 
L 33.814728 43.783616 
L 33.850688 52.754515 
L 33.905249 35.58821 
L 33.941209 26.351458 
L 33.99825 44.536524 
L 34.03297 52.915517 
L 34.086291 35.690345 
L 34.124731 26.232092 
L 34.178052 43.696928 
L 34.214012 53.000046 
L 34.269813 35.124093 
L 34.304533 26.205498 
L 34.360334 43.927963 
L 34.395054 53.001392 
L 34.450855 35.153076 
L 34.486815 26.128545 
L 34.541376 43.691102 
L 34.578576 53.188628 
L 34.631897 35.559958 
L 34.669097 26.020627 
L 34.723658 44.013601 
L 34.759618 53.234455 
L 34.814179 35.231564 
L 34.850139 25.903092 
L 34.90594 44.255019 
L 34.94066 53.388837 
L 34.996461 35.03103 
L 35.032421 25.861289 
L 35.088222 44.465277 
L 35.122942 53.441956 
L 35.177503 35.211819 
L 35.214703 25.783155 
L 35.269264 44.247267 
L 35.305224 53.604066 
L 35.359785 35.002267 
L 35.395745 25.697602 
L 35.451546 44.557215 
L 35.487506 53.711547 
L 35.540827 35.130337 
L 35.576787 25.569855 
L 35.632588 44.383754 
L 35.668548 53.885239 
L 35.721869 35.506424 
L 35.759069 25.497508 
L 35.81363 43.93444 
L 35.84959 53.855481 
L 35.904151 35.345594 
L 35.941351 25.431892 
L 35.995912 44.254092 
L 36.031872 53.950134 
L 36.086433 34.9228 
L 36.122393 25.457462 
L 36.178194 44.446423 
L 36.214154 53.922954 
L 36.267475 35.370542 
L 36.304675 25.42787 
L 36.359236 44.218301 
L 36.395196 54.023645 
L 36.449757 34.875173 
L 36.486957 25.361162 
L 36.541518 44.515692 
L 36.577478 54.00937 
L 36.630799 35.412094 
L 36.667999 25.266833 
L 36.7238 44.714649 
L 36.75852 54.120066 
L 36.811841 35.559595 
L 36.850281 25.198627 
L 36.904842 44.484418 
L 36.939562 54.202568 
L 36.995363 34.817768 
L 37.031323 25.135319 
L 37.087124 44.594598 
L 37.121844 54.280226 
L 37.176405 35.04555 
L 37.213605 25.145973 
L 37.268166 44.314793 
L 37.304126 54.248301 
L 37.358687 34.849325 
L 37.394647 25.032744 
L 37.450448 44.672422 
L 37.485169 54.326984 
L 37.538489 35.57977 
L 37.57569 24.985488 
L 37.63149 44.444174 
L 37.667451 54.346565 
L 37.722011 34.756878 
L 37.757972 24.952851 
L 37.813772 44.762256 
L 37.848493 54.434329 
L 37.901813 35.552114 
L 37.939014 24.739806 
L 37.994814 44.55918 
L 38.030775 54.620766 
L 38.085335 34.715989 
L 38.122536 24.658383 
L 38.177096 44.572985 
L 38.211817 54.687095 
L 38.266377 35.260346 
L 38.303578 24.642319 
L 38.359378 44.909588 
L 38.394099 54.760992 
L 38.447419 35.513817 
L 38.48586 24.547288 
L 38.53918 43.99847 
L 38.576381 54.82465 
L 38.630941 34.441598 
L 38.668142 24.52817 
L 38.722702 44.911935 
L 38.757423 54.86628 
L 38.810743 35.48797 
L 38.847944 24.473216 
L 38.903744 44.618651 
L 38.939705 54.962277 
L 38.994265 34.460684 
L 39.030226 24.255009 
L 39.084786 44.395624 
L 39.120747 55.000861 
L 39.175307 34.771556 
L 39.211268 24.303873 
L 39.267068 44.589769 
L 39.303029 54.97892 
L 39.356349 35.174193 
L 39.39355 24.287951 
L 39.44935 44.989617 
L 39.484071 55.047514 
L 39.537391 35.584018 
L 39.574592 24.189972 
L 39.630392 44.559381 
L 39.666353 55.10831 
L 39.719673 35.148989 
L 39.756874 24.124697 
L 39.812674 44.79604 
L 39.848635 55.126975 
L 39.901955 34.937974 
L 39.939156 23.989984 
L 39.993716 44.546231 
L 40.029677 55.223133 
L 40.084237 34.667259 
L 40.120198 23.982134 
L 40.175998 44.720356 
L 40.211959 55.328748 
L 40.265279 35.245283 
L 40.30124 23.944302 
L 40.35828 44.95718 
L 40.393001 55.314595 
L 40.446321 35.475042 
L 40.483522 23.961837 
L 40.539322 44.649549 
L 40.575283 55.349561 
L 40.628603 35.231881 
L 40.665804 23.902284 
L 40.721604 44.903523 
L 40.757565 55.407988 
L 40.809645 35.439577 
L 40.848086 23.901957 
L 40.903886 45.149543 
L 40.939847 55.366904 
L 40.991927 35.348712 
L 41.030368 23.903135 
L 41.084928 44.980161 
L 41.120889 55.406429 
L 41.172969 35.409145 
L 41.21141 23.888062 
L 41.265971 44.529892 
L 41.303171 55.444211 
L 41.356492 34.727991 
L 41.392452 23.779801 
L 41.448253 44.913691 
L 41.482973 55.537967 
L 41.537534 34.923363 
L 41.574734 23.745129 
L 41.630535 44.963772 
L 41.665255 55.533328 
L 41.718576 35.667472 
L 41.757016 23.713316 
L 41.812817 45.259112 
L 41.847537 55.551048 
L 41.899618 35.887692 
L 41.938058 23.756182 
L 41.992619 44.2565 
L 42.029819 55.50546 
L 42.08314 34.952952 
L 42.12034 23.703361 
L 42.176141 45.109981 
L 42.212101 55.535267 
L 42.264182 35.336754 
L 42.302622 23.788947 
L 42.358423 45.388475 
L 42.393143 55.481673 
L 42.445224 35.712963 
L 42.483664 23.687187 
L 42.539465 45.15186 
L 42.572945 55.610286 
L 42.627506 35.326326 
L 42.664706 23.639506 
L 42.721747 45.367611 
L 42.756467 55.591341 
L 42.808548 35.707116 
L 42.846988 23.688292 
L 42.902789 45.051478 
L 42.938749 55.642517 
L 42.99083 35.50822 
L 43.02927 23.637265 
L 43.085071 45.268093 
L 43.121031 55.511608 
L 43.171872 35.84387 
L 43.211552 23.772257 
L 43.266113 44.853745 
L 43.302073 55.48646 
L 43.354154 35.568217 
L 43.392594 23.771204 
L 43.448395 45.356074 
L 43.483115 55.458616 
L 43.533956 36.414858 
L 43.573636 23.727774 
L 43.629437 44.966715 
L 43.664157 55.612213 
L 43.717478 35.669294 
L 43.754678 23.679511 
L 43.810479 44.705617 
L 43.846439 55.625322 
L 43.89976 35.133391 
L 43.93696 23.716316 
L 43.991521 44.260417 
L 44.028721 55.74787 
L 44.082042 34.982759 
L 44.119242 23.551671 
L 44.173803 44.656914 
L 44.211003 55.77366 
L 44.264324 34.530308 
L 44.301524 23.526802 
L 44.357325 45.2715 
L 44.390805 55.775666 
L 44.445366 35.072829 
L 44.483806 23.548838 
L 44.538367 45.26101 
L 44.573087 55.835641 
L 44.625168 35.861027 
L 44.664848 23.399541 
L 44.718169 44.132334 
L 44.754129 55.933342 
L 44.80993 34.47695 
L 44.84713 23.457291 
L 44.901691 44.992136 
L 44.937651 55.856726 
L 44.989732 35.377462 
L 45.028172 23.420639 
L 45.082733 44.715753 
L 45.118693 55.92743 
L 45.172014 35.158931 
L 45.209214 23.342096 
L 45.265015 44.966295 
L 45.299735 56.002649 
L 45.353056 35.526137 
L 45.392736 23.30277 
L 45.447297 45.185968 
L 45.482017 55.995481 
L 45.534098 35.973682 
L 45.573778 23.32312 
L 45.628339 44.945299 
L 45.663059 55.946519 
L 45.71638 35.519479 
L 45.75482 23.305665 
L 45.809381 44.576617 
L 45.844101 55.997289 
L 45.899902 34.521851 
L 45.937102 23.393268 
L 45.991663 44.773057 
L 46.027623 55.998229 
L 46.079704 35.648344 
L 46.116904 23.189081 
L 46.173945 45.219022 
L 46.208665 56.066677 
L 46.260746 36.095473 
L 46.300426 23.272339 
L 46.354987 44.605827 
L 46.390947 56.169724 
L 46.444268 35.071362 
L 46.481468 23.162836 
L 46.537269 45.185235 
L 46.571989 56.156578 
L 46.62531 35.428045 
L 46.66251 23.078272 
L 46.718311 44.526641 
L 46.753031 56.200271 
L 46.808832 34.650304 
L 46.844792 23.195289 
L 46.901833 45.47577 
L 46.935314 56.105164 
L 46.988634 35.447818 
L 47.027075 23.230251 
L 47.082875 45.283346 
L 47.117596 56.235084 
L 47.169676 36.047261 
L 47.209357 23.060629 
L 47.263917 44.979287 
L 47.299878 56.191202 
L 47.351958 35.43656 
L 47.390399 23.019009 
L 47.444959 44.49344 
L 47.48216 56.276807 
L 47.53548 34.687928 
L 47.572681 23.01448 
L 47.627241 45.038717 
L 47.663202 56.265372 
L 47.715282 35.499632 
L 47.754963 22.927037 
L 47.809523 45.098928 
L 47.845484 56.320952 
L 47.897564 35.601062 
L 47.936005 23.049978 
L 47.991805 45.463208 
L 48.026526 56.272403 
L 48.077366 36.304553 
L 48.118287 22.925843 
L 48.172847 45.248785 
L 48.208808 56.403901 
L 48.260888 35.65368 
L 48.299329 22.856639 
L 48.355129 45.284902 
L 48.38985 56.393526 
L 48.44193 35.664465 
L 48.481611 22.828586 
L 48.536171 45.10916 
L 48.572132 56.420588 
L 48.624212 35.607559 
L 48.661413 22.795973 
L 48.717213 44.734255 
L 48.753174 56.453881 
L 48.807734 34.237737 
L 48.844935 22.73465 
L 48.899495 44.9963 
L 48.935456 56.497688 
L 48.988776 35.007972 
L 49.025977 22.688578 
L 49.083017 45.804935 
L 49.117738 56.59835 
L 49.169818 35.163568 
L 49.208259 22.574416 
L 49.262819 44.983559 
L 49.29878 56.64799 
L 49.3521 35.021469 
L 49.389301 22.584836 
L 49.445101 45.0931 
L 49.479822 56.620421 
L 49.533142 35.205701 
L 49.571583 22.491903 
L 49.626143 44.988966 
L 49.662104 56.72901 
L 49.715424 35.15626 
L 49.753865 22.458349 
L 49.808425 45.152951 
L 49.844386 56.743494 
L 49.896466 35.242379 
L 49.934907 22.402291 
L 49.989467 44.87046 
L 50.024188 56.713472 
L 50.078748 35.007483 
L 50.117189 22.458364 
L 50.171749 45.249234 
L 50.20523 56.710044 
L 50.25979 35.238974 
L 50.298231 22.468103 
L 50.352791 44.882824 
L 50.388752 56.701962 
L 50.442072 34.979926 
L 50.479273 22.539342 
L 50.536314 45.668427 
L 50.569794 56.66131 
L 50.623114 35.342 
L 50.661555 22.564622 
L 50.716116 44.832496 
L 50.753316 56.54297 
L 50.805397 34.950398 
L 50.843837 22.558942 
L 50.898398 45.032035 
L 50.933118 56.58148 
L 50.986439 35.451983 
L 51.024879 22.668394 
L 51.08068 45.404579 
L 51.1154 56.6131 
L 51.167481 35.774725 
L 51.207161 22.60305 
L 51.261722 45.05186 
L 51.297682 56.598556 
L 51.349763 35.524058 
L 51.389443 22.631109 
L 51.444004 45.284598 
L 51.479964 56.560554 
L 51.532045 35.11753 
L 51.569245 22.662481 
L 51.625046 44.931572 
L 51.661006 56.635835 
L 51.714327 34.957953 
L 51.752767 22.60335 
L 51.807328 45.194052 
L 51.842048 56.589493 
L 51.895369 35.268916 
L 51.933809 22.547167 
L 51.98961 45.371511 
L 52.02433 56.695953 
L 52.076411 35.883792 
L 52.114851 22.572074 
L 52.170652 45.156544 
L 52.205372 56.669068 
L 52.258693 35.296 
L 52.297133 22.517848 
L 52.351694 44.748349 
L 52.388894 56.727136 
L 52.440975 35.269562 
L 52.479415 22.504337 
L 52.535216 45.55391 
L 52.569936 56.633703 
L 52.622017 35.479849 
L 52.660457 22.473633 
L 52.716258 45.382328 
L 52.750978 56.708232 
L 52.803059 36.071238 
L 52.842739 22.464416 
L 52.89854 45.546253 
L 52.93326 56.718929 
L 52.985341 35.54524 
L 53.023781 22.518975 
L 53.079582 45.223551 
L 53.113062 56.676151 
L 53.167623 35.390799 
L 53.206063 22.526302 
L 53.261864 45.515636 
L 53.295344 56.685758 
L 53.348665 35.597012 
L 53.388345 22.489991 
L 53.442906 45.268523 
L 53.478866 56.692482 
L 53.530947 35.452411 
L 53.569387 22.530256 
L 53.625188 45.350797 
L 53.659908 56.674471 
L 53.713229 35.065567 
L 53.751669 22.435725 
L 53.80747 45.699132 
L 53.84219 56.715276 
L 53.894271 35.595544 
L 53.933951 22.485827 
L 53.988512 45.254619 
L 54.024472 56.785528 
L 54.076553 35.199598 
L 54.114993 22.319595 
L 54.170794 45.540525 
L 54.204274 56.717534 
L 54.258835 34.972452 
L 54.296035 22.356778 
L 54.351836 45.169708 
L 54.387796 56.824182 
L 54.439877 35.474597 
L 54.479557 22.37062 
L 54.534118 45.380587 
L 54.568838 56.830174 
L 54.620919 35.770001 
L 54.660599 22.342918 
L 54.71516 45.144723 
L 54.75112 56.841016 
L 54.803201 35.425645 
L 54.841641 22.256378 
L 54.896202 44.844807 
L 54.932162 56.886952 
L 54.985483 35.0717 
L 55.023923 22.299747 
L 55.079724 45.537234 
L 55.114444 56.857164 
L 55.166525 35.620457 
L 55.204965 22.412016 
L 55.260766 45.418461 
L 55.295486 56.828838 
L 55.347567 35.715875 
L 55.387247 22.245641 
L 55.441808 45.039724 
L 55.477768 56.827658 
L 55.531089 34.976812 
L 55.569529 22.28467 
L 55.62533 45.821511 
L 55.66005 56.864536 
L 55.713371 34.273965 
L 55.750571 22.295794 
L 55.805132 45.059658 
L 55.841092 56.939073 
L 55.894413 35.031149 
L 55.932853 22.235635 
L 55.987414 45.163407 
L 56.022134 56.8997 
L 56.075455 35.28474 
L 56.115136 22.252786 
L 56.168456 44.731285 
L 56.205657 56.941225 
L 56.258977 34.445455 
L 56.296178 22.155717 
L 56.351978 45.814606 
L 56.386699 57.05591 
L 56.438779 35.220491 
L 56.47846 22.056136 
L 56.53302 45.44232 
L 56.568981 57.039363 
L 56.621061 35.13104 
L 56.658262 22.009284 
L 56.715302 45.579469 
L 56.751263 57.077887 
L 56.803343 34.644796 
L 56.841784 22.032672 
L 56.896344 45.459247 
L 56.931065 57.093338 
L 56.983145 35.907656 
L 57.022826 22.077285 
L 57.077386 44.998764 
L 57.112107 57.009455 
L 57.165427 35.414288 
L 57.203868 22.081735 
L 57.259668 45.346714 
L 57.294389 57.041084 
L 57.347709 35.280879 
L 57.38491 22.062894 
L 57.44071 45.062639 
L 57.475431 57.170328 
L 57.529991 34.769223 
L 57.568432 22.020072 
L 57.622992 45.126377 
L 57.658953 57.105612 
L 57.712273 34.627903 
L 57.749474 21.938748 
L 57.805274 45.528561 
L 57.839995 57.062388 
L 57.892075 35.812105 
L 57.931756 22.022521 
L 57.986316 45.092209 
L 58.022277 57.14246 
L 58.074357 35.554139 
L 58.114038 21.864681 
L 58.168598 45.376136 
L 58.204559 57.207257 
L 58.256639 35.211883 
L 58.29508 21.967201 
L 58.35088 45.593866 
L 58.385601 57.169146 
L 58.438921 34.945765 
L 58.476122 21.881612 
L 58.531922 45.2381 
L 58.567883 57.211812 
L 58.619963 35.500908 
L 58.658404 21.955526 
L 58.714204 45.405799 
L 58.748925 57.180676 
L 58.802245 35.055682 
L 58.840686 21.963559 
L 58.896486 45.764122 
L 58.931207 57.127617 
L 58.983287 35.631942 
L 59.021728 21.951155 
L 59.077528 45.242496 
L 59.113489 57.122456 
L 59.166809 34.44696 
L 59.20401 21.927745 
L 59.25981 45.552288 
L 59.294531 57.235185 
L 59.347851 34.889843 
L 59.386292 21.865254 
L 59.440852 45.314113 
L 59.475573 57.278642 
L 59.528893 35.303231 
L 59.568574 21.759595 
L 59.623134 45.555993 
L 59.657855 57.277378 
L 59.711175 34.995087 
L 59.748376 21.735502 
L 59.804176 45.16525 
L 59.838897 57.386959 
L 59.892217 35.436657 
L 59.930658 21.750046 
L 59.986459 45.496257 
L 60.021179 57.297297 
L 60.074499 35.133089 
L 60.11294 21.84832 
L 60.168741 45.474801 
L 60.203461 57.151585 
L 60.256782 34.876138 
L 60.295222 21.960703 
L 60.349783 45.306131 
L 60.384503 57.188307 
L 60.436584 35.985626 
L 60.476264 21.889207 
L 60.530825 44.991104 
L 60.568025 57.208347 
L 60.620106 34.842151 
L 60.658546 21.911596 
L 60.713107 45.18373 
L 60.749067 57.128042 
L 60.801148 35.313792 
L 60.839588 21.907419 
L 60.895389 45.538209 
L 60.930109 57.234308 
L 60.98219 35.82491 
L 61.02187 21.925152 
L 61.076431 45.149236 
L 61.112391 57.191192 
L 61.164472 35.313917 
L 61.202912 21.896234 
L 61.258713 45.364653 
L 61.293433 57.069782 
L 61.346754 35.15393 
L 61.385194 21.965603 
L 61.440995 45.725735 
L 61.475715 57.160365 
L 61.529036 34.665606 
L 61.566236 21.882946 
L 61.622037 45.418306 
L 61.656757 57.216864 
L 61.710078 35.118222 
L 61.748518 21.965085 
L 61.804319 45.64938 
L 61.839039 57.126478 
L 61.89236 34.775146 
L 61.92956 21.895421 
L 61.985361 45.520654 
L 62.020081 57.298155 
L 62.072162 36.073026 
L 62.110602 21.780333 
L 62.167643 45.357616 
L 62.203603 57.376124 
L 62.256924 34.182462 
L 62.294124 21.839385 
L 62.348685 45.098209 
L 62.384645 57.202827 
L 62.437966 34.950387 
L 62.475166 21.904427 
L 62.530967 45.348176 
L 62.565687 57.135123 
L 62.619008 35.207525 
L 62.657448 21.87355 
L 62.712009 44.80723 
L 62.747969 57.265426 
L 62.80129 35.005105 
L 62.83973 21.852157 
L 62.895531 45.751376 
L 62.929011 57.167893 
L 62.983572 34.516352 
L 63.020772 21.971658 
L 63.075333 44.801328 
L 63.112533 57.121654 
L 63.165854 34.489182 
L 63.203054 21.878285 
L 63.257615 45.064987 
L 63.293575 57.171718 
L 63.345656 35.3914 
L 63.385336 21.931432 
L 63.439897 45.409618 
L 63.474617 57.226577 
L 63.527938 35.368333 
L 63.566378 21.852545 
L 63.622179 45.638727 
L 63.656899 57.107956 
L 63.70898 35.46471 
L 63.74742 21.855893 
L 63.803221 45.10127 
L 63.839181 57.255336 
L 63.892502 34.885393 
L 63.929702 21.732603 
L 63.984263 44.942606 
L 64.021463 57.292976 
L 64.073544 34.889194 
L 64.111984 21.755029 
L 64.167785 45.626461 
L 64.203745 57.326924 
L 64.255826 34.967786 
L 64.293026 21.587766 
L 64.348827 45.349605 
L 64.384787 57.332093 
L 64.436868 35.077012 
L 64.476548 21.581025 
L 64.529869 44.987924 
L 64.567069 57.511529 
L 64.61915 35.208051 
L 64.65883 21.62341 
L 64.713391 45.871764 
L 64.746871 57.357578 
L 64.801432 34.336289 
L 64.838632 21.535421 
L 64.894433 45.516511 
L 64.929153 57.399594 
L 64.982474 35.329789 
L 65.020914 21.683032 
L 65.075475 45.21709 
L 65.111435 57.475823 
L 65.163516 35.254 
L 65.201956 21.584553 
L 65.257757 45.316716 
L 65.292477 57.390606 
L 65.347038 34.735633 
L 65.385479 21.6519 
L 65.440039 45.621216 
L 65.476 57.297159 
L 65.52808 34.761025 
L 65.566521 21.667704 
L 65.621081 45.276923 
L 65.657042 57.348179 
L 65.710362 34.849945 
L 65.747563 21.646912 
L 65.803363 45.542041 
L 65.838084 57.412539 
L 65.891404 34.773547 
L 65.929845 21.589739 
L 65.984405 45.155825 
L 66.021606 57.300397 
L 66.073686 34.974052 
L 66.112127 21.609492 
L 66.167927 45.913697 
L 66.202648 57.454043 
L 66.255968 34.233815 
L 66.293169 21.516891 
L 66.347729 45.062742 
L 66.38369 57.404157 
L 66.43701 34.888946 
L 66.475451 21.642511 
L 66.530011 45.326243 
L 66.565972 57.507216 
L 66.618052 35.232334 
L 66.656493 21.654456 
L 66.712293 45.673584 
L 66.748254 57.31337 
L 66.801574 34.377322 
L 66.837535 21.585529 
L 66.893335 45.20071 
L 66.929296 57.483585 
L 66.982616 34.709372 
L 67.019817 21.616018 
L 67.075617 45.385003 
L 67.111578 57.34218 
L 67.164898 34.43402 
L 67.202099 21.625262 
L 67.257899 45.466401 
L 67.29386 57.347562 
L 67.34594 35.023828 
L 67.384381 21.74456 
L 67.440181 45.880764 
L 67.476142 57.287621 
L 67.529462 33.651671 
L 67.565423 21.734087 
L 67.618743 44.20072 
L 67.655944 57.397423 
L 67.710504 34.178609 
L 67.747705 21.677592 
L 67.801025 44.542364 
L 67.838226 57.276077 
L 67.891546 34.624634 
L 67.928747 21.672948 
L 67.984547 45.502492 
L 68.020508 57.509899 
L 68.072588 35.337874 
L 68.111029 21.642349 
L 68.166829 45.571776 
L 68.20155 57.358188 
L 68.25611 33.865315 
L 68.293311 21.648694 
L 68.346631 44.632003 
L 68.385072 57.348255 
L 68.438392 34.120781 
L 68.474353 21.601473 
L 68.528913 44.848797 
L 68.566114 57.401921 
L 68.618194 34.927265 
L 68.656635 21.523251 
L 68.712435 45.702822 
L 68.748396 57.403747 
L 68.800476 34.949743 
L 68.838917 21.544153 
L 68.893477 45.360432 
L 68.929438 57.366259 
L 68.981518 35.056317 
L 69.019959 21.595199 
L 69.074519 45.026737 
L 69.11048 57.519047 
L 69.1638 35.129269 
L 69.202241 21.511494 
L 69.256802 45.125664 
L 69.292762 57.527309 
L 69.344842 35.241537 
L 69.384523 21.501783 
L 69.439084 45.544828 
L 69.473804 57.451064 
L 69.525885 36.044313 
L 69.565565 21.547089 
L 69.620126 45.006621 
L 69.657326 57.451271 
L 69.709407 34.799719 
L 69.746607 21.523955 
L 69.802408 45.212003 
L 69.838368 57.50732 
L 69.890449 35.422785 
L 69.928889 21.468937 
L 69.98345 44.963388 
L 70.02065 57.550736 
L 70.073971 34.102793 
L 70.111171 21.441219 
L 70.165732 45.108873 
L 70.201692 57.600102 
L 70.255013 34.928659 
L 70.293453 21.417069 
L 70.348014 45.441302 
L 70.382734 57.616085 
L 70.436055 35.04396 
L 70.474495 21.304098 
L 70.530296 45.680402 
L 70.565016 57.610639 
L 70.619577 34.203104 
L 70.655537 21.377029 
L 70.711338 45.336191 
L 70.746058 57.637034 
L 70.800619 34.519021 
L 70.837819 21.420926 
L 70.89362 45.695734 
L 70.92958 57.478023 
L 70.982901 34.223118 
L 71.020101 21.418259 
L 71.074662 45.232934 
L 71.109382 57.448595 
L 71.163943 34.585864 
L 71.202383 21.595134 
L 71.256944 45.494641 
L 71.292904 57.202447 
L 71.346225 34.327059 
L 71.383425 21.664648 
L 71.437986 45.026284 
L 71.472706 57.276569 
L 71.527267 34.916877 
L 71.564467 21.671534 
L 71.621508 45.963326 
L 71.656228 57.287221 
L 71.709549 34.479256 
L 71.747989 21.680333 
L 71.80255 45.438243 
L 71.83851 57.375733 
L 71.890591 35.112263 
L 71.927791 21.595344 
L 71.984832 45.765811 
L 72.020792 57.379689 
L 72.074113 33.888934 
L 72.111313 21.59028 
L 72.164634 44.897462 
L 72.203074 57.55357 
L 72.255155 34.388502 
L 72.292355 21.548027 
L 72.348156 45.610621 
L 72.384116 57.401238 
L 72.437437 33.990439 
L 72.474637 21.574743 
L 72.527958 44.551821 
L 72.563918 57.503474 
L 72.619719 33.984244 
L 72.655679 21.530338 
L 72.71024 44.960393 
L 72.7462 57.438601 
L 72.799521 34.941159 
L 72.837961 21.529228 
L 72.893762 45.467706 
L 72.929722 57.472685 
L 72.983043 34.148843 
L 73.019003 21.417299 
L 73.074804 45.462868 
L 73.110764 57.349407 
L 73.162845 35.172314 
L 73.201285 21.543128 
L 73.255846 45.043957 
L 73.293046 57.68183 
L 73.345127 35.122955 
L 73.383567 21.488351 
L 73.439368 45.965567 
L 73.472848 57.324191 
L 73.528649 33.449015 
L 73.564609 21.506499 
L 73.61793 44.420198 
L 73.65513 57.561028 
L 73.709691 34.315797 
L 73.746891 21.541717 
L 73.801452 45.452899 
L 73.837412 57.520887 
L 73.889493 35.049204 
L 73.927933 21.475789 
L 73.982494 44.885207 
L 74.019694 57.475996 
L 74.073015 34.265466 
L 74.110215 21.47167 
L 74.164776 45.46116 
L 74.200736 57.443155 
L 74.252817 35.213195 
L 74.291257 21.595766 
L 74.347058 45.568031 
L 74.381778 57.442667 
L 74.436339 34.295542 
L 74.473539 21.554114 
L 74.5281 45.095035 
L 74.56282 57.404009 
L 74.616141 35.216152 
L 74.655822 21.573065 
L 74.709142 44.896465 
L 74.746343 57.341885 
L 74.799663 34.363066 
L 74.835624 21.639104 
L 74.891424 45.041587 
L 74.927385 57.492686 
L 74.979465 35.361405 
L 75.019146 21.588186 
L 75.073706 45.428813 
L 75.108427 57.338726 
L 75.162987 34.500534 
L 75.200188 21.606684 
L 75.254748 45.17151 
L 75.290709 57.457547 
L 75.342789 35.504575 
L 75.38123 21.666273 
L 75.43703 45.42573 
L 75.472991 57.374848 
L 75.526311 34.616845 
L 75.563512 21.543476 
L 75.619312 45.514716 
L 75.652793 57.519716 
L 75.707353 34.977267 
L 75.744554 21.582137 
L 75.800354 45.239967 
L 75.836315 57.477408 
L 75.889635 34.616084 
L 75.928076 21.588928 
L 75.982636 45.208225 
L 76.017357 57.433604 
L 76.070677 35.280448 
L 76.109118 21.727449 
L 76.164918 45.689278 
L 76.200879 57.31606 
L 76.252959 34.733324 
L 76.29016 21.695437 
L 76.34472 44.636283 
L 76.380681 57.488473 
L 76.435241 34.58137 
L 76.472442 21.746193 
L 76.528242 45.519218 
L 76.562963 57.260227 
L 76.617523 34.115415 
L 76.654724 21.699532 
L 76.709284 45.277628 
L 76.745245 57.496384 
L 76.797325 35.628543 
L 76.837006 21.622044 
L 76.891566 45.395894 
L 76.927527 57.341654 
L 76.979607 35.020341 
L 77.019288 21.628054 
L 77.073848 45.545074 
L 77.108569 57.376437 
L 77.161889 35.156365 
L 77.20033 21.681338 
L 77.25489 45.281946 
L 77.290851 57.247154 
L 77.342931 35.175059 
L 77.381372 21.726839 
L 77.435932 44.756677 
L 77.471893 57.342505 
L 77.526453 34.670043 
L 77.563654 21.693791 
L 77.619454 45.612044 
L 77.655415 57.248105 
L 77.707495 34.626476 
L 77.745936 21.752934 
L 77.800496 45.487013 
L 77.835217 57.337118 
L 77.888537 35.492715 
L 77.926978 21.709344 
L 77.982778 45.422282 
L 78.018739 57.2855 
L 78.070819 34.657293 
L 78.10926 21.720727 
L 78.16258 44.713697 
L 78.199781 57.332139 
L 78.253101 34.611263 
L 78.290302 21.76007 
L 78.346103 45.53587 
L 78.380823 57.275141 
L 78.432903 35.539779 
L 78.472584 21.778604 
L 78.527145 45.240394 
L 78.563105 57.308341 
L 78.616426 34.829779 
L 78.653626 21.668113 
L 78.709427 45.507107 
L 78.744147 57.417249 
L 78.797468 35.00826 
L 78.835908 21.686293 
L 78.891709 45.668855 
L 78.926429 57.330157 
L 78.98099 34.172055 
L 79.01819 21.612171 
L 79.072751 45.25357 
L 79.108711 57.396799 
L 79.160792 35.300667 
L 79.200472 21.675956 
L 79.255033 45.549648 
L 79.289753 57.377315 
L 79.343074 34.923225 
L 79.381514 21.644811 
L 79.436075 45.136938 
L 79.472035 57.476895 
L 79.524116 35.555308 
L 79.563796 21.632798 
L 79.618357 45.390052 
L 79.653077 57.391515 
L 79.706398 35.216797 
L 79.744838 21.587789 
L 79.799399 45.089898 
L 79.835359 57.589857 
L 79.88868 34.888089 
L 79.92588 21.527516 
L 79.981681 45.211494 
L 80.016401 57.457307 
L 80.070962 34.441714 
L 80.108162 21.387266 
L 80.163963 45.594903 
L 80.198683 57.518851 
L 80.252004 35.169946 
L 80.290444 21.511695 
L 80.346245 45.7818 
L 80.382205 57.556988 
L 80.434286 34.55829 
L 80.472726 21.437129 
L 80.527287 45.403181 
L 80.562007 57.521551 
L 80.616568 34.328589 
L 80.653768 21.567233 
L 80.708329 45.074213 
L 80.744289 57.423971 
L 80.79761 34.690071 
L 80.83605 21.495068 
L 80.890611 45.51066 
L 80.925331 57.569527 
L 80.978652 35.360369 
L 81.017092 21.493045 
L 81.072893 45.522595 
L 81.107613 57.465834 
L 81.160934 34.795364 
L 81.199374 21.553546 
L 81.255175 45.898146 
L 81.289895 57.438215 
L 81.343216 34.747144 
L 81.381656 21.591201 
L 81.436217 45.408949 
L 81.472177 57.374555 
L 81.524258 34.93117 
L 81.562698 21.63161 
L 81.617259 45.186663 
L 81.653219 57.411813 
L 81.7053 35.518472 
L 81.74498 21.514771 
L 81.799541 45.498816 
L 81.835501 57.534245 
L 81.886342 35.941019 
L 81.926022 21.598387 
L 81.981823 45.682916 
L 82.016543 57.512068 
L 82.069864 35.009774 
L 82.108304 21.516142 
L 82.162865 45.205231 
L 82.198825 57.532869 
L 82.250906 35.260777 
L 82.289346 21.599689 
L 82.346387 46.15718 
L 82.379867 57.459445 
L 82.434428 34.22774 
L 82.471628 21.441118 
L 82.526189 45.180687 
L 82.562149 57.497748 
L 82.61547 34.743512 
L 82.65391 21.499739 
L 82.708471 45.267933 
L 82.744431 57.526759 
L 82.796512 35.208153 
L 82.836192 21.497025 
L 82.890753 45.693713 
L 82.925473 57.460767 
L 82.978794 34.676094 
L 83.017234 21.638804 
L 83.071795 45.223956 
L 83.107755 57.398158 
L 83.159836 35.392619 
L 83.198276 21.553598 
L 83.254077 45.607372 
L 83.290037 57.459765 
L 83.342118 34.902507 
L 83.381798 21.618085 
L 83.435119 45.081089 
L 83.471079 57.585493 
L 83.5244 34.641114 
L 83.56284 21.484165 
L 83.617401 45.563141 
L 83.653361 57.446 
L 83.705442 35.123638 
L 83.743882 21.604486 
L 83.799683 45.594468 
L 83.834403 57.496779 
L 83.888964 34.082406 
L 83.926165 21.555011 
L 83.980725 45.510912 
L 84.016686 57.497554 
L 84.068766 35.10627 
L 84.107207 21.590411 
L 84.163007 45.567502 
L 84.197728 57.47495 
L 84.251048 35.026667 
L 84.289489 21.614851 
L 84.345289 45.800509 
L 84.38001 57.27625 
L 84.43333 34.612996 
L 84.471771 21.730108 
L 84.526331 45.470591 
L 84.562292 57.441605 
L 84.613132 36.093238 
L 84.651573 21.732988 
L 84.708613 45.662774 
L 84.743334 57.308691 
L 84.796654 34.916367 
L 84.835095 21.771839 
L 84.890895 45.759157 
L 84.924376 57.315228 
L 84.978936 34.654457 
L 85.014897 21.739804 
L 85.071937 45.591472 
L 85.105418 57.347069 
L 85.158738 35.796816 
L 85.198419 21.697285 
L 85.252979 44.98248 
L 85.28894 57.348915 
L 85.34226 34.742829 
L 85.380701 21.80358 
L 85.435261 45.272071 
L 85.469982 57.186375 
L 85.523302 35.206031 
L 85.561743 21.687232 
L 85.617543 45.694418 
L 85.653504 57.314719 
L 85.704344 35.696436 
L 85.744025 21.686741 
L 85.798585 45.137324 
L 85.834546 57.485235 
L 85.886626 35.40165 
L 85.925067 21.567468 
L 85.980867 45.5217 
L 86.015588 57.342526 
L 86.068908 35.076202 
L 86.107349 21.591307 
L 86.163149 45.795894 
L 86.19787 57.530597 
L 86.25119 34.762678 
L 86.288391 21.636973 
L 86.344191 45.332156 
L 86.380152 57.429682 
L 86.432232 35.193645 
L 86.471913 21.634754 
L 86.527713 46.136643 
L 86.562434 57.44298 
L 86.615754 34.294258 
L 86.652955 21.55215 
L 86.707515 45.389532 
L 86.743476 57.408352 
L 86.795556 35.362081 
L 86.835237 21.647573 
L 86.889797 45.208668 
L 86.924518 57.512193 
L 86.980318 33.622518 
L 87.016279 21.496603 
L 87.068359 43.716803 
L 87.10556 57.461441 
L 87.1626 33.274056 
L 87.197321 21.586216 
L 87.250641 43.912673 
L 87.289082 57.594393 
L 87.342402 34.702819 
L 87.379603 21.491528 
L 87.435404 45.478507 
L 87.471364 57.508192 
L 87.524684 34.035072 
L 87.560645 21.454945 
L 87.616446 45.183906 
L 87.652406 57.615322 
L 87.704486 35.701056 
L 87.744167 21.545265 
L 87.798728 45.430912 
L 87.834688 57.546171 
L 87.886769 35.103852 
L 87.925209 21.463789 
L 87.98101 45.446667 
L 88.01697 57.572515 
L 88.070291 34.370105 
L 88.107491 21.448407 
L 88.162052 45.273486 
L 88.199252 57.558617 
L 88.251333 34.646761 
L 88.289773 21.506822 
L 88.344334 45.364779 
L 88.380294 57.609676 
L 88.432375 35.441832 
L 88.470815 21.348065 
L 88.527856 46.038642 
L 88.561336 57.547097 
L 88.615897 34.139846 
L 88.653097 21.351119 
L 88.707658 45.319959 
L 88.743618 57.61418 
L 88.795699 35.496685 
L 88.834139 21.3955 
L 88.89118 45.895326 
L 88.9259 57.572615 
L 88.979221 34.162768 
L 89.016421 21.338339 
L 89.070982 45.208584 
L 89.106942 57.528412 
L 89.160263 34.782098 
L 89.197463 21.340708 
L 89.253264 45.51999 
L 89.289224 57.813034 
L 89.341305 35.16284 
L 89.379745 21.345703 
L 89.435546 45.676775 
L 89.470266 57.614523 
L 89.524827 34.049401 
L 89.562027 21.247685 
L 89.616588 45.096499 
L 89.652548 57.755726 
L 89.704629 35.505242 
L 89.744309 21.306152 
L 89.79763 44.91524 
L 89.83483 57.700029 
L 89.888151 34.223841 
L 89.925351 21.181259 
L 89.981152 45.454032 
L 90.017112 57.845596 
L 90.070433 34.063461 
L 90.107633 21.068136 
L 90.162194 45.436444 
L 90.196914 57.723041 
L 90.250235 35.315848 
L 90.288675 21.13896 
L 90.343236 44.921676 
L 90.380436 58.105803 
L 90.432517 35.234375 
L 90.470957 21.058985 
L 90.526758 45.786889 
L 90.562718 57.729536 
L 90.617279 33.004945 
L 90.653239 21.01982 
L 90.70532 44.187838 
L 90.74376 58.069045 
L 90.798321 33.741978 
L 90.834281 21.081713 
L 90.887602 44.398022 
L 90.924802 57.857133 
L 90.979363 33.91365 
L 91.016563 21.013205 
L 91.071124 45.131725 
L 91.107084 57.878303 
L 91.160405 34.617034 
L 91.198845 21.024698 
L 91.252166 45.153511 
L 91.288126 57.902539 
L 91.341447 34.848464 
L 91.379887 21.106464 
L 91.434448 45.142914 
L 91.470408 57.96093 
L 91.523729 34.886996 
L 91.562169 21.003211 
L 91.61797 45.915773 
L 91.65145 57.801125 
L 91.707251 33.477038 
L 91.743211 21.06635 
L 91.796532 44.539043 
L 91.833732 57.90986 
L 91.888293 34.092425 
L 91.925493 21.092393 
L 91.980054 45.082515 
L 92.016014 57.924842 
L 92.070575 33.683046 
L 92.105295 20.86652 
L 92.159856 44.38528 
L 92.195816 57.921532 
L 92.251617 34.197494 
L 92.288817 20.922972 
L 92.343378 45.447698 
L 92.379338 58.178084 
L 92.432659 34.582106 
L 92.469859 21.022161 
L 92.52566 45.612115 
L 92.56162 57.876246 
L 92.616181 33.473842 
L 92.652141 20.888175 
L 92.705462 44.435554 
L 92.742662 58.028432 
L 92.797223 34.017369 
L 92.833183 21.022449 
L 92.888984 45.625088 
L 92.924944 57.920517 
L 92.978265 34.171775 
L 93.015466 20.992483 
L 93.071266 45.47474 
L 93.107227 58.131068 
L 93.161787 33.373114 
L 93.197748 20.805066 
L 93.249828 43.966545 
L 93.287029 57.911276 
L 93.342829 33.760649 
L 93.37879 21.006693 
L 93.43459 45.657805 
L 93.470551 58.214403 
L 93.522631 35.20281 
L 93.561072 20.9513 
L 93.618112 46.506007 
L 93.651593 57.843388 
L 93.707393 33.086071 
L 93.743354 20.85386 
L 93.795434 43.99989 
L 93.835115 58.219839 
L 93.889675 33.225794 
L 93.924396 20.916924 
L 93.976476 43.391917 
L 94.014917 57.954701 
L 94.070717 33.323009 
L 94.107918 20.91556 
L 94.159998 44.223817 
L 94.197199 57.89481 
L 94.251759 34.184296 
L 94.28896 20.956329 
L 94.34352 45.544731 
L 94.379481 57.93115 
L 94.431561 35.167751 
L 94.470002 21.146703 
L 94.524562 44.976766 
L 94.560523 57.931798 
L 94.615083 34.215025 
L 94.652284 20.922151 
L 94.706844 45.08621 
L 94.742805 57.987824 
L 94.796125 34.485535 
L 94.833326 20.850662 
L 94.889126 45.688377 
L 94.923847 58.094861 
L 94.978407 34.510097 
L 95.015608 20.931152 
L 95.071408 45.571978 
L 95.107369 58.084147 
L 95.160689 33.801176 
L 95.19665 20.708396 
L 95.25121 44.862328 
L 95.288411 57.91549 
L 95.341731 34.425601 
L 95.380172 20.884927 
L 95.433492 45.223556 
L 95.469453 58.270584 
L 95.522773 34.840093 
L 95.561214 20.880946 
L 95.617014 46.183784 
L 95.651735 58.009285 
L 95.707535 33.039709 
L 95.743496 20.668437 
L 95.795576 44.124747 
L 95.834017 58.35692 
L 95.888577 33.664959 
L 95.925778 20.855074 
L 95.979098 45.187449 
L 96.016299 58.109274 
L 96.068379 34.791372 
L 96.10682 20.774905 
L 96.16262 45.709739 
L 96.196101 58.303469 
L 96.253141 33.028848 
L 96.287862 20.673217 
L 96.341182 44.281169 
L 96.379623 58.086966 
L 96.432943 34.245972 
L 96.470144 20.826807 
L 96.525945 45.853954 
L 96.561905 58.468433 
L 96.613985 34.962873 
L 96.652426 20.738734 
L 96.708227 46.071583 
L 96.744187 58.050266 
L 96.798748 32.817831 
L 96.834708 20.671079 
L 96.886789 44.396573 
L 96.923989 58.312899 
L 96.97979 33.56666 
L 97.01699 20.696371 
L 97.069071 44.39596 
L 97.107511 58.135661 
L 97.160832 33.714068 
L 97.198032 20.554871 
L 97.251353 44.86487 
L 97.288553 58.122839 
L 97.341874 34.409761 
L 97.380314 20.606521 
L 97.434875 45.902598 
L 97.470835 58.254408 
L 97.522916 34.528472 
L 97.560116 20.645306 
L 97.615917 45.481152 
L 97.650637 58.225274 
L 97.705198 34.523569 
L 97.743638 20.657129 
L 97.798199 45.566566 
L 97.834159 58.333407 
L 97.88872 33.199658 
L 97.92468 20.69208 
L 97.978001 44.816099 
L 98.015201 58.212437 
L 98.068522 34.621325 
L 98.106962 20.729648 
L 98.161523 45.357286 
L 98.196243 58.299142 
L 98.252044 33.307473 
L 98.288004 20.721894 
L 98.341325 44.575723 
L 98.378525 58.025544 
L 98.433086 33.98189 
L 98.470286 20.899959 
L 98.523607 44.858553 
L 98.560807 58.136328 
L 98.614128 34.247302 
L 98.651328 20.791588 
L 98.707129 45.633681 
L 98.743089 57.996927 
L 98.79765 33.344304 
L 98.83361 20.715638 
L 98.885691 43.915867 
L 98.924131 58.157796 
L 98.978692 33.824813 
L 99.014652 20.957329 
L 99.069213 44.923182 
L 99.106413 57.994352 
L 99.159734 34.401604 
L 99.196934 20.837767 
L 99.252735 45.599993 
L 99.287455 57.997421 
L 99.342016 33.784581 
L 99.379216 20.834017 
L 99.431297 44.081182 
L 99.468497 57.953335 
L 99.524298 33.634329 
L 99.560258 21.029563 
L 99.614819 45.01639 
L 99.652019 58.081049 
L 99.7041 34.915221 
L 99.74254 20.814491 
L 99.798341 45.994469 
L 99.831821 57.991459 
L 99.887622 33.722459 
L 99.923582 20.75366 
L 99.978143 45.142488 
L 100.015343 58.14945 
L 100.068664 34.124036 
L 100.105864 20.885832 
L 100.160425 45.147807 
L 100.196385 58.11706 
L 100.250946 33.993329 
L 100.288146 20.686853 
L 100.342707 45.492419 
L 100.379907 57.9809 
L 100.431988 34.45688 
L 100.469188 20.880408 
L 100.523749 45.041043 
L 100.560949 57.978574 
L 100.61303 34.922714 
L 100.65147 20.986062 
L 100.707271 45.800439 
L 100.741991 57.909132 
L 100.796552 33.810056 
L 100.833752 20.905999 
L 100.887073 44.852201 
L 100.924273 57.973207 
L 100.977594 34.297013 
L 101.016034 20.979694 
L 101.069355 45.344926 
L 101.106555 58.101649 
L 101.158636 34.799458 
L 101.195836 21.095131 
L 101.252877 46.269163 
L 101.286357 57.940471 
L 101.342158 33.454244 
L 101.378118 21.027553 
L 101.431439 44.49373 
L 101.468639 57.776558 
L 101.52444 33.312325 
L 101.5604 21.13977 
L 101.613721 44.739692 
L 101.650921 57.711441 
L 101.704242 34.323048 
L 101.742682 21.11248 
L 101.796003 44.750412 
L 101.833203 57.679432 
L 101.886524 34.16258 
L 101.923724 20.915358 
L 101.978285 45.363259 
L 102.014245 57.750376 
L 102.066326 35.52107 
L 102.104766 21.040985 
L 102.161807 46.204247 
L 102.196528 58.023082 
L 102.249848 34.331616 
L 102.287049 20.987379 
L 102.342849 45.771989 
L 102.37757 57.840835 
L 102.43213 33.80545 
L 102.468091 21.136129 
L 102.522651 44.952092 
L 102.558612 57.837329 
L 102.613172 34.468717 
L 102.650373 21.270967 
L 102.704933 45.090645 
L 102.740894 57.718502 
L 102.794214 34.841458 
L 102.832655 21.109475 
L 102.888455 45.768273 
L 102.921936 57.777319 
L 102.977736 33.925355 
L 103.014937 21.093579 
L 103.068257 45.119058 
L 103.104218 57.737567 
L 103.158778 34.155554 
L 103.197219 21.127907 
L 103.250539 44.945464 
L 103.28774 57.944383 
L 103.34106 34.264492 
L 103.377021 21.031678 
L 103.432821 45.442873 
L 103.468782 57.722714 
L 103.520862 35.185902 
L 103.560543 21.161877 
L 103.615103 45.670444 
L 103.649824 57.916185 
L 103.704384 34.440071 
L 103.741585 21.213027 
L 103.797385 45.780556 
L 103.832106 57.75348 
L 103.886666 33.780489 
L 103.923867 21.197579 
L 103.977187 44.751457 
L 104.014388 57.759416 
L 104.067708 34.58297 
L 104.103669 21.2551 
L 104.159469 45.164744 
L 104.19667 57.730018 
L 104.24999 33.855013 
L 104.287191 21.276085 
L 104.340511 44.622726 
L 104.377712 57.728306 
L 104.432272 33.962936 
L 104.468233 21.192302 
L 104.522793 44.915283 
L 104.558754 57.660095 
L 104.613314 34.135996 
L 104.650515 21.305859 
L 104.705075 45.102612 
L 104.741036 57.64524 
L 104.794356 34.975912 
L 104.831557 21.285512 
L 104.888597 45.787192 
L 104.923318 57.62245 
L 104.976638 34.326396 
L 105.013839 21.269445 
L 105.068399 45.008815 
L 105.10436 57.585284 
L 105.15768 34.982882 
L 105.196121 21.311785 
L 105.250681 45.211126 
L 105.286642 57.819482 
L 105.339962 34.589965 
L 105.377163 21.347741 
L 105.432963 45.678345 
L 105.467684 57.571138 
L 105.522244 34.304516 
L 105.560685 21.323549 
L 105.614005 45.091587 
L 105.649966 57.774967 
L 105.703286 34.909489 
L 105.741727 21.379404 
L 105.796288 45.341358 
L 105.833488 57.495198 
L 105.885569 34.502406 
L 105.924009 21.35314 
L 105.97857 45.26019 
L 106.01453 57.692285 
L 106.067851 34.551134 
L 106.105051 21.336455 
L 106.160852 45.764782 
L 106.196812 57.531832 
L 106.248893 34.660085 
L 106.287333 21.385406 
L 106.341894 45.10782 
L 106.377854 57.654538 
L 106.431175 34.723494 
L 106.468375 21.394789 
L 106.524176 45.661433 
L 106.560136 57.436526 
L 106.613457 34.001627 
L 106.650657 21.49949 
L 106.705218 45.42195 
L 106.741178 57.678765 
L 106.793259 35.66731 
L 106.831699 21.60504 
L 106.8875 45.547322 
L 106.92222 57.357734 
L 106.976781 34.00662 
L 107.012741 21.484489 
L 107.068542 45.249004 
L 107.104502 57.448174 
L 107.156583 35.615987 
L 107.195023 21.542217 
L 107.249584 44.95154 
L 107.286784 57.48083 
L 107.340105 34.108985 
L 107.376065 21.430571 
L 107.431866 45.016057 
L 107.467826 57.593 
L 107.522387 34.383802 
L 107.558347 21.326098 
L 107.614148 45.44629 
L 107.648868 57.512827 
L 107.700949 36.03719 
L 107.740629 21.424999 
L 107.79643 45.672052 
L 107.83239 57.652419 
L 107.884471 35.322627 
L 107.921671 21.335996 
L 107.978712 45.584967 
L 108.013432 57.58144 
L 108.067993 33.675268 
L 108.105193 21.328696 
L 108.158514 44.817519 
L 108.195714 57.553238 
L 108.249035 34.581195 
L 108.286235 21.53152 
L 108.340796 44.934933 
L 108.376756 57.63846 
L 108.430077 34.793295 
L 108.468517 21.456232 
L 108.523078 45.376817 
L 108.559038 57.367198 
L 108.613599 33.984065 
L 108.650799 21.536209 
L 108.70412 44.923749 
L 108.74008 57.484471 
L 108.794641 34.181058 
L 108.830601 21.623203 
L 108.886402 45.315808 
L 108.922362 57.31942 
L 108.975683 34.815763 
L 109.012883 21.55166 
L 109.068684 45.312142 
L 109.102164 57.353758 
L 109.156725 35.100803 
L 109.195165 21.648434 
L 109.250966 45.736749 
L 109.285686 57.285787 
L 109.340247 33.885869 
L 109.376207 21.740919 
L 109.430768 44.635018 
L 109.467968 57.319387 
L 109.520049 35.286771 
L 109.558489 21.682468 
L 109.61553 46.415886 
L 109.64901 57.302112 
L 109.704811 33.329349 
L 109.740771 21.678464 
L 109.794092 44.691628 
L 109.830052 57.497715 
L 109.885853 33.854549 
L 109.923053 21.810491 
L 109.976374 44.759002 
L 110.012334 57.146149 
L 110.068135 33.492038 
L 110.104095 21.71018 
L 110.157416 44.511605 
L 110.194616 57.199467 
L 110.249177 34.166092 
L 110.285137 21.825734 
L 110.340938 45.387072 
L 110.375658 57.151438 
L 110.428979 35.114093 
L 110.467419 21.79787 
L 110.52322 45.478656 
L 110.55918 57.17993 
L 110.612501 34.232157 
L 110.649701 21.811797 
L 110.704262 45.221394 
L 110.740222 57.194347 
L 110.792303 35.38324 
L 110.830743 21.812578 
L 110.885304 44.895986 
L 110.922504 57.310421 
L 110.975825 34.468365 
L 111.011785 21.833094 
L 111.068826 45.559571 
L 111.103546 57.154294 
L 111.158107 33.843462 
L 111.195308 21.891511 
L 111.248628 44.816212 
L 111.285829 57.192222 
L 111.340389 33.867661 
L 111.37635 21.882307 
L 111.43091 44.881651 
L 111.466871 57.070823 
L 111.520191 34.757224 
L 111.558632 21.895252 
L 111.613192 45.189037 
L 111.647913 57.082731 
L 111.701233 35.3599 
L 111.739674 21.836405 
L 111.794234 44.962284 
L 111.830195 57.106144 
L 111.883515 34.96582 
L 111.921956 21.870323 
L 111.976516 45.06597 
L 112.012477 57.182241 
L 112.065797 34.890266 
L 112.102998 21.811702 
L 112.160038 45.93547 
L 112.194759 57.169913 
L 112.248079 34.24824 
L 112.28528 21.933138 
L 112.32 33.11381 
" clip-path="url(#p097fe4391c)" style="fill: none; stroke: #cc9900; stroke-width: 0.1; stroke-linecap: square"/>
   </g>
   <g id="patch_3">
    <path d="M 0.72 78.336 
L 0.72 0.72 
" style="fill: none; stroke: #cc9900; stroke-width: 0.5; stroke-linejoin: miter; stroke-linecap: square"/>
   </g>
   <g id="patch_4">
    <path d="M 112.32 78.336 
L 112.32 0.72 
" style="fill: none; stroke: #cc9900; stroke-width: 0.5; stroke-linejoin: miter; stroke-linecap: square"/>
   </g>
   <g id="patch_5">
    <path d="M 0.72 78.336 
L 112.32 78.336 
" style="fill: none; stroke: #cc9900; stroke-width: 0.5; stroke-linejoin: miter; stroke-linecap: square"/>
   </g>
   <g id="patch_6">
    <path d="M 0.72 0.72 
L 112.32 0.72 
" style="fill: none; stroke: #cc9900; stroke-width: 0.5; stroke-linejoin: miter; stroke-linecap: square"/>
   </g>
  </g>
 </g>
 <defs>
  <clipPath id="p097fe4391c">
   <rect x="0.72" y="0.72" width="111.6" height="77.616"/>
  </clipPath>
 </defs>
</svg>
