<?xml version="1.0" encoding="utf-8" standalone="no"?>
<!DOCTYPE svg PUBLIC "-//W3C//DTD SVG 1.1//EN"
  "http://www.w3.org/Graphics/SVG/1.1/DTD/svg11.dtd">
<svg xmlns:xlink="http://www.w3.org/1999/xlink" width="91.394574pt" height="51.889926pt" viewBox="0 0 91.394574 51.889926" xmlns="http://www.w3.org/2000/svg" version="1.1">
 <metadata>
  <rdf:RDF xmlns:dc="http://purl.org/dc/elements/1.1/" xmlns:cc="http://creativecommons.org/ns#" xmlns:rdf="http://www.w3.org/1999/02/22-rdf-syntax-ns#">
   <cc:Work>
    <dc:type rdf:resource="http://purl.org/dc/dcmitype/StillImage"/>
    <dc:date>2025-01-13T14:29:19.321405</dc:date>
    <dc:format>image/svg+xml</dc:format>
    <dc:creator>
     <cc:Agent>
      <dc:title>Matplotlib v3.8.0, https://matplotlib.org/</dc:title>
     </cc:Agent>
    </dc:creator>
   </cc:Work>
  </rdf:RDF>
 </metadata>
 <defs>
  <style type="text/css">*{stroke-linejoin: round; stroke-linecap: butt}</style>
 </defs>
 <g id="figure_1">
  <g id="patch_1">
   <path d="M 0 51.889926 
L 91.394574 51.889926 
L 91.394574 -0 
L 0 -0 
L 0 51.889926 
z
" style="fill: none"/>
  </g>
  <g id="axes_1">
   <g id="patch_2">
    <path d="M 21.4325 18.041722 
L 87.338012 18.041722 
L 87.338012 1.671644 
L 21.4325 1.671644 
L 21.4325 18.041722 
z
" style="fill: none"/>
   </g>
   <g id="matplotlib.axis_1"/>
   <g id="matplotlib.axis_2">
    <g id="ytick_1">
     <g id="line2d_1">
      <defs>
       <path id="m194fbb9e9c" d="M 0 0 
L -1 0 
" style="stroke: #000000; stroke-width: 0.5"/>
      </defs>
      <g>
       <use xlink:href="#m194fbb9e9c" x="21.4325" y="16.677549" style="stroke: #000000; stroke-width: 0.5"/>
      </g>
     </g>
     <g id="text_1">
      <!-- −0.1 -->
      <g transform="translate(9.03625 18.109112) scale(0.04 -0.04)">
       <defs>
        <path id="ArialMT-2212" d="M 3381 1997 
L 356 1997 
L 356 2522 
L 3381 2522 
L 3381 1997 
z
" transform="scale(0.015625)"/>
        <path id="ArialMT-30" d="M 266 2259 
Q 266 3072 433 3567 
Q 600 4063 929 4331 
Q 1259 4600 1759 4600 
Q 2128 4600 2406 4451 
Q 2684 4303 2865 4023 
Q 3047 3744 3150 3342 
Q 3253 2941 3253 2259 
Q 3253 1453 3087 958 
Q 2922 463 2592 192 
Q 2263 -78 1759 -78 
Q 1097 -78 719 397 
Q 266 969 266 2259 
z
M 844 2259 
Q 844 1131 1108 757 
Q 1372 384 1759 384 
Q 2147 384 2411 759 
Q 2675 1134 2675 2259 
Q 2675 3391 2411 3762 
Q 2147 4134 1753 4134 
Q 1366 4134 1134 3806 
Q 844 3388 844 2259 
z
" transform="scale(0.015625)"/>
        <path id="ArialMT-2e" d="M 581 0 
L 581 641 
L 1222 641 
L 1222 0 
L 581 0 
z
" transform="scale(0.015625)"/>
        <path id="ArialMT-31" d="M 2384 0 
L 1822 0 
L 1822 3584 
Q 1619 3391 1289 3197 
Q 959 3003 697 2906 
L 697 3450 
Q 1169 3672 1522 3987 
Q 1875 4303 2022 4600 
L 2384 4600 
L 2384 0 
z
" transform="scale(0.015625)"/>
       </defs>
       <use xlink:href="#ArialMT-2212"/>
       <use xlink:href="#ArialMT-30" x="58.398438"/>
       <use xlink:href="#ArialMT-2e" x="114.013672"/>
       <use xlink:href="#ArialMT-31" x="141.796875"/>
      </g>
     </g>
    </g>
    <g id="ytick_2">
     <g id="line2d_2">
      <g>
       <use xlink:href="#m194fbb9e9c" x="21.4325" y="9.856683" style="stroke: #000000; stroke-width: 0.5"/>
      </g>
     </g>
     <g id="text_2">
      <!-- 0.0 -->
      <g transform="translate(11.3725 11.288246) scale(0.04 -0.04)">
       <use xlink:href="#ArialMT-30"/>
       <use xlink:href="#ArialMT-2e" x="55.615234"/>
       <use xlink:href="#ArialMT-30" x="83.398438"/>
      </g>
     </g>
    </g>
    <g id="ytick_3">
     <g id="line2d_3">
      <g>
       <use xlink:href="#m194fbb9e9c" x="21.4325" y="3.035817" style="stroke: #000000; stroke-width: 0.5"/>
      </g>
     </g>
     <g id="text_3">
      <!-- 0.1 -->
      <g transform="translate(11.3725 4.467379) scale(0.04 -0.04)">
       <use xlink:href="#ArialMT-30"/>
       <use xlink:href="#ArialMT-2e" x="55.615234"/>
       <use xlink:href="#ArialMT-31" x="83.398438"/>
      </g>
     </g>
    </g>
    <g id="text_4">
     <!-- $x_1(t)$ -->
     <g transform="translate(6.44625 17.016683) rotate(-90) scale(0.08 -0.08)">
      <defs>
       <path id="STIXGeneral-Italic-78" d="M 1555 2272 
L 1632 1907 
Q 1971 2426 2179 2624 
Q 2387 2822 2598 2822 
Q 2714 2822 2787 2755 
Q 2861 2688 2861 2585 
Q 2861 2483 2800 2419 
Q 2739 2355 2643 2355 
Q 2586 2355 2490 2409 
Q 2394 2464 2310 2464 
Q 2125 2464 1683 1690 
Q 1683 1606 1734 1402 
L 1939 544 
Q 2003 282 2131 282 
Q 2234 282 2432 538 
Q 2451 563 2476 598 
Q 2502 634 2521 662 
Q 2541 691 2566 717 
L 2662 659 
Q 2387 230 2227 80 
Q 2067 -70 1882 -70 
Q 1728 -70 1645 26 
Q 1562 122 1504 365 
L 1318 1126 
L 755 365 
Q 557 96 432 13 
Q 307 -70 147 -70 
Q 0 -70 -86 0 
Q -173 70 -173 198 
Q -173 294 -112 361 
Q -51 429 45 429 
Q 122 429 250 358 
Q 346 301 416 301 
Q 525 301 742 614 
L 1267 1357 
L 1088 2150 
Q 1024 2432 969 2509 
Q 915 2586 794 2586 
Q 717 2586 544 2541 
L 429 2509 
L 410 2611 
L 480 2637 
Q 992 2822 1229 2822 
Q 1350 2822 1420 2707 
Q 1491 2592 1555 2272 
z
" transform="scale(0.015625)"/>
       <path id="STIXGeneral-Regular-31" d="M 2522 0 
L 755 0 
L 755 96 
Q 1107 115 1235 227 
Q 1363 339 1363 608 
L 1363 3482 
Q 1363 3795 1171 3795 
Q 1082 3795 883 3718 
L 710 3654 
L 710 3744 
L 1856 4326 
L 1914 4307 
L 1914 486 
Q 1914 275 2042 185 
Q 2170 96 2522 96 
L 2522 0 
z
" transform="scale(0.015625)"/>
       <path id="STIXGeneral-Regular-28" d="M 1946 -1030 
L 1869 -1133 
Q 1126 -710 716 32 
Q 307 774 307 1613 
Q 307 3386 1888 4326 
L 1946 4224 
Q 1293 3667 1075 3126 
Q 858 2586 858 1632 
Q 858 685 1082 96 
Q 1306 -493 1946 -1030 
z
" transform="scale(0.015625)"/>
       <path id="STIXGeneral-Italic-74" d="M 1894 2739 
L 1862 2534 
L 1325 2534 
L 768 435 
Q 755 384 755 346 
Q 755 243 851 243 
Q 928 243 1030 342 
Q 1133 442 1370 749 
L 1453 704 
Q 1158 256 969 93 
Q 781 -70 538 -70 
Q 243 -70 243 166 
Q 243 230 346 640 
L 845 2534 
L 365 2534 
L 358 2573 
Q 358 2688 570 2733 
Q 730 2771 992 2979 
Q 1254 3187 1421 3437 
Q 1459 3494 1510 3494 
Q 1568 3494 1568 3443 
Q 1568 3411 1562 3398 
L 1382 2739 
L 1894 2739 
z
" transform="scale(0.015625)"/>
       <path id="STIXGeneral-Regular-29" d="M 186 4224 
L 262 4326 
Q 992 3891 1408 3148 
Q 1824 2406 1824 1581 
Q 1824 -166 243 -1133 
L 186 -1030 
Q 845 -486 1059 54 
Q 1274 595 1274 1562 
Q 1274 2534 1059 3120 
Q 845 3706 186 4224 
z
" transform="scale(0.015625)"/>
      </defs>
      <use xlink:href="#STIXGeneral-Italic-78" transform="translate(0 0.40625)"/>
      <use xlink:href="#STIXGeneral-Regular-31" transform="translate(44.399994 -12.821875) scale(0.7)"/>
      <use xlink:href="#STIXGeneral-Regular-28" transform="translate(83.809358 0.40625)"/>
      <use xlink:href="#STIXGeneral-Italic-74" transform="translate(117.109346 0.40625)"/>
      <use xlink:href="#STIXGeneral-Regular-29" transform="translate(144.909334 0.40625)"/>
     </g>
    </g>
   </g>
   <g id="line2d_4">
    <path d="M 21.4325 5.458054 
L 21.636807 5.922136 
L 22.24841 8.643431 
L 22.921965 12.443945 
L 23.238311 13.606268 
L 23.534886 14.185992 
L 23.697013 14.203228 
L 23.857823 13.981438 
L 24.155716 13.095092 
L 24.950536 9.391383 
L 25.581911 6.088958 
L 25.856078 5.381395 
L 25.969435 5.288165 
L 26.015569 5.313543 
L 26.179015 5.531396 
L 26.470317 6.40384 
L 27.071376 9.318348 
L 27.845106 13.180319 
L 28.202314 14.107144 
L 28.39344 14.178549 
L 28.494935 14.078366 
L 28.882459 13.372387 
L 29.144763 12.100525 
L 30.476054 5.687085 
L 30.733086 5.350227 
L 30.748903 5.360554 
L 30.95321 5.644395 
L 31.467273 7.53624 
L 32.761657 13.63778 
L 33.130728 14.078708 
L 33.383806 13.870075 
L 33.634246 13.257358 
L 34.158854 11.261831 
L 35.395242 5.541441 
L 35.644365 5.492831 
L 35.815719 5.789207 
L 36.051661 6.510807 
L 37.832428 13.955043 
L 38.024872 14.031054 
L 38.24236 13.748299 
L 38.74456 12.233028 
L 40.154938 5.749536 
L 40.389561 5.522136 
L 40.578051 5.595314 
L 40.841673 6.146714 
L 41.196245 7.651133 
L 41.786758 10.692818 
L 42.387817 13.143381 
L 42.849155 13.953353 
L 43.070598 13.803272 
L 43.369809 13.146041 
L 44.197582 9.611993 
L 45.27975 5.548262 
L 45.383881 5.604846 
L 45.593461 5.989065 
L 45.928261 6.895559 
L 46.297331 8.497471 
L 47.126423 12.567499 
L 47.517902 13.594731 
L 47.844793 13.920156 
L 48.037237 13.785261 
L 48.288996 13.246159 
L 48.975731 10.512877 
L 49.798232 6.664044 
L 50.283297 5.602441 
L 50.374246 5.65353 
L 50.531102 5.864818 
L 50.763089 6.486476 
L 51.285061 8.670176 
L 52.141832 12.645796 
L 52.740254 13.838061 
L 52.922154 13.783099 
L 53.169958 13.407607 
L 53.44808 12.584474 
L 54.572428 7.53185 
L 54.941498 6.223408 
L 55.259163 5.676896 
L 55.485878 5.791012 
L 55.682276 6.172949 
L 55.782453 6.543592 
L 57.54872 13.677292 
L 57.890111 13.731883 
L 58.267091 13.105714 
L 58.706021 11.699928 
L 59.840914 6.642025 
L 60.219212 5.80608 
L 60.428791 5.770593 
L 60.65287 6.11736 
L 60.858495 6.751608 
L 62.18056 12.592036 
L 62.53645 13.438368 
L 62.848842 13.720859 
L 63.100601 13.479039 
L 63.38004 12.936259 
L 63.811062 11.379433 
L 64.653335 7.500711 
L 65.188487 5.954189 
L 65.427065 5.801516 
L 65.52856 5.913487 
L 65.923993 6.844297 
L 66.261429 8.17226 
L 66.800536 10.703641 
L 67.442456 13.179231 
L 67.737713 13.617571 
L 67.903794 13.623122 
L 68.117328 13.467545 
L 68.515398 12.544514 
L 69.095366 10.499777 
L 69.749149 7.505616 
L 70.169626 6.198381 
L 70.43193 5.874911 
L 70.653372 6.044432 
L 70.927539 6.761226 
L 72.623947 13.329787 
L 72.895478 13.554871 
L 73.135374 13.346304 
L 73.562442 12.466154 
L 74.122639 10.623484 
L 74.37308 9.494151 
L 74.859462 7.263638 
L 75.228533 6.210428 
L 75.591013 6.028159 
L 75.878361 6.483208 
L 76.275113 8.032938 
L 77.423187 12.779173 
L 77.826528 13.46055 
L 78.007109 13.442288 
L 78.13892 13.312721 
L 78.368272 12.960205 
L 79.292267 10.127942 
L 79.959231 7.196544 
L 80.354664 6.146274 
L 80.655193 6.062136 
L 80.90168 6.431898 
L 81.17321 7.268787 
L 82.1987 11.784641 
L 82.972431 13.437035 
L 83.225508 13.222426 
L 83.562944 12.57351 
L 84.008465 11.267556 
L 85.090634 6.975713 
L 85.451796 6.138946 
L 85.731235 6.15272 
L 85.919725 6.434467 
L 86.130623 6.981383 
L 86.829221 10.144809 
L 86.829221 10.144809 
" clip-path="url(#p8132350307)" style="fill: none; stroke: #a9d18e; stroke-width: 0.2; stroke-linecap: square"/>
   </g>
   <g id="line2d_5">
    <path d="M 26.881568 5.527107 
L 32.331954 5.596694 
L 37.781021 5.644051 
L 43.231407 5.75604 
L 48.680475 5.810288 
L 54.130861 5.855439 
L 59.581246 5.917965 
L 65.030314 5.9979 
L 70.4807 6.099792 
L 75.929768 6.156822 
" clip-path="url(#p8132350307)" style="fill: none; stroke: #8ca5ea; stroke-width: 0.7; stroke-linecap: square"/>
   </g>
   <g id="line2d_6">
    <path d="M 26.881568 8.730749 
L 32.331954 8.274435 
L 37.781021 7.902403 
L 43.231407 7.630553 
L 48.680475 7.462904 
L 54.130861 7.353141 
L 59.581246 7.26088 
L 65.030314 7.215281 
L 70.4807 7.15984 
L 75.929768 7.106303 
" clip-path="url(#p8132350307)" style="fill: none; stroke-dasharray: 2.59,1.12; stroke-dashoffset: 0; stroke: #495373; stroke-width: 0.7"/>
   </g>
   <g id="patch_3">
    <path d="M 21.4325 18.041722 
L 21.4325 1.671644 
" style="fill: none; stroke: #000000; stroke-width: 0.2; stroke-linejoin: miter; stroke-linecap: square"/>
   </g>
   <g id="patch_4">
    <path d="M 87.338012 18.041722 
L 87.338012 1.671644 
" style="fill: none; stroke: #000000; stroke-width: 0.2; stroke-linejoin: miter; stroke-linecap: square"/>
   </g>
   <g id="patch_5">
    <path d="M 21.4325 18.041722 
L 87.338012 18.041722 
" style="fill: none; stroke: #000000; stroke-width: 0.2; stroke-linejoin: miter; stroke-linecap: square"/>
   </g>
   <g id="patch_6">
    <path d="M 21.4325 1.671644 
L 87.338012 1.671644 
" style="fill: none; stroke: #000000; stroke-width: 0.2; stroke-linejoin: miter; stroke-linecap: square"/>
   </g>
   <g id="text_5">
    <!-- $A_1$ -->
    <g style="fill: #8ca5ea" transform="translate(25.386831 6.44625) scale(0.08 -0.08)">
     <defs>
      <path id="STIXGeneral-Italic-41" d="M 3610 0 
L 2042 0 
L 2042 102 
Q 2330 115 2432 192 
Q 2534 269 2534 442 
Q 2534 493 2522 608 
L 2394 1446 
L 986 1446 
L 608 736 
Q 467 474 467 314 
Q 467 122 864 102 
L 864 0 
L -326 0 
L -326 102 
Q -109 147 28 307 
Q 166 467 531 1101 
L 2355 4275 
L 2522 4275 
L 3110 736 
Q 3174 339 3264 230 
Q 3354 122 3610 102 
L 3610 0 
z
M 2362 1677 
L 2074 3360 
L 1120 1677 
L 2362 1677 
z
" transform="scale(0.015625)"/>
     </defs>
     <use xlink:href="#STIXGeneral-Italic-41" transform="translate(0 0.203125)"/>
     <use xlink:href="#STIXGeneral-Regular-31" transform="translate(61.099991 -13.025) scale(0.7)"/>
    </g>
   </g>
   <g id="text_6">
    <!-- $\beta_1$ -->
    <g style="fill: #495373" transform="translate(74.156909 13.267116) scale(0.08 -0.08)">
     <defs>
      <path id="STIXGeneral-Italic-3b2" d="M -58 -813 
L 819 2355 
Q 902 2662 995 2908 
Q 1088 3155 1235 3433 
Q 1382 3712 1555 3901 
Q 1728 4090 1977 4214 
Q 2227 4339 2515 4339 
Q 2816 4339 3053 4182 
Q 3290 4026 3290 3693 
Q 3290 3328 3037 3001 
Q 2784 2675 2470 2534 
L 2470 2528 
Q 2682 2509 2858 2320 
Q 3034 2131 3034 1818 
Q 3034 1376 2694 873 
Q 2355 371 1901 122 
Q 1562 -70 1107 -70 
Q 922 -70 685 38 
L 442 -813 
Q 352 -1126 243 -1312 
L -256 -1312 
Q -154 -1158 -58 -813 
z
M 1491 3053 
L 762 288 
Q 762 186 848 118 
Q 934 51 1069 51 
Q 1594 51 2029 704 
Q 2464 1357 2464 2029 
Q 2464 2406 2208 2406 
Q 2150 2406 2044 2380 
Q 1939 2355 1888 2355 
Q 1805 2355 1750 2396 
Q 1696 2438 1696 2496 
Q 1696 2650 1978 2650 
Q 1997 2650 2099 2630 
Q 2202 2611 2253 2611 
Q 2451 2611 2640 2969 
Q 2829 3328 2829 3622 
Q 2829 3962 2713 4083 
Q 2598 4205 2400 4205 
Q 2080 4205 1846 3865 
Q 1613 3526 1491 3053 
z
" transform="scale(0.015625)"/>
     </defs>
     <use xlink:href="#STIXGeneral-Italic-3b2" transform="translate(0 0.203125)"/>
     <use xlink:href="#STIXGeneral-Regular-31" transform="translate(50.599991 -13.025) scale(0.7)"/>
    </g>
   </g>
  </g>
  <g id="axes_2">
   <g id="patch_7">
    <path d="M 21.4325 34.411801 
L 87.338012 34.411801 
L 87.338012 18.041722 
L 21.4325 18.041722 
L 21.4325 34.411801 
z
" style="fill: none"/>
   </g>
   <g id="matplotlib.axis_3">
    <g id="xtick_1">
     <g id="line2d_7">
      <defs>
       <path id="me6e459c73e" d="M 0 0 
L 0 1 
" style="stroke: #000000; stroke-width: 0.5"/>
      </defs>
      <g>
       <use xlink:href="#me6e459c73e" x="21.4325" y="34.411801" style="stroke: #000000; stroke-width: 0.5"/>
      </g>
     </g>
     <g id="text_7">
      <!-- 0 -->
      <g transform="translate(20.320312 41.774926) scale(0.04 -0.04)">
       <use xlink:href="#ArialMT-30"/>
      </g>
     </g>
    </g>
    <g id="xtick_2">
     <g id="line2d_8">
      <g>
       <use xlink:href="#me6e459c73e" x="34.613602" y="34.411801" style="stroke: #000000; stroke-width: 0.5"/>
      </g>
     </g>
     <g id="text_8">
      <!-- 100 -->
      <g transform="translate(31.27704 41.774926) scale(0.04 -0.04)">
       <use xlink:href="#ArialMT-31"/>
       <use xlink:href="#ArialMT-30" x="55.615234"/>
       <use xlink:href="#ArialMT-30" x="111.230469"/>
      </g>
     </g>
    </g>
    <g id="xtick_3">
     <g id="line2d_9">
      <g>
       <use xlink:href="#me6e459c73e" x="47.794705" y="34.411801" style="stroke: #000000; stroke-width: 0.5"/>
      </g>
     </g>
     <g id="text_9">
      <!-- 200 -->
      <g transform="translate(44.458142 41.774926) scale(0.04 -0.04)">
       <defs>
        <path id="ArialMT-32" d="M 3222 541 
L 3222 0 
L 194 0 
Q 188 203 259 391 
Q 375 700 629 1000 
Q 884 1300 1366 1694 
Q 2113 2306 2375 2664 
Q 2638 3022 2638 3341 
Q 2638 3675 2398 3904 
Q 2159 4134 1775 4134 
Q 1369 4134 1125 3890 
Q 881 3647 878 3216 
L 300 3275 
Q 359 3922 746 4261 
Q 1134 4600 1788 4600 
Q 2447 4600 2831 4234 
Q 3216 3869 3216 3328 
Q 3216 3053 3103 2787 
Q 2991 2522 2730 2228 
Q 2469 1934 1863 1422 
Q 1356 997 1212 845 
Q 1069 694 975 541 
L 3222 541 
z
" transform="scale(0.015625)"/>
       </defs>
       <use xlink:href="#ArialMT-32"/>
       <use xlink:href="#ArialMT-30" x="55.615234"/>
       <use xlink:href="#ArialMT-30" x="111.230469"/>
      </g>
     </g>
    </g>
    <g id="xtick_4">
     <g id="line2d_10">
      <g>
       <use xlink:href="#me6e459c73e" x="60.975807" y="34.411801" style="stroke: #000000; stroke-width: 0.5"/>
      </g>
     </g>
     <g id="text_10">
      <!-- 300 -->
      <g transform="translate(57.639245 41.774926) scale(0.04 -0.04)">
       <defs>
        <path id="ArialMT-33" d="M 269 1209 
L 831 1284 
Q 928 806 1161 595 
Q 1394 384 1728 384 
Q 2125 384 2398 659 
Q 2672 934 2672 1341 
Q 2672 1728 2419 1979 
Q 2166 2231 1775 2231 
Q 1616 2231 1378 2169 
L 1441 2663 
Q 1497 2656 1531 2656 
Q 1891 2656 2178 2843 
Q 2466 3031 2466 3422 
Q 2466 3731 2256 3934 
Q 2047 4138 1716 4138 
Q 1388 4138 1169 3931 
Q 950 3725 888 3313 
L 325 3413 
Q 428 3978 793 4289 
Q 1159 4600 1703 4600 
Q 2078 4600 2393 4439 
Q 2709 4278 2876 4000 
Q 3044 3722 3044 3409 
Q 3044 3113 2884 2869 
Q 2725 2625 2413 2481 
Q 2819 2388 3044 2092 
Q 3269 1797 3269 1353 
Q 3269 753 2831 336 
Q 2394 -81 1725 -81 
Q 1122 -81 723 278 
Q 325 638 269 1209 
z
" transform="scale(0.015625)"/>
       </defs>
       <use xlink:href="#ArialMT-33"/>
       <use xlink:href="#ArialMT-30" x="55.615234"/>
       <use xlink:href="#ArialMT-30" x="111.230469"/>
      </g>
     </g>
    </g>
    <g id="xtick_5">
     <g id="line2d_11">
      <g>
       <use xlink:href="#me6e459c73e" x="74.156909" y="34.411801" style="stroke: #000000; stroke-width: 0.5"/>
      </g>
     </g>
     <g id="text_11">
      <!-- 400 -->
      <g transform="translate(70.820347 41.774926) scale(0.04 -0.04)">
       <defs>
        <path id="ArialMT-34" d="M 2069 0 
L 2069 1097 
L 81 1097 
L 81 1613 
L 2172 4581 
L 2631 4581 
L 2631 1613 
L 3250 1613 
L 3250 1097 
L 2631 1097 
L 2631 0 
L 2069 0 
z
M 2069 1613 
L 2069 3678 
L 634 1613 
L 2069 1613 
z
" transform="scale(0.015625)"/>
       </defs>
       <use xlink:href="#ArialMT-34"/>
       <use xlink:href="#ArialMT-30" x="55.615234"/>
       <use xlink:href="#ArialMT-30" x="111.230469"/>
      </g>
     </g>
    </g>
    <g id="xtick_6">
     <g id="line2d_12">
      <g>
       <use xlink:href="#me6e459c73e" x="87.338012" y="34.411801" style="stroke: #000000; stroke-width: 0.5"/>
      </g>
     </g>
     <g id="text_12">
      <!-- 500 -->
      <g transform="translate(84.001449 41.774926) scale(0.04 -0.04)">
       <defs>
        <path id="ArialMT-35" d="M 266 1200 
L 856 1250 
Q 922 819 1161 601 
Q 1400 384 1738 384 
Q 2144 384 2425 690 
Q 2706 997 2706 1503 
Q 2706 1984 2436 2262 
Q 2166 2541 1728 2541 
Q 1456 2541 1237 2417 
Q 1019 2294 894 2097 
L 366 2166 
L 809 4519 
L 3088 4519 
L 3088 3981 
L 1259 3981 
L 1013 2750 
Q 1425 3038 1878 3038 
Q 2478 3038 2890 2622 
Q 3303 2206 3303 1553 
Q 3303 931 2941 478 
Q 2500 -78 1738 -78 
Q 1113 -78 717 272 
Q 322 622 266 1200 
z
" transform="scale(0.015625)"/>
       </defs>
       <use xlink:href="#ArialMT-35"/>
       <use xlink:href="#ArialMT-30" x="55.615234"/>
       <use xlink:href="#ArialMT-30" x="111.230469"/>
      </g>
     </g>
    </g>
    <g id="text_13">
     <!-- Time ($s$) -->
     <g transform="translate(40.145256 49.409926) scale(0.08 -0.08)">
      <defs>
       <path id="ArialMT-54" d="M 1659 0 
L 1659 4041 
L 150 4041 
L 150 4581 
L 3781 4581 
L 3781 4041 
L 2266 4041 
L 2266 0 
L 1659 0 
z
" transform="scale(0.015625)"/>
       <path id="ArialMT-69" d="M 425 3934 
L 425 4581 
L 988 4581 
L 988 3934 
L 425 3934 
z
M 425 0 
L 425 3319 
L 988 3319 
L 988 0 
L 425 0 
z
" transform="scale(0.015625)"/>
       <path id="ArialMT-6d" d="M 422 0 
L 422 3319 
L 925 3319 
L 925 2853 
Q 1081 3097 1340 3245 
Q 1600 3394 1931 3394 
Q 2300 3394 2536 3241 
Q 2772 3088 2869 2813 
Q 3263 3394 3894 3394 
Q 4388 3394 4653 3120 
Q 4919 2847 4919 2278 
L 4919 0 
L 4359 0 
L 4359 2091 
Q 4359 2428 4304 2576 
Q 4250 2725 4106 2815 
Q 3963 2906 3769 2906 
Q 3419 2906 3187 2673 
Q 2956 2441 2956 1928 
L 2956 0 
L 2394 0 
L 2394 2156 
Q 2394 2531 2256 2718 
Q 2119 2906 1806 2906 
Q 1569 2906 1367 2781 
Q 1166 2656 1075 2415 
Q 984 2175 984 1722 
L 984 0 
L 422 0 
z
" transform="scale(0.015625)"/>
       <path id="ArialMT-65" d="M 2694 1069 
L 3275 997 
Q 3138 488 2766 206 
Q 2394 -75 1816 -75 
Q 1088 -75 661 373 
Q 234 822 234 1631 
Q 234 2469 665 2931 
Q 1097 3394 1784 3394 
Q 2450 3394 2872 2941 
Q 3294 2488 3294 1666 
Q 3294 1616 3291 1516 
L 816 1516 
Q 847 969 1125 678 
Q 1403 388 1819 388 
Q 2128 388 2347 550 
Q 2566 713 2694 1069 
z
M 847 1978 
L 2700 1978 
Q 2663 2397 2488 2606 
Q 2219 2931 1791 2931 
Q 1403 2931 1139 2672 
Q 875 2413 847 1978 
z
" transform="scale(0.015625)"/>
       <path id="ArialMT-20" transform="scale(0.015625)"/>
       <path id="ArialMT-28" d="M 1497 -1347 
Q 1031 -759 709 28 
Q 388 816 388 1659 
Q 388 2403 628 3084 
Q 909 3875 1497 4659 
L 1900 4659 
Q 1522 4009 1400 3731 
Q 1209 3300 1100 2831 
Q 966 2247 966 1656 
Q 966 153 1900 -1347 
L 1497 -1347 
z
" transform="scale(0.015625)"/>
       <path id="STIXGeneral-Italic-73" d="M 2342 2829 
L 2214 1933 
L 2112 1933 
Q 2022 2675 1542 2675 
Q 1370 2675 1267 2579 
Q 1165 2483 1165 2310 
Q 1165 2067 1510 1658 
Q 1946 1152 1946 787 
Q 1946 397 1686 163 
Q 1427 -70 1024 -70 
Q 838 -70 672 -6 
Q 538 51 390 51 
Q 262 51 205 -83 
L 102 -83 
L 230 934 
L 333 934 
Q 461 64 973 64 
Q 1203 64 1331 192 
Q 1459 320 1459 557 
Q 1459 845 1101 1293 
Q 698 1798 698 2131 
Q 698 2451 909 2636 
Q 1120 2822 1472 2822 
Q 1600 2822 1830 2758 
Q 1971 2714 2061 2714 
Q 2189 2714 2253 2829 
L 2342 2829 
z
" transform="scale(0.015625)"/>
       <path id="ArialMT-29" d="M 791 -1347 
L 388 -1347 
Q 1322 153 1322 1656 
Q 1322 2244 1188 2822 
Q 1081 3291 891 3722 
Q 769 4003 388 4659 
L 791 4659 
Q 1378 3875 1659 3084 
Q 1900 2403 1900 1659 
Q 1900 816 1576 28 
Q 1253 -759 791 -1347 
z
" transform="scale(0.015625)"/>
      </defs>
      <use xlink:href="#ArialMT-54" transform="translate(0 0.203125)"/>
      <use xlink:href="#ArialMT-69" transform="translate(61.083984 0.203125)"/>
      <use xlink:href="#ArialMT-6d" transform="translate(83.300781 0.203125)"/>
      <use xlink:href="#ArialMT-65" transform="translate(166.601562 0.203125)"/>
      <use xlink:href="#ArialMT-20" transform="translate(222.216797 0.203125)"/>
      <use xlink:href="#ArialMT-28" transform="translate(250 0.203125)"/>
      <use xlink:href="#STIXGeneral-Italic-73" transform="translate(283.300781 0.203125)"/>
      <use xlink:href="#ArialMT-29" transform="translate(322.200775 0.203125)"/>
     </g>
    </g>
   </g>
   <g id="matplotlib.axis_4">
    <g id="ytick_4">
     <g id="line2d_13">
      <g>
       <use xlink:href="#m194fbb9e9c" x="21.4325" y="33.047628" style="stroke: #000000; stroke-width: 0.5"/>
      </g>
     </g>
     <g id="text_14">
      <!-- −0.1 -->
      <g transform="translate(9.03625 34.47919) scale(0.04 -0.04)">
       <use xlink:href="#ArialMT-2212"/>
       <use xlink:href="#ArialMT-30" x="58.398438"/>
       <use xlink:href="#ArialMT-2e" x="114.013672"/>
       <use xlink:href="#ArialMT-31" x="141.796875"/>
      </g>
     </g>
    </g>
    <g id="ytick_5">
     <g id="line2d_14">
      <g>
       <use xlink:href="#m194fbb9e9c" x="21.4325" y="26.226762" style="stroke: #000000; stroke-width: 0.5"/>
      </g>
     </g>
     <g id="text_15">
      <!-- 0.0 -->
      <g transform="translate(11.3725 27.658324) scale(0.04 -0.04)">
       <use xlink:href="#ArialMT-30"/>
       <use xlink:href="#ArialMT-2e" x="55.615234"/>
       <use xlink:href="#ArialMT-30" x="83.398438"/>
      </g>
     </g>
    </g>
    <g id="ytick_6">
     <g id="line2d_15">
      <g>
       <use xlink:href="#m194fbb9e9c" x="21.4325" y="19.405896" style="stroke: #000000; stroke-width: 0.5"/>
      </g>
     </g>
     <g id="text_16">
      <!-- 0.1 -->
      <g transform="translate(11.3725 20.837458) scale(0.04 -0.04)">
       <use xlink:href="#ArialMT-30"/>
       <use xlink:href="#ArialMT-2e" x="55.615234"/>
       <use xlink:href="#ArialMT-31" x="83.398438"/>
      </g>
     </g>
    </g>
    <g id="text_17">
     <!-- $x_2(t)$ -->
     <g transform="translate(6.44625 33.386762) rotate(-90) scale(0.08 -0.08)">
      <defs>
       <path id="STIXGeneral-Regular-32" d="M 3034 877 
L 2688 0 
L 186 0 
L 186 77 
L 1325 1286 
Q 1773 1754 1965 2144 
Q 2157 2534 2157 2950 
Q 2157 3379 1920 3616 
Q 1683 3853 1267 3853 
Q 922 3853 720 3673 
Q 518 3494 326 3021 
L 192 3053 
Q 301 3648 630 3987 
Q 960 4326 1523 4326 
Q 2054 4326 2380 4006 
Q 2707 3686 2707 3200 
Q 2707 2477 1888 1613 
L 832 486 
L 2330 486 
Q 2541 486 2665 569 
Q 2790 653 2944 915 
L 3034 877 
z
" transform="scale(0.015625)"/>
      </defs>
      <use xlink:href="#STIXGeneral-Italic-78" transform="translate(0 0.40625)"/>
      <use xlink:href="#STIXGeneral-Regular-32" transform="translate(44.399994 -12.821875) scale(0.7)"/>
      <use xlink:href="#STIXGeneral-Regular-28" transform="translate(83.809358 0.40625)"/>
      <use xlink:href="#STIXGeneral-Italic-74" transform="translate(117.109346 0.40625)"/>
      <use xlink:href="#STIXGeneral-Regular-29" transform="translate(144.909334 0.40625)"/>
     </g>
    </g>
   </g>
   <g id="line2d_16">
    <path d="M 21.4325 26.38205 
L 21.672396 25.978684 
L 22.01115 25.342974 
L 22.475125 24.957314 
L 22.871876 25.166611 
L 23.180314 25.591348 
L 23.396484 25.892617 
L 23.768191 26.472437 
L 25.015124 27.670069 
L 25.357832 27.440072 
L 25.740084 26.991744 
L 25.845533 26.779322 
L 26.687806 24.684035 
L 27.167598 24.038416 
L 27.379813 24.265 
L 27.698796 24.513913 
L 27.98878 24.914168 
L 28.562158 26.19229 
L 28.746694 26.47769 
L 29.719459 28.158383 
L 30.159708 28.190681 
L 30.494508 27.806595 
L 30.903122 26.83677 
L 32.193552 23.658213 
L 32.505944 23.884444 
L 33.283629 25.660865 
L 33.996727 27.483681 
L 34.604376 28.368487 
L 34.688735 28.308608 
L 35.267385 27.762704 
L 36.228287 24.889288 
L 36.582859 24.08612 
L 36.893933 23.698689 
L 37.069242 23.716372 
L 37.181281 23.83759 
L 37.941831 25.128742 
L 38.322765 25.953472 
L 38.496755 26.308474 
L 39.507746 28.184204 
L 40.077169 27.982898 
L 40.576733 26.899024 
L 41.308284 24.780979 
L 42.010837 23.4728 
L 42.145284 23.5037 
L 42.411543 23.819377 
L 42.911106 24.917987 
L 43.442305 26.528947 
L 43.823239 27.223898 
L 44.163311 27.730949 
L 44.500747 28.059127 
L 44.712963 28.235126 
L 44.972631 28.410774 
L 45.079398 28.279156 
L 45.344338 27.7001 
L 46.692765 23.47416 
L 47.019656 23.410793 
L 47.30305 23.496774 
L 47.440133 23.62991 
L 47.66553 23.968806 
L 49.077226 27.964816 
L 49.466069 28.597789 
L 49.644013 28.627203 
L 50.223982 28.441431 
L 50.454651 28.117772 
L 51.273198 25.529891 
L 51.832076 23.749347 
L 52.181376 23.278586 
L 52.559673 23.272241 
L 52.636124 23.360171 
L 53.42699 25.4903 
L 53.850103 27.077018 
L 54.613289 28.848056 
L 55.180076 28.709647 
L 55.427881 28.351094 
L 55.778498 27.203023 
L 56.773672 23.665922 
L 57.229738 22.892252 
L 57.35364 22.949636 
L 57.47227 23.11368 
L 58.35145 25.359511 
L 59.057957 28.120981 
L 59.396711 28.801125 
L 59.651106 29.055462 
L 59.865958 29.245088 
L 59.889684 29.22935 
L 60.173078 28.92993 
L 60.289072 28.592462 
L 61.476689 24.738767 
L 62.010524 22.970203 
L 62.307098 22.4873 
L 62.456045 22.492416 
L 62.666943 22.704319 
L 62.889703 23.132377 
L 63.40772 24.881228 
L 63.662116 26.163192 
L 64.008779 27.831592 
L 64.53075 29.1929 
L 64.770646 29.466957 
L 64.980226 29.596868 
L 65.341388 29.362626 
L 65.962218 27.921617 
L 67.293509 22.461801 
L 67.514952 22.330839 
L 67.775938 22.516578 
L 67.961791 22.75456 
L 68.363815 24.100638 
L 68.810654 25.80121 
L 69.974546 29.58642 
L 70.421385 29.534838 
L 70.86427 28.806653 
L 70.986854 28.353959 
L 71.371743 26.508119 
L 72.250922 22.489682 
L 72.4895 22.150139 
L 72.670081 22.269275 
L 73.120875 23.178373 
L 75.053224 30.02385 
L 75.418341 29.821858 
L 75.853317 29.164916 
L 76.19339 28.059174 
L 77.282149 22.90909 
L 77.607722 22.127136 
L 77.852891 22.027197 
L 78.049289 22.310861 
L 78.385407 23.473446 
L 78.762387 25.052068 
L 78.908697 25.769796 
L 79.982957 29.614644 
L 80.299303 29.80505 
L 80.591924 29.967536 
L 80.706599 29.893139 
L 80.872681 29.557185 
L 81.463194 27.296088 
L 82.748352 21.763224 
L 82.926297 21.648472 
L 83.010656 21.742984 
L 83.481221 23.255863 
L 84.809876 30.306521 
L 85.149949 30.925115 
L 85.649513 31.288097 
L 86.117442 30.905832 
L 86.570872 28.785927 
L 86.829221 27.447421 
L 86.829221 27.447421 
" clip-path="url(#pb70cecfc46)" style="fill: none; stroke: #ffc000; stroke-width: 0.2; stroke-linecap: square"/>
   </g>
   <g id="line2d_17">
    <path d="M 26.881568 24.088242 
L 32.331954 23.938543 
L 37.781021 23.931569 
L 43.231407 23.730116 
L 48.680475 23.460059 
L 54.130861 23.212463 
L 59.581246 22.794328 
L 65.030314 22.546267 
L 70.4807 22.413731 
L 75.929768 22.268555 
" clip-path="url(#pb70cecfc46)" style="fill: none; stroke: #e79796; stroke-width: 0.7; stroke-linecap: square"/>
   </g>
   <g id="line2d_18">
    <path d="M 26.881568 27.382885 
L 32.331954 26.958937 
L 37.781021 26.784488 
L 43.231407 26.670445 
L 48.680475 26.821967 
L 54.130861 26.67789 
L 59.581246 26.656864 
L 65.030314 26.884797 
L 70.4807 26.848959 
L 75.929768 26.940015 
" clip-path="url(#pb70cecfc46)" style="fill: none; stroke-dasharray: 2.59,1.12; stroke-dashoffset: 0; stroke: #713948; stroke-width: 0.7"/>
   </g>
   <g id="patch_8">
    <path d="M 21.4325 34.411801 
L 21.4325 18.041722 
" style="fill: none; stroke: #000000; stroke-width: 0.2; stroke-linejoin: miter; stroke-linecap: square"/>
   </g>
   <g id="patch_9">
    <path d="M 87.338012 34.411801 
L 87.338012 18.041722 
" style="fill: none; stroke: #000000; stroke-width: 0.2; stroke-linejoin: miter; stroke-linecap: square"/>
   </g>
   <g id="patch_10">
    <path d="M 21.4325 34.411801 
L 87.338012 34.411801 
" style="fill: none; stroke: #000000; stroke-width: 0.2; stroke-linejoin: miter; stroke-linecap: square"/>
   </g>
   <g id="patch_11">
    <path d="M 21.4325 18.041722 
L 87.338012 18.041722 
" style="fill: none; stroke: #000000; stroke-width: 0.2; stroke-linejoin: miter; stroke-linecap: square"/>
   </g>
   <g id="text_18">
    <!-- $A_2$ -->
    <g style="fill: #e79796" transform="translate(25.386831 22.816329) scale(0.08 -0.08)">
     <use xlink:href="#STIXGeneral-Italic-41" transform="translate(0 0.203125)"/>
     <use xlink:href="#STIXGeneral-Regular-32" transform="translate(61.099991 -13.025) scale(0.7)"/>
    </g>
   </g>
   <g id="text_19">
    <!-- $\beta_2$ -->
    <g style="fill: #713948" transform="translate(74.156909 29.637195) scale(0.08 -0.08)">
     <use xlink:href="#STIXGeneral-Italic-3b2" transform="translate(0 0.203125)"/>
     <use xlink:href="#STIXGeneral-Regular-32" transform="translate(50.599991 -13.025) scale(0.7)"/>
    </g>
   </g>
  </g>
 </g>
 <defs>
  <clipPath id="p8132350307">
   <rect x="21.4325" y="1.671644" width="65.905512" height="16.370079"/>
  </clipPath>
  <clipPath id="pb70cecfc46">
   <rect x="21.4325" y="18.041722" width="65.905512" height="16.370079"/>
  </clipPath>
 </defs>
</svg>
