<?xml version="1.0" encoding="utf-8" standalone="no"?>
<!DOCTYPE svg PUBLIC "-//W3C//DTD SVG 1.1//EN"
  "http://www.w3.org/Graphics/SVG/1.1/DTD/svg11.dtd">
<svg xmlns:xlink="http://www.w3.org/1999/xlink" width="204.715344pt" height="71.330408pt" viewBox="0 0 204.715344 71.330408" xmlns="http://www.w3.org/2000/svg" version="1.1">
 <metadata>
  <rdf:RDF xmlns:dc="http://purl.org/dc/elements/1.1/" xmlns:cc="http://creativecommons.org/ns#" xmlns:rdf="http://www.w3.org/1999/02/22-rdf-syntax-ns#">
   <cc:Work>
    <dc:type rdf:resource="http://purl.org/dc/dcmitype/StillImage"/>
    <dc:date>2025-01-13T14:29:23.271654</dc:date>
    <dc:format>image/svg+xml</dc:format>
    <dc:creator>
     <cc:Agent>
      <dc:title>Matplotlib v3.8.0, https://matplotlib.org/</dc:title>
     </cc:Agent>
    </dc:creator>
   </cc:Work>
  </rdf:RDF>
 </metadata>
 <defs>
  <style type="text/css">*{stroke-linejoin: round; stroke-linecap: butt}</style>
 </defs>
 <g id="figure_1">
  <g id="patch_1">
   <path d="M 0 71.330408 
L 204.715344 71.330408 
L 204.715344 -0 
L 0 -0 
L 0 71.330408 
z
" style="fill: none"/>
  </g>
  <g id="axes_1">
   <g id="patch_2">
    <path d="M 24.91075 57.652283 
L 99.697146 57.652283 
L 99.697146 13.99874 
L 24.91075 13.99874 
L 24.91075 57.652283 
z
" style="fill: none"/>
   </g>
   <g id="matplotlib.axis_1">
    <g id="xtick_1">
     <g id="line2d_1">
      <defs>
       <path id="m1321204190" d="M 0 0 
L 0 1 
" style="stroke: #000000; stroke-width: 0.5"/>
      </defs>
      <g>
       <use xlink:href="#m1321204190" x="24.91075" y="57.652283" style="stroke: #000000; stroke-width: 0.5"/>
      </g>
     </g>
     <g id="text_1">
      <!-- 0 -->
      <g transform="translate(23.798563 65.015408) scale(0.04 -0.04)">
       <defs>
        <path id="ArialMT-30" d="M 266 2259 
Q 266 3072 433 3567 
Q 600 4063 929 4331 
Q 1259 4600 1759 4600 
Q 2128 4600 2406 4451 
Q 2684 4303 2865 4023 
Q 3047 3744 3150 3342 
Q 3253 2941 3253 2259 
Q 3253 1453 3087 958 
Q 2922 463 2592 192 
Q 2263 -78 1759 -78 
Q 1097 -78 719 397 
Q 266 969 266 2259 
z
M 844 2259 
Q 844 1131 1108 757 
Q 1372 384 1759 384 
Q 2147 384 2411 759 
Q 2675 1134 2675 2259 
Q 2675 3391 2411 3762 
Q 2147 4134 1753 4134 
Q 1366 4134 1134 3806 
Q 844 3388 844 2259 
z
" transform="scale(0.015625)"/>
       </defs>
       <use xlink:href="#ArialMT-30"/>
      </g>
     </g>
    </g>
    <g id="xtick_2">
     <g id="line2d_2">
      <g>
       <use xlink:href="#m1321204190" x="39.868029" y="57.652283" style="stroke: #000000; stroke-width: 0.5"/>
      </g>
     </g>
     <g id="text_2">
      <!-- 100 -->
      <g transform="translate(36.531467 65.015408) scale(0.04 -0.04)">
       <defs>
        <path id="ArialMT-31" d="M 2384 0 
L 1822 0 
L 1822 3584 
Q 1619 3391 1289 3197 
Q 959 3003 697 2906 
L 697 3450 
Q 1169 3672 1522 3987 
Q 1875 4303 2022 4600 
L 2384 4600 
L 2384 0 
z
" transform="scale(0.015625)"/>
       </defs>
       <use xlink:href="#ArialMT-31"/>
       <use xlink:href="#ArialMT-30" x="55.615234"/>
       <use xlink:href="#ArialMT-30" x="111.230469"/>
      </g>
     </g>
    </g>
    <g id="xtick_3">
     <g id="line2d_3">
      <g>
       <use xlink:href="#m1321204190" x="54.825309" y="57.652283" style="stroke: #000000; stroke-width: 0.5"/>
      </g>
     </g>
     <g id="text_3">
      <!-- 200 -->
      <g transform="translate(51.488746 65.015408) scale(0.04 -0.04)">
       <defs>
        <path id="ArialMT-32" d="M 3222 541 
L 3222 0 
L 194 0 
Q 188 203 259 391 
Q 375 700 629 1000 
Q 884 1300 1366 1694 
Q 2113 2306 2375 2664 
Q 2638 3022 2638 3341 
Q 2638 3675 2398 3904 
Q 2159 4134 1775 4134 
Q 1369 4134 1125 3890 
Q 881 3647 878 3216 
L 300 3275 
Q 359 3922 746 4261 
Q 1134 4600 1788 4600 
Q 2447 4600 2831 4234 
Q 3216 3869 3216 3328 
Q 3216 3053 3103 2787 
Q 2991 2522 2730 2228 
Q 2469 1934 1863 1422 
Q 1356 997 1212 845 
Q 1069 694 975 541 
L 3222 541 
z
" transform="scale(0.015625)"/>
       </defs>
       <use xlink:href="#ArialMT-32"/>
       <use xlink:href="#ArialMT-30" x="55.615234"/>
       <use xlink:href="#ArialMT-30" x="111.230469"/>
      </g>
     </g>
    </g>
    <g id="xtick_4">
     <g id="line2d_4">
      <g>
       <use xlink:href="#m1321204190" x="69.782588" y="57.652283" style="stroke: #000000; stroke-width: 0.5"/>
      </g>
     </g>
     <g id="text_4">
      <!-- 300 -->
      <g transform="translate(66.446025 65.015408) scale(0.04 -0.04)">
       <defs>
        <path id="ArialMT-33" d="M 269 1209 
L 831 1284 
Q 928 806 1161 595 
Q 1394 384 1728 384 
Q 2125 384 2398 659 
Q 2672 934 2672 1341 
Q 2672 1728 2419 1979 
Q 2166 2231 1775 2231 
Q 1616 2231 1378 2169 
L 1441 2663 
Q 1497 2656 1531 2656 
Q 1891 2656 2178 2843 
Q 2466 3031 2466 3422 
Q 2466 3731 2256 3934 
Q 2047 4138 1716 4138 
Q 1388 4138 1169 3931 
Q 950 3725 888 3313 
L 325 3413 
Q 428 3978 793 4289 
Q 1159 4600 1703 4600 
Q 2078 4600 2393 4439 
Q 2709 4278 2876 4000 
Q 3044 3722 3044 3409 
Q 3044 3113 2884 2869 
Q 2725 2625 2413 2481 
Q 2819 2388 3044 2092 
Q 3269 1797 3269 1353 
Q 3269 753 2831 336 
Q 2394 -81 1725 -81 
Q 1122 -81 723 278 
Q 325 638 269 1209 
z
" transform="scale(0.015625)"/>
       </defs>
       <use xlink:href="#ArialMT-33"/>
       <use xlink:href="#ArialMT-30" x="55.615234"/>
       <use xlink:href="#ArialMT-30" x="111.230469"/>
      </g>
     </g>
    </g>
    <g id="xtick_5">
     <g id="line2d_5">
      <g>
       <use xlink:href="#m1321204190" x="84.739867" y="57.652283" style="stroke: #000000; stroke-width: 0.5"/>
      </g>
     </g>
     <g id="text_5">
      <!-- 400 -->
      <g transform="translate(81.403305 65.015408) scale(0.04 -0.04)">
       <defs>
        <path id="ArialMT-34" d="M 2069 0 
L 2069 1097 
L 81 1097 
L 81 1613 
L 2172 4581 
L 2631 4581 
L 2631 1613 
L 3250 1613 
L 3250 1097 
L 2631 1097 
L 2631 0 
L 2069 0 
z
M 2069 1613 
L 2069 3678 
L 634 1613 
L 2069 1613 
z
" transform="scale(0.015625)"/>
       </defs>
       <use xlink:href="#ArialMT-34"/>
       <use xlink:href="#ArialMT-30" x="55.615234"/>
       <use xlink:href="#ArialMT-30" x="111.230469"/>
      </g>
     </g>
    </g>
    <g id="xtick_6">
     <g id="line2d_6">
      <g>
       <use xlink:href="#m1321204190" x="99.697146" y="57.652283" style="stroke: #000000; stroke-width: 0.5"/>
      </g>
     </g>
     <g id="text_6">
      <!-- 500 -->
      <g transform="translate(96.360584 65.015408) scale(0.04 -0.04)">
       <defs>
        <path id="ArialMT-35" d="M 266 1200 
L 856 1250 
Q 922 819 1161 601 
Q 1400 384 1738 384 
Q 2144 384 2425 690 
Q 2706 997 2706 1503 
Q 2706 1984 2436 2262 
Q 2166 2541 1728 2541 
Q 1456 2541 1237 2417 
Q 1019 2294 894 2097 
L 366 2166 
L 809 4519 
L 3088 4519 
L 3088 3981 
L 1259 3981 
L 1013 2750 
Q 1425 3038 1878 3038 
Q 2478 3038 2890 2622 
Q 3303 2206 3303 1553 
Q 3303 931 2941 478 
Q 2500 -78 1738 -78 
Q 1113 -78 717 272 
Q 322 622 266 1200 
z
" transform="scale(0.015625)"/>
       </defs>
       <use xlink:href="#ArialMT-35"/>
       <use xlink:href="#ArialMT-30" x="55.615234"/>
       <use xlink:href="#ArialMT-30" x="111.230469"/>
      </g>
     </g>
    </g>
    <g id="text_7">
     <!-- Time (s) -->
     <g transform="translate(55.047386 69.722283) scale(0.04 -0.04)">
      <defs>
       <path id="ArialMT-54" d="M 1659 0 
L 1659 4041 
L 150 4041 
L 150 4581 
L 3781 4581 
L 3781 4041 
L 2266 4041 
L 2266 0 
L 1659 0 
z
" transform="scale(0.015625)"/>
       <path id="ArialMT-69" d="M 425 3934 
L 425 4581 
L 988 4581 
L 988 3934 
L 425 3934 
z
M 425 0 
L 425 3319 
L 988 3319 
L 988 0 
L 425 0 
z
" transform="scale(0.015625)"/>
       <path id="ArialMT-6d" d="M 422 0 
L 422 3319 
L 925 3319 
L 925 2853 
Q 1081 3097 1340 3245 
Q 1600 3394 1931 3394 
Q 2300 3394 2536 3241 
Q 2772 3088 2869 2813 
Q 3263 3394 3894 3394 
Q 4388 3394 4653 3120 
Q 4919 2847 4919 2278 
L 4919 0 
L 4359 0 
L 4359 2091 
Q 4359 2428 4304 2576 
Q 4250 2725 4106 2815 
Q 3963 2906 3769 2906 
Q 3419 2906 3187 2673 
Q 2956 2441 2956 1928 
L 2956 0 
L 2394 0 
L 2394 2156 
Q 2394 2531 2256 2718 
Q 2119 2906 1806 2906 
Q 1569 2906 1367 2781 
Q 1166 2656 1075 2415 
Q 984 2175 984 1722 
L 984 0 
L 422 0 
z
" transform="scale(0.015625)"/>
       <path id="ArialMT-65" d="M 2694 1069 
L 3275 997 
Q 3138 488 2766 206 
Q 2394 -75 1816 -75 
Q 1088 -75 661 373 
Q 234 822 234 1631 
Q 234 2469 665 2931 
Q 1097 3394 1784 3394 
Q 2450 3394 2872 2941 
Q 3294 2488 3294 1666 
Q 3294 1616 3291 1516 
L 816 1516 
Q 847 969 1125 678 
Q 1403 388 1819 388 
Q 2128 388 2347 550 
Q 2566 713 2694 1069 
z
M 847 1978 
L 2700 1978 
Q 2663 2397 2488 2606 
Q 2219 2931 1791 2931 
Q 1403 2931 1139 2672 
Q 875 2413 847 1978 
z
" transform="scale(0.015625)"/>
       <path id="ArialMT-20" transform="scale(0.015625)"/>
       <path id="ArialMT-28" d="M 1497 -1347 
Q 1031 -759 709 28 
Q 388 816 388 1659 
Q 388 2403 628 3084 
Q 909 3875 1497 4659 
L 1900 4659 
Q 1522 4009 1400 3731 
Q 1209 3300 1100 2831 
Q 966 2247 966 1656 
Q 966 153 1900 -1347 
L 1497 -1347 
z
" transform="scale(0.015625)"/>
       <path id="ArialMT-73" d="M 197 991 
L 753 1078 
Q 800 744 1014 566 
Q 1228 388 1613 388 
Q 2000 388 2187 545 
Q 2375 703 2375 916 
Q 2375 1106 2209 1216 
Q 2094 1291 1634 1406 
Q 1016 1563 777 1677 
Q 538 1791 414 1992 
Q 291 2194 291 2438 
Q 291 2659 392 2848 
Q 494 3038 669 3163 
Q 800 3259 1026 3326 
Q 1253 3394 1513 3394 
Q 1903 3394 2198 3281 
Q 2494 3169 2634 2976 
Q 2775 2784 2828 2463 
L 2278 2388 
Q 2241 2644 2061 2787 
Q 1881 2931 1553 2931 
Q 1166 2931 1000 2803 
Q 834 2675 834 2503 
Q 834 2394 903 2306 
Q 972 2216 1119 2156 
Q 1203 2125 1616 2013 
Q 2213 1853 2448 1751 
Q 2684 1650 2818 1456 
Q 2953 1263 2953 975 
Q 2953 694 2789 445 
Q 2625 197 2315 61 
Q 2006 -75 1616 -75 
Q 969 -75 630 194 
Q 291 463 197 991 
z
" transform="scale(0.015625)"/>
       <path id="ArialMT-29" d="M 791 -1347 
L 388 -1347 
Q 1322 153 1322 1656 
Q 1322 2244 1188 2822 
Q 1081 3291 891 3722 
Q 769 4003 388 4659 
L 791 4659 
Q 1378 3875 1659 3084 
Q 1900 2403 1900 1659 
Q 1900 816 1576 28 
Q 1253 -759 791 -1347 
z
" transform="scale(0.015625)"/>
      </defs>
      <use xlink:href="#ArialMT-54"/>
      <use xlink:href="#ArialMT-69" x="57.333984"/>
      <use xlink:href="#ArialMT-6d" x="79.550781"/>
      <use xlink:href="#ArialMT-65" x="162.851562"/>
      <use xlink:href="#ArialMT-20" x="218.466797"/>
      <use xlink:href="#ArialMT-28" x="246.25"/>
      <use xlink:href="#ArialMT-73" x="279.550781"/>
      <use xlink:href="#ArialMT-29" x="329.550781"/>
     </g>
    </g>
   </g>
   <g id="matplotlib.axis_2">
    <g id="ytick_1">
     <g id="line2d_7">
      <defs>
       <path id="m9380776338" d="M 0 0 
L -1 0 
" style="stroke: #000000; stroke-width: 0.5"/>
      </defs>
      <g>
       <use xlink:href="#m9380776338" x="24.91075" y="55.668031" style="stroke: #000000; stroke-width: 0.5"/>
      </g>
     </g>
     <g id="text_8">
      <!-- −0.10 -->
      <g transform="translate(10.290125 57.099594) scale(0.04 -0.04)">
       <defs>
        <path id="ArialMT-2212" d="M 3381 1997 
L 356 1997 
L 356 2522 
L 3381 2522 
L 3381 1997 
z
" transform="scale(0.015625)"/>
        <path id="ArialMT-2e" d="M 581 0 
L 581 641 
L 1222 641 
L 1222 0 
L 581 0 
z
" transform="scale(0.015625)"/>
       </defs>
       <use xlink:href="#ArialMT-2212"/>
       <use xlink:href="#ArialMT-30" x="58.398438"/>
       <use xlink:href="#ArialMT-2e" x="114.013672"/>
       <use xlink:href="#ArialMT-31" x="141.796875"/>
       <use xlink:href="#ArialMT-30" x="197.412109"/>
      </g>
     </g>
    </g>
    <g id="ytick_2">
     <g id="line2d_8">
      <g>
       <use xlink:href="#m9380776338" x="24.91075" y="45.746772" style="stroke: #000000; stroke-width: 0.5"/>
      </g>
     </g>
     <g id="text_9">
      <!-- −0.05 -->
      <g transform="translate(10.290125 47.178334) scale(0.04 -0.04)">
       <use xlink:href="#ArialMT-2212"/>
       <use xlink:href="#ArialMT-30" x="58.398438"/>
       <use xlink:href="#ArialMT-2e" x="114.013672"/>
       <use xlink:href="#ArialMT-30" x="141.796875"/>
       <use xlink:href="#ArialMT-35" x="197.412109"/>
      </g>
     </g>
    </g>
    <g id="ytick_3">
     <g id="line2d_9">
      <g>
       <use xlink:href="#m9380776338" x="24.91075" y="35.825512" style="stroke: #000000; stroke-width: 0.5"/>
      </g>
     </g>
     <g id="text_10">
      <!-- 0.00 -->
      <g transform="translate(12.626375 37.257074) scale(0.04 -0.04)">
       <use xlink:href="#ArialMT-30"/>
       <use xlink:href="#ArialMT-2e" x="55.615234"/>
       <use xlink:href="#ArialMT-30" x="83.398438"/>
       <use xlink:href="#ArialMT-30" x="139.013672"/>
      </g>
     </g>
    </g>
    <g id="ytick_4">
     <g id="line2d_10">
      <g>
       <use xlink:href="#m9380776338" x="24.91075" y="25.904252" style="stroke: #000000; stroke-width: 0.5"/>
      </g>
     </g>
     <g id="text_11">
      <!-- 0.05 -->
      <g transform="translate(12.626375 27.335814) scale(0.04 -0.04)">
       <use xlink:href="#ArialMT-30"/>
       <use xlink:href="#ArialMT-2e" x="55.615234"/>
       <use xlink:href="#ArialMT-30" x="83.398438"/>
       <use xlink:href="#ArialMT-35" x="139.013672"/>
      </g>
     </g>
    </g>
    <g id="ytick_5">
     <g id="line2d_11">
      <g>
       <use xlink:href="#m9380776338" x="24.91075" y="15.982992" style="stroke: #000000; stroke-width: 0.5"/>
      </g>
     </g>
     <g id="text_12">
      <!-- 0.10 -->
      <g transform="translate(12.626375 17.414555) scale(0.04 -0.04)">
       <use xlink:href="#ArialMT-30"/>
       <use xlink:href="#ArialMT-2e" x="55.615234"/>
       <use xlink:href="#ArialMT-31" x="83.398438"/>
       <use xlink:href="#ArialMT-30" x="139.013672"/>
      </g>
     </g>
    </g>
    <g id="text_13">
     <!-- Fast NADH fluorescence -->
     <g transform="translate(3.583125 57.832387) rotate(-90) scale(0.04 -0.04)">
      <defs>
       <path id="ArialMT-46" d="M 525 0 
L 525 4581 
L 3616 4581 
L 3616 4041 
L 1131 4041 
L 1131 2622 
L 3281 2622 
L 3281 2081 
L 1131 2081 
L 1131 0 
L 525 0 
z
" transform="scale(0.015625)"/>
       <path id="ArialMT-61" d="M 2588 409 
Q 2275 144 1986 34 
Q 1697 -75 1366 -75 
Q 819 -75 525 192 
Q 231 459 231 875 
Q 231 1119 342 1320 
Q 453 1522 633 1644 
Q 813 1766 1038 1828 
Q 1203 1872 1538 1913 
Q 2219 1994 2541 2106 
Q 2544 2222 2544 2253 
Q 2544 2597 2384 2738 
Q 2169 2928 1744 2928 
Q 1347 2928 1158 2789 
Q 969 2650 878 2297 
L 328 2372 
Q 403 2725 575 2942 
Q 747 3159 1072 3276 
Q 1397 3394 1825 3394 
Q 2250 3394 2515 3294 
Q 2781 3194 2906 3042 
Q 3031 2891 3081 2659 
Q 3109 2516 3109 2141 
L 3109 1391 
Q 3109 606 3145 398 
Q 3181 191 3288 0 
L 2700 0 
Q 2613 175 2588 409 
z
M 2541 1666 
Q 2234 1541 1622 1453 
Q 1275 1403 1131 1340 
Q 988 1278 909 1158 
Q 831 1038 831 891 
Q 831 666 1001 516 
Q 1172 366 1500 366 
Q 1825 366 2078 508 
Q 2331 650 2450 897 
Q 2541 1088 2541 1459 
L 2541 1666 
z
" transform="scale(0.015625)"/>
       <path id="ArialMT-74" d="M 1650 503 
L 1731 6 
Q 1494 -44 1306 -44 
Q 1000 -44 831 53 
Q 663 150 594 308 
Q 525 466 525 972 
L 525 2881 
L 113 2881 
L 113 3319 
L 525 3319 
L 525 4141 
L 1084 4478 
L 1084 3319 
L 1650 3319 
L 1650 2881 
L 1084 2881 
L 1084 941 
Q 1084 700 1114 631 
Q 1144 563 1211 522 
Q 1278 481 1403 481 
Q 1497 481 1650 503 
z
" transform="scale(0.015625)"/>
       <path id="ArialMT-4e" d="M 488 0 
L 488 4581 
L 1109 4581 
L 3516 984 
L 3516 4581 
L 4097 4581 
L 4097 0 
L 3475 0 
L 1069 3600 
L 1069 0 
L 488 0 
z
" transform="scale(0.015625)"/>
       <path id="ArialMT-41" d="M -9 0 
L 1750 4581 
L 2403 4581 
L 4278 0 
L 3588 0 
L 3053 1388 
L 1138 1388 
L 634 0 
L -9 0 
z
M 1313 1881 
L 2866 1881 
L 2388 3150 
Q 2169 3728 2063 4100 
Q 1975 3659 1816 3225 
L 1313 1881 
z
" transform="scale(0.015625)"/>
       <path id="ArialMT-44" d="M 494 0 
L 494 4581 
L 2072 4581 
Q 2606 4581 2888 4516 
Q 3281 4425 3559 4188 
Q 3922 3881 4101 3404 
Q 4281 2928 4281 2316 
Q 4281 1794 4159 1391 
Q 4038 988 3847 723 
Q 3656 459 3429 307 
Q 3203 156 2883 78 
Q 2563 0 2147 0 
L 494 0 
z
M 1100 541 
L 2078 541 
Q 2531 541 2789 625 
Q 3047 709 3200 863 
Q 3416 1078 3536 1442 
Q 3656 1806 3656 2325 
Q 3656 3044 3420 3430 
Q 3184 3816 2847 3947 
Q 2603 4041 2063 4041 
L 1100 4041 
L 1100 541 
z
" transform="scale(0.015625)"/>
       <path id="ArialMT-48" d="M 513 0 
L 513 4581 
L 1119 4581 
L 1119 2700 
L 3500 2700 
L 3500 4581 
L 4106 4581 
L 4106 0 
L 3500 0 
L 3500 2159 
L 1119 2159 
L 1119 0 
L 513 0 
z
" transform="scale(0.015625)"/>
       <path id="ArialMT-66" d="M 556 0 
L 556 2881 
L 59 2881 
L 59 3319 
L 556 3319 
L 556 3672 
Q 556 4006 616 4169 
Q 697 4388 901 4523 
Q 1106 4659 1475 4659 
Q 1713 4659 2000 4603 
L 1916 4113 
Q 1741 4144 1584 4144 
Q 1328 4144 1222 4034 
Q 1116 3925 1116 3625 
L 1116 3319 
L 1763 3319 
L 1763 2881 
L 1116 2881 
L 1116 0 
L 556 0 
z
" transform="scale(0.015625)"/>
       <path id="ArialMT-6c" d="M 409 0 
L 409 4581 
L 972 4581 
L 972 0 
L 409 0 
z
" transform="scale(0.015625)"/>
       <path id="ArialMT-75" d="M 2597 0 
L 2597 488 
Q 2209 -75 1544 -75 
Q 1250 -75 995 37 
Q 741 150 617 320 
Q 494 491 444 738 
Q 409 903 409 1263 
L 409 3319 
L 972 3319 
L 972 1478 
Q 972 1038 1006 884 
Q 1059 663 1231 536 
Q 1403 409 1656 409 
Q 1909 409 2131 539 
Q 2353 669 2445 892 
Q 2538 1116 2538 1541 
L 2538 3319 
L 3100 3319 
L 3100 0 
L 2597 0 
z
" transform="scale(0.015625)"/>
       <path id="ArialMT-6f" d="M 213 1659 
Q 213 2581 725 3025 
Q 1153 3394 1769 3394 
Q 2453 3394 2887 2945 
Q 3322 2497 3322 1706 
Q 3322 1066 3130 698 
Q 2938 331 2570 128 
Q 2203 -75 1769 -75 
Q 1072 -75 642 372 
Q 213 819 213 1659 
z
M 791 1659 
Q 791 1022 1069 705 
Q 1347 388 1769 388 
Q 2188 388 2466 706 
Q 2744 1025 2744 1678 
Q 2744 2294 2464 2611 
Q 2184 2928 1769 2928 
Q 1347 2928 1069 2612 
Q 791 2297 791 1659 
z
" transform="scale(0.015625)"/>
       <path id="ArialMT-72" d="M 416 0 
L 416 3319 
L 922 3319 
L 922 2816 
Q 1116 3169 1280 3281 
Q 1444 3394 1641 3394 
Q 1925 3394 2219 3213 
L 2025 2691 
Q 1819 2813 1613 2813 
Q 1428 2813 1281 2702 
Q 1134 2591 1072 2394 
Q 978 2094 978 1738 
L 978 0 
L 416 0 
z
" transform="scale(0.015625)"/>
       <path id="ArialMT-63" d="M 2588 1216 
L 3141 1144 
Q 3050 572 2676 248 
Q 2303 -75 1759 -75 
Q 1078 -75 664 370 
Q 250 816 250 1647 
Q 250 2184 428 2587 
Q 606 2991 970 3192 
Q 1334 3394 1763 3394 
Q 2303 3394 2647 3120 
Q 2991 2847 3088 2344 
L 2541 2259 
Q 2463 2594 2264 2762 
Q 2066 2931 1784 2931 
Q 1359 2931 1093 2626 
Q 828 2322 828 1663 
Q 828 994 1084 691 
Q 1341 388 1753 388 
Q 2084 388 2306 591 
Q 2528 794 2588 1216 
z
" transform="scale(0.015625)"/>
       <path id="ArialMT-6e" d="M 422 0 
L 422 3319 
L 928 3319 
L 928 2847 
Q 1294 3394 1984 3394 
Q 2284 3394 2536 3286 
Q 2788 3178 2913 3003 
Q 3038 2828 3088 2588 
Q 3119 2431 3119 2041 
L 3119 0 
L 2556 0 
L 2556 2019 
Q 2556 2363 2490 2533 
Q 2425 2703 2258 2804 
Q 2091 2906 1866 2906 
Q 1506 2906 1245 2678 
Q 984 2450 984 1813 
L 984 0 
L 422 0 
z
" transform="scale(0.015625)"/>
      </defs>
      <use xlink:href="#ArialMT-46"/>
      <use xlink:href="#ArialMT-61" x="61.083984"/>
      <use xlink:href="#ArialMT-73" x="116.699219"/>
      <use xlink:href="#ArialMT-74" x="166.699219"/>
      <use xlink:href="#ArialMT-20" x="194.482422"/>
      <use xlink:href="#ArialMT-4e" x="222.265625"/>
      <use xlink:href="#ArialMT-41" x="294.482422"/>
      <use xlink:href="#ArialMT-44" x="361.181641"/>
      <use xlink:href="#ArialMT-48" x="433.398438"/>
      <use xlink:href="#ArialMT-20" x="505.615234"/>
      <use xlink:href="#ArialMT-66" x="533.398438"/>
      <use xlink:href="#ArialMT-6c" x="561.181641"/>
      <use xlink:href="#ArialMT-75" x="583.398438"/>
      <use xlink:href="#ArialMT-6f" x="639.013672"/>
      <use xlink:href="#ArialMT-72" x="694.628906"/>
      <use xlink:href="#ArialMT-65" x="727.929688"/>
      <use xlink:href="#ArialMT-73" x="783.544922"/>
      <use xlink:href="#ArialMT-63" x="833.544922"/>
      <use xlink:href="#ArialMT-65" x="883.544922"/>
      <use xlink:href="#ArialMT-6e" x="939.160156"/>
      <use xlink:href="#ArialMT-63" x="994.775391"/>
      <use xlink:href="#ArialMT-65" x="1044.775391"/>
     </g>
     <!-- $\times 10^{-6}$ (counts) -->
     <g transform="translate(8.410125 48.665512) rotate(-90) scale(0.04 -0.04)">
      <defs>
       <path id="STIXGeneral-Regular-d7" d="M 3821 141 
L 3526 -160 
L 2048 1312 
L 570 -160 
L 275 134 
L 1747 1613 
L 275 3091 
L 576 3386 
L 2048 1914 
L 3526 3386 
L 3821 3098 
L 2349 1613 
L 3821 141 
z
" transform="scale(0.015625)"/>
       <path id="STIXGeneral-Regular-31" d="M 2522 0 
L 755 0 
L 755 96 
Q 1107 115 1235 227 
Q 1363 339 1363 608 
L 1363 3482 
Q 1363 3795 1171 3795 
Q 1082 3795 883 3718 
L 710 3654 
L 710 3744 
L 1856 4326 
L 1914 4307 
L 1914 486 
Q 1914 275 2042 185 
Q 2170 96 2522 96 
L 2522 0 
z
" transform="scale(0.015625)"/>
       <path id="STIXGeneral-Regular-30" d="M 3046 2112 
Q 3046 1683 2963 1302 
Q 2880 922 2717 602 
Q 2554 282 2266 96 
Q 1978 -90 1600 -90 
Q 1210 -90 915 108 
Q 621 307 461 640 
Q 301 973 227 1350 
Q 154 1728 154 2150 
Q 154 2746 301 3222 
Q 448 3699 790 4012 
Q 1133 4326 1626 4326 
Q 2253 4326 2649 3712 
Q 3046 3098 3046 2112 
z
M 2432 2080 
Q 2432 3091 2217 3625 
Q 2003 4160 1587 4160 
Q 1190 4160 979 3622 
Q 768 3085 768 2106 
Q 768 1120 979 598 
Q 1190 77 1600 77 
Q 2003 77 2217 598 
Q 2432 1120 2432 2080 
z
" transform="scale(0.015625)"/>
       <path id="STIXGeneral-Regular-2212" d="M 3974 1408 
L 410 1408 
L 410 1830 
L 3974 1830 
L 3974 1408 
z
" transform="scale(0.015625)"/>
       <path id="STIXGeneral-Regular-36" d="M 2854 4378 
L 2867 4275 
Q 2112 4154 1606 3664 
Q 1101 3174 973 2451 
Q 1344 2739 1786 2739 
Q 2349 2739 2672 2380 
Q 2995 2022 2995 1402 
Q 2995 774 2669 378 
Q 2291 -90 1651 -90 
Q 870 -90 518 557 
Q 218 1107 218 1786 
Q 218 2835 915 3552 
Q 1312 3962 1731 4131 
Q 2150 4301 2854 4378 
z
M 2419 1203 
Q 2419 2445 1555 2445 
Q 1235 2445 1024 2275 
Q 813 2106 813 1702 
Q 813 954 1046 522 
Q 1280 90 1722 90 
Q 2061 90 2240 394 
Q 2419 698 2419 1203 
z
" transform="scale(0.015625)"/>
      </defs>
      <use xlink:href="#STIXGeneral-Regular-d7" transform="translate(0 0.840625)"/>
      <use xlink:href="#STIXGeneral-Regular-31" transform="translate(63.999985 0.840625)"/>
      <use xlink:href="#STIXGeneral-Regular-30" transform="translate(113.999969 0.840625)"/>
      <use xlink:href="#STIXGeneral-Regular-2212" transform="translate(165.543235 36.115625) scale(0.7)"/>
      <use xlink:href="#STIXGeneral-Regular-36" transform="translate(213.493225 36.115625) scale(0.7)"/>
      <use xlink:href="#ArialMT-20" transform="translate(252.902589 0.840625)"/>
      <use xlink:href="#ArialMT-28" transform="translate(280.685792 0.840625)"/>
      <use xlink:href="#ArialMT-63" transform="translate(313.986573 0.840625)"/>
      <use xlink:href="#ArialMT-6f" transform="translate(363.986573 0.840625)"/>
      <use xlink:href="#ArialMT-75" transform="translate(419.601808 0.840625)"/>
      <use xlink:href="#ArialMT-6e" transform="translate(475.217042 0.840625)"/>
      <use xlink:href="#ArialMT-74" transform="translate(530.832277 0.840625)"/>
      <use xlink:href="#ArialMT-73" transform="translate(558.61548 0.840625)"/>
      <use xlink:href="#ArialMT-29" transform="translate(608.61548 0.840625)"/>
     </g>
    </g>
   </g>
   <g id="line2d_12">
    <path d="M 24.91075 23.029499 
L 25.11716 24.151087 
L 25.664597 29.629974 
L 26.591948 43.219337 
L 26.910538 46.313165 
L 27.260539 48.313867 
L 27.372718 48.609924 
L 27.447505 48.520212 
L 27.621009 48.059737 
L 27.988958 45.37229 
L 28.890882 34.672609 
L 29.48319 26.449317 
L 29.78084 23.562736 
L 30.011182 22.480162 
L 30.024644 22.493561 
L 30.228063 22.871388 
L 30.512251 24.818569 
L 30.905628 28.6091 
L 31.49644 36.830844 
L 32.028919 44.014639 
L 32.440244 47.594284 
L 32.655629 48.355261 
L 32.866527 48.302149 
L 33.237467 46.836948 
L 33.52016 44.245111 
L 33.717596 41.754765 
L 34.263537 34.65816 
L 35.119093 23.94526 
L 35.463111 22.715134 
L 35.542384 22.880643 
L 35.720376 23.617721 
L 36.276787 28.78296 
L 37.208625 40.641885 
L 38.047728 48.04987 
L 38.10307 48.169478 
L 38.186831 48.106376 
L 38.372301 47.781952 
L 38.66696 46.477129 
L 39.229353 41.431628 
L 40.512688 24.692277 
L 40.864184 22.985253 
L 40.916535 22.87349 
L 40.979355 22.993704 
L 41.191748 23.761238 
L 41.538757 26.556768 
L 43.324657 46.849921 
L 43.559486 47.852755 
L 43.740469 47.966496 
L 43.788332 47.85524 
L 44.03064 46.871244 
L 44.495811 43.5476 
L 46.04389 24.53152 
L 46.429788 23.211752 
L 46.546454 23.155628 
L 46.583848 23.251874 
L 46.82466 24.340647 
L 47.253934 28.225832 
L 47.575515 32.470386 
L 48.013764 38.33554 
L 48.641969 45.129397 
L 49.123594 47.586113 
L 49.189406 47.752055 
L 49.274662 47.709361 
L 49.415261 47.500004 
L 49.765261 45.761371 
L 50.48321 38.309295 
L 51.596032 25.174671 
L 51.871246 23.565659 
L 51.998383 23.242666 
L 52.059708 23.375818 
L 52.275092 24.253116 
L 52.832999 28.792952 
L 54.316761 45.753632 
L 54.811847 47.662983 
L 54.991334 47.611482 
L 55.193258 46.930126 
L 55.553728 44.262688 
L 56.457148 34.219393 
L 57.103302 26.511627 
L 57.626807 23.426974 
L 57.700098 23.51943 
L 57.887064 24.005734 
L 58.204158 26.115823 
L 58.920612 33.83928 
L 59.922749 45.1604 
L 60.441767 47.410473 
L 60.661639 47.202945 
L 60.914417 46.212515 
L 61.23899 43.776569 
L 62.475957 29.654869 
L 62.782581 26.600111 
L 63.152026 23.964396 
L 63.356941 23.668249 
L 63.47959 23.781016 
L 63.712924 24.752004 
L 64.065916 27.84772 
L 65.15331 40.716407 
L 65.59455 45.20744 
L 65.974465 47.097314 
L 66.083653 47.282802 
L 66.155448 47.240226 
L 66.309508 47.003896 
L 66.761217 44.984306 
L 66.91079 43.850244 
L 67.363996 39.572591 
L 68.741561 24.956399 
L 69.060151 23.734185 
L 69.072117 23.751018 
L 69.283015 24.278702 
L 69.641989 26.701372 
L 71.197546 44.111335 
L 71.698615 46.872642 
L 71.905026 47.070331 
L 71.978316 46.967885 
L 72.151821 46.521166 
L 72.597548 44.252936 
L 72.984941 40.454679 
L 74.015498 28.480396 
L 74.513575 24.62421 
L 74.863576 24.030334 
L 74.880029 24.074338 
L 75.140285 25.268483 
L 75.515713 28.384805 
L 77.110159 45.421111 
L 77.392852 46.599286 
L 77.51251 46.859389 
L 77.591783 46.814512 
L 77.793707 46.551032 
L 77.955245 45.968716 
L 78.472767 42.512451 
L 80.046273 26.173608 
L 80.364863 24.5599 
L 80.493496 24.231111 
L 80.583239 24.296721 
L 80.725333 24.559311 
L 81.009522 26.287223 
L 81.166573 27.805306 
L 81.79777 34.519957 
L 82.265933 39.858929 
L 83.102045 46.369478 
L 83.269567 46.562144 
L 83.336874 46.549514 
L 83.36978 46.496729 
L 83.613584 45.849384 
L 83.890294 44.436775 
L 84.575337 39.428107 
L 85.160167 32.387546 
L 85.475765 28.959144 
L 85.930467 25.299081 
L 86.202689 24.621575 
L 86.298416 24.537035 
L 86.344783 24.630734 
L 86.60504 25.559024 
L 86.857818 27.283309 
L 87.578759 35.034576 
L 88.236879 42.801191 
L 88.93688 46.353197 
L 89.002692 46.318645 
L 89.191153 46.064523 
L 89.538162 44.714371 
L 90.609103 36.007617 
L 91.131113 29.86596 
L 91.555899 26.119904 
L 91.844575 24.863853 
L 91.959746 24.702986 
L 92.016583 24.728097 
L 92.158678 24.914471 
L 92.490729 26.380129 
L 92.884106 30.442708 
L 93.34479 35.70474 
L 94.270645 44.381623 
L 94.717868 46.202323 
L 94.7418 46.242495 
L 94.810603 46.144292 
L 95.100774 45.415132 
L 95.331117 44.309068 
L 96.233041 37.06322 
L 97.218725 26.962546 
L 97.701845 24.78481 
L 97.73176 24.752065 
L 97.787102 24.854343 
L 98.036888 25.680602 
L 98.330051 27.492193 
L 99.119795 36.663696 
L 99.119795 36.663696 
" clip-path="url(#p49b372f906)" style="fill: none; stroke: #a9d18e; stroke-width: 0.25; stroke-linecap: square"/>
   </g>
   <g id="line2d_13">
    <path d="M 27.154342 47.949067 
L 27.434043 48.944906 
L 27.546223 48.956196 
L 27.570154 48.929308 
L 27.71524 48.547916 
L 27.947078 47.194092 
L 28.306052 43.571709 
L 29.026993 33.445763 
L 29.706054 25.273871 
L 30.060541 23.212021 
L 30.250499 22.961264 
L 30.260969 22.96571 
L 30.380627 23.152174 
L 30.57208 23.957794 
L 30.86973 26.333178 
L 31.354346 32.29295 
L 32.485116 46.502038 
L 32.826142 48.291143 
L 32.998151 48.475206 
L 33.014604 48.466408 
L 33.140245 48.247378 
L 33.342168 47.347544 
L 33.65328 44.778244 
L 34.170802 38.329341 
L 35.198367 25.56919 
L 35.55435 23.575675 
L 35.747299 23.334358 
L 35.754777 23.337522 
L 35.875931 23.519072 
L 36.06888 24.303858 
L 36.36653 26.598236 
L 36.84965 32.340031 
L 37.996874 46.314651 
L 38.336404 48.022906 
L 38.508413 48.194567 
L 38.52337 48.186453 
L 38.650507 47.968811 
L 38.853926 47.081593 
L 39.166533 44.560375 
L 39.68555 38.24897 
L 40.717603 25.735312 
L 41.073586 23.787863 
L 41.268031 23.549469 
L 41.275509 23.552573 
L 41.398159 23.733379 
L 41.592604 24.510916 
L 41.891749 26.77418 
L 42.376365 32.421534 
L 43.52658 46.165845 
L 43.867606 47.851844 
L 44.04111 48.02183 
L 44.056067 48.013785 
L 44.1847 47.796048 
L 44.389615 46.913786 
L 44.703718 44.418155 
L 45.225727 38.171598 
L 46.256283 25.875687 
L 46.613762 23.939389 
L 46.812694 23.697692 
L 46.817181 23.699507 
L 46.941327 23.877075 
L 47.135771 24.638636 
L 47.434917 26.857377 
L 47.918037 32.384023 
L 49.083209 46.08354 
L 49.422739 47.721295 
L 49.596244 47.88475 
L 49.611201 47.876573 
L 49.741329 47.65652 
L 49.94774 46.774043 
L 50.263338 44.293242 
L 50.788339 38.092517 
L 51.815904 26.007484 
L 52.176374 24.075256 
L 52.376802 23.83351 
L 52.381289 23.835279 
L 52.505435 24.009171 
L 52.699879 24.755899 
L 52.999025 26.933107 
L 53.480649 32.345141 
L 54.659283 45.986447 
L 54.998813 47.585365 
L 55.172317 47.741303 
L 55.185779 47.733905 
L 55.317403 47.513906 
L 55.525309 46.63515 
L 55.842404 44.175117 
L 56.3689 38.048605 
L 57.396465 26.149919 
L 57.758431 24.232153 
L 57.96185 23.988629 
L 57.964841 23.989771 
L 58.090483 24.16156 
L 58.284927 24.894187 
L 58.584073 27.02899 
L 59.064201 32.320612 
L 60.254801 45.858849 
L 60.592835 47.416735 
L 60.767836 47.570566 
L 60.781297 47.563179 
L 60.914417 47.342625 
L 61.123819 46.468192 
L 61.443905 44.019044 
L 61.974888 37.937248 
L 62.99647 26.326041 
L 63.359932 24.423697 
L 63.567838 24.17661 
L 63.693479 24.340408 
L 63.887924 25.049798 
L 64.185574 27.113853 
L 64.662711 32.238514 
L 65.874251 45.722497 
L 66.21079 47.220644 
L 66.38579 47.36434 
L 66.397756 47.357647 
L 66.532371 47.137046 
L 66.743269 46.269644 
L 67.06485 43.853568 
L 67.598825 37.860366 
L 68.617416 26.529965 
L 68.982373 24.649016 
L 69.193271 24.398291 
L 69.320408 24.559448 
L 69.514853 25.251377 
L 69.813998 27.275039 
L 70.291135 32.276094 
L 71.510154 45.52434 
L 71.846692 46.985437 
L 72.024684 47.12657 
L 72.035154 47.120725 
L 72.171265 46.902113 
L 72.383659 46.046591 
L 72.706736 43.6737 
L 73.243702 37.789191 
L 74.260797 26.751288 
L 74.627251 24.899793 
L 74.839644 24.647307 
L 74.968277 24.803436 
L 75.164217 25.480531 
L 75.463362 27.447558 
L 75.9405 32.309983 
L 77.168492 45.307756 
L 77.506527 46.731651 
L 77.68751 46.86604 
L 77.694989 46.861808 
L 77.832596 46.645768 
L 78.046485 45.804292 
L 78.371058 43.47999 
L 78.90952 37.734229 
L 79.926615 26.985892 
L 80.294564 25.165983 
L 80.509949 24.911881 
L 80.640077 25.06478 
L 80.836017 25.721938 
L 81.135163 27.62884 
L 81.610804 32.329551 
L 82.853754 45.108323 
L 83.190293 46.472202 
L 83.372772 46.598586 
L 83.378755 46.595158 
L 83.519353 46.376758 
L 83.734738 45.543965 
L 84.062302 43.24932 
L 84.606747 37.582107 
L 85.614868 27.223834 
L 85.985808 25.428641 
L 86.202689 25.174652 
L 86.334313 25.322803 
L 86.531749 25.964908 
L 86.83239 27.826607 
L 87.308032 32.393161 
L 88.558461 44.893751 
L 88.894999 46.219148 
L 89.08047 46.342848 
L 89.084957 46.340303 
L 89.227051 46.124924 
L 89.443931 45.30678 
L 89.772992 43.0608 
L 90.318932 37.528894 
L 91.328549 27.428206 
L 91.700985 25.668199 
L 91.919361 25.416105 
L 92.052481 25.561135 
L 92.249917 26.184944 
L 92.550558 27.992267 
L 93.024704 32.414387 
L 94.29009 44.729927 
L 94.626629 46.005481 
L 94.812099 46.118849 
L 94.816586 46.116216 
L 94.961672 45.894842 
L 95.183039 45.062888 
L 95.516587 42.809612 
L 96.074493 37.249253 
L 97.058682 27.635701 
L 97.43411 25.875801 
L 97.655478 25.613518 
L 97.790093 25.751669 
L 97.987529 26.35424 
L 98.286675 28.097744 
L 98.757829 32.371534 
L 99.119795 36.287468 
L 99.119795 36.287468 
" clip-path="url(#p49b372f906)" style="fill: none; stroke-dasharray: 1.85,0.8; stroke-dashoffset: 0; stroke: #a9d18e; stroke-width: 0.5"/>
   </g>
   <g id="patch_3">
    <path d="M 24.91075 57.652283 
L 24.91075 13.99874 
" style="fill: none; stroke: #000000; stroke-width: 0.2; stroke-linejoin: miter; stroke-linecap: square"/>
   </g>
   <g id="patch_4">
    <path d="M 99.697146 57.652283 
L 99.697146 13.99874 
" style="fill: none; stroke: #000000; stroke-width: 0.2; stroke-linejoin: miter; stroke-linecap: square"/>
   </g>
   <g id="patch_5">
    <path d="M 24.91075 57.652283 
L 99.697146 57.652283 
" style="fill: none; stroke: #000000; stroke-width: 0.2; stroke-linejoin: miter; stroke-linecap: square"/>
   </g>
   <g id="patch_6">
    <path d="M 24.91075 13.99874 
L 99.697146 13.99874 
" style="fill: none; stroke: #000000; stroke-width: 0.2; stroke-linejoin: miter; stroke-linecap: square"/>
   </g>
   <g id="legend_1">
    <g id="line2d_14">
     <path d="M 54.655896 3.783125 
L 58.655896 3.783125 
L 62.655896 3.783125 
" style="fill: none; stroke: #a9d18e; stroke-width: 0.25; stroke-linecap: square"/>
    </g>
    <g id="text_14">
     <!-- Ground Truth -->
     <g transform="translate(65.855896 5.183125) scale(0.04 -0.04)">
      <defs>
       <path id="ArialMT-47" d="M 2638 1797 
L 2638 2334 
L 4578 2338 
L 4578 638 
Q 4131 281 3656 101 
Q 3181 -78 2681 -78 
Q 2006 -78 1454 211 
Q 903 500 622 1047 
Q 341 1594 341 2269 
Q 341 2938 620 3517 
Q 900 4097 1425 4378 
Q 1950 4659 2634 4659 
Q 3131 4659 3532 4498 
Q 3934 4338 4162 4050 
Q 4391 3763 4509 3300 
L 3963 3150 
Q 3859 3500 3706 3700 
Q 3553 3900 3268 4020 
Q 2984 4141 2638 4141 
Q 2222 4141 1919 4014 
Q 1616 3888 1430 3681 
Q 1244 3475 1141 3228 
Q 966 2803 966 2306 
Q 966 1694 1177 1281 
Q 1388 869 1791 669 
Q 2194 469 2647 469 
Q 3041 469 3416 620 
Q 3791 772 3984 944 
L 3984 1797 
L 2638 1797 
z
" transform="scale(0.015625)"/>
       <path id="ArialMT-64" d="M 2575 0 
L 2575 419 
Q 2259 -75 1647 -75 
Q 1250 -75 917 144 
Q 584 363 401 755 
Q 219 1147 219 1656 
Q 219 2153 384 2558 
Q 550 2963 881 3178 
Q 1213 3394 1622 3394 
Q 1922 3394 2156 3267 
Q 2391 3141 2538 2938 
L 2538 4581 
L 3097 4581 
L 3097 0 
L 2575 0 
z
M 797 1656 
Q 797 1019 1065 703 
Q 1334 388 1700 388 
Q 2069 388 2326 689 
Q 2584 991 2584 1609 
Q 2584 2291 2321 2609 
Q 2059 2928 1675 2928 
Q 1300 2928 1048 2622 
Q 797 2316 797 1656 
z
" transform="scale(0.015625)"/>
       <path id="ArialMT-68" d="M 422 0 
L 422 4581 
L 984 4581 
L 984 2938 
Q 1378 3394 1978 3394 
Q 2347 3394 2619 3248 
Q 2891 3103 3008 2847 
Q 3125 2591 3125 2103 
L 3125 0 
L 2563 0 
L 2563 2103 
Q 2563 2525 2380 2717 
Q 2197 2909 1863 2909 
Q 1613 2909 1392 2779 
Q 1172 2650 1078 2428 
Q 984 2206 984 1816 
L 984 0 
L 422 0 
z
" transform="scale(0.015625)"/>
      </defs>
      <use xlink:href="#ArialMT-47"/>
      <use xlink:href="#ArialMT-72" x="77.783203"/>
      <use xlink:href="#ArialMT-6f" x="111.083984"/>
      <use xlink:href="#ArialMT-75" x="166.699219"/>
      <use xlink:href="#ArialMT-6e" x="222.314453"/>
      <use xlink:href="#ArialMT-64" x="277.929688"/>
      <use xlink:href="#ArialMT-20" x="333.544922"/>
      <use xlink:href="#ArialMT-54" x="359.578125"/>
      <use xlink:href="#ArialMT-72" x="416.912109"/>
      <use xlink:href="#ArialMT-75" x="450.212891"/>
      <use xlink:href="#ArialMT-74" x="505.828125"/>
      <use xlink:href="#ArialMT-68" x="533.611328"/>
     </g>
    </g>
    <g id="line2d_15">
     <path d="M 54.655896 9.49 
L 58.655896 9.49 
L 62.655896 9.49 
" style="fill: none; stroke-dasharray: 1.85,0.8; stroke-dashoffset: 0; stroke: #a9d18e; stroke-width: 0.5"/>
    </g>
    <g id="text_15">
     <!-- Inferred equation -->
     <g transform="translate(65.855896 10.89) scale(0.04 -0.04)">
      <defs>
       <path id="ArialMT-49" d="M 597 0 
L 597 4581 
L 1203 4581 
L 1203 0 
L 597 0 
z
" transform="scale(0.015625)"/>
       <path id="ArialMT-71" d="M 2538 -1272 
L 2538 353 
Q 2406 169 2170 47 
Q 1934 -75 1669 -75 
Q 1078 -75 651 397 
Q 225 869 225 1691 
Q 225 2191 398 2587 
Q 572 2984 901 3189 
Q 1231 3394 1625 3394 
Q 2241 3394 2594 2875 
L 2594 3319 
L 3100 3319 
L 3100 -1272 
L 2538 -1272 
z
M 803 1669 
Q 803 1028 1072 708 
Q 1341 388 1716 388 
Q 2075 388 2334 692 
Q 2594 997 2594 1619 
Q 2594 2281 2320 2615 
Q 2047 2950 1678 2950 
Q 1313 2950 1058 2639 
Q 803 2328 803 1669 
z
" transform="scale(0.015625)"/>
      </defs>
      <use xlink:href="#ArialMT-49"/>
      <use xlink:href="#ArialMT-6e" x="27.783203"/>
      <use xlink:href="#ArialMT-66" x="83.398438"/>
      <use xlink:href="#ArialMT-65" x="111.181641"/>
      <use xlink:href="#ArialMT-72" x="166.796875"/>
      <use xlink:href="#ArialMT-72" x="200.097656"/>
      <use xlink:href="#ArialMT-65" x="233.398438"/>
      <use xlink:href="#ArialMT-64" x="289.013672"/>
      <use xlink:href="#ArialMT-20" x="344.628906"/>
      <use xlink:href="#ArialMT-65" x="372.412109"/>
      <use xlink:href="#ArialMT-71" x="428.027344"/>
      <use xlink:href="#ArialMT-75" x="483.642578"/>
      <use xlink:href="#ArialMT-61" x="539.257812"/>
      <use xlink:href="#ArialMT-74" x="594.873047"/>
      <use xlink:href="#ArialMT-69" x="622.65625"/>
      <use xlink:href="#ArialMT-6f" x="644.873047"/>
      <use xlink:href="#ArialMT-6e" x="700.488281"/>
     </g>
    </g>
   </g>
  </g>
  <g id="axes_2">
   <g id="patch_7">
    <path d="M 125.872385 57.652283 
L 200.658781 57.652283 
L 200.658781 13.99874 
L 125.872385 13.99874 
L 125.872385 57.652283 
z
" style="fill: none"/>
   </g>
   <g id="matplotlib.axis_3">
    <g id="xtick_7">
     <g id="line2d_16">
      <g>
       <use xlink:href="#m1321204190" x="125.872385" y="57.652283" style="stroke: #000000; stroke-width: 0.5"/>
      </g>
     </g>
     <g id="text_16">
      <!-- 0 -->
      <g transform="translate(124.760198 65.015408) scale(0.04 -0.04)">
       <use xlink:href="#ArialMT-30"/>
      </g>
     </g>
    </g>
    <g id="xtick_8">
     <g id="line2d_17">
      <g>
       <use xlink:href="#m1321204190" x="140.829664" y="57.652283" style="stroke: #000000; stroke-width: 0.5"/>
      </g>
     </g>
     <g id="text_17">
      <!-- 100 -->
      <g transform="translate(137.493102 65.015408) scale(0.04 -0.04)">
       <use xlink:href="#ArialMT-31"/>
       <use xlink:href="#ArialMT-30" x="55.615234"/>
       <use xlink:href="#ArialMT-30" x="111.230469"/>
      </g>
     </g>
    </g>
    <g id="xtick_9">
     <g id="line2d_18">
      <g>
       <use xlink:href="#m1321204190" x="155.786944" y="57.652283" style="stroke: #000000; stroke-width: 0.5"/>
      </g>
     </g>
     <g id="text_18">
      <!-- 200 -->
      <g transform="translate(152.450381 65.015408) scale(0.04 -0.04)">
       <use xlink:href="#ArialMT-32"/>
       <use xlink:href="#ArialMT-30" x="55.615234"/>
       <use xlink:href="#ArialMT-30" x="111.230469"/>
      </g>
     </g>
    </g>
    <g id="xtick_10">
     <g id="line2d_19">
      <g>
       <use xlink:href="#m1321204190" x="170.744223" y="57.652283" style="stroke: #000000; stroke-width: 0.5"/>
      </g>
     </g>
     <g id="text_19">
      <!-- 300 -->
      <g transform="translate(167.40766 65.015408) scale(0.04 -0.04)">
       <use xlink:href="#ArialMT-33"/>
       <use xlink:href="#ArialMT-30" x="55.615234"/>
       <use xlink:href="#ArialMT-30" x="111.230469"/>
      </g>
     </g>
    </g>
    <g id="xtick_11">
     <g id="line2d_20">
      <g>
       <use xlink:href="#m1321204190" x="185.701502" y="57.652283" style="stroke: #000000; stroke-width: 0.5"/>
      </g>
     </g>
     <g id="text_20">
      <!-- 400 -->
      <g transform="translate(182.36494 65.015408) scale(0.04 -0.04)">
       <use xlink:href="#ArialMT-34"/>
       <use xlink:href="#ArialMT-30" x="55.615234"/>
       <use xlink:href="#ArialMT-30" x="111.230469"/>
      </g>
     </g>
    </g>
    <g id="xtick_12">
     <g id="line2d_21">
      <g>
       <use xlink:href="#m1321204190" x="200.658781" y="57.652283" style="stroke: #000000; stroke-width: 0.5"/>
      </g>
     </g>
     <g id="text_21">
      <!-- 500 -->
      <g transform="translate(197.322219 65.015408) scale(0.04 -0.04)">
       <use xlink:href="#ArialMT-35"/>
       <use xlink:href="#ArialMT-30" x="55.615234"/>
       <use xlink:href="#ArialMT-30" x="111.230469"/>
      </g>
     </g>
    </g>
    <g id="text_22">
     <!-- Time ($s$) -->
     <g transform="translate(156.145583 69.730408) scale(0.04 -0.04)">
      <defs>
       <path id="STIXGeneral-Italic-73" d="M 2342 2829 
L 2214 1933 
L 2112 1933 
Q 2022 2675 1542 2675 
Q 1370 2675 1267 2579 
Q 1165 2483 1165 2310 
Q 1165 2067 1510 1658 
Q 1946 1152 1946 787 
Q 1946 397 1686 163 
Q 1427 -70 1024 -70 
Q 838 -70 672 -6 
Q 538 51 390 51 
Q 262 51 205 -83 
L 102 -83 
L 230 934 
L 333 934 
Q 461 64 973 64 
Q 1203 64 1331 192 
Q 1459 320 1459 557 
Q 1459 845 1101 1293 
Q 698 1798 698 2131 
Q 698 2451 909 2636 
Q 1120 2822 1472 2822 
Q 1600 2822 1830 2758 
Q 1971 2714 2061 2714 
Q 2189 2714 2253 2829 
L 2342 2829 
z
" transform="scale(0.015625)"/>
      </defs>
      <use xlink:href="#ArialMT-54" transform="translate(0 0.203125)"/>
      <use xlink:href="#ArialMT-69" transform="translate(61.083984 0.203125)"/>
      <use xlink:href="#ArialMT-6d" transform="translate(83.300781 0.203125)"/>
      <use xlink:href="#ArialMT-65" transform="translate(166.601562 0.203125)"/>
      <use xlink:href="#ArialMT-20" transform="translate(222.216797 0.203125)"/>
      <use xlink:href="#ArialMT-28" transform="translate(250 0.203125)"/>
      <use xlink:href="#STIXGeneral-Italic-73" transform="translate(283.300781 0.203125)"/>
      <use xlink:href="#ArialMT-29" transform="translate(322.200775 0.203125)"/>
     </g>
    </g>
   </g>
   <g id="matplotlib.axis_4">
    <g id="ytick_6">
     <g id="line2d_22">
      <g>
       <use xlink:href="#m9380776338" x="125.872385" y="55.668031" style="stroke: #000000; stroke-width: 0.5"/>
      </g>
     </g>
     <g id="text_23">
      <!-- −0.10 -->
      <g transform="translate(111.25176 57.099594) scale(0.04 -0.04)">
       <use xlink:href="#ArialMT-2212"/>
       <use xlink:href="#ArialMT-30" x="58.398438"/>
       <use xlink:href="#ArialMT-2e" x="114.013672"/>
       <use xlink:href="#ArialMT-31" x="141.796875"/>
       <use xlink:href="#ArialMT-30" x="197.412109"/>
      </g>
     </g>
    </g>
    <g id="ytick_7">
     <g id="line2d_23">
      <g>
       <use xlink:href="#m9380776338" x="125.872385" y="45.746772" style="stroke: #000000; stroke-width: 0.5"/>
      </g>
     </g>
     <g id="text_24">
      <!-- −0.05 -->
      <g transform="translate(111.25176 47.178334) scale(0.04 -0.04)">
       <use xlink:href="#ArialMT-2212"/>
       <use xlink:href="#ArialMT-30" x="58.398438"/>
       <use xlink:href="#ArialMT-2e" x="114.013672"/>
       <use xlink:href="#ArialMT-30" x="141.796875"/>
       <use xlink:href="#ArialMT-35" x="197.412109"/>
      </g>
     </g>
    </g>
    <g id="ytick_8">
     <g id="line2d_24">
      <g>
       <use xlink:href="#m9380776338" x="125.872385" y="35.825512" style="stroke: #000000; stroke-width: 0.5"/>
      </g>
     </g>
     <g id="text_25">
      <!-- 0.00 -->
      <g transform="translate(113.58801 37.257074) scale(0.04 -0.04)">
       <use xlink:href="#ArialMT-30"/>
       <use xlink:href="#ArialMT-2e" x="55.615234"/>
       <use xlink:href="#ArialMT-30" x="83.398438"/>
       <use xlink:href="#ArialMT-30" x="139.013672"/>
      </g>
     </g>
    </g>
    <g id="ytick_9">
     <g id="line2d_25">
      <g>
       <use xlink:href="#m9380776338" x="125.872385" y="25.904252" style="stroke: #000000; stroke-width: 0.5"/>
      </g>
     </g>
     <g id="text_26">
      <!-- 0.05 -->
      <g transform="translate(113.58801 27.335814) scale(0.04 -0.04)">
       <use xlink:href="#ArialMT-30"/>
       <use xlink:href="#ArialMT-2e" x="55.615234"/>
       <use xlink:href="#ArialMT-30" x="83.398438"/>
       <use xlink:href="#ArialMT-35" x="139.013672"/>
      </g>
     </g>
    </g>
    <g id="ytick_10">
     <g id="line2d_26">
      <g>
       <use xlink:href="#m9380776338" x="125.872385" y="15.982992" style="stroke: #000000; stroke-width: 0.5"/>
      </g>
     </g>
     <g id="text_27">
      <!-- 0.10 -->
      <g transform="translate(113.58801 17.414555) scale(0.04 -0.04)">
       <use xlink:href="#ArialMT-30"/>
       <use xlink:href="#ArialMT-2e" x="55.615234"/>
       <use xlink:href="#ArialMT-31" x="83.398438"/>
       <use xlink:href="#ArialMT-30" x="139.013672"/>
      </g>
     </g>
    </g>
    <g id="text_28">
     <!-- Fast [ATP] -->
     <g transform="translate(105.07276 45.123949) rotate(-90) scale(0.04 -0.04)">
      <defs>
       <path id="ArialMT-5b" d="M 434 -1272 
L 434 4581 
L 1675 4581 
L 1675 4116 
L 997 4116 
L 997 -806 
L 1675 -806 
L 1675 -1272 
L 434 -1272 
z
" transform="scale(0.015625)"/>
       <path id="ArialMT-50" d="M 494 0 
L 494 4581 
L 2222 4581 
Q 2678 4581 2919 4538 
Q 3256 4481 3484 4323 
Q 3713 4166 3852 3881 
Q 3991 3597 3991 3256 
Q 3991 2672 3619 2267 
Q 3247 1863 2275 1863 
L 1100 1863 
L 1100 0 
L 494 0 
z
M 1100 2403 
L 2284 2403 
Q 2872 2403 3119 2622 
Q 3366 2841 3366 3238 
Q 3366 3525 3220 3729 
Q 3075 3934 2838 4000 
Q 2684 4041 2272 4041 
L 1100 4041 
L 1100 2403 
z
" transform="scale(0.015625)"/>
       <path id="ArialMT-5d" d="M 1363 -1272 
L 122 -1272 
L 122 -806 
L 800 -806 
L 800 4116 
L 122 4116 
L 122 4581 
L 1363 4581 
L 1363 -1272 
z
" transform="scale(0.015625)"/>
      </defs>
      <use xlink:href="#ArialMT-46"/>
      <use xlink:href="#ArialMT-61" x="61.083984"/>
      <use xlink:href="#ArialMT-73" x="116.699219"/>
      <use xlink:href="#ArialMT-74" x="166.699219"/>
      <use xlink:href="#ArialMT-20" x="194.482422"/>
      <use xlink:href="#ArialMT-5b" x="222.265625"/>
      <use xlink:href="#ArialMT-41" x="250.048828"/>
      <use xlink:href="#ArialMT-54" x="309.373047"/>
      <use xlink:href="#ArialMT-50" x="370.457031"/>
      <use xlink:href="#ArialMT-5d" x="437.15625"/>
     </g>
     <!-- ($mM$) -->
     <g transform="translate(109.37176 40.285512) rotate(-90) scale(0.04 -0.04)">
      <defs>
       <path id="STIXGeneral-Italic-6d" d="M 4506 672 
L 4474 627 
Q 3981 -58 3552 -58 
Q 3296 -58 3296 237 
Q 3296 333 3379 659 
L 3750 2112 
Q 3795 2291 3795 2355 
Q 3795 2413 3756 2451 
Q 3718 2490 3667 2490 
Q 3366 2490 2829 1741 
Q 2592 1408 2457 1072 
Q 2323 736 2138 0 
L 1658 0 
L 1830 595 
Q 2266 2099 2266 2330 
Q 2266 2490 2125 2490 
Q 1965 2490 1702 2237 
Q 1440 1984 1171 1574 
Q 1011 1325 899 1043 
Q 787 762 557 0 
L 77 0 
L 352 922 
Q 704 2093 704 2381 
Q 704 2522 442 2522 
L 282 2522 
L 282 2624 
L 1318 2822 
L 1338 2810 
L 966 1472 
Q 1798 2822 2374 2822 
Q 2560 2822 2659 2720 
Q 2758 2618 2758 2438 
Q 2758 2195 2502 1466 
Q 2842 2003 3069 2275 
Q 3296 2547 3526 2694 
Q 3731 2822 3930 2822 
Q 4102 2822 4201 2710 
Q 4301 2598 4301 2419 
Q 4301 2336 4282 2240 
L 3846 634 
Q 3782 390 3782 346 
Q 3782 243 3859 243 
Q 4000 243 4275 582 
L 4410 749 
L 4506 672 
z
" transform="scale(0.015625)"/>
       <path id="STIXGeneral-Italic-4d" d="M 5581 4179 
L 5581 4077 
Q 5318 4032 5225 3945 
Q 5133 3859 5062 3603 
L 4275 768 
Q 4186 448 4186 371 
Q 4186 243 4301 176 
Q 4416 109 4704 102 
L 4698 0 
L 2963 0 
L 2963 102 
Q 3277 134 3405 243 
Q 3533 352 3616 653 
L 4422 3590 
L 2016 0 
L 1907 0 
L 1510 3494 
L 755 755 
Q 698 550 698 410 
Q 698 134 1146 102 
L 1146 0 
L -115 0 
L -115 102 
Q 141 134 259 284 
Q 378 435 525 960 
L 1254 3526 
Q 1331 3789 1331 3859 
Q 1331 4051 858 4077 
L 858 4179 
L 2016 4179 
L 2374 1030 
L 4518 4179 
L 5581 4179 
z
" transform="scale(0.015625)"/>
      </defs>
      <use xlink:href="#ArialMT-28" transform="translate(0 0.203125)"/>
      <use xlink:href="#STIXGeneral-Italic-6d" transform="translate(33.300781 0.203125)"/>
      <use xlink:href="#STIXGeneral-Italic-4d" transform="translate(105.500763 0.203125)"/>
      <use xlink:href="#ArialMT-29" transform="translate(188.800751 0.203125)"/>
     </g>
    </g>
   </g>
   <g id="line2d_27">
    <path d="M 125.872385 36.397494 
L 126.110206 35.23133 
L 126.502087 32.678236 
L 126.949309 31.052195 
L 127.003155 31.094623 
L 127.489267 31.807377 
L 127.86619 33.511764 
L 128.074097 34.381923 
L 128.395678 36.086816 
L 128.958072 38.81714 
L 129.209354 39.450043 
L 129.266192 39.610335 
L 129.726876 41.054564 
L 129.915338 41.169165 
L 129.946748 41.132534 
L 130.212988 40.72461 
L 130.36256 40.085327 
L 130.693116 38.803183 
L 130.848672 38.14967 
L 132.040767 28.535798 
L 132.224742 27.657836 
L 132.318972 27.741815 
L 132.453588 28.015554 
L 132.833503 29.230346 
L 133.294187 30.837465 
L 134.113846 36.499918 
L 134.335214 37.865773 
L 135.021753 42.539447 
L 135.115984 42.749911 
L 135.316411 42.981515 
L 135.718762 43.19398 
L 135.727736 43.173673 
L 136.08372 42.037225 
L 136.439703 39.823058 
L 137.04996 33.659224 
L 137.432866 30.18677 
L 138.023679 26.319287 
L 138.087995 26.369773 
L 138.379662 26.872856 
L 138.615987 28.344517 
L 139.06321 31.673536 
L 139.197825 32.827784 
L 140.641203 43.595186 
L 140.808724 43.716809 
L 140.868553 43.600428 
L 141.531161 41.795028 
L 142.107016 37.219212 
L 142.884795 29.124119 
L 143.363428 26.627759 
L 143.478599 26.43251 
L 143.544411 26.503767 
L 143.726889 26.946092 
L 144.609369 31.811358 
L 144.995267 34.575608 
L 146.271123 43.108528 
L 146.29655 43.082517 
L 146.516422 43.02588 
L 146.525396 43.036976 
L 146.797619 43.235205 
L 146.805097 43.212638 
L 147.126679 41.74787 
L 147.463218 39.524714 
L 148.128817 33.030314 
L 148.543133 29.634174 
L 149.262578 25.58125 
L 149.310442 25.640195 
L 149.537792 26.360151 
L 150.267708 31.274746 
L 150.963221 37.861744 
L 151.220486 39.099185 
L 151.987795 42.465417 
L 152.345274 43.52124 
L 152.517282 43.861457 
L 152.601043 43.856477 
L 152.617496 43.790904 
L 152.904676 42.098601 
L 153.280104 38.334287 
L 154.739934 25.431129 
L 155.095917 25.513171 
L 155.329251 26.054387 
L 155.688226 28.029648 
L 156.735235 38.458331 
L 157.234808 42.171122 
L 157.638655 44.340535 
L 157.804681 44.654274 
L 158.064937 44.728811 
L 158.198057 44.805265 
L 158.263869 44.70794 
L 158.767929 43.094904 
L 159.14934 39.556941 
L 160.691436 24.942121 
L 160.803615 25.002732 
L 161.042932 25.092601 
L 161.057889 25.070851 
L 161.217932 24.910053 
L 161.241863 25.009372 
L 161.494641 26.986212 
L 161.784813 29.013307 
L 162.169215 32.964853 
L 162.634386 38.776186 
L 162.902121 41.146684 
L 163.409173 44.888286 
L 163.602122 45.519891 
L 163.8549 45.573834 
L 164.073276 45.233266 
L 164.402337 43.990793 
L 164.670072 41.496318 
L 165.863663 27.39521 
L 166.300415 24.158261 
L 166.503834 23.540573 
L 166.545715 23.585331 
L 166.738664 24.140079 
L 167.660032 31.535882 
L 168.89999 45.120868 
L 169.163239 45.855538 
L 169.483324 46.94548 
L 169.537171 46.838793 
L 169.727128 46.299943 
L 169.966444 44.524871 
L 171.198924 31.709187 
L 171.767301 25.266234 
L 172.213028 22.192524 
L 172.314737 21.90714 
L 172.385036 22.003098 
L 172.59743 22.640488 
L 173.019225 25.139898 
L 173.297431 28.248912 
L 173.919653 37.819495 
L 174.30256 42.703561 
L 174.799141 46.802332 
L 175.40192 48.248854 
L 175.463245 48.232893 
L 175.487176 48.16163 
L 175.753416 47.022772 
L 176.37863 42.400808 
L 176.997861 32.771196 
L 177.500426 25.548915 
L 177.819016 22.497374 
L 178.1047 21.456577 
L 178.21688 21.525315 
L 178.349999 21.777149 
L 178.834615 24.432834 
L 180.280984 42.603099 
L 180.627993 46.462423 
L 180.915173 48.204003 
L 180.925643 48.198463 
L 181.06325 48.269985 
L 181.380344 48.174458 
L 181.489532 47.897258 
L 181.960687 45.355288 
L 182.083336 43.923812 
L 182.599362 35.793294 
L 183.242526 25.906836 
L 183.647868 21.342591 
L 183.837825 20.813586 
L 183.951501 20.924807 
L 184.39274 23.450173 
L 184.664963 26.117955 
L 185.260262 34.064052 
L 186.211545 45.853228 
L 186.479281 47.919105 
L 186.788896 49.852893 
L 186.890606 49.947653 
L 186.919025 49.851516 
L 187.563683 47.060043 
L 187.871803 44.339933 
L 188.422231 36.222237 
L 189.197018 24.167327 
L 189.689113 20.478259 
L 189.834198 20.373748 
L 189.919455 20.433543 
L 189.926934 20.464497 
L 190.248515 22.359723 
L 190.475866 25.225918 
L 190.91561 31.379541 
L 191.241678 36.10604 
L 192.183987 47.716373 
L 193.041039 49.625856 
L 193.08292 49.504532 
L 193.293817 48.388253 
L 193.8951 41.040893 
L 195.482067 19.179348 
L 195.627153 18.970485 
L 195.715401 19.06632 
L 195.996598 21.547994 
L 196.416897 26.959887 
L 197.00771 37.054244 
L 197.754078 50.410245 
L 198.002369 52.451062 
L 198.667968 54.612084 
L 198.705361 54.540073 
L 198.992541 54.196492 
L 199.10472 54.000647 
L 199.228866 53.568464 
L 199.583353 48.79095 
L 200.081431 40.321629 
L 200.081431 40.321629 
" clip-path="url(#p4a2562a686)" style="fill: none; stroke: #ffc000; stroke-width: 0.25; stroke-linecap: square"/>
   </g>
   <g id="line2d_28">
    <path d="M 128.115977 34.702143 
L 129.254226 41.671325 
L 129.596748 42.556514 
L 129.794184 42.619076 
L 129.964697 42.396711 
L 130.214483 41.631703 
L 130.594398 39.638351 
L 131.330296 34.305343 
L 132.064699 29.612545 
L 132.416195 28.558032 
L 132.62111 28.457076 
L 132.784144 28.658053 
L 133.021965 29.375958 
L 133.382435 31.280449 
L 134.006154 35.997242 
L 134.896112 42.39505 
L 135.250599 43.570985 
L 135.458505 43.702153 
L 135.615557 43.518592 
L 135.844403 42.836808 
L 136.189916 41.000668 
L 136.753806 36.600098 
L 137.767909 28.76191 
L 138.113422 27.60848 
L 138.315346 27.491907 
L 138.470901 27.6876 
L 138.701244 28.410405 
L 139.046757 30.340004 
L 139.600176 34.897296 
L 140.617271 43.23396 
L 140.962784 44.455074 
L 141.166203 44.587617 
L 141.318767 44.397848 
L 141.544622 43.683591 
L 141.881161 41.76948 
L 142.407657 37.291402 
L 143.487573 27.991454 
L 143.828599 26.782828 
L 144.027531 26.663435 
L 144.178599 26.863462 
L 144.404454 27.609332 
L 144.739497 29.59768 
L 145.258515 34.218901 
L 146.335439 43.942573 
L 146.679456 45.23376 
L 146.88138 45.372333 
L 147.029457 45.179807 
L 147.250824 44.446065 
L 147.578389 42.471511 
L 148.079458 37.885814 
L 149.202749 27.33671 
L 149.54228 26.047451 
L 149.741211 25.911981 
L 149.887793 26.108433 
L 150.107665 26.858361 
L 150.432238 28.878914 
L 150.927324 33.578555 
L 152.055102 44.585211 
L 152.397624 45.945627 
L 152.598052 46.095143 
L 152.741642 45.90433 
L 152.957026 45.164809 
L 153.275616 43.149198 
L 153.758737 38.448416 
L 154.922413 26.720153 
L 155.261943 25.356547 
L 155.459379 25.210931 
L 155.601473 25.406048 
L 155.815362 26.162138 
L 156.130961 28.221054 
L 156.61109 33.047583 
L 157.776262 45.184773 
L 158.118784 46.621016 
L 158.317715 46.78062 
L 158.456818 46.590815 
L 158.66622 45.845709 
L 158.975836 43.797543 
L 159.445494 38.979582 
L 160.648059 26.108907 
L 160.98759 24.68317 
L 161.179043 24.533914 
L 161.18353 24.536229 
L 161.322633 24.739984 
L 161.53353 25.529274 
L 161.846138 27.695556 
L 162.32477 32.816893 
L 163.486951 45.681475 
L 163.835456 47.268795 
L 164.035883 47.456394 
L 164.037379 47.455737 
L 164.170499 47.274948 
L 164.373918 46.536858 
L 164.676055 44.469043 
L 165.135243 39.546405 
L 166.387167 25.429994 
L 166.722211 23.994817 
L 166.901698 23.855446 
L 166.912168 23.861294 
L 167.049775 24.081691 
L 167.260673 24.930418 
L 167.57328 27.25218 
L 168.057896 32.785309 
L 169.194649 46.130863 
L 169.550632 47.916938 
L 169.757043 48.146487 
L 169.885675 47.977149 
L 170.081615 47.260605 
L 170.374778 45.208599 
L 170.819009 40.284924 
L 172.148711 24.597857 
L 172.470293 23.258819 
L 172.631832 23.152495 
L 172.646789 23.1624 
L 172.784396 23.41103 
L 172.998285 24.353774 
L 173.316875 26.92396 
L 173.817944 33.075713 
L 174.899355 46.539167 
L 175.264313 48.583123 
L 175.478202 48.875249 
L 175.600852 48.724811 
L 175.787818 48.050179 
L 176.07051 46.057143 
L 176.496793 41.224182 
L 177.937179 23.570581 
L 178.236324 22.454579 
L 178.37094 22.406148 
L 178.39188 22.424578 
L 178.533974 22.734492 
L 178.756837 23.858052 
L 179.088889 26.853381 
L 179.628847 34.098161 
L 180.598079 46.876467 
L 180.976498 49.276963 
L 181.200857 49.658742 
L 181.317524 49.531827 
L 181.49402 48.915774 
L 181.763251 47.033429 
L 182.167097 42.406183 
L 183.757056 22.347617 
L 184.0218 21.589967 
L 184.147441 21.640638 
L 184.300005 22.061989 
L 184.539322 23.497053 
L 184.895305 27.19021 
L 185.520519 36.473806 
L 186.320734 47.415468 
L 186.70364 50.063783 
L 186.932486 50.505405 
L 187.044666 50.38943 
L 187.215179 49.792989 
L 187.476931 47.929628 
L 187.870308 43.284861 
L 189.547019 21.263592 
L 189.787831 20.698567 
L 189.900011 20.789325 
L 190.061549 21.317805 
L 190.311336 23.028426 
L 190.685268 27.35833 
L 191.404713 38.929953 
L 192.092748 48.456667 
L 192.463688 51.027214 
L 192.682064 51.416352 
L 192.792748 51.276692 
L 192.966253 50.60183 
L 193.233988 48.515659 
L 193.636339 43.368803 
L 195.253221 20.536052 
L 195.50899 19.763727 
L 195.625657 19.822639 
L 195.77523 20.279063 
L 196.011555 21.848476 
L 196.364547 25.917313 
L 196.974804 36.041282 
L 197.804933 48.904728 
L 198.187839 51.893272 
L 198.41519 52.390106 
L 198.521386 52.274774 
L 198.685916 51.658284 
L 198.941686 49.683115 
L 199.324592 44.730355 
L 200.081431 31.351512 
L 200.081431 31.351512 
" clip-path="url(#p4a2562a686)" style="fill: none; stroke-dasharray: 1.85,0.8; stroke-dashoffset: 0; stroke: #ffc000; stroke-width: 0.5"/>
   </g>
   <g id="patch_8">
    <path d="M 125.872385 57.652283 
L 125.872385 13.99874 
" style="fill: none; stroke: #000000; stroke-width: 0.2; stroke-linejoin: miter; stroke-linecap: square"/>
   </g>
   <g id="patch_9">
    <path d="M 200.658781 57.652283 
L 200.658781 13.99874 
" style="fill: none; stroke: #000000; stroke-width: 0.2; stroke-linejoin: miter; stroke-linecap: square"/>
   </g>
   <g id="patch_10">
    <path d="M 125.872385 57.652283 
L 200.658781 57.652283 
" style="fill: none; stroke: #000000; stroke-width: 0.2; stroke-linejoin: miter; stroke-linecap: square"/>
   </g>
   <g id="patch_11">
    <path d="M 125.872385 13.99874 
L 200.658781 13.99874 
" style="fill: none; stroke: #000000; stroke-width: 0.2; stroke-linejoin: miter; stroke-linecap: square"/>
   </g>
   <g id="legend_2">
    <g id="line2d_29">
     <path d="M 103.267054 3.783125 
L 107.267054 3.783125 
L 111.267054 3.783125 
" style="fill: none; stroke: #ffc000; stroke-width: 0.25; stroke-linecap: square"/>
    </g>
    <g id="text_29">
     <!-- Ground Truth -->
     <g transform="translate(114.467054 5.183125) scale(0.04 -0.04)">
      <use xlink:href="#ArialMT-47"/>
      <use xlink:href="#ArialMT-72" x="77.783203"/>
      <use xlink:href="#ArialMT-6f" x="111.083984"/>
      <use xlink:href="#ArialMT-75" x="166.699219"/>
      <use xlink:href="#ArialMT-6e" x="222.314453"/>
      <use xlink:href="#ArialMT-64" x="277.929688"/>
      <use xlink:href="#ArialMT-20" x="333.544922"/>
      <use xlink:href="#ArialMT-54" x="359.578125"/>
      <use xlink:href="#ArialMT-72" x="416.912109"/>
      <use xlink:href="#ArialMT-75" x="450.212891"/>
      <use xlink:href="#ArialMT-74" x="505.828125"/>
      <use xlink:href="#ArialMT-68" x="533.611328"/>
     </g>
    </g>
    <g id="line2d_30">
     <path d="M 103.267054 9.49 
L 107.267054 9.49 
L 111.267054 9.49 
" style="fill: none; stroke-dasharray: 1.85,0.8; stroke-dashoffset: 0; stroke: #ffc000; stroke-width: 0.5"/>
    </g>
    <g id="text_30">
     <!-- Inferred equation -->
     <g transform="translate(114.467054 10.89) scale(0.04 -0.04)">
      <use xlink:href="#ArialMT-49"/>
      <use xlink:href="#ArialMT-6e" x="27.783203"/>
      <use xlink:href="#ArialMT-66" x="83.398438"/>
      <use xlink:href="#ArialMT-65" x="111.181641"/>
      <use xlink:href="#ArialMT-72" x="166.796875"/>
      <use xlink:href="#ArialMT-72" x="200.097656"/>
      <use xlink:href="#ArialMT-65" x="233.398438"/>
      <use xlink:href="#ArialMT-64" x="289.013672"/>
      <use xlink:href="#ArialMT-20" x="344.628906"/>
      <use xlink:href="#ArialMT-65" x="372.412109"/>
      <use xlink:href="#ArialMT-71" x="428.027344"/>
      <use xlink:href="#ArialMT-75" x="483.642578"/>
      <use xlink:href="#ArialMT-61" x="539.257812"/>
      <use xlink:href="#ArialMT-74" x="594.873047"/>
      <use xlink:href="#ArialMT-69" x="622.65625"/>
      <use xlink:href="#ArialMT-6f" x="644.873047"/>
      <use xlink:href="#ArialMT-6e" x="700.488281"/>
     </g>
    </g>
   </g>
  </g>
 </g>
 <defs>
  <clipPath id="p49b372f906">
   <rect x="24.91075" y="13.99874" width="74.786396" height="43.653543"/>
  </clipPath>
  <clipPath id="p4a2562a686">
   <rect x="125.872385" y="13.99874" width="74.786396" height="43.653543"/>
  </clipPath>
 </defs>
</svg>
