<?xml version="1.0" encoding="utf-8" standalone="no"?>
<!DOCTYPE svg PUBLIC "-//W3C//DTD SVG 1.1//EN"
  "http://www.w3.org/Graphics/SVG/1.1/DTD/svg11.dtd">
<svg xmlns:xlink="http://www.w3.org/1999/xlink" width="305.88386pt" height="109.436774pt" viewBox="0 0 305.88386 109.436774" xmlns="http://www.w3.org/2000/svg" version="1.1">
 <metadata>
  <rdf:RDF xmlns:dc="http://purl.org/dc/elements/1.1/" xmlns:cc="http://creativecommons.org/ns#" xmlns:rdf="http://www.w3.org/1999/02/22-rdf-syntax-ns#">
   <cc:Work>
    <dc:type rdf:resource="http://purl.org/dc/dcmitype/StillImage"/>
    <dc:date>2025-01-13T14:29:18.639696</dc:date>
    <dc:format>image/svg+xml</dc:format>
    <dc:creator>
     <cc:Agent>
      <dc:title>Matplotlib v3.8.0, https://matplotlib.org/</dc:title>
     </cc:Agent>
    </dc:creator>
   </cc:Work>
  </rdf:RDF>
 </metadata>
 <defs>
  <style type="text/css">*{stroke-linejoin: round; stroke-linecap: butt}</style>
 </defs>
 <g id="figure_1">
  <g id="patch_1">
   <path d="M 0 109.436774 
L 305.88386 109.436774 
L 305.88386 0 
L 0 0 
L 0 109.436774 
z
" style="fill: none"/>
  </g>
  <g id="axes_1">
   <g id="patch_2">
    <path d="M 38.20525 89.458649 
L 155.370604 89.458649 
L 155.370604 2.151563 
L 38.20525 2.151563 
L 38.20525 89.458649 
z
" style="fill: none"/>
   </g>
   <g id="matplotlib.axis_1">
    <g id="xtick_1">
     <g id="line2d_1">
      <defs>
       <path id="mf77f6c93c7" d="M 0 0 
L 0 3.5 
" style="stroke: #000000; stroke-width: 0.8"/>
      </defs>
      <g>
       <use xlink:href="#mf77f6c93c7" x="38.20525" y="89.458649" style="stroke: #000000; stroke-width: 0.8"/>
      </g>
     </g>
     <g id="text_1">
      <!-- 0 -->
      <g transform="translate(37.093063 99.321774) scale(0.04 -0.04)">
       <defs>
        <path id="ArialMT-30" d="M 266 2259 
Q 266 3072 433 3567 
Q 600 4063 929 4331 
Q 1259 4600 1759 4600 
Q 2128 4600 2406 4451 
Q 2684 4303 2865 4023 
Q 3047 3744 3150 3342 
Q 3253 2941 3253 2259 
Q 3253 1453 3087 958 
Q 2922 463 2592 192 
Q 2263 -78 1759 -78 
Q 1097 -78 719 397 
Q 266 969 266 2259 
z
M 844 2259 
Q 844 1131 1108 757 
Q 1372 384 1759 384 
Q 2147 384 2411 759 
Q 2675 1134 2675 2259 
Q 2675 3391 2411 3762 
Q 2147 4134 1753 4134 
Q 1366 4134 1134 3806 
Q 844 3388 844 2259 
z
" transform="scale(0.015625)"/>
       </defs>
       <use xlink:href="#ArialMT-30"/>
      </g>
     </g>
    </g>
    <g id="xtick_2">
     <g id="line2d_2">
      <g>
       <use xlink:href="#mf77f6c93c7" x="61.638321" y="89.458649" style="stroke: #000000; stroke-width: 0.8"/>
      </g>
     </g>
     <g id="text_2">
      <!-- 100 -->
      <g transform="translate(58.301758 99.321774) scale(0.04 -0.04)">
       <defs>
        <path id="ArialMT-31" d="M 2384 0 
L 1822 0 
L 1822 3584 
Q 1619 3391 1289 3197 
Q 959 3003 697 2906 
L 697 3450 
Q 1169 3672 1522 3987 
Q 1875 4303 2022 4600 
L 2384 4600 
L 2384 0 
z
" transform="scale(0.015625)"/>
       </defs>
       <use xlink:href="#ArialMT-31"/>
       <use xlink:href="#ArialMT-30" x="55.615234"/>
       <use xlink:href="#ArialMT-30" x="111.230469"/>
      </g>
     </g>
    </g>
    <g id="xtick_3">
     <g id="line2d_3">
      <g>
       <use xlink:href="#mf77f6c93c7" x="85.071392" y="89.458649" style="stroke: #000000; stroke-width: 0.8"/>
      </g>
     </g>
     <g id="text_3">
      <!-- 200 -->
      <g transform="translate(81.734829 99.321774) scale(0.04 -0.04)">
       <defs>
        <path id="ArialMT-32" d="M 3222 541 
L 3222 0 
L 194 0 
Q 188 203 259 391 
Q 375 700 629 1000 
Q 884 1300 1366 1694 
Q 2113 2306 2375 2664 
Q 2638 3022 2638 3341 
Q 2638 3675 2398 3904 
Q 2159 4134 1775 4134 
Q 1369 4134 1125 3890 
Q 881 3647 878 3216 
L 300 3275 
Q 359 3922 746 4261 
Q 1134 4600 1788 4600 
Q 2447 4600 2831 4234 
Q 3216 3869 3216 3328 
Q 3216 3053 3103 2787 
Q 2991 2522 2730 2228 
Q 2469 1934 1863 1422 
Q 1356 997 1212 845 
Q 1069 694 975 541 
L 3222 541 
z
" transform="scale(0.015625)"/>
       </defs>
       <use xlink:href="#ArialMT-32"/>
       <use xlink:href="#ArialMT-30" x="55.615234"/>
       <use xlink:href="#ArialMT-30" x="111.230469"/>
      </g>
     </g>
    </g>
    <g id="xtick_4">
     <g id="line2d_4">
      <g>
       <use xlink:href="#mf77f6c93c7" x="108.504463" y="89.458649" style="stroke: #000000; stroke-width: 0.8"/>
      </g>
     </g>
     <g id="text_4">
      <!-- 300 -->
      <g transform="translate(105.1679 99.321774) scale(0.04 -0.04)">
       <defs>
        <path id="ArialMT-33" d="M 269 1209 
L 831 1284 
Q 928 806 1161 595 
Q 1394 384 1728 384 
Q 2125 384 2398 659 
Q 2672 934 2672 1341 
Q 2672 1728 2419 1979 
Q 2166 2231 1775 2231 
Q 1616 2231 1378 2169 
L 1441 2663 
Q 1497 2656 1531 2656 
Q 1891 2656 2178 2843 
Q 2466 3031 2466 3422 
Q 2466 3731 2256 3934 
Q 2047 4138 1716 4138 
Q 1388 4138 1169 3931 
Q 950 3725 888 3313 
L 325 3413 
Q 428 3978 793 4289 
Q 1159 4600 1703 4600 
Q 2078 4600 2393 4439 
Q 2709 4278 2876 4000 
Q 3044 3722 3044 3409 
Q 3044 3113 2884 2869 
Q 2725 2625 2413 2481 
Q 2819 2388 3044 2092 
Q 3269 1797 3269 1353 
Q 3269 753 2831 336 
Q 2394 -81 1725 -81 
Q 1122 -81 723 278 
Q 325 638 269 1209 
z
" transform="scale(0.015625)"/>
       </defs>
       <use xlink:href="#ArialMT-33"/>
       <use xlink:href="#ArialMT-30" x="55.615234"/>
       <use xlink:href="#ArialMT-30" x="111.230469"/>
      </g>
     </g>
    </g>
    <g id="xtick_5">
     <g id="line2d_5">
      <g>
       <use xlink:href="#mf77f6c93c7" x="131.937533" y="89.458649" style="stroke: #000000; stroke-width: 0.8"/>
      </g>
     </g>
     <g id="text_5">
      <!-- 400 -->
      <g transform="translate(128.600971 99.321774) scale(0.04 -0.04)">
       <defs>
        <path id="ArialMT-34" d="M 2069 0 
L 2069 1097 
L 81 1097 
L 81 1613 
L 2172 4581 
L 2631 4581 
L 2631 1613 
L 3250 1613 
L 3250 1097 
L 2631 1097 
L 2631 0 
L 2069 0 
z
M 2069 1613 
L 2069 3678 
L 634 1613 
L 2069 1613 
z
" transform="scale(0.015625)"/>
       </defs>
       <use xlink:href="#ArialMT-34"/>
       <use xlink:href="#ArialMT-30" x="55.615234"/>
       <use xlink:href="#ArialMT-30" x="111.230469"/>
      </g>
     </g>
    </g>
    <g id="xtick_6">
     <g id="line2d_6">
      <g>
       <use xlink:href="#mf77f6c93c7" x="155.370604" y="89.458649" style="stroke: #000000; stroke-width: 0.8"/>
      </g>
     </g>
     <g id="text_6">
      <!-- 500 -->
      <g transform="translate(152.034042 99.321774) scale(0.04 -0.04)">
       <defs>
        <path id="ArialMT-35" d="M 266 1200 
L 856 1250 
Q 922 819 1161 601 
Q 1400 384 1738 384 
Q 2144 384 2425 690 
Q 2706 997 2706 1503 
Q 2706 1984 2436 2262 
Q 2166 2541 1728 2541 
Q 1456 2541 1237 2417 
Q 1019 2294 894 2097 
L 366 2166 
L 809 4519 
L 3088 4519 
L 3088 3981 
L 1259 3981 
L 1013 2750 
Q 1425 3038 1878 3038 
Q 2478 3038 2890 2622 
Q 3303 2206 3303 1553 
Q 3303 931 2941 478 
Q 2500 -78 1738 -78 
Q 1113 -78 717 272 
Q 322 622 266 1200 
z
" transform="scale(0.015625)"/>
       </defs>
       <use xlink:href="#ArialMT-35"/>
       <use xlink:href="#ArialMT-30" x="55.615234"/>
       <use xlink:href="#ArialMT-30" x="111.230469"/>
      </g>
     </g>
    </g>
    <g id="text_7">
     <!-- Time ($s$) -->
     <g transform="translate(82.547927 106.956774) scale(0.08 -0.08)">
      <defs>
       <path id="ArialMT-54" d="M 1659 0 
L 1659 4041 
L 150 4041 
L 150 4581 
L 3781 4581 
L 3781 4041 
L 2266 4041 
L 2266 0 
L 1659 0 
z
" transform="scale(0.015625)"/>
       <path id="ArialMT-69" d="M 425 3934 
L 425 4581 
L 988 4581 
L 988 3934 
L 425 3934 
z
M 425 0 
L 425 3319 
L 988 3319 
L 988 0 
L 425 0 
z
" transform="scale(0.015625)"/>
       <path id="ArialMT-6d" d="M 422 0 
L 422 3319 
L 925 3319 
L 925 2853 
Q 1081 3097 1340 3245 
Q 1600 3394 1931 3394 
Q 2300 3394 2536 3241 
Q 2772 3088 2869 2813 
Q 3263 3394 3894 3394 
Q 4388 3394 4653 3120 
Q 4919 2847 4919 2278 
L 4919 0 
L 4359 0 
L 4359 2091 
Q 4359 2428 4304 2576 
Q 4250 2725 4106 2815 
Q 3963 2906 3769 2906 
Q 3419 2906 3187 2673 
Q 2956 2441 2956 1928 
L 2956 0 
L 2394 0 
L 2394 2156 
Q 2394 2531 2256 2718 
Q 2119 2906 1806 2906 
Q 1569 2906 1367 2781 
Q 1166 2656 1075 2415 
Q 984 2175 984 1722 
L 984 0 
L 422 0 
z
" transform="scale(0.015625)"/>
       <path id="ArialMT-65" d="M 2694 1069 
L 3275 997 
Q 3138 488 2766 206 
Q 2394 -75 1816 -75 
Q 1088 -75 661 373 
Q 234 822 234 1631 
Q 234 2469 665 2931 
Q 1097 3394 1784 3394 
Q 2450 3394 2872 2941 
Q 3294 2488 3294 1666 
Q 3294 1616 3291 1516 
L 816 1516 
Q 847 969 1125 678 
Q 1403 388 1819 388 
Q 2128 388 2347 550 
Q 2566 713 2694 1069 
z
M 847 1978 
L 2700 1978 
Q 2663 2397 2488 2606 
Q 2219 2931 1791 2931 
Q 1403 2931 1139 2672 
Q 875 2413 847 1978 
z
" transform="scale(0.015625)"/>
       <path id="ArialMT-20" transform="scale(0.015625)"/>
       <path id="ArialMT-28" d="M 1497 -1347 
Q 1031 -759 709 28 
Q 388 816 388 1659 
Q 388 2403 628 3084 
Q 909 3875 1497 4659 
L 1900 4659 
Q 1522 4009 1400 3731 
Q 1209 3300 1100 2831 
Q 966 2247 966 1656 
Q 966 153 1900 -1347 
L 1497 -1347 
z
" transform="scale(0.015625)"/>
       <path id="STIXGeneral-Italic-73" d="M 2342 2829 
L 2214 1933 
L 2112 1933 
Q 2022 2675 1542 2675 
Q 1370 2675 1267 2579 
Q 1165 2483 1165 2310 
Q 1165 2067 1510 1658 
Q 1946 1152 1946 787 
Q 1946 397 1686 163 
Q 1427 -70 1024 -70 
Q 838 -70 672 -6 
Q 538 51 390 51 
Q 262 51 205 -83 
L 102 -83 
L 230 934 
L 333 934 
Q 461 64 973 64 
Q 1203 64 1331 192 
Q 1459 320 1459 557 
Q 1459 845 1101 1293 
Q 698 1798 698 2131 
Q 698 2451 909 2636 
Q 1120 2822 1472 2822 
Q 1600 2822 1830 2758 
Q 1971 2714 2061 2714 
Q 2189 2714 2253 2829 
L 2342 2829 
z
" transform="scale(0.015625)"/>
       <path id="ArialMT-29" d="M 791 -1347 
L 388 -1347 
Q 1322 153 1322 1656 
Q 1322 2244 1188 2822 
Q 1081 3291 891 3722 
Q 769 4003 388 4659 
L 791 4659 
Q 1378 3875 1659 3084 
Q 1900 2403 1900 1659 
Q 1900 816 1576 28 
Q 1253 -759 791 -1347 
z
" transform="scale(0.015625)"/>
      </defs>
      <use xlink:href="#ArialMT-54" transform="translate(0 0.203125)"/>
      <use xlink:href="#ArialMT-69" transform="translate(61.083984 0.203125)"/>
      <use xlink:href="#ArialMT-6d" transform="translate(83.300781 0.203125)"/>
      <use xlink:href="#ArialMT-65" transform="translate(166.601562 0.203125)"/>
      <use xlink:href="#ArialMT-20" transform="translate(222.216797 0.203125)"/>
      <use xlink:href="#ArialMT-28" transform="translate(250 0.203125)"/>
      <use xlink:href="#STIXGeneral-Italic-73" transform="translate(283.300781 0.203125)"/>
      <use xlink:href="#ArialMT-29" transform="translate(322.200775 0.203125)"/>
     </g>
    </g>
   </g>
   <g id="matplotlib.axis_2">
    <g id="ytick_1">
     <g id="line2d_7">
      <defs>
       <path id="m63a1d90a8b" d="M 0 0 
L -3.5 0 
" style="stroke: #000000; stroke-width: 0.8"/>
      </defs>
      <g>
       <use xlink:href="#m63a1d90a8b" x="38.20525" y="89.458649" style="stroke: #000000; stroke-width: 0.8"/>
      </g>
     </g>
     <g id="text_8">
      <!-- −0.100 -->
      <g transform="translate(18.86025 90.890212) scale(0.04 -0.04)">
       <defs>
        <path id="ArialMT-2212" d="M 3381 1997 
L 356 1997 
L 356 2522 
L 3381 2522 
L 3381 1997 
z
" transform="scale(0.015625)"/>
        <path id="ArialMT-2e" d="M 581 0 
L 581 641 
L 1222 641 
L 1222 0 
L 581 0 
z
" transform="scale(0.015625)"/>
       </defs>
       <use xlink:href="#ArialMT-2212"/>
       <use xlink:href="#ArialMT-30" x="58.398438"/>
       <use xlink:href="#ArialMT-2e" x="114.013672"/>
       <use xlink:href="#ArialMT-31" x="141.796875"/>
       <use xlink:href="#ArialMT-30" x="197.412109"/>
       <use xlink:href="#ArialMT-30" x="253.027344"/>
      </g>
     </g>
    </g>
    <g id="ytick_2">
     <g id="line2d_8">
      <g>
       <use xlink:href="#m63a1d90a8b" x="38.20525" y="78.545263" style="stroke: #000000; stroke-width: 0.8"/>
      </g>
     </g>
     <g id="text_9">
      <!-- −0.075 -->
      <g transform="translate(18.86025 79.976826) scale(0.04 -0.04)">
       <defs>
        <path id="ArialMT-37" d="M 303 3981 
L 303 4522 
L 3269 4522 
L 3269 4084 
Q 2831 3619 2401 2847 
Q 1972 2075 1738 1259 
Q 1569 684 1522 0 
L 944 0 
Q 953 541 1156 1306 
Q 1359 2072 1739 2783 
Q 2119 3494 2547 3981 
L 303 3981 
z
" transform="scale(0.015625)"/>
       </defs>
       <use xlink:href="#ArialMT-2212"/>
       <use xlink:href="#ArialMT-30" x="58.398438"/>
       <use xlink:href="#ArialMT-2e" x="114.013672"/>
       <use xlink:href="#ArialMT-30" x="141.796875"/>
       <use xlink:href="#ArialMT-37" x="197.412109"/>
       <use xlink:href="#ArialMT-35" x="253.027344"/>
      </g>
     </g>
    </g>
    <g id="ytick_3">
     <g id="line2d_9">
      <g>
       <use xlink:href="#m63a1d90a8b" x="38.20525" y="67.631877" style="stroke: #000000; stroke-width: 0.8"/>
      </g>
     </g>
     <g id="text_10">
      <!-- −0.050 -->
      <g transform="translate(18.86025 69.06344) scale(0.04 -0.04)">
       <use xlink:href="#ArialMT-2212"/>
       <use xlink:href="#ArialMT-30" x="58.398438"/>
       <use xlink:href="#ArialMT-2e" x="114.013672"/>
       <use xlink:href="#ArialMT-30" x="141.796875"/>
       <use xlink:href="#ArialMT-35" x="197.412109"/>
       <use xlink:href="#ArialMT-30" x="253.027344"/>
      </g>
     </g>
    </g>
    <g id="ytick_4">
     <g id="line2d_10">
      <g>
       <use xlink:href="#m63a1d90a8b" x="38.20525" y="56.718492" style="stroke: #000000; stroke-width: 0.8"/>
      </g>
     </g>
     <g id="text_11">
      <!-- −0.025 -->
      <g transform="translate(18.86025 58.150054) scale(0.04 -0.04)">
       <use xlink:href="#ArialMT-2212"/>
       <use xlink:href="#ArialMT-30" x="58.398438"/>
       <use xlink:href="#ArialMT-2e" x="114.013672"/>
       <use xlink:href="#ArialMT-30" x="141.796875"/>
       <use xlink:href="#ArialMT-32" x="197.412109"/>
       <use xlink:href="#ArialMT-35" x="253.027344"/>
      </g>
     </g>
    </g>
    <g id="ytick_5">
     <g id="line2d_11">
      <g>
       <use xlink:href="#m63a1d90a8b" x="38.20525" y="45.805106" style="stroke: #000000; stroke-width: 0.8"/>
      </g>
     </g>
     <g id="text_12">
      <!-- 0.000 -->
      <g transform="translate(21.1965 47.236668) scale(0.04 -0.04)">
       <use xlink:href="#ArialMT-30"/>
       <use xlink:href="#ArialMT-2e" x="55.615234"/>
       <use xlink:href="#ArialMT-30" x="83.398438"/>
       <use xlink:href="#ArialMT-30" x="139.013672"/>
       <use xlink:href="#ArialMT-30" x="194.628906"/>
      </g>
     </g>
    </g>
    <g id="ytick_6">
     <g id="line2d_12">
      <g>
       <use xlink:href="#m63a1d90a8b" x="38.20525" y="34.89172" style="stroke: #000000; stroke-width: 0.8"/>
      </g>
     </g>
     <g id="text_13">
      <!-- 0.025 -->
      <g transform="translate(21.1965 36.323282) scale(0.04 -0.04)">
       <use xlink:href="#ArialMT-30"/>
       <use xlink:href="#ArialMT-2e" x="55.615234"/>
       <use xlink:href="#ArialMT-30" x="83.398438"/>
       <use xlink:href="#ArialMT-32" x="139.013672"/>
       <use xlink:href="#ArialMT-35" x="194.628906"/>
      </g>
     </g>
    </g>
    <g id="ytick_7">
     <g id="line2d_13">
      <g>
       <use xlink:href="#m63a1d90a8b" x="38.20525" y="23.978334" style="stroke: #000000; stroke-width: 0.8"/>
      </g>
     </g>
     <g id="text_14">
      <!-- 0.050 -->
      <g transform="translate(21.1965 25.409897) scale(0.04 -0.04)">
       <use xlink:href="#ArialMT-30"/>
       <use xlink:href="#ArialMT-2e" x="55.615234"/>
       <use xlink:href="#ArialMT-30" x="83.398438"/>
       <use xlink:href="#ArialMT-35" x="139.013672"/>
       <use xlink:href="#ArialMT-30" x="194.628906"/>
      </g>
     </g>
    </g>
    <g id="ytick_8">
     <g id="line2d_14">
      <g>
       <use xlink:href="#m63a1d90a8b" x="38.20525" y="13.064948" style="stroke: #000000; stroke-width: 0.8"/>
      </g>
     </g>
     <g id="text_15">
      <!-- 0.075 -->
      <g transform="translate(21.1965 14.496511) scale(0.04 -0.04)">
       <use xlink:href="#ArialMT-30"/>
       <use xlink:href="#ArialMT-2e" x="55.615234"/>
       <use xlink:href="#ArialMT-30" x="83.398438"/>
       <use xlink:href="#ArialMT-37" x="139.013672"/>
       <use xlink:href="#ArialMT-35" x="194.628906"/>
      </g>
     </g>
    </g>
    <g id="ytick_9">
     <g id="line2d_15">
      <g>
       <use xlink:href="#m63a1d90a8b" x="38.20525" y="2.151563" style="stroke: #000000; stroke-width: 0.8"/>
      </g>
     </g>
     <g id="text_16">
      <!-- 0.100 -->
      <g transform="translate(21.1965 3.583125) scale(0.04 -0.04)">
       <use xlink:href="#ArialMT-30"/>
       <use xlink:href="#ArialMT-2e" x="55.615234"/>
       <use xlink:href="#ArialMT-31" x="83.398438"/>
       <use xlink:href="#ArialMT-30" x="139.013672"/>
       <use xlink:href="#ArialMT-30" x="194.628906"/>
      </g>
     </g>
    </g>
    <g id="text_17">
     <!-- Fast NADH fluorescence -->
     <g transform="translate(6.44625 89.818856) rotate(-90) scale(0.08 -0.08)">
      <defs>
       <path id="ArialMT-46" d="M 525 0 
L 525 4581 
L 3616 4581 
L 3616 4041 
L 1131 4041 
L 1131 2622 
L 3281 2622 
L 3281 2081 
L 1131 2081 
L 1131 0 
L 525 0 
z
" transform="scale(0.015625)"/>
       <path id="ArialMT-61" d="M 2588 409 
Q 2275 144 1986 34 
Q 1697 -75 1366 -75 
Q 819 -75 525 192 
Q 231 459 231 875 
Q 231 1119 342 1320 
Q 453 1522 633 1644 
Q 813 1766 1038 1828 
Q 1203 1872 1538 1913 
Q 2219 1994 2541 2106 
Q 2544 2222 2544 2253 
Q 2544 2597 2384 2738 
Q 2169 2928 1744 2928 
Q 1347 2928 1158 2789 
Q 969 2650 878 2297 
L 328 2372 
Q 403 2725 575 2942 
Q 747 3159 1072 3276 
Q 1397 3394 1825 3394 
Q 2250 3394 2515 3294 
Q 2781 3194 2906 3042 
Q 3031 2891 3081 2659 
Q 3109 2516 3109 2141 
L 3109 1391 
Q 3109 606 3145 398 
Q 3181 191 3288 0 
L 2700 0 
Q 2613 175 2588 409 
z
M 2541 1666 
Q 2234 1541 1622 1453 
Q 1275 1403 1131 1340 
Q 988 1278 909 1158 
Q 831 1038 831 891 
Q 831 666 1001 516 
Q 1172 366 1500 366 
Q 1825 366 2078 508 
Q 2331 650 2450 897 
Q 2541 1088 2541 1459 
L 2541 1666 
z
" transform="scale(0.015625)"/>
       <path id="ArialMT-73" d="M 197 991 
L 753 1078 
Q 800 744 1014 566 
Q 1228 388 1613 388 
Q 2000 388 2187 545 
Q 2375 703 2375 916 
Q 2375 1106 2209 1216 
Q 2094 1291 1634 1406 
Q 1016 1563 777 1677 
Q 538 1791 414 1992 
Q 291 2194 291 2438 
Q 291 2659 392 2848 
Q 494 3038 669 3163 
Q 800 3259 1026 3326 
Q 1253 3394 1513 3394 
Q 1903 3394 2198 3281 
Q 2494 3169 2634 2976 
Q 2775 2784 2828 2463 
L 2278 2388 
Q 2241 2644 2061 2787 
Q 1881 2931 1553 2931 
Q 1166 2931 1000 2803 
Q 834 2675 834 2503 
Q 834 2394 903 2306 
Q 972 2216 1119 2156 
Q 1203 2125 1616 2013 
Q 2213 1853 2448 1751 
Q 2684 1650 2818 1456 
Q 2953 1263 2953 975 
Q 2953 694 2789 445 
Q 2625 197 2315 61 
Q 2006 -75 1616 -75 
Q 969 -75 630 194 
Q 291 463 197 991 
z
" transform="scale(0.015625)"/>
       <path id="ArialMT-74" d="M 1650 503 
L 1731 6 
Q 1494 -44 1306 -44 
Q 1000 -44 831 53 
Q 663 150 594 308 
Q 525 466 525 972 
L 525 2881 
L 113 2881 
L 113 3319 
L 525 3319 
L 525 4141 
L 1084 4478 
L 1084 3319 
L 1650 3319 
L 1650 2881 
L 1084 2881 
L 1084 941 
Q 1084 700 1114 631 
Q 1144 563 1211 522 
Q 1278 481 1403 481 
Q 1497 481 1650 503 
z
" transform="scale(0.015625)"/>
       <path id="ArialMT-4e" d="M 488 0 
L 488 4581 
L 1109 4581 
L 3516 984 
L 3516 4581 
L 4097 4581 
L 4097 0 
L 3475 0 
L 1069 3600 
L 1069 0 
L 488 0 
z
" transform="scale(0.015625)"/>
       <path id="ArialMT-41" d="M -9 0 
L 1750 4581 
L 2403 4581 
L 4278 0 
L 3588 0 
L 3053 1388 
L 1138 1388 
L 634 0 
L -9 0 
z
M 1313 1881 
L 2866 1881 
L 2388 3150 
Q 2169 3728 2063 4100 
Q 1975 3659 1816 3225 
L 1313 1881 
z
" transform="scale(0.015625)"/>
       <path id="ArialMT-44" d="M 494 0 
L 494 4581 
L 2072 4581 
Q 2606 4581 2888 4516 
Q 3281 4425 3559 4188 
Q 3922 3881 4101 3404 
Q 4281 2928 4281 2316 
Q 4281 1794 4159 1391 
Q 4038 988 3847 723 
Q 3656 459 3429 307 
Q 3203 156 2883 78 
Q 2563 0 2147 0 
L 494 0 
z
M 1100 541 
L 2078 541 
Q 2531 541 2789 625 
Q 3047 709 3200 863 
Q 3416 1078 3536 1442 
Q 3656 1806 3656 2325 
Q 3656 3044 3420 3430 
Q 3184 3816 2847 3947 
Q 2603 4041 2063 4041 
L 1100 4041 
L 1100 541 
z
" transform="scale(0.015625)"/>
       <path id="ArialMT-48" d="M 513 0 
L 513 4581 
L 1119 4581 
L 1119 2700 
L 3500 2700 
L 3500 4581 
L 4106 4581 
L 4106 0 
L 3500 0 
L 3500 2159 
L 1119 2159 
L 1119 0 
L 513 0 
z
" transform="scale(0.015625)"/>
       <path id="ArialMT-66" d="M 556 0 
L 556 2881 
L 59 2881 
L 59 3319 
L 556 3319 
L 556 3672 
Q 556 4006 616 4169 
Q 697 4388 901 4523 
Q 1106 4659 1475 4659 
Q 1713 4659 2000 4603 
L 1916 4113 
Q 1741 4144 1584 4144 
Q 1328 4144 1222 4034 
Q 1116 3925 1116 3625 
L 1116 3319 
L 1763 3319 
L 1763 2881 
L 1116 2881 
L 1116 0 
L 556 0 
z
" transform="scale(0.015625)"/>
       <path id="ArialMT-6c" d="M 409 0 
L 409 4581 
L 972 4581 
L 972 0 
L 409 0 
z
" transform="scale(0.015625)"/>
       <path id="ArialMT-75" d="M 2597 0 
L 2597 488 
Q 2209 -75 1544 -75 
Q 1250 -75 995 37 
Q 741 150 617 320 
Q 494 491 444 738 
Q 409 903 409 1263 
L 409 3319 
L 972 3319 
L 972 1478 
Q 972 1038 1006 884 
Q 1059 663 1231 536 
Q 1403 409 1656 409 
Q 1909 409 2131 539 
Q 2353 669 2445 892 
Q 2538 1116 2538 1541 
L 2538 3319 
L 3100 3319 
L 3100 0 
L 2597 0 
z
" transform="scale(0.015625)"/>
       <path id="ArialMT-6f" d="M 213 1659 
Q 213 2581 725 3025 
Q 1153 3394 1769 3394 
Q 2453 3394 2887 2945 
Q 3322 2497 3322 1706 
Q 3322 1066 3130 698 
Q 2938 331 2570 128 
Q 2203 -75 1769 -75 
Q 1072 -75 642 372 
Q 213 819 213 1659 
z
M 791 1659 
Q 791 1022 1069 705 
Q 1347 388 1769 388 
Q 2188 388 2466 706 
Q 2744 1025 2744 1678 
Q 2744 2294 2464 2611 
Q 2184 2928 1769 2928 
Q 1347 2928 1069 2612 
Q 791 2297 791 1659 
z
" transform="scale(0.015625)"/>
       <path id="ArialMT-72" d="M 416 0 
L 416 3319 
L 922 3319 
L 922 2816 
Q 1116 3169 1280 3281 
Q 1444 3394 1641 3394 
Q 1925 3394 2219 3213 
L 2025 2691 
Q 1819 2813 1613 2813 
Q 1428 2813 1281 2702 
Q 1134 2591 1072 2394 
Q 978 2094 978 1738 
L 978 0 
L 416 0 
z
" transform="scale(0.015625)"/>
       <path id="ArialMT-63" d="M 2588 1216 
L 3141 1144 
Q 3050 572 2676 248 
Q 2303 -75 1759 -75 
Q 1078 -75 664 370 
Q 250 816 250 1647 
Q 250 2184 428 2587 
Q 606 2991 970 3192 
Q 1334 3394 1763 3394 
Q 2303 3394 2647 3120 
Q 2991 2847 3088 2344 
L 2541 2259 
Q 2463 2594 2264 2762 
Q 2066 2931 1784 2931 
Q 1359 2931 1093 2626 
Q 828 2322 828 1663 
Q 828 994 1084 691 
Q 1341 388 1753 388 
Q 2084 388 2306 591 
Q 2528 794 2588 1216 
z
" transform="scale(0.015625)"/>
       <path id="ArialMT-6e" d="M 422 0 
L 422 3319 
L 928 3319 
L 928 2847 
Q 1294 3394 1984 3394 
Q 2284 3394 2536 3286 
Q 2788 3178 2913 3003 
Q 3038 2828 3088 2588 
Q 3119 2431 3119 2041 
L 3119 0 
L 2556 0 
L 2556 2019 
Q 2556 2363 2490 2533 
Q 2425 2703 2258 2804 
Q 2091 2906 1866 2906 
Q 1506 2906 1245 2678 
Q 984 2450 984 1813 
L 984 0 
L 422 0 
z
" transform="scale(0.015625)"/>
      </defs>
      <use xlink:href="#ArialMT-46"/>
      <use xlink:href="#ArialMT-61" x="61.083984"/>
      <use xlink:href="#ArialMT-73" x="116.699219"/>
      <use xlink:href="#ArialMT-74" x="166.699219"/>
      <use xlink:href="#ArialMT-20" x="194.482422"/>
      <use xlink:href="#ArialMT-4e" x="222.265625"/>
      <use xlink:href="#ArialMT-41" x="294.482422"/>
      <use xlink:href="#ArialMT-44" x="361.181641"/>
      <use xlink:href="#ArialMT-48" x="433.398438"/>
      <use xlink:href="#ArialMT-20" x="505.615234"/>
      <use xlink:href="#ArialMT-66" x="533.398438"/>
      <use xlink:href="#ArialMT-6c" x="561.181641"/>
      <use xlink:href="#ArialMT-75" x="583.398438"/>
      <use xlink:href="#ArialMT-6f" x="639.013672"/>
      <use xlink:href="#ArialMT-72" x="694.628906"/>
      <use xlink:href="#ArialMT-65" x="727.929688"/>
      <use xlink:href="#ArialMT-73" x="783.544922"/>
      <use xlink:href="#ArialMT-63" x="833.544922"/>
      <use xlink:href="#ArialMT-65" x="883.544922"/>
      <use xlink:href="#ArialMT-6e" x="939.160156"/>
      <use xlink:href="#ArialMT-63" x="994.775391"/>
      <use xlink:href="#ArialMT-65" x="1044.775391"/>
     </g>
     <!-- $\times 10^{-6}$ (counts) -->
     <g transform="translate(16.10025 71.485106) rotate(-90) scale(0.08 -0.08)">
      <defs>
       <path id="STIXGeneral-Regular-d7" d="M 3821 141 
L 3526 -160 
L 2048 1312 
L 570 -160 
L 275 134 
L 1747 1613 
L 275 3091 
L 576 3386 
L 2048 1914 
L 3526 3386 
L 3821 3098 
L 2349 1613 
L 3821 141 
z
" transform="scale(0.015625)"/>
       <path id="STIXGeneral-Regular-31" d="M 2522 0 
L 755 0 
L 755 96 
Q 1107 115 1235 227 
Q 1363 339 1363 608 
L 1363 3482 
Q 1363 3795 1171 3795 
Q 1082 3795 883 3718 
L 710 3654 
L 710 3744 
L 1856 4326 
L 1914 4307 
L 1914 486 
Q 1914 275 2042 185 
Q 2170 96 2522 96 
L 2522 0 
z
" transform="scale(0.015625)"/>
       <path id="STIXGeneral-Regular-30" d="M 3046 2112 
Q 3046 1683 2963 1302 
Q 2880 922 2717 602 
Q 2554 282 2266 96 
Q 1978 -90 1600 -90 
Q 1210 -90 915 108 
Q 621 307 461 640 
Q 301 973 227 1350 
Q 154 1728 154 2150 
Q 154 2746 301 3222 
Q 448 3699 790 4012 
Q 1133 4326 1626 4326 
Q 2253 4326 2649 3712 
Q 3046 3098 3046 2112 
z
M 2432 2080 
Q 2432 3091 2217 3625 
Q 2003 4160 1587 4160 
Q 1190 4160 979 3622 
Q 768 3085 768 2106 
Q 768 1120 979 598 
Q 1190 77 1600 77 
Q 2003 77 2217 598 
Q 2432 1120 2432 2080 
z
" transform="scale(0.015625)"/>
       <path id="STIXGeneral-Regular-2212" d="M 3974 1408 
L 410 1408 
L 410 1830 
L 3974 1830 
L 3974 1408 
z
" transform="scale(0.015625)"/>
       <path id="STIXGeneral-Regular-36" d="M 2854 4378 
L 2867 4275 
Q 2112 4154 1606 3664 
Q 1101 3174 973 2451 
Q 1344 2739 1786 2739 
Q 2349 2739 2672 2380 
Q 2995 2022 2995 1402 
Q 2995 774 2669 378 
Q 2291 -90 1651 -90 
Q 870 -90 518 557 
Q 218 1107 218 1786 
Q 218 2835 915 3552 
Q 1312 3962 1731 4131 
Q 2150 4301 2854 4378 
z
M 2419 1203 
Q 2419 2445 1555 2445 
Q 1235 2445 1024 2275 
Q 813 2106 813 1702 
Q 813 954 1046 522 
Q 1280 90 1722 90 
Q 2061 90 2240 394 
Q 2419 698 2419 1203 
z
" transform="scale(0.015625)"/>
      </defs>
      <use xlink:href="#STIXGeneral-Regular-d7" transform="translate(0 0.840625)"/>
      <use xlink:href="#STIXGeneral-Regular-31" transform="translate(63.999985 0.840625)"/>
      <use xlink:href="#STIXGeneral-Regular-30" transform="translate(113.999969 0.840625)"/>
      <use xlink:href="#STIXGeneral-Regular-2212" transform="translate(165.543235 36.115625) scale(0.7)"/>
      <use xlink:href="#STIXGeneral-Regular-36" transform="translate(213.493225 36.115625) scale(0.7)"/>
      <use xlink:href="#ArialMT-20" transform="translate(252.902589 0.840625)"/>
      <use xlink:href="#ArialMT-28" transform="translate(280.685792 0.840625)"/>
      <use xlink:href="#ArialMT-63" transform="translate(313.986573 0.840625)"/>
      <use xlink:href="#ArialMT-6f" transform="translate(363.986573 0.840625)"/>
      <use xlink:href="#ArialMT-75" transform="translate(419.601808 0.840625)"/>
      <use xlink:href="#ArialMT-6e" transform="translate(475.217042 0.840625)"/>
      <use xlink:href="#ArialMT-74" transform="translate(530.832277 0.840625)"/>
      <use xlink:href="#ArialMT-73" transform="translate(558.61548 0.840625)"/>
      <use xlink:href="#ArialMT-29" transform="translate(608.61548 0.840625)"/>
     </g>
    </g>
   </g>
   <g id="line2d_16">
    <path d="M 38.20525 17.653877 
L 38.416148 19.243433 
L 38.650478 21.775055 
L 39.510472 35.220986 
L 40.691499 59.331039 
L 40.928173 63.747389 
L 41.47885 70.462895 
L 41.928765 73.454138 
L 42.062333 73.930812 
L 42.132633 73.828311 
L 42.402113 73.086549 
L 42.777042 69.734138 
L 43.934636 53.24804 
L 45.816311 19.044981 
L 46.109225 16.894535 
L 46.195927 16.445336 
L 46.270913 16.566587 
L 46.533363 17.290034 
L 46.894233 20.505327 
L 47.801093 34.332372 
L 49.731978 68.772035 
L 50.205326 72.831755 
L 50.430283 73.406407 
L 50.608374 73.464925 
L 50.638837 73.371714 
L 50.99502 71.704129 
L 51.512891 67.363748 
L 53.003234 39.791232 
L 53.600778 28.631781 
L 54.336576 18.688616 
L 54.613086 17.355406 
L 54.737281 16.962274 
L 54.793521 17.102171 
L 55.077061 18.293918 
L 55.705067 25.317661 
L 57.066529 49.108929 
L 58.041344 66.172967 
L 58.763083 72.6092 
L 58.873219 72.961831 
L 58.948204 72.893558 
L 59.229401 72.396507 
L 59.594957 70.412451 
L 60.096425 65.559869 
L 60.846283 54.48245 
L 62.514718 22.707757 
L 63.163814 17.692563 
L 63.280979 17.310658 
L 63.337219 17.445984 
L 63.637162 18.629643 
L 64.12457 23.415875 
L 64.518245 29.054407 
L 65.375896 44.567312 
L 66.20777 58.847112 
L 66.875612 68.076767 
L 67.545798 72.39726 
L 67.691083 72.547951 
L 67.728576 72.449972 
L 68.037893 71.145193 
L 68.740885 64.708966 
L 68.984589 60.971551 
L 71.348985 20.698723 
L 71.759064 18.319888 
L 71.946529 18.031746 
L 72.098844 17.925614 
L 72.129307 18.022373 
L 72.438623 19.5646 
L 72.991644 25.509973 
L 74.125804 45.962003 
L 74.589779 54.46599 
L 74.896752 59.147147 
L 75.585685 68.080677 
L 75.995763 71.009583 
L 76.234781 72.04624 
L 76.356633 71.965302 
L 76.562844 71.651343 
L 76.942459 69.366904 
L 77.48845 63.67717 
L 78.05553 54.930597 
L 78.442176 48.452902 
L 78.641357 44.830135 
L 79.902056 23.999971 
L 80.354315 19.136269 
L 80.621452 18.170072 
L 80.642541 18.122846 
L 80.698781 18.276876 
L 81.001067 19.636259 
L 81.832941 28.1 
L 83.681811 60.36529 
L 83.927858 63.687917 
L 84.715209 70.566976 
L 85.052645 71.848697 
L 85.062019 71.846607 
L 85.352589 71.665377 
L 85.659562 70.140019 
L 86.13291 65.21539 
L 86.339121 62.384717 
L 87.958346 35.884092 
L 88.368425 28.829111 
L 88.687115 24.823111 
L 89.235448 19.457457 
L 89.460406 18.528323 
L 89.549452 18.677838 
L 89.821275 19.485817 
L 90.182144 22.542351 
L 91.084318 35.054285 
L 91.869326 48.425982 
L 92.640274 61.730389 
L 93.031606 66.160141 
L 93.294056 68.890736 
L 93.645552 70.872664 
L 93.872853 71.290691 
L 93.966585 71.213404 
L 94.224349 70.79988 
L 94.561785 69.060956 
L 95.098403 63.608334 
L 96.780897 37.203614 
L 97.408904 26.94844 
L 98.144702 19.5789 
L 98.367316 19.055706 
L 98.592274 19.172626 
L 98.899247 20.551326 
L 99.281206 24.746169 
L 101.25427 56.609878 
L 101.840097 65.598608 
L 102.4517 70.344016 
L 102.688374 71.022521 
L 102.803196 70.935212 
L 103.025811 70.575621 
L 103.578831 67.599904 
L 104.145911 62.036186 
L 105.249609 45.580913 
L 105.793256 36.095657 
L 106.589981 24.358085 
L 107.300003 19.394204 
L 107.372645 19.204186 
L 107.431228 19.340063 
L 107.735858 20.5057 
L 108.253729 25.243617 
L 110.278346 57.571664 
L 110.718888 64.010916 
L 111.37267 69.335599 
L 111.628091 70.326542 
L 111.782749 70.609548 
L 111.841332 70.523658 
L 112.138932 69.772677 
L 112.731789 66.003711 
L 113.350422 58.36448 
L 115.780431 22.172342 
L 116.122554 20.116254 
L 116.288929 19.842058 
L 116.492796 19.962982 
L 116.839606 22.054148 
L 117.39497 27.866416 
L 118.104992 38.061064 
L 118.254963 40.745353 
L 118.749401 49.286729 
L 119.815606 65.138278 
L 120.417836 69.472877 
L 120.600614 70.086511 
L 120.684973 70.029389 
L 120.977886 69.632718 
L 121.266113 68.447237 
L 122.051121 61.549334 
L 123.787511 35.378751 
L 124.427234 26.051436 
L 124.81388 22.672131 
L 125.202869 20.546571 
L 125.284885 20.297423 
L 125.364557 20.371244 
L 125.610604 20.805024 
L 125.945697 23.183721 
L 126.803348 34.863479 
L 128.553798 61.874308 
L 129.221641 68.087444 
L 129.542674 69.324879 
L 129.694989 69.473511 
L 129.744198 69.388389 
L 130.060544 68.482041 
L 130.498743 65.49162 
L 130.901792 62.294944 
L 131.771159 52.267475 
L 133.514579 24.944022 
L 133.844985 22.461347 
L 134.376916 20.969167 
L 134.393319 21.002332 
L 134.686233 22.010434 
L 135.021326 24.478264 
L 135.642302 33.003182 
L 136.0805 39.504579 
L 136.518699 46.860575 
L 137.127959 56.218125 
L 137.294333 59.158251 
L 137.613023 63.403942 
L 138.023102 66.808564 
L 138.414434 68.754004 
L 138.512853 68.966014 
L 138.592526 68.910921 
L 138.859663 68.533415 
L 139.342384 66.329984 
L 139.536878 64.523945 
L 140.816324 51.37052 
L 142.339474 27.738712 
L 143.084645 21.631355 
L 143.197124 21.310412 
L 143.27914 21.353393 
L 143.5205 21.629542 
L 143.88137 23.514657 
L 144.340658 28.098512 
L 144.961634 38.450628 
L 145.969256 54.879714 
L 146.325439 59.279537 
L 146.740204 63.80532 
L 147.398674 68.020729 
L 147.607228 68.722468 
L 147.67987 68.589389 
L 148.017307 67.559856 
L 148.553924 64.229781 
L 149.915385 48.979576 
L 151.431505 26.74701 
L 152.054825 21.951304 
L 152.291499 21.443522 
L 152.359455 21.611493 
L 152.687518 22.92736 
L 153.228822 27.471804 
L 154.084129 41.682614 
L 154.466088 47.64911 
L 154.466088 47.64911 
" clip-path="url(#pbb08a384ac)" style="fill: none; stroke: #ffc000; stroke-linecap: square"/>
   </g>
   <g id="patch_3">
    <path d="M 38.20525 89.458649 
L 38.20525 2.151563 
" style="fill: none; stroke: #000000; stroke-width: 0.2; stroke-linejoin: miter; stroke-linecap: square"/>
   </g>
   <g id="patch_4">
    <path d="M 155.370604 89.458649 
L 155.370604 2.151563 
" style="fill: none; stroke: #000000; stroke-width: 0.2; stroke-linejoin: miter; stroke-linecap: square"/>
   </g>
   <g id="patch_5">
    <path d="M 38.20525 89.458649 
L 155.370604 89.458649 
" style="fill: none; stroke: #000000; stroke-width: 0.2; stroke-linejoin: miter; stroke-linecap: square"/>
   </g>
   <g id="patch_6">
    <path d="M 38.20525 2.151563 
L 155.370604 2.151563 
" style="fill: none; stroke: #000000; stroke-width: 0.2; stroke-linejoin: miter; stroke-linecap: square"/>
   </g>
  </g>
  <g id="axes_2">
   <g id="patch_7">
    <path d="M 184.661943 89.458649 
L 301.827297 89.458649 
L 301.827297 2.151563 
L 184.661943 2.151563 
L 184.661943 89.458649 
z
" style="fill: none"/>
   </g>
   <g id="matplotlib.axis_3">
    <g id="xtick_7">
     <g id="line2d_17">
      <g>
       <use xlink:href="#mf77f6c93c7" x="184.661943" y="89.458649" style="stroke: #000000; stroke-width: 0.8"/>
      </g>
     </g>
     <g id="text_18">
      <!-- 0 -->
      <g transform="translate(183.549755 99.321774) scale(0.04 -0.04)">
       <use xlink:href="#ArialMT-30"/>
      </g>
     </g>
    </g>
    <g id="xtick_8">
     <g id="line2d_18">
      <g>
       <use xlink:href="#mf77f6c93c7" x="208.095014" y="89.458649" style="stroke: #000000; stroke-width: 0.8"/>
      </g>
     </g>
     <g id="text_19">
      <!-- 100 -->
      <g transform="translate(204.758451 99.321774) scale(0.04 -0.04)">
       <use xlink:href="#ArialMT-31"/>
       <use xlink:href="#ArialMT-30" x="55.615234"/>
       <use xlink:href="#ArialMT-30" x="111.230469"/>
      </g>
     </g>
    </g>
    <g id="xtick_9">
     <g id="line2d_19">
      <g>
       <use xlink:href="#mf77f6c93c7" x="231.528085" y="89.458649" style="stroke: #000000; stroke-width: 0.8"/>
      </g>
     </g>
     <g id="text_20">
      <!-- 200 -->
      <g transform="translate(228.191522 99.321774) scale(0.04 -0.04)">
       <use xlink:href="#ArialMT-32"/>
       <use xlink:href="#ArialMT-30" x="55.615234"/>
       <use xlink:href="#ArialMT-30" x="111.230469"/>
      </g>
     </g>
    </g>
    <g id="xtick_10">
     <g id="line2d_20">
      <g>
       <use xlink:href="#mf77f6c93c7" x="254.961156" y="89.458649" style="stroke: #000000; stroke-width: 0.8"/>
      </g>
     </g>
     <g id="text_21">
      <!-- 300 -->
      <g transform="translate(251.624593 99.321774) scale(0.04 -0.04)">
       <use xlink:href="#ArialMT-33"/>
       <use xlink:href="#ArialMT-30" x="55.615234"/>
       <use xlink:href="#ArialMT-30" x="111.230469"/>
      </g>
     </g>
    </g>
    <g id="xtick_11">
     <g id="line2d_21">
      <g>
       <use xlink:href="#mf77f6c93c7" x="278.394226" y="89.458649" style="stroke: #000000; stroke-width: 0.8"/>
      </g>
     </g>
     <g id="text_22">
      <!-- 400 -->
      <g transform="translate(275.057664 99.321774) scale(0.04 -0.04)">
       <use xlink:href="#ArialMT-34"/>
       <use xlink:href="#ArialMT-30" x="55.615234"/>
       <use xlink:href="#ArialMT-30" x="111.230469"/>
      </g>
     </g>
    </g>
    <g id="xtick_12">
     <g id="line2d_22">
      <g>
       <use xlink:href="#mf77f6c93c7" x="301.827297" y="89.458649" style="stroke: #000000; stroke-width: 0.8"/>
      </g>
     </g>
     <g id="text_23">
      <!-- 500 -->
      <g transform="translate(298.490735 99.321774) scale(0.04 -0.04)">
       <use xlink:href="#ArialMT-35"/>
       <use xlink:href="#ArialMT-30" x="55.615234"/>
       <use xlink:href="#ArialMT-30" x="111.230469"/>
      </g>
     </g>
    </g>
    <g id="text_24">
     <!-- Time ($s$) -->
     <g transform="translate(229.00462 106.956774) scale(0.08 -0.08)">
      <use xlink:href="#ArialMT-54" transform="translate(0 0.203125)"/>
      <use xlink:href="#ArialMT-69" transform="translate(61.083984 0.203125)"/>
      <use xlink:href="#ArialMT-6d" transform="translate(83.300781 0.203125)"/>
      <use xlink:href="#ArialMT-65" transform="translate(166.601562 0.203125)"/>
      <use xlink:href="#ArialMT-20" transform="translate(222.216797 0.203125)"/>
      <use xlink:href="#ArialMT-28" transform="translate(250 0.203125)"/>
      <use xlink:href="#STIXGeneral-Italic-73" transform="translate(283.300781 0.203125)"/>
      <use xlink:href="#ArialMT-29" transform="translate(322.200775 0.203125)"/>
     </g>
    </g>
   </g>
   <g id="matplotlib.axis_4">
    <g id="ytick_10">
     <g id="line2d_23">
      <g>
       <use xlink:href="#m63a1d90a8b" x="184.661943" y="89.458649" style="stroke: #000000; stroke-width: 0.8"/>
      </g>
     </g>
     <g id="text_25">
      <!-- −0.100 -->
      <g transform="translate(165.316943 90.890212) scale(0.04 -0.04)">
       <use xlink:href="#ArialMT-2212"/>
       <use xlink:href="#ArialMT-30" x="58.398438"/>
       <use xlink:href="#ArialMT-2e" x="114.013672"/>
       <use xlink:href="#ArialMT-31" x="141.796875"/>
       <use xlink:href="#ArialMT-30" x="197.412109"/>
       <use xlink:href="#ArialMT-30" x="253.027344"/>
      </g>
     </g>
    </g>
    <g id="ytick_11">
     <g id="line2d_24">
      <g>
       <use xlink:href="#m63a1d90a8b" x="184.661943" y="78.545263" style="stroke: #000000; stroke-width: 0.8"/>
      </g>
     </g>
     <g id="text_26">
      <!-- −0.075 -->
      <g transform="translate(165.316943 79.976826) scale(0.04 -0.04)">
       <use xlink:href="#ArialMT-2212"/>
       <use xlink:href="#ArialMT-30" x="58.398438"/>
       <use xlink:href="#ArialMT-2e" x="114.013672"/>
       <use xlink:href="#ArialMT-30" x="141.796875"/>
       <use xlink:href="#ArialMT-37" x="197.412109"/>
       <use xlink:href="#ArialMT-35" x="253.027344"/>
      </g>
     </g>
    </g>
    <g id="ytick_12">
     <g id="line2d_25">
      <g>
       <use xlink:href="#m63a1d90a8b" x="184.661943" y="67.631877" style="stroke: #000000; stroke-width: 0.8"/>
      </g>
     </g>
     <g id="text_27">
      <!-- −0.050 -->
      <g transform="translate(165.316943 69.06344) scale(0.04 -0.04)">
       <use xlink:href="#ArialMT-2212"/>
       <use xlink:href="#ArialMT-30" x="58.398438"/>
       <use xlink:href="#ArialMT-2e" x="114.013672"/>
       <use xlink:href="#ArialMT-30" x="141.796875"/>
       <use xlink:href="#ArialMT-35" x="197.412109"/>
       <use xlink:href="#ArialMT-30" x="253.027344"/>
      </g>
     </g>
    </g>
    <g id="ytick_13">
     <g id="line2d_26">
      <g>
       <use xlink:href="#m63a1d90a8b" x="184.661943" y="56.718492" style="stroke: #000000; stroke-width: 0.8"/>
      </g>
     </g>
     <g id="text_28">
      <!-- −0.025 -->
      <g transform="translate(165.316943 58.150054) scale(0.04 -0.04)">
       <use xlink:href="#ArialMT-2212"/>
       <use xlink:href="#ArialMT-30" x="58.398438"/>
       <use xlink:href="#ArialMT-2e" x="114.013672"/>
       <use xlink:href="#ArialMT-30" x="141.796875"/>
       <use xlink:href="#ArialMT-32" x="197.412109"/>
       <use xlink:href="#ArialMT-35" x="253.027344"/>
      </g>
     </g>
    </g>
    <g id="ytick_14">
     <g id="line2d_27">
      <g>
       <use xlink:href="#m63a1d90a8b" x="184.661943" y="45.805106" style="stroke: #000000; stroke-width: 0.8"/>
      </g>
     </g>
     <g id="text_29">
      <!-- 0.000 -->
      <g transform="translate(167.653193 47.236668) scale(0.04 -0.04)">
       <use xlink:href="#ArialMT-30"/>
       <use xlink:href="#ArialMT-2e" x="55.615234"/>
       <use xlink:href="#ArialMT-30" x="83.398438"/>
       <use xlink:href="#ArialMT-30" x="139.013672"/>
       <use xlink:href="#ArialMT-30" x="194.628906"/>
      </g>
     </g>
    </g>
    <g id="ytick_15">
     <g id="line2d_28">
      <g>
       <use xlink:href="#m63a1d90a8b" x="184.661943" y="34.89172" style="stroke: #000000; stroke-width: 0.8"/>
      </g>
     </g>
     <g id="text_30">
      <!-- 0.025 -->
      <g transform="translate(167.653193 36.323282) scale(0.04 -0.04)">
       <use xlink:href="#ArialMT-30"/>
       <use xlink:href="#ArialMT-2e" x="55.615234"/>
       <use xlink:href="#ArialMT-30" x="83.398438"/>
       <use xlink:href="#ArialMT-32" x="139.013672"/>
       <use xlink:href="#ArialMT-35" x="194.628906"/>
      </g>
     </g>
    </g>
    <g id="ytick_16">
     <g id="line2d_29">
      <g>
       <use xlink:href="#m63a1d90a8b" x="184.661943" y="23.978334" style="stroke: #000000; stroke-width: 0.8"/>
      </g>
     </g>
     <g id="text_31">
      <!-- 0.050 -->
      <g transform="translate(167.653193 25.409897) scale(0.04 -0.04)">
       <use xlink:href="#ArialMT-30"/>
       <use xlink:href="#ArialMT-2e" x="55.615234"/>
       <use xlink:href="#ArialMT-30" x="83.398438"/>
       <use xlink:href="#ArialMT-35" x="139.013672"/>
       <use xlink:href="#ArialMT-30" x="194.628906"/>
      </g>
     </g>
    </g>
    <g id="ytick_17">
     <g id="line2d_30">
      <g>
       <use xlink:href="#m63a1d90a8b" x="184.661943" y="13.064948" style="stroke: #000000; stroke-width: 0.8"/>
      </g>
     </g>
     <g id="text_32">
      <!-- 0.075 -->
      <g transform="translate(167.653193 14.496511) scale(0.04 -0.04)">
       <use xlink:href="#ArialMT-30"/>
       <use xlink:href="#ArialMT-2e" x="55.615234"/>
       <use xlink:href="#ArialMT-30" x="83.398438"/>
       <use xlink:href="#ArialMT-37" x="139.013672"/>
       <use xlink:href="#ArialMT-35" x="194.628906"/>
      </g>
     </g>
    </g>
    <g id="ytick_18">
     <g id="line2d_31">
      <g>
       <use xlink:href="#m63a1d90a8b" x="184.661943" y="2.151563" style="stroke: #000000; stroke-width: 0.8"/>
      </g>
     </g>
     <g id="text_33">
      <!-- 0.100 -->
      <g transform="translate(167.653193 3.583125) scale(0.04 -0.04)">
       <use xlink:href="#ArialMT-30"/>
       <use xlink:href="#ArialMT-2e" x="55.615234"/>
       <use xlink:href="#ArialMT-31" x="83.398438"/>
       <use xlink:href="#ArialMT-30" x="139.013672"/>
       <use xlink:href="#ArialMT-30" x="194.628906"/>
      </g>
     </g>
    </g>
    <g id="text_34">
     <!-- Fast [ATP] ($mM$) -->
     <g transform="translate(162.556943 74.725106) rotate(-90) scale(0.08 -0.08)">
      <defs>
       <path id="ArialMT-5b" d="M 434 -1272 
L 434 4581 
L 1675 4581 
L 1675 4116 
L 997 4116 
L 997 -806 
L 1675 -806 
L 1675 -1272 
L 434 -1272 
z
" transform="scale(0.015625)"/>
       <path id="ArialMT-50" d="M 494 0 
L 494 4581 
L 2222 4581 
Q 2678 4581 2919 4538 
Q 3256 4481 3484 4323 
Q 3713 4166 3852 3881 
Q 3991 3597 3991 3256 
Q 3991 2672 3619 2267 
Q 3247 1863 2275 1863 
L 1100 1863 
L 1100 0 
L 494 0 
z
M 1100 2403 
L 2284 2403 
Q 2872 2403 3119 2622 
Q 3366 2841 3366 3238 
Q 3366 3525 3220 3729 
Q 3075 3934 2838 4000 
Q 2684 4041 2272 4041 
L 1100 4041 
L 1100 2403 
z
" transform="scale(0.015625)"/>
       <path id="ArialMT-5d" d="M 1363 -1272 
L 122 -1272 
L 122 -806 
L 800 -806 
L 800 4116 
L 122 4116 
L 122 4581 
L 1363 4581 
L 1363 -1272 
z
" transform="scale(0.015625)"/>
       <path id="STIXGeneral-Italic-6d" d="M 4506 672 
L 4474 627 
Q 3981 -58 3552 -58 
Q 3296 -58 3296 237 
Q 3296 333 3379 659 
L 3750 2112 
Q 3795 2291 3795 2355 
Q 3795 2413 3756 2451 
Q 3718 2490 3667 2490 
Q 3366 2490 2829 1741 
Q 2592 1408 2457 1072 
Q 2323 736 2138 0 
L 1658 0 
L 1830 595 
Q 2266 2099 2266 2330 
Q 2266 2490 2125 2490 
Q 1965 2490 1702 2237 
Q 1440 1984 1171 1574 
Q 1011 1325 899 1043 
Q 787 762 557 0 
L 77 0 
L 352 922 
Q 704 2093 704 2381 
Q 704 2522 442 2522 
L 282 2522 
L 282 2624 
L 1318 2822 
L 1338 2810 
L 966 1472 
Q 1798 2822 2374 2822 
Q 2560 2822 2659 2720 
Q 2758 2618 2758 2438 
Q 2758 2195 2502 1466 
Q 2842 2003 3069 2275 
Q 3296 2547 3526 2694 
Q 3731 2822 3930 2822 
Q 4102 2822 4201 2710 
Q 4301 2598 4301 2419 
Q 4301 2336 4282 2240 
L 3846 634 
Q 3782 390 3782 346 
Q 3782 243 3859 243 
Q 4000 243 4275 582 
L 4410 749 
L 4506 672 
z
" transform="scale(0.015625)"/>
       <path id="STIXGeneral-Italic-4d" d="M 5581 4179 
L 5581 4077 
Q 5318 4032 5225 3945 
Q 5133 3859 5062 3603 
L 4275 768 
Q 4186 448 4186 371 
Q 4186 243 4301 176 
Q 4416 109 4704 102 
L 4698 0 
L 2963 0 
L 2963 102 
Q 3277 134 3405 243 
Q 3533 352 3616 653 
L 4422 3590 
L 2016 0 
L 1907 0 
L 1510 3494 
L 755 755 
Q 698 550 698 410 
Q 698 134 1146 102 
L 1146 0 
L -115 0 
L -115 102 
Q 141 134 259 284 
Q 378 435 525 960 
L 1254 3526 
Q 1331 3789 1331 3859 
Q 1331 4051 858 4077 
L 858 4179 
L 2016 4179 
L 2374 1030 
L 4518 4179 
L 5581 4179 
z
" transform="scale(0.015625)"/>
      </defs>
      <use xlink:href="#ArialMT-46" transform="translate(0 0.203125)"/>
      <use xlink:href="#ArialMT-61" transform="translate(61.083984 0.203125)"/>
      <use xlink:href="#ArialMT-73" transform="translate(116.699219 0.203125)"/>
      <use xlink:href="#ArialMT-74" transform="translate(166.699219 0.203125)"/>
      <use xlink:href="#ArialMT-20" transform="translate(194.482422 0.203125)"/>
      <use xlink:href="#ArialMT-5b" transform="translate(222.265625 0.203125)"/>
      <use xlink:href="#ArialMT-41" transform="translate(250.048828 0.203125)"/>
      <use xlink:href="#ArialMT-54" transform="translate(316.748047 0.203125)"/>
      <use xlink:href="#ArialMT-50" transform="translate(377.832031 0.203125)"/>
      <use xlink:href="#ArialMT-5d" transform="translate(444.53125 0.203125)"/>
      <use xlink:href="#ArialMT-20" transform="translate(472.314453 0.203125)"/>
      <use xlink:href="#ArialMT-28" transform="translate(500.097656 0.203125)"/>
      <use xlink:href="#STIXGeneral-Italic-6d" transform="translate(533.398438 0.203125)"/>
      <use xlink:href="#STIXGeneral-Italic-4d" transform="translate(605.598419 0.203125)"/>
      <use xlink:href="#ArialMT-29" transform="translate(688.898407 0.203125)"/>
     </g>
    </g>
   </g>
   <g id="line2d_32">
    <path d="M 184.661943 47.063467 
L 184.994693 44.986577 
L 185.608639 39.110367 
L 186.342094 35.301928 
L 186.379587 35.32491 
L 186.979474 36.086886 
L 187.26067 37.648555 
L 187.569987 39.902931 
L 187.844154 40.947765 
L 188.090201 42.388351 
L 188.483877 45.606496 
L 188.954881 48.897829 
L 189.39308 51.771409 
L 190.686585 57.28271 
L 190.937319 57.551217 
L 190.995902 57.561143 
L 191.035738 57.493765 
L 191.410667 56.754973 
L 191.647341 55.580488 
L 192.118346 52.676596 
L 192.430006 51.256698 
L 194.538982 28.104012 
L 194.606938 27.834695 
L 194.679581 27.898001 
L 194.946718 28.462853 
L 195.466932 30.917636 
L 196.059789 33.055706 
L 196.664362 39.219784 
L 197.048664 42.956975 
L 197.210352 44.423017 
L 197.575908 47.302229 
L 197.777433 49.049773 
L 198.829578 59.42744 
L 199.106088 60.889362 
L 199.347448 61.390903 
L 199.81611 61.79296 
L 199.919215 61.856315 
L 200.087933 62.015736 
L 200.111367 61.939606 
L 200.544878 60.096495 
L 200.976047 57.008066 
L 201.423619 51.599961 
L 202.45936 36.859046 
L 202.827259 32.912186 
L 203.251398 28.629742 
L 203.621641 25.222482 
L 203.696626 24.891052 
L 203.769269 24.955426 
L 204.109048 25.642921 
L 204.390245 27.2013 
L 205.184626 35.076943 
L 205.822006 42.406592 
L 206.337533 49.176038 
L 206.738239 53.564869 
L 207.373275 59.484155 
L 207.771637 62.767195 
L 207.928639 63.014288 
L 208.078611 63.160303 
L 208.0997 63.091978 
L 209.093263 59.498798 
L 209.294787 57.781313 
L 209.983719 50.33993 
L 210.131348 48.257038 
L 211.080387 33.335141 
L 211.645124 28.034896 
L 212.090352 25.49335 
L 212.233294 25.134627 
L 212.30125 25.209799 
L 212.57776 25.890777 
L 213.744727 34.071922 
L 214.644557 43.276999 
L 215.274907 49.711295 
L 216.113811 58.093449 
L 216.619965 61.827741 
L 216.648085 61.785107 
L 216.938655 61.560183 
L 216.950371 61.570368 
L 217.444809 62.10643 
L 217.477615 61.954606 
L 217.904097 59.257777 
L 218.569596 53.082971 
L 219.190573 44.499832 
L 219.968551 34.365967 
L 221.22222 23.579154 
L 221.306579 23.267729 
L 221.381565 23.39741 
L 221.695568 24.630832 
L 222.827385 34.864651 
L 223.232778 40.180903 
L 223.364003 41.815941 
L 224.071681 51.113461 
L 224.202907 51.986929 
L 224.919959 56.889176 
L 225.308948 59.381737 
L 225.533905 60.285699 
L 226.049433 62.079623 
L 226.262674 63.488717 
L 226.377496 63.465056 
L 226.536841 63.47323 
L 226.541527 63.450326 
L 226.914113 60.726932 
L 227.511656 52.692222 
L 227.902989 48.093842 
L 228.146693 45.036441 
L 228.516935 39.364845 
L 229.175404 28.458934 
L 229.482378 24.332103 
L 229.690932 23.258392 
L 229.932293 22.950094 
L 229.988532 22.997093 
L 230.14319 22.989999 
L 230.265042 23.044953 
L 230.560299 23.469051 
L 231.03599 25.396839 
L 231.399203 29.050794 
L 231.804595 33.450233 
L 232.139688 38.963573 
L 232.58023 46.953891 
L 234.246321 63.260203 
L 234.370516 64.039488 
L 234.609533 65.135658 
L 235.075852 65.408229 
L 235.171927 65.423001 
L 235.193017 65.446793 
L 235.347675 65.551557 
L 235.368765 65.49166 
L 236.099877 62.408745 
L 236.299058 60.578695 
L 237.707385 40.243767 
L 238.44787 28.721992 
L 239.047757 22.792857 
L 239.249281 21.848958 
L 239.310207 21.894517 
L 239.7156 22.204501 
L 239.799959 22.119854 
L 240.036633 21.791097 
L 240.057722 21.8966 
L 240.25456 23.847513 
L 240.5381 27.347258 
L 241.123927 33.20824 
L 241.252809 34.936989 
L 242.497105 55.585248 
L 243.232904 63.33137 
L 243.558623 66.663821 
L 243.715625 67.073412 
L 243.954642 67.141894 
L 244.226466 67.127966 
L 244.561559 66.300854 
L 244.922428 64.445419 
L 245.166132 62.252614 
L 245.510598 57.166763 
L 246.473697 41.028019 
L 247.017344 31.014908 
L 247.865622 21.014185 
L 248.308507 18.777306 
L 248.385836 18.882459 
L 248.662346 19.869639 
L 249.655908 30.220607 
L 250.1316 36.407505 
L 250.925981 51.608408 
L 251.303253 57.60973 
L 252.254636 66.968279 
L 252.985748 70.269037 
L 253.03027 70.136189 
L 253.358333 68.915035 
L 253.67468 65.905964 
L 257.222447 16.000528 
L 257.416941 15.183033 
L 257.487241 15.28303 
L 257.789527 16.24921 
L 258.574535 22.962259 
L 259.464992 38.61734 
L 260.245313 56.967693 
L 260.990485 67.609674 
L 261.13577 68.893255 
L 261.386504 70.320089 
L 261.974674 72.947129 
L 262.077779 73.117505 
L 262.134019 73.073434 
L 262.391782 72.944566 
L 262.747965 70.986389 
L 263.741527 61.046296 
L 264.085993 54.462198 
L 265.313886 27.356137 
L 265.965326 17.11354 
L 266.480853 14.217613 
L 266.527719 14.186949 
L 266.588645 14.237904 
L 266.851096 14.742906 
L 267.488475 19.09602 
L 268.064929 28.111728 
L 269.674781 56.294225 
L 270.101263 64.372559 
L 270.890957 73.028552 
L 271.031556 73.102501 
L 271.207304 73.142826 
L 271.336185 73.250551 
L 271.439291 73.27669 
L 271.465067 73.2244 
L 271.823593 72.18884 
L 272.460973 67.493371 
L 272.758573 63.042577 
L 273.182711 54.027459 
L 274.300469 29.02329 
L 274.956595 16.225189 
L 275.268255 13.112871 
L 275.411196 12.767398 
L 275.42057 12.768858 
L 275.633811 12.911804 
L 276.050919 15.872682 
L 276.55473 21.143108 
L 278.743379 60.540992 
L 279.137055 67.44588 
L 280.055631 76.590617 
L 280.252469 76.877933 
L 280.287619 76.734874 
L 281.234315 71.269433 
L 281.789678 64.617782 
L 282.544223 49.663121 
L 283.680727 23.723123 
L 284.140015 16.09387 
L 284.678976 11.885894 
L 284.840664 11.815877 
L 284.997666 11.917349 
L 285.335102 14.324933 
L 285.857659 22.064697 
L 286.363814 32.024705 
L 286.766863 40.364217 
L 287.151165 47.598236 
L 287.291763 50.17427 
L 288.072085 65.059755 
L 288.550119 71.965001 
L 288.697748 72.916943 
L 288.974258 74.094388 
L 289.173439 74.502019 
L 289.895178 76.165011 
L 289.942044 75.977965 
L 290.253704 73.939249 
L 291.045741 61.557576 
L 291.886989 42.574297 
L 292.451726 29.217836 
L 293.424198 11.930034 
L 293.820217 8.740037 
L 294.038144 8.633241 
L 294.052204 8.707376 
L 294.204519 10.326801 
L 294.830182 19.136826 
L 295.01999 23.055314 
L 295.598787 35.591184 
L 296.641559 62.124301 
L 297.056324 73.295102 
L 297.796809 83.270449 
L 298.230321 85.480862 
L 298.614623 87.020777 
L 298.710699 87.134575 
L 298.743505 87.049616 
L 299.109061 86.244112 
L 299.275436 86.126255 
L 299.605842 84.561224 
L 300.062787 75.825962 
L 300.531448 64.560716 
L 300.922781 55.696564 
L 300.922781 55.696564 
" clip-path="url(#p5f7f05bb3a)" style="fill: none; stroke: #a9d18e; stroke-linecap: square"/>
   </g>
   <g id="patch_8">
    <path d="M 184.661943 89.458649 
L 184.661943 2.151563 
" style="fill: none; stroke: #000000; stroke-width: 0.2; stroke-linejoin: miter; stroke-linecap: square"/>
   </g>
   <g id="patch_9">
    <path d="M 301.827297 89.458649 
L 301.827297 2.151563 
" style="fill: none; stroke: #000000; stroke-width: 0.2; stroke-linejoin: miter; stroke-linecap: square"/>
   </g>
   <g id="patch_10">
    <path d="M 184.661943 89.458649 
L 301.827297 89.458649 
" style="fill: none; stroke: #000000; stroke-width: 0.2; stroke-linejoin: miter; stroke-linecap: square"/>
   </g>
   <g id="patch_11">
    <path d="M 184.661943 2.151563 
L 301.827297 2.151563 
" style="fill: none; stroke: #000000; stroke-width: 0.2; stroke-linejoin: miter; stroke-linecap: square"/>
   </g>
  </g>
 </g>
 <defs>
  <clipPath id="pbb08a384ac">
   <rect x="38.20525" y="2.151562" width="117.165354" height="87.307087"/>
  </clipPath>
  <clipPath id="p5f7f05bb3a">
   <rect x="184.661943" y="2.151562" width="117.165354" height="87.307087"/>
  </clipPath>
 </defs>
</svg>
