<?xml version="1.0" encoding="utf-8" standalone="no"?>
<!DOCTYPE svg PUBLIC "-//W3C//DTD SVG 1.1//EN"
  "http://www.w3.org/Graphics/SVG/1.1/DTD/svg11.dtd">
<svg xmlns:xlink="http://www.w3.org/1999/xlink" width="301.323235pt" height="138.407399pt" viewBox="0 0 301.323235 138.407399" xmlns="http://www.w3.org/2000/svg" version="1.1">
 <metadata>
  <rdf:RDF xmlns:dc="http://purl.org/dc/elements/1.1/" xmlns:cc="http://creativecommons.org/ns#" xmlns:rdf="http://www.w3.org/1999/02/22-rdf-syntax-ns#">
   <cc:Work>
    <dc:type rdf:resource="http://purl.org/dc/dcmitype/StillImage"/>
    <dc:date>2025-01-13T14:29:17.951001</dc:date>
    <dc:format>image/svg+xml</dc:format>
    <dc:creator>
     <cc:Agent>
      <dc:title>Matplotlib v3.8.0, https://matplotlib.org/</dc:title>
     </cc:Agent>
    </dc:creator>
   </cc:Work>
  </rdf:RDF>
 </metadata>
 <defs>
  <style type="text/css">*{stroke-linejoin: round; stroke-linecap: butt}</style>
 </defs>
 <g id="figure_1">
  <g id="patch_1">
   <path d="M 0 138.407399 
L 301.323235 138.407399 
L 301.323235 0 
L 0 0 
L 0 138.407399 
z
" style="fill: none"/>
  </g>
  <g id="axes_1">
   <g id="patch_2">
    <path d="M 33.644625 118.429274 
L 153.472828 118.429274 
L 153.472828 31.122187 
L 33.644625 31.122187 
L 33.644625 118.429274 
z
" style="fill: none"/>
   </g>
   <g id="PathCollection_1">
    <defs>
     <path id="m00722fd1a2" d="M 0 0.707107 
C 0.187527 0.707107 0.367398 0.632602 0.5 0.5 
C 0.632602 0.367398 0.707107 0.187527 0.707107 0 
C 0.707107 -0.187527 0.632602 -0.367398 0.5 -0.5 
C 0.367398 -0.632602 0.187527 -0.707107 0 -0.707107 
C -0.187527 -0.707107 -0.367398 -0.632602 -0.5 -0.5 
C -0.632602 -0.367398 -0.707107 -0.187527 -0.707107 0 
C -0.707107 0.187527 -0.632602 0.367398 -0.5 0.5 
C -0.367398 0.632602 -0.187527 0.707107 0 0.707107 
z
" style="stroke: #008000"/>
    </defs>
    <g clip-path="url(#p2d8e4e174d)">
     <use xlink:href="#m00722fd1a2" x="41.816908" y="62.280965" style="fill: #008000; stroke: #008000"/>
     <use xlink:href="#m00722fd1a2" x="50.552384" y="60.396646" style="fill: #008000; stroke: #008000"/>
     <use xlink:href="#m00722fd1a2" x="59.290257" y="59.08407" style="fill: #008000; stroke: #008000"/>
     <use xlink:href="#m00722fd1a2" x="68.308528" y="58.428232" style="fill: #008000; stroke: #008000"/>
     <use xlink:href="#m00722fd1a2" x="77.0464" y="57.445493" style="fill: #008000; stroke: #008000"/>
     <use xlink:href="#m00722fd1a2" x="86.064671" y="57.198852" style="fill: #008000; stroke: #008000"/>
     <use xlink:href="#m00722fd1a2" x="95.224339" y="57.362543" style="fill: #008000; stroke: #008000"/>
     <use xlink:href="#m00722fd1a2" x="104.384007" y="56.953199" style="fill: #008000; stroke: #008000"/>
     <use xlink:href="#m00722fd1a2" x="113.541278" y="57.034668" style="fill: #008000; stroke: #008000"/>
     <use xlink:href="#m00722fd1a2" x="122.703342" y="56.625034" style="fill: #008000; stroke: #008000"/>
     <use xlink:href="#m00722fd1a2" x="132.002011" y="56.461607" style="fill: #008000; stroke: #008000"/>
     <use xlink:href="#m00722fd1a2" x="141.022678" y="56.051169" style="fill: #008000; stroke: #008000"/>
     <use xlink:href="#m00722fd1a2" x="150.321347" y="55.314416" style="fill: #008000; stroke: #008000"/>
    </g>
   </g>
   <g id="PathCollection_2">
    <g clip-path="url(#p2d8e4e174d)">
     <use xlink:href="#m00722fd1a2" x="37.589369" y="101.871114" style="fill: #008000; stroke: #008000"/>
     <use xlink:href="#m00722fd1a2" x="46.183448" y="99.084645" style="fill: #008000; stroke: #008000"/>
     <use xlink:href="#m00722fd1a2" x="54.78232" y="96.870609" style="fill: #008000; stroke: #008000"/>
     <use xlink:href="#m00722fd1a2" x="63.798194" y="95.395588" style="fill: #008000; stroke: #008000"/>
     <use xlink:href="#m00722fd1a2" x="72.536067" y="93.92023" style="fill: #008000; stroke: #008000"/>
     <use xlink:href="#m00722fd1a2" x="81.556734" y="92.936663" style="fill: #008000; stroke: #008000"/>
     <use xlink:href="#m00722fd1a2" x="90.575004" y="92.280746" style="fill: #008000; stroke: #008000"/>
     <use xlink:href="#m00722fd1a2" x="99.593275" y="91.789092" style="fill: #008000; stroke: #008000"/>
     <use xlink:href="#m00722fd1a2" x="108.891944" y="91.050994" style="fill: #008000; stroke: #008000"/>
     <use xlink:href="#m00722fd1a2" x="117.912611" y="90.231642" style="fill: #008000; stroke: #008000"/>
     <use xlink:href="#m00722fd1a2" x="127.211279" y="89.084143" style="fill: #008000; stroke: #008000"/>
     <use xlink:href="#m00722fd1a2" x="136.231946" y="88.182379" style="fill: #008000; stroke: #008000"/>
     <use xlink:href="#m00722fd1a2" x="145.530615" y="87.2802" style="fill: #008000; stroke: #008000"/>
    </g>
   </g>
   <g id="matplotlib.axis_1">
    <g id="xtick_1">
     <g id="line2d_1">
      <defs>
       <path id="m0cc3d1a970" d="M 0 0 
L 0 3.5 
" style="stroke: #000000; stroke-width: 0.8"/>
      </defs>
      <g>
       <use xlink:href="#m0cc3d1a970" x="33.644625" y="118.429274" style="stroke: #000000; stroke-width: 0.8"/>
      </g>
     </g>
     <g id="text_1">
      <!-- 0 -->
      <g transform="translate(32.532438 128.292399) scale(0.04 -0.04)">
       <defs>
        <path id="ArialMT-30" d="M 266 2259 
Q 266 3072 433 3567 
Q 600 4063 929 4331 
Q 1259 4600 1759 4600 
Q 2128 4600 2406 4451 
Q 2684 4303 2865 4023 
Q 3047 3744 3150 3342 
Q 3253 2941 3253 2259 
Q 3253 1453 3087 958 
Q 2922 463 2592 192 
Q 2263 -78 1759 -78 
Q 1097 -78 719 397 
Q 266 969 266 2259 
z
M 844 2259 
Q 844 1131 1108 757 
Q 1372 384 1759 384 
Q 2147 384 2411 759 
Q 2675 1134 2675 2259 
Q 2675 3391 2411 3762 
Q 2147 4134 1753 4134 
Q 1366 4134 1134 3806 
Q 844 3388 844 2259 
z
" transform="scale(0.015625)"/>
       </defs>
       <use xlink:href="#ArialMT-30"/>
      </g>
     </g>
    </g>
    <g id="xtick_2">
     <g id="line2d_2">
      <g>
       <use xlink:href="#m0cc3d1a970" x="57.610266" y="118.429274" style="stroke: #000000; stroke-width: 0.8"/>
      </g>
     </g>
     <g id="text_2">
      <!-- 100 -->
      <g transform="translate(54.273703 128.292399) scale(0.04 -0.04)">
       <defs>
        <path id="ArialMT-31" d="M 2384 0 
L 1822 0 
L 1822 3584 
Q 1619 3391 1289 3197 
Q 959 3003 697 2906 
L 697 3450 
Q 1169 3672 1522 3987 
Q 1875 4303 2022 4600 
L 2384 4600 
L 2384 0 
z
" transform="scale(0.015625)"/>
       </defs>
       <use xlink:href="#ArialMT-31"/>
       <use xlink:href="#ArialMT-30" x="55.615234"/>
       <use xlink:href="#ArialMT-30" x="111.230469"/>
      </g>
     </g>
    </g>
    <g id="xtick_3">
     <g id="line2d_3">
      <g>
       <use xlink:href="#m0cc3d1a970" x="81.575906" y="118.429274" style="stroke: #000000; stroke-width: 0.8"/>
      </g>
     </g>
     <g id="text_3">
      <!-- 200 -->
      <g transform="translate(78.239344 128.292399) scale(0.04 -0.04)">
       <defs>
        <path id="ArialMT-32" d="M 3222 541 
L 3222 0 
L 194 0 
Q 188 203 259 391 
Q 375 700 629 1000 
Q 884 1300 1366 1694 
Q 2113 2306 2375 2664 
Q 2638 3022 2638 3341 
Q 2638 3675 2398 3904 
Q 2159 4134 1775 4134 
Q 1369 4134 1125 3890 
Q 881 3647 878 3216 
L 300 3275 
Q 359 3922 746 4261 
Q 1134 4600 1788 4600 
Q 2447 4600 2831 4234 
Q 3216 3869 3216 3328 
Q 3216 3053 3103 2787 
Q 2991 2522 2730 2228 
Q 2469 1934 1863 1422 
Q 1356 997 1212 845 
Q 1069 694 975 541 
L 3222 541 
z
" transform="scale(0.015625)"/>
       </defs>
       <use xlink:href="#ArialMT-32"/>
       <use xlink:href="#ArialMT-30" x="55.615234"/>
       <use xlink:href="#ArialMT-30" x="111.230469"/>
      </g>
     </g>
    </g>
    <g id="xtick_4">
     <g id="line2d_4">
      <g>
       <use xlink:href="#m0cc3d1a970" x="105.541547" y="118.429274" style="stroke: #000000; stroke-width: 0.8"/>
      </g>
     </g>
     <g id="text_4">
      <!-- 300 -->
      <g transform="translate(102.204984 128.292399) scale(0.04 -0.04)">
       <defs>
        <path id="ArialMT-33" d="M 269 1209 
L 831 1284 
Q 928 806 1161 595 
Q 1394 384 1728 384 
Q 2125 384 2398 659 
Q 2672 934 2672 1341 
Q 2672 1728 2419 1979 
Q 2166 2231 1775 2231 
Q 1616 2231 1378 2169 
L 1441 2663 
Q 1497 2656 1531 2656 
Q 1891 2656 2178 2843 
Q 2466 3031 2466 3422 
Q 2466 3731 2256 3934 
Q 2047 4138 1716 4138 
Q 1388 4138 1169 3931 
Q 950 3725 888 3313 
L 325 3413 
Q 428 3978 793 4289 
Q 1159 4600 1703 4600 
Q 2078 4600 2393 4439 
Q 2709 4278 2876 4000 
Q 3044 3722 3044 3409 
Q 3044 3113 2884 2869 
Q 2725 2625 2413 2481 
Q 2819 2388 3044 2092 
Q 3269 1797 3269 1353 
Q 3269 753 2831 336 
Q 2394 -81 1725 -81 
Q 1122 -81 723 278 
Q 325 638 269 1209 
z
" transform="scale(0.015625)"/>
       </defs>
       <use xlink:href="#ArialMT-33"/>
       <use xlink:href="#ArialMT-30" x="55.615234"/>
       <use xlink:href="#ArialMT-30" x="111.230469"/>
      </g>
     </g>
    </g>
    <g id="xtick_5">
     <g id="line2d_5">
      <g>
       <use xlink:href="#m0cc3d1a970" x="129.507188" y="118.429274" style="stroke: #000000; stroke-width: 0.8"/>
      </g>
     </g>
     <g id="text_5">
      <!-- 400 -->
      <g transform="translate(126.170625 128.292399) scale(0.04 -0.04)">
       <defs>
        <path id="ArialMT-34" d="M 2069 0 
L 2069 1097 
L 81 1097 
L 81 1613 
L 2172 4581 
L 2631 4581 
L 2631 1613 
L 3250 1613 
L 3250 1097 
L 2631 1097 
L 2631 0 
L 2069 0 
z
M 2069 1613 
L 2069 3678 
L 634 1613 
L 2069 1613 
z
" transform="scale(0.015625)"/>
       </defs>
       <use xlink:href="#ArialMT-34"/>
       <use xlink:href="#ArialMT-30" x="55.615234"/>
       <use xlink:href="#ArialMT-30" x="111.230469"/>
      </g>
     </g>
    </g>
    <g id="xtick_6">
     <g id="line2d_6">
      <g>
       <use xlink:href="#m0cc3d1a970" x="153.472828" y="118.429274" style="stroke: #000000; stroke-width: 0.8"/>
      </g>
     </g>
     <g id="text_6">
      <!-- 500 -->
      <g transform="translate(150.136266 128.292399) scale(0.04 -0.04)">
       <defs>
        <path id="ArialMT-35" d="M 266 1200 
L 856 1250 
Q 922 819 1161 601 
Q 1400 384 1738 384 
Q 2144 384 2425 690 
Q 2706 997 2706 1503 
Q 2706 1984 2436 2262 
Q 2166 2541 1728 2541 
Q 1456 2541 1237 2417 
Q 1019 2294 894 2097 
L 366 2166 
L 809 4519 
L 3088 4519 
L 3088 3981 
L 1259 3981 
L 1013 2750 
Q 1425 3038 1878 3038 
Q 2478 3038 2890 2622 
Q 3303 2206 3303 1553 
Q 3303 931 2941 478 
Q 2500 -78 1738 -78 
Q 1113 -78 717 272 
Q 322 622 266 1200 
z
" transform="scale(0.015625)"/>
       </defs>
       <use xlink:href="#ArialMT-35"/>
       <use xlink:href="#ArialMT-30" x="55.615234"/>
       <use xlink:href="#ArialMT-30" x="111.230469"/>
      </g>
     </g>
    </g>
    <g id="text_7">
     <!-- Time ($s$) -->
     <g transform="translate(79.318727 135.927399) scale(0.08 -0.08)">
      <defs>
       <path id="ArialMT-54" d="M 1659 0 
L 1659 4041 
L 150 4041 
L 150 4581 
L 3781 4581 
L 3781 4041 
L 2266 4041 
L 2266 0 
L 1659 0 
z
" transform="scale(0.015625)"/>
       <path id="ArialMT-69" d="M 425 3934 
L 425 4581 
L 988 4581 
L 988 3934 
L 425 3934 
z
M 425 0 
L 425 3319 
L 988 3319 
L 988 0 
L 425 0 
z
" transform="scale(0.015625)"/>
       <path id="ArialMT-6d" d="M 422 0 
L 422 3319 
L 925 3319 
L 925 2853 
Q 1081 3097 1340 3245 
Q 1600 3394 1931 3394 
Q 2300 3394 2536 3241 
Q 2772 3088 2869 2813 
Q 3263 3394 3894 3394 
Q 4388 3394 4653 3120 
Q 4919 2847 4919 2278 
L 4919 0 
L 4359 0 
L 4359 2091 
Q 4359 2428 4304 2576 
Q 4250 2725 4106 2815 
Q 3963 2906 3769 2906 
Q 3419 2906 3187 2673 
Q 2956 2441 2956 1928 
L 2956 0 
L 2394 0 
L 2394 2156 
Q 2394 2531 2256 2718 
Q 2119 2906 1806 2906 
Q 1569 2906 1367 2781 
Q 1166 2656 1075 2415 
Q 984 2175 984 1722 
L 984 0 
L 422 0 
z
" transform="scale(0.015625)"/>
       <path id="ArialMT-65" d="M 2694 1069 
L 3275 997 
Q 3138 488 2766 206 
Q 2394 -75 1816 -75 
Q 1088 -75 661 373 
Q 234 822 234 1631 
Q 234 2469 665 2931 
Q 1097 3394 1784 3394 
Q 2450 3394 2872 2941 
Q 3294 2488 3294 1666 
Q 3294 1616 3291 1516 
L 816 1516 
Q 847 969 1125 678 
Q 1403 388 1819 388 
Q 2128 388 2347 550 
Q 2566 713 2694 1069 
z
M 847 1978 
L 2700 1978 
Q 2663 2397 2488 2606 
Q 2219 2931 1791 2931 
Q 1403 2931 1139 2672 
Q 875 2413 847 1978 
z
" transform="scale(0.015625)"/>
       <path id="ArialMT-20" transform="scale(0.015625)"/>
       <path id="ArialMT-28" d="M 1497 -1347 
Q 1031 -759 709 28 
Q 388 816 388 1659 
Q 388 2403 628 3084 
Q 909 3875 1497 4659 
L 1900 4659 
Q 1522 4009 1400 3731 
Q 1209 3300 1100 2831 
Q 966 2247 966 1656 
Q 966 153 1900 -1347 
L 1497 -1347 
z
" transform="scale(0.015625)"/>
       <path id="STIXGeneral-Italic-73" d="M 2342 2829 
L 2214 1933 
L 2112 1933 
Q 2022 2675 1542 2675 
Q 1370 2675 1267 2579 
Q 1165 2483 1165 2310 
Q 1165 2067 1510 1658 
Q 1946 1152 1946 787 
Q 1946 397 1686 163 
Q 1427 -70 1024 -70 
Q 838 -70 672 -6 
Q 538 51 390 51 
Q 262 51 205 -83 
L 102 -83 
L 230 934 
L 333 934 
Q 461 64 973 64 
Q 1203 64 1331 192 
Q 1459 320 1459 557 
Q 1459 845 1101 1293 
Q 698 1798 698 2131 
Q 698 2451 909 2636 
Q 1120 2822 1472 2822 
Q 1600 2822 1830 2758 
Q 1971 2714 2061 2714 
Q 2189 2714 2253 2829 
L 2342 2829 
z
" transform="scale(0.015625)"/>
       <path id="ArialMT-29" d="M 791 -1347 
L 388 -1347 
Q 1322 153 1322 1656 
Q 1322 2244 1188 2822 
Q 1081 3291 891 3722 
Q 769 4003 388 4659 
L 791 4659 
Q 1378 3875 1659 3084 
Q 1900 2403 1900 1659 
Q 1900 816 1576 28 
Q 1253 -759 791 -1347 
z
" transform="scale(0.015625)"/>
      </defs>
      <use xlink:href="#ArialMT-54" transform="translate(0 0.203125)"/>
      <use xlink:href="#ArialMT-69" transform="translate(61.083984 0.203125)"/>
      <use xlink:href="#ArialMT-6d" transform="translate(83.300781 0.203125)"/>
      <use xlink:href="#ArialMT-65" transform="translate(166.601562 0.203125)"/>
      <use xlink:href="#ArialMT-20" transform="translate(222.216797 0.203125)"/>
      <use xlink:href="#ArialMT-28" transform="translate(250 0.203125)"/>
      <use xlink:href="#STIXGeneral-Italic-73" transform="translate(283.300781 0.203125)"/>
      <use xlink:href="#ArialMT-29" transform="translate(322.200775 0.203125)"/>
     </g>
    </g>
   </g>
   <g id="matplotlib.axis_2">
    <g id="ytick_1">
     <g id="line2d_7">
      <defs>
       <path id="mbd62750d12" d="M 0 0 
L -3.5 0 
" style="stroke: #000000; stroke-width: 0.8"/>
      </defs>
      <g>
       <use xlink:href="#mbd62750d12" x="33.644625" y="118.429274" style="stroke: #000000; stroke-width: 0.8"/>
      </g>
     </g>
     <g id="text_8">
      <!-- 0.90 -->
      <g transform="translate(18.86025 119.860837) scale(0.04 -0.04)">
       <defs>
        <path id="ArialMT-2e" d="M 581 0 
L 581 641 
L 1222 641 
L 1222 0 
L 581 0 
z
" transform="scale(0.015625)"/>
        <path id="ArialMT-39" d="M 350 1059 
L 891 1109 
Q 959 728 1153 556 
Q 1347 384 1650 384 
Q 1909 384 2104 503 
Q 2300 622 2425 820 
Q 2550 1019 2634 1356 
Q 2719 1694 2719 2044 
Q 2719 2081 2716 2156 
Q 2547 1888 2255 1720 
Q 1963 1553 1622 1553 
Q 1053 1553 659 1965 
Q 266 2378 266 3053 
Q 266 3750 677 4175 
Q 1088 4600 1706 4600 
Q 2153 4600 2523 4359 
Q 2894 4119 3086 3673 
Q 3278 3228 3278 2384 
Q 3278 1506 3087 986 
Q 2897 466 2520 194 
Q 2144 -78 1638 -78 
Q 1100 -78 759 220 
Q 419 519 350 1059 
z
M 2653 3081 
Q 2653 3566 2395 3850 
Q 2138 4134 1775 4134 
Q 1400 4134 1122 3828 
Q 844 3522 844 3034 
Q 844 2597 1108 2323 
Q 1372 2050 1759 2050 
Q 2150 2050 2401 2323 
Q 2653 2597 2653 3081 
z
" transform="scale(0.015625)"/>
       </defs>
       <use xlink:href="#ArialMT-30"/>
       <use xlink:href="#ArialMT-2e" x="55.615234"/>
       <use xlink:href="#ArialMT-39" x="83.398438"/>
       <use xlink:href="#ArialMT-30" x="139.013672"/>
      </g>
     </g>
    </g>
    <g id="ytick_2">
     <g id="line2d_8">
      <g>
       <use xlink:href="#mbd62750d12" x="33.644625" y="103.878093" style="stroke: #000000; stroke-width: 0.8"/>
      </g>
     </g>
     <g id="text_9">
      <!-- 0.95 -->
      <g transform="translate(18.86025 105.309656) scale(0.04 -0.04)">
       <use xlink:href="#ArialMT-30"/>
       <use xlink:href="#ArialMT-2e" x="55.615234"/>
       <use xlink:href="#ArialMT-39" x="83.398438"/>
       <use xlink:href="#ArialMT-35" x="139.013672"/>
      </g>
     </g>
    </g>
    <g id="ytick_3">
     <g id="line2d_9">
      <g>
       <use xlink:href="#mbd62750d12" x="33.644625" y="89.326912" style="stroke: #000000; stroke-width: 0.8"/>
      </g>
     </g>
     <g id="text_10">
      <!-- 1.00 -->
      <g transform="translate(18.86025 90.758474) scale(0.04 -0.04)">
       <use xlink:href="#ArialMT-31"/>
       <use xlink:href="#ArialMT-2e" x="55.615234"/>
       <use xlink:href="#ArialMT-30" x="83.398438"/>
       <use xlink:href="#ArialMT-30" x="139.013672"/>
      </g>
     </g>
    </g>
    <g id="ytick_4">
     <g id="line2d_10">
      <g>
       <use xlink:href="#mbd62750d12" x="33.644625" y="74.775731" style="stroke: #000000; stroke-width: 0.8"/>
      </g>
     </g>
     <g id="text_11">
      <!-- 1.05 -->
      <g transform="translate(18.86025 76.207293) scale(0.04 -0.04)">
       <use xlink:href="#ArialMT-31"/>
       <use xlink:href="#ArialMT-2e" x="55.615234"/>
       <use xlink:href="#ArialMT-30" x="83.398438"/>
       <use xlink:href="#ArialMT-35" x="139.013672"/>
      </g>
     </g>
    </g>
    <g id="ytick_5">
     <g id="line2d_11">
      <g>
       <use xlink:href="#mbd62750d12" x="33.644625" y="60.22455" style="stroke: #000000; stroke-width: 0.8"/>
      </g>
     </g>
     <g id="text_12">
      <!-- 1.10 -->
      <g transform="translate(18.86025 61.656112) scale(0.04 -0.04)">
       <use xlink:href="#ArialMT-31"/>
       <use xlink:href="#ArialMT-2e" x="55.615234"/>
       <use xlink:href="#ArialMT-31" x="83.398438"/>
       <use xlink:href="#ArialMT-30" x="139.013672"/>
      </g>
     </g>
    </g>
    <g id="ytick_6">
     <g id="line2d_12">
      <g>
       <use xlink:href="#mbd62750d12" x="33.644625" y="45.673369" style="stroke: #000000; stroke-width: 0.8"/>
      </g>
     </g>
     <g id="text_13">
      <!-- 1.15 -->
      <g transform="translate(18.86025 47.104931) scale(0.04 -0.04)">
       <use xlink:href="#ArialMT-31"/>
       <use xlink:href="#ArialMT-2e" x="55.615234"/>
       <use xlink:href="#ArialMT-31" x="83.398438"/>
       <use xlink:href="#ArialMT-35" x="139.013672"/>
      </g>
     </g>
    </g>
    <g id="ytick_7">
     <g id="line2d_13">
      <g>
       <use xlink:href="#mbd62750d12" x="33.644625" y="31.122187" style="stroke: #000000; stroke-width: 0.8"/>
      </g>
     </g>
     <g id="text_14">
      <!-- 1.20 -->
      <g transform="translate(18.86025 32.55375) scale(0.04 -0.04)">
       <use xlink:href="#ArialMT-31"/>
       <use xlink:href="#ArialMT-2e" x="55.615234"/>
       <use xlink:href="#ArialMT-32" x="83.398438"/>
       <use xlink:href="#ArialMT-30" x="139.013672"/>
      </g>
     </g>
    </g>
    <g id="text_15">
     <!-- Fast NADH fluorescence -->
     <g transform="translate(6.44625 118.789481) rotate(-90) scale(0.08 -0.08)">
      <defs>
       <path id="ArialMT-46" d="M 525 0 
L 525 4581 
L 3616 4581 
L 3616 4041 
L 1131 4041 
L 1131 2622 
L 3281 2622 
L 3281 2081 
L 1131 2081 
L 1131 0 
L 525 0 
z
" transform="scale(0.015625)"/>
       <path id="ArialMT-61" d="M 2588 409 
Q 2275 144 1986 34 
Q 1697 -75 1366 -75 
Q 819 -75 525 192 
Q 231 459 231 875 
Q 231 1119 342 1320 
Q 453 1522 633 1644 
Q 813 1766 1038 1828 
Q 1203 1872 1538 1913 
Q 2219 1994 2541 2106 
Q 2544 2222 2544 2253 
Q 2544 2597 2384 2738 
Q 2169 2928 1744 2928 
Q 1347 2928 1158 2789 
Q 969 2650 878 2297 
L 328 2372 
Q 403 2725 575 2942 
Q 747 3159 1072 3276 
Q 1397 3394 1825 3394 
Q 2250 3394 2515 3294 
Q 2781 3194 2906 3042 
Q 3031 2891 3081 2659 
Q 3109 2516 3109 2141 
L 3109 1391 
Q 3109 606 3145 398 
Q 3181 191 3288 0 
L 2700 0 
Q 2613 175 2588 409 
z
M 2541 1666 
Q 2234 1541 1622 1453 
Q 1275 1403 1131 1340 
Q 988 1278 909 1158 
Q 831 1038 831 891 
Q 831 666 1001 516 
Q 1172 366 1500 366 
Q 1825 366 2078 508 
Q 2331 650 2450 897 
Q 2541 1088 2541 1459 
L 2541 1666 
z
" transform="scale(0.015625)"/>
       <path id="ArialMT-73" d="M 197 991 
L 753 1078 
Q 800 744 1014 566 
Q 1228 388 1613 388 
Q 2000 388 2187 545 
Q 2375 703 2375 916 
Q 2375 1106 2209 1216 
Q 2094 1291 1634 1406 
Q 1016 1563 777 1677 
Q 538 1791 414 1992 
Q 291 2194 291 2438 
Q 291 2659 392 2848 
Q 494 3038 669 3163 
Q 800 3259 1026 3326 
Q 1253 3394 1513 3394 
Q 1903 3394 2198 3281 
Q 2494 3169 2634 2976 
Q 2775 2784 2828 2463 
L 2278 2388 
Q 2241 2644 2061 2787 
Q 1881 2931 1553 2931 
Q 1166 2931 1000 2803 
Q 834 2675 834 2503 
Q 834 2394 903 2306 
Q 972 2216 1119 2156 
Q 1203 2125 1616 2013 
Q 2213 1853 2448 1751 
Q 2684 1650 2818 1456 
Q 2953 1263 2953 975 
Q 2953 694 2789 445 
Q 2625 197 2315 61 
Q 2006 -75 1616 -75 
Q 969 -75 630 194 
Q 291 463 197 991 
z
" transform="scale(0.015625)"/>
       <path id="ArialMT-74" d="M 1650 503 
L 1731 6 
Q 1494 -44 1306 -44 
Q 1000 -44 831 53 
Q 663 150 594 308 
Q 525 466 525 972 
L 525 2881 
L 113 2881 
L 113 3319 
L 525 3319 
L 525 4141 
L 1084 4478 
L 1084 3319 
L 1650 3319 
L 1650 2881 
L 1084 2881 
L 1084 941 
Q 1084 700 1114 631 
Q 1144 563 1211 522 
Q 1278 481 1403 481 
Q 1497 481 1650 503 
z
" transform="scale(0.015625)"/>
       <path id="ArialMT-4e" d="M 488 0 
L 488 4581 
L 1109 4581 
L 3516 984 
L 3516 4581 
L 4097 4581 
L 4097 0 
L 3475 0 
L 1069 3600 
L 1069 0 
L 488 0 
z
" transform="scale(0.015625)"/>
       <path id="ArialMT-41" d="M -9 0 
L 1750 4581 
L 2403 4581 
L 4278 0 
L 3588 0 
L 3053 1388 
L 1138 1388 
L 634 0 
L -9 0 
z
M 1313 1881 
L 2866 1881 
L 2388 3150 
Q 2169 3728 2063 4100 
Q 1975 3659 1816 3225 
L 1313 1881 
z
" transform="scale(0.015625)"/>
       <path id="ArialMT-44" d="M 494 0 
L 494 4581 
L 2072 4581 
Q 2606 4581 2888 4516 
Q 3281 4425 3559 4188 
Q 3922 3881 4101 3404 
Q 4281 2928 4281 2316 
Q 4281 1794 4159 1391 
Q 4038 988 3847 723 
Q 3656 459 3429 307 
Q 3203 156 2883 78 
Q 2563 0 2147 0 
L 494 0 
z
M 1100 541 
L 2078 541 
Q 2531 541 2789 625 
Q 3047 709 3200 863 
Q 3416 1078 3536 1442 
Q 3656 1806 3656 2325 
Q 3656 3044 3420 3430 
Q 3184 3816 2847 3947 
Q 2603 4041 2063 4041 
L 1100 4041 
L 1100 541 
z
" transform="scale(0.015625)"/>
       <path id="ArialMT-48" d="M 513 0 
L 513 4581 
L 1119 4581 
L 1119 2700 
L 3500 2700 
L 3500 4581 
L 4106 4581 
L 4106 0 
L 3500 0 
L 3500 2159 
L 1119 2159 
L 1119 0 
L 513 0 
z
" transform="scale(0.015625)"/>
       <path id="ArialMT-66" d="M 556 0 
L 556 2881 
L 59 2881 
L 59 3319 
L 556 3319 
L 556 3672 
Q 556 4006 616 4169 
Q 697 4388 901 4523 
Q 1106 4659 1475 4659 
Q 1713 4659 2000 4603 
L 1916 4113 
Q 1741 4144 1584 4144 
Q 1328 4144 1222 4034 
Q 1116 3925 1116 3625 
L 1116 3319 
L 1763 3319 
L 1763 2881 
L 1116 2881 
L 1116 0 
L 556 0 
z
" transform="scale(0.015625)"/>
       <path id="ArialMT-6c" d="M 409 0 
L 409 4581 
L 972 4581 
L 972 0 
L 409 0 
z
" transform="scale(0.015625)"/>
       <path id="ArialMT-75" d="M 2597 0 
L 2597 488 
Q 2209 -75 1544 -75 
Q 1250 -75 995 37 
Q 741 150 617 320 
Q 494 491 444 738 
Q 409 903 409 1263 
L 409 3319 
L 972 3319 
L 972 1478 
Q 972 1038 1006 884 
Q 1059 663 1231 536 
Q 1403 409 1656 409 
Q 1909 409 2131 539 
Q 2353 669 2445 892 
Q 2538 1116 2538 1541 
L 2538 3319 
L 3100 3319 
L 3100 0 
L 2597 0 
z
" transform="scale(0.015625)"/>
       <path id="ArialMT-6f" d="M 213 1659 
Q 213 2581 725 3025 
Q 1153 3394 1769 3394 
Q 2453 3394 2887 2945 
Q 3322 2497 3322 1706 
Q 3322 1066 3130 698 
Q 2938 331 2570 128 
Q 2203 -75 1769 -75 
Q 1072 -75 642 372 
Q 213 819 213 1659 
z
M 791 1659 
Q 791 1022 1069 705 
Q 1347 388 1769 388 
Q 2188 388 2466 706 
Q 2744 1025 2744 1678 
Q 2744 2294 2464 2611 
Q 2184 2928 1769 2928 
Q 1347 2928 1069 2612 
Q 791 2297 791 1659 
z
" transform="scale(0.015625)"/>
       <path id="ArialMT-72" d="M 416 0 
L 416 3319 
L 922 3319 
L 922 2816 
Q 1116 3169 1280 3281 
Q 1444 3394 1641 3394 
Q 1925 3394 2219 3213 
L 2025 2691 
Q 1819 2813 1613 2813 
Q 1428 2813 1281 2702 
Q 1134 2591 1072 2394 
Q 978 2094 978 1738 
L 978 0 
L 416 0 
z
" transform="scale(0.015625)"/>
       <path id="ArialMT-63" d="M 2588 1216 
L 3141 1144 
Q 3050 572 2676 248 
Q 2303 -75 1759 -75 
Q 1078 -75 664 370 
Q 250 816 250 1647 
Q 250 2184 428 2587 
Q 606 2991 970 3192 
Q 1334 3394 1763 3394 
Q 2303 3394 2647 3120 
Q 2991 2847 3088 2344 
L 2541 2259 
Q 2463 2594 2264 2762 
Q 2066 2931 1784 2931 
Q 1359 2931 1093 2626 
Q 828 2322 828 1663 
Q 828 994 1084 691 
Q 1341 388 1753 388 
Q 2084 388 2306 591 
Q 2528 794 2588 1216 
z
" transform="scale(0.015625)"/>
       <path id="ArialMT-6e" d="M 422 0 
L 422 3319 
L 928 3319 
L 928 2847 
Q 1294 3394 1984 3394 
Q 2284 3394 2536 3286 
Q 2788 3178 2913 3003 
Q 3038 2828 3088 2588 
Q 3119 2431 3119 2041 
L 3119 0 
L 2556 0 
L 2556 2019 
Q 2556 2363 2490 2533 
Q 2425 2703 2258 2804 
Q 2091 2906 1866 2906 
Q 1506 2906 1245 2678 
Q 984 2450 984 1813 
L 984 0 
L 422 0 
z
" transform="scale(0.015625)"/>
      </defs>
      <use xlink:href="#ArialMT-46"/>
      <use xlink:href="#ArialMT-61" x="61.083984"/>
      <use xlink:href="#ArialMT-73" x="116.699219"/>
      <use xlink:href="#ArialMT-74" x="166.699219"/>
      <use xlink:href="#ArialMT-20" x="194.482422"/>
      <use xlink:href="#ArialMT-4e" x="222.265625"/>
      <use xlink:href="#ArialMT-41" x="294.482422"/>
      <use xlink:href="#ArialMT-44" x="361.181641"/>
      <use xlink:href="#ArialMT-48" x="433.398438"/>
      <use xlink:href="#ArialMT-20" x="505.615234"/>
      <use xlink:href="#ArialMT-66" x="533.398438"/>
      <use xlink:href="#ArialMT-6c" x="561.181641"/>
      <use xlink:href="#ArialMT-75" x="583.398438"/>
      <use xlink:href="#ArialMT-6f" x="639.013672"/>
      <use xlink:href="#ArialMT-72" x="694.628906"/>
      <use xlink:href="#ArialMT-65" x="727.929688"/>
      <use xlink:href="#ArialMT-73" x="783.544922"/>
      <use xlink:href="#ArialMT-63" x="833.544922"/>
      <use xlink:href="#ArialMT-65" x="883.544922"/>
      <use xlink:href="#ArialMT-6e" x="939.160156"/>
      <use xlink:href="#ArialMT-63" x="994.775391"/>
      <use xlink:href="#ArialMT-65" x="1044.775391"/>
     </g>
     <!-- $\times 10^{-6}$ (counts) -->
     <g transform="translate(16.10025 100.455731) rotate(-90) scale(0.08 -0.08)">
      <defs>
       <path id="STIXGeneral-Regular-d7" d="M 3821 141 
L 3526 -160 
L 2048 1312 
L 570 -160 
L 275 134 
L 1747 1613 
L 275 3091 
L 576 3386 
L 2048 1914 
L 3526 3386 
L 3821 3098 
L 2349 1613 
L 3821 141 
z
" transform="scale(0.015625)"/>
       <path id="STIXGeneral-Regular-31" d="M 2522 0 
L 755 0 
L 755 96 
Q 1107 115 1235 227 
Q 1363 339 1363 608 
L 1363 3482 
Q 1363 3795 1171 3795 
Q 1082 3795 883 3718 
L 710 3654 
L 710 3744 
L 1856 4326 
L 1914 4307 
L 1914 486 
Q 1914 275 2042 185 
Q 2170 96 2522 96 
L 2522 0 
z
" transform="scale(0.015625)"/>
       <path id="STIXGeneral-Regular-30" d="M 3046 2112 
Q 3046 1683 2963 1302 
Q 2880 922 2717 602 
Q 2554 282 2266 96 
Q 1978 -90 1600 -90 
Q 1210 -90 915 108 
Q 621 307 461 640 
Q 301 973 227 1350 
Q 154 1728 154 2150 
Q 154 2746 301 3222 
Q 448 3699 790 4012 
Q 1133 4326 1626 4326 
Q 2253 4326 2649 3712 
Q 3046 3098 3046 2112 
z
M 2432 2080 
Q 2432 3091 2217 3625 
Q 2003 4160 1587 4160 
Q 1190 4160 979 3622 
Q 768 3085 768 2106 
Q 768 1120 979 598 
Q 1190 77 1600 77 
Q 2003 77 2217 598 
Q 2432 1120 2432 2080 
z
" transform="scale(0.015625)"/>
       <path id="STIXGeneral-Regular-2212" d="M 3974 1408 
L 410 1408 
L 410 1830 
L 3974 1830 
L 3974 1408 
z
" transform="scale(0.015625)"/>
       <path id="STIXGeneral-Regular-36" d="M 2854 4378 
L 2867 4275 
Q 2112 4154 1606 3664 
Q 1101 3174 973 2451 
Q 1344 2739 1786 2739 
Q 2349 2739 2672 2380 
Q 2995 2022 2995 1402 
Q 2995 774 2669 378 
Q 2291 -90 1651 -90 
Q 870 -90 518 557 
Q 218 1107 218 1786 
Q 218 2835 915 3552 
Q 1312 3962 1731 4131 
Q 2150 4301 2854 4378 
z
M 2419 1203 
Q 2419 2445 1555 2445 
Q 1235 2445 1024 2275 
Q 813 2106 813 1702 
Q 813 954 1046 522 
Q 1280 90 1722 90 
Q 2061 90 2240 394 
Q 2419 698 2419 1203 
z
" transform="scale(0.015625)"/>
      </defs>
      <use xlink:href="#STIXGeneral-Regular-d7" transform="translate(0 0.840625)"/>
      <use xlink:href="#STIXGeneral-Regular-31" transform="translate(63.999985 0.840625)"/>
      <use xlink:href="#STIXGeneral-Regular-30" transform="translate(113.999969 0.840625)"/>
      <use xlink:href="#STIXGeneral-Regular-2212" transform="translate(165.543235 36.115625) scale(0.7)"/>
      <use xlink:href="#STIXGeneral-Regular-36" transform="translate(213.493225 36.115625) scale(0.7)"/>
      <use xlink:href="#ArialMT-20" transform="translate(252.902589 0.840625)"/>
      <use xlink:href="#ArialMT-28" transform="translate(280.685792 0.840625)"/>
      <use xlink:href="#ArialMT-63" transform="translate(313.986573 0.840625)"/>
      <use xlink:href="#ArialMT-6f" transform="translate(363.986573 0.840625)"/>
      <use xlink:href="#ArialMT-75" transform="translate(419.601808 0.840625)"/>
      <use xlink:href="#ArialMT-6e" transform="translate(475.217042 0.840625)"/>
      <use xlink:href="#ArialMT-74" transform="translate(530.832277 0.840625)"/>
      <use xlink:href="#ArialMT-73" transform="translate(558.61548 0.840625)"/>
      <use xlink:href="#ArialMT-29" transform="translate(608.61548 0.840625)"/>
     </g>
    </g>
   </g>
   <g id="line2d_14">
    <path d="M 33.644625 83.917638 
L 39.497034 82.038718 
L 45.315892 80.403298 
L 51.089215 79.010658 
L 55.757722 78.099997 
L 59.946916 77.505378 
L 80.62447 75.13245 
L 86.781243 74.866901 
L 101.853235 74.334586 
L 108.784098 74.02191 
L 115.386632 73.739622 
L 121.917269 73.202006 
L 129.164479 72.692917 
L 141.475629 71.849334 
L 152.300908 70.863849 
L 152.547755 70.838777 
L 152.547755 70.838777 
" clip-path="url(#p2d8e4e174d)" style="fill: none; stroke-dasharray: 3.7,1.6; stroke-dashoffset: 0; stroke: #e2f0d9"/>
   </g>
   <g id="line2d_15">
    <path d="M 33.644625 65.645408 
L 33.838747 66.531618 
L 34.121541 68.421967 
L 34.914804 75.900925 
L 35.676911 86.420066 
L 36.72421 97.987115 
L 37.364092 101.393798 
L 37.589369 101.871114 
L 37.670853 101.765293 
L 37.956044 101.104547 
L 38.380236 98.35382 
L 39.12317 92.091199 
L 40.021882 80.686017 
L 40.702506 71.597103 
L 41.07637 67.305351 
L 41.486183 63.698551 
L 41.812115 62.291949 
L 41.816908 62.280965 
L 41.905581 62.351358 
L 42.16441 62.756107 
L 42.528688 64.765189 
L 43.446572 73.596938 
L 45.150529 93.985575 
L 45.780825 98.381513 
L 46.248155 99.084645 
L 46.372777 98.975584 
L 46.784986 97.51712 
L 47.249919 94.832009 
L 48.723806 76.911881 
L 49.179153 71.218564 
L 50.219262 61.248157 
L 50.502057 60.491746 
L 50.554781 60.397116 
L 50.619488 60.493854 
L 50.904679 61.235646 
L 51.554148 65.872733 
L 52.733258 79.113593 
L 53.306037 85.640867 
L 54.178386 94.652655 
L 54.511508 96.315187 
L 54.799096 96.860243 
L 54.92851 96.74147 
L 55.182546 96.321377 
L 55.582772 94.735369 
L 55.798463 93.336263 
L 56.72833 84.948221 
L 56.936831 82.028195 
L 57.615059 72.879986 
L 57.957767 68.570624 
L 58.439477 63.130489 
L 59.191998 59.295574 
L 59.290257 59.08407 
L 59.352568 59.175621 
L 59.659328 59.943416 
L 60.16021 63.102349 
L 60.656299 67.724448 
L 61.008594 71.415101 
L 62.710154 89.947554 
L 63.357226 94.707847 
L 63.628038 95.293257 
L 63.800591 95.394339 
L 63.846125 95.309607 
L 64.172058 94.331053 
L 64.984493 89.225832 
L 66.161206 75.404953 
L 66.853813 66.227909 
L 67.481713 60.659233 
L 68.152751 58.52049 
L 68.308528 58.428232 
L 68.351666 58.516147 
L 68.675202 59.585391 
L 69.264757 63.842919 
L 71.471992 88.584574 
L 72.051961 92.198129 
L 72.485739 93.813761 
L 72.543256 93.917939 
L 72.627136 93.872431 
L 72.883568 93.578841 
L 73.298174 91.831747 
L 73.736745 88.868106 
L 74.321507 83.499616 
L 74.815199 77.738019 
L 75.172287 73.420903 
L 75.64441 67.558031 
L 75.867291 65.29967 
L 76.766002 58.096984 
L 76.991279 57.548051 
L 77.0464 57.445493 
L 77.108711 57.552756 
L 77.417868 58.449309 
L 78.271044 64.079044 
L 79.025962 71.941641 
L 79.244049 75.226718 
L 79.907898 82.940736 
L 80.928834 91.052932 
L 81.324267 92.377449 
L 81.678959 92.901822 
L 81.894649 92.71569 
L 82.242151 91.370267 
L 82.874844 86.537264 
L 84.506904 69.156761 
L 84.940682 64.145819 
L 85.137201 62.402071 
L 85.678824 58.474218 
L 85.944843 57.501363 
L 86.064671 57.198852 
L 86.136568 57.271487 
L 86.428949 57.806076 
L 86.793226 59.775472 
L 87.823749 69.059472 
L 89.685879 88.699153 
L 90.340141 91.998343 
L 90.687643 92.217714 
L 90.953662 91.905481 
L 91.301163 90.680276 
L 91.818821 87.257002 
L 93.498813 70.190197 
L 94.210592 62.528985 
L 95.068562 57.388613 
L 95.205166 57.362543 
L 95.420857 57.469795 
L 95.744393 58.492226 
L 96.173378 61.705753 
L 96.806071 67.405479 
L 97.994767 80.401797 
L 98.567546 86.88743 
L 99.020496 89.954333 
L 99.593275 91.789092 
L 99.907225 91.553226 
L 100.297865 90.268961 
L 100.870644 87.198515 
L 101.997029 77.004834 
L 103.262415 62.74167 
L 103.473312 61.056246 
L 103.902297 58.616889 
L 104.264178 57.187901 
L 104.384007 56.953199 
L 104.443921 57.040718 
L 104.757871 57.813862 
L 105.287511 60.959117 
L 108.264044 89.416836 
L 108.688236 90.802809 
L 108.899133 91.046937 
L 108.966237 90.977471 
L 109.275394 90.423454 
L 109.896104 87.739698 
L 110.490452 82.915226 
L 112.887016 59.137958 
L 113.445415 57.034668 
L 113.723417 57.140778 
L 114.106867 58.715217 
L 114.658077 62.590576 
L 115.285976 68.436537 
L 116.383603 80.486202 
L 116.807795 84.632311 
L 117.699316 89.780073 
L 117.936576 90.221475 
L 118.008473 90.179897 
L 118.32482 89.841829 
L 118.607614 89.005691 
L 119.408067 84.297526 
L 120.153398 78.174741 
L 120.304382 76.579898 
L 121.097644 67.663581 
L 121.90289 60.092616 
L 122.564342 56.945867 
L 122.703342 56.625034 
L 122.782429 56.665867 
L 123.043654 56.960188 
L 123.38876 58.568216 
L 124.275488 66.414535 
L 126.092084 84.36258 
L 126.312568 85.919909 
L 126.847002 88.660493 
L 127.045916 88.985171 
L 127.27359 89.009493 
L 127.609109 88.320793 
L 128.13875 85.919794 
L 128.999116 80.381523 
L 129.876259 71.935263 
L 130.53771 64.198155 
L 131.314197 58.132844 
L 131.630543 56.947981 
L 131.858217 56.588143 
L 132.004407 56.462321 
L 132.052339 56.541037 
L 132.390254 57.437723 
L 132.876757 60.246928 
L 133.248224 63.780209 
L 133.734727 68.629288 
L 134.134953 72.819539 
L 134.542369 76.969845 
L 134.734094 79.015929 
L 135.37158 84.920282 
L 136.083359 87.966632 
L 136.289464 88.154457 
L 136.311033 88.141401 
L 136.603414 87.82633 
L 137.121072 86.173861 
L 138.048542 80.53231 
L 140.548158 57.614297 
L 140.900453 56.291408 
L 141.111351 56.074654 
L 141.365387 56.26818 
L 141.748837 57.599914 
L 142.177822 60.357245 
L 142.568462 64.525949 
L 143.028602 69.335197 
L 143.419242 73.646909 
L 143.824261 77.993092 
L 144.988991 85.544123 
L 145.533012 87.279588 
L 145.585736 87.21639 
L 145.935634 86.5248 
L 146.501223 84.197927 
L 147.893627 73.903546 
L 149.439411 58.965885 
L 150.060121 55.703212 
L 150.323743 55.314684 
L 150.414813 55.460692 
L 150.750332 56.360549 
L 151.282369 59.239129 
L 152.147528 68.506622 
L 152.547755 72.56337 
L 152.547755 72.56337 
" clip-path="url(#p2d8e4e174d)" style="fill: none; stroke: #a9d18e; stroke-width: 0.5; stroke-linecap: square"/>
   </g>
   <g id="patch_3">
    <path d="M 33.644625 118.429274 
L 33.644625 31.122187 
" style="fill: none; stroke: #000000; stroke-width: 0.2; stroke-linejoin: miter; stroke-linecap: square"/>
   </g>
   <g id="patch_4">
    <path d="M 153.472828 118.429274 
L 153.472828 31.122187 
" style="fill: none; stroke: #000000; stroke-width: 0.2; stroke-linejoin: miter; stroke-linecap: square"/>
   </g>
   <g id="patch_5">
    <path d="M 33.644625 118.429274 
L 153.472828 118.429274 
" style="fill: none; stroke: #000000; stroke-width: 0.2; stroke-linejoin: miter; stroke-linecap: square"/>
   </g>
   <g id="patch_6">
    <path d="M 33.644625 31.122187 
L 153.472828 31.122187 
" style="fill: none; stroke: #000000; stroke-width: 0.2; stroke-linejoin: miter; stroke-linecap: square"/>
   </g>
   <g id="legend_1">
    <g id="line2d_16">
     <path d="M 63.010266 5.314687 
L 69.010266 5.314687 
L 75.010266 5.314687 
" style="fill: none; stroke-dasharray: 3.7,1.6; stroke-dashoffset: 0; stroke: #e2f0d9"/>
    </g>
    <g id="text_16">
     <!-- slow dynamics -->
     <g transform="translate(79.810266 7.414687) scale(0.06 -0.06)">
      <defs>
       <path id="ArialMT-77" d="M 1034 0 
L 19 3319 
L 600 3319 
L 1128 1403 
L 1325 691 
Q 1338 744 1497 1375 
L 2025 3319 
L 2603 3319 
L 3100 1394 
L 3266 759 
L 3456 1400 
L 4025 3319 
L 4572 3319 
L 3534 0 
L 2950 0 
L 2422 1988 
L 2294 2553 
L 1622 0 
L 1034 0 
z
" transform="scale(0.015625)"/>
       <path id="ArialMT-64" d="M 2575 0 
L 2575 419 
Q 2259 -75 1647 -75 
Q 1250 -75 917 144 
Q 584 363 401 755 
Q 219 1147 219 1656 
Q 219 2153 384 2558 
Q 550 2963 881 3178 
Q 1213 3394 1622 3394 
Q 1922 3394 2156 3267 
Q 2391 3141 2538 2938 
L 2538 4581 
L 3097 4581 
L 3097 0 
L 2575 0 
z
M 797 1656 
Q 797 1019 1065 703 
Q 1334 388 1700 388 
Q 2069 388 2326 689 
Q 2584 991 2584 1609 
Q 2584 2291 2321 2609 
Q 2059 2928 1675 2928 
Q 1300 2928 1048 2622 
Q 797 2316 797 1656 
z
" transform="scale(0.015625)"/>
       <path id="ArialMT-79" d="M 397 -1278 
L 334 -750 
Q 519 -800 656 -800 
Q 844 -800 956 -737 
Q 1069 -675 1141 -563 
Q 1194 -478 1313 -144 
Q 1328 -97 1363 -6 
L 103 3319 
L 709 3319 
L 1400 1397 
Q 1534 1031 1641 628 
Q 1738 1016 1872 1384 
L 2581 3319 
L 3144 3319 
L 1881 -56 
Q 1678 -603 1566 -809 
Q 1416 -1088 1222 -1217 
Q 1028 -1347 759 -1347 
Q 597 -1347 397 -1278 
z
" transform="scale(0.015625)"/>
      </defs>
      <use xlink:href="#ArialMT-73"/>
      <use xlink:href="#ArialMT-6c" x="50"/>
      <use xlink:href="#ArialMT-6f" x="72.216797"/>
      <use xlink:href="#ArialMT-77" x="127.832031"/>
      <use xlink:href="#ArialMT-20" x="200.048828"/>
      <use xlink:href="#ArialMT-64" x="227.832031"/>
      <use xlink:href="#ArialMT-79" x="283.447266"/>
      <use xlink:href="#ArialMT-6e" x="333.447266"/>
      <use xlink:href="#ArialMT-61" x="389.0625"/>
      <use xlink:href="#ArialMT-6d" x="444.677734"/>
      <use xlink:href="#ArialMT-69" x="527.978516"/>
      <use xlink:href="#ArialMT-63" x="550.195312"/>
      <use xlink:href="#ArialMT-73" x="600.195312"/>
     </g>
    </g>
    <g id="line2d_17">
     <path d="M 63.010266 13.872187 
L 69.010266 13.872187 
L 75.010266 13.872187 
" style="fill: none; stroke: #a9d18e; stroke-width: 0.5; stroke-linecap: square"/>
    </g>
    <g id="text_17">
     <!-- original data -->
     <g transform="translate(79.810266 15.972187) scale(0.06 -0.06)">
      <defs>
       <path id="ArialMT-67" d="M 319 -275 
L 866 -356 
Q 900 -609 1056 -725 
Q 1266 -881 1628 -881 
Q 2019 -881 2231 -725 
Q 2444 -569 2519 -288 
Q 2563 -116 2559 434 
Q 2191 0 1641 0 
Q 956 0 581 494 
Q 206 988 206 1678 
Q 206 2153 378 2554 
Q 550 2956 876 3175 
Q 1203 3394 1644 3394 
Q 2231 3394 2613 2919 
L 2613 3319 
L 3131 3319 
L 3131 450 
Q 3131 -325 2973 -648 
Q 2816 -972 2473 -1159 
Q 2131 -1347 1631 -1347 
Q 1038 -1347 672 -1080 
Q 306 -813 319 -275 
z
M 784 1719 
Q 784 1066 1043 766 
Q 1303 466 1694 466 
Q 2081 466 2343 764 
Q 2606 1063 2606 1700 
Q 2606 2309 2336 2618 
Q 2066 2928 1684 2928 
Q 1309 2928 1046 2623 
Q 784 2319 784 1719 
z
" transform="scale(0.015625)"/>
      </defs>
      <use xlink:href="#ArialMT-6f"/>
      <use xlink:href="#ArialMT-72" x="55.615234"/>
      <use xlink:href="#ArialMT-69" x="88.916016"/>
      <use xlink:href="#ArialMT-67" x="111.132812"/>
      <use xlink:href="#ArialMT-69" x="166.748047"/>
      <use xlink:href="#ArialMT-6e" x="188.964844"/>
      <use xlink:href="#ArialMT-61" x="244.580078"/>
      <use xlink:href="#ArialMT-6c" x="300.195312"/>
      <use xlink:href="#ArialMT-20" x="322.412109"/>
      <use xlink:href="#ArialMT-64" x="350.195312"/>
      <use xlink:href="#ArialMT-61" x="405.810547"/>
      <use xlink:href="#ArialMT-74" x="461.425781"/>
      <use xlink:href="#ArialMT-61" x="489.208984"/>
     </g>
    </g>
    <g id="PathCollection_3">
     <g>
      <use xlink:href="#m00722fd1a2" x="69.010266" y="22.954687" style="fill: #008000; stroke: #008000"/>
     </g>
    </g>
    <g id="text_18">
     <!-- peak -->
     <g transform="translate(79.810266 24.529687) scale(0.06 -0.06)">
      <defs>
       <path id="ArialMT-70" d="M 422 -1272 
L 422 3319 
L 934 3319 
L 934 2888 
Q 1116 3141 1344 3267 
Q 1572 3394 1897 3394 
Q 2322 3394 2647 3175 
Q 2972 2956 3137 2557 
Q 3303 2159 3303 1684 
Q 3303 1175 3120 767 
Q 2938 359 2589 142 
Q 2241 -75 1856 -75 
Q 1575 -75 1351 44 
Q 1128 163 984 344 
L 984 -1272 
L 422 -1272 
z
M 931 1641 
Q 931 1000 1190 694 
Q 1450 388 1819 388 
Q 2194 388 2461 705 
Q 2728 1022 2728 1688 
Q 2728 2322 2467 2637 
Q 2206 2953 1844 2953 
Q 1484 2953 1207 2617 
Q 931 2281 931 1641 
z
" transform="scale(0.015625)"/>
       <path id="ArialMT-6b" d="M 425 0 
L 425 4581 
L 988 4581 
L 988 1969 
L 2319 3319 
L 3047 3319 
L 1778 2088 
L 3175 0 
L 2481 0 
L 1384 1697 
L 988 1316 
L 988 0 
L 425 0 
z
" transform="scale(0.015625)"/>
      </defs>
      <use xlink:href="#ArialMT-70"/>
      <use xlink:href="#ArialMT-65" x="55.615234"/>
      <use xlink:href="#ArialMT-61" x="111.230469"/>
      <use xlink:href="#ArialMT-6b" x="166.845703"/>
     </g>
    </g>
   </g>
  </g>
  <g id="axes_2">
   <g id="patch_7">
    <path d="M 177.438469 118.429274 
L 297.266672 118.429274 
L 297.266672 31.122187 
L 177.438469 31.122187 
L 177.438469 118.429274 
z
" style="fill: none"/>
   </g>
   <g id="PathCollection_4">
    <defs>
     <path id="m941a302558" d="M 0 0.707107 
C 0.187527 0.707107 0.367398 0.632602 0.5 0.5 
C 0.632602 0.367398 0.707107 0.187527 0.707107 0 
C 0.707107 -0.187527 0.632602 -0.367398 0.5 -0.5 
C 0.367398 -0.632602 0.187527 -0.707107 0 -0.707107 
C -0.187527 -0.707107 -0.367398 -0.632602 -0.5 -0.5 
C -0.632602 -0.367398 -0.707107 -0.187527 -0.707107 0 
C -0.707107 0.187527 -0.632602 0.367398 -0.5 0.5 
C -0.367398 0.632602 -0.187527 0.707107 0 0.707107 
z
" style="stroke: #a52a2a"/>
    </defs>
    <g clip-path="url(#p63cd5d482b)">
     <use xlink:href="#m941a302558" x="178.986649" y="39.146878" style="fill: #a52a2a; stroke: #a52a2a"/>
     <use xlink:href="#m941a302558" x="187.580728" y="42.010572" style="fill: #a52a2a; stroke: #a52a2a"/>
     <use xlink:href="#m941a302558" x="196.879397" y="45.937976" style="fill: #a52a2a; stroke: #a52a2a"/>
     <use xlink:href="#m941a302558" x="205.473475" y="49.865138" style="fill: #a52a2a; stroke: #a52a2a"/>
     <use xlink:href="#m941a302558" x="214.769747" y="53.792439" style="fill: #a52a2a; stroke: #a52a2a"/>
     <use xlink:href="#m941a302558" x="223.366223" y="58.701729" style="fill: #a52a2a; stroke: #a52a2a"/>
     <use xlink:href="#m941a302558" x="233.225687" y="63.610987" style="fill: #a52a2a; stroke: #a52a2a"/>
     <use xlink:href="#m941a302558" x="242.382959" y="68.192544" style="fill: #a52a2a; stroke: #a52a2a"/>
     <use xlink:href="#m941a302558" x="251.681627" y="73.674402" style="fill: #a52a2a; stroke: #a52a2a"/>
     <use xlink:href="#m941a302558" x="260.980296" y="78.992623" style="fill: #a52a2a; stroke: #a52a2a"/>
     <use xlink:href="#m941a302558" x="270.139964" y="83.656627" style="fill: #a52a2a; stroke: #a52a2a"/>
     <use xlink:href="#m941a302558" x="279.577633" y="90.201796" style="fill: #a52a2a; stroke: #a52a2a"/>
     <use xlink:href="#m941a302558" x="289.017699" y="96.010961" style="fill: #a52a2a; stroke: #a52a2a"/>
    </g>
   </g>
   <g id="PathCollection_5">
    <g clip-path="url(#p63cd5d482b)">
     <use xlink:href="#m941a302558" x="184.340573" y="44.628736" style="fill: #a52a2a; stroke: #a52a2a"/>
     <use xlink:href="#m941a302558" x="193.356447" y="49.537863" style="fill: #a52a2a; stroke: #a52a2a"/>
     <use xlink:href="#m941a302558" x="201.809129" y="53.465164" style="fill: #a52a2a; stroke: #a52a2a"/>
     <use xlink:href="#m941a302558" x="210.968797" y="57.392223" style="fill: #a52a2a; stroke: #a52a2a"/>
     <use xlink:href="#m941a302558" x="220.267465" y="62.628572" style="fill: #a52a2a; stroke: #a52a2a"/>
     <use xlink:href="#m941a302558" x="229.563737" y="67.865269" style="fill: #a52a2a; stroke: #a52a2a"/>
     <use xlink:href="#m941a302558" x="238.721009" y="72.774396" style="fill: #a52a2a; stroke: #a52a2a"/>
     <use xlink:href="#m941a302558" x="247.597882" y="78.665279" style="fill: #a52a2a; stroke: #a52a2a"/>
     <use xlink:href="#m941a302558" x="257.035551" y="85.129031" style="fill: #a52a2a; stroke: #a52a2a"/>
     <use xlink:href="#m941a302558" x="266.475617" y="90.038076" style="fill: #a52a2a; stroke: #a52a2a"/>
     <use xlink:href="#m941a302558" x="275.632888" y="96.338204" style="fill: #a52a2a; stroke: #a52a2a"/>
     <use xlink:href="#m941a302558" x="285.211955" y="102.965525" style="fill: #a52a2a; stroke: #a52a2a"/>
     <use xlink:href="#m941a302558" x="294.934815" y="110.983721" style="fill: #a52a2a; stroke: #a52a2a"/>
    </g>
   </g>
   <g id="matplotlib.axis_3">
    <g id="xtick_7">
     <g id="line2d_18">
      <g>
       <use xlink:href="#m0cc3d1a970" x="177.438469" y="118.429274" style="stroke: #000000; stroke-width: 0.8"/>
      </g>
     </g>
     <g id="text_19">
      <!-- 0 -->
      <g transform="translate(176.326281 128.292399) scale(0.04 -0.04)">
       <use xlink:href="#ArialMT-30"/>
      </g>
     </g>
    </g>
    <g id="xtick_8">
     <g id="line2d_19">
      <g>
       <use xlink:href="#m0cc3d1a970" x="201.40411" y="118.429274" style="stroke: #000000; stroke-width: 0.8"/>
      </g>
     </g>
     <g id="text_20">
      <!-- 100 -->
      <g transform="translate(198.067547 128.292399) scale(0.04 -0.04)">
       <use xlink:href="#ArialMT-31"/>
       <use xlink:href="#ArialMT-30" x="55.615234"/>
       <use xlink:href="#ArialMT-30" x="111.230469"/>
      </g>
     </g>
    </g>
    <g id="xtick_9">
     <g id="line2d_20">
      <g>
       <use xlink:href="#m0cc3d1a970" x="225.36975" y="118.429274" style="stroke: #000000; stroke-width: 0.8"/>
      </g>
     </g>
     <g id="text_21">
      <!-- 200 -->
      <g transform="translate(222.033188 128.292399) scale(0.04 -0.04)">
       <use xlink:href="#ArialMT-32"/>
       <use xlink:href="#ArialMT-30" x="55.615234"/>
       <use xlink:href="#ArialMT-30" x="111.230469"/>
      </g>
     </g>
    </g>
    <g id="xtick_10">
     <g id="line2d_21">
      <g>
       <use xlink:href="#m0cc3d1a970" x="249.335391" y="118.429274" style="stroke: #000000; stroke-width: 0.8"/>
      </g>
     </g>
     <g id="text_22">
      <!-- 300 -->
      <g transform="translate(245.998828 128.292399) scale(0.04 -0.04)">
       <use xlink:href="#ArialMT-33"/>
       <use xlink:href="#ArialMT-30" x="55.615234"/>
       <use xlink:href="#ArialMT-30" x="111.230469"/>
      </g>
     </g>
    </g>
    <g id="xtick_11">
     <g id="line2d_22">
      <g>
       <use xlink:href="#m0cc3d1a970" x="273.301032" y="118.429274" style="stroke: #000000; stroke-width: 0.8"/>
      </g>
     </g>
     <g id="text_23">
      <!-- 400 -->
      <g transform="translate(269.964469 128.292399) scale(0.04 -0.04)">
       <use xlink:href="#ArialMT-34"/>
       <use xlink:href="#ArialMT-30" x="55.615234"/>
       <use xlink:href="#ArialMT-30" x="111.230469"/>
      </g>
     </g>
    </g>
    <g id="xtick_12">
     <g id="line2d_23">
      <g>
       <use xlink:href="#m0cc3d1a970" x="297.266672" y="118.429274" style="stroke: #000000; stroke-width: 0.8"/>
      </g>
     </g>
     <g id="text_24">
      <!-- 500 -->
      <g transform="translate(293.93011 128.292399) scale(0.04 -0.04)">
       <use xlink:href="#ArialMT-35"/>
       <use xlink:href="#ArialMT-30" x="55.615234"/>
       <use xlink:href="#ArialMT-30" x="111.230469"/>
      </g>
     </g>
    </g>
    <g id="text_25">
     <!-- Time ($s$) -->
     <g transform="translate(223.112571 135.927399) scale(0.08 -0.08)">
      <use xlink:href="#ArialMT-54" transform="translate(0 0.203125)"/>
      <use xlink:href="#ArialMT-69" transform="translate(61.083984 0.203125)"/>
      <use xlink:href="#ArialMT-6d" transform="translate(83.300781 0.203125)"/>
      <use xlink:href="#ArialMT-65" transform="translate(166.601562 0.203125)"/>
      <use xlink:href="#ArialMT-20" transform="translate(222.216797 0.203125)"/>
      <use xlink:href="#ArialMT-28" transform="translate(250 0.203125)"/>
      <use xlink:href="#STIXGeneral-Italic-73" transform="translate(283.300781 0.203125)"/>
      <use xlink:href="#ArialMT-29" transform="translate(322.200775 0.203125)"/>
     </g>
    </g>
   </g>
   <g id="matplotlib.axis_4">
    <g id="ytick_8">
     <g id="line2d_24">
      <g>
       <use xlink:href="#mbd62750d12" x="177.438469" y="118.429274" style="stroke: #000000; stroke-width: 0.8"/>
      </g>
     </g>
     <g id="text_26">
      <!-- 0.8 -->
      <g transform="translate(164.878469 119.860837) scale(0.04 -0.04)">
       <defs>
        <path id="ArialMT-38" d="M 1131 2484 
Q 781 2613 612 2850 
Q 444 3088 444 3419 
Q 444 3919 803 4259 
Q 1163 4600 1759 4600 
Q 2359 4600 2725 4251 
Q 3091 3903 3091 3403 
Q 3091 3084 2923 2848 
Q 2756 2613 2416 2484 
Q 2838 2347 3058 2040 
Q 3278 1734 3278 1309 
Q 3278 722 2862 322 
Q 2447 -78 1769 -78 
Q 1091 -78 675 323 
Q 259 725 259 1325 
Q 259 1772 486 2073 
Q 713 2375 1131 2484 
z
M 1019 3438 
Q 1019 3113 1228 2906 
Q 1438 2700 1772 2700 
Q 2097 2700 2305 2904 
Q 2513 3109 2513 3406 
Q 2513 3716 2298 3927 
Q 2084 4138 1766 4138 
Q 1444 4138 1231 3931 
Q 1019 3725 1019 3438 
z
M 838 1322 
Q 838 1081 952 856 
Q 1066 631 1291 507 
Q 1516 384 1775 384 
Q 2178 384 2440 643 
Q 2703 903 2703 1303 
Q 2703 1709 2433 1975 
Q 2163 2241 1756 2241 
Q 1359 2241 1098 1978 
Q 838 1716 838 1322 
z
" transform="scale(0.015625)"/>
       </defs>
       <use xlink:href="#ArialMT-30"/>
       <use xlink:href="#ArialMT-2e" x="55.615234"/>
       <use xlink:href="#ArialMT-38" x="83.398438"/>
      </g>
     </g>
    </g>
    <g id="ytick_9">
     <g id="line2d_25">
      <g>
       <use xlink:href="#mbd62750d12" x="177.438469" y="105.956833" style="stroke: #000000; stroke-width: 0.8"/>
      </g>
     </g>
     <g id="text_27">
      <!-- 1.0 -->
      <g transform="translate(164.878469 107.388396) scale(0.04 -0.04)">
       <use xlink:href="#ArialMT-31"/>
       <use xlink:href="#ArialMT-2e" x="55.615234"/>
       <use xlink:href="#ArialMT-30" x="83.398438"/>
      </g>
     </g>
    </g>
    <g id="ytick_10">
     <g id="line2d_26">
      <g>
       <use xlink:href="#mbd62750d12" x="177.438469" y="93.484392" style="stroke: #000000; stroke-width: 0.8"/>
      </g>
     </g>
     <g id="text_28">
      <!-- 1.2 -->
      <g transform="translate(164.878469 94.915955) scale(0.04 -0.04)">
       <use xlink:href="#ArialMT-31"/>
       <use xlink:href="#ArialMT-2e" x="55.615234"/>
       <use xlink:href="#ArialMT-32" x="83.398438"/>
      </g>
     </g>
    </g>
    <g id="ytick_11">
     <g id="line2d_27">
      <g>
       <use xlink:href="#mbd62750d12" x="177.438469" y="81.011951" style="stroke: #000000; stroke-width: 0.8"/>
      </g>
     </g>
     <g id="text_29">
      <!-- 1.4 -->
      <g transform="translate(164.878469 82.443514) scale(0.04 -0.04)">
       <use xlink:href="#ArialMT-31"/>
       <use xlink:href="#ArialMT-2e" x="55.615234"/>
       <use xlink:href="#ArialMT-34" x="83.398438"/>
      </g>
     </g>
    </g>
    <g id="ytick_12">
     <g id="line2d_28">
      <g>
       <use xlink:href="#mbd62750d12" x="177.438469" y="68.53951" style="stroke: #000000; stroke-width: 0.8"/>
      </g>
     </g>
     <g id="text_30">
      <!-- 1.6 -->
      <g transform="translate(164.878469 69.971073) scale(0.04 -0.04)">
       <defs>
        <path id="ArialMT-36" d="M 3184 3459 
L 2625 3416 
Q 2550 3747 2413 3897 
Q 2184 4138 1850 4138 
Q 1581 4138 1378 3988 
Q 1113 3794 959 3422 
Q 806 3050 800 2363 
Q 1003 2672 1297 2822 
Q 1591 2972 1913 2972 
Q 2475 2972 2870 2558 
Q 3266 2144 3266 1488 
Q 3266 1056 3080 686 
Q 2894 316 2569 119 
Q 2244 -78 1831 -78 
Q 1128 -78 684 439 
Q 241 956 241 2144 
Q 241 3472 731 4075 
Q 1159 4600 1884 4600 
Q 2425 4600 2770 4297 
Q 3116 3994 3184 3459 
z
M 888 1484 
Q 888 1194 1011 928 
Q 1134 663 1356 523 
Q 1578 384 1822 384 
Q 2178 384 2434 671 
Q 2691 959 2691 1453 
Q 2691 1928 2437 2201 
Q 2184 2475 1800 2475 
Q 1419 2475 1153 2201 
Q 888 1928 888 1484 
z
" transform="scale(0.015625)"/>
       </defs>
       <use xlink:href="#ArialMT-31"/>
       <use xlink:href="#ArialMT-2e" x="55.615234"/>
       <use xlink:href="#ArialMT-36" x="83.398438"/>
      </g>
     </g>
    </g>
    <g id="ytick_13">
     <g id="line2d_29">
      <g>
       <use xlink:href="#mbd62750d12" x="177.438469" y="56.067069" style="stroke: #000000; stroke-width: 0.8"/>
      </g>
     </g>
     <g id="text_31">
      <!-- 1.8 -->
      <g transform="translate(164.878469 57.498632) scale(0.04 -0.04)">
       <use xlink:href="#ArialMT-31"/>
       <use xlink:href="#ArialMT-2e" x="55.615234"/>
       <use xlink:href="#ArialMT-38" x="83.398438"/>
      </g>
     </g>
    </g>
    <g id="ytick_14">
     <g id="line2d_30">
      <g>
       <use xlink:href="#mbd62750d12" x="177.438469" y="43.594628" style="stroke: #000000; stroke-width: 0.8"/>
      </g>
     </g>
     <g id="text_32">
      <!-- 2.0 -->
      <g transform="translate(164.878469 45.026191) scale(0.04 -0.04)">
       <use xlink:href="#ArialMT-32"/>
       <use xlink:href="#ArialMT-2e" x="55.615234"/>
       <use xlink:href="#ArialMT-30" x="83.398438"/>
      </g>
     </g>
    </g>
    <g id="ytick_15">
     <g id="line2d_31">
      <g>
       <use xlink:href="#mbd62750d12" x="177.438469" y="31.122187" style="stroke: #000000; stroke-width: 0.8"/>
      </g>
     </g>
     <g id="text_33">
      <!-- 2.2 -->
      <g transform="translate(164.878469 32.55375) scale(0.04 -0.04)">
       <use xlink:href="#ArialMT-32"/>
       <use xlink:href="#ArialMT-2e" x="55.615234"/>
       <use xlink:href="#ArialMT-32" x="83.398438"/>
      </g>
     </g>
    </g>
    <g id="text_34">
     <!-- [ATP] ($mM$) -->
     <g transform="translate(162.118469 94.775731) rotate(-90) scale(0.08 -0.08)">
      <defs>
       <path id="ArialMT-5b" d="M 434 -1272 
L 434 4581 
L 1675 4581 
L 1675 4116 
L 997 4116 
L 997 -806 
L 1675 -806 
L 1675 -1272 
L 434 -1272 
z
" transform="scale(0.015625)"/>
       <path id="ArialMT-50" d="M 494 0 
L 494 4581 
L 2222 4581 
Q 2678 4581 2919 4538 
Q 3256 4481 3484 4323 
Q 3713 4166 3852 3881 
Q 3991 3597 3991 3256 
Q 3991 2672 3619 2267 
Q 3247 1863 2275 1863 
L 1100 1863 
L 1100 0 
L 494 0 
z
M 1100 2403 
L 2284 2403 
Q 2872 2403 3119 2622 
Q 3366 2841 3366 3238 
Q 3366 3525 3220 3729 
Q 3075 3934 2838 4000 
Q 2684 4041 2272 4041 
L 1100 4041 
L 1100 2403 
z
" transform="scale(0.015625)"/>
       <path id="ArialMT-5d" d="M 1363 -1272 
L 122 -1272 
L 122 -806 
L 800 -806 
L 800 4116 
L 122 4116 
L 122 4581 
L 1363 4581 
L 1363 -1272 
z
" transform="scale(0.015625)"/>
       <path id="STIXGeneral-Italic-6d" d="M 4506 672 
L 4474 627 
Q 3981 -58 3552 -58 
Q 3296 -58 3296 237 
Q 3296 333 3379 659 
L 3750 2112 
Q 3795 2291 3795 2355 
Q 3795 2413 3756 2451 
Q 3718 2490 3667 2490 
Q 3366 2490 2829 1741 
Q 2592 1408 2457 1072 
Q 2323 736 2138 0 
L 1658 0 
L 1830 595 
Q 2266 2099 2266 2330 
Q 2266 2490 2125 2490 
Q 1965 2490 1702 2237 
Q 1440 1984 1171 1574 
Q 1011 1325 899 1043 
Q 787 762 557 0 
L 77 0 
L 352 922 
Q 704 2093 704 2381 
Q 704 2522 442 2522 
L 282 2522 
L 282 2624 
L 1318 2822 
L 1338 2810 
L 966 1472 
Q 1798 2822 2374 2822 
Q 2560 2822 2659 2720 
Q 2758 2618 2758 2438 
Q 2758 2195 2502 1466 
Q 2842 2003 3069 2275 
Q 3296 2547 3526 2694 
Q 3731 2822 3930 2822 
Q 4102 2822 4201 2710 
Q 4301 2598 4301 2419 
Q 4301 2336 4282 2240 
L 3846 634 
Q 3782 390 3782 346 
Q 3782 243 3859 243 
Q 4000 243 4275 582 
L 4410 749 
L 4506 672 
z
" transform="scale(0.015625)"/>
       <path id="STIXGeneral-Italic-4d" d="M 5581 4179 
L 5581 4077 
Q 5318 4032 5225 3945 
Q 5133 3859 5062 3603 
L 4275 768 
Q 4186 448 4186 371 
Q 4186 243 4301 176 
Q 4416 109 4704 102 
L 4698 0 
L 2963 0 
L 2963 102 
Q 3277 134 3405 243 
Q 3533 352 3616 653 
L 4422 3590 
L 2016 0 
L 1907 0 
L 1510 3494 
L 755 755 
Q 698 550 698 410 
Q 698 134 1146 102 
L 1146 0 
L -115 0 
L -115 102 
Q 141 134 259 284 
Q 378 435 525 960 
L 1254 3526 
Q 1331 3789 1331 3859 
Q 1331 4051 858 4077 
L 858 4179 
L 2016 4179 
L 2374 1030 
L 4518 4179 
L 5581 4179 
z
" transform="scale(0.015625)"/>
      </defs>
      <use xlink:href="#ArialMT-5b" transform="translate(0 0.203125)"/>
      <use xlink:href="#ArialMT-41" transform="translate(27.783203 0.203125)"/>
      <use xlink:href="#ArialMT-54" transform="translate(94.482422 0.203125)"/>
      <use xlink:href="#ArialMT-50" transform="translate(155.566406 0.203125)"/>
      <use xlink:href="#ArialMT-5d" transform="translate(222.265625 0.203125)"/>
      <use xlink:href="#ArialMT-20" transform="translate(250.048828 0.203125)"/>
      <use xlink:href="#ArialMT-28" transform="translate(277.832031 0.203125)"/>
      <use xlink:href="#STIXGeneral-Italic-6d" transform="translate(311.132812 0.203125)"/>
      <use xlink:href="#STIXGeneral-Italic-4d" transform="translate(383.332794 0.203125)"/>
      <use xlink:href="#ArialMT-29" transform="translate(466.632782 0.203125)"/>
     </g>
    </g>
   </g>
   <g id="line2d_32">
    <path d="M 177.438469 39.53574 
L 207.309243 53.182647 
L 212.454667 55.42391 
L 215.680442 57.103359 
L 220.842641 60.111908 
L 226.275651 63.153443 
L 232.099302 66.136841 
L 239.679634 70.058175 
L 243.66512 72.424449 
L 249.498357 76.18708 
L 256.728791 80.800117 
L 260.194223 82.709206 
L 269.418598 87.572285 
L 272.582062 89.695192 
L 285.969269 98.901832 
L 296.341599 105.969861 
L 296.341599 105.969861 
" clip-path="url(#p63cd5d482b)" style="fill: none; stroke-dasharray: 3.7,1.6; stroke-dashoffset: 0; stroke: #fae194"/>
   </g>
   <g id="line2d_33">
    <path d="M 177.438469 40.046599 
L 177.81473 39.862096 
L 178.318008 39.384424 
L 179.295806 39.247394 
L 180.089069 39.914456 
L 180.506071 40.511604 
L 181.038108 41.183721 
L 181.747491 42.201691 
L 182.54315 43.260483 
L 183.027256 43.769154 
L 183.894813 44.537403 
L 184.359746 44.628736 
L 184.66411 44.51842 
L 185.071526 44.38328 
L 185.428614 44.272258 
L 186.693999 42.774955 
L 187.731712 42.099354 
L 188.199042 42.553715 
L 189.493186 44.200023 
L 190.518916 46.025823 
L 192.443357 49.083589 
L 193.392396 49.537863 
L 193.838157 49.427774 
L 194.406143 48.969782 
L 196.165221 46.561132 
L 196.910552 45.951529 
L 197.406641 46.323087 
L 197.631918 46.633212 
L 198.463526 48.188866 
L 199.954188 51.383982 
L 201.356178 53.45166 
L 201.63418 53.465164 
L 202.547271 53.354637 
L 203.501103 52.236845 
L 204.409401 50.618607 
L 204.759299 50.279632 
L 205.638838 49.875658 
L 206.029478 50.182735 
L 207.4794 52.359878 
L 207.965902 53.21416 
L 209.813653 56.621987 
L 210.221069 57.010053 
L 210.872934 57.341944 
L 211.095815 57.355865 
L 211.74768 57.015464 
L 212.030475 56.719065 
L 212.782996 55.660778 
L 213.444447 54.749409 
L 214.065158 54.202535 
L 214.961473 53.826882 
L 215.380871 54.320078 
L 216.464118 56.294485 
L 216.955414 57.452614 
L 218.031471 59.789546 
L 219.073976 61.403606 
L 219.435858 61.741137 
L 219.824101 62.22793 
L 220.150034 62.564167 
L 220.38969 62.59381 
L 220.765951 62.348264 
L 221.089487 61.915 
L 222.170337 60.521082 
L 223.26317 58.784864 
L 223.474068 58.731517 
L 224.12833 59.068001 
L 224.629212 59.514131 
L 225.242732 60.5438 
L 227.056931 64.962667 
L 228.679405 67.520221 
L 229.585306 67.865269 
L 230.160482 67.754931 
L 230.623019 67.132119 
L 232.247889 64.496666 
L 232.626546 63.971058 
L 233.098669 63.647387 
L 233.347912 63.678648 
L 234.030933 64.010351 
L 234.160347 64.158172 
L 235.42094 66.83312 
L 236.199823 69.176597 
L 236.667153 70.255239 
L 237.863039 72.437909 
L 238.534077 72.763573 
L 238.931906 72.757111 
L 239.334529 72.520086 
L 239.624513 72.086336 
L 241.429126 68.902505 
L 242.301475 68.192544 
L 242.65377 68.302124 
L 243.034824 68.851361 
L 243.787345 70.341339 
L 244.432021 71.972991 
L 244.923316 73.603366 
L 245.405026 75.118764 
L 246.390014 77.416234 
L 247.099397 78.320807 
L 247.511606 78.64288 
L 247.777624 78.611124 
L 248.02447 78.413975 
L 249.292253 76.861441 
L 249.644548 76.361565 
L 251.499488 73.693883 
L 251.772697 73.674402 
L 251.952439 73.784268 
L 252.489269 74.494571 
L 253.349636 76.455489 
L 254.531142 80.855409 
L 254.864264 81.891011 
L 255.798924 84.009544 
L 256.247082 84.608596 
L 256.594583 84.953361 
L 257.05712 85.129031 
L 257.361484 85.018142 
L 258.209868 84.33049 
L 258.571749 83.67699 
L 258.753888 83.206668 
L 259.506409 81.276956 
L 260.134309 79.856383 
L 260.534535 79.181855 
L 260.843692 78.992623 
L 261.306228 79.103495 
L 261.699265 79.494092 
L 262.034784 79.927145 
L 262.629132 81.438769 
L 265.382784 89.257032 
L 265.967546 89.818921 
L 266.542721 90.021651 
L 267.232931 89.6989 
L 267.518122 89.271254 
L 267.997435 88.120714 
L 268.776319 86.107633 
L 269.974601 83.754239 
L 270.235826 83.70826 
L 270.590518 84.073628 
L 271.407746 85.663087 
L 274.82285 95.859654 
L 275.076886 96.222543 
L 275.342904 96.338204 
L 276.239219 96.22785 
L 276.732911 95.771907 
L 277.358415 94.497533 
L 279.24451 90.377037 
L 279.584823 90.201796 
L 279.901169 90.311456 
L 280.171981 90.621325 
L 280.692035 91.71046 
L 283.599067 101.267065 
L 283.910621 101.781311 
L 284.804539 102.728104 
L 285.362939 102.959083 
L 285.727216 102.517984 
L 286.530065 101.004932 
L 286.947067 99.95718 
L 287.622898 98.118473 
L 287.963211 97.400528 
L 288.423351 96.453252 
L 288.84275 96.11588 
L 289.115958 96.063935 
L 289.410735 96.390408 
L 290.23755 98.623075 
L 292.694028 108.550537 
L 294.004949 110.590419 
L 294.302122 110.721067 
L 295.045057 110.831385 
L 295.591474 109.696844 
L 296.341599 107.71402 
L 296.341599 107.71402 
" clip-path="url(#p63cd5d482b)" style="fill: none; stroke: #ffc000; stroke-width: 0.5; stroke-linecap: square"/>
   </g>
   <g id="patch_8">
    <path d="M 177.438469 118.429274 
L 177.438469 31.122187 
" style="fill: none; stroke: #000000; stroke-width: 0.2; stroke-linejoin: miter; stroke-linecap: square"/>
   </g>
   <g id="patch_9">
    <path d="M 297.266672 118.429274 
L 297.266672 31.122187 
" style="fill: none; stroke: #000000; stroke-width: 0.2; stroke-linejoin: miter; stroke-linecap: square"/>
   </g>
   <g id="patch_10">
    <path d="M 177.438469 118.429274 
L 297.266672 118.429274 
" style="fill: none; stroke: #000000; stroke-width: 0.2; stroke-linejoin: miter; stroke-linecap: square"/>
   </g>
   <g id="patch_11">
    <path d="M 177.438469 31.122187 
L 297.266672 31.122187 
" style="fill: none; stroke: #000000; stroke-width: 0.2; stroke-linejoin: miter; stroke-linecap: square"/>
   </g>
   <g id="legend_2">
    <g id="line2d_34">
     <path d="M 206.80411 5.314687 
L 212.80411 5.314687 
L 218.80411 5.314687 
" style="fill: none; stroke-dasharray: 3.7,1.6; stroke-dashoffset: 0; stroke: #fae194"/>
    </g>
    <g id="text_35">
     <!-- slow dynamics -->
     <g transform="translate(223.60411 7.414687) scale(0.06 -0.06)">
      <use xlink:href="#ArialMT-73"/>
      <use xlink:href="#ArialMT-6c" x="50"/>
      <use xlink:href="#ArialMT-6f" x="72.216797"/>
      <use xlink:href="#ArialMT-77" x="127.832031"/>
      <use xlink:href="#ArialMT-20" x="200.048828"/>
      <use xlink:href="#ArialMT-64" x="227.832031"/>
      <use xlink:href="#ArialMT-79" x="283.447266"/>
      <use xlink:href="#ArialMT-6e" x="333.447266"/>
      <use xlink:href="#ArialMT-61" x="389.0625"/>
      <use xlink:href="#ArialMT-6d" x="444.677734"/>
      <use xlink:href="#ArialMT-69" x="527.978516"/>
      <use xlink:href="#ArialMT-63" x="550.195312"/>
      <use xlink:href="#ArialMT-73" x="600.195312"/>
     </g>
    </g>
    <g id="line2d_35">
     <path d="M 206.80411 13.872187 
L 212.80411 13.872187 
L 218.80411 13.872187 
" style="fill: none; stroke: #ffc000; stroke-width: 0.5; stroke-linecap: square"/>
    </g>
    <g id="text_36">
     <!-- original data -->
     <g transform="translate(223.60411 15.972187) scale(0.06 -0.06)">
      <use xlink:href="#ArialMT-6f"/>
      <use xlink:href="#ArialMT-72" x="55.615234"/>
      <use xlink:href="#ArialMT-69" x="88.916016"/>
      <use xlink:href="#ArialMT-67" x="111.132812"/>
      <use xlink:href="#ArialMT-69" x="166.748047"/>
      <use xlink:href="#ArialMT-6e" x="188.964844"/>
      <use xlink:href="#ArialMT-61" x="244.580078"/>
      <use xlink:href="#ArialMT-6c" x="300.195312"/>
      <use xlink:href="#ArialMT-20" x="322.412109"/>
      <use xlink:href="#ArialMT-64" x="350.195312"/>
      <use xlink:href="#ArialMT-61" x="405.810547"/>
      <use xlink:href="#ArialMT-74" x="461.425781"/>
      <use xlink:href="#ArialMT-61" x="489.208984"/>
     </g>
    </g>
    <g id="PathCollection_6">
     <g>
      <use xlink:href="#m941a302558" x="212.80411" y="22.954687" style="fill: #a52a2a; stroke: #a52a2a"/>
     </g>
    </g>
    <g id="text_37">
     <!-- peak -->
     <g transform="translate(223.60411 24.529687) scale(0.06 -0.06)">
      <use xlink:href="#ArialMT-70"/>
      <use xlink:href="#ArialMT-65" x="55.615234"/>
      <use xlink:href="#ArialMT-61" x="111.230469"/>
      <use xlink:href="#ArialMT-6b" x="166.845703"/>
     </g>
    </g>
   </g>
  </g>
 </g>
 <defs>
  <clipPath id="p2d8e4e174d">
   <rect x="33.644625" y="31.122187" width="119.828203" height="87.307087"/>
  </clipPath>
  <clipPath id="p63cd5d482b">
   <rect x="177.438469" y="31.122187" width="119.828203" height="87.307087"/>
  </clipPath>
 </defs>
</svg>
