<?xml version="1.0" encoding="utf-8" standalone="no"?>
<!DOCTYPE svg PUBLIC "-//W3C//DTD SVG 1.1//EN"
  "http://www.w3.org/Graphics/SVG/1.1/DTD/svg11.dtd">
<svg xmlns:xlink="http://www.w3.org/1999/xlink" width="91.874016pt" height="32.740157pt" viewBox="0 0 91.874016 32.740157" xmlns="http://www.w3.org/2000/svg" version="1.1">
 <metadata>
  <rdf:RDF xmlns:dc="http://purl.org/dc/elements/1.1/" xmlns:cc="http://creativecommons.org/ns#" xmlns:rdf="http://www.w3.org/1999/02/22-rdf-syntax-ns#">
   <cc:Work>
    <dc:type rdf:resource="http://purl.org/dc/dcmitype/StillImage"/>
    <dc:date>2024-12-27T17:45:34.726111</dc:date>
    <dc:format>image/svg+xml</dc:format>
    <dc:creator>
     <cc:Agent>
      <dc:title>Matplotlib v3.7.5, https://matplotlib.org/</dc:title>
     </cc:Agent>
    </dc:creator>
   </cc:Work>
  </rdf:RDF>
 </metadata>
 <defs>
  <style type="text/css">*{stroke-linejoin: round; stroke-linecap: butt}</style>
 </defs>
 <g id="figure_1">
  <g id="patch_1">
   <path d="M 0 32.740157 
L 91.874016 32.740157 
L 91.874016 0 
L 0 0 
L 0 32.740157 
z
" style="fill: none"/>
  </g>
  <g id="axes_1"/>
  <g id="axes_2">
   <g id="patch_2">
    <path d="M 4 32.740157 
L 21.574803 32.740157 
L 21.574803 0 
L 4 0 
L 4 32.740157 
z
" style="fill: none"/>
   </g>
   <g id="matplotlib.axis_1"/>
   <g id="matplotlib.axis_2"/>
   <g id="line2d_1">
    <path d="M 4 1.382273 
L 4.307567 2.326278 
L 4.571195 4.442653 
L 5.406019 16.818691 
L 5.977215 25.771622 
L 6.416596 29.99235 
L 6.680224 30.954837 
L 6.724163 31.046415 
L 6.768101 31.010789 
L 7.031729 30.160114 
L 7.25142 28.576752 
L 7.690801 23.175314 
L 8.87713 5.121799 
L 9.228635 2.422907 
L 9.404387 1.805573 
L 9.58014 1.836254 
L 9.843768 2.922929 
L 10.327087 8.109214 
L 10.72253 14.19181 
L 11.689169 28.113544 
L 12.040673 30.36667 
L 12.216426 30.66079 
L 12.304302 30.689603 
L 12.699745 28.533086 
L 13.139126 23.458562 
L 14.501207 4.044895 
L 14.764836 2.412427 
L 14.940588 2.04804 
L 15.292093 2.989645 
L 15.863289 8.931626 
L 17.401122 29.508415 
L 17.620813 30.283615 
L 17.708689 30.433426 
L 17.752627 30.334831 
L 17.840503 30.271815 
L 18.323823 27.031205 
L 19.026832 17.181574 
L 19.598028 8.439323 
L 20.081347 3.658703 
L 20.301037 2.494 
L 20.344976 2.519218 
L 20.47679 2.344478 
L 20.520728 2.434065 
L 20.652542 2.71407 
L 21.004047 5.022088 
L 21.443428 10.411469 
L 21.575243 12.387538 
L 21.575243 12.387538 
" clip-path="url(#p670b03decb)" style="fill: none; stroke: #b3c8cd; stroke-width: 0.4; stroke-linecap: square"/>
   </g>
   <g id="patch_3">
    <path d="M 4 32.740157 
L 4 0 
" style="fill: none; stroke: #ffffff; stroke-width: 0.5; stroke-linejoin: miter; stroke-linecap: square"/>
   </g>
   <g id="patch_4">
    <path d="M 21.574803 32.740157 
L 21.574803 0 
" style="fill: none; stroke: #ffffff; stroke-width: 0.5; stroke-linejoin: miter; stroke-linecap: square"/>
   </g>
   <g id="patch_5">
    <path d="M 4 32.740157 
L 21.574803 32.740157 
" style="fill: none; stroke: #ffffff; stroke-width: 0.5; stroke-linejoin: miter; stroke-linecap: square"/>
   </g>
   <g id="patch_6">
    <path d="M 4 0 
L 21.574803 0 
" style="fill: none; stroke: #ffffff; stroke-width: 0.5; stroke-linejoin: miter; stroke-linecap: square"/>
   </g>
  </g>
  <g id="axes_3">
   <g id="patch_7">
    <path d="M 74.299213 32.740157 
L 91.874016 32.740157 
L 91.874016 0 
L 74.299213 0 
L 74.299213 32.740157 
z
" style="fill: none"/>
   </g>
   <g id="matplotlib.axis_3"/>
   <g id="matplotlib.axis_4"/>
   <g id="line2d_2">
    <path d="M 74.276804 17.993473 
L 74.848 20.66351 
L 74.891938 20.681037 
L 75.111628 21.252063 
L 75.287381 21.418373 
L 75.463133 21.441236 
L 75.814638 20.767376 
L 76.957029 15.059454 
L 77.39641 12.786176 
L 77.791853 11.495571 
L 78.275172 11.180431 
L 78.494862 11.558214 
L 79.02212 13.688693 
L 80.252387 20.20486 
L 80.559953 21.036066 
L 80.823582 21.4392 
L 80.86752 21.375731 
L 81.175087 21.126717 
L 81.306901 20.799892 
L 82.009911 17.729601 
L 83.020487 12.32986 
L 83.064425 12.275631 
L 83.328054 11.457011 
L 83.503806 11.205216 
L 83.547745 11.25326 
L 83.679559 11.127863 
L 83.723497 11.184276 
L 83.899249 11.404315 
L 83.987126 11.523688 
L 84.294692 12.576081 
L 84.690135 14.486474 
L 86.140093 21.248686 
L 86.315845 21.454899 
L 86.44766 21.326351 
L 86.491598 21.37631 
L 86.535536 21.365302 
L 87.326422 18.797885 
L 87.897617 15.512174 
L 88.07337 14.60622 
L 88.468813 12.61789 
L 88.688503 11.869354 
L 88.952132 11.28813 
L 89.040008 11.274198 
L 89.127884 11.121744 
L 89.171822 11.156236 
L 89.435451 11.406268 
L 89.962708 13.262351 
L 90.094522 13.921431 
L 90.577842 16.547108 
L 91.280851 20.2233 
L 91.632356 21.142261 
L 91.895985 21.409924 
L 91.895985 21.409924 
" clip-path="url(#p332d8a8077)" style="fill: none; stroke: #b3c8cd; stroke-width: 0.4; stroke-linecap: square"/>
   </g>
   <g id="patch_8">
    <path d="M 74.299213 32.740157 
L 74.299213 0 
" style="fill: none; stroke: #ffffff; stroke-width: 0.5; stroke-linejoin: miter; stroke-linecap: square"/>
   </g>
   <g id="patch_9">
    <path d="M 91.874016 32.740157 
L 91.874016 0 
" style="fill: none; stroke: #ffffff; stroke-width: 0.5; stroke-linejoin: miter; stroke-linecap: square"/>
   </g>
   <g id="patch_10">
    <path d="M 74.299213 32.740157 
L 91.874016 32.740157 
" style="fill: none; stroke: #ffffff; stroke-width: 0.5; stroke-linejoin: miter; stroke-linecap: square"/>
   </g>
   <g id="patch_11">
    <path d="M 74.299213 0 
L 91.874016 0 
" style="fill: none; stroke: #ffffff; stroke-width: 0.5; stroke-linejoin: miter; stroke-linecap: square"/>
   </g>
  </g>
  <g id="axes_4">
   <g id="patch_12">
    <path d="M 21.574803 32.740157 
L 74.299213 32.740157 
L 74.299213 0 
L 21.574803 0 
L 21.574803 32.740157 
z
" style="fill: none"/>
   </g>
   <g id="matplotlib.axis_5"/>
   <g id="matplotlib.axis_6"/>
   <g id="line2d_3">
    <path d="M 21.572084 11.727163 
L 21.679184 30.087186 
L 21.73136 23.489179 
L 21.846698 2.633942 
L 21.904366 9.489795 
L 22.016958 29.877888 
L 22.077373 22.687761 
L 22.189964 2.851631 
L 22.247633 9.565754 
L 22.365717 29.556034 
L 22.415147 23.715639 
L 22.535977 3.118102 
L 22.590899 9.86333 
L 22.703491 29.339779 
L 22.763906 22.389745 
L 22.873751 3.343946 
L 22.934166 9.882853 
L 23.049503 29.111027 
L 23.10168 23.36084 
L 23.219763 3.553115 
L 23.282924 11.271636 
L 23.39277 28.932066 
L 23.444946 23.202223 
L 23.56303 3.805854 
L 23.623445 10.771842 
L 23.736036 28.6897 
L 23.793705 22.123944 
L 23.909043 3.980518 
L 23.958473 9.242791 
L 24.079303 28.532467 
L 24.134225 22.60547 
L 24.252309 4.159283 
L 24.307232 10.278944 
L 24.422569 28.320032 
L 24.471999 23.475547 
L 24.590083 4.353673 
L 24.650498 10.453739 
L 24.768582 28.106835 
L 24.823504 21.836483 
L 24.93335 4.547404 
L 24.993765 10.493472 
L 25.109102 27.967522 
L 25.164025 22.440555 
L 25.282108 4.687584 
L 25.331539 9.476373 
L 25.452368 27.836288 
L 25.510037 21.773881 
L 25.625375 4.863073 
L 25.68579 11.508903 
L 25.795635 27.621786 
L 25.850558 22.268315 
L 25.963149 5.068547 
L 26.031802 11.997029 
L 26.136155 27.460368 
L 26.193824 22.26661 
L 26.311908 5.168378 
L 26.372323 11.59144 
L 26.482168 27.354702 
L 26.545329 20.853175 
L 26.652428 5.299504 
L 26.712843 10.988464 
L 26.825434 27.22885 
L 26.885849 21.27821 
L 26.998441 5.423341 
L 27.061602 12.000364 
L 27.168701 27.105489 
L 27.223623 22.334627 
L 27.336215 5.653247 
L 27.399376 10.930812 
L 27.514713 26.945407 
L 27.569636 21.819786 
L 27.682227 5.72705 
L 27.742642 10.904029 
L 27.855234 26.826476 
L 27.910156 22.324104 
L 28.02824 5.838188 
L 28.091401 11.92338 
L 28.201246 26.738585 
L 28.264407 20.529836 
L 28.374253 5.94749 
L 28.429175 10.897958 
L 28.541767 26.569842 
L 28.602181 21.534378 
L 28.720265 6.040084 
L 28.769696 10.522803 
L 28.887779 26.444597 
L 28.953686 20.214261 
L 29.058039 6.185848 
L 29.110216 9.969793 
L 29.233792 26.390572 
L 29.285968 22.023631 
L 29.409544 6.309012 
L 29.456228 10.405468 
L 29.577058 26.273145 
L 29.637473 20.776679 
L 29.747318 6.377768 
L 29.802241 10.71204 
L 29.920325 26.187837 
L 29.972501 22.039382 
L 30.096077 6.49278 
L 30.151 11.537387 
L 30.260845 26.056514 
L 30.318514 21.722336 
L 30.439344 6.568972 
L 30.49152 11.079921 
L 30.604111 25.914422 
L 30.66178 21.724054 
L 30.78261 6.680447 
L 30.845771 12.763839 
L 30.955616 25.846251 
L 31.007793 21.431148 
L 31.12313 6.75497 
L 31.178053 10.998643 
L 31.296137 25.805787 
L 31.356552 20.728514 
L 31.469143 6.848943 
L 31.518573 10.484395 
L 31.642149 25.632587 
L 31.697072 21.148115 
L 31.809663 6.941589 
L 31.872824 12.089864 
L 31.988162 25.598595 
L 32.054069 19.172852 
L 32.15293 7.047257 
L 32.210598 11.074773 
L 32.334174 25.499519 
L 32.386351 20.918969 
L 32.501688 7.115193 
L 32.559357 11.793098 
L 32.671949 25.424731 
L 32.721379 22.046656 
L 32.853193 7.256706 
L 32.90537 12.165103 
L 33.015215 25.379403 
L 33.078376 20.333298 
L 33.188221 7.250784 
L 33.240398 10.896807 
L 33.361228 25.277476 
L 33.413404 21.491877 
L 33.53698 7.380029 
L 33.594649 12.378111 
L 33.70724 25.20004 
L 33.756671 21.541134 
L 33.8775 7.441132 
L 33.940661 12.61337 
L 34.050507 25.168134 
L 34.099937 21.688747 
L 34.226259 7.512186 
L 34.283928 12.58139 
L 34.391027 25.054653 
L 34.448696 21.074109 
L 34.569526 7.548937 
L 34.61621 11.022537 
L 34.742532 24.96866 
L 34.797454 20.330968 
L 34.915538 7.677764 
L 34.964969 11.598071 
L 35.07756 24.896972 
L 35.140721 20.493149 
L 35.256058 7.718265 
L 35.313727 12.295247 
L 35.426319 24.82552 
L 35.481241 20.964153 
L 35.604817 7.798441 
L 35.651501 11.449922 
L 35.775077 24.768798 
L 35.835492 19.509014 
L 35.942591 7.837784 
L 35.997514 11.645396 
L 36.112852 24.743101 
L 36.165028 21.468332 
L 36.283112 7.908449 
L 36.338034 11.245096 
L 36.456118 24.670075 
L 36.513787 20.865 
L 36.634617 7.939369 
L 36.686793 11.890429 
L 36.804877 24.628046 
L 36.859799 20.596519 
L 36.980629 8.03683 
L 37.027313 11.49179 
L 37.142651 24.499709 
L 37.21405 19.163902 
L 37.318403 8.088391 
L 37.38431 13.182827 
L 37.496902 24.449333 
L 37.549078 20.432963 
L 37.664416 8.144349 
L 37.724831 12.702344 
L 37.83193 24.410236 
L 37.897837 19.782101 
L 38.013175 8.223524 
L 38.065351 12.125765 
L 38.183435 24.374092 
L 38.230119 21.232852 
L 38.353695 8.25655 
L 38.416856 13.164685 
L 38.521209 24.316275 
L 38.587116 19.740668 
L 38.696961 8.26851 
L 38.746392 11.352012 
L 38.869968 24.224253 
L 38.930383 19.828072 
L 39.042974 8.326549 
L 39.097897 12.204582 
L 39.221473 24.15344 
L 39.265411 20.908283 
L 39.380748 8.441078 
L 39.449401 13.198526 
L 39.564739 24.140931 
L 39.622408 19.40068 
L 39.732253 8.432402 
L 39.781683 11.72748 
L 39.905259 24.103639 
L 39.960182 20.240368 
L 40.072773 8.491093 
L 40.119458 10.990941 
L 40.24578 24.043777 
L 40.319925 18.183456 
L 40.418786 8.559082 
L 40.468216 11.48934 
L 40.594538 24.031307 
L 40.660446 18.705786 
L 40.759306 8.601705 
L 40.811483 11.345316 
L 40.932313 23.986072 
L 40.989981 20.431282 
L 41.105319 8.621329 
L 41.171226 13.150401 
L 41.281071 23.8858 
L 41.335994 20.215773 
L 41.448585 8.689393 
L 41.519985 13.741007 
L 41.627084 23.849426 
L 41.67926 20.453225 
L 41.791852 8.758501 
L 41.846774 11.756824 
L 41.967604 23.825034 
L 42.033511 19.158868 
L 42.143357 8.785652 
L 42.198279 12.533648 
L 42.319109 23.763936 
L 42.374032 19.595427 
L 42.492115 8.844181 
L 42.541546 12.463889 
L 42.654137 23.754819 
L 42.717298 19.803063 
L 42.82989 8.855331 
L 42.887558 12.632682 
L 43.002896 23.725341 
L 43.060565 19.869504 
L 43.175902 8.887482 
L 43.230825 12.521562 
L 43.351655 23.631738 
L 43.401085 20.334508 
L 43.516422 9.003753 
L 43.579583 13.032427 
L 43.689429 23.572292 
L 43.741605 20.786993 
L 43.859689 8.987996 
L 43.909119 11.346872 
L 44.029949 23.552858 
L 44.095856 19.535252 
L 44.211194 9.03043 
L 44.268863 13.05497 
L 44.375962 23.498668 
L 44.439123 19.758653 
L 44.551714 9.107624 
L 44.601144 11.761066 
L 44.72472 23.50878 
L 44.779643 20.145272 
L 44.900473 9.100858 
L 44.952649 12.521583 
L 45.067987 23.466165 
L 45.131148 19.383004 
L 45.243739 9.12463 
L 45.298662 12.695317 
L 45.413999 23.442359 
L 45.468922 20.125163 
L 45.58426 9.21412 
L 45.639182 12.292575 
L 45.760012 23.389152 
L 45.809442 20.535326 
L 45.935764 9.227171 
L 45.985195 12.467639 
L 46.103278 23.333075 
L 46.166439 19.083944 
L 46.270792 9.303333 
L 46.333954 12.918986 
L 46.452037 23.275004 
L 46.501468 20.118558 
L 46.619551 9.321394 
L 46.671728 12.253455 
L 46.795304 23.279084 
L 46.841988 20.468528 
L 46.971056 9.376314 
L 47.025979 13.289762 
L 47.135824 23.23986 
L 47.185254 20.551109 
L 47.306084 9.388583 
L 47.371991 13.472035 
L 47.481837 23.235109 
L 47.531267 20.391123 
L 47.654843 9.403189 
L 47.718004 13.789899 
L 47.827849 23.153112 
L 47.880026 19.943576 
L 47.998109 9.406448 
L 48.064016 13.832395 
L 48.171116 23.150692 
L 48.223292 20.089794 
L 48.33863 9.480795 
L 48.396298 12.609661 
L 48.514382 23.133884 
L 48.583035 18.381619 
L 48.681896 9.523412 
L 48.747803 13.318888 
L 48.857649 23.096275 
L 48.909825 20.258032 
L 49.033401 9.558112 
L 49.102054 14.506757 
L 49.206407 23.057737 
L 49.264076 19.273754 
L 49.373921 9.570185 
L 49.439828 13.660696 
L 49.546928 23.004979 
L 49.599104 20.241384 
L 49.719934 9.587251 
L 49.788587 14.097253 
L 49.890194 22.999522 
L 49.942371 20.429273 
L 50.068693 9.618965 
L 50.123615 13.145896 
L 50.238953 22.931457 
L 50.299368 19.016157 
L 50.411959 9.638899 
L 50.466882 12.949679 
L 50.584965 22.903361 
L 50.637142 19.788556 
L 50.757972 9.684867 
L 50.81564 13.518264 
L 50.928232 22.890196 
L 50.994139 18.433007 
L 51.101238 9.702214 
L 51.147922 12.262901 
L 51.266006 22.832885 
L 51.334659 18.922415 
L 51.444505 9.729173 
L 51.493935 12.394781 
L 51.620257 22.801242 
L 51.669687 19.841098 
L 51.785025 9.756612 
L 51.84544 13.118628 
L 51.960777 22.792045 
L 52.012954 20.013315 
L 52.131037 9.79039 
L 52.18596 12.677652 
L 52.304044 22.784755 
L 52.361712 19.542462 
L 52.47705 9.835347 
L 52.531973 12.786206 
L 52.655549 22.728122 
L 52.704979 19.623828 
L 52.81757 9.860747 
L 52.891716 14.390866 
L 52.993323 22.719235 
L 53.042753 20.369199 
L 53.166329 9.865139 
L 53.221252 12.835047 
L 53.336589 22.688188 
L 53.38602 20.392596 
L 53.509596 9.91398 
L 53.575503 13.815813 
L 53.679856 22.642282 
L 53.737524 19.824752 
L 53.858354 9.986554 
L 53.902292 12.154708 
L 54.028614 22.640405 
L 54.083537 19.602867 
L 54.198875 9.963716 
L 54.256543 13.117312 
L 54.366389 22.598824 
L 54.440534 18.351758 
L 54.542141 10.050895 
L 54.59981 12.902779 
L 54.717893 22.593764 
L 54.778308 19.013848 
L 54.888154 10.019046 
L 54.94033 12.512892 
L 55.06116 22.578819 
L 55.107844 20.474189 
L 55.23142 10.064547 
L 55.294581 13.522141 
L 55.40168 22.524309 
L 55.464841 19.231897 
L 55.577433 10.080566 
L 55.632355 12.886374 
L 55.755931 22.472842 
L 55.819092 18.218429 
L 55.920699 10.097674 
L 55.981114 13.232718 
L 56.096452 22.502467 
L 56.143136 20.330481 
L 56.269458 10.104596 
L 56.31065 11.964848 
L 56.442464 22.446999 
L 56.502879 18.891056 
L 56.609978 10.174772 
L 56.664901 12.84241 
L 56.777492 22.38808 
L 56.848892 18.721098 
L 56.953245 10.163502 
L 57.002675 12.207567 
L 57.126251 22.407481 
L 57.203143 17.633267 
L 57.307496 10.228552 
L 57.356926 13.080417 
L 57.472263 22.340569 
L 57.529932 19.415744 
L 57.64527 10.256996 
L 57.711177 14.009759 
L 57.818276 22.385449 
L 57.881437 18.830204 
L 57.988536 10.244188 
L 58.043459 12.846149 
L 58.167035 22.3512 
L 58.232942 18.075574 
L 58.331803 10.279309 
L 58.394964 13.527094 
L 58.507555 22.343874 
L 58.570716 18.843569 
L 58.683308 10.289927 
L 58.732738 12.808597 
L 58.853568 22.238025 
L 58.905744 19.734468 
L 59.018336 10.337818 
L 59.073258 12.461735 
L 59.196834 22.294405 
L 59.257249 18.984129 
L 59.364348 10.348455 
L 59.44124 14.77642 
L 59.542847 22.254619 
L 59.597769 19.407759 
L 59.710361 10.358976 
L 59.776268 13.778958 
L 59.883367 22.18733 
L 59.935544 20.022354 
L 60.061866 10.360153 
L 60.111296 12.917761 
L 60.234872 22.187232 
L 60.298033 18.381129 
L 60.405132 10.378315 
L 60.457309 12.976888 
L 60.5699 22.163553 
L 60.627569 19.813265 
L 60.753891 10.429948 
L 60.797829 12.60844 
L 60.924151 22.160529 
L 60.98182 18.884301 
L 61.094411 10.430463 
L 61.15208 13.598178 
L 61.267417 22.076327 
L 61.325086 18.939668 
L 61.44317 10.46806 
L 61.500839 13.955417 
L 61.610684 22.148686 
L 61.679337 18.123609 
L 61.786436 10.466662 
L 61.835867 13.005113 
L 61.962189 22.059855 
L 62.006127 19.659105 
L 62.121464 10.504805 
L 62.192864 14.179928 
L 62.294471 22.049016 
L 62.352139 19.539583 
L 62.475715 10.515357 
L 62.549861 15.460924 
L 62.643229 22.032338 
L 62.695406 19.646924 
L 62.818982 10.526868 
L 62.873904 13.386828 
L 62.989242 22.052936 
L 63.041418 19.607914 
L 63.159502 10.611411 
L 63.211679 12.769631 
L 63.329762 22.031689 
L 63.390177 19.247119 
L 63.502769 10.59359 
L 63.557691 12.90818 
L 63.678521 22.024381 
L 63.727951 19.83499 
L 63.85702 10.639677 
L 63.900958 12.855891 
L 64.021787 22.007577 
L 64.073964 19.673417 
L 64.192048 10.652128 
L 64.255209 13.677288 
L 64.365054 21.918087 
L 64.41723 19.794655 
L 64.53806 10.633404 
L 64.601221 13.831801 
L 64.711066 21.93182 
L 64.768735 19.194313 
L 64.892311 10.688021 
L 64.936249 12.921963 
L 65.057079 21.937365 
L 65.114748 19.031486 
L 65.227339 10.655305 
L 65.293246 14.06398 
L 65.408584 21.869683 
L 65.46076 19.02929 
L 65.576098 10.685196 
L 65.620036 12.597888 
L 65.749104 21.853587 
L 65.806773 18.831928 
L 65.922111 10.696924 
L 65.971541 13.076697 
L 66.089625 21.826822 
L 66.144547 19.427858 
L 66.265377 10.705698 
L 66.328538 14.218577 
L 66.435637 21.849567 
L 66.496052 18.887836 
L 66.603151 10.758921 
L 66.655328 12.728578 
L 66.778904 21.836217 
L 66.850303 17.916108 
L 66.954656 10.76891 
L 67.012325 13.657037 
L 67.124916 21.830437 
L 67.1716 19.924678 
L 67.300669 10.762341 
L 67.372068 15.052079 
L 67.476421 21.769737 
L 67.517613 19.821617 
L 67.641189 10.846734 
L 67.701604 13.647549 
L 67.811449 21.770902 
L 67.866372 19.581904 
L 67.989948 10.812517 
L 68.04487 13.508928 
L 68.162954 21.751278 
L 68.204146 20.105514 
L 68.333214 10.806374 
L 68.379898 12.781902 
L 68.503474 21.721486 
L 68.566635 18.640902 
L 68.676481 10.854786 
L 68.725911 12.986169 
L 68.843995 21.718054 
L 68.912648 18.511712 
L 69.019747 10.848925 
L 69.071924 13.051424 
L 69.195499 21.711005 
L 69.255914 18.596305 
L 69.36576 10.901292 
L 69.428921 13.999713 
L 69.538766 21.718751 
L 69.58545 19.865745 
L 69.70628 10.898624 
L 69.763949 13.234463 
L 69.887525 21.696931 
L 69.94794 18.306617 
L 70.055039 10.887072 
L 70.1182 14.110786 
L 70.230791 21.68406 
L 70.291206 18.526691 
L 70.401051 10.95213 
L 70.453228 13.180251 
L 70.571311 21.659064 
L 70.61525 20.071744 
L 70.741572 10.932886 
L 70.810225 14.356663 
L 70.917324 21.646041 
L 70.983231 18.302747 
L 71.09033 10.950886 
L 71.139761 13.017773 
L 71.266083 21.577066 
L 71.315513 19.348413 
L 71.441835 11.023017 
L 71.496758 14.038271 
L 71.606603 21.559918 
L 71.656033 19.543974 
L 71.779609 10.967276 
L 71.859247 15.635839 
L 71.94987 21.606283 
L 72.007538 19.074589 
L 72.125622 11.021768 
L 72.180545 13.497655 
L 72.295882 21.593908 
L 72.33982 20.01916 
L 72.471635 11.034745 
L 72.521065 13.214335 
L 72.639149 21.574705 
L 72.70231 18.682902 
L 72.820393 11.059362 
L 72.869824 13.601976 
L 72.985161 21.548259 
L 73.04283 18.979913 
L 73.16366 11.077208 
L 73.207598 13.013909 
L 73.328428 21.543079 
L 73.391589 18.674897 
L 73.498688 11.099271 
L 73.548118 12.748833 
L 73.677186 21.476722 
L 73.74584 17.78274 
L 73.850193 11.074035 
L 73.896877 13.004505 
L 74.020453 21.494004 
L 74.080868 18.641732 
L 74.198951 11.111725 
L 74.259366 14.541306 
L 74.300558 18.242484 
L 74.300558 18.242484 
" clip-path="url(#p0048c72a8f)" style="fill: none; stroke: #b3c8cd; stroke-width: 0.05; stroke-linecap: square"/>
   </g>
   <g id="patch_13">
    <path d="M 21.574803 32.740157 
L 21.574803 0 
" style="fill: none; stroke: #ffffff; stroke-width: 0.5; stroke-linejoin: miter; stroke-linecap: square"/>
   </g>
   <g id="patch_14">
    <path d="M 74.299213 32.740157 
L 74.299213 0 
" style="fill: none; stroke: #ffffff; stroke-width: 0.5; stroke-linejoin: miter; stroke-linecap: square"/>
   </g>
   <g id="patch_15">
    <path d="M 21.574803 32.740157 
L 74.299213 32.740157 
" style="fill: none; stroke: #ffffff; stroke-width: 0.5; stroke-linejoin: miter; stroke-linecap: square"/>
   </g>
   <g id="patch_16">
    <path d="M 21.574803 0 
L 74.299213 0 
" style="fill: none; stroke: #ffffff; stroke-width: 0.5; stroke-linejoin: miter; stroke-linecap: square"/>
   </g>
  </g>
 </g>
 <defs>
  <clipPath id="p670b03decb">
   <rect x="4" y="0" width="17.574803" height="32.740157"/>
  </clipPath>
  <clipPath id="p332d8a8077">
   <rect x="74.299213" y="0" width="17.574803" height="32.740157"/>
  </clipPath>
  <clipPath id="p0048c72a8f">
   <rect x="21.574803" y="0" width="52.724409" height="32.740157"/>
  </clipPath>
 </defs>
</svg>
