<?xml version="1.0" encoding="utf-8" standalone="no"?>
<!DOCTYPE svg PUBLIC "-//W3C//DTD SVG 1.1//EN"
  "http://www.w3.org/Graphics/SVG/1.1/DTD/svg11.dtd">
<svg xmlns:xlink="http://www.w3.org/1999/xlink" width="95.153078pt" height="99.660472pt" viewBox="0 0 95.153078 99.660472" xmlns="http://www.w3.org/2000/svg" version="1.1">
 <metadata>
  <rdf:RDF xmlns:dc="http://purl.org/dc/elements/1.1/" xmlns:cc="http://creativecommons.org/ns#" xmlns:rdf="http://www.w3.org/1999/02/22-rdf-syntax-ns#">
   <cc:Work>
    <dc:type rdf:resource="http://purl.org/dc/dcmitype/StillImage"/>
    <dc:date>2024-12-27T17:46:03.358530</dc:date>
    <dc:format>image/svg+xml</dc:format>
    <dc:creator>
     <cc:Agent>
      <dc:title>Matplotlib v3.7.5, https://matplotlib.org/</dc:title>
     </cc:Agent>
    </dc:creator>
   </cc:Work>
  </rdf:RDF>
 </metadata>
 <defs>
  <style type="text/css">*{stroke-linejoin: round; stroke-linecap: butt}</style>
 </defs>
 <g id="figure_1">
  <g id="patch_1">
   <path d="M 0 99.660472 
L 95.153078 99.660472 
L 95.153078 0 
L 0 0 
L 0 99.660472 
z
" style="fill: none"/>
  </g>
  <g id="axes_1">
   <g id="patch_2">
    <path d="M 6.559063 9.986082 
L 94.433078 9.986082 
L 94.433078 0.72 
L 6.559063 0.72 
L 6.559063 9.986082 
z
" style="fill: none"/>
   </g>
   <g id="matplotlib.axis_1"/>
   <g id="matplotlib.axis_2">
    <g id="text_1">
     <!-- $x$ -->
     <g style="fill: #811c35" transform="translate(4.519219 6.478041) rotate(-90) scale(0.05 -0.05)">
      <defs>
       <path id="STIXGeneral-Italic-78" d="M 1555 2272 
L 1632 1907 
Q 1971 2426 2179 2624 
Q 2387 2822 2598 2822 
Q 2714 2822 2787 2755 
Q 2861 2688 2861 2585 
Q 2861 2483 2800 2419 
Q 2739 2355 2643 2355 
Q 2586 2355 2490 2409 
Q 2394 2464 2310 2464 
Q 2125 2464 1683 1690 
Q 1683 1606 1734 1402 
L 1939 544 
Q 2003 282 2131 282 
Q 2234 282 2432 538 
Q 2451 563 2476 598 
Q 2502 634 2521 662 
Q 2541 691 2566 717 
L 2662 659 
Q 2387 230 2227 80 
Q 2067 -70 1882 -70 
Q 1728 -70 1645 26 
Q 1562 122 1504 365 
L 1318 1126 
L 755 365 
Q 557 96 432 13 
Q 307 -70 147 -70 
Q 0 -70 -86 0 
Q -173 70 -173 198 
Q -173 294 -112 361 
Q -51 429 45 429 
Q 122 429 250 358 
Q 346 301 416 301 
Q 525 301 742 614 
L 1267 1357 
L 1088 2150 
Q 1024 2432 969 2509 
Q 915 2586 794 2586 
Q 717 2586 544 2541 
L 429 2509 
L 410 2611 
L 480 2637 
Q 992 2822 1229 2822 
Q 1350 2822 1420 2707 
Q 1491 2592 1555 2272 
z
" transform="scale(0.015625)"/>
      </defs>
      <use xlink:href="#STIXGeneral-Italic-78" transform="translate(0 0.90625)"/>
     </g>
    </g>
   </g>
   <g id="line2d_1">
    <path d="M 6.833676 1.495635 
L 93.604845 1.495635 
L 93.604845 1.495635 
" clip-path="url(#p424a470ce4)" style="fill: none; stroke-dasharray: 2.59,1.12; stroke-dashoffset: 0; stroke: #811c35; stroke-width: 0.7"/>
   </g>
   <g id="patch_3">
    <path d="M 6.559063 9.986082 
L 6.559063 0.72 
" style="fill: none; stroke: #000000; stroke-width: 0.5; stroke-linejoin: miter; stroke-linecap: square"/>
   </g>
   <g id="patch_4">
    <path d="M 94.433078 9.986082 
L 94.433078 0.72 
" style="fill: none; stroke: #000000; stroke-width: 0.5; stroke-linejoin: miter; stroke-linecap: square"/>
   </g>
   <g id="patch_5">
    <path d="M 6.559063 9.986082 
L 94.433078 9.986082 
" style="fill: none; stroke: #000000; stroke-width: 0.5; stroke-linejoin: miter; stroke-linecap: square"/>
   </g>
   <g id="patch_6">
    <path d="M 6.559063 0.72 
L 94.433078 0.72 
" style="fill: none; stroke: #000000; stroke-width: 0.5; stroke-linejoin: miter; stroke-linecap: square"/>
   </g>
  </g>
  <g id="axes_2">
   <g id="patch_7">
    <path d="M 6.559063 21.105381 
L 94.433078 21.105381 
L 94.433078 11.839299 
L 6.559063 11.839299 
L 6.559063 21.105381 
z
" style="fill: none"/>
   </g>
   <g id="matplotlib.axis_3"/>
   <g id="matplotlib.axis_4">
    <g id="text_2">
     <!-- $x^2$ -->
     <g style="fill: #811c35" transform="translate(4.519219 18.72234) rotate(-90) scale(0.05 -0.05)">
      <defs>
       <path id="STIXGeneral-Regular-32" d="M 3034 877 
L 2688 0 
L 186 0 
L 186 77 
L 1325 1286 
Q 1773 1754 1965 2144 
Q 2157 2534 2157 2950 
Q 2157 3379 1920 3616 
Q 1683 3853 1267 3853 
Q 922 3853 720 3673 
Q 518 3494 326 3021 
L 192 3053 
Q 301 3648 630 3987 
Q 960 4326 1523 4326 
Q 2054 4326 2380 4006 
Q 2707 3686 2707 3200 
Q 2707 2477 1888 1613 
L 832 486 
L 2330 486 
Q 2541 486 2665 569 
Q 2790 653 2944 915 
L 3034 877 
z
" transform="scale(0.015625)"/>
      </defs>
      <use xlink:href="#STIXGeneral-Italic-78" transform="translate(0 0.409375)"/>
      <use xlink:href="#STIXGeneral-Regular-32" transform="translate(50.573119 35.684375) scale(0.7)"/>
     </g>
    </g>
   </g>
   <g id="line2d_2">
    <path d="M 6.833676 16.47234 
L 93.604845 16.47234 
L 93.604845 16.47234 
" clip-path="url(#p530ef77b22)" style="fill: none; stroke-dasharray: 2.59,1.12; stroke-dashoffset: 0; stroke: #811c35; stroke-width: 0.7"/>
   </g>
   <g id="patch_8">
    <path d="M 6.559063 21.105381 
L 6.559063 11.839299 
" style="fill: none; stroke: #000000; stroke-width: 0.5; stroke-linejoin: miter; stroke-linecap: square"/>
   </g>
   <g id="patch_9">
    <path d="M 94.433078 21.105381 
L 94.433078 11.839299 
" style="fill: none; stroke: #000000; stroke-width: 0.5; stroke-linejoin: miter; stroke-linecap: square"/>
   </g>
   <g id="patch_10">
    <path d="M 6.559063 21.105381 
L 94.433078 21.105381 
" style="fill: none; stroke: #000000; stroke-width: 0.5; stroke-linejoin: miter; stroke-linecap: square"/>
   </g>
   <g id="patch_11">
    <path d="M 6.559063 11.839299 
L 94.433078 11.839299 
" style="fill: none; stroke: #000000; stroke-width: 0.5; stroke-linejoin: miter; stroke-linecap: square"/>
   </g>
  </g>
  <g id="axes_3">
   <g id="patch_12">
    <path d="M 6.559063 32.22468 
L 94.433078 32.22468 
L 94.433078 22.958598 
L 6.559063 22.958598 
L 6.559063 32.22468 
z
" style="fill: none"/>
   </g>
   <g id="matplotlib.axis_5"/>
   <g id="matplotlib.axis_6">
    <g id="text_3">
     <!-- $x^3$ -->
     <g style="fill: #811c35" transform="translate(4.519219 29.841639) rotate(-90) scale(0.05 -0.05)">
      <defs>
       <path id="STIXGeneral-Regular-33" d="M 390 3264 
L 288 3290 
Q 435 3770 748 4048 
Q 1062 4326 1542 4326 
Q 1990 4326 2265 4083 
Q 2541 3840 2541 3450 
Q 2541 2925 1946 2566 
Q 2298 2413 2477 2227 
Q 2758 1914 2758 1402 
Q 2758 890 2464 506 
Q 2246 211 1840 60 
Q 1434 -90 979 -90 
Q 262 -90 262 275 
Q 262 378 339 442 
Q 416 506 525 506 
Q 685 506 915 339 
Q 1197 141 1466 141 
Q 1818 141 2058 425 
Q 2298 710 2298 1120 
Q 2298 1856 1632 2048 
Q 1434 2112 979 2112 
L 979 2202 
Q 1338 2323 1517 2432 
Q 2035 2726 2035 3290 
Q 2035 3610 1852 3776 
Q 1670 3942 1344 3942 
Q 768 3942 390 3264 
z
" transform="scale(0.015625)"/>
      </defs>
      <use xlink:href="#STIXGeneral-Italic-78" transform="translate(0 0.409375)"/>
      <use xlink:href="#STIXGeneral-Regular-33" transform="translate(50.573119 35.684375) scale(0.7)"/>
     </g>
    </g>
   </g>
   <g id="line2d_3">
    <path d="M 6.833676 24.898909 
L 8.492339 25.459594 
L 10.702426 25.925993 
L 13.466133 26.280714 
L 18.439926 26.647205 
L 28.112901 26.97747 
L 47.179842 27.229057 
L 76.74799 27.370046 
L 93.604845 27.409653 
L 93.604845 27.409653 
" clip-path="url(#pf8b32f5788)" style="fill: none; stroke-dasharray: 2.59,1.12; stroke-dashoffset: 0; stroke: #811c35; stroke-width: 0.7"/>
   </g>
   <g id="patch_13">
    <path d="M 6.559063 32.22468 
L 6.559063 22.958598 
" style="fill: none; stroke: #000000; stroke-width: 0.5; stroke-linejoin: miter; stroke-linecap: square"/>
   </g>
   <g id="patch_14">
    <path d="M 94.433078 32.22468 
L 94.433078 22.958598 
" style="fill: none; stroke: #000000; stroke-width: 0.5; stroke-linejoin: miter; stroke-linecap: square"/>
   </g>
   <g id="patch_15">
    <path d="M 6.559063 32.22468 
L 94.433078 32.22468 
" style="fill: none; stroke: #000000; stroke-width: 0.5; stroke-linejoin: miter; stroke-linecap: square"/>
   </g>
   <g id="patch_16">
    <path d="M 6.559063 22.958598 
L 94.433078 22.958598 
" style="fill: none; stroke: #000000; stroke-width: 0.5; stroke-linejoin: miter; stroke-linecap: square"/>
   </g>
  </g>
  <g id="axes_4">
   <g id="patch_17">
    <path d="M 6.559063 43.343979 
L 94.433078 43.343979 
L 94.433078 34.077896 
L 6.559063 34.077896 
L 6.559063 43.343979 
z
" style="fill: none"/>
   </g>
   <g id="matplotlib.axis_7"/>
   <g id="matplotlib.axis_8">
    <g id="text_4">
     <!-- $\dot{x}$ -->
     <g style="fill: #811c35" transform="translate(4.519219 39.835937) rotate(-90) scale(0.05 -0.05)">
      <defs>
       <path id="STIXGeneral-Regular-307" d="M -1158 3661 
Q -1158 3526 -1251 3436 
Q -1344 3347 -1478 3347 
Q -1606 3347 -1699 3440 
Q -1792 3533 -1792 3661 
Q -1792 3795 -1705 3888 
Q -1619 3981 -1478 3981 
Q -1331 3981 -1244 3891 
Q -1158 3802 -1158 3661 
z
" transform="scale(0.015625)"/>
      </defs>
      <use xlink:href="#STIXGeneral-Regular-307" transform="translate(51.099998 4.796875)"/>
      <use xlink:href="#STIXGeneral-Italic-78" transform="translate(0 0.5)"/>
     </g>
    </g>
   </g>
   <g id="line2d_4">
    <path d="M 6.833676 38.710937 
L 93.604845 38.710937 
L 93.604845 38.710937 
" clip-path="url(#p7a94767e5a)" style="fill: none; stroke-dasharray: 2.59,1.12; stroke-dashoffset: 0; stroke: #811c35; stroke-width: 0.7"/>
   </g>
   <g id="patch_18">
    <path d="M 6.559063 43.343979 
L 6.559063 34.077896 
" style="fill: none; stroke: #000000; stroke-width: 0.5; stroke-linejoin: miter; stroke-linecap: square"/>
   </g>
   <g id="patch_19">
    <path d="M 94.433078 43.343979 
L 94.433078 34.077896 
" style="fill: none; stroke: #000000; stroke-width: 0.5; stroke-linejoin: miter; stroke-linecap: square"/>
   </g>
   <g id="patch_20">
    <path d="M 6.559063 43.343979 
L 94.433078 43.343979 
" style="fill: none; stroke: #000000; stroke-width: 0.5; stroke-linejoin: miter; stroke-linecap: square"/>
   </g>
   <g id="patch_21">
    <path d="M 6.559063 34.077896 
L 94.433078 34.077896 
" style="fill: none; stroke: #000000; stroke-width: 0.5; stroke-linejoin: miter; stroke-linecap: square"/>
   </g>
  </g>
  <g id="axes_5">
   <g id="patch_22">
    <path d="M 6.559063 54.463277 
L 94.433078 54.463277 
L 94.433078 45.197195 
L 6.559063 45.197195 
L 6.559063 54.463277 
z
" style="fill: none"/>
   </g>
   <g id="matplotlib.axis_9"/>
   <g id="matplotlib.axis_10">
    <g id="text_5">
     <!-- $\dot{x}^2$ -->
     <g style="fill: #811c35" transform="translate(4.519219 51.980236) rotate(-90) scale(0.05 -0.05)">
      <use xlink:href="#STIXGeneral-Regular-307" transform="translate(51.099998 4.70625)"/>
      <use xlink:href="#STIXGeneral-Italic-78" transform="translate(0 0.409375)"/>
      <use xlink:href="#STIXGeneral-Regular-32" transform="translate(45.943275 35.684375) scale(0.7)"/>
     </g>
    </g>
   </g>
   <g id="line2d_5">
    <path d="M 6.833676 49.830236 
L 93.604845 49.830236 
L 93.604845 49.830236 
" clip-path="url(#p9d8e4905e8)" style="fill: none; stroke-dasharray: 2.59,1.12; stroke-dashoffset: 0; stroke: #811c35; stroke-width: 0.7"/>
   </g>
   <g id="patch_23">
    <path d="M 6.559063 54.463277 
L 6.559063 45.197195 
" style="fill: none; stroke: #000000; stroke-width: 0.5; stroke-linejoin: miter; stroke-linecap: square"/>
   </g>
   <g id="patch_24">
    <path d="M 94.433078 54.463277 
L 94.433078 45.197195 
" style="fill: none; stroke: #000000; stroke-width: 0.5; stroke-linejoin: miter; stroke-linecap: square"/>
   </g>
   <g id="patch_25">
    <path d="M 6.559063 54.463277 
L 94.433078 54.463277 
" style="fill: none; stroke: #000000; stroke-width: 0.5; stroke-linejoin: miter; stroke-linecap: square"/>
   </g>
   <g id="patch_26">
    <path d="M 6.559063 45.197195 
L 94.433078 45.197195 
" style="fill: none; stroke: #000000; stroke-width: 0.5; stroke-linejoin: miter; stroke-linecap: square"/>
   </g>
  </g>
  <g id="axes_6">
   <g id="patch_27">
    <path d="M 6.559063 65.582576 
L 94.433078 65.582576 
L 94.433078 56.316494 
L 6.559063 56.316494 
L 6.559063 65.582576 
z
" style="fill: none"/>
   </g>
   <g id="matplotlib.axis_11"/>
   <g id="matplotlib.axis_12">
    <g id="text_6">
     <!-- $\dot{x}^3$ -->
     <g style="fill: #811c35" transform="translate(4.519219 63.099535) rotate(-90) scale(0.05 -0.05)">
      <use xlink:href="#STIXGeneral-Regular-307" transform="translate(51.099998 4.70625)"/>
      <use xlink:href="#STIXGeneral-Italic-78" transform="translate(0 0.409375)"/>
      <use xlink:href="#STIXGeneral-Regular-33" transform="translate(45.943275 35.684375) scale(0.7)"/>
     </g>
    </g>
   </g>
   <g id="line2d_6">
    <path d="M 6.833676 60.949535 
L 93.604845 60.949535 
L 93.604845 60.949535 
" clip-path="url(#p10fbf25982)" style="fill: none; stroke-dasharray: 2.59,1.12; stroke-dashoffset: 0; stroke: #811c35; stroke-width: 0.7"/>
   </g>
   <g id="patch_28">
    <path d="M 6.559063 65.582576 
L 6.559063 56.316494 
" style="fill: none; stroke: #000000; stroke-width: 0.5; stroke-linejoin: miter; stroke-linecap: square"/>
   </g>
   <g id="patch_29">
    <path d="M 94.433078 65.582576 
L 94.433078 56.316494 
" style="fill: none; stroke: #000000; stroke-width: 0.5; stroke-linejoin: miter; stroke-linecap: square"/>
   </g>
   <g id="patch_30">
    <path d="M 6.559063 65.582576 
L 94.433078 65.582576 
" style="fill: none; stroke: #000000; stroke-width: 0.5; stroke-linejoin: miter; stroke-linecap: square"/>
   </g>
   <g id="patch_31">
    <path d="M 6.559063 56.316494 
L 94.433078 56.316494 
" style="fill: none; stroke: #000000; stroke-width: 0.5; stroke-linejoin: miter; stroke-linecap: square"/>
   </g>
  </g>
  <g id="axes_7">
   <g id="patch_32">
    <path d="M 6.559063 76.701875 
L 94.433078 76.701875 
L 94.433078 67.435793 
L 6.559063 67.435793 
L 6.559063 76.701875 
z
" style="fill: none"/>
   </g>
   <g id="matplotlib.axis_13"/>
   <g id="matplotlib.axis_14">
    <g id="text_7">
     <!-- $x\dot{x}$ -->
     <g style="fill: #811c35" transform="translate(4.519219 74.293834) rotate(-90) scale(0.05 -0.05)">
      <use xlink:href="#STIXGeneral-Italic-78" transform="translate(0 0.5)"/>
      <use xlink:href="#STIXGeneral-Regular-307" transform="translate(95.499992 4.796875)"/>
      <use xlink:href="#STIXGeneral-Italic-78" transform="translate(44.399994 0.5)"/>
     </g>
    </g>
   </g>
   <g id="line2d_7">
    <path d="M 6.833676 72.068834 
L 93.604845 72.068834 
L 93.604845 72.068834 
" clip-path="url(#p1c12044c7f)" style="fill: none; stroke-dasharray: 2.59,1.12; stroke-dashoffset: 0; stroke: #811c35; stroke-width: 0.7"/>
   </g>
   <g id="patch_33">
    <path d="M 6.559063 76.701875 
L 6.559063 67.435793 
" style="fill: none; stroke: #000000; stroke-width: 0.5; stroke-linejoin: miter; stroke-linecap: square"/>
   </g>
   <g id="patch_34">
    <path d="M 94.433078 76.701875 
L 94.433078 67.435793 
" style="fill: none; stroke: #000000; stroke-width: 0.5; stroke-linejoin: miter; stroke-linecap: square"/>
   </g>
   <g id="patch_35">
    <path d="M 6.559063 76.701875 
L 94.433078 76.701875 
" style="fill: none; stroke: #000000; stroke-width: 0.5; stroke-linejoin: miter; stroke-linecap: square"/>
   </g>
   <g id="patch_36">
    <path d="M 6.559063 67.435793 
L 94.433078 67.435793 
" style="fill: none; stroke: #000000; stroke-width: 0.5; stroke-linejoin: miter; stroke-linecap: square"/>
   </g>
  </g>
  <g id="axes_8">
   <g id="patch_37">
    <path d="M 6.559063 87.821174 
L 94.433078 87.821174 
L 94.433078 78.555091 
L 6.559063 78.555091 
L 6.559063 87.821174 
z
" style="fill: none"/>
   </g>
   <g id="matplotlib.axis_15"/>
   <g id="matplotlib.axis_16">
    <g id="text_8">
     <!-- $x^2\dot{x}$ -->
     <g style="fill: #811c35" transform="translate(4.519219 86.563133) rotate(-90) scale(0.05 -0.05)">
      <use xlink:href="#STIXGeneral-Italic-78" transform="translate(0 0.409375)"/>
      <use xlink:href="#STIXGeneral-Regular-32" transform="translate(50.573119 35.684375) scale(0.7)"/>
      <use xlink:href="#STIXGeneral-Regular-307" transform="translate(141.082482 4.70625)"/>
      <use xlink:href="#STIXGeneral-Italic-78" transform="translate(89.982483 0.409375)"/>
     </g>
    </g>
   </g>
   <g id="line2d_8">
    <path d="M 6.833676 83.188133 
L 93.604845 83.188133 
L 93.604845 83.188133 
" clip-path="url(#p6b041ea465)" style="fill: none; stroke-dasharray: 2.59,1.12; stroke-dashoffset: 0; stroke: #811c35; stroke-width: 0.7"/>
   </g>
   <g id="patch_38">
    <path d="M 6.559063 87.821174 
L 6.559063 78.555091 
" style="fill: none; stroke: #000000; stroke-width: 0.5; stroke-linejoin: miter; stroke-linecap: square"/>
   </g>
   <g id="patch_39">
    <path d="M 94.433078 87.821174 
L 94.433078 78.555091 
" style="fill: none; stroke: #000000; stroke-width: 0.5; stroke-linejoin: miter; stroke-linecap: square"/>
   </g>
   <g id="patch_40">
    <path d="M 6.559063 87.821174 
L 94.433078 87.821174 
" style="fill: none; stroke: #000000; stroke-width: 0.5; stroke-linejoin: miter; stroke-linecap: square"/>
   </g>
   <g id="patch_41">
    <path d="M 6.559063 78.555091 
L 94.433078 78.555091 
" style="fill: none; stroke: #000000; stroke-width: 0.5; stroke-linejoin: miter; stroke-linecap: square"/>
   </g>
  </g>
  <g id="axes_9">
   <g id="patch_42">
    <path d="M 6.559063 98.940472 
L 94.433078 98.940472 
L 94.433078 89.67439 
L 6.559063 89.67439 
L 6.559063 98.940472 
z
" style="fill: none"/>
   </g>
   <g id="matplotlib.axis_17"/>
   <g id="matplotlib.axis_18">
    <g id="text_9">
     <!-- $x\dot{x}^2$ -->
     <g style="fill: #811c35" transform="translate(4.519219 97.557431) rotate(-90) scale(0.05 -0.05)">
      <use xlink:href="#STIXGeneral-Italic-78" transform="translate(0 0.409375)"/>
      <use xlink:href="#STIXGeneral-Regular-307" transform="translate(95.499992 4.70625)"/>
      <use xlink:href="#STIXGeneral-Italic-78" transform="translate(44.399994 0.409375)"/>
      <use xlink:href="#STIXGeneral-Regular-32" transform="translate(90.343269 35.684375) scale(0.7)"/>
     </g>
    </g>
   </g>
   <g id="line2d_9">
    <path d="M 6.833676 93.408243 
L 9.874193 93.701383 
L 15.401606 93.926414 
L 27.83609 94.100634 
L 65.14174 94.219643 
L 93.604845 94.246661 
L 93.604845 94.246661 
" clip-path="url(#p581e1e1b81)" style="fill: none; stroke-dasharray: 2.59,1.12; stroke-dashoffset: 0; stroke: #811c35; stroke-width: 0.7"/>
   </g>
   <g id="patch_43">
    <path d="M 6.559063 98.940472 
L 6.559063 89.67439 
" style="fill: none; stroke: #000000; stroke-width: 0.5; stroke-linejoin: miter; stroke-linecap: square"/>
   </g>
   <g id="patch_44">
    <path d="M 94.433078 98.940472 
L 94.433078 89.67439 
" style="fill: none; stroke: #000000; stroke-width: 0.5; stroke-linejoin: miter; stroke-linecap: square"/>
   </g>
   <g id="patch_45">
    <path d="M 6.559063 98.940472 
L 94.433078 98.940472 
" style="fill: none; stroke: #000000; stroke-width: 0.5; stroke-linejoin: miter; stroke-linecap: square"/>
   </g>
   <g id="patch_46">
    <path d="M 6.559063 89.67439 
L 94.433078 89.67439 
" style="fill: none; stroke: #000000; stroke-width: 0.5; stroke-linejoin: miter; stroke-linecap: square"/>
   </g>
  </g>
 </g>
 <defs>
  <clipPath id="p424a470ce4">
   <rect x="6.559063" y="0.72" width="87.874016" height="9.266082"/>
  </clipPath>
  <clipPath id="p530ef77b22">
   <rect x="6.559063" y="11.839299" width="87.874016" height="9.266082"/>
  </clipPath>
  <clipPath id="pf8b32f5788">
   <rect x="6.559063" y="22.958598" width="87.874016" height="9.266082"/>
  </clipPath>
  <clipPath id="p7a94767e5a">
   <rect x="6.559063" y="34.077896" width="87.874016" height="9.266082"/>
  </clipPath>
  <clipPath id="p9d8e4905e8">
   <rect x="6.559063" y="45.197195" width="87.874016" height="9.266082"/>
  </clipPath>
  <clipPath id="p10fbf25982">
   <rect x="6.559063" y="56.316494" width="87.874016" height="9.266082"/>
  </clipPath>
  <clipPath id="p1c12044c7f">
   <rect x="6.559063" y="67.435793" width="87.874016" height="9.266082"/>
  </clipPath>
  <clipPath id="p6b041ea465">
   <rect x="6.559063" y="78.555091" width="87.874016" height="9.266082"/>
  </clipPath>
  <clipPath id="p581e1e1b81">
   <rect x="6.559063" y="89.67439" width="87.874016" height="9.266082"/>
  </clipPath>
 </defs>
</svg>
