<?xml version="1.0" encoding="utf-8" standalone="no"?>
<!DOCTYPE svg PUBLIC "-//W3C//DTD SVG 1.1//EN"
  "http://www.w3.org/Graphics/SVG/1.1/DTD/svg11.dtd">
<svg xmlns:xlink="http://www.w3.org/1999/xlink" width="89.314016pt" height="34.180157pt" viewBox="0 0 89.314016 34.180157" xmlns="http://www.w3.org/2000/svg" version="1.1">
 <metadata>
  <rdf:RDF xmlns:dc="http://purl.org/dc/elements/1.1/" xmlns:cc="http://creativecommons.org/ns#" xmlns:rdf="http://www.w3.org/1999/02/22-rdf-syntax-ns#">
   <cc:Work>
    <dc:type rdf:resource="http://purl.org/dc/dcmitype/StillImage"/>
    <dc:date>2024-12-27T17:45:34.902826</dc:date>
    <dc:format>image/svg+xml</dc:format>
    <dc:creator>
     <cc:Agent>
      <dc:title>Matplotlib v3.7.5, https://matplotlib.org/</dc:title>
     </cc:Agent>
    </dc:creator>
   </cc:Work>
  </rdf:RDF>
 </metadata>
 <defs>
  <style type="text/css">*{stroke-linejoin: round; stroke-linecap: butt}</style>
 </defs>
 <g id="figure_1">
  <g id="patch_1">
   <path d="M 0 34.180157 
L 89.314016 34.180157 
L 89.314016 0 
L 0 0 
L 0 34.180157 
z
" style="fill: none"/>
  </g>
  <g id="axes_1">
   <g id="patch_2">
    <path d="M 0.72 33.460157 
L 88.594016 33.460157 
L 88.594016 0.72 
L 0.72 0.72 
L 0.72 33.460157 
z
" style="fill: none"/>
   </g>
   <g id="PathCollection_1">
    <defs>
     <path id="m8cdddb88ca" d="M 0 -3 
L -0.673542 -0.927051 
L -2.85317 -0.927051 
L -1.089814 0.354102 
L -1.763356 2.427051 
L -0 1.145898 
L 1.763356 2.427051 
L 1.089814 0.354102 
L 2.85317 -0.927051 
L 0.673542 -0.927051 
z
" style="stroke: #ff0000"/>
    </defs>
    <g clip-path="url(#p4d9b880a2c)">
     <use xlink:href="#m8cdddb88ca" x="15.449926" y="6.823721" style="fill: #ff0000; stroke: #ff0000"/>
    </g>
   </g>
   <g id="matplotlib.axis_1"/>
   <g id="matplotlib.axis_2"/>
   <g id="line2d_1">
    <path d="M 1.59004 15.506512 
L 1.722797 27.155934 
L 1.802452 22.905327 
L 1.829003 21.913585 
L 1.855555 26.480118 
L 1.935209 23.850708 
L 1.961761 22.679671 
L 1.988312 24.616748 
L 2.041415 23.652951 
L 2.067967 24.753639 
L 2.094518 23.051941 
L 2.147621 23.691933 
L 2.200724 24.363996 
L 2.227276 23.221027 
L 2.253827 24.513802 
L 2.30693 23.952515 
L 2.333482 24.777375 
L 2.360033 23.662592 
L 2.413136 24.075531 
L 2.439688 23.741502 
L 2.466239 24.15776 
L 2.519342 23.865726 
L 2.598997 24.525695 
L 2.572445 23.779098 
L 2.625549 24.495869 
L 2.6521 23.695834 
L 2.731755 24.024718 
L 2.758306 24.510051 
L 2.784858 23.862983 
L 2.837961 24.081725 
L 2.891064 24.306216 
L 2.944167 23.675775 
L 2.970718 24.584733 
L 3.050373 23.734672 
L 3.076924 23.641794 
L 3.103476 24.901907 
L 3.18313 24.650469 
L 3.209682 23.552124 
L 3.236233 25.042622 
L 3.289336 23.685482 
L 3.368991 24.628824 
L 3.342439 23.414373 
L 3.395542 23.792949 
L 3.422094 23.677129 
L 3.448645 24.956764 
L 3.475197 23.261462 
L 3.5283 24.578938 
L 3.554851 23.268621 
L 3.581403 26.006853 
L 3.634506 23.86586 
L 3.687609 23.092206 
L 3.71416 25.158703 
L 3.793815 25.17902 
L 3.820366 23.154769 
L 3.900021 23.107794 
L 3.926572 25.399412 
L 3.953124 22.791875 
L 4.032778 23.113714 
L 4.05933 25.911858 
L 4.085881 22.944452 
L 4.138984 24.430007 
L 4.165536 22.992323 
L 4.192087 26.680845 
L 4.24519 23.567165 
L 4.271742 25.190039 
L 4.298293 22.971762 
L 4.324845 24.864208 
L 4.404499 26.200538 
L 4.431051 22.728546 
L 4.537257 26.96687 
L 4.643463 22.679274 
L 4.670014 27.053033 
L 4.749669 25.020505 
L 4.776221 22.456591 
L 4.802772 25.694234 
L 4.855875 23.098442 
L 4.882427 26.223895 
L 4.908978 22.442841 
L 4.962081 23.307432 
L 4.988633 22.745359 
L 5.015184 27.135324 
L 5.041736 22.681553 
L 5.094839 23.933524 
L 5.12139 22.522187 
L 5.147942 27.34655 
L 5.227596 24.332257 
L 5.254148 22.293022 
L 5.280699 26.698386 
L 5.333802 22.859587 
L 5.360354 25.591548 
L 5.386905 22.225853 
L 5.440008 23.186008 
L 5.46656 22.560585 
L 5.493111 26.908749 
L 5.519663 22.397555 
L 5.572766 23.422068 
L 5.599317 22.436848 
L 5.625869 27.445171 
L 5.65242 22.397044 
L 5.705523 24.30787 
L 5.732075 22.130864 
L 5.758626 25.094859 
L 5.811729 22.810993 
L 5.838281 24.806003 
L 5.864832 22.176172 
L 5.917935 22.786753 
L 5.944487 22.32909 
L 5.971038 26.085311 
L 5.99759 22.045174 
L 6.050693 22.956014 
L 6.077244 22.233558 
L 6.103796 27.165872 
L 6.130347 22.143727 
L 6.18345 23.310401 
L 6.210002 21.961334 
L 6.236553 25.640325 
L 6.289656 22.628575 
L 6.369311 24.610446 
L 6.342759 21.910011 
L 6.395862 22.447151 
L 6.422414 22.328699 
L 6.448965 25.371191 
L 6.475517 21.946619 
L 6.52862 22.848014 
L 6.555171 21.993555 
L 6.581723 26.373375 
L 6.608274 21.867506 
L 6.661377 23.086957 
L 6.687929 21.729701 
L 6.71448 25.364548 
L 6.767583 22.38753 
L 6.820687 21.607585 
L 6.847238 24.144455 
L 6.926893 24.179163 
L 6.953444 21.65619 
L 7.05965 24.516455 
L 7.165856 21.687299 
L 7.192408 25.119525 
L 7.272062 23.176321 
L 7.298614 21.552097 
L 7.325165 24.161735 
L 7.378268 21.953605 
L 7.40482 23.859041 
L 7.431371 21.409198 
L 7.484474 21.994842 
L 7.511026 21.657298 
L 7.537577 23.940134 
L 7.564129 21.482069 
L 7.617232 22.584518 
L 7.643783 21.360388 
L 7.670335 24.603251 
L 7.723438 22.263432 
L 7.776541 21.256086 
L 7.803092 23.797656 
L 7.909298 21.206084 
L 8.015504 23.512289 
L 8.042056 21.138219 
L 8.12171 21.218821 
L 8.148262 24.061 
L 8.174813 21.200366 
L 8.227916 22.441053 
L 8.254468 21.068322 
L 8.281019 23.583202 
L 8.334122 21.598962 
L 8.413777 23.210791 
L 8.387225 21.01249 
L 8.440328 21.463287 
L 8.46688 21.378979 
L 8.493431 23.241952 
L 8.519983 21.051185 
L 8.573086 21.731448 
L 8.599637 21.109942 
L 8.626189 23.551059 
L 8.65274 20.966659 
L 8.705843 21.879035 
L 8.732395 20.937646 
L 8.758946 23.217879 
L 8.812049 21.502441 
L 8.865152 20.852341 
L 8.891704 22.768838 
L 8.971359 23.025227 
L 8.99791 20.654218 
L 9.104116 23.082865 
L 9.210322 20.649559 
L 9.236874 23.070904 
L 9.316528 21.797542 
L 9.34308 20.611738 
L 9.369631 22.668741 
L 9.422734 20.949937 
L 9.449286 22.247718 
L 9.475837 20.581492 
L 9.52894 21.115932 
L 9.555492 20.60463 
L 9.582043 22.660202 
L 9.608595 20.435921 
L 9.661698 21.210727 
L 9.688249 20.49032 
L 9.714801 22.6409 
L 9.767904 21.161554 
L 9.821007 20.333877 
L 9.847558 22.414832 
L 9.953764 20.300583 
L 10.05997 22.187086 
L 10.166176 20.21212 
L 10.192728 22.098759 
L 10.272382 21.219902 
L 10.298934 20.170064 
L 10.325485 22.088464 
L 10.378588 20.560712 
L 10.458243 21.608369 
L 10.431691 19.980385 
L 10.484794 20.46748 
L 10.511346 20.226891 
L 10.537897 21.7787 
L 10.564449 19.919007 
L 10.617552 20.52196 
L 10.644103 20.097397 
L 10.670655 21.980971 
L 10.697206 19.909838 
L 10.750309 20.734658 
L 10.776861 19.856454 
L 10.803412 21.789952 
L 10.856515 20.383193 
L 10.909618 19.720269 
L 10.93617 21.299099 
L 11.042376 19.684456 
L 11.148582 21.430161 
L 11.254788 19.541876 
L 11.28134 21.254152 
L 11.360994 20.54569 
L 11.387546 19.438688 
L 11.414097 21.004989 
L 11.4672 19.795353 
L 11.493752 20.827437 
L 11.520303 19.346975 
L 11.573406 19.820622 
L 11.599958 19.476488 
L 11.626509 20.943166 
L 11.653061 19.297994 
L 11.706164 20.007668 
L 11.732715 19.286592 
L 11.759267 20.912983 
L 11.81237 19.847534 
L 11.865473 19.09344 
L 11.892024 20.682815 
L 11.99823 18.975713 
L 12.104436 20.503615 
L 12.130988 18.91947 
L 12.210642 18.955799 
L 12.237194 20.483891 
L 12.263745 18.857168 
L 12.316848 19.640467 
L 12.3434 18.789026 
L 12.369951 20.286469 
L 12.423054 19.16259 
L 12.476157 18.603613 
L 12.502709 19.914988 
L 12.582363 20.01029 
L 12.608915 18.535644 
L 12.715121 20.01896 
L 12.821327 18.387302 
L 12.847878 19.912932 
L 12.927533 19.26219 
L 12.954084 18.202816 
L 12.980636 19.520905 
L 13.033739 18.43486 
L 13.060291 19.365523 
L 13.086842 18.049859 
L 13.139945 18.506296 
L 13.166497 18.157722 
L 13.193048 19.38932 
L 13.2196 17.983434 
L 13.272703 18.530553 
L 13.299254 17.889925 
L 13.325806 19.272819 
L 13.378909 18.301557 
L 13.432012 17.655522 
L 13.458563 19.068794 
L 13.564769 17.493065 
L 13.670975 18.719716 
L 13.777181 17.312384 
L 13.803733 18.673824 
L 13.830284 17.239496 
L 13.883387 17.941069 
L 13.909939 17.030318 
L 13.93649 18.33972 
L 13.989593 17.309944 
L 14.016145 17.978522 
L 14.042696 16.801068 
L 14.069248 17.950813 
L 14.148902 17.956142 
L 14.175454 16.589009 
L 14.255108 16.564366 
L 14.28166 17.826448 
L 14.387866 16.199283 
L 14.414417 17.525841 
L 14.494072 16.959303 
L 14.520623 15.856815 
L 14.547175 17.028386 
L 14.600278 15.948589 
L 14.626829 16.892418 
L 14.653381 15.500923 
L 14.706484 15.858758 
L 14.786138 15.158042 
L 14.759587 16.642557 
L 14.81269 15.816541 
L 14.839241 15.67335 
L 14.918896 14.769494 
L 14.892344 16.230724 
L 14.945447 15.091267 
L 14.971999 15.424417 
L 15.025102 15.580924 
L 15.078205 14.257164 
L 15.104756 15.081649 
L 15.131308 13.56293 
L 15.15786 14.645984 
L 15.34372 11.56189 
L 15.370272 13.776476 
L 15.423375 9.388677 
L 15.449926 6.823721 
L 15.503029 9.244975 
L 15.715441 13.204548 
L 15.741993 12.560583 
L 15.795096 13.49594 
L 15.821647 13.144105 
L 15.927853 14.462704 
L 15.954405 13.882742 
L 15.980956 14.922535 
L 16.034059 14.524073 
L 16.113714 15.373603 
L 16.087162 14.46036 
L 16.140265 15.002326 
L 16.166817 14.931913 
L 16.193368 15.831116 
L 16.273023 15.593455 
L 16.299574 15.271764 
L 16.326126 16.289065 
L 16.352677 15.415332 
L 16.458883 16.584577 
L 16.485435 15.845502 
L 16.591641 16.80576 
L 16.618192 16.245796 
L 16.644744 16.242437 
L 16.671295 17.014891 
L 16.697847 16.138251 
L 16.75095 16.654101 
L 16.777501 16.391367 
L 16.804053 17.337585 
L 16.883707 17.072873 
L 16.910259 16.54902 
L 16.93681 17.563019 
L 16.989913 17.041667 
L 17.069568 17.67805 
L 17.043016 16.729579 
L 17.096119 17.049386 
L 17.122671 17.071618 
L 17.149222 17.775738 
L 17.175774 16.903076 
L 17.228877 17.363778 
L 17.255429 17.141867 
L 17.28198 18.042912 
L 17.308532 17.118994 
L 17.361635 17.700934 
L 17.388186 17.239906 
L 17.414738 18.223897 
L 17.467841 17.72738 
L 17.520944 17.363469 
L 17.547495 18.324237 
L 17.653701 17.49738 
L 17.759907 18.516034 
L 17.786459 17.658153 
L 17.866113 17.784737 
L 17.892665 18.702093 
L 17.972319 18.443003 
L 17.998871 17.832157 
L 18.025422 18.806749 
L 18.078525 18.230585 
L 18.15818 18.808501 
L 18.131628 17.922845 
L 18.184731 18.263748 
L 18.211283 18.218276 
L 18.237834 18.929299 
L 18.264386 18.061979 
L 18.317489 18.502716 
L 18.34404 18.257917 
L 18.370592 19.127622 
L 18.397143 18.248961 
L 18.450246 18.809713 
L 18.476798 18.253203 
L 18.503349 19.191081 
L 18.556452 18.658066 
L 18.636107 19.164898 
L 18.609555 18.31363 
L 18.662658 18.602278 
L 18.68921 18.600472 
L 18.715761 19.251986 
L 18.742313 18.442455 
L 18.795416 18.795258 
L 18.821967 18.589559 
L 18.848519 19.458937 
L 18.87507 18.539547 
L 18.928173 19.077681 
L 18.954725 18.621287 
L 18.981276 19.466308 
L 19.034379 18.990972 
L 19.087482 18.660117 
L 19.114034 19.509789 
L 19.22024 18.785312 
L 19.326446 19.723494 
L 19.352998 18.812744 
L 19.432652 18.916808 
L 19.459204 19.750058 
L 19.538858 19.5652 
L 19.56541 18.906371 
L 19.591961 19.825451 
L 19.645064 19.217648 
L 19.671616 19.755088 
L 19.698167 18.97979 
L 19.75127 19.338898 
L 19.777822 19.167638 
L 19.804373 19.911656 
L 19.830925 19.088549 
L 19.884028 19.520536 
L 19.937131 20.089185 
L 19.963682 19.168391 
L 20.069888 20.023956 
L 20.176094 19.230177 
L 20.2823 20.060542 
L 20.308852 19.300628 
L 20.388506 19.437369 
L 20.415058 20.218876 
L 20.441609 19.398908 
L 20.494712 19.918685 
L 20.521264 19.434227 
L 20.547815 20.263161 
L 20.600918 19.749395 
L 20.654021 19.435572 
L 20.680573 20.323129 
L 20.786779 19.531624 
L 20.892985 20.341887 
L 20.919536 19.60823 
L 20.999191 19.62914 
L 21.025742 20.421236 
L 21.105397 20.228174 
L 21.131948 19.674099 
L 21.1585 20.420548 
L 21.211603 19.898556 
L 21.238154 20.439822 
L 21.264706 19.695565 
L 21.317809 20.020006 
L 21.34436 19.862894 
L 21.370912 20.563738 
L 21.397463 19.804362 
L 21.450567 20.162413 
L 21.530221 19.810453 
L 21.50367 20.635762 
L 21.556773 20.191439 
L 21.609876 19.821988 
L 21.636427 20.660263 
L 21.742633 19.870685 
L 21.848839 20.697209 
L 21.875391 19.874587 
L 21.955045 20.060392 
L 21.981597 20.734815 
L 22.008148 19.998408 
L 22.061251 20.502474 
L 22.087803 19.992471 
L 22.114354 20.791039 
L 22.167457 20.341114 
L 22.22056 20.033005 
L 22.247112 20.761668 
L 22.326766 20.801455 
L 22.353318 20.052301 
L 22.459524 20.938755 
L 22.56573 20.114044 
L 22.592281 20.95827 
L 22.671936 20.727297 
L 22.698487 20.198959 
L 22.725039 20.851646 
L 22.778142 20.423339 
L 22.804693 20.865599 
L 22.831245 20.209218 
L 22.884348 20.551716 
L 22.937451 20.954809 
L 22.964002 20.249609 
L 23.070208 21.161554 
L 23.176414 20.316061 
L 23.202966 21.041147 
L 23.28262 21.015074 
L 23.309172 20.391321 
L 23.388826 20.421725 
L 23.415378 21.096265 
L 23.441929 20.354714 
L 23.495032 20.789021 
L 23.521584 20.49211 
L 23.548136 21.075463 
L 23.601239 20.781869 
L 23.62779 20.905704 
L 23.654342 20.459176 
L 23.680893 21.242421 
L 23.733996 20.666849 
L 23.813651 21.14557 
L 23.787099 20.50041 
L 23.840202 20.768702 
L 23.866754 20.716085 
L 23.893305 21.214913 
L 23.919857 20.577369 
L 23.97296 20.83157 
L 23.999511 20.677999 
L 24.026063 21.256417 
L 24.052614 20.584104 
L 24.105717 21.104402 
L 24.132269 20.562863 
L 24.15882 21.384458 
L 24.211923 21.008544 
L 24.238475 21.209651 
L 24.265026 20.545526 
L 24.291578 21.253127 
L 24.344681 20.81736 
L 24.371232 21.215189 
L 24.397784 20.622859 
L 24.450887 20.902146 
L 24.477438 20.824045 
L 24.50399 21.325761 
L 24.530541 20.720214 
L 24.583644 21.116614 
L 24.610196 20.754316 
L 24.636747 21.338972 
L 24.68985 21.021741 
L 24.742953 20.665594 
L 24.769505 21.363723 
L 24.849159 21.434032 
L 24.875711 20.71508 
L 24.981917 21.452582 
L 25.008468 20.847973 
L 25.088123 20.86894 
L 25.114674 21.467286 
L 25.194329 21.435504 
L 25.22088 20.849761 
L 25.300535 21.093732 
L 25.327086 21.458848 
L 25.353638 20.850412 
L 25.406741 21.207355 
L 25.459844 21.473962 
L 25.486395 20.967539 
L 25.56605 20.946417 
L 25.592601 21.592088 
L 25.619153 20.913605 
L 25.698808 20.937147 
L 25.725359 21.526339 
L 25.805014 21.455557 
L 25.831565 20.911854 
L 25.858117 21.486004 
L 25.91122 21.159801 
L 25.937771 21.636745 
L 25.964323 21.024945 
L 26.017426 21.385833 
L 26.09708 21.019473 
L 26.070529 21.640913 
L 26.123632 21.342224 
L 26.150183 21.447319 
L 26.176735 21.087567 
L 26.203286 21.833169 
L 26.256389 21.381817 
L 26.309492 21.035165 
L 26.336044 21.624969 
L 26.415698 21.647663 
L 26.44225 21.067259 
L 26.548456 21.773024 
L 26.654662 21.13242 
L 26.681213 21.818669 
L 26.760868 21.586351 
L 26.787419 21.088418 
L 26.813971 21.869111 
L 26.867074 21.437061 
L 26.893625 21.760199 
L 26.920177 21.214401 
L 26.97328 21.475783 
L 27.026383 21.779132 
L 27.052934 21.220581 
L 27.15914 21.768581 
L 27.238795 21.810918 
L 27.265346 21.188061 
L 27.291898 21.838832 
L 27.371552 21.794326 
L 27.398104 21.213393 
L 27.424655 21.826119 
L 27.477758 21.41525 
L 27.50431 21.914077 
L 27.530861 21.250888 
L 27.583964 21.584446 
L 27.610516 21.361696 
L 27.637067 21.904427 
L 27.69017 21.624291 
L 27.743274 21.303688 
L 27.769825 21.918349 
L 27.876031 21.253008 
L 27.982237 21.953737 
L 28.008789 21.404746 
L 28.03534 21.988894 
L 28.088443 21.527259 
L 28.114995 22.04954 
L 28.141546 21.396072 
L 28.194649 21.762396 
L 28.221201 21.401288 
L 28.247752 21.919161 
L 28.300855 21.685588 
L 28.353958 21.390798 
L 28.38051 21.899584 
L 28.486716 21.485911 
L 28.56637 21.468151 
L 28.592922 22.012538 
L 28.619473 21.432193 
L 28.699128 21.545851 
L 28.725679 22.085699 
L 28.805334 21.836176 
L 28.858437 22.011063 
L 28.91154 21.639957 
L 28.938091 22.052284 
L 28.964643 21.463018 
L 29.017746 21.736284 
L 29.044297 21.599809 
L 29.070849 22.095009 
L 29.150503 21.935992 
L 29.230158 21.506723 
L 29.203606 22.105607 
L 29.256709 21.888582 
L 29.309812 21.568282 
L 29.336364 22.259222 
L 29.44257 21.51685 
L 29.548776 22.097856 
L 29.575327 21.635049 
L 29.654982 21.675129 
L 29.708085 21.64405 
L 29.761188 22.09134 
L 29.787739 21.745464 
L 29.814291 22.170376 
L 29.867394 21.80122 
L 29.947049 22.253139 
L 29.920497 21.713605 
L 29.9736 21.878581 
L 30.000152 21.837347 
L 30.026703 22.210224 
L 30.053255 21.642169 
L 30.106358 22.063605 
L 30.186012 21.657997 
L 30.159461 22.291244 
L 30.212564 21.929246 
L 30.265667 21.834012 
L 30.31877 21.705374 
L 30.371873 22.318421 
L 30.398424 21.7004 
L 30.424976 22.344843 
L 30.478079 21.885852 
L 30.50463 22.291582 
L 30.531182 21.642755 
L 30.584285 21.955356 
L 30.610836 21.815456 
L 30.637388 22.326808 
L 30.663939 21.689153 
L 30.717042 22.094038 
L 30.743594 21.911784 
L 30.770145 22.247634 
L 30.823248 21.966671 
L 30.8498 22.301847 
L 30.876351 21.729423 
L 30.929454 22.049485 
L 30.982557 22.282932 
L 31.009109 21.813015 
L 31.03566 22.401748 
L 31.115315 22.330155 
L 31.141866 21.796656 
L 31.221521 21.960543 
L 31.248072 22.377813 
L 31.274624 21.84862 
L 31.327727 22.171992 
L 31.354278 21.883465 
L 31.38083 22.43178 
L 31.433933 22.168804 
L 31.460484 22.569069 
L 31.487036 21.916674 
L 31.513587 22.350302 
L 31.540139 21.995273 
L 31.593242 22.419492 
L 31.619793 22.039239 
L 31.699448 21.959973 
L 31.725999 22.29814 
L 31.779102 22.325191 
L 31.832205 21.902598 
L 31.858757 22.506569 
L 31.938412 22.330738 
L 31.964963 22.045765 
L 32.044618 22.112544 
L 32.071169 22.378233 
L 32.097721 21.942408 
L 32.150824 22.192271 
L 32.177375 22.12044 
L 32.203927 22.479101 
L 32.230478 22.11028 
L 32.283581 22.26584 
L 32.310133 21.965324 
L 32.336684 22.427516 
L 32.389787 22.113402 
L 32.416339 22.408203 
L 32.44289 21.964333 
L 32.495993 22.078629 
L 32.522545 22.080609 
L 32.549096 22.603227 
L 32.575648 22.070903 
L 32.628751 22.237482 
L 32.655302 22.033527 
L 32.681854 22.566261 
L 32.708405 22.041844 
L 32.78806 21.965109 
L 32.814611 22.59697 
L 32.920817 21.960654 
L 32.947369 22.730069 
L 33.027023 22.54064 
L 33.053575 22.051676 
L 33.080126 22.687459 
L 33.133229 22.253275 
L 33.159781 22.610873 
L 33.212884 22.386854 
L 33.31909 22.171082 
L 33.292538 22.424673 
L 33.345641 22.212199 
L 33.398744 22.005756 
L 33.425296 22.724845 
L 33.451847 22.105392 
L 33.531502 22.206088 
L 33.637708 22.519544 
L 33.690811 22.653182 
L 33.743914 22.173845 
L 33.770465 22.657681 
L 33.797017 22.167295 
L 33.85012 22.481808 
L 33.876671 22.262193 
L 33.903223 22.660671 
L 33.956326 22.363815 
L 34.035981 22.650451 
L 34.009429 22.214944 
L 34.062532 22.457206 
L 34.115635 22.641017 
L 34.142187 22.239552 
L 34.248393 22.768749 
L 34.274944 22.245675 
L 34.354599 22.349527 
L 34.460805 22.700318 
L 34.487356 22.262844 
L 34.567011 22.304768 
L 34.593562 22.783072 
L 34.620114 22.158424 
L 34.673217 22.505766 
L 34.699768 22.352715 
L 34.72632 22.656367 
L 34.779423 22.482957 
L 34.805974 22.463665 
L 34.832526 22.231356 
L 34.859077 22.662839 
L 34.885629 22.367397 
L 34.991835 22.756233 
L 35.018386 22.513539 
L 35.044938 22.460308 
L 35.071489 22.875105 
L 35.098041 22.414893 
L 35.151144 22.504888 
L 35.177695 22.378032 
L 35.204247 22.872394 
L 35.230798 22.288696 
L 35.283901 22.550048 
L 35.363556 22.296625 
L 35.337004 22.750737 
L 35.390107 22.576377 
L 35.469762 22.876428 
L 35.44321 22.231831 
L 35.496313 22.624747 
L 35.549416 22.80077 
L 35.575968 22.341291 
L 35.682174 22.84251 
L 35.708725 22.281298 
L 35.735277 22.855319 
L 35.78838 22.472253 
L 35.814931 22.973225 
L 35.894586 22.536177 
L 35.921137 22.391226 
L 35.947689 22.814941 
L 35.97424 22.431887 
L 36.053895 22.399415 
L 36.080447 22.868376 
L 36.13355 22.424355 
L 36.160101 22.972091 
L 36.186653 22.506125 
L 36.292859 23.060579 
L 36.31941 22.411653 
L 36.399065 22.514986 
L 36.505271 22.957467 
L 36.531822 22.445155 
L 36.611477 22.509496 
L 36.638028 23.017389 
L 36.66458 22.391015 
L 36.717683 22.663648 
L 36.744234 22.503416 
L 36.770786 22.864819 
L 36.797337 22.598339 
L 36.823889 22.942194 
L 36.876992 22.469558 
L 36.903543 22.838188 
L 37.009749 22.358599 
L 37.115955 22.909202 
L 37.142507 22.370031 
L 37.169058 22.993751 
L 37.222161 22.693811 
L 37.301816 22.944503 
L 37.275264 22.542954 
L 37.328367 22.819845 
L 37.38147 22.901082 
L 37.408022 22.440489 
L 37.514228 22.995425 
L 37.593882 23.159415 
L 37.620434 22.503661 
L 37.646985 23.066534 
L 37.72664 22.97963 
L 37.753191 22.425908 
L 37.832846 22.640312 
L 37.859397 22.924562 
L 37.939052 22.816342 
L 37.992155 22.981082 
L 38.045258 22.506605 
L 38.071809 23.138922 
L 38.151464 22.556159 
L 38.25767 23.029581 
L 38.284222 22.87649 
L 38.310773 22.579032 
L 38.337325 22.978563 
L 38.390428 22.930717 
L 38.443531 22.551984 
L 38.470082 23.275887 
L 38.549737 23.201086 
L 38.576288 22.472226 
L 38.655943 22.728024 
L 38.682494 23.095002 
L 38.709046 22.582128 
L 38.762149 22.788269 
L 38.7887 22.631015 
L 38.815252 23.295612 
L 38.894906 22.990104 
L 38.948009 23.218729 
L 38.974561 22.647384 
L 39.001112 23.068521 
L 39.080767 22.925014 
L 39.160421 22.988186 
L 39.186973 22.570319 
L 39.266627 22.788033 
L 39.293179 23.172183 
L 39.372833 22.915199 
L 39.399385 22.800926 
L 39.425936 23.339315 
L 39.452488 22.629828 
L 39.505591 23.046481 
L 39.585245 22.667991 
L 39.611797 23.032439 
L 39.6649 22.870112 
L 39.691451 23.160282 
L 39.744554 22.75268 
L 39.771106 23.075108 
L 39.824209 23.145632 
L 39.877312 22.699789 
L 39.903863 23.282877 
L 39.983518 22.987434 
L 40.010069 22.708278 
L 40.036621 23.267184 
L 40.089724 22.936059 
L 40.169378 23.318729 
L 40.142827 22.739492 
L 40.19593 22.969085 
L 40.222481 22.770597 
L 40.249033 23.248903 
L 40.275585 22.897436 
L 40.302136 23.164215 
L 40.355239 22.780321 
L 40.381791 23.091198 
L 40.408342 22.67133 
L 40.434894 23.159872 
L 40.487997 22.840237 
L 40.514548 23.182295 
L 40.594203 23.113143 
L 40.647306 23.274152 
L 40.700409 22.899082 
L 40.780063 23.2846 
L 40.806615 22.995016 
L 40.833166 22.838707 
L 40.886269 23.129326 
L 40.939372 22.958053 
L 40.965924 23.068931 
L 41.045578 23.296847 
L 41.019027 22.796616 
L 41.07213 23.10861 
L 41.125233 23.161083 
L 41.178336 22.94015 
L 41.204887 23.355556 
L 41.284542 23.132885 
L 41.311093 22.85346 
L 41.337645 23.387077 
L 41.417299 22.8666 
L 41.443851 22.820597 
L 41.470402 23.358125 
L 41.550057 23.168476 
L 41.576608 22.705949 
L 41.656263 23.135131 
L 41.735917 23.477398 
L 41.709366 22.814314 
L 41.762469 23.206357 
L 41.842123 22.9473 
L 41.815572 23.336625 
L 41.868675 23.203098 
L 41.895226 23.167199 
L 41.921778 22.939324 
L 41.948329 23.301662 
L 42.001432 23.153357 
L 42.054535 22.906279 
L 42.160741 23.443365 
L 42.187293 22.942745 
L 42.266947 23.203746 
L 42.293499 23.420562 
L 42.32005 23.049967 
L 42.373154 23.349883 
L 42.399705 22.874728 
L 42.426257 23.544559 
L 42.47936 23.07707 
L 42.532463 22.884593 
L 42.559014 23.569132 
L 42.585566 22.845632 
L 42.66522 22.994458 
L 42.691772 23.601831 
L 42.771426 23.471141 
L 42.797978 22.865015 
L 42.877632 23.31946 
L 42.904184 23.579408 
L 42.930735 23.143975 
L 42.957287 23.286108 
L 43.01039 23.099369 
L 43.036941 23.479426 
L 43.116596 23.324014 
L 43.143147 23.169191 
L 43.169699 23.737922 
L 43.249353 23.285568 
L 43.275905 22.880627 
L 43.355559 23.029319 
L 43.435214 23.341914 
L 43.408662 22.788754 
L 43.461765 23.113884 
L 43.488317 22.912526 
L 43.514868 23.236532 
L 43.54142 23.047315 
L 43.621074 22.995307 
L 43.647626 23.48253 
L 43.674177 23.067869 
L 43.753832 23.208756 
L 43.806935 23.117981 
L 43.860038 23.360061 
L 43.966244 22.977182 
L 43.992795 23.302371 
L 44.07245 23.247822 
L 44.099001 23.087914 
L 44.125553 23.44374 
L 44.178656 23.256628 
L 44.205207 23.516188 
L 44.231759 23.050547 
L 44.25831 23.439306 
L 44.284862 23.066201 
L 44.364516 23.148333 
L 44.417619 23.128188 
L 44.523826 23.436403 
L 44.60348 23.452513 
L 44.656583 23.165196 
L 44.709686 22.928246 
L 44.736238 23.621855 
L 44.842444 22.897238 
L 44.94865 23.48394 
L 45.054856 23.057308 
L 45.161062 23.665159 
L 45.240716 23.198239 
L 45.267268 23.406136 
L 45.320371 23.36332 
L 45.346922 23.199038 
L 45.373474 23.475041 
L 45.426577 23.268768 
L 45.506231 23.643046 
L 45.532783 23.097068 
L 45.559334 23.690064 
L 45.612437 23.582899 
L 45.66554 23.190625 
L 45.745195 23.225128 
L 45.798298 23.191089 
L 45.824849 23.537897 
L 45.904504 23.770426 
L 45.931055 23.055955 
L 46.037261 23.660692 
L 46.063813 23.407318 
L 46.116916 23.26828 
L 46.170019 23.666485 
L 46.223122 23.248402 
L 46.276225 23.359628 
L 46.302776 23.996789 
L 46.382431 23.317419 
L 46.515188 23.936315 
L 46.54174 23.146656 
L 46.621395 23.263671 
L 46.647946 23.812991 
L 46.674498 23.055842 
L 46.727601 23.384919 
L 46.754152 23.160798 
L 46.780704 23.936328 
L 46.860358 23.676351 
L 46.940013 23.089597 
L 46.913461 23.695572 
L 46.966564 23.302388 
L 46.993116 23.681387 
L 47.046219 23.268961 
L 47.07277 23.38016 
L 47.099322 23.220395 
L 47.125873 23.807292 
L 47.152425 23.162304 
L 47.205528 23.644564 
L 47.285182 23.143198 
L 47.311734 23.697784 
L 47.364837 23.325571 
L 47.391388 23.821446 
L 47.444491 23.502252 
L 47.471043 23.753203 
L 47.497594 23.26854 
L 47.524146 23.719971 
L 47.550697 23.240885 
L 47.630352 23.396572 
L 47.656903 23.648445 
L 47.683455 23.305832 
L 47.763109 23.599464 
L 47.789661 23.518172 
L 47.816212 23.805389 
L 47.842764 23.203408 
L 47.895867 23.481389 
L 47.975521 23.431565 
L 48.002073 23.847484 
L 48.081727 23.723676 
L 48.108279 23.323506 
L 48.214485 23.370345 
L 48.347242 23.785767 
L 48.373794 23.552466 
L 48.400345 23.572088 
L 48.426897 23.928862 
L 48.453448 23.152374 
L 48.48 23.669955 
L 48.586206 23.194435 
L 48.692412 24.148617 
L 48.772067 23.477956 
L 48.798618 23.525332 
L 48.82517 23.984921 
L 48.904824 23.729506 
L 48.984479 23.767329 
L 49.01103 23.433232 
L 49.037582 24.000771 
L 49.090685 23.753628 
L 49.143788 23.396075 
L 49.170339 23.975404 
L 49.196891 23.302868 
L 49.249994 23.529319 
L 49.276545 23.576615 
L 49.382751 23.910979 
L 49.409303 23.220763 
L 49.488957 23.477001 
L 49.54206 23.459533 
L 49.595163 23.884468 
L 49.674818 23.351896 
L 49.701369 23.638179 
L 49.754472 23.50141 
L 49.834127 23.483105 
L 49.860678 23.959047 
L 49.88723 23.363453 
L 49.913781 24.023687 
L 49.966884 23.810778 
L 50.07309 23.458049 
L 50.099642 23.64574 
L 50.126193 24.031258 
L 50.152745 23.391457 
L 50.179296 23.678528 
L 50.205848 23.52864 
L 50.258951 23.738183 
L 50.312054 23.751826 
L 50.338605 23.664836 
L 50.365157 23.647528 
L 50.41826 23.487425 
L 50.471363 23.823515 
L 50.497914 23.349142 
L 50.577569 23.740626 
L 50.60412 24.282085 
L 50.630672 23.34621 
L 50.683775 23.674035 
L 50.736878 23.944744 
L 50.76343 23.570157 
L 50.816533 23.968641 
L 50.869636 23.619336 
L 50.896187 24.048023 
L 50.922739 23.560202 
L 50.94929 23.739259 
L 50.975842 23.523428 
L 51.002393 24.091097 
L 51.055496 23.56336 
L 51.108599 23.851676 
L 51.161702 23.784966 
L 51.188254 23.465167 
L 51.214805 24.287352 
L 51.241357 23.691071 
L 51.267908 23.96989 
L 51.321011 23.666864 
L 51.347563 23.871746 
L 51.400666 23.627355 
L 51.48032 24.120432 
L 51.453769 23.587471 
L 51.506872 23.765394 
L 51.533423 23.50862 
L 51.559975 24.161073 
L 51.586526 23.616256 
L 51.639629 23.593208 
L 51.692732 24.152094 
L 51.719284 23.400181 
L 51.798938 23.634072 
L 51.82549 24.15512 
L 51.905144 23.822905 
L 51.984799 23.612307 
L 52.01135 23.690362 
L 52.091005 23.95754 
L 52.117556 23.654335 
L 52.223762 23.929626 
L 52.303417 23.970351 
L 52.35652 23.525288 
L 52.409623 23.828713 
L 52.436174 23.973782 
L 52.462726 23.627348 
L 52.489277 23.578635 
L 52.568932 23.886073 
L 52.595483 23.758071 
L 52.622035 23.643889 
L 52.648586 24.193875 
L 52.728241 23.820055 
L 52.754792 23.741628 
L 52.781344 24.102079 
L 52.807895 23.729013 
L 52.860999 23.806635 
L 52.88755 23.633473 
L 52.967205 23.77406 
L 53.020308 23.702201 
L 53.046859 24.018065 
L 53.153065 23.53727 
L 53.206168 24.047008 
L 53.259271 23.886261 
L 53.285823 23.550454 
L 53.312374 24.205968 
L 53.365477 23.906794 
L 53.445132 23.684129 
L 53.498235 23.766135 
L 53.524786 23.846793 
L 53.551338 23.663264 
L 53.577889 23.603842 
L 53.684095 24.199347 
L 53.76375 23.633135 
L 53.737198 24.247173 
L 53.816853 23.821219 
L 53.843404 23.757249 
L 53.869956 23.994484 
L 53.94961 23.942641 
L 54.029265 23.533393 
L 54.055816 23.856174 
L 54.108919 23.713217 
L 54.135471 24.479756 
L 54.241677 23.653227 
L 54.268228 23.850598 
L 54.29478 23.859766 
L 54.321331 23.716763 
L 54.374434 23.796817 
L 54.507192 23.987596 
L 54.533743 23.966838 
L 54.586846 23.657951 
L 54.613398 24.394725 
L 54.719604 23.774771 
L 54.746155 23.995036 
L 54.799258 23.741947 
L 54.82581 23.894535 
L 54.905464 24.084186 
L 54.932016 23.654316 
L 54.958568 24.10923 
L 55.011671 23.82882 
L 55.091325 24.197626 
L 55.064774 23.615686 
L 55.117877 23.988755 
L 55.197531 23.637213 
L 55.17098 24.229144 
L 55.250634 23.759556 
L 55.303737 24.513213 
L 55.35684 24.054244 
L 55.383392 23.988869 
L 55.409943 23.511067 
L 55.463046 23.779729 
L 55.542701 23.771887 
L 55.569252 24.222719 
L 55.622355 23.789566 
L 55.675458 23.930575 
L 55.755113 23.677363 
L 55.781664 24.56794 
L 55.88787 23.529929 
L 55.914422 24.229477 
L 55.994076 23.95758 
L 56.020628 23.835167 
L 56.126834 24.325548 
L 56.23304 23.621316 
L 56.312694 24.333581 
L 56.392349 24.019939 
L 56.4189 24.173129 
L 56.445452 23.780581 
L 56.472003 23.999391 
L 56.551658 23.743516 
L 56.525106 24.107918 
L 56.578209 23.850773 
L 56.604761 24.356613 
L 56.631312 23.782994 
L 56.684415 23.994394 
L 56.710967 24.082085 
L 56.737518 23.859401 
L 56.76407 23.597756 
L 56.790621 24.391762 
L 56.843724 23.893083 
L 56.870276 24.283686 
L 56.94993 24.095725 
L 57.029585 23.749984 
L 57.003033 24.180201 
L 57.056137 24.010432 
L 57.082688 23.995117 
L 57.10924 23.821575 
L 57.135791 24.402961 
L 57.215446 23.768518 
L 57.241997 23.807562 
L 57.321652 24.236278 
L 57.2951 23.794024 
L 57.348203 24.160569 
L 57.374755 23.723979 
L 57.454409 23.9039 
L 57.480961 24.192064 
L 57.507512 23.80579 
L 57.560615 24.115165 
L 57.64027 23.705873 
L 57.613718 24.259712 
L 57.666821 24.094349 
L 57.693373 24.267457 
L 57.719924 23.998151 
L 57.746476 24.021964 
L 57.799579 23.861805 
L 57.82613 23.908799 
L 57.905785 24.344914 
L 57.932336 23.74482 
L 58.011991 24.188119 
L 58.118197 23.889095 
L 58.144748 24.138967 
L 58.1713 24.155434 
L 58.250954 23.620214 
L 58.277506 23.835616 
L 58.35716 24.435261 
L 58.330609 23.681145 
L 58.383712 24.415808 
L 58.410263 23.900581 
L 58.516469 23.989899 
L 58.569572 24.241067 
L 58.596124 23.799872 
L 58.675778 24.025584 
L 58.781984 24.51862 
L 58.808536 23.994983 
L 58.88819 24.133858 
L 58.967845 24.528686 
L 58.941293 23.998062 
L 58.994396 24.23524 
L 59.020948 23.987771 
L 59.074051 24.420111 
L 59.100603 24.010316 
L 59.180257 24.211651 
L 59.153706 23.762884 
L 59.23336 24.171478 
L 59.259912 24.17301 
L 59.286463 23.849961 
L 59.339566 24.334474 
L 59.366118 24.112365 
L 59.392669 24.261888 
L 59.472324 24.195404 
L 59.498875 23.895804 
L 59.525427 24.389737 
L 59.551978 24.119132 
L 59.57853 24.395012 
L 59.631633 24.105329 
L 59.658184 24.03893 
L 59.684736 24.130497 
L 59.711287 24.135493 
L 59.737839 24.279061 
L 59.76439 23.812064 
L 59.817493 24.176989 
L 59.844045 24.003144 
L 59.870596 24.654575 
L 59.897148 23.982821 
L 59.950251 24.148109 
L 59.976802 23.89363 
L 60.003354 24.489139 
L 60.029905 23.917786 
L 60.136111 24.349588 
L 60.189214 23.705043 
L 60.242317 24.07852 
L 60.29542 23.865891 
L 60.348523 24.379303 
L 60.428178 24.042762 
L 60.454729 24.274138 
L 60.534384 24.059331 
L 60.560935 24.504618 
L 60.64059 23.863426 
L 60.614038 24.580885 
L 60.693693 24.151533 
L 60.720244 24.097857 
L 60.746796 24.315148 
L 60.773347 24.065534 
L 60.82645 24.195987 
L 60.853002 23.81667 
L 60.906105 24.287483 
L 60.932656 24.328226 
L 60.985759 24.088096 
L 61.065414 24.196575 
L 61.118517 24.393356 
L 61.145068 24.051336 
L 61.17162 24.305024 
L 61.198172 24.140977 
L 61.251275 24.184775 
L 61.304378 24.524715 
L 61.330929 23.73246 
L 61.410584 24.032803 
L 61.490238 24.349495 
L 61.463687 23.911538 
L 61.51679 24.149042 
L 61.543341 24.094923 
L 61.649547 24.339414 
L 61.729202 24.002425 
L 61.782305 24.242006 
L 61.835408 24.507053 
L 61.861959 24.149027 
L 61.888511 24.348458 
L 61.968165 24.368265 
L 62.021268 24.130667 
L 62.074371 24.072171 
L 62.127474 24.403655 
L 62.154026 23.927332 
L 62.180577 24.493532 
L 62.23368 24.027926 
L 62.313335 24.402414 
L 62.286783 23.956397 
L 62.339886 24.279577 
L 62.366438 24.226094 
L 62.392989 24.465743 
L 62.419541 24.128711 
L 62.446092 24.44677 
L 62.552298 23.854302 
L 62.658504 24.792684 
L 62.791262 24.11721 
L 62.844365 24.604189 
L 62.870916 24.446276 
L 62.897468 23.956739 
L 62.950571 24.861703 
L 62.977122 24.073179 
L 63.136431 24.635547 
L 63.162983 24.183095 
L 63.242637 24.289229 
L 63.295741 24.440397 
L 63.322292 24.039777 
L 63.348844 24.713088 
L 63.401947 24.254582 
L 63.428498 24.202714 
L 63.45505 24.378157 
L 63.481601 24.470831 
L 63.508153 24.333615 
L 63.534704 24.358475 
L 63.561256 23.907508 
L 63.587807 24.534498 
L 63.64091 24.177698 
L 63.667462 24.56472 
L 63.747116 24.185395 
L 63.879874 24.625558 
L 63.906425 24.207729 
L 63.959528 24.732606 
L 63.98608 24.280538 
L 64.012631 24.643255 
L 64.092286 24.531257 
L 64.118837 23.911515 
L 64.145389 24.611116 
L 64.198492 24.580563 
L 64.278146 24.225862 
L 64.331249 24.370565 
L 64.357801 24.684202 
L 64.410904 24.159487 
L 64.570213 24.463019 
L 64.596764 24.420497 
L 64.676419 24.05014 
L 64.70297 24.451733 
L 64.729522 24.54684 
L 64.756073 24.036276 
L 64.835728 24.632943 
L 64.888831 24.171274 
L 64.915382 24.783329 
L 64.968485 24.359602 
L 65.04814 24.29371 
L 65.101243 24.675141 
L 65.154346 24.048339 
L 65.234 24.093417 
L 65.260552 24.51342 
L 65.287103 23.928648 
L 65.340206 24.319423 
L 65.39331 24.509813 
L 65.419861 24.182724 
L 65.472964 24.522581 
L 65.499516 24.310471 
L 65.526067 24.318126 
L 65.552619 24.00885 
L 65.57917 24.433754 
L 65.605722 24.421842 
L 65.632273 24.668062 
L 65.685376 24.307138 
L 65.711928 24.165898 
L 65.765031 24.385269 
L 65.871237 24.620466 
L 65.897788 24.19806 
L 65.977443 24.207253 
L 66.083649 24.533887 
L 66.1102 24.162627 
L 66.136752 24.703716 
L 66.189855 24.423188 
L 66.269509 24.8343 
L 66.242958 24.2833 
L 66.296061 24.568107 
L 66.375715 24.22467 
L 66.349164 24.869423 
L 66.428818 24.262453 
L 66.45537 24.292574 
L 66.535024 24.032825 
L 66.561576 24.889532 
L 66.667782 24.071774 
L 66.800539 24.817365 
L 66.933297 24.389164 
L 66.959848 24.450251 
L 67.039503 23.977556 
L 67.066054 24.138209 
L 67.198812 24.711445 
L 67.225363 24.712359 
L 67.384672 23.885244 
L 67.411224 23.965869 
L 67.437775 24.586698 
L 67.51743 24.502229 
L 67.543982 24.409506 
L 67.570533 25.121635 
L 67.597085 24.361727 
L 67.623636 24.46195 
L 67.676739 24.101327 
L 67.703291 24.748352 
L 67.729842 24.213449 
L 67.756394 24.738053 
L 67.809497 24.062675 
L 67.836048 24.72789 
L 67.8626 24.104322 
L 67.942254 24.509954 
L 67.968806 24.298343 
L 68.021909 24.660013 
L 68.04846 24.486781 
L 68.075012 24.689624 
L 68.101563 24.140824 
L 68.154666 24.281414 
L 68.181218 24.849275 
L 68.260872 24.68378 
L 68.287424 24.215954 
L 68.367078 24.699173 
L 68.39363 24.831247 
L 68.473284 24.070256 
L 68.499836 24.518923 
L 68.57949 24.674532 
L 68.552939 24.406546 
L 68.632593 24.573773 
L 68.685696 24.27245 
L 68.712248 24.899981 
L 68.791902 24.657374 
L 68.818454 24.089171 
L 68.898108 24.397202 
L 68.92466 24.391074 
L 68.977763 24.182034 
L 69.057417 25.329081 
L 69.163623 24.088139 
L 69.269829 24.978109 
L 69.349484 24.213678 
L 69.376035 24.68155 
L 69.482241 24.630723 
L 69.535344 24.179165 
L 69.588448 24.459001 
L 69.614999 25.251912 
L 69.641551 24.411549 
L 69.668102 24.898901 
L 69.721205 24.010424 
L 69.80086 24.292875 
L 69.880514 25.19556 
L 69.907066 23.89589 
L 69.98672 24.595564 
L 70.066375 24.263096 
L 70.039823 24.672275 
L 70.092926 24.628295 
L 70.119478 24.81921 
L 70.146029 24.308224 
L 70.172581 24.567449 
L 70.199132 24.569849 
L 70.225684 25.023879 
L 70.252235 24.545099 
L 70.305338 24.647598 
L 70.33189 24.605618 
L 70.358441 24.696478 
L 70.384993 24.23173 
L 70.438096 24.984533 
L 70.464647 24.315474 
L 70.491199 24.918369 
L 70.51775 24.255694 
L 70.570853 24.58581 
L 70.623956 24.511491 
L 70.650508 24.894415 
L 70.677059 24.451128 
L 70.703611 24.839187 
L 70.730162 24.320156 
L 70.756714 24.917742 
L 70.809817 24.579894 
L 70.889471 24.41511 
L 70.916023 25.328154 
L 70.995677 24.117701 
L 71.04878 24.363096 
L 71.181538 24.766967 
L 71.234641 25.065355 
L 71.314295 24.451188 
L 71.367398 24.280356 
L 71.39395 24.827209 
L 71.420501 24.241598 
L 71.447053 25.078936 
L 71.500156 24.905559 
L 71.686017 24.230188 
L 71.712568 25.038729 
L 71.792223 24.847092 
L 71.818774 24.85077 
L 71.845326 24.403139 
L 71.92498 24.692502 
L 71.978083 24.639399 
L 72.004635 25.014747 
L 72.031186 24.511412 
L 72.084289 24.674801 
L 72.110841 24.698673 
L 72.137392 24.639058 
L 72.217047 24.317091 
L 72.243598 24.910633 
L 72.349804 24.799129 
L 72.429459 24.42196 
L 72.45601 24.7399 
L 72.509113 24.372298 
L 72.562216 24.971342 
L 72.641871 24.473524 
L 72.615319 25.037737 
L 72.668422 24.584771 
L 72.748077 24.827252 
L 72.827731 24.502838 
L 72.80118 24.965382 
L 72.854283 24.767817 
L 72.933937 24.702476 
L 72.960489 24.977441 
L 72.98704 24.448686 
L 73.013592 24.63551 
L 73.040143 24.476818 
L 73.093246 24.793264 
L 73.119798 24.611035 
L 73.172901 24.446711 
L 73.199452 24.623811 
L 73.252555 24.803143 
L 73.305658 24.98568 
L 73.33221 24.30086 
L 73.358761 25.242793 
L 73.385313 24.236755 
L 73.438416 24.565639 
L 73.491519 24.828149 
L 73.51807 24.484987 
L 73.544622 24.563622 
L 73.624276 24.980546 
L 73.650828 24.381645 
L 73.730482 24.979868 
L 73.783586 25.512422 
L 73.86324 24.046747 
L 73.942895 24.88332 
L 73.995998 24.80492 
L 74.022549 24.644176 
L 74.102204 25.33451 
L 74.075652 24.391238 
L 74.128755 24.651472 
L 74.181858 24.765392 
L 74.20841 24.285801 
L 74.288064 25.000019 
L 74.314616 24.780582 
L 74.39427 24.758594 
L 74.473925 24.87056 
L 74.500476 24.281447 
L 74.633234 25.037576 
L 74.659785 24.42833 
L 74.73944 25.139997 
L 74.765991 24.518501 
L 74.792543 24.802152 
L 74.819094 24.394917 
L 74.898749 24.759447 
L 74.951852 24.866198 
L 75.058058 24.454019 
L 75.004955 24.930384 
L 75.084609 24.630926 
L 75.137712 24.820902 
L 75.217367 24.321041 
L 75.243918 24.698516 
L 75.27047 25.349516 
L 75.323573 24.822696 
L 75.403227 25.070504 
L 75.429779 24.412782 
L 75.45633 25.21029 
L 75.482882 24.292111 
L 75.535985 24.899693 
L 75.562536 24.407675 
L 75.642191 24.868789 
L 75.668742 25.006621 
L 75.721845 24.792956 
L 75.748397 24.623793 
L 75.8015 24.8619 
L 75.881155 24.830274 
L 75.934258 25.373837 
L 76.013912 24.491156 
L 76.040464 24.533724 
L 76.093567 25.286033 
L 76.120118 24.392106 
L 76.14667 25.080947 
L 76.226324 25.454223 
L 76.252876 24.611222 
L 76.279427 25.519166 
L 76.359082 25.082697 
L 76.438736 25.246442 
L 76.518391 24.362105 
L 76.624597 25.39553 
L 76.730803 24.727692 
L 76.757354 24.999986 
L 76.810457 24.621148 
L 76.837009 25.051599 
L 76.86356 24.843734 
L 76.969766 25.179104 
L 77.049421 25.268252 
L 77.075972 24.454646 
L 77.182178 25.034944 
L 77.20873 25.028369 
L 77.341487 24.343923 
L 77.368039 25.604819 
L 77.447693 25.124828 
L 77.474245 24.640682 
L 77.527348 25.138999 
L 77.553899 24.724258 
L 77.607002 24.572713 
L 77.633554 25.578552 
L 77.766311 24.568862 
L 77.792863 24.512515 
L 77.872517 24.954913 
L 77.92562 24.846339 
L 77.952172 24.720039 
L 77.978724 24.874457 
L 78.005275 24.807168 
L 78.031827 25.363171 
L 78.058378 24.71479 
L 78.111481 24.748655 
L 78.164584 24.738389 
L 78.217687 25.353556 
L 78.297342 24.361458 
L 78.323893 25.120881 
L 78.483202 24.495794 
L 78.536305 24.349045 
L 78.61596 25.173685 
L 78.748717 24.42678 
L 78.881475 25.232845 
L 78.908026 24.622566 
L 78.987681 25.090941 
L 79.014232 25.04467 
L 79.040784 24.611387 
L 79.093887 24.934544 
L 79.14699 24.810055 
L 79.226644 25.371704 
L 79.306299 24.537976 
L 79.279747 25.468885 
L 79.33285 24.937665 
L 79.385953 24.783101 
L 79.412505 25.048676 
L 79.465608 24.749331 
L 79.492159 25.620673 
L 79.518711 24.51044 
L 79.571814 24.90699 
L 79.651468 24.760039 
L 79.704571 24.912018 
L 79.784226 25.139538 
L 79.810777 24.504965 
L 79.890432 25.425662 
L 79.916983 25.110106 
L 80.02319 24.735881 
L 80.049741 24.873476 
L 80.076293 24.787553 
L 80.102844 25.563127 
L 80.182499 24.659392 
L 80.20905 25.084927 
L 80.288705 24.891912 
L 80.315256 24.909199 
L 80.341808 24.322795 
L 80.368359 25.529225 
L 80.394911 24.789396 
L 80.448014 24.667991 
L 80.527668 25.58662 
L 80.660426 24.478769 
L 80.686977 24.601317 
L 80.74008 25.087592 
L 80.819735 24.876483 
L 80.846286 25.115635 
L 80.899389 24.73327 
L 80.925941 24.787492 
L 80.952492 24.581789 
L 80.979044 25.142401 
L 81.032147 24.821864 
L 81.111801 25.578518 
L 81.138353 24.748296 
L 81.164904 25.20349 
L 81.218007 24.605058 
L 81.244559 25.166276 
L 81.297662 24.676771 
L 81.324213 25.43915 
L 81.377316 24.877711 
L 81.403868 24.711808 
L 81.456971 25.064776 
L 81.483522 25.162136 
L 81.510074 24.915344 
L 81.536625 24.634428 
L 81.563177 24.908741 
L 81.589728 25.346735 
L 81.642831 24.790699 
L 81.669383 25.287323 
L 81.722486 25.293222 
L 81.775589 24.646727 
L 81.80214 25.293696 
L 81.855243 25.279177 
L 81.881795 24.466346 
L 81.961449 24.977283 
L 82.014552 24.757438 
L 82.041104 25.339828 
L 82.094207 24.674414 
L 82.14731 24.845711 
L 82.253516 24.799771 
L 82.280068 25.360005 
L 82.386274 24.344176 
L 82.412825 24.747477 
L 82.439377 24.72694 
L 82.545583 25.450725 
L 82.625237 24.819084 
L 82.651789 24.96688 
L 82.67834 25.624894 
L 82.757995 24.874102 
L 82.996958 25.537363 
L 83.129716 24.84749 
L 83.156267 24.830191 
L 83.182819 24.90028 
L 83.20937 24.58155 
L 83.235922 25.354209 
L 83.289025 24.805446 
L 83.315576 25.281032 
L 83.368679 25.239067 
L 83.395231 24.631444 
L 83.421782 25.493321 
L 83.474885 25.242995 
L 83.607643 24.743106 
L 83.660746 25.243477 
L 83.713849 25.111218 
L 83.7404 24.414038 
L 83.793503 25.405194 
L 83.820055 25.052218 
L 83.846606 25.175119 
L 83.873158 24.871439 
L 83.926261 24.948239 
L 83.952812 24.768105 
L 83.979364 25.30244 
L 84.059018 25.158809 
L 84.112121 24.865746 
L 84.165224 25.04998 
L 84.191776 25.24195 
L 84.218328 24.603176 
L 84.244879 25.274069 
L 84.297982 24.897271 
L 84.377637 25.383047 
L 84.351085 24.774826 
L 84.404188 25.204455 
L 84.483843 24.647979 
L 84.457291 25.22489 
L 84.510394 25.162516 
L 84.536946 25.216201 
L 84.6166 24.867046 
L 84.643152 24.966749 
L 84.669703 25.272696 
L 84.696255 24.881189 
L 84.722806 25.146065 
L 84.775909 25.574679 
L 84.855564 24.745623 
L 84.882115 25.495798 
L 84.96177 25.150891 
L 84.988321 24.615939 
L 85.014873 25.188818 
L 85.067976 25.028088 
L 85.14763 25.665962 
L 85.121079 24.785862 
L 85.174182 24.966783 
L 85.200733 25.000416 
L 85.227285 24.942055 
L 85.253836 24.812551 
L 85.280388 25.702438 
L 85.306939 24.679676 
L 85.360042 25.012797 
L 85.439697 24.963217 
L 85.519351 24.633175 
L 85.545903 25.376771 
L 85.599006 24.812153 
L 85.625557 25.283362 
L 85.652109 25.638025 
L 85.67866 24.879787 
L 85.705212 25.034473 
L 85.811418 24.846927 
L 85.837969 25.169701 
L 85.864521 24.627208 
L 85.917624 25.075976 
L 85.944175 25.070826 
L 85.970727 24.585972 
L 85.997278 25.60352 
L 86.076933 24.66509 
L 86.103484 25.454159 
L 86.130036 24.566579 
L 86.183139 24.691393 
L 86.289345 25.427246 
L 86.315897 25.374261 
L 86.342448 24.621193 
L 86.422103 25.325175 
L 86.448654 24.911669 
L 86.528309 25.346637 
L 86.55486 25.16473 
L 86.581412 25.77537 
L 86.607963 24.955765 
L 86.634515 24.974782 
L 86.661066 24.832232 
L 86.793824 25.538568 
L 86.90003 25.585208 
L 86.926581 24.646573 
L 86.979684 25.520342 
L 87.059339 25.012669 
L 87.192096 25.605315 
L 87.245199 24.884611 
L 87.298302 24.972318 
L 87.43106 25.5492 
L 87.510714 25.151241 
L 87.537266 25.7605 
L 87.61692 25.344591 
L 87.670023 24.506778 
L 87.696575 25.473172 
L 87.723126 24.969983 
L 87.749678 25.332385 
L 87.776229 24.55548 
L 87.802781 24.998843 
L 87.829332 24.783611 
L 87.855884 25.014478 
L 87.882435 25.298244 
L 87.935538 25.082451 
L 87.988641 25.263962 
L 88.015193 24.755296 
L 88.041744 25.33582 
L 88.121399 25.030464 
L 88.174502 25.251613 
L 88.201053 24.885268 
L 88.227605 25.223447 
L 88.360362 24.495429 
L 88.333811 25.258901 
L 88.386914 24.835475 
L 88.413466 25.172096 
L 88.466569 25.018728 
L 88.49312 24.488847 
L 88.519672 25.461782 
L 88.546223 25.123149 
L 88.572775 25.692118 
L 88.599326 25.168786 
" clip-path="url(#p4d9b880a2c)" style="fill: none; stroke: #808080; stroke-width: 0.1; stroke-linecap: square"/>
   </g>
   <g id="line2d_2">
    <path d="M 15.449926 35.180157 
L 15.449926 6.823721 
" clip-path="url(#p4d9b880a2c)" style="fill: none; stroke-dasharray: 0.37,0.16; stroke-dashoffset: 0; stroke: #ff0000; stroke-width: 0.1"/>
   </g>
   <g id="patch_3">
    <path d="M 0.72 33.460157 
L 0.72 0.72 
" style="fill: none; stroke: #000000; stroke-width: 0.5; stroke-linejoin: miter; stroke-linecap: square"/>
   </g>
   <g id="patch_4">
    <path d="M 88.594016 33.460157 
L 88.594016 0.72 
" style="fill: none; stroke: #000000; stroke-width: 0.5; stroke-linejoin: miter; stroke-linecap: square"/>
   </g>
   <g id="patch_5">
    <path d="M 0.72 33.460157 
L 88.594016 33.460157 
" style="fill: none; stroke: #000000; stroke-width: 0.5; stroke-linejoin: miter; stroke-linecap: square"/>
   </g>
   <g id="patch_6">
    <path d="M 0.72 0.72 
L 88.594016 0.72 
" style="fill: none; stroke: #000000; stroke-width: 0.5; stroke-linejoin: miter; stroke-linecap: square"/>
   </g>
  </g>
 </g>
 <defs>
  <clipPath id="p4d9b880a2c">
   <rect x="0.72" y="0.72" width="87.874016" height="32.740157"/>
  </clipPath>
 </defs>
</svg>
