<?xml version="1.0" encoding="utf-8" standalone="no"?>
<!DOCTYPE svg PUBLIC "-//W3C//DTD SVG 1.1//EN"
  "http://www.w3.org/Graphics/SVG/1.1/DTD/svg11.dtd">
<svg xmlns:xlink="http://www.w3.org/1999/xlink" width="93.314016pt" height="34.180157pt" viewBox="0 0 93.314016 34.180157" xmlns="http://www.w3.org/2000/svg" version="1.1">
 <metadata>
  <rdf:RDF xmlns:dc="http://purl.org/dc/elements/1.1/" xmlns:cc="http://creativecommons.org/ns#" xmlns:rdf="http://www.w3.org/1999/02/22-rdf-syntax-ns#">
   <cc:Work>
    <dc:type rdf:resource="http://purl.org/dc/dcmitype/StillImage"/>
    <dc:date>2024-12-27T17:45:35.378703</dc:date>
    <dc:format>image/svg+xml</dc:format>
    <dc:creator>
     <cc:Agent>
      <dc:title>Matplotlib v3.7.5, https://matplotlib.org/</dc:title>
     </cc:Agent>
    </dc:creator>
   </cc:Work>
  </rdf:RDF>
 </metadata>
 <defs>
  <style type="text/css">*{stroke-linejoin: round; stroke-linecap: butt}</style>
 </defs>
 <g id="figure_1">
  <g id="patch_1">
   <path d="M 0 34.180157 
L 93.314016 34.180157 
L 93.314016 0 
L 0 0 
L 0 34.180157 
z
" style="fill: none"/>
  </g>
  <g id="axes_1"/>
  <g id="axes_2">
   <g id="patch_2">
    <path d="M 4.72 33.460157 
L 22.294803 33.460157 
L 22.294803 0.72 
L 4.72 0.72 
L 4.72 33.460157 
z
" style="fill: none"/>
   </g>
   <g id="matplotlib.axis_1"/>
   <g id="matplotlib.axis_2"/>
   <g id="line2d_1">
    <path d="M 4.72 2.102273 
L 5.027567 3.046278 
L 5.291195 5.162653 
L 6.126019 17.538691 
L 6.697215 26.491622 
L 7.136596 30.71235 
L 7.400224 31.674837 
L 7.444163 31.766415 
L 7.488101 31.730789 
L 7.751729 30.880114 
L 7.97142 29.296752 
L 8.410801 23.895314 
L 9.59713 5.841799 
L 9.948635 3.142907 
L 10.124387 2.525573 
L 10.30014 2.556254 
L 10.563768 3.642929 
L 11.047087 8.829214 
L 11.44253 14.91181 
L 12.409169 28.833544 
L 12.760673 31.08667 
L 12.936426 31.38079 
L 13.024302 31.409603 
L 13.419745 29.253086 
L 13.859126 24.178562 
L 15.221207 4.764895 
L 15.484836 3.132427 
L 15.660588 2.76804 
L 16.012093 3.709645 
L 16.583289 9.651626 
L 18.121122 30.228415 
L 18.340813 31.003615 
L 18.428689 31.153426 
L 18.472627 31.054831 
L 18.560503 30.991815 
L 19.043823 27.751205 
L 19.746832 17.901574 
L 20.318028 9.159323 
L 20.801347 4.378703 
L 21.021037 3.214 
L 21.064976 3.239218 
L 21.19679 3.064478 
L 21.240728 3.154065 
L 21.372542 3.43407 
L 21.724047 5.742088 
L 22.163428 11.131469 
L 22.295243 13.107538 
L 22.295243 13.107538 
" clip-path="url(#p3adfa35265)" style="fill: none; stroke: #b3c8cd; stroke-width: 0.4; stroke-linecap: square"/>
   </g>
   <g id="line2d_2">
    <path d="M 4.759806 -1 
L 4.851814 1.49417 
L 5.247257 3.862469 
L 5.291195 3.71604 
L 5.335133 4.053625 
L 5.42301 4.039593 
L 5.6427 3.930617 
L 5.774515 4.048872 
L 5.906329 3.777577 
L 5.950267 3.944363 
L 5.994205 3.650471 
L 6.082081 3.669115 
L 6.126019 3.759788 
L 6.257834 3.447971 
L 6.301772 3.553415 
L 6.433586 3.296089 
L 6.477524 3.443269 
L 6.521462 3.2182 
L 6.5654 3.255807 
L 6.785091 2.963004 
L 6.829029 3.015274 
L 6.872967 2.943255 
L 7.04872 2.696826 
L 7.224472 2.642959 
L 8.059296 2.109087 
L 8.19111 2.152389 
L 8.322925 1.997817 
L 8.366863 2.118406 
L 8.410801 2.045208 
L 8.454739 2.008923 
L 8.498677 2.107755 
L 8.67443 2.070985 
L 8.718368 2.129914 
L 8.762306 1.987671 
L 8.850182 2.049891 
L 8.89412 2.191961 
L 8.938058 2.106375 
L 9.025934 2.160604 
L 11.003149 2.735595 
L 11.047087 2.848959 
L 11.091025 2.7009 
L 11.134964 2.805193 
L 11.266778 2.805191 
L 11.574345 2.916912 
L 11.706159 2.864348 
L 11.750097 2.926675 
L 11.794035 2.887273 
L 11.969788 2.81858 
L 12.101602 2.952719 
L 12.277354 2.797257 
L 12.497045 2.891231 
L 12.628859 2.775616 
L 12.804612 2.778034 
L 12.84855 2.732862 
L 12.892488 2.850399 
L 12.980364 2.796546 
L 13.024302 2.693261 
L 13.06824 2.789544 
L 13.243993 2.749615 
L 13.331869 2.673632 
L 13.375807 2.733261 
L 14.210631 2.638011 
L 14.298507 2.721648 
L 14.342445 2.604507 
L 14.386383 2.638747 
L 14.518198 2.747801 
L 14.606074 2.644809 
L 14.650012 2.691571 
L 14.825764 2.732056 
L 14.913641 2.597081 
L 14.957579 2.649757 
L 15.133331 2.703892 
L 15.265146 2.657172 
L 15.309084 2.783078 
L 15.353022 2.692601 
L 15.61665 2.735069 
L 15.924217 2.89743 
L 16.012093 2.747543 
L 16.056031 2.871878 
L 16.31966 2.927858 
L 16.363598 2.866447 
L 16.407536 2.899198 
L 16.583289 3.019986 
L 16.627227 2.887231 
L 16.671165 3.047444 
L 16.802979 2.944537 
L 16.934794 3.051117 
L 17.02267 3.040052 
L 17.110546 2.95148 
L 17.154484 2.989862 
L 17.374175 3.213782 
L 17.549927 3.062384 
L 18.384751 3.061589 
L 18.560503 3.006371 
L 18.604442 3.119358 
L 18.692318 3.070486 
L 18.824132 3.127472 
L 18.955946 3.030629 
L 19.087761 3.065154 
L 19.307451 2.95486 
L 19.351389 3.044798 
L 19.57108 2.996727 
L 19.702894 3.019811 
L 19.79077 2.962969 
L 19.834709 3.050991 
L 21.021037 3.001529 
L 21.108914 3.121346 
L 21.19679 3.060017 
L 21.240728 3.11458 
L 21.41648 3.126289 
L 21.548295 3.14556 
L 21.592233 3.069897 
L 21.636171 3.173117 
L 21.943738 3.154313 
L 22.11949 3.331337 
L 22.295243 3.194936 
L 22.295243 3.194936 
" clip-path="url(#p3adfa35265)" style="fill: none; stroke: #de8f5f; stroke-width: 0.4; stroke-linecap: square"/>
   </g>
   <g id="patch_3">
    <path d="M 4.72 33.460157 
L 4.72 0.72 
" style="fill: none; stroke: #000000; stroke-width: 0.5; stroke-linejoin: miter; stroke-linecap: square"/>
   </g>
   <g id="patch_4">
    <path d="M 22.294803 33.460157 
L 22.294803 0.72 
" style="fill: none; stroke: #ffffff; stroke-width: 0.5; stroke-linejoin: miter; stroke-linecap: square"/>
   </g>
   <g id="patch_5">
    <path d="M 4.72 33.460157 
L 22.294803 33.460157 
" style="fill: none; stroke: #000000; stroke-width: 0.5; stroke-linejoin: miter; stroke-linecap: square"/>
   </g>
   <g id="patch_6">
    <path d="M 4.72 0.72 
L 22.294803 0.72 
" style="fill: none; stroke: #000000; stroke-width: 0.5; stroke-linejoin: miter; stroke-linecap: square"/>
   </g>
  </g>
  <g id="axes_3">
   <g id="patch_7">
    <path d="M 75.019213 33.460157 
L 92.594016 33.460157 
L 92.594016 0.72 
L 75.019213 0.72 
L 75.019213 33.460157 
z
" style="fill: none"/>
   </g>
   <g id="matplotlib.axis_3"/>
   <g id="matplotlib.axis_4"/>
   <g id="line2d_3">
    <path d="M 74.996804 18.713473 
L 75.568 21.38351 
L 75.611938 21.401037 
L 75.831628 21.972063 
L 76.007381 22.138373 
L 76.183133 22.161236 
L 76.534638 21.487376 
L 77.677029 15.779454 
L 78.11641 13.506176 
L 78.511853 12.215571 
L 78.995172 11.900431 
L 79.214862 12.278214 
L 79.74212 14.408693 
L 80.972387 20.92486 
L 81.279953 21.756066 
L 81.543582 22.1592 
L 81.58752 22.095731 
L 81.895087 21.846717 
L 82.026901 21.519892 
L 82.729911 18.449601 
L 83.740487 13.04986 
L 83.784425 12.995631 
L 84.048054 12.177011 
L 84.223806 11.925216 
L 84.267745 11.97326 
L 84.399559 11.847863 
L 84.443497 11.904276 
L 84.619249 12.124315 
L 84.707126 12.243688 
L 85.014692 13.296081 
L 85.410135 15.206474 
L 86.860093 21.968686 
L 87.035845 22.174899 
L 87.16766 22.046351 
L 87.211598 22.09631 
L 87.255536 22.085302 
L 88.046422 19.517885 
L 88.617617 16.232174 
L 88.79337 15.32622 
L 89.188813 13.33789 
L 89.408503 12.589354 
L 89.672132 12.00813 
L 89.760008 11.994198 
L 89.847884 11.841744 
L 89.891822 11.876236 
L 90.155451 12.126268 
L 90.682708 13.982351 
L 90.814522 14.641431 
L 91.297842 17.267108 
L 92.000851 20.9433 
L 92.352356 21.862261 
L 92.615985 22.129924 
L 92.615985 22.129924 
" clip-path="url(#p968044284d)" style="fill: none; stroke: #b3c8cd; stroke-width: 0.4; stroke-linecap: square"/>
   </g>
   <g id="line2d_4">
    <path d="M 74.996804 11.932987 
L 75.831628 11.98714 
L 76.051319 12.024254 
L 76.095257 12.073605 
L 76.139195 11.999799 
L 76.271009 11.940166 
L 76.358885 12.100158 
L 76.402824 11.978896 
L 76.534638 11.987058 
L 76.622514 12.0786 
L 76.666452 12.000089 
L 76.754328 11.942514 
L 76.798267 12.009872 
L 76.974019 12.047529 
L 77.061895 11.959654 
L 77.105833 12.065843 
L 77.149771 11.937097 
L 77.369462 12.036999 
L 77.501276 11.960667 
L 77.545214 11.88448 
L 77.589152 11.973637 
L 77.677029 11.917121 
L 77.764905 11.891106 
L 77.852781 12.024529 
L 77.896719 11.907102 
L 77.940657 11.867624 
L 77.984595 11.992341 
L 78.028534 11.906352 
L 78.160348 11.870007 
L 78.467915 11.905701 
L 78.687605 11.882098 
L 78.819419 11.933434 
L 79.03911 11.80979 
L 79.170924 11.937311 
L 79.302739 11.828201 
L 80.005748 11.968093 
L 80.049686 11.864581 
L 80.093624 11.995235 
L 80.225439 11.924368 
L 80.357253 11.991242 
L 80.533006 11.944031 
L 80.576944 12.016654 
L 80.620882 11.940313 
L 81.939025 12.02083 
L 81.982963 11.952712 
L 82.026901 12.007052 
L 82.202654 12.091941 
L 82.949601 11.854057 
L 82.99354 12.02347 
L 83.037478 11.934922 
L 83.257168 11.882799 
L 83.388982 11.945986 
L 83.740487 11.916419 
L 83.872302 11.923744 
L 84.83894 11.897684 
L 84.882878 11.984169 
L 84.970754 11.918067 
L 85.234383 11.955671 
L 85.410135 11.941644 
L 86.860093 11.990541 
L 86.947969 12.006543 
L 87.123722 12.12212 
L 87.343412 12.063608 
L 87.519164 12.015985 
L 87.607041 12.063534 
L 87.738855 12.039838 
L 87.914607 12.021478 
L 87.958546 12.114074 
L 88.002484 12.03509 
L 88.046422 11.950077 
L 88.134298 12.008469 
L 88.266112 11.963448 
L 88.353988 12.035855 
L 88.397927 11.93787 
L 88.441865 11.996879 
L 88.661555 12.008746 
L 88.925184 11.884599 
L 89.056998 11.984614 
L 89.144874 11.873363 
L 89.188813 11.953045 
L 89.320627 11.924783 
L 89.540317 11.86047 
L 89.628194 11.952439 
L 89.672132 11.880002 
L 89.760008 11.946172 
L 89.847884 11.840804 
L 89.891822 11.873725 
L 90.111513 11.889037 
L 90.243327 11.864655 
L 90.419079 11.971037 
L 90.463018 11.878656 
L 90.506956 11.926199 
L 90.594832 11.980032 
L 90.63877 11.937585 
L 90.726646 11.94855 
L 90.770584 11.867888 
L 90.858461 11.932596 
L 90.990275 11.992624 
L 91.166027 11.891694 
L 91.297842 12.043885 
L 91.429656 12.002451 
L 91.693285 11.933286 
L 91.781161 12.073405 
L 91.825099 12.019785 
L 91.912975 12.03932 
L 92.044789 12.009799 
L 92.088728 12.117935 
L 92.176604 12.06844 
L 92.220542 12.105815 
L 92.26448 11.979709 
L 92.308418 12.081294 
L 92.615985 12.049548 
L 92.615985 12.049548 
" clip-path="url(#p968044284d)" style="fill: none; stroke: #de8f5f; stroke-width: 0.4; stroke-linecap: square"/>
   </g>
   <g id="patch_8">
    <path d="M 75.019213 33.460157 
L 75.019213 0.72 
" style="fill: none; stroke: #ffffff; stroke-width: 0.5; stroke-linejoin: miter; stroke-linecap: square"/>
   </g>
   <g id="patch_9">
    <path d="M 92.594016 33.460157 
L 92.594016 0.72 
" style="fill: none; stroke: #000000; stroke-width: 0.5; stroke-linejoin: miter; stroke-linecap: square"/>
   </g>
   <g id="patch_10">
    <path d="M 75.019213 33.460157 
L 92.594016 33.460157 
" style="fill: none; stroke: #000000; stroke-width: 0.5; stroke-linejoin: miter; stroke-linecap: square"/>
   </g>
   <g id="patch_11">
    <path d="M 75.019213 0.72 
L 92.594016 0.72 
" style="fill: none; stroke: #000000; stroke-width: 0.5; stroke-linejoin: miter; stroke-linecap: square"/>
   </g>
  </g>
  <g id="axes_4">
   <g id="patch_12">
    <path d="M 22.294803 33.460157 
L 75.019213 33.460157 
L 75.019213 0.72 
L 22.294803 0.72 
L 22.294803 33.460157 
z
" style="fill: none"/>
   </g>
   <g id="matplotlib.axis_5"/>
   <g id="matplotlib.axis_6"/>
   <g id="line2d_5">
    <path d="M 22.292084 12.447163 
L 22.399184 30.807186 
L 22.45136 24.209179 
L 22.566698 3.353942 
L 22.624366 10.209795 
L 22.736958 30.597888 
L 22.797373 23.407761 
L 22.909964 3.571631 
L 22.967633 10.285754 
L 23.085717 30.276034 
L 23.135147 24.435639 
L 23.255977 3.838102 
L 23.310899 10.58333 
L 23.423491 30.059779 
L 23.483906 23.109745 
L 23.593751 4.063946 
L 23.654166 10.602853 
L 23.769503 29.831027 
L 23.82168 24.08084 
L 23.939763 4.273115 
L 24.002924 11.991636 
L 24.11277 29.652066 
L 24.164946 23.922223 
L 24.28303 4.525854 
L 24.343445 11.491842 
L 24.456036 29.4097 
L 24.513705 22.843944 
L 24.629043 4.700518 
L 24.678473 9.962791 
L 24.799303 29.252467 
L 24.854225 23.32547 
L 24.972309 4.879283 
L 25.027232 10.998944 
L 25.142569 29.040032 
L 25.191999 24.195547 
L 25.310083 5.073673 
L 25.370498 11.173739 
L 25.488582 28.826835 
L 25.543504 22.556483 
L 25.65335 5.267404 
L 25.713765 11.213472 
L 25.829102 28.687522 
L 25.884025 23.160555 
L 26.002108 5.407584 
L 26.051539 10.196373 
L 26.172368 28.556288 
L 26.230037 22.493881 
L 26.345375 5.583073 
L 26.40579 12.228903 
L 26.515635 28.341786 
L 26.570558 22.988315 
L 26.683149 5.788547 
L 26.751802 12.717029 
L 26.856155 28.180368 
L 26.913824 22.98661 
L 27.031908 5.888378 
L 27.092323 12.31144 
L 27.202168 28.074702 
L 27.265329 21.573175 
L 27.372428 6.019504 
L 27.432843 11.708464 
L 27.545434 27.94885 
L 27.605849 21.99821 
L 27.718441 6.143341 
L 27.781602 12.720364 
L 27.888701 27.825489 
L 27.943623 23.054627 
L 28.056215 6.373247 
L 28.119376 11.650812 
L 28.234713 27.665407 
L 28.289636 22.539786 
L 28.402227 6.44705 
L 28.462642 11.624029 
L 28.575234 27.546476 
L 28.630156 23.044104 
L 28.74824 6.558188 
L 28.811401 12.64338 
L 28.921246 27.458585 
L 28.984407 21.249836 
L 29.094253 6.66749 
L 29.149175 11.617958 
L 29.261767 27.289842 
L 29.322181 22.254378 
L 29.440265 6.760084 
L 29.489696 11.242803 
L 29.607779 27.164597 
L 29.673686 20.934261 
L 29.778039 6.905848 
L 29.830216 10.689793 
L 29.953792 27.110572 
L 30.005968 22.743631 
L 30.129544 7.029012 
L 30.176228 11.125468 
L 30.297058 26.993145 
L 30.357473 21.496679 
L 30.467318 7.097768 
L 30.522241 11.43204 
L 30.640325 26.907837 
L 30.692501 22.759382 
L 30.816077 7.21278 
L 30.871 12.257387 
L 30.980845 26.776514 
L 31.038514 22.442336 
L 31.159344 7.288972 
L 31.21152 11.799921 
L 31.324111 26.634422 
L 31.38178 22.444054 
L 31.50261 7.400447 
L 31.565771 13.483839 
L 31.675616 26.566251 
L 31.727793 22.151148 
L 31.84313 7.47497 
L 31.898053 11.718643 
L 32.016137 26.525787 
L 32.076552 21.448514 
L 32.189143 7.568943 
L 32.238573 11.204395 
L 32.362149 26.352587 
L 32.417072 21.868115 
L 32.529663 7.661589 
L 32.592824 12.809864 
L 32.708162 26.318595 
L 32.774069 19.892852 
L 32.87293 7.767257 
L 32.930598 11.794773 
L 33.054174 26.219519 
L 33.106351 21.638969 
L 33.221688 7.835193 
L 33.279357 12.513098 
L 33.391949 26.144731 
L 33.441379 22.766656 
L 33.573193 7.976706 
L 33.62537 12.885103 
L 33.735215 26.099403 
L 33.798376 21.053298 
L 33.908221 7.970784 
L 33.960398 11.616807 
L 34.081228 25.997476 
L 34.133404 22.211877 
L 34.25698 8.100029 
L 34.314649 13.098111 
L 34.42724 25.92004 
L 34.476671 22.261134 
L 34.5975 8.161132 
L 34.660661 13.33337 
L 34.770507 25.888134 
L 34.819937 22.408747 
L 34.946259 8.232186 
L 35.003928 13.30139 
L 35.111027 25.774653 
L 35.168696 21.794109 
L 35.289526 8.268937 
L 35.33621 11.742537 
L 35.462532 25.68866 
L 35.517454 21.050968 
L 35.635538 8.397764 
L 35.684969 12.318071 
L 35.79756 25.616972 
L 35.860721 21.213149 
L 35.976058 8.438265 
L 36.033727 13.015247 
L 36.146319 25.54552 
L 36.201241 21.684153 
L 36.324817 8.518441 
L 36.371501 12.169922 
L 36.495077 25.488798 
L 36.555492 20.229014 
L 36.662591 8.557784 
L 36.717514 12.365396 
L 36.832852 25.463101 
L 36.885028 22.188332 
L 37.003112 8.628449 
L 37.058034 11.965096 
L 37.176118 25.390075 
L 37.233787 21.585 
L 37.354617 8.659369 
L 37.406793 12.610429 
L 37.524877 25.348046 
L 37.579799 21.316519 
L 37.700629 8.75683 
L 37.747313 12.21179 
L 37.862651 25.219709 
L 37.93405 19.883902 
L 38.038403 8.808391 
L 38.10431 13.902827 
L 38.216902 25.169333 
L 38.269078 21.152963 
L 38.384416 8.864349 
L 38.444831 13.422344 
L 38.55193 25.130236 
L 38.617837 20.502101 
L 38.733175 8.943524 
L 38.785351 12.845765 
L 38.903435 25.094092 
L 38.950119 21.952852 
L 39.073695 8.97655 
L 39.136856 13.884685 
L 39.241209 25.036275 
L 39.307116 20.460668 
L 39.416961 8.98851 
L 39.466392 12.072012 
L 39.589968 24.944253 
L 39.650383 20.548072 
L 39.762974 9.046549 
L 39.817897 12.924582 
L 39.941473 24.87344 
L 39.985411 21.628283 
L 40.100748 9.161078 
L 40.169401 13.918526 
L 40.284739 24.860931 
L 40.342408 20.12068 
L 40.452253 9.152402 
L 40.501683 12.44748 
L 40.625259 24.823639 
L 40.680182 20.960368 
L 40.792773 9.211093 
L 40.839458 11.710941 
L 40.96578 24.763777 
L 41.039925 18.903456 
L 41.138786 9.279082 
L 41.188216 12.20934 
L 41.314538 24.751307 
L 41.380446 19.425786 
L 41.479306 9.321705 
L 41.531483 12.065316 
L 41.652313 24.706072 
L 41.709981 21.151282 
L 41.825319 9.341329 
L 41.891226 13.870401 
L 42.001071 24.6058 
L 42.055994 20.935773 
L 42.168585 9.409393 
L 42.239985 14.461007 
L 42.347084 24.569426 
L 42.39926 21.173225 
L 42.511852 9.478501 
L 42.566774 12.476824 
L 42.687604 24.545034 
L 42.753511 19.878868 
L 42.863357 9.505652 
L 42.918279 13.253648 
L 43.039109 24.483936 
L 43.094032 20.315427 
L 43.212115 9.564181 
L 43.261546 13.183889 
L 43.374137 24.474819 
L 43.437298 20.523063 
L 43.54989 9.575331 
L 43.607558 13.352682 
L 43.722896 24.445341 
L 43.780565 20.589504 
L 43.895902 9.607482 
L 43.950825 13.241562 
L 44.071655 24.351738 
L 44.121085 21.054508 
L 44.236422 9.723753 
L 44.299583 13.752427 
L 44.409429 24.292292 
L 44.461605 21.506993 
L 44.579689 9.707996 
L 44.629119 12.066872 
L 44.749949 24.272858 
L 44.815856 20.255252 
L 44.931194 9.75043 
L 44.988863 13.77497 
L 45.095962 24.218668 
L 45.159123 20.478653 
L 45.271714 9.827624 
L 45.321144 12.481066 
L 45.44472 24.22878 
L 45.499643 20.865272 
L 45.620473 9.820858 
L 45.672649 13.241583 
L 45.787987 24.186165 
L 45.851148 20.103004 
L 45.963739 9.84463 
L 46.018662 13.415317 
L 46.133999 24.162359 
L 46.188922 20.845163 
L 46.30426 9.93412 
L 46.359182 13.012575 
L 46.480012 24.109152 
L 46.529442 21.255326 
L 46.655764 9.947171 
L 46.705195 13.187639 
L 46.823278 24.053075 
L 46.886439 19.803944 
L 46.990792 10.023333 
L 47.053954 13.638986 
L 47.172037 23.995004 
L 47.221468 20.838558 
L 47.339551 10.041394 
L 47.391728 12.973455 
L 47.515304 23.999084 
L 47.561988 21.188528 
L 47.691056 10.096314 
L 47.745979 14.009762 
L 47.855824 23.95986 
L 47.905254 21.271109 
L 48.026084 10.108583 
L 48.091991 14.192035 
L 48.201837 23.955109 
L 48.251267 21.111123 
L 48.374843 10.123189 
L 48.438004 14.509899 
L 48.547849 23.873112 
L 48.600026 20.663576 
L 48.718109 10.126448 
L 48.784016 14.552395 
L 48.891116 23.870692 
L 48.943292 20.809794 
L 49.05863 10.200795 
L 49.116298 13.329661 
L 49.234382 23.853884 
L 49.303035 19.101619 
L 49.401896 10.243412 
L 49.467803 14.038888 
L 49.577649 23.816275 
L 49.629825 20.978032 
L 49.753401 10.278112 
L 49.822054 15.226757 
L 49.926407 23.777737 
L 49.984076 19.993754 
L 50.093921 10.290185 
L 50.159828 14.380696 
L 50.266928 23.724979 
L 50.319104 20.961384 
L 50.439934 10.307251 
L 50.508587 14.817253 
L 50.610194 23.719522 
L 50.662371 21.149273 
L 50.788693 10.338965 
L 50.843615 13.865896 
L 50.958953 23.651457 
L 51.019368 19.736157 
L 51.131959 10.358899 
L 51.186882 13.669679 
L 51.304965 23.623361 
L 51.357142 20.508556 
L 51.477972 10.404867 
L 51.53564 14.238264 
L 51.648232 23.610196 
L 51.714139 19.153007 
L 51.821238 10.422214 
L 51.867922 12.982901 
L 51.986006 23.552885 
L 52.054659 19.642415 
L 52.164505 10.449173 
L 52.213935 13.114781 
L 52.340257 23.521242 
L 52.389687 20.561098 
L 52.505025 10.476612 
L 52.56544 13.838628 
L 52.680777 23.512045 
L 52.732954 20.733315 
L 52.851037 10.51039 
L 52.90596 13.397652 
L 53.024044 23.504755 
L 53.081712 20.262462 
L 53.19705 10.555347 
L 53.251973 13.506206 
L 53.375549 23.448122 
L 53.424979 20.343828 
L 53.53757 10.580747 
L 53.611716 15.110866 
L 53.713323 23.439235 
L 53.762753 21.089199 
L 53.886329 10.585139 
L 53.941252 13.555047 
L 54.056589 23.408188 
L 54.10602 21.112596 
L 54.229596 10.63398 
L 54.295503 14.535813 
L 54.399856 23.362282 
L 54.457524 20.544752 
L 54.578354 10.706554 
L 54.622292 12.874708 
L 54.748614 23.360405 
L 54.803537 20.322867 
L 54.918875 10.683716 
L 54.976543 13.837312 
L 55.086389 23.318824 
L 55.160534 19.071758 
L 55.262141 10.770895 
L 55.31981 13.622779 
L 55.437893 23.313764 
L 55.498308 19.733848 
L 55.608154 10.739046 
L 55.66033 13.232892 
L 55.78116 23.298819 
L 55.827844 21.194189 
L 55.95142 10.784547 
L 56.014581 14.242141 
L 56.12168 23.244309 
L 56.184841 19.951897 
L 56.297433 10.800566 
L 56.352355 13.606374 
L 56.475931 23.192842 
L 56.539092 18.938429 
L 56.640699 10.817674 
L 56.701114 13.952718 
L 56.816452 23.222467 
L 56.863136 21.050481 
L 56.989458 10.824596 
L 57.03065 12.684848 
L 57.162464 23.166999 
L 57.222879 19.611056 
L 57.329978 10.894772 
L 57.384901 13.56241 
L 57.497492 23.10808 
L 57.568892 19.441098 
L 57.673245 10.883502 
L 57.722675 12.927567 
L 57.846251 23.127481 
L 57.923143 18.353267 
L 58.027496 10.948552 
L 58.076926 13.800417 
L 58.192263 23.060569 
L 58.249932 20.135744 
L 58.36527 10.976996 
L 58.431177 14.729759 
L 58.538276 23.105449 
L 58.601437 19.550204 
L 58.708536 10.964188 
L 58.763459 13.566149 
L 58.887035 23.0712 
L 58.952942 18.795574 
L 59.051803 10.999309 
L 59.114964 14.247094 
L 59.227555 23.063874 
L 59.290716 19.563569 
L 59.403308 11.009927 
L 59.452738 13.528597 
L 59.573568 22.958025 
L 59.625744 20.454468 
L 59.738336 11.057818 
L 59.793258 13.181735 
L 59.916834 23.014405 
L 59.977249 19.704129 
L 60.084348 11.068455 
L 60.16124 15.49642 
L 60.262847 22.974619 
L 60.317769 20.127759 
L 60.430361 11.078976 
L 60.496268 14.498958 
L 60.603367 22.90733 
L 60.655544 20.742354 
L 60.781866 11.080153 
L 60.831296 13.637761 
L 60.954872 22.907232 
L 61.018033 19.101129 
L 61.125132 11.098315 
L 61.177309 13.696888 
L 61.2899 22.883553 
L 61.347569 20.533265 
L 61.473891 11.149948 
L 61.517829 13.32844 
L 61.644151 22.880529 
L 61.70182 19.604301 
L 61.814411 11.150463 
L 61.87208 14.318178 
L 61.987417 22.796327 
L 62.045086 19.659668 
L 62.16317 11.18806 
L 62.220839 14.675417 
L 62.330684 22.868686 
L 62.399337 18.843609 
L 62.506436 11.186662 
L 62.555867 13.725113 
L 62.682189 22.779855 
L 62.726127 20.379105 
L 62.841464 11.224805 
L 62.912864 14.899928 
L 63.014471 22.769016 
L 63.072139 20.259583 
L 63.195715 11.235357 
L 63.269861 16.180924 
L 63.363229 22.752338 
L 63.415406 20.366924 
L 63.538982 11.246868 
L 63.593904 14.106828 
L 63.709242 22.772936 
L 63.761418 20.327914 
L 63.879502 11.331411 
L 63.931679 13.489631 
L 64.049762 22.751689 
L 64.110177 19.967119 
L 64.222769 11.31359 
L 64.277691 13.62818 
L 64.398521 22.744381 
L 64.447951 20.55499 
L 64.57702 11.359677 
L 64.620958 13.575891 
L 64.741787 22.727577 
L 64.793964 20.393417 
L 64.912048 11.372128 
L 64.975209 14.397288 
L 65.085054 22.638087 
L 65.13723 20.514655 
L 65.25806 11.353404 
L 65.321221 14.551801 
L 65.431066 22.65182 
L 65.488735 19.914313 
L 65.612311 11.408021 
L 65.656249 13.641963 
L 65.777079 22.657365 
L 65.834748 19.751486 
L 65.947339 11.375305 
L 66.013246 14.78398 
L 66.128584 22.589683 
L 66.18076 19.74929 
L 66.296098 11.405196 
L 66.340036 13.317888 
L 66.469104 22.573587 
L 66.526773 19.551928 
L 66.642111 11.416924 
L 66.691541 13.796697 
L 66.809625 22.546822 
L 66.864547 20.147858 
L 66.985377 11.425698 
L 67.048538 14.938577 
L 67.155637 22.569567 
L 67.216052 19.607836 
L 67.323151 11.478921 
L 67.375328 13.448578 
L 67.498904 22.556217 
L 67.570303 18.636108 
L 67.674656 11.48891 
L 67.732325 14.377037 
L 67.844916 22.550437 
L 67.8916 20.644678 
L 68.020669 11.482341 
L 68.092068 15.772079 
L 68.196421 22.489737 
L 68.237613 20.541617 
L 68.361189 11.566734 
L 68.421604 14.367549 
L 68.531449 22.490902 
L 68.586372 20.301904 
L 68.709948 11.532517 
L 68.76487 14.228928 
L 68.882954 22.471278 
L 68.924146 20.825514 
L 69.053214 11.526374 
L 69.099898 13.501902 
L 69.223474 22.441486 
L 69.286635 19.360902 
L 69.396481 11.574786 
L 69.445911 13.706169 
L 69.563995 22.438054 
L 69.632648 19.231712 
L 69.739747 11.568925 
L 69.791924 13.771424 
L 69.915499 22.431005 
L 69.975914 19.316305 
L 70.08576 11.621292 
L 70.148921 14.719713 
L 70.258766 22.438751 
L 70.30545 20.585745 
L 70.42628 11.618624 
L 70.483949 13.954463 
L 70.607525 22.416931 
L 70.66794 19.026617 
L 70.775039 11.607072 
L 70.8382 14.830786 
L 70.950791 22.40406 
L 71.011206 19.246691 
L 71.121051 11.67213 
L 71.173228 13.900251 
L 71.291311 22.379064 
L 71.33525 20.791744 
L 71.461572 11.652886 
L 71.530225 15.076663 
L 71.637324 22.366041 
L 71.703231 19.022747 
L 71.81033 11.670886 
L 71.859761 13.737773 
L 71.986083 22.297066 
L 72.035513 20.068413 
L 72.161835 11.743017 
L 72.216758 14.758271 
L 72.326603 22.279918 
L 72.376033 20.263974 
L 72.499609 11.687276 
L 72.579247 16.355839 
L 72.66987 22.326283 
L 72.727538 19.794589 
L 72.845622 11.741768 
L 72.900545 14.217655 
L 73.015882 22.313908 
L 73.05982 20.73916 
L 73.191635 11.754745 
L 73.241065 13.934335 
L 73.359149 22.294705 
L 73.42231 19.402902 
L 73.540393 11.779362 
L 73.589824 14.321976 
L 73.705161 22.268259 
L 73.76283 19.699913 
L 73.88366 11.797208 
L 73.927598 13.733909 
L 74.048428 22.263079 
L 74.111589 19.394897 
L 74.218688 11.819271 
L 74.268118 13.468833 
L 74.397186 22.196722 
L 74.46584 18.50274 
L 74.570193 11.794035 
L 74.616877 13.724505 
L 74.740453 22.214004 
L 74.800868 19.361732 
L 74.918951 11.831725 
L 74.979366 15.261306 
L 75.020558 18.962484 
L 75.020558 18.962484 
" clip-path="url(#p6395e0df86)" style="fill: none; stroke: #b3c8cd; stroke-width: 0.05; stroke-linecap: square"/>
   </g>
   <g id="line2d_6">
    <path d="M 22.292084 3.217924 
L 22.294831 3.194936 
L 22.327784 3.448862 
L 22.379961 3.35599 
L 22.412914 3.44067 
L 22.443122 3.248432 
L 22.489806 3.391931 
L 22.550221 3.266501 
L 22.596905 3.392208 
L 22.698512 3.73294 
L 22.605143 3.359904 
L 22.712243 3.570314 
L 22.819342 3.710026 
L 22.723227 3.565977 
L 22.822088 3.677866 
L 22.844057 3.503798 
L 22.926441 3.702009 
L 22.934679 3.625062 
L 23.041778 3.930745 
L 23.055509 3.891157 
L 23.107686 3.990624 
L 23.170847 3.796833 
L 23.231262 3.789593 
L 23.28893 3.996263 
L 23.294423 3.885787 
L 23.363076 4.181942 
L 23.393283 4.162111 
L 23.472921 4.069201 
L 23.398776 4.213449 
L 23.505875 4.10813 
L 23.612974 4.185841 
L 23.574528 4.020707 
L 23.618466 4.141391 
L 23.73655 4.416433 
L 23.632197 4.098878 
L 23.742042 4.359398 
L 23.813441 4.460828 
L 23.849141 4.261027 
L 23.851887 4.412042 
L 23.961733 4.366492 
L 24.066086 4.661264 
L 23.969971 4.323943 
L 24.085308 4.594853 
L 24.192408 4.493621 
L 24.151216 4.63428 
L 24.1979 4.527982 
L 24.200646 4.646012 
L 24.255569 4.467775 
L 24.310491 4.602431 
L 24.40386 4.830344 
L 24.315984 4.575776 
L 24.425829 4.818433 
L 24.521943 4.683314 
L 24.442306 4.852378 
L 24.53842 4.754745 
L 24.653758 4.832281 
L 24.563135 4.625531 
L 24.656504 4.808806 
L 24.670234 4.73779 
L 24.738888 4.9952 
L 24.74438 4.953458 
L 24.837749 5.048871 
L 24.760857 4.888596 
L 24.854225 4.964369 
L 24.906402 5.025908 
L 24.870702 4.890626 
L 24.922879 4.91217 
L 24.925625 4.849343 
L 25.024485 5.068552 
L 25.029978 4.98205 
L 25.101377 5.247801 
L 25.03547 4.969115 
L 25.145315 5.20077 
L 25.318322 5.049051 
L 25.183761 5.248159 
L 25.332052 5.129473 
L 25.337544 5.091663 
L 25.450136 5.371344 
L 25.559981 5.258664 
L 25.527028 5.432309 
L 25.565473 5.330195 
L 25.697288 5.267395 
L 25.576458 5.428004 
L 25.70278 5.344809 
L 25.711018 5.31518 
L 25.820864 5.538862 
L 25.925217 5.38433 
L 25.870294 5.599728 
L 25.933455 5.476929 
L 25.938947 5.5523 
L 25.949932 5.383285 
L 26.040554 5.501793 
L 26.0433 5.429947 
L 26.12843 5.763442 
L 26.144907 5.62556 
L 26.202576 5.768137 
L 26.24926 5.599375 
L 26.254752 5.694365 
L 26.301437 5.499381 
L 26.359105 5.704623 
L 26.364598 5.574371 
L 26.479935 5.888767 
L 26.589781 5.758562 
L 26.50465 5.922152 
L 26.598019 5.79874 
L 26.628226 5.895991 
L 26.650195 5.718312 
L 26.705118 5.771575 
L 26.707864 5.705898 
L 26.801233 6.030988 
L 26.806725 5.944287 
L 26.908332 6.086732 
L 26.820456 5.935882 
L 26.91657 5.965989 
L 26.985223 6.023411 
L 26.949524 5.879878 
L 27.012685 5.933838 
L 27.040146 5.858092 
L 27.100561 6.082533 
L 27.117038 6.02875 
L 27.141753 5.984859 
L 27.232375 6.224485 
L 27.347713 5.950952 
L 27.350459 6.038232 
L 27.46305 6.235598 
L 27.361443 5.981315 
L 27.465796 6.228185 
L 27.479527 6.15446 
L 27.526211 6.355984 
L 27.57015 6.289217 
L 27.605849 6.339003 
L 27.644295 6.173533 
L 27.712948 6.124817 
L 27.663518 6.279093 
L 27.743156 6.20615 
L 27.847509 6.460151 
L 27.756886 6.163239 
L 27.858493 6.399288 
L 27.954608 6.330985 
L 27.913416 6.496749 
L 27.968339 6.401298 
L 28.023261 6.264125 
L 27.973831 6.469755 
L 28.089168 6.363834 
L 28.105645 6.306224 
L 28.209998 6.588747 
L 28.424196 6.391133 
L 28.509327 6.701283 
L 28.539534 6.675055 
L 28.624664 6.753194 
L 28.605441 6.590913 
L 28.643887 6.642081 
L 28.720779 6.480653 
L 28.665856 6.717704 
L 28.756478 6.51423 
L 28.844355 6.840343 
L 28.871816 6.7526 
L 28.973423 6.841818 
L 28.880054 6.705963 
L 28.992646 6.772255 
L 29.07503 6.631911 
L 29.020107 6.832221 
L 29.102491 6.725867 
L 29.212336 6.942761 
L 29.135445 6.640751 
L 29.220575 6.894014 
L 29.311197 6.967668 
L 29.228813 6.849357 
L 29.322181 6.868892 
L 29.410058 6.737373 
L 29.327674 6.955942 
L 29.440265 6.742333 
L 29.486949 6.717859 
L 29.563841 7.067893 
L 29.665448 6.921441 
L 29.616018 7.085173 
L 29.676432 6.973522 
L 29.679179 7.082384 
L 29.731355 6.834346 
L 29.786278 6.934289 
L 29.802755 6.858452 
L 29.863169 7.077854 
L 29.882392 7.058704 
L 29.967522 7.21373 
L 29.909854 7.044307 
L 29.994984 7.090825 
L 30.022445 7.197929 
L 30.074622 6.940771 
L 30.091098 7.036873 
L 30.110321 6.9661 
L 30.192705 7.133613 
L 30.198197 7.03497 
L 30.264105 7.297381 
L 30.313535 7.254788 
L 30.390427 7.088667 
L 30.332758 7.325624 
L 30.428873 7.093518 
L 30.552448 7.345468 
L 30.453588 7.071564 
L 30.563433 7.262603 
L 30.62934 7.393781 
L 30.571671 7.242032 
L 30.681517 7.342645 
L 30.783124 7.180056 
L 30.70074 7.427095 
L 30.794108 7.250489 
L 30.802346 7.19627 
L 30.881984 7.384342 
L 30.892969 7.32731 
L 30.994576 7.514401 
L 30.923176 7.285335 
L 31.00556 7.421415 
L 31.098929 7.299341 
L 31.049498 7.452144 
L 31.12639 7.32415 
L 31.236235 7.498593 
L 31.170328 7.255481 
L 31.241728 7.454172 
L 31.244474 7.397634 
L 31.269189 7.591853 
L 31.348827 7.48473 
L 31.370796 7.62097 
L 31.439449 7.387383 
L 31.455926 7.47204 
L 31.516341 7.367088 
L 31.546548 7.560578 
L 31.554787 7.486908 
L 31.656393 7.681637 
L 31.563025 7.459176 
L 31.667378 7.572136 
L 31.700331 7.68923 
L 31.752508 7.53603 
L 31.777223 7.55797 
L 31.865099 7.608667 
L 31.788208 7.476774 
L 31.876084 7.497796 
L 31.87883 7.452458 
L 31.972199 7.742185 
L 31.974945 7.641443 
L 32.027121 7.787615 
L 32.076552 7.602331 
L 32.087536 7.713529 
L 32.172666 7.536414 
L 32.101267 7.720461 
L 32.200127 7.613953 
L 32.318211 7.830585 
L 32.213858 7.592074 
L 32.323703 7.814479 
L 32.392357 7.862271 
L 32.334688 7.729737 
L 32.419818 7.781533 
L 32.513186 7.623728 
L 32.474741 7.8415 
L 32.532409 7.700733 
L 32.623032 7.893188 
L 32.557125 7.628487 
L 32.647747 7.870298 
L 32.686193 7.966744 
L 32.757592 7.791994 
L 32.809769 7.878072 
L 32.839976 7.71682 
L 32.867437 7.845153 
L 32.88666 7.73398 
L 32.944329 7.954921 
L 32.977283 7.867115 
L 33.00749 7.863981 
L 33.09262 8.050152 
L 33.188735 7.812655 
L 33.207958 7.854458 
L 33.320549 8.03957 
L 33.221688 7.833875 
L 33.326041 8.038078 
L 33.331534 7.931011 
L 33.405679 8.105547 
L 33.435887 8.005884 
L 33.463348 8.143147 
L 33.515525 7.884806 
L 33.542986 7.994155 
L 33.551224 7.874904 
L 33.644593 8.079584 
L 33.650085 7.985582 
L 33.751692 8.217829 
L 33.658323 7.974589 
L 33.770915 8.158368 
L 33.878014 7.935098 
L 33.79563 8.174522 
L 33.883506 7.98781 
L 33.974128 8.167458 
L 33.93019 7.948859 
L 33.996098 8.065087 
L 34.070243 8.274487 
L 34.012574 8.062935 
L 34.114181 8.197594 
L 34.17185 8.169136 
L 34.281695 8.033641 
L 34.177342 8.21332 
L 34.284441 8.108086 
L 34.37781 8.332524 
L 34.328379 8.09478 
L 34.399779 8.244579 
L 34.465686 8.373687 
L 34.484909 8.171052 
L 34.51237 8.291582 
L 34.58377 8.106964 
L 34.624962 8.223328 
L 34.641438 8.141669 
L 34.7046 8.389503 
L 34.723822 8.294 
L 34.775999 8.4326 
L 34.800714 8.264493 
L 34.830922 8.270914 
L 34.916052 8.198319 
L 34.850144 8.359223 
L 34.940767 8.272852 
L 34.95999 8.163164 
L 35.012166 8.387495 
L 35.025897 8.357533 
L 35.108281 8.496393 
L 35.034135 8.320483 
L 35.141234 8.440367 
L 35.237349 8.270502 
L 35.149473 8.494203 
L 35.259318 8.286059 
L 35.37191 8.483114 
L 35.270303 8.243229 
L 35.377402 8.462476 
L 35.38564 8.36991 
L 35.45704 8.57407 
L 35.487247 8.438315 
L 35.509216 8.541868 
L 35.566885 8.34759 
L 35.597092 8.415387 
L 35.621807 8.318373 
L 35.682222 8.518707 
L 35.704191 8.495959 
L 35.811291 8.643189 
L 35.709684 8.45093 
L 35.816783 8.546241 
L 36.01725 8.413389 
L 35.822275 8.624275 
L 36.033727 8.47687 
L 36.127096 8.688221 
L 36.149065 8.68549 
L 36.253418 8.458444 
L 36.157303 8.704026 
L 36.264402 8.523608 
L 36.368755 8.629972 
L 36.324817 8.46865 
L 36.374248 8.594701 
L 36.376994 8.510623 
L 36.453885 8.772107 
L 36.478601 8.681863 
L 36.481347 8.767818 
L 36.569223 8.581513 
L 36.588446 8.66691 
L 36.624146 8.514554 
L 36.703783 8.53915 
L 36.783421 8.855877 
L 36.819121 8.756396 
L 36.92622 8.60458 
L 36.838344 8.838689 
L 36.939951 8.644309 
L 36.942697 8.739502 
L 36.981143 8.557825 
L 37.049796 8.66493 
L 37.052542 8.57818 
L 37.110211 8.868755 
L 37.154149 8.772519 
L 37.18161 8.90239 
L 37.250264 8.726556 
L 37.263994 8.800359 
L 37.343632 8.636723 
L 37.274979 8.857855 
L 37.384824 8.643849 
L 37.489177 8.93912 
L 37.500162 8.862884 
L 37.535861 8.96678 
L 37.612753 8.77078 
L 37.615499 8.88933 
L 37.664929 8.714932 
L 37.722598 8.739302 
L 37.942289 9.03711 
L 37.741821 8.721533 
L 37.958766 8.918347 
L 38.002704 8.762421 
L 37.980735 8.921562 
L 38.074103 8.797331 
L 38.164725 9.091963 
L 38.214156 9.048353 
L 38.313016 8.862374 
L 38.238871 9.049593 
L 38.326747 8.993377 
L 38.351462 8.845377 
L 38.436592 8.922177 
L 38.527215 9.108981 
L 38.458561 8.891989 
L 38.549184 9.090212 
L 38.562914 9.136415 
L 38.661775 8.928273 
L 38.735921 8.876036 
L 38.77162 9.102823 
L 38.774367 8.943264 
L 38.851258 9.16161 
L 38.881466 9.129672 
L 38.886958 9.1866 
L 38.996803 8.992061 
L 39.046234 9.097212 
L 39.095664 8.929145 
L 39.106649 9.003724 
L 39.235717 9.237012 
L 39.238463 9.17513 
L 39.348308 9.005515 
L 39.25494 9.263093 
L 39.351054 9.077636 
L 39.416961 8.988343 
L 39.458153 9.170177 
L 39.463646 9.025052 
L 39.55976 9.28167 
L 39.565253 9.248014 
L 39.620175 9.324951 
L 39.658621 9.14469 
L 39.664113 9.16144 
L 39.683336 9.235294 
L 39.784943 9.047829 
L 39.881058 9.354385 
L 39.903027 9.336958 
L 40.001887 9.180157 
L 39.93598 9.347424 
L 40.023857 9.230708 
L 40.054064 9.282458 
L 40.089764 9.088752 
L 40.12821 9.134672 
L 40.130956 9.116173 
L 40.172148 9.325483 
L 40.216086 9.288127 
L 40.317693 9.405321 
L 40.221578 9.211399 
L 40.325931 9.324484 
L 40.427538 9.142611 
L 40.334169 9.360973 
L 40.444015 9.211988 
L 40.463238 9.144901 
L 40.559352 9.387045 
L 40.58956 9.259766 
L 40.611529 9.449696 
L 40.671944 9.326013 
L 40.677436 9.396447 
L 40.696659 9.237854 
L 40.757074 9.301842 
L 40.84495 9.183141 
L 40.855934 9.387564 
L 40.864173 9.294525 
L 40.949303 9.504615 
L 40.872411 9.275856 
L 40.97951 9.485279 
L 41.009718 9.492592 
L 41.092102 9.285512 
L 41.168993 9.392776 
L 41.147024 9.234109 
L 41.201947 9.340462 
L 41.22117 9.310568 
L 41.278839 9.536626 
L 41.292569 9.502679 
L 41.336507 9.580085 
L 41.421638 9.363498 
L 41.424384 9.474642 
L 41.479306 9.295304 
L 41.531483 9.408207 
L 41.545213 9.336853 
L 41.59739 9.592073 
L 41.624851 9.496332 
L 41.671536 9.601091 
L 41.726458 9.44239 
L 41.734697 9.565969 
L 41.825319 9.333734 
L 41.847288 9.347332 
L 41.946149 9.598521 
L 41.858272 9.331646 
L 41.962625 9.568967 
L 42.080709 9.439517 
L 41.987341 9.651784 
L 42.083455 9.442216 
L 42.097186 9.570448 
L 42.116409 9.367669 
L 42.198793 9.535905 
L 42.231746 9.415332 
L 42.292161 9.673426 
L 42.3004 9.574034 
L 42.352576 9.696826 
L 42.305892 9.512518 
L 42.410245 9.5473 
L 42.476152 9.42292 
L 42.418483 9.62309 
L 42.533821 9.43203 
L 42.643666 9.737868 
L 42.649158 9.611796 
L 42.704081 9.739383 
L 42.750765 9.579606 
L 42.76175 9.666726 
L 42.849626 9.496645 
L 42.800196 9.677464 
L 42.879833 9.596974 
L 42.997917 9.762901 
L 42.899056 9.486735 
L 43.003409 9.726971 
L 43.028125 9.782558 
L 43.116001 9.58787 
L 43.212115 9.521466 
L 43.129731 9.720849 
L 43.220354 9.541239 
L 43.330199 9.817719 
L 43.236831 9.485944 
L 43.335691 9.739893 
L 43.382376 9.83053 
L 43.440044 9.647284 
L 43.445537 9.719618 
L 43.582843 9.539304 
L 43.456521 9.775984 
L 43.602066 9.691125 
L 43.698181 9.867822 
L 43.624035 9.628424 
L 43.731134 9.779335 
L 43.862949 9.594214 
L 43.755849 9.887843 
L 43.865695 9.663121 
L 43.964555 9.80359 
L 43.942586 9.590171 
L 43.978286 9.798451 
L 44.005747 9.706112 
L 44.044193 9.910468 
L 44.074401 9.7991 
L 44.077147 9.9184 
L 44.165023 9.70229 
L 44.184246 9.748993 
L 44.274868 9.79772 
L 44.222692 9.641297 
L 44.288599 9.757231 
L 44.296837 9.66726 
L 44.384714 9.950843 
L 44.390206 9.860708 
L 44.447875 9.979603 
L 44.461605 9.750847 
L 44.500051 9.897791 
L 44.568704 9.67043 
L 44.612642 9.743283 
L 44.719742 10.000137 
L 44.637358 9.740327 
L 44.733472 9.98074 
L 44.843318 9.775312 
L 44.755441 9.995593 
L 44.84881 9.826088 
L 44.876271 9.890638 
L 44.903732 9.699084 
L 44.961401 9.859207 
L 44.966893 9.752945 
L 45.049277 9.96301 
L 45.060262 9.934011 
L 45.106946 10.033735 
L 45.128915 9.871579 
L 45.170107 9.918535 
L 45.263476 9.765051 
L 45.203061 9.94788 
L 45.282699 9.768631 
L 45.378813 10.014481 
L 45.398036 9.972333 
L 45.441974 10.072873 
L 45.48042 9.929659 
L 45.505135 10.025507 
L 45.60125 9.798443 
L 45.540835 10.044543 
L 45.620473 9.811283 
L 45.82094 10.127052 
L 45.634203 9.79292 
L 45.859386 9.998072 
L 45.963739 9.839146 
L 45.878609 10.020212 
L 45.974724 9.879397 
L 46.084569 10.106419 
L 45.991201 9.82694 
L 46.090061 10.06467 
L 46.172445 10.158466 
L 46.177938 9.992928 
L 46.202653 10.085594 
L 46.279544 9.878434 
L 46.323483 9.909994 
L 46.444312 10.150884 
L 46.548665 9.981814 
L 46.449805 10.19973 
L 46.556904 10.073316 
L 46.592603 9.899946 
L 46.576127 10.091817 
L 46.674987 9.978195 
L 46.710687 9.931653 
L 46.790325 10.209384 
L 46.872709 10.22953 
L 46.905662 10.022493 
L 46.963331 10.130277 
L 46.9853 9.956851 
L 47.015508 10.059888 
L 47.026492 9.980854 
L 47.100638 10.19668 
L 47.117115 10.106149 
L 47.196752 10.271038 
L 47.22696 10.137513 
L 47.259913 10.182855 
L 47.273644 10.039817 
L 47.279136 10.124506 
L 47.358774 9.983039 
L 47.31209 10.140455 
L 47.391728 10.048723 
L 47.498827 10.289228 
L 47.399966 10.028567 
L 47.507065 10.202723 
L 47.65261 10.008102 
L 47.523542 10.278127 
L 47.707533 10.13694 
L 47.828363 10.284313 
L 47.734994 10.045304 
L 47.831109 10.274787 
L 47.875047 10.327843 
L 47.940954 10.121336 
L 47.976654 10.265078 
L 48.042561 10.067412 
L 48.050799 10.138834 
L 48.155152 10.316879 
L 48.070022 10.111811 
L 48.171629 10.271438 
L 48.248521 10.205686 
L 48.212821 10.348618 
L 48.281474 10.250397 
L 48.284221 10.314909 
L 48.361112 10.082828 
L 48.385827 10.118007 
L 48.569818 10.428934 
L 48.586295 10.310814 
L 48.600026 10.38295 
L 48.698886 10.131521 
L 48.78127 10.325557 
L 48.753809 10.106144 
L 48.819716 10.244394 
L 48.948784 10.417611 
L 48.9735 10.375705 
L 49.025676 10.140838 
L 49.086091 10.261789 
L 49.113552 10.208481 
L 49.184952 10.451099 
L 49.19319 10.314082 
L 49.212413 10.465616 
L 49.305781 10.379252 
L 49.34972 10.205773 
L 49.31402 10.43625 
L 49.418373 10.295207 
L 49.506249 10.473774 
L 49.426611 10.230834 
L 49.547441 10.44446 
L 49.621587 10.315869 
L 49.580395 10.476845 
L 49.657286 10.324988 
L 49.660032 10.495541 
L 49.695732 10.22957 
L 49.767132 10.252504 
L 49.791847 10.247441 
L 49.885215 10.501936 
L 49.989568 10.334186 
L 49.890708 10.540461 
L 49.997807 10.445904 
L 50.011537 10.487324 
L 50.126875 10.27438 
L 50.222989 10.558269 
L 50.250451 10.516158 
L 50.332835 10.36156 
L 50.299881 10.548525 
L 50.376773 10.399887 
L 50.379519 10.462563 
L 50.467395 10.278669 
L 50.486618 10.439735 
L 50.522318 10.372336 
L 50.571748 10.584752 
L 50.588225 10.474301 
L 50.590971 10.595866 
L 50.681593 10.379609 
L 50.695324 10.480603 
L 50.731024 10.517792 
L 50.810662 10.302845 
L 50.915015 10.589196 
L 50.925999 10.580492 
L 50.978176 10.625464 
L 50.945222 10.504425 
L 51.013875 10.577095 
L 51.120974 10.367336 
L 51.027606 10.605907 
L 51.126467 10.428549 
L 51.239058 10.558985 
L 51.131959 10.352071 
L 51.24455 10.529895 
L 51.348903 10.483949 
L 51.291235 10.656568 
L 51.354396 10.50769 
L 51.381857 10.59446 
L 51.425795 10.387453 
L 51.453256 10.514425 
L 51.510925 10.384695 
L 51.530148 10.608666 
L 51.560356 10.55033 
L 51.60704 10.696712 
L 51.585071 10.505564 
L 51.672947 10.639227 
L 51.7773 10.435973 
L 51.719631 10.678554 
L 51.799269 10.457281 
L 51.813 10.413706 
L 51.920099 10.675998 
L 51.922845 10.526717 
L 52.005229 10.711412 
L 52.029944 10.560315 
L 52.060152 10.691629 
L 52.120566 10.447713 
L 52.137043 10.561062 
L 52.175489 10.440373 
L 52.200204 10.616279 
L 52.244142 10.495564 
L 52.348495 10.756913 
L 52.356734 10.637767 
L 52.411656 10.732007 
L 52.455594 10.533701 
L 52.461087 10.580334 
L 52.499533 10.459375 
L 52.469325 10.617286 
L 52.568186 10.608453 
L 52.6643 10.780783 
L 52.590155 10.570417 
L 52.68627 10.758544 
L 52.798861 10.532795 
L 52.705492 10.77813 
L 52.801607 10.622528 
L 52.873006 10.678618 
L 52.837307 10.506639 
L 52.90596 10.623442 
L 52.922437 10.547926 
L 52.985598 10.809062 
L 53.013059 10.715279 
L 53.029536 10.78588 
L 53.098189 10.606598 
L 53.120158 10.684891 
L 53.23275 10.527134 
L 53.14762 10.721606 
L 53.235496 10.651957 
L 53.276688 10.579354 
L 53.249227 10.695058 
L 53.295911 10.694878 
L 53.326118 10.83014 
L 53.306895 10.658499 
L 53.408502 10.771464 
L 53.493632 10.571531 
L 53.413994 10.802804 
L 53.521094 10.615732 
L 53.603478 10.774441 
L 53.53757 10.565311 
L 53.633685 10.655952 
L 53.647416 10.616978 
L 53.699592 10.859676 
L 53.721561 10.715396 
L 53.760007 10.883853 
L 53.825914 10.637065 
L 53.831406 10.677625 
L 53.924775 10.579138 
L 53.908298 10.741931 
L 53.941252 10.662337 
L 53.94949 10.65195 
L 54.07032 10.89457 
L 54.177419 10.621207 
L 54.182911 10.724338 
L 54.27628 10.615095 
L 54.213119 10.778092 
L 54.284518 10.736798 
L 54.298249 10.639428 
L 54.39711 10.902556 
L 54.506955 10.670129 
L 54.416332 10.914959 
L 54.512447 10.738605 
L 54.589339 10.6439 
L 54.614054 10.814343 
L 54.622292 10.701977 
L 54.633277 10.691949 
L 54.73763 10.936267 
L 54.795299 10.770789 
L 54.78706 10.945439 
L 54.852967 10.791839 
L 54.95732 10.859129 
L 54.894159 10.670969 
L 54.962813 10.764646 
L 54.984782 10.709878 
L 55.023228 10.922543 
L 55.02872 10.883349 
L 55.089135 10.962673 
L 55.056181 10.786252 
L 55.141311 10.92022 
L 55.237426 10.715537 
L 55.253903 10.791312 
L 55.297841 10.692241 
L 55.33354 10.873486 
L 55.352763 10.755835 
L 55.410432 11.006573 
L 55.465355 10.948043 
L 55.569708 10.74237 
L 55.49007 11.001364 
L 55.580692 10.779002 
L 55.674061 10.909397 
L 55.608154 10.735434 
L 55.69603 10.884674 
L 55.704268 10.806665 
L 55.764683 11.015974 
L 55.800383 10.918837 
L 55.808621 11.009153 
L 55.896497 10.757403 
L 55.904736 10.836442 
L 55.921213 10.730579 
L 55.998104 10.897478 
L 56.014581 10.821513 
L 56.129919 11.032047 
L 56.031058 10.793581 
L 56.132665 11.019995 
L 56.24251 10.811185 
L 56.179349 11.063437 
L 56.245256 10.872508 
L 56.248002 10.954322 
L 56.330386 10.77168 
L 56.355101 10.843901 
L 56.464947 11.06256 
L 56.368832 10.83038 
L 56.478677 10.942138 
L 56.591269 10.818934 
L 56.489662 11.044259 
L 56.596761 10.850283 
L 56.681891 10.787138 
L 56.712099 11.023312 
L 56.734068 10.853318 
L 56.805467 11.068561 
L 56.821944 11.006669 
L 56.86039 11.082726 
L 56.898835 10.915523 
L 56.920805 10.925534 
L 56.989458 10.822631 
L 56.964743 10.947553 
L 57.03065 10.876182 
L 57.140495 11.098282 
L 57.143241 11.067784 
L 57.225625 10.920529 
L 57.211894 11.123004 
L 57.255833 10.930953 
L 57.340963 10.970812 
L 57.275056 10.797888 
L 57.357439 10.922166 
L 57.382155 10.850631 
L 57.448062 11.097023 
L 57.4563 10.943557 
L 57.481015 11.165413 
L 57.566145 11.083296 
L 57.673245 10.868581 
L 57.574384 11.090619 
L 57.681483 10.869435 
L 57.799567 11.140737 
L 57.890189 10.987181 
L 57.810551 11.163683 
L 57.939619 11.028389 
L 57.969827 11.107929 
L 58.035734 10.894862 
L 58.046719 10.994182 
L 58.065941 10.929967 
L 58.098895 11.089545 
L 58.134595 11.090231 
L 58.175787 11.203491 
L 58.184025 11.041666 
L 58.24444 11.128448 
L 58.354285 10.923105 
L 58.255425 11.133249 
L 58.357031 10.9708 
L 58.464131 11.171985 
L 58.381747 10.929371 
L 58.472369 11.16453 
L 58.480607 11.023952 
L 58.527292 11.216169 
L 58.582214 11.075369 
L 58.598691 11.165342 
L 58.637137 10.94651 
L 58.686567 11.045028 
L 58.725013 10.948208 
L 58.757967 11.145648 
L 58.788174 11.120485 
L 58.859573 11.243095 
L 58.804651 11.010698 
L 58.900765 11.151613 
L 58.914496 11.216708 
L 58.994134 10.942937 
L 59.005118 11.075245 
L 59.043564 10.970128 
L 59.076518 11.104911 
L 59.112218 11.092588 
L 59.189109 11.222781 
L 59.125948 11.036219 
L 59.224809 11.191864 
L 59.320924 11.012107 
L 59.257763 11.255071 
L 59.3374 11.144758 
L 59.386831 10.974876 
L 59.4445 11.172924 
L 59.447246 11.052801 
L 59.551599 11.280611 
L 59.463722 11.028629 
L 59.559837 11.235004 
L 59.587298 11.294517 
L 59.672428 11.065831 
L 59.675175 11.215141 
L 59.782274 11.00812 
L 59.87015 11.26829 
L 59.897611 11.194372 
L 59.90585 11.290366 
L 59.988234 11.131348 
L 60.007456 11.184618 
L 60.084348 11.039236 
L 60.021187 11.228241 
L 60.142017 11.133637 
L 60.240878 11.317509 
L 60.158494 11.129753 
L 60.257354 11.212664 
L 60.284816 11.329699 
L 60.326008 11.141692 
L 60.358961 11.224218 
L 60.460568 11.055664 
L 60.378184 11.249475 
L 60.471553 11.149043 
L 60.575906 11.310002 
L 60.496268 11.092246 
L 60.58689 11.237417 
L 60.617098 11.218971 
L 60.608859 11.316007 
L 60.62259 11.281516 
L 60.625336 11.359991 
L 60.691243 11.112126 
L 60.726943 11.242978 
L 60.820311 11.062039 
L 60.836788 11.127565 
L 60.845027 11.118659 
L 60.952126 11.371637 
L 61.053733 11.116365 
L 61.067463 11.129139 
L 61.174562 11.291571 
L 61.125132 11.096876 
L 61.180055 11.238736 
L 61.215754 11.173564 
L 61.259693 11.423433 
L 61.284408 11.268084 
L 61.317361 11.401797 
L 61.361299 11.183949 
L 61.394253 11.237424 
L 61.427207 11.267455 
L 61.421714 11.128133 
L 61.479383 11.226749 
L 61.482129 11.13133 
L 61.58099 11.363168 
L 61.589228 11.247248 
L 61.679851 11.393924 
L 61.594721 11.239697 
L 61.704566 11.329786 
L 61.803427 11.134033 
L 61.712804 11.334869 
L 61.817157 11.247239 
L 61.869334 11.144382 
L 61.896795 11.369737 
L 61.918764 11.258693 
L 61.979179 11.438565 
L 61.929749 11.251811 
L 62.028609 11.347077 
L 62.138455 11.164315 
L 62.047832 11.408961 
L 62.143947 11.187681 
L 62.220839 11.368639 
L 62.16317 11.162748 
L 62.253792 11.312176 
L 62.256538 11.232489 
L 62.275761 11.473769 
L 62.360891 11.356141 
L 62.396591 11.386316 
L 62.45426 11.207757 
L 62.457006 11.295052 
L 62.481721 11.165657 
L 62.48996 11.33698 
L 62.566851 11.269205 
L 62.569597 11.259401 
L 62.616282 11.45336 
L 62.635504 11.434946 
L 62.748096 11.258396 
L 62.679443 11.477091 
L 62.75908 11.404981 
L 62.761827 11.47274 
L 62.841464 11.191376 
L 62.860687 11.25032 
L 62.904625 11.2221 
L 62.934833 11.424218 
L 62.959548 11.357996 
L 63.011725 11.498003 
L 62.978771 11.338273 
L 63.072139 11.479608 
L 63.181985 11.216226 
L 63.190223 11.301841 
L 63.308307 11.496513 
L 63.195715 11.220108 
L 63.335768 11.465879 
L 63.434629 11.314881 
L 63.396183 11.527459 
L 63.451106 11.334877 
L 63.464836 11.476368 
L 63.538982 11.243025 
L 63.558205 11.287896 
L 63.687273 11.523736 
L 63.585666 11.272484 
L 63.690019 11.435541 
L 63.794372 11.310434 
L 63.711988 11.501172 
L 63.80261 11.377252 
L 63.810849 11.434844 
L 63.852041 11.258499 
L 63.90971 11.342016 
L 63.912456 11.288592 
L 64.00857 11.543709 
L 64.011316 11.454529 
L 64.058001 11.526696 
L 64.082716 11.3784 
L 64.123908 11.487695 
L 64.170592 11.280967 
L 64.239245 11.34619 
L 64.244738 11.300015 
L 64.327122 11.526879 
L 64.33536 11.386439 
L 64.423236 11.589162 
L 64.447951 11.480101 
L 64.464428 11.523017 
L 64.478159 11.366712 
L 64.511112 11.401586 
L 64.607227 11.292835 
L 64.516605 11.491042 
L 64.620958 11.384006 
L 64.697849 11.569172 
L 64.637434 11.36086 
L 64.736295 11.563206 
L 64.83241 11.348719 
L 64.851633 11.422028 
L 64.955986 11.317068 
L 64.865363 11.476696 
L 64.964224 11.324114 
L 65.041116 11.588185 
L 65.082308 11.528941 
L 65.159199 11.59846 
L 65.115261 11.453612 
L 65.17293 11.548035 
L 65.255314 11.331803 
L 65.285522 11.386629 
L 65.345936 11.579268 
L 65.398113 11.483972 
L 65.444797 11.490079 
L 65.422828 11.627955 
L 65.447543 11.548692 
L 65.450289 11.635712 
L 65.529927 11.39964 
L 65.554642 11.447876 
L 65.576611 11.320688 
L 65.560135 11.499852 
L 65.639773 11.49679 
L 65.746872 11.640286 
L 65.675472 11.36424 
L 65.75511 11.610685 
L 65.867701 11.413138 
L 65.810033 11.652347 
L 65.870448 11.428582 
L 65.892417 11.534068 
L 65.919878 11.366213 
L 65.974801 11.498181 
L 65.977547 11.363176 
L 66.073661 11.637011 
L 66.0819 11.530177 
L 66.136822 11.672406 
L 66.18076 11.454082 
L 66.194491 11.583806 
L 66.285113 11.387363 
L 66.309829 11.391008 
L 66.419674 11.660862 
L 66.42242 11.554423 
L 66.518535 11.674206 
L 66.427912 11.546836 
L 66.532265 11.612654 
L 66.622888 11.397793 
L 66.559727 11.615575 
L 66.644857 11.402285 
L 66.760194 11.621289 
L 66.831594 11.708031 
L 66.784909 11.531692 
L 66.859055 11.636583 
L 66.949677 11.444133 
L 66.875532 11.65714 
L 66.971646 11.53993 
L 67.010092 11.386581 
L 67.062269 11.607283 
L 67.081492 11.546459 
L 67.150145 11.721681 
L 67.128176 11.535539 
L 67.196829 11.655325 
L 67.202321 11.705 
L 67.323151 11.452931 
L 67.435743 11.672765 
L 67.342374 11.449057 
L 67.441235 11.617153 
L 67.452219 11.522072 
L 67.523619 11.753436 
L 67.545588 11.689499 
L 67.570303 11.69495 
L 67.578541 11.537209 
L 67.608749 11.589641 
L 67.693879 11.459022 
L 67.704863 11.618442 
L 67.715848 11.547133 
L 67.822947 11.73354 
L 67.732325 11.500963 
L 67.831186 11.655844 
L 67.973984 11.499378 
L 67.861393 11.748424 
L 67.979477 11.541048 
L 68.089322 11.685384 
L 68.072845 11.466082 
L 68.092068 11.607671 
L 68.114037 11.53975 
L 68.141498 11.734804 
L 68.155229 11.661968 
L 68.174452 11.776283 
L 68.226629 11.589917 
L 68.262328 11.642039 
L 68.350204 11.503382 
L 68.287043 11.662723 
L 68.377666 11.527199 
L 68.385904 11.519536 
L 68.490257 11.760529 
L 68.547926 11.800435 
L 68.602849 11.610603 
L 68.613833 11.706873 
L 68.696217 11.5125 
L 68.707202 11.645104 
L 68.709948 11.526277 
L 68.786839 11.729979 
L 68.817047 11.678492 
L 68.860985 11.811731 
L 68.871969 11.658177 
L 68.929638 11.748375 
L 69.036737 11.531099 
L 68.954353 11.766906 
L 69.044976 11.598982 
L 69.053214 11.525096 
L 69.124614 11.74382 
L 69.149329 11.609011 
L 69.193267 11.827952 
L 69.264666 11.784791 
L 69.377258 11.55659 
L 69.38275 11.605449 
L 69.489849 11.717262 
L 69.443165 11.536749 
L 69.495341 11.653747 
L 69.585964 11.833314 
L 69.511818 11.631843 
L 69.616171 11.756902 
L 69.682078 11.574882 
L 69.629902 11.795081 
L 69.728763 11.605058 
L 69.811146 11.752662 
L 69.739747 11.566027 
L 69.8441 11.689418 
L 69.904515 11.863067 
L 69.871561 11.672746 
L 69.962184 11.819554 
L 70.072029 11.557992 
L 70.077521 11.65031 
L 70.09949 11.602975 
L 70.179128 11.799336 
L 70.181874 11.763431 
L 70.250528 11.87047 
L 70.198351 11.664915 
L 70.29172 11.787149 
L 70.387834 11.60318 
L 70.299958 11.852395 
L 70.412549 11.62389 
L 70.522395 11.823846 
L 70.423534 11.593549 
L 70.538871 11.741818 
L 70.582809 11.734967 
L 70.574571 11.890382 
L 70.591048 11.829621 
L 70.656955 11.881303 
L 70.665193 11.701771 
L 70.692655 11.77981 
L 70.775039 11.606594 
L 70.71737 11.835441 
L 70.805246 11.651215 
L 70.890376 11.868074 
L 70.829961 11.633266 
L 70.920584 11.862165 
L 71.024937 11.702602 
L 70.961776 11.896149 
L 71.033175 11.727832 
L 71.151259 11.651274 
L 71.060636 11.805573 
L 71.154005 11.656102 
L 71.266596 11.927551 
L 71.173228 11.646006 
L 71.280327 11.923038 
L 71.392918 11.71135 
L 71.398411 11.8487 
L 71.461572 11.639834 
L 71.50551 11.823085 
L 71.527479 11.638435 
L 71.609863 11.945137 
L 71.615355 11.786154 
L 71.664785 11.939737 
L 71.719708 11.718802 
L 71.7252 11.796946 
L 71.837792 11.647766 
L 71.755408 11.873856 
L 71.854268 11.788534 
L 71.997067 11.969259 
L 71.887222 11.706977 
L 72.010798 11.864396 
L 72.024529 11.918547 
L 72.126135 11.717276 
L 72.164581 11.68501 
L 72.235981 11.877848 
L 72.246965 11.773298 
L 72.332095 11.964849 
L 72.34308 11.923943 
L 72.370541 11.996225 
L 72.436448 11.724315 
L 72.444687 11.800622 
L 72.584739 11.763457 
L 72.455671 11.873682 
L 72.590232 11.799428 
L 72.6836 11.973428 
L 72.702823 11.90561 
L 72.790699 11.735231 
L 72.744015 11.938485 
L 72.826399 11.739675 
L 72.93899 11.934387 
L 72.864845 11.698271 
L 72.944483 11.879051 
L 73.021374 11.998457 
L 72.960959 11.833005 
L 73.057074 11.971516 
L 73.142204 11.726846 
L 73.062566 11.974313 
L 73.169665 11.762354 
L 73.205365 11.719473 
L 73.285003 11.96126 
L 73.287749 11.856352 
L 73.342672 12.013207 
L 73.394848 11.908388 
L 73.405833 12.029697 
L 73.460755 11.754755 
L 73.501947 11.780886 
L 73.578839 11.734358 
L 73.595316 11.910023 
L 73.6063 11.854468 
L 73.7134 12.027006 
L 73.617285 11.824139 
L 73.735369 11.996862 
L 73.839722 11.783769 
L 73.84796 11.90262 
L 73.941328 11.776891 
L 73.955059 11.799554 
L 74.01822 12.043133 
L 74.067651 11.995114 
L 74.119827 12.00852 
L 74.130812 11.833785 
L 74.144542 11.895115 
L 74.204957 11.768646 
L 74.163765 11.943315 
L 74.254387 11.901894 
L 74.366979 12.052453 
L 74.262626 11.808823 
L 74.369725 11.992883 
L 74.611385 11.75757 
L 74.399932 12.038234 
L 74.630608 11.901719 
L 74.726722 12.076589 
L 74.6361 11.839484 
L 74.751437 12.071279 
L 74.853044 11.844699 
L 74.778899 12.08144 
L 74.866775 11.873306 
L 74.968382 11.798539 
L 74.979366 11.968748 
L 74.990351 11.89571 
L 74.984858 12.003309 
L 75.020558 11.940929 
" clip-path="url(#p6395e0df86)" style="fill: none; stroke: #de8f5f; stroke-width: 0.4; stroke-linecap: square"/>
   </g>
   <g id="patch_13">
    <path d="M 22.294803 33.460157 
L 22.294803 0.72 
" style="fill: none; stroke: #ffffff; stroke-width: 0.5; stroke-linejoin: miter; stroke-linecap: square"/>
   </g>
   <g id="patch_14">
    <path d="M 75.019213 33.460157 
L 75.019213 0.72 
" style="fill: none; stroke: #ffffff; stroke-width: 0.5; stroke-linejoin: miter; stroke-linecap: square"/>
   </g>
   <g id="patch_15">
    <path d="M 22.294803 33.460157 
L 75.019213 33.460157 
" style="fill: none; stroke: #000000; stroke-width: 0.5; stroke-linejoin: miter; stroke-linecap: square"/>
   </g>
   <g id="patch_16">
    <path d="M 22.294803 0.72 
L 75.019213 0.72 
" style="fill: none; stroke: #000000; stroke-width: 0.5; stroke-linejoin: miter; stroke-linecap: square"/>
   </g>
  </g>
 </g>
 <defs>
  <clipPath id="p3adfa35265">
   <rect x="4.72" y="0.72" width="17.574803" height="32.740157"/>
  </clipPath>
  <clipPath id="p968044284d">
   <rect x="75.019213" y="0.72" width="17.574803" height="32.740157"/>
  </clipPath>
  <clipPath id="p6395e0df86">
   <rect x="22.294803" y="0.72" width="52.724409" height="32.740157"/>
  </clipPath>
 </defs>
</svg>
