<?xml version="1.0" encoding="utf-8" standalone="no"?>
<!DOCTYPE svg PUBLIC "-//W3C//DTD SVG 1.1//EN"
  "http://www.w3.org/Graphics/SVG/1.1/DTD/svg11.dtd">
<svg xmlns:xlink="http://www.w3.org/1999/xlink" width="93.314016pt" height="34.180157pt" viewBox="0 0 93.314016 34.180157" xmlns="http://www.w3.org/2000/svg" version="1.1">
 <metadata>
  <rdf:RDF xmlns:dc="http://purl.org/dc/elements/1.1/" xmlns:cc="http://creativecommons.org/ns#" xmlns:rdf="http://www.w3.org/1999/02/22-rdf-syntax-ns#">
   <cc:Work>
    <dc:type rdf:resource="http://purl.org/dc/dcmitype/StillImage"/>
    <dc:date>2024-12-27T17:45:36.327806</dc:date>
    <dc:format>image/svg+xml</dc:format>
    <dc:creator>
     <cc:Agent>
      <dc:title>Matplotlib v3.7.5, https://matplotlib.org/</dc:title>
     </cc:Agent>
    </dc:creator>
   </cc:Work>
  </rdf:RDF>
 </metadata>
 <defs>
  <style type="text/css">*{stroke-linejoin: round; stroke-linecap: butt}</style>
 </defs>
 <g id="figure_1">
  <g id="patch_1">
   <path d="M 0 34.180157 
L 93.314016 34.180157 
L 93.314016 0 
L 0 0 
L 0 34.180157 
z
" style="fill: none"/>
  </g>
  <g id="axes_1"/>
  <g id="axes_2">
   <g id="patch_2">
    <path d="M 4.72 33.460157 
L 22.294803 33.460157 
L 22.294803 0.72 
L 4.72 0.72 
L 4.72 33.460157 
z
" style="fill: none"/>
   </g>
   <g id="matplotlib.axis_1"/>
   <g id="matplotlib.axis_2"/>
   <g id="matplotlib.axis_3"/>
   <g id="matplotlib.axis_4"/>
   <g id="line2d_1">
    <path d="M 4.72 2.102273 
L 5.027567 3.046278 
L 5.291195 5.162653 
L 6.126019 17.538691 
L 6.697215 26.491622 
L 7.136596 30.71235 
L 7.400224 31.674837 
L 7.444163 31.766415 
L 7.488101 31.730789 
L 7.751729 30.880114 
L 7.97142 29.296752 
L 8.410801 23.895314 
L 9.59713 5.841799 
L 9.948635 3.142907 
L 10.124387 2.525573 
L 10.30014 2.556254 
L 10.563768 3.642929 
L 11.047087 8.829214 
L 11.44253 14.91181 
L 12.409169 28.833544 
L 12.760673 31.08667 
L 12.936426 31.38079 
L 13.024302 31.409603 
L 13.419745 29.253086 
L 13.859126 24.178562 
L 15.221207 4.764895 
L 15.484836 3.132427 
L 15.660588 2.76804 
L 16.012093 3.709645 
L 16.583289 9.651626 
L 18.121122 30.228415 
L 18.340813 31.003615 
L 18.428689 31.153426 
L 18.472627 31.054831 
L 18.560503 30.991815 
L 19.043823 27.751205 
L 19.746832 17.901574 
L 20.318028 9.159323 
L 20.801347 4.378703 
L 21.021037 3.214 
L 21.064976 3.239218 
L 21.19679 3.064478 
L 21.240728 3.154065 
L 21.372542 3.43407 
L 21.724047 5.742088 
L 22.163428 11.131469 
L 22.295243 13.107538 
L 22.295243 13.107538 
" clip-path="url(#p03d22e18fb)" style="fill: none; stroke: #b3c8cd; stroke-width: 0.4; stroke-linecap: square"/>
   </g>
   <g id="line2d_2">
    <path d="M 4.72 19.4485 
L 4.895752 17.849459 
L 5.115443 16.609859 
L 5.335133 15.74739 
L 5.818453 13.918686 
L 7.400224 8.989641 
L 7.444163 25.216712 
L 7.532039 24.950373 
L 8.103234 23.293613 
L 12.892488 9.021929 
L 12.936426 25.269808 
L 13.024302 25.005022 
L 14.034879 21.988324 
L 14.606074 20.305768 
L 18.384751 9.03462 
L 18.428689 25.252123 
L 18.516565 25.000144 
L 19.79077 21.182156 
L 22.295243 13.754918 
L 22.295243 13.754918 
" clip-path="url(#p03d22e18fb)" style="fill: none; stroke: #811c35; stroke-width: 0.4; stroke-linecap: square"/>
   </g>
   <g id="patch_3">
    <path d="M 22.294803 33.460157 
L 22.294803 0.72 
" style="fill: none; stroke: #000000; stroke-width: 0.5; stroke-linejoin: miter; stroke-linecap: square"/>
   </g>
   <g id="patch_4">
    <path d="M 4.72 33.460157 
L 4.72 0.72 
" style="fill: none; stroke: #000000; stroke-width: 0.5; stroke-linejoin: miter; stroke-linecap: square"/>
   </g>
   <g id="patch_5">
    <path d="M 4.72 33.460157 
L 22.294803 33.460157 
" style="fill: none; stroke: #000000; stroke-width: 0.5; stroke-linejoin: miter; stroke-linecap: square"/>
   </g>
   <g id="patch_6">
    <path d="M 4.72 0.72 
L 22.294803 0.72 
" style="fill: none; stroke: #000000; stroke-width: 0.5; stroke-linejoin: miter; stroke-linecap: square"/>
   </g>
  </g>
  <g id="axes_3">
   <g id="patch_7">
    <path d="M 75.019213 33.460157 
L 92.594016 33.460157 
L 92.594016 0.72 
L 75.019213 0.72 
L 75.019213 33.460157 
z
" style="fill: none"/>
   </g>
   <g id="matplotlib.axis_5"/>
   <g id="matplotlib.axis_6"/>
   <g id="matplotlib.axis_7"/>
   <g id="matplotlib.axis_8"/>
   <g id="line2d_3">
    <path d="M 74.996804 18.713473 
L 75.568 21.38351 
L 75.611938 21.401037 
L 75.831628 21.972063 
L 76.007381 22.138373 
L 76.183133 22.161236 
L 76.534638 21.487376 
L 77.677029 15.779454 
L 78.11641 13.506176 
L 78.511853 12.215571 
L 78.995172 11.900431 
L 79.214862 12.278214 
L 79.74212 14.408693 
L 80.972387 20.92486 
L 81.279953 21.756066 
L 81.543582 22.1592 
L 81.58752 22.095731 
L 81.895087 21.846717 
L 82.026901 21.519892 
L 82.729911 18.449601 
L 83.740487 13.04986 
L 83.784425 12.995631 
L 84.048054 12.177011 
L 84.223806 11.925216 
L 84.267745 11.97326 
L 84.399559 11.847863 
L 84.443497 11.904276 
L 84.619249 12.124315 
L 84.707126 12.243688 
L 85.014692 13.296081 
L 85.410135 15.206474 
L 86.860093 21.968686 
L 87.035845 22.174899 
L 87.16766 22.046351 
L 87.211598 22.09631 
L 87.255536 22.085302 
L 88.046422 19.517885 
L 88.617617 16.232174 
L 88.79337 15.32622 
L 89.188813 13.33789 
L 89.408503 12.589354 
L 89.672132 12.00813 
L 89.760008 11.994198 
L 89.847884 11.841744 
L 89.891822 11.876236 
L 90.155451 12.126268 
L 90.682708 13.982351 
L 90.814522 14.641431 
L 91.297842 17.267108 
L 92.000851 20.9433 
L 92.352356 21.862261 
L 92.615985 22.129924 
L 92.615985 22.129924 
" clip-path="url(#pe825b48cf4)" style="fill: none; stroke: #b3c8cd; stroke-width: 0.4; stroke-linecap: square"/>
   </g>
   <g id="line2d_4">
    <path d="M 74.996804 12.163228 
L 76.051319 8.973408 
L 76.095257 25.234848 
L 76.183133 24.953571 
L 77.017957 22.481665 
L 77.369462 21.381833 
L 77.545214 20.88394 
L 78.11641 19.180839 
L 78.643667 17.651822 
L 79.126986 16.240272 
L 81.543582 9.042821 
L 81.58752 25.260388 
L 81.675396 25.029605 
L 82.29053 23.206715 
L 82.773849 21.742962 
L 84.267745 17.327216 
L 84.443497 16.790101 
L 87.079783 8.946672 
L 87.123722 25.217931 
L 87.211598 25.003223 
L 87.738855 23.384977 
L 89.100936 19.369329 
L 89.584255 17.891748 
L 89.803946 17.312719 
L 90.287265 15.82591 
L 90.594832 14.975934 
L 92.528109 9.221741 
L 92.615985 8.948011 
L 92.615985 8.948011 
" clip-path="url(#pe825b48cf4)" style="fill: none; stroke: #811c35; stroke-width: 0.4; stroke-linecap: square"/>
   </g>
   <g id="patch_8">
    <path d="M 92.594016 33.460157 
L 92.594016 0.72 
" style="fill: none; stroke: #000000; stroke-width: 0.5; stroke-linejoin: miter; stroke-linecap: square"/>
   </g>
   <g id="patch_9">
    <path d="M 75.019213 33.460157 
L 75.019213 0.72 
" style="fill: none; stroke: #ffffff; stroke-width: 0.5; stroke-linejoin: miter; stroke-linecap: square"/>
   </g>
   <g id="patch_10">
    <path d="M 75.019213 33.460157 
L 92.594016 33.460157 
" style="fill: none; stroke: #000000; stroke-width: 0.5; stroke-linejoin: miter; stroke-linecap: square"/>
   </g>
   <g id="patch_11">
    <path d="M 75.019213 0.72 
L 92.594016 0.72 
" style="fill: none; stroke: #000000; stroke-width: 0.5; stroke-linejoin: miter; stroke-linecap: square"/>
   </g>
  </g>
  <g id="axes_4">
   <g id="patch_12">
    <path d="M 22.294803 33.460157 
L 75.019213 33.460157 
L 75.019213 0.72 
L 22.294803 0.72 
L 22.294803 33.460157 
z
" style="fill: none"/>
   </g>
   <g id="matplotlib.axis_9"/>
   <g id="matplotlib.axis_10"/>
   <g id="matplotlib.axis_11"/>
   <g id="matplotlib.axis_12"/>
   <g id="line2d_5">
    <path d="M 22.292084 12.447163 
L 22.399184 30.807186 
L 22.45136 24.209179 
L 22.566698 3.353942 
L 22.624366 10.209795 
L 22.736958 30.597888 
L 22.797373 23.407761 
L 22.909964 3.571631 
L 22.967633 10.285754 
L 23.085717 30.276034 
L 23.135147 24.435639 
L 23.255977 3.838102 
L 23.310899 10.58333 
L 23.423491 30.059779 
L 23.483906 23.109745 
L 23.593751 4.063946 
L 23.654166 10.602853 
L 23.769503 29.831027 
L 23.82168 24.08084 
L 23.939763 4.273115 
L 24.002924 11.991636 
L 24.11277 29.652066 
L 24.164946 23.922223 
L 24.28303 4.525854 
L 24.343445 11.491842 
L 24.456036 29.4097 
L 24.513705 22.843944 
L 24.629043 4.700518 
L 24.678473 9.962791 
L 24.799303 29.252467 
L 24.854225 23.32547 
L 24.972309 4.879283 
L 25.027232 10.998944 
L 25.142569 29.040032 
L 25.191999 24.195547 
L 25.310083 5.073673 
L 25.370498 11.173739 
L 25.488582 28.826835 
L 25.543504 22.556483 
L 25.65335 5.267404 
L 25.713765 11.213472 
L 25.829102 28.687522 
L 25.884025 23.160555 
L 26.002108 5.407584 
L 26.051539 10.196373 
L 26.172368 28.556288 
L 26.230037 22.493881 
L 26.345375 5.583073 
L 26.40579 12.228903 
L 26.515635 28.341786 
L 26.570558 22.988315 
L 26.683149 5.788547 
L 26.751802 12.717029 
L 26.856155 28.180368 
L 26.913824 22.98661 
L 27.031908 5.888378 
L 27.092323 12.31144 
L 27.202168 28.074702 
L 27.265329 21.573175 
L 27.372428 6.019504 
L 27.432843 11.708464 
L 27.545434 27.94885 
L 27.605849 21.99821 
L 27.718441 6.143341 
L 27.781602 12.720364 
L 27.888701 27.825489 
L 27.943623 23.054627 
L 28.056215 6.373247 
L 28.119376 11.650812 
L 28.234713 27.665407 
L 28.289636 22.539786 
L 28.402227 6.44705 
L 28.462642 11.624029 
L 28.575234 27.546476 
L 28.630156 23.044104 
L 28.74824 6.558188 
L 28.811401 12.64338 
L 28.921246 27.458585 
L 28.984407 21.249836 
L 29.094253 6.66749 
L 29.149175 11.617958 
L 29.261767 27.289842 
L 29.322181 22.254378 
L 29.440265 6.760084 
L 29.489696 11.242803 
L 29.607779 27.164597 
L 29.673686 20.934261 
L 29.778039 6.905848 
L 29.830216 10.689793 
L 29.953792 27.110572 
L 30.005968 22.743631 
L 30.129544 7.029012 
L 30.176228 11.125468 
L 30.297058 26.993145 
L 30.357473 21.496679 
L 30.467318 7.097768 
L 30.522241 11.43204 
L 30.640325 26.907837 
L 30.692501 22.759382 
L 30.816077 7.21278 
L 30.871 12.257387 
L 30.980845 26.776514 
L 31.038514 22.442336 
L 31.159344 7.288972 
L 31.21152 11.799921 
L 31.324111 26.634422 
L 31.38178 22.444054 
L 31.50261 7.400447 
L 31.565771 13.483839 
L 31.675616 26.566251 
L 31.727793 22.151148 
L 31.84313 7.47497 
L 31.898053 11.718643 
L 32.016137 26.525787 
L 32.076552 21.448514 
L 32.189143 7.568943 
L 32.238573 11.204395 
L 32.362149 26.352587 
L 32.417072 21.868115 
L 32.529663 7.661589 
L 32.592824 12.809864 
L 32.708162 26.318595 
L 32.774069 19.892852 
L 32.87293 7.767257 
L 32.930598 11.794773 
L 33.054174 26.219519 
L 33.106351 21.638969 
L 33.221688 7.835193 
L 33.279357 12.513098 
L 33.391949 26.144731 
L 33.441379 22.766656 
L 33.573193 7.976706 
L 33.62537 12.885103 
L 33.735215 26.099403 
L 33.798376 21.053298 
L 33.908221 7.970784 
L 33.960398 11.616807 
L 34.081228 25.997476 
L 34.133404 22.211877 
L 34.25698 8.100029 
L 34.314649 13.098111 
L 34.42724 25.92004 
L 34.476671 22.261134 
L 34.5975 8.161132 
L 34.660661 13.33337 
L 34.770507 25.888134 
L 34.819937 22.408747 
L 34.946259 8.232186 
L 35.003928 13.30139 
L 35.111027 25.774653 
L 35.168696 21.794109 
L 35.289526 8.268937 
L 35.33621 11.742537 
L 35.462532 25.68866 
L 35.517454 21.050968 
L 35.635538 8.397764 
L 35.684969 12.318071 
L 35.79756 25.616972 
L 35.860721 21.213149 
L 35.976058 8.438265 
L 36.033727 13.015247 
L 36.146319 25.54552 
L 36.201241 21.684153 
L 36.324817 8.518441 
L 36.371501 12.169922 
L 36.495077 25.488798 
L 36.555492 20.229014 
L 36.662591 8.557784 
L 36.717514 12.365396 
L 36.832852 25.463101 
L 36.885028 22.188332 
L 37.003112 8.628449 
L 37.058034 11.965096 
L 37.176118 25.390075 
L 37.233787 21.585 
L 37.354617 8.659369 
L 37.406793 12.610429 
L 37.524877 25.348046 
L 37.579799 21.316519 
L 37.700629 8.75683 
L 37.747313 12.21179 
L 37.862651 25.219709 
L 37.93405 19.883902 
L 38.038403 8.808391 
L 38.10431 13.902827 
L 38.216902 25.169333 
L 38.269078 21.152963 
L 38.384416 8.864349 
L 38.444831 13.422344 
L 38.55193 25.130236 
L 38.617837 20.502101 
L 38.733175 8.943524 
L 38.785351 12.845765 
L 38.903435 25.094092 
L 38.950119 21.952852 
L 39.073695 8.97655 
L 39.136856 13.884685 
L 39.241209 25.036275 
L 39.307116 20.460668 
L 39.416961 8.98851 
L 39.466392 12.072012 
L 39.589968 24.944253 
L 39.650383 20.548072 
L 39.762974 9.046549 
L 39.817897 12.924582 
L 39.941473 24.87344 
L 39.985411 21.628283 
L 40.100748 9.161078 
L 40.169401 13.918526 
L 40.284739 24.860931 
L 40.342408 20.12068 
L 40.452253 9.152402 
L 40.501683 12.44748 
L 40.625259 24.823639 
L 40.680182 20.960368 
L 40.792773 9.211093 
L 40.839458 11.710941 
L 40.96578 24.763777 
L 41.039925 18.903456 
L 41.138786 9.279082 
L 41.188216 12.20934 
L 41.314538 24.751307 
L 41.380446 19.425786 
L 41.479306 9.321705 
L 41.531483 12.065316 
L 41.652313 24.706072 
L 41.709981 21.151282 
L 41.825319 9.341329 
L 41.891226 13.870401 
L 42.001071 24.6058 
L 42.055994 20.935773 
L 42.168585 9.409393 
L 42.239985 14.461007 
L 42.347084 24.569426 
L 42.39926 21.173225 
L 42.511852 9.478501 
L 42.566774 12.476824 
L 42.687604 24.545034 
L 42.753511 19.878868 
L 42.863357 9.505652 
L 42.918279 13.253648 
L 43.039109 24.483936 
L 43.094032 20.315427 
L 43.212115 9.564181 
L 43.261546 13.183889 
L 43.374137 24.474819 
L 43.437298 20.523063 
L 43.54989 9.575331 
L 43.607558 13.352682 
L 43.722896 24.445341 
L 43.780565 20.589504 
L 43.895902 9.607482 
L 43.950825 13.241562 
L 44.071655 24.351738 
L 44.121085 21.054508 
L 44.236422 9.723753 
L 44.299583 13.752427 
L 44.409429 24.292292 
L 44.461605 21.506993 
L 44.579689 9.707996 
L 44.629119 12.066872 
L 44.749949 24.272858 
L 44.815856 20.255252 
L 44.931194 9.75043 
L 44.988863 13.77497 
L 45.095962 24.218668 
L 45.159123 20.478653 
L 45.271714 9.827624 
L 45.321144 12.481066 
L 45.44472 24.22878 
L 45.499643 20.865272 
L 45.620473 9.820858 
L 45.672649 13.241583 
L 45.787987 24.186165 
L 45.851148 20.103004 
L 45.963739 9.84463 
L 46.018662 13.415317 
L 46.133999 24.162359 
L 46.188922 20.845163 
L 46.30426 9.93412 
L 46.359182 13.012575 
L 46.480012 24.109152 
L 46.529442 21.255326 
L 46.655764 9.947171 
L 46.705195 13.187639 
L 46.823278 24.053075 
L 46.886439 19.803944 
L 46.990792 10.023333 
L 47.053954 13.638986 
L 47.172037 23.995004 
L 47.221468 20.838558 
L 47.339551 10.041394 
L 47.391728 12.973455 
L 47.515304 23.999084 
L 47.561988 21.188528 
L 47.691056 10.096314 
L 47.745979 14.009762 
L 47.855824 23.95986 
L 47.905254 21.271109 
L 48.026084 10.108583 
L 48.091991 14.192035 
L 48.201837 23.955109 
L 48.251267 21.111123 
L 48.374843 10.123189 
L 48.438004 14.509899 
L 48.547849 23.873112 
L 48.600026 20.663576 
L 48.718109 10.126448 
L 48.784016 14.552395 
L 48.891116 23.870692 
L 48.943292 20.809794 
L 49.05863 10.200795 
L 49.116298 13.329661 
L 49.234382 23.853884 
L 49.303035 19.101619 
L 49.401896 10.243412 
L 49.467803 14.038888 
L 49.577649 23.816275 
L 49.629825 20.978032 
L 49.753401 10.278112 
L 49.822054 15.226757 
L 49.926407 23.777737 
L 49.984076 19.993754 
L 50.093921 10.290185 
L 50.159828 14.380696 
L 50.266928 23.724979 
L 50.319104 20.961384 
L 50.439934 10.307251 
L 50.508587 14.817253 
L 50.610194 23.719522 
L 50.662371 21.149273 
L 50.788693 10.338965 
L 50.843615 13.865896 
L 50.958953 23.651457 
L 51.019368 19.736157 
L 51.131959 10.358899 
L 51.186882 13.669679 
L 51.304965 23.623361 
L 51.357142 20.508556 
L 51.477972 10.404867 
L 51.53564 14.238264 
L 51.648232 23.610196 
L 51.714139 19.153007 
L 51.821238 10.422214 
L 51.867922 12.982901 
L 51.986006 23.552885 
L 52.054659 19.642415 
L 52.164505 10.449173 
L 52.213935 13.114781 
L 52.340257 23.521242 
L 52.389687 20.561098 
L 52.505025 10.476612 
L 52.56544 13.838628 
L 52.680777 23.512045 
L 52.732954 20.733315 
L 52.851037 10.51039 
L 52.90596 13.397652 
L 53.024044 23.504755 
L 53.081712 20.262462 
L 53.19705 10.555347 
L 53.251973 13.506206 
L 53.375549 23.448122 
L 53.424979 20.343828 
L 53.53757 10.580747 
L 53.611716 15.110866 
L 53.713323 23.439235 
L 53.762753 21.089199 
L 53.886329 10.585139 
L 53.941252 13.555047 
L 54.056589 23.408188 
L 54.10602 21.112596 
L 54.229596 10.63398 
L 54.295503 14.535813 
L 54.399856 23.362282 
L 54.457524 20.544752 
L 54.578354 10.706554 
L 54.622292 12.874708 
L 54.748614 23.360405 
L 54.803537 20.322867 
L 54.918875 10.683716 
L 54.976543 13.837312 
L 55.086389 23.318824 
L 55.160534 19.071758 
L 55.262141 10.770895 
L 55.31981 13.622779 
L 55.437893 23.313764 
L 55.498308 19.733848 
L 55.608154 10.739046 
L 55.66033 13.232892 
L 55.78116 23.298819 
L 55.827844 21.194189 
L 55.95142 10.784547 
L 56.014581 14.242141 
L 56.12168 23.244309 
L 56.184841 19.951897 
L 56.297433 10.800566 
L 56.352355 13.606374 
L 56.475931 23.192842 
L 56.539092 18.938429 
L 56.640699 10.817674 
L 56.701114 13.952718 
L 56.816452 23.222467 
L 56.863136 21.050481 
L 56.989458 10.824596 
L 57.03065 12.684848 
L 57.162464 23.166999 
L 57.222879 19.611056 
L 57.329978 10.894772 
L 57.384901 13.56241 
L 57.497492 23.10808 
L 57.568892 19.441098 
L 57.673245 10.883502 
L 57.722675 12.927567 
L 57.846251 23.127481 
L 57.923143 18.353267 
L 58.027496 10.948552 
L 58.076926 13.800417 
L 58.192263 23.060569 
L 58.249932 20.135744 
L 58.36527 10.976996 
L 58.431177 14.729759 
L 58.538276 23.105449 
L 58.601437 19.550204 
L 58.708536 10.964188 
L 58.763459 13.566149 
L 58.887035 23.0712 
L 58.952942 18.795574 
L 59.051803 10.999309 
L 59.114964 14.247094 
L 59.227555 23.063874 
L 59.290716 19.563569 
L 59.403308 11.009927 
L 59.452738 13.528597 
L 59.573568 22.958025 
L 59.625744 20.454468 
L 59.738336 11.057818 
L 59.793258 13.181735 
L 59.916834 23.014405 
L 59.977249 19.704129 
L 60.084348 11.068455 
L 60.16124 15.49642 
L 60.262847 22.974619 
L 60.317769 20.127759 
L 60.430361 11.078976 
L 60.496268 14.498958 
L 60.603367 22.90733 
L 60.655544 20.742354 
L 60.781866 11.080153 
L 60.831296 13.637761 
L 60.954872 22.907232 
L 61.018033 19.101129 
L 61.125132 11.098315 
L 61.177309 13.696888 
L 61.2899 22.883553 
L 61.347569 20.533265 
L 61.473891 11.149948 
L 61.517829 13.32844 
L 61.644151 22.880529 
L 61.70182 19.604301 
L 61.814411 11.150463 
L 61.87208 14.318178 
L 61.987417 22.796327 
L 62.045086 19.659668 
L 62.16317 11.18806 
L 62.220839 14.675417 
L 62.330684 22.868686 
L 62.399337 18.843609 
L 62.506436 11.186662 
L 62.555867 13.725113 
L 62.682189 22.779855 
L 62.726127 20.379105 
L 62.841464 11.224805 
L 62.912864 14.899928 
L 63.014471 22.769016 
L 63.072139 20.259583 
L 63.195715 11.235357 
L 63.269861 16.180924 
L 63.363229 22.752338 
L 63.415406 20.366924 
L 63.538982 11.246868 
L 63.593904 14.106828 
L 63.709242 22.772936 
L 63.761418 20.327914 
L 63.879502 11.331411 
L 63.931679 13.489631 
L 64.049762 22.751689 
L 64.110177 19.967119 
L 64.222769 11.31359 
L 64.277691 13.62818 
L 64.398521 22.744381 
L 64.447951 20.55499 
L 64.57702 11.359677 
L 64.620958 13.575891 
L 64.741787 22.727577 
L 64.793964 20.393417 
L 64.912048 11.372128 
L 64.975209 14.397288 
L 65.085054 22.638087 
L 65.13723 20.514655 
L 65.25806 11.353404 
L 65.321221 14.551801 
L 65.431066 22.65182 
L 65.488735 19.914313 
L 65.612311 11.408021 
L 65.656249 13.641963 
L 65.777079 22.657365 
L 65.834748 19.751486 
L 65.947339 11.375305 
L 66.013246 14.78398 
L 66.128584 22.589683 
L 66.18076 19.74929 
L 66.296098 11.405196 
L 66.340036 13.317888 
L 66.469104 22.573587 
L 66.526773 19.551928 
L 66.642111 11.416924 
L 66.691541 13.796697 
L 66.809625 22.546822 
L 66.864547 20.147858 
L 66.985377 11.425698 
L 67.048538 14.938577 
L 67.155637 22.569567 
L 67.216052 19.607836 
L 67.323151 11.478921 
L 67.375328 13.448578 
L 67.498904 22.556217 
L 67.570303 18.636108 
L 67.674656 11.48891 
L 67.732325 14.377037 
L 67.844916 22.550437 
L 67.8916 20.644678 
L 68.020669 11.482341 
L 68.092068 15.772079 
L 68.196421 22.489737 
L 68.237613 20.541617 
L 68.361189 11.566734 
L 68.421604 14.367549 
L 68.531449 22.490902 
L 68.586372 20.301904 
L 68.709948 11.532517 
L 68.76487 14.228928 
L 68.882954 22.471278 
L 68.924146 20.825514 
L 69.053214 11.526374 
L 69.099898 13.501902 
L 69.223474 22.441486 
L 69.286635 19.360902 
L 69.396481 11.574786 
L 69.445911 13.706169 
L 69.563995 22.438054 
L 69.632648 19.231712 
L 69.739747 11.568925 
L 69.791924 13.771424 
L 69.915499 22.431005 
L 69.975914 19.316305 
L 70.08576 11.621292 
L 70.148921 14.719713 
L 70.258766 22.438751 
L 70.30545 20.585745 
L 70.42628 11.618624 
L 70.483949 13.954463 
L 70.607525 22.416931 
L 70.66794 19.026617 
L 70.775039 11.607072 
L 70.8382 14.830786 
L 70.950791 22.40406 
L 71.011206 19.246691 
L 71.121051 11.67213 
L 71.173228 13.900251 
L 71.291311 22.379064 
L 71.33525 20.791744 
L 71.461572 11.652886 
L 71.530225 15.076663 
L 71.637324 22.366041 
L 71.703231 19.022747 
L 71.81033 11.670886 
L 71.859761 13.737773 
L 71.986083 22.297066 
L 72.035513 20.068413 
L 72.161835 11.743017 
L 72.216758 14.758271 
L 72.326603 22.279918 
L 72.376033 20.263974 
L 72.499609 11.687276 
L 72.579247 16.355839 
L 72.66987 22.326283 
L 72.727538 19.794589 
L 72.845622 11.741768 
L 72.900545 14.217655 
L 73.015882 22.313908 
L 73.05982 20.73916 
L 73.191635 11.754745 
L 73.241065 13.934335 
L 73.359149 22.294705 
L 73.42231 19.402902 
L 73.540393 11.779362 
L 73.589824 14.321976 
L 73.705161 22.268259 
L 73.76283 19.699913 
L 73.88366 11.797208 
L 73.927598 13.733909 
L 74.048428 22.263079 
L 74.111589 19.394897 
L 74.218688 11.819271 
L 74.268118 13.468833 
L 74.397186 22.196722 
L 74.46584 18.50274 
L 74.570193 11.794035 
L 74.616877 13.724505 
L 74.740453 22.214004 
L 74.800868 19.361732 
L 74.918951 11.831725 
L 74.979366 15.261306 
L 75.020558 18.962484 
L 75.020558 18.962484 
" clip-path="url(#p21b4d73c53)" style="fill: none; stroke: #b3c8cd; stroke-width: 0.05; stroke-linecap: square"/>
   </g>
   <g id="line2d_6">
    <path d="M 22.292084 13.886722 
L 22.393691 8.993442 
L 22.396437 25.242954 
L 22.506283 19.995872 
L 22.736958 8.986722 
L 22.739704 25.229304 
L 22.849549 19.976932 
L 23.080224 8.982447 
L 23.08297 25.228398 
L 23.192816 19.968619 
L 23.423491 8.979282 
L 23.426237 25.220119 
L 23.536082 19.957683 
L 23.766757 8.984856 
L 23.769503 25.213757 
L 23.879349 19.95589 
L 24.110024 8.976206 
L 24.11277 25.197867 
L 24.222615 19.958534 
L 24.45329 8.976389 
L 24.456036 25.208456 
L 24.565881 19.94959 
L 24.796557 8.982752 
L 24.799303 25.207419 
L 24.909148 19.97572 
L 25.139823 8.983979 
L 25.142569 25.217368 
L 25.252414 19.969289 
L 25.483089 8.987101 
L 25.485836 25.231087 
L 25.595681 19.985282 
L 25.826356 8.993185 
L 25.829102 25.240114 
L 25.938947 19.992338 
L 26.169622 9.003119 
L 26.172368 25.239004 
L 26.282214 19.996938 
L 26.512889 9.021242 
L 26.515635 25.258188 
L 26.62548 20.007747 
L 26.858901 8.905762 
L 26.861648 25.139659 
L 26.971493 19.903522 
L 27.202168 8.938627 
L 27.204914 25.159916 
L 27.314759 19.946599 
L 27.545434 8.944251 
L 27.54818 25.194912 
L 27.658026 19.942341 
L 27.888701 8.96516 
L 27.891447 25.208013 
L 28.001292 19.965851 
L 28.231967 8.983145 
L 28.234713 25.225951 
L 28.344559 20.001058 
L 28.575234 9.022106 
L 28.57798 25.248279 
L 28.687825 20.000802 
L 28.921246 8.91935 
L 28.923992 25.125284 
L 29.033838 19.909348 
L 29.264513 8.927091 
L 29.267259 25.18995 
L 29.377104 19.956552 
L 29.607779 8.967115 
L 29.610525 25.19814 
L 29.720371 19.968377 
L 29.951046 9.021369 
L 29.953792 25.234525 
L 30.063637 19.983221 
L 30.297058 8.90929 
L 30.299804 25.131305 
L 30.40965 19.90162 
L 30.640325 8.938719 
L 30.643071 25.15411 
L 30.752916 19.928867 
L 30.983591 8.958088 
L 30.986337 25.193913 
L 31.096183 19.976137 
L 31.326858 8.995182 
L 31.329604 25.22871 
L 31.439449 19.987103 
L 31.67287 8.908208 
L 31.675616 25.153568 
L 31.785462 19.910475 
L 32.016137 8.951024 
L 32.018883 25.146898 
L 32.128728 19.91588 
L 32.359403 8.978734 
L 32.362149 25.214062 
L 32.471994 19.961468 
L 32.70267 9.013002 
L 32.705416 25.270714 
L 32.815261 20.002888 
L 33.048682 8.911278 
L 33.051428 25.176774 
L 33.161274 19.920899 
L 33.391949 8.962176 
L 33.394695 25.205295 
L 33.50454 19.949564 
L 33.735215 8.989151 
L 33.737961 25.242178 
L 33.847806 19.993478 
L 34.081228 8.914919 
L 34.083974 25.146659 
L 34.193819 19.910821 
L 34.424494 8.975333 
L 34.42724 25.179428 
L 34.537085 19.955162 
L 34.767761 9.003572 
L 34.770507 25.248575 
L 34.880352 20.002902 
L 35.113773 8.905582 
L 35.116519 25.17631 
L 35.226365 19.907775 
L 35.45704 8.956558 
L 35.459786 25.214018 
L 35.569631 19.945978 
L 35.800306 8.9891 
L 35.803052 25.233549 
L 35.912897 20.024521 
L 36.146319 8.921774 
L 36.149065 25.163571 
L 36.25891 19.932383 
L 36.489585 8.97165 
L 36.492331 25.215568 
L 36.602176 19.95325 
L 36.832852 9.016229 
L 36.835598 25.226661 
L 36.945443 20.023034 
L 37.176118 9.04838 
L 37.178864 25.26836 
L 37.288709 20.059118 
L 37.522131 8.997032 
L 37.524877 25.223116 
L 37.634722 19.982178 
L 37.868143 8.909105 
L 37.870889 25.134808 
L 37.980735 19.896805 
L 38.21141 8.945482 
L 38.214156 25.198958 
L 38.324001 19.933301 
L 38.554676 8.986291 
L 38.557422 25.256572 
L 38.667267 20.005194 
L 38.900689 8.928269 
L 38.903435 25.170713 
L 39.01328 19.919798 
L 39.243955 8.956103 
L 39.246701 25.186057 
L 39.356547 19.967858 
L 39.587222 9.024177 
L 39.589968 25.267679 
L 39.699813 20.02016 
L 39.933234 8.93177 
L 39.93598 25.187118 
L 40.045826 19.936985 
L 40.276501 8.989078 
L 40.279247 25.214386 
L 40.389092 19.960486 
L 40.622513 8.925943 
L 40.625259 25.15729 
L 40.735105 19.907801 
L 40.96578 8.977061 
L 40.968526 25.190784 
L 41.078371 19.948166 
L 41.311792 8.907101 
L 41.314538 25.142748 
L 41.424384 19.886573 
L 41.655059 8.911066 
L 41.657805 25.183723 
L 41.76765 19.950198 
L 41.998325 9.017475 
L 42.001071 25.263075 
L 42.110917 19.990907 
L 42.344338 8.916972 
L 42.347084 25.175793 
L 42.456929 19.924681 
L 42.687604 8.977707 
L 42.69035 25.197331 
L 42.800196 19.962023 
L 43.030871 9.036797 
L 43.033617 25.272493 
L 43.143462 20.033085 
L 43.376883 8.92163 
L 43.379629 25.173417 
L 43.489475 19.968001 
L 43.72015 9.046443 
L 43.722896 25.253871 
L 43.832741 20.032895 
L 44.066162 8.925135 
L 44.068908 25.190613 
L 44.178754 19.932174 
L 44.409429 8.98352 
L 44.412175 25.222678 
L 44.52202 19.98329 
L 44.755441 8.905415 
L 44.758187 25.158804 
L 44.868033 19.896548 
L 45.098708 8.955183 
L 45.101454 25.242522 
L 45.211299 19.960501 
L 45.44472 8.940925 
L 45.447467 25.120342 
L 45.557312 19.881176 
L 45.787987 8.960788 
L 45.790733 25.204651 
L 45.900578 19.973005 
L 46.131253 9.036587 
L 46.133999 25.261911 
L 46.243845 20.043233 
L 46.477266 8.978953 
L 46.480012 25.175306 
L 46.589857 19.971167 
L 46.820532 9.015773 
L 46.823278 25.230705 
L 46.933124 19.997573 
L 47.166545 8.932996 
L 47.169291 25.182019 
L 47.279136 19.95252 
L 47.509811 8.981038 
L 47.512558 25.243132 
L 47.622403 19.971446 
L 47.855824 8.923062 
L 47.85857 25.152895 
L 47.968415 19.911463 
L 48.19909 8.995628 
L 48.201837 25.240408 
L 48.311682 19.966252 
L 48.545103 8.936951 
L 48.547849 25.153424 
L 48.657694 19.933269 
L 48.888369 8.993177 
L 48.891116 25.246277 
L 49.000961 19.990882 
L 49.231636 9.047284 
L 49.234382 25.266301 
L 49.344227 20.036383 
L 49.577649 8.953027 
L 49.580395 25.181289 
L 49.69024 19.987972 
L 49.923661 8.921251 
L 49.926407 25.170149 
L 50.036252 19.918282 
L 50.266928 8.967032 
L 50.269674 25.176774 
L 50.379519 19.949591 
L 50.610194 9.010885 
L 50.61294 25.245556 
L 50.722785 20.009766 
L 50.956207 8.98165 
L 50.958953 25.161589 
L 51.068798 19.93821 
L 51.299473 9.003762 
L 51.302219 25.237682 
L 51.412064 20.014241 
L 51.645486 8.948958 
L 51.648232 25.204568 
L 51.758077 19.955555 
L 51.988752 8.997453 
L 51.991498 25.25453 
L 52.101343 20.004169 
L 52.334765 8.922285 
L 52.337511 25.194921 
L 52.447356 19.945142 
L 52.678031 9.021661 
L 52.680777 25.263453 
L 52.790623 19.999394 
L 53.024044 8.923968 
L 53.02679 25.15965 
L 53.136635 19.914203 
L 53.36731 9.000106 
L 53.370056 25.252641 
L 53.479902 19.986402 
L 53.713323 8.962023 
L 53.716069 25.153143 
L 53.825914 19.924496 
L 54.056589 8.989689 
L 54.059335 25.21718 
L 54.169181 20.013522 
L 54.402602 8.910111 
L 54.405348 25.173722 
L 54.515193 19.902266 
L 54.745868 9.016474 
L 54.748614 25.246001 
L 54.85846 20.020369 
L 55.091881 8.95353 
L 55.094627 25.156631 
L 55.204472 19.918675 
L 55.435147 9.003166 
L 55.437893 25.246633 
L 55.547739 20.011109 
L 55.78116 8.906704 
L 55.783906 25.139211 
L 55.893751 19.952649 
L 56.124426 8.971849 
L 56.127172 25.219109 
L 56.237018 19.960966 
L 56.470439 8.940059 
L 56.473185 25.202944 
L 56.58303 19.922489 
L 56.813705 8.992009 
L 56.816452 25.237708 
L 56.926297 19.991229 
L 57.159718 8.928404 
L 57.162464 25.151919 
L 57.272309 19.949434 
L 57.502984 8.990464 
L 57.505731 25.24526 
L 57.615576 19.995369 
L 57.848997 8.918248 
L 57.851743 25.151941 
L 57.961588 19.927258 
L 58.192263 8.979693 
L 58.19501 25.225927 
L 58.304855 20.007529 
L 58.538276 8.906961 
L 58.541022 25.179832 
L 58.650867 19.898909 
L 58.799159 12.953101 
L 58.881543 8.99409 
L 58.884289 25.274049 
L 58.994134 19.981955 
L 59.227555 8.922081 
L 59.230301 25.128528 
L 59.340147 19.9483 
L 59.570822 8.993926 
L 59.573568 25.233276 
L 59.683413 20.027213 
L 59.916834 8.913724 
L 59.91958 25.167796 
L 60.029426 19.910348 
L 60.260101 9.009257 
L 60.262847 25.230254 
L 60.372692 20.00797 
L 60.606113 8.916321 
L 60.608859 25.175346 
L 60.718705 19.913338 
L 60.94938 8.962807 
L 60.952126 25.269789 
L 61.061971 20.00984 
L 61.295392 8.964279 
L 61.298138 25.182015 
L 61.407984 19.957644 
L 61.638659 9.012541 
L 61.641405 25.251432 
L 61.75125 19.98633 
L 61.984671 8.95465 
L 61.987417 25.18645 
L 62.097263 19.960149 
L 62.327938 9.043324 
L 62.330684 25.252902 
L 62.440529 20.026627 
L 62.67395 8.9351 
L 62.676696 25.203738 
L 62.786542 19.975404 
L 63.017217 8.986548 
L 63.019963 25.254672 
L 63.129808 20.026707 
L 63.363229 8.934756 
L 63.365975 25.165331 
L 63.475821 19.92748 
L 63.706496 9.042408 
L 63.709242 25.235546 
L 63.819087 20.03114 
L 64.052508 8.950878 
L 64.055255 25.19016 
L 64.1651 19.973247 
L 64.395775 9.059952 
L 64.398521 25.256373 
L 64.508366 20.0186 
L 64.741787 8.954607 
L 64.744534 25.19178 
L 64.854379 19.948904 
L 65.085054 9.034837 
L 65.0878 25.257692 
L 65.197645 20.032264 
L 65.431066 8.962277 
L 65.433813 25.197612 
L 65.543658 19.955759 
L 65.777079 8.919713 
L 65.779825 25.107279 
L 65.88967 19.890296 
L 66.120346 8.99656 
L 66.123092 25.213027 
L 66.232937 19.973277 
L 66.466358 8.924795 
L 66.469104 25.165037 
L 66.57895 19.906157 
L 66.809625 9.00475 
L 66.812371 25.212794 
L 66.922216 19.97872 
L 67.155637 8.908227 
L 67.158383 25.156926 
L 67.268229 19.915179 
L 67.498904 8.96671 
L 67.50165 25.217627 
L 67.611495 20.021555 
L 67.844916 8.938563 
L 67.847662 25.165157 
L 67.957508 19.91648 
L 68.152483 10.730116 
L 68.188183 8.998992 
L 68.190929 25.232202 
L 68.300774 20.017311 
L 68.534195 8.928561 
L 68.536941 25.208193 
L 68.646787 19.949202 
L 68.877462 9.018866 
L 68.880208 25.251773 
L 68.990053 19.986186 
L 69.223474 8.95314 
L 69.22622 25.168898 
L 69.336066 19.954463 
L 69.566741 8.999881 
L 69.569487 25.260762 
L 69.679332 20.040391 
L 69.912753 8.999287 
L 69.915499 25.213436 
L 70.025345 19.960565 
L 70.258766 8.949483 
L 70.261512 25.098539 
L 70.371357 19.898346 
L 70.602032 8.9889 
L 70.604779 25.219917 
L 70.714624 19.944206 
L 70.948045 8.936439 
L 70.950791 25.159138 
L 71.060636 19.875713 
L 71.291311 8.998832 
L 71.294058 25.175411 
L 71.403903 19.958747 
L 71.637324 8.947511 
L 71.64007 25.155317 
L 71.749915 19.881494 
L 71.98059 9.013638 
L 71.983337 25.240673 
L 72.093182 19.996773 
L 72.326603 8.91144 
L 72.329349 25.152241 
L 72.439194 19.88816 
L 72.653393 9.815001 
L 72.66987 8.999639 
L 72.672616 25.231846 
L 72.782461 19.967301 
L 72.971944 11.100948 
L 73.015882 8.941158 
L 73.018628 25.130127 
L 73.128473 19.94124 
L 73.359149 9.002695 
L 73.361895 25.229978 
L 73.47174 20.03866 
L 73.705161 8.98652 
L 73.707907 25.191776 
L 73.817753 19.94418 
L 74.048428 9.018611 
L 74.051174 25.23877 
L 74.161019 19.993747 
L 74.39444 8.971079 
L 74.397186 25.20603 
L 74.507032 19.987064 
L 74.740453 8.960109 
L 74.743199 25.134549 
L 74.853044 19.916895 
L 75.020558 12.027926 
L 75.020558 12.027926 
" clip-path="url(#p21b4d73c53)" style="fill: none; stroke: #811c35; stroke-width: 0.05; stroke-linecap: square"/>
   </g>
   <g id="patch_13">
    <path d="M 75.019213 33.460157 
L 75.019213 0.72 
" style="fill: none; stroke: #ffffff; stroke-width: 0.5; stroke-linejoin: miter; stroke-linecap: square"/>
   </g>
   <g id="patch_14">
    <path d="M 22.294803 33.460157 
L 22.294803 0.72 
" style="fill: none; stroke: #ffffff; stroke-width: 0.5; stroke-linejoin: miter; stroke-linecap: square"/>
   </g>
   <g id="patch_15">
    <path d="M 22.294803 33.460157 
L 75.019213 33.460157 
" style="fill: none; stroke: #000000; stroke-width: 0.5; stroke-linejoin: miter; stroke-linecap: square"/>
   </g>
   <g id="patch_16">
    <path d="M 22.294803 0.72 
L 75.019213 0.72 
" style="fill: none; stroke: #000000; stroke-width: 0.5; stroke-linejoin: miter; stroke-linecap: square"/>
   </g>
  </g>
 </g>
 <defs>
  <clipPath id="p03d22e18fb">
   <rect x="4.72" y="0.72" width="17.574803" height="32.740157"/>
  </clipPath>
  <clipPath id="pe825b48cf4">
   <rect x="75.019213" y="0.72" width="17.574803" height="32.740157"/>
  </clipPath>
  <clipPath id="p21b4d73c53">
   <rect x="22.294803" y="0.72" width="52.724409" height="32.740157"/>
  </clipPath>
 </defs>
</svg>
