<?xml version="1.0" encoding="utf-8" standalone="no"?>
<!DOCTYPE svg PUBLIC "-//W3C//DTD SVG 1.1//EN"
  "http://www.w3.org/Graphics/SVG/1.1/DTD/svg11.dtd">
<svg xmlns:xlink="http://www.w3.org/1999/xlink" width="91.874016pt" height="32.740157pt" viewBox="0 0 91.874016 32.740157" xmlns="http://www.w3.org/2000/svg" version="1.1">
 <metadata>
  <rdf:RDF xmlns:dc="http://purl.org/dc/elements/1.1/" xmlns:cc="http://creativecommons.org/ns#" xmlns:rdf="http://www.w3.org/1999/02/22-rdf-syntax-ns#">
   <cc:Work>
    <dc:type rdf:resource="http://purl.org/dc/dcmitype/StillImage"/>
    <dc:date>2025-03-01T18:03:49.749885</dc:date>
    <dc:format>image/svg+xml</dc:format>
    <dc:creator>
     <cc:Agent>
      <dc:title>Matplotlib v3.7.5, https://matplotlib.org/</dc:title>
     </cc:Agent>
    </dc:creator>
   </cc:Work>
  </rdf:RDF>
 </metadata>
 <defs>
  <style type="text/css">*{stroke-linejoin: round; stroke-linecap: butt}</style>
 </defs>
 <g id="figure_1">
  <g id="patch_1">
   <path d="M 0 32.740157 
L 91.874016 32.740157 
L 91.874016 0 
L 0 0 
L 0 32.740157 
z
" style="fill: none"/>
  </g>
  <g id="axes_1"/>
  <g id="axes_2">
   <g id="patch_2">
    <path d="M 4 32.740157 
L 21.574803 32.740157 
L 21.574803 0 
L 4 0 
L 4 32.740157 
z
" style="fill: none"/>
   </g>
   <g id="matplotlib.axis_1"/>
   <g id="matplotlib.axis_2"/>
   <g id="line2d_1">
    <path d="M 4 1.363364 
L 4.175752 1.693578 
L 4.571195 4.483586 
L 5.186329 13.098222 
L 5.933277 25.142233 
L 6.372658 29.713443 
L 6.636286 30.931158 
L 6.724163 30.976197 
L 6.812039 31.012199 
L 6.987791 30.409244 
L 7.163544 29.228452 
L 7.295358 28.112713 
L 7.734739 22.416797 
L 8.921068 4.591977 
L 9.404387 1.795891 
L 9.58014 1.823552 
L 9.887706 3.265617 
L 10.195273 6.384794 
L 10.590716 12.049187 
L 11.908859 29.685846 
L 12.172488 30.728837 
L 12.436116 30.320352 
L 12.919436 26.300337 
L 13.534569 17.309251 
L 14.237579 6.695781 
L 14.633022 3.078305 
L 14.852712 2.222124 
L 14.940588 2.088981 
L 14.984527 2.114328 
L 15.072403 2.202106 
L 15.292093 3.079194 
L 15.59966 5.668029 
L 16.214794 14.353099 
L 17.093556 27.047693 
L 17.445061 29.71207 
L 17.664751 30.424723 
L 17.708689 30.395497 
L 17.972318 29.792992 
L 18.323823 26.967766 
L 18.895018 19.302216 
L 19.510152 9.755364 
L 19.993471 4.226066 
L 20.301037 2.552982 
L 20.344976 2.53415 
L 20.432852 2.301296 
L 20.47679 2.362625 
L 20.608604 2.524646 
L 21.1798 6.963813 
L 21.575243 12.47662 
L 21.575243 12.47662 
" clip-path="url(#paabd15e880)" style="fill: none; stroke: #b3c8cd; stroke-width: 0.4; stroke-linecap: square"/>
   </g>
   <g id="patch_3">
    <path d="M 4 32.740157 
L 4 0 
" style="fill: none; stroke: #ffffff; stroke-width: 0.5; stroke-linejoin: miter; stroke-linecap: square"/>
   </g>
   <g id="patch_4">
    <path d="M 21.574803 32.740157 
L 21.574803 0 
" style="fill: none; stroke: #ffffff; stroke-width: 0.5; stroke-linejoin: miter; stroke-linecap: square"/>
   </g>
   <g id="patch_5">
    <path d="M 4 32.740157 
L 21.574803 32.740157 
" style="fill: none; stroke: #ffffff; stroke-width: 0.5; stroke-linejoin: miter; stroke-linecap: square"/>
   </g>
   <g id="patch_6">
    <path d="M 4 0 
L 21.574803 0 
" style="fill: none; stroke: #ffffff; stroke-width: 0.5; stroke-linejoin: miter; stroke-linecap: square"/>
   </g>
  </g>
  <g id="axes_3">
   <g id="patch_7">
    <path d="M 74.299213 32.740157 
L 91.874016 32.740157 
L 91.874016 0 
L 74.299213 0 
L 74.299213 32.740157 
z
" style="fill: none"/>
   </g>
   <g id="matplotlib.axis_3"/>
   <g id="matplotlib.axis_4"/>
   <g id="line2d_2">
    <path d="M 74.276804 17.936549 
L 74.848 20.568552 
L 75.243443 21.448795 
L 75.419195 21.363179 
L 75.463133 21.403543 
L 75.507071 21.303104 
L 75.682824 21.13066 
L 75.946452 20.367577 
L 76.341895 18.4732 
L 76.473709 17.861579 
L 76.913091 15.211283 
L 77.923667 11.220358 
L 77.967605 11.288603 
L 78.011543 11.225308 
L 78.231234 11.167437 
L 78.450924 11.528578 
L 78.714553 12.258438 
L 79.285748 15.155783 
L 79.373624 15.633313 
L 80.64783 21.301289 
L 80.823582 21.411205 
L 81.043273 21.319986 
L 81.702344 19.360628 
L 82.581106 14.396285 
L 82.756859 13.506407 
L 83.19624 11.717525 
L 83.503806 11.237559 
L 83.547745 11.151856 
L 83.591683 11.207882 
L 83.943188 11.438722 
L 84.250754 12.376021 
L 84.470445 13.355841 
L 84.646197 14.154738 
L 84.953764 15.920593 
L 85.876464 20.536106 
L 86.184031 21.329358 
L 86.227969 21.263632 
L 86.271907 21.432151 
L 86.359783 21.402104 
L 86.491598 21.421664 
L 86.623412 21.261453 
L 86.843103 20.739072 
L 87.194607 19.417108 
L 88.512751 12.43407 
L 88.556689 12.376922 
L 88.776379 11.677898 
L 88.952132 11.32718 
L 88.99607 11.32556 
L 89.083946 11.13035 
L 89.127884 11.21508 
L 89.21576 11.145966 
L 89.259698 11.232281 
L 89.655141 11.957307 
L 90.577842 16.626274 
L 91.192975 19.818393 
L 91.76417 21.401658 
L 91.895985 21.357413 
L 91.895985 21.357413 
" clip-path="url(#p38f2332a33)" style="fill: none; stroke: #b3c8cd; stroke-width: 0.4; stroke-linecap: square"/>
   </g>
   <g id="patch_8">
    <path d="M 74.299213 32.740157 
L 74.299213 0 
" style="fill: none; stroke: #ffffff; stroke-width: 0.5; stroke-linejoin: miter; stroke-linecap: square"/>
   </g>
   <g id="patch_9">
    <path d="M 91.874016 32.740157 
L 91.874016 0 
" style="fill: none; stroke: #ffffff; stroke-width: 0.5; stroke-linejoin: miter; stroke-linecap: square"/>
   </g>
   <g id="patch_10">
    <path d="M 74.299213 32.740157 
L 91.874016 32.740157 
" style="fill: none; stroke: #ffffff; stroke-width: 0.5; stroke-linejoin: miter; stroke-linecap: square"/>
   </g>
   <g id="patch_11">
    <path d="M 74.299213 0 
L 91.874016 0 
" style="fill: none; stroke: #ffffff; stroke-width: 0.5; stroke-linejoin: miter; stroke-linecap: square"/>
   </g>
  </g>
  <g id="axes_4">
   <g id="patch_12">
    <path d="M 21.574803 32.740157 
L 74.299213 32.740157 
L 74.299213 0 
L 21.574803 0 
L 21.574803 32.740157 
z
" style="fill: none"/>
   </g>
   <g id="matplotlib.axis_5"/>
   <g id="matplotlib.axis_6"/>
   <g id="line2d_3">
    <path d="M 21.572084 11.705459 
L 21.673691 30.121787 
L 21.725868 24.760272 
L 21.846698 2.588746 
L 21.90162 8.836577 
L 22.016958 29.822266 
L 22.07188 23.931704 
L 22.189964 2.858361 
L 22.247633 9.712274 
L 22.360224 29.627014 
L 22.417893 23.169273 
L 22.530484 3.106666 
L 22.585407 8.654226 
L 22.706237 29.373112 
L 22.763906 22.381595 
L 22.876497 3.372074 
L 22.93142 9.46439 
L 23.046757 29.15578 
L 23.107172 22.279503 
L 23.22251 3.562491 
L 23.280178 10.648049 
L 23.390024 28.935019 
L 23.444946 23.249616 
L 23.56303 3.782021 
L 23.623445 10.773722 
L 23.736036 28.665014 
L 23.790959 22.653587 
L 23.909043 4.027239 
L 23.961219 9.684683 
L 24.079303 28.510195 
L 24.128733 23.6308 
L 24.249563 4.198284 
L 24.301739 9.280804 
L 24.425315 28.253926 
L 24.480238 21.932902 
L 24.598322 4.413841 
L 24.647752 9.833906 
L 24.763089 28.139336 
L 24.820758 22.476131 
L 24.936096 4.505742 
L 24.991018 9.90406 
L 25.109102 27.981532 
L 25.164025 22.33875 
L 25.276616 4.716098 
L 25.342523 11.500167 
L 25.449622 27.793876 
L 25.507291 22.35496 
L 25.622629 4.888219 
L 25.677551 9.986453 
L 25.801127 27.622924 
L 25.853304 21.848334 
L 25.965895 5.045881 
L 26.018072 9.573404 
L 26.136155 27.467597 
L 26.193824 22.271006 
L 26.311908 5.190311 
L 26.36683 10.496527 
L 26.48766 27.316703 
L 26.539837 21.821582 
L 26.655174 5.298946 
L 26.712843 10.99893 
L 26.825434 27.240936 
L 26.883103 21.781173 
L 26.995694 5.528255 
L 27.056109 11.077982 
L 27.174193 27.06576 
L 27.231862 20.848516 
L 27.338961 5.616599 
L 27.399376 11.05239 
L 27.514713 26.928966 
L 27.577874 20.385745 
L 27.684974 5.748001 
L 27.745388 11.491127 
L 27.85798 26.817672 
L 27.918395 20.922269 
L 28.02824 5.839463 
L 28.083163 10.520563 
L 28.201246 26.71223 
L 28.264407 20.473358 
L 28.376999 5.933043 
L 28.434667 11.768372 
L 28.541767 26.561694 
L 28.596689 22.408327 
L 28.717519 6.097424 
L 28.769696 10.447966 
L 28.887779 26.487695 
L 28.95094 20.683051 
L 29.058039 6.150238 
L 29.112962 10.381968 
L 29.231046 26.343133 
L 29.294207 20.694895 
L 29.404052 6.311009 
L 29.461721 11.250481 
L 29.574312 26.224017 
L 29.634727 21.135357 
L 29.750065 6.384565 
L 29.807733 11.611712 
L 29.920325 26.155048 
L 29.98074 20.87446 
L 30.096077 6.506477 
L 30.140015 9.930795 
L 30.260845 26.02495 
L 30.32126 21.365977 
L 30.433851 6.576832 
L 30.494266 11.431302 
L 30.606858 25.970161 
L 30.659034 22.078205 
L 30.779864 6.641546 
L 30.840279 11.838089 
L 30.958362 25.856976 
L 31.013285 20.611378 
L 31.120384 6.797508 
L 31.175307 10.538745 
L 31.296137 25.789035 
L 31.359298 20.254829 
L 31.466397 6.842211 
L 31.521319 10.935565 
L 31.639403 25.656186 
L 31.702564 20.372622 
L 31.812409 6.973313 
L 31.86184 10.397279 
L 31.988162 25.625905 
L 32.037592 21.55017 
L 32.158422 7.015663 
L 32.218837 12.326889 
L 32.328682 25.487884 
L 32.378113 22.081433 
L 32.498942 7.150144 
L 32.553865 11.083661 
L 32.669202 25.395005 
L 32.732363 20.573512 
L 32.847701 7.27942 
L 32.902624 11.748517 
L 33.020707 25.37077 
L 33.072884 21.124103 
L 33.190967 7.286012 
L 33.237652 10.596791 
L 33.361228 25.273636 
L 33.424389 20.001029 
L 33.534234 7.367155 
L 33.58641 11.186135 
L 33.70724 25.225609 
L 33.759417 21.162924 
L 33.882993 7.449274 
L 33.940661 12.644965 
L 34.050507 25.110478 
L 34.105429 20.935406 
L 34.220767 7.465583 
L 34.283928 12.556781 
L 34.396519 25.062032 
L 34.451442 20.708307 
L 34.566779 7.534266 
L 34.613464 10.718234 
L 34.73704 24.994723 
L 34.808439 18.686776 
L 34.910046 7.622145 
L 34.973207 12.728094 
L 35.085798 24.878901 
L 35.135229 21.13147 
L 35.261551 7.751262 
L 35.319219 12.977132 
L 35.423572 24.869889 
L 35.473003 21.901353 
L 35.596579 7.759554 
L 35.656994 12.219823 
L 35.766839 24.77541 
L 35.838238 19.188774 
L 35.937099 7.854259 
L 35.989276 10.635725 
L 36.115598 24.754301 
L 36.165028 21.423587 
L 36.29135 7.892174 
L 36.349019 12.763693 
L 36.456118 24.666112 
L 36.524771 19.346151 
L 36.63187 7.949238 
L 36.686793 11.845119 
L 36.796638 24.572875 
L 36.859799 20.560108 
L 36.980629 8.043891 
L 37.038298 12.817669 
L 37.142651 24.531757 
L 37.197574 21.312706 
L 37.318403 8.049216 
L 37.378818 12.390228 
L 37.488663 24.487932 
L 37.554571 19.769374 
L 37.664416 8.145145 
L 37.716592 11.614915 
L 37.840168 24.402998 
L 37.903329 19.091957 
L 38.007682 8.165292 
L 38.062605 11.848908 
L 38.180689 24.40572 
L 38.246596 19.238306 
L 38.350949 8.245011 
L 38.408618 12.077882 
L 38.523955 24.326504 
L 38.578878 20.746907 
L 38.694215 8.274711 
L 38.749138 11.617391 
L 38.867222 24.294797 
L 38.935875 19.123052 
L 39.04572 8.342889 
L 39.095151 11.809927 
L 39.213234 24.218616 
L 39.262665 21.239227 
L 39.38624 8.374202 
L 39.446655 12.707917 
L 39.556501 24.177045 
L 39.605931 21.392856 
L 39.726761 8.4379 
L 39.789922 12.663296 
L 39.899767 24.130844 
L 39.95469 20.80188 
L 40.07552 8.535914 
L 40.135934 12.841134 
L 40.243034 24.063216 
L 40.300702 20.545622 
L 40.424278 8.552186 
L 40.484693 13.392201 
L 40.589046 23.995836 
L 40.643969 20.741966 
L 40.762052 8.571 
L 40.816975 11.985935 
L 40.940551 23.917629 
L 40.989981 20.531424 
L 41.105319 8.627886 
L 41.157495 11.547285 
L 41.281071 23.94707 
L 41.33874 19.947311 
L 41.451331 8.663328 
L 41.509 12.386673 
L 41.624338 23.866636 
L 41.673768 20.958773 
L 41.80009 8.780883 
L 41.855013 12.576354 
L 41.97035 23.804892 
L 42.019781 20.753264 
L 42.137864 8.792391 
L 42.206518 13.510409 
L 42.308125 23.726023 
L 42.363047 20.972497 
L 42.489369 8.825554 
L 42.536053 11.746002 
L 42.651391 23.702859 
L 42.70906 20.667196 
L 42.832636 8.856576 
L 42.901289 14.362309 
L 43.00015 23.728637 
L 43.057818 20.199388 
L 43.17041 8.915573 
L 43.236317 13.076354 
L 43.348908 23.666498 
L 43.401085 20.248472 
L 43.516422 8.958076 
L 43.576837 12.652503 
L 43.694921 23.563767 
L 43.749844 19.731319 
L 43.865181 9.013396 
L 43.931088 13.920459 
L 44.032695 23.56274 
L 44.090364 20.254266 
L 44.208448 9.025605 
L 44.257878 11.861461 
L 44.381454 23.534837 
L 44.43363 20.328914 
L 44.548968 9.0677 
L 44.609383 12.627068 
L 44.72472 23.499232 
L 44.787881 19.253496 
L 44.894981 9.094768 
L 44.944411 11.637572 
L 45.067987 23.469322 
L 45.125656 20.006389 
L 45.240993 9.175639 
L 45.301408 12.967566 
L 45.411253 23.391401 
L 45.46343 20.695486 
L 45.581513 9.198418 
L 45.641928 12.660264 
L 45.760012 23.394463 
L 45.823173 19.012799 
L 45.933018 9.23809 
L 45.979703 11.914243 
L 46.106025 23.340343 
L 46.158201 20.072273 
L 46.276285 9.273926 
L 46.320223 11.631082 
L 46.454783 23.256059 
L 46.512452 18.885778 
L 46.619551 9.292236 
L 46.671728 12.269527 
L 46.792558 23.277396 
L 46.844734 20.166414 
L 46.962818 9.322321 
L 47.031471 13.927866 
L 47.133078 23.246607 
L 47.190747 20.084018 
L 47.311576 9.3885 
L 47.361007 12.350082 
L 47.476344 23.174853 
L 47.536759 19.853646 
L 47.654843 9.42977 
L 47.718004 13.656788 
L 47.827849 23.173726 
L 47.874533 20.499034 
L 47.998109 9.409248 
L 48.066763 14.212246 
L 48.171116 23.168085 
L 48.220546 20.357883 
L 48.33863 9.520076 
L 48.415521 14.794118 
L 48.517128 23.071795 
L 48.572051 19.661923 
L 48.690134 9.500683 
L 48.742311 12.761325 
L 48.854902 23.064794 
L 48.929048 18.173554 
L 49.030655 9.574992 
L 49.09107 13.226044 
L 49.206407 23.057824 
L 49.255838 20.172346 
L 49.373921 9.599773 
L 49.437082 13.416082 
L 49.549674 23.002705 
L 49.612835 18.838977 
L 49.717188 9.647918 
L 49.769364 12.131073 
L 49.89294 22.962827 
L 49.953355 19.308334 
L 50.068693 9.631164 
L 50.115377 12.297818 
L 50.241699 22.928224 
L 50.296621 19.456395 
L 50.403721 9.672858 
L 50.461389 12.423949 
L 50.584965 22.9264 
L 50.63165 20.304821 
L 50.757972 9.698261 
L 50.810148 12.816804 
L 50.928232 22.83366 
L 50.980408 19.865577 
L 51.098492 9.740053 
L 51.169891 14.527684 
L 51.271498 22.810303 
L 51.320929 20.240416 
L 51.447251 9.747073 
L 51.515904 14.752155 
L 51.614765 22.821774 
L 51.672433 19.636416 
L 51.787771 9.761545 
L 51.834455 12.029003 
L 51.960777 22.815086 
L 52.023938 18.916351 
L 52.133784 9.848398 
L 52.180468 12.223231 
L 52.301298 22.784774 
L 52.383682 17.082797 
L 52.482542 9.844138 
L 52.529227 12.568334 
L 52.64731 22.754131 
L 52.715963 18.583358 
L 52.81757 9.869642 
L 52.869747 12.155921 
L 52.996069 22.706999 
L 53.040007 20.579447 
L 53.163583 9.870326 
L 53.215759 12.32316 
L 53.336589 22.712179 
L 53.39975 19.062696 
L 53.509596 9.894315 
L 53.564518 12.825921 
L 53.685348 22.684267 
L 53.751255 18.339534 
L 53.852862 9.957856 
L 53.907785 12.628011 
L 54.025868 22.642468 
L 54.078045 20.05622 
L 54.207113 9.997757 
L 54.275766 15.124323 
L 54.374627 22.589198 
L 54.426803 19.751099 
L 54.547633 9.992735 
L 54.59981 12.956701 
L 54.709655 22.534605 
L 54.783801 18.508622 
L 54.893646 10.063843 
L 54.94033 12.627484 
L 55.063906 22.517488 
L 55.121575 19.216269 
L 55.236912 10.050531 
L 55.28085 12.290042 
L 55.346758 19.161519 
L 55.404426 22.528523 
L 55.459349 19.783322 
L 55.585671 10.115084 
L 55.632355 12.806961 
L 55.747693 22.494232 
L 55.805362 19.591802 
L 55.923445 10.093381 
L 55.992099 14.427269 
L 56.090959 22.473766 
L 56.15412 19.243484 
L 56.272204 10.142071 
L 56.332619 13.992638 
L 56.44521 22.4464 
L 56.491894 19.856335 
L 56.61547 10.156639 
L 56.670393 13.222606 
L 56.788477 22.434915 
L 56.832415 20.189981 
L 56.953245 10.181929 
L 57.021898 13.953948 
L 57.131743 22.425394 
L 57.175681 20.342802 
L 57.307496 10.206278 
L 57.365164 13.81554 
L 57.472263 22.365994 
L 57.521694 20.164116 
L 57.648016 10.210302 
L 57.722161 15.094982 
L 57.81553 22.361642 
L 57.873199 19.575145 
L 57.991282 10.267624 
L 58.040713 12.590785 
L 58.167035 22.325954 
L 58.216465 19.744963 
L 58.331803 10.300845 
L 58.389471 13.012357 
L 58.502063 22.301614 
L 58.578955 17.925441 
L 58.680561 10.266229 
L 58.740976 13.570407 
L 58.856314 22.305354 
L 58.911236 19.142563 
L 59.026574 10.342553 
L 59.092481 14.244283 
L 59.19958 22.230048 
L 59.251757 19.598433 
L 59.364348 10.337367 
L 59.424763 13.068927 
L 59.542847 22.262462 
L 59.597769 19.482015 
L 59.713107 10.349248 
L 59.765283 12.776608 
L 59.883367 22.226976 
L 59.95202 18.422351 
L 60.064612 10.391248 
L 60.114042 13.160292 
L 60.232126 22.183899 
L 60.303525 17.850422 
L 60.402386 10.393211 
L 60.454562 12.718438 
L 60.580885 22.188515 
L 60.624823 19.979213 
L 60.748399 10.462166 
L 60.81156 13.952484 
L 60.921405 22.191366 
L 60.990058 18.0125 
L 61.088919 10.440854 
L 61.146588 13.017922 
L 61.264671 22.153672 
L 61.314102 20.036569 
L 61.434931 10.473295 
L 61.489854 12.893169 
L 61.607938 22.099708 
L 61.66286 19.605082 
L 61.780944 10.510731 
L 61.833121 12.772924 
L 61.956696 22.114197 
L 62.014365 19.012743 
L 62.129703 10.534445 
L 62.187372 13.609243 
L 62.302709 22.07744 
L 62.343901 20.233067 
L 62.472969 10.512359 
L 62.527892 13.293385 
L 62.645975 22.055114 
L 62.698152 19.509474 
L 62.81349 10.521904 
L 62.86292 12.433297 
L 62.989242 22.068759 
L 63.046911 19.159439 
L 63.164994 10.559176 
L 63.206186 12.351079 
L 63.332508 22.010918 
L 63.379193 20.135756 
L 63.502769 10.60977 
L 63.574168 14.422423 
L 63.681267 21.999875 
L 63.725205 19.988484 
L 63.848781 10.618836 
L 63.911942 13.80506 
L 64.021787 22.01013 
L 64.073964 19.649047 
L 64.200286 10.629995 
L 64.252463 13.419285 
L 64.370546 21.982311 
L 64.41723 19.843076 
L 64.53806 10.659831 
L 64.584744 12.383529 
L 64.713813 21.951538 
L 64.771481 18.924504 
L 64.884073 10.663305 
L 64.941742 13.432577 
L 65.057079 21.948125 
L 65.114748 19.053451 
L 65.230085 10.679977 
L 65.2905 13.847228 
L 65.397599 21.905315 
L 65.468999 18.24163 
L 65.573352 10.679787 
L 65.620036 12.57101 
L 65.743612 21.872072 
L 65.806773 18.88993 
L 65.916618 10.720977 
L 65.977033 13.519936 
L 66.086878 21.836328 
L 66.144547 19.440711 
L 66.259885 10.764722 
L 66.325792 13.94926 
L 66.435637 21.879786 
L 66.485068 19.754631 
L 66.61139 10.773856 
L 66.66082 13.144917 
L 66.778904 21.847958 
L 66.836572 19.228585 
L 66.957402 10.771379 
L 67.006833 13.165571 
L 67.127662 21.789045 
L 67.168854 20.207277 
L 67.295176 10.802883 
L 67.352845 13.313235 
L 67.470929 21.828922 
L 67.523105 19.383316 
L 67.649427 10.834407 
L 67.715335 14.968175 
L 67.816941 21.763272 
L 67.87461 18.781693 
L 67.984455 10.802393 
L 68.053109 14.350029 
L 68.162954 21.762606 
L 68.217877 18.97737 
L 68.330468 10.853077 
L 68.385391 13.255318 
L 68.500728 21.76626 
L 68.574874 17.857598 
L 68.673734 10.855489 
L 68.731403 13.2818 
L 68.849487 21.737035 
L 68.907156 18.996252 
L 69.025239 10.870548 
L 69.069177 12.762557 
L 69.187261 21.644234 
L 69.239438 19.916643 
L 69.363014 10.90051 
L 69.426175 13.758365 
L 69.544258 21.675666 
L 69.58545 19.806306 
L 69.711772 10.87611 
L 69.766695 13.504128 
L 69.882032 21.691497 
L 69.945193 18.656218 
L 70.057785 10.894379 
L 70.109961 13.285324 
L 70.225299 21.681913 
L 70.277475 19.667334 
L 70.401051 10.978373 
L 70.45872 13.75745 
L 70.571311 21.657186 
L 70.650949 17.044036 
L 70.74981 10.956962 
L 70.807479 14.000327 
L 70.92007 21.621128 
L 70.969501 19.391033 
L 71.084838 10.985249 
L 71.145253 13.486273 
L 71.266083 21.571727 
L 71.318259 19.105087 
L 71.433597 10.962427 
L 71.488519 13.279479 
L 71.609349 21.627308 
L 71.650541 20.07519 
L 71.771371 11.03876 
L 71.820801 12.504371 
L 71.94987 21.560265 
L 72.029507 17.157691 
L 72.125622 10.982944 
L 72.175052 13.126106 
L 72.293136 21.581826 
L 72.353551 18.972708 
L 72.466142 11.007234 
L 72.526557 13.657326 
L 72.639149 21.54565 
L 72.694071 19.273709 
L 72.820393 11.053186 
L 72.867077 13.341213 
L 72.985161 21.557616 
L 73.051068 18.27863 
L 73.160914 11.065948 
L 73.207598 13.074461 
L 73.336666 21.516531 
L 73.391589 18.586111 
L 73.509672 11.094798 
L 73.561849 13.851772 
L 73.677186 21.528864 
L 73.74584 17.821118 
L 73.847446 11.079474 
L 73.899623 13.24785 
L 74.023199 21.502422 
L 74.089106 17.968529 
L 74.190713 11.110166 
L 74.240143 12.894591 
L 74.300558 18.181102 
L 74.300558 18.181102 
" clip-path="url(#p7f52c0a553)" style="fill: none; stroke: #b3c8cd; stroke-width: 0.05; stroke-linecap: square"/>
   </g>
   <g id="patch_13">
    <path d="M 21.574803 32.740157 
L 21.574803 0 
" style="fill: none; stroke: #ffffff; stroke-width: 0.5; stroke-linejoin: miter; stroke-linecap: square"/>
   </g>
   <g id="patch_14">
    <path d="M 74.299213 32.740157 
L 74.299213 0 
" style="fill: none; stroke: #ffffff; stroke-width: 0.5; stroke-linejoin: miter; stroke-linecap: square"/>
   </g>
   <g id="patch_15">
    <path d="M 21.574803 32.740157 
L 74.299213 32.740157 
" style="fill: none; stroke: #ffffff; stroke-width: 0.5; stroke-linejoin: miter; stroke-linecap: square"/>
   </g>
   <g id="patch_16">
    <path d="M 21.574803 0 
L 74.299213 0 
" style="fill: none; stroke: #ffffff; stroke-width: 0.5; stroke-linejoin: miter; stroke-linecap: square"/>
   </g>
  </g>
 </g>
 <defs>
  <clipPath id="paabd15e880">
   <rect x="4" y="0" width="17.574803" height="32.740157"/>
  </clipPath>
  <clipPath id="p38f2332a33">
   <rect x="74.299213" y="0" width="17.574803" height="32.740157"/>
  </clipPath>
  <clipPath id="p7f52c0a553">
   <rect x="21.574803" y="0" width="52.724409" height="32.740157"/>
  </clipPath>
 </defs>
</svg>
