<?xml version="1.0" encoding="utf-8" standalone="no"?>
<!DOCTYPE svg PUBLIC "-//W3C//DTD SVG 1.1//EN"
  "http://www.w3.org/Graphics/SVG/1.1/DTD/svg11.dtd">
<svg xmlns:xlink="http://www.w3.org/1999/xlink" width="91.874016pt" height="32.740157pt" viewBox="0 0 91.874016 32.740157" xmlns="http://www.w3.org/2000/svg" version="1.1">
 <metadata>
  <rdf:RDF xmlns:dc="http://purl.org/dc/elements/1.1/" xmlns:cc="http://creativecommons.org/ns#" xmlns:rdf="http://www.w3.org/1999/02/22-rdf-syntax-ns#">
   <cc:Work>
    <dc:type rdf:resource="http://purl.org/dc/dcmitype/StillImage"/>
    <dc:date>2025-01-13T14:57:22.338516</dc:date>
    <dc:format>image/svg+xml</dc:format>
    <dc:creator>
     <cc:Agent>
      <dc:title>Matplotlib v3.8.0, https://matplotlib.org/</dc:title>
     </cc:Agent>
    </dc:creator>
   </cc:Work>
  </rdf:RDF>
 </metadata>
 <defs>
  <style type="text/css">*{stroke-linejoin: round; stroke-linecap: butt}</style>
 </defs>
 <g id="figure_1">
  <g id="patch_1">
   <path d="M 0 32.740157 
L 91.874016 32.740157 
L 91.874016 0 
L 0 0 
L 0 32.740157 
z
" style="fill: none"/>
  </g>
  <g id="axes_1"/>
  <g id="axes_2">
   <g id="patch_2">
    <path d="M 4 32.740157 
L 21.574803 32.740157 
L 21.574803 0 
L 4 0 
L 4 32.740157 
z
" style="fill: none"/>
   </g>
   <g id="matplotlib.axis_1"/>
   <g id="matplotlib.axis_2"/>
   <g id="line2d_1">
    <path d="M 4 1.471844 
L 4.131814 1.545712 
L 4.263629 2.022163 
L 4.527257 4.051236 
L 4.834824 7.723891 
L 5.406019 16.856597 
L 6.109029 27.281536 
L 6.416596 30.073332 
L 6.724163 31.051604 
L 6.768101 30.992606 
L 6.899915 30.729274 
L 6.987791 30.455336 
L 7.295358 28.158678 
L 7.822615 21.111188 
L 8.745315 6.652798 
L 9.09682 3.130058 
L 9.492263 1.71126 
L 9.711954 2.222305 
L 9.931644 3.664278 
L 10.283149 7.412503 
L 11.161911 21.317429 
L 11.689169 27.999294 
L 12.040673 30.421466 
L 12.084612 30.4383 
L 12.216426 30.721144 
L 12.480055 30.068571 
L 12.743683 28.249396 
L 13.27094 21.45488 
L 14.67696 2.870075 
L 14.940588 2.027956 
L 15.336031 3.273627 
L 16.039041 11.563587 
L 17.269308 28.673035 
L 17.576875 30.206659 
L 17.664751 30.409263 
L 17.708689 30.342546 
L 17.92838 29.900595 
L 18.104132 28.980357 
L 18.675328 22.507095 
L 19.202585 14.331005 
L 19.949533 4.633541 
L 20.213161 2.86202 
L 20.388914 2.371097 
L 20.520728 2.362279 
L 20.828295 3.603473 
L 21.223738 7.534535 
L 21.575243 12.383501 
L 21.575243 12.383501 
" clip-path="url(#p93414f8fed)" style="fill: none; stroke: #b3c8cd; stroke-width: 0.4; stroke-linecap: square"/>
   </g>
   <g id="patch_3">
    <path d="M 4 32.740157 
L 4 0 
" style="fill: none; stroke: #ffffff; stroke-width: 0.5; stroke-linejoin: miter; stroke-linecap: square"/>
   </g>
   <g id="patch_4">
    <path d="M 21.574803 32.740157 
L 21.574803 0 
" style="fill: none; stroke: #ffffff; stroke-width: 0.5; stroke-linejoin: miter; stroke-linecap: square"/>
   </g>
   <g id="patch_5">
    <path d="M 4 32.740157 
L 21.574803 32.740157 
" style="fill: none; stroke: #ffffff; stroke-width: 0.5; stroke-linejoin: miter; stroke-linecap: square"/>
   </g>
   <g id="patch_6">
    <path d="M 4 0 
L 21.574803 0 
" style="fill: none; stroke: #ffffff; stroke-width: 0.5; stroke-linejoin: miter; stroke-linecap: square"/>
   </g>
  </g>
  <g id="axes_3">
   <g id="patch_7">
    <path d="M 74.299213 32.740157 
L 91.874016 32.740157 
L 91.874016 0 
L 74.299213 0 
L 74.299213 32.740157 
z
" style="fill: none"/>
   </g>
   <g id="matplotlib.axis_3"/>
   <g id="matplotlib.axis_4"/>
   <g id="line2d_2">
    <path d="M 74.276804 18.021241 
L 74.716185 20.158902 
L 74.804061 20.490326 
L 75.155566 21.3352 
L 75.463133 21.420133 
L 76.034328 19.944379 
L 76.561586 17.385203 
L 77.088843 14.228439 
L 77.264595 13.404441 
L 77.791853 11.436512 
L 77.879729 11.416175 
L 78.055481 11.14394 
L 78.099419 11.21097 
L 78.187296 11.103368 
L 78.363048 11.361457 
L 78.450924 11.488022 
L 78.846367 12.849539 
L 79.02212 13.664371 
L 79.94482 18.834551 
L 80.691768 21.277952 
L 80.779644 21.360618 
L 80.86752 21.491677 
L 80.911458 21.452944 
L 80.999334 21.405277 
L 81.878097 18.452614 
L 82.49323 14.847885 
L 83.41593 11.33357 
L 83.635621 11.137501 
L 83.855311 11.272669 
L 84.075002 11.834998 
L 84.250754 12.346439 
L 86.140093 21.262733 
L 86.535536 21.41139 
L 86.887041 20.65902 
L 87.37036 18.523428 
L 87.633988 17.135219 
L 88.424874 12.791795 
L 88.512751 12.412314 
L 88.864255 11.433491 
L 89.127884 11.150246 
L 89.171822 11.209856 
L 89.259698 11.154866 
L 89.91877 13.03107 
L 90.270275 14.754189 
L 90.62178 16.852189 
L 91.061161 19.259063 
L 91.412666 20.538537 
L 91.76417 21.365116 
L 91.895985 21.404183 
L 91.895985 21.404183 
" clip-path="url(#p5d1e02e1b5)" style="fill: none; stroke: #b3c8cd; stroke-width: 0.4; stroke-linecap: square"/>
   </g>
   <g id="patch_8">
    <path d="M 74.299213 32.740157 
L 74.299213 0 
" style="fill: none; stroke: #ffffff; stroke-width: 0.5; stroke-linejoin: miter; stroke-linecap: square"/>
   </g>
   <g id="patch_9">
    <path d="M 91.874016 32.740157 
L 91.874016 0 
" style="fill: none; stroke: #ffffff; stroke-width: 0.5; stroke-linejoin: miter; stroke-linecap: square"/>
   </g>
   <g id="patch_10">
    <path d="M 74.299213 32.740157 
L 91.874016 32.740157 
" style="fill: none; stroke: #ffffff; stroke-width: 0.5; stroke-linejoin: miter; stroke-linecap: square"/>
   </g>
   <g id="patch_11">
    <path d="M 74.299213 0 
L 91.874016 0 
" style="fill: none; stroke: #ffffff; stroke-width: 0.5; stroke-linejoin: miter; stroke-linecap: square"/>
   </g>
  </g>
  <g id="axes_4">
   <g id="patch_12">
    <path d="M 21.574803 32.740157 
L 74.299213 32.740157 
L 74.299213 0 
L 21.574803 0 
L 21.574803 32.740157 
z
" style="fill: none"/>
   </g>
   <g id="matplotlib.axis_5"/>
   <g id="matplotlib.axis_6"/>
   <g id="line2d_3">
    <path d="M 21.572084 11.754069 
L 21.673691 30.138603 
L 21.73136 23.557612 
L 21.843952 2.610467 
L 21.904366 9.515677 
L 22.016958 29.880511 
L 22.080119 22.193762 
L 22.19271 2.878375 
L 22.244887 9.090334 
L 22.36297 29.572303 
L 22.420639 22.646792 
L 22.535977 3.117925 
L 22.590899 9.847327 
L 22.706237 29.321744 
L 22.766652 21.892158 
L 22.876497 3.382896 
L 22.928674 8.808604 
L 23.049503 29.146547 
L 23.107172 22.255742 
L 23.214271 3.602289 
L 23.282924 11.164306 
L 23.39277 28.92623 
L 23.4422 23.739869 
L 23.56303 3.755908 
L 23.623445 10.725277 
L 23.736036 28.717393 
L 23.793705 22.13357 
L 23.900804 4.035665 
L 23.958473 9.206991 
L 24.07381 28.484974 
L 24.131479 23.085992 
L 24.255055 4.241317 
L 24.304485 9.790855 
L 24.422569 28.32386 
L 24.474746 22.989611 
L 24.592829 4.33117 
L 24.653244 10.994024 
L 24.765836 28.16017 
L 24.823504 21.843673 
L 24.936096 4.530127 
L 25.002003 11.977685 
L 25.109102 27.88614 
L 25.158532 23.382294 
L 25.282108 4.682369 
L 25.337031 10.42764 
L 25.446876 27.769674 
L 25.504545 22.847775 
L 25.625375 4.83525 
L 25.677551 10.100122 
L 25.798381 27.649911 
L 25.853304 21.775924 
L 25.968641 5.013832 
L 26.031802 12.043027 
L 26.138901 27.446102 
L 26.193824 22.288253 
L 26.309162 5.226547 
L 26.369576 10.962253 
L 26.48766 27.317458 
L 26.53709 22.237803 
L 26.655174 5.292668 
L 26.712843 11.033614 
L 26.825434 27.200965 
L 26.880357 22.277888 
L 26.998441 5.423851 
L 27.056109 10.98379 
L 27.171447 27.111993 
L 27.229116 21.313319 
L 27.341707 5.578918 
L 27.402122 11.476479 
L 27.517459 26.962926 
L 27.56689 22.315226 
L 27.68772 5.681361 
L 27.739896 10.515725 
L 27.855234 26.803935 
L 27.915649 21.430245 
L 28.025494 5.850593 
L 28.085909 10.926718 
L 28.203992 26.680308 
L 28.256169 21.824811 
L 28.374253 5.939118 
L 28.44016 12.726542 
L 28.547259 26.555765 
L 28.593943 22.73851 
L 28.720265 6.096691 
L 28.783426 12.729548 
L 28.893271 26.480095 
L 28.948194 21.017673 
L 29.058039 6.151438 
L 29.115708 10.83663 
L 29.233792 26.37474 
L 29.285968 21.91885 
L 29.404052 6.250679 
L 29.475451 13.466911 
L 29.58255 26.238245 
L 29.626489 22.437727 
L 29.750065 6.361605 
L 29.810479 11.99575 
L 29.923071 26.168897 
L 29.972501 21.994992 
L 30.093331 6.473818 
L 30.161984 13.357926 
L 30.266337 26.054198 
L 30.32126 21.341818 
L 30.436597 6.593165 
L 30.488774 10.612404 
L 30.609604 25.994261 
L 30.66178 21.706408 
L 30.785356 6.684599 
L 30.845771 12.656875 
L 30.955616 25.872046 
L 31.002301 22.268501 
L 31.125876 6.755455 
L 31.180799 11.398209 
L 31.293391 25.771688 
L 31.359298 20.207667 
L 31.474635 6.893778 
L 31.526812 11.695078 
L 31.644895 25.700351 
L 31.699818 20.786587 
L 31.812409 6.927265 
L 31.867332 11.14109 
L 31.985416 25.629755 
L 32.040338 21.204904 
L 32.155676 7.089376 
L 32.210598 11.19958 
L 32.328682 25.549001 
L 32.391843 20.132568 
L 32.496196 7.11252 
L 32.556611 11.442987 
L 32.674695 25.40056 
L 32.732363 20.630887 
L 32.844955 7.238953 
L 32.902624 11.702639 
L 33.020707 25.371425 
L 33.072884 21.098309 
L 33.193714 7.324724 
L 33.240398 10.94956 
L 33.358482 25.301282 
L 33.424389 19.890375 
L 33.53698 7.337107 
L 33.591903 11.958719 
L 33.701748 25.197364 
L 33.764909 20.47379 
L 33.880247 7.409056 
L 33.937915 12.354761 
L 34.050507 25.155187 
L 34.108175 20.505668 
L 34.220767 7.495377 
L 34.283928 12.606748 
L 34.388281 25.044264 
L 34.451442 20.623028 
L 34.566779 7.549873 
L 34.62994 12.834331 
L 34.742532 24.987071 
L 34.791962 21.15615 
L 34.915538 7.644096 
L 34.964969 11.562409 
L 35.083052 24.92922 
L 35.132483 21.580903 
L 35.250566 7.749774 
L 35.313727 12.318053 
L 35.429065 24.86988 
L 35.486734 20.151685 
L 35.599325 7.798152 
L 35.654248 11.736314 
L 35.777823 24.752252 
L 35.824508 20.94499 
L 35.942591 7.80371 
L 36.003006 12.422244 
L 36.115598 24.730294 
L 36.165028 21.445913 
L 36.285858 7.889348 
L 36.351765 13.049578 
L 36.456118 24.689306 
L 36.513787 20.844958 
L 36.629124 7.928352 
L 36.686793 11.880453 
L 36.799384 24.613806 
L 36.857053 20.940678 
L 36.975137 7.983052 
L 37.032806 12.087603 
L 37.145397 24.565536 
L 37.203066 20.678892 
L 37.318403 8.090185 
L 37.381564 12.723574 
L 37.494156 24.5084 
L 37.546332 20.754796 
L 37.664416 8.111379 
L 37.730323 13.379756 
L 37.834676 24.457702 
L 37.889599 20.834258 
L 38.013175 8.183703 
L 38.068097 12.574558 
L 38.177943 24.388152 
L 38.238357 20.329345 
L 38.350949 8.227686 
L 38.405871 11.688459 
L 38.521209 24.288857 
L 38.576132 21.031094 
L 38.694215 8.290211 
L 38.768361 14.169853 
L 38.872714 24.249973 
L 38.922144 20.810985 
L 39.040228 8.344654 
L 39.097897 12.141063 
L 39.21598 24.179371 
L 39.262665 21.182816 
L 39.38624 8.369806 
L 39.446655 12.833746 
L 39.561993 24.160504 
L 39.619662 19.680727 
L 39.732253 8.472613 
L 39.787176 12.331882 
L 39.899767 24.134903 
L 39.96842 19.185294 
L 40.07552 8.592295 
L 40.122204 11.229532 
L 40.248526 24.062232 
L 40.306195 19.915963 
L 40.418786 8.556624 
L 40.479201 12.721644 
L 40.594538 24.023553 
L 40.638476 21.381117 
L 40.762052 8.593368 
L 40.811483 11.407398 
L 40.932313 23.970741 
L 40.99822 19.540104 
L 41.110811 8.62334 
L 41.162988 12.236451 
L 41.278325 23.938368 
L 41.33874 20.000268 
L 41.451331 8.669065 
L 41.506254 12.170488 
L 41.621592 23.862039 
L 41.695737 18.308875 
L 41.794598 8.710499 
L 41.849521 11.981014 
L 41.967604 23.78061 
L 42.019781 20.752041 
L 42.146103 8.835057 
L 42.21201 14.25463 
L 42.308125 23.750353 
L 42.374032 19.664364 
L 42.481131 8.85346 
L 42.5388 12.050152 
L 42.662376 23.694482 
L 42.714552 20.014611 
L 42.832636 8.86958 
L 42.895797 13.647131 
L 43.002896 23.68254 
L 43.060565 19.838576 
L 43.17041 8.906647 
L 43.233571 12.788301 
L 43.348908 23.685216 
L 43.406577 19.663797 
L 43.519169 8.925176 
L 43.58233 13.335191 
L 43.692175 23.632401 
L 43.749844 19.830436 
L 43.859689 8.996205 
L 43.914612 12.004905 
L 44.038187 23.545076 
L 44.106841 18.284668 
L 44.211194 9.049159 
L 44.260624 12.10002 
L 44.386946 23.514947 
L 44.436377 19.996991 
L 44.551714 9.090465 
L 44.612129 12.928231 
L 44.721974 23.519883 
L 44.774151 20.806598 
L 44.894981 9.138 
L 44.944411 11.603126 
L 45.065241 23.473807 
L 45.128402 19.63968 
L 45.238247 9.152715 
L 45.301408 13.080056 
L 45.413999 23.425318 
L 45.466176 20.436455 
L 45.589752 9.192565 
L 45.641928 12.581003 
L 45.760012 23.377354 
L 45.809442 20.460248 
L 45.933018 9.270052 
L 45.998925 14.078874 
L 46.097786 23.319922 
L 46.163693 19.407092 
L 46.273539 9.267942 
L 46.328461 12.307239 
L 46.452037 23.257372 
L 46.504214 19.85074 
L 46.616805 9.275258 
L 46.679966 13.09758 
L 46.792558 23.301795 
L 46.844734 20.186019 
L 46.96831 9.347974 
L 47.028725 13.594464 
L 47.13857 23.227121 
L 47.190747 20.069958 
L 47.30883 9.365727 
L 47.358261 12.06068 
L 47.47909 23.184416 
L 47.534013 20.107504 
L 47.657589 9.405041 
L 47.726242 14.745846 
L 47.830595 23.161141 
L 47.888264 19.045059 
L 47.998109 9.434549 
L 48.053032 12.614625 
L 48.165623 23.127149 
L 48.220546 20.425667 
L 48.33863 9.519712 
L 48.399045 12.80942 
L 48.514382 23.119325 
L 48.566559 20.215343 
L 48.684642 9.499965 
L 48.742311 12.724869 
L 48.857649 23.091476 
L 48.923556 18.83109 
L 49.027909 9.55344 
L 49.088324 12.895836 
L 49.200915 23.049443 
L 49.258584 19.945848 
L 49.376667 9.579819 
L 49.43159 12.792345 
L 49.546928 23.008358 
L 49.599104 20.236551 
L 49.72268 9.582518 
L 49.777603 12.950378 
L 49.898432 22.970962 
L 49.947863 19.877643 
L 50.068693 9.64205 
L 50.115377 12.296728 
L 50.238953 22.966278 
L 50.293875 19.737574 
L 50.406467 9.651708 
L 50.455897 11.910571 
L 50.582219 22.928576 
L 50.642634 19.223441 
L 50.755225 9.661547 
L 50.804656 12.383338 
L 50.928232 22.852105 
L 50.994139 18.413595 
L 51.095746 9.707475 
L 51.150668 12.499936 
L 51.274244 22.84761 
L 51.334659 18.910785 
L 51.447251 9.751231 
L 51.499427 12.871042 
L 51.617511 22.795024 
L 51.672433 19.614902 
L 51.790517 9.766807 
L 51.848186 13.386959 
L 51.960777 22.759037 
L 52.021192 19.205887 
L 52.13653 9.865587 
L 52.180468 12.179876 
L 52.298551 22.761019 
L 52.35622 20.130847 
L 52.474304 9.81203 
L 52.534719 13.100776 
L 52.650056 22.686849 
L 52.702233 19.931252 
L 52.825809 9.862918 
L 52.88897 14.08975 
L 52.993323 22.687102 
L 53.042753 20.356796 
L 53.171821 9.90965 
L 53.223998 13.153299 
L 53.342081 22.663528 
L 53.402496 18.729712 
L 53.515088 9.959881 
L 53.572757 13.62019 
L 53.682602 22.647207 
L 53.743017 19.277348 
L 53.858354 9.940717 
L 53.907785 12.584129 
L 54.031361 22.613886 
L 54.072553 20.6405 
L 54.196128 9.986123 
L 54.251051 12.552225 
L 54.374627 22.562754 
L 54.424057 19.936289 
L 54.544887 9.985818 
L 54.608048 13.709988 
L 54.715147 22.602649 
L 54.764578 20.349447 
L 54.893646 10.068317 
L 54.951315 13.605577 
L 55.063906 22.56293 
L 55.11059 20.254609 
L 55.239658 10.083009 
L 55.286343 12.734865 
L 55.404426 22.510967 
L 55.459349 19.847126 
L 55.580179 10.089195 
L 55.637848 13.4281 
L 55.744947 22.494851 
L 55.810854 19.130569 
L 55.928937 10.107524 
L 55.981114 13.336925 
L 56.096452 22.500538 
L 56.159613 18.695072 
L 56.272204 10.119349 
L 56.321634 12.934813 
L 56.434226 22.415525 
L 56.497387 19.41647 
L 56.609978 10.128684 
L 56.664901 12.712889 
L 56.785731 22.454989 
L 56.832415 20.195825 
L 56.955991 10.192838 
L 57.016406 13.376208 
L 57.126251 22.41475 
L 57.175681 20.332321 
L 57.299257 10.192647 
L 57.35418 12.75141 
L 57.472263 22.345181 
L 57.52444 19.909328 
L 57.650762 10.208626 
L 57.713923 14.278222 
L 57.821022 22.34293 
L 57.867706 20.011345 
L 57.939106 12.791291 
L 57.988536 10.238838 
L 58.046205 13.108581 
L 58.164289 22.329184 
L 58.224704 18.940944 
L 58.337295 10.283452 
L 58.39771 13.744436 
L 58.504809 22.324602 
L 58.565224 19.367071 
L 58.677815 10.268655 
L 58.729992 12.600489 
L 58.853568 22.307979 
L 58.922221 18.118878 
L 59.021082 10.312915 
L 59.070512 12.304833 
L 59.194088 22.278574 
L 59.265487 18.248447 
L 59.36984 10.327442 
L 59.416525 12.403573 
L 59.540101 22.242344 
L 59.6115 18.142661 
L 59.713107 10.346006 
L 59.765283 12.797666 
L 59.883367 22.231033 
L 59.957513 17.979247 
L 60.059119 10.41952 
L 60.111296 12.888184 
L 60.234872 22.193251 
L 60.284302 19.654148 
L 60.396894 10.413547 
L 60.468293 13.973617 
L 60.575392 22.212011 
L 60.630315 19.52809 
L 60.751145 10.399406 
L 60.808813 13.694398 
L 60.915913 22.166185 
L 60.979074 19.135466 
L 61.094411 10.445077 
L 61.143841 12.788764 
L 61.267417 22.140263 
L 61.325086 18.937385 
L 61.44317 10.480303 
L 61.495346 13.408576 
L 61.607938 22.12728 
L 61.665607 19.358775 
L 61.775452 10.501022 
L 61.846851 14.043755 
L 61.951204 22.079907 
L 62.003381 19.916861 
L 62.126957 10.474545 
L 62.201102 14.951481 
L 62.299963 22.104173 
L 62.352139 19.5869 
L 62.475715 10.516705 
L 62.541622 14.577817 
L 62.643229 22.069705 
L 62.69266 19.998274 
L 62.821728 10.558497 
L 62.868412 13.019584 
L 62.923335 18.31042 
L 62.991988 22.009542 
L 63.041418 19.627922 
L 63.162248 10.539062 
L 63.206186 12.382794 
L 63.327016 21.980841 
L 63.395669 18.785293 
L 63.511007 10.583393 
L 63.549453 12.360305 
L 63.684013 21.996452 
L 63.758159 16.905552 
L 63.854273 10.611277 
L 63.911942 13.860339 
L 64.024534 21.969248 
L 64.079456 19.157834 
L 64.189301 10.627639 
L 64.255209 13.676349 
L 64.3678 21.967437 
L 64.428215 18.888149 
L 64.543552 10.639707 
L 64.598475 13.498693 
L 64.716559 21.928295 
L 64.763243 19.703576 
L 64.884073 10.627125 
L 64.941742 13.448022 
L 65.054333 21.921681 
L 65.122986 18.304963 
L 65.232832 10.690283 
L 65.293246 14.126034 
L 65.394853 21.864485 
L 65.468999 18.236191 
L 65.576098 10.667033 
L 65.628274 13.156723 
L 65.75185 21.876569 
L 65.795788 19.743858 
L 65.916618 10.741142 
L 65.971541 13.144486 
L 66.089625 21.861464 
L 66.150039 18.971658 
L 66.262631 10.737311 
L 66.323046 13.766575 
L 66.435637 21.849185 
L 66.50429 18.041991 
L 66.608643 10.755208 
L 66.674551 14.291536 
L 66.778904 21.857269 
L 66.825588 20.010895 
L 66.954656 10.744851 
L 67.026055 14.927394 
L 67.12217 21.831392 
L 67.174347 19.796171 
L 67.295176 10.759246 
L 67.358337 13.824493 
L 67.470929 21.787763 
L 67.520359 19.688439 
L 67.638443 10.792112 
L 67.698858 13.38901 
L 67.811449 21.751423 
L 67.871864 19.081227 
L 67.984455 10.834259 
L 68.039378 13.15882 
L 68.154716 21.74703 
L 68.223369 18.391449 
L 68.333214 10.814475 
L 68.401867 14.640283 
L 68.508967 21.743098 
L 68.555651 19.501637 
L 68.673734 10.836817 
L 68.734149 13.557466 
L 68.846741 21.751507 
L 68.898917 19.651422 
L 69.019747 10.841898 
L 69.07467 13.241356 
L 69.198246 21.725599 
L 69.253168 18.888024 
L 69.368506 10.860073 
L 69.409698 12.444543 
L 69.538766 21.726126 
L 69.599181 18.667632 
L 69.711772 10.88895 
L 69.774933 14.196898 
L 69.890271 21.658262 
L 69.936955 19.35838 
L 70.057785 10.894564 
L 70.104469 12.908376 
L 70.228045 21.66408 
L 70.28846 18.692731 
L 70.403797 10.937269 
L 70.455974 13.520875 
L 70.571311 21.64384 
L 70.62898 19.058745 
L 70.744318 10.952505 
L 70.79924 13.336866 
L 70.914578 21.629908 
L 70.974993 18.91537 
L 71.087584 10.952198 
L 71.150745 13.855187 
L 71.263337 21.621392 
L 71.312767 19.543087 
L 71.436343 10.992655 
L 71.485773 13.067709 
L 71.603857 21.622585 
L 71.661526 19.165081 
L 71.779609 10.971561 
L 71.853755 15.153069 
L 71.952616 21.584365 
L 72.002046 19.492825 
L 72.117384 11.058728 
L 72.175052 13.099956 
L 72.293136 21.587523 
L 72.342566 19.806803 
L 72.471635 11.040611 
L 72.540288 14.836845 
L 72.639149 21.576079 
L 72.696817 19.075755 
L 72.809409 11.05337 
L 72.883554 14.73042 
L 72.990653 21.552008 
L 73.045576 18.705713 
L 73.16366 11.05596 
L 73.218582 13.957399 
L 73.331174 21.508658 
L 73.397081 18.225971 
L 73.501434 11.071277 
L 73.55361 13.082274 
L 73.671694 21.521212 
L 73.732109 19.040771 
L 73.8447 11.078366 
L 73.891385 12.629676 
L 74.014961 21.499841 
L 74.078122 18.903314 
L 74.196205 11.11244 
L 74.245636 13.386212 
L 74.300558 18.305653 
L 74.300558 18.305653 
" clip-path="url(#pf477c02830)" style="fill: none; stroke: #b3c8cd; stroke-width: 0.05; stroke-linecap: square"/>
   </g>
   <g id="patch_13">
    <path d="M 21.574803 32.740157 
L 21.574803 0 
" style="fill: none; stroke: #ffffff; stroke-width: 0.5; stroke-linejoin: miter; stroke-linecap: square"/>
   </g>
   <g id="patch_14">
    <path d="M 74.299213 32.740157 
L 74.299213 0 
" style="fill: none; stroke: #ffffff; stroke-width: 0.5; stroke-linejoin: miter; stroke-linecap: square"/>
   </g>
   <g id="patch_15">
    <path d="M 21.574803 32.740157 
L 74.299213 32.740157 
" style="fill: none; stroke: #ffffff; stroke-width: 0.5; stroke-linejoin: miter; stroke-linecap: square"/>
   </g>
   <g id="patch_16">
    <path d="M 21.574803 0 
L 74.299213 0 
" style="fill: none; stroke: #ffffff; stroke-width: 0.5; stroke-linejoin: miter; stroke-linecap: square"/>
   </g>
  </g>
 </g>
 <defs>
  <clipPath id="p93414f8fed">
   <rect x="4" y="0" width="17.574803" height="32.740157"/>
  </clipPath>
  <clipPath id="p5d1e02e1b5">
   <rect x="74.299213" y="0" width="17.574803" height="32.740157"/>
  </clipPath>
  <clipPath id="pf477c02830">
   <rect x="21.574803" y="0" width="52.724409" height="32.740157"/>
  </clipPath>
 </defs>
</svg>
