<?xml version="1.0" encoding="utf-8" standalone="no"?>
<!DOCTYPE svg PUBLIC "-//W3C//DTD SVG 1.1//EN"
  "http://www.w3.org/Graphics/SVG/1.1/DTD/svg11.dtd">
<svg xmlns:xlink="http://www.w3.org/1999/xlink" width="97.34pt" height="30.588819pt" viewBox="0 0 97.34 30.588819" xmlns="http://www.w3.org/2000/svg" version="1.1">
 <metadata>
  <rdf:RDF xmlns:dc="http://purl.org/dc/elements/1.1/" xmlns:cc="http://creativecommons.org/ns#" xmlns:rdf="http://www.w3.org/1999/02/22-rdf-syntax-ns#">
   <cc:Work>
    <dc:type rdf:resource="http://purl.org/dc/dcmitype/StillImage"/>
    <dc:date>2025-03-01T22:05:46.809433</dc:date>
    <dc:format>image/svg+xml</dc:format>
    <dc:creator>
     <cc:Agent>
      <dc:title>Matplotlib v3.7.5, https://matplotlib.org/</dc:title>
     </cc:Agent>
    </dc:creator>
   </cc:Work>
  </rdf:RDF>
 </metadata>
 <defs>
  <style type="text/css">*{stroke-linejoin: round; stroke-linecap: butt}</style>
 </defs>
 <g id="figure_1">
  <g id="patch_1">
   <path d="M 0 30.588819 
L 97.34 30.588819 
L 97.34 0 
L 0 0 
L 0 30.588819 
z
" style="fill: none"/>
  </g>
  <g id="axes_1"/>
  <g id="axes_2">
   <g id="patch_2">
    <path d="M 4.732992 29.868819 
L 22.307795 29.868819 
L 22.307795 8.042047 
L 4.732992 8.042047 
L 4.732992 29.868819 
z
" style="fill: none"/>
   </g>
   <g id="matplotlib.axis_1"/>
   <g id="matplotlib.axis_2"/>
   <g id="line2d_1">
    <path d="M 4.732992 29.075118 
L 4.864806 28.954402 
L 5.084497 28.226584 
L 5.392064 26.212807 
L 5.919321 20.948409 
L 6.929897 10.876522 
L 7.281402 9.207491 
L 7.501093 8.962374 
L 7.632907 9.131321 
L 7.852598 9.92875 
L 8.204103 12.381815 
L 8.819236 18.753339 
L 9.65406 26.828236 
L 10.005565 28.54485 
L 10.225255 28.835795 
L 10.35707 28.698843 
L 10.57676 27.9591 
L 10.884327 25.960936 
L 11.411584 20.792365 
L 12.378223 11.288659 
L 12.729727 9.524377 
L 12.949418 9.187653 
L 13.081232 9.292651 
L 13.256985 9.789123 
L 13.564551 11.557424 
L 14.047871 16.014507 
L 15.190261 26.993743 
L 15.541766 28.455276 
L 15.717519 28.611494 
L 15.849333 28.462057 
L 16.069024 27.715423 
L 16.37659 25.736683 
L 16.947786 20.191017 
L 17.870486 11.398709 
L 18.221991 9.707752 
L 18.441681 9.402498 
L 18.573496 9.519274 
L 18.793186 10.207732 
L 19.100753 12.105712 
L 19.62801 17.073953 
L 20.638587 26.598076 
L 20.990091 28.170559 
L 21.209782 28.401122 
L 21.341596 28.242415 
L 21.561287 27.493142 
L 21.912792 25.184964 
L 22.308235 21.465871 
L 22.308235 21.465871 
" clip-path="url(#pdfc38575f0)" style="fill: none; stroke: #87b26c; stroke-opacity: 0.3; stroke-linecap: square"/>
   </g>
   <g id="line2d_2">
    <path d="M 4.732992 29.070715 
L 4.864806 28.950128 
L 5.084497 28.222805 
L 5.392064 26.209233 
L 5.919321 20.943028 
L 6.929897 10.877667 
L 7.281402 9.211382 
L 7.501093 8.96662 
L 7.632907 9.135397 
L 7.852598 9.932343 
L 8.204103 12.385389 
L 8.819236 18.758821 
L 9.65406 26.827308 
L 10.005565 28.541156 
L 10.225255 28.831686 
L 10.35707 28.694872 
L 10.57676 27.955595 
L 10.884327 25.957589 
L 11.411584 20.787312 
L 12.378223 11.289377 
L 12.729727 9.527876 
L 12.949418 9.191628 
L 13.081232 9.29652 
L 13.256985 9.792639 
L 13.564551 11.560605 
L 14.047871 16.019057 
L 15.190261 26.992349 
L 15.541766 28.451638 
L 15.717519 28.607649 
L 15.849333 28.458355 
L 16.069024 27.712159 
L 16.37659 25.733539 
L 16.947786 20.186168 
L 17.870486 11.399469 
L 18.221991 9.711068 
L 18.441681 9.406225 
L 18.573496 9.522889 
L 18.793186 10.210926 
L 19.100753 12.108734 
L 19.62801 17.078509 
L 20.638587 26.597097 
L 20.990091 28.167253 
L 21.209782 28.397514 
L 21.341596 28.238952 
L 21.561287 27.49009 
L 21.912792 25.181934 
L 22.308235 21.461631 
L 22.308235 21.461631 
" clip-path="url(#pdfc38575f0)" style="fill: none; stroke-dasharray: 1.48,0.64; stroke-dashoffset: 0; stroke: #87b26c; stroke-width: 0.4"/>
   </g>
   <g id="patch_3">
    <path d="M 4.732992 29.868819 
L 4.732992 8.042047 
" style="fill: none; stroke: #ffffff; stroke-width: 0.5; stroke-linejoin: miter; stroke-linecap: square"/>
   </g>
   <g id="patch_4">
    <path d="M 22.307795 29.868819 
L 22.307795 8.042047 
" style="fill: none; stroke: #ffffff; stroke-width: 0.5; stroke-linejoin: miter; stroke-linecap: square"/>
   </g>
   <g id="patch_5">
    <path d="M 4.732992 29.868819 
L 22.307795 29.868819 
" style="fill: none; stroke: #ffffff; stroke-width: 0.5; stroke-linejoin: miter; stroke-linecap: square"/>
   </g>
   <g id="patch_6">
    <path d="M 4.732992 8.042047 
L 22.307795 8.042047 
" style="fill: none; stroke: #ffffff; stroke-width: 0.5; stroke-linejoin: miter; stroke-linecap: square"/>
   </g>
   <g id="legend_1">
    <g id="line2d_3">
     <path d="M 2.72 4.769219 
L 7.72 4.769219 
L 12.72 4.769219 
" style="fill: none; stroke: #87b26c; stroke-opacity: 0.3; stroke-linecap: square"/>
    </g>
    <g id="text_1">
     <!-- $\ddot{x}$ -->
     <g transform="translate(16.72 6.519219) scale(0.05 -0.05)">
      <defs>
       <path id="STIXGeneral-Regular-308" d="M -614 3885 
Q -518 3789 -518 3661 
Q -518 3533 -614 3440 
Q -710 3347 -845 3347 
Q -973 3347 -1062 3440 
Q -1152 3533 -1152 3667 
Q -1152 3795 -1059 3888 
Q -966 3981 -838 3981 
Q -710 3981 -614 3885 
z
M -1888 3885 
Q -1792 3789 -1792 3661 
Q -1792 3533 -1888 3440 
Q -1984 3347 -2118 3347 
Q -2246 3347 -2336 3440 
Q -2426 3533 -2426 3667 
Q -2426 3795 -2333 3888 
Q -2240 3981 -2112 3981 
Q -1984 3981 -1888 3885 
z
" transform="scale(0.015625)"/>
       <path id="STIXGeneral-Italic-78" d="M 1555 2272 
L 1632 1907 
Q 1971 2426 2179 2624 
Q 2387 2822 2598 2822 
Q 2714 2822 2787 2755 
Q 2861 2688 2861 2585 
Q 2861 2483 2800 2419 
Q 2739 2355 2643 2355 
Q 2586 2355 2490 2409 
Q 2394 2464 2310 2464 
Q 2125 2464 1683 1690 
Q 1683 1606 1734 1402 
L 1939 544 
Q 2003 282 2131 282 
Q 2234 282 2432 538 
Q 2451 563 2476 598 
Q 2502 634 2521 662 
Q 2541 691 2566 717 
L 2662 659 
Q 2387 230 2227 80 
Q 2067 -70 1882 -70 
Q 1728 -70 1645 26 
Q 1562 122 1504 365 
L 1318 1126 
L 755 365 
Q 557 96 432 13 
Q 307 -70 147 -70 
Q 0 -70 -86 0 
Q -173 70 -173 198 
Q -173 294 -112 361 
Q -51 429 45 429 
Q 122 429 250 358 
Q 346 301 416 301 
Q 525 301 742 614 
L 1267 1357 
L 1088 2150 
Q 1024 2432 969 2509 
Q 915 2586 794 2586 
Q 717 2586 544 2541 
L 429 2509 
L 410 2611 
L 480 2637 
Q 992 2822 1229 2822 
Q 1350 2822 1420 2707 
Q 1491 2592 1555 2272 
z
" transform="scale(0.015625)"/>
      </defs>
      <use xlink:href="#STIXGeneral-Regular-308" transform="translate(51.006248 4.796875)"/>
      <use xlink:href="#STIXGeneral-Italic-78" transform="translate(0 0.5)"/>
     </g>
    </g>
    <g id="line2d_4">
     <path d="M 28.97 4.769219 
L 33.97 4.769219 
L 38.97 4.769219 
" style="fill: none; stroke-dasharray: 1.48,0.64; stroke-dashoffset: 0; stroke: #87b26c; stroke-width: 0.4"/>
    </g>
    <g id="text_2">
     <!-- $-x-0.0196x^3-0.0106\dot{x}^3$ -->
     <g transform="translate(42.97 6.519219) scale(0.05 -0.05)">
      <defs>
       <path id="STIXGeneral-Regular-2212" d="M 3974 1408 
L 410 1408 
L 410 1830 
L 3974 1830 
L 3974 1408 
z
" transform="scale(0.015625)"/>
       <path id="STIXGeneral-Regular-30" d="M 3046 2112 
Q 3046 1683 2963 1302 
Q 2880 922 2717 602 
Q 2554 282 2266 96 
Q 1978 -90 1600 -90 
Q 1210 -90 915 108 
Q 621 307 461 640 
Q 301 973 227 1350 
Q 154 1728 154 2150 
Q 154 2746 301 3222 
Q 448 3699 790 4012 
Q 1133 4326 1626 4326 
Q 2253 4326 2649 3712 
Q 3046 3098 3046 2112 
z
M 2432 2080 
Q 2432 3091 2217 3625 
Q 2003 4160 1587 4160 
Q 1190 4160 979 3622 
Q 768 3085 768 2106 
Q 768 1120 979 598 
Q 1190 77 1600 77 
Q 2003 77 2217 598 
Q 2432 1120 2432 2080 
z
" transform="scale(0.015625)"/>
       <path id="STIXGeneral-Regular-2e" d="M 1158 275 
Q 1158 134 1052 32 
Q 947 -70 800 -70 
Q 653 -70 550 32 
Q 448 134 448 281 
Q 448 429 553 534 
Q 659 640 806 640 
Q 947 640 1052 531 
Q 1158 422 1158 275 
z
" transform="scale(0.015625)"/>
       <path id="STIXGeneral-Regular-31" d="M 2522 0 
L 755 0 
L 755 96 
Q 1107 115 1235 227 
Q 1363 339 1363 608 
L 1363 3482 
Q 1363 3795 1171 3795 
Q 1082 3795 883 3718 
L 710 3654 
L 710 3744 
L 1856 4326 
L 1914 4307 
L 1914 486 
Q 1914 275 2042 185 
Q 2170 96 2522 96 
L 2522 0 
z
" transform="scale(0.015625)"/>
       <path id="STIXGeneral-Regular-39" d="M 378 -141 
L 358 -13 
Q 1094 115 1603 608 
Q 2112 1101 2304 1882 
Q 1933 1517 1344 1517 
Q 826 1517 509 1875 
Q 192 2234 192 2816 
Q 192 3462 573 3894 
Q 954 4326 1523 4326 
Q 2131 4326 2528 3840 
Q 2938 3328 2938 2522 
Q 2938 1958 2742 1462 
Q 2547 966 2170 621 
Q 1773 262 1395 105 
Q 1018 -51 378 -141 
z
M 2317 2272 
L 2317 2522 
Q 2317 4147 1472 4147 
Q 1171 4147 1005 3930 
Q 909 3802 845 3546 
Q 781 3290 781 3034 
Q 781 2464 995 2128 
Q 1210 1792 1568 1792 
Q 1824 1792 2070 1917 
Q 2317 2042 2317 2272 
z
" transform="scale(0.015625)"/>
       <path id="STIXGeneral-Regular-36" d="M 2854 4378 
L 2867 4275 
Q 2112 4154 1606 3664 
Q 1101 3174 973 2451 
Q 1344 2739 1786 2739 
Q 2349 2739 2672 2380 
Q 2995 2022 2995 1402 
Q 2995 774 2669 378 
Q 2291 -90 1651 -90 
Q 870 -90 518 557 
Q 218 1107 218 1786 
Q 218 2835 915 3552 
Q 1312 3962 1731 4131 
Q 2150 4301 2854 4378 
z
M 2419 1203 
Q 2419 2445 1555 2445 
Q 1235 2445 1024 2275 
Q 813 2106 813 1702 
Q 813 954 1046 522 
Q 1280 90 1722 90 
Q 2061 90 2240 394 
Q 2419 698 2419 1203 
z
" transform="scale(0.015625)"/>
       <path id="STIXGeneral-Regular-33" d="M 390 3264 
L 288 3290 
Q 435 3770 748 4048 
Q 1062 4326 1542 4326 
Q 1990 4326 2265 4083 
Q 2541 3840 2541 3450 
Q 2541 2925 1946 2566 
Q 2298 2413 2477 2227 
Q 2758 1914 2758 1402 
Q 2758 890 2464 506 
Q 2246 211 1840 60 
Q 1434 -90 979 -90 
Q 262 -90 262 275 
Q 262 378 339 442 
Q 416 506 525 506 
Q 685 506 915 339 
Q 1197 141 1466 141 
Q 1818 141 2058 425 
Q 2298 710 2298 1120 
Q 2298 1856 1632 2048 
Q 1434 2112 979 2112 
L 979 2202 
Q 1338 2323 1517 2432 
Q 2035 2726 2035 3290 
Q 2035 3610 1852 3776 
Q 1670 3942 1344 3942 
Q 768 3942 390 3264 
z
" transform="scale(0.015625)"/>
       <path id="STIXGeneral-Regular-307" d="M -1158 3661 
Q -1158 3526 -1251 3436 
Q -1344 3347 -1478 3347 
Q -1606 3347 -1699 3440 
Q -1792 3533 -1792 3661 
Q -1792 3795 -1705 3888 
Q -1619 3981 -1478 3981 
Q -1331 3981 -1244 3891 
Q -1158 3802 -1158 3661 
z
" transform="scale(0.015625)"/>
      </defs>
      <use xlink:href="#STIXGeneral-Regular-2212" transform="translate(0 0.409375)"/>
      <use xlink:href="#STIXGeneral-Italic-78" transform="translate(68.499985 0.409375)"/>
      <use xlink:href="#STIXGeneral-Regular-2212" transform="translate(127.339975 0.409375)"/>
      <use xlink:href="#STIXGeneral-Regular-30" transform="translate(210.279956 0.409375)"/>
      <use xlink:href="#STIXGeneral-Regular-2e" transform="translate(260.279941 0.409375)"/>
      <use xlink:href="#STIXGeneral-Regular-30" transform="translate(285.279926 0.409375)"/>
      <use xlink:href="#STIXGeneral-Regular-31" transform="translate(335.27991 0.409375)"/>
      <use xlink:href="#STIXGeneral-Regular-39" transform="translate(385.279895 0.409375)"/>
      <use xlink:href="#STIXGeneral-Regular-36" transform="translate(435.27988 0.409375)"/>
      <use xlink:href="#STIXGeneral-Italic-78" transform="translate(485.279865 0.409375)"/>
      <use xlink:href="#STIXGeneral-Regular-33" transform="translate(535.852983 35.684375) scale(0.7)"/>
      <use xlink:href="#STIXGeneral-Regular-2212" transform="translate(589.702344 0.409375)"/>
      <use xlink:href="#STIXGeneral-Regular-30" transform="translate(672.642325 0.409375)"/>
      <use xlink:href="#STIXGeneral-Regular-2e" transform="translate(722.64231 0.409375)"/>
      <use xlink:href="#STIXGeneral-Regular-30" transform="translate(747.642295 0.409375)"/>
      <use xlink:href="#STIXGeneral-Regular-31" transform="translate(797.642279 0.409375)"/>
      <use xlink:href="#STIXGeneral-Regular-30" transform="translate(847.642264 0.409375)"/>
      <use xlink:href="#STIXGeneral-Regular-36" transform="translate(897.642249 0.409375)"/>
      <use xlink:href="#STIXGeneral-Regular-307" transform="translate(998.742232 4.70625)"/>
      <use xlink:href="#STIXGeneral-Italic-78" transform="translate(947.642234 0.409375)"/>
      <use xlink:href="#STIXGeneral-Regular-33" transform="translate(993.585509 35.684375) scale(0.7)"/>
     </g>
    </g>
   </g>
  </g>
  <g id="axes_3">
   <g id="patch_7">
    <path d="M 75.032205 29.868819 
L 92.607008 29.868819 
L 92.607008 8.042047 
L 75.032205 8.042047 
L 75.032205 29.868819 
z
" style="fill: none"/>
   </g>
   <g id="matplotlib.axis_3"/>
   <g id="matplotlib.axis_4"/>
   <g id="line2d_5">
    <path d="M 75.009796 17.808534 
L 75.580992 16.081922 
L 75.932497 15.57349 
L 76.196125 15.54289 
L 76.459754 15.819363 
L 76.811259 16.618017 
L 77.382454 18.619627 
L 78.261216 21.646565 
L 78.656659 22.306183 
L 78.920288 22.376664 
L 79.139978 22.199689 
L 79.447545 21.615829 
L 79.930864 20.087935 
L 81.117193 16.048213 
L 81.468698 15.569963 
L 81.688388 15.542414 
L 81.908079 15.728634 
L 82.215646 16.323442 
L 82.698965 17.861056 
L 83.885294 21.878871 
L 84.236799 22.342014 
L 84.456489 22.359836 
L 84.67618 22.164427 
L 84.983746 21.558787 
L 85.467066 20.011683 
L 86.609456 16.107201 
L 86.960961 15.595488 
L 87.22459 15.560048 
L 87.488218 15.830109 
L 87.839723 16.61883 
L 88.410919 18.604859 
L 89.289681 21.621111 
L 89.685124 22.28376 
L 89.948752 22.358869 
L 90.168443 22.18702 
L 90.47601 21.611593 
L 90.959329 20.097496 
L 92.145658 16.073364 
L 92.497163 15.59153 
L 92.628977 15.546863 
L 92.628977 15.546863 
" clip-path="url(#pcad3f7251a)" style="fill: none; stroke: #87b26c; stroke-opacity: 0.3; stroke-linecap: square"/>
   </g>
   <g id="line2d_6">
    <path d="M 75.009796 17.808343 
L 75.580992 16.08199 
L 75.932497 15.573662 
L 76.196125 15.543069 
L 76.459754 15.819517 
L 76.811259 16.618167 
L 77.382454 18.619859 
L 78.261216 21.646534 
L 78.656659 22.306017 
L 78.920288 22.376484 
L 79.139978 22.199528 
L 79.447545 21.615686 
L 79.930864 20.087731 
L 81.117193 16.048289 
L 81.468698 15.570136 
L 81.688388 15.542592 
L 81.908079 15.728794 
L 82.215646 16.323585 
L 82.698965 17.861261 
L 83.885294 21.878791 
L 84.236799 22.341841 
L 84.456489 22.359659 
L 84.67618 22.164269 
L 84.983746 21.558645 
L 85.467066 20.011478 
L 86.609456 16.107265 
L 86.960961 15.595656 
L 87.22459 15.560223 
L 87.488218 15.830261 
L 87.839723 16.618977 
L 88.410919 18.605087 
L 89.289681 21.621083 
L 89.685124 22.283597 
L 89.948752 22.358693 
L 90.168443 22.186861 
L 90.47601 21.611452 
L 90.959329 20.097297 
L 92.145658 16.073436 
L 92.497163 15.591699 
L 92.628977 15.547041 
L 92.628977 15.547041 
" clip-path="url(#pcad3f7251a)" style="fill: none; stroke-dasharray: 1.48,0.64; stroke-dashoffset: 0; stroke: #87b26c; stroke-width: 0.4"/>
   </g>
   <g id="patch_8">
    <path d="M 75.032205 29.868819 
L 75.032205 8.042047 
" style="fill: none; stroke: #ffffff; stroke-width: 0.5; stroke-linejoin: miter; stroke-linecap: square"/>
   </g>
   <g id="patch_9">
    <path d="M 92.607008 29.868819 
L 92.607008 8.042047 
" style="fill: none; stroke: #ffffff; stroke-width: 0.5; stroke-linejoin: miter; stroke-linecap: square"/>
   </g>
   <g id="patch_10">
    <path d="M 75.032205 29.868819 
L 92.607008 29.868819 
" style="fill: none; stroke: #ffffff; stroke-width: 0.5; stroke-linejoin: miter; stroke-linecap: square"/>
   </g>
   <g id="patch_11">
    <path d="M 75.032205 8.042047 
L 92.607008 8.042047 
" style="fill: none; stroke: #ffffff; stroke-width: 0.5; stroke-linejoin: miter; stroke-linecap: square"/>
   </g>
  </g>
  <g id="axes_4">
   <g id="patch_12">
    <path d="M 22.307795 29.868819 
L 75.032205 29.868819 
L 75.032205 8.042047 
L 22.307795 8.042047 
L 22.307795 29.868819 
z
" style="fill: none"/>
   </g>
   <g id="matplotlib.axis_5"/>
   <g id="matplotlib.axis_6"/>
   <g id="line2d_7">
    <path d="M 22.305077 21.914808 
L 22.40943 9.604476 
L 22.461606 13.750768 
L 22.57969 28.21014 
L 22.637359 23.489998 
L 22.752696 9.794543 
L 22.807619 14.28747 
L 22.922956 28.02697 
L 22.980625 23.363067 
L 23.095963 9.973609 
L 23.150885 14.409071 
L 23.266223 27.853979 
L 23.321145 23.638507 
L 23.439229 10.142533 
L 23.494152 14.514419 
L 23.609489 27.690382 
L 23.664412 23.53729 
L 23.779749 10.301512 
L 23.837418 14.605249 
L 23.952756 27.535437 
L 24.007678 23.449864 
L 24.123016 10.452155 
L 24.180685 14.683083 
L 24.296022 27.38845 
L 24.350945 23.374804 
L 24.466282 10.595421 
L 24.523951 14.749257 
L 24.639289 27.248773 
L 24.694211 23.310849 
L 24.809549 10.731907 
L 24.867217 14.804956 
L 24.982555 27.1158 
L 25.037478 23.256882 
L 25.155561 10.861516 
L 25.210484 14.851228 
L 25.325821 26.988969 
L 25.38349 22.865156 
L 25.498828 10.98478 
L 25.55375 14.889006 
L 25.669088 26.867756 
L 25.726757 22.834328 
L 25.842094 11.10252 
L 25.897017 14.919127 
L 26.012354 26.751677 
L 26.070023 22.810727 
L 26.185361 11.21522 
L 26.240283 14.942337 
L 26.355621 26.640278 
L 26.41329 22.793649 
L 26.528627 11.32333 
L 26.58355 14.959308 
L 26.698887 26.533141 
L 26.756556 22.782457 
L 26.871894 11.427267 
L 26.926816 14.970648 
L 27.0449 26.431441 
L 27.099822 22.776579 
L 27.21516 11.527418 
L 27.272829 15.296169 
L 27.388166 26.334476 
L 27.443089 22.775497 
L 27.558426 11.624142 
L 27.616095 15.292233 
L 27.731433 26.24085 
L 27.786355 22.778737 
L 27.901693 11.717772 
L 27.959362 15.284224 
L 28.074699 26.150232 
L 28.132368 22.47602 
L 28.247705 11.805811 
L 28.302628 15.27255 
L 28.417966 26.062317 
L 28.475634 22.492103 
L 28.590972 11.890744 
L 28.645895 15.257583 
L 28.761232 25.976821 
L 28.818901 22.51128 
L 28.934238 11.97334 
L 28.991907 15.540354 
L 29.107245 25.896104 
L 29.162167 22.533227 
L 29.277505 12.053859 
L 29.335174 15.514492 
L 29.450511 25.818447 
L 29.505434 22.557645 
L 29.620771 12.132544 
L 29.67844 15.486319 
L 29.793778 25.742549 
L 29.851446 22.292484 
L 29.966784 12.206068 
L 30.021707 15.456096 
L 30.137044 25.668187 
L 30.194713 22.326219 
L 30.31005 12.277684 
L 30.364973 15.424066 
L 30.483057 25.596302 
L 30.537979 22.361634 
L 30.653317 12.348039 
L 30.710986 15.673537 
L 30.826323 25.528648 
L 30.881246 22.398511 
L 30.996583 12.417323 
L 31.054252 15.633479 
L 31.16959 25.461997 
L 31.227258 22.157057 
L 31.342596 12.482179 
L 31.397518 15.592261 
L 31.512856 25.396177 
L 31.570525 22.201272 
L 31.685862 12.545409 
L 31.743531 15.826195 
L 31.858869 25.333048 
L 31.913791 22.246377 
L 32.029129 12.608033 
L 32.086798 15.778259 
L 32.202135 25.27297 
L 32.257058 22.292212 
L 32.375141 12.669378 
L 32.430064 15.729673 
L 32.545402 25.213291 
L 32.60307 22.070777 
L 32.718408 12.726555 
L 32.77333 15.680582 
L 32.888668 25.153876 
L 32.946337 22.122479 
L 33.061674 12.783526 
L 33.119343 15.895639 
L 33.234681 25.099261 
L 33.289603 22.174486 
L 33.404941 12.840414 
L 33.462609 15.841148 
L 33.577947 25.044775 
L 33.635616 21.965457 
L 33.750953 12.893255 
L 33.805876 15.786534 
L 33.921213 24.990205 
L 33.978882 22.022439 
L 34.09422 12.945464 
L 34.151889 15.989856 
L 34.267226 24.939162 
L 34.322149 22.079383 
L 34.437486 12.997914 
L 34.495155 15.930651 
L 34.610493 24.889032 
L 34.668161 21.881472 
L 34.783499 13.047144 
L 34.838421 15.871631 
L 34.953759 24.838516 
L 35.011428 21.942657 
L 35.126765 13.09538 
L 35.184434 16.064402 
L 35.299772 24.79111 
L 35.354694 22.003523 
L 35.470032 13.144136 
L 35.5277 16.001459 
L 35.643038 24.744594 
L 35.700707 21.815643 
L 35.816044 13.189716 
L 35.870967 15.938955 
L 35.986304 24.697433 
L 36.043973 21.880142 
L 36.159311 13.234673 
L 36.21698 16.122175 
L 36.332317 24.653681 
L 36.38724 21.944092 
L 36.502577 13.280393 
L 36.560246 16.056303 
L 36.675584 24.610128 
L 36.733252 21.765321 
L 36.84859 13.32232 
L 36.903512 15.991082 
L 37.021596 24.565755 
L 37.076519 21.832397 
L 37.191856 13.364613 
L 37.249525 16.1656 
L 37.364863 24.525597 
L 37.419785 21.89873 
L 37.537869 13.407104 
L 37.592791 16.097474 
L 37.708129 24.48443 
L 37.765798 21.728283 
L 37.881135 13.446173 
L 37.936058 16.030177 
L 38.054142 24.443807 
L 38.109064 21.797317 
L 38.224402 13.486341 
L 38.282071 16.19672 
L 38.397408 24.405703 
L 38.455077 21.631194 
L 38.570414 13.525109 
L 38.625337 16.126909 
L 38.740675 24.366414 
L 38.798343 21.702648 
L 38.913681 13.562367 
L 38.97135 16.289334 
L 39.086687 24.329487 
L 39.14161 21.773115 
L 39.256947 13.600889 
L 39.314616 16.21727 
L 39.429954 24.292964 
L 39.487622 21.614246 
L 39.60296 13.635991 
L 39.657882 16.146259 
L 39.775966 24.255732 
L 39.830889 21.686812 
L 39.946226 13.671884 
L 40.003895 16.301704 
L 40.119233 24.221809 
L 40.176901 21.531671 
L 40.292239 13.707263 
L 40.347162 16.228736 
L 40.462499 24.186449 
L 40.520168 21.60612 
L 40.635505 13.740684 
L 40.693174 16.380619 
L 40.808512 24.152902 
L 40.863434 21.679397 
L 40.978772 13.775606 
L 41.036441 16.305896 
L 41.151778 24.119891 
L 41.209447 21.53066 
L 41.324784 13.80734 
L 41.379707 16.232396 
L 41.497791 24.086186 
L 41.552713 21.605574 
L 41.668051 13.840026 
L 41.72572 16.378092 
L 41.841057 24.055382 
L 41.898726 21.460083 
L 42.014063 13.871902 
L 42.068986 16.303065 
L 42.184324 24.022938 
L 42.241992 21.536463 
L 42.35733 13.90249 
L 42.414999 16.445651 
L 42.530336 23.992871 
L 42.585259 21.611531 
L 42.703342 13.934428 
L 42.758265 16.369256 
L 42.873603 23.962422 
L 42.931271 21.471761 
L 43.046609 13.963048 
L 43.104278 16.508871 
L 43.219615 23.932302 
L 43.274538 21.548104 
L 43.389875 13.993427 
L 43.447544 16.431254 
L 43.562882 23.903725 
L 43.62055 21.411186 
L 43.735888 14.021752 
L 43.790811 16.355025 
L 43.908894 23.873619 
L 43.963817 21.488668 
L 44.079154 14.050351 
L 44.136823 16.489323 
L 44.252161 23.846797 
L 44.309829 21.354479 
L 44.425167 14.078658 
L 44.48009 16.412032 
L 44.595427 23.818112 
L 44.653096 21.432976 
L 44.768433 14.105589 
L 44.826102 16.543704 
L 44.94144 23.791584 
L 44.996362 21.510022 
L 45.114446 14.13382 
L 45.169369 16.465469 
L 45.284706 23.764486 
L 45.342375 21.3808 
L 45.457713 14.159189 
L 45.515381 16.594624 
L 45.630719 23.738034 
L 45.685641 21.458725 
L 45.800979 14.186509 
L 45.858648 16.515551 
L 45.973985 23.712421 
L 46.031654 21.331928 
L 46.146992 14.211204 
L 46.201914 16.437984 
L 46.319998 23.686093 
L 46.37492 21.410631 
L 46.490258 14.237112 
L 46.547927 16.562478 
L 46.663264 23.661868 
L 46.720933 21.286163 
L 46.836271 14.261684 
L 46.891193 16.484189 
L 47.009277 23.635707 
L 47.0642 21.365553 
L 47.179537 14.286273 
L 47.237206 16.606435 
L 47.352543 23.612779 
L 47.410212 21.243324 
L 47.52555 14.310681 
L 47.580472 16.527511 
L 47.69581 23.587781 
L 47.753479 21.323314 
L 47.868816 14.334038 
L 47.926485 16.647594 
L 48.041822 23.565105 
L 48.096745 21.401736 
L 48.214829 14.358246 
L 48.269751 16.568115 
L 48.385089 23.541277 
L 48.442758 21.283753 
L 48.558095 14.380453 
L 48.615764 16.686116 
L 48.731101 23.518797 
L 48.786024 21.362686 
L 48.904108 14.404428 
L 48.95903 16.606156 
L 49.074368 23.49606 
L 49.132037 21.246718 
L 49.247374 14.425566 
L 49.305043 16.722149 
L 49.42038 23.473807 
L 49.475303 21.326092 
L 49.590641 14.448868 
L 49.648309 16.641776 
L 49.763647 23.452085 
L 49.821316 21.212068 
L 49.936653 14.46942 
L 49.994322 16.755832 
L 50.10966 23.430088 
L 50.164582 21.291817 
L 50.27992 14.49176 
L 50.337588 16.67511 
L 50.452926 23.409311 
L 50.510595 21.179671 
L 50.625932 14.512062 
L 50.680855 16.596013 
L 50.798939 23.387595 
L 50.853861 21.259736 
L 50.969199 14.533507 
L 51.026867 16.706283 
L 51.142205 23.367693 
L 51.199874 21.149403 
L 51.315211 14.553535 
L 51.370134 16.626902 
L 51.488218 23.346282 
L 51.54314 21.22973 
L 51.658478 14.574151 
L 51.716147 16.735411 
L 51.831484 23.327191 
L 51.889153 21.121149 
L 52.00449 14.593881 
L 52.059413 16.655798 
L 52.177497 23.306106 
L 52.232419 21.201686 
L 52.347757 14.613731 
L 52.405426 16.762605 
L 52.520763 23.287763 
L 52.578432 21.094803 
L 52.693769 14.633144 
L 52.748692 16.68281 
L 52.86403 23.267129 
L 52.921698 21.175501 
L 53.037036 14.652286 
L 53.094705 16.787967 
L 53.210042 23.249369 
L 53.267711 21.07026 
L 53.383048 14.671363 
L 53.437971 16.708034 
L 53.553309 23.229403 
L 53.610977 21.151077 
L 53.726315 14.689855 
L 53.783984 16.811593 
L 53.899321 23.21197 
L 53.95699 21.047428 
L 54.072327 14.708579 
L 54.12725 16.731565 
L 54.242588 23.192619 
L 54.300256 21.128322 
L 54.415594 14.726474 
L 54.473263 16.833575 
L 54.5886 23.175529 
L 54.646269 21.026218 
L 54.761607 14.74483 
L 54.816529 16.753491 
L 54.931867 23.156739 
L 54.989535 21.10715 
L 55.104873 14.762179 
L 55.162542 16.853996 
L 55.277879 23.140009 
L 55.335548 21.006543 
L 55.450886 14.780154 
L 55.505808 16.773893 
L 55.621146 23.121732 
L 55.678814 21.087479 
L 55.794152 14.797006 
L 55.851821 16.872938 
L 55.967158 23.105374 
L 56.024827 20.988328 
L 56.140165 14.814587 
L 56.195087 16.79285 
L 56.310425 23.087562 
L 56.368094 21.069234 
L 56.483431 14.830989 
L 56.5411 16.890475 
L 56.656437 23.071589 
L 56.714106 20.971496 
L 56.829444 14.848165 
L 56.884366 16.810434 
L 56.999704 23.054197 
L 57.057373 21.052342 
L 57.17271 14.864161 
L 57.230379 16.906678 
L 57.345716 23.038619 
L 57.403385 20.955979 
L 57.518723 14.880921 
L 57.573645 16.826713 
L 57.688983 23.021607 
L 57.746652 21.036735 
L 57.861989 14.896553 
L 57.919658 16.921615 
L 58.034995 23.006435 
L 58.092664 20.941709 
L 58.208002 14.912889 
L 58.262924 16.841754 
L 58.378262 22.98976 
L 58.435931 21.02235 
L 58.551268 14.928197 
L 58.608937 16.935347 
L 58.724274 22.975003 
L 58.781943 20.928626 
L 58.897281 14.9441 
L 58.952203 16.855616 
L 59.067541 22.958626 
L 59.12521 21.009125 
L 59.240547 14.959123 
L 59.298216 16.947936 
L 59.413554 22.944293 
L 59.471222 20.91667 
L 59.58656 14.974585 
L 59.641482 16.86836 
L 59.75682 22.928178 
L 59.814489 20.997004 
L 59.929826 14.989361 
L 59.987495 16.959438 
L 60.102833 22.914275 
L 60.160501 20.905786 
L 60.275839 15.004375 
L 60.330761 16.880039 
L 60.446099 22.898385 
L 60.503768 20.985933 
L 60.619105 15.018938 
L 60.676774 16.969905 
L 60.792112 22.88492 
L 60.84978 20.89592 
L 60.965118 15.033498 
L 61.020041 16.890704 
L 61.138124 22.869274 
L 61.193047 20.975859 
L 61.308384 15.047882 
L 61.366053 16.979388 
L 61.481391 22.856203 
L 61.539059 20.887024 
L 61.654397 15.061983 
L 61.70932 16.900407 
L 61.827403 22.841031 
L 61.882326 20.966735 
L 61.997663 15.07622 
L 62.055332 16.987936 
L 62.17067 22.828094 
L 62.228338 20.87905 
L 62.343676 15.089856 
L 62.398599 16.909193 
L 62.516682 22.813401 
L 62.571605 20.958515 
L 62.686942 15.103976 
L 62.744611 16.995593 
L 62.859949 22.800569 
L 62.917618 20.871953 
L 63.032955 15.117143 
L 63.087878 16.917106 
L 63.205961 22.78636 
L 63.260884 20.951155 
L 63.376221 15.131175 
L 63.43389 17.002403 
L 63.549228 22.773602 
L 63.606897 20.865691 
L 63.722234 15.143869 
L 63.777157 16.924189 
L 63.89524 22.75988 
L 63.952909 20.779932 
L 64.065501 15.157843 
L 64.123169 17.008406 
L 64.238507 22.74717 
L 64.296176 20.860224 
L 64.411513 15.17006 
L 64.469182 17.092955 
L 64.584519 22.733937 
L 64.639442 20.93885 
L 64.75478 15.184001 
L 64.812448 17.013642 
L 64.927786 22.721249 
L 64.985455 20.855513 
L 65.100792 15.195737 
L 65.158461 17.097143 
L 65.273798 22.70851 
L 65.328721 20.933829 
L 65.446805 15.209472 
L 65.501727 17.018147 
L 65.617065 22.695817 
L 65.674734 20.851522 
L 65.790071 15.220924 
L 65.84774 17.100623 
L 65.963078 22.683573 
L 66.018 20.929514 
L 66.136084 15.234152 
L 66.191006 17.021956 
L 66.306344 22.670852 
L 66.364013 20.848217 
L 66.47935 15.245643 
L 66.537019 17.103428 
L 66.652357 22.659105 
L 66.707279 20.925871 
L 66.825363 15.258362 
L 66.880285 17.025103 
L 66.995623 22.646333 
L 67.053292 20.845563 
L 67.168629 15.269916 
L 67.226298 17.10559 
L 67.341636 22.635086 
L 67.399304 20.764908 
L 67.514642 15.282124 
L 67.569565 17.02762 
L 67.684902 22.622239 
L 67.742571 20.84353 
L 67.857908 15.293762 
L 67.915577 17.107141 
L 68.030915 22.611493 
L 68.088583 20.763836 
L 68.203921 15.305458 
L 68.258844 17.029537 
L 68.376927 22.598854 
L 68.43185 20.842089 
L 68.547187 15.317201 
L 68.604856 17.10811 
L 68.720194 22.588308 
L 68.777862 20.763337 
L 68.8932 15.328384 
L 68.948123 17.030883 
L 69.066206 22.576192 
L 69.121129 20.841209 
L 69.236466 15.340252 
L 69.294135 17.108526 
L 69.409473 22.56551 
L 69.467141 20.763383 
L 69.582479 15.350922 
L 69.640148 17.186524 
L 69.755485 22.553918 
L 69.810408 20.840864 
L 69.925745 15.362935 
L 69.983414 17.108415 
L 70.098752 22.543083 
L 70.156421 20.763948 
L 70.271758 15.37309 
L 70.329427 17.185508 
L 70.444764 22.532015 
L 70.499687 20.841027 
L 70.617771 15.385064 
L 70.672693 17.107803 
L 70.788031 22.521008 
L 70.8457 20.765005 
L 70.961037 15.394905 
L 71.018706 17.184007 
L 71.134043 22.510464 
L 71.188966 20.841675 
L 71.30705 15.406346 
L 71.361972 17.106715 
L 71.47731 22.499266 
L 71.534979 20.766532 
L 71.650316 15.416386 
L 71.707985 17.182045 
L 71.823322 22.489247 
L 71.880991 20.691025 
L 71.996329 15.427294 
L 72.051251 17.105174 
L 72.166589 22.477843 
L 72.224258 20.768504 
L 72.339595 15.43755 
L 72.397264 17.179643 
L 72.512601 22.468349 
L 72.57027 20.693853 
L 72.685608 15.447924 
L 72.74053 17.103202 
L 72.858614 22.4571 
L 72.913537 20.7709 
L 73.028874 15.458411 
L 73.086543 17.176825 
L 73.201881 22.447751 
L 73.259549 20.697091 
L 73.374887 15.468253 
L 73.429809 17.100822 
L 73.547893 22.437043 
L 73.602816 20.773698 
L 73.718153 15.478987 
L 73.775822 17.173612 
L 73.89116 22.42744 
L 73.948828 20.700717 
L 74.064166 15.488297 
L 74.121835 17.246774 
L 74.237172 22.417272 
L 74.292095 20.776878 
L 74.410178 15.499317 
L 74.465101 17.170022 
L 74.580439 22.407399 
L 74.638107 20.704714 
L 74.753445 15.50807 
L 74.811114 17.242373 
L 74.926451 22.397771 
L 74.981374 20.78042 
L 75.03355 17.648245 
L 75.03355 17.648245 
" clip-path="url(#pbec93c6600)" style="fill: none; stroke: #87b26c; stroke-width: 0.05; stroke-linecap: square"/>
   </g>
   <g id="line2d_8">
    <path d="M 22.305077 21.910709 
L 22.40943 9.607979 
L 22.461606 13.753969 
L 22.57969 28.206741 
L 22.637359 23.486691 
L 22.752696 9.797843 
L 22.807619 14.290623 
L 22.922956 28.023762 
L 22.980625 23.359935 
L 23.095963 9.976725 
L 23.150885 14.412058 
L 23.266223 27.850946 
L 23.321145 23.635657 
L 23.439229 10.145482 
L 23.494152 14.517253 
L 23.609489 27.687509 
L 23.664412 23.534584 
L 23.779749 10.304308 
L 23.837418 14.60794 
L 23.952756 27.53271 
L 24.007678 23.447295 
L 24.123016 10.454812 
L 24.180685 14.685639 
L 24.296022 27.385857 
L 24.350945 23.372361 
L 24.466282 10.597949 
L 24.523951 14.751688 
L 24.639289 27.246303 
L 24.694211 23.308525 
L 24.809549 10.734316 
L 24.867217 14.80727 
L 24.982555 27.113444 
L 25.037478 23.254669 
L 25.155561 10.863816 
L 25.210484 14.853432 
L 25.325821 26.986719 
L 25.38349 22.86296 
L 25.498828 10.986979 
L 25.55375 14.891107 
L 25.669088 26.865604 
L 25.726757 22.832234 
L 25.842094 11.104625 
L 25.897017 14.92113 
L 26.012354 26.749616 
L 26.070023 22.80873 
L 26.185361 11.217238 
L 26.240283 14.944248 
L 26.355621 26.638302 
L 26.41329 22.791742 
L 26.528627 11.325267 
L 26.58355 14.961133 
L 26.698887 26.531245 
L 26.756556 22.780636 
L 26.871894 11.429128 
L 26.926816 14.972392 
L 27.0449 26.429619 
L 27.099822 22.77484 
L 27.21516 11.529207 
L 27.272829 15.297905 
L 27.388166 26.332722 
L 27.443089 22.773834 
L 27.558426 11.625863 
L 27.616095 15.293893 
L 27.731433 26.23916 
L 27.786355 22.777146 
L 27.901693 11.719429 
L 27.959362 15.285812 
L 28.074699 26.148603 
L 28.132368 22.474434 
L 28.247705 11.807409 
L 28.302628 15.27407 
L 28.417966 26.060746 
L 28.475634 22.490585 
L 28.590972 11.892287 
L 28.645895 15.259038 
L 28.761232 25.975305 
L 28.818901 22.509827 
L 28.934238 11.974831 
L 28.991907 15.541806 
L 29.107245 25.894639 
L 29.162167 22.531835 
L 29.277505 12.0553 
L 29.335174 15.515884 
L 29.450511 25.81703 
L 29.505434 22.55631 
L 29.620771 12.133936 
L 29.67844 15.487652 
L 29.793778 25.741177 
L 29.851446 22.291152 
L 29.966784 12.207417 
L 30.021707 15.457374 
L 30.137044 25.666859 
L 30.194713 22.324941 
L 30.31005 12.278991 
L 30.364973 15.425292 
L 30.483057 25.595016 
L 30.537979 22.360408 
L 30.653317 12.349306 
L 30.710986 15.674763 
L 30.826323 25.5274 
L 30.881246 22.397335 
L 30.996583 12.418551 
L 31.054252 15.634656 
L 31.16959 25.460786 
L 31.227258 22.155881 
L 31.342596 12.483372 
L 31.397518 15.593391 
L 31.512856 25.395002 
L 31.570525 22.200143 
L 31.685862 12.546568 
L 31.743531 15.827325 
L 31.858869 25.331906 
L 31.913791 22.245293 
L 32.029129 12.609159 
L 32.086798 15.779344 
L 32.202135 25.27186 
L 32.257058 22.29117 
L 32.375141 12.670472 
L 32.430064 15.730716 
L 32.545402 25.212212 
L 32.60307 22.069734 
L 32.718408 12.72762 
L 32.77333 15.681584 
L 32.888668 25.152827 
L 32.946337 22.121477 
L 33.061674 12.784563 
L 33.119343 15.896642 
L 33.234681 25.098238 
L 33.289603 22.173522 
L 33.404941 12.841423 
L 33.462609 15.842113 
L 33.577947 25.043779 
L 33.635616 21.964492 
L 33.750953 12.894238 
L 33.805876 15.787461 
L 33.921213 24.989236 
L 33.978882 22.021511 
L 34.09422 12.946422 
L 34.151889 15.990785 
L 34.267226 24.938217 
L 34.322149 22.07849 
L 34.437486 12.998848 
L 34.495155 15.931545 
L 34.610493 24.88811 
L 34.668161 21.880577 
L 34.783499 13.048054 
L 34.838421 15.872491 
L 34.953759 24.837617 
L 35.011428 21.941795 
L 35.126765 13.096268 
L 35.184434 16.065264 
L 35.299772 24.790232 
L 35.354694 22.002694 
L 35.470032 13.145003 
L 35.5277 16.002289 
L 35.643038 24.743737 
L 35.700707 21.814811 
L 35.816044 13.190563 
L 35.870967 15.939755 
L 35.986304 24.696596 
L 36.043973 21.879342 
L 36.159311 13.235501 
L 36.21698 16.122976 
L 36.332317 24.652863 
L 36.38724 21.943321 
L 36.502577 13.281201 
L 36.560246 16.057075 
L 36.675584 24.609328 
L 36.733252 21.764548 
L 36.84859 13.323111 
L 36.903512 15.991825 
L 37.021596 24.564974 
L 37.076519 21.831652 
L 37.191856 13.365386 
L 37.249525 16.166346 
L 37.364863 24.524832 
L 37.419785 21.898012 
L 37.537869 13.40786 
L 37.592791 16.098193 
L 37.708129 24.483682 
L 37.765798 21.727563 
L 37.881135 13.446913 
L 37.936058 16.03087 
L 38.054142 24.443075 
L 38.109064 21.796622 
L 38.224402 13.487066 
L 38.282071 16.197416 
L 38.397408 24.404986 
L 38.455077 21.630497 
L 38.570414 13.525818 
L 38.625337 16.12758 
L 38.740675 24.365712 
L 38.798343 21.701976 
L 38.913681 13.563062 
L 38.97135 16.290008 
L 39.086687 24.328799 
L 39.14161 21.772466 
L 39.256947 13.601569 
L 39.314616 16.21792 
L 39.429954 24.29229 
L 39.487622 21.613594 
L 39.60296 13.636658 
L 39.657882 16.146886 
L 39.775966 24.255072 
L 39.830889 21.686184 
L 39.946226 13.672538 
L 40.003895 16.302334 
L 40.119233 24.221162 
L 40.176901 21.53104 
L 40.292239 13.707904 
L 40.347162 16.229343 
L 40.462499 24.185814 
L 40.520168 21.605511 
L 40.635505 13.741313 
L 40.693174 16.381229 
L 40.808512 24.152279 
L 40.863434 21.67881 
L 40.978772 13.776222 
L 41.036441 16.306485 
L 41.151778 24.11928 
L 41.209447 21.530069 
L 41.324784 13.807945 
L 41.379707 16.232964 
L 41.497791 24.085587 
L 41.552713 21.605005 
L 41.668051 13.84062 
L 41.72572 16.378663 
L 41.841057 24.054793 
L 41.898726 21.45951 
L 42.014063 13.872485 
L 42.068986 16.303616 
L 42.184324 24.022361 
L 42.241992 21.535911 
L 42.35733 13.903063 
L 42.414999 16.446205 
L 42.530336 23.992303 
L 42.585259 21.610998 
L 42.703342 13.93499 
L 42.758265 16.369791 
L 42.873603 23.961865 
L 42.931271 21.471224 
L 43.046609 13.963601 
L 43.104278 16.509409 
L 43.219615 23.931754 
L 43.274538 21.547586 
L 43.389875 13.99397 
L 43.447544 16.431774 
L 43.562882 23.903187 
L 43.62055 21.410665 
L 43.735888 14.022286 
L 43.790811 16.355527 
L 43.908894 23.87309 
L 43.963817 21.488165 
L 44.079154 14.050876 
L 44.136823 16.489827 
L 44.252161 23.846277 
L 44.309829 21.353973 
L 44.425167 14.079173 
L 44.48009 16.412519 
L 44.595427 23.817601 
L 44.653096 21.432488 
L 44.768433 14.106096 
L 44.826102 16.544195 
L 44.94144 23.791081 
L 44.996362 21.50955 
L 45.114446 14.134319 
L 45.169369 16.465942 
L 45.284706 23.763991 
L 45.342375 21.380325 
L 45.457713 14.15968 
L 45.515381 16.595101 
L 45.630719 23.737547 
L 45.685641 21.458266 
L 45.800979 14.186992 
L 45.858648 16.516012 
L 45.973985 23.711942 
L 46.031654 21.331466 
L 46.146992 14.211679 
L 46.201914 16.438429 
L 46.319998 23.685622 
L 46.37492 21.410185 
L 46.490258 14.237579 
L 46.547927 16.562926 
L 46.663264 23.661405 
L 46.720933 21.285714 
L 46.836271 14.262144 
L 46.891193 16.484621 
L 47.009277 23.63525 
L 47.0642 21.365118 
L 47.179537 14.286726 
L 47.237206 16.606871 
L 47.352543 23.61233 
L 47.410212 21.242886 
L 47.52555 14.311127 
L 47.580472 16.527932 
L 47.69581 23.587339 
L 47.753479 21.322891 
L 47.868816 14.334477 
L 47.926485 16.648018 
L 48.041822 23.564669 
L 48.096745 21.401327 
L 48.214829 14.358678 
L 48.269751 16.568525 
L 48.385089 23.540848 
L 48.442758 21.283342 
L 48.558095 14.38088 
L 48.615764 16.686528 
L 48.731101 23.518373 
L 48.786024 21.362288 
L 48.904108 14.404848 
L 48.95903 16.606555 
L 49.074368 23.495643 
L 49.132037 21.246318 
L 49.247374 14.42598 
L 49.305043 16.722551 
L 49.42038 23.473396 
L 49.475303 21.325704 
L 49.590641 14.449276 
L 49.648309 16.642165 
L 49.763647 23.451681 
L 49.821316 21.211678 
L 49.936653 14.469822 
L 49.994322 16.756224 
L 50.10966 23.429689 
L 50.164582 21.29144 
L 50.27992 14.492156 
L 50.337588 16.675488 
L 50.452926 23.408917 
L 50.510595 21.179291 
L 50.625932 14.512453 
L 50.680855 16.596379 
L 50.798939 23.387207 
L 50.853861 21.259369 
L 50.969199 14.533892 
L 51.026867 16.706651 
L 51.142205 23.36731 
L 51.199874 21.149033 
L 51.315211 14.553915 
L 51.370134 16.627258 
L 51.488218 23.345905 
L 51.54314 21.229372 
L 51.658478 14.574526 
L 51.716147 16.735771 
L 51.831484 23.326818 
L 51.889153 21.120789 
L 52.00449 14.594251 
L 52.059413 16.656146 
L 52.177497 23.305739 
L 52.232419 21.201337 
L 52.347757 14.614096 
L 52.405426 16.762955 
L 52.520763 23.2874 
L 52.578432 21.094451 
L 52.693769 14.633504 
L 52.748692 16.683148 
L 52.86403 23.266772 
L 52.921698 21.175161 
L 53.037036 14.652641 
L 53.094705 16.788308 
L 53.210042 23.249016 
L 53.267711 21.069917 
L 53.383048 14.671714 
L 53.437971 16.708365 
L 53.553309 23.229055 
L 53.610977 21.150745 
L 53.726315 14.690201 
L 53.783984 16.811926 
L 53.899321 23.211626 
L 53.95699 21.047094 
L 54.072327 14.708921 
L 54.12725 16.731888 
L 54.242588 23.192279 
L 54.300256 21.127998 
L 54.415594 14.726811 
L 54.473263 16.8339 
L 54.5886 23.175194 
L 54.646269 21.025891 
L 54.761607 14.745163 
L 54.816529 16.753806 
L 54.931867 23.156409 
L 54.989535 21.106834 
L 55.104873 14.762508 
L 55.162542 16.854313 
L 55.277879 23.139682 
L 55.335548 21.006225 
L 55.450886 14.780479 
L 55.505808 16.7742 
L 55.621146 23.121409 
L 55.678814 21.087171 
L 55.794152 14.797327 
L 55.851821 16.873247 
L 55.967158 23.105055 
L 56.024827 20.988017 
L 56.140165 14.814904 
L 56.195087 16.793149 
L 56.310425 23.087247 
L 56.368094 21.068933 
L 56.483431 14.831302 
L 56.5411 16.890777 
L 56.656437 23.071277 
L 56.71136 21.148162 
L 56.829444 14.848474 
L 56.884366 16.810726 
L 56.999704 23.05389 
L 57.057373 21.052048 
L 57.17271 14.864466 
L 57.230379 16.906973 
L 57.345716 23.038316 
L 57.403385 20.955683 
L 57.518723 14.881223 
L 57.573645 16.826998 
L 57.688983 23.021307 
L 57.746652 21.036449 
L 57.861989 14.896851 
L 57.919658 16.921902 
L 58.034995 23.006138 
L 58.092664 20.94142 
L 58.208002 14.913184 
L 58.262924 16.842032 
L 58.378262 22.989467 
L 58.435931 21.02207 
L 58.551268 14.928489 
L 58.608937 16.935628 
L 58.724274 22.974713 
L 58.781943 20.928344 
L 58.897281 14.944388 
L 58.952203 16.855888 
L 59.067541 22.95834 
L 59.12521 21.008852 
L 59.240547 14.959408 
L 59.298216 16.948211 
L 59.413554 22.944009 
L 59.471222 20.916395 
L 59.58656 14.974867 
L 59.641482 16.868625 
L 59.75682 22.927898 
L 59.814489 20.996738 
L 59.929826 14.98964 
L 59.987495 16.959706 
L 60.102833 22.913997 
L 60.160501 20.905516 
L 60.275839 15.004651 
L 60.330761 16.880298 
L 60.446099 22.898112 
L 60.503768 20.985672 
L 60.619105 15.019211 
L 60.676774 16.970167 
L 60.792112 22.884649 
L 60.84978 20.895657 
L 60.965118 15.033768 
L 61.020041 16.890958 
L 61.138124 22.869007 
L 61.193047 20.975605 
L 61.308384 15.048149 
L 61.366053 16.979644 
L 61.481391 22.855937 
L 61.539059 20.886767 
L 61.654397 15.062246 
L 61.70932 16.900654 
L 61.827403 22.840769 
L 61.882326 20.966487 
L 61.997663 15.07648 
L 62.055332 16.988186 
L 62.17067 22.827834 
L 62.228338 20.878799 
L 62.343676 15.090114 
L 62.398599 16.909435 
L 62.516682 22.813145 
L 62.571605 20.958272 
L 62.686942 15.104231 
L 62.744611 16.995837 
L 62.859949 22.800315 
L 62.917618 20.871708 
L 63.032955 15.117395 
L 63.087878 16.917342 
L 63.205961 22.786108 
L 63.260884 20.950917 
L 63.376221 15.131425 
L 63.43389 17.002642 
L 63.549228 22.773353 
L 63.606897 20.865451 
L 63.722234 15.144117 
L 63.777157 16.92442 
L 63.89524 22.759633 
L 63.950163 20.944381 
L 64.065501 15.158087 
L 64.123169 17.00864 
L 64.238507 22.746927 
L 64.296176 20.859989 
L 64.411513 15.170302 
L 64.469182 17.09319 
L 64.584519 22.733696 
L 64.639442 20.938623 
L 64.75478 15.18424 
L 64.812448 17.01387 
L 64.927786 22.72101 
L 64.985455 20.855284 
L 65.100792 15.195975 
L 65.158461 17.097374 
L 65.273798 22.708273 
L 65.328721 20.933607 
L 65.446805 15.209707 
L 65.501727 17.01837 
L 65.617065 22.695583 
L 65.674734 20.851298 
L 65.790071 15.221157 
L 65.84774 17.100848 
L 65.963078 22.683341 
L 66.018 20.929297 
L 66.136084 15.234382 
L 66.191006 17.022174 
L 66.306344 22.670623 
L 66.364013 20.847997 
L 66.47935 15.245872 
L 66.537019 17.103648 
L 66.652357 22.658878 
L 66.707279 20.925658 
L 66.825363 15.258588 
L 66.880285 17.025316 
L 66.995623 22.646108 
L 67.053292 20.845349 
L 67.168629 15.27014 
L 67.226298 17.105806 
L 67.341636 22.634863 
L 67.399304 20.764691 
L 67.514642 15.282346 
L 67.569565 17.027829 
L 67.684902 22.622019 
L 67.742571 20.84332 
L 67.857908 15.293981 
L 67.915577 17.107352 
L 68.030915 22.611275 
L 68.088583 20.763624 
L 68.203921 15.305675 
L 68.258844 17.029741 
L 68.376927 22.598638 
L 68.43185 20.841883 
L 68.547187 15.317416 
L 68.604856 17.108317 
L 68.720194 22.588093 
L 68.777862 20.763129 
L 68.8932 15.328598 
L 68.948123 17.031083 
L 69.066206 22.575979 
L 69.121129 20.841008 
L 69.236466 15.340464 
L 69.294135 17.108728 
L 69.409473 22.5653 
L 69.467141 20.76318 
L 69.582479 15.351131 
L 69.640148 17.186728 
L 69.755485 22.55371 
L 69.810408 20.840667 
L 69.925745 15.363142 
L 69.983414 17.108613 
L 70.098752 22.542877 
L 70.156421 20.763749 
L 70.271758 15.373295 
L 70.329427 17.185708 
L 70.444764 22.53181 
L 70.499687 20.840835 
L 70.617771 15.385268 
L 70.672693 17.107996 
L 70.788031 22.520805 
L 70.8457 20.764811 
L 70.961037 15.395107 
L 71.018706 17.184203 
L 71.134043 22.510263 
L 71.188966 20.841486 
L 71.30705 15.406546 
L 71.361972 17.106904 
L 71.47731 22.499067 
L 71.534979 20.766342 
L 71.650316 15.416585 
L 71.707985 17.182236 
L 71.823322 22.48905 
L 71.880991 20.690833 
L 71.996329 15.427491 
L 72.051251 17.105359 
L 72.166589 22.477647 
L 72.224258 20.768318 
L 72.339595 15.437744 
L 72.397264 17.17983 
L 72.512601 22.468155 
L 72.57027 20.693665 
L 72.685608 15.448117 
L 72.74053 17.103384 
L 72.858614 22.456907 
L 72.913537 20.770718 
L 73.028874 15.458603 
L 73.086543 17.177009 
L 73.201881 22.447561 
L 73.259549 20.696906 
L 73.374887 15.468443 
L 73.429809 17.101 
L 73.547893 22.436854 
L 73.602816 20.77352 
L 73.718153 15.479175 
L 73.775822 17.173791 
L 73.89116 22.427252 
L 73.948828 20.700537 
L 74.064166 15.488483 
L 74.121835 17.246956 
L 74.237172 22.417086 
L 74.292095 20.776703 
L 74.410178 15.499501 
L 74.465101 17.170198 
L 74.580439 22.407215 
L 74.638107 20.704537 
L 74.753445 15.508253 
L 74.811114 17.242551 
L 74.926451 22.397588 
L 74.981374 20.780249 
L 75.03355 17.648069 
L 75.03355 17.648069 
" clip-path="url(#pbec93c6600)" style="fill: none; stroke-dasharray: 0.185,0.08; stroke-dashoffset: 0; stroke: #87b26c; stroke-width: 0.05"/>
   </g>
   <g id="patch_13">
    <path d="M 22.307795 29.868819 
L 22.307795 8.042047 
" style="fill: none; stroke: #ffffff; stroke-width: 0.5; stroke-linejoin: miter; stroke-linecap: square"/>
   </g>
   <g id="patch_14">
    <path d="M 75.032205 29.868819 
L 75.032205 8.042047 
" style="fill: none; stroke: #ffffff; stroke-width: 0.5; stroke-linejoin: miter; stroke-linecap: square"/>
   </g>
   <g id="patch_15">
    <path d="M 22.307795 29.868819 
L 75.032205 29.868819 
" style="fill: none; stroke: #ffffff; stroke-width: 0.5; stroke-linejoin: miter; stroke-linecap: square"/>
   </g>
   <g id="patch_16">
    <path d="M 22.307795 8.042047 
L 75.032205 8.042047 
" style="fill: none; stroke: #ffffff; stroke-width: 0.5; stroke-linejoin: miter; stroke-linecap: square"/>
   </g>
  </g>
 </g>
 <defs>
  <clipPath id="pdfc38575f0">
   <rect x="4.732992" y="8.042047" width="17.574803" height="21.826772"/>
  </clipPath>
  <clipPath id="pcad3f7251a">
   <rect x="75.032205" y="8.042047" width="17.574803" height="21.826772"/>
  </clipPath>
  <clipPath id="pbec93c6600">
   <rect x="22.307795" y="8.042047" width="52.724409" height="21.826772"/>
  </clipPath>
 </defs>
</svg>
