<?xml version="1.0" encoding="utf-8" standalone="no"?>
<!DOCTYPE svg PUBLIC "-//W3C//DTD SVG 1.1//EN"
  "http://www.w3.org/Graphics/SVG/1.1/DTD/svg11.dtd">
<svg xmlns:xlink="http://www.w3.org/1999/xlink" width="100.923594pt" height="41.502205pt" viewBox="0 0 100.923594 41.502205" xmlns="http://www.w3.org/2000/svg" version="1.1">
 <metadata>
  <rdf:RDF xmlns:dc="http://purl.org/dc/elements/1.1/" xmlns:cc="http://creativecommons.org/ns#" xmlns:rdf="http://www.w3.org/1999/02/22-rdf-syntax-ns#">
   <cc:Work>
    <dc:type rdf:resource="http://purl.org/dc/dcmitype/StillImage"/>
    <dc:date>2025-01-13T14:57:24.880780</dc:date>
    <dc:format>image/svg+xml</dc:format>
    <dc:creator>
     <cc:Agent>
      <dc:title>Matplotlib v3.8.0, https://matplotlib.org/</dc:title>
     </cc:Agent>
    </dc:creator>
   </cc:Work>
  </rdf:RDF>
 </metadata>
 <defs>
  <style type="text/css">*{stroke-linejoin: round; stroke-linecap: butt}</style>
 </defs>
 <g id="figure_1">
  <g id="patch_1">
   <path d="M 0 41.502205 
L 100.923594 41.502205 
L 100.923594 -0 
L 0 -0 
L 0 41.502205 
z
" style="fill: none"/>
  </g>
  <g id="axes_1"/>
  <g id="axes_2">
   <g id="patch_2">
    <path d="M 6.524789 40.782205 
L 24.099592 40.782205 
L 24.099592 8.042047 
L 6.524789 8.042047 
L 6.524789 40.782205 
z
" style="fill: none"/>
   </g>
   <g id="matplotlib.axis_1"/>
   <g id="matplotlib.axis_2"/>
   <g id="line2d_1">
    <path d="M 6.524789 39.368425 
L 6.656603 39.195459 
L 6.832356 38.435716 
L 7.139922 35.766163 
L 7.623242 28.97986 
L 8.765632 12.015918 
L 9.117137 9.845835 
L 9.29289 9.637789 
L 9.424704 9.880001 
L 9.644395 11.021697 
L 9.951961 14.014559 
L 10.479219 21.772824 
L 11.445857 36.083879 
L 11.797362 38.603361 
L 12.017052 39.024356 
L 12.148867 38.827767 
L 12.368557 37.767618 
L 12.676124 34.890629 
L 13.203381 27.297084 
L 14.213958 12.607189 
L 14.565462 10.27913 
L 14.741215 9.961978 
L 14.873029 10.112874 
L 15.048782 10.825078 
L 15.356348 13.369088 
L 15.839668 19.8913 
L 16.982058 36.333771 
L 17.333563 38.475245 
L 17.509316 38.701298 
L 17.64113 38.486425 
L 17.86082 37.414351 
L 18.168387 34.559653 
L 18.695644 27.093867 
L 19.662283 13.200616 
L 20.013788 10.71445 
L 20.233478 10.271674 
L 20.365292 10.439773 
L 20.541045 11.162526 
L 20.848612 13.690633 
L 21.331931 20.110423 
L 22.474322 36.152274 
L 22.825826 38.201363 
L 23.001579 38.397796 
L 23.133393 38.169234 
L 23.353084 37.09147 
L 23.66065 34.264197 
L 24.100032 28.282634 
L 24.100032 28.282634 
" clip-path="url(#p6c3c01ea77)" style="fill: none; stroke: #87b26c; stroke-opacity: 0.3; stroke-linecap: square"/>
   </g>
   <g id="line2d_2">
    <path d="M 6.524789 39.294016 
L 6.656603 39.123577 
L 6.832356 38.374268 
L 7.139922 35.733404 
L 7.623242 28.977712 
L 8.765632 12.058482 
L 9.117137 9.914627 
L 9.29289 9.709541 
L 9.424704 9.948314 
L 9.644395 11.075254 
L 9.951961 14.039752 
L 10.479219 21.773239 
L 11.445857 36.048308 
L 11.797362 38.539702 
L 12.017052 38.954918 
L 12.148867 38.761069 
L 12.368557 37.714476 
L 12.676124 34.864845 
L 13.203381 27.296542 
L 14.17002 13.075619 
L 14.521524 10.510486 
L 14.741215 10.029152 
L 14.873029 10.177984 
L 15.048782 10.88101 
L 15.31241 12.947575 
L 15.751791 18.549347 
L 17.069935 37.023012 
L 17.377501 38.523071 
L 17.509316 38.636324 
L 17.553254 38.601704 
L 17.685068 38.282012 
L 17.904759 37.052253 
L 18.256263 33.481386 
L 18.871397 24.264014 
L 19.662283 13.232165 
L 20.013788 10.771748 
L 20.233478 10.334657 
L 20.365292 10.500556 
L 20.541045 11.214424 
L 20.848612 13.718243 
L 21.331931 20.112218 
L 22.474322 36.116079 
L 22.825826 38.142919 
L 23.001579 38.336841 
L 23.133393 38.111195 
L 23.353084 37.045944 
L 23.66065 34.242749 
L 24.100032 28.281326 
L 24.100032 28.281326 
" clip-path="url(#p6c3c01ea77)" style="fill: none; stroke-dasharray: 1.48,0.64; stroke-dashoffset: 0; stroke: #87b26c; stroke-width: 0.4"/>
   </g>
   <g id="patch_3">
    <path d="M 6.524789 40.782205 
L 6.524789 8.042047 
" style="fill: none; stroke: #ffffff; stroke-width: 0.5; stroke-linejoin: miter; stroke-linecap: square"/>
   </g>
   <g id="patch_4">
    <path d="M 24.099592 40.782205 
L 24.099592 8.042047 
" style="fill: none; stroke: #ffffff; stroke-width: 0.5; stroke-linejoin: miter; stroke-linecap: square"/>
   </g>
   <g id="patch_5">
    <path d="M 6.524789 40.782205 
L 24.099592 40.782205 
" style="fill: none; stroke: #ffffff; stroke-width: 0.5; stroke-linejoin: miter; stroke-linecap: square"/>
   </g>
   <g id="patch_6">
    <path d="M 6.524789 8.042047 
L 24.099592 8.042047 
" style="fill: none; stroke: #ffffff; stroke-width: 0.5; stroke-linejoin: miter; stroke-linecap: square"/>
   </g>
   <g id="legend_1">
    <g id="line2d_3">
     <path d="M 2.72 4.769219 
L 7.72 4.769219 
L 12.72 4.769219 
" style="fill: none; stroke: #87b26c; stroke-opacity: 0.3; stroke-linecap: square"/>
    </g>
    <g id="text_1">
     <!-- Ground Truth -->
     <g transform="translate(16.72 6.519219) scale(0.05 -0.05)">
      <defs>
       <path id="DejaVuSans-47" d="M 3809 666 
L 3809 1919 
L 2778 1919 
L 2778 2438 
L 4434 2438 
L 4434 434 
Q 4069 175 3628 42 
Q 3188 -91 2688 -91 
Q 1594 -91 976 548 
Q 359 1188 359 2328 
Q 359 3472 976 4111 
Q 1594 4750 2688 4750 
Q 3144 4750 3555 4637 
Q 3966 4525 4313 4306 
L 4313 3634 
Q 3963 3931 3569 4081 
Q 3175 4231 2741 4231 
Q 1884 4231 1454 3753 
Q 1025 3275 1025 2328 
Q 1025 1384 1454 906 
Q 1884 428 2741 428 
Q 3075 428 3337 486 
Q 3600 544 3809 666 
z
" transform="scale(0.015625)"/>
       <path id="DejaVuSans-72" d="M 2631 2963 
Q 2534 3019 2420 3045 
Q 2306 3072 2169 3072 
Q 1681 3072 1420 2755 
Q 1159 2438 1159 1844 
L 1159 0 
L 581 0 
L 581 3500 
L 1159 3500 
L 1159 2956 
Q 1341 3275 1631 3429 
Q 1922 3584 2338 3584 
Q 2397 3584 2469 3576 
Q 2541 3569 2628 3553 
L 2631 2963 
z
" transform="scale(0.015625)"/>
       <path id="DejaVuSans-6f" d="M 1959 3097 
Q 1497 3097 1228 2736 
Q 959 2375 959 1747 
Q 959 1119 1226 758 
Q 1494 397 1959 397 
Q 2419 397 2687 759 
Q 2956 1122 2956 1747 
Q 2956 2369 2687 2733 
Q 2419 3097 1959 3097 
z
M 1959 3584 
Q 2709 3584 3137 3096 
Q 3566 2609 3566 1747 
Q 3566 888 3137 398 
Q 2709 -91 1959 -91 
Q 1206 -91 779 398 
Q 353 888 353 1747 
Q 353 2609 779 3096 
Q 1206 3584 1959 3584 
z
" transform="scale(0.015625)"/>
       <path id="DejaVuSans-75" d="M 544 1381 
L 544 3500 
L 1119 3500 
L 1119 1403 
Q 1119 906 1312 657 
Q 1506 409 1894 409 
Q 2359 409 2629 706 
Q 2900 1003 2900 1516 
L 2900 3500 
L 3475 3500 
L 3475 0 
L 2900 0 
L 2900 538 
Q 2691 219 2414 64 
Q 2138 -91 1772 -91 
Q 1169 -91 856 284 
Q 544 659 544 1381 
z
M 1991 3584 
L 1991 3584 
z
" transform="scale(0.015625)"/>
       <path id="DejaVuSans-6e" d="M 3513 2113 
L 3513 0 
L 2938 0 
L 2938 2094 
Q 2938 2591 2744 2837 
Q 2550 3084 2163 3084 
Q 1697 3084 1428 2787 
Q 1159 2491 1159 1978 
L 1159 0 
L 581 0 
L 581 3500 
L 1159 3500 
L 1159 2956 
Q 1366 3272 1645 3428 
Q 1925 3584 2291 3584 
Q 2894 3584 3203 3211 
Q 3513 2838 3513 2113 
z
" transform="scale(0.015625)"/>
       <path id="DejaVuSans-64" d="M 2906 2969 
L 2906 4863 
L 3481 4863 
L 3481 0 
L 2906 0 
L 2906 525 
Q 2725 213 2448 61 
Q 2172 -91 1784 -91 
Q 1150 -91 751 415 
Q 353 922 353 1747 
Q 353 2572 751 3078 
Q 1150 3584 1784 3584 
Q 2172 3584 2448 3432 
Q 2725 3281 2906 2969 
z
M 947 1747 
Q 947 1113 1208 752 
Q 1469 391 1925 391 
Q 2381 391 2643 752 
Q 2906 1113 2906 1747 
Q 2906 2381 2643 2742 
Q 2381 3103 1925 3103 
Q 1469 3103 1208 2742 
Q 947 2381 947 1747 
z
" transform="scale(0.015625)"/>
       <path id="DejaVuSans-20" transform="scale(0.015625)"/>
       <path id="DejaVuSans-54" d="M -19 4666 
L 3928 4666 
L 3928 4134 
L 2272 4134 
L 2272 0 
L 1638 0 
L 1638 4134 
L -19 4134 
L -19 4666 
z
" transform="scale(0.015625)"/>
       <path id="DejaVuSans-74" d="M 1172 4494 
L 1172 3500 
L 2356 3500 
L 2356 3053 
L 1172 3053 
L 1172 1153 
Q 1172 725 1289 603 
Q 1406 481 1766 481 
L 2356 481 
L 2356 0 
L 1766 0 
Q 1100 0 847 248 
Q 594 497 594 1153 
L 594 3053 
L 172 3053 
L 172 3500 
L 594 3500 
L 594 4494 
L 1172 4494 
z
" transform="scale(0.015625)"/>
       <path id="DejaVuSans-68" d="M 3513 2113 
L 3513 0 
L 2938 0 
L 2938 2094 
Q 2938 2591 2744 2837 
Q 2550 3084 2163 3084 
Q 1697 3084 1428 2787 
Q 1159 2491 1159 1978 
L 1159 0 
L 581 0 
L 581 4863 
L 1159 4863 
L 1159 2956 
Q 1366 3272 1645 3428 
Q 1925 3584 2291 3584 
Q 2894 3584 3203 3211 
Q 3513 2838 3513 2113 
z
" transform="scale(0.015625)"/>
      </defs>
      <use xlink:href="#DejaVuSans-47"/>
      <use xlink:href="#DejaVuSans-72" x="77.490234"/>
      <use xlink:href="#DejaVuSans-6f" x="116.353516"/>
      <use xlink:href="#DejaVuSans-75" x="177.535156"/>
      <use xlink:href="#DejaVuSans-6e" x="240.914062"/>
      <use xlink:href="#DejaVuSans-64" x="304.292969"/>
      <use xlink:href="#DejaVuSans-20" x="367.769531"/>
      <use xlink:href="#DejaVuSans-54" x="399.556641"/>
      <use xlink:href="#DejaVuSans-72" x="445.890625"/>
      <use xlink:href="#DejaVuSans-75" x="487.003906"/>
      <use xlink:href="#DejaVuSans-74" x="550.382812"/>
      <use xlink:href="#DejaVuSans-68" x="589.591797"/>
     </g>
    </g>
    <g id="line2d_4">
     <path d="M 59.366875 4.769219 
L 64.366875 4.769219 
L 69.366875 4.769219 
" style="fill: none; stroke-dasharray: 1.48,0.64; stroke-dashoffset: 0; stroke: #87b26c; stroke-width: 0.4"/>
    </g>
    <g id="text_2">
     <!-- Prediction -->
     <g transform="translate(73.366875 6.519219) scale(0.05 -0.05)">
      <defs>
       <path id="DejaVuSans-50" d="M 1259 4147 
L 1259 2394 
L 2053 2394 
Q 2494 2394 2734 2622 
Q 2975 2850 2975 3272 
Q 2975 3691 2734 3919 
Q 2494 4147 2053 4147 
L 1259 4147 
z
M 628 4666 
L 2053 4666 
Q 2838 4666 3239 4311 
Q 3641 3956 3641 3272 
Q 3641 2581 3239 2228 
Q 2838 1875 2053 1875 
L 1259 1875 
L 1259 0 
L 628 0 
L 628 4666 
z
" transform="scale(0.015625)"/>
       <path id="DejaVuSans-65" d="M 3597 1894 
L 3597 1613 
L 953 1613 
Q 991 1019 1311 708 
Q 1631 397 2203 397 
Q 2534 397 2845 478 
Q 3156 559 3463 722 
L 3463 178 
Q 3153 47 2828 -22 
Q 2503 -91 2169 -91 
Q 1331 -91 842 396 
Q 353 884 353 1716 
Q 353 2575 817 3079 
Q 1281 3584 2069 3584 
Q 2775 3584 3186 3129 
Q 3597 2675 3597 1894 
z
M 3022 2063 
Q 3016 2534 2758 2815 
Q 2500 3097 2075 3097 
Q 1594 3097 1305 2825 
Q 1016 2553 972 2059 
L 3022 2063 
z
" transform="scale(0.015625)"/>
       <path id="DejaVuSans-69" d="M 603 3500 
L 1178 3500 
L 1178 0 
L 603 0 
L 603 3500 
z
M 603 4863 
L 1178 4863 
L 1178 4134 
L 603 4134 
L 603 4863 
z
" transform="scale(0.015625)"/>
       <path id="DejaVuSans-63" d="M 3122 3366 
L 3122 2828 
Q 2878 2963 2633 3030 
Q 2388 3097 2138 3097 
Q 1578 3097 1268 2742 
Q 959 2388 959 1747 
Q 959 1106 1268 751 
Q 1578 397 2138 397 
Q 2388 397 2633 464 
Q 2878 531 3122 666 
L 3122 134 
Q 2881 22 2623 -34 
Q 2366 -91 2075 -91 
Q 1284 -91 818 406 
Q 353 903 353 1747 
Q 353 2603 823 3093 
Q 1294 3584 2113 3584 
Q 2378 3584 2631 3529 
Q 2884 3475 3122 3366 
z
" transform="scale(0.015625)"/>
      </defs>
      <use xlink:href="#DejaVuSans-50"/>
      <use xlink:href="#DejaVuSans-72" x="58.552734"/>
      <use xlink:href="#DejaVuSans-65" x="97.416016"/>
      <use xlink:href="#DejaVuSans-64" x="158.939453"/>
      <use xlink:href="#DejaVuSans-69" x="222.416016"/>
      <use xlink:href="#DejaVuSans-63" x="250.199219"/>
      <use xlink:href="#DejaVuSans-74" x="305.179688"/>
      <use xlink:href="#DejaVuSans-69" x="344.388672"/>
      <use xlink:href="#DejaVuSans-6f" x="372.171875"/>
      <use xlink:href="#DejaVuSans-6e" x="433.353516"/>
     </g>
    </g>
   </g>
  </g>
  <g id="axes_3">
   <g id="patch_7">
    <path d="M 76.824002 40.782205 
L 94.398805 40.782205 
L 94.398805 8.042047 
L 76.824002 8.042047 
L 76.824002 40.782205 
z
" style="fill: none"/>
   </g>
   <g id="matplotlib.axis_3"/>
   <g id="matplotlib.axis_4"/>
   <g id="line2d_5">
    <path d="M 76.801593 22.697289 
L 77.372789 20.108271 
L 77.724293 19.348029 
L 77.943984 19.277723 
L 78.163674 19.52777 
L 78.471241 20.382223 
L 78.910622 22.411944 
L 80.228765 28.99682 
L 80.536332 29.51602 
L 80.712085 29.534886 
L 80.931775 29.270966 
L 81.239342 28.399971 
L 81.678723 26.355908 
L 82.952928 19.92724 
L 83.260495 19.342754 
L 83.480185 19.301617 
L 83.699876 19.579327 
L 84.007443 20.466695 
L 84.490762 22.765678 
L 85.677091 28.790747 
L 86.028595 29.48316 
L 86.248286 29.509781 
L 86.467977 29.218365 
L 86.775543 28.314793 
L 87.258862 26.001451 
L 88.401253 20.146054 
L 88.752758 19.380859 
L 88.972449 19.304712 
L 89.148201 19.473678 
L 89.41183 20.093058 
L 89.807273 21.719265 
L 91.432983 29.333181 
L 91.696611 29.521605 
L 91.872364 29.392119 
L 92.135992 28.828315 
L 92.531435 27.267642 
L 93.366259 22.626822 
L 93.937455 20.095379 
L 94.288959 19.374939 
L 94.420774 19.308261 
L 94.420774 19.308261 
" clip-path="url(#p86e3775cdf)" style="fill: none; stroke: #87b26c; stroke-opacity: 0.3; stroke-linecap: square"/>
   </g>
   <g id="line2d_6">
    <path d="M 76.801593 22.697403 
L 77.372789 20.110069 
L 77.724293 19.350955 
L 77.943984 19.280774 
L 78.163674 19.530397 
L 78.471241 20.383699 
L 78.910622 22.412125 
L 80.228765 28.994648 
L 80.536332 29.513024 
L 80.712085 29.531856 
L 80.931775 29.268381 
L 81.239342 28.398541 
L 81.678723 26.355743 
L 82.952928 19.929274 
L 83.260495 19.34569 
L 83.480185 19.304625 
L 83.699876 19.581871 
L 84.007443 20.468081 
L 84.490762 22.765779 
L 85.677091 28.788854 
L 86.028595 29.480221 
L 86.248286 29.506795 
L 86.467977 29.215862 
L 86.775543 28.313453 
L 87.258862 26.00136 
L 88.401253 20.147804 
L 88.752758 19.383729 
L 88.972449 19.307715 
L 89.148201 19.476393 
L 89.41183 20.094874 
L 89.807273 21.719705 
L 91.432983 29.330495 
L 91.696611 29.518599 
L 91.872364 29.389335 
L 92.135992 28.826373 
L 92.531435 27.267117 
L 93.366259 22.62695 
L 93.937455 20.097192 
L 94.288959 19.37782 
L 94.420774 19.311258 
L 94.420774 19.311258 
" clip-path="url(#p86e3775cdf)" style="fill: none; stroke-dasharray: 1.48,0.64; stroke-dashoffset: 0; stroke: #87b26c; stroke-width: 0.4"/>
   </g>
   <g id="patch_8">
    <path d="M 76.824002 40.782205 
L 76.824002 8.042047 
" style="fill: none; stroke: #ffffff; stroke-width: 0.5; stroke-linejoin: miter; stroke-linecap: square"/>
   </g>
   <g id="patch_9">
    <path d="M 94.398805 40.782205 
L 94.398805 8.042047 
" style="fill: none; stroke: #ffffff; stroke-width: 0.5; stroke-linejoin: miter; stroke-linecap: square"/>
   </g>
   <g id="patch_10">
    <path d="M 76.824002 40.782205 
L 94.398805 40.782205 
" style="fill: none; stroke: #ffffff; stroke-width: 0.5; stroke-linejoin: miter; stroke-linecap: square"/>
   </g>
   <g id="patch_11">
    <path d="M 76.824002 8.042047 
L 94.398805 8.042047 
" style="fill: none; stroke: #ffffff; stroke-width: 0.5; stroke-linejoin: miter; stroke-linecap: square"/>
   </g>
  </g>
  <g id="axes_4">
   <g id="patch_12">
    <path d="M 24.099592 40.782205 
L 76.824002 40.782205 
L 76.824002 8.042047 
L 24.099592 8.042047 
L 24.099592 40.782205 
z
" style="fill: none"/>
   </g>
   <g id="matplotlib.axis_5"/>
   <g id="matplotlib.axis_6"/>
   <g id="line2d_7">
    <path d="M 24.096873 28.94873 
L 24.201226 10.563287 
L 24.256149 17.152514 
L 24.371487 38.121845 
L 24.429155 31.267428 
L 24.544493 10.838106 
L 24.599416 17.363621 
L 24.714753 37.856815 
L 24.772422 31.075154 
L 24.887759 11.097372 
L 24.942682 17.547614 
L 25.05802 37.606186 
L 25.115688 30.908436 
L 25.231026 11.342265 
L 25.285948 17.707399 
L 25.401286 37.368879 
L 25.458955 30.764546 
L 25.571546 11.573013 
L 25.629215 17.845525 
L 25.744552 37.143867 
L 25.802221 30.641095 
L 25.914813 11.791899 
L 25.972481 17.96423 
L 26.087819 36.930184 
L 26.145488 30.535978 
L 26.258079 12.00028 
L 26.315748 18.065493 
L 26.431085 36.726927 
L 26.488754 30.447336 
L 26.601346 12.198991 
L 26.659014 18.151063 
L 26.774352 36.533245 
L 26.832021 30.373521 
L 26.947358 12.387859 
L 27.002281 18.222498 
L 27.117618 36.348347 
L 27.175287 30.313065 
L 27.290625 12.567635 
L 27.345547 18.281187 
L 27.460885 36.171494 
L 27.518554 30.264658 
L 27.633891 12.73949 
L 27.688814 18.32837 
L 27.804151 36.001998 
L 27.86182 30.227127 
L 27.977157 12.904114 
L 28.03208 18.365164 
L 28.147418 35.839216 
L 28.205086 30.199419 
L 28.320424 13.062146 
L 28.378093 18.88159 
L 28.490684 35.682552 
L 28.548353 30.180583 
L 28.66369 13.21418 
L 28.721359 18.892109 
L 28.836697 35.533741 
L 28.891619 30.169759 
L 29.006957 13.360771 
L 29.064626 18.895061 
L 29.179963 35.391767 
L 29.234886 30.166171 
L 29.350223 13.502434 
L 29.407892 18.891183 
L 29.52323 35.2546 
L 29.580898 29.702201 
L 29.69349 13.639645 
L 29.751159 18.881146 
L 29.866496 35.121767 
L 29.924165 29.719134 
L 30.039502 13.768734 
L 30.094425 18.865564 
L 30.209763 34.992825 
L 30.267431 29.741291 
L 30.382769 13.893336 
L 30.437691 18.844998 
L 30.553029 34.867365 
L 30.610698 29.768138 
L 30.726035 14.01457 
L 30.783704 19.265526 
L 30.899042 34.748861 
L 30.953964 29.799187 
L 31.069302 14.132812 
L 31.12697 19.228627 
L 31.242308 34.634795 
L 31.299977 29.393637 
L 31.412568 14.248414 
L 31.470237 19.188214 
L 31.585574 34.523264 
L 31.643243 29.439514 
L 31.758581 14.35648 
L 31.813503 19.144682 
L 31.928841 34.413943 
L 31.98651 29.488301 
L 32.101847 14.461786 
L 32.159516 19.525904 
L 32.274854 34.308218 
L 32.329776 29.53965 
L 32.445114 14.565281 
L 32.502782 19.469621 
L 32.61812 34.208677 
L 32.673043 29.593235 
L 32.78838 14.667241 
L 32.846049 19.41127 
L 32.961386 34.110575 
L 33.019055 29.23382 
L 33.134393 14.76272 
L 33.189315 19.35114 
L 33.304653 34.013659 
L 33.362322 29.298445 
L 33.477659 14.855838 
L 33.535328 19.699467 
L 33.650665 33.920673 
L 33.705588 29.364441 
L 33.820926 14.948096 
L 33.878594 19.629221 
L 33.993932 33.832151 
L 34.051601 29.026547 
L 34.166938 15.038499 
L 34.221861 19.557966 
L 34.337198 33.744188 
L 34.394867 29.10183 
L 34.510205 15.122789 
L 34.565127 19.48592 
L 34.680465 33.656586 
L 34.738134 29.177799 
L 34.853471 15.2068 
L 34.91114 19.806231 
L 35.026477 33.576037 
L 35.0814 29.254254 
L 35.196738 15.290714 
L 35.254406 19.726042 
L 35.369744 33.495656 
L 35.427413 28.94286 
L 35.54275 15.368678 
L 35.597673 19.645638 
L 35.71301 33.415127 
L 35.770679 29.026824 
L 35.886017 15.445734 
L 35.943685 19.948585 
L 36.059023 33.339783 
L 36.113946 29.110757 
L 36.229283 15.523167 
L 36.286952 19.861249 
L 36.402289 33.265765 
L 36.459958 28.815826 
L 36.575296 15.595864 
L 36.630218 19.774167 
L 36.745556 33.191159 
L 36.803225 28.906168 
L 36.918562 15.667112 
L 36.976231 20.061477 
L 37.091568 33.121127 
L 37.146491 28.996053 
L 37.261829 15.739146 
L 37.319497 19.968463 
L 37.434835 33.052396 
L 37.492504 28.715999 
L 37.607841 15.806502 
L 37.662764 19.876089 
L 37.778101 32.982694 
L 37.83577 28.811382 
L 37.951108 15.872955 
L 38.008776 20.149224 
L 38.124114 32.918017 
L 38.179037 28.905957 
L 38.294374 15.940549 
L 38.352043 20.05175 
L 38.46738 32.853619 
L 38.525049 28.63943 
L 38.640387 16.002549 
L 38.695309 19.955236 
L 38.813393 32.787996 
L 38.868316 28.738741 
L 38.983653 16.065102 
L 39.041322 20.215443 
L 39.156659 32.728592 
L 39.214328 28.479243 
L 39.329666 16.127963 
L 39.384588 20.114528 
L 39.499926 32.667685 
L 39.557595 28.582799 
L 39.672932 16.185771 
L 39.730601 20.368052 
L 39.845938 32.607571 
L 39.900861 28.685103 
L 40.016199 16.245219 
L 40.073867 20.263189 
L 40.189205 32.551174 
L 40.246874 28.437311 
L 40.362211 16.302603 
L 40.417134 20.159692 
L 40.532471 32.493011 
L 40.59014 28.543291 
L 40.705478 16.357764 
L 40.763146 20.401978 
L 40.878484 32.438336 
L 40.933407 28.647797 
L 41.048744 16.414806 
L 41.106413 20.295058 
L 41.22175 32.38425 
L 41.279419 28.410809 
L 41.394757 16.466792 
L 41.449679 20.18971 
L 41.567763 32.329106 
L 41.622686 28.518505 
L 41.738023 16.519959 
L 41.795692 20.421597 
L 41.911029 32.278852 
L 41.968698 28.287012 
L 42.084036 16.572373 
L 42.138958 20.313274 
L 42.254296 32.226461 
L 42.311965 28.397573 
L 42.427302 16.621895 
L 42.484971 20.539909 
L 42.600309 32.176749 
L 42.655231 28.506381 
L 42.770569 16.673647 
L 42.828237 20.428915 
L 42.943575 32.127825 
L 43.001244 28.284439 
L 43.116581 16.720683 
L 43.17425 20.650545 
L 43.289588 32.077865 
L 43.34451 28.39574 
L 43.459848 16.769138 
L 43.517516 20.537156 
L 43.632854 32.032196 
L 43.690523 28.17859 
L 43.80586 16.816397 
L 43.860783 20.425666 
L 43.97612 31.984091 
L 44.033789 28.292126 
L 44.149127 16.861755 
L 44.206796 20.638477 
L 44.322133 31.939503 
L 44.377056 28.403694 
L 44.495139 16.909119 
L 44.550062 20.524902 
L 44.6654 31.894344 
L 44.723068 28.195088 
L 44.838406 16.95157 
L 44.896075 20.733324 
L 45.011412 31.849666 
L 45.066335 28.308602 
L 45.181672 16.996635 
L 45.239341 20.617883 
L 45.354679 31.807272 
L 45.412347 28.104212 
L 45.527685 17.038658 
L 45.582607 20.504524 
L 45.700691 31.762603 
L 45.755614 28.219467 
L 45.870951 17.081094 
L 45.92862 20.704996 
L 46.043958 31.722801 
L 46.101626 28.019114 
L 46.216964 17.1231 
L 46.271887 20.590013 
L 46.387224 31.680231 
L 46.444893 28.135922 
L 46.56023 17.16307 
L 46.617899 20.786602 
L 46.733237 31.640857 
L 46.788159 28.25055 
L 46.906243 17.204975 
L 46.961166 20.670174 
L 47.076503 31.600632 
L 47.134172 28.057628 
L 47.249509 17.242636 
L 47.307178 20.863037 
L 47.422516 31.561362 
L 47.477438 28.173603 
L 47.592776 17.283197 
L 47.650445 20.745323 
L 47.765782 31.523333 
L 47.823451 27.98427 
L 47.938788 17.319864 
L 47.996457 20.934608 
L 48.111795 31.484238 
L 48.166717 28.10144 
L 48.282055 17.358338 
L 48.339724 20.815758 
L 48.455061 31.448263 
L 48.51273 27.915558 
L 48.628067 17.39483 
L 48.68299 20.699197 
L 48.801074 31.409407 
L 48.855996 28.033783 
L 48.971334 17.431352 
L 49.029003 20.881753 
L 49.14434 31.375352 
L 49.202009 27.85122 
L 49.317347 17.467609 
L 49.372269 20.764215 
L 49.487607 31.338216 
L 49.545275 27.970371 
L 49.660613 17.502307 
L 49.718282 20.943564 
L 49.833619 31.304527 
L 49.891288 27.791004 
L 50.006626 17.538274 
L 50.061548 20.82517 
L 50.176886 31.269123 
L 50.234554 27.910963 
L 50.349892 17.571272 
L 50.407561 21.001429 
L 50.522898 31.235719 
L 50.577821 28.028546 
L 50.695905 17.606899 
L 50.750827 20.882291 
L 50.866165 31.20193 
L 50.923834 27.855334 
L 51.039171 17.638312 
L 51.09684 21.055571 
L 51.212177 31.168857 
L 51.2671 27.9736 
L 51.382438 17.672947 
L 51.440106 20.935793 
L 51.555444 31.136572 
L 51.613113 27.803273 
L 51.72845 17.703496 
L 51.786119 21.106197 
L 51.901456 31.103873 
L 51.956379 27.922124 
L 52.071717 17.736704 
L 52.129385 20.985873 
L 52.244723 31.072985 
L 52.302392 27.754583 
L 52.417729 17.766887 
L 52.475398 21.1535 
L 52.590735 31.0407 
L 52.645658 27.873929 
L 52.760996 17.798771 
L 52.818664 21.032719 
L 52.934002 31.011109 
L 52.991671 27.709082 
L 53.107008 17.82855 
L 53.161931 20.914395 
L 53.280014 30.979272 
L 53.334937 27.828838 
L 53.450275 17.859207 
L 53.507943 21.076505 
L 53.623281 30.950881 
L 53.68095 27.666597 
L 53.796287 17.888549 
L 53.85121 20.957815 
L 53.969294 30.919523 
L 54.024216 27.786685 
L 54.139554 17.918071 
L 54.197222 21.117395 
L 54.31256 30.892241 
L 54.370229 27.626967 
L 54.485566 17.946945 
L 54.540489 20.998413 
L 54.655826 30.861551 
L 54.713495 27.747315 
L 54.828833 17.975419 
L 54.886501 21.15554 
L 55.001839 30.835131 
L 55.059508 27.590041 
L 55.174845 18.003797 
L 55.229768 21.036336 
L 55.345105 30.80543 
L 55.402774 27.710583 
L 55.518112 18.031307 
L 55.575781 21.191087 
L 55.691118 30.779494 
L 55.748787 27.555676 
L 55.864124 18.059165 
L 55.919047 21.071723 
L 56.034385 30.750701 
L 56.092053 27.67635 
L 56.207391 18.085791 
L 56.26506 21.224168 
L 56.380397 30.725273 
L 56.438066 27.523742 
L 56.553403 18.113105 
L 56.608326 21.104706 
L 56.723664 30.697313 
L 56.781332 27.644488 
L 56.89667 18.138922 
L 56.954339 21.254912 
L 57.069676 30.672415 
L 57.127345 27.494111 
L 57.242682 18.165673 
L 57.297605 21.135407 
L 57.412943 30.645214 
L 57.470611 27.614877 
L 57.585949 18.190753 
L 57.643618 21.283439 
L 57.758955 30.620868 
L 57.816624 27.466665 
L 57.931961 18.216921 
L 57.986884 21.163941 
L 58.102222 30.594356 
L 58.15989 27.587401 
L 58.275228 18.241335 
L 58.332897 21.309859 
L 58.448234 30.570579 
L 58.505903 27.441295 
L 58.621241 18.266903 
L 58.676163 21.190419 
L 58.791501 30.54469 
L 58.849169 27.561953 
L 58.964507 18.290715 
L 59.022176 21.334281 
L 59.137513 30.521499 
L 59.195182 27.417896 
L 59.31052 18.315667 
L 59.365442 21.214942 
L 59.48078 30.496171 
L 59.538448 27.538433 
L 59.653786 18.33894 
L 59.711455 21.356803 
L 59.826792 30.473581 
L 59.884461 27.396368 
L 59.999799 18.363263 
L 60.054721 21.237608 
L 60.170059 30.448753 
L 60.227728 27.516743 
L 60.343065 18.386058 
L 60.400734 21.37752 
L 60.516071 30.426779 
L 60.57374 27.37662 
L 60.689078 18.409738 
L 60.744 21.258509 
L 60.859338 30.402392 
L 60.917007 27.496794 
L 61.032344 18.432111 
L 61.090013 21.396521 
L 61.20535 30.381046 
L 61.263019 27.358563 
L 61.378357 18.455138 
L 61.433279 21.27773 
L 61.548617 30.357045 
L 61.606286 27.4785 
L 61.721623 18.477144 
L 61.779292 21.413892 
L 61.894629 30.336338 
L 61.952298 27.342112 
L 62.067636 18.499507 
L 62.122558 21.295356 
L 62.237896 30.312672 
L 62.295565 27.461779 
L 62.410902 18.521198 
L 62.468571 21.429711 
L 62.583908 30.292616 
L 62.641577 27.327191 
L 62.756915 18.542887 
L 62.811837 21.311463 
L 62.929921 30.269309 
L 62.984844 27.446557 
L 63.100181 18.564313 
L 63.15785 21.444053 
L 63.273188 30.249836 
L 63.330856 27.313725 
L 63.446194 18.58532 
L 63.501116 21.326125 
L 63.6192 30.227234 
L 63.674123 27.432758 
L 63.78946 18.60653 
L 63.847129 21.456992 
L 63.962467 30.207959 
L 64.020135 27.301642 
L 64.135473 18.626846 
L 64.190396 21.339412 
L 64.308479 30.186069 
L 64.363402 27.420315 
L 64.478739 18.647884 
L 64.536408 21.468595 
L 64.651746 30.166949 
L 64.709414 27.290876 
L 64.824752 18.667502 
L 64.879675 21.351389 
L 64.997758 30.145777 
L 65.052681 27.409162 
L 65.168018 18.688412 
L 65.225687 21.478926 
L 65.341025 30.126766 
L 65.398693 27.281363 
L 65.514031 18.707328 
L 65.5717 21.606969 
L 65.687037 30.106318 
L 65.74196 27.399238 
L 65.857297 18.728152 
L 65.914966 21.488046 
L 66.030304 30.087377 
L 66.087972 27.273043 
L 66.20331 18.746358 
L 66.260979 21.614493 
L 66.376316 30.067656 
L 66.431239 27.390482 
L 66.546576 18.767135 
L 66.604245 21.496015 
L 66.719583 30.048746 
L 66.777252 27.265858 
L 66.892589 18.784627 
L 66.950258 21.620897 
L 67.065595 30.029758 
L 67.120518 27.38284 
L 67.238602 18.805099 
L 67.293524 21.502886 
L 67.408862 30.01084 
L 67.466531 27.259755 
L 67.581868 18.822169 
L 67.639537 21.626237 
L 67.754874 29.992589 
L 67.809797 27.376257 
L 67.927881 18.841886 
L 67.982803 21.508713 
L 68.098141 29.973627 
L 68.15581 27.25468 
L 68.271147 18.859016 
L 68.328816 21.630563 
L 68.444153 29.956117 
L 68.501822 27.132574 
L 68.61716 18.877976 
L 68.672082 21.513546 
L 68.78742 29.937076 
L 68.845089 27.250585 
L 68.960426 18.8952 
L 69.018095 21.633925 
L 69.133432 29.920308 
L 69.191101 27.129943 
L 69.306439 18.913401 
L 69.361361 21.517433 
L 69.476699 29.901156 
L 69.534368 27.247421 
L 69.649705 18.930752 
L 69.707374 21.636368 
L 69.822712 29.885134 
L 69.88038 27.128216 
L 69.995718 18.94819 
L 70.05064 21.520419 
L 70.168724 29.86629 
L 70.223647 27.245146 
L 70.338984 18.965699 
L 70.396653 21.637937 
L 70.511991 29.850564 
L 70.569659 27.12735 
L 70.684997 18.982374 
L 70.739919 21.522548 
L 70.858003 29.832498 
L 70.912926 27.243714 
L 71.028263 19.000071 
L 71.085932 21.638675 
L 71.20127 29.816571 
L 71.258938 27.127302 
L 71.374276 19.015981 
L 71.431945 21.755355 
L 71.547282 29.799285 
L 71.602205 27.243085 
L 71.717542 19.033895 
L 71.775211 21.638621 
L 71.890549 29.783127 
L 71.948217 27.128034 
L 72.063555 19.049039 
L 72.121224 21.753948 
L 72.236561 29.766621 
L 72.291484 27.243221 
L 72.409568 19.066897 
L 72.46449 21.637815 
L 72.579828 29.750204 
L 72.637496 27.129507 
L 72.752834 19.081574 
L 72.810503 21.751812 
L 72.92584 29.73448 
L 72.980763 27.244084 
L 73.098847 19.098638 
L 73.153769 21.636294 
L 73.269107 29.717779 
L 73.326775 27.131685 
L 73.442113 19.113612 
L 73.499782 21.748982 
L 73.615119 29.702835 
L 73.672788 27.018721 
L 73.788126 19.129882 
L 73.843048 21.634091 
L 73.958386 29.685825 
L 74.016055 27.134532 
L 74.131392 19.145179 
L 74.189061 21.745493 
L 74.304398 29.671663 
L 74.362067 27.022848 
L 74.477405 19.160654 
L 74.532327 21.631243 
L 74.650411 29.654883 
L 74.705334 27.138016 
L 74.820671 19.176298 
L 74.87834 21.741378 
L 74.993677 29.640938 
L 75.051346 27.027592 
L 75.166684 19.190979 
L 75.224352 21.852076 
L 75.33969 29.624964 
L 75.394613 27.142104 
L 75.50995 19.206992 
L 75.567619 21.736668 
L 75.682956 29.610637 
L 75.740625 27.03292 
L 75.855963 19.22088 
L 75.913631 21.846132 
L 76.028969 29.595469 
L 76.083892 27.146766 
L 76.199229 19.237284 
L 76.256898 21.731393 
L 76.372235 29.580739 
L 76.429904 27.038804 
L 76.545242 19.25038 
L 76.602911 21.839643 
L 76.718248 29.566374 
L 76.773171 27.151972 
L 76.825347 22.456733 
L 76.825347 22.456733 
" clip-path="url(#p965c5b1314)" style="fill: none; stroke: #87b26c; stroke-width: 0.05; stroke-linecap: square"/>
   </g>
   <g id="line2d_8">
    <path d="M 24.096873 28.946625 
L 24.201226 10.622486 
L 24.256149 17.16112 
L 24.371487 38.064398 
L 24.429155 31.260178 
L 24.544493 10.893878 
L 24.599416 17.3715 
L 24.714753 37.802609 
L 24.772422 31.068496 
L 24.887759 11.150033 
L 24.942682 17.554893 
L 25.05802 37.554934 
L 25.115688 30.902264 
L 25.231026 11.392095 
L 25.285948 17.714183 
L 25.401286 37.320322 
L 25.458955 30.758774 
L 25.571546 11.620269 
L 25.629215 17.851899 
L 25.744552 37.097778 
L 25.802221 30.635653 
L 25.914813 11.836796 
L 25.972481 17.970265 
L 26.087819 36.886362 
L 26.145488 30.530807 
L 26.258079 12.043004 
L 26.315748 18.071248 
L 26.431085 36.685191 
L 26.488754 30.442386 
L 26.601346 12.239709 
L 26.659014 18.156589 
L 26.774352 36.493435 
L 26.832021 30.368749 
L 26.947358 12.426728 
L 27.002281 18.227838 
L 27.117618 36.31032 
L 27.175287 30.308437 
L 27.290625 12.604797 
L 27.345547 18.286376 
L 27.460885 36.135122 
L 27.518554 30.260143 
L 27.633891 12.775068 
L 27.688814 18.333441 
L 27.804151 35.967167 
L 27.86182 30.222698 
L 27.977157 12.938216 
L 28.03208 18.370144 
L 28.147418 35.805824 
L 28.205086 30.195053 
L 28.320424 13.094871 
L 28.378093 18.885401 
L 28.490684 35.650507 
L 28.548353 30.176259 
L 28.66369 13.245615 
L 28.721359 18.895898 
L 28.836697 35.502941 
L 28.891619 30.16546 
L 29.006957 13.390994 
L 29.064626 18.898844 
L 29.179963 35.362126 
L 29.234886 30.161879 
L 29.350223 13.531515 
L 29.407892 18.894974 
L 29.52323 35.22605 
L 29.580898 29.698865 
L 29.69349 13.667649 
L 29.751159 18.884958 
L 29.866496 35.094248 
L 29.924165 29.715766 
L 30.039502 13.795748 
L 30.094425 18.869409 
L 30.209763 34.966284 
L 30.267431 29.737881 
L 30.382769 13.919417 
L 30.437691 18.848885 
L 30.553029 34.841752 
L 30.610698 29.764676 
L 30.726035 14.039763 
L 30.783704 19.268598 
L 30.899042 34.724105 
L 30.953964 29.795664 
L 31.069302 14.157159 
L 31.12697 19.231766 
L 31.242308 34.610846 
L 31.299977 29.390851 
L 31.412568 14.271953 
L 31.470237 19.191427 
L 31.585574 34.500087 
L 31.643243 29.43665 
L 31.758581 14.379279 
L 31.813503 19.147975 
L 31.928841 34.391506 
L 31.98651 29.485353 
L 32.101847 14.48388 
L 32.159516 19.528533 
L 32.274854 34.286482 
L 32.329776 29.536612 
L 32.445114 14.586696 
L 32.502782 19.472343 
L 32.61812 34.187587 
L 32.673043 29.590101 
L 32.78838 14.688 
L 32.846049 19.414089 
L 32.961386 34.09011 
L 33.019055 29.231293 
L 33.134393 14.782877 
L 33.189315 19.354062 
L 33.304653 33.993799 
L 33.362322 29.295815 
L 33.477659 14.87542 
L 33.535328 19.701827 
L 33.650665 33.901382 
L 33.705588 29.361704 
L 33.820926 14.967118 
L 33.878594 19.631688 
L 33.993932 33.813392 
L 34.051601 29.024332 
L 34.166938 15.056983 
L 34.221861 19.560544 
L 34.337198 33.725948 
L 34.394867 29.099505 
L 34.510205 15.140781 
L 34.565127 19.488615 
L 34.680465 33.638852 
L 34.738134 29.175359 
L 34.853471 15.22431 
L 34.91114 19.808433 
L 35.026477 33.558762 
L 35.0814 29.251695 
L 35.196738 15.307751 
L 35.254406 19.728361 
L 35.369744 33.478829 
L 35.427413 28.940763 
L 35.54275 15.385284 
L 35.597673 19.648079 
L 35.71301 33.398742 
L 35.770679 29.024609 
L 35.886017 15.461921 
L 35.943685 19.95059 
L 36.059023 33.323804 
L 36.113946 29.108418 
L 36.229283 15.538939 
L 36.286952 19.863374 
L 36.402289 33.25018 
L 36.459958 28.813901 
L 36.575296 15.611253 
L 36.630218 19.776416 
L 36.745556 33.175962 
L 36.803225 28.904121 
L 36.918562 15.682133 
L 36.976231 20.063334 
L 37.091568 33.10629 
L 37.146491 28.993882 
L 37.261829 15.7538 
L 37.319497 19.970441 
L 37.434835 33.037906 
L 37.492504 28.714202 
L 37.607841 15.820819 
L 37.662764 19.878193 
L 37.778101 32.968552 
L 37.83577 28.809462 
L 37.951108 15.886943 
L 38.008776 20.150971 
L 38.124114 32.904192 
L 38.179037 28.903911 
L 38.294374 15.954208 
L 38.352043 20.053619 
L 38.46738 32.840104 
L 38.525049 28.637727 
L 38.640387 16.015912 
L 38.695309 19.957232 
L 38.813393 32.774793 
L 38.868316 28.736915 
L 38.983653 16.07817 
L 39.041322 20.21711 
L 39.156659 32.715667 
L 39.214328 28.477726 
L 39.329666 16.140739 
L 39.384588 20.116318 
L 39.499926 32.655041 
L 39.557595 28.581163 
L 39.672932 16.198283 
L 39.730601 20.369543 
L 39.845938 32.5952 
L 39.900861 28.683344 
L 40.016199 16.257461 
L 40.073867 20.2648 
L 40.189205 32.539056 
L 40.246874 28.435841 
L 40.362211 16.31459 
L 40.417134 20.161426 
L 40.532471 32.48115 
L 40.59014 28.541701 
L 40.705478 16.369508 
L 40.763146 20.403432 
L 40.878484 32.426714 
L 40.933407 28.646084 
L 41.048744 16.426304 
L 41.106413 20.296632 
L 41.22175 32.37286 
L 41.279419 28.409367 
L 41.394757 16.478068 
L 41.449679 20.191408 
L 41.567763 32.31795 
L 41.622686 28.516944 
L 41.738023 16.53101 
L 41.795692 20.42303 
L 41.911029 32.267907 
L 41.968698 28.2857 
L 42.084036 16.583207 
L 42.138958 20.314827 
L 42.254296 32.215733 
L 42.311965 28.396145 
L 42.427302 16.632525 
L 42.484971 20.541218 
L 42.600309 32.166224 
L 42.655231 28.504834 
L 42.770569 16.684067 
L 42.828237 20.43034 
L 42.943575 32.117496 
L 43.001244 28.28313 
L 43.116581 16.730914 
L 43.17425 20.651745 
L 43.289588 32.067735 
L 43.34451 28.394314 
L 43.459848 16.779178 
L 43.517516 20.538468 
L 43.632854 32.022246 
L 43.690523 28.177385 
L 43.80586 16.826252 
L 43.860783 20.427095 
L 43.97612 31.974328 
L 44.033789 28.290808 
L 44.149127 16.871435 
L 44.206796 20.639689 
L 44.322133 31.929911 
L 44.377056 28.40226 
L 44.495139 16.918619 
L 44.550062 20.526227 
L 44.6654 31.884923 
L 44.723068 28.193867 
L 44.838406 16.960909 
L 44.896075 20.734447 
L 45.011412 31.840412 
L 45.066335 28.307268 
L 45.181672 17.005807 
L 45.239341 20.619114 
L 45.354679 31.798175 
L 45.412347 28.103077 
L 45.527685 17.047676 
L 45.582607 20.505869 
L 45.700691 31.753669 
L 45.755614 28.218222 
L 45.870951 17.089957 
L 45.92862 20.706145 
L 46.043958 31.714012 
L 46.101626 28.018056 
L 46.216964 17.131812 
L 46.271887 20.591273 
L 46.387224 31.671594 
L 46.444893 28.134757 
L 46.56023 17.17164 
L 46.617899 20.787677 
L 46.733237 31.632359 
L 46.788159 28.249275 
L 46.906243 17.213397 
L 46.961166 20.671356 
L 47.076503 31.592275 
L 47.134172 28.056535 
L 47.249509 17.250927 
L 47.307178 20.864045 
L 47.422516 31.553141 
L 47.477438 28.172402 
L 47.592776 17.291348 
L 47.650445 20.746436 
L 47.765782 31.515242 
L 47.823451 27.983242 
L 47.938788 17.32789 
L 47.996457 20.935557 
L 48.111795 31.47628 
L 48.166717 28.100307 
L 48.282055 17.366235 
L 48.339724 20.816807 
L 48.455061 31.440425 
L 48.51273 27.914588 
L 48.628067 17.402605 
L 48.68299 20.700352 
L 48.801074 31.401698 
L 48.855996 28.032711 
L 48.971334 17.439006 
L 49.029003 20.882745 
L 49.14434 31.367754 
L 49.202009 27.850303 
L 49.317347 17.475145 
L 49.372269 20.76531 
L 49.487607 31.33074 
L 49.545275 27.969355 
L 49.660613 17.509732 
L 49.718282 20.944505 
L 49.833619 31.297158 
L 49.891288 27.790134 
L 50.006626 17.545583 
L 50.061548 20.826211 
L 50.176886 31.261868 
L 50.234554 27.909997 
L 50.349892 17.578476 
L 50.407561 21.002324 
L 50.522898 31.228568 
L 50.577821 28.02748 
L 50.695905 17.613992 
L 50.750827 20.883284 
L 50.866165 31.194885 
L 50.923834 27.854413 
L 51.039171 17.645308 
L 51.09684 21.056424 
L 51.212177 31.161914 
L 51.2671 27.972581 
L 51.382438 17.679835 
L 51.440106 20.936741 
L 51.555444 31.129728 
L 51.613113 27.802393 
L 51.72845 17.710291 
L 51.786119 21.107012 
L 51.901456 31.097129 
L 51.956379 27.921148 
L 52.071717 17.7434 
L 52.129385 20.986781 
L 52.244723 31.066333 
L 52.302392 27.753741 
L 52.417729 17.773492 
L 52.475398 21.15428 
L 52.590735 31.034144 
L 52.645658 27.872993 
L 52.760996 17.805282 
L 52.818664 21.03359 
L 52.934002 31.00464 
L 52.991671 27.708274 
L 53.107008 17.834974 
L 53.161931 20.91536 
L 53.280014 30.972896 
L 53.334937 27.827938 
L 53.450275 17.865541 
L 53.507943 21.077343 
L 53.623281 30.944587 
L 53.68095 27.665819 
L 53.796287 17.894799 
L 53.85121 20.958745 
L 53.969294 30.91332 
L 54.024216 27.785818 
L 54.139554 17.924236 
L 54.197222 21.118201 
L 54.31256 30.886115 
L 54.370229 27.626217 
L 54.485566 17.953028 
L 54.540489 20.99931 
L 54.655826 30.855511 
L 54.713495 27.746478 
L 54.828833 17.981422 
L 54.886501 21.156319 
L 55.001839 30.829165 
L 55.059508 27.589316 
L 55.174845 18.009722 
L 55.229768 21.037204 
L 55.345105 30.799546 
L 55.402774 27.709773 
L 55.518112 18.037156 
L 55.575781 21.19184 
L 55.691118 30.773681 
L 55.748787 27.554976 
L 55.864124 18.064938 
L 55.919047 21.072564 
L 56.034385 30.744967 
L 56.092053 27.675565 
L 56.207391 18.091492 
L 56.26506 21.224899 
L 56.380397 30.719608 
L 56.438066 27.523062 
L 56.553403 18.118733 
L 56.608326 21.105522 
L 56.723664 30.691722 
L 56.781332 27.643727 
L 56.89667 18.144481 
L 56.954339 21.255622 
L 57.069676 30.666891 
L 57.127345 27.49345 
L 57.242682 18.171161 
L 57.297605 21.136201 
L 57.412943 30.639761 
L 57.470611 27.614136 
L 57.585949 18.196176 
L 57.643618 21.28413 
L 57.758955 30.615478 
L 57.816624 27.466022 
L 57.931961 18.222275 
L 57.986884 21.164714 
L 58.102222 30.589035 
L 58.15989 27.586679 
L 58.275228 18.246626 
L 58.332897 21.310533 
L 58.448234 30.565319 
L 58.505903 27.440668 
L 58.621241 18.272129 
L 58.676163 21.191173 
L 58.791501 30.539496 
L 58.849169 27.561248 
L 58.964507 18.295881 
L 59.022176 21.334939 
L 59.137513 30.516364 
L 59.195182 27.417283 
L 59.31052 18.32077 
L 59.365442 21.215679 
L 59.48078 30.491099 
L 59.538448 27.537743 
L 59.653786 18.343985 
L 59.711455 21.357447 
L 59.826792 30.468566 
L 59.884461 27.395769 
L 59.999799 18.368247 
L 60.054721 21.23833 
L 60.170059 30.443798 
L 60.227728 27.516068 
L 60.343065 18.390986 
L 60.400734 21.37815 
L 60.516071 30.421878 
L 60.57374 27.376032 
L 60.689078 18.414609 
L 60.744 21.259216 
L 60.859338 30.397551 
L 60.917007 27.496132 
L 61.032344 18.436928 
L 61.090013 21.39714 
L 61.20535 30.376256 
L 61.263019 27.357985 
L 61.378357 18.459899 
L 61.433279 21.278425 
L 61.548617 30.352313 
L 61.606286 27.477849 
L 61.721623 18.481853 
L 61.779292 21.4145 
L 61.894629 30.331655 
L 61.952298 27.341545 
L 62.067636 18.504162 
L 62.122558 21.296039 
L 62.237896 30.308045 
L 62.295565 27.46114 
L 62.410902 18.525803 
L 62.468571 21.430309 
L 62.583908 30.288035 
L 62.641577 27.326632 
L 62.756915 18.547441 
L 62.811837 21.312136 
L 62.929921 30.264783 
L 62.984844 27.445926 
L 63.100181 18.568818 
L 63.15785 21.444643 
L 63.273188 30.245355 
L 63.330856 27.313174 
L 63.446194 18.589776 
L 63.501116 21.326788 
L 63.6192 30.222805 
L 63.674123 27.432136 
L 63.78946 18.610937 
L 63.847129 21.457575 
L 63.962467 30.203574 
L 64.020135 27.301098 
L 64.135473 18.631207 
L 64.190396 21.340066 
L 64.308479 30.181733 
L 64.363402 27.419701 
L 64.478739 18.652198 
L 64.536408 21.46917 
L 64.651746 30.162656 
L 64.709414 27.290338 
L 64.824752 18.671773 
L 64.879675 21.352036 
L 64.997758 30.141531 
L 65.055427 27.160514 
L 65.168018 18.692636 
L 65.225687 21.479495 
L 65.341025 30.122562 
L 65.398693 27.28083 
L 65.514031 18.711511 
L 65.5717 21.607467 
L 65.687037 30.102158 
L 65.74196 27.398636 
L 65.857297 18.732288 
L 65.914966 21.48861 
L 66.030304 30.08326 
L 66.087972 27.272515 
L 66.20331 18.750456 
L 66.260979 21.614987 
L 66.376316 30.063581 
L 66.431239 27.389886 
L 66.546576 18.771188 
L 66.604245 21.496574 
L 66.719583 30.044712 
L 66.777252 27.265334 
L 66.892589 18.788642 
L 66.950258 21.621388 
L 67.065595 30.025765 
L 67.120518 27.382248 
L 67.238602 18.80907 
L 67.293524 21.503442 
L 67.408862 30.006887 
L 67.466531 27.259234 
L 67.581868 18.826104 
L 67.639537 21.626725 
L 67.754874 29.988674 
L 67.809797 27.37567 
L 67.927881 18.84578 
L 67.982803 21.509265 
L 68.098141 29.969752 
L 68.15581 27.254162 
L 68.271147 18.862874 
L 68.328816 21.631049 
L 68.444153 29.952278 
L 68.501822 27.13212 
L 68.61716 18.881795 
L 68.672082 21.514095 
L 68.78742 29.933276 
L 68.845089 27.250069 
L 68.960426 18.898983 
L 69.018095 21.634408 
L 69.133432 29.916543 
L 69.191101 27.12949 
L 69.306439 18.917147 
L 69.361361 21.51798 
L 69.476699 29.89743 
L 69.534368 27.246907 
L 69.649705 18.934462 
L 69.707374 21.63685 
L 69.822712 29.881441 
L 69.88038 27.127764 
L 69.995718 18.951865 
L 70.05064 21.520964 
L 70.168724 29.862634 
L 70.223647 27.244633 
L 70.338984 18.969339 
L 70.396653 21.638419 
L 70.511991 29.84694 
L 70.569659 27.126898 
L 70.684997 18.985981 
L 70.739919 21.523093 
L 70.858003 29.82891 
L 70.912926 27.243201 
L 71.028263 19.003643 
L 71.085932 21.639156 
L 71.20127 29.813014 
L 71.258938 27.126851 
L 71.374276 19.019522 
L 71.431945 21.755778 
L 71.547282 29.795762 
L 71.602205 27.242573 
L 71.717542 19.037401 
L 71.775211 21.639103 
L 71.890549 29.779635 
L 71.948217 27.127582 
L 72.063555 19.052515 
L 72.121224 21.754372 
L 72.236561 29.763162 
L 72.291484 27.242709 
L 72.409568 19.070338 
L 72.46449 21.638297 
L 72.579828 29.746777 
L 72.637496 27.129054 
L 72.752834 19.084987 
L 72.810503 21.752237 
L 72.92584 29.731082 
L 72.980763 27.243571 
L 73.098847 19.102018 
L 73.153769 21.636776 
L 73.269107 29.714413 
L 73.326775 27.131231 
L 73.442113 19.116964 
L 73.499782 21.749409 
L 73.615119 29.699498 
L 73.672788 27.018322 
L 73.788126 19.133203 
L 73.843048 21.634575 
L 73.958386 29.68252 
L 74.016055 27.134077 
L 74.131392 19.148471 
L 74.189061 21.745921 
L 74.304398 29.668384 
L 74.362067 27.022447 
L 74.477405 19.163918 
L 74.532327 21.631728 
L 74.650411 29.651636 
L 74.705334 27.137558 
L 74.820671 19.179532 
L 74.87834 21.741808 
L 74.993677 29.637716 
L 75.051346 27.027188 
L 75.166684 19.194186 
L 75.224352 21.852454 
L 75.33969 29.621772 
L 75.394613 27.141645 
L 75.50995 19.21017 
L 75.567619 21.7371 
L 75.682956 29.607472 
L 75.740625 27.032514 
L 75.855963 19.224033 
L 75.913631 21.846514 
L 76.028969 29.592331 
L 76.083892 27.146304 
L 76.199229 19.240407 
L 76.256898 21.731828 
L 76.372235 29.577627 
L 76.429904 27.038395 
L 76.545242 19.253479 
L 76.602911 21.840027 
L 76.718248 29.563288 
L 76.773171 27.151508 
L 76.825347 22.456901 
L 76.825347 22.456901 
" clip-path="url(#p965c5b1314)" style="fill: none; stroke-dasharray: 0.185,0.08; stroke-dashoffset: 0; stroke: #87b26c; stroke-width: 0.05"/>
   </g>
   <g id="patch_13">
    <path d="M 24.099592 40.782205 
L 24.099592 8.042047 
" style="fill: none; stroke: #ffffff; stroke-width: 0.5; stroke-linejoin: miter; stroke-linecap: square"/>
   </g>
   <g id="patch_14">
    <path d="M 76.824002 40.782205 
L 76.824002 8.042047 
" style="fill: none; stroke: #ffffff; stroke-width: 0.5; stroke-linejoin: miter; stroke-linecap: square"/>
   </g>
   <g id="patch_15">
    <path d="M 24.099592 40.782205 
L 76.824002 40.782205 
" style="fill: none; stroke: #ffffff; stroke-width: 0.5; stroke-linejoin: miter; stroke-linecap: square"/>
   </g>
   <g id="patch_16">
    <path d="M 24.099592 8.042047 
L 76.824002 8.042047 
" style="fill: none; stroke: #ffffff; stroke-width: 0.5; stroke-linejoin: miter; stroke-linecap: square"/>
   </g>
  </g>
 </g>
 <defs>
  <clipPath id="p6c3c01ea77">
   <rect x="6.524789" y="8.042047" width="17.574803" height="32.740157"/>
  </clipPath>
  <clipPath id="p86e3775cdf">
   <rect x="76.824002" y="8.042047" width="17.574803" height="32.740157"/>
  </clipPath>
  <clipPath id="p965c5b1314">
   <rect x="24.099592" y="8.042047" width="52.724409" height="32.740157"/>
  </clipPath>
 </defs>
</svg>
