<?xml version="1.0" encoding="utf-8" standalone="no"?>
<!DOCTYPE svg PUBLIC "-//W3C//DTD SVG 1.1//EN"
  "http://www.w3.org/Graphics/SVG/1.1/DTD/svg11.dtd">
<svg xmlns:xlink="http://www.w3.org/1999/xlink" width="93.314016pt" height="29.49748pt" viewBox="0 0 93.314016 29.49748" xmlns="http://www.w3.org/2000/svg" version="1.1">
 <metadata>
  <rdf:RDF xmlns:dc="http://purl.org/dc/elements/1.1/" xmlns:cc="http://creativecommons.org/ns#" xmlns:rdf="http://www.w3.org/1999/02/22-rdf-syntax-ns#">
   <cc:Work>
    <dc:type rdf:resource="http://purl.org/dc/dcmitype/StillImage"/>
    <dc:date>2025-03-01T22:03:25.046381</dc:date>
    <dc:format>image/svg+xml</dc:format>
    <dc:creator>
     <cc:Agent>
      <dc:title>Matplotlib v3.7.5, https://matplotlib.org/</dc:title>
     </cc:Agent>
    </dc:creator>
   </cc:Work>
  </rdf:RDF>
 </metadata>
 <defs>
  <style type="text/css">*{stroke-linejoin: round; stroke-linecap: butt}</style>
 </defs>
 <g id="figure_1">
  <g id="patch_1">
   <path d="M 0 29.49748 
L 93.314016 29.49748 
L 93.314016 0 
L 0 0 
L 0 29.49748 
z
" style="fill: none"/>
  </g>
  <g id="axes_1"/>
  <g id="axes_2">
   <g id="patch_2">
    <path d="M 4.72 28.77748 
L 22.294803 28.77748 
L 22.294803 6.950709 
L 4.72 6.950709 
L 4.72 28.77748 
z
" style="fill: none"/>
   </g>
   <g id="matplotlib.axis_1"/>
   <g id="matplotlib.axis_2"/>
   <g id="line2d_1">
    <path d="M 4.72 27.98378 
L 4.851814 27.863063 
L 5.071505 27.135245 
L 5.379072 25.121468 
L 5.906329 19.85707 
L 6.916905 9.785183 
L 7.26841 8.116152 
L 7.488101 7.871035 
L 7.619915 8.039982 
L 7.839606 8.837412 
L 8.19111 11.290477 
L 8.806244 17.662 
L 9.641068 25.736898 
L 9.992573 27.453511 
L 10.212263 27.744457 
L 10.344078 27.607504 
L 10.563768 26.867762 
L 10.871335 24.869597 
L 11.398592 19.701026 
L 12.365231 10.19732 
L 12.716735 8.433038 
L 12.936426 8.096315 
L 13.06824 8.201313 
L 13.243993 8.697785 
L 13.551559 10.466086 
L 14.034879 14.923168 
L 15.177269 25.902405 
L 15.528774 27.363938 
L 15.704527 27.520155 
L 15.836341 27.370719 
L 16.056031 26.624085 
L 16.363598 24.645344 
L 16.934794 19.099678 
L 17.857494 10.307371 
L 18.208999 8.616414 
L 18.428689 8.311159 
L 18.560503 8.427936 
L 18.780194 9.116393 
L 19.087761 11.014373 
L 19.615018 15.982614 
L 20.625594 25.506738 
L 20.977099 27.079221 
L 21.19679 27.309783 
L 21.328604 27.151077 
L 21.548295 26.401803 
L 21.8998 24.093626 
L 22.295243 20.374532 
L 22.295243 20.374532 
" clip-path="url(#p75814eeda2)" style="fill: none; stroke: #87b26c; stroke-opacity: 0.3; stroke-linecap: square"/>
   </g>
   <g id="line2d_2">
    <path d="M 4.72 27.785354 
L 4.851814 27.671729 
L 5.071505 26.987149 
L 5.379072 25.077951 
L 5.862391 20.431146 
L 6.916905 9.907173 
L 7.26841 8.29521 
L 7.488101 8.062371 
L 7.619915 8.221553 
L 7.839606 8.972847 
L 8.147172 10.949179 
L 8.67443 16.104836 
L 9.641068 25.621549 
L 9.992573 27.282479 
L 10.212263 27.559289 
L 10.344078 27.430057 
L 10.563768 26.732328 
L 10.871335 24.832574 
L 11.398592 19.787038 
L 12.365231 10.306423 
L 12.716735 8.596334 
L 12.936426 8.275445 
L 13.06824 8.374667 
L 13.243993 8.84335 
L 13.551559 10.522172 
L 14.034879 14.851599 
L 15.177269 25.786599 
L 15.528774 27.198197 
L 15.704527 27.346893 
L 15.836341 27.205553 
L 16.056031 26.499534 
L 16.363598 24.613494 
L 16.890855 19.651632 
L 17.857494 10.410787 
L 18.208999 8.770509 
L 18.428689 8.479115 
L 18.560503 8.589714 
L 18.780194 9.241366 
L 19.087761 11.05082 
L 19.57108 15.44849 
L 20.625594 25.403082 
L 20.977099 26.927092 
L 21.19679 27.147238 
L 21.328604 26.996807 
L 21.548295 26.28664 
L 21.855861 24.417843 
L 22.295243 20.443561 
L 22.295243 20.443561 
" clip-path="url(#p75814eeda2)" style="fill: none; stroke-dasharray: 1.48,0.64; stroke-dashoffset: 0; stroke: #87b26c; stroke-width: 0.4"/>
   </g>
   <g id="patch_3">
    <path d="M 4.72 28.77748 
L 4.72 6.950709 
" style="fill: none; stroke: #ffffff; stroke-width: 0.5; stroke-linejoin: miter; stroke-linecap: square"/>
   </g>
   <g id="patch_4">
    <path d="M 22.294803 28.77748 
L 22.294803 6.950709 
" style="fill: none; stroke: #ffffff; stroke-width: 0.5; stroke-linejoin: miter; stroke-linecap: square"/>
   </g>
   <g id="patch_5">
    <path d="M 4.72 28.77748 
L 22.294803 28.77748 
" style="fill: none; stroke: #ffffff; stroke-width: 0.5; stroke-linejoin: miter; stroke-linecap: square"/>
   </g>
   <g id="patch_6">
    <path d="M 4.72 6.950709 
L 22.294803 6.950709 
" style="fill: none; stroke: #ffffff; stroke-width: 0.5; stroke-linejoin: miter; stroke-linecap: square"/>
   </g>
   <g id="legend_1">
    <g id="line2d_3">
     <path d="M 25.707008 4.769219 
L 30.707008 4.769219 
L 35.707008 4.769219 
" style="fill: none; stroke: #87b26c; stroke-opacity: 0.3; stroke-linecap: square"/>
    </g>
    <g id="text_1">
     <!-- $\ddot{x}$ -->
     <g transform="translate(39.707008 6.519219) scale(0.05 -0.05)">
      <defs>
       <path id="STIXGeneral-Regular-308" d="M -614 3885 
Q -518 3789 -518 3661 
Q -518 3533 -614 3440 
Q -710 3347 -845 3347 
Q -973 3347 -1062 3440 
Q -1152 3533 -1152 3667 
Q -1152 3795 -1059 3888 
Q -966 3981 -838 3981 
Q -710 3981 -614 3885 
z
M -1888 3885 
Q -1792 3789 -1792 3661 
Q -1792 3533 -1888 3440 
Q -1984 3347 -2118 3347 
Q -2246 3347 -2336 3440 
Q -2426 3533 -2426 3667 
Q -2426 3795 -2333 3888 
Q -2240 3981 -2112 3981 
Q -1984 3981 -1888 3885 
z
" transform="scale(0.015625)"/>
       <path id="STIXGeneral-Italic-78" d="M 1555 2272 
L 1632 1907 
Q 1971 2426 2179 2624 
Q 2387 2822 2598 2822 
Q 2714 2822 2787 2755 
Q 2861 2688 2861 2585 
Q 2861 2483 2800 2419 
Q 2739 2355 2643 2355 
Q 2586 2355 2490 2409 
Q 2394 2464 2310 2464 
Q 2125 2464 1683 1690 
Q 1683 1606 1734 1402 
L 1939 544 
Q 2003 282 2131 282 
Q 2234 282 2432 538 
Q 2451 563 2476 598 
Q 2502 634 2521 662 
Q 2541 691 2566 717 
L 2662 659 
Q 2387 230 2227 80 
Q 2067 -70 1882 -70 
Q 1728 -70 1645 26 
Q 1562 122 1504 365 
L 1318 1126 
L 755 365 
Q 557 96 432 13 
Q 307 -70 147 -70 
Q 0 -70 -86 0 
Q -173 70 -173 198 
Q -173 294 -112 361 
Q -51 429 45 429 
Q 122 429 250 358 
Q 346 301 416 301 
Q 525 301 742 614 
L 1267 1357 
L 1088 2150 
Q 1024 2432 969 2509 
Q 915 2586 794 2586 
Q 717 2586 544 2541 
L 429 2509 
L 410 2611 
L 480 2637 
Q 992 2822 1229 2822 
Q 1350 2822 1420 2707 
Q 1491 2592 1555 2272 
z
" transform="scale(0.015625)"/>
      </defs>
      <use xlink:href="#STIXGeneral-Regular-308" transform="translate(51.006248 4.796875)"/>
      <use xlink:href="#STIXGeneral-Italic-78" transform="translate(0 0.5)"/>
     </g>
    </g>
    <g id="line2d_4">
     <path d="M 51.957008 4.769219 
L 56.957008 4.769219 
L 61.957008 4.769219 
" style="fill: none; stroke-dasharray: 1.48,0.64; stroke-dashoffset: 0; stroke: #87b26c; stroke-width: 0.4"/>
    </g>
    <g id="text_2">
     <!-- $-x$ -->
     <g transform="translate(65.957008 6.519219) scale(0.05 -0.05)">
      <defs>
       <path id="STIXGeneral-Regular-2212" d="M 3974 1408 
L 410 1408 
L 410 1830 
L 3974 1830 
L 3974 1408 
z
" transform="scale(0.015625)"/>
      </defs>
      <use xlink:href="#STIXGeneral-Regular-2212" transform="translate(0 0.90625)"/>
      <use xlink:href="#STIXGeneral-Italic-78" transform="translate(68.499985 0.90625)"/>
     </g>
    </g>
   </g>
  </g>
  <g id="axes_3">
   <g id="patch_7">
    <path d="M 75.019213 28.77748 
L 92.594016 28.77748 
L 92.594016 6.950709 
L 75.019213 6.950709 
L 75.019213 28.77748 
z
" style="fill: none"/>
   </g>
   <g id="matplotlib.axis_3"/>
   <g id="matplotlib.axis_4"/>
   <g id="line2d_5">
    <path d="M 74.996804 16.717195 
L 75.568 14.990584 
L 75.919504 14.482151 
L 76.183133 14.451552 
L 76.446762 14.728024 
L 76.798267 15.526678 
L 77.369462 17.528289 
L 78.248224 20.555227 
L 78.643667 21.214844 
L 78.907296 21.285325 
L 79.126986 21.10835 
L 79.434553 20.524491 
L 79.917872 18.996596 
L 81.104201 14.956875 
L 81.455706 14.478624 
L 81.675396 14.451075 
L 81.895087 14.637296 
L 82.202654 15.232103 
L 82.685973 16.769718 
L 83.872302 20.787532 
L 84.223806 21.250675 
L 84.443497 21.268497 
L 84.663188 21.073088 
L 84.970754 20.467449 
L 85.454073 18.920344 
L 86.596464 15.015862 
L 86.947969 14.504149 
L 87.211598 14.468709 
L 87.475226 14.73877 
L 87.826731 15.527491 
L 88.397927 17.513521 
L 89.276689 20.529773 
L 89.672132 21.192421 
L 89.93576 21.267531 
L 90.155451 21.095681 
L 90.463018 20.520255 
L 90.946337 19.006158 
L 92.132666 14.982025 
L 92.48417 14.500191 
L 92.615985 14.455525 
L 92.615985 14.455525 
" clip-path="url(#pea57f06ab1)" style="fill: none; stroke: #87b26c; stroke-opacity: 0.3; stroke-linecap: square"/>
   </g>
   <g id="line2d_6">
    <path d="M 74.996804 16.720943 
L 75.568 14.996055 
L 75.919504 14.48998 
L 76.183133 14.459563 
L 76.446762 14.733975 
L 76.798267 15.527659 
L 77.369462 17.524259 
L 78.248224 20.550311 
L 78.643667 21.20721 
L 78.907296 21.277248 
L 79.126986 21.101597 
L 79.434553 20.521703 
L 79.917872 18.999727 
L 81.104201 14.962443 
L 81.455706 14.486469 
L 81.675396 14.459093 
L 81.895087 14.643925 
L 82.202654 15.234732 
L 82.685973 16.766532 
L 83.872302 20.781915 
L 84.223806 21.242826 
L 84.443497 21.260541 
L 84.663188 21.066585 
L 84.970754 20.464978 
L 85.454073 18.923582 
L 86.640402 14.930529 
L 86.991907 14.484688 
L 87.211598 14.476601 
L 87.475226 14.744671 
L 87.826731 15.528518 
L 88.397927 17.509565 
L 89.276689 20.524966 
L 89.672132 21.184936 
L 89.93576 21.259578 
L 90.155451 21.089 
L 90.463018 20.51745 
L 90.946337 19.009207 
L 92.176604 14.900313 
L 92.528109 14.484619 
L 92.615985 14.463515 
L 92.615985 14.463515 
" clip-path="url(#pea57f06ab1)" style="fill: none; stroke-dasharray: 1.48,0.64; stroke-dashoffset: 0; stroke: #87b26c; stroke-width: 0.4"/>
   </g>
   <g id="patch_8">
    <path d="M 75.019213 28.77748 
L 75.019213 6.950709 
" style="fill: none; stroke: #ffffff; stroke-width: 0.5; stroke-linejoin: miter; stroke-linecap: square"/>
   </g>
   <g id="patch_9">
    <path d="M 92.594016 28.77748 
L 92.594016 6.950709 
" style="fill: none; stroke: #ffffff; stroke-width: 0.5; stroke-linejoin: miter; stroke-linecap: square"/>
   </g>
   <g id="patch_10">
    <path d="M 75.019213 28.77748 
L 92.594016 28.77748 
" style="fill: none; stroke: #ffffff; stroke-width: 0.5; stroke-linejoin: miter; stroke-linecap: square"/>
   </g>
   <g id="patch_11">
    <path d="M 75.019213 6.950709 
L 92.594016 6.950709 
" style="fill: none; stroke: #ffffff; stroke-width: 0.5; stroke-linejoin: miter; stroke-linecap: square"/>
   </g>
  </g>
  <g id="axes_4">
   <g id="patch_12">
    <path d="M 22.294803 28.77748 
L 75.019213 28.77748 
L 75.019213 6.950709 
L 22.294803 6.950709 
L 22.294803 28.77748 
z
" style="fill: none"/>
   </g>
   <g id="matplotlib.axis_5"/>
   <g id="matplotlib.axis_6"/>
   <g id="line2d_7">
    <path d="M 22.292084 20.82347 
L 22.396437 8.513138 
L 22.448614 12.659429 
L 22.566698 27.118802 
L 22.624366 22.398659 
L 22.739704 8.703204 
L 22.794627 13.196132 
L 22.909964 26.935631 
L 22.967633 22.271729 
L 23.08297 8.88227 
L 23.137893 13.317732 
L 23.253231 26.762641 
L 23.308153 22.547169 
L 23.426237 9.051195 
L 23.481159 13.423081 
L 23.596497 26.599043 
L 23.65142 22.445951 
L 23.766757 9.210174 
L 23.824426 13.513911 
L 23.939763 26.444098 
L 23.994686 22.358526 
L 24.110024 9.360816 
L 24.167692 13.591744 
L 24.28303 26.297111 
L 24.337953 22.283466 
L 24.45329 9.504082 
L 24.510959 13.657918 
L 24.626296 26.157434 
L 24.681219 22.21951 
L 24.796557 9.640568 
L 24.854225 13.713617 
L 24.969563 26.024461 
L 25.024485 22.165543 
L 25.142569 9.770178 
L 25.197492 13.759889 
L 25.312829 25.89763 
L 25.370498 21.773818 
L 25.485836 9.893442 
L 25.540758 13.797668 
L 25.656096 25.776418 
L 25.713765 21.74299 
L 25.829102 10.011181 
L 25.884025 13.827788 
L 25.999362 25.660339 
L 26.057031 21.719389 
L 26.172368 10.123881 
L 26.227291 13.850998 
L 26.342629 25.54894 
L 26.400297 21.70231 
L 26.515635 10.231991 
L 26.570558 13.86797 
L 26.685895 25.441802 
L 26.743564 21.691118 
L 26.858901 10.335929 
L 26.913824 13.879309 
L 27.031908 25.340103 
L 27.08683 21.685241 
L 27.202168 10.43608 
L 27.259837 14.20483 
L 27.375174 25.243138 
L 27.430097 21.684158 
L 27.545434 10.532803 
L 27.603103 14.200894 
L 27.718441 25.149511 
L 27.773363 21.687398 
L 27.888701 10.626433 
L 27.94637 14.192886 
L 28.061707 25.058893 
L 28.119376 21.384681 
L 28.234713 10.714472 
L 28.289636 14.181211 
L 28.404974 24.970978 
L 28.462642 21.400764 
L 28.57798 10.799406 
L 28.632902 14.166244 
L 28.74824 24.885482 
L 28.805909 21.419942 
L 28.921246 10.882002 
L 28.978915 14.449015 
L 29.094253 24.804765 
L 29.149175 21.441888 
L 29.264513 10.962521 
L 29.322181 14.423154 
L 29.437519 24.727108 
L 29.492442 21.466306 
L 29.607779 11.041205 
L 29.665448 14.39498 
L 29.780785 24.65121 
L 29.838454 21.201146 
L 29.953792 11.114729 
L 30.008714 14.364757 
L 30.124052 24.576849 
L 30.181721 21.234881 
L 30.297058 11.186345 
L 30.351981 14.332727 
L 30.470065 24.504963 
L 30.524987 21.270295 
L 30.640325 11.2567 
L 30.697993 14.582199 
L 30.813331 24.43731 
L 30.868254 21.307172 
L 30.983591 11.325984 
L 31.04126 14.542141 
L 31.156597 24.370659 
L 31.214266 21.065718 
L 31.329604 11.390841 
L 31.384526 14.500923 
L 31.499864 24.304839 
L 31.557533 21.109933 
L 31.67287 11.454071 
L 31.730539 14.734856 
L 31.845876 24.241709 
L 31.900799 21.155039 
L 32.016137 11.516695 
L 32.073805 14.686921 
L 32.189143 24.181632 
L 32.244066 21.200873 
L 32.362149 11.578039 
L 32.417072 14.638335 
L 32.532409 24.121953 
L 32.590078 20.979438 
L 32.705416 11.635217 
L 32.760338 14.589244 
L 32.875676 24.062537 
L 32.933345 21.03114 
L 33.048682 11.692188 
L 33.106351 14.8043 
L 33.221688 24.007922 
L 33.276611 21.083147 
L 33.391949 11.749076 
L 33.449617 14.74981 
L 33.564955 23.953436 
L 33.622624 20.874118 
L 33.737961 11.801916 
L 33.792884 14.695195 
L 33.908221 23.898867 
L 33.96589 20.931101 
L 34.081228 11.854125 
L 34.138896 14.898517 
L 34.254234 23.847824 
L 34.309157 20.988044 
L 34.424494 11.906576 
L 34.482163 14.839312 
L 34.5975 23.797694 
L 34.655169 20.790134 
L 34.770507 11.955805 
L 34.825429 14.780292 
L 34.940767 23.747178 
L 34.998436 20.851318 
L 35.113773 12.004041 
L 35.171442 14.973063 
L 35.286779 23.699771 
L 35.341702 20.912184 
L 35.45704 12.052797 
L 35.514708 14.91012 
L 35.630046 23.653256 
L 35.687715 20.724304 
L 35.803052 12.098377 
L 35.857975 14.847617 
L 35.973312 23.606095 
L 36.030981 20.788804 
L 36.146319 12.143335 
L 36.203987 15.030836 
L 36.319325 23.562343 
L 36.374248 20.852753 
L 36.489585 12.189054 
L 36.547254 14.964964 
L 36.662591 23.518789 
L 36.72026 20.673983 
L 36.835598 12.230981 
L 36.89052 14.899743 
L 37.008604 23.474417 
L 37.063527 20.741058 
L 37.178864 12.273274 
L 37.236533 15.074261 
L 37.35187 23.434258 
L 37.406793 20.807391 
L 37.524877 12.315766 
L 37.579799 15.006136 
L 37.695137 23.393091 
L 37.752806 20.636945 
L 37.868143 12.354834 
L 37.923066 14.938838 
L 38.041149 23.352468 
L 38.096072 20.705978 
L 38.21141 12.395003 
L 38.269078 15.105381 
L 38.384416 23.314364 
L 38.442085 20.539856 
L 38.557422 12.43377 
L 38.612345 15.035571 
L 38.727682 23.275075 
L 38.785351 20.61131 
L 38.900689 12.471028 
L 38.958357 15.197995 
L 39.073695 23.238148 
L 39.128618 20.681776 
L 39.243955 12.50955 
L 39.301624 15.125932 
L 39.416961 23.201625 
L 39.47463 20.522907 
L 39.589968 12.544652 
L 39.64489 15.054921 
L 39.762974 23.164394 
L 39.817897 20.595473 
L 39.933234 12.580545 
L 39.990903 15.210366 
L 40.10624 23.130471 
L 40.163909 20.440333 
L 40.279247 12.615925 
L 40.334169 15.137398 
L 40.449507 23.09511 
L 40.507176 20.514781 
L 40.622513 12.649346 
L 40.680182 15.289281 
L 40.79552 23.061563 
L 40.850442 20.588059 
L 40.96578 12.684267 
L 41.023448 15.214557 
L 41.138786 23.028552 
L 41.196455 20.439321 
L 41.311792 12.716001 
L 41.366715 15.141057 
L 41.484799 22.994848 
L 41.539721 20.514235 
L 41.655059 12.748687 
L 41.712727 15.286754 
L 41.828065 22.964043 
L 41.885734 20.368744 
L 42.001071 12.780563 
L 42.055994 15.211726 
L 42.171331 22.9316 
L 42.229 20.445125 
L 42.344338 12.811152 
L 42.402007 15.354312 
L 42.517344 22.901532 
L 42.572267 20.520192 
L 42.69035 12.843089 
L 42.745273 15.277917 
L 42.860611 22.871084 
L 42.918279 20.380422 
L 43.033617 12.871709 
L 43.091286 15.417533 
L 43.206623 22.840963 
L 43.261546 20.456765 
L 43.376883 12.902088 
L 43.434552 15.339916 
L 43.54989 22.812387 
L 43.607558 20.319847 
L 43.722896 12.930413 
L 43.777818 15.263687 
L 43.895902 22.78228 
L 43.950825 20.397329 
L 44.066162 12.959013 
L 44.123831 15.397984 
L 44.239169 22.755458 
L 44.296837 20.263141 
L 44.412175 12.987319 
L 44.467098 15.320693 
L 44.582435 22.726774 
L 44.640104 20.341638 
L 44.755441 13.01425 
L 44.81311 15.452366 
L 44.928448 22.700246 
L 44.98337 20.418683 
L 45.101454 13.042482 
L 45.156377 15.37413 
L 45.271714 22.673147 
L 45.329383 20.289462 
L 45.44472 13.067851 
L 45.502389 15.503286 
L 45.617727 22.646695 
L 45.672649 20.367386 
L 45.787987 13.095171 
L 45.845656 15.424213 
L 45.960993 22.621082 
L 46.018662 20.24059 
L 46.133999 13.119865 
L 46.188922 15.346645 
L 46.307006 22.594754 
L 46.361928 20.319293 
L 46.477266 13.145774 
L 46.534935 15.471139 
L 46.650272 22.57053 
L 46.707941 20.194825 
L 46.823278 13.170345 
L 46.878201 15.39285 
L 46.996285 22.544368 
L 47.051207 20.274214 
L 47.166545 13.194934 
L 47.224214 15.515097 
L 47.339551 22.521441 
L 47.39722 20.151985 
L 47.512558 13.219342 
L 47.56748 15.436172 
L 47.682818 22.496443 
L 47.740486 20.231975 
L 47.855824 13.242699 
L 47.913493 15.556256 
L 48.02883 22.473766 
L 48.083753 20.310397 
L 48.201837 13.266907 
L 48.256759 15.476776 
L 48.372097 22.449939 
L 48.429765 20.192414 
L 48.545103 13.289115 
L 48.602772 15.594777 
L 48.718109 22.427458 
L 48.773032 20.271347 
L 48.891116 13.31309 
L 48.946038 15.514817 
L 49.061376 22.404721 
L 49.119045 20.155379 
L 49.234382 13.334227 
L 49.292051 15.63081 
L 49.407388 22.382468 
L 49.462311 20.234753 
L 49.577649 13.357529 
L 49.635317 15.550437 
L 49.750655 22.360747 
L 49.808324 20.120729 
L 49.923661 13.378082 
L 49.98133 15.664494 
L 50.096667 22.33875 
L 50.15159 20.200479 
L 50.266928 13.400421 
L 50.324596 15.583771 
L 50.439934 22.317972 
L 50.497603 20.088332 
L 50.61294 13.420724 
L 50.667863 15.504675 
L 50.785946 22.296256 
L 50.840869 20.168398 
L 50.956207 13.442169 
L 51.013875 15.614944 
L 51.129213 22.276354 
L 51.186882 20.058064 
L 51.302219 13.462196 
L 51.357142 15.535563 
L 51.475225 22.254944 
L 51.530148 20.138391 
L 51.645486 13.482812 
L 51.703154 15.644073 
L 51.818492 22.235852 
L 51.876161 20.029811 
L 51.991498 13.502543 
L 52.046421 15.56446 
L 52.164505 22.214767 
L 52.219427 20.110347 
L 52.334765 13.522392 
L 52.392433 15.671266 
L 52.507771 22.196424 
L 52.56544 20.003464 
L 52.680777 13.541805 
L 52.7357 15.591471 
L 52.851037 22.175791 
L 52.908706 20.084162 
L 53.024044 13.560948 
L 53.081712 15.696628 
L 53.19705 22.15803 
L 53.254719 19.978922 
L 53.370056 13.580025 
L 53.424979 15.616696 
L 53.540316 22.138065 
L 53.597985 20.059738 
L 53.713323 13.598516 
L 53.770992 15.720255 
L 53.886329 22.120632 
L 53.943998 19.95609 
L 54.059335 13.617241 
L 54.114258 15.640227 
L 54.229596 22.10128 
L 54.287264 20.036983 
L 54.402602 13.635135 
L 54.460271 15.742236 
L 54.575608 22.084191 
L 54.633277 19.934879 
L 54.748614 13.653492 
L 54.803537 15.662153 
L 54.918875 22.065401 
L 54.976543 20.015811 
L 55.091881 13.67084 
L 55.14955 15.762657 
L 55.264887 22.04867 
L 55.322556 19.915205 
L 55.437893 13.688816 
L 55.492816 15.682555 
L 55.608154 22.030393 
L 55.665822 19.996141 
L 55.78116 13.705668 
L 55.838829 15.781599 
L 55.954166 22.014035 
L 56.011835 19.896989 
L 56.127172 13.723249 
L 56.182095 15.701511 
L 56.297433 21.996223 
L 56.355101 19.977895 
L 56.470439 13.73965 
L 56.528108 15.799136 
L 56.643445 21.98025 
L 56.701114 19.880157 
L 56.816452 13.756827 
L 56.871374 15.719095 
L 56.986712 21.962859 
L 57.04438 19.961003 
L 57.159718 13.772822 
L 57.217387 15.81534 
L 57.332724 21.947281 
L 57.390393 19.86464 
L 57.505731 13.789583 
L 57.560653 15.735374 
L 57.675991 21.930268 
L 57.733659 19.945397 
L 57.848997 13.805214 
L 57.906666 15.830276 
L 58.022003 21.915096 
L 58.079672 19.850371 
L 58.19501 13.82155 
L 58.249932 15.750415 
L 58.36527 21.898421 
L 58.422939 19.931011 
L 58.538276 13.836858 
L 58.595945 15.844009 
L 58.711282 21.883664 
L 58.768951 19.837288 
L 58.884289 13.852761 
L 58.939211 15.764278 
L 59.054549 21.867288 
L 59.112218 19.917787 
L 59.227555 13.867785 
L 59.285224 15.856598 
L 59.400561 21.852954 
L 59.45823 19.825332 
L 59.573568 13.883246 
L 59.62849 15.777021 
L 59.743828 21.836839 
L 59.801497 19.905666 
L 59.916834 13.898022 
L 59.974503 15.868099 
L 60.08984 21.822936 
L 60.147509 19.814447 
L 60.262847 13.913037 
L 60.317769 15.7887 
L 60.433107 21.807047 
L 60.490776 19.894594 
L 60.606113 13.9276 
L 60.663782 15.878566 
L 60.779119 21.793582 
L 60.836788 19.804582 
L 60.952126 13.94216 
L 61.007048 15.799366 
L 61.125132 21.777936 
L 61.180055 19.884521 
L 61.295392 13.956543 
L 61.353061 15.88805 
L 61.468399 21.764864 
L 61.526067 19.795686 
L 61.641405 13.970644 
L 61.696327 15.809068 
L 61.814411 21.749693 
L 61.869334 19.875397 
L 61.984671 13.984881 
L 62.04234 15.896597 
L 62.157678 21.736755 
L 62.215346 19.787711 
L 62.330684 13.998517 
L 62.385607 15.817854 
L 62.50369 21.722063 
L 62.558613 19.867177 
L 62.67395 14.012637 
L 62.731619 15.904254 
L 62.846957 21.70923 
L 62.904625 19.780615 
L 63.019963 14.025804 
L 63.074886 15.825767 
L 63.192969 21.695021 
L 63.247892 19.859817 
L 63.363229 14.039836 
L 63.420898 15.911064 
L 63.536236 21.682263 
L 63.593904 19.774353 
L 63.709242 14.052531 
L 63.764165 15.83285 
L 63.882248 21.668541 
L 63.939917 19.688593 
L 64.052508 14.066504 
L 64.110177 15.917067 
L 64.225515 21.655832 
L 64.283183 19.768885 
L 64.398521 14.078721 
L 64.45619 16.001616 
L 64.571527 21.642599 
L 64.62645 19.847512 
L 64.741787 14.092662 
L 64.799456 15.922303 
L 64.914794 21.629911 
L 64.972463 19.764175 
L 65.0878 14.104398 
L 65.145469 16.005805 
L 65.260806 21.617171 
L 65.315729 19.842491 
L 65.433813 14.118133 
L 65.488735 15.926808 
L 65.604073 21.604479 
L 65.661742 19.760184 
L 65.777079 14.129586 
L 65.834748 16.009285 
L 65.950085 21.592234 
L 66.005008 19.838176 
L 66.123092 14.142813 
L 66.178014 15.930617 
L 66.293352 21.579514 
L 66.351021 19.756878 
L 66.466358 14.154305 
L 66.524027 16.012089 
L 66.639364 21.567767 
L 66.694287 19.834532 
L 66.812371 14.167024 
L 66.867293 15.933764 
L 66.982631 21.554994 
L 67.0403 19.754225 
L 67.155637 14.178577 
L 67.213306 16.014252 
L 67.328643 21.543747 
L 67.386312 19.673569 
L 67.50165 14.190785 
L 67.556572 15.936281 
L 67.67191 21.530901 
L 67.729579 19.752192 
L 67.844916 14.202423 
L 67.902585 16.015803 
L 68.017923 21.520155 
L 68.075591 19.672497 
L 68.190929 14.214119 
L 68.245851 15.938198 
L 68.363935 21.507515 
L 68.418858 19.75075 
L 68.534195 14.225862 
L 68.591864 16.016772 
L 68.707202 21.496969 
L 68.76487 19.671998 
L 68.880208 14.237046 
L 68.93513 15.939545 
L 69.053214 21.484853 
L 69.108137 19.74987 
L 69.223474 14.248914 
L 69.281143 16.017187 
L 69.396481 21.474172 
L 69.454149 19.672044 
L 69.569487 14.259583 
L 69.627156 16.095186 
L 69.742493 21.46258 
L 69.797416 19.749525 
L 69.912753 14.271596 
L 69.970422 16.017076 
L 70.08576 21.451745 
L 70.143428 19.672609 
L 70.258766 14.281751 
L 70.316435 16.09417 
L 70.431772 21.440677 
L 70.486695 19.749689 
L 70.604779 14.293726 
L 70.659701 16.016464 
L 70.775039 21.429669 
L 70.832707 19.673667 
L 70.948045 14.303567 
L 71.005714 16.092669 
L 71.121051 21.419125 
L 71.175974 19.750336 
L 71.294058 14.315008 
L 71.34898 16.015376 
L 71.464318 21.407928 
L 71.521986 19.675193 
L 71.637324 14.325048 
L 71.694993 16.090706 
L 71.81033 21.397909 
L 71.867999 19.599687 
L 71.983337 14.335956 
L 72.038259 16.013835 
L 72.153597 21.386504 
L 72.211266 19.677166 
L 72.326603 14.346211 
L 72.384272 16.088305 
L 72.499609 21.37701 
L 72.557278 19.602514 
L 72.672616 14.356586 
L 72.727538 16.011864 
L 72.845622 21.365761 
L 72.900545 19.679562 
L 73.015882 14.367073 
L 73.073551 16.085487 
L 73.188888 21.356413 
L 73.246557 19.605752 
L 73.361895 14.376914 
L 73.416817 16.009484 
L 73.534901 21.345705 
L 73.589824 19.68236 
L 73.705161 14.387648 
L 73.76283 16.082273 
L 73.878167 21.336101 
L 73.935836 19.609379 
L 74.051174 14.396958 
L 74.108842 16.155436 
L 74.22418 21.325933 
L 74.279103 19.685539 
L 74.397186 14.407978 
L 74.452109 16.078684 
L 74.567446 21.31606 
L 74.625115 19.613375 
L 74.740453 14.416731 
L 74.798122 16.151035 
L 74.913459 21.306432 
L 74.968382 19.689081 
L 75.020558 16.556907 
L 75.020558 16.556907 
" clip-path="url(#p17f2f21df2)" style="fill: none; stroke: #87b26c; stroke-width: 0.05; stroke-linecap: square"/>
   </g>
   <g id="line2d_8">
    <path d="M 22.292084 20.887094 
L 22.396437 8.671001 
L 22.45136 13.030091 
L 22.566698 26.965609 
L 22.624366 22.429463 
L 22.739704 8.851929 
L 22.794627 13.170344 
L 22.909964 26.791083 
L 22.967633 22.301675 
L 23.08297 9.022699 
L 23.137893 13.292606 
L 23.253231 26.625966 
L 23.310899 22.190853 
L 23.426237 9.184074 
L 23.481159 13.398799 
L 23.596497 26.469558 
L 23.654166 22.095193 
L 23.766757 9.33619 
L 23.824426 13.49061 
L 23.939763 26.321196 
L 23.997432 22.013112 
L 24.110024 9.480541 
L 24.167692 13.569521 
L 24.28303 26.180252 
L 24.340699 21.943215 
L 24.45329 9.618013 
L 24.510959 13.636843 
L 24.626296 26.046138 
L 24.683965 21.884268 
L 24.796557 9.74915 
L 24.854225 13.693737 
L 24.969563 25.9183 
L 25.027232 21.835177 
L 25.142569 9.873829 
L 25.197492 13.741236 
L 25.312829 25.796224 
L 25.370498 21.794968 
L 25.485836 9.992542 
L 25.540758 13.780261 
L 25.656096 25.679425 
L 25.713765 21.762772 
L 25.829102 10.106056 
L 25.884025 13.811638 
L 25.999362 25.567455 
L 26.057031 21.737809 
L 26.172368 10.214821 
L 26.227291 13.836106 
L 26.342629 25.459893 
L 26.400297 21.719379 
L 26.515635 10.319258 
L 26.573304 14.179611 
L 26.685895 25.356348 
L 26.743564 21.70685 
L 26.858901 10.419754 
L 26.91657 14.186609 
L 27.031908 25.257971 
L 27.08683 21.69965 
L 27.202168 10.516673 
L 27.259837 14.188573 
L 27.375174 25.164095 
L 27.430097 21.697264 
L 27.545434 10.610353 
L 27.603103 14.185993 
L 27.718441 25.073378 
L 27.776109 21.388587 
L 27.888701 10.701109 
L 27.94637 14.179316 
L 28.061707 24.98551 
L 28.119376 21.399855 
L 28.234713 10.786508 
L 28.289636 14.168949 
L 28.404974 24.900201 
L 28.462642 21.414598 
L 28.57798 10.868954 
L 28.632902 14.155267 
L 28.74824 24.81718 
L 28.805909 21.432461 
L 28.921246 10.949184 
L 28.978915 14.435076 
L 29.094253 24.738749 
L 29.149175 21.45312 
L 29.264513 11.027448 
L 29.322181 14.410521 
L 29.437519 24.663244 
L 29.495188 21.183245 
L 29.607779 11.103976 
L 29.665448 14.383628 
L 29.780785 24.589404 
L 29.838454 21.213777 
L 29.953792 11.175528 
L 30.008714 14.354661 
L 30.124052 24.517016 
L 30.181721 21.246246 
L 30.297058 11.245262 
L 30.354727 14.608366 
L 30.470065 24.447001 
L 30.524987 21.280419 
L 30.640325 11.313806 
L 30.697993 14.570906 
L 30.813331 24.381071 
L 30.868254 21.316078 
L 30.983591 11.381342 
L 31.04126 14.53207 
L 31.156597 24.316086 
L 31.214266 21.076872 
L 31.329604 11.444593 
L 31.384526 14.492052 
L 31.499864 24.251879 
L 31.557533 21.119887 
L 31.67287 11.506289 
L 31.730539 14.723896 
L 31.845876 24.190267 
L 31.900799 21.163812 
L 32.016137 11.567421 
L 32.073805 14.677136 
L 32.189143 24.131607 
L 32.246812 20.938898 
L 32.362149 11.627331 
L 32.417072 14.629707 
L 32.532409 24.073311 
L 32.590078 20.989013 
L 32.705416 11.683196 
L 32.760338 14.581754 
L 32.875676 24.015247 
L 32.933345 21.039582 
L 33.048682 11.738882 
L 33.106351 14.794967 
L 33.221688 23.961853 
L 33.276611 21.090473 
L 33.391949 11.794509 
L 33.449617 14.741585 
L 33.564955 23.908565 
L 33.622624 20.883184 
L 33.737961 11.846199 
L 33.792884 14.688064 
L 33.908221 23.855173 
L 33.96589 20.939082 
L 34.081228 11.897289 
L 34.138896 14.889738 
L 34.254234 23.805215 
L 34.309157 20.994955 
L 34.424494 11.948635 
L 34.482163 14.831594 
L 34.5975 23.756132 
L 34.655169 20.79861 
L 34.770507 11.996844 
L 34.825429 14.773622 
L 34.940767 23.706654 
L 34.998436 20.858758 
L 35.113773 12.044097 
L 35.171442 14.9649 
L 35.286779 23.660207 
L 35.341702 20.918598 
L 35.45704 12.091875 
L 35.514708 14.902972 
L 35.630046 23.614617 
L 35.687715 20.732144 
L 35.803052 12.136554 
L 35.857975 14.841473 
L 35.973312 23.568381 
L 36.030981 20.795652 
L 36.146319 12.180637 
L 36.203987 15.023324 
L 36.319325 23.525474 
L 36.374248 20.858618 
L 36.489585 12.225481 
L 36.547254 14.958423 
L 36.662591 23.482749 
L 36.72026 20.681162 
L 36.835598 12.266616 
L 36.89052 14.894165 
L 37.008604 23.439208 
L 37.063527 20.747287 
L 37.178864 12.308122 
L 37.236533 15.067417 
L 37.35187 23.399791 
L 37.409539 20.574494 
L 37.524877 12.349834 
L 37.579799 15.000223 
L 37.695137 23.359373 
L 37.752806 20.643452 
L 37.868143 12.388197 
L 37.925812 15.16904 
L 38.041149 23.319479 
L 38.096072 20.711573 
L 38.21141 12.42765 
L 38.269078 15.099211 
L 38.384416 23.282049 
L 38.442085 20.546571 
L 38.557422 12.465736 
L 38.612345 15.030295 
L 38.727682 23.243446 
L 38.785351 20.617144 
L 38.900689 12.502348 
L 38.958357 15.191632 
L 39.073695 23.207155 
L 39.128618 20.686733 
L 39.243955 12.540211 
L 39.301624 15.120432 
L 39.416961 23.171252 
L 39.47463 20.528921 
L 39.589968 12.574721 
L 39.64489 15.050283 
L 39.762974 23.134645 
L 39.817897 20.600639 
L 39.933234 12.610015 
L 39.990903 15.204698 
L 40.10624 23.101284 
L 40.163909 20.446477 
L 40.279247 12.644813 
L 40.334169 15.132562 
L 40.449507 23.066501 
L 40.507176 20.520106 
L 40.622513 12.677692 
L 40.680182 15.28349 
L 40.79552 23.033495 
L 40.850442 20.592566 
L 40.96578 12.712054 
L 41.023448 15.209571 
L 41.138786 23.00101 
L 41.196455 20.444763 
L 41.311792 12.743285 
L 41.369461 15.357175 
L 41.484799 22.967835 
L 41.539721 20.518886 
L 41.655059 12.775461 
L 41.712727 15.281656 
L 41.828065 22.93751 
L 41.885734 20.374266 
L 42.001071 12.806844 
L 42.055994 15.207408 
L 42.171331 22.905564 
L 42.229 20.449882 
L 42.344338 12.836966 
L 42.402007 15.349138 
L 42.517344 22.875953 
L 42.572267 20.524183 
L 42.69035 12.868422 
L 42.745273 15.273496 
L 42.860611 22.845961 
L 42.918279 20.385254 
L 43.033617 12.896615 
L 43.091286 15.412309 
L 43.206623 22.816287 
L 43.261546 20.460855 
L 43.376883 12.926547 
L 43.434552 15.335421 
L 43.54989 22.788129 
L 43.607558 20.324728 
L 43.722896 12.95446 
L 43.777818 15.259924 
L 43.895902 22.758458 
L 43.950825 20.401491 
L 44.066162 12.982647 
L 44.123831 15.393441 
L 44.239169 22.73202 
L 44.296837 20.268047 
L 44.412175 13.01055 
L 44.467098 15.31686 
L 44.582435 22.703741 
L 44.640104 20.345848 
L 44.755441 13.037102 
L 44.81311 15.447797 
L 44.928448 22.677585 
L 44.98337 20.422193 
L 45.101454 13.064941 
L 45.156377 15.370249 
L 45.271714 22.650862 
L 45.329383 20.293699 
L 45.44472 13.08996 
L 45.502389 15.498708 
L 45.617727 22.624772 
L 45.672649 20.370944 
L 45.787987 13.116908 
L 45.845656 15.420302 
L 45.960993 22.599506 
L 46.018662 20.244837 
L 46.133999 13.14127 
L 46.191668 15.546383 
L 46.307006 22.573531 
L 46.361928 20.322881 
L 46.477266 13.166832 
L 46.534935 15.467216 
L 46.650272 22.549629 
L 46.707941 20.199068 
L 46.823278 13.19108 
L 46.878201 15.389579 
L 46.996285 22.523811 
L 47.051207 20.277817 
L 47.166545 13.215347 
L 47.224214 15.511175 
L 47.339551 22.501181 
L 47.39722 20.156211 
L 47.512558 13.239439 
L 47.56748 15.432885 
L 47.682818 22.476505 
L 47.740486 20.235579 
L 47.855824 13.262497 
L 47.913493 15.552349 
L 48.02883 22.454117 
L 48.086499 20.116099 
L 48.201837 13.286398 
L 48.256759 15.473486 
L 48.372097 22.43059 
L 48.429765 20.196007 
L 48.545103 13.308327 
L 48.602772 15.590895 
L 48.718109 22.40839 
L 48.773032 20.274329 
L 48.891116 13.332004 
L 48.946038 15.511534 
L 49.061376 22.385935 
L 49.119045 20.158951 
L 49.234382 13.352881 
L 49.292051 15.626961 
L 49.407388 22.363954 
L 49.462311 20.23773 
L 49.577649 13.3759 
L 49.635317 15.547172 
L 49.750655 22.342497 
L 49.808324 20.124271 
L 49.923661 13.396204 
L 49.98133 15.660687 
L 50.096667 22.320764 
L 50.15159 20.203441 
L 50.266928 13.418276 
L 50.324596 15.580532 
L 50.439934 22.300234 
L 50.497603 20.091836 
L 50.61294 13.438338 
L 50.670609 15.692199 
L 50.785946 22.278774 
L 50.840869 20.171338 
L 50.956207 13.459531 
L 51.013875 15.611739 
L 51.129213 22.259105 
L 51.186882 20.061525 
L 51.302219 13.479325 
L 51.357142 15.532919 
L 51.475225 22.237942 
L 51.530148 20.141301 
L 51.645486 13.499704 
L 51.703154 15.640907 
L 51.818492 22.21907 
L 51.876161 20.033222 
L 51.991498 13.519209 
L 52.046421 15.561842 
L 52.164505 22.198225 
L 52.219427 20.113221 
L 52.334765 13.538834 
L 52.392433 15.668146 
L 52.507771 22.180088 
L 52.56544 20.00682 
L 52.680777 13.558029 
L 52.7357 15.588885 
L 52.851037 22.159686 
L 52.908706 20.086995 
L 53.024044 13.576958 
L 53.081712 15.693558 
L 53.19705 22.142122 
L 53.254719 19.98222 
L 53.370056 13.595825 
L 53.424979 15.614148 
L 53.540316 22.122376 
L 53.597985 20.062524 
L 53.713323 13.614114 
L 53.770992 15.717239 
L 53.886329 22.105132 
L 53.943998 19.959326 
L 54.059335 13.632635 
L 54.114258 15.637721 
L 54.229596 22.085989 
L 54.287264 20.039719 
L 54.402602 13.650337 
L 54.460271 15.739278 
L 54.575608 22.069083 
L 54.633277 19.93805 
L 54.748614 13.668498 
L 54.803537 15.659694 
L 54.918875 22.050493 
L 54.976543 20.018493 
L 55.091881 13.685663 
L 55.14955 15.75976 
L 55.264887 22.033939 
L 55.322556 19.918309 
L 55.437893 13.70345 
L 55.492816 15.680146 
L 55.608154 22.015852 
L 55.665822 19.998766 
L 55.78116 13.720127 
L 55.838829 15.778765 
L 55.954166 21.999664 
L 56.011835 19.900024 
L 56.127172 13.737527 
L 56.182095 15.699155 
L 56.297433 21.982035 
L 56.355101 19.980462 
L 56.470439 13.75376 
L 56.528108 15.796367 
L 56.643445 21.966224 
L 56.701114 19.883121 
L 56.816452 13.770762 
L 56.871374 15.716794 
L 56.986712 21.949009 
L 57.04438 19.963508 
L 57.159718 13.786597 
L 57.217387 15.812638 
L 57.332724 21.933587 
L 57.390393 19.867531 
L 57.505731 13.80319 
L 57.560653 15.733132 
L 57.675991 21.916744 
L 57.733659 19.947838 
L 57.848997 13.818666 
L 57.906666 15.827643 
L 58.022003 21.901722 
L 58.079672 19.853188 
L 58.19501 13.834841 
L 58.249932 15.748232 
L 58.36527 21.88521 
L 58.422939 19.933388 
L 58.538276 13.85 
L 58.595945 15.841446 
L 58.711282 21.870597 
L 58.768951 19.84003 
L 58.884289 13.865749 
L 58.939211 15.762156 
L 59.054549 21.854378 
L 59.112218 19.920097 
L 59.227555 13.880628 
L 59.285224 15.854106 
L 59.400561 21.840182 
L 59.45823 19.827999 
L 59.573568 13.895942 
L 59.62849 15.774962 
L 59.743828 21.82422 
L 59.801497 19.907908 
L 59.916834 13.910578 
L 59.974503 15.865679 
L 60.08984 21.810448 
L 60.147509 19.817039 
L 60.262847 13.925451 
L 60.317769 15.786705 
L 60.433107 21.794708 
L 60.490776 19.896768 
L 60.606113 13.939878 
L 60.663782 15.876218 
L 60.779119 21.781368 
L 60.836788 19.807097 
L 60.952126 13.954304 
L 61.007048 15.797436 
L 61.125132 21.765867 
L 61.180055 19.886626 
L 61.295392 13.968555 
L 61.353061 15.885774 
L 61.468399 21.752915 
L 61.526067 19.798125 
L 61.641405 13.982527 
L 61.696327 15.807204 
L 61.814411 21.737881 
L 61.869334 19.877433 
L 61.984671 13.996635 
L 62.04234 15.894395 
L 62.157678 21.72506 
L 62.215346 19.790074 
L 62.330684 14.010148 
L 62.385607 15.816056 
L 62.50369 21.7105 
L 62.558613 19.869143 
L 62.67395 14.024142 
L 62.731619 15.902126 
L 62.846957 21.697782 
L 62.904625 19.782901 
L 63.019963 14.037192 
L 63.077632 15.988528 
L 63.192969 21.683698 
L 63.247892 19.861712 
L 63.363229 14.051101 
L 63.420898 15.909009 
L 63.536236 21.671053 
L 63.593904 19.776562 
L 63.709242 14.063684 
L 63.766911 15.994324 
L 63.882248 21.65745 
L 63.937171 19.8551 
L 64.052508 14.077535 
L 64.110177 15.915086 
L 64.225515 21.644851 
L 64.283183 19.771019 
L 64.398521 14.089647 
L 64.45619 15.999337 
L 64.571527 21.631732 
L 64.62645 19.849266 
L 64.741787 14.103468 
L 64.799456 15.920395 
L 64.914794 21.619152 
L 64.972463 19.766231 
L 65.0878 14.115105 
L 65.145469 16.003604 
L 65.260806 21.606521 
L 65.315729 19.844174 
L 65.433813 14.128723 
L 65.488735 15.924973 
L 65.604073 21.593936 
L 65.661742 19.762165 
L 65.777079 14.140079 
L 65.834748 16.007162 
L 65.950085 21.581794 
L 66.005008 19.839789 
L 66.123092 14.153197 
L 66.178014 15.928856 
L 66.293352 21.569179 
L 66.351021 19.758783 
L 66.466358 14.164593 
L 66.524027 16.010045 
L 66.639364 21.557529 
L 66.697033 19.677422 
L 66.812371 14.177207 
L 66.867293 15.932076 
L 66.982631 21.544862 
L 67.0403 19.756054 
L 67.155637 14.188666 
L 67.213306 16.012285 
L 67.328643 21.533707 
L 67.386312 19.675669 
L 67.50165 14.200774 
L 67.556572 15.934666 
L 67.67191 21.520964 
L 67.729579 19.753947 
L 67.844916 14.212318 
L 67.902585 16.013912 
L 68.017923 21.510305 
L 68.075591 19.674518 
L 68.190929 14.22392 
L 68.245851 15.936655 
L 68.363935 21.497767 
L 68.418858 19.75243 
L 68.534195 14.235569 
L 68.591864 16.014958 
L 68.707202 21.487305 
L 68.76487 19.673941 
L 68.880208 14.246664 
L 68.93513 15.938074 
L 69.053214 21.475284 
L 69.108137 19.751476 
L 69.223474 14.258439 
L 69.281143 16.01545 
L 69.396481 21.464687 
L 69.454149 19.673909 
L 69.569487 14.269024 
L 69.627156 16.093197 
L 69.742493 21.453186 
L 69.797416 19.751058 
L 69.912753 14.280944 
L 69.970422 16.015414 
L 70.08576 21.442435 
L 70.143428 19.674397 
L 70.258766 14.29102 
L 70.316435 16.09226 
L 70.431772 21.431452 
L 70.486695 19.751148 
L 70.604779 14.302902 
L 70.659701 16.014877 
L 70.775039 21.420529 
L 70.832707 19.675378 
L 70.948045 14.312668 
L 71.005714 16.090837 
L 71.121051 21.410066 
L 71.175974 19.751723 
L 71.294058 14.324022 
L 71.34898 16.013863 
L 71.464318 21.398953 
L 71.521986 19.676829 
L 71.637324 14.333986 
L 71.694993 16.088951 
L 71.81033 21.38901 
L 71.867999 19.601556 
L 71.983337 14.344812 
L 72.038259 16.012396 
L 72.153597 21.377691 
L 72.211266 19.678726 
L 72.326603 14.354991 
L 72.384272 16.086627 
L 72.499609 21.368267 
L 72.557278 19.604306 
L 72.672616 14.365288 
L 72.727538 16.010498 
L 72.845622 21.357102 
L 72.900545 19.681048 
L 73.015882 14.375698 
L 73.073551 16.083884 
L 73.188888 21.347822 
L 73.246557 19.607467 
L 73.361895 14.385467 
L 73.419563 16.157649 
L 73.534901 21.337192 
L 73.589824 19.683772 
L 73.705161 14.396123 
L 73.76283 16.080746 
L 73.878167 21.327659 
L 73.935836 19.611018 
L 74.051174 14.405365 
L 74.108842 16.153688 
L 74.22418 21.317565 
L 74.279103 19.686878 
L 74.397186 14.416306 
L 74.452109 16.077231 
L 74.567446 21.307762 
L 74.625115 19.614939 
L 74.740453 14.424996 
L 74.798122 16.149364 
L 74.913459 21.298203 
L 74.968382 19.690347 
L 75.020558 16.560609 
L 75.020558 16.560609 
" clip-path="url(#p17f2f21df2)" style="fill: none; stroke-dasharray: 0.185,0.08; stroke-dashoffset: 0; stroke: #87b26c; stroke-width: 0.05"/>
   </g>
   <g id="patch_13">
    <path d="M 22.294803 28.77748 
L 22.294803 6.950709 
" style="fill: none; stroke: #ffffff; stroke-width: 0.5; stroke-linejoin: miter; stroke-linecap: square"/>
   </g>
   <g id="patch_14">
    <path d="M 75.019213 28.77748 
L 75.019213 6.950709 
" style="fill: none; stroke: #ffffff; stroke-width: 0.5; stroke-linejoin: miter; stroke-linecap: square"/>
   </g>
   <g id="patch_15">
    <path d="M 22.294803 28.77748 
L 75.019213 28.77748 
" style="fill: none; stroke: #ffffff; stroke-width: 0.5; stroke-linejoin: miter; stroke-linecap: square"/>
   </g>
   <g id="patch_16">
    <path d="M 22.294803 6.950709 
L 75.019213 6.950709 
" style="fill: none; stroke: #ffffff; stroke-width: 0.5; stroke-linejoin: miter; stroke-linecap: square"/>
   </g>
  </g>
 </g>
 <defs>
  <clipPath id="p75814eeda2">
   <rect x="4.72" y="6.950709" width="17.574803" height="21.826772"/>
  </clipPath>
  <clipPath id="pea57f06ab1">
   <rect x="75.019213" y="6.950709" width="17.574803" height="21.826772"/>
  </clipPath>
  <clipPath id="p17f2f21df2">
   <rect x="22.294803" y="6.950709" width="52.724409" height="21.826772"/>
  </clipPath>
 </defs>
</svg>
