<?xml version="1.0" encoding="utf-8" standalone="no"?>
<!DOCTYPE svg PUBLIC "-//W3C//DTD SVG 1.1//EN"
  "http://www.w3.org/Graphics/SVG/1.1/DTD/svg11.dtd">
<svg xmlns:xlink="http://www.w3.org/1999/xlink" width="100.923594pt" height="31.680157pt" viewBox="0 0 100.923594 31.680157" xmlns="http://www.w3.org/2000/svg" version="1.1">
 <metadata>
  <rdf:RDF xmlns:dc="http://purl.org/dc/elements/1.1/" xmlns:cc="http://creativecommons.org/ns#" xmlns:rdf="http://www.w3.org/1999/02/22-rdf-syntax-ns#">
   <cc:Work>
    <dc:type rdf:resource="http://purl.org/dc/dcmitype/StillImage"/>
    <dc:date>2025-03-01T18:06:51.263415</dc:date>
    <dc:format>image/svg+xml</dc:format>
    <dc:creator>
     <cc:Agent>
      <dc:title>Matplotlib v3.7.5, https://matplotlib.org/</dc:title>
     </cc:Agent>
    </dc:creator>
   </cc:Work>
  </rdf:RDF>
 </metadata>
 <defs>
  <style type="text/css">*{stroke-linejoin: round; stroke-linecap: butt}</style>
 </defs>
 <g id="figure_1">
  <g id="patch_1">
   <path d="M 0 31.680157 
L 100.923594 31.680157 
L 100.923594 -0 
L 0 -0 
L 0 31.680157 
z
" style="fill: none"/>
  </g>
  <g id="axes_1"/>
  <g id="axes_2">
   <g id="patch_2">
    <path d="M 6.524789 30.960157 
L 24.099592 30.960157 
L 24.099592 9.133386 
L 6.524789 9.133386 
L 6.524789 30.960157 
z
" style="fill: none"/>
   </g>
   <g id="matplotlib.axis_1"/>
   <g id="matplotlib.axis_2"/>
   <g id="line2d_1">
    <path d="M 6.524789 10.125512 
L 6.656603 10.239137 
L 6.876294 10.923717 
L 7.183861 12.832915 
L 7.66718 17.479721 
L 8.721694 28.003694 
L 9.073199 29.615656 
L 9.29289 29.848495 
L 9.424704 29.689313 
L 9.644395 28.93802 
L 9.951961 26.961687 
L 10.479219 21.80603 
L 11.445857 12.289317 
L 11.797362 10.628387 
L 12.017052 10.351577 
L 12.148867 10.480809 
L 12.368557 11.178538 
L 12.676124 13.078292 
L 13.203381 18.123828 
L 14.17002 27.604443 
L 14.521524 29.314532 
L 14.741215 29.635421 
L 14.873029 29.5362 
L 15.048782 29.067516 
L 15.356348 27.388694 
L 15.839668 23.059267 
L 16.982058 12.124267 
L 17.333563 10.712669 
L 17.509316 10.563973 
L 17.64113 10.705313 
L 17.86082 11.411332 
L 18.168387 13.297372 
L 18.695644 18.259235 
L 19.662283 27.500079 
L 20.013788 29.140357 
L 20.233478 29.431751 
L 20.365292 29.321152 
L 20.584983 28.669501 
L 20.89255 26.860046 
L 21.375869 22.462376 
L 22.430383 12.507784 
L 22.781888 10.983774 
L 23.001579 10.763628 
L 23.133393 10.914059 
L 23.353084 11.624226 
L 23.66065 13.493023 
L 24.100032 17.467305 
L 24.100032 17.467305 
" clip-path="url(#p8a2b8568c7)" style="fill: none; stroke: #b3c8cd; stroke-opacity: 0.3; stroke-linecap: square"/>
   </g>
   <g id="line2d_2">
    <path d="M 6.524789 10.125512 
L 6.656603 10.236922 
L 6.876294 10.908725 
L 7.183861 12.787623 
L 7.66718 17.393157 
L 8.765632 28.2823 
L 9.117137 29.786633 
L 9.29289 29.967674 
L 9.424704 29.843686 
L 9.644395 29.151703 
L 9.951961 27.24827 
L 10.43528 22.619168 
L 11.533733 11.764591 
L 11.885238 10.291234 
L 12.06099 10.12694 
L 12.192805 10.263497 
L 12.412495 10.975611 
L 12.720062 12.903442 
L 13.247319 18.038878 
L 14.257896 28.095113 
L 14.609401 29.718958 
L 14.829091 29.964818 
L 14.960905 29.815702 
L 15.180596 29.083509 
L 15.488163 27.131418 
L 16.01542 21.972144 
L 17.025996 11.94949 
L 17.377501 10.356187 
L 17.597192 10.131225 
L 17.729006 10.292889 
L 17.948697 11.045109 
L 18.256263 13.021318 
L 18.783521 18.20406 
L 19.750159 27.899145 
L 20.101664 29.640731 
L 20.321354 29.96775 
L 20.453169 29.867567 
L 20.628921 29.391995 
L 20.936488 27.683033 
L 21.375869 23.711447 
L 22.650074 11.335755 
L 22.957641 10.235567 
L 23.133393 10.138366 
L 23.265208 10.325091 
L 23.484898 11.1172 
L 23.836403 13.505887 
L 24.100032 16.002609 
L 24.100032 16.002609 
" clip-path="url(#p8a2b8568c7)" style="fill: none; stroke-dasharray: 1.48,0.64; stroke-dashoffset: 0; stroke: #b3c8cd; stroke-width: 0.4"/>
   </g>
   <g id="patch_3">
    <path d="M 6.524789 30.960157 
L 6.524789 9.133386 
" style="fill: none; stroke: #ffffff; stroke-width: 0.5; stroke-linejoin: miter; stroke-linecap: square"/>
   </g>
   <g id="patch_4">
    <path d="M 24.099592 30.960157 
L 24.099592 9.133386 
" style="fill: none; stroke: #ffffff; stroke-width: 0.5; stroke-linejoin: miter; stroke-linecap: square"/>
   </g>
   <g id="patch_5">
    <path d="M 6.524789 30.960157 
L 24.099592 30.960157 
" style="fill: none; stroke: #ffffff; stroke-width: 0.5; stroke-linejoin: miter; stroke-linecap: square"/>
   </g>
   <g id="patch_6">
    <path d="M 6.524789 9.133386 
L 24.099592 9.133386 
" style="fill: none; stroke: #ffffff; stroke-width: 0.5; stroke-linejoin: miter; stroke-linecap: square"/>
   </g>
   <g id="legend_1">
    <g id="line2d_3">
     <path d="M 2.72 4.769219 
L 7.72 4.769219 
L 12.72 4.769219 
" style="fill: none; stroke: #b3c8cd; stroke-opacity: 0.3; stroke-linecap: square"/>
    </g>
    <g id="text_1">
     <!-- Ground Truth -->
     <g transform="translate(16.72 6.519219) scale(0.05 -0.05)">
      <defs>
       <path id="DejaVuSans-47" d="M 3809 666 
L 3809 1919 
L 2778 1919 
L 2778 2438 
L 4434 2438 
L 4434 434 
Q 4069 175 3628 42 
Q 3188 -91 2688 -91 
Q 1594 -91 976 548 
Q 359 1188 359 2328 
Q 359 3472 976 4111 
Q 1594 4750 2688 4750 
Q 3144 4750 3555 4637 
Q 3966 4525 4313 4306 
L 4313 3634 
Q 3963 3931 3569 4081 
Q 3175 4231 2741 4231 
Q 1884 4231 1454 3753 
Q 1025 3275 1025 2328 
Q 1025 1384 1454 906 
Q 1884 428 2741 428 
Q 3075 428 3337 486 
Q 3600 544 3809 666 
z
" transform="scale(0.015625)"/>
       <path id="DejaVuSans-72" d="M 2631 2963 
Q 2534 3019 2420 3045 
Q 2306 3072 2169 3072 
Q 1681 3072 1420 2755 
Q 1159 2438 1159 1844 
L 1159 0 
L 581 0 
L 581 3500 
L 1159 3500 
L 1159 2956 
Q 1341 3275 1631 3429 
Q 1922 3584 2338 3584 
Q 2397 3584 2469 3576 
Q 2541 3569 2628 3553 
L 2631 2963 
z
" transform="scale(0.015625)"/>
       <path id="DejaVuSans-6f" d="M 1959 3097 
Q 1497 3097 1228 2736 
Q 959 2375 959 1747 
Q 959 1119 1226 758 
Q 1494 397 1959 397 
Q 2419 397 2687 759 
Q 2956 1122 2956 1747 
Q 2956 2369 2687 2733 
Q 2419 3097 1959 3097 
z
M 1959 3584 
Q 2709 3584 3137 3096 
Q 3566 2609 3566 1747 
Q 3566 888 3137 398 
Q 2709 -91 1959 -91 
Q 1206 -91 779 398 
Q 353 888 353 1747 
Q 353 2609 779 3096 
Q 1206 3584 1959 3584 
z
" transform="scale(0.015625)"/>
       <path id="DejaVuSans-75" d="M 544 1381 
L 544 3500 
L 1119 3500 
L 1119 1403 
Q 1119 906 1312 657 
Q 1506 409 1894 409 
Q 2359 409 2629 706 
Q 2900 1003 2900 1516 
L 2900 3500 
L 3475 3500 
L 3475 0 
L 2900 0 
L 2900 538 
Q 2691 219 2414 64 
Q 2138 -91 1772 -91 
Q 1169 -91 856 284 
Q 544 659 544 1381 
z
M 1991 3584 
L 1991 3584 
z
" transform="scale(0.015625)"/>
       <path id="DejaVuSans-6e" d="M 3513 2113 
L 3513 0 
L 2938 0 
L 2938 2094 
Q 2938 2591 2744 2837 
Q 2550 3084 2163 3084 
Q 1697 3084 1428 2787 
Q 1159 2491 1159 1978 
L 1159 0 
L 581 0 
L 581 3500 
L 1159 3500 
L 1159 2956 
Q 1366 3272 1645 3428 
Q 1925 3584 2291 3584 
Q 2894 3584 3203 3211 
Q 3513 2838 3513 2113 
z
" transform="scale(0.015625)"/>
       <path id="DejaVuSans-64" d="M 2906 2969 
L 2906 4863 
L 3481 4863 
L 3481 0 
L 2906 0 
L 2906 525 
Q 2725 213 2448 61 
Q 2172 -91 1784 -91 
Q 1150 -91 751 415 
Q 353 922 353 1747 
Q 353 2572 751 3078 
Q 1150 3584 1784 3584 
Q 2172 3584 2448 3432 
Q 2725 3281 2906 2969 
z
M 947 1747 
Q 947 1113 1208 752 
Q 1469 391 1925 391 
Q 2381 391 2643 752 
Q 2906 1113 2906 1747 
Q 2906 2381 2643 2742 
Q 2381 3103 1925 3103 
Q 1469 3103 1208 2742 
Q 947 2381 947 1747 
z
" transform="scale(0.015625)"/>
       <path id="DejaVuSans-20" transform="scale(0.015625)"/>
       <path id="DejaVuSans-54" d="M -19 4666 
L 3928 4666 
L 3928 4134 
L 2272 4134 
L 2272 0 
L 1638 0 
L 1638 4134 
L -19 4134 
L -19 4666 
z
" transform="scale(0.015625)"/>
       <path id="DejaVuSans-74" d="M 1172 4494 
L 1172 3500 
L 2356 3500 
L 2356 3053 
L 1172 3053 
L 1172 1153 
Q 1172 725 1289 603 
Q 1406 481 1766 481 
L 2356 481 
L 2356 0 
L 1766 0 
Q 1100 0 847 248 
Q 594 497 594 1153 
L 594 3053 
L 172 3053 
L 172 3500 
L 594 3500 
L 594 4494 
L 1172 4494 
z
" transform="scale(0.015625)"/>
       <path id="DejaVuSans-68" d="M 3513 2113 
L 3513 0 
L 2938 0 
L 2938 2094 
Q 2938 2591 2744 2837 
Q 2550 3084 2163 3084 
Q 1697 3084 1428 2787 
Q 1159 2491 1159 1978 
L 1159 0 
L 581 0 
L 581 4863 
L 1159 4863 
L 1159 2956 
Q 1366 3272 1645 3428 
Q 1925 3584 2291 3584 
Q 2894 3584 3203 3211 
Q 3513 2838 3513 2113 
z
" transform="scale(0.015625)"/>
      </defs>
      <use xlink:href="#DejaVuSans-47"/>
      <use xlink:href="#DejaVuSans-72" x="77.490234"/>
      <use xlink:href="#DejaVuSans-6f" x="116.353516"/>
      <use xlink:href="#DejaVuSans-75" x="177.535156"/>
      <use xlink:href="#DejaVuSans-6e" x="240.914062"/>
      <use xlink:href="#DejaVuSans-64" x="304.292969"/>
      <use xlink:href="#DejaVuSans-20" x="367.769531"/>
      <use xlink:href="#DejaVuSans-54" x="399.556641"/>
      <use xlink:href="#DejaVuSans-72" x="445.890625"/>
      <use xlink:href="#DejaVuSans-75" x="487.003906"/>
      <use xlink:href="#DejaVuSans-74" x="550.382812"/>
      <use xlink:href="#DejaVuSans-68" x="589.591797"/>
     </g>
    </g>
    <g id="line2d_4">
     <path d="M 59.366875 4.769219 
L 64.366875 4.769219 
L 69.366875 4.769219 
" style="fill: none; stroke-dasharray: 1.48,0.64; stroke-dashoffset: 0; stroke: #b3c8cd; stroke-width: 0.4"/>
    </g>
    <g id="text_2">
     <!-- Prediction -->
     <g transform="translate(73.366875 6.519219) scale(0.05 -0.05)">
      <defs>
       <path id="DejaVuSans-50" d="M 1259 4147 
L 1259 2394 
L 2053 2394 
Q 2494 2394 2734 2622 
Q 2975 2850 2975 3272 
Q 2975 3691 2734 3919 
Q 2494 4147 2053 4147 
L 1259 4147 
z
M 628 4666 
L 2053 4666 
Q 2838 4666 3239 4311 
Q 3641 3956 3641 3272 
Q 3641 2581 3239 2228 
Q 2838 1875 2053 1875 
L 1259 1875 
L 1259 0 
L 628 0 
L 628 4666 
z
" transform="scale(0.015625)"/>
       <path id="DejaVuSans-65" d="M 3597 1894 
L 3597 1613 
L 953 1613 
Q 991 1019 1311 708 
Q 1631 397 2203 397 
Q 2534 397 2845 478 
Q 3156 559 3463 722 
L 3463 178 
Q 3153 47 2828 -22 
Q 2503 -91 2169 -91 
Q 1331 -91 842 396 
Q 353 884 353 1716 
Q 353 2575 817 3079 
Q 1281 3584 2069 3584 
Q 2775 3584 3186 3129 
Q 3597 2675 3597 1894 
z
M 3022 2063 
Q 3016 2534 2758 2815 
Q 2500 3097 2075 3097 
Q 1594 3097 1305 2825 
Q 1016 2553 972 2059 
L 3022 2063 
z
" transform="scale(0.015625)"/>
       <path id="DejaVuSans-69" d="M 603 3500 
L 1178 3500 
L 1178 0 
L 603 0 
L 603 3500 
z
M 603 4863 
L 1178 4863 
L 1178 4134 
L 603 4134 
L 603 4863 
z
" transform="scale(0.015625)"/>
       <path id="DejaVuSans-63" d="M 3122 3366 
L 3122 2828 
Q 2878 2963 2633 3030 
Q 2388 3097 2138 3097 
Q 1578 3097 1268 2742 
Q 959 2388 959 1747 
Q 959 1106 1268 751 
Q 1578 397 2138 397 
Q 2388 397 2633 464 
Q 2878 531 3122 666 
L 3122 134 
Q 2881 22 2623 -34 
Q 2366 -91 2075 -91 
Q 1284 -91 818 406 
Q 353 903 353 1747 
Q 353 2603 823 3093 
Q 1294 3584 2113 3584 
Q 2378 3584 2631 3529 
Q 2884 3475 3122 3366 
z
" transform="scale(0.015625)"/>
      </defs>
      <use xlink:href="#DejaVuSans-50"/>
      <use xlink:href="#DejaVuSans-72" x="58.552734"/>
      <use xlink:href="#DejaVuSans-65" x="97.416016"/>
      <use xlink:href="#DejaVuSans-64" x="158.939453"/>
      <use xlink:href="#DejaVuSans-69" x="222.416016"/>
      <use xlink:href="#DejaVuSans-63" x="250.199219"/>
      <use xlink:href="#DejaVuSans-74" x="305.179688"/>
      <use xlink:href="#DejaVuSans-69" x="344.388672"/>
      <use xlink:href="#DejaVuSans-6f" x="372.171875"/>
      <use xlink:href="#DejaVuSans-6e" x="433.353516"/>
     </g>
    </g>
   </g>
  </g>
  <g id="axes_3">
   <g id="patch_7">
    <path d="M 76.824002 30.960157 
L 94.398805 30.960157 
L 94.398805 9.133386 
L 76.824002 9.133386 
L 76.824002 30.960157 
z
" style="fill: none"/>
   </g>
   <g id="matplotlib.axis_3"/>
   <g id="matplotlib.axis_4"/>
   <g id="line2d_5">
    <path d="M 76.801593 21.189923 
L 77.372789 22.914812 
L 77.724293 23.420886 
L 77.987922 23.451304 
L 78.251551 23.176891 
L 78.603056 22.383207 
L 79.174251 20.386607 
L 80.053013 17.360555 
L 80.448456 16.703656 
L 80.712085 16.633618 
L 80.931775 16.809269 
L 81.239342 17.389163 
L 81.722661 18.911139 
L 82.90899 22.948423 
L 83.260495 23.424397 
L 83.480185 23.451773 
L 83.699876 23.266941 
L 84.007443 22.676134 
L 84.490762 21.144334 
L 85.677091 17.128951 
L 86.028595 16.668041 
L 86.248286 16.650325 
L 86.467977 16.844281 
L 86.775543 17.445888 
L 87.258862 18.987284 
L 88.445191 22.980337 
L 88.796696 23.426179 
L 89.016387 23.434265 
L 89.280015 23.166195 
L 89.63152 22.382348 
L 90.202716 20.401301 
L 91.081478 17.3859 
L 91.476921 16.72593 
L 91.740549 16.651288 
L 91.96024 16.821866 
L 92.267807 17.393416 
L 92.751126 18.901659 
L 93.981393 23.010554 
L 94.332898 23.426247 
L 94.420774 23.447351 
L 94.420774 23.447351 
" clip-path="url(#pfb7145e21c)" style="fill: none; stroke: #b3c8cd; stroke-opacity: 0.3; stroke-linecap: square"/>
   </g>
   <g id="line2d_6">
    <path d="M 76.801593 10.327918 
L 77.021284 10.136598 
L 77.153098 10.318421 
L 77.372789 11.102747 
L 77.724293 13.48103 
L 78.295489 19.32149 
L 79.174251 27.981289 
L 79.525756 29.674471 
L 79.745446 29.967996 
L 79.877261 29.847576 
L 80.096951 29.161307 
L 80.404518 27.264797 
L 80.887837 22.642282 
L 81.98629 11.77765 
L 82.337795 10.295467 
L 82.513547 10.126415 
L 82.645361 10.259407 
L 82.865052 10.965822 
L 83.172619 12.88677 
L 83.655938 17.532616 
L 84.710452 28.081234 
L 85.061957 29.713752 
L 85.281648 29.965545 
L 85.413462 29.819991 
L 85.633153 29.093482 
L 85.940719 27.148235 
L 86.467977 21.995612 
L 87.478553 11.963203 
L 87.830058 10.361194 
L 88.049748 10.130295 
L 88.181563 10.288401 
L 88.401253 11.034952 
L 88.70882 13.004359 
L 89.236077 18.180554 
L 90.202716 27.884631 
L 90.55422 29.634758 
L 90.773911 29.967687 
L 90.905725 29.871077 
L 91.081478 29.400132 
L 91.345106 28.004477 
L 91.784487 24.189458 
L 93.146569 11.119572 
L 93.454135 10.17642 
L 93.58595 10.137031 
L 93.717764 10.320205 
L 93.937455 11.106678 
L 94.288959 13.487839 
L 94.420774 14.673954 
L 94.420774 14.673954 
" clip-path="url(#pfb7145e21c)" style="fill: none; stroke-dasharray: 1.48,0.64; stroke-dashoffset: 0; stroke: #b3c8cd; stroke-width: 0.4"/>
   </g>
   <g id="patch_8">
    <path d="M 76.824002 30.960157 
L 76.824002 9.133386 
" style="fill: none; stroke: #ffffff; stroke-width: 0.5; stroke-linejoin: miter; stroke-linecap: square"/>
   </g>
   <g id="patch_9">
    <path d="M 94.398805 30.960157 
L 94.398805 9.133386 
" style="fill: none; stroke: #ffffff; stroke-width: 0.5; stroke-linejoin: miter; stroke-linecap: square"/>
   </g>
   <g id="patch_10">
    <path d="M 76.824002 30.960157 
L 94.398805 30.960157 
" style="fill: none; stroke: #ffffff; stroke-width: 0.5; stroke-linejoin: miter; stroke-linecap: square"/>
   </g>
   <g id="patch_11">
    <path d="M 76.824002 9.133386 
L 94.398805 9.133386 
" style="fill: none; stroke: #ffffff; stroke-width: 0.5; stroke-linejoin: miter; stroke-linecap: square"/>
   </g>
  </g>
  <g id="axes_4">
   <g id="patch_12">
    <path d="M 24.099592 30.960157 
L 76.824002 30.960157 
L 76.824002 9.133386 
L 24.099592 9.133386 
L 24.099592 30.960157 
z
" style="fill: none"/>
   </g>
   <g id="matplotlib.axis_5"/>
   <g id="matplotlib.axis_6"/>
   <g id="line2d_7">
    <path d="M 24.096873 17.023773 
L 24.201226 29.239865 
L 24.256149 24.880775 
L 24.371487 10.945257 
L 24.429155 15.481404 
L 24.544493 29.058937 
L 24.599416 24.740522 
L 24.714753 11.119783 
L 24.772422 15.609192 
L 24.887759 28.888167 
L 24.942682 24.61826 
L 25.05802 11.2849 
L 25.115688 15.720013 
L 25.231026 28.726793 
L 25.285948 24.512067 
L 25.401286 11.441308 
L 25.458955 15.815673 
L 25.571546 28.574676 
L 25.629215 24.420257 
L 25.744552 11.58967 
L 25.802221 15.897754 
L 25.914813 28.430325 
L 25.972481 24.341346 
L 26.087819 11.730614 
L 26.145488 15.967651 
L 26.258079 28.292853 
L 26.315748 24.274023 
L 26.431085 11.864729 
L 26.488754 16.026598 
L 26.601346 28.161717 
L 26.659014 24.217129 
L 26.774352 11.992566 
L 26.832021 16.075689 
L 26.947358 28.037037 
L 27.002281 24.16963 
L 27.117618 12.114642 
L 27.175287 16.115898 
L 27.290625 27.918324 
L 27.345547 24.130605 
L 27.460885 12.231441 
L 27.518554 16.148094 
L 27.633891 27.80481 
L 27.688814 24.099228 
L 27.804151 12.343411 
L 27.86182 16.173057 
L 27.977157 27.696045 
L 28.03208 24.07476 
L 28.147418 12.450973 
L 28.205086 16.191487 
L 28.320424 27.591609 
L 28.378093 23.731255 
L 28.490684 12.554518 
L 28.548353 16.204017 
L 28.66369 27.491112 
L 28.721359 23.724257 
L 28.836697 12.652895 
L 28.891619 16.211216 
L 29.006957 27.394193 
L 29.064626 23.722293 
L 29.179963 12.746772 
L 29.234886 16.213602 
L 29.350223 27.300513 
L 29.407892 23.724873 
L 29.52323 12.837488 
L 29.580898 16.522279 
L 29.69349 27.209757 
L 29.751159 23.73155 
L 29.866496 12.925356 
L 29.924165 16.511011 
L 30.039502 27.124358 
L 30.094425 23.741917 
L 30.209763 13.010665 
L 30.267431 16.496268 
L 30.382769 27.041912 
L 30.437691 23.7556 
L 30.553029 13.093686 
L 30.610698 16.478405 
L 30.726035 26.961682 
L 30.783704 23.475791 
L 30.899042 13.172117 
L 30.953964 16.457746 
L 31.069302 26.883418 
L 31.12697 23.500345 
L 31.242308 13.247622 
L 31.299977 16.727622 
L 31.412568 26.80689 
L 31.470237 23.527238 
L 31.585574 13.321463 
L 31.643243 16.697089 
L 31.758581 26.735338 
L 31.813503 23.556205 
L 31.928841 13.39385 
L 31.98651 16.66462 
L 32.101847 26.665604 
L 32.159516 23.3025 
L 32.274854 13.463865 
L 32.329776 16.630448 
L 32.445114 26.597061 
L 32.502782 23.339961 
L 32.61812 13.529795 
L 32.673043 16.594788 
L 32.78838 26.529524 
L 32.846049 23.378796 
L 32.961386 13.59478 
L 33.019055 16.833994 
L 33.134393 26.466273 
L 33.189315 23.418814 
L 33.304653 13.658988 
L 33.362322 16.790979 
L 33.477659 26.404577 
L 33.535328 23.18697 
L 33.650665 13.720599 
L 33.705588 16.747054 
L 33.820926 26.343446 
L 33.878594 23.23373 
L 33.993932 13.779259 
L 34.051601 16.971968 
L 34.166938 26.283535 
L 34.221861 23.281159 
L 34.337198 13.837555 
L 34.394867 16.921853 
L 34.510205 26.22767 
L 34.565127 23.329112 
L 34.680465 13.895619 
L 34.738134 16.871284 
L 34.853471 26.171984 
L 34.91114 23.115899 
L 35.026477 13.949013 
L 35.0814 16.820393 
L 35.196738 26.116357 
L 35.254406 23.169281 
L 35.369744 14.002301 
L 35.427413 17.027682 
L 35.54275 26.064668 
L 35.597673 23.222802 
L 35.71301 14.055693 
L 35.770679 16.971784 
L 35.886017 26.013577 
L 35.943685 23.021128 
L 36.059023 14.105651 
L 36.113946 16.915911 
L 36.229283 25.962231 
L 36.286952 23.079272 
L 36.402289 14.154734 
L 36.459958 17.112256 
L 36.575296 25.914022 
L 36.630218 23.137244 
L 36.745556 14.204212 
L 36.803225 17.052109 
L 36.918562 25.866769 
L 36.976231 22.945966 
L 37.091568 14.25066 
L 37.146491 16.992268 
L 37.261829 25.818991 
L 37.319497 23.007894 
L 37.434835 14.296249 
L 37.492504 17.178722 
L 37.607841 25.774312 
L 37.662764 23.069394 
L 37.778101 14.342486 
L 37.83577 17.115214 
L 37.951108 25.730229 
L 38.008776 22.887542 
L 38.124114 14.385392 
L 38.179037 17.052248 
L 38.294374 25.685386 
L 38.352043 22.952443 
L 38.46738 14.428117 
L 38.525049 17.229705 
L 38.640387 25.64425 
L 38.695309 23.016701 
L 38.813393 14.471658 
L 38.868316 17.163579 
L 38.983653 25.602744 
L 39.041322 22.843449 
L 39.156659 14.511076 
L 39.214328 17.336372 
L 39.329666 25.561032 
L 39.384588 22.910643 
L 39.499926 14.551493 
L 39.557595 17.267414 
L 39.672932 25.522669 
L 39.730601 22.741826 
L 39.845938 14.591387 
L 39.900861 17.199293 
L 40.016199 25.483217 
L 40.073867 22.811656 
L 40.189205 14.628817 
L 40.246874 17.364296 
L 40.362211 25.445131 
L 40.417134 22.880571 
L 40.532471 14.66742 
L 40.59014 17.293722 
L 40.705478 25.408519 
L 40.763146 22.719234 
L 40.878484 14.703711 
L 40.933407 17.224133 
L 41.048744 25.370655 
L 41.106413 22.790434 
L 41.22175 14.739614 
L 41.279419 17.381945 
L 41.394757 25.336145 
L 41.449679 22.860583 
L 41.567763 14.776221 
L 41.622686 17.310227 
L 41.738023 25.300851 
L 41.795692 22.706168 
L 41.911029 14.809583 
L 41.968698 17.46439 
L 42.084036 25.266053 
L 42.138958 22.778304 
L 42.254296 14.844366 
L 42.311965 17.39076 
L 42.427302 25.233174 
L 42.484971 22.627376 
L 42.600309 14.877372 
L 42.655231 17.318301 
L 42.770569 25.198812 
L 42.828237 22.701295 
L 42.943575 14.909857 
L 43.001244 17.466103 
L 43.116581 25.167581 
L 43.17425 22.553691 
L 43.289588 14.943031 
L 43.34451 17.39198 
L 43.459848 25.135405 
L 43.517516 22.62921 
L 43.632854 14.973357 
L 43.690523 17.5366 
L 43.80586 25.104022 
L 43.860783 22.703458 
L 43.97612 15.005302 
L 44.033789 17.460984 
L 44.149127 25.0739 
L 44.206796 22.561729 
L 44.322133 15.034914 
L 44.377056 17.386683 
L 44.495139 25.042444 
L 44.550062 22.63737 
L 44.6654 15.064906 
L 44.723068 17.525612 
L 44.838406 25.014251 
L 44.896075 22.498557 
L 45.011412 15.094579 
L 45.066335 17.450011 
L 45.181672 24.984319 
L 45.239341 22.575445 
L 45.354679 15.122737 
L 45.412347 17.586139 
L 45.527685 24.956407 
L 45.582607 22.650942 
L 45.700691 15.152408 
L 45.755614 17.509375 
L 45.870951 24.928219 
L 45.92862 22.517425 
L 46.043958 15.178846 
L 46.101626 17.642819 
L 46.216964 24.900316 
L 46.271887 22.594006 
L 46.387224 15.207125 
L 46.444893 17.565019 
L 46.56023 24.873764 
L 46.617899 22.46307 
L 46.733237 15.233281 
L 46.788159 17.488674 
L 46.906243 24.845925 
L 46.961166 22.540618 
L 47.076503 15.260004 
L 47.134172 17.617167 
L 47.249509 24.820906 
L 47.307178 22.412158 
L 47.422516 15.286094 
L 47.477438 17.539922 
L 47.592776 24.793958 
L 47.650445 22.490564 
L 47.765782 15.31136 
L 47.823451 17.666029 
L 47.938788 24.769597 
L 47.996457 22.364483 
L 48.111795 15.337335 
L 48.166717 17.587985 
L 48.282055 24.744034 
L 48.339724 22.44365 
L 48.455061 15.361238 
L 48.51273 17.711798 
L 48.628067 24.719787 
L 48.68299 22.521287 
L 48.801074 15.387056 
L 48.855996 17.633049 
L 48.971334 24.695519 
L 49.029003 22.399691 
L 49.14434 15.409685 
L 49.202009 17.754655 
L 49.317347 24.671427 
L 49.372269 22.477981 
L 49.487607 15.434361 
L 49.545275 17.675287 
L 49.660613 24.648369 
L 49.718282 22.358518 
L 49.833619 15.456749 
L 49.891288 17.794768 
L 50.006626 24.624468 
L 50.061548 22.43738 
L 50.176886 15.480276 
L 50.234554 17.714859 
L 50.349892 24.602539 
L 50.407561 22.319971 
L 50.522898 15.502476 
L 50.577821 17.636537 
L 50.695905 24.578862 
L 50.750827 22.399332 
L 50.866165 15.524931 
L 50.923834 17.751915 
L 51.039171 24.557985 
L 51.09684 22.283905 
L 51.212177 15.546912 
L 51.2671 17.673136 
L 51.382438 24.534967 
L 51.440106 22.363694 
L 51.555444 15.568369 
L 51.613113 17.786595 
L 51.72845 24.514662 
L 51.786119 22.25018 
L 51.901456 15.590102 
L 51.956379 17.707425 
L 52.071717 24.49259 
L 52.129385 22.330334 
L 52.244723 15.610632 
L 52.302392 17.81903 
L 52.417729 24.472529 
L 52.475398 22.218667 
L 52.590735 15.632092 
L 52.645658 17.739529 
L 52.760996 24.451335 
L 52.818664 22.299128 
L 52.934002 15.651761 
L 52.991671 17.849341 
L 53.107008 24.431541 
L 53.161931 22.377947 
L 53.280014 15.672924 
L 53.334937 17.769565 
L 53.450275 24.411162 
L 53.507943 22.269959 
L 53.623281 15.691797 
L 53.68095 17.877644 
L 53.796287 24.391657 
L 53.85121 22.349024 
L 53.969294 15.712642 
L 54.024216 17.797645 
L 54.139554 24.372033 
L 54.197222 22.24272 
L 54.31256 15.730778 
L 54.370229 17.904046 
L 54.485566 24.352838 
L 54.540489 22.321981 
L 54.655826 15.751181 
L 54.713495 17.823872 
L 54.828833 24.333908 
L 54.886501 22.217308 
L 55.001839 15.768744 
L 55.059508 17.928646 
L 55.174845 24.315042 
L 55.229768 22.296718 
L 55.345105 15.788491 
L 55.402774 17.848342 
L 55.518112 24.296752 
L 55.575781 22.193627 
L 55.691118 15.805734 
L 55.748787 17.95154 
L 55.864124 24.278231 
L 55.919047 22.273145 
L 56.034385 15.824877 
L 56.092053 17.871147 
L 56.207391 24.260529 
L 56.26506 22.171588 
L 56.380397 15.841783 
L 56.438066 17.972816 
L 56.553403 24.242368 
L 56.608326 22.251173 
L 56.723664 15.860373 
L 56.781332 17.892373 
L 56.89667 24.225203 
L 56.954339 22.151106 
L 57.069676 15.876927 
L 57.127345 17.992557 
L 57.242682 24.207416 
L 57.297605 22.23072 
L 57.412943 15.895014 
L 57.470611 17.9121 
L 57.585949 24.190739 
L 57.643618 22.132101 
L 57.758955 15.911203 
L 57.816624 18.010842 
L 57.931961 24.17334 
L 57.986884 22.211711 
L 58.102222 15.928831 
L 58.15989 17.930404 
L 58.275228 24.157106 
L 58.332897 22.114499 
L 58.448234 15.944642 
L 58.505903 18.027745 
L 58.621241 24.140104 
L 58.676163 22.194072 
L 58.791501 15.961857 
L 58.849169 17.947358 
L 58.964507 24.124269 
L 59.022176 22.098228 
L 59.137513 15.977279 
L 59.195182 18.043335 
L 59.31052 24.107677 
L 59.365442 22.177734 
L 59.48078 15.994122 
L 59.538448 17.963028 
L 59.653786 24.0922 
L 59.711455 22.083223 
L 59.826792 16.009144 
L 59.884461 18.057678 
L 59.999799 24.076025 
L 60.054721 22.162634 
L 60.170059 16.025656 
L 60.227728 17.977479 
L 60.343065 24.060866 
L 60.400734 22.06942 
L 60.516071 16.040269 
L 60.57374 18.070836 
L 60.689078 24.045117 
L 60.744 22.14871 
L 60.859338 16.056488 
L 60.917007 17.990769 
L 61.032344 24.030238 
L 61.090013 22.056761 
L 61.20535 16.070684 
L 61.263019 18.082867 
L 61.378357 24.014924 
L 61.433279 22.135904 
L 61.548617 16.086646 
L 61.606286 18.002958 
L 61.721623 24.000288 
L 61.779292 22.045187 
L 61.894629 16.100418 
L 61.952298 18.093828 
L 62.067636 23.985415 
L 62.122558 22.124161 
L 62.237896 16.116158 
L 62.295565 18.014098 
L 62.410902 23.970988 
L 62.468571 22.034648 
L 62.583908 16.129498 
L 62.641577 18.103769 
L 62.756915 23.956562 
L 62.811837 22.11343 
L 62.929921 16.144999 
L 62.984844 18.02424 
L 63.100181 23.942311 
L 63.15785 22.025092 
L 63.273188 16.157952 
L 63.330856 18.112741 
L 63.446194 23.928339 
L 63.501116 22.103662 
L 63.6192 16.172985 
L 63.674123 18.033433 
L 63.78946 23.914232 
L 63.847129 22.016471 
L 63.962467 16.185806 
L 64.020135 18.120792 
L 64.135473 23.900718 
L 64.190396 22.09481 
L 64.308479 16.200366 
L 64.363402 18.041724 
L 64.478739 23.886724 
L 64.536408 22.00874 
L 64.651746 16.213084 
L 64.709414 18.127965 
L 64.824752 23.873674 
L 64.882421 21.922339 
L 64.997758 16.227168 
L 65.052681 18.049154 
L 65.168018 23.859766 
L 65.225687 22.001857 
L 65.341025 16.239813 
L 65.398693 18.134304 
L 65.514031 23.847183 
L 65.5717 21.916542 
L 65.687037 16.253416 
L 65.74196 18.055766 
L 65.857297 23.833331 
L 65.914966 21.99578 
L 66.030304 16.266015 
L 66.087972 18.139848 
L 66.20331 23.821219 
L 66.260979 21.911529 
L 66.376316 16.279134 
L 66.431239 18.0616 
L 66.546576 23.807398 
L 66.604245 21.990471 
L 66.719583 16.291714 
L 66.777252 18.144635 
L 66.892589 23.795761 
L 66.950258 21.907262 
L 67.065595 16.304345 
L 67.120518 18.066692 
L 67.238602 23.782143 
L 67.293524 21.985893 
L 67.408862 16.316931 
L 67.466531 18.148702 
L 67.581868 23.770787 
L 67.639537 21.903704 
L 67.754874 16.329072 
L 67.809797 18.071078 
L 67.927881 23.75767 
L 67.982803 21.98201 
L 68.098141 16.341687 
L 68.15581 18.152083 
L 68.271147 23.746273 
L 68.328816 21.900821 
L 68.444153 16.353337 
L 68.501822 18.233444 
L 68.61716 23.73366 
L 68.672082 21.97879 
L 68.78742 16.366004 
L 68.845089 18.154812 
L 68.960426 23.722201 
L 69.018095 21.898582 
L 69.133432 16.37716 
L 69.191101 18.235198 
L 69.306439 23.710092 
L 69.361361 21.976201 
L 69.476699 16.389902 
L 69.534368 18.156919 
L 69.649705 23.698548 
L 69.707374 21.896954 
L 69.822712 16.400561 
L 69.88038 18.236348 
L 69.995718 23.686946 
L 70.05064 21.974211 
L 70.168724 16.413099 
L 70.223647 18.158436 
L 70.338984 23.675297 
L 70.396653 21.895908 
L 70.511991 16.423562 
L 70.569659 18.236925 
L 70.684997 23.664202 
L 70.739919 21.972792 
L 70.858003 16.435582 
L 70.912926 18.15939 
L 71.028263 23.652428 
L 71.085932 21.895416 
L 71.20127 16.446179 
L 71.258938 18.236957 
L 71.374276 23.641842 
L 71.431945 21.817669 
L 71.547282 16.45768 
L 71.602205 18.159809 
L 71.717542 23.629923 
L 71.775211 21.895452 
L 71.890549 16.468431 
L 71.948217 18.236469 
L 72.063555 23.619846 
L 72.121224 21.818606 
L 72.236561 16.479414 
L 72.291484 18.159718 
L 72.409568 23.607964 
L 72.46449 21.895989 
L 72.579828 16.490337 
L 72.637496 18.235488 
L 72.752834 23.598198 
L 72.810503 21.820029 
L 72.92584 16.5008 
L 72.980763 18.159143 
L 73.098847 23.586844 
L 73.153769 21.897003 
L 73.269107 16.511913 
L 73.326775 18.234037 
L 73.442113 23.57688 
L 73.499782 21.821915 
L 73.615119 16.521856 
L 73.672788 18.30931 
L 73.788126 23.566054 
L 73.843048 21.89847 
L 73.958386 16.533175 
L 74.016055 18.23214 
L 74.131392 23.555875 
L 74.189061 21.82424 
L 74.304398 16.542599 
L 74.362067 18.30656 
L 74.477405 23.545578 
L 74.532327 21.900368 
L 74.650411 16.553765 
L 74.705334 18.229818 
L 74.820671 23.535168 
L 74.87834 21.826982 
L 74.993677 16.563044 
L 75.051346 18.303399 
L 75.166684 23.525399 
L 75.224352 21.753218 
L 75.33969 16.573674 
L 75.394613 18.227094 
L 75.50995 23.514743 
L 75.567619 21.830121 
L 75.682956 16.583207 
L 75.740625 18.299848 
L 75.855963 23.505501 
L 75.913631 21.757178 
L 76.028969 16.593301 
L 76.083892 18.223988 
L 76.201975 23.494561 
L 76.256898 21.833635 
L 76.372235 16.603104 
L 76.429904 18.295927 
L 76.545242 23.48587 
L 76.602911 21.761503 
L 76.718248 16.612663 
L 76.773171 18.220519 
L 76.825347 21.350257 
L 76.825347 21.350257 
" clip-path="url(#pbae84ccf1c)" style="fill: none; stroke: #b3c8cd; stroke-width: 0.05; stroke-linecap: square"/>
   </g>
   <g id="line2d_8">
    <path d="M 24.096873 15.554861 
L 24.209465 29.967597 
L 24.264388 25.328323 
L 24.382471 10.127095 
L 24.44014 15.265184 
L 24.552731 29.965267 
L 24.6104 25.185027 
L 24.725738 10.126644 
L 24.783406 14.980722 
L 24.898744 29.967817 
L 24.956413 25.040251 
L 25.07175 10.125522 
L 25.129419 15.126223 
L 25.244757 29.96751 
L 25.299679 25.320635 
L 25.417763 10.127258 
L 25.475432 15.27314 
L 25.588023 29.96548 
L 25.645692 25.177258 
L 25.761029 10.126508 
L 25.818698 14.98853 
L 25.934036 29.967876 
L 25.991704 25.032404 
L 26.107042 10.12554 
L 26.164711 15.134108 
L 26.280048 29.967415 
L 26.334971 25.312943 
L 26.453054 10.127431 
L 26.507977 14.852142 
L 26.623315 29.965685 
L 26.680983 25.169486 
L 26.796321 10.12638 
L 26.85399 14.996342 
L 26.969327 29.967927 
L 27.026996 25.024553 
L 27.142333 10.125567 
L 27.200002 15.141998 
L 27.31534 29.967312 
L 27.370262 25.305247 
L 27.488346 10.127611 
L 27.543269 14.859879 
L 27.658606 29.965882 
L 27.716275 25.161709 
L 27.831613 10.12626 
L 27.889281 15.004159 
L 28.004619 29.96797 
L 28.062288 25.016697 
L 28.177625 10.125601 
L 28.235294 15.149891 
L 28.350631 29.9672 
L 28.405554 25.297547 
L 28.523638 10.1278 
L 28.57856 14.86762 
L 28.693898 29.96607 
L 28.751567 25.153928 
L 28.866904 10.126149 
L 28.924573 15.011979 
L 29.03991 29.968004 
L 29.097579 25.008838 
L 29.212917 10.125644 
L 29.270586 15.157789 
L 29.385923 29.96708 
L 29.440846 25.289841 
L 29.558929 10.127997 
L 29.613852 14.875365 
L 29.729189 29.96625 
L 29.786858 25.146142 
L 29.902196 10.126046 
L 29.959865 15.019804 
L 30.075202 29.96803 
L 30.132871 25.000974 
L 30.248208 10.125695 
L 30.305877 15.165691 
L 30.421215 29.966952 
L 30.476137 25.282132 
L 30.594221 10.128202 
L 30.649144 14.883115 
L 30.764481 29.966421 
L 30.82215 25.138352 
L 30.937487 10.125952 
L 30.995156 15.027633 
L 31.110494 29.968047 
L 31.168162 24.993106 
L 31.2835 10.125755 
L 31.338423 14.747757 
L 31.456506 29.966815 
L 31.514175 24.846435 
L 31.629513 10.128415 
L 31.684435 14.890869 
L 31.799773 29.966585 
L 31.857442 25.130558 
L 31.972779 10.125865 
L 32.030448 15.035467 
L 32.145785 29.968057 
L 32.203454 24.985234 
L 32.318792 10.125822 
L 32.373714 14.755435 
L 32.491798 29.966671 
L 32.549467 24.838487 
L 32.662058 10.128534 
L 32.719727 14.898628 
L 32.835064 29.96674 
L 32.892733 25.12276 
L 33.008071 10.125787 
L 33.065739 15.043304 
L 33.181077 29.968058 
L 33.238746 24.977358 
L 33.354083 10.125899 
L 33.409006 14.763117 
L 33.52709 29.966517 
L 33.584758 24.830536 
L 33.69735 10.12831 
L 33.755018 14.906391 
L 33.870356 29.966887 
L 33.928025 25.114957 
L 34.043362 10.125718 
L 34.101031 15.051146 
L 34.216369 29.96805 
L 34.274037 24.969478 
L 34.389375 10.125983 
L 34.444298 14.770803 
L 34.562381 29.966356 
L 34.62005 24.82258 
L 34.732641 10.128095 
L 34.79031 14.914158 
L 34.905648 29.967025 
L 34.963316 25.107151 
L 35.078654 10.125656 
L 35.136323 15.058992 
L 35.25166 29.968034 
L 35.309329 24.961593 
L 35.424667 10.126076 
L 35.479589 14.778494 
L 35.597673 29.966186 
L 35.652595 25.243519 
L 35.767933 10.127887 
L 35.825602 14.92193 
L 35.940939 29.967155 
L 35.998608 25.099339 
L 36.113946 10.125603 
L 36.171614 15.066842 
L 36.286952 29.96801 
L 36.344621 24.953705 
L 36.459958 10.126177 
L 36.514881 14.786189 
L 36.632964 29.966008 
L 36.687887 25.235783 
L 36.803225 10.127689 
L 36.860893 14.929705 
L 36.976231 29.967277 
L 37.0339 25.091524 
L 37.149237 10.125559 
L 37.206906 15.074696 
L 37.322243 29.967978 
L 37.379912 24.945812 
L 37.49525 10.126286 
L 37.550172 14.793888 
L 37.668256 29.965822 
L 37.723179 25.228043 
L 37.838516 10.127498 
L 37.896185 14.937485 
L 38.011523 29.96739 
L 38.069191 25.083705 
L 38.184529 10.125522 
L 38.242198 15.082555 
L 38.357535 29.967938 
L 38.415204 24.937915 
L 38.530541 10.126404 
L 38.585464 14.801592 
L 38.703548 29.965627 
L 38.75847 25.220299 
L 38.873808 10.127316 
L 38.931477 14.94527 
L 39.046814 29.967496 
L 39.104483 25.075881 
L 39.21982 10.125494 
L 39.277489 15.090417 
L 39.392827 29.967889 
L 39.450496 24.930014 
L 39.565833 10.12653 
L 39.620756 14.8093 
L 39.738839 29.965424 
L 39.793762 25.21255 
L 39.909099 10.127142 
L 39.966768 14.953058 
L 40.082106 29.967592 
L 40.139775 25.068053 
L 40.255112 10.125474 
L 40.312781 15.098284 
L 40.428118 29.967831 
L 40.483041 25.347887 
L 40.601125 10.126664 
L 40.658793 15.244935 
L 40.774131 29.965213 
L 40.829054 25.204797 
L 40.944391 10.126976 
L 41.00206 14.960851 
L 41.117397 29.967681 
L 41.175066 25.060221 
L 41.290404 10.125463 
L 41.348072 15.106155 
L 41.46341 29.967766 
L 41.518333 25.340211 
L 41.636416 10.126807 
L 41.694085 15.252881 
L 41.809423 29.964993 
L 41.864345 25.197039 
L 41.979683 10.126819 
L 42.037352 14.968649 
L 42.152689 29.967761 
L 42.210358 25.052384 
L 42.325695 10.125459 
L 42.383364 15.11403 
L 42.498702 29.967692 
L 42.553624 25.33253 
L 42.671708 10.126958 
L 42.729377 15.260832 
L 42.841968 29.965199 
L 42.899637 25.189278 
L 43.014974 10.12667 
L 43.072643 14.97645 
L 43.187981 29.967833 
L 43.245649 25.044544 
L 43.360987 10.125465 
L 43.418656 15.121909 
L 43.533993 29.96761 
L 43.588916 25.324845 
L 43.707 10.127117 
L 43.764668 15.268787 
L 43.87726 29.965417 
L 43.934928 25.181512 
L 44.050266 10.126529 
L 44.107935 14.984256 
L 44.223272 29.967897 
L 44.280941 25.036699 
L 44.396279 10.125478 
L 44.453947 15.129792 
L 44.569285 29.967519 
L 44.624208 25.317156 
L 44.742291 10.127284 
L 44.797214 14.847908 
L 44.912551 29.965626 
L 44.97022 25.173741 
L 45.085558 10.126397 
L 45.143226 14.992066 
L 45.258564 29.967952 
L 45.316233 25.02885 
L 45.43157 10.1255 
L 45.489239 15.13768 
L 45.604577 29.967421 
L 45.659499 25.309462 
L 45.777583 10.12746 
L 45.832505 14.855642 
L 45.947843 29.965827 
L 46.005512 25.165967 
L 46.120849 10.126273 
L 46.178518 14.99988 
L 46.293856 29.967999 
L 46.351524 25.020997 
L 46.466862 10.12553 
L 46.524531 15.145571 
L 46.639868 29.967313 
L 46.694791 25.301764 
L 46.812874 10.127644 
L 46.867797 14.863381 
L 46.983135 29.96602 
L 47.040803 25.158188 
L 47.156141 10.126157 
L 47.21381 15.007698 
L 47.329147 29.968038 
L 47.386816 25.01314 
L 47.502153 10.125568 
L 47.559822 15.153467 
L 47.67516 29.967198 
L 47.730082 25.294061 
L 47.848166 10.127837 
L 47.903089 14.871124 
L 48.018426 29.966204 
L 48.076095 25.150405 
L 48.191433 10.12605 
L 48.249101 15.015521 
L 48.364439 29.968068 
L 48.422108 25.005278 
L 48.537445 10.125615 
L 48.595114 15.161367 
L 48.710451 29.967074 
L 48.765374 25.286354 
L 48.883458 10.128038 
L 48.93838 14.878872 
L 49.053718 29.966381 
L 49.111387 25.142617 
L 49.226724 10.125951 
L 49.284393 15.023348 
L 49.39973 29.96809 
L 49.457399 24.997412 
L 49.572737 10.12567 
L 49.630406 15.169271 
L 49.745743 29.966942 
L 49.800666 25.278642 
L 49.918749 10.128247 
L 49.973672 14.886624 
L 50.08901 29.966549 
L 50.146678 25.134825 
L 50.262016 10.12586 
L 50.319685 15.031179 
L 50.435022 29.968104 
L 50.492691 24.989543 
L 50.608028 10.125733 
L 50.662951 14.75123 
L 50.781035 29.966802 
L 50.838703 24.842836 
L 50.954041 10.128464 
L 51.008964 14.89438 
L 51.124301 29.966708 
L 51.18197 25.127029 
L 51.297307 10.125777 
L 51.354976 15.039014 
L 51.470314 29.96811 
L 51.527982 24.981669 
L 51.64332 10.125805 
L 51.698243 14.75891 
L 51.816326 29.966653 
L 51.873995 24.834887 
L 51.986586 10.128379 
L 52.044255 14.902141 
L 52.159593 29.966859 
L 52.217262 25.119229 
L 52.332599 10.125703 
L 52.390268 15.046853 
L 52.505605 29.968107 
L 52.563274 24.973791 
L 52.678612 10.125885 
L 52.733534 14.766594 
L 52.851618 29.966496 
L 52.909287 24.826933 
L 53.021878 10.128159 
L 53.079547 14.909906 
L 53.194884 29.967002 
L 53.252553 25.111424 
L 53.367891 10.125637 
L 53.425559 15.054697 
L 53.540897 29.968096 
L 53.598566 24.965908 
L 53.713903 10.125973 
L 53.768826 14.774282 
L 53.88691 29.966331 
L 53.944578 24.818976 
L 54.05717 10.127948 
L 54.114838 14.917675 
L 54.230176 29.967137 
L 54.287845 25.103616 
L 54.403182 10.12558 
L 54.460851 15.062545 
L 54.576189 29.968076 
L 54.633857 24.958022 
L 54.749195 10.126069 
L 54.804118 14.781975 
L 54.922201 29.966158 
L 54.977124 25.240019 
L 55.092461 10.127744 
L 55.15013 14.925448 
L 55.265468 29.967263 
L 55.323136 25.095802 
L 55.438474 10.12553 
L 55.496143 15.070397 
L 55.61148 29.968048 
L 55.669149 24.950132 
L 55.784487 10.126174 
L 55.839409 14.789672 
L 55.957493 29.965976 
L 56.012415 25.232281 
L 56.127753 10.127549 
L 56.185422 14.933226 
L 56.300759 29.967381 
L 56.358428 25.087985 
L 56.473766 10.125489 
L 56.531434 15.078253 
L 56.646772 29.968012 
L 56.704441 24.942237 
L 56.819778 10.126287 
L 56.874701 14.797373 
L 56.992784 29.965785 
L 57.047707 25.224539 
L 57.163045 10.127362 
L 57.220713 14.941008 
L 57.336051 29.967491 
L 57.39372 25.080164 
L 57.509057 10.125457 
L 57.566726 15.086114 
L 57.682064 29.967968 
L 57.739732 24.934338 
L 57.85507 10.126409 
L 57.909992 14.805079 
L 58.028076 29.965587 
L 58.082999 25.216793 
L 58.198336 10.127184 
L 58.256005 14.948794 
L 58.371343 29.967592 
L 58.429011 25.072338 
L 58.544349 10.125432 
L 58.602018 15.093978 
L 58.717355 29.967915 
L 58.775024 24.926436 
L 58.890361 10.126538 
L 58.945284 14.81279 
L 59.063368 29.96538 
L 59.11829 25.209042 
L 59.233628 10.127014 
L 59.291297 14.956585 
L 59.406634 29.967685 
L 59.464303 25.064508 
L 59.57964 10.125416 
L 59.637309 15.101847 
L 59.752647 29.967854 
L 59.807569 25.344415 
L 59.925653 10.126677 
L 59.983322 15.248533 
L 60.098659 29.965165 
L 60.153582 25.201287 
L 60.26892 10.126852 
L 60.326588 14.96438 
L 60.441926 29.96777 
L 60.499595 25.056674 
L 60.614932 10.125409 
L 60.672601 15.10972 
L 60.787938 29.967785 
L 60.842861 25.336737 
L 60.960945 10.126823 
L 61.018613 15.256481 
L 61.131205 29.965129 
L 61.188874 25.193527 
L 61.304211 10.126698 
L 61.36188 14.972179 
L 61.477217 29.967847 
L 61.534886 25.048836 
L 61.650224 10.125409 
L 61.707892 15.117597 
L 61.82323 29.967707 
L 61.878153 25.329054 
L 61.996236 10.126978 
L 62.053905 15.264434 
L 62.166496 29.965351 
L 62.224165 25.185764 
L 62.339503 10.126553 
L 62.397172 14.979983 
L 62.512509 29.967915 
L 62.570178 25.040993 
L 62.685515 10.125418 
L 62.743184 15.125478 
L 62.858522 29.967621 
L 62.913444 25.321367 
L 63.031528 10.127141 
L 63.089197 15.27239 
L 63.201788 29.965565 
L 63.259457 25.177996 
L 63.374794 10.126416 
L 63.432463 14.98779 
L 63.547801 29.967975 
L 63.605469 25.033146 
L 63.720807 10.125435 
L 63.778476 15.133363 
L 63.893813 29.967527 
L 63.948736 25.313675 
L 64.06682 10.127312 
L 64.121742 14.851407 
L 64.23708 29.96577 
L 64.294749 25.170223 
L 64.410086 10.126288 
L 64.467755 14.995602 
L 64.583092 29.968026 
L 64.640761 25.025295 
L 64.756099 10.125461 
L 64.813767 15.141252 
L 64.929105 29.967424 
L 64.984028 25.305979 
L 65.102111 10.127492 
L 65.157034 14.859144 
L 65.272371 29.965968 
L 65.33004 25.162447 
L 65.445378 10.126168 
L 65.503046 15.003418 
L 65.618384 29.968069 
L 65.676053 25.01744 
L 65.79139 10.125495 
L 65.849059 15.149146 
L 65.964397 29.967313 
L 66.019319 25.298279 
L 66.137403 10.12768 
L 66.192325 14.866884 
L 66.307663 29.966157 
L 66.365332 25.154666 
L 66.480669 10.126056 
L 66.538338 15.011239 
L 66.653676 29.968104 
L 66.711344 25.009581 
L 66.826682 10.125537 
L 66.884351 15.157043 
L 66.999688 29.967194 
L 67.054611 25.290574 
L 67.172694 10.127876 
L 67.227617 14.87463 
L 67.342955 29.966337 
L 67.400623 25.14688 
L 67.515961 10.125952 
L 67.57363 15.019063 
L 67.688967 29.968131 
L 67.746636 25.001718 
L 67.861974 10.125587 
L 67.919642 15.164945 
L 68.03498 29.967067 
L 68.089902 25.282865 
L 68.207986 10.12808 
L 68.262909 14.882379 
L 68.378246 29.96651 
L 68.435915 25.139091 
L 68.551253 10.125857 
L 68.608921 15.026892 
L 68.724259 29.968149 
L 68.781928 24.99385 
L 68.897265 10.125646 
L 68.952188 14.747027 
L 69.070271 29.966931 
L 69.12794 24.847184 
L 69.243278 10.128293 
L 69.2982 14.890133 
L 69.413538 29.966674 
L 69.471207 25.131297 
L 69.586544 10.12577 
L 69.644213 15.034725 
L 69.75955 29.968159 
L 69.817219 24.985978 
L 69.932557 10.125713 
L 69.987479 14.754704 
L 70.105563 29.966787 
L 70.163232 24.839237 
L 70.275823 10.128451 
L 70.333492 14.897892 
L 70.44883 29.96683 
L 70.506498 25.123499 
L 70.621836 10.125691 
L 70.679505 15.042562 
L 70.794842 29.968161 
L 70.852511 24.978102 
L 70.967848 10.125788 
L 71.022771 14.762385 
L 71.140855 29.966634 
L 71.198523 24.831285 
L 71.311115 10.128226 
L 71.368784 14.905654 
L 71.484121 29.966977 
L 71.54179 25.115697 
L 71.657127 10.12562 
L 71.714796 15.050404 
L 71.830134 29.968154 
L 71.887803 24.970222 
L 72.00314 10.125872 
L 72.058063 14.770071 
L 72.176146 29.966474 
L 72.233815 24.82333 
L 72.346406 10.12801 
L 72.404075 14.913421 
L 72.519413 29.967116 
L 72.577082 25.10789 
L 72.692419 10.125558 
L 72.750088 15.058249 
L 72.865425 29.968139 
L 72.923094 24.962338 
L 73.038432 10.125964 
L 73.093354 14.777762 
L 73.211438 29.966305 
L 73.266361 25.244253 
L 73.381698 10.127802 
L 73.439367 14.921192 
L 73.554704 29.967247 
L 73.612373 25.10008 
L 73.727711 10.125504 
L 73.785379 15.066099 
L 73.900717 29.968116 
L 73.958386 24.95445 
L 74.073723 10.126064 
L 74.128646 14.785457 
L 74.24673 29.966127 
L 74.301652 25.236518 
L 74.41699 10.127603 
L 74.474659 14.928968 
L 74.589996 29.96737 
L 74.647665 25.092265 
L 74.763002 10.125459 
L 74.820671 15.073953 
L 74.936009 29.968085 
L 74.993677 24.946558 
L 75.109015 10.126173 
L 75.163938 14.793156 
L 75.282021 29.965942 
L 75.336944 25.228778 
L 75.452281 10.127411 
L 75.50995 14.936748 
L 75.625288 29.967484 
L 75.682956 25.084445 
L 75.798294 10.125422 
L 75.855963 15.081811 
L 75.9713 29.968045 
L 76.028969 24.938661 
L 76.144307 10.12629 
L 76.199229 14.800859 
L 76.317313 29.965748 
L 76.372235 25.221034 
L 76.487573 10.127228 
L 76.545242 14.944532 
L 76.660579 29.96759 
L 76.718248 25.076622 
L 76.825347 10.240377 
L 76.825347 10.240377 
" clip-path="url(#pbae84ccf1c)" style="fill: none; stroke: #b3c8cd; stroke-opacity: 0.6; stroke-width: 0.05; stroke-linecap: square"/>
   </g>
   <g id="patch_13">
    <path d="M 24.099592 30.960157 
L 24.099592 9.133386 
" style="fill: none; stroke: #ffffff; stroke-width: 0.5; stroke-linejoin: miter; stroke-linecap: square"/>
   </g>
   <g id="patch_14">
    <path d="M 76.824002 30.960157 
L 76.824002 9.133386 
" style="fill: none; stroke: #ffffff; stroke-width: 0.5; stroke-linejoin: miter; stroke-linecap: square"/>
   </g>
   <g id="patch_15">
    <path d="M 24.099592 30.960157 
L 76.824002 30.960157 
" style="fill: none; stroke: #ffffff; stroke-width: 0.5; stroke-linejoin: miter; stroke-linecap: square"/>
   </g>
   <g id="patch_16">
    <path d="M 24.099592 9.133386 
L 76.824002 9.133386 
" style="fill: none; stroke: #ffffff; stroke-width: 0.5; stroke-linejoin: miter; stroke-linecap: square"/>
   </g>
  </g>
 </g>
 <defs>
  <clipPath id="p8a2b8568c7">
   <rect x="6.524789" y="9.133386" width="17.574803" height="21.826772"/>
  </clipPath>
  <clipPath id="pfb7145e21c">
   <rect x="76.824002" y="9.133386" width="17.574803" height="21.826772"/>
  </clipPath>
  <clipPath id="pbae84ccf1c">
   <rect x="24.099592" y="9.133386" width="52.724409" height="21.826772"/>
  </clipPath>
 </defs>
</svg>
