<?xml version="1.0" encoding="utf-8" standalone="no"?>
<!DOCTYPE svg PUBLIC "-//W3C//DTD SVG 1.1//EN"
  "http://www.w3.org/Graphics/SVG/1.1/DTD/svg11.dtd">
<svg xmlns:xlink="http://www.w3.org/1999/xlink" width="100.923594pt" height="41.502205pt" viewBox="0 0 100.923594 41.502205" xmlns="http://www.w3.org/2000/svg" version="1.1">
 <metadata>
  <rdf:RDF xmlns:dc="http://purl.org/dc/elements/1.1/" xmlns:cc="http://creativecommons.org/ns#" xmlns:rdf="http://www.w3.org/1999/02/22-rdf-syntax-ns#">
   <cc:Work>
    <dc:type rdf:resource="http://purl.org/dc/dcmitype/StillImage"/>
    <dc:date>2025-01-13T14:57:25.708322</dc:date>
    <dc:format>image/svg+xml</dc:format>
    <dc:creator>
     <cc:Agent>
      <dc:title>Matplotlib v3.8.0, https://matplotlib.org/</dc:title>
     </cc:Agent>
    </dc:creator>
   </cc:Work>
  </rdf:RDF>
 </metadata>
 <defs>
  <style type="text/css">*{stroke-linejoin: round; stroke-linecap: butt}</style>
 </defs>
 <g id="figure_1">
  <g id="patch_1">
   <path d="M 0 41.502205 
L 100.923594 41.502205 
L 100.923594 -0 
L 0 -0 
L 0 41.502205 
z
" style="fill: none"/>
  </g>
  <g id="axes_1"/>
  <g id="axes_2">
   <g id="patch_2">
    <path d="M 6.524789 40.782205 
L 24.099592 40.782205 
L 24.099592 8.042047 
L 6.524789 8.042047 
L 6.524789 40.782205 
z
" style="fill: none"/>
   </g>
   <g id="matplotlib.axis_1"/>
   <g id="matplotlib.axis_2"/>
   <g id="line2d_1">
    <path d="M 6.524789 9.530236 
L 6.656603 9.700675 
L 6.832356 10.449984 
L 7.139922 13.090848 
L 7.623242 19.84654 
L 8.765632 36.76577 
L 9.117137 38.909625 
L 9.29289 39.114711 
L 9.424704 38.875938 
L 9.644395 37.748998 
L 9.951961 34.7845 
L 10.479219 27.051013 
L 11.445857 12.775944 
L 11.797362 10.28455 
L 12.017052 9.869334 
L 12.148867 10.063183 
L 12.368557 11.109776 
L 12.676124 13.959407 
L 13.203381 21.52771 
L 14.17002 35.748633 
L 14.521524 38.313766 
L 14.741215 38.7951 
L 14.873029 38.646268 
L 15.048782 37.943242 
L 15.31241 35.876677 
L 15.751791 30.274904 
L 17.069935 11.80124 
L 17.377501 10.301181 
L 17.509316 10.187928 
L 17.553254 10.222548 
L 17.685068 10.54224 
L 17.904759 11.771999 
L 18.256263 15.342866 
L 18.871397 24.560238 
L 19.662283 35.592087 
L 20.013788 38.052504 
L 20.233478 38.489595 
L 20.365292 38.323696 
L 20.541045 37.609828 
L 20.848612 35.106009 
L 21.331931 28.712034 
L 22.474322 12.708173 
L 22.825826 10.681333 
L 23.001579 10.487411 
L 23.133393 10.713057 
L 23.353084 11.778308 
L 23.66065 14.581503 
L 24.100032 20.542926 
L 24.100032 20.542926 
" clip-path="url(#p90e40d9a49)" style="fill: none; stroke: #b3c8cd; stroke-opacity: 0.3; stroke-linecap: square"/>
   </g>
   <g id="line2d_2">
    <path d="M 6.524789 9.530236 
L 6.656603 9.697352 
L 6.832356 10.432529 
L 7.139922 13.029996 
L 7.579304 19.019973 
L 8.809571 37.164747 
L 9.117137 39.021918 
L 9.29289 39.29348 
L 9.424704 39.107498 
L 9.644395 38.069523 
L 9.951961 35.214374 
L 10.43528 28.27072 
L 11.533733 11.988855 
L 11.885238 9.77882 
L 12.06099 9.532379 
L 12.192805 9.737214 
L 12.412495 10.805384 
L 12.720062 13.697131 
L 13.203381 20.675639 
L 14.257896 36.484638 
L 14.609401 38.920405 
L 14.829091 39.289196 
L 14.960905 39.065522 
L 15.180596 37.967232 
L 15.488163 35.039096 
L 16.01542 27.300184 
L 17.025996 12.266204 
L 17.377501 9.876249 
L 17.597192 9.538806 
L 17.729006 9.781302 
L 17.948697 10.909632 
L 18.256263 13.873946 
L 18.783521 21.648058 
L 19.750159 36.190687 
L 20.101664 38.803065 
L 20.321354 39.293593 
L 20.453169 39.14332 
L 20.628921 38.429961 
L 20.89255 36.327063 
L 21.331931 30.593471 
L 22.694012 11.005922 
L 23.001579 9.603229 
L 23.133393 9.549518 
L 23.265208 9.829605 
L 23.484898 11.017769 
L 23.836403 14.600799 
L 24.100032 18.345882 
L 24.100032 18.345882 
" clip-path="url(#p90e40d9a49)" style="fill: none; stroke-dasharray: 1.48,0.64; stroke-dashoffset: 0; stroke: #b3c8cd; stroke-width: 0.4"/>
   </g>
   <g id="patch_3">
    <path d="M 6.524789 40.782205 
L 6.524789 8.042047 
" style="fill: none; stroke: #ffffff; stroke-width: 0.5; stroke-linejoin: miter; stroke-linecap: square"/>
   </g>
   <g id="patch_4">
    <path d="M 24.099592 40.782205 
L 24.099592 8.042047 
" style="fill: none; stroke: #ffffff; stroke-width: 0.5; stroke-linejoin: miter; stroke-linecap: square"/>
   </g>
   <g id="patch_5">
    <path d="M 6.524789 40.782205 
L 24.099592 40.782205 
" style="fill: none; stroke: #ffffff; stroke-width: 0.5; stroke-linejoin: miter; stroke-linecap: square"/>
   </g>
   <g id="patch_6">
    <path d="M 6.524789 8.042047 
L 24.099592 8.042047 
" style="fill: none; stroke: #ffffff; stroke-width: 0.5; stroke-linejoin: miter; stroke-linecap: square"/>
   </g>
   <g id="legend_1">
    <g id="line2d_3">
     <path d="M 2.72 4.769219 
L 7.72 4.769219 
L 12.72 4.769219 
" style="fill: none; stroke: #b3c8cd; stroke-opacity: 0.3; stroke-linecap: square"/>
    </g>
    <g id="text_1">
     <!-- Ground Truth -->
     <g transform="translate(16.72 6.519219) scale(0.05 -0.05)">
      <defs>
       <path id="DejaVuSans-47" d="M 3809 666 
L 3809 1919 
L 2778 1919 
L 2778 2438 
L 4434 2438 
L 4434 434 
Q 4069 175 3628 42 
Q 3188 -91 2688 -91 
Q 1594 -91 976 548 
Q 359 1188 359 2328 
Q 359 3472 976 4111 
Q 1594 4750 2688 4750 
Q 3144 4750 3555 4637 
Q 3966 4525 4313 4306 
L 4313 3634 
Q 3963 3931 3569 4081 
Q 3175 4231 2741 4231 
Q 1884 4231 1454 3753 
Q 1025 3275 1025 2328 
Q 1025 1384 1454 906 
Q 1884 428 2741 428 
Q 3075 428 3337 486 
Q 3600 544 3809 666 
z
" transform="scale(0.015625)"/>
       <path id="DejaVuSans-72" d="M 2631 2963 
Q 2534 3019 2420 3045 
Q 2306 3072 2169 3072 
Q 1681 3072 1420 2755 
Q 1159 2438 1159 1844 
L 1159 0 
L 581 0 
L 581 3500 
L 1159 3500 
L 1159 2956 
Q 1341 3275 1631 3429 
Q 1922 3584 2338 3584 
Q 2397 3584 2469 3576 
Q 2541 3569 2628 3553 
L 2631 2963 
z
" transform="scale(0.015625)"/>
       <path id="DejaVuSans-6f" d="M 1959 3097 
Q 1497 3097 1228 2736 
Q 959 2375 959 1747 
Q 959 1119 1226 758 
Q 1494 397 1959 397 
Q 2419 397 2687 759 
Q 2956 1122 2956 1747 
Q 2956 2369 2687 2733 
Q 2419 3097 1959 3097 
z
M 1959 3584 
Q 2709 3584 3137 3096 
Q 3566 2609 3566 1747 
Q 3566 888 3137 398 
Q 2709 -91 1959 -91 
Q 1206 -91 779 398 
Q 353 888 353 1747 
Q 353 2609 779 3096 
Q 1206 3584 1959 3584 
z
" transform="scale(0.015625)"/>
       <path id="DejaVuSans-75" d="M 544 1381 
L 544 3500 
L 1119 3500 
L 1119 1403 
Q 1119 906 1312 657 
Q 1506 409 1894 409 
Q 2359 409 2629 706 
Q 2900 1003 2900 1516 
L 2900 3500 
L 3475 3500 
L 3475 0 
L 2900 0 
L 2900 538 
Q 2691 219 2414 64 
Q 2138 -91 1772 -91 
Q 1169 -91 856 284 
Q 544 659 544 1381 
z
M 1991 3584 
L 1991 3584 
z
" transform="scale(0.015625)"/>
       <path id="DejaVuSans-6e" d="M 3513 2113 
L 3513 0 
L 2938 0 
L 2938 2094 
Q 2938 2591 2744 2837 
Q 2550 3084 2163 3084 
Q 1697 3084 1428 2787 
Q 1159 2491 1159 1978 
L 1159 0 
L 581 0 
L 581 3500 
L 1159 3500 
L 1159 2956 
Q 1366 3272 1645 3428 
Q 1925 3584 2291 3584 
Q 2894 3584 3203 3211 
Q 3513 2838 3513 2113 
z
" transform="scale(0.015625)"/>
       <path id="DejaVuSans-64" d="M 2906 2969 
L 2906 4863 
L 3481 4863 
L 3481 0 
L 2906 0 
L 2906 525 
Q 2725 213 2448 61 
Q 2172 -91 1784 -91 
Q 1150 -91 751 415 
Q 353 922 353 1747 
Q 353 2572 751 3078 
Q 1150 3584 1784 3584 
Q 2172 3584 2448 3432 
Q 2725 3281 2906 2969 
z
M 947 1747 
Q 947 1113 1208 752 
Q 1469 391 1925 391 
Q 2381 391 2643 752 
Q 2906 1113 2906 1747 
Q 2906 2381 2643 2742 
Q 2381 3103 1925 3103 
Q 1469 3103 1208 2742 
Q 947 2381 947 1747 
z
" transform="scale(0.015625)"/>
       <path id="DejaVuSans-20" transform="scale(0.015625)"/>
       <path id="DejaVuSans-54" d="M -19 4666 
L 3928 4666 
L 3928 4134 
L 2272 4134 
L 2272 0 
L 1638 0 
L 1638 4134 
L -19 4134 
L -19 4666 
z
" transform="scale(0.015625)"/>
       <path id="DejaVuSans-74" d="M 1172 4494 
L 1172 3500 
L 2356 3500 
L 2356 3053 
L 1172 3053 
L 1172 1153 
Q 1172 725 1289 603 
Q 1406 481 1766 481 
L 2356 481 
L 2356 0 
L 1766 0 
Q 1100 0 847 248 
Q 594 497 594 1153 
L 594 3053 
L 172 3053 
L 172 3500 
L 594 3500 
L 594 4494 
L 1172 4494 
z
" transform="scale(0.015625)"/>
       <path id="DejaVuSans-68" d="M 3513 2113 
L 3513 0 
L 2938 0 
L 2938 2094 
Q 2938 2591 2744 2837 
Q 2550 3084 2163 3084 
Q 1697 3084 1428 2787 
Q 1159 2491 1159 1978 
L 1159 0 
L 581 0 
L 581 4863 
L 1159 4863 
L 1159 2956 
Q 1366 3272 1645 3428 
Q 1925 3584 2291 3584 
Q 2894 3584 3203 3211 
Q 3513 2838 3513 2113 
z
" transform="scale(0.015625)"/>
      </defs>
      <use xlink:href="#DejaVuSans-47"/>
      <use xlink:href="#DejaVuSans-72" x="77.490234"/>
      <use xlink:href="#DejaVuSans-6f" x="116.353516"/>
      <use xlink:href="#DejaVuSans-75" x="177.535156"/>
      <use xlink:href="#DejaVuSans-6e" x="240.914062"/>
      <use xlink:href="#DejaVuSans-64" x="304.292969"/>
      <use xlink:href="#DejaVuSans-20" x="367.769531"/>
      <use xlink:href="#DejaVuSans-54" x="399.556641"/>
      <use xlink:href="#DejaVuSans-72" x="445.890625"/>
      <use xlink:href="#DejaVuSans-75" x="487.003906"/>
      <use xlink:href="#DejaVuSans-74" x="550.382812"/>
      <use xlink:href="#DejaVuSans-68" x="589.591797"/>
     </g>
    </g>
    <g id="line2d_4">
     <path d="M 59.366875 4.769219 
L 64.366875 4.769219 
L 69.366875 4.769219 
" style="fill: none; stroke-dasharray: 1.48,0.64; stroke-dashoffset: 0; stroke: #b3c8cd; stroke-width: 0.4"/>
    </g>
    <g id="text_2">
     <!-- Prediction -->
     <g transform="translate(73.366875 6.519219) scale(0.05 -0.05)">
      <defs>
       <path id="DejaVuSans-50" d="M 1259 4147 
L 1259 2394 
L 2053 2394 
Q 2494 2394 2734 2622 
Q 2975 2850 2975 3272 
Q 2975 3691 2734 3919 
Q 2494 4147 2053 4147 
L 1259 4147 
z
M 628 4666 
L 2053 4666 
Q 2838 4666 3239 4311 
Q 3641 3956 3641 3272 
Q 3641 2581 3239 2228 
Q 2838 1875 2053 1875 
L 1259 1875 
L 1259 0 
L 628 0 
L 628 4666 
z
" transform="scale(0.015625)"/>
       <path id="DejaVuSans-65" d="M 3597 1894 
L 3597 1613 
L 953 1613 
Q 991 1019 1311 708 
Q 1631 397 2203 397 
Q 2534 397 2845 478 
Q 3156 559 3463 722 
L 3463 178 
Q 3153 47 2828 -22 
Q 2503 -91 2169 -91 
Q 1331 -91 842 396 
Q 353 884 353 1716 
Q 353 2575 817 3079 
Q 1281 3584 2069 3584 
Q 2775 3584 3186 3129 
Q 3597 2675 3597 1894 
z
M 3022 2063 
Q 3016 2534 2758 2815 
Q 2500 3097 2075 3097 
Q 1594 3097 1305 2825 
Q 1016 2553 972 2059 
L 3022 2063 
z
" transform="scale(0.015625)"/>
       <path id="DejaVuSans-69" d="M 603 3500 
L 1178 3500 
L 1178 0 
L 603 0 
L 603 3500 
z
M 603 4863 
L 1178 4863 
L 1178 4134 
L 603 4134 
L 603 4863 
z
" transform="scale(0.015625)"/>
       <path id="DejaVuSans-63" d="M 3122 3366 
L 3122 2828 
Q 2878 2963 2633 3030 
Q 2388 3097 2138 3097 
Q 1578 3097 1268 2742 
Q 959 2388 959 1747 
Q 959 1106 1268 751 
Q 1578 397 2138 397 
Q 2388 397 2633 464 
Q 2878 531 3122 666 
L 3122 134 
Q 2881 22 2623 -34 
Q 2366 -91 2075 -91 
Q 1284 -91 818 406 
Q 353 903 353 1747 
Q 353 2603 823 3093 
Q 1294 3584 2113 3584 
Q 2378 3584 2631 3529 
Q 2884 3475 3122 3366 
z
" transform="scale(0.015625)"/>
      </defs>
      <use xlink:href="#DejaVuSans-50"/>
      <use xlink:href="#DejaVuSans-72" x="58.552734"/>
      <use xlink:href="#DejaVuSans-65" x="97.416016"/>
      <use xlink:href="#DejaVuSans-64" x="158.939453"/>
      <use xlink:href="#DejaVuSans-69" x="222.416016"/>
      <use xlink:href="#DejaVuSans-63" x="250.199219"/>
      <use xlink:href="#DejaVuSans-74" x="305.179688"/>
      <use xlink:href="#DejaVuSans-69" x="344.388672"/>
      <use xlink:href="#DejaVuSans-6f" x="372.171875"/>
      <use xlink:href="#DejaVuSans-6e" x="433.353516"/>
     </g>
    </g>
   </g>
  </g>
  <g id="axes_3">
   <g id="patch_7">
    <path d="M 76.824002 40.782205 
L 94.398805 40.782205 
L 94.398805 8.042047 
L 76.824002 8.042047 
L 76.824002 40.782205 
z
" style="fill: none"/>
   </g>
   <g id="matplotlib.axis_3"/>
   <g id="matplotlib.axis_4"/>
   <g id="line2d_5">
    <path d="M 76.801593 26.126849 
L 77.372789 28.714183 
L 77.724293 29.473296 
L 77.943984 29.543478 
L 78.163674 29.293855 
L 78.471241 28.440553 
L 78.910622 26.412127 
L 80.228765 19.829604 
L 80.536332 19.311228 
L 80.712085 19.292396 
L 80.931775 19.555871 
L 81.239342 20.425711 
L 81.678723 22.468509 
L 82.952928 28.894978 
L 83.260495 29.478562 
L 83.480185 29.519627 
L 83.699876 29.242381 
L 84.007443 28.356171 
L 84.490762 26.058473 
L 85.677091 20.035398 
L 86.028595 19.344031 
L 86.248286 19.317457 
L 86.467977 19.60839 
L 86.775543 20.510799 
L 87.258862 22.822892 
L 88.401253 28.676448 
L 88.752758 29.440523 
L 88.972449 29.516537 
L 89.148201 29.347859 
L 89.41183 28.729377 
L 89.807273 27.104547 
L 91.432983 19.493757 
L 91.696611 19.305653 
L 91.872364 19.434917 
L 92.135992 19.997879 
L 92.531435 21.557135 
L 93.366259 26.197302 
L 93.937455 28.72706 
L 94.288959 29.446432 
L 94.420774 29.512994 
L 94.420774 29.512994 
" clip-path="url(#p1ea4d0f136)" style="fill: none; stroke: #b3c8cd; stroke-opacity: 0.3; stroke-linecap: square"/>
   </g>
   <g id="line2d_6">
    <path d="M 76.801593 9.833846 
L 76.977346 9.530058 
L 77.10916 9.691818 
L 77.284912 10.420068 
L 77.592479 13.006763 
L 78.03186 18.986493 
L 79.306065 37.515437 
L 79.613632 39.140363 
L 79.745446 39.293963 
L 79.789384 39.270844 
L 79.921199 38.979335 
L 80.140889 37.773022 
L 80.492394 34.165705 
L 81.063589 25.374057 
L 81.898413 12.891414 
L 82.293856 9.940595 
L 82.513547 9.531591 
L 82.645361 9.731079 
L 82.865052 10.790701 
L 83.172619 13.672123 
L 83.655938 20.640892 
L 84.710452 36.463819 
L 85.061957 38.912596 
L 85.281648 39.290286 
L 85.413462 39.071955 
L 85.633153 37.982192 
L 85.940719 35.064321 
L 86.467977 27.335387 
L 87.478553 12.286773 
L 87.830058 9.88376 
L 88.049748 9.537411 
L 88.181563 9.77457 
L 88.401253 10.894397 
L 88.70882 13.848507 
L 89.236077 21.612799 
L 90.202716 36.168916 
L 90.55422 38.794105 
L 90.773911 39.2935 
L 90.905725 39.148585 
L 91.081478 38.442166 
L 91.345106 36.348685 
L 91.784487 30.626155 
L 93.146569 11.021326 
L 93.454135 9.606599 
L 93.58595 9.547516 
L 93.717764 9.822276 
L 93.937455 11.001986 
L 94.288959 14.573726 
L 94.420774 16.352899 
L 94.420774 16.352899 
" clip-path="url(#p1ea4d0f136)" style="fill: none; stroke-dasharray: 1.48,0.64; stroke-dashoffset: 0; stroke: #b3c8cd; stroke-width: 0.4"/>
   </g>
   <g id="patch_8">
    <path d="M 76.824002 40.782205 
L 76.824002 8.042047 
" style="fill: none; stroke: #ffffff; stroke-width: 0.5; stroke-linejoin: miter; stroke-linecap: square"/>
   </g>
   <g id="patch_9">
    <path d="M 94.398805 40.782205 
L 94.398805 8.042047 
" style="fill: none; stroke: #ffffff; stroke-width: 0.5; stroke-linejoin: miter; stroke-linecap: square"/>
   </g>
   <g id="patch_10">
    <path d="M 76.824002 40.782205 
L 94.398805 40.782205 
" style="fill: none; stroke: #ffffff; stroke-width: 0.5; stroke-linejoin: miter; stroke-linecap: square"/>
   </g>
   <g id="patch_11">
    <path d="M 76.824002 8.042047 
L 94.398805 8.042047 
" style="fill: none; stroke: #ffffff; stroke-width: 0.5; stroke-linejoin: miter; stroke-linecap: square"/>
   </g>
  </g>
  <g id="axes_4">
   <g id="patch_12">
    <path d="M 24.099592 40.782205 
L 76.824002 40.782205 
L 76.824002 8.042047 
L 24.099592 8.042047 
L 24.099592 40.782205 
z
" style="fill: none"/>
   </g>
   <g id="matplotlib.axis_5"/>
   <g id="matplotlib.axis_6"/>
   <g id="line2d_7">
    <path d="M 24.096873 19.877627 
L 24.201226 38.201766 
L 24.256149 31.663131 
L 24.371487 10.759854 
L 24.429155 17.564074 
L 24.544493 37.930374 
L 24.599416 31.452752 
L 24.714753 11.021643 
L 24.772422 17.755756 
L 24.887759 37.674219 
L 24.942682 31.269359 
L 25.05802 11.269318 
L 25.115688 17.921988 
L 25.231026 37.432157 
L 25.285948 31.110069 
L 25.401286 11.50393 
L 25.458955 18.065477 
L 25.571546 37.203983 
L 25.629215 30.972353 
L 25.744552 11.726474 
L 25.802221 18.188599 
L 25.914813 36.987456 
L 25.972481 30.853987 
L 26.087819 11.93789 
L 26.145488 18.293445 
L 26.258079 36.781248 
L 26.315748 30.753004 
L 26.431085 12.139061 
L 26.488754 18.381866 
L 26.601346 36.584543 
L 26.659014 30.667662 
L 26.774352 12.330817 
L 26.832021 18.455503 
L 26.947358 36.397524 
L 27.002281 30.596414 
L 27.117618 12.513932 
L 27.175287 18.515815 
L 27.290625 36.219455 
L 27.345547 30.537876 
L 27.460885 12.68913 
L 27.518554 18.564109 
L 27.633891 36.049184 
L 27.688814 30.490811 
L 27.804151 12.857085 
L 27.86182 18.601554 
L 27.977157 35.886036 
L 28.03208 30.454108 
L 28.147418 13.018428 
L 28.205086 18.629199 
L 28.320424 35.729381 
L 28.378093 29.938851 
L 28.490684 13.173745 
L 28.548353 18.647993 
L 28.66369 35.578637 
L 28.721359 29.928354 
L 28.836697 13.321311 
L 28.891619 18.658792 
L 29.006957 35.433258 
L 29.064626 29.925408 
L 29.179963 13.462126 
L 29.234886 18.662373 
L 29.350223 35.292737 
L 29.407892 29.929278 
L 29.52323 13.598202 
L 29.580898 19.125387 
L 29.69349 35.156603 
L 29.751159 29.939294 
L 29.866496 13.730004 
L 29.924165 19.108486 
L 30.039502 35.028504 
L 30.094425 29.954843 
L 30.209763 13.857968 
L 30.267431 19.086371 
L 30.382769 34.904835 
L 30.437691 29.975367 
L 30.553029 13.9825 
L 30.610698 19.059576 
L 30.726035 34.784489 
L 30.783704 29.555654 
L 30.899042 14.100147 
L 30.953964 19.028588 
L 31.069302 34.667093 
L 31.12697 29.592486 
L 31.242308 14.213406 
L 31.299977 19.433401 
L 31.412568 34.552299 
L 31.470237 29.632825 
L 31.585574 14.324165 
L 31.643243 19.387602 
L 31.758581 34.444973 
L 31.813503 29.676277 
L 31.928841 14.432746 
L 31.98651 19.338899 
L 32.101847 34.340372 
L 32.159516 29.295719 
L 32.274854 14.53777 
L 32.329776 19.28764 
L 32.445114 34.237556 
L 32.502782 29.351909 
L 32.61812 14.636665 
L 32.673043 19.234151 
L 32.78838 34.136252 
L 32.846049 29.410163 
L 32.961386 14.734142 
L 33.019055 19.592959 
L 33.134393 34.041375 
L 33.189315 29.47019 
L 33.304653 14.830453 
L 33.362322 19.528437 
L 33.477659 33.948832 
L 33.535328 29.122425 
L 33.650665 14.922869 
L 33.705588 19.462548 
L 33.820926 33.857134 
L 33.878594 29.192564 
L 33.993932 15.01086 
L 34.051601 19.79992 
L 34.166938 33.767268 
L 34.221861 29.263708 
L 34.337198 15.098304 
L 34.394867 19.724747 
L 34.510205 33.683471 
L 34.565127 29.335637 
L 34.680465 15.1854 
L 34.738134 19.648893 
L 34.853471 33.599942 
L 34.91114 29.015819 
L 35.026477 15.26549 
L 35.0814 19.572557 
L 35.196738 33.516501 
L 35.254406 29.095891 
L 35.369744 15.345423 
L 35.427413 19.883489 
L 35.54275 33.438968 
L 35.597673 29.176173 
L 35.71301 15.42551 
L 35.770679 19.799643 
L 35.886017 33.362331 
L 35.943685 28.873662 
L 36.059023 15.500448 
L 36.113946 19.715834 
L 36.229283 33.285313 
L 36.286952 28.960878 
L 36.402289 15.574072 
L 36.459958 20.010351 
L 36.575296 33.212999 
L 36.630218 29.047835 
L 36.745556 15.64829 
L 36.803225 19.920131 
L 36.918562 33.142119 
L 36.976231 28.760918 
L 37.091568 15.717962 
L 37.146491 19.83037 
L 37.261829 33.070452 
L 37.319497 28.853811 
L 37.434835 15.786346 
L 37.492504 20.11005 
L 37.607841 33.003433 
L 37.662764 28.946059 
L 37.778101 15.8557 
L 37.83577 20.01479 
L 37.951108 32.937309 
L 38.008776 28.673281 
L 38.124114 15.92006 
L 38.179037 19.920341 
L 38.294374 32.870044 
L 38.352043 28.770632 
L 38.46738 15.984148 
L 38.525049 20.186525 
L 38.640387 32.80834 
L 38.695309 28.86702 
L 38.813393 16.049459 
L 38.868316 20.087337 
L 38.983653 32.746082 
L 39.041322 28.607142 
L 39.156659 16.108585 
L 39.214328 20.346526 
L 39.329666 32.683513 
L 39.384588 28.707934 
L 39.499926 16.169211 
L 39.557595 20.243089 
L 39.672932 32.625969 
L 39.730601 28.454709 
L 39.845938 16.229052 
L 39.900861 20.140908 
L 40.016199 32.566791 
L 40.073867 28.559452 
L 40.189205 16.285196 
L 40.246874 20.388411 
L 40.362211 32.509662 
L 40.417134 28.662826 
L 40.532471 16.343102 
L 40.59014 20.282551 
L 40.705478 32.454744 
L 40.763146 28.42082 
L 40.878484 16.397538 
L 40.933407 20.178168 
L 41.048744 32.397948 
L 41.106413 28.52762 
L 41.22175 16.451392 
L 41.279419 20.414885 
L 41.394757 32.346184 
L 41.449679 28.632844 
L 41.567763 16.506302 
L 41.622686 20.307308 
L 41.738023 32.293242 
L 41.795692 28.401222 
L 41.911029 16.556345 
L 41.968698 20.538552 
L 42.084036 32.241045 
L 42.138958 28.509425 
L 42.254296 16.608519 
L 42.311965 20.428107 
L 42.427302 32.191727 
L 42.484971 28.283034 
L 42.600309 16.658028 
L 42.655231 20.319418 
L 42.770569 32.140185 
L 42.828237 28.393912 
L 42.943575 16.706756 
L 43.001244 20.541122 
L 43.116581 32.093338 
L 43.17425 28.172507 
L 43.289588 16.756517 
L 43.34451 20.429938 
L 43.459848 32.045074 
L 43.517516 28.285784 
L 43.632854 16.802006 
L 43.690523 20.646867 
L 43.80586 31.998 
L 43.860783 28.397157 
L 43.97612 16.849924 
L 44.033789 20.533444 
L 44.149127 31.952817 
L 44.206796 28.184563 
L 44.322133 16.894341 
L 44.377056 20.421992 
L 44.495139 31.905633 
L 44.550062 28.298025 
L 44.6654 16.939329 
L 44.723068 20.630385 
L 44.838406 31.863343 
L 44.896075 28.089805 
L 45.011412 16.98384 
L 45.066335 20.516984 
L 45.181672 31.818445 
L 45.239341 28.205137 
L 45.354679 17.026077 
L 45.412347 20.721175 
L 45.527685 31.776576 
L 45.582607 28.318383 
L 45.700691 17.070583 
L 45.755614 20.60603 
L 45.870951 31.734295 
L 45.92862 28.118107 
L 46.043958 17.11024 
L 46.101626 20.806196 
L 46.216964 31.69244 
L 46.271887 28.232979 
L 46.387224 17.152658 
L 46.444893 20.689495 
L 46.56023 31.652612 
L 46.617899 28.036575 
L 46.733237 17.191893 
L 46.788159 20.574977 
L 46.906243 31.610855 
L 46.961166 28.152896 
L 47.076503 17.231977 
L 47.134172 20.767717 
L 47.249509 31.573325 
L 47.307178 27.960207 
L 47.422516 17.271111 
L 47.477438 20.65185 
L 47.592776 31.532904 
L 47.650445 28.077816 
L 47.765782 17.30901 
L 47.823451 20.84101 
L 47.938788 31.496362 
L 47.996457 27.888695 
L 48.111795 17.347972 
L 48.166717 20.723945 
L 48.282055 31.458017 
L 48.339724 28.007445 
L 48.455061 17.383827 
L 48.51273 20.909664 
L 48.628067 31.421647 
L 48.68299 28.1239 
L 48.801074 17.422554 
L 48.855996 20.791541 
L 48.971334 31.385246 
L 49.029003 27.941507 
L 49.14434 17.456498 
L 49.202009 20.973949 
L 49.317347 31.349107 
L 49.372269 28.058942 
L 49.487607 17.493512 
L 49.545275 20.854897 
L 49.660613 31.31452 
L 49.718282 27.879747 
L 49.833619 17.527094 
L 49.891288 21.034118 
L 50.006626 31.278669 
L 50.061548 27.998041 
L 50.176886 17.562384 
L 50.234554 20.914255 
L 50.349892 31.245776 
L 50.407561 27.821928 
L 50.522898 17.595684 
L 50.577821 20.796772 
L 50.695905 31.21026 
L 50.750827 27.940968 
L 50.866165 17.629367 
L 50.923834 20.969839 
L 51.039171 31.178944 
L 51.09684 27.767828 
L 51.212177 17.662338 
L 51.2671 20.851671 
L 51.382438 31.144417 
L 51.440106 27.887511 
L 51.555444 17.694524 
L 51.613113 21.021859 
L 51.72845 31.113961 
L 51.786119 27.71724 
L 51.901456 17.727123 
L 51.956379 20.903104 
L 52.071717 31.080852 
L 52.129385 27.837471 
L 52.244723 17.757919 
L 52.302392 21.070511 
L 52.417729 31.05076 
L 52.475398 27.669971 
L 52.590735 17.790108 
L 52.645658 20.951259 
L 52.760996 31.01897 
L 52.818664 27.790662 
L 52.934002 17.819612 
L 52.991671 21.115978 
L 53.107008 30.989278 
L 53.161931 27.908892 
L 53.280014 17.851356 
L 53.334937 20.996314 
L 53.450275 30.95871 
L 53.507943 27.746909 
L 53.623281 17.879665 
L 53.68095 21.158433 
L 53.796287 30.929453 
L 53.85121 27.865507 
L 53.969294 17.910932 
L 54.024216 21.038434 
L 54.139554 30.900016 
L 54.197222 27.70605 
L 54.31256 17.938137 
L 54.370229 21.198035 
L 54.485566 30.871224 
L 54.540489 27.824942 
L 54.655826 17.968741 
L 54.713495 21.077774 
L 54.828833 30.84283 
L 54.886501 27.667933 
L 55.001839 17.995087 
L 55.059508 21.234936 
L 55.174845 30.81453 
L 55.229768 27.787048 
L 55.345105 18.024706 
L 55.402774 21.114479 
L 55.518112 30.787096 
L 55.575781 27.632411 
L 55.691118 18.050571 
L 55.748787 21.269276 
L 55.864124 30.759314 
L 55.919047 27.751688 
L 56.034385 18.079285 
L 56.092053 21.148687 
L 56.207391 30.73276 
L 56.26506 27.599353 
L 56.380397 18.104644 
L 56.438066 21.30119 
L 56.553403 30.705519 
L 56.608326 27.71873 
L 56.723664 18.13253 
L 56.781332 21.180525 
L 56.89667 30.679771 
L 56.954339 27.56863 
L 57.069676 18.157361 
L 57.127345 21.330802 
L 57.242682 30.653091 
L 57.297605 27.688051 
L 57.412943 18.184491 
L 57.470611 21.210116 
L 57.585949 30.628076 
L 57.643618 27.540122 
L 57.758955 18.208774 
L 57.816624 21.35823 
L 57.931961 30.601977 
L 57.986884 27.659538 
L 58.102222 18.235217 
L 58.15989 21.237573 
L 58.275228 30.577626 
L 58.332897 27.513719 
L 58.448234 18.258933 
L 58.505903 21.383584 
L 58.621241 30.552123 
L 58.676163 27.633078 
L 58.791501 18.284756 
L 58.849169 21.263004 
L 58.964507 30.528371 
L 59.022176 27.489313 
L 59.137513 18.307888 
L 59.195182 21.406969 
L 59.31052 30.503482 
L 59.365442 27.608572 
L 59.48078 18.333153 
L 59.538448 21.286508 
L 59.653786 30.480267 
L 59.711455 27.466805 
L 59.826792 18.355686 
L 59.884461 21.428483 
L 59.999799 30.456004 
L 60.054721 27.585922 
L 60.170059 18.380454 
L 60.227728 21.308184 
L 60.343065 30.433266 
L 60.400734 27.446101 
L 60.516071 18.402374 
L 60.57374 21.44822 
L 60.689078 30.409643 
L 60.744 27.565036 
L 60.859338 18.426701 
L 60.917007 21.32812 
L 61.032344 30.387324 
L 61.090013 27.427112 
L 61.20535 18.447996 
L 61.263019 21.466267 
L 61.378357 30.364353 
L 61.433279 27.545827 
L 61.548617 18.471939 
L 61.606286 21.346403 
L 61.721623 30.342399 
L 61.779292 27.409752 
L 61.894629 18.492597 
L 61.952298 21.482707 
L 62.067636 30.320089 
L 62.122558 27.528212 
L 62.237896 18.516207 
L 62.295565 21.363112 
L 62.410902 30.298449 
L 62.468571 27.393943 
L 62.583908 18.536217 
L 62.641577 21.49762 
L 62.756915 30.276811 
L 62.811837 27.512116 
L 62.929921 18.559469 
L 62.984844 21.378326 
L 63.100181 30.255434 
L 63.15785 27.379609 
L 63.273188 18.578897 
L 63.330856 21.511078 
L 63.446194 30.234476 
L 63.501116 27.497464 
L 63.6192 18.601447 
L 63.674123 21.392116 
L 63.78946 30.213315 
L 63.847129 27.366677 
L 63.962467 18.620678 
L 64.020135 21.523154 
L 64.135473 30.193045 
L 64.190396 27.484186 
L 64.308479 18.642519 
L 64.363402 21.404551 
L 64.478739 30.172054 
L 64.536408 27.355082 
L 64.651746 18.661596 
L 64.709414 21.533914 
L 64.824752 30.152479 
L 64.879675 27.472216 
L 64.997758 18.682721 
L 65.055427 21.663738 
L 65.168018 30.131616 
L 65.225687 27.344757 
L 65.341025 18.701689 
L 65.398693 21.543422 
L 65.514031 30.112741 
L 65.5717 27.216785 
L 65.687037 18.722093 
L 65.74196 21.425616 
L 65.857297 30.091964 
L 65.914966 27.335642 
L 66.030304 18.740992 
L 66.087972 21.551737 
L 66.20331 30.073796 
L 66.260979 27.209265 
L 66.376316 18.760671 
L 66.431239 21.434366 
L 66.546576 30.053064 
L 66.604245 27.327678 
L 66.719583 18.77954 
L 66.777252 21.558918 
L 66.892589 30.03561 
L 66.950258 27.202864 
L 67.065595 18.798487 
L 67.120518 21.442004 
L 67.238602 30.015182 
L 67.293524 27.32081 
L 67.408862 18.817365 
L 67.466531 21.565018 
L 67.581868 29.998148 
L 67.639537 27.197527 
L 67.754874 18.835578 
L 67.809797 21.448582 
L 67.927881 29.978472 
L 67.982803 27.314987 
L 68.098141 18.8545 
L 68.15581 21.57009 
L 68.271147 29.961378 
L 68.328816 27.193203 
L 68.444153 18.871974 
L 68.501822 21.692132 
L 68.61716 29.942457 
L 68.672082 27.310157 
L 68.78742 18.890976 
L 68.845089 21.574183 
L 68.960426 29.925269 
L 69.018095 27.189844 
L 69.133432 18.907709 
L 69.191101 21.694762 
L 69.306439 29.907105 
L 69.361361 27.306272 
L 69.476699 18.926822 
L 69.534368 21.577345 
L 69.649705 29.88979 
L 69.707374 27.187402 
L 69.822712 18.942811 
L 69.88038 21.696488 
L 69.995718 29.872387 
L 70.05064 27.303288 
L 70.168724 18.961618 
L 70.223647 21.579619 
L 70.338984 29.854913 
L 70.396653 27.185833 
L 70.511991 18.977312 
L 70.569659 21.697354 
L 70.684997 29.838271 
L 70.739919 27.301159 
L 70.858003 18.995342 
L 70.912926 21.581051 
L 71.028263 29.820609 
L 71.085932 27.185096 
L 71.20127 19.011238 
L 71.258938 21.697401 
L 71.374276 29.80473 
L 71.431945 27.068474 
L 71.547282 19.02849 
L 71.602205 21.581679 
L 71.717542 29.786851 
L 71.775211 27.185149 
L 71.890549 19.044616 
L 71.948217 21.69667 
L 72.063555 29.771737 
L 72.121224 27.06988 
L 72.236561 19.06109 
L 72.291484 21.581543 
L 72.409568 29.753913 
L 72.46449 27.185955 
L 72.579828 19.077475 
L 72.637496 21.695198 
L 72.752834 29.739265 
L 72.810503 27.072015 
L 72.92584 19.09317 
L 72.980763 21.580681 
L 73.098847 29.722234 
L 73.153769 27.187476 
L 73.269107 19.109839 
L 73.326775 21.693021 
L 73.442113 29.707288 
L 73.499782 27.074843 
L 73.615119 19.124754 
L 73.672788 21.80593 
L 73.788126 29.691049 
L 73.843048 27.189677 
L 73.958386 19.141732 
L 74.016055 21.690175 
L 74.131392 29.675781 
L 74.189061 27.078331 
L 74.304398 19.155868 
L 74.362067 21.801805 
L 74.477405 29.660334 
L 74.532327 27.192524 
L 74.650411 19.172616 
L 74.705334 21.686694 
L 74.820671 29.64472 
L 74.87834 27.082444 
L 74.993677 19.186536 
L 75.051346 21.797064 
L 75.166684 29.630066 
L 75.224352 26.971798 
L 75.33969 19.20248 
L 75.394613 21.682607 
L 75.50995 29.614082 
L 75.567619 27.087152 
L 75.682956 19.21678 
L 75.740625 21.791738 
L 75.855963 29.600219 
L 75.913631 26.977738 
L 76.028969 19.231921 
L 76.083892 21.677948 
L 76.199229 29.583845 
L 76.256898 27.092424 
L 76.372235 19.246625 
L 76.429904 21.785857 
L 76.545242 29.570773 
L 76.602911 26.984225 
L 76.718248 19.260964 
L 76.773171 21.672744 
L 76.825347 26.367351 
L 76.825347 26.367351 
" clip-path="url(#p9eb799e7ed)" style="fill: none; stroke: #b3c8cd; stroke-width: 0.05; stroke-linecap: square"/>
   </g>
   <g id="line2d_8">
    <path d="M 24.096873 17.67426 
L 24.209465 39.293364 
L 24.264388 32.334453 
L 24.382471 9.532611 
L 24.44014 17.239744 
L 24.552731 39.289869 
L 24.6104 32.119509 
L 24.725738 9.531935 
L 24.783406 16.813052 
L 24.898744 39.293695 
L 24.956413 31.902345 
L 25.07175 9.530252 
L 25.129419 17.031302 
L 25.244757 39.293234 
L 25.299679 32.322921 
L 25.417763 9.532856 
L 25.475432 17.251679 
L 25.588023 39.290189 
L 25.645692 32.107856 
L 25.761029 9.53173 
L 25.818698 16.824764 
L 25.934036 39.293783 
L 25.991704 31.890574 
L 26.107042 9.530279 
L 26.164711 17.043131 
L 26.280048 39.293091 
L 26.334971 32.311384 
L 26.453054 9.533114 
L 26.507977 16.620181 
L 26.623315 39.290496 
L 26.680983 32.096197 
L 26.796321 9.531539 
L 26.85399 16.836482 
L 26.969327 39.293859 
L 27.026996 31.878797 
L 27.142333 9.530318 
L 27.200002 17.054965 
L 27.31534 39.292936 
L 27.370262 32.299839 
L 27.488346 9.533385 
L 27.543269 16.631786 
L 27.658606 39.290791 
L 27.716275 32.084532 
L 27.831613 9.531359 
L 27.889281 16.848207 
L 28.004619 39.293923 
L 28.062288 31.867014 
L 28.177625 9.53037 
L 28.235294 17.066806 
L 28.350631 39.292769 
L 28.405554 32.288288 
L 28.523638 9.533668 
L 28.57856 16.643398 
L 28.693898 39.291073 
L 28.751567 32.07286 
L 28.866904 9.531192 
L 28.924573 16.859938 
L 29.03991 39.293974 
L 29.097579 31.855225 
L 29.212917 9.530434 
L 29.270586 17.078652 
L 29.385923 39.292589 
L 29.440846 32.276731 
L 29.558929 9.533963 
L 29.613852 16.655016 
L 29.729189 39.291343 
L 29.786858 32.061182 
L 29.902196 9.531038 
L 29.959865 16.871675 
L 30.075202 39.294013 
L 30.132871 31.843429 
L 30.248208 9.530511 
L 30.305877 17.090505 
L 30.421215 39.292397 
L 30.476137 32.265166 
L 30.594221 9.534271 
L 30.649144 16.666641 
L 30.764481 39.291601 
L 30.82215 32.049497 
L 30.937487 9.530896 
L 30.995156 16.883419 
L 31.110494 39.29404 
L 31.168162 31.831628 
L 31.2835 9.530601 
L 31.338423 16.463605 
L 31.456506 39.292192 
L 31.514175 31.611621 
L 31.629513 9.534592 
L 31.684435 16.678273 
L 31.799773 39.291846 
L 31.857442 32.037806 
L 31.972779 9.530767 
L 32.030448 16.895169 
L 32.145785 39.294053 
L 32.203454 31.81982 
L 32.318792 9.530702 
L 32.373714 16.475121 
L 32.491798 39.291974 
L 32.549467 31.599699 
L 32.662058 9.534769 
L 32.719727 16.689911 
L 32.835064 39.292078 
L 32.892733 32.026108 
L 33.008071 9.53065 
L 33.065739 16.906925 
L 33.181077 39.294055 
L 33.238746 31.808005 
L 33.354083 9.530816 
L 33.409006 16.486643 
L 33.52709 39.291745 
L 33.584758 31.587772 
L 33.69735 9.534434 
L 33.755018 16.701555 
L 33.870356 39.292298 
L 33.928025 32.014405 
L 34.043362 9.530545 
L 34.101031 16.918687 
L 34.216369 39.294044 
L 34.274037 31.796185 
L 34.389375 9.530943 
L 34.444298 16.498173 
L 34.562381 39.291502 
L 34.62005 31.575838 
L 34.732641 9.53411 
L 34.79031 16.713206 
L 34.905648 39.292506 
L 34.963316 32.002694 
L 35.078654 9.530453 
L 35.136323 16.930456 
L 35.25166 39.29402 
L 35.309329 31.784358 
L 35.424667 9.531082 
L 35.479589 16.509709 
L 35.597673 39.291248 
L 35.652595 32.207247 
L 35.767933 9.5338 
L 35.825602 16.724863 
L 35.940939 39.292701 
L 35.998608 31.990978 
L 36.113946 9.530373 
L 36.171614 16.942231 
L 36.286952 39.293984 
L 36.344621 31.772526 
L 36.459958 9.531234 
L 36.514881 16.521251 
L 36.632964 39.290981 
L 36.687887 32.195643 
L 36.803225 9.533501 
L 36.860893 16.736527 
L 36.976231 39.292884 
L 37.0339 31.979255 
L 37.149237 9.530306 
L 37.206906 16.954013 
L 37.322243 39.293936 
L 37.379912 31.760687 
L 37.49525 9.531398 
L 37.550172 16.532801 
L 37.668256 39.290701 
L 37.723179 32.184033 
L 37.838516 9.533216 
L 37.896185 16.748197 
L 38.011523 39.293054 
L 38.069191 31.967525 
L 38.184529 9.530252 
L 38.242198 16.9658 
L 38.357535 39.293875 
L 38.415204 31.748842 
L 38.530541 9.531574 
L 38.585464 16.544357 
L 38.703548 39.290409 
L 38.75847 32.172416 
L 38.873808 9.532942 
L 38.931477 16.759873 
L 39.046814 39.293212 
L 39.104483 31.95579 
L 39.21982 9.530209 
L 39.277489 16.977594 
L 39.392827 39.293801 
L 39.450496 31.73699 
L 39.565833 9.531763 
L 39.620756 16.555919 
L 39.738839 39.290104 
L 39.793762 32.160793 
L 39.909099 9.532681 
L 39.966768 16.771556 
L 40.082106 39.293357 
L 40.139775 31.944048 
L 40.255112 9.53018 
L 40.312781 16.989394 
L 40.428118 39.293716 
L 40.483041 32.363799 
L 40.601125 9.531965 
L 40.658793 17.209371 
L 40.774131 39.289787 
L 40.829054 32.149164 
L 40.944391 9.532433 
L 41.00206 16.783246 
L 41.117397 39.29349 
L 41.175066 31.9323 
L 41.290404 9.530162 
L 41.348072 17.001201 
L 41.46341 39.293617 
L 41.518333 32.352285 
L 41.636416 9.532179 
L 41.694085 17.221291 
L 41.809423 39.289458 
L 41.864345 32.137528 
L 41.979683 9.532197 
L 42.037352 16.794941 
L 42.152689 39.29361 
L 42.210358 31.920545 
L 42.325695 9.530158 
L 42.383364 17.013013 
L 42.498702 39.293507 
L 42.553624 32.340764 
L 42.671708 9.532405 
L 42.729377 17.233216 
L 42.841968 39.289767 
L 42.899637 32.125885 
L 43.014974 9.531974 
L 43.072643 16.806644 
L 43.187981 39.293718 
L 43.245649 31.908784 
L 43.360987 9.530165 
L 43.418656 17.024832 
L 43.533993 39.293383 
L 43.588916 32.329236 
L 43.707 9.532644 
L 43.764668 17.245148 
L 43.87726 39.290093 
L 43.934928 32.114236 
L 44.050266 9.531763 
L 44.107935 16.818352 
L 44.223272 39.293814 
L 44.280941 31.897017 
L 44.396279 9.530185 
L 44.453947 17.036657 
L 44.569285 39.293248 
L 44.624208 32.317702 
L 44.742291 9.532895 
L 44.797214 16.61383 
L 44.912551 39.290408 
L 44.97022 32.10258 
L 45.085558 9.531564 
L 45.143226 16.830067 
L 45.258564 39.293897 
L 45.316233 31.885244 
L 45.43157 9.530218 
L 45.489239 17.048488 
L 45.604577 39.293099 
L 45.659499 32.306161 
L 45.777583 9.533159 
L 45.832505 16.625432 
L 45.947843 39.290709 
L 46.005512 32.090919 
L 46.120849 9.531378 
L 46.178518 16.841788 
L 46.293856 39.293967 
L 46.351524 31.873464 
L 46.466862 9.530263 
L 46.524531 17.060325 
L 46.639868 39.292939 
L 46.694791 32.294614 
L 46.812874 9.533435 
L 46.867797 16.63704 
L 46.983135 39.290998 
L 47.040803 32.07925 
L 47.156141 9.531204 
L 47.21381 16.853516 
L 47.329147 39.294025 
L 47.386816 31.861678 
L 47.502153 9.530321 
L 47.559822 17.072169 
L 47.67516 39.292766 
L 47.730082 32.28306 
L 47.848166 9.533724 
L 47.903089 16.648655 
L 48.018426 39.291275 
L 48.076095 32.067575 
L 48.191433 9.531043 
L 48.249101 16.86525 
L 48.364439 39.294071 
L 48.422108 31.849886 
L 48.537445 9.530391 
L 48.595114 17.084019 
L 48.710451 39.29258 
L 48.765374 32.271499 
L 48.883458 9.534025 
L 48.93838 16.660276 
L 49.053718 39.291539 
L 49.111387 32.055894 
L 49.226724 9.530894 
L 49.284393 16.87699 
L 49.39973 39.294104 
L 49.457399 31.838087 
L 49.572737 9.530473 
L 49.630406 17.095874 
L 49.745743 39.292382 
L 49.800666 32.259932 
L 49.918749 9.534338 
L 49.973672 16.671904 
L 50.08901 39.291791 
L 50.146678 32.044206 
L 50.262016 9.530758 
L 50.319685 16.888737 
L 50.435022 39.294125 
L 50.492691 31.826282 
L 50.608028 9.530568 
L 50.662951 16.468814 
L 50.781035 39.292171 
L 50.838703 31.606223 
L 50.954041 9.534664 
L 51.008964 16.683539 
L 51.124301 39.292031 
L 51.18197 32.032512 
L 51.297307 9.530634 
L 51.354976 16.90049 
L 51.470314 39.294133 
L 51.527982 31.814472 
L 51.64332 9.530675 
L 51.698243 16.480333 
L 51.816326 39.291949 
L 51.873995 31.594299 
L 51.986586 9.534537 
L 52.044255 16.695179 
L 52.159593 39.292258 
L 52.217262 32.020812 
L 52.332599 9.530523 
L 52.390268 16.912249 
L 52.505605 39.294129 
L 52.563274 31.802654 
L 52.678612 9.530795 
L 52.733534 16.491859 
L 52.851618 39.291713 
L 52.909287 31.582368 
L 53.021878 9.534207 
L 53.079547 16.706827 
L 53.194884 39.292472 
L 53.252553 32.009105 
L 53.367891 9.530424 
L 53.425559 16.924014 
L 53.540897 39.294112 
L 53.598566 31.790831 
L 53.713903 9.530928 
L 53.768826 16.503391 
L 53.88691 39.291465 
L 53.944578 31.570432 
L 54.05717 9.53389 
L 54.114838 16.718481 
L 54.230176 39.292674 
L 54.287845 31.997392 
L 54.403182 9.530338 
L 54.460851 16.935786 
L 54.576189 39.294083 
L 54.633857 31.779002 
L 54.749195 9.531072 
L 54.804118 16.51493 
L 54.922201 39.291205 
L 54.977124 32.201997 
L 55.092461 9.533585 
L 55.15013 16.730141 
L 55.265468 39.292863 
L 55.323136 31.985672 
L 55.438474 9.530264 
L 55.496143 16.947564 
L 55.61148 39.294041 
L 55.669149 31.767166 
L 55.784487 9.53123 
L 55.839409 16.526476 
L 55.957493 39.290932 
L 56.012415 32.19039 
L 56.127753 9.533292 
L 56.185422 16.741807 
L 56.300759 39.29304 
L 56.358428 31.973946 
L 56.473766 9.530202 
L 56.531434 16.959348 
L 56.646772 39.293987 
L 56.704441 31.755324 
L 56.819778 9.531399 
L 56.874701 16.538028 
L 56.992784 39.290647 
L 57.047707 32.178777 
L 57.163045 9.533012 
L 57.220713 16.753481 
L 57.336051 39.293205 
L 57.39372 31.962214 
L 57.509057 9.530153 
L 57.566726 16.971139 
L 57.682064 39.29392 
L 57.739732 31.743476 
L 57.85507 9.531582 
L 57.909992 16.549587 
L 58.028076 39.290349 
L 58.082999 32.167157 
L 58.198336 9.532744 
L 58.256005 16.76516 
L 58.371343 39.293357 
L 58.429011 31.950475 
L 58.544349 9.530117 
L 58.602018 16.982936 
L 58.717355 39.293841 
L 58.775024 31.731622 
L 58.890361 9.531776 
L 58.945284 16.561153 
L 59.063368 39.290039 
L 59.11829 32.155531 
L 59.233628 9.532489 
L 59.291297 16.776846 
L 59.406634 39.293497 
L 59.464303 31.938731 
L 59.57964 9.530093 
L 59.637309 16.994739 
L 59.752647 39.29375 
L 59.807569 32.358591 
L 59.925653 9.531983 
L 59.983322 17.214768 
L 60.098659 39.289716 
L 60.153582 32.143899 
L 60.26892 9.532247 
L 60.326588 16.788538 
L 60.441926 39.293624 
L 60.499595 31.926979 
L 60.614932 9.530081 
L 60.672601 17.006548 
L 60.787938 39.293646 
L 60.842861 32.347073 
L 60.960945 9.532203 
L 61.018613 17.226691 
L 61.131205 39.289661 
L 61.188874 32.13226 
L 61.304211 9.532016 
L 61.36188 16.800237 
L 61.477217 39.293739 
L 61.534886 31.915222 
L 61.650224 9.530082 
L 61.707892 17.018363 
L 61.82323 39.293529 
L 61.878153 32.335549 
L 61.996236 9.532435 
L 62.053905 17.238619 
L 62.166496 39.289995 
L 62.224165 32.120614 
L 62.339503 9.531798 
L 62.397172 16.811942 
L 62.512509 39.293841 
L 62.570178 31.903458 
L 62.685515 9.530096 
L 62.743184 17.030185 
L 62.858522 39.2934 
L 62.913444 32.324019 
L 63.031528 9.532679 
L 63.089197 17.250554 
L 63.201788 39.290316 
L 63.259457 32.108962 
L 63.374794 9.531593 
L 63.432463 16.823654 
L 63.547801 39.293931 
L 63.605469 31.891688 
L 63.720807 9.530121 
L 63.778476 17.042013 
L 63.893813 39.293259 
L 63.948736 32.312481 
L 64.06682 9.532936 
L 64.121742 16.619079 
L 64.23708 39.290624 
L 64.294749 32.097303 
L 64.410086 9.5314 
L 64.467755 16.835372 
L 64.583092 39.294008 
L 64.640761 31.879912 
L 64.756099 9.53016 
L 64.813767 17.053847 
L 64.929105 39.293105 
L 64.984028 32.300937 
L 65.102111 9.533206 
L 65.157034 16.630684 
L 65.272371 39.29092 
L 65.33004 32.085638 
L 65.445378 9.53122 
L 65.503046 16.847096 
L 65.618384 39.294073 
L 65.676053 31.868129 
L 65.79139 9.53021 
L 65.849059 17.065687 
L 65.964397 39.292939 
L 66.019319 32.289387 
L 66.137403 9.533488 
L 66.192325 16.642295 
L 66.307663 39.291204 
L 66.365332 32.073967 
L 66.480669 9.531052 
L 66.538338 16.858826 
L 66.653676 39.294125 
L 66.711344 31.85634 
L 66.826682 9.530274 
L 66.884351 17.077533 
L 66.999688 39.29276 
L 67.054611 32.27783 
L 67.172694 9.533782 
L 67.227617 16.653913 
L 67.342955 39.291475 
L 67.400623 32.062289 
L 67.515961 9.530896 
L 67.57363 16.870563 
L 67.688967 39.294165 
L 67.746636 31.844545 
L 67.861974 9.530349 
L 67.919642 17.089386 
L 68.03498 39.292569 
L 68.089902 32.266266 
L 68.207986 9.534089 
L 68.262909 16.665538 
L 68.378246 39.291733 
L 68.435915 32.050605 
L 68.551253 9.530753 
L 68.608921 16.882307 
L 68.724259 39.294192 
L 68.781928 31.832744 
L 68.897265 9.530437 
L 68.952188 16.462509 
L 69.070271 39.292365 
L 69.12794 31.612745 
L 69.243278 9.534408 
L 69.2982 16.677168 
L 69.413538 39.291979 
L 69.471207 32.038914 
L 69.586544 9.530623 
L 69.644213 16.894056 
L 69.75955 39.294207 
L 69.817219 31.820936 
L 69.932557 9.530538 
L 69.987479 16.474024 
L 70.105563 39.292149 
L 70.163232 31.600824 
L 70.275823 9.534645 
L 70.333492 16.688806 
L 70.44883 39.292213 
L 70.506498 32.027217 
L 70.621836 9.530505 
L 70.679505 16.905812 
L 70.794842 39.29421 
L 70.852511 31.809122 
L 70.967848 9.530651 
L 71.022771 16.485547 
L 71.140855 39.29192 
L 71.198523 31.588896 
L 71.311115 9.534308 
L 71.368784 16.70045 
L 71.484121 39.292434 
L 71.54179 32.015514 
L 71.657127 9.530399 
L 71.714796 16.917574 
L 71.830134 39.2942 
L 71.887803 31.797302 
L 72.00314 9.530777 
L 72.058063 16.497076 
L 72.176146 39.291679 
L 72.233815 31.576963 
L 72.346406 9.533984 
L 72.404075 16.7121 
L 72.519413 39.292643 
L 72.577082 32.003804 
L 72.692419 9.530306 
L 72.750088 16.929342 
L 72.865425 39.294178 
L 72.923094 31.785476 
L 73.038432 9.530915 
L 73.093354 16.508611 
L 73.211438 39.291425 
L 73.266361 32.208349 
L 73.381698 9.533672 
L 73.439367 16.723757 
L 73.554704 39.292839 
L 73.612373 31.992088 
L 73.727711 9.530225 
L 73.785379 16.941117 
L 73.900717 39.294143 
L 73.958386 31.773644 
L 74.073723 9.531065 
L 74.128646 16.520153 
L 74.24673 39.291159 
L 74.301652 32.196746 
L 74.41699 9.533373 
L 74.474659 16.73542 
L 74.589996 39.293023 
L 74.647665 31.980365 
L 74.763002 9.530157 
L 74.820671 16.952898 
L 74.936009 39.294095 
L 74.993677 31.761805 
L 75.109015 9.531228 
L 75.163938 16.531702 
L 75.282021 39.290881 
L 75.336944 32.185136 
L 75.452281 9.533086 
L 75.50995 16.74709 
L 75.625288 39.293194 
L 75.682956 31.968637 
L 75.798294 9.530101 
L 75.855963 16.964685 
L 75.9713 39.294035 
L 76.028969 31.74996 
L 76.144307 9.531404 
L 76.199229 16.543258 
L 76.317313 39.29059 
L 76.372235 32.17352 
L 76.487573 9.532811 
L 76.545242 16.758766 
L 76.660579 39.293353 
L 76.718248 31.956901 
L 76.825347 9.702534 
L 76.825347 9.702534 
" clip-path="url(#p9eb799e7ed)" style="fill: none; stroke: #b3c8cd; stroke-opacity: 0.6; stroke-width: 0.05; stroke-linecap: square"/>
   </g>
   <g id="patch_13">
    <path d="M 24.099592 40.782205 
L 24.099592 8.042047 
" style="fill: none; stroke: #ffffff; stroke-width: 0.5; stroke-linejoin: miter; stroke-linecap: square"/>
   </g>
   <g id="patch_14">
    <path d="M 76.824002 40.782205 
L 76.824002 8.042047 
" style="fill: none; stroke: #ffffff; stroke-width: 0.5; stroke-linejoin: miter; stroke-linecap: square"/>
   </g>
   <g id="patch_15">
    <path d="M 24.099592 40.782205 
L 76.824002 40.782205 
" style="fill: none; stroke: #ffffff; stroke-width: 0.5; stroke-linejoin: miter; stroke-linecap: square"/>
   </g>
   <g id="patch_16">
    <path d="M 24.099592 8.042047 
L 76.824002 8.042047 
" style="fill: none; stroke: #ffffff; stroke-width: 0.5; stroke-linejoin: miter; stroke-linecap: square"/>
   </g>
  </g>
 </g>
 <defs>
  <clipPath id="p90e40d9a49">
   <rect x="6.524789" y="8.042047" width="17.574803" height="32.740157"/>
  </clipPath>
  <clipPath id="p1ea4d0f136">
   <rect x="76.824002" y="8.042047" width="17.574803" height="32.740157"/>
  </clipPath>
  <clipPath id="p9eb799e7ed">
   <rect x="24.099592" y="8.042047" width="52.724409" height="32.740157"/>
  </clipPath>
 </defs>
</svg>
