<?xml version="1.0" encoding="utf-8" standalone="no"?>
<!DOCTYPE svg PUBLIC "-//W3C//DTD SVG 1.1//EN"
  "http://www.w3.org/Graphics/SVG/1.1/DTD/svg11.dtd">
<svg xmlns:xlink="http://www.w3.org/1999/xlink" width="13.644724pt" height="88.747087pt" viewBox="0 0 13.644724 88.747087" xmlns="http://www.w3.org/2000/svg" version="1.1">
 <metadata>
  <rdf:RDF xmlns:dc="http://purl.org/dc/elements/1.1/" xmlns:cc="http://creativecommons.org/ns#" xmlns:rdf="http://www.w3.org/1999/02/22-rdf-syntax-ns#">
   <cc:Work>
    <dc:type rdf:resource="http://purl.org/dc/dcmitype/StillImage"/>
    <dc:date>2025-03-01T21:56:55.794820</dc:date>
    <dc:format>image/svg+xml</dc:format>
    <dc:creator>
     <cc:Agent>
      <dc:title>Matplotlib v3.7.5, https://matplotlib.org/</dc:title>
     </cc:Agent>
    </dc:creator>
   </cc:Work>
  </rdf:RDF>
 </metadata>
 <defs>
  <style type="text/css">*{stroke-linejoin: round; stroke-linecap: butt}</style>
 </defs>
 <g id="figure_1">
  <g id="patch_1">
   <path d="M 0 88.747087 
L 13.644724 88.747087 
L 13.644724 0 
L 0 0 
L 0 88.747087 
z
" style="fill: none"/>
  </g>
  <g id="axes_1">
   <g id="patch_2">
    <path d="M 0.72 37.097953 
L 12.924724 37.097953 
L 12.924724 0.72 
L 0.72 0.72 
L 0.72 37.097953 
z
" style="fill: none"/>
   </g>
   <g id="matplotlib.axis_1"/>
   <g id="matplotlib.axis_2"/>
   <g id="line2d_1">
    <path d="M 3.835768 36.755082 
L 4.269326 36.412211 
L 4.489907 36.183024 
L 5.180329 35.382689 
L 5.356629 35.038909 
L 5.487077 34.925225 
L 5.390925 34.810632 
L 5.816605 33.666517 
L 5.812141 33.43733 
L 5.999004 33.094459 
L 5.95028 32.865272 
L 6.120086 32.751588 
L 5.9892 32.407808 
L 6.162434 31.83575 
L 6.165954 31.607473 
L 6.237058 31.263693 
L 6.479415 27.717663 
L 6.393332 27.60307 
L 6.525013 27.145606 
L 6.607642 26.917328 
L 6.471346 26.688141 
L 6.562091 25.773213 
L 6.520273 25.201155 
L 6.615864 24.971969 
L 6.518564 24.743691 
L 6.579471 24.399911 
L 6.580743 24.171634 
L 6.627063 22.912925 
L 6.546073 22.798331 
L 6.685497 22.570054 
L 6.567582 22.340867 
L 6.625643 22.11259 
L 6.611443 21.311345 
L 6.696499 21.196752 
L 6.620321 20.968475 
L 6.618967 20.739288 
L 6.650351 20.281824 
L 6.658752 20.052637 
L 6.697844 19.480579 
L 6.62329 19.366895 
L 6.722945 19.137708 
L 6.57406 18.908522 
L 6.781869 18.680244 
L 6.597204 18.451057 
L 6.71971 17.993593 
L 6.565218 17.879 
L 6.741578 17.421536 
L 6.593082 17.193258 
L 6.698232 16.849478 
L 6.666225 16.506607 
L 6.717287 16.163736 
L 6.691495 15.705363 
L 6.711089 15.477085 
L 6.652318 15.362492 
L 6.781575 15.247899 
L 6.682178 14.905028 
L 6.753835 14.33297 
L 6.686935 13.990099 
L 6.728061 13.532635 
L 6.712514 13.188855 
L 6.721879 12.960578 
L 6.678189 12.731391 
L 6.781801 12.502204 
L 6.673913 12.04474 
L 6.743512 11.816462 
L 6.711792 11.587276 
L 6.716899 11.129811 
L 6.705763 10.900625 
L 6.748 10.672347 
L 6.724383 10.44316 
L 6.747962 9.299045 
L 6.709765 9.070768 
L 6.792952 8.841581 
L 6.655568 8.49871 
L 6.845014 8.269523 
L 6.631801 8.041246 
L 6.77202 7.812059 
L 6.707062 7.697466 
L 6.77327 7.583782 
L 6.701376 7.354595 
L 6.777751 7.011724 
L 6.779607 6.782537 
L 6.71804 6.55426 
L 6.782903 6.21048 
L 6.730866 5.982202 
L 6.74103 5.753016 
L 6.740441 5.524738 
L 6.764496 5.180958 
L 6.660873 5.066365 
L 6.805997 4.838087 
L 6.640961 4.723494 
L 6.681252 4.6089 
L 6.846244 4.494307 
L 6.716199 3.923159 
L 6.778602 3.693972 
L 6.730197 3.579379 
L 6.815838 3.464785 
L 6.758189 3.121914 
L 6.766136 2.892728 
L 6.66433 2.779044 
L 6.827061 2.435263 
L 6.66604 2.206986 
L 6.81081 2.092393 
L 6.729711 1.634928 
L 6.792889 1.520335 
L 6.71747 1.405742 
L 6.763606 1.177464 
L 6.763606 1.177464 
" clip-path="url(#p5614fe8655)" style="fill: none; stroke: #de8f5f; stroke-linecap: square"/>
   </g>
   <g id="patch_3">
    <path d="M 0.72 37.097953 
L 0.72 0.72 
" style="fill: none; stroke: #000000; stroke-width: 0.5; stroke-linejoin: miter; stroke-linecap: square"/>
   </g>
   <g id="patch_4">
    <path d="M 12.924724 37.097953 
L 12.924724 0.72 
" style="fill: none; stroke: #000000; stroke-width: 0.5; stroke-linejoin: miter; stroke-linecap: square"/>
   </g>
   <g id="patch_5">
    <path d="M 0.72 37.097953 
L 12.924724 37.097953 
" style="fill: none; stroke: #000000; stroke-width: 0.5; stroke-linejoin: miter; stroke-linecap: square"/>
   </g>
   <g id="patch_6">
    <path d="M 0.72 0.72 
L 12.924724 0.72 
" style="fill: none; stroke: #000000; stroke-width: 0.5; stroke-linejoin: miter; stroke-linecap: square"/>
   </g>
  </g>
  <g id="axes_2">
   <g id="patch_7">
    <path d="M 0.72 88.027087 
L 12.924724 88.027087 
L 12.924724 51.649134 
L 0.72 51.649134 
L 0.72 88.027087 
z
" style="fill: none"/>
   </g>
   <g id="matplotlib.axis_3"/>
   <g id="matplotlib.axis_4"/>
   <g id="line2d_2">
    <path d="M 12.432961 87.684216 
L 10.710723 86.654694 
L 10.118592 86.19723 
L 10.05328 85.968043 
L 9.703452 85.739766 
L 9.545688 85.395985 
L 9.299446 85.282301 
L 9.329521 85.053115 
L 9.179415 84.938521 
L 9.228335 84.823928 
L 8.98421 84.59565 
L 9.039671 84.481057 
L 8.787258 84.138186 
L 8.752344 83.908999 
L 8.552392 83.680722 
L 8.644264 83.566129 
L 8.460947 83.336942 
L 8.538311 83.222348 
L 8.262186 82.994071 
L 8.337263 82.764884 
L 8.160987 82.536607 
L 8.339594 82.422013 
L 8.232486 82.30742 
L 7.945208 82.192827 
L 8.087611 82.079143 
L 7.985149 81.849956 
L 8.163756 81.735362 
L 7.936901 81.507085 
L 7.923505 80.935027 
L 7.692661 80.820434 
L 7.734876 80.591247 
L 7.66597 80.477563 
L 7.890679 80.248376 
L 7.535211 79.905506 
L 7.692732 79.790912 
L 7.529216 79.561725 
L 7.754301 79.448041 
L 7.467969 79.218855 
L 7.622862 79.104261 
L 7.388002 78.875984 
L 7.612388 78.646797 
L 7.118207 78.532204 
L 7.414661 78.303926 
L 7.505518 77.846462 
L 7.269446 77.731869 
L 7.407548 77.502682 
L 7.289573 77.388088 
L 7.424572 77.274404 
L 7.110731 77.045218 
L 7.401756 76.816031 
L 7.071455 76.47316 
L 7.330648 76.358567 
L 7.133105 75.901102 
L 7.33216 75.786509 
L 7.052124 75.558232 
L 7.219844 75.214451 
L 6.956373 75.100767 
L 6.973324 74.986174 
L 7.208857 74.871581 
L 7.097543 74.643303 
L 7.280513 74.52871 
L 6.937836 74.18493 
L 7.086806 74.071246 
L 6.888514 73.956652 
L 7.228091 73.727465 
L 6.920629 73.499188 
L 7.087912 73.384595 
L 6.958558 73.270001 
L 7.016197 73.041724 
L 6.667263 72.92713 
L 7.004497 72.697944 
L 6.843744 72.355073 
L 7.085811 72.240479 
L 6.761037 72.125886 
L 7.052535 71.897609 
L 6.634727 71.783015 
L 7.120446 71.553828 
L 6.668758 71.325551 
L 6.771958 71.210958 
L 6.928857 71.096364 
L 6.797741 70.868087 
L 7.053874 70.6389 
L 6.578313 70.409713 
L 7.039641 70.181436 
L 7.13009 70.066842 
L 6.591969 69.837656 
L 6.917051 69.494785 
L 6.651323 69.380191 
L 6.832161 69.037321 
L 6.714606 68.808134 
L 6.799501 68.69445 
L 6.601209 68.579856 
L 6.835507 68.122392 
L 6.663405 67.893205 
L 6.927664 67.778612 
L 6.302161 67.550335 
L 6.944138 67.321148 
L 6.664378 67.09287 
L 6.939481 66.978277 
L 6.559329 66.74909 
L 6.665477 66.634497 
L 6.516168 66.520813 
L 6.593578 66.406219 
L 6.878719 66.291626 
L 6.555679 66.063349 
L 6.753291 65.834162 
L 6.650666 65.719568 
L 6.338121 65.604975 
L 6.949279 65.376698 
L 6.46791 65.262104 
L 6.515399 65.147511 
L 6.738691 64.919233 
L 6.519148 64.80464 
L 6.721838 64.575453 
L 6.451884 64.461769 
L 6.670971 64.232582 
L 6.468521 64.117989 
L 6.870105 63.775118 
L 6.343399 63.545931 
L 6.802062 63.431338 
L 6.424952 63.203061 
L 6.871691 63.088467 
L 6.291066 62.86019 
L 6.610065 62.745596 
L 6.508782 62.631003 
L 6.675119 62.401816 
L 6.529705 62.173539 
L 6.749864 62.058945 
L 6.321259 61.944352 
L 6.685667 61.716075 
L 6.479368 61.601481 
L 6.604838 61.486888 
L 6.459162 61.372294 
L 6.661022 61.25861 
L 6.467969 60.686553 
L 6.686705 60.457366 
L 6.215924 59.999902 
L 6.883041 59.770715 
L 6.540248 59.657031 
L 6.609609 59.542437 
L 6.500623 59.427844 
L 6.226257 59.313251 
L 6.649678 59.198657 
L 6.38277 58.855786 
L 6.619486 58.398322 
L 6.165716 58.169135 
L 6.735432 57.940858 
L 6.35915 57.711671 
L 6.629951 57.597078 
L 6.499423 57.483394 
L 6.168506 57.3688 
L 6.705313 57.139614 
L 6.404362 57.02502 
L 6.384227 56.796743 
L 6.355269 56.682149 
L 6.698514 56.567556 
L 6.185845 56.224685 
L 6.306758 56.110092 
L 6.674178 55.995498 
L 6.207476 55.881814 
L 6.363253 55.767221 
L 6.781743 55.652628 
L 6.232027 55.309757 
L 6.370675 55.195163 
L 6.446173 55.08057 
L 6.321097 54.965977 
L 6.601875 54.623106 
L 6.188145 54.508512 
L 6.206667 54.393919 
L 6.526198 54.280235 
L 6.433063 54.165642 
L 6.536644 53.936455 
L 6.335746 53.708177 
L 6.066695 53.593584 
L 6.711928 53.250713 
L 6.344069 53.13612 
L 6.355906 53.021526 
L 6.549043 52.906933 
L 6.186057 52.678656 
L 6.677421 52.334875 
L 6.249558 52.220282 
L 6.340563 52.106598 
L 6.340563 52.106598 
" clip-path="url(#p414d104361)" style="fill: none; stroke-dasharray: 3.7,1.6; stroke-dashoffset: 0; stroke: #811c35"/>
   </g>
   <g id="patch_8">
    <path d="M 0.72 88.027087 
L 0.72 51.649134 
" style="fill: none; stroke: #000000; stroke-width: 0.5; stroke-linejoin: miter; stroke-linecap: square"/>
   </g>
   <g id="patch_9">
    <path d="M 12.924724 88.027087 
L 12.924724 51.649134 
" style="fill: none; stroke: #000000; stroke-width: 0.5; stroke-linejoin: miter; stroke-linecap: square"/>
   </g>
   <g id="patch_10">
    <path d="M 0.72 88.027087 
L 12.924724 88.027087 
" style="fill: none; stroke: #000000; stroke-width: 0.5; stroke-linejoin: miter; stroke-linecap: square"/>
   </g>
   <g id="patch_11">
    <path d="M 0.72 51.649134 
L 12.924724 51.649134 
" style="fill: none; stroke: #000000; stroke-width: 0.5; stroke-linejoin: miter; stroke-linecap: square"/>
   </g>
  </g>
 </g>
 <defs>
  <clipPath id="p5614fe8655">
   <rect x="0.72" y="0.72" width="12.204724" height="36.377953"/>
  </clipPath>
  <clipPath id="p414d104361">
   <rect x="0.72" y="51.649134" width="12.204724" height="36.377953"/>
  </clipPath>
 </defs>
</svg>
