<?xml version="1.0" encoding="utf-8" standalone="no"?>
<!DOCTYPE svg PUBLIC "-//W3C//DTD SVG 1.1//EN"
  "http://www.w3.org/Graphics/SVG/1.1/DTD/svg11.dtd">
<svg xmlns:xlink="http://www.w3.org/1999/xlink" width="93.314016pt" height="35.778091pt" viewBox="0 0 93.314016 35.778091" xmlns="http://www.w3.org/2000/svg" version="1.1">
 <metadata>
  <rdf:RDF xmlns:dc="http://purl.org/dc/elements/1.1/" xmlns:cc="http://creativecommons.org/ns#" xmlns:rdf="http://www.w3.org/1999/02/22-rdf-syntax-ns#">
   <cc:Work>
    <dc:type rdf:resource="http://purl.org/dc/dcmitype/StillImage"/>
    <dc:date>2025-03-01T21:56:55.599180</dc:date>
    <dc:format>image/svg+xml</dc:format>
    <dc:creator>
     <cc:Agent>
      <dc:title>Matplotlib v3.7.5, https://matplotlib.org/</dc:title>
     </cc:Agent>
    </dc:creator>
   </cc:Work>
  </rdf:RDF>
 </metadata>
 <defs>
  <style type="text/css">*{stroke-linejoin: round; stroke-linecap: butt}</style>
 </defs>
 <g id="figure_1">
  <g id="patch_1">
   <path d="M 0 35.778091 
L 93.314016 35.778091 
L 93.314016 0 
L 0 0 
L 0 35.778091 
z
" style="fill: none"/>
  </g>
  <g id="axes_1"/>
  <g id="axes_2">
   <g id="patch_2">
    <path d="M 4.72 35.058091 
L 22.294803 35.058091 
L 22.294803 2.317933 
L 4.72 2.317933 
L 4.72 35.058091 
z
" style="fill: none"/>
   </g>
   <g id="matplotlib.axis_1"/>
   <g id="matplotlib.axis_2"/>
   <g id="matplotlib.axis_3"/>
   <g id="matplotlib.axis_4"/>
   <g id="line2d_1">
    <path d="M 4.72 3.806122 
L 4.851814 3.976561 
L 5.027567 4.72587 
L 5.335133 7.366734 
L 5.818453 14.122426 
L 6.960843 31.041656 
L 7.312348 33.185511 
L 7.488101 33.390597 
L 7.619915 33.151824 
L 7.839606 32.024884 
L 8.147172 29.060385 
L 8.67443 21.326899 
L 9.641068 7.051829 
L 9.992573 4.560436 
L 10.212263 4.14522 
L 10.344078 4.339069 
L 10.563768 5.385662 
L 10.871335 8.235293 
L 11.398592 15.803596 
L 12.365231 30.024518 
L 12.716735 32.589652 
L 12.936426 33.070986 
L 13.06824 32.922154 
L 13.243993 32.219128 
L 13.507621 30.152563 
L 13.947002 24.55079 
L 15.265146 6.077126 
L 15.572712 4.577067 
L 15.704527 4.463814 
L 15.748465 4.498433 
L 15.880279 4.818126 
L 16.09997 6.047885 
L 16.451474 9.618752 
L 17.066608 18.836124 
L 17.857494 29.867973 
L 18.208999 32.32839 
L 18.428689 32.765481 
L 18.560503 32.599582 
L 18.736256 31.885714 
L 19.043823 29.381895 
L 19.527142 22.98792 
L 20.669533 6.984059 
L 21.021037 4.957219 
L 21.19679 4.763297 
L 21.328604 4.988943 
L 21.548295 6.054194 
L 21.855861 8.857389 
L 22.295243 14.818812 
L 22.295243 14.818812 
" clip-path="url(#p92f0acc120)" style="fill: none; stroke: #b3c8cd; stroke-width: 0.2; stroke-linecap: square"/>
   </g>
   <g id="line2d_2">
    <path d="M 10.212263 4.333965 
L 32.313131 5.437592 
L 48.921735 6.121153 
L 71.022602 6.894639 
L 94.314016 7.565562 
L 94.314016 7.565562 
" clip-path="url(#p92f0acc120)" style="fill: none; stroke: #de8f5f; stroke-linecap: square"/>
   </g>
   <g id="line2d_3">
    <path d="M 10.212263 33.569902 
L 26.820867 30.890436 
L 37.849332 29.298139 
L 48.921735 27.832624 
L 59.9502 26.480221 
L 76.558804 24.623174 
L 94.314016 22.86507 
L 94.314016 22.86507 
" clip-path="url(#p92f0acc120)" style="fill: none; stroke-dasharray: 3.7,1.6; stroke-dashoffset: 0; stroke: #811c35"/>
   </g>
   <g id="patch_3">
    <path d="M 22.294803 35.058091 
L 22.294803 2.317933 
" style="fill: none; stroke: #ffffff; stroke-width: 0.5; stroke-linejoin: miter; stroke-linecap: square"/>
   </g>
   <g id="patch_4">
    <path d="M 4.72 35.058091 
L 4.72 2.317933 
" style="fill: none; stroke: #ffffff; stroke-width: 0.5; stroke-linejoin: miter; stroke-linecap: square"/>
   </g>
   <g id="patch_5">
    <path d="M 4.72 35.058091 
L 22.294803 35.058091 
" style="fill: none; stroke: #ffffff; stroke-width: 0.5; stroke-linejoin: miter; stroke-linecap: square"/>
   </g>
   <g id="patch_6">
    <path d="M 4.72 2.317933 
L 22.294803 2.317933 
" style="fill: none; stroke: #ffffff; stroke-width: 0.5; stroke-linejoin: miter; stroke-linecap: square"/>
   </g>
  </g>
  <g id="axes_3">
   <g id="patch_7">
    <path d="M 75.019213 35.058091 
L 92.594016 35.058091 
L 92.594016 2.317933 
L 75.019213 2.317933 
L 75.019213 35.058091 
z
" style="fill: none"/>
   </g>
   <g id="matplotlib.axis_5"/>
   <g id="matplotlib.axis_6"/>
   <g id="matplotlib.axis_7"/>
   <g id="matplotlib.axis_8"/>
   <g id="line2d_4">
    <path d="M 74.996804 20.402739 
L 75.568 22.990072 
L 75.919504 23.749184 
L 76.139195 23.819365 
L 76.358885 23.569741 
L 76.666452 22.716437 
L 77.105833 20.68801 
L 78.423976 14.105488 
L 78.731543 13.587112 
L 78.907296 13.568281 
L 79.126986 13.831757 
L 79.434553 14.701599 
L 79.873934 16.744398 
L 81.148139 23.170867 
L 81.455706 23.754449 
L 81.675396 23.795513 
L 81.895087 23.518266 
L 82.202654 22.632056 
L 82.685973 20.334356 
L 83.872302 14.311281 
L 84.223806 13.619915 
L 84.443497 13.593342 
L 84.663188 13.884276 
L 84.970754 14.786687 
L 85.454073 17.098781 
L 86.596464 22.952336 
L 86.947969 23.71641 
L 87.16766 23.792424 
L 87.343412 23.623745 
L 87.607041 23.005262 
L 88.002484 21.38043 
L 89.628194 13.769641 
L 89.891822 13.581538 
L 90.067575 13.710803 
L 90.331203 14.273766 
L 90.726646 15.833023 
L 91.56147 20.473191 
L 92.132666 23.002948 
L 92.48417 23.722319 
L 92.615985 23.788881 
L 92.615985 23.788881 
" clip-path="url(#ped3c09344c)" style="fill: none; stroke: #b3c8cd; stroke-width: 0.2; stroke-linecap: square"/>
   </g>
   <g id="line2d_5">
    <path d="M -1 13.33755 
L 94.314016 13.59783 
L 94.314016 13.59783 
" clip-path="url(#ped3c09344c)" style="fill: none; stroke: #de8f5f; stroke-linecap: square"/>
   </g>
   <g id="line2d_6">
    <path d="M -1 3.957359 
L 9.704778 3.937824 
L 20.733243 3.890372 
L 31.805646 3.906129 
L 81.543582 3.85117 
L 87.079783 3.806122 
L 94.314016 3.899095 
L 94.314016 3.899095 
" clip-path="url(#ped3c09344c)" style="fill: none; stroke-dasharray: 3.7,1.6; stroke-dashoffset: 0; stroke: #811c35"/>
   </g>
   <g id="patch_8">
    <path d="M 92.594016 35.058091 
L 92.594016 2.317933 
" style="fill: none; stroke: #ffffff; stroke-width: 0.5; stroke-linejoin: miter; stroke-linecap: square"/>
   </g>
   <g id="patch_9">
    <path d="M 75.019213 35.058091 
L 75.019213 2.317933 
" style="fill: none; stroke: #ffffff; stroke-width: 0.5; stroke-linejoin: miter; stroke-linecap: square"/>
   </g>
   <g id="patch_10">
    <path d="M 75.019213 35.058091 
L 92.594016 35.058091 
" style="fill: none; stroke: #ffffff; stroke-width: 0.5; stroke-linejoin: miter; stroke-linecap: square"/>
   </g>
   <g id="patch_11">
    <path d="M 75.019213 2.317933 
L 92.594016 2.317933 
" style="fill: none; stroke: #ffffff; stroke-width: 0.5; stroke-linejoin: miter; stroke-linecap: square"/>
   </g>
  </g>
  <g id="axes_4">
   <g id="patch_12">
    <path d="M 22.294803 35.058091 
L 75.019213 35.058091 
L 75.019213 2.317933 
L 22.294803 2.317933 
L 22.294803 35.058091 
z
" style="fill: none"/>
   </g>
   <g id="matplotlib.axis_9"/>
   <g id="matplotlib.axis_10"/>
   <g id="matplotlib.axis_11"/>
   <g id="matplotlib.axis_12"/>
   <g id="line2d_7">
    <path d="M 22.292084 14.153513 
L 22.396437 32.477652 
L 22.45136 25.939017 
L 22.566698 5.03574 
L 22.624366 11.83996 
L 22.739704 32.20626 
L 22.794627 25.728638 
L 22.909964 5.297529 
L 22.967633 12.031642 
L 23.08297 31.950105 
L 23.137893 25.545245 
L 23.253231 5.545204 
L 23.310899 12.197874 
L 23.426237 31.708043 
L 23.481159 25.385955 
L 23.596497 5.779816 
L 23.654166 12.341363 
L 23.766757 31.479869 
L 23.824426 25.248239 
L 23.939763 6.00236 
L 23.997432 12.464485 
L 24.110024 31.263342 
L 24.167692 25.129873 
L 24.28303 6.213776 
L 24.340699 12.569331 
L 24.45329 31.057134 
L 24.510959 25.028889 
L 24.626296 6.414947 
L 24.683965 12.657752 
L 24.796557 30.860429 
L 24.854225 24.943548 
L 24.969563 6.606703 
L 25.027232 12.731388 
L 25.142569 30.673409 
L 25.197492 24.8723 
L 25.312829 6.789818 
L 25.370498 12.791701 
L 25.485836 30.49534 
L 25.540758 24.813762 
L 25.656096 6.965016 
L 25.713765 12.839995 
L 25.829102 30.32507 
L 25.884025 24.766697 
L 25.999362 7.132971 
L 26.057031 12.877439 
L 26.172368 30.161921 
L 26.227291 24.729994 
L 26.342629 7.294314 
L 26.400297 12.905085 
L 26.515635 30.005267 
L 26.573304 24.214737 
L 26.685895 7.449632 
L 26.743564 12.923879 
L 26.858901 29.854522 
L 26.91657 24.20424 
L 27.031908 7.597197 
L 27.08683 12.934678 
L 27.202168 29.709144 
L 27.259837 24.201294 
L 27.375174 7.738012 
L 27.430097 12.938258 
L 27.545434 29.568623 
L 27.603103 24.205164 
L 27.718441 7.874086 
L 27.776109 13.401272 
L 27.888701 29.43249 
L 27.94637 24.21518 
L 28.061707 8.005889 
L 28.119376 13.384371 
L 28.234713 29.304391 
L 28.289636 24.230729 
L 28.404974 8.133852 
L 28.462642 13.362257 
L 28.57798 29.180723 
L 28.632902 24.251254 
L 28.74824 8.258383 
L 28.805909 13.335461 
L 28.921246 29.060377 
L 28.978915 23.83154 
L 29.094253 8.37603 
L 29.149175 13.304473 
L 29.264513 28.942982 
L 29.322181 23.868372 
L 29.437519 8.489288 
L 29.495188 13.709287 
L 29.607779 28.828189 
L 29.665448 23.908711 
L 29.780785 8.600048 
L 29.838454 13.663488 
L 29.953792 28.720862 
L 30.008714 23.952163 
L 30.124052 8.708629 
L 30.181721 13.614785 
L 30.297058 28.616261 
L 30.354727 23.571604 
L 30.470065 8.813652 
L 30.524987 13.563526 
L 30.640325 28.513445 
L 30.697993 23.627795 
L 30.813331 8.912547 
L 30.868254 13.510037 
L 30.983591 28.412141 
L 31.04126 23.686048 
L 31.156597 9.010025 
L 31.214266 13.868846 
L 31.329604 28.317263 
L 31.384526 23.746075 
L 31.499864 9.106336 
L 31.557533 13.804324 
L 31.67287 28.224721 
L 31.730539 23.39831 
L 31.845876 9.198753 
L 31.900799 13.738435 
L 32.016137 28.133023 
L 32.073805 23.46845 
L 32.189143 9.286742 
L 32.246812 14.075806 
L 32.362149 28.043157 
L 32.417072 23.539593 
L 32.532409 9.374187 
L 32.590078 14.000633 
L 32.705416 27.95936 
L 32.760338 23.611522 
L 32.875676 9.461282 
L 32.933345 13.92478 
L 33.048682 27.875831 
L 33.106351 23.291704 
L 33.221688 9.541373 
L 33.276611 13.848444 
L 33.391949 27.79239 
L 33.449617 23.371775 
L 33.564955 9.621306 
L 33.622624 14.159377 
L 33.737961 27.714856 
L 33.792884 23.452057 
L 33.908221 9.701393 
L 33.96589 14.075531 
L 34.081228 27.63822 
L 34.138896 23.149546 
L 34.254234 9.776331 
L 34.309157 13.991721 
L 34.424494 27.561201 
L 34.482163 23.236763 
L 34.5975 9.849955 
L 34.655169 14.286238 
L 34.770507 27.488887 
L 34.825429 23.32372 
L 34.940767 9.924172 
L 34.998436 14.196017 
L 35.113773 27.418008 
L 35.171442 23.036803 
L 35.286779 9.993844 
L 35.341702 14.106257 
L 35.45704 27.346341 
L 35.514708 23.129696 
L 35.630046 10.062228 
L 35.687715 14.385937 
L 35.803052 27.279323 
L 35.857975 23.221945 
L 35.973312 10.131583 
L 36.030981 14.290676 
L 36.146319 27.213198 
L 36.203987 22.949167 
L 36.319325 10.195943 
L 36.374248 14.196226 
L 36.489585 27.145933 
L 36.547254 23.046518 
L 36.662591 10.26003 
L 36.72026 14.462411 
L 36.835598 27.084229 
L 36.89052 23.142905 
L 37.008604 10.325342 
L 37.063527 14.363223 
L 37.178864 27.02197 
L 37.236533 22.883028 
L 37.35187 10.384468 
L 37.409539 14.622412 
L 37.524877 26.959402 
L 37.579799 22.983819 
L 37.695137 10.445094 
L 37.752806 14.518975 
L 37.868143 26.901858 
L 37.925812 22.730594 
L 38.041149 10.504935 
L 38.096072 14.416794 
L 38.21141 26.842679 
L 38.269078 22.835338 
L 38.384416 10.561079 
L 38.442085 14.664298 
L 38.557422 26.78555 
L 38.612345 22.938711 
L 38.727682 10.618985 
L 38.785351 14.558438 
L 38.900689 26.730632 
L 38.958357 22.696705 
L 39.073695 10.673421 
L 39.128618 14.454054 
L 39.243955 26.673837 
L 39.301624 22.803505 
L 39.416961 10.727275 
L 39.47463 14.690772 
L 39.589968 26.622072 
L 39.64489 22.90873 
L 39.762974 10.782185 
L 39.817897 14.583195 
L 39.933234 26.56913 
L 39.990903 22.677107 
L 40.10624 10.832228 
L 40.163909 14.814439 
L 40.279247 26.516934 
L 40.334169 22.78531 
L 40.449507 10.884403 
L 40.507176 14.703994 
L 40.622513 26.467615 
L 40.680182 22.558919 
L 40.79552 10.933912 
L 40.850442 14.595305 
L 40.96578 26.416073 
L 41.023448 22.669797 
L 41.138786 10.982639 
L 41.196455 14.817009 
L 41.311792 26.369226 
L 41.369461 22.448391 
L 41.484799 11.0324 
L 41.539721 14.705825 
L 41.655059 26.320962 
L 41.712727 22.561669 
L 41.828065 11.077889 
L 41.885734 14.922754 
L 42.001071 26.273888 
L 42.055994 22.673042 
L 42.171331 11.125807 
L 42.229 14.809331 
L 42.344338 26.228705 
L 42.402007 22.460447 
L 42.517344 11.170225 
L 42.572267 14.69788 
L 42.69035 26.181521 
L 42.745273 22.573909 
L 42.860611 11.215213 
L 42.918279 14.906272 
L 43.033617 26.139231 
L 43.091286 22.36569 
L 43.206623 11.259724 
L 43.261546 14.792871 
L 43.376883 26.094333 
L 43.434552 22.481022 
L 43.54989 11.301961 
L 43.607558 14.997062 
L 43.722896 26.052464 
L 43.777818 22.594267 
L 43.895902 11.346466 
L 43.950825 14.881917 
L 44.066162 26.010183 
L 44.123831 22.393991 
L 44.239169 11.386124 
L 44.296837 15.082084 
L 44.412175 25.968328 
L 44.467098 22.508864 
L 44.582435 11.428541 
L 44.640104 14.965382 
L 44.755441 25.9285 
L 44.81311 22.312459 
L 44.928448 11.467776 
L 44.98337 14.850865 
L 45.101454 25.886742 
L 45.156377 22.428781 
L 45.271714 11.507861 
L 45.329383 15.043604 
L 45.44472 25.849213 
L 45.502389 22.236091 
L 45.617727 11.546995 
L 45.672649 14.927737 
L 45.787987 25.808791 
L 45.845656 22.353701 
L 45.960993 11.584894 
L 46.018662 15.116897 
L 46.133999 25.772249 
L 46.191668 22.164579 
L 46.307006 11.623856 
L 46.361928 14.999832 
L 46.477266 25.733905 
L 46.534935 22.283329 
L 46.650272 11.659711 
L 46.707941 15.185551 
L 46.823278 25.697534 
L 46.878201 22.399784 
L 46.996285 11.698438 
L 47.051207 15.067428 
L 47.166545 25.661133 
L 47.224214 22.217391 
L 47.339551 11.732382 
L 47.39722 15.249837 
L 47.512558 25.624994 
L 47.56748 22.334826 
L 47.682818 11.769396 
L 47.740486 15.130785 
L 47.855824 25.590408 
L 47.913493 22.155631 
L 48.02883 11.802978 
L 48.086499 15.310006 
L 48.201837 25.554556 
L 48.256759 22.273925 
L 48.372097 11.838268 
L 48.429765 15.190143 
L 48.545103 25.521663 
L 48.602772 22.097812 
L 48.718109 11.871568 
L 48.773032 15.07266 
L 48.891116 25.486147 
L 48.946038 22.216852 
L 49.061376 11.905251 
L 49.119045 15.245727 
L 49.234382 25.454832 
L 49.292051 22.043711 
L 49.407388 11.938222 
L 49.462311 15.127559 
L 49.577649 25.420304 
L 49.635317 22.163395 
L 49.750655 11.970408 
L 49.808324 15.297747 
L 49.923661 25.389848 
L 49.98133 21.993124 
L 50.096667 12.003008 
L 50.15159 15.178991 
L 50.266928 25.35674 
L 50.324596 22.113355 
L 50.439934 12.033803 
L 50.497603 15.346399 
L 50.61294 25.326647 
L 50.670609 21.945855 
L 50.785946 12.065992 
L 50.840869 15.227147 
L 50.956207 25.294857 
L 51.013875 22.066546 
L 51.129213 12.095496 
L 51.186882 15.391866 
L 51.302219 25.265165 
L 51.357142 22.184775 
L 51.475225 12.12724 
L 51.530148 15.272202 
L 51.645486 25.234598 
L 51.703154 22.022793 
L 51.818492 12.155549 
L 51.876161 15.434321 
L 51.991498 25.20534 
L 52.046421 22.141391 
L 52.164505 12.186817 
L 52.219427 15.314322 
L 52.334765 25.175903 
L 52.392433 21.981934 
L 52.507771 12.214021 
L 52.56544 15.473923 
L 52.680777 25.147111 
L 52.7357 22.100825 
L 52.851037 12.244625 
L 52.908706 15.353662 
L 53.024044 25.118717 
L 53.081712 21.943816 
L 53.19705 12.270971 
L 53.254719 15.510824 
L 53.370056 25.090417 
L 53.424979 22.062932 
L 53.540316 12.30059 
L 53.597985 15.390367 
L 53.713323 25.062983 
L 53.770992 21.908295 
L 53.886329 12.326455 
L 53.943998 15.545165 
L 54.059335 25.035201 
L 54.114258 22.027571 
L 54.229596 12.355169 
L 54.287264 15.424575 
L 54.402602 25.008648 
L 54.460271 21.875236 
L 54.575608 12.380529 
L 54.633277 15.577078 
L 54.748614 24.981406 
L 54.803537 21.994613 
L 54.918875 12.408414 
L 54.976543 15.456414 
L 55.091881 24.955658 
L 55.14955 21.844513 
L 55.264887 12.433246 
L 55.322556 15.60669 
L 55.437893 24.928978 
L 55.492816 21.963935 
L 55.608154 12.460375 
L 55.665822 15.486004 
L 55.78116 24.903963 
L 55.838829 21.816006 
L 55.954166 12.484658 
L 56.011835 15.634118 
L 56.127172 24.877864 
L 56.182095 21.935421 
L 56.297433 12.511101 
L 56.355101 15.513461 
L 56.470439 24.853513 
L 56.528108 21.789602 
L 56.643445 12.534817 
L 56.701114 15.659472 
L 56.816452 24.82801 
L 56.871374 21.908962 
L 56.986712 12.56064 
L 57.04438 15.538892 
L 57.159718 24.804259 
L 57.217387 21.765196 
L 57.332724 12.583773 
L 57.390393 15.682857 
L 57.505731 24.779369 
L 57.560653 21.884456 
L 57.675991 12.609037 
L 57.733659 15.562397 
L 57.848997 24.756154 
L 57.906666 21.742689 
L 58.022003 12.631571 
L 58.079672 15.704371 
L 58.19501 24.731891 
L 58.249932 21.861805 
L 58.36527 12.656338 
L 58.422939 15.584072 
L 58.538276 24.709153 
L 58.595945 21.721985 
L 58.711282 12.678258 
L 58.768951 15.724108 
L 58.884289 24.68553 
L 58.939211 21.840919 
L 59.054549 12.702586 
L 59.112218 15.604008 
L 59.227555 24.663211 
L 59.285224 21.702995 
L 59.400561 12.723881 
L 59.45823 15.742155 
L 59.573568 24.64024 
L 59.62849 21.82171 
L 59.743828 12.747823 
L 59.801497 15.622291 
L 59.916834 24.618286 
L 59.974503 21.685635 
L 60.08984 12.768481 
L 60.147509 15.758596 
L 60.262847 24.595976 
L 60.317769 21.804096 
L 60.433107 12.792092 
L 60.490776 15.639001 
L 60.606113 24.574336 
L 60.663782 21.669826 
L 60.779119 12.812101 
L 60.836788 15.773508 
L 60.952126 24.552698 
L 61.007048 21.788 
L 61.125132 12.835354 
L 61.180055 15.654214 
L 61.295392 24.531321 
L 61.353061 21.655492 
L 61.468399 12.854782 
L 61.526067 15.786967 
L 61.641405 24.510363 
L 61.696327 21.773347 
L 61.814411 12.877332 
L 61.869334 15.668004 
L 61.984671 24.489202 
L 62.04234 21.64256 
L 62.157678 12.896563 
L 62.215346 15.799043 
L 62.330684 24.468931 
L 62.385607 21.760069 
L 62.50369 12.918404 
L 62.558613 15.68044 
L 62.67395 24.447941 
L 62.731619 21.630965 
L 62.846957 12.937481 
L 62.904625 15.809802 
L 63.019963 24.428366 
L 63.074886 21.748099 
L 63.192969 12.958606 
L 63.250638 15.939626 
L 63.363229 24.407503 
L 63.420898 21.62064 
L 63.536236 12.977574 
L 63.593904 15.81931 
L 63.709242 24.388628 
L 63.766911 21.492668 
L 63.882248 12.997978 
L 63.937171 15.701504 
L 64.052508 24.36785 
L 64.110177 21.611525 
L 64.225515 13.016877 
L 64.283183 15.827626 
L 64.398521 24.349683 
L 64.45619 21.485149 
L 64.571527 13.036556 
L 64.62645 15.710254 
L 64.741787 24.328951 
L 64.799456 21.603561 
L 64.914794 13.055425 
L 64.972463 15.834806 
L 65.0878 24.311496 
L 65.145469 21.478747 
L 65.260806 13.074372 
L 65.315729 15.717892 
L 65.433813 24.291069 
L 65.488735 21.596694 
L 65.604073 13.09325 
L 65.661742 15.840907 
L 65.777079 24.274034 
L 65.834748 21.47341 
L 65.950085 13.111463 
L 66.005008 15.724471 
L 66.123092 24.254359 
L 66.178014 21.59087 
L 66.293352 13.130385 
L 66.351021 15.845979 
L 66.466358 24.237264 
L 66.524027 21.469086 
L 66.639364 13.147859 
L 66.697033 15.968021 
L 66.812371 24.218344 
L 66.867293 21.58604 
L 66.982631 13.166861 
L 67.0403 15.850072 
L 67.155637 24.201155 
L 67.213306 21.465727 
L 67.328643 13.183594 
L 67.386312 15.970651 
L 67.50165 24.182992 
L 67.556572 21.582155 
L 67.67191 13.202707 
L 67.729579 15.853233 
L 67.844916 24.165677 
L 67.902585 21.463285 
L 68.017923 13.218696 
L 68.075591 15.972377 
L 68.190929 24.148274 
L 68.245851 21.579171 
L 68.363935 13.237503 
L 68.418858 15.855508 
L 68.534195 24.1308 
L 68.591864 21.461716 
L 68.707202 13.253197 
L 68.76487 15.973243 
L 68.880208 24.114158 
L 68.93513 21.577043 
L 69.053214 13.271227 
L 69.108137 15.856939 
L 69.223474 24.096496 
L 69.281143 21.460979 
L 69.396481 13.287123 
L 69.454149 15.97329 
L 69.569487 24.080617 
L 69.627156 21.344357 
L 69.742493 13.304375 
L 69.797416 15.857567 
L 69.912753 24.062738 
L 69.970422 21.461032 
L 70.08576 13.320501 
L 70.143428 15.972558 
L 70.258766 24.047624 
L 70.316435 21.345763 
L 70.431772 13.336975 
L 70.486695 15.857431 
L 70.604779 24.0298 
L 70.659701 21.461838 
L 70.775039 13.35336 
L 70.832707 15.971086 
L 70.948045 24.015152 
L 71.005714 21.347898 
L 71.121051 13.369055 
L 71.175974 15.856569 
L 71.294058 23.99812 
L 71.34898 21.463359 
L 71.464318 13.385724 
L 71.521986 15.96891 
L 71.637324 23.983174 
L 71.694993 21.350727 
L 71.81033 13.400639 
L 71.867999 16.081819 
L 71.983337 23.966936 
L 72.038259 21.46556 
L 72.153597 13.417617 
L 72.211266 15.966064 
L 72.326603 23.951667 
L 72.384272 21.354214 
L 72.499609 13.431753 
L 72.557278 16.077694 
L 72.672616 23.936221 
L 72.727538 21.468407 
L 72.845622 13.448501 
L 72.900545 15.962582 
L 73.015882 23.920607 
L 73.073551 21.358327 
L 73.188888 13.462421 
L 73.246557 16.072953 
L 73.361895 23.905952 
L 73.419563 21.247681 
L 73.534901 13.478365 
L 73.589824 15.958496 
L 73.705161 23.889969 
L 73.76283 21.363035 
L 73.878167 13.492666 
L 73.935836 16.067626 
L 74.051174 23.876106 
L 74.108842 21.253621 
L 74.22418 13.507807 
L 74.279103 15.953836 
L 74.39444 23.859732 
L 74.452109 21.368307 
L 74.567446 13.52251 
L 74.625115 16.061745 
L 74.740453 23.84666 
L 74.798122 21.260108 
L 74.913459 13.536849 
L 74.968382 15.948633 
L 75.020558 20.64324 
L 75.020558 20.64324 
" clip-path="url(#pcceef56268)" style="fill: none; stroke: #b3c8cd; stroke-width: 0.05; stroke-linecap: square"/>
   </g>
   <g id="line2d_8">
    <path d="M 21.539644 4.333965 
L 23.266961 5.693347 
L 25.686303 7.07232 
L 28.448912 8.216444 
L 31.21152 9.063243 
L 33.976875 9.765029 
L 40.540129 10.924845 
L 46.411359 11.653025 
L 59.191855 12.720837 
L 86.134153 13.961885 
L 89.934799 14.077736 
L 94.314016 14.202515 
L 94.314016 14.202515 
" clip-path="url(#pcceef56268)" style="fill: none; stroke: #de8f5f; stroke-linecap: square"/>
   </g>
   <g id="line2d_9">
    <path d="M 21.539644 33.569902 
L 22.920949 30.064739 
L 24.648265 26.480221 
L 26.375582 23.503 
L 28.102899 21.006092 
L 30.176228 18.470346 
L 32.938837 15.704477 
L 35.704191 13.478548 
L 37.085496 12.512701 
L 39.502092 11.033456 
L 42.2647 9.625223 
L 42.956725 9.280982 
L 48.138676 7.323571 
L 49.865992 6.782377 
L 50.212005 6.75654 
L 51.247297 6.42105 
L 51.936576 6.257991 
L 54.355918 5.715977 
L 62.300476 4.44232 
L 66.101123 4.166121 
L 66.790402 4.105524 
L 67.136414 4.146265 
L 67.828439 4.089326 
L 68.171706 4.014796 
L 68.863731 4.008112 
L 70.245035 3.955326 
L 70.93706 3.937824 
L 71.626339 3.890372 
L 72.318365 3.906129 
L 75.426986 3.85117 
L 75.772998 3.806122 
L 76.119011 3.908469 
L 77.154302 3.878413 
L 79.570898 3.961794 
L 81.99024 4.068195 
L 92.351395 4.761723 
L 94.078712 4.945484 
L 94.314016 4.933931 
L 94.314016 4.933931 
" clip-path="url(#pcceef56268)" style="fill: none; stroke-dasharray: 3.7,1.6; stroke-dashoffset: 0; stroke: #811c35"/>
   </g>
   <g id="patch_13">
    <path d="M 75.019213 35.058091 
L 75.019213 2.317933 
" style="fill: none; stroke: #ffffff; stroke-width: 0.5; stroke-linejoin: miter; stroke-linecap: square"/>
   </g>
   <g id="patch_14">
    <path d="M 22.294803 35.058091 
L 22.294803 2.317933 
" style="fill: none; stroke: #ffffff; stroke-width: 0.5; stroke-linejoin: miter; stroke-linecap: square"/>
   </g>
   <g id="patch_15">
    <path d="M 22.294803 35.058091 
L 75.019213 35.058091 
" style="fill: none; stroke: #ffffff; stroke-width: 0.5; stroke-linejoin: miter; stroke-linecap: square"/>
   </g>
   <g id="patch_16">
    <path d="M 22.294803 2.317933 
L 75.019213 2.317933 
" style="fill: none; stroke: #ffffff; stroke-width: 0.5; stroke-linejoin: miter; stroke-linecap: square"/>
   </g>
   <g id="text_1">
    <!-- $A(t)$ -->
    <g style="fill: #de8f5f" transform="translate(54.149134 18.688012) scale(0.08 -0.08)">
     <defs>
      <path id="STIXGeneral-Italic-41" d="M 3610 0 
L 2042 0 
L 2042 102 
Q 2330 115 2432 192 
Q 2534 269 2534 442 
Q 2534 493 2522 608 
L 2394 1446 
L 986 1446 
L 608 736 
Q 467 474 467 314 
Q 467 122 864 102 
L 864 0 
L -326 0 
L -326 102 
Q -109 147 28 307 
Q 166 467 531 1101 
L 2355 4275 
L 2522 4275 
L 3110 736 
Q 3174 339 3264 230 
Q 3354 122 3610 102 
L 3610 0 
z
M 2362 1677 
L 2074 3360 
L 1120 1677 
L 2362 1677 
z
" transform="scale(0.015625)"/>
      <path id="STIXGeneral-Regular-28" d="M 1946 -1030 
L 1869 -1133 
Q 1126 -710 716 32 
Q 307 774 307 1613 
Q 307 3386 1888 4326 
L 1946 4224 
Q 1293 3667 1075 3126 
Q 858 2586 858 1632 
Q 858 685 1082 96 
Q 1306 -493 1946 -1030 
z
" transform="scale(0.015625)"/>
      <path id="STIXGeneral-Italic-74" d="M 1894 2739 
L 1862 2534 
L 1325 2534 
L 768 435 
Q 755 384 755 346 
Q 755 243 851 243 
Q 928 243 1030 342 
Q 1133 442 1370 749 
L 1453 704 
Q 1158 256 969 93 
Q 781 -70 538 -70 
Q 243 -70 243 166 
Q 243 230 346 640 
L 845 2534 
L 365 2534 
L 358 2573 
Q 358 2688 570 2733 
Q 730 2771 992 2979 
Q 1254 3187 1421 3437 
Q 1459 3494 1510 3494 
Q 1568 3494 1568 3443 
Q 1568 3411 1562 3398 
L 1382 2739 
L 1894 2739 
z
" transform="scale(0.015625)"/>
      <path id="STIXGeneral-Regular-29" d="M 186 4224 
L 262 4326 
Q 992 3891 1408 3148 
Q 1824 2406 1824 1581 
Q 1824 -166 243 -1133 
L 186 -1030 
Q 845 -486 1059 54 
Q 1274 595 1274 1562 
Q 1274 2534 1059 3120 
Q 845 3706 186 4224 
z
" transform="scale(0.015625)"/>
     </defs>
     <use xlink:href="#STIXGeneral-Italic-41" transform="translate(0 0.40625)"/>
     <use xlink:href="#STIXGeneral-Regular-28" transform="translate(61.099991 0.40625)"/>
     <use xlink:href="#STIXGeneral-Italic-74" transform="translate(94.399979 0.40625)"/>
     <use xlink:href="#STIXGeneral-Regular-29" transform="translate(122.199966 0.40625)"/>
    </g>
   </g>
   <g id="text_2">
    <!-- $\beta(t)$ -->
    <g style="fill: #811c35" transform="translate(37.672756 6.7825) scale(0.08 -0.08)">
     <defs>
      <path id="STIXGeneral-Italic-3b2" d="M -58 -813 
L 819 2355 
Q 902 2662 995 2908 
Q 1088 3155 1235 3433 
Q 1382 3712 1555 3901 
Q 1728 4090 1977 4214 
Q 2227 4339 2515 4339 
Q 2816 4339 3053 4182 
Q 3290 4026 3290 3693 
Q 3290 3328 3037 3001 
Q 2784 2675 2470 2534 
L 2470 2528 
Q 2682 2509 2858 2320 
Q 3034 2131 3034 1818 
Q 3034 1376 2694 873 
Q 2355 371 1901 122 
Q 1562 -70 1107 -70 
Q 922 -70 685 38 
L 442 -813 
Q 352 -1126 243 -1312 
L -256 -1312 
Q -154 -1158 -58 -813 
z
M 1491 3053 
L 762 288 
Q 762 186 848 118 
Q 934 51 1069 51 
Q 1594 51 2029 704 
Q 2464 1357 2464 2029 
Q 2464 2406 2208 2406 
Q 2150 2406 2044 2380 
Q 1939 2355 1888 2355 
Q 1805 2355 1750 2396 
Q 1696 2438 1696 2496 
Q 1696 2650 1978 2650 
Q 1997 2650 2099 2630 
Q 2202 2611 2253 2611 
Q 2451 2611 2640 2969 
Q 2829 3328 2829 3622 
Q 2829 3962 2713 4083 
Q 2598 4205 2400 4205 
Q 2080 4205 1846 3865 
Q 1613 3526 1491 3053 
z
" transform="scale(0.015625)"/>
     </defs>
     <use xlink:href="#STIXGeneral-Italic-3b2" transform="translate(0 0.203125)"/>
     <use xlink:href="#STIXGeneral-Regular-28" transform="translate(50.599991 0.203125)"/>
     <use xlink:href="#STIXGeneral-Italic-74" transform="translate(83.899979 0.203125)"/>
     <use xlink:href="#STIXGeneral-Regular-29" transform="translate(111.699966 0.203125)"/>
    </g>
   </g>
  </g>
 </g>
 <defs>
  <clipPath id="p92f0acc120">
   <rect x="4.72" y="2.317933" width="17.574803" height="32.740157"/>
  </clipPath>
  <clipPath id="ped3c09344c">
   <rect x="75.019213" y="2.317933" width="17.574803" height="32.740157"/>
  </clipPath>
  <clipPath id="pcceef56268">
   <rect x="22.294803" y="2.317933" width="52.724409" height="32.740157"/>
  </clipPath>
 </defs>
</svg>
