<?xml version="1.0" encoding="utf-8" standalone="no"?>
<!DOCTYPE svg PUBLIC "-//W3C//DTD SVG 1.1//EN"
  "http://www.w3.org/Graphics/SVG/1.1/DTD/svg11.dtd">
<svg xmlns:xlink="http://www.w3.org/1999/xlink" width="100.923594pt" height="31.680157pt" viewBox="0 0 100.923594 31.680157" xmlns="http://www.w3.org/2000/svg" version="1.1">
 <metadata>
  <rdf:RDF xmlns:dc="http://purl.org/dc/elements/1.1/" xmlns:cc="http://creativecommons.org/ns#" xmlns:rdf="http://www.w3.org/1999/02/22-rdf-syntax-ns#">
   <cc:Work>
    <dc:type rdf:resource="http://purl.org/dc/dcmitype/StillImage"/>
    <dc:date>2025-03-01T22:06:17.719771</dc:date>
    <dc:format>image/svg+xml</dc:format>
    <dc:creator>
     <cc:Agent>
      <dc:title>Matplotlib v3.7.5, https://matplotlib.org/</dc:title>
     </cc:Agent>
    </dc:creator>
   </cc:Work>
  </rdf:RDF>
 </metadata>
 <defs>
  <style type="text/css">*{stroke-linejoin: round; stroke-linecap: butt}</style>
 </defs>
 <g id="figure_1">
  <g id="patch_1">
   <path d="M 0 31.680157 
L 100.923594 31.680157 
L 100.923594 -0 
L 0 -0 
L 0 31.680157 
z
" style="fill: none"/>
  </g>
  <g id="axes_1"/>
  <g id="axes_2">
   <g id="patch_2">
    <path d="M 6.524789 30.960157 
L 24.099592 30.960157 
L 24.099592 9.133386 
L 6.524789 9.133386 
L 6.524789 30.960157 
z
" style="fill: none"/>
   </g>
   <g id="matplotlib.axis_1"/>
   <g id="matplotlib.axis_2"/>
   <g id="line2d_1">
    <path d="M 6.524789 10.042295 
L 6.700541 10.262438 
L 7.095984 12.122443 
L 7.755056 18.419507 
L 8.897447 28.942348 
L 9.161075 29.754158 
L 9.468642 29.534223 
L 9.732271 28.460222 
L 10.21559 24.535705 
L 11.577671 11.44445 
L 11.929176 10.330646 
L 12.148867 10.459724 
L 12.236743 10.663932 
L 12.324619 10.931424 
L 12.676124 13.055831 
L 13.115505 17.166177 
L 14.433648 28.92395 
L 14.697277 29.619277 
L 14.960905 29.346954 
L 15.444225 26.666944 
L 16.059358 20.672886 
L 16.762368 13.59724 
L 17.157811 11.185589 
L 17.377501 10.614802 
L 17.509316 10.542938 
L 17.64113 10.682025 
L 17.816882 11.186182 
L 18.124449 12.912072 
L 18.739583 18.702119 
L 19.618345 27.165181 
L 19.96985 28.941433 
L 20.18954 29.416535 
L 20.233478 29.397051 
L 20.497107 28.995381 
L 20.848612 27.111897 
L 21.419807 22.00153 
L 22.034941 15.636962 
L 22.562198 11.734844 
L 22.825826 10.835374 
L 22.869765 10.822819 
L 22.957641 10.667583 
L 23.001579 10.708469 
L 23.133393 10.816483 
L 23.704589 13.775928 
L 24.100032 17.451132 
L 24.100032 17.451132 
" clip-path="url(#p0b21584a8f)" style="fill: none; stroke: #b3c8cd; stroke-opacity: 0.3; stroke-linecap: square"/>
   </g>
   <g id="line2d_2">
    <path d="M 6.524789 10.125512 
L 6.656603 10.239094 
L 6.876294 10.923423 
L 7.183861 12.831966 
L 7.66718 17.477184 
L 8.721694 27.996528 
L 9.073199 29.60848 
L 9.29289 29.842171 
L 9.424704 29.683815 
L 9.644395 28.934349 
L 9.951961 26.961263 
L 10.479219 21.81197 
L 11.445857 12.303902 
L 11.797362 10.642503 
L 12.017052 10.363959 
L 12.148867 10.491646 
L 12.368557 11.186083 
L 12.676124 13.080154 
L 13.203381 18.114987 
L 14.17002 27.582744 
L 14.521524 29.293753 
L 14.741215 29.617211 
L 14.873029 29.520219 
L 15.048782 29.055202 
L 15.356348 27.3842 
L 15.795729 23.519474 
L 17.025996 11.900131 
L 17.333563 10.738751 
L 17.509316 10.586922 
L 17.64113 10.725185 
L 17.86082 11.42492 
L 18.168387 13.300511 
L 18.695644 18.243583 
L 19.662283 27.464876 
L 20.013788 29.107597 
L 20.233478 29.403531 
L 20.365292 29.296661 
L 20.584983 28.652609 
L 20.89255 26.855773 
L 21.375869 22.478944 
L 22.430383 12.549343 
L 22.781888 11.02158 
L 23.001579 10.795631 
L 23.133393 10.941454 
L 23.353084 11.642426 
L 23.66065 13.496274 
L 24.100032 17.448521 
L 24.100032 17.448521 
" clip-path="url(#p0b21584a8f)" style="fill: none; stroke-dasharray: 1.48,0.64; stroke-dashoffset: 0; stroke: #b3c8cd; stroke-width: 0.4"/>
   </g>
   <g id="patch_3">
    <path d="M 6.524789 30.960157 
L 6.524789 9.133386 
" style="fill: none; stroke: #ffffff; stroke-width: 0.5; stroke-linejoin: miter; stroke-linecap: square"/>
   </g>
   <g id="patch_4">
    <path d="M 24.099592 30.960157 
L 24.099592 9.133386 
" style="fill: none; stroke: #ffffff; stroke-width: 0.5; stroke-linejoin: miter; stroke-linecap: square"/>
   </g>
   <g id="patch_5">
    <path d="M 6.524789 30.960157 
L 24.099592 30.960157 
" style="fill: none; stroke: #ffffff; stroke-width: 0.5; stroke-linejoin: miter; stroke-linecap: square"/>
   </g>
   <g id="patch_6">
    <path d="M 6.524789 9.133386 
L 24.099592 9.133386 
" style="fill: none; stroke: #ffffff; stroke-width: 0.5; stroke-linejoin: miter; stroke-linecap: square"/>
   </g>
   <g id="legend_1">
    <g id="line2d_3">
     <path d="M 2.72 4.769219 
L 7.72 4.769219 
L 12.72 4.769219 
" style="fill: none; stroke: #b3c8cd; stroke-opacity: 0.3; stroke-linecap: square"/>
    </g>
    <g id="text_1">
     <!-- Ground Truth -->
     <g transform="translate(16.72 6.519219) scale(0.05 -0.05)">
      <defs>
       <path id="DejaVuSans-47" d="M 3809 666 
L 3809 1919 
L 2778 1919 
L 2778 2438 
L 4434 2438 
L 4434 434 
Q 4069 175 3628 42 
Q 3188 -91 2688 -91 
Q 1594 -91 976 548 
Q 359 1188 359 2328 
Q 359 3472 976 4111 
Q 1594 4750 2688 4750 
Q 3144 4750 3555 4637 
Q 3966 4525 4313 4306 
L 4313 3634 
Q 3963 3931 3569 4081 
Q 3175 4231 2741 4231 
Q 1884 4231 1454 3753 
Q 1025 3275 1025 2328 
Q 1025 1384 1454 906 
Q 1884 428 2741 428 
Q 3075 428 3337 486 
Q 3600 544 3809 666 
z
" transform="scale(0.015625)"/>
       <path id="DejaVuSans-72" d="M 2631 2963 
Q 2534 3019 2420 3045 
Q 2306 3072 2169 3072 
Q 1681 3072 1420 2755 
Q 1159 2438 1159 1844 
L 1159 0 
L 581 0 
L 581 3500 
L 1159 3500 
L 1159 2956 
Q 1341 3275 1631 3429 
Q 1922 3584 2338 3584 
Q 2397 3584 2469 3576 
Q 2541 3569 2628 3553 
L 2631 2963 
z
" transform="scale(0.015625)"/>
       <path id="DejaVuSans-6f" d="M 1959 3097 
Q 1497 3097 1228 2736 
Q 959 2375 959 1747 
Q 959 1119 1226 758 
Q 1494 397 1959 397 
Q 2419 397 2687 759 
Q 2956 1122 2956 1747 
Q 2956 2369 2687 2733 
Q 2419 3097 1959 3097 
z
M 1959 3584 
Q 2709 3584 3137 3096 
Q 3566 2609 3566 1747 
Q 3566 888 3137 398 
Q 2709 -91 1959 -91 
Q 1206 -91 779 398 
Q 353 888 353 1747 
Q 353 2609 779 3096 
Q 1206 3584 1959 3584 
z
" transform="scale(0.015625)"/>
       <path id="DejaVuSans-75" d="M 544 1381 
L 544 3500 
L 1119 3500 
L 1119 1403 
Q 1119 906 1312 657 
Q 1506 409 1894 409 
Q 2359 409 2629 706 
Q 2900 1003 2900 1516 
L 2900 3500 
L 3475 3500 
L 3475 0 
L 2900 0 
L 2900 538 
Q 2691 219 2414 64 
Q 2138 -91 1772 -91 
Q 1169 -91 856 284 
Q 544 659 544 1381 
z
M 1991 3584 
L 1991 3584 
z
" transform="scale(0.015625)"/>
       <path id="DejaVuSans-6e" d="M 3513 2113 
L 3513 0 
L 2938 0 
L 2938 2094 
Q 2938 2591 2744 2837 
Q 2550 3084 2163 3084 
Q 1697 3084 1428 2787 
Q 1159 2491 1159 1978 
L 1159 0 
L 581 0 
L 581 3500 
L 1159 3500 
L 1159 2956 
Q 1366 3272 1645 3428 
Q 1925 3584 2291 3584 
Q 2894 3584 3203 3211 
Q 3513 2838 3513 2113 
z
" transform="scale(0.015625)"/>
       <path id="DejaVuSans-64" d="M 2906 2969 
L 2906 4863 
L 3481 4863 
L 3481 0 
L 2906 0 
L 2906 525 
Q 2725 213 2448 61 
Q 2172 -91 1784 -91 
Q 1150 -91 751 415 
Q 353 922 353 1747 
Q 353 2572 751 3078 
Q 1150 3584 1784 3584 
Q 2172 3584 2448 3432 
Q 2725 3281 2906 2969 
z
M 947 1747 
Q 947 1113 1208 752 
Q 1469 391 1925 391 
Q 2381 391 2643 752 
Q 2906 1113 2906 1747 
Q 2906 2381 2643 2742 
Q 2381 3103 1925 3103 
Q 1469 3103 1208 2742 
Q 947 2381 947 1747 
z
" transform="scale(0.015625)"/>
       <path id="DejaVuSans-20" transform="scale(0.015625)"/>
       <path id="DejaVuSans-54" d="M -19 4666 
L 3928 4666 
L 3928 4134 
L 2272 4134 
L 2272 0 
L 1638 0 
L 1638 4134 
L -19 4134 
L -19 4666 
z
" transform="scale(0.015625)"/>
       <path id="DejaVuSans-74" d="M 1172 4494 
L 1172 3500 
L 2356 3500 
L 2356 3053 
L 1172 3053 
L 1172 1153 
Q 1172 725 1289 603 
Q 1406 481 1766 481 
L 2356 481 
L 2356 0 
L 1766 0 
Q 1100 0 847 248 
Q 594 497 594 1153 
L 594 3053 
L 172 3053 
L 172 3500 
L 594 3500 
L 594 4494 
L 1172 4494 
z
" transform="scale(0.015625)"/>
       <path id="DejaVuSans-68" d="M 3513 2113 
L 3513 0 
L 2938 0 
L 2938 2094 
Q 2938 2591 2744 2837 
Q 2550 3084 2163 3084 
Q 1697 3084 1428 2787 
Q 1159 2491 1159 1978 
L 1159 0 
L 581 0 
L 581 4863 
L 1159 4863 
L 1159 2956 
Q 1366 3272 1645 3428 
Q 1925 3584 2291 3584 
Q 2894 3584 3203 3211 
Q 3513 2838 3513 2113 
z
" transform="scale(0.015625)"/>
      </defs>
      <use xlink:href="#DejaVuSans-47"/>
      <use xlink:href="#DejaVuSans-72" x="77.490234"/>
      <use xlink:href="#DejaVuSans-6f" x="116.353516"/>
      <use xlink:href="#DejaVuSans-75" x="177.535156"/>
      <use xlink:href="#DejaVuSans-6e" x="240.914062"/>
      <use xlink:href="#DejaVuSans-64" x="304.292969"/>
      <use xlink:href="#DejaVuSans-20" x="367.769531"/>
      <use xlink:href="#DejaVuSans-54" x="399.556641"/>
      <use xlink:href="#DejaVuSans-72" x="445.890625"/>
      <use xlink:href="#DejaVuSans-75" x="487.003906"/>
      <use xlink:href="#DejaVuSans-74" x="550.382812"/>
      <use xlink:href="#DejaVuSans-68" x="589.591797"/>
     </g>
    </g>
    <g id="line2d_4">
     <path d="M 59.366875 4.769219 
L 64.366875 4.769219 
L 69.366875 4.769219 
" style="fill: none; stroke-dasharray: 1.48,0.64; stroke-dashoffset: 0; stroke: #b3c8cd; stroke-width: 0.4"/>
    </g>
    <g id="text_2">
     <!-- Prediction -->
     <g transform="translate(73.366875 6.519219) scale(0.05 -0.05)">
      <defs>
       <path id="DejaVuSans-50" d="M 1259 4147 
L 1259 2394 
L 2053 2394 
Q 2494 2394 2734 2622 
Q 2975 2850 2975 3272 
Q 2975 3691 2734 3919 
Q 2494 4147 2053 4147 
L 1259 4147 
z
M 628 4666 
L 2053 4666 
Q 2838 4666 3239 4311 
Q 3641 3956 3641 3272 
Q 3641 2581 3239 2228 
Q 2838 1875 2053 1875 
L 1259 1875 
L 1259 0 
L 628 0 
L 628 4666 
z
" transform="scale(0.015625)"/>
       <path id="DejaVuSans-65" d="M 3597 1894 
L 3597 1613 
L 953 1613 
Q 991 1019 1311 708 
Q 1631 397 2203 397 
Q 2534 397 2845 478 
Q 3156 559 3463 722 
L 3463 178 
Q 3153 47 2828 -22 
Q 2503 -91 2169 -91 
Q 1331 -91 842 396 
Q 353 884 353 1716 
Q 353 2575 817 3079 
Q 1281 3584 2069 3584 
Q 2775 3584 3186 3129 
Q 3597 2675 3597 1894 
z
M 3022 2063 
Q 3016 2534 2758 2815 
Q 2500 3097 2075 3097 
Q 1594 3097 1305 2825 
Q 1016 2553 972 2059 
L 3022 2063 
z
" transform="scale(0.015625)"/>
       <path id="DejaVuSans-69" d="M 603 3500 
L 1178 3500 
L 1178 0 
L 603 0 
L 603 3500 
z
M 603 4863 
L 1178 4863 
L 1178 4134 
L 603 4134 
L 603 4863 
z
" transform="scale(0.015625)"/>
       <path id="DejaVuSans-63" d="M 3122 3366 
L 3122 2828 
Q 2878 2963 2633 3030 
Q 2388 3097 2138 3097 
Q 1578 3097 1268 2742 
Q 959 2388 959 1747 
Q 959 1106 1268 751 
Q 1578 397 2138 397 
Q 2388 397 2633 464 
Q 2878 531 3122 666 
L 3122 134 
Q 2881 22 2623 -34 
Q 2366 -91 2075 -91 
Q 1284 -91 818 406 
Q 353 903 353 1747 
Q 353 2603 823 3093 
Q 1294 3584 2113 3584 
Q 2378 3584 2631 3529 
Q 2884 3475 3122 3366 
z
" transform="scale(0.015625)"/>
      </defs>
      <use xlink:href="#DejaVuSans-50"/>
      <use xlink:href="#DejaVuSans-72" x="58.552734"/>
      <use xlink:href="#DejaVuSans-65" x="97.416016"/>
      <use xlink:href="#DejaVuSans-64" x="158.939453"/>
      <use xlink:href="#DejaVuSans-69" x="222.416016"/>
      <use xlink:href="#DejaVuSans-63" x="250.199219"/>
      <use xlink:href="#DejaVuSans-74" x="305.179688"/>
      <use xlink:href="#DejaVuSans-69" x="344.388672"/>
      <use xlink:href="#DejaVuSans-6f" x="372.171875"/>
      <use xlink:href="#DejaVuSans-6e" x="433.353516"/>
     </g>
    </g>
   </g>
  </g>
  <g id="axes_3">
   <g id="patch_7">
    <path d="M 76.824002 30.960157 
L 94.398805 30.960157 
L 94.398805 9.133386 
L 76.824002 9.133386 
L 76.824002 30.960157 
z
" style="fill: none"/>
   </g>
   <g id="matplotlib.axis_3"/>
   <g id="matplotlib.axis_4"/>
   <g id="line2d_5">
    <path d="M 76.801593 21.091085 
L 77.372789 22.845754 
L 77.768232 23.432582 
L 77.943984 23.375505 
L 78.03186 23.335455 
L 78.207613 23.220492 
L 78.471241 22.71177 
L 78.866684 21.448853 
L 78.998498 21.041105 
L 79.43788 19.274241 
L 80.448456 16.613625 
L 80.58027 16.590655 
L 80.712085 16.590549 
L 80.843899 16.655697 
L 81.151466 17.139949 
L 81.502971 18.083162 
L 82.162042 20.576781 
L 82.777176 22.591918 
L 83.172619 23.334245 
L 83.348371 23.407522 
L 83.568062 23.34671 
L 84.271071 21.853735 
L 85.545276 17.346403 
L 85.852843 16.755301 
L 85.984657 16.671246 
L 86.16041 16.624012 
L 86.336162 16.623806 
L 86.907358 17.712014 
L 88.049748 21.869453 
L 88.577006 23.205083 
L 88.796696 23.421487 
L 88.840634 23.380255 
L 89.060325 23.399337 
L 89.367892 22.959434 
L 89.719396 22.078125 
L 91.03754 17.422766 
L 91.125416 17.203415 
L 91.432983 16.685081 
L 91.520859 16.683759 
L 91.608735 16.553619 
L 91.652673 16.610106 
L 91.784487 16.621573 
L 92.17993 17.104924 
L 93.102631 20.217569 
L 93.717764 22.345648 
L 94.288959 23.401158 
L 94.420774 23.371661 
L 94.420774 23.371661 
" clip-path="url(#pe630feabf9)" style="fill: none; stroke: #b3c8cd; stroke-opacity: 0.3; stroke-linecap: square"/>
   </g>
   <g id="line2d_6">
    <path d="M 76.801593 20.882945 
L 77.416727 22.774711 
L 77.768232 23.31407 
L 78.03186 23.380985 
L 78.251551 23.208161 
L 78.559117 22.640123 
L 79.042437 21.151673 
L 80.228765 17.209386 
L 80.58027 16.746162 
L 80.799961 16.720591 
L 81.019651 16.902293 
L 81.327218 17.480871 
L 81.810537 18.978768 
L 82.996866 22.899691 
L 83.348371 23.348316 
L 83.568062 23.364536 
L 83.83169 23.111921 
L 84.183195 22.355951 
L 84.75439 20.426832 
L 85.677091 17.362516 
L 86.028595 16.80554 
L 86.292224 16.722516 
L 86.511915 16.881166 
L 86.819481 17.430003 
L 87.258862 18.739983 
L 88.577006 23.009028 
L 88.884572 23.348952 
L 89.104263 23.34656 
L 89.367892 23.073195 
L 89.719396 22.295254 
L 90.290592 20.351888 
L 91.169354 17.425576 
L 91.564797 16.798235 
L 91.828426 16.737594 
L 92.048116 16.913944 
L 92.355683 17.483889 
L 92.839002 18.967913 
L 94.025331 22.874479 
L 94.376836 23.327256 
L 94.420774 23.347954 
L 94.420774 23.347954 
" clip-path="url(#pe630feabf9)" style="fill: none; stroke-dasharray: 1.48,0.64; stroke-dashoffset: 0; stroke: #b3c8cd; stroke-width: 0.4"/>
   </g>
   <g id="patch_8">
    <path d="M 76.824002 30.960157 
L 76.824002 9.133386 
" style="fill: none; stroke: #ffffff; stroke-width: 0.5; stroke-linejoin: miter; stroke-linecap: square"/>
   </g>
   <g id="patch_9">
    <path d="M 94.398805 30.960157 
L 94.398805 9.133386 
" style="fill: none; stroke: #ffffff; stroke-width: 0.5; stroke-linejoin: miter; stroke-linecap: square"/>
   </g>
   <g id="patch_10">
    <path d="M 76.824002 30.960157 
L 94.398805 30.960157 
" style="fill: none; stroke: #ffffff; stroke-width: 0.5; stroke-linejoin: miter; stroke-linecap: square"/>
   </g>
   <g id="patch_11">
    <path d="M 76.824002 9.133386 
L 94.398805 9.133386 
" style="fill: none; stroke: #ffffff; stroke-width: 0.5; stroke-linejoin: miter; stroke-linecap: square"/>
   </g>
  </g>
  <g id="axes_4">
   <g id="patch_12">
    <path d="M 24.099592 30.960157 
L 76.824002 30.960157 
L 76.824002 9.133386 
L 24.099592 9.133386 
L 24.099592 30.960157 
z
" style="fill: none"/>
   </g>
   <g id="matplotlib.axis_5"/>
   <g id="matplotlib.axis_6"/>
   <g id="line2d_7">
    <path d="M 24.096873 16.937025 
L 24.19848 29.214577 
L 24.250657 25.640234 
L 24.371487 10.859216 
L 24.426409 15.024437 
L 24.541747 29.014897 
L 24.596669 25.087855 
L 24.714753 11.03896 
L 24.772422 15.608235 
L 24.885013 28.884729 
L 24.942682 24.579568 
L 25.055273 11.204497 
L 25.110196 14.90287 
L 25.231026 28.715461 
L 25.288695 24.054449 
L 25.401286 11.381435 
L 25.456209 15.442979 
L 25.571546 28.570573 
L 25.631961 23.986388 
L 25.747299 11.50838 
L 25.804967 16.232085 
L 25.914813 28.423399 
L 25.969735 24.63313 
L 26.087819 11.654733 
L 26.148234 16.315867 
L 26.260825 28.243395 
L 26.315748 24.235777 
L 26.433832 11.818212 
L 26.486008 15.589841 
L 26.604092 28.140182 
L 26.653522 24.887253 
L 26.774352 11.932242 
L 26.826528 15.320588 
L 26.950104 27.969337 
L 27.005027 23.75532 
L 27.123111 12.075947 
L 27.172541 15.689323 
L 27.287878 27.892943 
L 27.345547 24.117473 
L 27.460885 12.137214 
L 27.515807 15.736092 
L 27.633891 27.78774 
L 27.688814 24.025886 
L 27.801405 12.277451 
L 27.867312 16.800164 
L 27.974411 27.662637 
L 28.03208 24.036693 
L 28.147418 12.392199 
L 28.20234 15.791021 
L 28.325916 27.548669 
L 28.378093 23.698942 
L 28.490684 12.497307 
L 28.542861 15.515655 
L 28.660944 27.445117 
L 28.718613 23.980723 
L 28.836697 12.593593 
L 28.891619 16.13107 
L 29.012449 27.344521 
L 29.064626 23.681107 
L 29.179963 12.666016 
L 29.237632 16.466006 
L 29.350223 27.29401 
L 29.407892 23.654168 
L 29.520483 12.818889 
L 29.580898 16.518707 
L 29.698982 27.177226 
L 29.756651 23.032396 
L 29.86375 12.877785 
L 29.924165 16.501646 
L 30.039502 27.08603 
L 30.102663 22.723883 
L 30.209763 12.965387 
L 30.270177 16.794137 
L 30.382769 27.011834 
L 30.443184 23.081565 
L 30.553029 13.026361 
L 30.607952 16.147094 
L 30.726035 26.941539 
L 30.789196 22.782291 
L 30.901788 13.088748 
L 30.959456 16.978967 
L 31.066556 26.841182 
L 31.121478 24.072271 
L 31.242308 13.198335 
L 31.294485 16.098697 
L 31.412568 26.791849 
L 31.475729 22.922087 
L 31.582828 13.233544 
L 31.637751 16.054698 
L 31.755835 26.695474 
L 31.818996 22.929982 
L 31.928841 13.340725 
L 31.98651 16.633706 
L 32.099101 26.616064 
L 32.159516 23.223624 
L 32.274854 13.389763 
L 32.332522 16.874527 
L 32.445114 26.570085 
L 32.505529 23.049693 
L 32.620866 13.471037 
L 32.664804 15.753916 
L 32.785634 26.483352 
L 32.846049 23.377371 
L 32.95864 13.51794 
L 33.019055 16.754254 
L 33.131647 26.446827 
L 33.183823 23.852189 
L 33.304653 13.561083 
L 33.365068 17.025445 
L 33.483151 26.37137 
L 33.538074 22.874304 
L 33.645173 13.665058 
L 33.700096 16.159216 
L 33.820926 26.326076 
L 33.884087 22.636605 
L 33.991186 13.69486 
L 34.046108 16.423762 
L 34.164192 26.23751 
L 34.227353 22.715134 
L 34.337198 13.782261 
L 34.386629 16.064905 
L 34.512951 26.217323 
L 34.562381 23.500166 
L 34.683211 13.810494 
L 34.743626 17.351312 
L 34.853471 26.125308 
L 34.902902 23.854341 
L 35.023731 13.900148 
L 35.078654 16.522493 
L 35.193991 26.063389 
L 35.257152 22.849061 
L 35.37249 13.986333 
L 35.427413 16.96573 
L 35.545496 26.047233 
L 35.597673 23.216121 
L 35.715756 13.990727 
L 35.762441 16.197913 
L 35.886017 25.982476 
L 35.949178 22.467405 
L 36.059023 14.044823 
L 36.111199 16.590809 
L 36.232029 25.950458 
L 36.284206 23.242002 
L 36.407782 14.099568 
L 36.46545 17.563363 
L 36.575296 25.873705 
L 36.630218 23.090323 
L 36.745556 14.110441 
L 36.808717 17.504573 
L 36.921308 25.841407 
L 36.976231 22.938924 
L 37.091568 14.15623 
L 37.138253 16.278875 
L 37.261829 25.796535 
L 37.333228 21.591237 
L 37.434835 14.214816 
L 37.497996 17.618782 
L 37.610587 25.71932 
L 37.660018 23.221032 
L 37.78634 14.300894 
L 37.844008 17.784807 
L 37.948361 25.713312 
L 37.997792 23.734288 
L 38.121368 14.306422 
L 38.181783 17.279935 
L 38.291628 25.650326 
L 38.363027 21.925902 
L 38.461888 14.369558 
L 38.514065 16.223869 
L 38.640387 25.636253 
L 38.689817 23.415777 
L 38.816139 14.394835 
L 38.873808 17.642514 
L 38.980907 25.57746 
L 39.04956 22.03082 
L 39.156659 14.432878 
L 39.211582 17.030132 
L 39.321427 25.515303 
L 39.384588 22.840125 
L 39.505418 14.49598 
L 39.563087 17.678498 
L 39.66744 25.487891 
L 39.722363 23.341857 
L 39.843192 14.49953 
L 39.903607 17.393538 
L 40.013452 25.458674 
L 40.07936 22.312968 
L 40.189205 14.563483 
L 40.241381 16.876662 
L 40.364957 25.402051 
L 40.428118 21.861357 
L 40.532471 14.576914 
L 40.587394 17.032658 
L 40.705478 25.403866 
L 40.771385 21.958923 
L 40.875738 14.63006 
L 40.933407 17.185307 
L 41.048744 25.351055 
L 41.103667 22.964657 
L 41.219004 14.64986 
L 41.273927 16.878313 
L 41.392011 25.329917 
L 41.460664 21.882087 
L 41.570509 14.695312 
L 41.61994 17.006671 
L 41.738023 25.27913 
L 41.787454 23.292871 
L 41.911029 14.716187 
L 41.971444 17.60533 
L 42.08129 25.251416 
L 42.13072 23.39529 
L 42.25155 14.758653 
L 42.314711 17.575583 
L 42.424556 25.220615 
L 42.479479 23.001306 
L 42.600309 14.823995 
L 42.660723 17.694142 
L 42.767823 25.17553 
L 42.825491 22.830467 
L 42.949067 14.834843 
L 43.009482 18.06152 
L 43.113835 25.13061 
L 43.168758 22.961363 
L 43.286841 14.847386 
L 43.341764 17.124009 
L 43.46534 25.078472 
L 43.51477 22.821002 
L 43.630108 14.88531 
L 43.682284 16.831576 
L 43.80586 25.098099 
L 43.863529 22.431593 
L 43.97612 14.908938 
L 44.033789 17.391168 
L 44.149127 25.044477 
L 44.198557 23.105901 
L 44.324879 14.987308 
L 44.379802 17.517622 
L 44.495139 25.003314 
L 44.54457 22.968895 
L 44.662653 14.99498 
L 44.731307 18.140325 
L 44.832914 24.950735 
L 44.887836 23.115051 
L 45.014158 15.017089 
L 45.060842 16.964054 
L 45.17618 24.935292 
L 45.233849 22.911517 
L 45.357425 15.03777 
L 45.426078 18.708259 
L 45.524939 24.952477 
L 45.582607 22.599644 
L 45.695199 15.077101 
L 45.761106 17.850955 
L 45.873697 24.911051 
L 45.925874 22.632367 
L 46.041211 15.105436 
L 46.101626 17.568388 
L 46.21971 24.842564 
L 46.274633 22.287598 
L 46.38997 15.142317 
L 46.455877 18.413692 
L 46.557484 24.841879 
L 46.615153 22.63623 
L 46.733237 15.150456 
L 46.782667 17.041027 
L 46.906243 24.823277 
L 46.958419 22.685995 
L 47.073757 15.178519 
L 47.134172 17.551431 
L 47.249509 24.79954 
L 47.31267 21.96905 
L 47.41977 15.196565 
L 47.4692 16.891767 
L 47.592776 24.779601 
L 47.650445 22.470979 
L 47.765782 15.250478 
L 47.826197 17.77843 
L 47.936042 24.727653 
L 47.988219 22.930376 
L 48.106302 15.265665 
L 48.166717 17.573562 
L 48.284801 24.729695 
L 48.347962 21.808585 
L 48.457807 15.292113 
L 48.504492 17.076214 
L 48.630814 24.693614 
L 48.68299 22.514901 
L 48.801074 15.316003 
L 48.845012 16.88744 
L 48.979572 24.637425 
L 49.037241 21.723904 
L 49.14434 15.32821 
L 49.196517 17.313071 
L 49.317347 24.65165 
L 49.369523 22.577662 
L 49.487607 15.348267 
L 49.55626 18.41863 
L 49.657867 24.631124 
L 49.715536 22.522731 
L 49.836365 15.392386 
L 49.885796 17.366774 
L 50.001133 24.583288 
L 50.061548 22.36915 
L 50.179632 15.419899 
L 50.242793 18.237911 
L 50.352638 24.582537 
L 50.399322 22.799408 
L 50.522898 15.406218 
L 50.591552 18.608216 
L 50.695905 24.578776 
L 50.745335 22.705308 
L 50.863419 15.480103 
L 50.94031 18.996131 
L 51.041917 24.514583 
L 51.09684 22.241335 
L 51.214923 15.467174 
L 51.2671 17.640936 
L 51.379691 24.509915 
L 51.453837 21.249089 
L 51.555444 15.516713 
L 51.615859 17.950748 
L 51.731196 24.505268 
L 51.780627 22.581616 
L 51.89871 15.533235 
L 51.961871 18.077441 
L 52.074463 24.468523 
L 52.137624 21.692704 
L 52.241977 15.565331 
L 52.294153 17.220768 
L 52.417729 24.441937 
L 52.478144 22.005608 
L 52.593482 15.554162 
L 52.640166 17.331931 
L 52.766488 24.418869 
L 52.82141 22.104316 
L 52.92851 15.581958 
L 52.986178 17.416019 
L 53.109754 24.417653 
L 53.156439 22.669933 
L 53.282761 15.598893 
L 53.334937 17.677922 
L 53.453021 24.355826 
L 53.505197 22.377104 
L 53.623281 15.626754 
L 53.69468 18.818508 
L 53.796287 24.340254 
L 53.845718 22.626997 
L 53.97204 15.631434 
L 54.040693 18.968156 
L 54.139554 24.347902 
L 54.197222 22.22433 
L 54.31256 15.641083 
L 54.359244 17.152721 
L 54.485566 24.343443 
L 54.548727 21.744287 
L 54.658573 15.698985 
L 54.705257 17.282206 
L 54.826087 24.323235 
L 54.908471 20.521917 
L 55.007331 15.696144 
L 55.054016 17.512275 
L 55.172099 24.302806 
L 55.240752 21.522291 
L 55.342359 15.713147 
L 55.394536 17.237333 
L 55.520858 24.271385 
L 55.564796 22.853017 
L 55.688372 15.713603 
L 55.740548 17.348826 
L 55.861378 24.274838 
L 55.924539 21.84185 
L 56.034385 15.729596 
L 56.089307 17.684 
L 56.210137 24.25623 
L 56.276044 21.359742 
L 56.377651 15.771957 
L 56.432574 17.55206 
L 56.550657 24.228365 
L 56.602834 22.504199 
L 56.731902 15.798557 
L 56.800555 19.216268 
L 56.899416 24.192851 
L 56.951592 22.300785 
L 57.072422 15.795209 
L 57.124599 17.771186 
L 57.234444 24.156456 
L 57.30859 21.472467 
L 57.418435 15.842614 
L 57.465119 17.551709 
L 57.588695 24.145044 
L 57.646364 21.944232 
L 57.761701 15.83374 
L 57.805639 17.326747 
L 57.871547 21.907732 
L 57.929215 24.152401 
L 57.984138 22.322267 
L 58.11046 15.876775 
L 58.157144 17.67136 
L 58.272482 24.12954 
L 58.330151 22.194587 
L 58.448234 15.862306 
L 58.516888 18.751565 
L 58.615748 24.115897 
L 58.678909 21.962375 
L 58.796993 15.894766 
L 58.857408 18.461811 
L 58.969999 24.097652 
L 59.016683 22.370943 
L 59.140259 15.904478 
L 59.195182 17.948456 
L 59.313266 24.089996 
L 59.357204 22.593373 
L 59.478034 15.921339 
L 59.546687 18.436018 
L 59.656532 24.083649 
L 59.70047 22.695254 
L 59.832285 15.937571 
L 59.889953 18.343746 
L 59.997052 24.044049 
L 60.046483 22.57613 
L 60.172805 15.940254 
L 60.24695 19.196707 
L 60.340319 24.041147 
L 60.397988 22.183483 
L 60.516071 15.978469 
L 60.565502 17.527243 
L 60.691824 24.017355 
L 60.741254 22.296695 
L 60.856592 16.000616 
L 60.91426 17.808291 
L 61.026852 24.001128 
L 61.103744 21.08368 
L 61.20535 15.977538 
L 61.265765 18.180324 
L 61.381103 24.003622 
L 61.436025 21.895095 
L 61.551363 16.028421 
L 61.61727 18.629574 
L 61.724369 23.953418 
L 61.776546 22.199008 
L 61.889137 16.024964 
L 61.949552 17.846004 
L 62.067636 23.975027 
L 62.122558 22.121396 
L 62.237896 16.032884 
L 62.290072 17.651124 
L 62.408156 23.95137 
L 62.476809 21.414953 
L 62.589401 16.060885 
L 62.638831 17.906914 
L 62.756915 23.922652 
L 62.828314 21.033667 
L 62.927175 16.062193 
L 62.979351 17.612345 
L 63.105674 23.925729 
L 63.149612 22.452861 
L 63.273188 16.108163 
L 63.336349 18.435042 
L 63.446194 23.92763 
L 63.514847 21.141719 
L 63.613708 16.093955 
L 63.671377 17.812 
L 63.78946 23.9025 
L 63.838891 22.491099 
L 63.95972 16.115583 
L 64.014643 17.728832 
L 64.132727 23.866525 
L 64.187649 22.20344 
L 64.305733 16.14054 
L 64.35791 17.648668 
L 64.481485 23.876184 
L 64.539154 21.808548 
L 64.654492 16.156349 
L 64.712161 18.206214 
L 64.827498 23.851679 
L 64.86869 22.622097 
L 64.997758 16.141625 
L 65.052681 17.995643 
L 65.170765 23.836795 
L 65.222941 22.139702 
L 65.338279 16.147988 
L 65.387709 17.42225 
L 65.514031 23.845892 
L 65.5717 21.906345 
L 65.689783 16.172837 
L 65.730975 17.367438 
L 65.857297 23.807331 
L 65.903982 22.557223 
L 66.027558 16.206566 
L 66.098957 18.748335 
L 66.206056 23.799969 
L 66.249994 22.459042 
L 66.37357 16.21261 
L 66.436731 18.336759 
L 66.546576 23.806806 
L 66.598753 22.232751 
L 66.725075 16.220049 
L 66.777252 18.079576 
L 66.895335 23.78826 
L 66.942019 22.362103 
L 67.062849 16.23994 
L 67.109533 17.389072 
L 67.238602 23.767745 
L 67.29627 21.749722 
L 67.408862 16.242256 
L 67.466531 18.088437 
L 67.581868 23.765469 
L 67.639537 21.835686 
L 67.754874 16.253371 
L 67.815289 18.364871 
L 67.922388 23.736929 
L 67.993788 21.294473 
L 68.098141 16.253243 
L 68.144825 17.514059 
L 68.268401 23.714767 
L 68.331562 21.726672 
L 68.441407 16.280704 
L 68.501822 18.146676 
L 68.611667 23.690938 
L 68.669336 22.09386 
L 68.784674 16.309867 
L 68.850581 18.432893 
L 68.960426 23.71991 
L 69.009857 22.30314 
L 69.136179 16.315956 
L 69.185609 17.896664 
L 69.303693 23.698691 
L 69.361361 21.952442 
L 69.482191 16.314305 
L 69.531622 17.910433 
L 69.652451 23.659416 
L 69.693643 22.604904 
L 69.819965 16.335308 
L 69.877634 18.008876 
L 69.995718 23.686001 
L 70.047894 22.055597 
L 70.174216 16.356324 
L 70.240124 19.112169 
L 70.34173 23.642234 
L 70.399399 21.654515 
L 70.509244 16.334981 
L 70.577898 18.700072 
L 70.687743 23.64179 
L 70.742666 21.784966 
L 70.855257 16.36877 
L 70.91018 17.970265 
L 71.025517 23.644226 
L 71.099663 21.038451 
L 71.198523 16.370378 
L 71.256192 17.987919 
L 71.374276 23.624742 
L 71.431945 21.797554 
L 71.550028 16.380418 
L 71.593966 17.641757 
L 71.71205 23.562875 
L 71.764227 22.411148 
L 71.887803 16.400393 
L 71.950964 18.305629 
L 72.069047 23.58383 
L 72.110239 22.33759 
L 72.236561 16.384126 
L 72.291484 18.136138 
L 72.406821 23.594384 
L 72.469982 21.570865 
L 72.582574 16.396305 
L 72.63475 17.990268 
L 72.750088 23.587994 
L 72.802264 22.244942 
L 72.92584 16.452301 
L 72.983509 18.305019 
L 73.0961 23.57151 
L 73.175738 20.496077 
L 73.274599 16.438027 
L 73.332268 18.466937 
L 73.444859 23.547471 
L 73.49429 22.060741 
L 73.609627 16.456885 
L 73.670042 18.124235 
L 73.790872 23.514537 
L 73.843048 21.87011 
L 73.958386 16.44167 
L 74.013308 17.986372 
L 74.134138 23.551591 
L 74.17533 22.516846 
L 74.29616 16.492559 
L 74.34559 17.469633 
L 74.474659 23.506896 
L 74.554296 20.571847 
L 74.650411 16.455349 
L 74.699841 17.884123 
L 74.817925 23.52127 
L 74.87834 21.781858 
L 74.990931 16.471542 
L 75.051346 18.23827 
L 75.163938 23.497152 
L 75.21886 21.982525 
L 75.345182 16.502176 
L 75.391866 18.027528 
L 75.50995 23.50513 
L 75.575857 21.319139 
L 75.685703 16.510684 
L 75.732387 17.849693 
L 75.861455 23.47774 
L 75.916378 21.524127 
L 76.034461 16.529918 
L 76.086638 18.367901 
L 76.201975 23.485962 
L 76.270629 21.014131 
L 76.372235 16.519702 
L 76.424412 17.965286 
L 76.547988 23.468334 
L 76.613895 21.112405 
L 76.715502 16.540163 
L 76.764932 17.72978 
L 76.825347 21.254121 
L 76.825347 21.254121 
" clip-path="url(#pac2b3b19c1)" style="fill: none; stroke: #b3c8cd; stroke-width: 0.05; stroke-linecap: square"/>
   </g>
   <g id="line2d_8">
    <path d="M 24.096873 17.007097 
L 24.201226 29.203013 
L 24.256149 24.889264 
L 24.371487 10.986879 
L 24.429155 15.469718 
L 24.544493 29.0146 
L 24.599416 24.752709 
L 24.714753 11.16862 
L 24.772422 15.593343 
L 24.887759 28.837295 
L 24.942682 24.634502 
L 25.05802 11.340082 
L 25.115688 15.699742 
L 25.231026 28.670172 
L 25.285948 24.532578 
L 25.401286 11.502114 
L 25.458955 15.790843 
L 25.574292 28.512368 
L 25.629215 24.44514 
L 25.744552 11.655508 
L 25.802221 15.868325 
L 25.917559 28.363087 
L 25.972481 24.370616 
L 26.087819 11.800997 
L 26.145488 15.933659 
L 26.260825 28.221592 
L 26.315748 24.307629 
L 26.431085 11.93926 
L 26.488754 15.988134 
L 26.604092 28.087202 
L 26.659014 24.254966 
L 26.774352 12.070928 
L 26.832021 16.032891 
L 26.947358 27.95929 
L 27.002281 24.211552 
L 27.117618 12.196581 
L 27.175287 16.068938 
L 27.290625 27.837275 
L 27.348293 23.840231 
L 27.460885 12.316757 
L 27.518554 16.097171 
L 27.633891 27.720626 
L 27.69156 23.818654 
L 27.806897 12.431635 
L 27.86182 16.118388 
L 27.977157 27.608848 
L 28.034826 23.803679 
L 28.150164 12.539919 
L 28.205086 16.133306 
L 28.320424 27.501487 
L 28.378093 23.794632 
L 28.49343 12.643898 
L 28.548353 16.142566 
L 28.66369 27.398124 
L 28.721359 23.790908 
L 28.836697 12.743984 
L 28.894365 16.460931 
L 29.009703 27.298757 
L 29.064626 23.79196 
L 29.179963 12.840563 
L 29.237632 16.454806 
L 29.352969 27.205405 
L 29.407892 23.797294 
L 29.52323 12.933986 
L 29.580898 16.444661 
L 29.696236 27.115108 
L 29.753905 23.501948 
L 29.866496 13.024583 
L 29.924165 16.43092 
L 30.039502 27.027545 
L 30.097171 23.520128 
L 30.212509 13.109422 
L 30.267431 16.413969 
L 30.382769 26.942417 
L 30.440438 23.541309 
L 30.555775 13.191571 
L 30.613444 16.689267 
L 30.728781 26.859636 
L 30.783704 23.565159 
L 30.899042 13.271646 
L 30.95671 16.661489 
L 31.072048 26.782482 
L 31.12697 23.59137 
L 31.242308 13.349901 
L 31.299977 16.631516 
L 31.415314 26.707066 
L 31.472983 23.333711 
L 31.588321 13.424822 
L 31.643243 16.599614 
L 31.758581 26.633159 
L 31.81625 23.369126 
L 31.931587 13.495946 
L 31.989256 16.848279 
L 32.101847 26.560551 
L 32.159516 23.406091 
L 32.274854 13.565848 
L 32.332522 16.808025 
L 32.44786 26.493176 
L 32.502782 23.444386 
L 32.61812 13.634721 
L 32.675789 16.766555 
L 32.791126 26.426955 
L 32.848795 23.210369 
L 32.964133 13.700045 
L 33.019055 16.724062 
L 33.134393 26.361516 
L 33.192061 23.25585 
L 33.307399 13.762885 
L 33.365068 16.950609 
L 33.480405 26.298275 
L 33.535328 23.302082 
L 33.650665 13.825174 
L 33.708334 16.901557 
L 33.823672 26.238533 
L 33.881341 23.082546 
L 33.996678 13.886312 
L 34.051601 16.851997 
L 34.166938 26.179132 
L 34.224607 23.134775 
L 34.339945 13.943219 
L 34.397613 17.06494 
L 34.512951 26.120105 
L 34.567873 23.187297 
L 34.683211 13.99998 
L 34.74088 17.009886 
L 34.856217 26.065788 
L 34.91114 23.239982 
L 35.026477 14.056717 
L 35.084146 16.954732 
L 35.199484 26.011437 
L 35.257152 23.038128 
L 35.37249 14.108851 
L 35.427413 16.899594 
L 35.54275 25.956941 
L 35.600419 23.095619 
L 35.715756 14.161007 
L 35.773425 17.095811 
L 35.888763 25.90682 
L 35.943685 23.152931 
L 36.059023 14.213464 
L 36.116692 17.036252 
L 36.232029 25.856658 
L 36.289698 22.962054 
L 36.405036 14.261578 
L 36.459958 16.977018 
L 36.578042 25.806034 
L 36.632964 23.02344 
L 36.748302 14.309935 
L 36.805971 17.162826 
L 36.921308 25.759932 
L 36.978977 22.838375 
L 37.094315 14.358492 
L 37.149237 17.099833 
L 37.264575 25.713204 
L 37.322243 22.90338 
L 37.437581 14.403007 
L 37.49525 17.280149 
L 37.610587 25.666696 
L 37.66551 22.967781 
L 37.780847 14.448269 
L 37.838516 17.213813 
L 37.953854 25.623605 
L 38.011523 22.791989 
L 38.12686 14.492749 
L 38.181783 17.148186 
L 38.29712 25.579656 
L 38.354789 22.85948 
L 38.470127 14.534567 
L 38.527795 17.319662 
L 38.643133 25.537183 
L 38.698055 22.926168 
L 38.813393 14.577348 
L 38.871062 17.251175 
L 38.986399 25.496494 
L 39.044068 22.758817 
L 39.159406 14.617837 
L 39.214328 17.183578 
L 39.329666 25.454747 
L 39.387334 22.828154 
L 39.502672 14.657529 
L 39.560341 17.34698 
L 39.675678 25.416219 
L 39.730601 22.89652 
L 39.848685 14.698162 
L 39.903607 17.276928 
L 40.018945 25.3774 
L 40.076614 22.736905 
L 40.191951 14.73496 
L 40.24962 17.436142 
L 40.364957 25.338748 
L 40.41988 22.807549 
L 40.535218 14.773023 
L 40.592886 17.3639 
L 40.708224 25.302672 
L 40.765893 22.651919 
L 40.88123 14.809719 
L 40.936153 17.292776 
L 41.05149 25.265255 
L 41.109159 22.724597 
L 41.224497 14.845182 
L 41.282165 17.444959 
L 41.397503 25.230488 
L 41.452425 22.796094 
L 41.570509 14.881889 
L 41.625432 17.371948 
L 41.740769 25.195537 
L 41.798438 22.647231 
L 41.913776 14.914919 
L 41.971444 17.520528 
L 42.086782 25.160768 
L 42.141705 22.720482 
L 42.257042 14.949453 
L 42.314711 17.445835 
L 42.430048 25.128125 
L 42.487717 22.575061 
L 42.603055 14.982311 
L 42.657977 17.372431 
L 42.773315 25.09392 
L 42.830984 22.649874 
L 42.946321 15.014655 
L 43.00399 17.514802 
L 43.119327 25.062946 
L 43.176996 22.507725 
L 43.292334 15.047434 
L 43.347256 17.439947 
L 43.462594 25.030818 
L 43.520263 22.583929 
L 43.6356 15.077731 
L 43.693269 17.579185 
L 43.808606 24.999925 
L 43.863529 22.658753 
L 43.978867 15.109721 
L 44.036535 17.503039 
L 44.151873 24.96974 
L 44.209542 22.522333 
L 44.324879 15.138753 
L 44.382548 17.639292 
L 44.497885 24.938987 
L 44.552808 22.598356 
L 44.668146 15.1689 
L 44.725814 17.562 
L 44.841152 24.910617 
L 44.898821 22.464801 
L 45.014158 15.197793 
L 45.069081 17.486161 
L 45.184418 24.880443 
L 45.242087 22.541887 
L 45.357425 15.226216 
L 45.415093 17.617099 
L 45.530431 24.853382 
L 45.5881 22.411067 
L 45.703437 15.254922 
L 45.75836 17.540274 
L 45.873697 24.824843 
L 45.931366 22.489092 
L 46.046704 15.281737 
L 46.104372 17.668582 
L 46.21971 24.797966 
L 46.274633 22.565601 
L 46.392716 15.310211 
L 46.447639 17.590889 
L 46.562976 24.770953 
L 46.620645 22.439739 
L 46.735983 15.335525 
L 46.793652 17.71668 
L 46.908989 24.744301 
L 46.963912 22.517052 
L 47.079249 15.362791 
L 47.136918 17.638224 
L 47.252256 24.718712 
L 47.309924 22.393613 
L 47.425262 15.387645 
L 47.482931 17.761602 
L 47.598268 24.692323 
L 47.653191 22.471631 
L 47.768528 15.413561 
L 47.826197 17.682479 
L 47.941535 24.668059 
L 47.999203 22.350517 
L 48.114541 15.438161 
L 48.169463 17.604942 
L 48.287547 24.641964 
L 48.34247 22.429148 
L 48.457807 15.462819 
L 48.515476 17.723843 
L 48.630814 24.618935 
L 48.688482 22.310267 
L 48.80382 15.487132 
L 48.858743 17.645743 
L 48.97408 24.593838 
L 49.031749 22.389427 
L 49.147086 15.51062 
L 49.204755 17.762489 
L 49.320093 24.571282 
L 49.377761 22.272692 
L 49.493099 15.534619 
L 49.548022 17.683904 
L 49.663359 24.547293 
L 49.721028 22.352305 
L 49.836365 15.557021 
L 49.894034 17.798577 
L 50.009372 24.525042 
L 50.064294 22.43028 
L 50.182378 15.580682 
L 50.237301 17.71958 
L 50.352638 24.502082 
L 50.410307 22.317629 
L 50.525644 15.602075 
L 50.583313 17.832256 
L 50.698651 24.48016 
L 50.753573 22.395977 
L 50.871657 15.625375 
L 50.92658 17.752915 
L 51.041917 24.458155 
L 51.099586 22.285259 
L 51.214923 15.645835 
L 51.272592 17.863667 
L 51.38793 24.436583 
L 51.442852 22.363916 
L 51.55819 15.668485 
L 51.615859 17.784042 
L 51.731196 24.41546 
L 51.788865 22.255062 
L 51.904203 15.688352 
L 51.961871 17.892938 
L 52.077209 24.394258 
L 52.132131 22.333971 
L 52.247469 15.710167 
L 52.305138 17.813085 
L 52.420475 24.373951 
L 52.478144 22.226917 
L 52.593482 15.729675 
L 52.65115 17.920189 
L 52.766488 24.353136 
L 52.82141 22.306023 
L 52.936748 15.75072 
L 52.994417 17.840162 
L 53.109754 24.33358 
L 53.167423 22.200708 
L 53.282761 15.769852 
L 53.340429 17.945535 
L 53.455767 24.313166 
L 53.51069 22.279962 
L 53.626027 15.790188 
L 53.683696 17.86538 
L 53.799033 24.294301 
L 53.856702 22.176328 
L 53.97204 15.808929 
L 54.029708 17.969079 
L 54.145046 24.274302 
L 54.199969 22.255684 
L 54.315306 15.828615 
L 54.372975 17.888842 
L 54.488312 24.25607 
L 54.545981 22.153677 
L 54.661319 15.846952 
L 54.716241 17.810308 
L 54.834325 24.236499 
L 54.889248 22.233093 
L 55.004585 15.866043 
L 55.062254 17.910644 
L 55.177591 24.218844 
L 55.23526 22.132662 
L 55.350598 15.883964 
L 55.40552 17.832071 
L 55.523604 24.199712 
L 55.578527 22.212098 
L 55.693864 15.902512 
L 55.751533 17.930873 
L 55.86687 24.182583 
L 55.924539 22.113194 
L 56.039877 15.920007 
L 56.094799 17.852302 
L 56.212883 24.163898 
L 56.267806 22.192614 
L 56.383143 15.938063 
L 56.440812 17.949616 
L 56.55615 24.147246 
L 56.613818 22.095191 
L 56.729156 15.955121 
L 56.784078 17.871079 
L 56.902162 24.129018 
L 56.957085 22.17456 
L 57.072422 15.972731 
L 57.130091 17.966949 
L 57.245429 24.112795 
L 57.303097 22.078576 
L 57.418435 15.989344 
L 57.473357 17.888479 
L 57.591441 24.095031 
L 57.646364 22.157862 
L 57.761701 16.006555 
L 57.81937 17.982946 
L 57.934708 24.079193 
L 57.992376 22.063275 
L 58.107714 16.022714 
L 58.162637 17.904575 
L 58.28072 24.061901 
L 58.335643 22.14245 
L 58.45098 16.039568 
L 58.508649 17.997678 
L 58.623987 24.046406 
L 58.681655 22.04922 
L 58.796993 16.055267 
L 58.851916 17.919433 
L 58.969999 24.029592 
L 59.024922 22.128257 
L 59.140259 16.071805 
L 59.197928 18.011209 
L 59.313266 24.014398 
L 59.370934 22.036348 
L 59.486272 16.087038 
L 59.543941 18.103238 
L 59.659278 23.998067 
L 59.714201 22.11522 
L 59.829538 16.103298 
L 59.887207 18.023602 
L 60.002545 23.983136 
L 60.060214 22.024596 
L 60.175551 16.11806 
L 60.23322 18.114352 
L 60.348557 23.967293 
L 60.40348 22.10328 
L 60.518817 16.134081 
L 60.576486 18.034915 
L 60.691824 23.952588 
L 60.749493 22.013908 
L 60.86483 16.148366 
L 60.922499 18.124418 
L 61.037836 23.937237 
L 61.092759 22.092381 
L 61.208097 16.164181 
L 61.265765 18.045202 
L 61.381103 23.922724 
L 61.438772 22.00423 
L 61.554109 16.177986 
L 61.611778 18.133491 
L 61.727115 23.907868 
L 61.782038 22.08247 
L 61.897376 16.193631 
L 61.955044 18.054516 
L 62.070382 23.893513 
L 62.128051 21.995509 
L 62.243388 16.20695 
L 62.301057 18.141621 
L 62.416394 23.879157 
L 62.471317 22.073498 
L 62.589401 16.222333 
L 62.644323 18.062906 
L 62.759661 23.864928 
L 62.81733 21.987698 
L 62.932667 16.235288 
L 62.990336 18.148855 
L 63.105674 23.851074 
L 63.160596 22.065417 
L 63.27868 16.250155 
L 63.333602 18.070419 
L 63.44894 23.83694 
L 63.506609 21.980752 
L 63.621946 16.263027 
L 63.679615 18.155239 
L 63.794953 23.823591 
L 63.849875 22.058183 
L 63.967959 16.277376 
L 64.022881 18.077097 
L 64.138219 23.809525 
L 64.195888 21.974626 
L 64.311225 16.290192 
L 64.368894 18.160814 
L 64.484232 23.796682 
L 64.5419 21.890761 
L 64.657238 16.304023 
L 64.712161 18.082983 
L 64.827498 23.782655 
L 64.885167 21.96928 
L 65.000504 16.316811 
L 65.058173 18.165622 
L 65.173511 23.77032 
L 65.231179 21.886488 
L 65.346517 16.330121 
L 65.40144 18.088117 
L 65.516777 23.756306 
L 65.574446 21.964675 
L 65.689783 16.342907 
L 65.747452 18.169701 
L 65.86279 23.744482 
L 65.920458 21.882932 
L 66.035796 16.355696 
L 66.090719 18.092536 
L 66.208802 23.730737 
L 66.263725 21.960774 
L 66.379062 16.368505 
L 66.436731 18.173088 
L 66.552069 23.719143 
L 66.609737 21.880057 
L 66.725075 16.380771 
L 66.779998 18.096276 
L 66.898081 23.705931 
L 66.953004 21.957541 
L 67.068341 16.393628 
L 67.12601 18.175817 
L 67.241348 23.694279 
L 67.299017 21.87783 
L 67.414354 16.405371 
L 67.472023 18.255686 
L 67.58736 23.681601 
L 67.642283 21.954943 
L 67.757621 16.418297 
L 67.815289 18.17792 
L 67.930627 23.669869 
L 67.988296 21.876218 
L 68.103633 16.429516 
L 68.161302 18.256809 
L 68.276639 23.657725 
L 68.331562 21.952949 
L 68.449646 16.442577 
L 68.504568 18.17943 
L 68.619906 23.645891 
L 68.677575 21.87519 
L 68.792912 16.453229 
L 68.850581 18.257358 
L 68.965918 23.634281 
L 69.020841 21.951528 
L 69.138925 16.465746 
L 69.193847 18.180376 
L 69.309185 23.622326 
L 69.366854 21.874717 
L 69.482191 16.476531 
L 69.53986 18.257361 
L 69.655197 23.611249 
L 69.712866 21.797567 
L 69.828204 16.488505 
L 69.883126 18.180786 
L 69.998464 23.599152 
L 70.056133 21.874771 
L 70.17147 16.49944 
L 70.229139 18.256846 
L 70.344477 23.588609 
L 70.402145 21.798541 
L 70.517483 16.510872 
L 70.572405 18.180688 
L 70.687743 23.576352 
L 70.745412 21.875324 
L 70.860749 16.521976 
L 70.918418 18.25584 
L 71.033756 23.566341 
L 71.091424 21.799998 
L 71.206762 16.532866 
L 71.261684 18.180108 
L 71.379768 23.554578 
L 71.434691 21.876352 
L 71.550028 16.544159 
L 71.607697 18.254366 
L 71.723035 23.544427 
L 71.780703 21.801914 
L 71.896041 16.554508 
L 71.95371 18.328975 
L 72.069047 23.533213 
L 72.12397 21.877831 
L 72.239307 16.566004 
L 72.296976 18.25245 
L 72.412314 23.522849 
L 72.469982 21.804265 
L 72.58532 16.575814 
L 72.642989 18.326191 
L 72.758326 23.512183 
L 72.813249 21.879737 
L 72.931333 16.587331 
L 72.986255 18.250114 
L 73.101593 23.50159 
L 73.159261 21.807029 
L 73.274599 16.596802 
L 73.332268 18.323002 
L 73.447605 23.49147 
L 73.502528 21.882047 
L 73.620612 16.607764 
L 73.67828 18.396221 
L 73.790872 23.480633 
L 73.848541 21.810184 
L 73.963878 16.617488 
L 74.021547 18.319429 
L 74.136884 23.471058 
L 74.194553 21.73796 
L 74.309891 16.627897 
L 74.364813 18.24427 
L 74.480151 23.459962 
L 74.53782 21.813709 
L 74.653157 16.637889 
L 74.710826 18.315492 
L 74.826163 23.450932 
L 74.883832 21.742306 
L 74.99917 16.647747 
L 75.054092 18.240802 
L 75.172176 23.440252 
L 75.227099 21.817585 
L 75.342436 16.65802 
L 75.400105 18.31121 
L 75.515442 23.431074 
L 75.573111 21.746991 
L 75.688449 16.667328 
L 75.746117 18.38198 
L 75.861455 23.420951 
L 75.916378 21.821792 
L 76.031715 16.677895 
L 76.089384 18.306603 
L 76.204721 23.411471 
L 76.26239 21.751996 
L 76.377728 16.686655 
L 76.435397 18.376581 
L 76.550734 23.401903 
L 76.605657 21.826314 
L 76.72374 16.697025 
L 76.778663 18.301687 
L 76.825347 21.043986 
L 76.825347 21.043986 
" clip-path="url(#pac2b3b19c1)" style="fill: none; stroke-dasharray: 0.185,0.08; stroke-dashoffset: 0; stroke: #b3c8cd; stroke-width: 0.05"/>
   </g>
   <g id="patch_13">
    <path d="M 24.099592 30.960157 
L 24.099592 9.133386 
" style="fill: none; stroke: #ffffff; stroke-width: 0.5; stroke-linejoin: miter; stroke-linecap: square"/>
   </g>
   <g id="patch_14">
    <path d="M 76.824002 30.960157 
L 76.824002 9.133386 
" style="fill: none; stroke: #ffffff; stroke-width: 0.5; stroke-linejoin: miter; stroke-linecap: square"/>
   </g>
   <g id="patch_15">
    <path d="M 24.099592 30.960157 
L 76.824002 30.960157 
" style="fill: none; stroke: #ffffff; stroke-width: 0.5; stroke-linejoin: miter; stroke-linecap: square"/>
   </g>
   <g id="patch_16">
    <path d="M 24.099592 9.133386 
L 76.824002 9.133386 
" style="fill: none; stroke: #ffffff; stroke-width: 0.5; stroke-linejoin: miter; stroke-linecap: square"/>
   </g>
  </g>
 </g>
 <defs>
  <clipPath id="p0b21584a8f">
   <rect x="6.524789" y="9.133386" width="17.574803" height="21.826772"/>
  </clipPath>
  <clipPath id="pe630feabf9">
   <rect x="76.824002" y="9.133386" width="17.574803" height="21.826772"/>
  </clipPath>
  <clipPath id="pac2b3b19c1">
   <rect x="24.099592" y="9.133386" width="52.724409" height="21.826772"/>
  </clipPath>
 </defs>
</svg>
