<?xml version="1.0" encoding="utf-8" standalone="no"?>
<!DOCTYPE svg PUBLIC "-//W3C//DTD SVG 1.1//EN"
  "http://www.w3.org/Graphics/SVG/1.1/DTD/svg11.dtd">
<svg xmlns:xlink="http://www.w3.org/1999/xlink" width="100.923594pt" height="41.502205pt" viewBox="0 0 100.923594 41.502205" xmlns="http://www.w3.org/2000/svg" version="1.1">
 <metadata>
  <rdf:RDF xmlns:dc="http://purl.org/dc/elements/1.1/" xmlns:cc="http://creativecommons.org/ns#" xmlns:rdf="http://www.w3.org/1999/02/22-rdf-syntax-ns#">
   <cc:Work>
    <dc:type rdf:resource="http://purl.org/dc/dcmitype/StillImage"/>
    <dc:date>2025-01-13T14:57:54.998326</dc:date>
    <dc:format>image/svg+xml</dc:format>
    <dc:creator>
     <cc:Agent>
      <dc:title>Matplotlib v3.8.0, https://matplotlib.org/</dc:title>
     </cc:Agent>
    </dc:creator>
   </cc:Work>
  </rdf:RDF>
 </metadata>
 <defs>
  <style type="text/css">*{stroke-linejoin: round; stroke-linecap: butt}</style>
 </defs>
 <g id="figure_1">
  <g id="patch_1">
   <path d="M 0 41.502205 
L 100.923594 41.502205 
L 100.923594 -0 
L 0 -0 
L 0 41.502205 
z
" style="fill: none"/>
  </g>
  <g id="axes_1"/>
  <g id="axes_2">
   <g id="patch_2">
    <path d="M 6.524789 40.782205 
L 24.099592 40.782205 
L 24.099592 8.042047 
L 6.524789 8.042047 
L 6.524789 40.782205 
z
" style="fill: none"/>
   </g>
   <g id="matplotlib.axis_1"/>
   <g id="matplotlib.axis_2"/>
   <g id="line2d_1">
    <path d="M 6.524789 9.513891 
L 6.656603 9.58776 
L 6.788418 10.06421 
L 7.052046 12.093283 
L 7.359613 15.765938 
L 7.930808 24.898644 
L 8.633818 35.323584 
L 8.941385 38.115379 
L 9.248952 39.093652 
L 9.29289 39.034653 
L 9.424704 38.771322 
L 9.51258 38.497383 
L 9.820147 36.200725 
L 10.347404 29.153235 
L 11.270104 14.694845 
L 11.621609 11.172105 
L 12.017052 9.753307 
L 12.236743 10.264352 
L 12.456433 11.706326 
L 12.807938 15.454551 
L 13.6867 29.359476 
L 14.213958 36.041342 
L 14.565462 38.463513 
L 14.609401 38.480347 
L 14.741215 38.763191 
L 15.004844 38.110618 
L 15.268472 36.291443 
L 15.795729 29.496927 
L 17.201749 10.912122 
L 17.465377 10.070003 
L 17.86082 11.315674 
L 18.56383 19.605635 
L 19.794097 36.715082 
L 20.101664 38.248706 
L 20.18954 38.451311 
L 20.233478 38.384593 
L 20.453169 37.942643 
L 20.628921 37.022404 
L 21.200117 30.549142 
L 21.727374 22.373052 
L 22.474322 12.675589 
L 22.73795 10.904067 
L 22.913703 10.413144 
L 23.045517 10.404326 
L 23.353084 11.64552 
L 23.748527 15.576582 
L 24.100032 20.425549 
L 24.100032 20.425549 
" clip-path="url(#p22a933b435)" style="fill: none; stroke: #b3c8cd; stroke-opacity: 0.3; stroke-linecap: square"/>
   </g>
   <g id="line2d_2">
    <path d="M 6.524789 9.530236 
L 6.656603 9.700623 
L 6.832356 10.449709 
L 7.139922 13.089822 
L 7.623242 19.843482 
L 8.765632 36.755146 
L 9.117137 38.898939 
L 9.29289 39.104898 
L 9.424704 38.867172 
L 9.644395 37.742633 
L 9.951961 34.782554 
L 10.479219 27.058209 
L 11.445857 12.797057 
L 11.797362 10.305739 
L 12.017052 9.888491 
L 12.148867 10.080377 
L 12.368557 11.122618 
L 12.676124 13.964444 
L 13.203381 21.517281 
L 14.17002 35.717344 
L 14.521524 38.282656 
L 14.741215 38.767007 
L 14.873029 38.62101 
L 15.048782 37.92282 
L 15.31241 35.865301 
L 15.751791 30.281193 
L 17.069935 11.842964 
L 17.377501 10.339767 
L 17.509316 10.223483 
L 17.553254 10.256881 
L 17.685068 10.572321 
L 17.904759 11.793292 
L 18.256263 15.347085 
L 18.871397 24.533097 
L 19.662283 35.541342 
L 20.013788 38.003438 
L 20.233478 38.446008 
L 20.365292 38.284911 
L 20.541045 37.578976 
L 20.848612 35.092209 
L 21.331931 28.728407 
L 22.474322 12.768383 
L 22.825826 10.736996 
L 23.001579 10.537052 
L 23.133393 10.756701 
L 23.353084 11.80958 
L 23.66065 14.59195 
L 24.100032 20.521393 
L 24.100032 20.521393 
" clip-path="url(#p22a933b435)" style="fill: none; stroke-dasharray: 1.48,0.64; stroke-dashoffset: 0; stroke: #b3c8cd; stroke-width: 0.4"/>
   </g>
   <g id="patch_3">
    <path d="M 6.524789 40.782205 
L 6.524789 8.042047 
" style="fill: none; stroke: #ffffff; stroke-width: 0.5; stroke-linejoin: miter; stroke-linecap: square"/>
   </g>
   <g id="patch_4">
    <path d="M 24.099592 40.782205 
L 24.099592 8.042047 
" style="fill: none; stroke: #ffffff; stroke-width: 0.5; stroke-linejoin: miter; stroke-linecap: square"/>
   </g>
   <g id="patch_5">
    <path d="M 6.524789 40.782205 
L 24.099592 40.782205 
" style="fill: none; stroke: #ffffff; stroke-width: 0.5; stroke-linejoin: miter; stroke-linecap: square"/>
   </g>
   <g id="patch_6">
    <path d="M 6.524789 8.042047 
L 24.099592 8.042047 
" style="fill: none; stroke: #ffffff; stroke-width: 0.5; stroke-linejoin: miter; stroke-linecap: square"/>
   </g>
   <g id="legend_1">
    <g id="line2d_3">
     <path d="M 2.72 4.769219 
L 7.72 4.769219 
L 12.72 4.769219 
" style="fill: none; stroke: #b3c8cd; stroke-opacity: 0.3; stroke-linecap: square"/>
    </g>
    <g id="text_1">
     <!-- Ground Truth -->
     <g transform="translate(16.72 6.519219) scale(0.05 -0.05)">
      <defs>
       <path id="DejaVuSans-47" d="M 3809 666 
L 3809 1919 
L 2778 1919 
L 2778 2438 
L 4434 2438 
L 4434 434 
Q 4069 175 3628 42 
Q 3188 -91 2688 -91 
Q 1594 -91 976 548 
Q 359 1188 359 2328 
Q 359 3472 976 4111 
Q 1594 4750 2688 4750 
Q 3144 4750 3555 4637 
Q 3966 4525 4313 4306 
L 4313 3634 
Q 3963 3931 3569 4081 
Q 3175 4231 2741 4231 
Q 1884 4231 1454 3753 
Q 1025 3275 1025 2328 
Q 1025 1384 1454 906 
Q 1884 428 2741 428 
Q 3075 428 3337 486 
Q 3600 544 3809 666 
z
" transform="scale(0.015625)"/>
       <path id="DejaVuSans-72" d="M 2631 2963 
Q 2534 3019 2420 3045 
Q 2306 3072 2169 3072 
Q 1681 3072 1420 2755 
Q 1159 2438 1159 1844 
L 1159 0 
L 581 0 
L 581 3500 
L 1159 3500 
L 1159 2956 
Q 1341 3275 1631 3429 
Q 1922 3584 2338 3584 
Q 2397 3584 2469 3576 
Q 2541 3569 2628 3553 
L 2631 2963 
z
" transform="scale(0.015625)"/>
       <path id="DejaVuSans-6f" d="M 1959 3097 
Q 1497 3097 1228 2736 
Q 959 2375 959 1747 
Q 959 1119 1226 758 
Q 1494 397 1959 397 
Q 2419 397 2687 759 
Q 2956 1122 2956 1747 
Q 2956 2369 2687 2733 
Q 2419 3097 1959 3097 
z
M 1959 3584 
Q 2709 3584 3137 3096 
Q 3566 2609 3566 1747 
Q 3566 888 3137 398 
Q 2709 -91 1959 -91 
Q 1206 -91 779 398 
Q 353 888 353 1747 
Q 353 2609 779 3096 
Q 1206 3584 1959 3584 
z
" transform="scale(0.015625)"/>
       <path id="DejaVuSans-75" d="M 544 1381 
L 544 3500 
L 1119 3500 
L 1119 1403 
Q 1119 906 1312 657 
Q 1506 409 1894 409 
Q 2359 409 2629 706 
Q 2900 1003 2900 1516 
L 2900 3500 
L 3475 3500 
L 3475 0 
L 2900 0 
L 2900 538 
Q 2691 219 2414 64 
Q 2138 -91 1772 -91 
Q 1169 -91 856 284 
Q 544 659 544 1381 
z
M 1991 3584 
L 1991 3584 
z
" transform="scale(0.015625)"/>
       <path id="DejaVuSans-6e" d="M 3513 2113 
L 3513 0 
L 2938 0 
L 2938 2094 
Q 2938 2591 2744 2837 
Q 2550 3084 2163 3084 
Q 1697 3084 1428 2787 
Q 1159 2491 1159 1978 
L 1159 0 
L 581 0 
L 581 3500 
L 1159 3500 
L 1159 2956 
Q 1366 3272 1645 3428 
Q 1925 3584 2291 3584 
Q 2894 3584 3203 3211 
Q 3513 2838 3513 2113 
z
" transform="scale(0.015625)"/>
       <path id="DejaVuSans-64" d="M 2906 2969 
L 2906 4863 
L 3481 4863 
L 3481 0 
L 2906 0 
L 2906 525 
Q 2725 213 2448 61 
Q 2172 -91 1784 -91 
Q 1150 -91 751 415 
Q 353 922 353 1747 
Q 353 2572 751 3078 
Q 1150 3584 1784 3584 
Q 2172 3584 2448 3432 
Q 2725 3281 2906 2969 
z
M 947 1747 
Q 947 1113 1208 752 
Q 1469 391 1925 391 
Q 2381 391 2643 752 
Q 2906 1113 2906 1747 
Q 2906 2381 2643 2742 
Q 2381 3103 1925 3103 
Q 1469 3103 1208 2742 
Q 947 2381 947 1747 
z
" transform="scale(0.015625)"/>
       <path id="DejaVuSans-20" transform="scale(0.015625)"/>
       <path id="DejaVuSans-54" d="M -19 4666 
L 3928 4666 
L 3928 4134 
L 2272 4134 
L 2272 0 
L 1638 0 
L 1638 4134 
L -19 4134 
L -19 4666 
z
" transform="scale(0.015625)"/>
       <path id="DejaVuSans-74" d="M 1172 4494 
L 1172 3500 
L 2356 3500 
L 2356 3053 
L 1172 3053 
L 1172 1153 
Q 1172 725 1289 603 
Q 1406 481 1766 481 
L 2356 481 
L 2356 0 
L 1766 0 
Q 1100 0 847 248 
Q 594 497 594 1153 
L 594 3053 
L 172 3053 
L 172 3500 
L 594 3500 
L 594 4494 
L 1172 4494 
z
" transform="scale(0.015625)"/>
       <path id="DejaVuSans-68" d="M 3513 2113 
L 3513 0 
L 2938 0 
L 2938 2094 
Q 2938 2591 2744 2837 
Q 2550 3084 2163 3084 
Q 1697 3084 1428 2787 
Q 1159 2491 1159 1978 
L 1159 0 
L 581 0 
L 581 4863 
L 1159 4863 
L 1159 2956 
Q 1366 3272 1645 3428 
Q 1925 3584 2291 3584 
Q 2894 3584 3203 3211 
Q 3513 2838 3513 2113 
z
" transform="scale(0.015625)"/>
      </defs>
      <use xlink:href="#DejaVuSans-47"/>
      <use xlink:href="#DejaVuSans-72" x="77.490234"/>
      <use xlink:href="#DejaVuSans-6f" x="116.353516"/>
      <use xlink:href="#DejaVuSans-75" x="177.535156"/>
      <use xlink:href="#DejaVuSans-6e" x="240.914062"/>
      <use xlink:href="#DejaVuSans-64" x="304.292969"/>
      <use xlink:href="#DejaVuSans-20" x="367.769531"/>
      <use xlink:href="#DejaVuSans-54" x="399.556641"/>
      <use xlink:href="#DejaVuSans-72" x="445.890625"/>
      <use xlink:href="#DejaVuSans-75" x="487.003906"/>
      <use xlink:href="#DejaVuSans-74" x="550.382812"/>
      <use xlink:href="#DejaVuSans-68" x="589.591797"/>
     </g>
    </g>
    <g id="line2d_4">
     <path d="M 59.366875 4.769219 
L 64.366875 4.769219 
L 69.366875 4.769219 
" style="fill: none; stroke-dasharray: 1.48,0.64; stroke-dashoffset: 0; stroke: #b3c8cd; stroke-width: 0.4"/>
    </g>
    <g id="text_2">
     <!-- Prediction -->
     <g transform="translate(73.366875 6.519219) scale(0.05 -0.05)">
      <defs>
       <path id="DejaVuSans-50" d="M 1259 4147 
L 1259 2394 
L 2053 2394 
Q 2494 2394 2734 2622 
Q 2975 2850 2975 3272 
Q 2975 3691 2734 3919 
Q 2494 4147 2053 4147 
L 1259 4147 
z
M 628 4666 
L 2053 4666 
Q 2838 4666 3239 4311 
Q 3641 3956 3641 3272 
Q 3641 2581 3239 2228 
Q 2838 1875 2053 1875 
L 1259 1875 
L 1259 0 
L 628 0 
L 628 4666 
z
" transform="scale(0.015625)"/>
       <path id="DejaVuSans-65" d="M 3597 1894 
L 3597 1613 
L 953 1613 
Q 991 1019 1311 708 
Q 1631 397 2203 397 
Q 2534 397 2845 478 
Q 3156 559 3463 722 
L 3463 178 
Q 3153 47 2828 -22 
Q 2503 -91 2169 -91 
Q 1331 -91 842 396 
Q 353 884 353 1716 
Q 353 2575 817 3079 
Q 1281 3584 2069 3584 
Q 2775 3584 3186 3129 
Q 3597 2675 3597 1894 
z
M 3022 2063 
Q 3016 2534 2758 2815 
Q 2500 3097 2075 3097 
Q 1594 3097 1305 2825 
Q 1016 2553 972 2059 
L 3022 2063 
z
" transform="scale(0.015625)"/>
       <path id="DejaVuSans-69" d="M 603 3500 
L 1178 3500 
L 1178 0 
L 603 0 
L 603 3500 
z
M 603 4863 
L 1178 4863 
L 1178 4134 
L 603 4134 
L 603 4863 
z
" transform="scale(0.015625)"/>
       <path id="DejaVuSans-63" d="M 3122 3366 
L 3122 2828 
Q 2878 2963 2633 3030 
Q 2388 3097 2138 3097 
Q 1578 3097 1268 2742 
Q 959 2388 959 1747 
Q 959 1106 1268 751 
Q 1578 397 2138 397 
Q 2388 397 2633 464 
Q 2878 531 3122 666 
L 3122 134 
Q 2881 22 2623 -34 
Q 2366 -91 2075 -91 
Q 1284 -91 818 406 
Q 353 903 353 1747 
Q 353 2603 823 3093 
Q 1294 3584 2113 3584 
Q 2378 3584 2631 3529 
Q 2884 3475 3122 3366 
z
" transform="scale(0.015625)"/>
      </defs>
      <use xlink:href="#DejaVuSans-50"/>
      <use xlink:href="#DejaVuSans-72" x="58.552734"/>
      <use xlink:href="#DejaVuSans-65" x="97.416016"/>
      <use xlink:href="#DejaVuSans-64" x="158.939453"/>
      <use xlink:href="#DejaVuSans-69" x="222.416016"/>
      <use xlink:href="#DejaVuSans-63" x="250.199219"/>
      <use xlink:href="#DejaVuSans-74" x="305.179688"/>
      <use xlink:href="#DejaVuSans-69" x="344.388672"/>
      <use xlink:href="#DejaVuSans-6f" x="372.171875"/>
      <use xlink:href="#DejaVuSans-6e" x="433.353516"/>
     </g>
    </g>
   </g>
  </g>
  <g id="axes_3">
   <g id="patch_7">
    <path d="M 76.824002 40.782205 
L 94.398805 40.782205 
L 94.398805 8.042047 
L 76.824002 8.042047 
L 76.824002 40.782205 
z
" style="fill: none"/>
   </g>
   <g id="matplotlib.axis_3"/>
   <g id="matplotlib.axis_4"/>
   <g id="line2d_5">
    <path d="M 76.801593 26.063288 
L 77.240974 28.200949 
L 77.32885 28.532373 
L 77.680355 29.377248 
L 77.987922 29.46218 
L 78.559117 27.986426 
L 79.086375 25.42725 
L 79.613632 22.270486 
L 79.789384 21.446489 
L 80.316642 19.47856 
L 80.404518 19.458223 
L 80.58027 19.185987 
L 80.624208 19.253017 
L 80.712085 19.145415 
L 80.887837 19.403504 
L 80.975713 19.530069 
L 81.371156 20.891586 
L 81.546909 21.706418 
L 82.469609 26.876598 
L 83.216557 29.319999 
L 83.304433 29.402665 
L 83.392309 29.533724 
L 83.436247 29.494991 
L 83.524123 29.447324 
L 84.402886 26.494661 
L 85.018019 22.889932 
L 85.940719 19.375618 
L 86.16041 19.179549 
L 86.3801 19.314716 
L 86.599791 19.877046 
L 86.775543 20.388486 
L 88.664882 29.30478 
L 89.060325 29.453437 
L 89.41183 28.701068 
L 89.895149 26.565475 
L 90.158777 25.177266 
L 90.949663 20.833842 
L 91.03754 20.454361 
L 91.389044 19.475538 
L 91.652673 19.192294 
L 91.696611 19.251903 
L 91.784487 19.196914 
L 92.443559 21.073117 
L 92.795064 22.796237 
L 93.146569 24.894236 
L 93.58595 27.30111 
L 93.937455 28.580585 
L 94.288959 29.407163 
L 94.420774 29.446231 
L 94.420774 29.446231 
" clip-path="url(#p7a8b59f39e)" style="fill: none; stroke: #b3c8cd; stroke-opacity: 0.3; stroke-linecap: square"/>
   </g>
   <g id="line2d_6">
    <path d="M 76.801593 25.668886 
L 77.416727 28.503113 
L 77.768232 29.310296 
L 77.987922 29.424342 
L 78.163674 29.290373 
L 78.427303 28.727812 
L 78.822746 27.185513 
L 79.701508 22.394612 
L 80.272704 20.030482 
L 80.58027 19.464248 
L 80.799961 19.426773 
L 81.019651 19.699962 
L 81.327218 20.568231 
L 81.810537 22.814492 
L 82.996866 28.690164 
L 83.348371 29.361356 
L 83.568062 29.384831 
L 83.787752 29.098433 
L 84.095319 28.214556 
L 84.578638 25.9545 
L 85.721029 20.243869 
L 86.072534 19.501441 
L 86.292224 19.429557 
L 86.511915 19.668164 
L 86.819481 20.491829 
L 87.258862 22.456356 
L 88.577006 28.853773 
L 88.884572 29.362215 
L 89.104263 29.357828 
L 89.323953 29.045257 
L 89.63152 28.130658 
L 90.114839 25.843993 
L 91.25723 20.195362 
L 91.608735 19.496193 
L 91.828426 19.452221 
L 92.048116 19.717322 
L 92.355683 20.572573 
L 92.839002 22.797959 
L 94.025331 28.652241 
L 94.376836 29.329762 
L 94.420774 29.360633 
L 94.420774 29.360633 
" clip-path="url(#p7a8b59f39e)" style="fill: none; stroke-dasharray: 1.48,0.64; stroke-dashoffset: 0; stroke: #b3c8cd; stroke-width: 0.4"/>
   </g>
   <g id="patch_8">
    <path d="M 76.824002 40.782205 
L 76.824002 8.042047 
" style="fill: none; stroke: #ffffff; stroke-width: 0.5; stroke-linejoin: miter; stroke-linecap: square"/>
   </g>
   <g id="patch_9">
    <path d="M 94.398805 40.782205 
L 94.398805 8.042047 
" style="fill: none; stroke: #ffffff; stroke-width: 0.5; stroke-linejoin: miter; stroke-linecap: square"/>
   </g>
   <g id="patch_10">
    <path d="M 76.824002 40.782205 
L 94.398805 40.782205 
" style="fill: none; stroke: #ffffff; stroke-width: 0.5; stroke-linejoin: miter; stroke-linecap: square"/>
   </g>
   <g id="patch_11">
    <path d="M 76.824002 8.042047 
L 94.398805 8.042047 
" style="fill: none; stroke: #ffffff; stroke-width: 0.5; stroke-linejoin: miter; stroke-linecap: square"/>
   </g>
  </g>
  <g id="axes_4">
   <g id="patch_12">
    <path d="M 24.099592 40.782205 
L 76.824002 40.782205 
L 76.824002 8.042047 
L 24.099592 8.042047 
L 24.099592 40.782205 
z
" style="fill: none"/>
   </g>
   <g id="matplotlib.axis_5"/>
   <g id="matplotlib.axis_6"/>
   <g id="line2d_7">
    <path d="M 24.096873 19.796116 
L 24.19848 38.18065 
L 24.256149 31.599659 
L 24.368741 10.652514 
L 24.429155 17.557725 
L 24.541747 37.922558 
L 24.604908 30.235809 
L 24.717499 10.920423 
L 24.769676 17.132381 
L 24.887759 37.614351 
L 24.945428 30.688839 
L 25.060766 11.159972 
L 25.115688 17.889374 
L 25.231026 37.363791 
L 25.291441 29.934206 
L 25.401286 11.424943 
L 25.453463 16.850652 
L 25.574292 37.188594 
L 25.631961 30.297789 
L 25.73906 11.644336 
L 25.807713 19.206353 
L 25.917559 36.968277 
L 25.966989 31.781917 
L 26.087819 11.797955 
L 26.148234 18.767325 
L 26.260825 36.759441 
L 26.318494 30.175618 
L 26.425593 12.077712 
L 26.483262 17.249038 
L 26.598599 36.527021 
L 26.656268 31.128039 
L 26.779844 12.283364 
L 26.829274 17.832902 
L 26.947358 36.365907 
L 26.999535 31.031659 
L 27.117618 12.373217 
L 27.178033 19.036072 
L 27.290625 36.202218 
L 27.348293 29.88572 
L 27.460885 12.572174 
L 27.526792 20.019732 
L 27.633891 35.928187 
L 27.683321 31.424341 
L 27.806897 12.724416 
L 27.86182 18.469687 
L 27.971665 35.811721 
L 28.029334 30.889822 
L 28.150164 12.877298 
L 28.20234 18.142169 
L 28.32317 35.691958 
L 28.378093 29.817971 
L 28.49343 13.055879 
L 28.556591 20.085074 
L 28.66369 35.488149 
L 28.718613 30.330301 
L 28.833951 13.268594 
L 28.894365 19.004301 
L 29.012449 35.359505 
L 29.061879 30.27985 
L 29.179963 13.334715 
L 29.237632 19.075661 
L 29.350223 35.243013 
L 29.405146 30.319936 
L 29.52323 13.465899 
L 29.580898 19.025837 
L 29.696236 35.15404 
L 29.753905 29.355366 
L 29.866496 13.620965 
L 29.926911 19.518527 
L 30.042248 35.004973 
L 30.091679 30.357273 
L 30.212509 13.723408 
L 30.264685 18.557772 
L 30.380023 34.845982 
L 30.440438 29.472292 
L 30.550283 13.892641 
L 30.610698 18.968765 
L 30.728781 34.722355 
L 30.780958 29.866858 
L 30.899042 13.981165 
L 30.964949 20.768589 
L 31.072048 34.597812 
L 31.118732 30.780558 
L 31.245054 14.138738 
L 31.308215 20.771595 
L 31.41806 34.522142 
L 31.472983 29.059721 
L 31.582828 14.193485 
L 31.640497 18.878677 
L 31.758581 34.416788 
L 31.810757 29.960898 
L 31.928841 14.292726 
L 32.00024 21.508958 
L 32.107339 34.280293 
L 32.151278 30.479774 
L 32.274854 14.403652 
L 32.335268 20.037797 
L 32.44786 34.210944 
L 32.49729 30.037039 
L 32.61812 14.515866 
L 32.686773 21.399973 
L 32.791126 34.096245 
L 32.846049 29.383865 
L 32.961386 14.635212 
L 33.013563 18.654451 
L 33.134393 34.036309 
L 33.186569 29.748455 
L 33.310145 14.726646 
L 33.37056 20.698922 
L 33.480405 33.914094 
L 33.52709 30.310548 
L 33.650665 14.797502 
L 33.705588 19.440256 
L 33.81818 33.813735 
L 33.884087 28.249714 
L 33.999424 14.935826 
L 34.051601 19.737125 
L 34.169684 33.742398 
L 34.224607 28.828634 
L 34.337198 14.969312 
L 34.392121 19.183137 
L 34.510205 33.671802 
L 34.565127 29.246951 
L 34.680465 15.131423 
L 34.735387 19.241627 
L 34.853471 33.591048 
L 34.916632 28.174615 
L 35.020985 15.154567 
L 35.0814 19.485034 
L 35.199484 33.442607 
L 35.257152 28.672935 
L 35.369744 15.281 
L 35.427413 19.744686 
L 35.545496 33.413472 
L 35.597673 29.140357 
L 35.718503 15.366772 
L 35.765187 18.991607 
L 35.883271 33.343329 
L 35.949178 27.932423 
L 36.061769 15.379154 
L 36.116692 20.000766 
L 36.226537 33.239411 
L 36.289698 28.515837 
L 36.405036 15.451103 
L 36.462704 20.396808 
L 36.575296 33.197234 
L 36.632964 28.547716 
L 36.745556 15.537424 
L 36.808717 20.648795 
L 36.91307 33.086311 
L 36.976231 28.665076 
L 37.091568 15.59192 
L 37.154729 20.876379 
L 37.267321 33.029118 
L 37.316751 29.198197 
L 37.440327 15.686143 
L 37.489758 19.604456 
L 37.607841 32.971267 
L 37.657272 29.62295 
L 37.775355 15.791822 
L 37.838516 20.360101 
L 37.953854 32.911928 
L 38.011523 28.193732 
L 38.124114 15.8402 
L 38.179037 19.778361 
L 38.302612 32.794299 
L 38.349297 28.987038 
L 38.46738 15.845757 
L 38.527795 20.464291 
L 38.640387 32.772341 
L 38.689817 29.48796 
L 38.810647 15.931395 
L 38.876554 21.091625 
L 38.980907 32.731353 
L 39.038576 28.887006 
L 39.153913 15.970399 
L 39.211582 19.9225 
L 39.324173 32.655854 
L 39.381842 28.982726 
L 39.499926 16.0251 
L 39.557595 20.129651 
L 39.670186 32.607583 
L 39.727855 28.720939 
L 39.843192 16.132232 
L 39.906353 20.765621 
L 40.018945 32.550447 
L 40.071121 28.796844 
L 40.189205 16.153426 
L 40.255112 21.421803 
L 40.359465 32.499749 
L 40.414388 28.876305 
L 40.537964 16.22575 
L 40.592886 20.616605 
L 40.702732 32.4302 
L 40.763146 28.371393 
L 40.875738 16.269733 
L 40.93066 19.730506 
L 41.045998 32.330905 
L 41.100921 29.073141 
L 41.219004 16.332258 
L 41.29315 22.2119 
L 41.397503 32.292021 
L 41.446933 28.853032 
L 41.565017 16.386701 
L 41.622686 20.18311 
L 41.740769 32.221419 
L 41.787454 29.224864 
L 41.911029 16.411853 
L 41.971444 20.875793 
L 42.086782 32.202552 
L 42.144451 27.722774 
L 42.257042 16.51466 
L 42.311965 20.373929 
L 42.424556 32.17695 
L 42.493209 27.227341 
L 42.600309 16.634342 
L 42.646993 19.271579 
L 42.773315 32.104279 
L 42.830984 27.95801 
L 42.943575 16.598672 
L 43.00399 20.763691 
L 43.119327 32.065601 
L 43.163265 29.423164 
L 43.286841 16.635415 
L 43.336272 19.449446 
L 43.457102 32.012788 
L 43.523009 27.582151 
L 43.6356 16.665387 
L 43.687777 20.278498 
L 43.803114 31.980415 
L 43.863529 28.042315 
L 43.97612 16.711112 
L 44.031043 20.212535 
L 44.146381 31.904086 
L 44.220526 26.350922 
L 44.319387 16.752546 
L 44.37431 20.023061 
L 44.492393 31.822657 
L 44.54457 28.794088 
L 44.670892 16.877104 
L 44.736799 22.296677 
L 44.832914 31.7924 
L 44.898821 27.706411 
L 45.00592 16.895507 
L 45.063589 20.092199 
L 45.187165 31.736529 
L 45.239341 28.056658 
L 45.357425 16.911627 
L 45.420586 21.689179 
L 45.527685 31.724587 
L 45.585354 27.880623 
L 45.695199 16.948695 
L 45.75836 20.830348 
L 45.873697 31.727264 
L 45.931366 27.705844 
L 46.043958 16.967223 
L 46.107119 21.377238 
L 46.216964 31.674448 
L 46.274633 27.872483 
L 46.384478 17.038252 
L 46.439401 20.046952 
L 46.562976 31.587123 
L 46.63163 26.326715 
L 46.735983 17.091207 
L 46.785413 20.142068 
L 46.911735 31.556995 
L 46.961166 28.039038 
L 47.076503 17.132513 
L 47.136918 20.970278 
L 47.246763 31.56193 
L 47.29894 28.848645 
L 47.41977 17.180047 
L 47.4692 19.645173 
L 47.59003 31.515855 
L 47.653191 27.681727 
L 47.763036 17.194762 
L 47.826197 21.122103 
L 47.938788 31.467365 
L 47.990965 28.478502 
L 48.114541 17.234612 
L 48.166717 20.62305 
L 48.284801 31.419401 
L 48.334231 28.502296 
L 48.457807 17.312099 
L 48.523714 22.120921 
L 48.622575 31.36197 
L 48.688482 27.449139 
L 48.798328 17.309989 
L 48.85325 20.349286 
L 48.976826 31.299419 
L 49.029003 27.892787 
L 49.141594 17.317305 
L 49.204755 21.139628 
L 49.317347 31.343843 
L 49.369523 28.228066 
L 49.493099 17.390022 
L 49.553514 21.636511 
L 49.663359 31.269168 
L 49.715536 28.112006 
L 49.833619 17.407774 
L 49.88305 20.102727 
L 50.003879 31.226463 
L 50.058802 28.149551 
L 50.182378 17.447088 
L 50.251031 22.787893 
L 50.355384 31.203189 
L 50.413053 27.087106 
L 50.522898 17.476596 
L 50.577821 20.656672 
L 50.690412 31.169196 
L 50.745335 28.467715 
L 50.863419 17.561759 
L 50.923834 20.851467 
L 51.039171 31.161372 
L 51.091348 28.25739 
L 51.209431 17.542012 
L 51.2671 20.766916 
L 51.382438 31.133523 
L 51.448345 26.873137 
L 51.552698 17.595487 
L 51.613113 20.937883 
L 51.725704 31.091491 
L 51.783373 27.987895 
L 51.901456 17.621866 
L 51.956379 20.834393 
L 52.071717 31.050406 
L 52.123893 28.278598 
L 52.247469 17.624565 
L 52.302392 20.992426 
L 52.423221 31.013009 
L 52.472652 27.919691 
L 52.593482 17.684098 
L 52.640166 20.338775 
L 52.763742 31.008325 
L 52.818664 27.779621 
L 52.931256 17.693755 
L 52.980686 19.952618 
L 53.107008 30.970623 
L 53.167423 27.265488 
L 53.280014 17.703594 
L 53.329445 20.425386 
L 53.453021 30.894152 
L 53.518928 26.455642 
L 53.620535 17.749522 
L 53.675457 20.541983 
L 53.799033 30.889657 
L 53.859448 26.952832 
L 53.97204 17.793278 
L 54.024216 20.91309 
L 54.1423 30.837071 
L 54.197222 27.65695 
L 54.315306 17.808854 
L 54.372975 21.429006 
L 54.485566 30.801084 
L 54.545981 27.247934 
L 54.661319 17.907634 
L 54.705257 20.221924 
L 54.82334 30.803066 
L 54.881009 28.172894 
L 54.999093 17.854077 
L 55.059508 21.142823 
L 55.174845 30.728896 
L 55.227022 27.973299 
L 55.350598 17.904966 
L 55.413759 22.131797 
L 55.518112 30.729149 
L 55.567542 28.398843 
L 55.69661 17.951697 
L 55.748787 21.195347 
L 55.86687 30.705575 
L 55.927285 26.77176 
L 56.039877 18.001929 
L 56.097546 21.662237 
L 56.207391 30.689255 
L 56.267806 27.319395 
L 56.383143 17.982764 
L 56.432574 20.626176 
L 56.55615 30.655934 
L 56.597342 28.682547 
L 56.720917 18.02817 
L 56.77584 20.594272 
L 56.899416 30.604801 
L 56.948846 27.978336 
L 57.069676 18.027866 
L 57.132837 21.752036 
L 57.239936 30.644696 
L 57.289367 28.391495 
L 57.418435 18.110364 
L 57.476104 21.647624 
L 57.588695 30.604977 
L 57.635379 28.296656 
L 57.764447 18.125056 
L 57.811132 20.776912 
L 57.929215 30.553015 
L 57.984138 27.889173 
L 58.104968 18.131242 
L 58.162637 21.470147 
L 58.269736 30.536898 
L 58.335643 27.172617 
L 58.453726 18.149572 
L 58.505903 21.378972 
L 58.621241 30.542585 
L 58.684402 26.737119 
L 58.796993 18.161397 
L 58.846423 20.97686 
L 58.959015 30.457572 
L 59.022176 27.458517 
L 59.134767 18.170731 
L 59.18969 20.754936 
L 59.31052 30.497036 
L 59.357204 28.237872 
L 59.48078 18.234885 
L 59.541195 21.418255 
L 59.65104 30.456797 
L 59.70047 28.374368 
L 59.824046 18.234694 
L 59.878969 20.793457 
L 59.997052 30.387228 
L 60.049229 27.951375 
L 60.175551 18.250673 
L 60.238712 22.320269 
L 60.345811 30.384977 
L 60.392495 28.053392 
L 60.463895 20.833339 
L 60.513325 18.280886 
L 60.570994 21.150628 
L 60.689078 30.371231 
L 60.749493 26.982992 
L 60.862084 18.325499 
L 60.922499 21.786483 
L 61.029598 30.366649 
L 61.090013 27.409118 
L 61.202604 18.310702 
L 61.254781 20.642537 
L 61.378357 30.350026 
L 61.44701 26.160925 
L 61.545871 18.354962 
L 61.595301 20.34688 
L 61.718877 30.320621 
L 61.790276 26.290494 
L 61.894629 18.369489 
L 61.941314 20.44562 
L 62.06489 30.284391 
L 62.136289 26.184708 
L 62.237896 18.388054 
L 62.290072 20.839714 
L 62.408156 30.27308 
L 62.482302 26.021294 
L 62.583908 18.461568 
L 62.636085 20.930232 
L 62.759661 30.235299 
L 62.809091 27.696196 
L 62.921683 18.455594 
L 62.993082 22.015664 
L 63.100181 30.254058 
L 63.155104 27.570137 
L 63.275934 18.441453 
L 63.333602 21.736445 
L 63.440702 30.208232 
L 63.503863 27.177513 
L 63.6192 18.487124 
L 63.66863 20.830811 
L 63.792206 30.18231 
L 63.849875 26.979432 
L 63.967959 18.52235 
L 64.020135 21.450623 
L 64.132727 30.169327 
L 64.190396 27.400823 
L 64.300241 18.54307 
L 64.37164 22.085802 
L 64.475993 30.121954 
L 64.52817 27.958908 
L 64.651746 18.516592 
L 64.725891 22.993528 
L 64.824752 30.146221 
L 64.876928 27.628947 
L 65.000504 18.558752 
L 65.066411 22.619864 
L 65.168018 30.111752 
L 65.217449 28.040321 
L 65.346517 18.600544 
L 65.393201 21.061632 
L 65.448124 26.352467 
L 65.516777 30.051589 
L 65.566207 27.66997 
L 65.687037 18.581109 
L 65.730975 20.424842 
L 65.851805 30.022888 
L 65.920458 26.82734 
L 66.035796 18.625441 
L 66.074242 20.402352 
L 66.208802 30.038499 
L 66.282948 24.947599 
L 66.379062 18.653324 
L 66.436731 21.902386 
L 66.549323 30.011295 
L 66.604245 27.199881 
L 66.71409 18.669687 
L 66.779998 21.718396 
L 66.892589 30.009484 
L 66.953004 26.930196 
L 67.068341 18.681754 
L 67.123264 21.54074 
L 67.241348 29.970342 
L 67.288032 27.745624 
L 67.408862 18.669172 
L 67.466531 21.490069 
L 67.579122 29.963728 
L 67.647775 26.34701 
L 67.757621 18.732331 
L 67.818035 22.168081 
L 67.919642 29.906532 
L 67.993788 26.278238 
L 68.100887 18.70908 
L 68.153063 21.198771 
L 68.276639 29.918617 
L 68.320577 27.785905 
L 68.441407 18.783189 
L 68.49633 21.186533 
L 68.614414 29.903511 
L 68.674828 27.013705 
L 68.78742 18.779358 
L 68.847835 21.808622 
L 68.960426 29.891232 
L 69.029079 26.084038 
L 69.133432 18.797255 
L 69.19934 22.333583 
L 69.303693 29.899317 
L 69.350377 28.052943 
L 69.479445 18.786898 
L 69.550844 22.969442 
L 69.646959 29.873439 
L 69.699136 27.838219 
L 69.819965 18.801293 
L 69.883126 21.86654 
L 69.995718 29.82981 
L 70.045148 27.730487 
L 70.163232 18.834159 
L 70.223647 21.431057 
L 70.336238 29.793471 
L 70.396653 27.123274 
L 70.509244 18.876306 
L 70.564167 21.200868 
L 70.679505 29.789077 
L 70.748158 26.433497 
L 70.858003 18.856522 
L 70.926656 22.68233 
L 71.033756 29.785145 
L 71.08044 27.543685 
L 71.198523 18.878864 
L 71.258938 21.599513 
L 71.37153 29.793555 
L 71.423706 27.693469 
L 71.544536 18.883945 
L 71.599459 21.283403 
L 71.723035 29.767647 
L 71.777957 26.930071 
L 71.893295 18.902121 
L 71.934487 20.48659 
L 72.063555 29.768173 
L 72.12397 26.709679 
L 72.236561 18.930997 
L 72.299722 22.238946 
L 72.41506 29.70031 
L 72.461744 27.400427 
L 72.582574 18.936611 
L 72.629258 20.950423 
L 72.752834 29.706128 
L 72.813249 26.734778 
L 72.928586 18.979316 
L 72.980763 21.562923 
L 73.0961 29.685888 
L 73.153769 27.100792 
L 73.269107 18.994553 
L 73.324029 21.378913 
L 73.439367 29.671955 
L 73.499782 26.957417 
L 73.612373 18.994245 
L 73.675534 21.897234 
L 73.788126 29.663439 
L 73.837556 27.585134 
L 73.961132 19.034703 
L 74.010562 21.109757 
L 74.128646 29.664633 
L 74.186315 27.207128 
L 74.304398 19.013608 
L 74.378544 23.195117 
L 74.477405 29.626412 
L 74.526835 27.534873 
L 74.642173 19.100775 
L 74.699841 21.142003 
L 74.817925 29.62957 
L 74.867355 27.848851 
L 74.996424 19.082658 
L 75.065077 22.878892 
L 75.163938 29.618127 
L 75.221606 27.117802 
L 75.334198 19.095417 
L 75.408343 22.772467 
L 75.515442 29.594056 
L 75.570365 26.74776 
L 75.688449 19.098007 
L 75.743371 21.999446 
L 75.855963 29.550705 
L 75.92187 26.268018 
L 76.026223 19.113324 
L 76.078399 21.124321 
L 76.196483 29.563259 
L 76.256898 27.082818 
L 76.369489 19.120413 
L 76.416174 20.671723 
L 76.53975 29.541888 
L 76.602911 26.945361 
L 76.720994 19.154487 
L 76.770425 21.428259 
L 76.825347 26.3477 
L 76.825347 26.3477 
" clip-path="url(#p2b19a63af0)" style="fill: none; stroke: #b3c8cd; stroke-width: 0.05; stroke-linecap: square"/>
   </g>
   <g id="line2d_8">
    <path d="M 24.096873 19.859225 
L 24.201226 38.144791 
L 24.256149 31.668825 
L 24.371487 10.823994 
L 24.429155 17.554392 
L 24.544493 37.861772 
L 24.599416 31.462554 
L 24.714753 11.096947 
L 24.772422 17.741195 
L 24.887759 37.595461 
L 24.942682 31.283967 
L 25.05802 11.35444 
L 25.115688 17.902005 
L 25.231026 37.344466 
L 25.285948 31.129947 
L 25.401286 11.59775 
L 25.458955 18.039733 
L 25.574292 37.107494 
L 25.629215 30.997782 
L 25.744552 11.82806 
L 25.802221 18.156913 
L 25.917559 36.883349 
L 25.972481 30.885102 
L 26.087819 12.046474 
L 26.145488 18.255762 
L 26.260825 36.670923 
L 26.315748 30.789829 
L 26.431085 12.254012 
L 26.488754 18.33823 
L 26.604092 36.469194 
L 26.659014 30.71013 
L 26.774352 12.45162 
L 26.832021 18.406033 
L 26.947358 36.277219 
L 27.002281 30.644388 
L 27.117618 12.640173 
L 27.175287 18.460692 
L 27.290625 36.094126 
L 27.345547 30.591164 
L 27.460885 12.820477 
L 27.518554 18.503561 
L 27.633891 35.919114 
L 27.69156 30.053752 
L 27.804151 12.993279 
L 27.86182 18.535843 
L 27.977157 35.751441 
L 28.034826 30.030858 
L 28.150164 13.156068 
L 28.205086 18.558616 
L 28.320424 35.590424 
L 28.378093 30.016911 
L 28.49343 13.312008 
L 28.548353 18.572851 
L 28.66369 35.43543 
L 28.721359 30.011 
L 28.836697 13.462083 
L 28.894365 19.050978 
L 29.006957 35.285877 
L 29.064626 30.012299 
L 29.179963 13.606869 
L 29.237632 19.042053 
L 29.352969 35.145609 
L 29.407892 30.020064 
L 29.52323 13.746899 
L 29.580898 19.027057 
L 29.696236 35.010273 
L 29.753905 29.576556 
L 29.866496 13.882666 
L 29.924165 19.00663 
L 30.039502 34.87906 
L 30.097171 29.603653 
L 30.212509 14.010729 
L 30.267431 18.981352 
L 30.382769 34.751521 
L 30.440438 29.635288 
L 30.555775 14.133795 
L 30.613444 19.394714 
L 30.726035 34.62724 
L 30.783704 29.670956 
L 30.899042 14.253733 
L 30.95671 19.353147 
L 31.072048 34.511005 
L 31.12697 29.710195 
L 31.242308 14.37092 
L 31.299977 19.308256 
L 31.415314 34.398079 
L 31.472983 29.323347 
L 31.588321 14.484074 
L 31.643243 19.260446 
L 31.758581 34.287434 
L 31.81625 29.376433 
L 31.931587 14.590542 
L 31.98651 19.210089 
L 32.101847 34.178752 
L 32.159516 29.431867 
L 32.274854 14.695162 
L 32.332522 19.573395 
L 32.44786 34.076937 
L 32.502782 29.489321 
L 32.61812 14.798224 
L 32.675789 19.511176 
L 32.791126 33.977856 
L 32.848795 29.138011 
L 32.964133 14.896948 
L 33.019055 19.4474 
L 33.134393 33.879961 
L 33.192061 29.206272 
L 33.307399 14.990942 
L 33.365068 19.787478 
L 33.480405 33.784375 
L 33.535328 29.275677 
L 33.650665 15.084096 
L 33.708334 19.71384 
L 33.823672 33.695044 
L 33.881341 28.94614 
L 33.996678 15.176515 
L 34.051601 19.639421 
L 34.166938 33.606235 
L 34.224607 29.024562 
L 34.339945 15.26158 
L 34.394867 19.56444 
L 34.510205 33.517744 
L 34.567873 29.103441 
L 34.683211 15.346416 
L 34.74088 19.876372 
L 34.856217 33.435827 
L 34.91114 29.18258 
L 35.026477 15.43121 
L 35.084146 19.793529 
L 35.199484 33.354615 
L 35.257152 28.879605 
L 35.37249 15.510091 
L 35.427413 19.710696 
L 35.54275 33.273195 
L 35.600419 28.965968 
L 35.715756 15.587999 
L 35.773425 20.005198 
L 35.888763 33.197347 
L 35.943685 29.052076 
L 36.059023 15.666352 
L 36.116692 19.91572 
L 36.232029 33.122438 
L 36.289698 28.7656 
L 36.405036 15.739178 
L 36.459958 19.826714 
L 36.575296 33.046867 
L 36.632964 28.85783 
L 36.748302 15.811371 
L 36.805971 20.105575 
L 36.921308 32.977047 
L 36.976231 28.949389 
L 37.091568 15.884426 
L 37.149237 20.010923 
L 37.264575 32.907306 
L 37.322243 28.67777 
L 37.437581 15.951262 
L 37.492504 19.917121 
L 37.610587 32.83692 
L 37.66551 28.774544 
L 37.780847 16.018798 
L 37.838516 20.181844 
L 37.953854 32.772643 
L 38.011523 28.510743 
L 38.12686 16.086131 
L 38.181783 20.083222 
L 38.29712 32.70708 
L 38.354789 28.612159 
L 38.470127 16.148494 
L 38.527795 20.34054 
L 38.643133 32.642768 
L 38.698055 28.712381 
L 38.813393 16.212299 
L 38.871062 20.237621 
L 38.986399 32.582104 
L 39.044068 28.46126 
L 39.159406 16.273624 
L 39.214328 20.136028 
L 39.329666 32.519855 
L 39.387334 28.565461 
L 39.502672 16.332789 
L 39.560341 20.381218 
L 39.675678 32.461481 
L 39.730601 28.668215 
L 39.845938 16.393672 
L 39.903607 20.275938 
L 40.018945 32.403629 
L 40.076614 28.42871 
L 40.191951 16.449131 
L 40.24962 20.514829 
L 40.364957 32.345088 
L 40.41988 28.534885 
L 40.535218 16.505847 
L 40.592886 20.406261 
L 40.708224 32.291353 
L 40.765893 28.301376 
L 40.88123 16.561445 
L 40.936153 20.299362 
L 41.05149 32.23561 
L 41.109159 28.410602 
L 41.224497 16.614258 
L 41.282165 20.527695 
L 41.397503 32.182914 
L 41.452425 28.518068 
L 41.567763 16.669184 
L 41.625432 20.417963 
L 41.740769 32.130871 
L 41.798438 28.294719 
L 41.913776 16.719016 
L 41.971444 20.640877 
L 42.086782 32.078189 
L 42.141705 28.404815 
L 42.257042 16.770433 
L 42.314711 20.528621 
L 42.430048 32.029609 
L 42.487717 28.186642 
L 42.603055 16.820239 
L 42.657977 20.418291 
L 42.773315 31.978686 
L 42.830984 28.299083 
L 42.946321 16.86837 
L 43.00399 20.631885 
L 43.119327 31.931715 
L 43.17425 28.409525 
L 43.292334 16.918043 
L 43.347256 20.519377 
L 43.462594 31.883908 
L 43.520263 28.200358 
L 43.6356 16.963103 
L 43.693269 20.72826 
L 43.808606 31.837073 
L 43.863529 28.312824 
L 43.978867 17.010702 
L 44.036535 20.613815 
L 44.151873 31.79218 
L 44.209542 28.108172 
L 44.324879 17.054739 
L 44.379802 20.501494 
L 44.497885 31.74557 
L 44.552808 28.222435 
L 44.668146 17.099573 
L 44.725814 20.702045 
L 44.841152 31.7034 
L 44.898821 28.022089 
L 45.014158 17.143388 
L 45.069081 20.588056 
L 45.184418 31.658523 
L 45.242087 28.137946 
L 45.357425 17.185639 
L 45.415093 20.784473 
L 45.530431 31.617464 
L 45.5881 27.941714 
L 45.703437 17.229157 
L 45.75836 20.669006 
L 45.873697 31.575038 
L 45.931366 28.058977 
L 46.046704 17.268997 
L 46.104372 20.861469 
L 46.21971 31.534269 
L 46.274633 28.173974 
L 46.38997 17.311687 
L 46.447639 20.7447 
L 46.562976 31.49413 
L 46.620645 27.98518 
L 46.735983 17.349745 
L 46.793652 20.933378 
L 46.908989 31.453714 
L 46.963912 28.101382 
L 47.079249 17.390265 
L 47.136918 20.815467 
L 47.252256 31.415707 
L 47.309924 27.916231 
L 47.425262 17.42798 
L 47.480184 20.6999 
L 47.598268 31.375697 
L 47.653191 28.033488 
L 47.768528 17.466478 
L 47.826197 20.881609 
L 47.941535 31.339677 
L 47.999203 27.851833 
L 48.114541 17.503798 
L 48.169463 20.765071 
L 48.284801 31.300615 
L 48.34247 27.970007 
L 48.457807 17.540413 
L 48.515476 20.943408 
L 48.630814 31.26595 
L 48.688482 27.791708 
L 48.80382 17.57729 
L 48.858743 20.826027 
L 48.97408 31.228673 
L 49.031749 27.910674 
L 49.147086 17.612154 
L 49.204755 21.001124 
L 49.320093 31.194437 
L 49.377761 27.735601 
L 49.493099 17.648548 
L 49.548022 20.883019 
L 49.663359 31.158819 
L 49.721028 27.855244 
L 49.836365 17.681786 
L 49.894034 21.054999 
L 50.009372 31.125053 
L 50.064294 27.972435 
L 50.182378 17.71766 
L 50.237301 20.93628 
L 50.352638 31.090975 
L 50.410307 27.803488 
L 50.525644 17.749389 
L 50.583313 21.105258 
L 50.698651 31.057714 
L 50.753573 27.921235 
L 50.868911 17.78436 
L 50.92658 20.986024 
L 51.041917 31.025063 
L 51.099586 27.755193 
L 51.214923 17.815044 
L 51.272592 21.15211 
L 51.38793 30.992338 
L 51.442852 27.873402 
L 51.55819 17.848665 
L 51.615859 21.032453 
L 51.731196 30.961008 
L 51.788865 27.710162 
L 51.904203 17.878828 
L 51.961871 21.195749 
L 52.077209 30.928848 
L 52.132131 27.828745 
L 52.247469 17.911202 
L 52.305138 21.075754 
L 52.420475 30.898736 
L 52.478144 27.66821 
L 52.593482 17.940815 
L 52.65115 21.236358 
L 52.766488 30.867166 
L 52.82141 27.787087 
L 52.936748 17.972039 
L 52.994417 21.116103 
L 53.109754 30.838176 
L 53.167423 27.629164 
L 53.282761 18.001078 
L 53.337683 20.998384 
L 53.455767 30.80722 
L 53.51069 27.748261 
L 53.626027 18.031244 
L 53.683696 21.153663 
L 53.799033 30.779259 
L 53.856702 27.592865 
L 53.97204 18.059687 
L 54.026962 21.035763 
L 54.145046 30.748937 
L 54.199969 27.712111 
L 54.315306 18.088882 
L 54.372975 21.188588 
L 54.488312 30.72192 
L 54.545981 27.559161 
L 54.661319 18.116709 
L 54.716241 21.070573 
L 54.834325 30.692248 
L 54.889248 27.678493 
L 55.004585 18.145018 
L 55.062254 21.221019 
L 55.177591 30.666093 
L 55.23526 27.52791 
L 55.350598 18.172211 
L 55.40552 21.102952 
L 55.523604 30.637089 
L 55.578527 27.647269 
L 55.693864 18.199712 
L 55.751533 21.251093 
L 55.86687 30.611716 
L 55.924539 27.498981 
L 56.039877 18.226255 
L 56.094799 21.133029 
L 56.212883 30.583393 
L 56.267806 27.618312 
L 56.383143 18.253023 
L 56.440812 21.278934 
L 56.55615 30.558729 
L 56.613818 27.47225 
L 56.729156 18.278902 
L 56.784078 21.160926 
L 56.902162 30.5311 
L 56.957085 27.591503 
L 57.072422 18.305008 
L 57.130091 21.304661 
L 57.245429 30.507075 
L 57.303097 27.447601 
L 57.418435 18.33021 
L 57.473357 21.186758 
L 57.591441 30.480153 
L 57.646364 27.566728 
L 57.761701 18.355723 
L 57.81937 21.328385 
L 57.934708 30.456698 
L 57.992376 27.424925 
L 58.107714 18.380236 
L 58.162637 21.210631 
L 58.28072 30.430491 
L 58.335643 27.54388 
L 58.45098 18.40522 
L 58.508649 21.35021 
L 58.623987 30.407543 
L 58.681655 27.404117 
L 58.796993 18.429035 
L 58.851916 21.232649 
L 58.969999 30.382062 
L 59.024922 27.522861 
L 59.140259 18.45355 
L 59.197928 21.370234 
L 59.313266 30.35956 
L 59.370934 27.385082 
L 59.486272 18.476658 
L 59.541195 21.252907 
L 59.659278 30.334812 
L 59.714201 27.503576 
L 59.829538 18.500764 
L 59.887207 21.388552 
L 60.002545 30.312698 
L 60.060214 27.367728 
L 60.175551 18.523156 
L 60.23322 21.524584 
L 60.348557 30.28869 
L 60.40348 27.485935 
L 60.518817 18.546909 
L 60.576486 21.40525 
L 60.691824 30.266908 
L 60.749493 27.351968 
L 60.86483 18.568578 
L 60.922499 21.53941 
L 61.037836 30.243646 
L 61.092759 27.469856 
L 61.208097 18.592031 
L 61.265765 21.420411 
L 61.381103 30.222145 
L 61.438772 27.337721 
L 61.554109 18.612971 
L 61.611778 21.552747 
L 61.727115 30.199634 
L 61.782038 27.455258 
L 61.897376 18.636175 
L 61.955044 21.434113 
L 62.070382 30.178363 
L 62.128051 27.324911 
L 62.243388 18.65638 
L 62.301057 21.56467 
L 62.416394 30.156609 
L 62.471317 27.442066 
L 62.586655 18.679383 
L 62.644323 21.44643 
L 62.759661 30.13552 
L 62.81733 27.313464 
L 62.932667 18.698848 
L 62.990336 21.57525 
L 63.105674 30.114527 
L 63.160596 27.430211 
L 63.27868 18.721357 
L 63.333602 21.457431 
L 63.44894 30.093574 
L 63.506609 27.303313 
L 63.621946 18.740417 
L 63.679615 21.584557 
L 63.794953 30.073345 
L 63.849875 27.419625 
L 63.967959 18.762142 
L 64.022881 21.467183 
L 64.138219 30.052486 
L 64.195888 27.294391 
L 64.311225 18.781127 
L 64.368894 21.592652 
L 64.484232 30.033023 
L 64.5419 27.168704 
L 64.657238 18.802066 
L 64.712161 21.475748 
L 64.827498 30.012217 
L 64.885167 27.286638 
L 65.000504 18.821016 
L 65.058173 21.599598 
L 65.173511 29.993524 
L 65.231179 27.162561 
L 65.346517 18.841167 
L 65.40144 21.483186 
L 65.516777 29.97273 
L 65.574446 27.279994 
L 65.689783 18.860121 
L 65.747452 21.605452 
L 65.86279 29.954808 
L 65.920458 27.157493 
L 66.035796 18.879484 
L 66.090719 21.489553 
L 66.208802 29.934016 
L 66.263725 27.274405 
L 66.379062 18.89848 
L 66.436731 21.610268 
L 66.552069 29.916841 
L 66.609737 27.153446 
L 66.725075 18.917052 
L 66.779998 21.494903 
L 66.898081 29.896855 
L 66.953004 27.269816 
L 67.068341 18.936126 
L 67.12601 21.6141 
L 67.241348 29.879586 
L 67.299017 27.150368 
L 67.414354 18.953907 
L 67.472023 21.733782 
L 67.58736 29.860409 
L 67.642283 27.266179 
L 67.757621 18.973092 
L 67.815289 21.616995 
L 67.930627 29.843012 
L 67.988296 27.148211 
L 68.103633 18.990081 
L 68.161302 21.735205 
L 68.276639 29.824642 
L 68.331562 27.263444 
L 68.4469 19.00941 
L 68.504568 21.619002 
L 68.619906 29.807085 
L 68.677575 27.146927 
L 68.792912 19.025608 
L 68.850581 21.735769 
L 68.965918 29.789521 
L 69.020841 27.261567 
L 69.138925 19.044529 
L 69.193847 21.620165 
L 69.309185 29.771775 
L 69.366854 27.146474 
L 69.482191 19.060519 
L 69.53986 21.735516 
L 69.655197 29.755018 
L 69.71012 27.260505 
L 69.828204 19.078619 
L 69.885873 21.851339 
L 69.998464 29.737052 
L 70.056133 27.146809 
L 70.17147 19.094843 
L 70.229139 21.734488 
L 70.344477 29.7211 
L 70.402145 27.032596 
L 70.517483 19.112123 
L 70.572405 21.620127 
L 70.687743 29.702886 
L 70.745412 27.147893 
L 70.860749 19.128609 
L 70.918418 21.732725 
L 71.033756 29.687739 
L 71.091424 27.035036 
L 71.206762 19.145071 
L 71.261684 21.619007 
L 71.379768 29.669972 
L 71.434691 27.149686 
L 71.550028 19.161845 
L 71.607697 21.730263 
L 71.723035 29.654908 
L 71.780703 27.038162 
L 71.896041 19.17749 
L 71.95371 21.842039 
L 72.069047 29.637971 
L 72.12397 27.152152 
L 72.239307 19.194579 
L 72.296976 21.72714 
L 72.412314 29.62258 
L 72.469982 27.041938 
L 72.58532 19.209409 
L 72.642989 21.837613 
L 72.758326 29.606469 
L 72.813249 27.155256 
L 72.931333 19.226791 
L 72.986255 21.72339 
L 73.101593 29.590726 
L 73.159261 27.046331 
L 73.274599 19.240852 
L 73.332268 21.832582 
L 73.447605 29.575442 
L 73.502528 27.158965 
L 73.620612 19.257396 
L 73.675534 21.719045 
L 73.790872 29.559325 
L 73.848541 27.051308 
L 73.963878 19.271844 
L 74.021547 21.826976 
L 74.136884 29.544864 
L 74.194553 26.943117 
L 74.309891 19.287553 
L 74.364813 21.714136 
L 74.480151 29.528351 
L 74.53782 27.056839 
L 74.653157 19.302411 
L 74.710826 21.820827 
L 74.826163 29.514711 
L 74.883832 26.94988 
L 74.99917 19.317287 
L 75.054092 21.708695 
L 75.172176 29.498606 
L 75.227099 27.062893 
L 75.342436 19.332574 
L 75.400105 21.814163 
L 75.515442 29.48496 
L 75.573111 26.957149 
L 75.688449 19.34662 
L 75.746117 21.920169 
L 75.861455 29.469696 
L 75.916378 27.069443 
L 76.031715 19.362357 
L 76.089384 21.807013 
L 76.204721 29.455589 
L 76.26239 26.964896 
L 76.377728 19.375576 
L 76.435397 21.91183 
L 76.550734 29.441162 
L 76.605657 27.076461 
L 76.72374 19.391203 
L 76.778663 21.799404 
L 76.825347 25.910224 
L 76.825347 25.910224 
" clip-path="url(#p2b19a63af0)" style="fill: none; stroke-dasharray: 0.185,0.08; stroke-dashoffset: 0; stroke: #b3c8cd; stroke-width: 0.05"/>
   </g>
   <g id="patch_13">
    <path d="M 24.099592 40.782205 
L 24.099592 8.042047 
" style="fill: none; stroke: #ffffff; stroke-width: 0.5; stroke-linejoin: miter; stroke-linecap: square"/>
   </g>
   <g id="patch_14">
    <path d="M 76.824002 40.782205 
L 76.824002 8.042047 
" style="fill: none; stroke: #ffffff; stroke-width: 0.5; stroke-linejoin: miter; stroke-linecap: square"/>
   </g>
   <g id="patch_15">
    <path d="M 24.099592 40.782205 
L 76.824002 40.782205 
" style="fill: none; stroke: #ffffff; stroke-width: 0.5; stroke-linejoin: miter; stroke-linecap: square"/>
   </g>
   <g id="patch_16">
    <path d="M 24.099592 8.042047 
L 76.824002 8.042047 
" style="fill: none; stroke: #ffffff; stroke-width: 0.5; stroke-linejoin: miter; stroke-linecap: square"/>
   </g>
  </g>
 </g>
 <defs>
  <clipPath id="p22a933b435">
   <rect x="6.524789" y="8.042047" width="17.574803" height="32.740157"/>
  </clipPath>
  <clipPath id="p7a8b59f39e">
   <rect x="76.824002" y="8.042047" width="17.574803" height="32.740157"/>
  </clipPath>
  <clipPath id="p2b19a63af0">
   <rect x="24.099592" y="8.042047" width="52.724409" height="32.740157"/>
  </clipPath>
 </defs>
</svg>
