<?xml version="1.0" encoding="utf-8" standalone="no"?>
<!DOCTYPE svg PUBLIC "-//W3C//DTD SVG 1.1//EN"
  "http://www.w3.org/Graphics/SVG/1.1/DTD/svg11.dtd">
<svg xmlns:xlink="http://www.w3.org/1999/xlink" width="93.314016pt" height="35.778091pt" viewBox="0 0 93.314016 35.778091" xmlns="http://www.w3.org/2000/svg" version="1.1">
 <metadata>
  <rdf:RDF xmlns:dc="http://purl.org/dc/elements/1.1/" xmlns:cc="http://creativecommons.org/ns#" xmlns:rdf="http://www.w3.org/1999/02/22-rdf-syntax-ns#">
   <cc:Work>
    <dc:type rdf:resource="http://purl.org/dc/dcmitype/StillImage"/>
    <dc:date>2025-01-13T14:57:27.087576</dc:date>
    <dc:format>image/svg+xml</dc:format>
    <dc:creator>
     <cc:Agent>
      <dc:title>Matplotlib v3.8.0, https://matplotlib.org/</dc:title>
     </cc:Agent>
    </dc:creator>
   </cc:Work>
  </rdf:RDF>
 </metadata>
 <defs>
  <style type="text/css">*{stroke-linejoin: round; stroke-linecap: butt}</style>
 </defs>
 <g id="figure_1">
  <g id="patch_1">
   <path d="M 0 35.778091 
L 93.314016 35.778091 
L 93.314016 0 
L 0 0 
L 0 35.778091 
z
" style="fill: none"/>
  </g>
  <g id="axes_1"/>
  <g id="axes_2">
   <g id="patch_2">
    <path d="M 4.72 35.058091 
L 22.294803 35.058091 
L 22.294803 2.317933 
L 4.72 2.317933 
L 4.72 35.058091 
z
" style="fill: none"/>
   </g>
   <g id="matplotlib.axis_1"/>
   <g id="matplotlib.axis_2"/>
   <g id="matplotlib.axis_3"/>
   <g id="matplotlib.axis_4"/>
   <g id="line2d_1">
    <path d="M 4.72 3.806122 
L 4.851814 3.976561 
L 5.027567 4.72587 
L 5.335133 7.366734 
L 5.818453 14.122426 
L 6.960843 31.041656 
L 7.312348 33.185511 
L 7.488101 33.390597 
L 7.619915 33.151824 
L 7.839606 32.024884 
L 8.147172 29.060385 
L 8.67443 21.326899 
L 9.641068 7.051829 
L 9.992573 4.560436 
L 10.212263 4.14522 
L 10.344078 4.339069 
L 10.563768 5.385662 
L 10.871335 8.235293 
L 11.398592 15.803596 
L 12.365231 30.024518 
L 12.716735 32.589652 
L 12.936426 33.070986 
L 13.06824 32.922154 
L 13.243993 32.219128 
L 13.507621 30.152563 
L 13.947002 24.55079 
L 15.265146 6.077126 
L 15.572712 4.577067 
L 15.704527 4.463814 
L 15.748465 4.498433 
L 15.880279 4.818126 
L 16.09997 6.047885 
L 16.451474 9.618752 
L 17.066608 18.836124 
L 17.857494 29.867973 
L 18.208999 32.32839 
L 18.428689 32.765481 
L 18.560503 32.599582 
L 18.736256 31.885714 
L 19.043823 29.381895 
L 19.527142 22.98792 
L 20.669533 6.984059 
L 21.021037 4.957219 
L 21.19679 4.763297 
L 21.328604 4.988943 
L 21.548295 6.054194 
L 21.855861 8.857389 
L 22.295243 14.818812 
L 22.295243 14.818812 
" clip-path="url(#p399f76c034)" style="fill: none; stroke: #b3c8cd; stroke-width: 0.2; stroke-linecap: square"/>
   </g>
   <g id="line2d_2">
    <path d="M 10.212263 4.333034 
L 32.313131 5.446049 
L 59.9502 6.536948 
L 94.314016 7.580041 
L 94.314016 7.580041 
" clip-path="url(#p399f76c034)" style="fill: none; stroke: #de8f5f; stroke-linecap: square"/>
   </g>
   <g id="line2d_3">
    <path d="M 10.212263 33.569902 
L 21.284666 31.728371 
L 37.849332 29.299637 
L 54.457936 27.093001 
L 76.558804 24.604624 
L 94.314016 22.821715 
L 94.314016 22.821715 
" clip-path="url(#p399f76c034)" style="fill: none; stroke-dasharray: 3.7,1.6; stroke-dashoffset: 0; stroke: #811c35"/>
   </g>
   <g id="patch_3">
    <path d="M 22.294803 35.058091 
L 22.294803 2.317933 
" style="fill: none; stroke: #ffffff; stroke-width: 0.5; stroke-linejoin: miter; stroke-linecap: square"/>
   </g>
   <g id="patch_4">
    <path d="M 4.72 35.058091 
L 4.72 2.317933 
" style="fill: none; stroke: #ffffff; stroke-width: 0.5; stroke-linejoin: miter; stroke-linecap: square"/>
   </g>
   <g id="patch_5">
    <path d="M 4.72 35.058091 
L 22.294803 35.058091 
" style="fill: none; stroke: #ffffff; stroke-width: 0.5; stroke-linejoin: miter; stroke-linecap: square"/>
   </g>
   <g id="patch_6">
    <path d="M 4.72 2.317933 
L 22.294803 2.317933 
" style="fill: none; stroke: #ffffff; stroke-width: 0.5; stroke-linejoin: miter; stroke-linecap: square"/>
   </g>
  </g>
  <g id="axes_3">
   <g id="patch_7">
    <path d="M 75.019213 35.058091 
L 92.594016 35.058091 
L 92.594016 2.317933 
L 75.019213 2.317933 
L 75.019213 35.058091 
z
" style="fill: none"/>
   </g>
   <g id="matplotlib.axis_5"/>
   <g id="matplotlib.axis_6"/>
   <g id="matplotlib.axis_7"/>
   <g id="matplotlib.axis_8"/>
   <g id="line2d_4">
    <path d="M 74.996804 20.402735 
L 75.568 22.990069 
L 75.919504 23.749182 
L 76.139195 23.819364 
L 76.358885 23.569741 
L 76.666452 22.716439 
L 77.105833 20.688013 
L 78.423976 14.10549 
L 78.731543 13.587114 
L 78.907296 13.568282 
L 79.126986 13.831757 
L 79.434553 14.701597 
L 79.873934 16.744395 
L 81.148139 23.170864 
L 81.455706 23.754448 
L 81.675396 23.795513 
L 81.895087 23.518267 
L 82.202654 22.632057 
L 82.685973 20.334359 
L 83.872302 14.311283 
L 84.223806 13.619917 
L 84.443497 13.593343 
L 84.663188 13.884276 
L 84.970754 14.786685 
L 85.454073 17.098778 
L 86.596464 22.952334 
L 86.947969 23.716409 
L 87.16766 23.792423 
L 87.343412 23.623745 
L 87.607041 23.005263 
L 88.002484 21.380433 
L 89.628194 13.769643 
L 89.891822 13.581539 
L 90.067575 13.710803 
L 90.331203 14.273765 
L 90.726646 15.833021 
L 91.56147 20.473188 
L 92.132666 23.002945 
L 92.48417 23.722318 
L 92.615985 23.78888 
L 92.615985 23.78888 
" clip-path="url(#p018d8cdf76)" style="fill: none; stroke: #b3c8cd; stroke-width: 0.2; stroke-linecap: square"/>
   </g>
   <g id="line2d_5">
    <path d="M -1 13.34153 
L 94.314016 13.597437 
L 94.314016 13.597437 
" clip-path="url(#p018d8cdf76)" style="fill: none; stroke: #de8f5f; stroke-linecap: square"/>
   </g>
   <g id="line2d_6">
    <path d="M -1 3.91148 
L 15.197041 3.899945 
L 26.269444 3.829008 
L 94.314016 3.827859 
L 94.314016 3.827859 
" clip-path="url(#p018d8cdf76)" style="fill: none; stroke-dasharray: 3.7,1.6; stroke-dashoffset: 0; stroke: #811c35"/>
   </g>
   <g id="patch_8">
    <path d="M 92.594016 35.058091 
L 92.594016 2.317933 
" style="fill: none; stroke: #ffffff; stroke-width: 0.5; stroke-linejoin: miter; stroke-linecap: square"/>
   </g>
   <g id="patch_9">
    <path d="M 75.019213 35.058091 
L 75.019213 2.317933 
" style="fill: none; stroke: #ffffff; stroke-width: 0.5; stroke-linejoin: miter; stroke-linecap: square"/>
   </g>
   <g id="patch_10">
    <path d="M 75.019213 35.058091 
L 92.594016 35.058091 
" style="fill: none; stroke: #ffffff; stroke-width: 0.5; stroke-linejoin: miter; stroke-linecap: square"/>
   </g>
   <g id="patch_11">
    <path d="M 75.019213 2.317933 
L 92.594016 2.317933 
" style="fill: none; stroke: #ffffff; stroke-width: 0.5; stroke-linejoin: miter; stroke-linecap: square"/>
   </g>
  </g>
  <g id="axes_4">
   <g id="patch_12">
    <path d="M 22.294803 35.058091 
L 75.019213 35.058091 
L 75.019213 2.317933 
L 22.294803 2.317933 
L 22.294803 35.058091 
z
" style="fill: none"/>
   </g>
   <g id="matplotlib.axis_9"/>
   <g id="matplotlib.axis_10"/>
   <g id="matplotlib.axis_11"/>
   <g id="matplotlib.axis_12"/>
   <g id="line2d_7">
    <path d="M 22.292084 14.153513 
L 22.396437 32.477652 
L 22.45136 25.939017 
L 22.566698 5.03574 
L 22.624366 11.83996 
L 22.739704 32.20626 
L 22.794627 25.728638 
L 22.909964 5.297529 
L 22.967633 12.031642 
L 23.08297 31.950105 
L 23.137893 25.545245 
L 23.253231 5.545204 
L 23.310899 12.197874 
L 23.426237 31.708043 
L 23.481159 25.385955 
L 23.596497 5.779816 
L 23.654166 12.341363 
L 23.766757 31.479869 
L 23.824426 25.248239 
L 23.939763 6.00236 
L 23.997432 12.464485 
L 24.110024 31.263342 
L 24.167692 25.129873 
L 24.28303 6.213776 
L 24.340699 12.569331 
L 24.45329 31.057134 
L 24.510959 25.028889 
L 24.626296 6.414947 
L 24.683965 12.657752 
L 24.796557 30.860429 
L 24.854225 24.943548 
L 24.969563 6.606703 
L 25.027232 12.731388 
L 25.142569 30.673409 
L 25.197492 24.8723 
L 25.312829 6.789818 
L 25.370498 12.791701 
L 25.485836 30.49534 
L 25.540758 24.813762 
L 25.656096 6.965016 
L 25.713765 12.839995 
L 25.829102 30.32507 
L 25.884025 24.766697 
L 25.999362 7.132971 
L 26.057031 12.877439 
L 26.172368 30.161921 
L 26.227291 24.729994 
L 26.342629 7.294314 
L 26.400297 12.905085 
L 26.515635 30.005267 
L 26.573304 24.214737 
L 26.685895 7.449631 
L 26.743564 12.923879 
L 26.858901 29.854523 
L 26.91657 24.20424 
L 27.031908 7.597197 
L 27.08683 12.934678 
L 27.202168 29.709144 
L 27.259837 24.201293 
L 27.375174 7.738012 
L 27.430097 12.938258 
L 27.545434 29.568623 
L 27.603103 24.205164 
L 27.718441 7.874087 
L 27.776109 13.401273 
L 27.888701 29.432489 
L 27.94637 24.215179 
L 28.061707 8.00589 
L 28.119376 13.384371 
L 28.234713 29.30439 
L 28.289636 24.230729 
L 28.404974 8.133854 
L 28.462642 13.362257 
L 28.57798 29.180721 
L 28.632902 24.251253 
L 28.74824 8.258386 
L 28.805909 13.335462 
L 28.921246 29.060375 
L 28.978915 23.83154 
L 29.094253 8.376033 
L 29.149175 13.304473 
L 29.264513 28.942978 
L 29.322181 23.868372 
L 29.437519 8.489292 
L 29.495188 13.709287 
L 29.607779 28.828185 
L 29.665448 23.908711 
L 29.780785 8.600051 
L 29.838454 13.663488 
L 29.953792 28.720859 
L 30.008714 23.952162 
L 30.124052 8.708632 
L 30.181721 13.614785 
L 30.297058 28.616258 
L 30.354727 23.571604 
L 30.470065 8.813656 
L 30.524987 13.563525 
L 30.640325 28.513442 
L 30.697993 23.627795 
L 30.813331 8.91255 
L 30.868254 13.510037 
L 30.983591 28.412138 
L 31.04126 23.686049 
L 31.156597 9.010027 
L 31.214266 13.868844 
L 31.329604 28.317261 
L 31.384526 23.746076 
L 31.499864 9.106338 
L 31.557533 13.804323 
L 31.67287 28.224718 
L 31.730539 23.398311 
L 31.845876 9.198755 
L 31.900799 13.738434 
L 32.016137 28.13302 
L 32.073805 23.46845 
L 32.189143 9.286746 
L 32.246812 14.075806 
L 32.362149 28.043154 
L 32.417072 23.539594 
L 32.532409 9.37419 
L 32.590078 14.000633 
L 32.705416 27.959357 
L 32.760338 23.611523 
L 32.875676 9.461285 
L 32.933345 13.924779 
L 33.048682 27.875828 
L 33.106351 23.291704 
L 33.221688 9.541376 
L 33.276611 13.848443 
L 33.391949 27.792386 
L 33.449617 23.371776 
L 33.564955 9.621308 
L 33.622624 14.159375 
L 33.737961 27.714854 
L 33.792884 23.452059 
L 33.908221 9.701396 
L 33.96589 14.075529 
L 34.081228 27.638217 
L 34.138896 23.149548 
L 34.254234 9.776333 
L 34.309157 13.99172 
L 34.424494 27.561198 
L 34.482163 23.236764 
L 34.5975 9.849958 
L 34.655169 14.286237 
L 34.770507 27.488884 
L 34.825429 23.323721 
L 34.940767 9.924176 
L 34.998436 14.196016 
L 35.113773 27.418005 
L 35.171442 23.036804 
L 35.286779 9.993847 
L 35.341702 14.106256 
L 35.45704 27.346337 
L 35.514708 23.129696 
L 35.630046 10.062231 
L 35.687715 14.385936 
L 35.803052 27.279319 
L 35.857975 23.221945 
L 35.973312 10.131586 
L 36.030981 14.290676 
L 36.146319 27.213195 
L 36.203987 22.949167 
L 36.319325 10.195946 
L 36.374248 14.196226 
L 36.489585 27.145929 
L 36.547254 23.046518 
L 36.662591 10.260034 
L 36.72026 14.462411 
L 36.835598 27.084226 
L 36.89052 23.142905 
L 37.008604 10.325345 
L 37.063527 14.363223 
L 37.178864 27.021967 
L 37.236533 22.883028 
L 37.35187 10.384471 
L 37.409539 14.622412 
L 37.524877 26.959399 
L 37.579799 22.98382 
L 37.695137 10.445097 
L 37.752806 14.518975 
L 37.868143 26.901855 
L 37.925812 22.730594 
L 38.041149 10.504937 
L 38.096072 14.416794 
L 38.21141 26.842676 
L 38.269078 22.835338 
L 38.384416 10.561082 
L 38.442085 14.664297 
L 38.557422 26.785547 
L 38.612345 22.938712 
L 38.727682 10.618987 
L 38.785351 14.558437 
L 38.900689 26.730629 
L 38.958357 22.696706 
L 39.073695 10.673424 
L 39.128618 14.454054 
L 39.243955 26.673834 
L 39.301624 22.803506 
L 39.416961 10.727277 
L 39.47463 14.690771 
L 39.589968 26.62207 
L 39.64489 22.90873 
L 39.762974 10.782188 
L 39.817897 14.583194 
L 39.933234 26.569128 
L 39.990903 22.677108 
L 40.10624 10.832231 
L 40.163909 14.814438 
L 40.279247 26.516931 
L 40.334169 22.785311 
L 40.449507 10.884405 
L 40.507176 14.703993 
L 40.622513 26.467613 
L 40.680182 22.55892 
L 40.79552 10.933914 
L 40.850442 14.595304 
L 40.96578 26.416071 
L 41.023448 22.669798 
L 41.138786 10.982642 
L 41.196455 14.817008 
L 41.311792 26.369223 
L 41.369461 22.448392 
L 41.484799 11.032403 
L 41.539721 14.705824 
L 41.655059 26.32096 
L 41.712727 22.56167 
L 41.828065 11.077891 
L 41.885734 14.922753 
L 42.001071 26.273886 
L 42.055994 22.673043 
L 42.171331 11.12581 
L 42.229 14.80933 
L 42.344338 26.228703 
L 42.402007 22.460448 
L 42.517344 11.170227 
L 42.572267 14.697878 
L 42.69035 26.181519 
L 42.745273 22.573911 
L 42.860611 11.215215 
L 42.918279 14.906271 
L 43.033617 26.139228 
L 43.091286 22.365691 
L 43.206623 11.259726 
L 43.261546 14.79287 
L 43.376883 26.094331 
L 43.434552 22.481023 
L 43.54989 11.301963 
L 43.607558 14.997061 
L 43.722896 26.052462 
L 43.777818 22.594269 
L 43.895902 11.346468 
L 43.950825 14.881916 
L 44.066162 26.010181 
L 44.123831 22.393993 
L 44.239169 11.386126 
L 44.296837 15.082082 
L 44.412175 25.968326 
L 44.467098 22.508865 
L 44.582435 11.428543 
L 44.640104 14.965381 
L 44.755441 25.928498 
L 44.81311 22.31246 
L 44.928448 11.467778 
L 44.98337 14.850863 
L 45.101454 25.886741 
L 45.156377 22.428782 
L 45.271714 11.507863 
L 45.329383 15.043603 
L 45.44472 25.849211 
L 45.502389 22.236093 
L 45.617727 11.546997 
L 45.672649 14.927735 
L 45.787987 25.808789 
L 45.845656 22.353702 
L 45.960993 11.584896 
L 46.018662 15.116896 
L 46.133999 25.772247 
L 46.191668 22.164581 
L 46.307006 11.623858 
L 46.361928 14.999831 
L 46.477266 25.733903 
L 46.534935 22.283331 
L 46.650272 11.659712 
L 46.707941 15.18555 
L 46.823278 25.697532 
L 46.878201 22.399786 
L 46.996285 11.698439 
L 47.051207 15.067426 
L 47.166545 25.661131 
L 47.224214 22.217393 
L 47.339551 11.732383 
L 47.39722 15.249835 
L 47.512558 25.624993 
L 47.56748 22.334828 
L 47.682818 11.769398 
L 47.740486 15.130783 
L 47.855824 25.590406 
L 47.913493 22.155633 
L 48.02883 11.802979 
L 48.086499 15.310004 
L 48.201837 25.554555 
L 48.256759 22.273927 
L 48.372097 11.83827 
L 48.429765 15.190141 
L 48.545103 25.521661 
L 48.602772 22.097814 
L 48.718109 11.87157 
L 48.773032 15.072658 
L 48.891116 25.486146 
L 48.946038 22.216854 
L 49.061376 11.905253 
L 49.119045 15.245725 
L 49.234382 25.45483 
L 49.292051 22.043714 
L 49.407388 11.938224 
L 49.462311 15.127557 
L 49.577649 25.420302 
L 49.635317 22.163397 
L 49.750655 11.97041 
L 49.808324 15.297745 
L 49.923661 25.389846 
L 49.98133 21.993126 
L 50.096667 12.003009 
L 50.15159 15.178989 
L 50.266928 25.356738 
L 50.324596 22.113357 
L 50.439934 12.033804 
L 50.497603 15.346397 
L 50.61294 25.326646 
L 50.670609 21.945857 
L 50.785946 12.065993 
L 50.840869 15.227145 
L 50.956207 25.294856 
L 51.013875 22.066548 
L 51.129213 12.095498 
L 51.186882 15.391864 
L 51.302219 25.265164 
L 51.357142 22.184778 
L 51.475225 12.127241 
L 51.530148 15.2722 
L 51.645486 25.234596 
L 51.703154 22.022795 
L 51.818492 12.155551 
L 51.876161 15.434319 
L 51.991498 25.205339 
L 52.046421 22.141393 
L 52.164505 12.186818 
L 52.219427 15.31432 
L 52.334765 25.175902 
L 52.392433 21.981936 
L 52.507771 12.214023 
L 52.56544 15.47392 
L 52.680777 25.147109 
L 52.7357 22.100828 
L 52.851037 12.244627 
L 52.908706 15.353659 
L 53.024044 25.118715 
L 53.081712 21.943818 
L 53.19705 12.270972 
L 53.254719 15.510821 
L 53.370056 25.090415 
L 53.424979 22.062934 
L 53.540316 12.300592 
L 53.597985 15.390365 
L 53.713323 25.062982 
L 53.770992 21.908297 
L 53.886329 12.326457 
L 53.943998 15.545162 
L 54.059335 25.0352 
L 54.114258 22.027574 
L 54.229596 12.355171 
L 54.287264 15.424572 
L 54.402602 25.008646 
L 54.460271 21.875239 
L 54.575608 12.38053 
L 54.633277 15.577076 
L 54.748614 24.981405 
L 54.803537 21.994615 
L 54.918875 12.408416 
L 54.976543 15.456411 
L 55.091881 24.955657 
L 55.14955 21.844516 
L 55.264887 12.433247 
L 55.322556 15.606688 
L 55.437893 24.928977 
L 55.492816 21.963937 
L 55.608154 12.460377 
L 55.665822 15.486002 
L 55.78116 24.903962 
L 55.838829 21.816008 
L 55.954166 12.48466 
L 56.011835 15.634115 
L 56.127172 24.877862 
L 56.182095 21.935423 
L 56.297433 12.511102 
L 56.355101 15.513459 
L 56.470439 24.853512 
L 56.528108 21.789605 
L 56.643445 12.534818 
L 56.701114 15.65947 
L 56.816452 24.828009 
L 56.871374 21.908964 
L 56.986712 12.560642 
L 57.04438 15.538889 
L 57.159718 24.804257 
L 57.217387 21.765199 
L 57.332724 12.583774 
L 57.390393 15.682855 
L 57.505731 24.779368 
L 57.560653 21.884458 
L 57.675991 12.609039 
L 57.733659 15.562394 
L 57.848997 24.756153 
L 57.906666 21.742691 
L 58.022003 12.631572 
L 58.079672 15.704369 
L 58.19501 24.73189 
L 58.249932 21.861808 
L 58.36527 12.656339 
L 58.422939 15.58407 
L 58.538276 24.709152 
L 58.595945 21.721987 
L 58.711282 12.678259 
L 58.768951 15.724105 
L 58.884289 24.685529 
L 58.939211 21.840922 
L 59.054549 12.702587 
L 59.112218 15.604006 
L 59.227555 24.66321 
L 59.285224 21.702998 
L 59.400561 12.723882 
L 59.45823 15.742152 
L 59.573568 24.640239 
L 59.62849 21.821713 
L 59.743828 12.747824 
L 59.801497 15.622288 
L 59.916834 24.618285 
L 59.974503 21.685638 
L 60.08984 12.768482 
L 60.147509 15.758593 
L 60.262847 24.595975 
L 60.317769 21.804098 
L 60.433107 12.792093 
L 60.490776 15.638998 
L 60.606113 24.574335 
L 60.663782 21.669829 
L 60.779119 12.812102 
L 60.836788 15.773505 
L 60.952126 24.552697 
L 61.007048 21.788002 
L 61.125132 12.835354 
L 61.180055 15.654212 
L 61.295392 24.53132 
L 61.353061 21.655494 
L 61.468399 12.854783 
L 61.526067 15.786964 
L 61.641405 24.510362 
L 61.696327 21.77335 
L 61.814411 12.877333 
L 61.869334 15.668002 
L 61.984671 24.489201 
L 62.04234 21.642563 
L 62.157678 12.896564 
L 62.215346 15.79904 
L 62.330684 24.46893 
L 62.385607 21.760071 
L 62.50369 12.918404 
L 62.558613 15.680437 
L 62.67395 24.44794 
L 62.731619 21.630968 
L 62.846957 12.937482 
L 62.904625 15.8098 
L 63.019963 24.428365 
L 63.074886 21.748101 
L 63.192969 12.958607 
L 63.250638 15.939624 
L 63.363229 24.407502 
L 63.420898 21.620643 
L 63.536236 12.977575 
L 63.593904 15.819308 
L 63.709242 24.388627 
L 63.766911 21.492671 
L 63.882248 12.997979 
L 63.937171 15.701502 
L 64.052508 24.367849 
L 64.110177 21.611527 
L 64.225515 13.016878 
L 64.283183 15.827623 
L 64.398521 24.349682 
L 64.45619 21.485151 
L 64.571527 13.036557 
L 64.62645 15.710252 
L 64.741787 24.32895 
L 64.799456 21.603563 
L 64.914794 13.055426 
L 64.972463 15.834804 
L 65.0878 24.311496 
L 65.145469 21.47875 
L 65.260806 13.074373 
L 65.315729 15.717889 
L 65.433813 24.291068 
L 65.488735 21.596696 
L 65.604073 13.093251 
L 65.661742 15.840904 
L 65.777079 24.274033 
L 65.834748 21.473413 
L 65.950085 13.111464 
L 66.005008 15.724468 
L 66.123092 24.254358 
L 66.178014 21.590873 
L 66.293352 13.130386 
L 66.351021 15.845976 
L 66.466358 24.237264 
L 66.524027 21.469089 
L 66.639364 13.14786 
L 66.697033 15.968018 
L 66.812371 24.218343 
L 66.867293 21.586042 
L 66.982631 13.166862 
L 67.0403 15.850069 
L 67.155637 24.201154 
L 67.213306 21.465729 
L 67.328643 13.183595 
L 67.386312 15.970648 
L 67.50165 24.182991 
L 67.556572 21.582158 
L 67.67191 13.202708 
L 67.729579 15.853231 
L 67.844916 24.165676 
L 67.902585 21.463288 
L 68.017923 13.218697 
L 68.075591 15.972374 
L 68.190929 24.148273 
L 68.245851 21.579173 
L 68.363935 13.237504 
L 68.418858 15.855505 
L 68.534195 24.130799 
L 68.591864 21.461719 
L 68.707202 13.253198 
L 68.76487 15.97324 
L 68.880208 24.114157 
L 68.93513 21.577045 
L 69.053214 13.271228 
L 69.108137 15.856936 
L 69.223474 24.096495 
L 69.281143 21.460982 
L 69.396481 13.287123 
L 69.454149 15.973287 
L 69.569487 24.080616 
L 69.627156 21.34436 
L 69.742493 13.304376 
L 69.797416 15.857564 
L 69.912753 24.062737 
L 69.970422 21.461035 
L 70.08576 13.320502 
L 70.143428 15.972556 
L 70.258766 24.047623 
L 70.316435 21.345766 
L 70.431772 13.336976 
L 70.486695 15.857429 
L 70.604779 24.029799 
L 70.659701 21.461841 
L 70.775039 13.353361 
L 70.832707 15.971083 
L 70.948045 24.015151 
L 71.005714 21.347901 
L 71.121051 13.369055 
L 71.175974 15.856567 
L 71.294058 23.99812 
L 71.34898 21.463362 
L 71.464318 13.385724 
L 71.521986 15.968907 
L 71.637324 23.983174 
L 71.694993 21.350729 
L 71.81033 13.40064 
L 71.867999 16.081816 
L 71.983337 23.966935 
L 72.038259 21.465563 
L 72.153597 13.417618 
L 72.211266 15.966061 
L 72.326603 23.951666 
L 72.384272 21.354216 
L 72.499609 13.431754 
L 72.557278 16.077691 
L 72.672616 23.93622 
L 72.727538 21.46841 
L 72.845622 13.448502 
L 72.900545 15.962579 
L 73.015882 23.920606 
L 73.073551 21.35833 
L 73.188888 13.462421 
L 73.246557 16.07295 
L 73.361895 23.905952 
L 73.419563 21.247683 
L 73.534901 13.478366 
L 73.589824 15.958493 
L 73.705161 23.889968 
L 73.76283 21.363038 
L 73.878167 13.492666 
L 73.935836 16.067624 
L 74.051174 23.876105 
L 74.108842 21.253624 
L 74.22418 13.507807 
L 74.279103 15.953834 
L 74.39444 23.859731 
L 74.452109 21.36831 
L 74.567446 13.522511 
L 74.625115 16.061742 
L 74.740453 23.846659 
L 74.798122 21.260111 
L 74.913459 13.53685 
L 74.968382 15.94863 
L 75.020558 20.643236 
L 75.020558 20.643236 
" clip-path="url(#pe3c6558312)" style="fill: none; stroke: #b3c8cd; stroke-width: 0.05; stroke-linecap: square"/>
   </g>
   <g id="line2d_8">
    <path d="M 21.539644 4.333034 
L 22.920949 5.446049 
L 24.994278 6.717494 
L 27.756886 7.956035 
L 30.176228 8.776575 
L 33.976875 9.762753 
L 43.64875 11.329781 
L 55.047943 12.440685 
L 59.191855 12.718403 
L 64.373806 13.034051 
L 70.93706 13.362824 
L 75.426986 13.55688 
L 94.314016 14.206704 
L 94.314016 14.206704 
" clip-path="url(#pe3c6558312)" style="fill: none; stroke: #de8f5f; stroke-linecap: square"/>
   </g>
   <g id="line2d_9">
    <path d="M 21.539644 33.569902 
L 22.920949 30.080574 
L 24.648265 26.448287 
L 26.032316 24.037975 
L 27.756886 21.437933 
L 29.484203 19.238524 
L 32.592824 15.971703 
L 36.739483 12.694611 
L 40.883396 10.225736 
L 46.065346 7.958375 
L 51.936576 6.211949 
L 52.628601 6.038816 
L 54.009905 5.729768 
L 55.047943 5.525814 
L 56.083234 5.324425 
L 57.810551 5.019731 
L 59.191855 4.861827 
L 60.227147 4.659421 
L 61.608451 4.530366 
L 62.992502 4.317108 
L 64.027793 4.270134 
L 65.063085 4.187013 
L 66.790402 4.021301 
L 68.863731 3.942238 
L 69.899023 3.93092 
L 72.664377 3.827611 
L 73.007644 3.886544 
L 73.699669 3.831066 
L 77.500315 3.836805 
L 77.843582 3.917918 
L 78.535607 3.883646 
L 80.262924 3.881486 
L 81.644228 3.981347 
L 89.588787 4.456474 
L 91.662116 4.661927 
L 93.389433 4.777073 
L 94.078712 4.870127 
L 94.314016 4.862541 
L 94.314016 4.862541 
" clip-path="url(#pe3c6558312)" style="fill: none; stroke-dasharray: 3.7,1.6; stroke-dashoffset: 0; stroke: #811c35"/>
   </g>
   <g id="patch_13">
    <path d="M 75.019213 35.058091 
L 75.019213 2.317933 
" style="fill: none; stroke: #ffffff; stroke-width: 0.5; stroke-linejoin: miter; stroke-linecap: square"/>
   </g>
   <g id="patch_14">
    <path d="M 22.294803 35.058091 
L 22.294803 2.317933 
" style="fill: none; stroke: #ffffff; stroke-width: 0.5; stroke-linejoin: miter; stroke-linecap: square"/>
   </g>
   <g id="patch_15">
    <path d="M 22.294803 35.058091 
L 75.019213 35.058091 
" style="fill: none; stroke: #ffffff; stroke-width: 0.5; stroke-linejoin: miter; stroke-linecap: square"/>
   </g>
   <g id="patch_16">
    <path d="M 22.294803 2.317933 
L 75.019213 2.317933 
" style="fill: none; stroke: #ffffff; stroke-width: 0.5; stroke-linejoin: miter; stroke-linecap: square"/>
   </g>
   <g id="text_1">
    <!-- $A(t)$ -->
    <g style="fill: #de8f5f" transform="translate(54.149134 18.688012) scale(0.08 -0.08)">
     <defs>
      <path id="STIXGeneral-Italic-41" d="M 3610 0 
L 2042 0 
L 2042 102 
Q 2330 115 2432 192 
Q 2534 269 2534 442 
Q 2534 493 2522 608 
L 2394 1446 
L 986 1446 
L 608 736 
Q 467 474 467 314 
Q 467 122 864 102 
L 864 0 
L -326 0 
L -326 102 
Q -109 147 28 307 
Q 166 467 531 1101 
L 2355 4275 
L 2522 4275 
L 3110 736 
Q 3174 339 3264 230 
Q 3354 122 3610 102 
L 3610 0 
z
M 2362 1677 
L 2074 3360 
L 1120 1677 
L 2362 1677 
z
" transform="scale(0.015625)"/>
      <path id="STIXGeneral-Regular-28" d="M 1946 -1030 
L 1869 -1133 
Q 1126 -710 716 32 
Q 307 774 307 1613 
Q 307 3386 1888 4326 
L 1946 4224 
Q 1293 3667 1075 3126 
Q 858 2586 858 1632 
Q 858 685 1082 96 
Q 1306 -493 1946 -1030 
z
" transform="scale(0.015625)"/>
      <path id="STIXGeneral-Italic-74" d="M 1894 2739 
L 1862 2534 
L 1325 2534 
L 768 435 
Q 755 384 755 346 
Q 755 243 851 243 
Q 928 243 1030 342 
Q 1133 442 1370 749 
L 1453 704 
Q 1158 256 969 93 
Q 781 -70 538 -70 
Q 243 -70 243 166 
Q 243 230 346 640 
L 845 2534 
L 365 2534 
L 358 2573 
Q 358 2688 570 2733 
Q 730 2771 992 2979 
Q 1254 3187 1421 3437 
Q 1459 3494 1510 3494 
Q 1568 3494 1568 3443 
Q 1568 3411 1562 3398 
L 1382 2739 
L 1894 2739 
z
" transform="scale(0.015625)"/>
      <path id="STIXGeneral-Regular-29" d="M 186 4224 
L 262 4326 
Q 992 3891 1408 3148 
Q 1824 2406 1824 1581 
Q 1824 -166 243 -1133 
L 186 -1030 
Q 845 -486 1059 54 
Q 1274 595 1274 1562 
Q 1274 2534 1059 3120 
Q 845 3706 186 4224 
z
" transform="scale(0.015625)"/>
     </defs>
     <use xlink:href="#STIXGeneral-Italic-41" transform="translate(0 0.40625)"/>
     <use xlink:href="#STIXGeneral-Regular-28" transform="translate(61.099991 0.40625)"/>
     <use xlink:href="#STIXGeneral-Italic-74" transform="translate(94.399979 0.40625)"/>
     <use xlink:href="#STIXGeneral-Regular-29" transform="translate(122.199966 0.40625)"/>
    </g>
   </g>
   <g id="text_2">
    <!-- $\beta(t)$ -->
    <g style="fill: #811c35" transform="translate(37.672756 6.7825) scale(0.08 -0.08)">
     <defs>
      <path id="STIXGeneral-Italic-3b2" d="M -58 -813 
L 819 2355 
Q 902 2662 995 2908 
Q 1088 3155 1235 3433 
Q 1382 3712 1555 3901 
Q 1728 4090 1977 4214 
Q 2227 4339 2515 4339 
Q 2816 4339 3053 4182 
Q 3290 4026 3290 3693 
Q 3290 3328 3037 3001 
Q 2784 2675 2470 2534 
L 2470 2528 
Q 2682 2509 2858 2320 
Q 3034 2131 3034 1818 
Q 3034 1376 2694 873 
Q 2355 371 1901 122 
Q 1562 -70 1107 -70 
Q 922 -70 685 38 
L 442 -813 
Q 352 -1126 243 -1312 
L -256 -1312 
Q -154 -1158 -58 -813 
z
M 1491 3053 
L 762 288 
Q 762 186 848 118 
Q 934 51 1069 51 
Q 1594 51 2029 704 
Q 2464 1357 2464 2029 
Q 2464 2406 2208 2406 
Q 2150 2406 2044 2380 
Q 1939 2355 1888 2355 
Q 1805 2355 1750 2396 
Q 1696 2438 1696 2496 
Q 1696 2650 1978 2650 
Q 1997 2650 2099 2630 
Q 2202 2611 2253 2611 
Q 2451 2611 2640 2969 
Q 2829 3328 2829 3622 
Q 2829 3962 2713 4083 
Q 2598 4205 2400 4205 
Q 2080 4205 1846 3865 
Q 1613 3526 1491 3053 
z
" transform="scale(0.015625)"/>
     </defs>
     <use xlink:href="#STIXGeneral-Italic-3b2" transform="translate(0 0.203125)"/>
     <use xlink:href="#STIXGeneral-Regular-28" transform="translate(50.599991 0.203125)"/>
     <use xlink:href="#STIXGeneral-Italic-74" transform="translate(83.899979 0.203125)"/>
     <use xlink:href="#STIXGeneral-Regular-29" transform="translate(111.699966 0.203125)"/>
    </g>
   </g>
  </g>
 </g>
 <defs>
  <clipPath id="p399f76c034">
   <rect x="4.72" y="2.317933" width="17.574803" height="32.740157"/>
  </clipPath>
  <clipPath id="p018d8cdf76">
   <rect x="75.019213" y="2.317933" width="17.574803" height="32.740157"/>
  </clipPath>
  <clipPath id="pe3c6558312">
   <rect x="22.294803" y="2.317933" width="52.724409" height="32.740157"/>
  </clipPath>
 </defs>
</svg>
