<?xml version="1.0" encoding="utf-8" standalone="no"?>
<!DOCTYPE svg PUBLIC "-//W3C//DTD SVG 1.1//EN"
  "http://www.w3.org/Graphics/SVG/1.1/DTD/svg11.dtd">
<svg xmlns:xlink="http://www.w3.org/1999/xlink" width="13.644724pt" height="88.747087pt" viewBox="0 0 13.644724 88.747087" xmlns="http://www.w3.org/2000/svg" version="1.1">
 <metadata>
  <rdf:RDF xmlns:dc="http://purl.org/dc/elements/1.1/" xmlns:cc="http://creativecommons.org/ns#" xmlns:rdf="http://www.w3.org/1999/02/22-rdf-syntax-ns#">
   <cc:Work>
    <dc:type rdf:resource="http://purl.org/dc/dcmitype/StillImage"/>
    <dc:date>2025-01-13T14:57:29.768544</dc:date>
    <dc:format>image/svg+xml</dc:format>
    <dc:creator>
     <cc:Agent>
      <dc:title>Matplotlib v3.8.0, https://matplotlib.org/</dc:title>
     </cc:Agent>
    </dc:creator>
   </cc:Work>
  </rdf:RDF>
 </metadata>
 <defs>
  <style type="text/css">*{stroke-linejoin: round; stroke-linecap: butt}</style>
 </defs>
 <g id="figure_1">
  <g id="patch_1">
   <path d="M 0 88.747087 
L 13.644724 88.747087 
L 13.644724 0 
L 0 0 
L 0 88.747087 
z
" style="fill: none"/>
  </g>
  <g id="axes_1">
   <g id="patch_2">
    <path d="M 0.72 37.097953 
L 12.924724 37.097953 
L 12.924724 0.72 
L 0.72 0.72 
L 0.72 37.097953 
z
" style="fill: none"/>
   </g>
   <g id="matplotlib.axis_1"/>
   <g id="matplotlib.axis_2"/>
   <g id="line2d_1">
    <path d="M 3.817552 36.755082 
L 4.14599 36.526805 
L 4.636962 36.068431 
L 5.090978 35.496373 
L 5.170941 35.268096 
L 5.396328 35.038909 
L 5.435805 34.810632 
L 5.700592 33.894794 
L 5.705923 33.78111 
L 5.980295 33.551923 
L 5.870367 33.43733 
L 5.936714 33.209052 
L 5.874813 33.094459 
L 6.070541 32.751588 
L 5.984423 32.636995 
L 6.027012 32.407808 
L 6.16772 31.83575 
L 6.112217 31.607473 
L 6.263061 31.378286 
L 6.240479 31.150009 
L 6.130232 31.035415 
L 6.317904 30.577951 
L 6.232685 30.463358 
L 6.33755 30.234171 
L 6.276835 30.120487 
L 6.354496 29.8913 
L 6.349795 29.776707 
L 6.473171 29.662113 
L 6.300267 29.548429 
L 6.412427 29.204649 
L 6.300764 29.090056 
L 6.48976 28.518908 
L 6.456566 28.060534 
L 6.526295 27.260199 
L 6.511718 27.031012 
L 6.411779 26.802735 
L 6.625987 26.573548 
L 6.473738 26.345271 
L 6.517031 26.116084 
L 6.43762 26.00149 
L 6.602711 25.773213 
L 6.521215 25.65862 
L 6.597167 25.429433 
L 6.545301 25.201155 
L 6.685831 21.654216 
L 6.587913 21.425939 
L 6.709721 20.396417 
L 6.594432 20.16723 
L 6.691485 19.938953 
L 6.614092 19.824359 
L 6.700548 19.595173 
L 6.624902 19.366895 
L 6.730173 19.137708 
L 6.646657 18.908522 
L 6.6664 17.536129 
L 6.747721 17.306942 
L 6.669649 17.078665 
L 6.683832 16.849478 
L 6.637303 16.392014 
L 6.734802 16.049143 
L 6.60694 15.819956 
L 6.723071 15.477085 
L 6.753914 12.616797 
L 6.790258 12.502204 
L 6.594843 12.273927 
L 6.734034 12.04474 
L 6.653782 11.931056 
L 6.740309 11.701869 
L 6.717921 11.472682 
L 6.72882 11.244405 
L 6.703705 10.672347 
L 6.796037 10.557754 
L 6.691583 10.214883 
L 6.786083 9.871103 
L 6.723879 9.642825 
L 6.705488 9.185361 
L 6.7209 8.727897 
L 6.807077 8.49871 
L 6.695371 8.269523 
L 6.724507 7.354595 
L 6.781332 5.753016 
L 6.807636 5.638422 
L 6.727224 5.410145 
L 6.790994 4.952681 
L 6.683634 4.838087 
L 6.801139 4.6089 
L 6.712662 4.380623 
L 6.776091 1.177464 
L 6.776091 1.177464 
" clip-path="url(#pa71c31c799)" style="fill: none; stroke: #de8f5f; stroke-linecap: square"/>
   </g>
   <g id="patch_3">
    <path d="M 0.72 37.097953 
L 0.72 0.72 
" style="fill: none; stroke: #000000; stroke-width: 0.5; stroke-linejoin: miter; stroke-linecap: square"/>
   </g>
   <g id="patch_4">
    <path d="M 12.924724 37.097953 
L 12.924724 0.72 
" style="fill: none; stroke: #000000; stroke-width: 0.5; stroke-linejoin: miter; stroke-linecap: square"/>
   </g>
   <g id="patch_5">
    <path d="M 0.72 37.097953 
L 12.924724 37.097953 
" style="fill: none; stroke: #000000; stroke-width: 0.5; stroke-linejoin: miter; stroke-linecap: square"/>
   </g>
   <g id="patch_6">
    <path d="M 0.72 0.72 
L 12.924724 0.72 
" style="fill: none; stroke: #000000; stroke-width: 0.5; stroke-linejoin: miter; stroke-linecap: square"/>
   </g>
  </g>
  <g id="axes_2">
   <g id="patch_7">
    <path d="M 0.72 88.027087 
L 12.924724 88.027087 
L 12.924724 51.649134 
L 0.72 51.649134 
L 0.72 88.027087 
z
" style="fill: none"/>
   </g>
   <g id="matplotlib.axis_3"/>
   <g id="matplotlib.axis_4"/>
   <g id="line2d_2">
    <path d="M 12.39673 87.684216 
L 11.767336 87.341345 
L 10.601102 86.654694 
L 10.349723 86.311823 
L 9.381148 85.167708 
L 9.419965 85.053115 
L 9.038316 84.823928 
L 9.093778 84.59565 
L 8.817256 84.25278 
L 8.69346 84.138186 
L 8.736203 83.908999 
L 8.577766 83.566129 
L 8.287486 82.536607 
L 8.050326 82.30742 
L 8.212401 82.192827 
L 8.05821 81.964549 
L 7.930263 81.163305 
L 7.683887 80.935027 
L 7.84665 80.705841 
L 7.832535 80.477563 
L 7.607967 80.248376 
L 7.767102 80.01919 
L 7.574415 79.790912 
L 7.462701 79.676319 
L 7.657266 79.333448 
L 7.626405 79.218855 
L 7.340775 79.104261 
L 7.367451 78.989668 
L 7.608934 78.76139 
L 7.428366 78.532204 
L 7.505203 78.074739 
L 7.118778 77.846462 
L 7.572134 77.617275 
L 7.260296 77.388088 
L 7.378016 77.274404 
L 7.172121 77.159811 
L 7.408749 77.045218 
L 7.136792 76.587753 
L 7.302815 76.47316 
L 7.258952 76.358567 
L 7.092608 76.244883 
L 7.261537 76.015696 
L 7.067155 75.901102 
L 7.150741 75.672825 
L 7.024168 75.558232 
L 7.318088 75.329045 
L 6.997972 75.100767 
L 7.142875 74.986174 
L 6.913842 74.756987 
L 7.212883 74.643303 
L 7.050747 74.414116 
L 7.191411 74.299523 
L 6.992818 74.071246 
L 6.988319 73.842059 
L 6.969306 73.499188 
L 7.106419 73.270001 
L 6.943982 73.155408 
L 7.038955 72.92713 
L 6.762835 72.812537 
L 6.777635 72.697944 
L 6.97564 72.469666 
L 6.980614 72.355073 
L 6.777065 72.240479 
L 6.961438 72.011293 
L 6.804557 71.783015 
L 6.973105 71.668422 
L 6.95686 71.440144 
L 7.048818 71.325551 
L 6.778155 71.210958 
L 6.826822 71.096364 
L 6.655253 70.981771 
L 6.999469 70.753493 
L 6.818114 70.6389 
L 6.901991 70.524307 
L 6.753249 70.296029 
L 6.828005 70.066842 
L 6.84567 69.494785 
L 6.532524 69.380191 
L 6.93177 69.151914 
L 6.697976 69.037321 
L 7.043923 68.808134 
L 6.63892 68.69445 
L 6.673684 68.579856 
L 6.873061 68.465263 
L 6.547067 68.35067 
L 6.778867 68.122392 
L 6.619137 68.007799 
L 6.938309 67.664928 
L 6.646933 67.435741 
L 6.701747 67.09287 
L 6.492396 66.978277 
L 6.527608 66.863684 
L 6.830754 66.74909 
L 6.813224 66.634497 
L 6.465897 66.520813 
L 6.50428 66.406219 
L 6.825668 66.291626 
L 6.728725 66.063349 
L 6.586072 65.948755 
L 6.745085 65.719568 
L 6.526373 65.376698 
L 6.66939 65.147511 
L 6.674679 64.919233 
L 6.509215 64.80464 
L 6.592919 64.690046 
L 6.516179 64.575453 
L 6.750064 64.461769 
L 6.5253 64.003395 
L 6.821064 63.889712 
L 6.701377 63.775118 
L 6.3363 63.660525 
L 6.389061 63.545931 
L 6.756721 63.317654 
L 6.729105 63.203061 
L 6.251381 62.973874 
L 6.742755 62.745596 
L 6.496487 62.516409 
L 6.314217 62.401816 
L 6.774308 62.288132 
L 6.520169 62.058945 
L 6.662096 61.944352 
L 6.476315 61.829758 
L 6.660501 61.144017 
L 6.434712 61.029423 
L 6.503978 60.800237 
L 6.575296 60.571959 
L 6.294728 60.457366 
L 6.657554 60.228179 
L 6.42176 59.999902 
L 6.583731 59.542437 
L 6.467676 59.427844 
L 6.604716 59.313251 
L 6.517389 59.198657 
L 6.156646 59.084973 
L 6.803095 58.855786 
L 6.165835 58.741193 
L 6.242704 58.6266 
L 6.72449 58.512916 
L 6.277666 58.283729 
L 6.717235 58.169135 
L 6.616591 58.055451 
L 6.178049 57.940858 
L 6.708588 57.711671 
L 6.471818 57.3688 
L 6.494314 57.254207 
L 6.315955 57.02502 
L 6.630314 56.453872 
L 6.218843 56.224685 
L 6.457577 55.995498 
L 6.34003 55.881814 
L 6.614709 55.652628 
L 6.207818 55.423441 
L 6.551999 55.309757 
L 6.402327 54.965977 
L 6.576797 54.852293 
L 6.167731 54.623106 
L 6.625054 54.393919 
L 6.2305 54.280235 
L 6.820147 54.051048 
L 6.116831 53.821861 
L 6.676642 53.478991 
L 6.278772 53.13612 
L 6.67015 52.906933 
L 6.163589 52.79234 
L 6.360653 52.564062 
L 6.262479 52.449469 
L 6.549576 52.334875 
L 6.492837 52.220282 
L 6.574213 52.106598 
L 6.574213 52.106598 
" clip-path="url(#p647cc19ce6)" style="fill: none; stroke-dasharray: 3.7,1.6; stroke-dashoffset: 0; stroke: #811c35"/>
   </g>
   <g id="patch_8">
    <path d="M 0.72 88.027087 
L 0.72 51.649134 
" style="fill: none; stroke: #000000; stroke-width: 0.5; stroke-linejoin: miter; stroke-linecap: square"/>
   </g>
   <g id="patch_9">
    <path d="M 12.924724 88.027087 
L 12.924724 51.649134 
" style="fill: none; stroke: #000000; stroke-width: 0.5; stroke-linejoin: miter; stroke-linecap: square"/>
   </g>
   <g id="patch_10">
    <path d="M 0.72 88.027087 
L 12.924724 88.027087 
" style="fill: none; stroke: #000000; stroke-width: 0.5; stroke-linejoin: miter; stroke-linecap: square"/>
   </g>
   <g id="patch_11">
    <path d="M 0.72 51.649134 
L 12.924724 51.649134 
" style="fill: none; stroke: #000000; stroke-width: 0.5; stroke-linejoin: miter; stroke-linecap: square"/>
   </g>
  </g>
 </g>
 <defs>
  <clipPath id="pa71c31c799">
   <rect x="0.72" y="0.72" width="12.204724" height="36.377953"/>
  </clipPath>
  <clipPath id="p647cc19ce6">
   <rect x="0.72" y="51.649134" width="12.204724" height="36.377953"/>
  </clipPath>
 </defs>
</svg>
