<?xml version="1.0" encoding="utf-8" standalone="no"?>
<!DOCTYPE svg PUBLIC "-//W3C//DTD SVG 1.1//EN"
  "http://www.w3.org/Graphics/SVG/1.1/DTD/svg11.dtd">
<svg xmlns:xlink="http://www.w3.org/1999/xlink" width="17.644724pt" height="94.586149pt" viewBox="0 0 17.644724 94.586149" xmlns="http://www.w3.org/2000/svg" version="1.1">
 <metadata>
  <rdf:RDF xmlns:dc="http://purl.org/dc/elements/1.1/" xmlns:cc="http://creativecommons.org/ns#" xmlns:rdf="http://www.w3.org/1999/02/22-rdf-syntax-ns#">
   <cc:Work>
    <dc:type rdf:resource="http://purl.org/dc/dcmitype/StillImage"/>
    <dc:date>2025-01-13T14:57:24.193572</dc:date>
    <dc:format>image/svg+xml</dc:format>
    <dc:creator>
     <cc:Agent>
      <dc:title>Matplotlib v3.8.0, https://matplotlib.org/</dc:title>
     </cc:Agent>
    </dc:creator>
   </cc:Work>
  </rdf:RDF>
 </metadata>
 <defs>
  <style type="text/css">*{stroke-linejoin: round; stroke-linecap: butt}</style>
 </defs>
 <g id="figure_1">
  <g id="patch_1">
   <path d="M 0 94.586149 
L 17.644724 94.586149 
L 17.644724 0 
L 0 0 
L 0 94.586149 
z
" style="fill: none"/>
  </g>
  <g id="axes_1"/>
  <g id="axes_2">
   <g id="patch_2">
    <path d="M 4.72 88.027087 
L 16.924724 88.027087 
L 16.924724 70.565669 
L 4.72 70.565669 
L 4.72 88.027087 
z
" style="fill: none"/>
   </g>
   <g id="matplotlib.axis_1">
    <g id="text_1">
     <!-- $\ddot{x}$ -->
     <g transform="translate(9.697362 92.826305) scale(0.05 -0.05)">
      <defs>
       <path id="STIXGeneral-Regular-308" d="M -614 3885 
Q -518 3789 -518 3661 
Q -518 3533 -614 3440 
Q -710 3347 -845 3347 
Q -973 3347 -1062 3440 
Q -1152 3533 -1152 3667 
Q -1152 3795 -1059 3888 
Q -966 3981 -838 3981 
Q -710 3981 -614 3885 
z
M -1888 3885 
Q -1792 3789 -1792 3661 
Q -1792 3533 -1888 3440 
Q -1984 3347 -2118 3347 
Q -2246 3347 -2336 3440 
Q -2426 3533 -2426 3667 
Q -2426 3795 -2333 3888 
Q -2240 3981 -2112 3981 
Q -1984 3981 -1888 3885 
z
" transform="scale(0.015625)"/>
       <path id="STIXGeneral-Italic-78" d="M 1555 2272 
L 1632 1907 
Q 1971 2426 2179 2624 
Q 2387 2822 2598 2822 
Q 2714 2822 2787 2755 
Q 2861 2688 2861 2585 
Q 2861 2483 2800 2419 
Q 2739 2355 2643 2355 
Q 2586 2355 2490 2409 
Q 2394 2464 2310 2464 
Q 2125 2464 1683 1690 
Q 1683 1606 1734 1402 
L 1939 544 
Q 2003 282 2131 282 
Q 2234 282 2432 538 
Q 2451 563 2476 598 
Q 2502 634 2521 662 
Q 2541 691 2566 717 
L 2662 659 
Q 2387 230 2227 80 
Q 2067 -70 1882 -70 
Q 1728 -70 1645 26 
Q 1562 122 1504 365 
L 1318 1126 
L 755 365 
Q 557 96 432 13 
Q 307 -70 147 -70 
Q 0 -70 -86 0 
Q -173 70 -173 198 
Q -173 294 -112 361 
Q -51 429 45 429 
Q 122 429 250 358 
Q 346 301 416 301 
Q 525 301 742 614 
L 1267 1357 
L 1088 2150 
Q 1024 2432 969 2509 
Q 915 2586 794 2586 
Q 717 2586 544 2541 
L 429 2509 
L 410 2611 
L 480 2637 
Q 992 2822 1229 2822 
Q 1350 2822 1420 2707 
Q 1491 2592 1555 2272 
z
" transform="scale(0.015625)"/>
      </defs>
      <use xlink:href="#STIXGeneral-Regular-308" transform="translate(51.006248 4.796875)"/>
      <use xlink:href="#STIXGeneral-Italic-78" transform="translate(0 0.5)"/>
     </g>
    </g>
   </g>
   <g id="matplotlib.axis_2"/>
   <g id="line2d_1">
    <path d="M 5.158807 88.027087 
L 5.286132 87.852468 
L 5.764037 87.634195 
L 7.186473 87.284958 
L 11.089967 86.630138 
L 15.167027 85.88801 
L 16.270695 85.495118 
L 16.407643 85.276845 
L 16.252403 85.102226 
L 15.594531 84.840298 
L 13.819163 84.447407 
L 5.537537 82.832185 
L 5.300064 82.570257 
L 5.431161 82.395639 
L 6.049852 82.133711 
L 7.769425 81.740819 
L 16.01433 80.125598 
L 16.281742 79.86367 
L 16.17476 79.689051 
L 15.724937 79.470778 
L 14.368253 79.121541 
L 10.608646 78.466722 
L 6.485599 77.680938 
L 5.569416 77.331701 
L 5.425426 77.113428 
L 5.56506 76.938809 
L 6.184811 76.676882 
L 7.881141 76.28399 
L 15.916217 74.668768 
L 16.161665 74.406841 
L 16.046635 74.232222 
L 15.595144 74.013949 
L 14.254574 73.664712 
L 10.567389 73.009892 
L 6.711881 72.267763 
L 5.671824 71.874872 
L 5.543002 71.656599 
L 5.688836 71.48198 
L 6.307119 71.220052 
L 7.97905 70.827161 
L 15.821409 69.211939 
L 16.04878 68.950011 
L 15.92792 68.775393 
L 15.349081 68.513465 
L 13.731475 68.120573 
L 5.833112 66.461697 
L 5.649736 66.243424 
L 5.745722 66.068805 
L 6.163933 65.850532 
L 7.43683 65.501295 
L 10.739626 64.89013 
L 14.919214 64.060692 
L 15.797932 63.711455 
L 15.942552 63.493182 
L 15.817776 63.318563 
L 15.242542 63.056636 
L 13.649464 62.663744 
L 5.924511 61.004868 
L 5.75211 60.786595 
L 5.851754 60.611976 
L 6.267701 60.393703 
L 7.522314 60.044466 
L 11.014401 59.389646 
L 14.854728 58.603863 
L 15.706967 58.254626 
L 15.842472 58.036353 
L 15.71544 57.861734 
L 15.145561 57.599806 
L 13.577707 57.206915 
L 6.083063 55.591693 
L 5.848794 55.329765 
L 5.95051 55.155147 
L 6.362715 54.936874 
L 7.598069 54.587636 
L 11.027632 53.932817 
L 14.789953 53.147034 
L 15.619509 52.797796 
L 15.74806 52.579523 
L 15.620216 52.404905 
L 15.05719 52.142977 
L 13.515098 51.750085 
L 6.165888 50.134864 
L 5.940229 49.872936 
L 6.042631 49.698317 
L 6.566358 49.43639 
L 8.055836 49.043498 
L 15.473717 47.384622 
L 15.658864 47.122694 
L 15.531468 46.948075 
L 14.976587 46.686148 
L 13.460665 46.293256 
L 6.246085 44.678034 
L 6.026827 44.416107 
L 6.128702 44.241488 
L 6.644401 43.97956 
L 8.10828 43.586669 
L 15.394028 41.927792 
L 15.574462 41.665865 
L 15.44862 41.491246 
L 14.902999 41.229318 
L 13.413558 40.836427 
L 6.323794 39.221205 
L 6.108979 38.959277 
L 6.209259 38.784659 
L 6.715835 38.522731 
L 8.153762 38.129839 
L 15.376196 36.427308 
L 15.49446 36.209035 
L 15.371146 36.034417 
L 14.835752 35.772489 
L 13.373028 35.379597 
L 6.399158 33.764376 
L 6.187044 33.502448 
L 6.28479 33.327829 
L 6.78129 33.065902 
L 8.192985 32.67301 
L 15.300773 30.970479 
L 15.418493 30.752206 
L 15.298565 30.577587 
L 14.774242 30.31566 
L 13.33841 29.922768 
L 6.472329 28.307546 
L 6.261363 28.045619 
L 6.355742 27.871 
L 6.841332 27.609072 
L 8.226577 27.216181 
L 12.741924 26.299433 
L 14.718119 25.775578 
L 15.309994 25.42634 
L 15.311692 25.208067 
L 15.023006 24.989794 
L 14.173647 24.684212 
L 11.864583 24.160356 
L 7.143337 23.112645 
L 6.427658 22.763408 
L 6.337374 22.545135 
L 6.536654 22.326861 
L 7.137915 22.064934 
L 8.835996 21.628387 
L 14.861503 20.231439 
L 15.263608 19.925857 
L 15.211308 19.707583 
L 14.875417 19.48931 
L 13.815333 19.140073 
L 10.9914 18.528908 
L 7.339731 17.69947 
L 6.497147 17.306578 
L 6.404207 17.088305 
L 6.596183 16.870032 
L 7.183359 16.608104 
L 8.849831 16.171558 
L 14.794279 14.77461 
L 15.196186 14.469027 
L 15.149302 14.250754 
L 14.823134 14.032481 
L 13.785425 13.683244 
L 11.224481 13.115734 
L 7.402143 12.242641 
L 6.564484 11.849749 
L 6.468013 11.631476 
L 6.652027 11.413203 
L 7.224679 11.151275 
L 8.859687 10.714729 
L 14.728252 9.31778 
L 15.131264 9.012198 
L 15.090527 8.793925 
L 14.774581 8.575652 
L 13.759499 8.226414 
L 11.240899 7.658904 
L 7.464276 6.785811 
L 6.629845 6.39292 
L 6.52906 6.174647 
L 6.704525 5.956373 
L 7.262267 5.694446 
L 8.865952 5.257899 
L 14.75201 3.817296 
L 15.083868 3.511714 
L 14.994951 3.293441 
L 14.535451 3.031513 
L 13.235452 2.638621 
L 8.818657 1.678219 
L 7.061373 1.154364 
L 6.618609 0.848781 
L 6.621615 0.630508 
L 6.895073 0.412235 
L 7.692464 0.106652 
L 9.856564 -0.417203 
L 12.584979 -1 
L 12.584979 -1 
" clip-path="url(#pbe1e9efe0e)" style="fill: none; stroke: #87b26c; stroke-width: 0.4; stroke-linecap: square"/>
   </g>
   <g id="patch_3">
    <path d="M 4.72 88.027087 
L 4.72 70.565669 
" style="fill: none; stroke: #000000; stroke-width: 0.5; stroke-linejoin: miter; stroke-linecap: square"/>
   </g>
   <g id="patch_4">
    <path d="M 16.924724 88.027087 
L 16.924724 70.565669 
" style="fill: none; stroke: #000000; stroke-width: 0.5; stroke-linejoin: miter; stroke-linecap: square"/>
   </g>
   <g id="patch_5">
    <path d="M 4.72 88.027087 
L 16.924724 88.027087 
" style="fill: none; stroke: #000000; stroke-width: 0.5; stroke-linejoin: miter; stroke-linecap: square"/>
   </g>
   <g id="patch_6">
    <path d="M 4.72 70.565669 
L 16.924724 70.565669 
" style="fill: none; stroke: #ffffff; stroke-width: 0.5; stroke-linejoin: miter; stroke-linecap: square"/>
   </g>
  </g>
  <g id="axes_3">
   <g id="patch_7">
    <path d="M 4.72 18.181417 
L 16.924724 18.181417 
L 16.924724 0.72 
L 4.72 0.72 
L 4.72 18.181417 
z
" style="fill: none"/>
   </g>
   <g id="matplotlib.axis_3"/>
   <g id="matplotlib.axis_4"/>
   <g id="line2d_2">
    <path d="M 10.025815 95.586149 
L 12.624858 94.250055 
L 12.822197 93.900818 
L 12.733982 93.595235 
L 12.349286 93.245998 
L 11.350427 92.722143 
L 9.160215 91.630777 
L 8.842202 91.237885 
L 8.868431 90.932303 
L 9.133412 90.62672 
L 9.854706 90.190174 
L 12.712622 88.662262 
L 12.817942 88.356679 
L 12.679502 88.051097 
L 12.246083 87.70186 
L 11.108929 87.134349 
L 9.195759 86.173947 
L 8.856382 85.781056 
L 8.863679 85.475473 
L 9.110311 85.169891 
L 9.810932 84.733344 
L 12.721139 83.161778 
L 12.810246 82.856195 
L 12.656513 82.550613 
L 12.136023 82.157721 
L 10.765592 81.502901 
L 9.232291 80.717118 
L 8.871904 80.324226 
L 8.860358 80.018644 
L 9.088547 79.713061 
L 9.685148 79.32017 
L 11.575766 78.447077 
L 12.532673 77.879567 
L 12.789548 77.53033 
L 12.758289 77.224747 
L 12.490512 76.919165 
L 11.769692 76.482618 
L 8.975184 74.998361 
L 8.842248 74.649124 
L 8.984718 74.343541 
L 9.419764 73.994304 
L 10.552508 73.426794 
L 12.445213 72.466392 
L 12.77593 72.0735 
L 12.763534 71.767918 
L 12.513972 71.462335 
L 11.813568 71.025789 
L 8.933487 69.454222 
L 8.850128 69.14864 
L 9.007677 68.843057 
L 9.529498 68.450166 
L 10.893176 67.795346 
L 12.409218 67.009563 
L 12.760965 66.616671 
L 12.767347 66.311089 
L 12.536101 66.005506 
L 11.856533 65.56896 
L 8.926386 63.953738 
L 8.858978 63.648156 
L 9.031411 63.342573 
L 9.56779 62.949682 
L 10.937844 62.294862 
L 12.430834 61.509079 
L 12.763003 61.116187 
L 12.753589 60.810605 
L 12.508245 60.505022 
L 11.81491 60.068476 
L 8.947132 58.496909 
L 8.861371 58.191327 
L 9.01512 57.885744 
L 9.530797 57.492852 
L 10.884384 56.838033 
L 12.39486 56.052249 
L 12.747951 55.659358 
L 12.757242 55.353775 
L 12.530159 55.048193 
L 11.857635 54.611647 
L 8.939854 52.996425 
L 8.8699 52.690843 
L 9.038427 52.38526 
L 9.568609 51.992368 
L 10.928692 51.337549 
L 12.416494 50.551765 
L 12.750216 50.158874 
L 12.743844 49.853291 
L 12.502751 49.547709 
L 11.816485 49.111163 
L 8.960666 47.539596 
L 8.872437 47.234013 
L 9.022342 46.928431 
L 9.531858 46.535539 
L 10.875428 45.88072 
L 12.380535 45.094936 
L 12.73507 44.702044 
L 12.747329 44.396462 
L 12.524445 44.09088 
L 11.858965 43.654333 
L 8.95321 42.039112 
L 8.880646 41.733529 
L 9.045227 41.427947 
L 9.569197 41.035055 
L 10.919385 40.380236 
L 12.402193 39.594452 
L 12.737563 39.20156 
L 12.734289 38.895978 
L 12.497479 38.590396 
L 11.818281 38.153849 
L 8.974096 36.582282 
L 8.883335 36.2767 
L 9.029354 35.971117 
L 9.532695 35.578226 
L 10.769536 34.967061 
L 12.366241 34.137623 
L 12.722314 33.744731 
L 12.737596 33.439149 
L 12.518945 33.133566 
L 11.941064 32.740675 
L 10.098318 31.867582 
L 9.160191 31.300072 
L 8.89449 30.90718 
L 8.954717 30.601597 
L 9.301022 30.25236 
L 10.15151 29.772159 
L 12.493278 28.54983 
L 12.739553 28.200593 
L 12.705559 27.89501 
L 12.386684 27.545773 
L 11.561797 27.065572 
L 9.097492 25.755933 
L 8.896703 25.406696 
L 8.972014 25.101113 
L 9.332827 24.751876 
L 10.286424 24.228021 
L 12.461396 23.093 
L 12.739069 22.700109 
L 12.689902 22.394526 
L 12.356163 22.045289 
L 11.519253 21.565088 
L 9.126673 20.299104 
L 8.906263 19.949867 
L 8.962968 19.644284 
L 9.304033 19.295047 
L 10.146762 18.814846 
L 12.525822 17.548862 
L 12.737613 17.199625 
L 12.673403 16.894042 
L 12.325082 16.544805 
L 11.476663 16.064604 
L 9.156972 14.842274 
L 8.9172 14.493037 
L 8.955345 14.187455 
L 9.276492 13.838218 
L 10.09969 13.358017 
L 12.540636 12.048378 
L 12.735193 11.699141 
L 12.656081 11.393558 
L 12.293461 11.044321 
L 11.342629 10.520465 
L 9.188365 9.385445 
L 8.917907 8.992553 
L 8.971047 8.686971 
L 9.306848 8.337734 
L 10.141835 7.857533 
L 12.511945 6.591548 
L 12.726104 6.242311 
L 12.665515 5.936729 
L 12.32249 5.587492 
L 11.4818 5.107291 
L 9.170948 3.884961 
L 8.919572 3.492069 
L 8.987577 3.186487 
L 9.337754 2.83725 
L 10.184022 2.357049 
L 12.482129 1.134719 
L 12.715634 0.785482 
L 12.673528 0.4799 
L 12.350273 0.130662 
L 11.528857 -0.349539 
L 10.145013 -1 
L 10.145013 -1 
" clip-path="url(#p9274128739)" style="fill: none; stroke: #87b26c; stroke-width: 0.4; stroke-linecap: square"/>
   </g>
   <g id="patch_8">
    <path d="M 4.72 18.181417 
L 4.72 0.72 
" style="fill: none; stroke: #000000; stroke-width: 0.5; stroke-linejoin: miter; stroke-linecap: square"/>
   </g>
   <g id="patch_9">
    <path d="M 16.924724 18.181417 
L 16.924724 0.72 
" style="fill: none; stroke: #000000; stroke-width: 0.5; stroke-linejoin: miter; stroke-linecap: square"/>
   </g>
   <g id="patch_10">
    <path d="M 4.72 18.181417 
L 16.924724 18.181417 
" style="fill: none; stroke: #ffffff; stroke-width: 0.5; stroke-linejoin: miter; stroke-linecap: square"/>
   </g>
   <g id="patch_11">
    <path d="M 4.72 0.72 
L 16.924724 0.72 
" style="fill: none; stroke: #000000; stroke-width: 0.5; stroke-linejoin: miter; stroke-linecap: square"/>
   </g>
  </g>
  <g id="axes_4">
   <g id="patch_12">
    <path d="M 4.72 70.565669 
L 16.924724 70.565669 
L 16.924724 18.181417 
L 4.72 18.181417 
L 4.72 70.565669 
z
" style="fill: none"/>
   </g>
   <g id="matplotlib.axis_5"/>
   <g id="matplotlib.axis_6"/>
   <g id="line2d_3">
    <path d="M 5.158807 71.100202 
L 5.900753 71.073475 
L 16.409561 70.934493 
L 11.755272 70.859657 
L 5.300064 70.766111 
L 8.004571 70.712656 
L 16.281742 70.600401 
L 13.465547 70.544274 
L 5.425426 70.432019 
L 8.112186 70.378565 
L 16.161665 70.26631 
L 13.367141 70.210182 
L 5.541207 70.1006 
L 8.206056 70.044473 
L 16.04878 69.932218 
L 13.281607 69.876091 
L 5.649736 69.766509 
L 8.287777 69.710381 
L 15.942552 69.598127 
L 13.207464 69.541999 
L 5.75211 69.432417 
L 8.358726 69.37629 
L 15.842472 69.264035 
L 13.363533 69.21058 
L 5.848794 69.098326 
L 8.420094 69.042198 
L 15.74806 68.929943 
L 13.304647 68.876489 
L 5.940229 68.764234 
L 8.472919 68.708107 
L 15.659212 68.598525 
L 13.253875 68.542397 
L 6.026827 68.430142 
L 8.518105 68.374015 
L 15.575017 68.264433 
L 13.210369 68.208306 
L 6.108979 68.096051 
L 8.556449 68.039923 
L 15.494946 67.930341 
L 13.173379 67.874214 
L 6.187044 67.761959 
L 8.588652 67.705832 
L 15.418663 67.59625 
L 13.142244 67.540122 
L 6.261363 67.427868 
L 8.615334 67.37174 
L 15.346221 67.259486 
L 13.116379 67.206031 
L 6.332249 67.093776 
L 8.637046 67.037649 
L 15.277328 66.925394 
L 12.900517 66.869267 
L 6.399995 66.759685 
L 8.65428 66.703557 
L 15.211523 66.591302 
L 12.887038 66.535175 
L 6.464872 66.425593 
L 8.667474 66.369466 
L 15.148535 66.257211 
L 12.877367 66.201083 
L 6.527133 66.091501 
L 8.677022 66.035374 
L 15.088112 65.923119 
L 12.871135 65.866992 
L 6.587012 65.75741 
L 8.68328 65.701282 
L 15.030021 65.589028 
L 12.868006 65.5329 
L 6.643856 65.420645 
L 8.869077 65.364518 
L 14.974047 65.254936 
L 12.867677 65.198809 
L 6.69805 65.086554 
L 8.866539 65.030426 
L 14.919987 64.920844 
L 12.869875 64.864717 
L 6.750378 64.752462 
L 8.861622 64.696335 
L 14.867657 64.586753 
L 12.874349 64.530625 
L 6.801025 64.418371 
L 8.854562 64.362243 
L 14.818449 64.249988 
L 12.706808 64.193861 
L 6.850161 64.084279 
L 8.845574 64.028152 
L 14.770979 63.915897 
L 12.718186 63.859769 
L 6.897946 63.750187 
L 8.834857 63.69406 
L 14.724815 63.581805 
L 12.731188 63.525678 
L 6.943061 63.413423 
L 8.991515 63.357296 
L 14.679813 63.247714 
L 12.745641 63.191586 
L 6.986464 63.079332 
L 8.974937 63.023204 
L 14.635836 62.913622 
L 12.761387 62.857495 
L 7.028884 62.74524 
L 8.957151 62.689113 
L 14.594741 62.576858 
L 12.614348 62.52073 
L 7.070445 62.411148 
L 8.938297 62.355021 
L 14.554714 62.242766 
L 12.63511 62.186639 
L 7.110624 62.074384 
L 9.080389 62.018257 
L 14.515392 61.908675 
L 12.656742 61.852547 
L 7.148436 61.740292 
L 9.056967 61.684165 
L 14.476669 61.574583 
L 12.679131 61.518456 
L 7.185687 61.406201 
L 9.032849 61.350073 
L 14.440419 61.237819 
L 12.545074 61.181691 
L 7.222475 61.072109 
L 9.008138 61.015982 
L 14.405079 60.903727 
L 12.571416 60.8476 
L 7.25776 60.735345 
L 9.138061 60.679218 
L 14.370079 60.569635 
L 12.598207 60.513508 
L 7.291337 60.401253 
L 9.10973 60.345126 
L 14.335791 60.232871 
L 12.472169 60.176744 
L 7.324692 60.067162 
L 9.081077 60.011034 
L 14.303834 59.89878 
L 12.50228 59.842652 
L 7.3579 59.73307 
L 9.052181 59.676943 
L 14.271993 59.564688 
L 12.532598 59.508561 
L 7.388426 59.396306 
L 9.171753 59.340178 
L 14.240198 59.230596 
L 12.563053 59.174469 
L 7.418878 59.062214 
L 9.139945 59.006087 
L 14.210664 58.893832 
L 12.446799 58.837705 
L 7.449378 58.728123 
L 9.108097 58.671995 
L 14.181483 58.55974 
L 12.479936 58.503613 
L 7.477907 58.391358 
L 9.221211 58.335231 
L 14.152169 58.225649 
L 12.513026 58.169522 
L 7.505925 58.057267 
L 9.186889 58.001139 
L 14.124652 57.888885 
L 12.402892 57.832757 
L 7.534159 57.723175 
L 9.152692 57.667048 
L 14.097693 57.554793 
L 12.438268 57.498666 
L 7.560657 57.386411 
L 9.259995 57.330283 
L 14.070442 57.220701 
L 12.473447 57.164574 
L 7.586654 57.052319 
L 9.223684 56.996192 
L 14.044967 56.883937 
L 12.368838 56.82781 
L 7.613013 56.718228 
L 9.187635 56.6621 
L 14.019839 56.549845 
L 12.405975 56.493718 
L 7.637467 56.381463 
L 9.289676 56.325336 
L 13.994287 56.215754 
L 12.442792 56.159626 
L 7.66181 56.047372 
L 9.251812 55.991244 
L 13.970852 55.87899 
L 12.343202 55.822862 
L 7.686611 55.710607 
L 9.214323 55.657153 
L 13.947214 55.544898 
L 12.381702 55.488771 
L 7.709056 55.376516 
L 9.311569 55.320388 
L 13.923464 55.208134 
L 12.284769 55.152006 
L 7.732064 55.042424 
L 9.272515 54.986297 
L 13.901629 54.874042 
L 12.324777 54.817915 
L 7.75477 54.70566 
L 9.367236 54.649532 
L 13.879178 54.53995 
L 12.364307 54.483823 
L 7.776066 54.371568 
L 9.326781 54.315441 
L 13.85751 54.203186 
L 12.271709 54.147059 
L 7.798025 54.037477 
L 9.286845 53.981349 
L 13.836686 53.869095 
L 12.312542 53.812967 
L 7.818665 53.700712 
L 9.377405 53.644585 
L 13.815156 53.535003 
L 12.35282 53.478876 
L 7.839078 53.366621 
L 9.336256 53.310493 
L 13.795536 53.198239 
L 12.26422 53.142111 
L 7.859888 53.029856 
L 9.424644 52.973729 
L 13.775475 52.864147 
L 12.305627 52.80802 
L 7.878848 52.695765 
L 9.382409 52.639637 
L 13.755701 52.527383 
L 12.2191 52.471255 
L 7.898611 52.361673 
L 9.340798 52.305546 
L 13.737021 52.193291 
L 12.261519 52.137164 
L 7.917362 52.024909 
L 9.425529 51.968782 
L 13.717503 51.8592 
L 12.303283 51.803072 
L 7.935812 51.690817 
L 9.382976 51.63469 
L 13.699766 51.522435 
L 12.220287 51.466308 
L 7.95465 51.354053 
L 9.46582 51.297926 
L 13.681498 51.188344 
L 12.26293 51.132216 
L 7.971867 51.019961 
L 9.422423 50.963834 
L 13.663681 50.851579 
L 12.18174 50.795452 
L 7.99 50.68587 
L 9.379733 50.629742 
L 13.646585 50.517488 
L 12.225169 50.46136 
L 8.006806 50.349106 
L 9.45932 50.292978 
L 13.628734 50.180723 
L 12.145703 50.124596 
L 8.023824 50.015014 
L 9.415897 49.958887 
L 13.612738 49.846632 
L 12.189833 49.790504 
L 8.040659 49.67825 
L 9.493832 49.622122 
L 13.595759 49.51254 
L 12.233215 49.456413 
L 8.056631 49.344158 
L 9.449755 49.288031 
L 13.579927 49.175776 
L 12.156768 49.119648 
L 8.073458 49.007394 
L 9.526109 48.951266 
L 13.563942 48.841684 
L 12.200758 48.785557 
L 8.088449 48.673302 
L 9.48145 48.617175 
L 13.548121 48.50492 
L 12.12583 48.448793 
L 8.104481 48.339211 
L 9.437576 48.283083 
L 13.533069 48.170828 
L 12.170363 48.114701 
L 8.119309 48.002446 
L 9.511117 47.946319 
L 13.517289 47.834064 
L 12.096889 47.777937 
L 8.134454 47.668355 
L 9.466739 47.612227 
L 13.503111 47.499972 
L 12.141902 47.443845 
L 8.149239 47.33159 
L 9.538879 47.275463 
L 13.487841 47.165881 
L 12.186098 47.109753 
L 8.163555 46.997499 
L 9.494056 46.941371 
L 13.474039 46.829117 
L 12.115259 46.772989 
L 8.17827 46.660734 
L 9.564851 46.604607 
L 13.459558 46.495025 
L 12.159868 46.438898 
L 8.191809 46.326643 
L 9.519635 46.270515 
L 13.445824 46.158261 
L 12.090327 46.102133 
L 8.206432 45.989878 
L 9.589139 45.933751 
L 13.432082 45.824169 
L 12.135299 45.768042 
L 8.219246 45.655787 
L 9.54358 45.599659 
L 13.418439 45.487405 
L 12.067004 45.431277 
L 8.233218 45.321695 
L 9.498871 45.265568 
L 13.405385 45.153313 
L 12.112294 45.097186 
L 8.245893 44.984931 
L 9.565984 44.928804 
L 13.391854 44.816549 
L 12.045198 44.760421 
L 8.25921 44.650839 
L 9.520983 44.594712 
L 13.379442 44.482457 
L 12.090763 44.42633 
L 8.271775 44.314075 
L 9.586936 44.257948 
L 13.366041 44.145693 
L 12.024822 44.089565 
L 8.284483 43.979983 
L 9.541684 43.923856 
L 13.354228 43.811601 
L 12.070623 43.755474 
L 8.296921 43.643219 
L 9.606519 43.587092 
L 13.341204 43.47751 
L 12.115545 43.421382 
L 8.309061 43.309127 
L 9.561051 43.253 
L 13.329716 43.140745 
L 12.051796 43.084618 
L 8.321356 42.972363 
L 9.624808 42.916236 
L 13.317231 42.806654 
L 12.096913 42.750526 
L 8.332969 42.638272 
L 9.579159 42.582144 
L 13.305883 42.469889 
L 12.034209 42.413762 
L 8.345107 42.301507 
L 9.641875 42.24538 
L 13.293897 42.135798 
L 12.07949 42.07967 
L 8.35623 41.967416 
L 9.596076 41.911288 
L 13.282703 41.799034 
L 12.017796 41.742906 
L 8.368197 41.630651 
L 9.657787 41.574524 
L 13.27118 41.464942 
L 12.063209 41.408815 
L 8.378868 41.29656 
L 9.611868 41.240432 
L 13.260152 41.128178 
L 12.002491 41.07205 
L 8.390653 40.959795 
L 9.672606 40.903668 
L 13.249058 40.794086 
L 12.048009 40.737959 
L 8.400905 40.625704 
L 9.626595 40.569576 
L 13.238208 40.457322 
L 11.988236 40.401194 
L 8.412498 40.28894 
L 9.686392 40.232812 
L 13.227509 40.12323 
L 12.033834 40.067103 
L 8.422364 39.954848 
L 9.640312 39.898721 
L 13.216846 39.786466 
L 11.974975 39.730338 
L 8.433523 39.620756 
L 9.595142 39.564629 
L 13.206511 39.452374 
L 12.020628 39.396247 
L 8.443267 39.283992 
L 9.653074 39.227865 
L 13.196045 39.11561 
L 11.962655 39.059482 
L 8.454083 38.9499 
L 9.60786 38.893773 
L 13.186044 38.781518 
L 12.008342 38.725391 
L 8.463635 38.613136 
L 9.664929 38.557009 
L 13.175784 38.444754 
L 11.951228 38.388627 
L 8.474137 38.279044 
L 9.619694 38.222917 
L 13.166087 38.110662 
L 11.996927 38.054535 
L 8.483488 37.94228 
L 9.675926 37.886153 
L 13.15604 37.773898 
L 11.940648 37.717771 
L 8.493703 37.608189 
L 9.630689 37.552061 
L 13.146622 37.439806 
L 11.98634 37.383679 
L 8.502846 37.271424 
L 9.686107 37.215297 
L 13.136795 37.103042 
L 11.93087 37.046915 
L 8.512801 36.937333 
L 9.640887 36.881205 
L 13.127628 36.76895 
L 11.976538 36.712823 
L 8.521729 36.600568 
L 9.695516 36.544441 
L 13.118027 36.432186 
L 11.921855 36.376059 
L 8.53145 36.266477 
L 9.650329 36.210349 
L 13.109087 36.098095 
L 11.967481 36.041967 
L 8.540157 35.929712 
L 9.704189 35.873585 
L 13.099719 35.76133 
L 11.913563 35.705203 
L 8.549665 35.595621 
L 9.659052 35.539493 
L 13.090983 35.427239 
L 11.959133 35.371111 
L 8.558145 35.258856 
L 9.712164 35.202729 
L 13.081852 35.090474 
L 11.905959 35.034347 
L 8.567465 34.924765 
L 9.667092 34.868638 
L 13.073296 34.756383 
L 11.951457 34.700255 
L 8.575713 34.588001 
L 9.719477 34.531873 
L 13.064407 34.419618 
L 11.899007 34.363491 
L 8.584866 34.253909 
L 9.674484 34.197782 
L 13.056011 34.085527 
L 11.94442 34.029399 
L 8.592878 33.917145 
L 9.72616 33.861017 
L 13.047368 33.748763 
L 11.892677 33.692635 
L 8.601885 33.583053 
L 9.681259 33.526926 
L 13.03911 33.414671 
L 11.937992 33.358544 
L 8.609656 33.246289 
L 9.732244 33.190161 
L 13.030718 33.077907 
L 11.886936 33.021779 
L 8.618536 32.912197 
L 9.783363 32.853397 
L 13.022579 32.743815 
L 11.932141 32.687688 
L 8.626062 32.575433 
L 9.737758 32.519305 
L 13.01444 32.407051 
L 11.881757 32.350923 
L 8.634808 32.238669 
L 9.788209 32.182541 
L 13.006401 32.072959 
L 11.92684 32.016832 
L 8.642114 31.904577 
L 9.74273 31.84845 
L 12.99852 31.736195 
L 11.877111 31.680067 
L 8.650593 31.567813 
L 9.79253 31.511685 
L 12.990563 31.402103 
L 11.922063 31.345976 
L 8.657824 31.233721 
L 9.747188 31.177594 
L 12.982941 31.065339 
L 11.872973 31.009211 
L 8.666036 30.896957 
L 9.796351 30.840829 
L 12.975049 30.731247 
L 11.917783 30.67512 
L 8.673209 30.562865 
L 9.751154 30.506738 
L 12.96769 30.394483 
L 11.869318 30.338356 
L 8.681151 30.226101 
L 9.799696 30.169973 
L 12.959847 30.060391 
L 11.913976 30.004264 
L 8.688281 29.892009 
L 9.754654 29.835882 
L 12.952752 29.723627 
L 11.866122 29.6675 
L 8.695951 29.555245 
L 9.802588 29.499117 
L 12.944942 29.389535 
L 11.910621 29.333408 
L 8.703054 29.221153 
L 9.757711 29.165026 
L 12.938113 29.052771 
L 11.863364 28.996644 
L 8.710451 28.884389 
L 9.805049 28.828262 
L 12.930321 28.718679 
L 11.81595 28.659879 
L 8.717542 28.550297 
L 9.760344 28.49417 
L 12.923762 28.381915 
L 11.861023 28.325788 
L 8.724663 28.213533 
L 9.8071 28.157406 
L 12.916085 28.045151 
L 11.814187 27.989023 
L 8.731757 27.879441 
L 9.762574 27.823314 
L 12.909684 27.711059 
L 11.859078 27.654932 
L 8.7386 27.542677 
L 9.808761 27.48655 
L 12.90229 27.374295 
L 11.812809 27.318168 
L 8.74571 27.208585 
L 9.764422 27.152458 
L 12.895868 27.040203 
L 11.85751 26.984076 
L 8.752276 26.871821 
L 9.81005 26.815694 
L 12.888759 26.703439 
L 11.811797 26.647312 
L 8.759415 26.53773 
L 9.765905 26.481602 
L 12.882301 26.369347 
L 11.856301 26.31322 
L 8.765701 26.200965 
L 9.810986 26.144838 
L 12.875478 26.032583 
L 11.811133 25.976456 
L 8.772881 25.866874 
L 9.856236 25.808074 
L 12.868973 25.698492 
L 11.855435 25.642364 
L 8.778888 25.530109 
L 9.811585 25.473982 
L 12.862436 25.361727 
L 11.8108 25.3056 
L 8.785952 25.193345 
L 9.856304 25.137218 
L 12.855873 25.027636 
L 11.854892 24.971508 
L 8.791847 24.859253 
L 9.811864 24.803126 
L 12.849622 24.690871 
L 11.810783 24.634744 
L 8.798619 24.522489 
L 9.856062 24.466362 
L 12.842988 24.35678 
L 11.85466 24.300652 
L 8.804588 24.188398 
L 9.811839 24.13227 
L 12.837025 24.020015 
L 11.811065 23.963888 
L 8.811068 23.851633 
L 9.855524 23.795506 
L 12.830311 23.685924 
L 11.854722 23.629796 
L 8.817123 23.517542 
L 9.811523 23.461414 
L 12.824635 23.349159 
L 11.811632 23.293032 
L 8.82331 23.180777 
L 9.854706 23.12465 
L 12.817942 23.012395 
L 11.768362 22.956268 
L 8.829462 22.846686 
L 9.810932 22.790558 
L 12.812442 22.678304 
L 11.812471 22.622176 
L 8.835355 22.509921 
L 9.853621 22.453794 
L 12.806047 22.341539 
L 11.769692 22.285412 
L 8.841614 22.17583 
L 9.810079 22.119702 
L 12.800435 22.007448 
L 11.813568 21.95132 
L 8.847214 21.839065 
L 9.852282 21.782938 
L 12.794339 21.670683 
L 11.771272 21.614556 
L 8.853588 21.504974 
L 9.894665 21.446174 
L 12.788607 21.336592 
L 11.81491 21.280464 
L 8.858895 21.16821 
L 9.850701 21.112082 
L 12.782808 20.999827 
L 11.773089 20.9437 
L 8.865182 20.831445 
L 9.892613 20.775318 
L 12.776947 20.665736 
L 11.816485 20.609608 
L 8.870407 20.497354 
L 9.848892 20.441226 
L 12.771446 20.328971 
L 11.775132 20.272844 
L 8.876392 20.160589 
L 9.890338 20.104462 
L 12.765446 19.99488 
L 11.818281 19.938752 
L 8.881759 19.826498 
L 9.846865 19.77037 
L 12.760243 19.658116 
L 11.777389 19.601988 
L 8.887443 19.489733 
L 9.887854 19.433606 
L 12.754083 19.321351 
L 11.736309 19.265224 
L 8.892961 19.155642 
L 9.844631 19.099514 
L 12.749191 18.98726 
L 11.779848 18.931132 
L 8.898342 18.818877 
L 9.885169 18.76275 
L 12.743338 18.650495 
L 11.739217 18.594368 
L 8.904019 18.484786 
L 9.842202 18.428658 
L 12.738282 18.316404 
L 11.782501 18.260276 
L 8.9091 18.148022 
L 9.882295 18.091894 
L 12.732734 17.979639 
L 11.742311 17.923512 
L 8.914942 17.81393 
L 9.922577 17.75513 
L 12.727508 17.645548 
L 11.785335 17.58942 
L 8.919722 17.477166 
L 9.879242 17.421038 
L 12.722265 17.308783 
L 11.745581 17.252656 
L 8.925427 17.140401 
L 9.919091 17.084274 
L 12.716862 16.974692 
L 11.788343 16.918564 
L 8.930218 16.80631 
L 9.876019 16.750182 
L 12.711922 16.637928 
L 11.749018 16.5818 
L 8.935615 16.469545 
L 9.915441 16.413418 
L 12.706335 16.303836 
L 11.791514 16.247709 
L 8.940594 16.135454 
L 9.872635 16.079326 
L 12.701698 15.967072 
L 11.752613 15.910944 
L 8.945684 15.798689 
L 9.911636 15.742562 
L 12.696158 15.630307 
L 11.713518 15.57418 
L 8.950858 15.464598 
L 9.869099 15.40847 
L 12.691587 15.296216 
L 11.756358 15.240088 
L 8.955642 15.127834 
L 9.907684 15.071706 
L 12.686356 14.959451 
L 11.717675 14.903324 
L 8.961016 14.793742 
L 9.86542 14.737615 
L 12.68158 14.62536 
L 11.760243 14.569232 
L 8.965495 14.456978 
L 9.903595 14.40085 
L 12.676658 14.288595 
L 11.721968 14.232468 
L 8.970858 14.120213 
L 9.941965 14.064086 
L 12.671671 13.954504 
L 11.764261 13.898376 
L 8.97525 13.786122 
L 9.899374 13.729994 
L 12.667058 13.61774 
L 11.726389 13.561612 
L 8.980301 13.449357 
L 9.937344 13.39323 
L 12.661855 13.283648 
L 11.768404 13.227521 
L 8.984914 13.115266 
L 9.895031 13.059138 
L 12.657548 12.946884 
L 11.730931 12.890756 
L 8.989655 12.778501 
L 9.932606 12.722374 
L 12.652376 12.610119 
L 11.69326 12.553992 
L 8.994493 12.44441 
L 9.890572 12.388282 
L 12.648123 12.276028 
L 11.735586 12.2199 
L 8.998924 12.107646 
L 9.927756 12.051518 
L 12.643263 11.939263 
L 11.698303 11.883136 
L 9.003993 11.773554 
L 9.965133 11.714754 
L 12.638776 11.605172 
L 11.740346 11.549044 
L 9.008116 11.43679 
L 9.922802 11.380662 
L 12.634228 11.268407 
L 11.703448 11.21228 
L 9.013087 11.100025 
L 9.959798 11.043898 
L 12.629502 10.934316 
L 11.745207 10.878188 
L 9.017236 10.765934 
L 9.917751 10.709806 
L 12.625264 10.597552 
L 11.708689 10.541424 
L 9.021894 10.429169 
L 9.954369 10.373042 
L 12.620295 10.26346 
L 11.671976 10.20466 
L 9.026289 10.095078 
L 9.912609 10.03895 
L 12.616366 9.926696 
L 11.714019 9.870568 
L 9.030635 9.758313 
L 9.948853 9.702186 
L 12.611606 9.589931 
L 11.677677 9.533804 
L 9.035282 9.424222 
L 9.907382 9.368094 
L 12.607529 9.25584 
L 11.719431 9.199712 
L 9.039316 9.087458 
L 9.943256 9.03133 
L 12.603082 8.919075 
L 11.683457 8.862948 
L 9.044172 8.750693 
L 9.979327 8.694566 
L 12.598746 8.584984 
L 11.724921 8.528856 
L 9.047943 8.416602 
L 9.937583 8.360474 
L 12.594612 8.248219 
L 11.689311 8.192092 
L 9.052484 8.079837 
L 9.973293 8.02371 
L 12.590013 7.914128 
L 11.730482 7.858 
L 9.056521 7.745746 
L 9.931841 7.689618 
L 12.586191 7.577364 
L 11.695232 7.521236 
L 9.060748 7.408981 
L 9.967193 7.352854 
L 12.581562 7.240599 
L 11.659783 7.184472 
L 9.065055 7.07489 
L 9.926035 7.018762 
L 12.577812 6.906508 
L 11.701217 6.85038 
L 9.068969 6.738125 
L 9.961032 6.681998 
L 12.573499 6.569743 
L 11.66612 6.513616 
L 9.07355 6.404034 
L 9.996224 6.345234 
L 12.569473 6.235652 
L 11.707258 6.179524 
L 9.077152 6.06727 
L 9.954814 6.011142 
L 12.565474 5.898887 
L 11.672511 5.84276 
L 9.081546 5.730505 
L 9.98966 5.674378 
L 12.561168 5.564796 
L 11.713352 5.508668 
L 9.085301 5.396414 
L 9.948547 5.340286 
L 12.557482 5.228031 
L 11.678952 5.171904 
L 9.08938 5.059649 
L 9.983048 5.003522 
L 12.553012 4.891267 
L 11.644353 4.83514 
L 9.093422 4.725558 
L 9.942233 4.66943 
L 12.549517 4.557176 
L 11.685437 4.501048 
L 9.097187 4.388793 
L 9.976393 4.332666 
L 12.545364 4.220411 
L 11.651177 4.164284 
L 9.101518 4.054702 
L 10.010749 3.995902 
L 12.541577 3.88632 
L 11.691962 3.830192 
L 9.10497 3.717937 
L 9.969699 3.66181 
L 12.537739 3.549555 
L 11.658039 3.493428 
L 9.109192 3.381173 
L 10.003721 3.325046 
L 12.533656 3.215464 
L 11.698523 3.159336 
L 9.112735 3.047082 
L 9.96297 2.990954 
L 12.530132 2.878699 
L 11.664934 2.822572 
L 9.116641 2.710317 
L 9.996661 2.65419 
L 12.525845 2.541935 
L 11.631146 2.485808 
L 9.120484 2.376226 
L 9.956212 2.320098 
L 12.522539 2.207843 
L 11.671858 2.151716 
L 9.124076 2.039461 
L 9.989573 1.983334 
L 12.518569 1.871079 
L 11.638397 1.814952 
L 9.128223 1.70537 
L 10.02313 1.64657 
L 12.514956 1.536988 
L 11.678806 1.48086 
L 9.131501 1.368605 
L 9.982461 1.312478 
L 12.511302 1.200223 
L 11.64567 1.144096 
L 9.13553 1.031841 
L 10.015697 0.975714 
L 12.50738 0.866132 
L 11.685775 0.810004 
L 9.138921 0.697749 
L 9.97533 0.641622 
L 12.50404 0.529367 
L 11.652962 0.47324 
L 9.142634 0.360985 
L 10.008245 0.304858 
L 12.499957 0.192603 
L 11.619949 0.136476 
L 9.146339 0.026894 
L 9.968183 -0.029234 
L 12.496779 -0.141489 
L 11.660269 -0.197616 
L 9.149737 -0.309871 
L 10.00078 -0.365998 
L 12.493012 -0.478253 
L 11.627572 -0.53438 
L 9.153758 -0.643962 
L 10.033573 -0.702762 
L 12.489515 -0.812344 
L 11.667586 -0.868472 
L 9.156843 -0.980727 
L 9.263409 -1 
" clip-path="url(#p22ef229611)" style="fill: none; stroke: #87b26c; stroke-width: 0.05; stroke-linecap: square"/>
   </g>
   <g id="patch_13">
    <path d="M 4.72 70.565669 
L 4.72 18.181417 
" style="fill: none; stroke: #000000; stroke-width: 0.5; stroke-linejoin: miter; stroke-linecap: square"/>
   </g>
   <g id="patch_14">
    <path d="M 16.924724 70.565669 
L 16.924724 18.181417 
" style="fill: none; stroke: #000000; stroke-width: 0.5; stroke-linejoin: miter; stroke-linecap: square"/>
   </g>
   <g id="patch_15">
    <path d="M 4.72 70.565669 
L 16.924724 70.565669 
" style="fill: none; stroke: #ffffff; stroke-width: 0.5; stroke-linejoin: miter; stroke-linecap: square"/>
   </g>
   <g id="patch_16">
    <path d="M 4.72 18.181417 
L 16.924724 18.181417 
" style="fill: none; stroke: #ffffff; stroke-width: 0.5; stroke-linejoin: miter; stroke-linecap: square"/>
   </g>
  </g>
 </g>
 <defs>
  <clipPath id="pbe1e9efe0e">
   <rect x="4.72" y="70.565669" width="12.204724" height="17.461417"/>
  </clipPath>
  <clipPath id="p9274128739">
   <rect x="4.72" y="0.72" width="12.204724" height="17.461417"/>
  </clipPath>
  <clipPath id="p22ef229611">
   <rect x="4.72" y="18.181417" width="12.204724" height="52.384252"/>
  </clipPath>
 </defs>
</svg>
