<?xml version="1.0" encoding="utf-8" standalone="no"?>
<!DOCTYPE svg PUBLIC "-//W3C//DTD SVG 1.1//EN"
  "http://www.w3.org/Graphics/SVG/1.1/DTD/svg11.dtd">
<svg xmlns:xlink="http://www.w3.org/1999/xlink" width="17.644724pt" height="94.586149pt" viewBox="0 0 17.644724 94.586149" xmlns="http://www.w3.org/2000/svg" version="1.1">
 <metadata>
  <rdf:RDF xmlns:dc="http://purl.org/dc/elements/1.1/" xmlns:cc="http://creativecommons.org/ns#" xmlns:rdf="http://www.w3.org/1999/02/22-rdf-syntax-ns#">
   <cc:Work>
    <dc:type rdf:resource="http://purl.org/dc/dcmitype/StillImage"/>
    <dc:date>2025-03-01T18:03:56.285108</dc:date>
    <dc:format>image/svg+xml</dc:format>
    <dc:creator>
     <cc:Agent>
      <dc:title>Matplotlib v3.7.5, https://matplotlib.org/</dc:title>
     </cc:Agent>
    </dc:creator>
   </cc:Work>
  </rdf:RDF>
 </metadata>
 <defs>
  <style type="text/css">*{stroke-linejoin: round; stroke-linecap: butt}</style>
 </defs>
 <g id="figure_1">
  <g id="patch_1">
   <path d="M 0 94.586149 
L 17.644724 94.586149 
L 17.644724 0 
L 0 0 
L 0 94.586149 
z
" style="fill: none"/>
  </g>
  <g id="axes_1"/>
  <g id="axes_2">
   <g id="patch_2">
    <path d="M 4.72 88.027087 
L 16.924724 88.027087 
L 16.924724 70.565669 
L 4.72 70.565669 
L 4.72 88.027087 
z
" style="fill: none"/>
   </g>
   <g id="matplotlib.axis_1">
    <g id="text_1">
     <!-- $\ddot{x}$ -->
     <g transform="translate(9.697362 92.826305) scale(0.05 -0.05)">
      <defs>
       <path id="STIXGeneral-Regular-308" d="M -614 3885 
Q -518 3789 -518 3661 
Q -518 3533 -614 3440 
Q -710 3347 -845 3347 
Q -973 3347 -1062 3440 
Q -1152 3533 -1152 3667 
Q -1152 3795 -1059 3888 
Q -966 3981 -838 3981 
Q -710 3981 -614 3885 
z
M -1888 3885 
Q -1792 3789 -1792 3661 
Q -1792 3533 -1888 3440 
Q -1984 3347 -2118 3347 
Q -2246 3347 -2336 3440 
Q -2426 3533 -2426 3667 
Q -2426 3795 -2333 3888 
Q -2240 3981 -2112 3981 
Q -1984 3981 -1888 3885 
z
" transform="scale(0.015625)"/>
       <path id="STIXGeneral-Italic-78" d="M 1555 2272 
L 1632 1907 
Q 1971 2426 2179 2624 
Q 2387 2822 2598 2822 
Q 2714 2822 2787 2755 
Q 2861 2688 2861 2585 
Q 2861 2483 2800 2419 
Q 2739 2355 2643 2355 
Q 2586 2355 2490 2409 
Q 2394 2464 2310 2464 
Q 2125 2464 1683 1690 
Q 1683 1606 1734 1402 
L 1939 544 
Q 2003 282 2131 282 
Q 2234 282 2432 538 
Q 2451 563 2476 598 
Q 2502 634 2521 662 
Q 2541 691 2566 717 
L 2662 659 
Q 2387 230 2227 80 
Q 2067 -70 1882 -70 
Q 1728 -70 1645 26 
Q 1562 122 1504 365 
L 1318 1126 
L 755 365 
Q 557 96 432 13 
Q 307 -70 147 -70 
Q 0 -70 -86 0 
Q -173 70 -173 198 
Q -173 294 -112 361 
Q -51 429 45 429 
Q 122 429 250 358 
Q 346 301 416 301 
Q 525 301 742 614 
L 1267 1357 
L 1088 2150 
Q 1024 2432 969 2509 
Q 915 2586 794 2586 
Q 717 2586 544 2541 
L 429 2509 
L 410 2611 
L 480 2637 
Q 992 2822 1229 2822 
Q 1350 2822 1420 2707 
Q 1491 2592 1555 2272 
z
" transform="scale(0.015625)"/>
      </defs>
      <use xlink:href="#STIXGeneral-Regular-308" transform="translate(51.006248 4.796875)"/>
      <use xlink:href="#STIXGeneral-Italic-78" transform="translate(0 0.5)"/>
     </g>
    </g>
   </g>
   <g id="matplotlib.axis_2"/>
   <g id="line2d_1">
    <path d="M 5.158807 88.027087 
L 5.286132 87.852468 
L 5.764037 87.634195 
L 7.186473 87.284958 
L 11.089967 86.630138 
L 15.167027 85.88801 
L 16.270695 85.495118 
L 16.407643 85.276845 
L 16.252403 85.102226 
L 15.594531 84.840298 
L 13.819163 84.447407 
L 5.537537 82.832185 
L 5.300064 82.570257 
L 5.431161 82.395639 
L 6.049852 82.133711 
L 7.769425 81.740819 
L 16.01433 80.125598 
L 16.281742 79.86367 
L 16.17476 79.689051 
L 15.724937 79.470778 
L 14.368253 79.121541 
L 10.608646 78.466722 
L 6.485599 77.680938 
L 5.569416 77.331701 
L 5.425426 77.113428 
L 5.56506 76.938809 
L 6.184811 76.676882 
L 7.881141 76.28399 
L 15.916217 74.668768 
L 16.161665 74.406841 
L 16.046635 74.232222 
L 15.595144 74.013949 
L 14.254574 73.664712 
L 10.567389 73.009892 
L 6.711881 72.267763 
L 5.671824 71.874872 
L 5.543002 71.656599 
L 5.688836 71.48198 
L 6.307119 71.220052 
L 7.97905 70.827161 
L 15.821409 69.211939 
L 16.04878 68.950011 
L 15.92792 68.775393 
L 15.349081 68.513465 
L 13.731475 68.120573 
L 5.833112 66.461697 
L 5.649736 66.243424 
L 5.745722 66.068805 
L 6.163933 65.850532 
L 7.43683 65.501295 
L 10.739626 64.89013 
L 14.919214 64.060692 
L 15.797932 63.711455 
L 15.942552 63.493182 
L 15.817776 63.318563 
L 15.242542 63.056636 
L 13.649464 62.663744 
L 5.924511 61.004868 
L 5.75211 60.786595 
L 5.851754 60.611976 
L 6.267701 60.393703 
L 7.522314 60.044466 
L 11.014401 59.389646 
L 14.854728 58.603863 
L 15.706967 58.254626 
L 15.842472 58.036353 
L 15.71544 57.861734 
L 15.145561 57.599806 
L 13.577707 57.206915 
L 6.083063 55.591693 
L 5.848794 55.329765 
L 5.95051 55.155147 
L 6.362715 54.936874 
L 7.598069 54.587636 
L 11.027632 53.932817 
L 14.789953 53.147034 
L 15.619509 52.797796 
L 15.74806 52.579523 
L 15.620216 52.404905 
L 15.05719 52.142977 
L 13.515098 51.750085 
L 6.165888 50.134864 
L 5.940229 49.872936 
L 6.042631 49.698317 
L 6.566358 49.43639 
L 8.055836 49.043498 
L 15.473717 47.384622 
L 15.658864 47.122694 
L 15.531468 46.948075 
L 14.976587 46.686148 
L 13.460665 46.293256 
L 6.246085 44.678034 
L 6.026827 44.416107 
L 6.128702 44.241488 
L 6.644401 43.97956 
L 8.10828 43.586669 
L 15.394028 41.927792 
L 15.574462 41.665865 
L 15.44862 41.491246 
L 14.902999 41.229318 
L 13.413558 40.836427 
L 6.323794 39.221205 
L 6.108979 38.959277 
L 6.209259 38.784659 
L 6.715835 38.522731 
L 8.153762 38.129839 
L 15.376196 36.427308 
L 15.49446 36.209035 
L 15.371146 36.034417 
L 14.835752 35.772489 
L 13.373028 35.379597 
L 6.399158 33.764376 
L 6.187044 33.502448 
L 6.28479 33.327829 
L 6.78129 33.065902 
L 8.192985 32.67301 
L 15.300773 30.970479 
L 15.418493 30.752206 
L 15.298565 30.577587 
L 14.774242 30.31566 
L 13.33841 29.922768 
L 6.472329 28.307546 
L 6.261363 28.045619 
L 6.355742 27.871 
L 6.841332 27.609072 
L 8.226577 27.216181 
L 12.741924 26.299433 
L 14.718119 25.775578 
L 15.309994 25.42634 
L 15.311692 25.208067 
L 15.023006 24.989794 
L 14.173647 24.684212 
L 11.864583 24.160356 
L 7.143337 23.112645 
L 6.427658 22.763408 
L 6.337374 22.545135 
L 6.536654 22.326861 
L 7.137915 22.064934 
L 8.835996 21.628387 
L 14.861503 20.231439 
L 15.263608 19.925857 
L 15.211308 19.707583 
L 14.875417 19.48931 
L 13.815333 19.140073 
L 10.9914 18.528908 
L 7.339731 17.69947 
L 6.497147 17.306578 
L 6.404207 17.088305 
L 6.596183 16.870032 
L 7.183359 16.608104 
L 8.849831 16.171558 
L 14.794279 14.77461 
L 15.196186 14.469027 
L 15.149302 14.250754 
L 14.823134 14.032481 
L 13.785425 13.683244 
L 11.224481 13.115734 
L 7.402143 12.242641 
L 6.564484 11.849749 
L 6.468013 11.631476 
L 6.652027 11.413203 
L 7.224679 11.151275 
L 8.859687 10.714729 
L 14.728252 9.31778 
L 15.131264 9.012198 
L 15.090527 8.793925 
L 14.774581 8.575652 
L 13.759499 8.226414 
L 11.240899 7.658904 
L 7.464276 6.785811 
L 6.629845 6.39292 
L 6.52906 6.174647 
L 6.704525 5.956373 
L 7.262267 5.694446 
L 8.865952 5.257899 
L 14.75201 3.817296 
L 15.083868 3.511714 
L 14.99495 3.293441 
L 14.535451 3.031513 
L 13.235452 2.638621 
L 8.818657 1.678219 
L 7.061373 1.154364 
L 6.61861 0.848781 
L 6.621616 0.630508 
L 6.895073 0.412235 
L 7.692464 0.106652 
L 9.856564 -0.417203 
L 12.584979 -1 
L 12.584979 -1 
" clip-path="url(#p5d933d2457)" style="fill: none; stroke: #87b26c; stroke-width: 0.4; stroke-linecap: square"/>
   </g>
   <g id="patch_3">
    <path d="M 4.72 88.027087 
L 4.72 70.565669 
" style="fill: none; stroke: #000000; stroke-width: 0.5; stroke-linejoin: miter; stroke-linecap: square"/>
   </g>
   <g id="patch_4">
    <path d="M 16.924724 88.027087 
L 16.924724 70.565669 
" style="fill: none; stroke: #000000; stroke-width: 0.5; stroke-linejoin: miter; stroke-linecap: square"/>
   </g>
   <g id="patch_5">
    <path d="M 4.72 88.027087 
L 16.924724 88.027087 
" style="fill: none; stroke: #000000; stroke-width: 0.5; stroke-linejoin: miter; stroke-linecap: square"/>
   </g>
   <g id="patch_6">
    <path d="M 4.72 70.565669 
L 16.924724 70.565669 
" style="fill: none; stroke: #ffffff; stroke-width: 0.5; stroke-linejoin: miter; stroke-linecap: square"/>
   </g>
  </g>
  <g id="axes_3">
   <g id="patch_7">
    <path d="M 4.72 18.181417 
L 16.924724 18.181417 
L 16.924724 0.72 
L 4.72 0.72 
L 4.72 18.181417 
z
" style="fill: none"/>
   </g>
   <g id="matplotlib.axis_3"/>
   <g id="matplotlib.axis_4"/>
   <g id="line2d_2">
    <path d="M 10.025816 95.586149 
L 12.624859 94.250055 
L 12.822197 93.900818 
L 12.733981 93.595235 
L 12.349286 93.245998 
L 11.350425 92.722143 
L 9.160214 91.630777 
L 8.842201 91.237885 
L 8.868431 90.932303 
L 9.133412 90.62672 
L 9.854707 90.190174 
L 12.712623 88.662262 
L 12.817942 88.356679 
L 12.679501 88.051097 
L 12.246083 87.70186 
L 11.108928 87.134349 
L 9.195758 86.173947 
L 8.856381 85.781056 
L 8.863679 85.475473 
L 9.110311 85.169891 
L 9.810933 84.733344 
L 12.72114 83.161778 
L 12.810246 82.856195 
L 12.656513 82.550613 
L 12.136022 82.157721 
L 10.765591 81.502901 
L 9.23229 80.717118 
L 8.871904 80.324226 
L 8.860358 80.018644 
L 9.088548 79.713061 
L 9.685149 79.32017 
L 11.575768 78.447077 
L 12.532674 77.879567 
L 12.789548 77.53033 
L 12.758289 77.224747 
L 12.490511 76.919165 
L 11.769691 76.482618 
L 8.975184 74.998361 
L 8.842248 74.649124 
L 8.984718 74.343541 
L 9.419765 73.994304 
L 10.552509 73.426794 
L 12.445214 72.466392 
L 12.775931 72.0735 
L 12.763534 71.767918 
L 12.513972 71.462335 
L 11.813567 71.025789 
L 8.933486 69.454222 
L 8.850127 69.14864 
L 9.007678 68.843057 
L 9.529499 68.450166 
L 10.893178 67.795346 
L 12.409219 67.009563 
L 12.760965 66.616671 
L 12.767347 66.311089 
L 12.5361 66.005506 
L 11.856532 65.56896 
L 8.926385 63.953738 
L 8.858978 63.648156 
L 9.031411 63.342573 
L 9.567791 62.949682 
L 10.937846 62.294862 
L 12.430835 61.509079 
L 12.763003 61.116187 
L 12.753589 60.810605 
L 12.508244 60.505022 
L 11.814909 60.068476 
L 8.947131 58.496909 
L 8.86137 58.191327 
L 9.01512 57.885744 
L 9.530798 57.492852 
L 10.884385 56.838033 
L 12.394861 56.052249 
L 12.747952 55.659358 
L 12.757242 55.353775 
L 12.530159 55.048193 
L 11.857634 54.611647 
L 8.939853 52.996425 
L 8.8699 52.690843 
L 9.038428 52.38526 
L 9.56861 51.992368 
L 10.928693 51.337549 
L 12.416495 50.551765 
L 12.750216 50.158874 
L 12.743844 49.853291 
L 12.502751 49.547709 
L 11.816484 49.111163 
L 8.960665 47.539596 
L 8.872437 47.234013 
L 9.022342 46.928431 
L 9.531859 46.535539 
L 10.875429 45.88072 
L 12.380536 45.094936 
L 12.735071 44.702044 
L 12.747329 44.396462 
L 12.524444 44.09088 
L 11.858964 43.654333 
L 8.953209 42.039112 
L 8.880645 41.733529 
L 9.045227 41.427947 
L 9.569198 41.035055 
L 10.919386 40.380236 
L 12.402194 39.594452 
L 12.737563 39.20156 
L 12.734289 38.895978 
L 12.497479 38.590396 
L 11.81828 38.153849 
L 8.974095 36.582282 
L 8.883335 36.2767 
L 9.029354 35.971117 
L 9.532696 35.578226 
L 10.769537 34.967061 
L 12.366242 34.137623 
L 12.722315 33.744731 
L 12.737596 33.439149 
L 12.518944 33.133566 
L 11.941063 32.740675 
L 10.098317 31.867582 
L 9.16019 31.300072 
L 8.89449 30.90718 
L 8.954717 30.601597 
L 9.301023 30.25236 
L 10.151511 29.772159 
L 12.493279 28.54983 
L 12.739553 28.200593 
L 12.705559 27.89501 
L 12.386683 27.545773 
L 11.561796 27.065572 
L 9.097491 25.755933 
L 8.896703 25.406696 
L 8.972014 25.101113 
L 9.332828 24.751876 
L 10.286425 24.228021 
L 12.461397 23.093 
L 12.739069 22.700109 
L 12.689901 22.394526 
L 12.356162 22.045289 
L 11.519252 21.565088 
L 9.126672 20.299104 
L 8.906262 19.949867 
L 8.962968 19.644284 
L 9.304034 19.295047 
L 10.146763 18.814846 
L 12.525823 17.548862 
L 12.737613 17.199625 
L 12.673403 16.894042 
L 12.325081 16.544805 
L 11.476662 16.064604 
L 9.156972 14.842274 
L 8.9172 14.493037 
L 8.955345 14.187455 
L 9.276493 13.838218 
L 10.099691 13.358017 
L 12.540637 12.048378 
L 12.735194 11.699141 
L 12.656081 11.393558 
L 12.293461 11.044321 
L 11.342628 10.520465 
L 9.188364 9.385445 
L 8.917907 8.992553 
L 8.971047 8.686971 
L 9.306849 8.337734 
L 10.141836 7.857533 
L 12.511946 6.591548 
L 12.726104 6.242311 
L 12.665515 5.936729 
L 12.32249 5.587492 
L 11.481799 5.107291 
L 9.170947 3.884961 
L 8.919572 3.492069 
L 8.987577 3.186487 
L 9.337755 2.83725 
L 10.184024 2.357049 
L 12.48213 1.134719 
L 12.715634 0.785482 
L 12.673528 0.4799 
L 12.350273 0.130662 
L 11.528856 -0.349539 
L 10.145011 -1 
L 10.145011 -1 
" clip-path="url(#p92ac1d5117)" style="fill: none; stroke: #87b26c; stroke-width: 0.4; stroke-linecap: square"/>
   </g>
   <g id="patch_8">
    <path d="M 4.72 18.181417 
L 4.72 0.72 
" style="fill: none; stroke: #000000; stroke-width: 0.5; stroke-linejoin: miter; stroke-linecap: square"/>
   </g>
   <g id="patch_9">
    <path d="M 16.924724 18.181417 
L 16.924724 0.72 
" style="fill: none; stroke: #000000; stroke-width: 0.5; stroke-linejoin: miter; stroke-linecap: square"/>
   </g>
   <g id="patch_10">
    <path d="M 4.72 18.181417 
L 16.924724 18.181417 
" style="fill: none; stroke: #ffffff; stroke-width: 0.5; stroke-linejoin: miter; stroke-linecap: square"/>
   </g>
   <g id="patch_11">
    <path d="M 4.72 0.72 
L 16.924724 0.72 
" style="fill: none; stroke: #000000; stroke-width: 0.5; stroke-linejoin: miter; stroke-linecap: square"/>
   </g>
  </g>
  <g id="axes_4">
   <g id="patch_12">
    <path d="M 4.72 70.565669 
L 16.924724 70.565669 
L 16.924724 18.181417 
L 4.72 18.181417 
L 4.72 70.565669 
z
" style="fill: none"/>
   </g>
   <g id="matplotlib.axis_5"/>
   <g id="matplotlib.axis_6"/>
   <g id="line2d_3">
    <path d="M 5.158807 71.100202 
L 5.900753 71.073475 
L 16.409561 70.934493 
L 11.755272 70.859657 
L 5.300064 70.766111 
L 8.004571 70.712656 
L 16.281742 70.600401 
L 13.465547 70.544274 
L 5.425426 70.432019 
L 8.112186 70.378565 
L 16.161665 70.26631 
L 13.367141 70.210182 
L 5.541207 70.1006 
L 8.206056 70.044473 
L 16.04878 69.932218 
L 13.281607 69.876091 
L 5.649736 69.766509 
L 8.287777 69.710381 
L 15.942552 69.598127 
L 13.207464 69.541999 
L 5.75211 69.432417 
L 8.358726 69.37629 
L 15.842472 69.264035 
L 13.363533 69.21058 
L 5.848794 69.098326 
L 8.420094 69.042198 
L 15.74806 68.929943 
L 13.304647 68.876489 
L 5.940229 68.764234 
L 8.472919 68.708107 
L 15.659212 68.598525 
L 13.253875 68.542397 
L 6.026827 68.430142 
L 8.518105 68.374015 
L 15.575017 68.264433 
L 13.210369 68.208306 
L 6.108979 68.096051 
L 8.556449 68.039923 
L 15.494946 67.930341 
L 13.173379 67.874214 
L 6.187044 67.761959 
L 8.588652 67.705832 
L 15.418663 67.59625 
L 13.142244 67.540122 
L 6.261363 67.427868 
L 8.615334 67.37174 
L 15.346221 67.259486 
L 13.116379 67.206031 
L 6.332249 67.093776 
L 8.637046 67.037649 
L 15.277328 66.925394 
L 12.900517 66.869267 
L 6.399995 66.759685 
L 8.65428 66.703557 
L 15.211523 66.591302 
L 12.887038 66.535175 
L 6.464872 66.425593 
L 8.667474 66.369466 
L 15.148535 66.257211 
L 12.877367 66.201083 
L 6.527133 66.091501 
L 8.677022 66.035374 
L 15.088112 65.923119 
L 12.871135 65.866992 
L 6.587012 65.75741 
L 8.68328 65.701282 
L 15.030021 65.589028 
L 12.868006 65.5329 
L 6.643856 65.420645 
L 8.869077 65.364518 
L 14.974046 65.254936 
L 12.867677 65.198809 
L 6.69805 65.086554 
L 8.866539 65.030426 
L 14.919987 64.920844 
L 12.869875 64.864717 
L 6.750378 64.752462 
L 8.861622 64.696335 
L 14.867657 64.586753 
L 12.874349 64.530625 
L 6.801025 64.418371 
L 8.854561 64.362243 
L 14.818449 64.249988 
L 12.706808 64.193861 
L 6.850161 64.084279 
L 8.845574 64.028152 
L 14.77098 63.915897 
L 12.718187 63.859769 
L 6.897945 63.750187 
L 8.834858 63.69406 
L 14.724817 63.581805 
L 12.731189 63.525678 
L 6.94306 63.413423 
L 8.991515 63.357296 
L 14.679814 63.247714 
L 12.745642 63.191586 
L 6.986463 63.079332 
L 8.974937 63.023204 
L 14.635837 62.913622 
L 12.761386 62.857495 
L 7.028883 62.74524 
L 8.957151 62.689113 
L 14.594742 62.576858 
L 12.614348 62.52073 
L 7.070444 62.411148 
L 8.938297 62.355021 
L 14.554716 62.242766 
L 12.63511 62.186639 
L 7.110623 62.074384 
L 9.080389 62.018257 
L 14.515394 61.908675 
L 12.656742 61.852547 
L 7.148435 61.740292 
L 9.056967 61.684165 
L 14.47667 61.574583 
L 12.67913 61.518456 
L 7.185686 61.406201 
L 9.032849 61.350073 
L 14.44042 61.237819 
L 12.545074 61.181691 
L 7.222474 61.072109 
L 9.008138 61.015982 
L 14.40508 60.903727 
L 12.571415 60.8476 
L 7.257759 60.735345 
L 9.138061 60.679218 
L 14.370079 60.569635 
L 12.598207 60.513508 
L 7.291336 60.401253 
L 9.10973 60.345126 
L 14.335792 60.232871 
L 12.472168 60.176744 
L 7.324691 60.067162 
L 9.081078 60.011034 
L 14.303835 59.89878 
L 12.502279 59.842652 
L 7.357898 59.73307 
L 9.052181 59.676943 
L 14.271994 59.564688 
L 12.532598 59.508561 
L 7.388425 59.396306 
L 9.171753 59.340178 
L 14.240199 59.230596 
L 12.563052 59.174469 
L 7.418877 59.062214 
L 9.139945 59.006087 
L 14.210664 58.893832 
L 12.446798 58.837705 
L 7.449377 58.728123 
L 9.108098 58.671995 
L 14.181484 58.55974 
L 12.479935 58.503613 
L 7.477906 58.391358 
L 9.221211 58.335231 
L 14.15217 58.225649 
L 12.513025 58.169522 
L 7.505924 58.057267 
L 9.186889 58.001139 
L 14.124654 57.888885 
L 12.402892 57.832757 
L 7.534158 57.723175 
L 9.152692 57.667048 
L 14.097694 57.554793 
L 12.438268 57.498666 
L 7.560655 57.386411 
L 9.259996 57.330283 
L 14.070444 57.220701 
L 12.473447 57.164574 
L 7.586653 57.052319 
L 9.223685 56.996192 
L 14.044968 56.883937 
L 12.368838 56.82781 
L 7.613012 56.718228 
L 9.187635 56.6621 
L 14.019841 56.549845 
L 12.405975 56.493718 
L 7.637466 56.381463 
L 9.289676 56.325336 
L 13.994288 56.215754 
L 12.442792 56.159626 
L 7.661808 56.047372 
L 9.251812 55.991244 
L 13.970853 55.87899 
L 12.343202 55.822862 
L 7.68661 55.710607 
L 9.214323 55.657153 
L 13.947216 55.544898 
L 12.381702 55.488771 
L 7.709055 55.376516 
L 9.311569 55.320388 
L 13.923466 55.208134 
L 12.284769 55.152006 
L 7.732063 55.042424 
L 9.272515 54.986297 
L 13.90163 54.874042 
L 12.324776 54.817915 
L 7.754769 54.70566 
L 9.367236 54.649532 
L 13.879179 54.53995 
L 12.364307 54.483823 
L 7.776065 54.371568 
L 9.326781 54.315441 
L 13.857511 54.203186 
L 12.271709 54.147059 
L 7.798024 54.037477 
L 9.286845 53.981349 
L 13.836687 53.869095 
L 12.312542 53.812967 
L 7.818664 53.700712 
L 9.377405 53.644585 
L 13.815157 53.535003 
L 12.352819 53.478876 
L 7.839077 53.366621 
L 9.336256 53.310493 
L 13.795537 53.198239 
L 12.264219 53.142111 
L 7.859887 53.029856 
L 9.424644 52.973729 
L 13.775476 52.864147 
L 12.305626 52.80802 
L 7.878847 52.695765 
L 9.38241 52.639637 
L 13.755701 52.527383 
L 12.2191 52.471255 
L 7.89861 52.361673 
L 9.340799 52.305546 
L 13.737022 52.193291 
L 12.261518 52.137164 
L 7.917361 52.024909 
L 9.425529 51.968782 
L 13.717504 51.8592 
L 12.303283 51.803072 
L 7.935811 51.690817 
L 9.382976 51.63469 
L 13.699767 51.522435 
L 12.220287 51.466308 
L 7.954649 51.354053 
L 9.46582 51.297926 
L 13.681498 51.188344 
L 12.262929 51.132216 
L 7.971866 51.019961 
L 9.422424 50.963834 
L 13.663682 50.851579 
L 12.18174 50.795452 
L 7.989999 50.68587 
L 9.379733 50.629742 
L 13.646586 50.517488 
L 12.225169 50.46136 
L 8.006805 50.349106 
L 9.459321 50.292978 
L 13.628735 50.180723 
L 12.145702 50.124596 
L 8.023823 50.015014 
L 9.415898 49.958887 
L 13.612739 49.846632 
L 12.189833 49.790504 
L 8.040658 49.67825 
L 9.493832 49.622122 
L 13.59576 49.51254 
L 12.233214 49.456413 
L 8.05663 49.344158 
L 9.449755 49.288031 
L 13.579928 49.175776 
L 12.156767 49.119648 
L 8.073457 49.007394 
L 9.52611 48.951266 
L 13.563943 48.841684 
L 12.200758 48.785557 
L 8.088449 48.673302 
L 9.481451 48.617175 
L 13.548122 48.50492 
L 12.12583 48.448793 
L 8.10448 48.339211 
L 9.437577 48.283083 
L 13.53307 48.170828 
L 12.170362 48.114701 
L 8.119308 48.002446 
L 9.511117 47.946319 
L 13.51729 47.834064 
L 12.096889 47.777937 
L 8.134453 47.668355 
L 9.46674 47.612227 
L 13.503112 47.499972 
L 12.141901 47.443845 
L 8.149238 47.33159 
L 9.538879 47.275463 
L 13.487842 47.165881 
L 12.186097 47.109753 
L 8.163554 46.997499 
L 9.494056 46.941371 
L 13.474039 46.829117 
L 12.115258 46.772989 
L 8.178269 46.660734 
L 9.564851 46.604607 
L 13.459559 46.495025 
L 12.159868 46.438898 
L 8.191809 46.326643 
L 9.519636 46.270515 
L 13.445825 46.158261 
L 12.090326 46.102133 
L 8.206432 45.989878 
L 9.58914 45.933751 
L 13.432082 45.824169 
L 12.135299 45.768042 
L 8.219245 45.655787 
L 9.54358 45.599659 
L 13.418439 45.487405 
L 12.067003 45.431277 
L 8.233217 45.321695 
L 9.498872 45.265568 
L 13.405385 45.153313 
L 12.112293 45.097186 
L 8.245892 44.984931 
L 9.565985 44.928804 
L 13.391854 44.816549 
L 12.045197 44.760421 
L 8.259209 44.650839 
L 9.520984 44.594712 
L 13.379443 44.482457 
L 12.090762 44.42633 
L 8.271775 44.314075 
L 9.586937 44.257948 
L 13.366042 44.145693 
L 12.024821 44.089565 
L 8.284482 43.979983 
L 9.541684 43.923856 
L 13.354228 43.811601 
L 12.070622 43.755474 
L 8.29692 43.643219 
L 9.606519 43.587092 
L 13.341204 43.47751 
L 12.115544 43.421382 
L 8.309061 43.309127 
L 9.561052 43.253 
L 13.329717 43.140745 
L 12.051795 43.084618 
L 8.321356 42.972363 
L 9.624808 42.916236 
L 13.317231 42.806654 
L 12.096913 42.750526 
L 8.332969 42.638272 
L 9.57916 42.582144 
L 13.305883 42.469889 
L 12.034209 42.413762 
L 8.345106 42.301507 
L 9.641875 42.24538 
L 13.293897 42.135798 
L 12.079489 42.07967 
L 8.35623 41.967416 
L 9.596077 41.911288 
L 13.282703 41.799034 
L 12.017795 41.742906 
L 8.368197 41.630651 
L 9.657788 41.574524 
L 13.271181 41.464942 
L 12.063208 41.408815 
L 8.378867 41.29656 
L 9.611869 41.240432 
L 13.260153 41.128178 
L 12.00249 41.07205 
L 8.390652 40.959795 
L 9.672607 40.903668 
L 13.249059 40.794086 
L 12.048009 40.737959 
L 8.400905 40.625704 
L 9.626595 40.569576 
L 13.238208 40.457322 
L 11.988235 40.401194 
L 8.412497 40.28894 
L 9.686393 40.232812 
L 13.227509 40.12323 
L 12.033833 40.067103 
L 8.422364 39.954848 
L 9.640313 39.898721 
L 13.216846 39.786466 
L 11.974974 39.730338 
L 8.433523 39.620756 
L 9.595143 39.564629 
L 13.206511 39.452374 
L 12.020627 39.396247 
L 8.443267 39.283992 
L 9.653075 39.227865 
L 13.196045 39.11561 
L 11.962654 39.059482 
L 8.454082 38.9499 
L 9.607861 38.893773 
L 13.186044 38.781518 
L 12.008341 38.725391 
L 8.463634 38.613136 
L 9.66493 38.557009 
L 13.175784 38.444754 
L 11.951227 38.388627 
L 8.474136 38.279044 
L 9.619695 38.222917 
L 13.166088 38.110662 
L 11.996926 38.054535 
L 8.483487 37.94228 
L 9.675927 37.886153 
L 13.156041 37.773898 
L 11.940647 37.717771 
L 8.493703 37.608189 
L 9.63069 37.552061 
L 13.146622 37.439806 
L 11.986339 37.383679 
L 8.502846 37.271424 
L 9.686108 37.215297 
L 13.136795 37.103042 
L 11.930869 37.046915 
L 8.512801 36.937333 
L 9.640888 36.881205 
L 13.127628 36.76895 
L 11.976537 36.712823 
L 8.521729 36.600568 
L 9.695517 36.544441 
L 13.118028 36.432186 
L 11.921854 36.376059 
L 8.531449 36.266477 
L 9.65033 36.210349 
L 13.109088 36.098095 
L 11.96748 36.041967 
L 8.540156 35.929712 
L 9.70419 35.873585 
L 13.09972 35.76133 
L 11.913562 35.705203 
L 8.549665 35.595621 
L 9.659053 35.539493 
L 13.090983 35.427239 
L 11.959132 35.371111 
L 8.558145 35.258856 
L 9.712165 35.202729 
L 13.081852 35.090474 
L 11.905958 35.034347 
L 8.567465 34.924765 
L 9.667093 34.868638 
L 13.073296 34.756383 
L 11.951456 34.700255 
L 8.575713 34.588001 
L 9.719478 34.531873 
L 13.064408 34.419618 
L 11.899006 34.363491 
L 8.584866 34.253909 
L 9.674485 34.197782 
L 13.056011 34.085527 
L 11.944419 34.029399 
L 8.592878 33.917145 
L 9.726161 33.861017 
L 13.047369 33.748763 
L 11.892676 33.692635 
L 8.601884 33.583053 
L 9.68126 33.526926 
L 13.03911 33.414671 
L 11.937991 33.358544 
L 8.609655 33.246289 
L 9.732245 33.190161 
L 13.030718 33.077907 
L 11.886935 33.021779 
L 8.618536 32.912197 
L 9.783364 32.853397 
L 13.022579 32.743815 
L 11.93214 32.687688 
L 8.626062 32.575433 
L 9.737759 32.519305 
L 13.014441 32.407051 
L 11.881756 32.350923 
L 8.634807 32.238669 
L 9.78821 32.182541 
L 13.006402 32.072959 
L 11.926839 32.016832 
L 8.642113 31.904577 
L 9.742731 31.84845 
L 12.99852 31.736195 
L 11.87711 31.680067 
L 8.650593 31.567813 
L 9.792531 31.511685 
L 12.990563 31.402103 
L 11.922062 31.345976 
L 8.657824 31.233721 
L 9.747189 31.177594 
L 12.982941 31.065339 
L 11.872972 31.009211 
L 8.666036 30.896957 
L 9.796352 30.840829 
L 12.97505 30.731247 
L 11.917782 30.67512 
L 8.673208 30.562865 
L 9.751155 30.506738 
L 12.96769 30.394483 
L 11.869317 30.338356 
L 8.68115 30.226101 
L 9.799697 30.169973 
L 12.959847 30.060391 
L 11.913975 30.004264 
L 8.688281 29.892009 
L 9.754655 29.835882 
L 12.952752 29.723627 
L 11.866121 29.6675 
L 8.695951 29.555245 
L 9.802589 29.499117 
L 12.944942 29.389535 
L 11.91062 29.333408 
L 8.703054 29.221153 
L 9.757712 29.165026 
L 12.938113 29.052771 
L 11.863363 28.996644 
L 8.71045 28.884389 
L 9.80505 28.828262 
L 12.930322 28.718679 
L 11.815949 28.659879 
L 8.717542 28.550297 
L 9.760345 28.49417 
L 12.923762 28.381915 
L 11.861022 28.325788 
L 8.724662 28.213533 
L 9.807101 28.157406 
L 12.916085 28.045151 
L 11.814186 27.989023 
L 8.731756 27.879441 
L 9.762575 27.823314 
L 12.909684 27.711059 
L 11.859077 27.654932 
L 8.7386 27.542677 
L 9.808762 27.48655 
L 12.902291 27.374295 
L 11.812808 27.318168 
L 8.74571 27.208585 
L 9.764423 27.152458 
L 12.895868 27.040203 
L 11.857509 26.984076 
L 8.752276 26.871821 
L 9.810051 26.815694 
L 12.888759 26.703439 
L 11.811796 26.647312 
L 8.759414 26.53773 
L 9.765906 26.481602 
L 12.882302 26.369347 
L 11.8563 26.31322 
L 8.765701 26.200965 
L 9.810987 26.144838 
L 12.875478 26.032583 
L 11.811132 25.976456 
L 8.772881 25.866874 
L 9.856237 25.808074 
L 12.868974 25.698492 
L 11.855434 25.642364 
L 8.778887 25.530109 
L 9.811586 25.473982 
L 12.862436 25.361727 
L 11.810799 25.3056 
L 8.785952 25.193345 
L 9.856305 25.137218 
L 12.855873 25.027636 
L 11.854891 24.971508 
L 8.791846 24.859253 
L 9.811865 24.803126 
L 12.849622 24.690871 
L 11.810782 24.634744 
L 8.798618 24.522489 
L 9.856063 24.466362 
L 12.842989 24.35678 
L 11.854659 24.300652 
L 8.804588 24.188398 
L 9.81184 24.13227 
L 12.837025 24.020015 
L 11.811064 23.963888 
L 8.811067 23.851633 
L 9.855525 23.795506 
L 12.830311 23.685924 
L 11.854721 23.629796 
L 8.817123 23.517542 
L 9.811524 23.461414 
L 12.824635 23.349159 
L 11.811631 23.293032 
L 8.823309 23.180777 
L 9.854707 23.12465 
L 12.817942 23.012395 
L 11.768361 22.956268 
L 8.829462 22.846686 
L 9.810933 22.790558 
L 12.812442 22.678304 
L 11.81247 22.622176 
L 8.835355 22.509921 
L 9.853622 22.453794 
L 12.806047 22.341539 
L 11.769691 22.285412 
L 8.841613 22.17583 
L 9.81008 22.119702 
L 12.800436 22.007448 
L 11.813567 21.95132 
L 8.847213 21.839065 
L 9.852283 21.782938 
L 12.794339 21.670683 
L 11.771271 21.614556 
L 8.853587 21.504974 
L 9.894666 21.446174 
L 12.788607 21.336592 
L 11.814909 21.280464 
L 8.858894 21.16821 
L 9.850702 21.112082 
L 12.782808 20.999827 
L 11.773088 20.9437 
L 8.865182 20.831445 
L 9.892614 20.775318 
L 12.776947 20.665736 
L 11.816484 20.609608 
L 8.870407 20.497354 
L 9.848893 20.441226 
L 12.771446 20.328971 
L 11.775131 20.272844 
L 8.876392 20.160589 
L 9.890339 20.104462 
L 12.765447 19.99488 
L 11.81828 19.938752 
L 8.881759 19.826498 
L 9.846866 19.77037 
L 12.760243 19.658116 
L 11.777388 19.601988 
L 8.887442 19.489733 
L 9.887855 19.433606 
L 12.754084 19.321351 
L 11.736308 19.265224 
L 8.892961 19.155642 
L 9.844632 19.099514 
L 12.749191 18.98726 
L 11.779847 18.931132 
L 8.898342 18.818877 
L 9.88517 18.76275 
L 12.743338 18.650495 
L 11.739216 18.594368 
L 8.904019 18.484786 
L 9.842203 18.428658 
L 12.738283 18.316404 
L 11.7825 18.260276 
L 8.909099 18.148022 
L 9.882296 18.091894 
L 12.732734 17.979639 
L 11.74231 17.923512 
L 8.914942 17.81393 
L 9.922578 17.75513 
L 12.727509 17.645548 
L 11.785334 17.58942 
L 8.919722 17.477166 
L 9.879243 17.421038 
L 12.722265 17.308783 
L 11.74558 17.252656 
L 8.925427 17.140401 
L 9.919092 17.084274 
L 12.716862 16.974692 
L 11.788342 16.918564 
L 8.930218 16.80631 
L 9.87602 16.750182 
L 12.711922 16.637928 
L 11.749017 16.5818 
L 8.935615 16.469545 
L 9.915442 16.413418 
L 12.706335 16.303836 
L 11.791513 16.247709 
L 8.940594 16.135454 
L 9.872636 16.079326 
L 12.701699 15.967072 
L 11.752612 15.910944 
L 8.945684 15.798689 
L 9.911637 15.742562 
L 12.696158 15.630307 
L 11.713516 15.57418 
L 8.950858 15.464598 
L 9.8691 15.40847 
L 12.691587 15.296216 
L 11.756357 15.240088 
L 8.955641 15.127834 
L 9.907685 15.071706 
L 12.686356 14.959451 
L 11.717674 14.903324 
L 8.961016 14.793742 
L 9.865421 14.737615 
L 12.68158 14.62536 
L 11.760242 14.569232 
L 8.965495 14.456978 
L 9.903596 14.40085 
L 12.676658 14.288595 
L 11.721967 14.232468 
L 8.970857 14.120213 
L 9.941966 14.064086 
L 12.671672 13.954504 
L 11.76426 13.898376 
L 8.97525 13.786122 
L 9.899375 13.729994 
L 12.667058 13.61774 
L 11.726388 13.561612 
L 8.980301 13.449357 
L 9.937345 13.39323 
L 12.661855 13.283648 
L 11.768403 13.227521 
L 8.984914 13.115266 
L 9.895032 13.059138 
L 12.657548 12.946884 
L 11.73093 12.890756 
L 8.989655 12.778501 
L 9.932607 12.722374 
L 12.652376 12.610119 
L 11.693259 12.553992 
L 8.994493 12.44441 
L 9.890573 12.388282 
L 12.648123 12.276028 
L 11.735585 12.2199 
L 8.998924 12.107646 
L 9.927757 12.051518 
L 12.643263 11.939263 
L 11.698302 11.883136 
L 9.003993 11.773554 
L 9.965134 11.714754 
L 12.638777 11.605172 
L 11.740345 11.549044 
L 9.008116 11.43679 
L 9.922803 11.380662 
L 12.634228 11.268407 
L 11.703447 11.21228 
L 9.013087 11.100025 
L 9.959798 11.043898 
L 12.629502 10.934316 
L 11.745206 10.878188 
L 9.017236 10.765934 
L 9.917752 10.709806 
L 12.625265 10.597552 
L 11.708688 10.541424 
L 9.021893 10.429169 
L 9.95437 10.373042 
L 12.620295 10.26346 
L 11.671975 10.20466 
L 9.026289 10.095078 
L 9.91261 10.03895 
L 12.616367 9.926696 
L 11.714018 9.870568 
L 9.030634 9.758313 
L 9.948854 9.702186 
L 12.611606 9.589931 
L 11.677676 9.533804 
L 9.035281 9.424222 
L 9.907383 9.368094 
L 12.607529 9.25584 
L 11.71943 9.199712 
L 9.039316 9.087458 
L 9.943257 9.03133 
L 12.603083 8.919075 
L 11.683456 8.862948 
L 9.044172 8.750693 
L 9.979328 8.694566 
L 12.598746 8.584984 
L 11.72492 8.528856 
L 9.047943 8.416602 
L 9.937584 8.360474 
L 12.594612 8.248219 
L 11.68931 8.192092 
L 9.052484 8.079837 
L 9.973294 8.02371 
L 12.590013 7.914128 
L 11.730481 7.858 
L 9.056521 7.745746 
L 9.931842 7.689618 
L 12.586191 7.577364 
L 11.695231 7.521236 
L 9.060748 7.408981 
L 9.967194 7.352854 
L 12.581562 7.240599 
L 11.659782 7.184472 
L 9.065055 7.07489 
L 9.926036 7.018762 
L 12.577813 6.906508 
L 11.701216 6.85038 
L 9.068969 6.738125 
L 9.961033 6.681998 
L 12.573499 6.569743 
L 11.666119 6.513616 
L 9.073549 6.404034 
L 9.996225 6.345234 
L 12.569473 6.235652 
L 11.707257 6.179524 
L 9.077152 6.06727 
L 9.954815 6.011142 
L 12.565474 5.898887 
L 11.67251 5.84276 
L 9.081546 5.730505 
L 9.989661 5.674378 
L 12.561168 5.564796 
L 11.713351 5.508668 
L 9.085301 5.396414 
L 9.948548 5.340286 
L 12.557482 5.228031 
L 11.678951 5.171904 
L 9.08938 5.059649 
L 9.983049 5.003522 
L 12.553012 4.891267 
L 11.644352 4.83514 
L 9.093422 4.725558 
L 9.942234 4.66943 
L 12.549518 4.557176 
L 11.685436 4.501048 
L 9.097186 4.388793 
L 9.976394 4.332666 
L 12.545364 4.220411 
L 11.651176 4.164284 
L 9.101518 4.054702 
L 10.01075 3.995902 
L 12.541577 3.88632 
L 11.691962 3.830192 
L 9.10497 3.717937 
L 9.9697 3.66181 
L 12.537739 3.549555 
L 11.658038 3.493428 
L 9.109192 3.381173 
L 10.003722 3.325046 
L 12.533657 3.215464 
L 11.698522 3.159336 
L 9.112734 3.047082 
L 9.962971 2.990954 
L 12.530132 2.878699 
L 11.664933 2.822572 
L 9.116641 2.710317 
L 9.996662 2.65419 
L 12.525846 2.541935 
L 11.631145 2.485808 
L 9.120484 2.376226 
L 9.956213 2.320098 
L 12.522539 2.207843 
L 11.671857 2.151716 
L 9.124076 2.039461 
L 9.989574 1.983334 
L 12.518569 1.871079 
L 11.638395 1.814952 
L 9.128222 1.70537 
L 10.023131 1.64657 
L 12.514957 1.536988 
L 11.678805 1.48086 
L 9.131501 1.368605 
L 9.982462 1.312478 
L 12.511302 1.200223 
L 11.645669 1.144096 
L 9.13553 1.031841 
L 10.015697 0.975714 
L 12.507381 0.866132 
L 11.685774 0.810004 
L 9.138921 0.697749 
L 9.975331 0.641622 
L 12.50404 0.529367 
L 11.652961 0.47324 
L 9.142634 0.360985 
L 10.008246 0.304858 
L 12.499957 0.192603 
L 11.619948 0.136476 
L 9.146339 0.026894 
L 9.968184 -0.029234 
L 12.496779 -0.141489 
L 11.660268 -0.197616 
L 9.149737 -0.309871 
L 10.000781 -0.365998 
L 12.493013 -0.478253 
L 11.627571 -0.53438 
L 9.153758 -0.643962 
L 10.033574 -0.702762 
L 12.489516 -0.812344 
L 11.667586 -0.868472 
L 9.156843 -0.980727 
L 9.26341 -1 
" clip-path="url(#p2fdc9932b7)" style="fill: none; stroke: #87b26c; stroke-width: 0.05; stroke-linecap: square"/>
   </g>
   <g id="patch_13">
    <path d="M 4.72 70.565669 
L 4.72 18.181417 
" style="fill: none; stroke: #000000; stroke-width: 0.5; stroke-linejoin: miter; stroke-linecap: square"/>
   </g>
   <g id="patch_14">
    <path d="M 16.924724 70.565669 
L 16.924724 18.181417 
" style="fill: none; stroke: #000000; stroke-width: 0.5; stroke-linejoin: miter; stroke-linecap: square"/>
   </g>
   <g id="patch_15">
    <path d="M 4.72 70.565669 
L 16.924724 70.565669 
" style="fill: none; stroke: #ffffff; stroke-width: 0.5; stroke-linejoin: miter; stroke-linecap: square"/>
   </g>
   <g id="patch_16">
    <path d="M 4.72 18.181417 
L 16.924724 18.181417 
" style="fill: none; stroke: #ffffff; stroke-width: 0.5; stroke-linejoin: miter; stroke-linecap: square"/>
   </g>
  </g>
 </g>
 <defs>
  <clipPath id="p5d933d2457">
   <rect x="4.72" y="70.565669" width="12.204724" height="17.461417"/>
  </clipPath>
  <clipPath id="p92ac1d5117">
   <rect x="4.72" y="0.72" width="12.204724" height="17.461417"/>
  </clipPath>
  <clipPath id="p2fdc9932b7">
   <rect x="4.72" y="18.181417" width="12.204724" height="52.384252"/>
  </clipPath>
 </defs>
</svg>
