<?xml version="1.0" encoding="utf-8" standalone="no"?>
<!DOCTYPE svg PUBLIC "-//W3C//DTD SVG 1.1//EN"
  "http://www.w3.org/Graphics/SVG/1.1/DTD/svg11.dtd">
<svg xmlns:xlink="http://www.w3.org/1999/xlink" width="56.36126pt" height="40.728189pt" viewBox="0 0 56.36126 40.728189" xmlns="http://www.w3.org/2000/svg" version="1.1">
 <metadata>
  <rdf:RDF xmlns:dc="http://purl.org/dc/elements/1.1/" xmlns:cc="http://creativecommons.org/ns#" xmlns:rdf="http://www.w3.org/1999/02/22-rdf-syntax-ns#">
   <cc:Work>
    <dc:type rdf:resource="http://purl.org/dc/dcmitype/StillImage"/>
    <dc:date>2025-02-17T13:49:15.814244</dc:date>
    <dc:format>image/svg+xml</dc:format>
    <dc:creator>
     <cc:Agent>
      <dc:title>Matplotlib v3.8.0, https://matplotlib.org/</dc:title>
     </cc:Agent>
    </dc:creator>
   </cc:Work>
  </rdf:RDF>
 </metadata>
 <defs>
  <style type="text/css">*{stroke-linejoin: round; stroke-linecap: butt}</style>
 </defs>
 <g id="figure_1">
  <g id="patch_1">
   <path d="M 0 40.728189 
L 56.36126 40.728189 
L 56.36126 0 
L 0 0 
z
" style="fill: #ffffff"/>
  </g>
  <g id="axes_1">
   <g id="patch_2">
    <path d="M 0.72 40.008189 
L 55.64126 40.008189 
L 55.64126 0.72 
L 0.72 0.72 
z
" style="fill: #ffffff"/>
   </g>
   <g id="matplotlib.axis_1"/>
   <g id="matplotlib.axis_2"/>
   <g id="line2d_1">
    <path d="M 0.72 2.167616 
L 0.734646 6.658313 
L 0.860356 38.30561 
L 0.816418 2.131148 
L 0.87073 31.998212 
L 0.902463 2.375888 
L 0.948231 37.580309 
L 1.007424 9.63021 
L 1.040988 37.482069 
L 1.085536 3.061205 
L 1.139847 33.175309 
L 1.174021 3.780666 
L 1.220399 36.502147 
L 1.280813 12.464647 
L 1.311325 36.516191 
L 1.355873 3.941111 
L 1.410185 33.363182 
L 1.537115 4.577048 
L 1.492568 35.797563 
L 1.552371 13.163405 
L 1.581663 35.746757 
L 1.625601 5.098573 
L 1.681133 32.57603 
L 1.716527 5.287033 
L 1.762905 35.134812 
L 1.823319 13.275059 
L 1.852001 34.925617 
L 1.897769 5.64126 
L 1.953301 31.526746 
L 1.988695 5.818922 
L 2.033853 34.724349 
L 2.091826 11.426684 
L 2.122949 34.326794 
L 2.169327 6.299604 
L 2.224249 30.808443 
L 2.259643 6.46686 
L 2.304191 33.9056 
L 2.363995 12.880176 
L 2.393897 33.705887 
L 2.440275 6.801685 
L 2.495807 30.105321 
L 2.530591 7.145583 
L 2.575749 33.103412 
L 2.633722 12.259629 
L 2.756381 33.086809 
L 2.710002 7.571576 
L 2.767365 29.409799 
L 2.801539 7.707132 
L 2.846697 32.848902 
L 2.90467 12.499537 
L 2.937623 32.813573 
L 2.982171 8.210222 
L 3.039534 28.141691 
L 3.073097 8.05555 
L 3.118255 32.248248 
L 3.173177 11.59249 
L 3.20735 32.025793 
L 3.252508 8.650653 
L 3.308041 29.388286 
L 3.343435 8.746683 
L 3.387982 31.823373 
L 3.449617 15.173737 
L 3.478298 31.684744 
L 3.524677 8.990857 
L 3.579599 28.615741 
L 3.614383 9.16614 
L 3.660151 31.338622 
L 3.717514 13.536551 
L 3.749246 31.223217 
L 3.794404 9.486727 
L 3.846885 29.739724 
L 3.976257 9.750049 
L 3.929878 30.921246 
L 3.993954 17.614289 
L 4.11112 30.754426 
L 4.065962 9.860945 
L 4.119054 29.146097 
L 4.155668 10.07239 
L 4.201436 30.544884 
L 4.26185 15.372179 
L 4.290532 30.425173 
L 4.33691 10.32424 
L 4.391222 28.012815 
L 4.517542 10.564179 
L 4.471164 30.188824 
L 4.529747 14.056912 
L 4.5627 30.077021 
L 4.606638 10.657688 
L 4.664611 26.702936 
L 4.697564 10.631806 
L 4.742722 29.683905 
L 4.801305 14.667359 
L 4.834869 29.639761 
L 4.878196 11.114795 
L 4.934948 26.71663 
L 4.969122 11.163172 
L 5.01367 29.269948 
L 5.071033 14.327755 
L 5.105206 29.289482 
L 5.149144 11.246268 
L 5.207117 25.936764 
L 5.330996 11.445858 
L 5.284618 29.111828 
L 5.34137 14.366463 
L 5.464639 28.895352 
L 5.420702 12.027469 
L 5.478065 25.837062 
L 5.510408 11.870289 
L 5.554955 28.762817 
L 5.612928 14.876734 
L 5.645271 28.810665 
L 5.689819 12.04587 
L 5.745961 26.601246 
L 5.781355 12.005432 
L 5.827124 28.589369 
L 5.882046 14.468489 
L 6.005925 28.360504 
L 5.961377 12.442405 
L 6.01935 25.245924 
L 6.051693 12.368885 
L 6.097461 28.138072 
L 6.153604 15.074722 
L 6.186557 28.120435 
L 6.232325 12.443317 
L 6.290298 25.192321 
L 6.323251 12.49393 
L 6.369019 28.021121 
L 6.423941 14.924442 
L 6.457505 27.779195 
L 6.503883 12.631352 
L 6.561856 24.722556 
L 6.592979 13.007765 
L 6.637526 27.77731 
L 6.69611 15.557884 
L 6.727842 27.526364 
L 6.773 13.072904 
L 6.830363 25.329902 
L 6.953632 13.071902 
L 6.909695 27.396748 
L 6.970109 17.189839 
L 7.000011 27.465106 
L 7.044558 13.313268 
L 7.09948 25.610072 
L 7.22458 13.472299 
L 7.179422 27.246562 
L 7.237395 15.903134 
L 7.269128 27.104461 
L 7.316117 13.491154 
L 7.372869 24.468443 
L 7.405212 13.580793 
L 7.45098 26.702885 
L 7.507123 15.803086 
L 7.540686 27.003262 
L 7.585844 13.673607 
L 7.644427 24.080581 
L 7.764035 13.869335 
L 7.721318 26.708307 
L 7.778681 16.112371 
L 7.900119 26.677769 
L 7.856792 13.885019 
L 7.912934 24.880015 
L 7.945277 14.152084 
L 7.991656 26.579753 
L 8.051459 17.004877 
L 8.173508 26.603052 
L 8.12713 14.227281 
L 8.182662 25.156927 
L 8.308372 14.325878 
L 8.262603 26.203925 
L 8.320577 16.472215 
L 8.352919 26.460613 
L 8.399298 14.321144 
L 8.45361 24.708215 
L 8.488393 14.473735 
L 8.534162 26.256917 
L 8.593355 17.375369 
L 8.714183 26.107934 
L 8.668415 14.427344 
L 8.726998 23.714305 
L 8.849047 14.617639 
L 8.803889 25.870811 
L 8.858811 16.038814 
L 8.894815 26.016618 
L 8.940583 14.68299 
L 8.998557 23.253081 
L 9.118164 14.679448 
L 9.074227 25.807191 
L 9.13159 16.650589 
L 9.256079 25.849697 
L 9.209701 14.836409 
L 9.269504 23.2752 
L 9.300627 14.886516 
L 9.345175 25.716221 
L 9.399486 16.062232 
L 9.43488 25.7055 
L 9.480038 15.143215 
L 9.539232 23.434353 
L 9.66067 15.026319 
L 9.616122 25.522642 
L 9.674706 17.315083 
L 9.703997 25.50384 
L 9.750376 15.267766 
L 9.806518 24.276417 
L 9.840692 15.174141 
L 9.88585 25.395632 
L 9.941992 16.582612 
L 9.977386 25.418707 
L 10.021934 15.381849 
L 10.079907 23.33127 
L 10.201956 15.262573 
L 10.157408 25.064651 
L 10.216602 17.66817 
L 10.246503 25.102723 
L 10.292272 15.506866 
L 10.347194 24.175651 
L 10.381367 15.486479 
L 10.427746 25.11992 
L 10.486329 17.621823 
L 10.608378 24.959306 
L 10.562609 15.768915 
L 10.618141 23.769744 
L 10.653536 15.687955 
L 10.697473 24.832699 
L 10.757277 17.880686 
L 10.78901 25.119289 
L 10.833557 15.722097 
L 10.889089 23.833575 
L 10.923263 15.778811 
L 10.968421 24.947035 
L 11.027004 17.776586 
L 11.060568 24.948794 
L 11.103895 15.910044 
L 11.161258 23.41647 
L 11.19299 15.797162 
L 11.240589 24.867288 
L 11.296121 17.397327 
L 11.328464 24.825236 
L 11.376063 15.966323 
L 11.430985 23.36039 
L 11.465769 16.046598 
L 11.510317 24.598973 
L 11.566459 17.50857 
L 11.600633 24.601032 
L 11.64518 15.983544 
L 11.701933 23.090535 
L 11.736107 16.071931 
L 11.781265 24.525199 
L 11.832525 16.66592 
L 11.87036 24.540661 
L 11.913687 16.17698 
L 11.977153 21.904339 
L 12.005224 16.219607 
L 12.050382 24.34043 
L 12.103473 16.707192 
L 12.231014 24.247158 
L 12.184635 16.351778 
L 12.249931 21.469376 
L 12.366488 16.358768 
L 12.32133 24.444988 
L 12.374421 17.06035 
L 12.411035 24.372198 
L 12.456193 16.528637 
L 12.517828 22.085217 
L 12.636215 16.564669 
L 12.591667 24.392612 
L 12.646589 17.473774 
L 12.683204 24.29762 
L 12.727141 16.539853 
L 12.783284 23.113022 
L 12.816847 16.547619 
L 12.863225 24.198702 
L 12.919978 18.096883 
L 12.952931 24.162643 
L 12.997479 16.588475 
L 13.053621 23.078851 
L 13.177501 16.631616 
L 13.132953 24.084165 
L 13.190316 18.065949 
L 13.222659 23.964121 
L 13.269037 16.753314 
L 13.322738 23.205888 
L 13.358743 16.705076 
L 13.40268 23.929176 
L 13.462484 18.309829 
L 13.491776 23.850769 
L 13.537544 16.702606 
L 13.594297 22.983247 
L 13.62847 16.740872 
L 13.673628 23.88346 
L 13.732822 18.249491 
L 13.85365 23.868246 
L 13.808492 16.89124 
L 13.863414 22.989452 
L 13.898808 16.958296 
L 13.945186 23.981832 
L 14.001939 18.062416 
L 14.034282 23.946605 
L 14.08005 16.915429 
L 14.136803 22.557028 
L 14.169756 16.987282 
L 14.214303 23.856049 
L 14.270446 17.973522 
L 14.30523 23.766295 
L 14.347336 16.958118 
L 14.403479 23.15053 
L 14.529799 17.11557 
L 14.484641 23.46977 
L 14.545055 18.639661 
L 14.665273 23.715738 
L 14.619505 17.073384 
L 14.676257 22.591328 
L 14.709821 16.990339 
L 14.754369 23.408585 
L 14.811731 18.216154 
L 14.847736 23.497131 
L 14.888012 17.24848 
L 14.947205 22.546102 
L 14.980769 17.000339 
L 15.027757 23.373844 
L 15.082069 18.209201 
L 15.205948 23.503732 
L 15.16079 17.080778 
L 15.219984 22.158921 
L 15.249276 17.278489 
L 15.295044 23.379664 
L 15.353017 18.329342 
L 15.476286 23.431889 
L 15.431128 17.301046 
L 15.488491 22.403561 
L 15.61237 17.306609 
L 15.565381 23.472735 
L 15.623965 18.328782 
L 15.747234 23.549843 
L 15.702076 17.342983 
L 15.758218 22.496206 
L 15.791782 17.364029 
L 15.83694 23.352139 
L 15.893692 18.404439 
L 15.926035 23.168073 
L 15.971803 17.515085 
L 16.033438 21.533156 
L 16.06395 17.376891 
L 16.107277 23.288927 
L 16.16403 18.437877 
L 16.287299 23.110361 
L 16.242751 17.386656 
L 16.303776 21.817741 
L 16.331847 17.590635 
L 16.377615 23.14391 
L 16.434368 18.469118 
L 16.46671 23.151962 
L 16.513089 17.533237 
L 16.569841 22.143752 
L 16.69189 17.552263 
L 16.647953 23.176601 
L 16.707756 18.955243 
L 16.740099 23.130908 
L 16.782816 17.784071 
L 16.837738 22.452257 
L 16.963448 17.768592 
L 16.91829 23.032226 
L 16.978704 19.1249 
L 17.008606 23.106324 
L 17.053154 17.539479 
L 17.108076 22.50708 
L 17.235617 17.601914 
L 17.187407 22.98647 
L 17.246601 18.478416 
L 17.279554 23.248776 
L 17.324712 17.735035 
L 17.383906 21.793659 
L 17.502903 17.856188 
L 17.461406 22.782368 
L 17.516328 18.595608 
L 17.639597 22.995727 
L 17.593829 17.862462 
L 17.650582 22.142664 
L 17.774461 17.752193 
L 17.728693 22.771368 
L 17.788497 18.803248 
L 17.82145 22.860063 
L 17.865387 17.946327 
L 17.92153 22.138487 
L 18.045409 17.8351 
L 17.99659 22.749463 
L 18.060055 18.939201 
L 18.181493 22.863475 
L 18.135725 17.939173 
L 18.191867 22.118075 
L 18.22421 18.048578 
L 18.271199 22.654157 
L 18.329782 19.016664 
L 18.453662 22.760811 
L 18.406673 18.019258 
L 18.463425 21.90226 
L 18.584864 17.925137 
L 18.541537 22.914023 
L 18.597679 18.807559 
L 18.631242 22.827644 
L 18.6764 18.040166 
L 18.729491 22.260488 
L 18.766106 17.860248 
L 18.809433 22.86391 
L 18.872899 19.533073 
L 18.903411 22.655171 
L 18.945517 18.197662 
L 19.00227 21.971922 
L 19.12737 18.07046 
L 19.081602 22.452432 
L 19.137744 18.73539 
L 19.170087 22.654362 
L 19.218296 18.180939 
L 19.272608 21.75277 
L 19.305561 18.030203 
L 19.351939 22.733442 
L 19.408082 18.642095 
L 19.439814 22.579988 
L 19.486803 18.306007 
L 19.544166 21.530949 
L 19.578339 18.061169 
L 19.621667 22.359722 
L 19.682081 19.240029 
L 19.711372 22.601397 
L 19.75592 18.248248 
L 19.810842 22.005511 
L 19.849287 18.228526 
L 19.893835 22.485087 
L 19.948147 18.869061 
L 19.982931 22.527371 
L 20.028089 18.322181 
L 20.083621 21.739017 
L 20.116574 18.227712 
L 20.161732 22.540029 
L 20.217874 18.877175 
L 20.341143 22.463723 
L 20.295375 18.293282 
L 20.35945 21.307066 
L 20.477838 18.376691 
L 20.432069 22.403164 
L 20.489432 18.969273 
L 20.613312 22.422687 
L 20.563882 18.328417 
L 20.623075 21.906511 
L 20.65908 18.24612 
L 20.702407 22.113846 
L 20.762211 19.287219 
L 20.881819 22.474682 
L 20.837271 18.342357 
L 20.893413 21.954833 
L 20.930638 18.321779 
L 20.973965 22.145406 
L 21.034379 19.576008 
L 21.153987 22.252838 
L 21.108219 18.30085 
L 21.163751 21.796732 
L 21.199755 18.431636 
L 21.241252 22.277484 
L 21.303496 19.443216 
L 21.424935 22.347594 
L 21.379777 18.312763 
L 21.435919 21.787131 
L 21.467042 18.456824 
L 21.514641 22.092207 
L 21.572614 19.344274 
L 21.694662 22.256745 
L 21.648284 18.371912 
L 21.706867 21.534928 
L 21.830136 18.477664 
L 21.783147 22.095428 
L 21.84051 19.162121 
L 21.873463 22.25316 
L 21.918621 18.426397 
L 21.971102 21.995259 
L 22.011378 18.544217 
L 22.055316 22.151159 
L 22.122443 20.475653 
L 22.143801 22.096301 
L 22.19079 18.416712 
L 22.24266 21.898632 
L 22.369591 18.658046 
L 22.325653 21.944314 
L 22.385457 19.605931 
L 22.414749 22.21161 
L 22.461738 18.492156 
L 22.514219 21.669069 
L 22.637488 18.592395 
L 22.594771 21.893644 
L 22.652133 19.311616 
L 22.686307 22.071859 
L 22.730855 18.532457 
L 22.783946 21.60093 
L 22.909656 18.60087 
L 22.864498 21.974678 
L 22.923081 19.376257 
L 22.956034 22.153178 
L 22.999972 18.623334 
L 23.053063 21.687115 
L 23.181214 18.561279 
L 23.134225 22.089497 
L 23.19647 19.591042 
L 23.225762 22.088804 
L 23.27031 18.743235 
L 23.324621 21.546885 
L 23.450331 18.595507 
L 23.406394 21.944287 
L 23.464977 19.363517 
L 23.585195 21.980804 
L 23.540037 18.780031 
L 23.595569 21.594006 
L 23.720669 18.616288 
L 23.677952 21.947318 
L 23.735925 19.421974 
L 23.768268 21.891244 
L 23.812205 18.922131 
L 23.868348 21.256884 
L 23.989786 18.687641 
L 23.945849 21.944668 
L 24.004432 19.269425 
L 24.034334 21.863547 
L 24.080712 18.936505 
L 24.143567 20.82389 
L 24.260124 18.686047 
L 24.215576 21.832613 
L 24.271718 19.070578 
L 24.308943 21.741489 
L 24.35227 18.91871 
L 24.403531 21.446283 
L 24.530461 18.750567 
L 24.485914 22.002834 
L 24.55182 20.10647 
L 24.579891 21.842818 
L 24.622608 18.811675 
L 24.676309 21.390976 
L 24.711093 18.754407 
L 24.756862 21.931116 
L 24.817276 19.65355 
L 24.939324 21.800506 
L 24.889895 18.944239 
L 24.946037 21.566933 
L 25.074798 18.877266 
L 25.027199 21.784251 
L 25.088224 19.634509 
L 25.208441 21.819211 
L 25.162063 18.971616 
L 25.216375 21.501917 
L 25.251769 18.83195 
L 25.298757 21.78894 
L 25.360392 19.840637 
L 25.476338 21.665667 
L 25.433011 19.044182 
L 25.486712 21.305166 
L 25.520886 18.822532 
L 25.565434 21.754502 
L 25.624017 19.48381 
L 25.65819 21.748469 
L 25.701518 19.059635 
L 25.763152 20.980036 
L 25.793054 18.874369 
L 25.837602 21.586754 
L 25.891914 19.37217 
L 26.015793 21.772163 
L 25.968194 19.128841 
L 26.032269 20.955964 
L 26.062171 18.978479 
L 26.10794 21.781309 
L 26.1592 19.281145 
L 26.28552 21.77751 
L 26.242803 18.919572 
L 26.306879 20.786603 
L 26.332509 18.965494 
L 26.378277 21.778789 
L 26.433809 19.487711 
L 26.559519 21.704119 
L 26.51192 18.973073 
L 26.573555 21.057909 
L 26.603457 19.016866 
L 26.649225 21.568756 
L 26.700486 19.318644 
L 26.829247 21.702975 
L 26.784089 19.0698 
L 26.848164 20.607635 
L 26.877456 19.129926 
L 26.923224 21.38484 
L 26.972654 19.469676 
L 27.097143 21.55106 
L 27.053206 18.945755 
L 27.115451 20.77911 
L 27.145963 19.222358 
L 27.18868 21.543022 
L 27.241161 19.405811 
L 27.277165 21.618918 
L 27.321713 19.033057 
L 27.380296 21.23951 
L 27.41386 19.222402 
L 27.456577 21.414619 
L 27.516991 19.79275 
L 27.639039 21.638126 
L 27.594492 19.087181 
L 27.650634 21.156233 
L 27.771462 19.231593 
L 27.726914 21.543386 
L 27.779395 19.342269 
L 27.815399 21.583856 
L 27.864829 19.105134 
L 27.925243 20.853263 
L 28.039969 19.259782 
L 27.999083 21.377955 
L 28.050343 19.513056 
L 28.088178 21.584919 
L 28.134557 19.191083 
L 28.19436 20.929383 
L 28.312137 19.253371 
L 28.26759 21.442794 
L 28.323732 19.532637 
L 28.359736 21.588019 
L 28.406115 19.17006 
L 28.465308 20.844309 
L 28.584306 19.152981 
L 28.538537 21.301427 
L 28.590408 19.354848 
L 28.629464 21.4228 
L 28.675232 19.282358 
L 28.731374 20.951476 
L 28.850982 19.255917 
L 28.808265 21.519688 
L 28.863797 19.534789 
L 28.900412 21.481085 
L 28.943739 19.392624 
L 29.004763 20.889883 
L 29.12315 19.243292 
L 29.077992 21.339113 
L 29.137796 19.722694 
L 29.168308 21.482756 
L 29.214076 19.456095 
L 29.271439 20.875852 
L 29.393488 19.199793 
L 29.34833 21.465894 
L 29.410575 19.836302 
L 29.441087 21.411042 
L 29.485635 19.373035 
L 29.538726 21.074654 
L 29.665656 19.272917 
L 29.620498 21.475706 
L 29.680912 19.771936 
L 29.707153 21.323475 
L 29.752921 19.505155 
L 29.812725 20.888212 
L 29.935994 19.336765 
L 29.887174 21.404147 
L 29.948199 19.642635 
L 29.979931 21.443805 
L 30.025089 19.47482 
L 30.084283 20.682741 
L 30.205111 19.351109 
L 30.159343 21.327987 
L 30.214265 19.538899 
L 30.338144 21.353799 
L 30.294207 19.521008 
L 30.3534 20.783331 
L 30.385133 19.376496 
L 30.430291 21.366924 
L 30.483382 19.593021 
L 30.607871 21.273109 
L 30.565765 19.561357 
L 30.63045 20.288117 
L 30.653029 19.378434 
L 30.700018 21.390681 
L 30.752499 19.576559 
L 30.882481 21.276238 
L 30.835492 19.518483 
L 30.899568 20.496152 
L 30.925198 19.368187 
L 30.972187 21.323553 
L 31.021006 19.619638 
L 31.148547 21.351833 
L 31.172956 20.25792 
L 31.196756 19.387505 
L 31.244355 21.244031 
L 31.292564 19.715519 
L 31.418274 21.219366 
L 31.374337 19.570696 
L 31.444515 20.272031 
L 31.465873 19.439565 
L 31.5092 21.323829 
L 31.564732 19.776193 
L 31.692884 21.263391 
L 31.642844 19.572815 
L 31.70814 20.735692 
L 31.736211 19.436594 
L 31.780759 21.052321 
L 31.832629 19.768596 
L 31.95956 21.222652 
L 31.90952 19.560469 
L 31.971154 20.924745 
L 32.004107 19.500275 
L 32.051096 21.305259 
L 32.104187 19.745989 
L 32.229897 21.292238 
L 32.184739 19.514959 
L 32.256748 20.229353 
L 32.278717 19.474304 
L 32.322044 21.129025 
L 32.375135 19.820471 
L 32.499015 21.252391 
L 32.455687 19.461491 
L 32.51183 20.961193 
L 32.545393 19.552331 
L 32.591771 21.190406 
L 32.646693 19.861819 
L 32.678426 21.238404 
L 32.724804 19.513793 
L 32.784608 20.873371 
L 32.906657 19.67826 
L 32.861499 21.049408 
L 32.91337 19.806357 
L 33.0403 21.249741 
L 32.993311 19.517933 
L 33.056166 20.750912 
L 33.086679 19.668977 
L 33.131226 21.069467 
L 33.181876 19.763173 
L 33.223373 21.229392 
L 33.264869 19.539431 
L 33.318571 20.953458 
L 33.355185 19.714016 
L 33.400343 21.010294 
L 33.463198 20.151382 
L 33.583416 21.198638 
L 33.533987 19.59095 
L 33.589519 21.0911 
L 33.713398 19.62931 
L 33.731705 20.092601 
L 33.761607 21.174313 
L 33.805545 19.532088 
L 33.861077 20.788175 
L 33.981905 19.598468 
L 33.937968 21.100643 
L 33.995941 19.943004 
L 34.031335 21.1892 
L 34.076493 19.609933 
L 34.133856 20.8969 
L 34.257125 19.61726 
L 34.209526 21.116417 
L 34.266278 19.813307 
L 34.301672 21.123999 
L 34.351712 19.677967 
L 34.409075 20.559761 
L 34.525632 19.572103 
L 34.484135 20.972544 
L 34.534175 19.731136 
L 34.5714 21.136893 
L 34.619609 19.697698 
L 34.674531 20.722723 
L 34.795359 19.703653 
L 34.74776 21.149773 
L 34.806343 19.888353 
L 34.841127 20.990258 
L 34.884454 19.768438 
L 34.946089 20.663857 
L 35.067527 19.652791 
L 35.018098 20.942416 
L 35.070579 19.701306 
L 35.110855 21.155643 
L 35.22436 20.28399 
L 35.336034 19.665422 
L 35.290876 21.135261 
L 35.343967 19.782045 
L 35.469067 20.951597 
L 35.489205 20.460949 
L 35.608203 19.665038 
L 35.558773 21.081082 
L 35.617356 19.800165 
L 35.655191 21.080179 
L 35.760763 20.494103 
L 35.874879 19.681766 
L 35.830941 21.04711 
L 35.895017 20.142002 
L 35.918206 21.054768 
L 35.965805 19.834858 
L 36.017676 20.80592 
L 36.05368 19.706365 
L 36.102499 21.092834 
L 36.10311 21.078356 
L 36.10372 21.086263 
L 36.132401 20.020019 
L 36.148268 19.763831 
L 36.194646 20.896882 
L 36.244686 19.942878 
L 36.281911 21.063497 
L 36.328289 19.77246 
L 36.385042 20.707613 
L 36.415554 19.866173 
L 36.463763 20.981699 
L 36.515024 19.977899 
L 36.641344 21.04478 
L 36.596796 19.71377 
L 36.661482 20.491088 
L 36.686502 19.828527 
L 36.729829 20.833546 
L 36.78231 19.901735 
L 36.817094 21.034498 
L 36.865303 19.741307 
L 36.93365 20.387377 
L 36.955619 19.852754 
L 37.002608 20.932204 
L 37.055699 20.035872 
L 37.180189 20.977011 
L 37.135031 19.708811 
L 37.191173 20.867288 
L 37.312001 19.865933 
L 37.266843 20.98246 
L 37.33336 20.248465 
L 37.360821 20.981111 
L 37.406589 19.785361 
L 37.46029 20.810907 
L 37.586 19.828285 
L 37.537791 20.854849 
L 37.601256 20.159179 
L 37.630548 21.034237 
L 37.679367 19.804064 
L 37.731848 20.758426 
L 37.853287 19.858322 
L 37.809349 20.997615 
L 37.872814 20.244294 
L 37.989981 20.996573 
L 37.945433 19.838482 
L 38.002796 20.750836 
L 38.121794 19.84607 
L 38.076636 20.899682 
L 38.13705 20.015724 
L 38.173054 20.989572 
L 38.21394 19.888397 
L 38.268862 20.739291 
L 38.393352 19.805983 
L 38.353686 20.938827 
L 38.407387 20.047486 
L 38.530046 20.951986 
L 38.486719 19.890255 
L 38.545302 20.688077 
L 38.663079 19.746306 
L 38.619142 20.957543 
L 38.676504 20.005859 
L 38.688709 20.450595 
L 38.713729 20.939965 
L 38.757056 19.939549 
L 38.808317 20.724764 
L 38.937688 19.809933 
L 38.886428 20.906644 
L 38.951114 20.14225 
L 38.979185 20.956045 
L 39.026174 19.911245 
L 39.083536 20.713604 
L 39.207416 19.819221 
L 39.159817 20.992556 
L 39.215959 19.908748 
L 39.339228 20.892946 
L 39.353874 20.607476 
L 39.474702 19.885128 
L 39.426493 20.863701 
L 39.479584 19.935207 
L 39.49484 20.28664 
L 39.51986 20.959167 
L 39.562577 19.917387 
L 39.614448 20.744173 
L 39.655944 19.874981 
L 39.69439 20.933582 
L 39.700492 20.956508 
L 39.712697 20.746902 
L 39.74565 19.909934 
L 39.792639 20.805954 
L 39.850612 20.228166 
L 39.879904 20.939903 
L 39.92079 19.850409 
L 39.981814 20.661527 
L 40.012326 19.888319 
L 40.061756 20.922005 
L 40.124611 20.328103 
L 40.242388 20.926589 
L 40.191738 19.879996 
L 40.24849 20.837863 
L 40.37359 19.949137 
L 40.377862 19.989064 
L 40.387016 20.133958 
L 40.506013 20.902856 
L 40.462686 19.827538 
L 40.513946 20.861535 
L 40.557884 19.928703 
L 40.65003 20.028716 
L 40.689086 20.951739 
L 40.734244 19.848675 
L 40.797099 20.564426 
L 40.914266 19.950785 
L 40.866056 20.779715 
L 40.918537 19.978609 
L 41.05035 20.934073 
L 41.005192 19.903659 
L 41.074149 20.286213 
L 41.182772 19.94031 
L 41.137614 20.752063 
L 41.194977 20.118879 
L 41.229761 20.920921 
L 41.27675 19.931385 
L 41.329841 20.587357 
L 41.355471 20.054088 
L 41.450669 19.965605 
L 41.404291 20.852342 
L 41.463484 20.09362 
L 41.589194 20.884938 
L 41.538544 19.932103 
L 41.60445 20.662074 
L 41.725278 19.939267 
L 41.677069 20.774594 
L 41.736263 20.103007 
L 41.766775 20.901438 
L 41.816205 19.960747 
L 41.863193 20.763607 
L 41.989514 19.869581 
L 41.952289 20.837892 
L 42.007821 20.181055 
L 42.036502 20.866501 
L 42.084712 19.913454 
L 42.133531 20.805278 
L 42.262903 19.963231 
L 42.212252 20.82727 
L 42.275718 20.10722 
L 42.401428 20.805766 
L 42.347726 20.042423 
L 42.408751 20.733645 
L 42.535071 19.912755 
L 42.486251 20.744994 
L 42.545445 20.075008 
L 42.577788 20.882055 
L 42.623556 19.99826 
L 42.677868 20.645393 
L 42.801747 20.000882 
L 42.756589 20.894019 
L 42.80785 20.043727 
L 42.936611 20.791125 
L 42.893284 19.999496 
L 42.942103 20.739342 
L 43.072085 19.980302 
L 43.023265 20.76577 
L 43.078797 19.992127 
L 43.117853 20.869654 
L 43.222205 20.55309 
L 43.342422 19.977925 
L 43.297875 20.852816 
L 43.347915 20.007555 
L 43.473625 20.792167 
L 43.489491 20.607268 
L 43.519393 19.992104 
L 43.566992 20.815515 
L 43.628626 20.22606 
L 43.659749 20.768036 
L 43.701245 20.059125 
L 43.751285 20.707551 
L 43.792782 20.013628 
L 43.83855 20.779281 
L 43.905066 20.41715 
L 43.928256 20.815923 
L 43.969142 20.038559 
L 44.023454 20.743169 
L 44.058848 19.97585 
L 44.108277 20.791489 
L 44.179676 20.484929 
L 44.287079 20.765917 
L 44.2407 20.053386 
L 44.296842 20.66181 
L 44.420722 20.044373 
L 44.378005 20.730112 
L 44.429265 20.135817 
L 44.468321 20.800062 
L 44.511648 20.040624 
L 44.560467 20.712356 
L 44.605015 20.001167 
L 44.645901 20.759984 
L 44.705705 20.185938 
L 44.824092 20.793696 
L 44.785647 20.087648 
L 44.835077 20.696959 
L 44.86742 20.025032 
L 44.914408 20.729791 
L 44.96811 20.106282 
L 44.99374 20.645496 
L 45.09321 20.785937 
L 45.052934 20.014685 
L 45.105414 20.664959 
L 45.106025 20.666639 
L 45.120671 20.383286 
L 45.142029 20.038909 
L 45.188407 20.756305 
L 45.239058 20.145816 
L 45.273231 20.747555 
L 45.275672 20.777239 
L 45.314728 20.074578 
L 45.378803 20.632136 
L 45.412977 20.015243 
L 45.456304 20.786908 
L 45.508785 20.116885 
L 45.638767 20.779447 
L 45.593609 20.039732 
L 45.659515 20.381084 
L 45.770579 20.088967 
L 45.730914 20.689288 
L 45.777902 20.135383 
L 45.820009 20.731481 
L 45.858454 20.046317 
L 45.920699 20.572868 
L 45.951821 20.054059 
L 45.993318 20.779168 
L 46.045189 20.089795 
L 46.084854 20.758005 
L 46.128182 20.065667 
L 46.192257 20.552252 
L 46.309424 20.069867 
L 46.259994 20.650304 
L 46.313696 20.086955 
L 46.442457 20.771621 
L 46.397299 20.042708 
L 46.470528 20.347712 
L 46.578541 20.070675 
L 46.537655 20.745005 
L 46.590136 20.17114 
L 46.621868 20.761466 
L 46.673739 20.050761 
L 46.72622 20.616103 
L 46.760393 20.099721 
L 46.80189 20.723633 
L 46.858032 20.153195 
L 46.986794 20.763665 
L 46.939805 20.059068 
L 46.994117 20.716013 
L 47.117996 20.055936 
L 47.140575 20.343791 
L 47.162544 20.779913 
L 47.211973 20.128599 
L 47.260182 20.628116 
L 47.387723 20.095057 
L 47.342565 20.748866 
L 47.391995 20.108925 
L 47.526859 20.761107 
L 47.48048 20.041572 
L 47.528689 20.736785 
L 47.662943 20.087681 
L 47.675758 20.252429 
L 47.704439 20.748502 
L 47.748987 20.165264 
L 47.802688 20.608145 
L 47.924737 20.032843 
L 47.885071 20.697023 
L 47.952808 20.474866 
L 48.065703 20.722375 
L 48.021155 20.079091 
L 48.071806 20.699857 
L 48.202398 20.09657 
L 48.229248 20.486641 
L 48.248166 20.677471 
L 48.289052 20.144229 
L 48.345195 20.589163 
L 48.423916 20.701688 
L 48.379368 20.083283 
L 48.445274 20.435853 
L 48.468464 20.058755 
L 48.513011 20.756505 
L 48.570984 20.17968 
L 48.692423 20.752216 
L 48.648485 20.1406 
L 48.698525 20.722473 
L 48.699135 20.729509 
L 48.739412 20.114607 
L 48.794944 20.563363 
L 48.827897 20.126235 
L 48.871224 20.713755 
L 48.930418 20.186469 
L 49.057348 20.720949 
L 49.005477 20.102305 
L 49.068943 20.631996 
L 49.100675 20.127624 
L 49.195873 20.179504 
L 49.236149 20.750985 
L 49.277036 20.148947 
L 49.322804 20.638575 
L 49.326465 20.641236 
L 49.334398 20.533985 
L 49.454006 20.076197 
L 49.415561 20.72141 
L 49.461939 20.116484 
L 49.593752 20.699066 
L 49.547983 20.095317 
L 49.600464 20.675925 
L 49.729226 20.129342 
L 49.74021 20.229728 
L 49.773773 20.694784 
L 49.817711 20.174584 
L 49.876294 20.578428 
L 49.997122 20.070212 
L 49.956846 20.672562 
L 50.000784 20.078045 
L 50.045332 20.687449 
L 50.150293 20.535414 
L 50.269291 20.12674 
L 50.222912 20.713104 
L 50.274783 20.17415 
L 50.399883 20.677986 
L 50.354114 20.158908 
L 50.414529 20.60381 
L 50.445651 20.123937 
L 50.490199 20.650628 
L 50.554884 20.260147 
L 50.584786 20.716952 
L 50.629334 20.163605 
L 50.681205 20.582214 
L 50.681815 20.582888 
L 50.69402 20.445385 
L 50.69463 20.44685 
L 50.806305 20.130587 
L 50.762367 20.71815 
L 50.814238 20.18389 
L 50.814848 20.180531 
L 50.848411 20.595869 
L 50.853293 20.587421 
L 50.941168 20.699572 
L 50.898451 20.15671 
L 50.958865 20.522697 
L 50.987547 20.144965 
L 51.032705 20.664546 
L 51.078473 20.172408 
L 51.125462 20.687022 
L 51.239577 20.336231 
L 51.350641 20.147892 
L 51.301822 20.686388 
L 51.354303 20.214742 
L 51.356744 20.20948 
L 51.365897 20.338968 
L 51.482454 20.700816 
L 51.435465 20.166176 
L 51.487946 20.675235 
L 51.524561 20.128068 
L 51.630743 20.27773 
L 51.747299 20.635889 
L 51.707023 20.185484 
L 51.757063 20.591295 
L 51.794288 20.169561 
L 51.838836 20.637332 
L 51.883994 20.20941 
L 51.887655 20.203165 
L 51.919998 20.592864 
L 51.932813 20.665915 
L 51.95112 20.469192 
L 52.065236 20.141384 
L 52.023129 20.639157 
L 52.07622 20.20809 
L 52.113445 20.649876 
L 52.157383 20.16898 
L 52.210474 20.545082 
L 52.292246 20.682921 
L 52.246478 20.203862 
L 52.310554 20.45036 
L 52.335574 20.155527 
L 52.378291 20.625914 
L 52.431992 20.194503 
L 52.473488 20.667528 
L 52.516205 20.143976 
L 52.566245 20.618608 
L 52.698058 20.189901 
L 52.647408 20.670068 
L 52.709652 20.293742 
L 52.82987 20.685722 
L 52.780441 20.203112 
L 52.85306 20.420178 
L 52.874418 20.132394 
L 52.922627 20.639927 
L 52.972057 20.208341 
L 52.990364 20.476332 
L 53.006231 20.67547 
L 53.05505 20.168279 
L 53.10631 20.633077 
L 53.233241 20.190133 
L 53.190524 20.643107 
L 53.250328 20.320351 
L 53.373597 20.647105 
L 53.322947 20.191405 
L 53.384581 20.541964 
L 53.416924 20.177456 
L 53.462692 20.646171 
L 53.50785 20.19361 
L 53.510902 20.205203 
L 53.520055 20.303309 
L 53.548737 20.660243 
L 53.592674 20.184949 
L 53.646375 20.604671 
L 53.684211 20.184784 
L 53.647596 20.606281 
L 53.784901 20.265683 
L 53.910611 20.655901 
L 53.861181 20.186183 
L 53.918544 20.604801 
L 54.043033 20.185831 
L 54.000316 20.64377 
L 54.049746 20.208316 
L 54.089412 20.640548 
L 54.179728 20.588358 
L 54.180948 20.594478 
L 54.212071 20.275717 
L 54.226106 20.202039 
L 54.262111 20.627994 
L 54.323745 20.269523 
L 54.451896 20.660345 
L 54.405518 20.172191 
L 54.454337 20.638406 
L 54.583098 20.162274 
L 54.598965 20.296265 
L 54.625205 20.657026 
L 54.677686 20.239953 
L 54.724065 20.580976 
L 54.76373 20.202251 
L 54.807058 20.65088 
L 54.858928 20.267204 
L 54.991961 20.644388 
L 54.945583 20.133193 
L 54.998064 20.615082 
L 55.126215 20.167218 
L 55.129266 20.218475 
L 55.170152 20.655071 
L 55.133538 20.217419 
L 55.279996 20.411016 
L 55.394111 20.203458 
L 55.347123 20.621595 
L 55.405096 20.317287 
L 55.525924 20.631603 
L 55.486868 20.178549 
L 55.530196 20.625208 
L 55.618681 20.628393 
L 55.571082 20.234004 
L 55.629665 20.560906 
L 55.64126 20.413667 
L 55.64126 20.413667 
" clip-path="url(#p3b0be29432)" style="fill: none; stroke: #a9a9a9; stroke-width: 0.04; stroke-linecap: square"/>
   </g>
   <g id="patch_3">
    <path d="M 0.72 40.008189 
L 0.72 0.72 
" style="fill: none; stroke: #a9a9a9; stroke-width: 0.5; stroke-linejoin: miter; stroke-linecap: square"/>
   </g>
   <g id="patch_4">
    <path d="M 55.64126 40.008189 
L 55.64126 0.72 
" style="fill: none; stroke: #a9a9a9; stroke-width: 0.5; stroke-linejoin: miter; stroke-linecap: square"/>
   </g>
   <g id="patch_5">
    <path d="M 0.72 40.008189 
L 55.64126 40.008189 
" style="fill: none; stroke: #a9a9a9; stroke-width: 0.5; stroke-linejoin: miter; stroke-linecap: square"/>
   </g>
   <g id="patch_6">
    <path d="M 0.72 0.72 
L 55.64126 0.72 
" style="fill: none; stroke: #a9a9a9; stroke-width: 0.5; stroke-linejoin: miter; stroke-linecap: square"/>
   </g>
  </g>
 </g>
 <defs>
  <clipPath id="p3b0be29432">
   <rect x="0.72" y="0.72" width="54.92126" height="39.288189"/>
  </clipPath>
 </defs>
</svg>
