<?xml version="1.0" encoding="utf-8" standalone="no"?>
<!DOCTYPE svg PUBLIC "-//W3C//DTD SVG 1.1//EN"
  "http://www.w3.org/Graphics/SVG/1.1/DTD/svg11.dtd">
<svg xmlns:xlink="http://www.w3.org/1999/xlink" width="56.36126pt" height="40.728189pt" viewBox="0 0 56.36126 40.728189" xmlns="http://www.w3.org/2000/svg" version="1.1">
 <metadata>
  <rdf:RDF xmlns:dc="http://purl.org/dc/elements/1.1/" xmlns:cc="http://creativecommons.org/ns#" xmlns:rdf="http://www.w3.org/1999/02/22-rdf-syntax-ns#">
   <cc:Work>
    <dc:type rdf:resource="http://purl.org/dc/dcmitype/StillImage"/>
    <dc:date>2025-02-17T13:49:15.916137</dc:date>
    <dc:format>image/svg+xml</dc:format>
    <dc:creator>
     <cc:Agent>
      <dc:title>Matplotlib v3.8.0, https://matplotlib.org/</dc:title>
     </cc:Agent>
    </dc:creator>
   </cc:Work>
  </rdf:RDF>
 </metadata>
 <defs>
  <style type="text/css">*{stroke-linejoin: round; stroke-linecap: butt}</style>
 </defs>
 <g id="figure_1">
  <g id="patch_1">
   <path d="M 0 40.728189 
L 56.36126 40.728189 
L 56.36126 0 
L 0 0 
z
" style="fill: #ffffff"/>
  </g>
  <g id="axes_1">
   <g id="patch_2">
    <path d="M 0.72 40.008189 
L 55.64126 40.008189 
L 55.64126 0.72 
L 0.72 0.72 
z
" style="fill: #ffffff"/>
   </g>
   <g id="matplotlib.axis_1"/>
   <g id="matplotlib.axis_2"/>
   <g id="line2d_1">
    <path d="M 0.72 2.090152 
L 0.727323 3.025953 
L 0.787737 38.604956 
L 0.843575 4.894279 
L 0.852729 1.970736 
L 0.897582 27.484375 
L 0.918635 38.067588 
L 0.976303 5.703028 
L 0.990034 2.800156 
L 1.039464 32.288901 
L 1.059602 37.792749 
L 1.108117 7.96298 
L 1.127339 2.69417 
L 1.174939 31.763359 
L 1.192331 37.74408 
L 1.243591 8.276694 
L 1.260068 2.650257 
L 1.314075 33.834856 
L 1.327805 37.33438 
L 1.377235 9.20272 
L 1.398289 3.119466 
L 1.446803 32.486088 
L 1.465111 37.375333 
L 1.511795 10.011844 
L 1.532848 3.212684 
L 1.583194 32.82897 
L 1.598755 37.291453 
L 1.648185 9.499531 
L 1.665577 3.419932 
L 1.716837 31.853025 
L 1.73423 36.872917 
L 1.784575 8.766159 
L 1.802882 3.392835 
L 1.855058 33.168654 
L 1.869704 36.992984 
L 1.915473 11.791814 
L 1.937442 3.63108 
L 1.991448 33.481424 
L 2.006094 36.662644 
L 2.050032 12.485046 
L 2.072916 3.960867 
L 2.127838 33.683186 
L 2.139738 36.564268 
L 2.183676 13.505905 
L 2.209306 3.787485 
L 2.263313 33.609747 
L 2.275213 36.425707 
L 2.322812 11.367733 
L 2.34295 4.331571 
L 2.396957 32.781998 
L 2.411603 36.213056 
L 2.456456 12.280702 
L 2.47934 4.269238 
L 2.533347 32.989634 
L 2.547078 36.063621 
L 2.591931 12.412421 
L 2.614815 4.557512 
L 2.666991 32.152847 
L 2.682552 35.894745 
L 2.731982 9.798837 
L 2.75029 4.486609 
L 2.800635 31.363576 
L 2.817112 35.836934 
L 2.866542 10.201144 
L 2.884849 4.631605 
L 2.937025 31.605361 
L 2.953502 35.739614 
L 3.003847 9.561518 
L 3.018493 4.978102 
L 3.067923 29.373903 
L 3.08623 35.356465 
L 3.144814 7.148775 
L 3.155798 4.815393 
L 3.19699 25.229947 
L 3.224451 35.43132 
L 3.281204 6.873481 
L 3.291273 5.28573 
L 3.33338 25.930844 
L 3.359926 35.295397 
L 3.416679 7.032937 
L 3.425832 5.433628 
L 3.467939 25.199122 
L 3.494485 35.151015 
L 3.552154 7.187003 
L 3.562223 5.366643 
L 3.60616 27.049743 
L 3.629045 34.991 
L 3.686713 7.437932 
L 3.696782 5.432778 
L 3.739804 25.804058 
L 3.764519 34.79243 
L 3.823103 7.097979 
L 3.835003 5.826358 
L 3.868871 21.640284 
L 3.900909 34.71562 
L 3.957662 7.590955 
L 3.966816 5.957365 
L 4.010754 25.95287 
L 4.035469 34.67557 
L 4.089475 8.858891 
L 4.103206 6.010469 
L 4.151721 29.073644 
L 4.171859 34.474403 
L 4.222204 10.2576 
L 4.239596 6.193021 
L 4.287195 29.108406 
L 4.306418 34.226578 
L 4.357679 10.320872 
L 4.375071 6.357331 
L 4.428162 31.468984 
L 4.442808 34.084654 
L 4.488577 12.615357 
L 4.50963 6.160671 
L 4.564552 31.707204 
L 4.578283 34.032614 
L 4.621305 14.038352 
L 4.645105 6.430662 
L 4.701858 32.224099 
L 4.713758 34.040204 
L 4.754949 15.150777 
L 4.780579 6.896812 
L 4.835502 31.45198 
L 4.849232 33.792912 
L 4.892255 13.960892 
L 4.916054 6.764518 
L 4.969146 30.763569 
L 4.982876 33.742188 
L 5.030475 12.582795 
L 5.050614 6.882381 
L 5.109197 32.355696 
L 5.118351 33.498424 
L 5.156796 17.803643 
L 5.185173 7.069034 
L 5.242841 31.711448 
L 5.253826 33.416469 
L 5.294102 16.54421 
L 5.320648 7.135156 
L 5.378316 31.711672 
L 5.3893 33.322977 
L 5.433238 14.581916 
L 5.456122 7.384869 
L 5.510129 30.310922 
L 5.524775 33.174934 
L 5.570543 13.710084 
L 5.594343 7.307899 
L 5.651096 31.920246 
L 5.66025 33.070142 
L 5.698695 17.443445 
L 5.727987 7.698451 
L 5.785655 31.818342 
L 5.795724 32.998824 
L 5.833255 17.968098 
L 5.863462 7.662768 
L 5.922045 31.812625 
L 5.931199 32.840841 
L 5.967814 18.635697 
L 5.998936 7.612394 
L 6.056605 31.487564 
L 6.065758 32.527254 
L 6.106035 17.000046 
L 6.133496 8.077144 
L 6.189333 30.679991 
L 6.203064 32.585092 
L 6.244255 15.476833 
L 6.270801 7.919553 
L 6.325723 30.931183 
L 6.336708 32.535616 
L 6.377899 16.375547 
L 6.40353 8.137972 
L 6.461198 30.804242 
L 6.473098 32.454806 
L 6.514289 15.902037 
L 6.539004 8.369271 
L 6.596673 30.869043 
L 6.606742 32.244948 
L 6.649764 15.854188 
L 6.67631 8.445495 
L 6.728486 29.677944 
L 6.744963 32.058681 
L 6.786154 15.401559 
L 6.810869 8.347604 
L 6.865791 30.205501 
L 6.877691 31.940457 
L 6.924375 13.955024 
L 6.945429 8.524717 
L 6.99852 29.266597 
L 7.014081 32.015655 
L 7.058934 14.313643 
L 7.079988 8.678328 
L 7.133995 29.120424 
L 7.148641 31.94422 
L 7.19624 13.54521 
L 7.217293 8.664713 
L 7.268554 28.920745 
L 7.284115 31.73888 
L 7.33263 13.225753 
L 7.352768 8.807605 
L 7.402198 28.233686 
L 7.41959 31.696538 
L 7.467189 13.78228 
L 7.486412 8.960747 
L 7.54408 29.997927 
L 7.555065 31.411627 
L 7.597172 15.852551 
L 7.623717 8.95451 
L 7.67864 29.836033 
L 7.690539 31.485909 
L 7.736308 14.416551 
L 7.757361 9.222088 
L 7.813199 29.626989 
L 7.825099 31.187184 
L 7.868121 16.015292 
L 7.893751 9.230503 
L 7.948674 29.425881 
L 7.959658 31.174915 
L 8.004511 15.458813 
L 8.031057 9.553386 
L 8.082318 28.943053 
L 8.096048 31.106981 
L 8.142732 14.397808 
L 8.164701 9.496099 
L 8.219623 29.615396 
L 8.231523 31.025086 
L 8.276376 15.243257 
L 8.298345 9.606832 
L 8.354182 29.105064 
L 8.366998 30.948021 
L 8.409105 16.228449 
L 8.43565 9.839328 
L 8.490572 29.303971 
L 8.502472 30.914901 
L 8.545495 15.861506 
L 8.57021 9.831825 
L 8.624216 28.707391 
L 8.637032 30.853066 
L 8.683715 14.847993 
L 8.703854 9.82264 
L 8.761522 29.360422 
L 8.773422 30.499563 
L 8.812783 17.613099 
L 8.841159 10.166733 
L 8.897912 29.429464 
L 8.907066 30.452861 
L 8.947342 17.727141 
L 8.976634 10.156398 
L 9.031556 28.884941 
L 9.043456 30.473813 
L 9.09014 14.796793 
L 9.111193 9.9964 
L 9.167031 28.970579 
L 9.178015 30.494679 
L 9.217376 18.117279 
L 9.245752 10.224772 
L 9.302505 29.002166 
L 9.312574 30.356393 
L 9.353766 17.70695 
L 9.382142 10.266834 
L 9.438895 29.016321 
L 9.44988 30.239547 
L 9.492902 16.164074 
L 9.517617 10.248374 
L 9.567962 27.165936 
L 9.585354 30.079535 
L 9.632954 14.354497 
L 9.654007 10.529888 
L 9.703437 27.296005 
L 9.719914 30.014198 
L 9.769344 13.923063 
L 9.788566 10.455587 
L 9.842573 28.255672 
L 9.855388 29.901479 
L 9.900242 15.674957 
L 9.923126 10.695477 
L 9.980794 29.000126 
L 9.989948 30.020142 
L 10.032055 17.071903 
L 10.058601 10.827858 
L 10.113523 28.173611 
L 10.125423 29.586454 
L 10.16936 16.241648 
L 10.194075 11.045985 
L 10.247167 27.658424 
L 10.260897 29.655343 
L 10.309412 14.451601 
L 10.328635 10.969686 
L 10.379895 26.766745 
L 10.396372 29.644982 
L 10.447633 13.657333 
L 10.464109 11.220928 
L 10.512624 26.071221 
L 10.531847 29.472036 
L 10.584938 13.105258 
L 10.598669 11.174771 
L 10.646268 25.35853 
L 10.667321 29.364843 
L 10.721328 12.802899 
L 10.735059 11.204293 
L 10.777166 23.634438 
L 10.803711 29.225644 
L 10.857718 12.868769 
L 10.870533 11.521019 
L 10.913556 24.351232 
L 10.939186 29.223033 
L 10.988616 14.063683 
L 11.006008 11.395402 
L 11.058184 27.29122 
L 11.071915 29.07771 
L 11.12226 14.549246 
L 11.140567 11.652851 
L 11.189082 25.742243 
L 11.207389 29.087345 
L 11.262312 13.188895 
L 11.275127 11.503134 
L 11.326387 26.351649 
L 11.342864 29.058608 
L 11.392294 15.022274 
L 11.410601 11.562095 
L 11.467354 27.828466 
L 11.478339 28.86274 
L 11.523192 16.227304 
L 11.546991 11.688788 
L 11.600998 27.350996 
L 11.613813 28.786614 
L 11.662328 15.20221 
L 11.681551 11.747538 
L 11.736473 27.109938 
L 11.749288 28.654709 
L 11.796887 15.414051 
L 11.817026 11.99556 
L 11.869202 26.319129 
L 11.885678 28.716069 
L 11.936024 14.279815 
L 11.951585 12.076869 
L 11.999184 24.738871 
L 12.020238 28.582235 
L 12.077906 12.949047 
L 12.08889 12.209255 
L 12.12459 21.503532 
L 12.155712 28.440617 
L 12.213381 12.888541 
L 12.222534 12.058395 
L 12.266472 23.794972 
L 12.290272 28.469501 
L 12.346109 13.665518 
L 12.357094 12.330519 
L 12.403777 24.406215 
L 12.425746 28.20903 
L 12.479753 13.936415 
L 12.493484 12.590263 
L 12.543829 25.675176 
L 12.561221 28.254704 
L 12.606989 16.080134 
L 12.628043 12.280803 
L 12.682965 26.638364 
L 12.69578 28.098969 
L 12.74521 15.373923 
L 12.764433 12.513476 
L 12.815694 26.004585 
L 12.83217 28.139851 
L 12.87977 15.456167 
L 12.898992 12.479927 
L 12.953915 26.643098 
L 12.96673 28.014057 
L 13.012498 16.26213 
L 13.035382 12.547015 
L 13.089389 26.575418 
L 13.102204 28.056567 
L 13.147973 16.366143 
L 13.170857 12.902388 
L 13.224864 26.426954 
L 13.236764 27.821049 
L 13.284363 16.116038 
L 13.305416 12.553947 
L 13.357593 26.152698 
L 13.371323 27.934289 
L 13.422584 15.353788 
L 13.442722 12.822393 
L 13.492152 25.811205 
L 13.507713 27.771597 
L 13.558058 15.159645 
L 13.576366 12.894213 
L 13.627627 25.794609 
L 13.642272 27.832248 
L 13.692618 15.584279 
L 13.711841 12.929685 
L 13.763101 26.083976 
L 13.776832 27.625515 
L 13.823516 16.553754 
L 13.8464 12.892707 
L 13.899491 26.002373 
L 13.914137 27.476958 
L 13.95899 16.640445 
L 13.980044 13.237615 
L 14.037712 26.498327 
L 14.050527 27.538511 
L 14.090804 17.692148 
L 14.116434 13.401473 
L 14.169525 25.624009 
L 14.186002 27.523945 
L 14.233601 15.650009 
L 14.252824 13.213279 
L 14.306831 26.059614 
L 14.319646 27.234663 
L 14.36633 16.264372 
L 14.388299 13.502496 
L 14.438644 25.211175 
L 14.455121 27.06899 
L 14.504551 15.867321 
L 14.522858 13.255609 
L 14.581442 26.652762 
L 14.588765 27.068095 
L 14.624464 20.106499 
L 14.657417 13.506426 
L 14.716001 26.349062 
L 14.725155 27.076 
L 14.768177 17.515609 
L 14.792892 13.694533 
L 14.84873 25.681673 
L 14.86246 26.9555 
L 14.908229 16.293445 
L 14.927451 13.557026 
L 14.983289 25.659518 
L 14.995189 26.799058 
L 15.038211 17.579239 
L 15.063841 13.773168 
L 15.116933 25.442745 
L 15.131579 26.865676 
L 15.179178 16.20575 
L 15.198401 13.761284 
L 15.252408 25.413951 
L 15.265223 26.736253 
L 15.310076 17.470121 
L 15.334791 13.92082 
L 15.388798 25.856786 
L 15.401613 26.808042 
L 15.44372 18.002171 
L 15.46935 13.854692 
L 15.528849 26.058086 
L 15.538003 26.656194 
L 15.576448 18.613868 
L 15.60574 13.784209 
L 15.658832 25.61051 
L 15.672562 26.872232 
L 15.717415 17.153611 
L 15.739384 13.858844 
L 15.793391 25.387792 
L 15.805291 26.577266 
L 15.856551 16.070206 
L 15.874859 14.049026 
L 15.927035 25.092032 
L 15.941681 26.676062 
L 15.986534 17.476979 
L 16.008503 14.133361 
L 16.065256 25.704284 
L 16.07624 26.590466 
L 16.120178 17.918391 
L 16.143978 14.12186 
L 16.201646 25.538017 
L 16.214461 26.403192 
L 16.249245 19.507634 
L 16.280368 14.290473 
L 16.338951 25.862748 
L 16.348105 26.400842 
L 16.383804 19.85897 
L 16.417673 14.289721 
L 16.473511 25.530448 
L 16.484495 26.284491 
L 16.522941 18.522149 
L 16.550402 14.275462 
L 16.60807 25.28337 
L 16.618139 26.216729 
L 16.666654 16.666299 
L 16.686792 14.528538 
L 16.736222 24.281454 
L 16.754529 26.045696 
L 16.801213 17.032806 
L 16.821351 14.411327 
L 16.874442 24.557636 
L 16.890919 25.836023 
L 16.932111 17.710756 
L 16.95591 14.576518 
L 17.010833 24.871432 
L 17.022732 25.961202 
L 17.067585 17.775909 
L 17.0923 14.60719 
L 17.148138 25.130269 
L 17.160038 26.175402 
L 17.205806 17.27209 
L 17.225944 14.632703 
L 17.282697 24.994574 
L 17.294597 25.810768 
L 17.33945 17.39303 
L 17.362334 14.677594 
L 17.415426 24.568844 
L 17.430072 25.741711 
L 17.476756 17.036853 
L 17.496894 14.697402 
L 17.549985 24.574382 
L 17.565547 25.81006 
L 17.6104 17.5874 
L 17.634199 14.892851 
L 17.684545 24.529493 
L 17.701937 25.819319 
L 17.747705 17.103488 
L 17.767843 14.857805 
L 17.825511 24.977716 
L 17.837411 25.610027 
L 17.875857 18.788872 
L 17.903318 14.693277 
L 17.960071 25.149754 
L 17.971055 25.841793 
L 18.013162 18.219912 
L 18.038793 14.865656 
L 18.096461 25.292524 
L 18.105615 25.768493 
L 18.143145 19.384636 
L 18.174267 14.935415 
L 18.229189 24.699019 
L 18.242005 25.604708 
L 18.286858 17.527562 
L 18.309742 14.974341 
L 18.362833 24.695585 
L 18.375649 25.624732 
L 18.420502 17.97188 
L 18.442471 15.236951 
L 18.496477 24.120689 
L 18.513869 25.512004 
L 18.560553 17.000032 
L 18.579776 15.208464 
L 18.627375 23.558953 
L 18.647513 25.448694 
L 18.694197 17.206959 
L 18.715251 15.18178 
L 18.767427 24.080887 
L 18.782988 25.2563 
L 18.830587 17.043699 
L 18.84981 15.223722 
L 18.902901 24.030655 
L 18.919378 25.297348 
L 18.967893 16.762327 
L 18.984369 15.384458 
L 19.033799 23.487943 
L 19.053022 25.200897 
L 19.105198 16.766491 
L 19.120759 15.402235 
L 19.167443 23.238273 
L 19.188497 25.189928 
L 19.235181 17.273671 
L 19.253488 15.442769 
L 19.303833 23.277745 
L 19.323971 25.07342 
L 19.373401 16.95375 
L 19.390793 15.587873 
L 19.440223 23.589928 
L 19.457615 25.140545 
L 19.509792 16.863388 
L 19.525353 15.55054 
L 19.574783 23.378873 
L 19.59309 24.84733 
L 19.641605 17.266194 
L 19.660827 15.590384 
L 19.71575 24.101436 
L 19.72948 24.892693 
L 19.776164 17.48689 
L 19.795387 15.640998 
L 19.847563 23.807228 
L 19.86404 24.95217 
L 19.910723 17.685872 
L 19.932692 15.718454 
L 19.982122 23.644215 
L 19.999514 25.061722 
L 20.047113 17.46348 
L 20.066336 15.665542 
L 20.120343 23.813169 
L 20.133158 24.620272 
L 20.182588 17.501066 
L 20.200896 15.65596 
L 20.254902 23.93439 
L 20.269548 24.867399 
L 20.312571 18.424505 
L 20.337286 15.763904 
L 20.393123 24.336996 
L 20.405023 24.939407 
L 20.443468 19.175842 
L 20.471845 15.761313 
L 20.533175 24.324479 
L 20.541413 24.675336 
L 20.574366 20.361153 
L 20.60732 15.940262 
L 20.665903 24.419786 
L 20.674142 24.716778 
L 20.705264 20.998645 
L 20.741879 16.085043 
L 20.799547 24.096952 
L 20.810532 24.692297 
L 20.852639 18.429324 
L 20.877354 16.078567 
L 20.934107 24.019562 
L 20.945091 24.560125 
L 20.989029 18.379917 
L 21.013744 16.087385 
L 21.066835 23.625598 
L 21.081481 24.491454 
L 21.121757 18.914248 
L 21.148303 16.114965 
L 21.203225 23.833125 
L 21.21421 24.633035 
L 21.262724 17.854411 
L 21.282862 16.214597 
L 21.336869 23.580023 
L 21.349684 24.314237 
L 21.398199 18.077422 
L 21.418337 16.123181 
L 21.468682 23.233292 
L 21.485159 24.483806 
L 21.531843 18.089101 
L 21.553812 16.362135 
L 21.607819 23.497287 
L 21.621549 24.34232 
L 21.668233 17.930957 
L 21.687456 16.3237 
L 21.736886 22.936567 
L 21.756108 24.274407 
L 21.807369 17.614559 
L 21.823846 16.313823 
L 21.87236 22.848208 
L 21.891583 24.102596 
L 21.942844 17.342927 
L 21.959321 16.415151 
L 22.00875 23.010158 
L 22.027058 24.192226 
L 22.073742 17.961448 
L 22.09388 16.435075 
L 22.144225 23.121817 
L 22.161617 24.168134 
L 22.200063 19.425869 
L 22.23027 16.467661 
L 22.285192 23.70249 
L 22.297092 24.279538 
L 22.338284 18.915039 
L 22.364829 16.420993 
L 22.421582 23.463029 
L 22.432567 23.965278 
L 22.470097 19.667278 
L 22.498473 16.430602 
L 22.556141 23.740586 
L 22.567126 24.18219 
L 22.607402 19.383031 
L 22.634863 16.553455 
L 22.694362 23.845394 
L 22.703516 24.097549 
L 22.736469 20.129661 
L 22.767592 16.572964 
L 22.828006 23.461184 
L 22.838991 23.878874 
L 22.870113 20.583198 
L 22.904897 16.693069 
L 22.962566 23.57323 
L 22.975381 24.021448 
L 23.014742 18.852876 
L 23.040372 16.754435 
L 23.097125 23.521497 
L 23.108109 24.054334 
L 23.149301 18.851678 
L 23.174931 16.797503 
L 23.228938 23.156846 
L 23.242669 23.812697 
L 23.285691 18.985213 
L 23.311321 16.692715 
L 23.369905 23.490474 
L 23.378143 23.823521 
L 23.417504 19.720865 
L 23.446796 16.931556 
L 23.503549 23.507491 
L 23.512703 23.803863 
L 23.548402 19.96812 
L 23.583186 16.926851 
L 23.637193 23.193166 
L 23.648177 23.602023 
L 23.693946 18.677669 
L 23.71683 16.906883 
L 23.770837 23.230464 
L 23.783652 23.682466 
L 23.829421 18.646664 
L 23.85322 17.06161 
L 23.904481 22.955555 
L 23.917296 23.63281 
L 23.964895 18.49924 
L 23.985949 16.996706 
L 24.040871 23.103866 
L 24.052771 23.504573 
L 24.098539 18.88786 
L 24.121423 17.069298 
L 24.176346 23.030833 
L 24.18733 23.438818 
L 24.233099 18.692646 
L 24.255067 17.046114 
L 24.307244 22.715125 
L 24.32372 23.608444 
L 24.37315 18.034525 
L 24.391458 17.033372 
L 24.439972 22.449033 
L 24.457364 23.482257 
L 24.514117 17.753221 
L 24.527848 17.110151 
L 24.575447 22.36606 
L 24.59467 23.457576 
L 24.649592 17.63126 
L 24.659661 17.183623 
L 24.703599 21.616391 
L 24.73106 23.450338 
L 24.784151 17.653298 
L 24.796966 17.167384 
L 24.840904 21.877027 
L 24.861042 23.549803 
L 24.919626 17.875119 
L 24.931526 17.276199 
L 24.978209 21.970131 
L 25.000178 23.442285 
L 25.054185 17.830935 
L 25.068831 17.342727 
L 25.105446 21.03207 
L 25.135653 23.354728 
L 25.18966 17.760655 
L 25.20156 17.315086 
L 25.243667 21.215433 
L 25.272043 23.477777 
L 25.330627 17.564057 
L 25.337034 17.430964 
L 25.37548 20.961985 
L 25.403856 23.364373 
L 25.465186 17.588426 
L 25.47434 17.446338 
L 25.502716 20.080215 
L 25.540246 23.198662 
L 25.596084 17.850901 
L 25.607068 17.404556 
L 25.654668 21.949855 
L 25.67389 23.195144 
L 25.730643 18.204483 
L 25.741628 17.711672 
L 25.795634 22.562763 
L 25.81028 23.09001 
L 25.856964 18.687865 
L 25.878018 17.510445 
L 25.923786 21.82573 
L 25.94667 22.992943 
L 25.9961 18.437656 
L 26.013492 17.465477 
L 26.062922 22.25506 
L 26.08123 23.028871 
L 26.129744 18.822897 
L 26.148967 17.770384 
L 26.200228 22.424121 
L 26.215789 23.065317 
L 26.258811 19.138414 
L 26.281696 17.609788 
L 26.339364 22.679581 
L 26.349433 22.96268 
L 26.390625 19.768766 
L 26.41717 17.645128 
L 26.479416 22.787963 
L 26.483992 22.892449 
L 26.525184 19.659743 
L 26.549899 17.744604 
L 26.61489 22.892888 
L 26.620382 22.958185 
L 26.649674 20.755029 
L 26.687204 17.570843 
L 26.743957 22.594035 
L 26.754942 22.86919 
L 26.797049 19.366968 
L 26.822679 17.753033 
L 26.881263 22.683641 
L 26.88767 22.831695 
L 26.922454 20.409962 
L 26.957238 17.939292 
L 27.013076 22.592115 
L 27.024976 22.984008 
L 27.069829 19.096866 
L 27.091798 17.754131 
L 27.143974 22.388896 
L 27.156789 22.895034 
L 27.211711 18.666331 
L 27.229103 17.836232 
L 27.275787 21.795101 
L 27.295925 22.766391 
L 27.348101 18.419512 
L 27.363663 17.963248 
L 27.408516 21.631377 
L 27.430485 22.968514 
L 27.486322 18.145784 
L 27.496391 17.868035 
L 27.54216 21.405497 
L 27.565044 22.827615 
L 27.624543 18.186129 
L 27.631866 18.044989 
L 27.672142 20.942214 
L 27.700519 22.750069 
L 27.760018 18.167422 
L 27.767341 17.998761 
L 27.806701 21.045936 
L 27.835993 22.658512 
L 27.890915 18.404009 
L 27.902815 17.984183 
L 27.949499 21.655015 
L 27.971468 22.642433 
L 28.02639 18.700406 
L 28.040121 18.323218 
L 28.085889 21.69329 
L 28.104197 22.526036 
L 28.157288 18.715257 
L 28.173765 18.154929 
L 28.217702 21.427645 
L 28.239671 22.489938 
L 28.296424 18.438329 
L 28.306493 18.054639 
L 28.350431 21.091648 
L 28.376977 22.53796 
L 28.436476 18.530343 
L 28.446545 18.364474 
L 28.478583 20.542209 
L 28.510621 22.421214 
L 28.567374 18.482861 
L 28.576527 18.257947 
L 28.62138 21.401145 
L 28.64518 22.469481 
L 28.698271 18.702815 
L 28.713833 18.221681 
L 28.763263 21.772044 
L 28.780655 22.415907 
L 28.839238 18.44061 
L 28.846561 18.331903 
L 28.88043 20.545682 
L 28.914299 22.401841 
L 28.96739 18.66342 
L 28.978375 18.234368 
L 29.029635 21.629739 
L 29.050689 22.379113 
L 29.093711 19.512572 
L 29.117511 18.328506 
L 29.179756 22.249383 
L 29.186163 22.349113 
L 29.225524 19.843149 
L 29.250239 18.554877 
L 29.305161 22.090903 
L 29.317061 22.418584 
L 29.363745 19.432147 
L 29.38846 18.373554 
L 29.440636 22.135988 
L 29.452536 22.415827 
L 29.494643 20.038822 
L 29.520273 18.365046 
L 29.582518 22.108704 
L 29.590757 22.243088 
L 29.619133 20.783887 
L 29.657579 18.4071 
L 29.715247 22.258561 
L 29.725316 22.466278 
L 29.7601 19.988808 
L 29.790307 18.356075 
L 29.846145 21.987907 
L 29.860791 22.380588 
L 29.910221 18.991375 
L 29.926697 18.461717 
L 29.976127 21.550578 
L 29.994435 22.228194 
L 30.045695 19.07465 
L 30.062172 18.565015 
L 30.107941 21.413567 
L 30.13174 22.288392 
L 30.182086 18.947332 
L 30.200393 18.502629 
L 30.247077 21.654655 
L 30.267215 22.184475 
L 30.318476 19.183137 
L 30.335868 18.710228 
L 30.383467 21.551321 
L 30.398113 22.072442 
L 30.455781 18.910605 
L 30.468596 18.629693 
L 30.509788 21.059584 
L 30.533587 22.091762 
L 30.59034 18.755441 
L 30.604071 18.416709 
L 30.648009 21.128837 
L 30.670893 22.171781 
L 30.731307 18.905416 
L 30.741376 18.764129 
L 30.777991 20.859226 
L 30.803621 21.966594 
L 30.864036 18.81566 
L 30.87319 18.715935 
L 30.902481 20.309795 
L 30.940012 22.133745 
L 30.993103 18.969022 
L 31.007749 18.586192 
L 31.055348 21.275064 
L 31.077317 22.011186 
L 31.137731 18.760554 
L 31.138647 18.744951 
L 31.168854 20.073464 
L 31.208215 21.967786 
L 31.261306 19.056607 
L 31.278698 18.667144 
L 31.327213 21.504279 
L 31.344605 21.943735 
L 31.39495 19.208428 
L 31.410512 18.695709 
L 31.474587 21.850155 
L 31.480995 21.919209 
L 31.511202 20.586729 
L 31.547817 18.964771 
L 31.601824 21.79596 
L 31.612808 22.034316 
L 31.659492 19.539774 
L 31.684207 18.721054 
L 31.733637 21.789905 
L 31.746452 22.056762 
L 31.795882 19.605939 
L 31.814189 18.784397 
L 31.878265 21.785751 
L 31.887419 21.8934 
L 31.92678 19.862128 
L 31.951495 18.694855 
L 32.011909 22.017166 
L 32.016486 22.049028 
L 32.032963 21.564952 
L 32.086054 18.738049 
L 32.140061 21.7375 
L 32.156538 22.110854 
L 32.202306 19.463524 
L 32.22336 18.770373 
L 32.27279 21.463274 
L 32.288351 21.911001 
L 32.336866 19.58674 
L 32.356088 19.046398 
L 32.405518 21.412694 
L 32.423826 21.911803 
L 32.477832 19.164448 
L 32.492478 18.874705 
L 32.538247 21.189345 
L 32.561131 21.849426 
L 32.612392 19.469324 
L 32.629784 19.017408 
L 32.685621 21.564463 
L 32.69386 21.686598 
L 32.741459 19.54919 
L 32.763428 18.941642 
L 32.799127 20.592677 
L 32.828419 21.752149 
L 32.883341 19.029249 
L 32.897072 18.690275 
L 32.943756 21.121677 
L 32.965724 21.893726 
L 33.024308 19.274027 
L 33.031631 19.091688 
L 33.078315 21.081719 
L 33.100284 21.741187 
L 33.159783 19.170135 
L 33.163444 19.14537 
L 33.182667 19.635149 
L 33.233012 21.858331 
L 33.285188 19.268909 
L 33.298004 18.856517 
L 33.353841 21.426942 
L 33.367572 21.750318 
L 33.421578 19.387785 
L 33.433478 19.155937 
L 33.479247 20.909325 
L 33.503962 21.596415 
L 33.556138 19.304829 
L 33.569868 18.951197 
L 33.620214 21.296747 
L 33.638521 21.665668 
L 33.680628 19.9755 
L 33.704428 19.005563 
L 33.764842 21.534839 
L 33.777657 21.729944 
L 33.817018 20.084411 
L 33.843564 19.288979 
L 33.897571 21.515572 
L 33.90764 21.621758 
L 33.954324 19.663828 
L 33.975377 18.988967 
L 34.022061 21.315667 
L 34.040368 21.829477 
L 34.098037 19.225461 
L 34.110852 19.042551 
L 34.15479 20.849605 
L 34.18042 21.686467 
L 34.235342 19.205392 
L 34.244496 19.01591 
L 34.292095 21.150741 
L 34.306741 21.719989 
L 34.369901 19.173583 
L 34.37814 19.070042 
L 34.412924 20.345473 
L 34.448623 21.862807 
L 34.503545 19.300225 
L 34.51453 19.058516 
L 34.560298 20.992203 
L 34.583182 21.735765 
L 34.643597 19.385728 
L 34.65092 19.326764 
L 34.667396 19.750055 
L 34.715911 21.58529 
L 34.769918 19.392271 
L 34.788225 19.103918 
L 34.823009 20.549565 
L 34.857793 21.602484 
L 34.914546 19.287197 
L 34.9237 19.184821 
L 34.965807 20.874768 
L 34.98686 21.479094 
L 35.044529 19.526459 
L 35.056429 19.293183 
L 35.104943 21.122276 
L 35.123251 21.521379 
L 35.173596 19.361854 
L 35.190073 19.009784 
L 35.237672 21.133079 
L 35.25781 21.653866 
L 35.318224 19.431726 
L 35.324632 19.361381 
L 35.342939 19.664059 
L 35.395115 21.507527 
L 35.450037 19.542414 
L 35.459191 19.466805 
L 35.493975 20.646356 
L 35.527844 21.60901 
L 35.582766 19.242657 
L 35.59192 19.062498 
L 35.638604 20.965149 
L 35.662403 21.478938 
L 35.715495 19.526186 
L 35.727394 19.38988 
L 35.781401 21.150799 
L 35.795132 21.384897 
L 35.843646 19.583879 
L 35.861038 19.278404 
L 35.909553 21.124727 
L 35.924199 21.500336 
L 35.991021 19.294382 
L 35.997429 19.223051 
L 36.030382 20.21138 
L 36.067912 21.546351 
L 36.128326 19.487592 
L 36.136565 19.414074 
L 36.173179 20.730545 
L 36.201556 21.5232 
L 36.26014 19.395417 
L 36.266547 19.316078 
L 36.305908 20.755293 
L 36.331538 21.695005 
L 36.397445 19.277132 
L 36.400191 19.260622 
L 36.417583 19.454513 
L 36.47159 21.604423 
L 36.526512 19.435684 
L 36.537497 19.258712 
L 36.583265 21.009408 
L 36.600657 21.473906 
L 36.65741 19.47278 
L 36.673887 19.245764 
L 36.717824 21.124051 
L 36.741624 21.705928 
L 36.796546 19.462378 
L 36.808446 19.272762 
L 36.856045 21.029313 
L 36.877099 21.517286 
L 36.934767 19.619791 
L 36.941175 19.552083 
L 36.971382 20.328073 
L 37.007081 21.358742 
L 37.063834 19.486665 
L 37.077565 19.329822 
L 37.118756 20.748685 
L 37.145302 21.44014 
L 37.202055 19.445205 
L 37.212124 19.307046 
L 37.260639 20.918915 
L 37.280777 21.287955 
L 37.338445 19.630689 
L 37.350345 19.48004 
L 37.399775 21.131709 
L 37.413505 21.37805 
L 37.461104 19.677261 
L 37.482158 19.301885 
L 37.535249 21.278563 
L 37.546234 21.477201 
L 37.605733 19.670268 
L 37.618548 19.486803 
L 37.658824 20.702206 
L 37.684455 21.347646 
L 37.747615 19.63039 
L 37.759515 19.728823 
L 37.814437 21.371 
L 37.864782 19.621762 
L 37.88309 19.259217 
L 37.918789 20.504444 
L 37.953573 21.305007 
L 38.010326 19.661242 
L 38.022226 19.571918 
L 38.062502 20.634166 
L 38.085387 21.21594 
L 38.150378 19.557435 
L 38.151293 19.555719 
L 38.164108 19.760874 
L 38.220861 21.305895 
L 38.273037 19.717999 
L 38.290429 19.420038 
L 38.339859 21.079774 
L 38.358167 21.417232 
L 38.412173 19.762402 
L 38.427735 19.549161 
L 38.468926 20.75278 
L 38.492726 21.287139 
L 38.552225 19.616411 
L 38.563209 19.579448 
L 38.571448 19.720677 
L 38.623624 21.498291 
L 38.676715 19.630375 
L 38.695938 19.351482 
L 38.736214 20.636417 
L 38.760014 21.46232 
L 38.828667 19.576466 
L 38.832328 19.567072 
L 38.845143 19.822019 
L 38.895489 21.254454 
L 38.94858 19.637276 
L 38.96048 19.470536 
L 39.011741 21.106818 
L 39.030963 21.495071 
L 39.085885 19.727399 
L 39.098701 19.506944 
L 39.156369 21.199142 
L 39.171015 21.37667 
L 39.208545 20.296515 
L 39.236006 19.695788 
L 39.292759 21.081247 
L 39.300082 21.155407 
L 39.333035 20.425102 
L 39.367819 19.607308 
L 39.423657 21.056372 
L 39.441049 21.295592 
L 39.495971 19.55971 
L 39.509702 19.463471 
L 39.548147 20.630921 
L 39.572862 21.195911 
L 39.636023 19.752878 
L 39.641515 19.702079 
L 39.67813 20.607695 
L 39.706506 21.206118 
L 39.760513 19.653856 
L 39.772413 19.527004 
L 39.81452 20.776573 
L 39.84015 21.332656 
L 39.895072 19.793204 
L 39.908803 19.604529 
L 39.963725 21.007528 
L 39.97654 21.16435 
L 40.019562 20.163278 
L 40.044277 19.818275 
L 40.100115 21.147618 
L 40.105607 21.1951 
L 40.133068 20.686184 
L 40.176091 19.521555 
L 40.23559 21.065418 
L 40.246574 21.157344 
L 40.277697 20.481949 
L 40.314311 19.684297 
L 40.372895 20.984678 
L 40.381133 21.050454 
L 40.436056 19.86676 
L 40.445209 19.780119 
L 40.47267 20.255354 
L 40.513862 21.178403 
L 40.566038 19.835516 
L 40.580684 19.565686 
L 40.641098 21.217575 
L 40.649337 21.307683 
L 40.700597 19.964527 
L 40.717989 19.635563 
L 40.764673 20.809814 
L 40.784811 21.154297 
L 40.839734 19.86729 
L 40.848887 19.740303 
L 40.898317 20.963107 
L 40.915709 21.272893 
L 40.972462 19.660328 
L 40.99077 19.480234 
L 41.029215 20.649265 
L 41.05393 21.295442 
L 41.112514 19.851861 
L 41.121667 19.759628 
L 41.171097 20.878931 
L 41.185743 21.101365 
L 41.224189 20.171208 
L 41.250735 19.671493 
L 41.299249 20.85701 
L 41.322133 21.293269 
L 41.377056 19.853145 
L 41.391701 19.66091 
L 41.442047 20.931766 
L 41.464016 21.231388 
L 41.507038 20.153712 
L 41.530838 19.784283 
L 41.590337 21.01193 
L 41.593083 21.0064 
L 41.594914 21.018361 
L 41.615967 20.677462 
L 41.66082 19.776733 
L 41.716658 20.948638 
L 41.733134 21.145057 
L 41.776157 19.938726 
L 41.799041 19.573815 
L 41.856709 21.013387 
L 41.863117 21.101381 
L 41.88417 20.913757 
L 41.932685 19.869702 
L 41.992184 20.975141 
L 41.993099 20.97088 
L 41.994015 20.983085 
L 42.039783 20.112046 
L 42.060837 19.712112 
L 42.112097 20.966379 
L 42.133151 21.211573 
L 42.179835 19.993549 
L 42.200888 19.702974 
L 42.246657 20.703903 
L 42.271372 21.009415 
L 42.318971 20.065956 
L 42.336363 19.96351 
L 42.37847 20.769076 
L 42.395862 20.990553 
L 42.438884 20.034509 
L 42.463599 19.687803 
L 42.518521 20.865723 
L 42.536829 21.037368 
L 42.594497 19.922603 
L 42.609143 19.787725 
L 42.652165 20.644624 
L 42.672304 20.949343 
L 42.732718 19.914991 
L 42.748279 20.021759 
L 42.803201 21.03319 
L 42.856293 19.974555 
L 42.870939 19.800845 
L 42.924946 21.004016 
L 42.940507 21.170757 
L 42.981698 20.303446 
L 43.00916 19.759111 
L 43.063166 20.843027 
L 43.076897 20.97278 
L 43.113512 20.319613 
L 43.141888 19.892918 
L 43.193149 21.008254 
L 43.205049 21.146566 
L 43.259971 19.786756 
L 43.278278 19.635087 
L 43.33137 20.954271 
L 43.3451 21.15191 
L 43.405515 19.963264 
L 43.414668 19.927177 
L 43.451283 20.564559 
L 43.477829 20.894237 
L 43.538243 19.918123 
L 43.541905 19.8949 
L 43.572112 20.362077 
L 43.612388 21.080449 
L 43.666395 20.020184 
L 43.686533 19.877227 
L 43.739624 20.92698 
L 43.75427 21.060358 
L 43.808277 20.047829 
L 43.822923 19.92909 
L 43.881507 20.778699 
L 43.889745 20.731346 
L 43.891576 20.745883 
L 43.912629 20.449614 
L 43.949244 19.998431 
L 44.003251 20.817516 
L 44.02522 20.980215 
L 44.046273 20.647395 
L 44.087465 19.734001 
L 44.148795 20.86244 
L 44.157033 20.906182 
L 44.184494 20.626319 
L 44.222024 20.054034 
L 44.284269 20.880683 
L 44.287931 20.873645 
L 44.352007 19.86775 
L 44.401437 20.837974 
L 44.420659 21.060961 
L 44.477412 19.944923 
L 44.490228 19.85746 
L 44.536911 20.694106 
L 44.55888 20.896034 
L 44.622041 20.114308 
L 44.623871 20.099824 
L 44.682455 20.8129 
L 44.687947 20.829082 
L 44.723647 20.213649 
L 44.757515 19.82704 
L 44.811522 20.81751 
L 44.824337 20.87596 
L 44.875598 20.198571 
L 44.894821 20.006673 
L 44.937843 20.420893 
L 44.956151 20.734188 
L 45.018396 20.080778 
L 45.04128 20.191501 
L 45.094371 20.892701 
L 45.144717 20.101029 
L 45.161193 19.936828 
L 45.208793 20.787537 
L 45.232592 21.036949 
L 45.267376 20.461254 
L 45.303991 19.883 
L 45.359829 20.835555 
L 45.368067 20.829897 
L 45.430312 20.064141 
L 45.479742 20.830696 
L 45.494388 21.019804 
L 45.52368 20.482311 
L 45.56121 19.774407 
L 45.62437 20.892205 
L 45.638101 20.98608 
L 45.692108 20.106979 
L 45.701261 20.069855 
L 45.751607 20.701678 
L 45.77083 20.777231 
L 45.815683 20.07416 
L 45.827583 19.980398 
L 45.868774 20.561614 
L 45.901727 20.984429 
L 45.957565 20.06585 
L 45.974042 19.969459 
L 45.993264 20.194088 
L 46.044525 20.926077 
L 46.102193 20.190539 
L 46.115009 20.047099 
L 46.175423 20.680827 
L 46.207461 20.357353 
L 46.245906 20.128973 
L 46.288013 20.704836 
L 46.312728 20.890188 
L 46.358497 20.011446 
L 46.378635 19.840356 
L 46.44088 20.798485 
L 46.441795 20.798468 
L 46.450034 20.834111 
L 46.485733 20.435898 
L 46.512279 20.17484 
L 46.570863 20.801121 
L 46.585509 20.761046 
L 46.597408 20.619299 
L 46.642261 19.987394 
L 46.695353 20.817723 
L 46.710914 20.939243 
L 46.752106 20.262022 
L 46.779567 19.950096 
L 46.833574 20.75965 
L 46.850966 20.834406 
L 46.914126 20.192553 
L 46.915957 20.183765 
L 46.973625 20.63818 
L 46.975456 20.633134 
L 46.978202 20.635962 
L 47.005663 20.380149 
L 47.04777 19.982255 
L 47.099946 20.767154 
L 47.118254 20.865546 
L 47.167684 20.207599 
L 47.188737 19.965933 
L 47.249151 20.671155 
L 47.250067 20.670762 
L 47.319635 20.240211 
L 47.365403 20.746175 
L 47.38188 20.838965 
L 47.417579 20.450496 
L 47.451448 20.039203 
L 47.510947 20.842061 
L 47.519185 20.90542 
L 47.5558 20.433452 
L 47.596077 19.917928 
L 47.648253 20.737565 
L 47.657406 20.807528 
L 47.721482 20.137539 
L 47.723313 20.14337 
L 47.724228 20.141331 
L 47.747113 20.349882 
L 47.785558 20.729278 
L 47.835903 20.030326 
L 47.856042 19.874181 
L 47.919202 20.968827 
L 47.922863 20.997937 
L 47.987855 20.162748 
L 47.990601 20.145298 
L 48.018062 20.292215 
L 48.058338 20.731982 
L 48.119668 20.138822 
L 48.121499 20.154173 
L 48.122414 20.151554 
L 48.14896 20.405681 
L 48.191982 20.901564 
L 48.240497 20.206698 
L 48.258804 20.064439 
L 48.318303 20.772543 
L 48.333864 20.852696 
L 48.362241 20.485644 
L 48.398856 19.999954 
L 48.462932 20.648505 
L 48.464762 20.636907 
L 48.488562 20.530958 
L 48.529754 20.173411 
L 48.585591 20.767294 
L 48.591999 20.820725 
L 48.642344 20.143008 
L 48.66889 19.926682 
L 48.72015 20.797187 
L 48.739373 20.899419 
L 48.777819 20.349519 
L 48.799788 20.173886 
L 48.845556 20.643736 
L 48.869356 20.743641 
L 48.906886 20.275268 
L 48.92977 20.072882 
L 48.980115 20.78131 
L 49.005746 20.919222 
L 49.029545 20.558047 
L 49.067991 19.981145 
L 49.129321 20.754523 
L 49.137559 20.791028 
L 49.165935 20.524562 
L 49.207127 20.13044 
L 49.266626 20.680893 
L 49.271203 20.665278 
L 49.298664 20.349932 
L 49.331617 20.044052 
L 49.395693 20.740562 
L 49.407593 20.791284 
L 49.468923 20.074821 
L 49.47533 20.027053 
L 49.504622 20.25307 
L 49.505538 20.244635 
L 49.549475 20.812629 
L 49.61172 20.227248 
L 49.616297 20.258894 
L 49.666643 20.77047 
L 49.741703 20.069185 
L 49.808525 20.958305 
L 49.862532 20.178422 
L 49.885416 19.949089 
L 49.944915 20.784352 
L 49.94583 20.777665 
L 49.953153 20.796799 
L 50.003499 20.137262 
L 50.012652 20.087273 
L 50.05659 20.59329 
L 50.081305 20.7628 
L 50.141719 19.93393 
L 50.142635 19.927023 
L 50.18108 20.455748 
L 50.214949 20.892446 
L 50.274448 20.109267 
L 50.277194 20.120357 
L 50.284517 20.070999 
L 50.31564 20.341452 
L 50.350424 20.714285 
L 50.418161 20.26586 
L 50.423653 20.272926 
L 50.478575 20.808251 
L 50.530751 20.240864 
L 50.556382 20.046886 
L 50.608558 20.732716 
L 50.627781 20.848272 
L 50.666226 20.383657 
L 50.698264 20.002784 
L 50.763255 20.690089 
L 50.764171 20.693452 
L 50.796209 20.419332 
L 50.826416 20.13554 
L 50.888661 20.802588 
L 50.895069 20.796826 
L 50.961891 19.919618 
L 51.00949 20.761083 
L 51.028712 20.931166 
L 51.099196 20.111896 
L 51.101942 20.116154 
L 51.169679 20.717753 
L 51.222771 20.255477 
L 51.228263 20.221077 
L 51.264878 20.607802 
L 51.293254 20.845514 
L 51.358246 20.070233 
L 51.362822 20.054302 
L 51.411337 20.609482 
L 51.436967 20.763943 
L 51.499212 20.205225 
L 51.500128 20.206768 
L 51.512028 20.136888 
L 51.556881 20.53059 
L 51.56695 20.586628 
L 51.629195 20.180264 
L 51.657571 20.363464 
L 51.658487 20.36291 
L 51.668556 20.477836 
L 51.698763 20.764849 
L 51.754601 20.184677 
L 51.7784 20.03506 
L 51.828746 20.788187 
L 51.847968 20.843647 
L 51.890075 20.33293 
L 51.911129 20.175051 
L 51.967882 20.687343 
L 51.994427 20.560025 
L 52.03745 20.234923 
L 52.084134 20.750192 
L 52.106102 20.865938 
L 52.15004 20.15871 
L 52.169263 19.972021 
L 52.229677 20.691606 
L 52.240662 20.767905 
L 52.290092 20.306837 
L 52.302907 20.235607 
L 52.355998 20.567652 
L 52.367898 20.606297 
L 52.433805 20.046072 
L 52.477743 20.521411 
L 52.501542 20.787063 
L 52.56928 20.228462 
L 52.570195 20.22919 
L 52.576602 20.186669 
L 52.637932 20.686544 
L 52.647086 20.736671 
L 52.717569 20.213534 
L 52.726723 20.24312 
L 52.727638 20.238717 
L 52.772492 20.566189 
L 52.785307 20.625819 
L 52.825583 20.336505 
L 52.826498 20.33738 
L 52.845721 20.266891 
L 52.912543 20.804673 
L 52.914374 20.785027 
L 52.918035 20.79617 
L 52.964719 20.126596 
L 52.985773 19.999259 
L 53.054425 20.621531 
L 53.057171 20.616444 
L 53.069071 20.60324 
L 53.081886 20.50287 
L 53.113009 20.269975 
L 53.173423 20.703885 
L 53.177085 20.710315 
L 53.202715 20.54623 
L 53.245738 20.062049 
L 53.307067 20.679056 
L 53.316221 20.732139 
L 53.376635 20.291044 
L 53.377551 20.296298 
L 53.390366 20.253003 
L 53.420573 20.463409 
L 53.455357 20.708275 
L 53.509364 20.34768 
L 53.510279 20.349949 
L 53.584424 20.551195 
L 53.631108 20.174344 
L 53.729968 20.72841 
L 53.650331 20.127644 
L 53.775737 20.362763 
L 53.807775 20.085369 
L 53.859035 20.495293 
L 53.884666 20.410067 
L 53.924942 20.258393 
L 53.971626 20.630364 
L 53.993595 20.756264 
L 54.050348 20.202663 
L 54.051263 20.204946 
L 54.070486 20.135156 
L 54.110762 20.534403 
L 54.132731 20.666114 
L 54.191314 20.172035 
L 54.193145 20.181118 
L 54.197722 20.168771 
L 54.236168 20.531515 
L 54.26729 20.699866 
L 54.32862 20.345446 
L 54.45311 20.065445 
L 54.382627 20.649688 
L 54.470502 20.083686 
L 54.530001 20.739622 
L 54.642592 20.456197 
L 54.722229 20.133209 
L 54.655407 20.513343 
L 54.757013 20.407124 
L 54.801866 20.755431 
L 54.86045 20.294414 
L 54.941917 20.679027 
L 54.873265 20.254593 
L 54.983109 20.323166 
L 55.014232 20.166944 
L 55.053593 20.471202 
L 55.077392 20.59541 
L 55.134145 20.34377 
L 55.135976 20.344727 
L 55.136891 20.340755 
L 55.180829 20.63813 
L 55.181744 20.629893 
L 55.199136 20.75611 
L 55.253143 20.17111 
L 55.26962 20.066786 
L 55.341934 20.638275 
L 55.343765 20.633813 
L 55.358411 20.666552 
L 55.413333 20.3702 
L 55.45544 20.643785 
L 55.468255 20.658024 
L 55.503954 20.315355 
L 55.5424 20.094751 
L 55.589084 20.604671 
L 55.610137 20.732089 
L 55.64126 20.539713 
L 55.64126 20.539713 
" clip-path="url(#peff02c8eb5)" style="fill: none; stroke: #a9a9a9; stroke-width: 0.04; stroke-linecap: square"/>
   </g>
   <g id="patch_3">
    <path d="M 0.72 40.008189 
L 0.72 0.72 
" style="fill: none; stroke: #a9a9a9; stroke-width: 0.5; stroke-linejoin: miter; stroke-linecap: square"/>
   </g>
   <g id="patch_4">
    <path d="M 55.64126 40.008189 
L 55.64126 0.72 
" style="fill: none; stroke: #a9a9a9; stroke-width: 0.5; stroke-linejoin: miter; stroke-linecap: square"/>
   </g>
   <g id="patch_5">
    <path d="M 0.72 40.008189 
L 55.64126 40.008189 
" style="fill: none; stroke: #a9a9a9; stroke-width: 0.5; stroke-linejoin: miter; stroke-linecap: square"/>
   </g>
   <g id="patch_6">
    <path d="M 0.72 0.72 
L 55.64126 0.72 
" style="fill: none; stroke: #a9a9a9; stroke-width: 0.5; stroke-linejoin: miter; stroke-linecap: square"/>
   </g>
  </g>
 </g>
 <defs>
  <clipPath id="peff02c8eb5">
   <rect x="0.72" y="0.72" width="54.92126" height="39.288189"/>
  </clipPath>
 </defs>
</svg>
