<?xml version="1.0" encoding="utf-8" standalone="no"?>
<!DOCTYPE svg PUBLIC "-//W3C//DTD SVG 1.1//EN"
  "http://www.w3.org/Graphics/SVG/1.1/DTD/svg11.dtd">
<svg height="43.462835pt" version="1.1" viewBox="0 0 59.86126 43.462835" width="59.86126pt" xmlns="http://www.w3.org/2000/svg" xmlns:xlink="http://www.w3.org/1999/xlink">
 <metadata>
  <rdf:RDF xmlns:cc="http://creativecommons.org/ns#" xmlns:dc="http://purl.org/dc/elements/1.1/" xmlns:rdf="http://www.w3.org/1999/02/22-rdf-syntax-ns#">
   <cc:Work>
    <dc:type rdf:resource="http://purl.org/dc/dcmitype/StillImage"/>
    <dc:date>2025-02-16T20:28:53.522395</dc:date>
    <dc:format>image/svg+xml</dc:format>
    <dc:creator>
     <cc:Agent>
      <dc:title>Matplotlib v3.4.3, https://matplotlib.org/</dc:title>
     </cc:Agent>
    </dc:creator>
   </cc:Work>
  </rdf:RDF>
 </metadata>
 <defs>
  <style type="text/css">*{stroke-linecap:butt;stroke-linejoin:round;}</style>
 </defs>
 <g id="figure_1">
  <g id="patch_1">
   <path d="M 0 43.462835 
L 59.86126 43.462835 
L 59.86126 0 
L 0 0 
z
" style="fill:none;"/>
  </g>
  <g id="axes_1">
   <g id="patch_2">
    <path d="M 4.22 39.242835 
L 59.14126 39.242835 
L 59.14126 0.72 
L 4.22 0.72 
z
" style="fill:#ffffff;"/>
   </g>
   <g id="matplotlib.axis_1"/>
   <g id="matplotlib.axis_2"/>
   <g id="line2d_1">
    <path clip-path="url(#pd2619b3a17)" d="M 4.22 18.764414 
L 4.236477 19.53691 
L 4.265768 21.120722 
L 4.308485 18.852554 
L 4.363407 20.731977 
L 4.399411 18.713811 
L 4.444569 21.165546 
L 4.49583 18.936204 
L 4.62276 21.151281 
L 4.578213 18.735756 
L 4.640457 20.412076 
L 4.761286 18.70284 
L 4.712466 21.14674 
L 4.769829 19.029025 
L 4.893708 21.212548 
L 4.84855 18.730872 
L 4.909575 20.396073 
L 4.938866 18.67942 
L 4.982804 21.109154 
L 5.036505 18.985254 
L 5.072509 21.176448 
L 5.116447 18.709144 
L 5.175641 20.60318 
L 5.207983 18.705433 
L 5.253752 21.207901 
L 5.310504 19.205702 
L 5.430722 21.340308 
L 5.387395 18.623659 
L 5.44964 20.38412 
L 5.566806 18.600653 
L 5.522259 21.177765 
L 5.574129 18.816045 
L 5.610134 21.435674 
L 5.657122 18.50772 
L 5.718757 20.293636 
L 5.746828 18.52407 
L 5.790765 21.429046 
L 5.846908 18.917764 
L 5.970177 21.480905 
L 5.92746 18.445982 
L 5.983602 21.005421 
L 6.106871 18.408737 
L 6.059883 21.373525 
L 6.116635 18.828683 
L 6.150809 21.495015 
L 6.195357 18.395802 
L 6.251499 21.021165 
L 6.286283 18.292937 
L 6.330831 21.485986 
L 6.390634 19.226661 
L 6.511462 21.561599 
L 6.466915 18.31799 
L 6.521226 21.141574 
L 6.645716 18.276352 
L 6.601168 21.600481 
L 6.659141 18.905056 
L 6.78058 21.589124 
L 6.735422 18.340112 
L 6.790954 21.140542 
L 6.825127 18.257865 
L 6.869675 21.595506 
L 6.928869 18.985322 
L 6.959991 21.740364 
L 7.005759 18.223762 
L 7.060681 21.222954 
L 7.185171 18.124112 
L 7.139403 21.823867 
L 7.198596 18.78962 
L 7.320034 21.860492 
L 7.276097 18.213324 
L 7.33407 20.978209 
L 7.455508 18.037977 
L 7.410961 21.827182 
L 7.467713 18.667221 
L 7.500666 21.916978 
L 7.545214 18.122537 
L 7.607459 20.549012 
L 7.726456 18.047283 
L 7.680078 21.925392 
L 7.734389 18.386288 
L 7.858879 21.959641 
L 7.817382 18.066975 
L 7.878407 20.56524 
L 7.996794 17.903068 
L 7.950415 21.976635 
L 8.006558 18.489333 
L 8.129217 21.986412 
L 8.084059 18.03189 
L 8.140811 21.380201 
L 8.176205 17.879914 
L 8.220143 22.039249 
L 8.278116 18.651772 
L 8.309849 22.074664 
L 8.355007 17.935537 
L 8.411759 21.368304 
L 8.536249 17.775097 
L 8.48926 22.148619 
L 8.550284 18.854071 
L 8.669892 22.216592 
L 8.624734 17.833333 
L 8.686369 20.929914 
L 8.71566 17.727522 
L 8.759598 22.141921 
L 8.819401 18.687245 
L 8.851134 22.250524 
L 8.894461 17.787765 
L 8.953655 21.314919 
L 8.986608 17.737702 
L 9.029935 22.313438 
L 9.087908 18.479827 
L 9.209347 22.324006 
L 9.165409 17.779332 
L 9.226434 20.990454 
L 9.344821 17.701727 
L 9.300273 22.28598 
L 9.355805 18.29724 
L 9.389979 22.357398 
L 9.436357 17.704694 
L 9.494941 21.109197 
L 9.524842 17.61732 
L 9.571221 22.432734 
L 9.625533 18.171215 
L 9.751243 22.475868 
L 9.705474 17.596008 
L 9.764668 21.202893 
L 9.79518 17.553085 
L 9.840338 22.450268 
L 9.89648 18.336875 
L 9.930044 22.507323 
L 9.975202 17.459486 
L 10.030124 21.89702 
L 10.155223 17.387356 
L 10.108845 22.606526 
L 10.168649 18.455635 
L 10.290087 22.616046 
L 10.244929 17.32047 
L 10.301072 21.766084 
L 10.42373 17.293622 
L 10.379793 22.660353 
L 10.436545 18.188822 
L 10.469499 22.719871 
L 10.514046 17.208742 
L 10.57263 21.63014 
L 10.694678 17.243489 
L 10.64891 22.794325 
L 10.705663 18.051669 
L 10.828932 22.840368 
L 10.784994 17.169074 
L 10.840526 21.949595 
L 10.964406 17.139553 
L 10.919248 22.811132 
L 10.97539 17.969205 
L 11.008343 22.924522 
L 11.054111 17.062011 
L 11.113305 21.543715 
L 11.234133 16.984866 
L 11.188975 22.988905 
L 11.244507 17.78519 
L 11.370217 23.057854 
L 11.324449 16.982905 
L 11.381812 21.940995 
L 11.504471 16.905373 
L 11.459313 23.083563 
L 11.513624 17.535089 
L 11.638724 23.196061 
L 11.594787 16.833515 
L 11.65337 21.718056 
L 11.774808 16.795757 
L 11.72965 23.08864 
L 11.783352 17.406612 
L 11.819966 23.247549 
L 11.864514 16.786448 
L 11.923708 21.761875 
L 12.044536 16.674382 
L 11.999378 23.326598 
L 12.052469 17.234272 
L 12.18001 23.39883 
L 12.134241 16.710243 
L 12.195876 21.253471 
L 12.224557 16.61629 
L 12.269105 23.308508 
L 12.324027 17.382529 
L 12.358811 23.462283 
L 12.403969 16.542976 
L 12.463773 21.792382 
L 12.58277 16.458642 
L 12.539443 23.544262 
L 12.594975 17.460032 
L 12.719465 23.609705 
L 12.673696 16.548882 
L 12.731059 22.422503 
L 12.764012 16.33256 
L 12.80856 23.582622 
L 12.865313 17.440277 
L 12.989192 23.690096 
L 12.944034 16.207192 
L 13.002007 22.223088 
L 13.124056 16.105774 
L 13.078898 23.76945 
L 13.137481 17.762916 
L 13.258919 23.862204 
L 13.213761 16.211567 
L 13.268073 23.17678 
L 13.304077 16.017079 
L 13.348625 23.837348 
L 13.408429 17.833447 
L 13.529257 23.938245 
L 13.483489 15.904534 
L 13.539021 23.091397 
L 13.66351 15.83656 
L 13.619573 23.96871 
L 13.676326 17.247363 
L 13.798984 24.060581 
L 13.755047 15.957711 
L 13.811799 22.679872 
L 13.844753 15.765188 
L 13.8893 24.152142 
L 13.949104 17.724133 
L 14.068712 24.220826 
L 14.024164 15.729272 
L 14.079086 23.339855 
L 14.204796 15.632541 
L 14.159028 24.229306 
L 14.218221 17.521182 
L 14.249954 24.348212 
L 14.294502 15.699062 
L 14.350034 23.205241 
L 14.384818 15.548175 
L 14.429365 24.431928 
L 14.486118 16.942123 
L 14.609997 24.455453 
L 14.564229 15.443146 
L 14.624033 22.448239 
L 14.744861 15.309932 
L 14.699703 24.452261 
L 14.755845 16.743603 
L 14.879725 24.567352 
L 14.833957 15.291386 
L 14.89315 22.706838 
L 15.014588 15.196956 
L 14.96943 24.653123 
L 15.025573 16.568646 
L 15.148842 24.722176 
L 15.104294 15.145365 
L 15.164098 22.666008 
L 15.284316 15.032126 
L 15.239768 24.725245 
L 15.29591 16.486331 
L 15.329474 24.829503 
L 15.375242 15.092271 
L 15.432605 22.997569 
L 15.554653 14.987043 
L 15.508885 24.857498 
L 15.566858 16.669982 
L 15.690127 24.935523 
L 15.644359 14.895532 
L 15.702943 23.099996 
L 15.824991 14.818367 
L 15.779223 24.971946 
L 15.837196 16.617764 
L 15.959855 25.043969 
L 15.914087 14.801227 
L 15.97267 23.165726 
L 16.094719 14.668166 
L 16.049561 25.102311 
L 16.105703 16.153718 
L 16.229582 25.207407 
L 16.185035 14.660975 
L 16.242397 23.419182 
L 16.27474 14.541621 
L 16.318678 25.274115 
L 16.376041 16.16337 
L 16.49992 25.359425 
L 16.454152 14.395164 
L 16.515176 22.607717 
L 16.634784 14.309472 
L 16.589626 25.394002 
L 16.648209 16.632927 
L 16.769647 25.474002 
L 16.723879 14.406814 
L 16.780632 24.040804 
L 16.814805 14.210009 
L 16.859353 25.516503 
L 16.919767 17.071915 
L 17.040595 25.619226 
L 16.994827 14.085161 
L 17.0528 23.620209 
L 17.174849 13.987786 
L 17.130301 25.694501 
L 17.187664 16.185069 
L 17.310323 25.808351 
L 17.265165 14.031474 
L 17.321307 24.140181 
L 17.35487 13.910914 
L 17.400028 25.861674 
L 17.459222 16.688821 
L 17.58005 25.959291 
L 17.534892 13.834453 
L 17.591645 24.143549 
L 17.714914 13.724833 
L 17.670366 25.974885 
L 17.728339 16.19453 
L 17.850388 26.097266 
L 17.80523 13.711986 
L 17.861372 24.334774 
L 17.985251 13.574581 
L 17.940093 26.153496 
L 17.999287 16.519937 
L 18.120115 26.241923 
L 18.074957 13.557175 
L 18.13232 24.205407 
L 18.255589 13.462228 
L 18.209821 26.364541 
L 18.267794 15.815218 
L 18.389842 26.452131 
L 18.345295 13.369722 
L 18.403268 23.99346 
L 18.525316 13.27259 
L 18.480158 26.466754 
L 18.536911 15.259042 
L 18.570474 26.595735 
L 18.615632 13.287108 
L 18.672385 24.468079 
L 18.795654 13.155597 
L 18.751106 26.767971 
L 18.808469 15.847953 
L 18.930518 26.893338 
L 18.88536 13.063452 
L 18.942723 24.457813 
L 19.065381 12.939192 
L 19.020224 26.849819 
L 19.078197 15.385255 
L 19.200245 26.984249 
L 19.155087 12.982078 
L 19.21123 25.055658 
L 19.245403 12.81412 
L 19.291171 27.027226 
L 19.350365 16.345853 
L 19.380267 27.117295 
L 19.425425 12.722216 
L 19.482788 24.681071 
L 19.605447 12.65561 
L 19.560289 27.190641 
L 19.618262 15.19826 
L 19.74092 27.342742 
L 19.695763 12.682883 
L 19.751295 25.262368 
L 19.785468 12.568168 
L 19.830626 27.278618 
L 19.89104 16.363426 
L 19.920332 27.463016 
L 19.9661 12.447321 
L 20.022853 24.933083 
L 20.145512 12.353585 
L 20.100354 27.557251 
L 20.159547 15.533378 
L 20.280375 27.760788 
L 20.235828 12.401386 
L 20.29136 25.608786 
L 20.415849 12.208292 
L 20.371302 27.663539 
L 20.429885 15.508371 
L 20.461007 27.947361 
L 20.505555 12.196939 
L 20.561697 25.593299 
L 20.596481 12.047862 
L 20.641029 28.031732 
L 20.699002 15.005302 
L 20.821051 28.167868 
L 20.775893 11.960921 
L 20.832035 25.726038 
L 20.955914 11.808925 
L 20.911367 28.128107 
L 20.968119 14.436801 
L 21.001072 28.32718 
L 21.04623 11.835406 
L 21.106034 24.205661 
L 21.135936 11.696219 
L 21.181704 28.409376 
L 21.237847 14.322255 
L 21.361116 28.425205 
L 21.316568 11.646724 
L 21.376372 24.076945 
L 21.49659 11.556875 
L 21.450821 28.507294 
L 21.507574 13.980058 
L 21.631453 28.595053 
L 21.586295 11.583655 
L 21.644268 25.108835 
L 21.676611 11.450106 
L 21.721159 28.578929 
L 21.779742 14.825376 
L 21.811475 28.71796 
L 21.856633 11.392479 
L 21.912165 26.216642 
L 22.036655 11.275559 
L 21.992107 28.835786 
L 22.048249 13.952088 
L 22.171518 28.960859 
L 22.12636 11.225176 
L 22.183113 26.087444 
L 22.306992 11.183432 
L 22.261834 28.857426 
L 22.317366 13.473917 
L 22.35154 29.015453 
L 22.397308 11.095198 
L 22.453451 25.941188 
L 22.486404 11.061164 
L 22.531562 29.115077 
L 22.588314 13.696127 
L 22.712194 29.268225 
L 22.667036 10.906026 
L 22.723788 26.093868 
L 22.847057 10.844499 
L 22.801899 29.231807 
L 22.858652 13.582802 
L 22.891605 29.361417 
L 22.936763 10.849385 
L 22.994126 26.062872 
L 23.027079 10.792787 
L 23.072237 29.443281 
L 23.12899 13.69642 
L 23.252869 29.577267 
L 23.207101 10.600823 
L 23.264464 26.104768 
L 23.387733 10.586539 
L 23.342575 29.543594 
L 23.398107 13.028921 
L 23.522596 29.678081 
L 23.477438 10.609505 
L 23.536632 25.073432 
L 23.65746 10.558686 
L 23.612302 29.708422 
L 23.670275 14.078163 
L 23.792934 29.832393 
L 23.747776 10.407551 
L 23.805139 25.994741 
L 23.927187 10.321311 
L 23.88264 29.826348 
L 23.938172 12.748738 
L 23.972956 29.908894 
L 24.017503 10.372733 
L 24.076697 25.346651 
L 24.197525 10.165819 
L 24.152977 29.986981 
L 24.20973 13.430715 
L 24.242683 30.053979 
L 24.287841 10.25479 
L 24.345204 26.338255 
L 24.467863 10.042435 
L 24.422705 30.132197 
L 24.478237 12.516412 
L 24.513631 30.146785 
L 24.558179 10.056321 
L 24.616762 25.65956 
L 24.73759 9.892703 
L 24.693042 30.220908 
L 24.747964 12.253182 
L 24.782748 30.244707 
L 24.827906 10.031758 
L 24.886489 25.894185 
L 24.918222 9.866753 
L 24.96338 30.36907 
L 25.018302 12.316396 
L 25.053086 30.349005 
L 25.098244 9.862205 
L 25.156827 25.867167 
L 25.278265 9.72708 
L 25.233107 30.458962 
L 25.29047 13.162122 
L 25.413739 30.559109 
L 25.367971 9.697192 
L 25.425944 26.468949 
L 25.547993 9.555495 
L 25.502835 30.678749 
L 25.560808 13.27405 
L 25.683467 30.736703 
L 25.638309 9.537352 
L 25.695672 26.932509 
L 25.818331 9.402221 
L 25.773783 30.807389 
L 25.830535 12.827867 
L 25.953804 30.882271 
L 25.908646 9.360809 
L 25.96662 26.466724 
L 26.088668 9.273277 
L 26.04412 30.909072 
L 26.100263 12.608446 
L 26.224142 31.024592 
L 26.178984 9.234576 
L 26.237567 26.140961 
L 26.359006 9.209731 
L 26.314458 30.898677 
L 26.368159 11.405643 
L 26.404164 30.972498 
L 26.448712 9.221519 
L 26.509736 24.813796 
L 26.539028 9.078239 
L 26.584185 31.034905 
L 26.640938 12.676222 
L 26.764207 31.171303 
L 26.719049 8.982325 
L 26.777633 26.347628 
L 26.899071 9.021349 
L 26.853913 31.000198 
L 26.910055 11.988502 
L 26.944229 31.177982 
L 26.989387 8.948511 
L 27.04797 26.372156 
L 27.079093 8.949769 
L 27.124861 31.171732 
L 27.179783 11.699727 
L 27.304272 31.344804 
L 27.259114 8.859471 
L 27.317698 26.606456 
L 27.35004 8.772813 
L 27.394588 31.179765 
L 27.452561 13.06025 
L 27.484294 31.365486 
L 27.529452 8.648234 
L 27.587425 27.150239 
L 27.708863 8.627173 
L 27.664926 31.330853 
L 27.720458 11.751478 
L 27.845558 31.470509 
L 27.799179 8.663408 
L 27.858373 26.484872 
L 27.889495 8.53739 
L 27.934653 31.400798 
L 27.990185 11.456887 
L 28.114675 31.557414 
L 28.070127 8.375817 
L 28.1281 26.915537 
L 28.249539 8.344944 
L 28.204991 31.523406 
L 28.261744 12.111358 
L 28.295307 31.693871 
L 28.339855 8.452368 
L 28.398438 26.77049 
L 28.430171 8.346254 
L 28.474718 31.721428 
L 28.530861 11.612479 
L 28.65535 31.735163 
L 28.609582 8.215697 
L 28.667555 27.506415 
L 28.790214 8.109998 
L 28.745666 31.758667 
L 28.800588 11.15825 
L 28.834762 31.937117 
L 28.87992 8.277141 
L 28.939113 26.735355 
L 29.059941 8.130006 
L 29.015394 31.98231 
L 29.070926 11.279717 
L 29.195415 31.899602 
L 29.149647 8.164566 
L 29.20823 27.360739 
L 29.330279 8.027602 
L 29.285121 31.951419 
L 29.340653 10.914945 
L 29.375437 32.142721 
L 29.419985 8.006057 
L 29.477958 27.903434 
L 29.600617 7.862746 
L 29.555459 32.22778 
L 29.610991 10.956296 
L 29.73548 32.129812 
L 29.690322 7.946126 
L 29.748295 27.740855 
L 29.780638 7.787931 
L 29.825796 32.16404 
L 29.880108 10.47698 
L 29.915502 32.240868 
L 29.96066 7.751931 
L 30.021684 25.261657 
L 30.140682 7.651781 
L 30.096134 32.325701 
L 30.151666 11.098278 
L 30.275545 32.324244 
L 30.230998 7.8158 
L 30.288361 27.934263 
L 30.320703 7.591224 
L 30.365861 32.36792 
L 30.420173 10.274279 
L 30.545883 32.392139 
L 30.500725 7.565507 
L 30.561139 25.952043 
L 30.680747 7.502792 
L 30.636199 32.427722 
L 30.691121 10.495614 
L 30.816221 32.45811 
L 30.771063 7.654493 
L 30.830256 26.734629 
L 30.861379 7.428567 
L 30.905926 32.494966 
L 30.962069 11.032583 
L 31.086558 32.543445 
L 31.04079 7.398437 
L 31.098153 28.473312 
L 31.221422 7.367448 
L 31.176264 32.554715 
L 31.234847 12.652891 
L 31.356286 32.597661 
L 31.311128 7.475332 
L 31.36788 28.805213 
L 31.401444 7.31917 
L 31.446602 32.626079 
L 31.505185 12.923844 
L 31.626013 32.696497 
L 31.581465 7.394391 
L 31.637608 29.016383 
L 31.671171 7.364531 
L 31.716329 32.668547 
L 31.773692 11.792133 
L 31.896351 32.674304 
L 31.851193 7.309832 
L 31.909166 28.140271 
L 31.941509 7.243578 
L 31.986057 32.693509 
L 32.042199 10.714966 
L 32.166688 32.818324 
L 32.122141 7.297221 
L 32.179504 27.865066 
L 32.211846 7.148946 
L 32.256394 32.847728 
L 32.310706 9.856001 
L 32.437026 32.831645 
L 32.391868 7.052471 
L 32.452282 25.891721 
L 32.57128 7.045272 
L 32.526732 32.814873 
L 32.581654 10.300816 
L 32.706754 32.926385 
L 32.661596 7.111444 
L 32.721399 26.607229 
L 32.751301 6.917232 
L 32.797069 32.944754 
L 32.853212 10.891155 
L 32.886775 33.008709 
L 32.931933 6.817202 
L 32.989296 28.507501 
L 33.111345 6.729579 
L 33.066797 33.037906 
L 33.12477 11.960935 
L 33.247429 33.062248 
L 33.202271 6.891048 
L 33.259023 28.764308 
L 33.291977 6.713212 
L 33.337135 33.099099 
L 33.393887 11.134961 
L 33.517156 33.130662 
L 33.471998 6.710534 
L 33.529361 28.689095 
L 33.65263 6.671968 
L 33.606862 33.177678 
L 33.665445 12.136643 
L 33.787494 33.207594 
L 33.742336 6.789422 
L 33.799088 28.98814 
L 33.832042 6.639421 
L 33.8772 33.181336 
L 33.934562 11.485947 
L 34.057221 33.199938 
L 34.012674 6.728195 
L 34.069426 28.735127 
L 34.192695 6.660279 
L 34.147537 33.222696 
L 34.206121 12.433574 
L 34.237243 33.289958 
L 34.282401 6.787819 
L 34.338543 29.455034 
L 34.462423 6.608826 
L 34.417265 33.305749 
L 34.474017 10.895329 
L 34.507581 33.326755 
L 34.552739 6.653862 
L 34.610101 28.42014 
L 34.73215 6.583753 
L 34.687602 33.346726 
L 34.744355 11.015366 
L 34.867014 33.366107 
L 34.822466 6.539597 
L 34.878608 29.534574 
L 35.002488 6.445223 
L 34.95733 33.382749 
L 35.014693 11.183157 
L 35.137962 33.399764 
L 35.092804 6.589607 
L 35.150777 28.221615 
L 35.182509 6.408516 
L 35.227667 33.402692 
L 35.282589 9.76606 
L 35.407689 33.502671 
L 35.362531 6.392043 
L 35.422335 27.048182 
L 35.542553 6.360213 
L 35.497395 33.481976 
L 35.553537 10.181908 
L 35.588321 33.548331 
L 35.632869 6.494728 
L 35.692062 27.34636 
L 35.723185 6.32482 
L 35.767732 33.557011 
L 35.823265 10.038497 
L 35.857438 33.537838 
L 35.902596 6.332606 
L 35.9624 27.119624 
L 36.083228 6.353457 
L 36.03807 33.535253 
L 36.094212 10.433685 
L 36.128386 33.585012 
L 36.172934 6.460229 
L 36.232127 27.526212 
L 36.26325 6.327471 
L 36.308408 33.618245 
L 36.362719 9.565405 
L 36.397503 33.56873 
L 36.443271 6.39144 
L 36.502465 27.220978 
L 36.623293 6.377973 
L 36.578135 33.564618 
L 36.634277 10.410132 
L 36.758157 33.570397 
L 36.712999 6.400462 
L 36.772803 27.232204 
L 36.893021 6.276367 
L 36.848473 33.612788 
L 36.904005 10.211125 
L 37.028494 33.653447 
L 36.983336 6.392016 
L 37.04253 27.462112 
L 37.073042 6.235413 
L 37.11881 33.701528 
L 37.173122 9.503726 
L 37.208516 33.682274 
L 37.253674 6.227208 
L 37.312257 27.96591 
L 37.433696 6.212101 
L 37.388538 33.666458 
L 37.44346 9.609878 
L 37.478854 33.699053 
L 37.523402 6.415952 
L 37.583205 27.026855 
L 37.613717 6.17754 
L 37.658875 33.694883 
L 37.714408 10.046459 
L 37.748581 33.699489 
L 37.793739 6.149386 
L 37.852933 27.525842 
L 37.973761 6.125549 
L 37.928603 33.723442 
L 37.983525 9.513174 
L 38.109235 33.742051 
L 38.063467 6.33681 
L 38.12205 28.29828 
L 38.153783 6.065732 
L 38.198941 33.70595 
L 38.253862 9.557822 
L 38.378962 33.750586 
L 38.333804 6.058681 
L 38.393608 26.949711 
L 38.514436 6.05497 
L 38.468668 33.775081 
L 38.52359 9.517176 
L 38.6493 33.802814 
L 38.603532 6.234574 
L 38.662115 28.388158 
L 38.693848 6.088486 
L 38.739006 33.79166 
L 38.795148 10.288606 
L 38.919027 33.819366 
L 38.873869 6.11134 
L 38.931842 28.618085 
L 39.053891 6.148677 
L 39.008733 33.838539 
L 39.066096 10.918559 
L 39.099049 33.869593 
L 39.144207 6.115544 
L 39.20218 28.480152 
L 39.324229 6.016052 
L 39.279071 33.893148 
L 39.337654 11.937774 
L 39.459092 33.939315 
L 39.413934 6.136316 
L 39.470077 30.117561 
L 39.504861 5.930861 
L 39.549408 33.866526 
L 39.608602 12.668225 
L 39.639114 33.917412 
L 39.684272 5.873569 
L 39.741025 29.497438 
L 39.864294 5.865366 
L 39.819746 33.926814 
L 39.875278 10.047877 
L 39.999157 33.972244 
L 39.95461 6.043467 
L 40.013803 27.318047 
L 40.044315 5.812852 
L 40.089473 33.944384 
L 40.144395 9.356189 
L 40.270105 33.968488 
L 40.224337 5.81392 
L 40.28292 28.17576 
L 40.404359 5.774692 
L 40.359201 33.983431 
L 40.415953 10.322841 
L 40.539833 34.035537 
L 40.494675 5.954238 
L 40.552648 28.558421 
L 40.584991 5.719783 
L 40.629538 34.043693 
L 40.687511 11.30983 
L 40.80956 34.05333 
L 40.764402 5.722647 
L 40.820544 30.170103 
L 40.945034 5.701118 
L 40.899266 34.028141 
L 40.95968 12.926867 
L 40.989582 34.05023 
L 41.03474 5.885233 
L 41.091492 29.691458 
L 41.124445 5.705302 
L 41.170214 34.053307 
L 41.226356 10.34696 
L 41.349625 34.014356 
L 41.305077 5.768172 
L 41.36305 28.524036 
L 41.485099 5.819003 
L 41.439941 34.032258 
L 41.496694 10.499947 
L 41.529647 34.091886 
L 41.574805 5.915632 
L 41.633998 27.915865 
L 41.665121 5.840152 
L 41.709669 34.11662 
L 41.76398 8.718071 
L 41.8903 34.115093 
L 41.845142 5.823648 
L 41.903726 28.133225 
L 41.934848 5.842292 
L 41.980616 34.105468 
L 42.034928 9.204978 
L 42.070322 34.101446 
L 42.11487 5.844653 
L 42.173453 28.492858 
L 42.294892 5.730805 
L 42.250344 34.103763 
L 42.306486 10.305681 
L 42.34005 34.111291 
L 42.385208 5.891455 
L 42.443791 28.2129 
L 42.475523 5.71696 
L 42.520071 34.115169 
L 42.574383 8.771908 
L 42.700703 34.079348 
L 42.654935 5.695601 
L 42.714128 28.094716 
L 42.835567 5.705976 
L 42.790409 34.0698 
L 42.845331 9.416381 
L 42.880115 34.111597 
L 42.925273 5.975792 
L 42.982635 29.266158 
L 43.015589 5.660505 
L 43.060136 34.10801 
L 43.115668 9.392132 
L 43.150452 34.117879 
L 43.19561 5.684141 
L 43.254804 27.591814 
L 43.375632 5.728782 
L 43.330474 34.070267 
L 43.386006 9.650642 
L 43.42018 34.112841 
L 43.465948 5.961323 
L 43.523921 28.418523 
L 43.555654 5.757928 
L 43.600812 34.058382 
L 43.656344 9.752184 
L 43.690517 34.099023 
L 43.735675 5.766975 
L 43.795479 27.000182 
L 43.915697 5.826594 
L 43.870539 34.068918 
L 43.925461 9.263055 
L 44.050561 34.068376 
L 44.005403 5.926826 
L 44.063376 28.910216 
L 44.095719 5.787113 
L 44.140266 34.091102 
L 44.19885 11.57064 
L 44.230582 34.109941 
L 44.27574 5.895968 
L 44.332493 29.740145 
L 44.365446 5.799815 
L 44.410604 34.072438 
L 44.467357 10.452008 
L 44.50092 34.109573 
L 44.546078 5.790148 
L 44.604051 28.537598 
L 44.725489 5.728051 
L 44.680942 34.132796 
L 44.738305 10.921869 
L 44.770647 34.141809 
L 44.815805 5.912417 
L 44.871948 30.15342 
L 44.906121 5.74187 
L 44.951279 34.124023 
L 45.011083 13.202032 
L 45.040985 34.133561 
L 45.086143 5.706652 
L 45.142285 29.964509 
L 45.266165 5.690231 
L 45.221007 34.135336 
L 45.280811 12.7548 
L 45.401028 34.128453 
L 45.35587 5.875845 
L 45.412013 30.206149 
L 45.446186 5.729381 
L 45.490734 34.103297 
L 45.550538 12.554583 
L 45.58105 34.101692 
L 45.626208 5.748082 
L 45.68235 30.064182 
L 45.80623 5.807082 
L 45.761072 34.048477 
L 45.820876 12.713136 
L 45.941093 34.114768 
L 45.896546 5.819087 
L 45.952688 29.864361 
L 46.076567 5.831408 
L 46.031409 34.089208 
L 46.089383 11.465587 
L 46.211431 34.113754 
L 46.166273 5.861068 
L 46.222416 30.169349 
L 46.256589 5.829948 
L 46.301747 34.122198 
L 46.360941 12.673567 
L 46.481159 34.167276 
L 46.436611 5.735523 
L 46.493363 29.562323 
L 46.616632 5.712832 
L 46.571475 34.167254 
L 46.627617 10.072162 
L 46.752106 34.160272 
L 46.706338 5.830893 
L 46.765532 27.917945 
L 46.796044 5.695369 
L 46.841202 34.138197 
L 46.895514 8.617283 
L 47.021834 34.158087 
L 46.976676 5.711884 
L 47.035869 27.730806 
L 47.156698 5.683308 
L 47.11215 34.184134 
L 47.165851 8.785059 
L 47.291561 34.191026 
L 47.246403 5.802451 
L 47.305597 28.100991 
L 47.337329 5.709731 
L 47.381877 34.135736 
L 47.436189 8.915506 
L 47.561899 34.176826 
L 47.517351 5.723603 
L 47.575324 28.387718 
L 47.697373 5.744686 
L 47.652215 34.133816 
L 47.707137 9.512402 
L 47.832237 34.200855 
L 47.787079 5.784376 
L 47.845052 28.751091 
L 47.9671 5.696674 
L 47.922553 34.184958 
L 47.979305 10.773144 
L 48.101964 34.213022 
L 48.056806 5.793198 
L 48.114779 29.019648 
L 48.147122 5.640318 
L 48.19228 34.164877 
L 48.248422 10.145946 
L 48.282596 34.208847 
L 48.327144 5.661476 
L 48.385727 28.356801 
L 48.507165 5.592273 
L 48.462618 34.2244 
L 48.51937 10.706229 
L 48.642639 34.248063 
L 48.597481 5.826634 
L 48.654844 29.157376 
L 48.687187 5.575321 
L 48.732345 34.184223 
L 48.788487 9.953706 
L 48.822661 34.213356 
L 48.867209 5.612073 
L 48.925792 28.452158 
L 49.04723 5.598101 
L 49.002072 34.195105 
L 49.060656 11.443608 
L 49.092388 34.21532 
L 49.137546 5.799031 
L 49.194299 29.795273 
L 49.227252 5.602346 
L 49.27302 34.198292 
L 49.329163 10.25899 
L 49.362726 34.238834 
L 49.407274 5.578681 
L 49.465857 28.607987 
L 49.587906 5.566329 
L 49.542748 34.242453 
L 49.601941 12.272823 
L 49.632453 34.281883 
L 49.677611 5.661879 
L 49.733754 30.21586 
L 49.767927 5.517166 
L 49.813085 34.320317 
L 49.871669 12.029607 
L 49.993107 34.321977 
L 49.947949 5.497312 
L 50.003481 30.505848 
L 50.127971 5.4733 
L 50.082813 34.320573 
L 50.141396 11.565639 
L 50.173129 34.354915 
L 50.217676 5.598012 
L 50.274429 29.978767 
L 50.307992 5.511032 
L 50.35315 34.342884 
L 50.412344 12.360779 
L 50.533172 34.336021 
L 50.488014 5.51146 
L 50.544156 30.317641 
L 50.668646 5.56142 
L 50.622878 34.34831 
L 50.682071 11.914445 
L 50.713194 34.319047 
L 50.758352 5.620761 
L 50.814494 30.157678 
L 50.848057 5.58375 
L 50.893215 34.34753 
L 50.952409 12.131637 
L 51.073237 34.346588 
L 51.028079 5.538121 
L 51.084832 30.177055 
L 51.118395 5.586962 
L 51.163553 34.34561 
L 51.222747 12.271868 
L 51.343575 34.342728 
L 51.298417 5.556175 
L 51.355169 29.919809 
L 51.479049 5.512282 
L 51.43328 34.329451 
L 51.491864 11.448611 
L 51.613912 34.340313 
L 51.568754 5.683584 
L 51.624897 30.324424 
L 51.65846 5.484986 
L 51.703618 34.332641 
L 51.762201 11.581955 
L 51.88425 34.360357 
L 51.839092 5.493923 
L 51.894624 30.527906 
L 52.018504 5.498068 
L 51.973956 34.318351 
L 52.03376 12.750376 
L 52.064272 34.344286 
L 52.108819 5.693338 
L 52.165572 30.024875 
L 52.199135 5.503936 
L 52.244293 34.329768 
L 52.302267 11.385767 
L 52.424315 34.350767 
L 52.378547 5.548903 
L 52.434689 30.688889 
L 52.559179 5.537748 
L 52.514021 34.287408 
L 52.573214 12.15481 
L 52.604337 34.33091 
L 52.649495 5.705957 
L 52.705637 30.118102 
L 52.739201 5.576826 
L 52.784359 34.295983 
L 52.842332 11.31143 
L 52.874064 34.331711 
L 52.919222 5.631484 
L 52.975975 29.967702 
L 53.009538 5.585937 
L 53.054086 34.247835 
L 53.111449 10.613532 
L 53.144402 34.312948 
L 53.18895 5.612258 
L 53.247533 28.764928 
L 53.279266 5.588354 
L 53.324424 34.276449 
L 53.382397 11.269877 
L 53.41474 34.323334 
L 53.459287 5.671483 
L 53.51604 30.036626 
L 53.549603 5.532342 
L 53.594151 34.328615 
L 53.653955 12.489922 
L 53.774783 34.327381 
L 53.729625 5.525837 
L 53.786378 29.79564 
L 53.909647 5.543145 
L 53.864489 34.332697 
L 53.921851 10.652248 
L 53.954805 34.332024 
L 53.999963 5.665103 
L 54.057325 29.16857 
L 54.089668 5.525062 
L 54.134826 34.350178 
L 54.190969 9.999972 
L 54.224532 34.35511 
L 54.2703 5.527854 
L 54.328884 28.114785 
L 54.450322 5.533554 
L 54.405164 34.358183 
L 54.459476 8.707294 
L 54.49487 34.338006 
L 54.540028 5.590095 
L 54.598611 28.362383 
L 54.630344 5.538351 
L 54.674891 34.339626 
L 54.732254 10.719853 
L 54.765207 34.357188 
L 54.810365 5.522922 
L 54.867728 29.067592 
L 54.989777 5.594219 
L 54.945229 34.343227 
L 55.001371 10.039181 
L 55.12464 34.294048 
L 55.080093 5.583882 
L 55.139286 27.940808 
L 55.260114 5.588418 
L 55.214956 34.333607 
L 55.269878 8.928345 
L 55.305272 34.324479 
L 55.35043 5.589781 
L 55.409014 28.244127 
L 55.440136 5.61676 
L 55.485294 34.358831 
L 55.540216 9.194098 
L 55.57561 34.319542 
L 55.620158 5.537427 
L 55.678131 28.90254 
L 55.800179 5.553065 
L 55.755632 34.334723 
L 55.812995 11.039857 
L 55.935043 34.329817 
L 55.890495 5.647308 
L 55.946027 30.60111 
L 55.980201 5.552994 
L 56.025359 34.339473 
L 56.083332 11.248591 
L 56.115675 34.328575 
L 56.160833 5.520529 
L 56.216975 29.978587 
L 56.340855 5.502332 
L 56.295697 34.330296 
L 56.35428 11.929036 
L 56.475718 34.33927 
L 56.43056 5.679579 
L 56.487313 29.911905 
L 56.520876 5.503208 
L 56.566034 34.298782 
L 56.622177 10.166492 
L 56.65574 34.33649 
L 56.700898 5.488803 
L 56.758871 28.730554 
L 56.88092 5.55245 
L 56.835762 34.299682 
L 56.893125 10.898221 
L 57.015783 34.307559 
L 56.970625 5.718202 
L 57.029209 28.564222 
L 57.060941 5.571433 
L 57.106099 34.276582 
L 57.162242 10.059778 
L 57.286121 34.314916 
L 57.240963 5.579649 
L 57.299546 28.370777 
L 57.420985 5.597428 
L 57.375827 34.241699 
L 57.431359 9.534458 
L 57.466143 34.313319 
L 57.510691 5.679906 
L 57.569274 28.66915 
L 57.601007 5.606431 
L 57.646164 34.300672 
L 57.703527 10.839706 
L 57.826186 34.30362 
L 57.781028 5.689881 
L 57.838391 29.567597 
L 57.870734 5.609015 
L 57.916502 34.237511 
L 57.971424 9.346598 
L 58.006818 34.28334 
L 58.051366 5.624067 
L 58.109949 28.378185 
L 58.231388 5.573767 
L 58.18623 34.315476 
L 58.242982 10.287461 
L 58.276546 34.343092 
L 58.321703 5.649921 
L 58.380287 28.2435 
L 58.411409 5.512366 
L 58.456567 34.327761 
L 58.510879 8.712302 
L 58.546273 34.335066 
L 58.591431 5.54775 
L 58.650014 28.498996 
L 58.771453 5.527666 
L 58.726295 34.343047 
L 58.785488 11.957303 
L 58.816611 34.3703 
L 58.861769 5.627858 
L 58.917911 30.13187 
L 58.952085 5.527321 
L 58.996632 34.34954 
L 59.056436 12.697254 
L 59.086948 34.338406 
L 59.131496 5.511817 
L 59.14126 8.806857 
" style="fill:none;stroke:#f08080;stroke-linecap:square;stroke-width:0.04;"/>
   </g>
   <g id="patch_3">
    <path d="M 4.22 39.242835 
L 4.22 0.72 
" style="fill:none;stroke:#f08080;stroke-linecap:square;stroke-linejoin:miter;stroke-width:0.5;"/>
   </g>
   <g id="patch_4">
    <path d="M 59.14126 39.242835 
L 59.14126 0.72 
" style="fill:none;stroke:#f08080;stroke-linecap:square;stroke-linejoin:miter;stroke-width:0.5;"/>
   </g>
   <g id="patch_5">
    <path d="M 4.22 39.242835 
L 59.14126 39.242835 
" style="fill:none;stroke:#f08080;stroke-linecap:square;stroke-linejoin:miter;stroke-width:0.5;"/>
   </g>
   <g id="patch_6">
    <path d="M 4.22 0.72 
L 59.14126 0.72 
" style="fill:none;stroke:#f08080;stroke-linecap:square;stroke-linejoin:miter;stroke-width:0.5;"/>
   </g>
  </g>
 </g>
 <defs>
  <clipPath id="pd2619b3a17">
   <rect height="38.522835" width="54.92126" x="4.22" y="0.72"/>
  </clipPath>
 </defs>
</svg>
