<?xml version="1.0" encoding="utf-8" standalone="no"?>
<!DOCTYPE svg PUBLIC "-//W3C//DTD SVG 1.1//EN"
  "http://www.w3.org/Graphics/SVG/1.1/DTD/svg11.dtd">
<svg xmlns:xlink="http://www.w3.org/1999/xlink" width="56.36126pt" height="40.728189pt" viewBox="0 0 56.36126 40.728189" xmlns="http://www.w3.org/2000/svg" version="1.1">
 <metadata>
  <rdf:RDF xmlns:dc="http://purl.org/dc/elements/1.1/" xmlns:cc="http://creativecommons.org/ns#" xmlns:rdf="http://www.w3.org/1999/02/22-rdf-syntax-ns#">
   <cc:Work>
    <dc:type rdf:resource="http://purl.org/dc/dcmitype/StillImage"/>
    <dc:date>2025-02-16T20:55:21.570086</dc:date>
    <dc:format>image/svg+xml</dc:format>
    <dc:creator>
     <cc:Agent>
      <dc:title>Matplotlib v3.7.5, https://matplotlib.org/</dc:title>
     </cc:Agent>
    </dc:creator>
   </cc:Work>
  </rdf:RDF>
 </metadata>
 <defs>
  <style type="text/css">*{stroke-linejoin: round; stroke-linecap: butt}</style>
 </defs>
 <g id="figure_1">
  <g id="patch_1">
   <path d="M 0 40.728189 
L 56.36126 40.728189 
L 56.36126 0 
L 0 0 
z
" style="fill: #ffffff"/>
  </g>
  <g id="axes_1">
   <g id="patch_2">
    <path d="M 0.72 40.008189 
L 55.64126 40.008189 
L 55.64126 0.72 
L 0.72 0.72 
z
" style="fill: #ffffff"/>
   </g>
   <g id="matplotlib.axis_1"/>
   <g id="matplotlib.axis_2"/>
   <g id="line2d_1">
    <path d="M 0.72 19.122912 
L 0.736477 19.910756 
L 0.765768 21.526034 
L 0.808485 19.212804 
L 0.863407 21.129566 
L 0.899411 19.071303 
L 0.944569 21.571749 
L 0.99583 19.298115 
L 1.12276 21.557201 
L 1.078213 19.093685 
L 1.140457 20.80331 
L 1.261286 19.060115 
L 1.212466 21.552569 
L 1.269829 19.392781 
L 1.393708 21.619685 
L 1.34855 19.088704 
L 1.409575 20.786988 
L 1.438866 19.03623 
L 1.482804 21.514237 
L 1.536505 19.34814 
L 1.572509 21.582868 
L 1.616447 19.066544 
L 1.675641 20.99821 
L 1.707983 19.062759 
L 1.753752 21.614945 
L 1.810504 19.572967 
L 1.930722 21.749983 
L 1.887395 18.979361 
L 1.94964 20.774798 
L 2.066806 18.955898 
L 2.022259 21.584211 
L 2.074129 19.175569 
L 2.110134 21.847244 
L 2.157122 18.861119 
L 2.218757 20.682516 
L 2.246828 18.877793 
L 2.290765 21.840484 
L 2.346908 19.279309 
L 2.470177 21.893373 
L 2.42746 18.798154 
L 2.483602 21.408443 
L 2.606871 18.760169 
L 2.559883 21.78386 
L 2.616635 19.188459 
L 2.650809 21.907764 
L 2.695357 18.746976 
L 2.751499 21.4245 
L 2.786283 18.642068 
L 2.830831 21.898555 
L 2.890634 19.594343 
L 3.011462 21.975671 
L 2.966915 18.667619 
L 3.021226 21.547301 
L 3.145716 18.625154 
L 3.101168 22.015325 
L 3.159141 19.266348 
L 3.28058 22.003743 
L 3.235422 18.69018 
L 3.290954 21.546248 
L 3.325127 18.6063 
L 3.369675 22.010251 
L 3.428869 19.348209 
L 3.459991 22.157987 
L 3.505759 18.571519 
L 3.560681 21.630297 
L 3.685171 18.469889 
L 3.639403 22.243149 
L 3.698596 19.148619 
L 3.820034 22.280502 
L 3.776097 18.560873 
L 3.83407 21.38069 
L 3.955508 18.382043 
L 3.910961 22.24653 
L 3.967713 19.023788 
L 4.000666 22.33811 
L 4.045214 18.468282 
L 4.107459 20.942966 
L 4.226456 18.391533 
L 4.180078 22.346692 
L 4.234389 18.737274 
L 4.358879 22.381621 
L 4.317382 18.411617 
L 4.378407 20.959516 
L 4.496794 18.244453 
L 4.450415 22.398952 
L 4.506558 18.842366 
L 4.629217 22.408923 
L 4.584059 18.375835 
L 4.640811 21.790669 
L 4.676205 18.220839 
L 4.720143 22.46281 
L 4.778116 19.008032 
L 4.809849 22.498929 
L 4.855007 18.277568 
L 4.911759 21.778535 
L 5.036249 18.11394 
L 4.98926 22.574353 
L 5.050284 19.214351 
L 5.169892 22.643676 
L 5.124734 18.173333 
L 5.186369 21.331435 
L 5.21566 18.06542 
L 5.259598 22.567522 
L 5.319401 19.04421 
L 5.351134 22.678283 
L 5.394461 18.12686 
L 5.453655 21.72409 
L 5.486608 18.075802 
L 5.529935 22.742447 
L 5.587908 18.832672 
L 5.709347 22.753225 
L 5.665409 18.118259 
L 5.726434 21.393178 
L 5.844821 18.039112 
L 5.800273 22.714444 
L 5.855805 18.646457 
L 5.889979 22.78728 
L 5.936357 18.042138 
L 5.994941 21.514281 
L 6.024842 17.953028 
L 6.071221 22.864113 
L 6.125533 18.517928 
L 6.251243 22.908104 
L 6.205474 17.931293 
L 6.264668 21.609837 
L 6.29518 17.887517 
L 6.340338 22.881996 
L 6.39648 18.686879 
L 6.430044 22.940184 
L 6.475202 17.792058 
L 6.530124 22.317755 
L 6.655223 17.718496 
L 6.608845 23.041357 
L 6.668649 18.807998 
L 6.790087 23.051067 
L 6.744929 17.650281 
L 6.801072 22.184218 
L 6.92373 17.622899 
L 6.879793 23.096254 
L 6.936545 18.535885 
L 6.969499 23.156955 
L 7.014046 17.536332 
L 7.07263 22.045573 
L 7.194678 17.57177 
L 7.14891 23.232888 
L 7.205663 18.396007 
L 7.328932 23.279846 
L 7.284994 17.495877 
L 7.340526 22.371375 
L 7.464406 17.465769 
L 7.419248 23.250029 
L 7.47539 18.311905 
L 7.508343 23.365672 
L 7.554111 17.386687 
L 7.613305 21.957431 
L 7.734133 17.308009 
L 7.688975 23.431334 
L 7.744507 18.124233 
L 7.870217 23.501652 
L 7.824449 17.306009 
L 7.881812 22.362604 
L 8.004471 17.226937 
L 7.959313 23.527872 
L 8.013624 17.869164 
L 8.138724 23.642605 
L 8.094787 17.153651 
L 8.15337 22.135236 
L 8.274808 17.115143 
L 8.22965 23.53305 
L 8.283352 17.738134 
L 8.319966 23.695116 
L 8.364514 17.105649 
L 8.423708 22.179925 
L 8.544536 16.991357 
L 8.499378 23.775736 
L 8.552469 17.56237 
L 8.68001 23.849403 
L 8.634241 17.02793 
L 8.695876 21.66142 
L 8.724557 16.93211 
L 8.769105 23.757287 
L 8.824027 17.713573 
L 8.858811 23.914117 
L 8.903969 16.85734 
L 8.963773 22.211038 
L 9.08277 16.77133 
L 9.039443 23.997725 
L 9.094975 17.792615 
L 9.219465 24.064467 
L 9.173696 16.863363 
L 9.231059 22.853678 
L 9.264012 16.642744 
L 9.30856 24.036846 
L 9.365313 17.772468 
L 9.489192 24.146455 
L 9.444034 16.514884 
L 9.502007 22.650302 
L 9.624056 16.411452 
L 9.578898 24.227386 
L 9.637481 18.101517 
L 9.758919 24.321983 
L 9.713761 16.519346 
L 9.768073 23.622941 
L 9.804077 16.320994 
L 9.848625 24.296633 
L 9.908429 18.173449 
L 10.029257 24.399535 
L 9.983489 16.206213 
L 10.039021 23.535862 
L 10.16351 16.136889 
L 10.119573 24.430605 
L 10.176326 17.575721 
L 10.298984 24.524301 
L 10.255047 16.260447 
L 10.311799 23.116161 
L 10.344753 16.064099 
L 10.3893 24.617681 
L 10.449104 18.061964 
L 10.568712 24.68773 
L 10.524164 16.027469 
L 10.579086 23.789256 
L 10.704796 15.928817 
L 10.659028 24.696379 
L 10.718221 17.854981 
L 10.749954 24.817647 
L 10.794502 15.996659 
L 10.850034 23.651967 
L 10.884818 15.842774 
L 10.929365 24.903026 
L 10.986118 17.264417 
L 11.109997 24.927018 
L 11.064229 15.735659 
L 11.124033 22.879926 
L 11.244861 15.599799 
L 11.199703 24.923763 
L 11.255845 17.061953 
L 11.379725 25.04114 
L 11.333957 15.580883 
L 11.39315 23.143663 
L 11.514588 15.484577 
L 11.46943 25.128615 
L 11.525573 16.88352 
L 11.648842 25.19904 
L 11.604294 15.431961 
L 11.664098 23.102022 
L 11.784316 15.316473 
L 11.739768 25.20217 
L 11.79591 16.799569 
L 11.829474 25.3085 
L 11.875242 15.377813 
L 11.932605 23.44017 
L 12.054653 15.270494 
L 12.008885 25.337051 
L 12.066858 16.986869 
L 12.190127 25.416626 
L 12.144359 15.177165 
L 12.202943 23.544632 
L 12.324991 15.098467 
L 12.279223 25.453773 
L 12.337196 16.933614 
L 12.459855 25.527227 
L 12.414087 15.080986 
L 12.47267 23.611668 
L 12.594719 14.945282 
L 12.549561 25.586728 
L 12.605703 16.460348 
L 12.729582 25.693911 
L 12.685035 14.937948 
L 12.742397 23.870159 
L 12.77474 14.816222 
L 12.818678 25.761946 
L 12.876041 16.470192 
L 12.99992 25.84895 
L 12.954152 14.666856 
L 13.015176 23.042573 
L 13.134784 14.579462 
L 13.089626 25.884214 
L 13.148209 16.949077 
L 13.269647 25.965803 
L 13.223879 14.678738 
L 13.280632 24.504131 
L 13.314805 14.478023 
L 13.359353 26.009149 
L 13.419767 17.396788 
L 13.540595 26.113913 
L 13.494827 14.350694 
L 13.5528 24.07518 
L 13.674849 14.251385 
L 13.630301 26.190683 
L 13.687664 16.492322 
L 13.810323 26.306795 
L 13.765165 14.29594 
L 13.821307 24.605483 
L 13.85487 14.172985 
L 13.900028 26.361178 
L 13.959222 17.006083 
L 14.08005 26.460734 
L 14.034892 14.095005 
L 14.091645 24.608917 
L 14.214914 13.983207 
L 14.170366 26.476637 
L 14.228339 16.501971 
L 14.350388 26.60145 
L 14.30523 13.970105 
L 14.361372 24.803941 
L 14.485251 13.82997 
L 14.440093 26.658797 
L 14.499287 16.833843 
L 14.620115 26.748981 
L 14.574957 13.812218 
L 14.63232 24.672004 
L 14.755589 13.715385 
L 14.709821 26.874035 
L 14.767794 16.115123 
L 14.889842 26.963365 
L 14.845295 13.621041 
L 14.903268 24.455847 
L 15.025316 13.521979 
L 14.980158 26.978279 
L 15.036911 15.547897 
L 15.070474 27.109823 
L 15.115632 13.536786 
L 15.172385 24.939895 
L 15.295654 13.402661 
L 15.251106 27.28548 
L 15.308469 16.148509 
L 15.430518 27.413338 
L 15.38536 13.308686 
L 15.442723 24.929426 
L 15.565381 13.181957 
L 15.520224 27.368955 
L 15.578197 15.676618 
L 15.700245 27.506055 
L 15.655087 13.225696 
L 15.71123 25.539148 
L 15.745403 13.054401 
L 15.791171 27.549886 
L 15.850365 16.6563 
L 15.880267 27.641745 
L 15.925425 12.960671 
L 15.982788 25.157119 
L 16.105447 12.892741 
L 16.060289 27.716548 
L 16.118262 15.485907 
L 16.24092 27.871671 
L 16.195763 12.920556 
L 16.251295 25.749965 
L 16.285468 12.803562 
L 16.330626 27.806272 
L 16.39104 16.674222 
L 16.420332 27.994334 
L 16.4661 12.680314 
L 16.522853 25.414138 
L 16.645512 12.584716 
L 16.600354 28.090441 
L 16.659547 15.827683 
L 16.780375 28.298022 
L 16.735828 12.633467 
L 16.79136 26.103266 
L 16.915849 12.436536 
L 16.871302 28.198841 
L 16.929885 15.80218 
L 16.961007 28.488302 
L 17.005555 12.424958 
L 17.061697 26.087471 
L 17.096481 12.272919 
L 17.141029 28.574349 
L 17.199002 15.289116 
L 17.321051 28.71319 
L 17.275893 12.18425 
L 17.332035 26.222847 
L 17.455914 12.029235 
L 17.411367 28.672639 
L 17.468119 14.70932 
L 17.501072 28.875667 
L 17.54623 12.056242 
L 17.606034 24.672264 
L 17.635936 11.91429 
L 17.681704 28.959496 
L 17.737847 14.592498 
L 17.861116 28.97564 
L 17.816568 11.863812 
L 17.876372 24.540991 
L 17.99659 11.772178 
L 17.950821 29.05936 
L 18.007574 14.243503 
L 18.131453 29.148862 
L 18.086295 11.799489 
L 18.144268 25.593381 
L 18.176611 11.663287 
L 18.221159 29.132417 
L 18.279742 15.105615 
L 18.311475 29.274211 
L 18.356633 11.604515 
L 18.412165 26.723198 
L 18.536655 11.485272 
L 18.492107 29.394378 
L 18.548249 14.214977 
L 18.671518 29.521936 
L 18.62636 11.433888 
L 18.683113 26.591433 
L 18.806992 11.391314 
L 18.761834 29.416448 
L 18.817366 13.727306 
L 18.85154 29.577614 
L 18.897308 11.301328 
L 18.953451 26.442271 
L 18.986404 11.266617 
L 19.031562 29.679218 
L 19.088314 13.953931 
L 19.212194 29.835409 
L 19.167036 11.108397 
L 19.223788 26.597985 
L 19.347057 11.045648 
L 19.301899 29.798267 
L 19.358652 13.838354 
L 19.391605 29.930452 
L 19.436763 11.050631 
L 19.494126 26.566373 
L 19.527079 10.992908 
L 19.572237 30.013942 
L 19.62899 13.954229 
L 19.752869 30.15059 
L 19.707101 10.797131 
L 19.764464 26.609101 
L 19.887733 10.782563 
L 19.842575 30.116248 
L 19.898107 13.27347 
L 20.022596 30.253407 
L 19.977438 10.805985 
L 20.036632 25.557275 
L 20.15746 10.754157 
L 20.112302 30.284351 
L 20.170275 14.343557 
L 20.292934 30.410785 
L 20.247776 10.600019 
L 20.305139 26.496888 
L 20.427187 10.512065 
L 20.38264 30.40462 
L 20.438172 12.98772 
L 20.472956 30.488806 
L 20.517503 10.564509 
L 20.576697 25.835922 
L 20.697525 10.353484 
L 20.652977 30.568445 
L 20.70973 13.683246 
L 20.742683 30.636774 
L 20.787841 10.444223 
L 20.845204 26.847227 
L 20.967863 10.227649 
L 20.922705 30.716546 
L 20.978237 12.750778 
L 21.013631 30.731423 
L 21.058179 10.241811 
L 21.116762 26.155048 
L 21.23759 10.074942 
L 21.193042 30.807019 
L 21.247964 12.482318 
L 21.282748 30.83129 
L 21.327906 10.21676 
L 21.386489 26.394334 
L 21.418222 10.048477 
L 21.46338 30.958124 
L 21.518302 12.546788 
L 21.553086 30.937661 
L 21.598244 10.043839 
L 21.656827 26.36678 
L 21.778265 9.906029 
L 21.733107 31.049803 
L 21.79047 13.409317 
L 21.913739 31.151939 
L 21.867971 9.875547 
L 21.925944 26.980518 
L 22.047993 9.731035 
L 22.002835 31.273956 
L 22.060808 13.523468 
L 22.183467 31.333061 
L 22.138309 9.712531 
L 22.195672 27.453288 
L 22.318331 9.574715 
L 22.273783 31.405152 
L 22.330535 13.068421 
L 22.453804 31.481521 
L 22.408646 9.532481 
L 22.46662 26.978248 
L 22.588668 9.44321 
L 22.54412 31.508855 
L 22.600263 12.84464 
L 22.724142 31.62667 
L 22.678984 9.40374 
L 22.737567 26.646013 
L 22.859006 9.378401 
L 22.814458 31.498254 
L 22.868159 11.617941 
L 22.904164 31.573541 
L 22.948712 9.390424 
L 23.009736 25.292481 
L 23.039028 9.244296 
L 23.084185 31.637188 
L 23.140938 12.913763 
L 23.264207 31.776295 
L 23.219049 9.146477 
L 23.277633 26.856787 
L 23.399071 9.186277 
L 23.353913 31.601791 
L 23.410055 12.212379 
L 23.444229 31.783108 
L 23.489387 9.111992 
L 23.54797 26.881802 
L 23.579093 9.113274 
L 23.624861 31.776733 
L 23.679783 11.917867 
L 23.804272 31.953243 
L 23.759114 9.021182 
L 23.817698 27.120756 
L 23.85004 8.932803 
L 23.894588 31.784926 
L 23.952561 13.305421 
L 23.984294 31.974337 
L 24.029452 8.805749 
L 24.087425 27.675343 
L 24.208863 8.784269 
L 24.164926 31.939016 
L 24.220458 11.970646 
L 24.345558 32.081446 
L 24.299179 8.821224 
L 24.358373 26.996757 
L 24.389495 8.692702 
L 24.434653 32.01035 
L 24.490185 11.670203 
L 24.614675 32.170077 
L 24.570127 8.52792 
L 24.6281 27.435978 
L 24.749539 8.496433 
L 24.704991 32.135395 
L 24.761744 12.337676 
L 24.795307 32.309246 
L 24.839855 8.605991 
L 24.898438 27.288049 
L 24.930171 8.497769 
L 24.974718 32.337351 
L 25.030861 11.828886 
L 25.15535 32.351358 
L 25.109582 8.364618 
L 25.167555 28.038595 
L 25.290214 8.256819 
L 25.245666 32.37533 
L 25.300588 11.365632 
L 25.334762 32.557325 
L 25.37992 8.427283 
L 25.439113 27.252217 
L 25.559941 8.277225 
L 25.515394 32.603415 
L 25.570926 11.489513 
L 25.695415 32.519064 
L 25.649647 8.312472 
L 25.70823 27.890025 
L 25.830279 8.172786 
L 25.785121 32.571911 
L 25.840653 11.117494 
L 25.875437 32.767013 
L 25.919985 8.150813 
L 25.977958 28.443503 
L 26.100617 8.004655 
L 26.055459 32.853763 
L 26.110991 11.159666 
L 26.23548 32.753848 
L 26.190322 8.089692 
L 26.248295 28.277693 
L 26.280638 7.928353 
L 26.325796 32.788756 
L 26.380108 10.670827 
L 26.415502 32.86711 
L 26.46066 7.891638 
L 26.521684 25.74924 
L 26.640682 7.789499 
L 26.596134 32.953628 
L 26.651666 11.304469 
L 26.775545 32.952143 
L 26.730998 7.956777 
L 26.788361 28.474944 
L 26.820703 7.727739 
L 26.865861 32.996686 
L 26.920173 10.4641 
L 27.045883 33.021387 
L 27.000725 7.701511 
L 27.061139 26.453342 
L 27.180747 7.63755 
L 27.136199 33.057677 
L 27.191121 10.689832 
L 27.316221 33.088669 
L 27.271063 7.792265 
L 27.330256 27.251475 
L 27.361379 7.56185 
L 27.405926 33.126257 
L 27.462069 11.237468 
L 27.586558 33.175699 
L 27.54079 7.531121 
L 27.598153 29.024702 
L 27.721422 7.499517 
L 27.676264 33.187192 
L 27.734847 12.889969 
L 27.856286 33.230992 
L 27.811128 7.609544 
L 27.86788 29.363198 
L 27.901444 7.45028 
L 27.946602 33.259974 
L 28.005185 13.166305 
L 28.126013 33.331791 
L 28.081465 7.526995 
L 28.137608 29.578562 
L 28.171171 7.496542 
L 28.216329 33.303287 
L 28.273692 12.01211 
L 28.396351 33.309158 
L 28.351193 7.440756 
L 28.409166 28.685044 
L 28.441509 7.373185 
L 28.486057 33.328744 
L 28.542199 10.913541 
L 28.666688 33.456039 
L 28.622141 7.427894 
L 28.679504 28.404372 
L 28.711846 7.276673 
L 28.756394 33.486027 
L 28.810706 10.037511 
L 28.937026 33.469624 
L 28.891868 7.178282 
L 28.952282 26.391822 
L 29.07128 7.17094 
L 29.026732 33.452519 
L 29.081654 10.491163 
L 29.206754 33.566247 
L 29.161596 7.238426 
L 29.221399 27.121545 
L 29.251301 7.040355 
L 29.297069 33.584981 
L 29.353212 11.093231 
L 29.386775 33.650207 
L 29.431933 6.938339 
L 29.489296 29.059571 
L 29.611345 6.848974 
L 29.566797 33.679984 
L 29.62477 12.184265 
L 29.747429 33.704809 
L 29.702271 7.013652 
L 29.759023 29.321479 
L 29.791977 6.832283 
L 29.837135 33.742392 
L 29.893887 11.34188 
L 30.017156 33.774582 
L 29.971998 6.829551 
L 30.029361 29.244773 
L 30.15263 6.790219 
L 30.106862 33.822532 
L 30.165445 12.363464 
L 30.287494 33.853043 
L 30.242336 6.910006 
L 30.299088 29.549758 
L 30.332042 6.757025 
L 30.3772 33.826263 
L 30.434562 11.69984 
L 30.557221 33.845235 
L 30.512674 6.847563 
L 30.569426 29.291719 
L 30.692695 6.778298 
L 30.647537 33.868445 
L 30.706121 12.666294 
L 30.737243 33.937043 
L 30.782401 6.908372 
L 30.838543 30.025929 
L 30.962423 6.725823 
L 30.917265 33.953147 
L 30.974017 11.097488 
L 31.007581 33.974571 
L 31.052739 6.771754 
L 31.110101 28.970474 
L 31.23215 6.700251 
L 31.187602 33.994939 
L 31.244355 11.21991 
L 31.367014 34.014705 
L 31.322466 6.655218 
L 31.378608 30.107049 
L 31.502488 6.55897 
L 31.45733 34.031678 
L 31.514693 11.391035 
L 31.637962 34.049031 
L 31.592804 6.706222 
L 31.650777 28.768005 
L 31.682509 6.521533 
L 31.727667 34.052017 
L 31.782589 9.945783 
L 31.907689 34.153982 
L 31.862531 6.504733 
L 31.922335 27.571259 
L 32.042553 6.47227 
L 31.997395 34.132876 
L 32.053537 10.369892 
L 32.088321 34.200549 
L 32.132869 6.609457 
L 32.192062 27.87536 
L 32.223185 6.436174 
L 32.267732 34.209402 
L 32.323265 10.223633 
L 32.357438 34.189848 
L 32.402596 6.444114 
L 32.4624 27.644119 
L 32.583228 6.46538 
L 32.53807 34.187212 
L 32.594212 10.626673 
L 32.628386 34.237959 
L 32.672934 6.574274 
L 32.732127 28.058786 
L 32.76325 6.438878 
L 32.808408 34.271852 
L 32.862719 9.741142 
L 32.897503 34.221354 
L 32.943271 6.504118 
L 33.002465 27.747487 
L 33.123293 6.490383 
L 33.078135 34.21716 
L 33.134277 10.602651 
L 33.258157 34.223054 
L 33.212999 6.513319 
L 33.272803 27.758937 
L 33.393021 6.386758 
L 33.348473 34.266288 
L 33.404005 10.39969 
L 33.528494 34.307754 
L 33.483336 6.504705 
L 33.54253 27.993412 
L 33.573042 6.344991 
L 33.61881 34.35679 
L 33.673122 9.678237 
L 33.708516 34.337154 
L 33.753674 6.336623 
L 33.812257 28.50722 
L 33.933696 6.321216 
L 33.888538 34.321024 
L 33.94346 9.786498 
L 33.978854 34.354266 
L 34.023402 6.529117 
L 34.083205 27.549507 
L 34.113717 6.285968 
L 34.158875 34.350013 
L 34.214408 10.231753 
L 34.248581 34.354711 
L 34.293739 6.257255 
L 34.352933 28.058408 
L 34.473761 6.232944 
L 34.428603 34.37914 
L 34.483525 9.687873 
L 34.609235 34.398118 
L 34.563467 6.448402 
L 34.62205 28.846193 
L 34.653783 6.171939 
L 34.698941 34.3613 
L 34.753862 9.733408 
L 34.878962 34.406822 
L 34.833804 6.164747 
L 34.893608 27.470831 
L 35.014436 6.160963 
L 34.968668 34.431804 
L 35.02359 9.691955 
L 35.1493 34.460089 
L 35.103532 6.344135 
L 35.162115 28.937856 
L 35.193848 6.195145 
L 35.239006 34.448713 
L 35.295148 10.47871 
L 35.419027 34.476969 
L 35.373869 6.218453 
L 35.431842 29.172352 
L 35.553891 6.256532 
L 35.508733 34.496523 
L 35.566096 11.121179 
L 35.599049 34.528194 
L 35.644207 6.22274 
L 35.70218 29.031678 
L 35.824229 6.121271 
L 35.779071 34.552217 
L 35.837654 12.160644 
L 35.959092 34.599301 
L 35.913934 6.243925 
L 35.970077 30.701619 
L 36.004861 6.034388 
L 36.049408 34.525066 
L 36.108602 12.905607 
L 36.139114 34.576963 
L 36.184272 5.975958 
L 36.241025 30.069175 
L 36.364294 5.967592 
L 36.319746 34.586552 
L 36.375278 10.233199 
L 36.499157 34.632885 
L 36.45461 6.149231 
L 36.513803 27.846485 
L 36.544315 5.914035 
L 36.589473 34.604471 
L 36.644395 9.527769 
L 36.770105 34.629053 
L 36.724337 5.915123 
L 36.78292 28.721238 
L 36.904359 5.875116 
L 36.859201 34.644294 
L 36.915953 10.513625 
L 37.039833 34.697435 
L 36.994675 6.05823 
L 37.052648 29.111502 
L 37.084991 5.819116 
L 37.129538 34.705753 
L 37.187511 11.520224 
L 37.30956 34.715582 
L 37.264402 5.822038 
L 37.320544 30.755205 
L 37.445034 5.80008 
L 37.399266 34.689892 
L 37.45968 13.169388 
L 37.489582 34.71242 
L 37.53474 5.987854 
L 37.591492 30.26705 
L 37.624445 5.804348 
L 37.670214 34.715558 
L 37.726356 10.538225 
L 37.849625 34.675833 
L 37.805077 5.868466 
L 37.86305 29.076434 
L 37.985099 5.920308 
L 37.939941 34.694091 
L 37.996694 10.69425 
L 38.029647 34.754903 
L 38.074805 6.018857 
L 38.133998 28.45618 
L 38.165121 5.941877 
L 38.209669 34.780129 
L 38.26398 8.876973 
L 38.3903 34.778572 
L 38.345142 5.925045 
L 38.403726 28.677858 
L 38.434848 5.944059 
L 38.480616 34.768756 
L 38.534928 9.373554 
L 38.570322 34.764653 
L 38.61487 5.946467 
L 38.673453 29.044636 
L 38.794892 5.830358 
L 38.750344 34.767017 
L 38.806486 10.496125 
L 38.84005 34.774694 
L 38.885208 5.994199 
L 38.943791 28.759116 
L 38.975523 5.816237 
L 39.020071 34.778649 
L 39.074383 8.931879 
L 39.200703 34.742117 
L 39.154935 5.794454 
L 39.214128 28.638585 
L 39.335567 5.805035 
L 39.290409 34.732378 
L 39.345331 9.589157 
L 39.380115 34.775006 
L 39.425273 6.080212 
L 39.482635 29.8333 
L 39.515589 5.758661 
L 39.560136 34.771348 
L 39.615668 9.564426 
L 39.650452 34.781413 
L 39.69561 5.782766 
L 39.754804 28.125691 
L 39.875632 5.828294 
L 39.830474 34.732855 
L 39.886006 9.828072 
L 39.92018 34.776275 
L 39.965948 6.065455 
L 40.023921 28.968824 
L 40.055654 5.858019 
L 40.100812 34.720734 
L 40.156344 9.931632 
L 40.190517 34.762183 
L 40.235675 5.867246 
L 40.295479 27.522305 
L 40.415697 5.92805 
L 40.370539 34.731479 
L 40.425461 9.432785 
L 40.550561 34.730926 
L 40.505403 6.030273 
L 40.563376 29.470286 
L 40.595719 5.887784 
L 40.640266 34.754104 
L 40.69885 11.786216 
L 40.730582 34.773318 
L 40.77574 5.998802 
L 40.832493 30.316704 
L 40.865446 5.900738 
L 40.910604 34.735069 
L 40.967357 10.645359 
L 41.00092 34.772942 
L 41.046078 5.890879 
L 41.104051 29.090266 
L 41.225489 5.827549 
L 41.180942 34.796626 
L 41.238305 11.124556 
L 41.270647 34.805818 
L 41.315805 6.015578 
L 41.371948 30.73819 
L 41.406121 5.841643 
L 41.451279 34.787679 
L 41.511083 13.45002 
L 41.540985 34.797406 
L 41.586143 5.805724 
L 41.642285 30.545526 
L 41.766165 5.788978 
L 41.721007 34.799217 
L 41.780811 12.993902 
L 41.901028 34.792197 
L 41.85587 5.978279 
L 41.912013 30.791967 
L 41.946186 5.828905 
L 41.990734 34.766542 
L 42.050538 12.789707 
L 42.08105 34.764905 
L 42.126208 5.847978 
L 42.18235 30.647179 
L 42.30623 5.908149 
L 42.261072 34.710632 
L 42.320876 12.95141 
L 42.441093 34.77824 
L 42.396546 5.920393 
L 42.452688 30.443388 
L 42.576567 5.932959 
L 42.531409 34.752173 
L 42.589383 11.679076 
L 42.711431 34.777206 
L 42.666273 5.963208 
L 42.722416 30.754435 
L 42.756589 5.93147 
L 42.801747 34.785818 
L 42.860941 12.911055 
L 42.981159 34.831792 
L 42.936611 5.83517 
L 42.993363 30.135349 
L 43.116632 5.812028 
L 43.071475 34.831769 
L 43.127617 10.257966 
L 43.252106 34.824649 
L 43.206338 5.932434 
L 43.265532 28.458301 
L 43.296044 5.794217 
L 43.341202 34.802135 
L 43.395514 8.774183 
L 43.521834 34.82242 
L 43.476676 5.811061 
L 43.535869 28.267445 
L 43.656698 5.781917 
L 43.61215 34.848984 
L 43.665851 8.945292 
L 43.791561 34.856014 
L 43.746403 5.903427 
L 43.805597 28.644984 
L 43.837329 5.808865 
L 43.881877 34.799625 
L 43.936189 9.078331 
L 44.061899 34.841531 
L 44.017351 5.823012 
L 44.075324 28.937407 
L 44.197373 5.844515 
L 44.152215 34.797666 
L 44.207137 9.687085 
L 44.332237 34.866037 
L 44.287079 5.884993 
L 44.345052 29.308 
L 44.4671 5.795548 
L 44.422553 34.849825 
L 44.479305 10.972876 
L 44.601964 34.878446 
L 44.556806 5.89399 
L 44.614779 29.581892 
L 44.647122 5.738072 
L 44.69228 34.829344 
L 44.748422 10.333216 
L 44.782596 34.874188 
L 44.827144 5.759651 
L 44.885727 28.905877 
L 45.007165 5.689073 
L 44.962618 34.890051 
L 45.01937 10.904631 
L 45.142639 34.914184 
L 45.097481 5.928091 
L 45.154844 29.722357 
L 45.187187 5.671785 
L 45.232345 34.849076 
L 45.288487 10.137157 
L 45.322661 34.878787 
L 45.367209 5.709266 
L 45.425792 29.003128 
L 45.54723 5.695017 
L 45.502072 34.860173 
L 45.560656 11.65666 
L 45.592388 34.88079 
L 45.637546 5.899939 
L 45.694299 30.372927 
L 45.727252 5.699346 
L 45.77302 34.863423 
L 45.829163 10.448506 
L 45.862726 34.904771 
L 45.907274 5.675211 
L 45.965857 29.162053 
L 46.087906 5.662614 
L 46.042748 34.908462 
L 46.101941 12.502349 
L 46.132453 34.948675 
L 46.177611 5.760062 
L 46.233754 30.801871 
L 46.267927 5.612473 
L 46.313085 34.987873 
L 46.371669 12.254301 
L 46.493107 34.989566 
L 46.447949 5.592226 
L 46.503481 31.09762 
L 46.627971 5.567736 
L 46.582813 34.988134 
L 46.641396 11.781115 
L 46.673129 35.023159 
L 46.717676 5.694927 
L 46.774429 30.560067 
L 46.807992 5.606218 
L 46.85315 35.010888 
L 46.912344 12.592052 
L 47.033172 35.003889 
L 46.988014 5.606654 
L 47.044156 30.905674 
L 47.168646 5.657607 
L 47.122878 35.016422 
L 47.182071 12.136851 
L 47.213194 34.986578 
L 47.258352 5.718127 
L 47.314494 30.742532 
L 47.348057 5.680381 
L 47.393215 35.015626 
L 47.452409 12.358358 
L 47.573237 35.014666 
L 47.528079 5.633846 
L 47.584832 30.762294 
L 47.618395 5.683656 
L 47.663553 35.013669 
L 47.722747 12.501375 
L 47.843575 35.010729 
L 47.798417 5.652258 
L 47.855169 30.499937 
L 47.979049 5.607493 
L 47.93328 34.997188 
L 47.991864 11.661762 
L 48.113912 35.008267 
L 48.068754 5.782198 
L 48.124897 30.912591 
L 48.15846 5.579654 
L 48.203618 35.000442 
L 48.262201 11.797755 
L 48.38425 35.028709 
L 48.339092 5.588769 
L 48.394624 31.120116 
L 48.518504 5.592996 
L 48.473956 34.985868 
L 48.53376 12.98939 
L 48.564272 35.012318 
L 48.608819 5.792146 
L 48.665572 30.607091 
L 48.699135 5.598981 
L 48.744293 34.997512 
L 48.802267 11.59767 
L 48.924315 35.018928 
L 48.878547 5.644841 
L 48.934689 31.284298 
L 49.059179 5.633465 
L 49.014021 34.95431 
L 49.073214 12.381992 
L 49.104337 34.998677 
L 49.149495 5.805015 
L 49.205637 30.70217 
L 49.239201 5.673319 
L 49.284359 34.963056 
L 49.342332 11.521856 
L 49.374064 34.999493 
L 49.419222 5.729063 
L 49.475975 30.548783 
L 49.509538 5.682611 
L 49.554086 34.913951 
L 49.611449 10.810092 
L 49.644402 34.980358 
L 49.68895 5.709455 
L 49.747533 29.322112 
L 49.779266 5.685077 
L 49.824424 34.943134 
L 49.882397 11.479478 
L 49.91474 34.99095 
L 49.959287 5.769856 
L 50.01604 30.619075 
L 50.049603 5.627951 
L 50.094151 34.996336 
L 50.153955 12.723762 
L 50.274783 34.995077 
L 50.229625 5.621317 
L 50.286378 30.373301 
L 50.409647 5.638969 
L 50.364489 35.000499 
L 50.421851 10.849577 
L 50.454805 34.999813 
L 50.499963 5.76335 
L 50.557325 29.733773 
L 50.589668 5.620527 
L 50.634826 35.018327 
L 50.690969 10.184342 
L 50.724532 35.023357 
L 50.7703 5.623375 
L 50.828884 28.659053 
L 50.950322 5.629188 
L 50.905164 35.026491 
L 50.959476 8.865982 
L 50.99487 35.005913 
L 51.040028 5.686852 
L 51.098611 28.911569 
L 51.130344 5.63408 
L 51.174891 35.007566 
L 51.232254 10.918525 
L 51.265207 35.025477 
L 51.310365 5.618344 
L 51.367728 29.630789 
L 51.489777 5.691058 
L 51.445229 35.011238 
L 51.501371 10.224331 
L 51.62464 34.961082 
L 51.580093 5.680516 
L 51.639286 28.481619 
L 51.760114 5.685142 
L 51.714956 35.001427 
L 51.769878 9.091425 
L 51.805272 34.992118 
L 51.85043 5.686532 
L 51.909014 28.790964 
L 51.940136 5.714046 
L 51.985294 35.027152 
L 52.040216 9.362457 
L 52.07561 34.987083 
L 52.120158 5.633137 
L 52.178131 29.462458 
L 52.300179 5.649086 
L 52.255632 35.002565 
L 52.312995 11.244888 
L 52.435043 34.997562 
L 52.390495 5.745201 
L 52.446027 31.194774 
L 52.480201 5.649014 
L 52.525359 35.007409 
L 52.583332 11.457768 
L 52.615675 34.996295 
L 52.660833 5.615903 
L 52.716975 30.559883 
L 52.840855 5.597346 
L 52.795697 34.99805 
L 52.85428 12.151732 
L 52.975718 35.007203 
L 52.93056 5.778114 
L 52.987313 30.491876 
L 53.020876 5.598238 
L 53.066034 34.96591 
L 53.122177 10.354171 
L 53.15574 35.004367 
L 53.200898 5.583548 
L 53.258871 29.287055 
L 53.38092 5.648459 
L 53.335762 34.966828 
L 53.393125 11.100438 
L 53.515783 34.974861 
L 53.470625 5.817504 
L 53.529209 29.117419 
L 53.560941 5.667819 
L 53.606099 34.943269 
L 53.662242 10.245336 
L 53.786121 34.982365 
L 53.740963 5.676198 
L 53.799546 28.92013 
L 53.920985 5.694331 
L 53.875827 34.907693 
L 53.931359 9.70958 
L 53.966143 34.980736 
L 54.010691 5.778447 
L 54.069274 29.224432 
L 54.101007 5.703513 
L 54.146164 34.967837 
L 54.203527 11.04076 
L 54.326186 34.970844 
L 54.281028 5.78862 
L 54.338391 30.140728 
L 54.370734 5.706147 
L 54.416502 34.903422 
L 54.471424 9.517987 
L 54.506818 34.950162 
L 54.551366 5.721499 
L 54.609949 28.927685 
L 54.731388 5.6702 
L 54.68623 34.982936 
L 54.742982 10.477543 
L 54.776546 35.0111 
L 54.821703 5.747866 
L 54.880287 28.790324 
L 54.911409 5.607578 
L 54.956567 34.995465 
L 55.010879 8.871089 
L 55.046273 35.002915 
L 55.091431 5.643665 
L 55.150014 29.050896 
L 55.271453 5.623183 
L 55.226295 35.011054 
L 55.285488 12.180561 
L 55.316611 35.038849 
L 55.361769 5.725365 
L 55.417911 30.716212 
L 55.452085 5.622831 
L 55.496632 35.017677 
L 55.556436 12.935213 
L 55.586948 35.006321 
L 55.631496 5.607019 
L 55.64126 8.967523 
" clip-path="url(#pf5b778e6a5)" style="fill: none; stroke: #f08080; stroke-width: 0.04; stroke-linecap: square"/>
   </g>
   <g id="patch_3">
    <path d="M 0.72 40.008189 
L 0.72 0.72 
" style="fill: none; stroke: #f08080; stroke-width: 0.5; stroke-linejoin: miter; stroke-linecap: square"/>
   </g>
   <g id="patch_4">
    <path d="M 55.64126 40.008189 
L 55.64126 0.72 
" style="fill: none; stroke: #f08080; stroke-width: 0.5; stroke-linejoin: miter; stroke-linecap: square"/>
   </g>
   <g id="patch_5">
    <path d="M 0.72 40.008189 
L 55.64126 40.008189 
" style="fill: none; stroke: #f08080; stroke-width: 0.5; stroke-linejoin: miter; stroke-linecap: square"/>
   </g>
   <g id="patch_6">
    <path d="M 0.72 0.72 
L 55.64126 0.72 
" style="fill: none; stroke: #f08080; stroke-width: 0.5; stroke-linejoin: miter; stroke-linecap: square"/>
   </g>
  </g>
 </g>
 <defs>
  <clipPath id="pf5b778e6a5">
   <rect x="0.72" y="0.72" width="54.92126" height="39.288189"/>
  </clipPath>
 </defs>
</svg>
