<?xml version="1.0" encoding="utf-8" standalone="no"?>
<!DOCTYPE svg PUBLIC "-//W3C//DTD SVG 1.1//EN"
  "http://www.w3.org/Graphics/SVG/1.1/DTD/svg11.dtd">
<svg height="43.462835pt" version="1.1" viewBox="0 0 59.86126 43.462835" width="59.86126pt" xmlns="http://www.w3.org/2000/svg" xmlns:xlink="http://www.w3.org/1999/xlink">
 <metadata>
  <rdf:RDF xmlns:cc="http://creativecommons.org/ns#" xmlns:dc="http://purl.org/dc/elements/1.1/" xmlns:rdf="http://www.w3.org/1999/02/22-rdf-syntax-ns#">
   <cc:Work>
    <dc:type rdf:resource="http://purl.org/dc/dcmitype/StillImage"/>
    <dc:date>2025-02-16T20:28:53.759358</dc:date>
    <dc:format>image/svg+xml</dc:format>
    <dc:creator>
     <cc:Agent>
      <dc:title>Matplotlib v3.4.3, https://matplotlib.org/</dc:title>
     </cc:Agent>
    </dc:creator>
   </cc:Work>
  </rdf:RDF>
 </metadata>
 <defs>
  <style type="text/css">*{stroke-linecap:butt;stroke-linejoin:round;}</style>
 </defs>
 <g id="figure_1">
  <g id="patch_1">
   <path d="M 0 43.462835 
L 59.86126 43.462835 
L 59.86126 0 
L 0 0 
z
" style="fill:none;"/>
  </g>
  <g id="axes_1">
   <g id="patch_2">
    <path d="M 4.22 39.242835 
L 59.14126 39.242835 
L 59.14126 0.72 
L 4.22 0.72 
z
" style="fill:#ffffff;"/>
   </g>
   <g id="matplotlib.axis_1"/>
   <g id="matplotlib.axis_2"/>
   <g id="line2d_1">
    <path clip-path="url(#p08edc6881a)" d="M 4.22 18.707245 
L 4.357305 21.206002 
L 4.311536 18.703533 
L 4.376222 20.074438 
L 4.490948 18.62176 
L 4.4464 21.130826 
L 4.499491 18.909161 
L 4.534275 21.338409 
L 4.580043 18.642618 
L 4.634355 20.84931 
L 4.760675 18.505821 
L 4.713687 21.433775 
L 4.777152 19.386237 
L 4.894319 21.427147 
L 4.850381 18.52217 
L 4.906523 20.971594 
L 5.031013 18.444083 
L 4.984634 21.381095 
L 5.041997 18.899077 
L 5.07373 21.479006 
L 5.119498 18.483349 
L 5.176861 20.785849 
L 5.29891 18.393902 
L 5.254362 21.493116 
L 5.309894 18.816078 
L 5.344068 21.487671 
L 5.389836 18.291038 
L 5.444758 21.060803 
L 5.570468 18.316091 
L 5.523479 21.559479 
L 5.583893 19.056852 
L 5.704721 21.598581 
L 5.660784 18.333127 
L 5.718147 20.789722 
L 5.749269 18.274453 
L 5.793206 21.571249 
L 5.848739 18.681607 
L 5.973228 21.593607 
L 5.92868 18.255966 
L 5.989094 20.668194 
L 6.109312 18.221862 
L 6.063544 21.738465 
L 6.120297 18.692694 
L 6.242956 21.821968 
L 6.199018 18.226445 
L 6.256991 21.03919 
L 6.288724 18.122213 
L 6.333882 21.708933 
L 6.388193 18.517853 
L 6.423587 21.858593 
L 6.469356 18.145904 
L 6.53099 20.52049 
L 6.559061 18.036078 
L 6.604219 21.915079 
L 6.658531 18.495179 
L 6.783631 21.923493 
L 6.738473 18.053926 
L 6.800107 20.783774 
L 6.830009 18.045383 
L 6.873947 21.832825 
L 6.928869 18.499391 
L 7.053968 21.974736 
L 7.008811 18.026142 
L 7.069225 20.787938 
L 7.100347 17.901169 
L 7.143674 21.972221 
L 7.198596 18.448593 
L 7.323696 22.03735 
L 7.279758 17.878015 
L 7.339562 20.882074 
L 7.368244 17.932833 
L 7.413402 22.072765 
L 7.468934 18.420218 
L 7.592813 22.14672 
L 7.547655 17.892343 
L 7.606849 21.229579 
L 7.639802 17.773198 
L 7.68435 22.101635 
L 7.740492 18.510995 
L 7.773445 22.214692 
L 7.819213 17.725623 
L 7.877186 21.287707 
L 7.910139 17.767682 
L 7.954687 22.248625 
L 8.01144 18.484731 
L 8.133488 22.311539 
L 8.090161 17.735803 
L 8.143862 21.749349 
L 8.178646 17.759359 
L 8.223804 22.15886 
L 8.281167 18.53485 
L 8.3129 22.322107 
L 8.359278 17.701505 
L 8.416641 21.402913 
L 8.448374 17.699828 
L 8.493532 22.355499 
L 8.550284 18.352358 
L 8.674774 22.430835 
L 8.628395 17.615421 
L 8.69003 20.985166 
L 8.809027 17.594109 
L 8.763869 22.375853 
L 8.818181 18.154535 
L 8.854796 22.473969 
L 8.898733 17.551186 
L 8.960368 20.844313 
L 9.078755 17.457586 
L 9.033597 22.505424 
L 9.087298 17.962335 
L 9.212398 22.604626 
L 9.169681 17.407498 
L 9.228875 21.109731 
L 9.348482 17.318571 
L 9.302714 22.547408 
L 9.357026 17.826217 
L 9.483346 22.658454 
L 9.438188 17.297999 
L 9.498602 21.241225 
L 9.617599 17.206842 
L 9.573052 22.717972 
L 9.627973 17.804837 
L 9.752463 22.792426 
L 9.706695 17.242303 
L 9.765888 21.667467 
L 9.888547 17.167175 
L 9.842779 22.73048 
L 9.900142 18.128311 
L 9.932485 22.838469 
L 9.978253 17.158378 
L 10.035616 21.787601 
L 10.157664 17.060112 
L 10.111896 22.922623 
L 10.168649 17.850071 
L 10.292528 22.987006 
L 10.24737 17.052318 
L 10.306564 21.597126 
L 10.428002 16.981006 
L 10.382844 23.016563 
L 10.437766 17.700532 
L 10.562866 23.081664 
L 10.517708 16.911724 
L 10.575681 21.846163 
L 10.69834 16.831616 
L 10.653182 23.085571 
L 10.708104 17.59529 
L 10.742277 23.194162 
L 10.788045 16.870104 
L 10.846629 21.792945 
L 10.968067 16.784549 
L 10.923519 23.24565 
L 10.978441 17.590605 
L 11.102931 23.324699 
L 11.057773 16.743265 
L 11.116356 21.88116 
L 11.148089 16.672483 
L 11.192026 23.242231 
L 11.247558 17.422402 
L 11.283563 23.396931 
L 11.32811 16.614391 
L 11.389135 21.350365 
L 11.507522 16.541077 
L 11.462364 23.460384 
L 11.519727 17.727184 
L 11.642996 23.542363 
L 11.597838 16.610522 
L 11.655201 22.268786 
L 11.686323 16.456743 
L 11.732702 23.479725 
L 11.788234 17.439595 
L 11.823018 23.607806 
L 11.867565 16.330661 
L 11.926149 22.048797 
L 12.047587 16.205293 
L 12.003039 23.684261 
L 12.058571 17.354117 
L 12.182451 23.767551 
L 12.136682 16.280601 
L 12.194656 22.609686 
L 12.227609 16.103875 
L 12.272156 23.765081 
L 12.330129 17.50274 
L 12.362472 23.860304 
L 12.40763 16.015179 
L 12.466214 22.206303 
L 12.587042 15.902635 
L 12.542494 23.903391 
L 12.600467 17.45843 
L 12.723126 23.966811 
L 12.677358 16.03698 
L 12.735331 22.637299 
L 12.767063 15.834661 
L 12.812221 24.038848 
L 12.871415 17.535856 
L 12.992853 24.150243 
L 12.948306 15.763289 
L 13.006279 22.439984 
L 13.127717 15.727373 
L 13.083169 24.119651 
L 13.138701 16.875908 
L 13.262581 24.227407 
L 13.217423 15.758819 
L 13.276616 22.497674 
L 13.308349 15.630642 
L 13.353507 24.346313 
L 13.41148 17.399605 
L 13.532918 24.430029 
L 13.488371 15.546276 
L 13.545734 22.811263 
L 13.667782 15.441247 
L 13.623234 24.347988 
L 13.680597 17.077978 
L 13.71355 24.453554 
L 13.758098 15.469 
L 13.814851 23.101682 
L 13.93751 15.289487 
L 13.893572 24.565849 
L 13.950325 16.892512 
L 14.072983 24.651224 
L 14.027826 15.209551 
L 14.086409 22.91745 
L 14.207847 15.143465 
L 14.162689 24.622065 
L 14.220662 16.90436 
L 14.343321 24.723345 
L 14.298163 15.104245 
L 14.355526 23.174792 
L 14.387869 15.030227 
L 14.433027 24.827604 
L 14.489779 16.599206 
L 14.612438 24.855599 
L 14.568501 15.005825 
L 14.626474 23.06414 
L 14.747912 14.893633 
L 14.702754 24.885239 
L 14.760727 16.694721 
L 14.882776 24.970047 
L 14.838228 14.886336 
L 14.894981 23.500066 
L 15.01764 14.799327 
L 14.973092 25.025978 
L 15.031065 16.723801 
L 15.153114 25.100412 
L 15.107956 14.756875 
L 15.166539 23.184545 
L 15.288588 14.659076 
L 15.242819 25.163522 
L 15.299572 16.212998 
L 15.422231 25.272216 
L 15.378293 14.539722 
L 15.436266 23.317866 
L 15.557705 14.393265 
L 15.513157 25.305959 
L 15.56991 16.145031 
L 15.693179 25.392103 
L 15.648631 14.439555 
L 15.705384 23.683457 
L 15.738337 14.307573 
L 15.783495 25.38579 
L 15.843909 17.318052 
L 15.962906 25.514604 
L 15.918358 14.20811 
L 15.976331 23.533317 
L 16.09838 14.083262 
L 16.053222 25.562344 
L 16.109364 15.636396 
L 16.233854 25.692602 
L 16.188696 14.180184 
L 16.244228 24.249917 
L 16.278402 13.985887 
L 16.32417 25.731042 
L 16.382143 16.519345 
L 16.503581 25.859775 
L 16.458423 13.909015 
L 16.515786 23.977489 
L 16.638445 13.832554 
L 16.593287 25.858519 
L 16.652481 16.455823 
L 16.773919 25.972986 
L 16.728761 13.842589 
L 16.784903 24.29269 
L 16.908783 13.710087 
L 16.863625 26.080678 
L 16.921598 16.145367 
L 17.043646 26.151597 
L 16.999099 13.689175 
L 17.055851 24.114062 
L 17.17851 13.555276 
L 17.132742 26.229226 
L 17.191935 16.080369 
L 17.313374 26.362642 
L 17.268826 13.480121 
L 17.326189 24.095438 
L 17.448848 13.367823 
L 17.40369 26.365322 
L 17.461053 15.591281 
L 17.583711 26.464855 
L 17.538553 13.375229 
L 17.594696 24.751424 
L 17.628869 13.270691 
L 17.674027 26.593836 
L 17.733221 16.385783 
L 17.854659 26.766072 
L 17.808891 13.167578 
L 17.865644 24.560649 
L 17.988913 13.061553 
L 17.943755 26.704864 
L 18.001728 15.525408 
L 18.034071 26.891439 
L 18.079229 13.092802 
L 18.135371 24.801662 
L 18.168935 12.937293 
L 18.214092 26.958178 
L 18.273896 16.409025 
L 18.394724 27.025327 
L 18.348956 12.812221 
L 18.405709 24.813993 
L 18.528978 12.720317 
L 18.48382 27.115396 
L 18.543013 15.793308 
L 18.663842 27.188742 
L 18.619294 12.773492 
L 18.674826 25.191212 
L 18.709 12.653711 
L 18.754158 27.18069 
L 18.814572 16.450362 
L 18.844474 27.340843 
L 18.889021 12.566269 
L 18.945774 25.049382 
L 19.069653 12.445422 
L 19.023885 27.461116 
L 19.083689 15.87298 
L 19.203907 27.555352 
L 19.159359 12.476943 
L 19.214891 25.454684 
L 19.249065 12.351686 
L 19.294223 27.497383 
L 19.354026 15.93047 
L 19.383928 27.758889 
L 19.429697 12.271079 
L 19.486449 25.103958 
L 19.609108 12.19504 
L 19.56456 27.945462 
L 19.624364 15.936898 
L 19.744582 28.029833 
L 19.700034 12.045963 
L 19.755566 25.603256 
L 19.879446 11.959022 
L 19.835508 28.039893 
L 19.893481 15.278566 
L 19.924604 28.165969 
L 19.969762 11.965061 
L 20.024073 26.322733 
L 20.059467 11.807026 
L 20.104625 28.32528 
L 20.163209 15.046873 
L 20.285257 28.407477 
L 20.239489 11.69432 
L 20.295021 26.192337 
L 20.420121 11.644825 
L 20.374963 28.403085 
L 20.432326 14.541697 
L 20.554374 28.505395 
L 20.510437 11.682799 
L 20.56963 24.268205 
L 20.600143 11.554976 
L 20.64469 28.501552 
L 20.701443 14.206298 
L 20.735006 28.593154 
L 20.780164 11.448207 
L 20.839358 24.519784 
L 20.960186 11.39058 
L 20.915028 28.716061 
L 20.97117 13.810779 
L 21.09566 28.833887 
L 21.049892 11.355116 
L 21.107865 25.306174 
L 21.229913 11.223276 
L 21.184755 28.80636 
L 21.243339 14.613126 
L 21.275071 28.95896 
L 21.320229 11.200007 
L 21.378202 25.261705 
L 21.500861 11.093299 
L 21.455093 29.013554 
L 21.513066 14.370631 
L 21.635115 29.113178 
L 21.589957 11.059264 
L 21.64915 25.01477 
L 21.770589 10.904127 
L 21.726041 29.076947 
L 21.782183 13.771256 
L 21.815747 29.266326 
L 21.860294 10.948488 
L 21.917657 25.92212 
L 21.95061 10.8426 
L 21.995158 29.359518 
L 22.0513 13.179516 
L 22.17579 29.441382 
L 22.130632 10.790888 
L 22.189215 25.339326 
L 22.310654 10.598924 
L 22.265496 29.475083 
L 22.322859 13.716623 
L 22.356422 29.575368 
L 22.40097 10.752467 
L 22.457112 26.567839 
L 22.491286 10.58464 
L 22.535833 29.672186 
L 22.593807 14.140086 
L 22.715855 29.706523 
L 22.671307 10.592517 
L 22.72928 25.614663 
L 22.851329 10.405652 
L 22.806171 29.803684 
L 22.862313 13.146913 
L 22.896487 29.830494 
L 22.941035 10.513549 
L 22.999618 25.570557 
L 23.030741 10.319412 
L 23.076509 29.906995 
L 23.132651 13.271355 
L 23.25653 29.985082 
L 23.211372 10.384366 
L 23.268735 26.208783 
L 23.301078 10.16392 
L 23.346236 30.05208 
L 23.401158 12.322822 
L 23.526258 30.130298 
L 23.4811 10.149309 
L 23.541514 24.829602 
L 23.571416 10.040536 
L 23.617184 30.144886 
L 23.672716 12.919229 
L 23.796595 30.219009 
L 23.751437 10.121754 
L 23.811241 25.064378 
L 23.841143 9.890803 
L 23.886301 30.242808 
L 23.944274 13.576972 
L 24.066933 30.367171 
L 24.021775 9.864854 
L 24.078528 26.923558 
L 24.201797 9.860306 
L 24.156639 30.347106 
L 24.212781 12.637879 
L 24.336661 30.457063 
L 24.291503 9.840546 
L 24.350696 25.644957 
L 24.471524 9.695293 
L 24.426976 30.418464 
L 24.483119 12.729166 
L 24.606388 30.67685 
L 24.56184 9.569927 
L 24.619813 26.413495 
L 24.741862 9.535452 
L 24.696704 30.586403 
L 24.753456 12.633297 
L 24.877336 30.80549 
L 24.832178 9.436088 
L 24.890761 25.988059 
L 25.0122 9.35891 
L 24.967042 30.729236 
L 25.021963 11.753168 
L 25.147673 30.907173 
L 25.102515 9.29041 
L 25.160489 26.417615 
L 25.282537 9.232677 
L 25.237989 30.841039 
L 25.291691 11.445071 
L 25.327695 31.022693 
L 25.372243 9.208571 
L 25.433267 24.757506 
L 25.462559 9.207832 
L 25.507717 30.970599 
L 25.564469 12.772072 
L 25.687739 31.033006 
L 25.642581 9.076339 
L 25.700554 26.616309 
L 25.822602 8.980426 
L 25.777444 30.945477 
L 25.835417 13.027464 
L 25.86776 31.169404 
L 25.912918 9.08707 
L 25.970891 26.661334 
L 26.09294 8.946612 
L 26.047782 31.176083 
L 26.103924 12.127094 
L 26.228414 31.169832 
L 26.182646 8.94787 
L 26.240619 26.899496 
L 26.362667 8.857572 
L 26.317509 31.108565 
L 26.374872 12.480807 
L 26.407825 31.342904 
L 26.453593 8.770914 
L 26.510956 26.996712 
L 26.633005 8.646335 
L 26.587847 31.363587 
L 26.643989 11.741262 
L 26.768479 31.328954 
L 26.723321 8.711441 
L 26.780684 27.164389 
L 26.812416 8.625274 
L 26.857574 31.400867 
L 26.915547 12.628875 
L 26.949111 31.46861 
L 26.993048 8.53549 
L 27.051632 26.847278 
L 27.17368 8.373918 
L 27.128522 31.539637 
L 27.185275 12.158019 
L 27.218228 31.555514 
L 27.263386 8.513665 
L 27.320749 27.608099 
L 27.353092 8.343045 
L 27.39886 31.691972 
L 27.453172 10.953316 
L 27.578271 31.719529 
L 27.533724 8.344355 
L 27.592307 26.664067 
L 27.713135 8.213798 
L 27.668587 31.706657 
L 27.724119 11.240318 
L 27.849219 31.756768 
L 27.804061 8.318244 
L 27.862645 26.576217 
L 27.893767 8.108099 
L 27.938315 31.935218 
L 27.993237 10.737385 
L 28.118947 31.980411 
L 28.073789 8.173583 
L 28.133592 25.973321 
L 28.163494 8.128107 
L 28.208652 31.84342 
L 28.262964 10.462299 
L 28.388674 31.94952 
L 28.343516 8.141429 
L 28.405761 24.568472 
L 28.523538 8.004158 
L 28.47899 32.140821 
L 28.535132 11.468549 
L 28.659012 32.225881 
L 28.614464 8.021672 
L 28.671827 27.509729 
L 28.70417 7.860846 
L 28.749328 32.112679 
L 28.80425 10.827108 
L 28.929349 32.162141 
L 28.884191 7.786031 
L 28.943385 26.754122 
L 29.064213 7.750032 
L 29.019055 32.238969 
L 29.073977 10.64852 
L 29.199687 32.323801 
L 29.154529 7.902096 
L 29.214943 25.424306 
L 29.244235 7.649882 
L 29.289393 32.279538 
L 29.345535 11.329126 
L 29.469414 32.366021 
L 29.424256 7.589325 
L 29.481619 28.258708 
L 29.604278 7.563608 
L 29.55973 32.358233 
L 29.614652 10.7079 
L 29.739752 32.425823 
L 29.694594 7.734393 
L 29.753788 26.644115 
L 29.7843 7.500893 
L 29.829458 32.421644 
L 29.88499 10.726709 
L 30.009479 32.493067 
L 29.964932 7.426668 
L 30.023515 27.015762 
L 30.144343 7.396538 
L 30.099795 32.50856 
L 30.154717 10.578197 
L 30.279817 32.552816 
L 30.235269 7.562897 
L 30.294463 26.473803 
L 30.324975 7.365549 
L 30.370133 32.578914 
L 30.424445 10.17849 
L 30.550155 32.62418 
L 30.504997 7.317271 
L 30.565411 25.687127 
L 30.685018 7.392492 
L 30.63986 32.618099 
L 30.695393 10.789886 
L 30.729566 32.694598 
L 30.774724 7.362632 
L 30.835138 26.102455 
L 30.954746 7.307933 
L 30.910198 32.653701 
L 30.96451 10.107648 
L 31.08961 32.69161 
L 31.045062 7.241679 
L 31.104866 26.388437 
L 31.134768 7.294231 
L 31.180536 32.765097 
L 31.234237 9.955111 
L 31.359947 32.845829 
L 31.315399 7.147046 
L 31.375814 25.814893 
L 31.495421 7.050572 
L 31.450263 32.823256 
L 31.505795 10.538024 
L 31.540579 32.829745 
L 31.585127 7.194005 
L 31.64432 26.982599 
L 31.674833 7.043373 
L 31.720601 32.873154 
L 31.776743 11.065751 
L 31.900623 32.942855 
L 31.854854 6.915332 
L 31.912217 28.73959 
L 32.035486 6.815303 
L 31.990328 33.00681 
L 32.048301 11.871578 
L 32.17035 33.036007 
L 32.125192 6.951332 
L 32.181334 29.485441 
L 32.214898 6.727679 
L 32.260666 33.052521 
L 32.316808 10.78881 
L 32.440688 33.097199 
L 32.39553 6.711313 
L 32.452892 28.527606 
L 32.575551 6.708635 
L 32.530393 33.08742 
L 32.589587 12.602097 
L 32.710415 33.175778 
L 32.665867 6.804285 
L 32.72201 29.299107 
L 32.756183 6.670069 
L 32.800731 33.185296 
L 32.856873 10.58529 
L 32.891047 33.205695 
L 32.935595 6.637522 
L 32.992957 28.684793 
L 33.116227 6.726295 
L 33.071069 33.184351 
L 33.129652 12.441942 
L 33.25109 33.220796 
L 33.205932 6.805187 
L 33.261464 29.795159 
L 33.296248 6.65838 
L 33.340796 33.288058 
L 33.39999 12.76384 
L 33.520818 33.303849 
L 33.47627 6.696034 
L 33.532412 29.283914 
L 33.565976 6.606927 
L 33.611134 33.324855 
L 33.666666 10.306571 
L 33.791155 33.344827 
L 33.745387 6.621598 
L 33.805801 26.786073 
L 33.926019 6.537698 
L 33.880861 33.356297 
L 33.936393 10.192427 
L 34.060883 33.38085 
L 34.015725 6.598491 
L 34.076139 26.488495 
L 34.106041 6.443324 
L 34.151199 33.376607 
L 34.20551 9.448986 
L 34.33122 33.400793 
L 34.286062 6.406617 
L 34.346476 26.472124 
L 34.466084 6.390144 
L 34.420926 33.405926 
L 34.475238 9.337984 
L 34.511242 33.500771 
L 34.55579 6.547369 
L 34.614983 27.751412 
L 34.646106 6.358314 
L 34.691874 33.546432 
L 34.745575 9.260488 
L 34.871285 33.555112 
L 34.826738 6.322921 
L 34.885931 27.127369 
L 35.006149 6.330707 
L 34.960991 33.535939 
L 35.018354 11.012883 
L 35.141623 33.533354 
L 35.096465 6.535627 
L 35.154438 28.387592 
L 35.186781 6.351557 
L 35.231939 33.583112 
L 35.287471 10.245876 
L 35.411961 33.616346 
L 35.366803 6.325572 
L 35.425386 27.736733 
L 35.546824 6.389541 
L 35.501056 33.566831 
L 35.556588 9.70779 
L 35.681688 33.562719 
L 35.63653 6.40046 
L 35.696334 27.105478 
L 35.726846 6.376074 
L 35.772004 33.567789 
L 35.826926 9.888227 
L 35.952026 33.610889 
L 35.906868 6.379034 
L 35.966061 27.317259 
L 35.996574 6.274468 
L 36.042342 33.635255 
L 36.097264 9.951114 
L 36.222363 33.699629 
L 36.176595 6.233514 
L 36.237009 26.888546 
L 36.357227 6.225309 
L 36.312069 33.680375 
L 36.366991 9.630277 
L 36.492091 33.664559 
L 36.446933 6.401042 
L 36.506126 27.592659 
L 36.537249 6.210202 
L 36.582407 33.697153 
L 36.636108 9.025314 
L 36.762429 33.692983 
L 36.717271 6.175641 
L 36.775854 28.025086 
L 36.897292 6.147487 
L 36.852134 33.69759 
L 36.907666 9.83924 
L 37.032156 33.721543 
L 36.986998 6.392479 
L 37.046192 27.739881 
L 37.077314 6.123649 
L 37.122472 33.700261 
L 37.176173 8.877915 
L 37.212788 33.740152 
L 37.257336 6.063833 
L 37.317139 26.921413 
L 37.437357 6.056782 
L 37.39281 33.741677 
L 37.447731 9.743888 
L 37.572221 33.773181 
L 37.527673 6.225946 
L 37.586867 27.272539 
L 37.617989 6.053071 
L 37.662537 33.764505 
L 37.718069 9.956182 
L 37.752853 33.800915 
L 37.797401 6.086587 
L 37.855984 28.152947 
L 37.977422 6.109441 
L 37.932264 33.77689 
L 37.987796 9.693257 
L 38.112286 33.83664 
L 38.067738 6.147027 
L 38.126932 27.472106 
L 38.24776 6.113645 
L 38.202602 33.867694 
L 38.258134 9.768176 
L 38.382624 33.891249 
L 38.337466 6.107939 
L 38.39727 27.192945 
L 38.427782 6.014153 
L 38.472329 33.889074 
L 38.527862 9.626173 
L 38.562645 33.937416 
L 38.608414 5.928961 
L 38.666997 27.588238 
L 38.787825 5.87167 
L 38.742667 33.915513 
L 38.796979 8.938482 
L 38.923299 33.924914 
L 38.878141 6.062927 
L 38.936724 27.860935 
L 38.967847 5.863467 
L 39.012394 33.887882 
L 39.067316 9.062247 
L 39.10271 33.970345 
L 39.147868 5.810953 
L 39.207062 27.732404 
L 39.32789 5.81202 
L 39.283342 33.956957 
L 39.337654 9.359935 
L 39.462754 33.981532 
L 39.417596 6.027824 
L 39.476789 27.974043 
L 39.507912 5.772793 
L 39.55307 34.008133 
L 39.607992 9.204098 
L 39.733091 34.041794 
L 39.688544 5.717884 
L 39.747737 27.384927 
L 39.867955 5.720748 
L 39.823407 34.022956 
L 39.877719 9.150277 
L 39.913113 34.051431 
L 39.958271 5.957715 
L 40.016854 28.214243 
L 40.048587 5.699219 
L 40.093135 34.048331 
L 40.148667 9.47873 
L 40.273767 34.051408 
L 40.227999 5.703403 
L 40.287802 27.510553 
L 40.40863 5.766272 
L 40.363472 33.990406 
L 40.419005 9.831074 
L 40.543494 34.030358 
L 40.498336 5.970539 
L 40.556919 28.342526 
L 40.588652 5.817104 
L 40.6332 34.089987 
L 40.689952 10.233253 
L 40.813222 34.114721 
L 40.768674 5.838253 
L 40.826037 29.1206 
L 40.948695 5.821749 
L 40.903538 34.05568 
L 40.95968 10.033139 
L 40.993853 34.113194 
L 41.038401 5.840393 
L 41.096985 28.432148 
L 41.218423 5.842754 
L 41.173875 34.099547 
L 41.230628 10.700994 
L 41.353897 34.101864 
L 41.308739 5.894473 
L 41.366102 29.209111 
L 41.398445 5.728906 
L 41.443603 34.109392 
L 41.499135 9.590869 
L 41.623624 34.113269 
L 41.579077 5.71506 
L 41.63827 27.557642 
L 41.758488 5.693702 
L 41.71394 34.075416 
L 41.769472 9.798233 
L 41.804256 34.077449 
L 41.848804 5.974115 
L 41.907997 27.750726 
L 41.93912 5.704077 
L 41.983668 34.109697 
L 42.037979 8.758252 
L 42.163689 34.106111 
L 42.119142 5.658606 
L 42.178945 27.074356 
L 42.299163 5.682242 
L 42.254005 34.11598 
L 42.309537 9.582205 
L 42.344321 34.103151 
L 42.388869 5.975051 
L 42.448063 27.953981 
L 42.479185 5.726883 
L 42.523733 34.110942 
L 42.577434 8.355368 
L 42.614049 34.103737 
L 42.659207 5.756029 
L 42.719621 26.553346 
L 42.839228 5.765076 
L 42.79407 34.097124 
L 42.848382 8.715988 
L 42.974092 34.067019 
L 42.928934 5.882762 
L 42.988738 27.470009 
L 43.01925 5.824695 
L 43.063798 34.052349 
L 43.11872 9.052409 
L 43.243819 34.089203 
L 43.199272 5.785214 
L 43.257855 28.289062 
L 43.288977 5.848991 
L 43.334135 34.108042 
L 43.390278 10.039707 
L 43.424451 34.084067 
L 43.468999 5.797915 
L 43.528193 28.061537 
L 43.649631 5.788249 
L 43.604473 34.107673 
L 43.659395 9.312938 
L 43.784495 34.130897 
L 43.739337 5.871986 
L 43.79792 28.341874 
L 43.829042 5.726152 
L 43.8742 34.13991 
L 43.930343 9.972074 
L 44.054832 34.122123 
L 44.009674 5.739971 
L 44.069478 27.06795 
L 44.189696 5.704753 
L 44.144538 34.131662 
L 44.20007 9.608314 
L 44.32456 34.133437 
L 44.280012 5.910762 
L 44.337985 28.446243 
L 44.369718 5.688332 
L 44.414876 34.10432 
L 44.471018 10.181376 
L 44.504581 34.126554 
L 44.549739 5.727482 
L 44.608323 28.239961 
L 44.729761 5.746183 
L 44.684603 34.099793 
L 44.739525 9.258654 
L 44.774919 34.069451 
L 44.819467 5.918665 
L 44.87805 28.520238 
L 44.909783 5.805182 
L 44.954331 34.071348 
L 45.011083 10.136387 
L 45.044647 34.112868 
L 45.090415 5.852325 
L 45.148998 27.713501 
L 45.18012 5.829509 
L 45.225278 34.077677 
L 45.27898 8.802324 
L 45.4053 34.120299 
L 45.360142 5.828049 
L 45.418725 28.122683 
L 45.540164 5.733624 
L 45.495006 34.12499 
L 45.550538 9.718393 
L 45.675028 34.165355 
L 45.62987 5.873379 
L 45.689063 27.850526 
L 45.720186 5.710933 
L 45.765344 34.112196 
L 45.819045 8.674775 
L 45.855659 34.158373 
L 45.899597 5.69347 
L 45.958791 28.240736 
L 46.080229 5.709985 
L 46.035071 34.150378 
L 46.090603 9.610068 
L 46.215703 34.182235 
L 46.169935 5.851601 
L 46.228518 28.53602 
L 46.260251 5.681409 
L 46.304798 34.142013 
L 46.362161 10.557417 
L 46.395114 34.189127 
L 46.440883 5.707832 
L 46.498245 28.804054 
L 46.620904 5.721704 
L 46.575136 34.146121 
L 46.633109 11.140948 
L 46.665452 34.174926 
L 46.71 5.786573 
L 46.767363 29.622806 
L 46.800926 5.742787 
L 46.845474 34.180424 
L 46.902226 10.391863 
L 46.93579 34.198955 
L 46.980337 5.772842 
L 47.039531 28.09207 
L 47.070653 5.694775 
L 47.115811 34.185549 
L 47.169513 8.51033 
L 47.205517 34.211123 
L 47.250675 5.638418 
L 47.309869 27.847325 
L 47.430697 5.659577 
L 47.386149 34.206948 
L 47.43985 8.592462 
L 47.566171 34.222501 
L 47.521013 5.718655 
L 47.580206 27.545999 
L 47.610718 5.590374 
L 47.655876 34.205157 
L 47.710188 8.821725 
L 47.746192 34.246164 
L 47.79074 5.573422 
L 47.849934 27.961488 
L 47.970762 5.610174 
L 47.926214 34.211457 
L 47.980526 8.888021 
L 48.105625 34.193205 
L 48.061078 5.732942 
L 48.119051 28.687782 
L 48.150783 5.596202 
L 48.195941 34.213421 
L 48.253914 11.223624 
L 48.376573 34.196393 
L 48.330805 5.600447 
L 48.387558 29.94325 
L 48.510827 5.576782 
L 48.466279 34.236934 
L 48.525473 12.324846 
L 48.646301 34.240554 
L 48.601753 5.722563 
L 48.657285 30.321188 
L 48.691459 5.56443 
L 48.736006 34.279984 
L 48.79581 12.567094 
L 48.916638 34.318418 
L 48.87148 5.515266 
L 48.927623 30.17063 
L 49.051502 5.495413 
L 49.006344 34.307377 
L 49.065538 12.213126 
L 49.09666 34.320078 
L 49.141208 5.661227 
L 49.198571 29.632871 
L 49.231524 5.471401 
L 49.276682 34.353016 
L 49.332214 9.610823 
L 49.456703 34.340985 
L 49.411545 5.509133 
L 49.471349 27.299835 
L 49.591567 5.509561 
L 49.547019 34.312689 
L 49.601331 8.965202 
L 49.726431 34.346411 
L 49.681273 5.638447 
L 49.739856 28.800123 
L 49.772199 5.559521 
L 49.816747 34.317148 
L 49.873499 10.307361 
L 49.996768 34.345631 
L 49.95161 5.581851 
L 50.010194 28.63497 
L 50.131632 5.536222 
L 50.087084 34.29907 
L 50.143227 10.041273 
L 50.17679 34.344688 
L 50.221948 5.585062 
L 50.281142 28.028811 
L 50.40197 5.554276 
L 50.356812 34.335709 
L 50.412344 9.386745 
L 50.447128 34.340829 
L 50.492286 5.677551 
L 50.550869 28.260441 
L 50.582602 5.510383 
L 50.627149 34.270626 
L 50.681461 8.643217 
L 50.717465 34.338414 
L 50.762013 5.483086 
L 50.821207 28.224863 
L 50.942645 5.492023 
L 50.897487 34.308335 
L 50.953019 9.622269 
L 50.987803 34.358458 
L 51.032351 5.677674 
L 51.090934 28.51339 
L 51.122057 5.496169 
L 51.167825 34.342387 
L 51.223967 10.122265 
L 51.257531 34.339172 
L 51.302688 5.502037 
L 51.360662 28.783376 
L 51.4821 5.547003 
L 51.437552 34.299486 
L 51.496136 11.678414 
L 51.527868 34.348868 
L 51.573026 5.669197 
L 51.628558 30.394741 
L 51.662732 5.535849 
L 51.70789 34.329011 
L 51.766473 11.898538 
L 51.797596 34.328497 
L 51.842754 5.574927 
L 51.898896 30.210774 
L 52.022775 5.629585 
L 51.977617 34.329812 
L 52.036811 12.049158 
L 52.067933 34.295466 
L 52.113091 5.584038 
L 52.169234 30.004504 
L 52.202797 5.607637 
L 52.247955 34.311049 
L 52.307148 12.273166 
L 52.338271 34.305599 
L 52.382819 5.586455 
L 52.438961 30.309893 
L 52.473135 5.603675 
L 52.518293 34.321435 
L 52.577486 12.512064 
L 52.697704 34.326716 
L 52.653156 5.530443 
L 52.709909 29.73801 
L 52.833178 5.523938 
L 52.78802 34.315013 
L 52.845993 11.119372 
L 52.968042 34.330798 
L 52.922884 5.606069 
L 52.979026 30.463816 
L 53.0132 5.541246 
L 53.058358 34.330125 
L 53.117551 12.42298 
L 53.238379 34.348278 
L 53.193221 5.523163 
L 53.249974 29.929309 
L 53.373853 5.525955 
L 53.328085 34.353211 
L 53.386668 11.452254 
L 53.508717 34.356284 
L 53.463559 5.64193 
L 53.519701 30.218167 
L 53.553875 5.531655 
L 53.598423 34.336107 
L 53.658226 12.724785 
L 53.778444 34.337727 
L 53.733897 5.536452 
L 53.789429 30.474602 
L 53.913918 5.521023 
L 53.86876 34.355289 
L 53.927344 11.917533 
L 54.048782 34.341328 
L 54.003624 5.641455 
L 54.060377 29.900616 
L 54.183646 5.581983 
L 54.138488 34.278622 
L 54.19524 10.255669 
L 54.318509 34.331708 
L 54.273962 5.617685 
L 54.331935 28.615101 
L 54.363667 5.586519 
L 54.408825 34.32258 
L 54.465578 10.491687 
L 54.588847 34.356931 
L 54.543689 5.61486 
L 54.601662 28.93903 
L 54.723711 5.535528 
L 54.679163 34.317643 
L 54.736526 11.053443 
L 54.859185 34.332824 
L 54.814027 5.69143 
L 54.870779 29.769534 
L 54.903732 5.551166 
L 54.94889 34.261862 
L 55.004423 9.583256 
L 55.128912 34.337574 
L 55.083754 5.551095 
L 55.142948 28.075022 
L 55.264386 5.518629 
L 55.219228 34.326676 
L 55.27415 9.332572 
L 55.39925 34.328397 
L 55.354092 5.72348 
L 55.412065 28.806506 
L 55.444408 5.500433 
L 55.488955 34.294456 
L 55.545708 10.263824 
L 55.579271 34.337371 
L 55.624429 5.501309 
L 55.683013 28.212264 
L 55.804451 5.486904 
L 55.759293 34.334591 
L 55.814215 9.141713 
L 55.848999 34.304152 
L 55.894157 5.679933 
L 55.95213 28.984716 
L 55.984473 5.550551 
L 56.029631 34.295056 
L 56.086994 10.978209 
L 56.119337 34.30566 
L 56.164494 5.569534 
L 56.220027 30.557352 
L 56.344516 5.57775 
L 56.299358 34.299634 
L 56.357942 11.617772 
L 56.389674 34.313017 
L 56.434832 5.648039 
L 56.490974 29.959628 
L 56.524538 5.595529 
L 56.569696 34.31142 
L 56.6295 12.887933 
L 56.749718 34.298773 
L 56.70456 5.604532 
L 56.760702 30.233307 
L 56.794265 5.627161 
L 56.839423 34.282447 
L 56.899227 12.518154 
L 56.929739 34.301721 
L 56.974287 5.607115 
L 57.03165 29.701185 
L 57.154919 5.622168 
L 57.110371 34.281441 
L 57.167734 11.16552 
L 57.289783 34.313577 
L 57.244625 5.593471 
L 57.300157 30.806708 
L 57.334941 5.571868 
L 57.380099 34.341193 
L 57.438682 11.901358 
L 57.56012 34.325862 
L 57.514962 5.510467 
L 57.571715 29.88479 
L 57.694984 5.545851 
L 57.649826 34.333167 
L 57.70902 12.006875 
L 57.829848 34.341148 
L 57.7853 5.600251 
L 57.841442 30.21006 
L 57.875006 5.525767 
L 57.920164 34.368401 
L 57.979357 12.244394 
L 58.100185 34.347641 
L 58.055638 5.525422 
L 58.11178 30.078172 
L 58.235049 5.509918 
L 58.190501 34.336507 
L 58.249085 11.858804 
L 58.370523 34.37658 
L 58.325365 5.645635 
L 58.382118 30.003505 
L 58.415681 5.490962 
L 58.460839 34.358435 
L 58.518202 10.967313 
L 58.640861 34.354527 
L 58.595703 5.511991 
L 58.652455 29.833422 
L 58.775724 5.530875 
L 58.730566 34.279017 
L 58.786709 10.009719 
L 58.910588 34.34987 
L 58.86543 5.665461 
L 58.924624 28.093122 
L 59.046062 5.541045 
L 59.000904 34.30872 
L 59.055826 9.19927 
L 59.09061 34.337764 
L 59.135768 5.58987 
L 59.14126 6.636228 
" style="fill:none;stroke:#f08080;stroke-linecap:square;stroke-width:0.04;"/>
   </g>
   <g id="patch_3">
    <path d="M 4.22 39.242835 
L 4.22 0.72 
" style="fill:none;stroke:#f08080;stroke-linecap:square;stroke-linejoin:miter;stroke-width:0.5;"/>
   </g>
   <g id="patch_4">
    <path d="M 59.14126 39.242835 
L 59.14126 0.72 
" style="fill:none;stroke:#f08080;stroke-linecap:square;stroke-linejoin:miter;stroke-width:0.5;"/>
   </g>
   <g id="patch_5">
    <path d="M 4.22 39.242835 
L 59.14126 39.242835 
" style="fill:none;stroke:#f08080;stroke-linecap:square;stroke-linejoin:miter;stroke-width:0.5;"/>
   </g>
   <g id="patch_6">
    <path d="M 4.22 0.72 
L 59.14126 0.72 
" style="fill:none;stroke:#f08080;stroke-linecap:square;stroke-linejoin:miter;stroke-width:0.5;"/>
   </g>
  </g>
 </g>
 <defs>
  <clipPath id="p08edc6881a">
   <rect height="38.522835" width="54.92126" x="4.22" y="0.72"/>
  </clipPath>
 </defs>
</svg>
