<?xml version="1.0" encoding="utf-8" standalone="no"?>
<!DOCTYPE svg PUBLIC "-//W3C//DTD SVG 1.1//EN"
  "http://www.w3.org/Graphics/SVG/1.1/DTD/svg11.dtd">
<svg xmlns:xlink="http://www.w3.org/1999/xlink" width="56.36126pt" height="40.728189pt" viewBox="0 0 56.36126 40.728189" xmlns="http://www.w3.org/2000/svg" version="1.1">
 <metadata>
  <rdf:RDF xmlns:dc="http://purl.org/dc/elements/1.1/" xmlns:cc="http://creativecommons.org/ns#" xmlns:rdf="http://www.w3.org/1999/02/22-rdf-syntax-ns#">
   <cc:Work>
    <dc:type rdf:resource="http://purl.org/dc/dcmitype/StillImage"/>
    <dc:date>2025-02-16T20:55:21.708512</dc:date>
    <dc:format>image/svg+xml</dc:format>
    <dc:creator>
     <cc:Agent>
      <dc:title>Matplotlib v3.7.5, https://matplotlib.org/</dc:title>
     </cc:Agent>
    </dc:creator>
   </cc:Work>
  </rdf:RDF>
 </metadata>
 <defs>
  <style type="text/css">*{stroke-linejoin: round; stroke-linecap: butt}</style>
 </defs>
 <g id="figure_1">
  <g id="patch_1">
   <path d="M 0 40.728189 
L 56.36126 40.728189 
L 56.36126 0 
L 0 0 
z
" style="fill: #ffffff"/>
  </g>
  <g id="axes_1">
   <g id="patch_2">
    <path d="M 0.72 40.008189 
L 55.64126 40.008189 
L 55.64126 0.72 
L 0.72 0.72 
z
" style="fill: #ffffff"/>
   </g>
   <g id="matplotlib.axis_1"/>
   <g id="matplotlib.axis_2"/>
   <g id="line2d_1">
    <path d="M 0.72 19.064607 
L 0.857305 21.613008 
L 0.811536 19.060822 
L 0.876222 20.458964 
L 0.990948 18.977424 
L 0.9464 21.536339 
L 0.999491 19.270535 
L 1.034275 21.748046 
L 1.080043 18.998697 
L 1.134355 21.24923 
L 1.260675 18.859182 
L 1.213687 21.845307 
L 1.277152 19.757089 
L 1.394319 21.838547 
L 1.350381 18.875856 
L 1.406523 21.373943 
L 1.531013 18.796217 
L 1.484634 21.791581 
L 1.541997 19.260251 
L 1.57373 21.891436 
L 1.619498 18.836264 
L 1.676861 21.184508 
L 1.79891 18.74504 
L 1.754362 21.905827 
L 1.809894 19.175602 
L 1.844068 21.900274 
L 1.889836 18.640131 
L 1.944758 21.464925 
L 2.070468 18.665682 
L 2.023479 21.973509 
L 2.083893 19.42116 
L 2.204721 22.013388 
L 2.160784 18.683056 
L 2.218147 21.188458 
L 2.249269 18.623217 
L 2.293206 21.985512 
L 2.348739 19.03846 
L 2.473228 22.008314 
L 2.42868 18.604363 
L 2.489094 21.064515 
L 2.609312 18.569582 
L 2.563544 22.15605 
L 2.620297 19.049767 
L 2.742956 22.241212 
L 2.699018 18.574256 
L 2.756991 21.442883 
L 2.788724 18.467952 
L 2.833882 22.125932 
L 2.888193 18.871453 
L 2.923587 22.278565 
L 2.969356 18.492114 
L 3.03099 20.913878 
L 3.059061 18.380106 
L 3.104219 22.336173 
L 3.158531 18.848328 
L 3.283631 22.344755 
L 3.238473 18.398309 
L 3.300107 21.182392 
L 3.330009 18.389596 
L 3.373947 22.252285 
L 3.428869 18.852624 
L 3.553968 22.397015 
L 3.508811 18.369973 
L 3.569225 21.186638 
L 3.600347 18.242517 
L 3.643674 22.394451 
L 3.698596 18.800817 
L 3.823696 22.460873 
L 3.779758 18.218902 
L 3.839562 21.282645 
L 3.868244 18.27481 
L 3.913402 22.496992 
L 3.968934 18.771878 
L 4.092813 22.572416 
L 4.047655 18.233515 
L 4.106849 21.637054 
L 4.139802 18.112004 
L 4.18435 22.526436 
L 4.240492 18.864459 
L 4.273445 22.641739 
L 4.319213 18.063483 
L 4.377186 21.696337 
L 4.410139 18.106378 
L 4.454687 22.676346 
L 4.51144 18.837672 
L 4.633488 22.74051 
L 4.590161 18.073866 
L 4.643862 22.167151 
L 4.678646 18.097889 
L 4.723804 22.584798 
L 4.781167 18.888787 
L 4.8129 22.751288 
L 4.859278 18.038886 
L 4.916641 21.813832 
L 4.948374 18.037175 
L 4.993532 22.785344 
L 5.050284 18.70267 
L 5.174774 22.862176 
L 5.128395 17.951092 
L 5.19003 21.387785 
L 5.309027 17.929356 
L 5.263869 22.806102 
L 5.318181 18.500916 
L 5.354796 22.906167 
L 5.398733 17.88558 
L 5.460368 21.244134 
L 5.578755 17.790121 
L 5.533597 22.938247 
L 5.587298 18.304898 
L 5.712398 23.03942 
L 5.669681 17.739038 
L 5.728875 21.514825 
L 5.848482 17.648344 
L 5.802714 22.981065 
L 5.857026 18.166076 
L 5.983346 23.094317 
L 5.938188 17.627363 
L 5.998602 21.648932 
L 6.117599 17.534396 
L 6.073052 23.155018 
L 6.127973 18.144271 
L 6.252463 23.230951 
L 6.206695 17.570561 
L 6.265888 22.083642 
L 6.388547 17.49394 
L 6.342779 23.167774 
L 6.400142 18.474172 
L 6.432485 23.277909 
L 6.478253 17.484969 
L 6.535616 22.206163 
L 6.657664 17.38475 
L 6.611896 23.363735 
L 6.668649 18.190403 
L 6.792528 23.429397 
L 6.74737 17.376802 
L 6.806564 22.011903 
L 6.928002 17.304072 
L 6.882844 23.459541 
L 6.937766 18.037894 
L 7.062866 23.525935 
L 7.017708 17.233414 
L 7.075681 22.265889 
L 7.19834 17.151715 
L 7.153182 23.52992 
L 7.208104 17.930561 
L 7.242277 23.640668 
L 7.288045 17.190967 
L 7.346629 22.211613 
L 7.468067 17.103712 
L 7.423519 23.69318 
L 7.478441 17.925783 
L 7.602931 23.773799 
L 7.557773 17.061608 
L 7.616356 22.301581 
L 7.648089 16.98942 
L 7.692026 23.689693 
L 7.747558 17.754238 
L 7.783563 23.847466 
L 7.82811 16.930173 
L 7.889135 21.760239 
L 8.007522 16.855403 
L 7.962364 23.91218 
L 8.019727 18.065075 
L 8.142996 23.995788 
L 8.097838 16.926228 
L 8.155201 22.696908 
L 8.186323 16.769393 
L 8.232702 23.931905 
L 8.288234 17.771773 
L 8.323018 24.06253 
L 8.367565 16.640807 
L 8.426149 22.472548 
L 8.547587 16.512947 
L 8.503039 24.140504 
L 8.558571 17.684596 
L 8.682451 24.225449 
L 8.636682 16.589752 
L 8.694656 23.04458 
L 8.727609 16.409515 
L 8.772156 24.222931 
L 8.830129 17.836172 
L 8.862472 24.320046 
L 8.90763 16.319057 
L 8.966214 22.633183 
L 9.087042 16.204276 
L 9.042494 24.363988 
L 9.100467 17.790982 
L 9.223126 24.428668 
L 9.177358 16.341291 
L 9.235331 23.072742 
L 9.267063 16.134952 
L 9.312221 24.502136 
L 9.371415 17.869946 
L 9.492853 24.615745 
L 9.448306 16.062162 
L 9.506279 22.871507 
L 9.627717 16.025532 
L 9.583169 24.584545 
L 9.638701 17.196887 
L 9.762581 24.694442 
L 9.717423 16.057603 
L 9.776616 22.930343 
L 9.808349 15.92688 
L 9.853507 24.81571 
L 9.91148 17.730988 
L 10.032918 24.901089 
L 9.988371 15.840838 
L 10.045734 23.250163 
L 10.167782 15.733722 
L 10.123234 24.817418 
L 10.180597 17.402971 
L 10.21355 24.925081 
L 10.258098 15.762027 
L 10.314851 23.546351 
L 10.43751 15.578947 
L 10.393572 25.039608 
L 10.450325 17.21382 
L 10.572983 25.126678 
L 10.527826 15.497423 
L 10.586409 23.358459 
L 10.707847 15.430024 
L 10.662689 25.096941 
L 10.720662 17.225903 
L 10.843321 25.200233 
L 10.798163 15.390025 
L 10.855526 23.620913 
L 10.887869 15.314536 
L 10.933027 25.306563 
L 10.989779 16.914687 
L 11.112438 25.335114 
L 11.068501 15.289649 
L 11.126474 23.508063 
L 11.247912 15.175228 
L 11.202754 25.365343 
L 11.260727 17.0121 
L 11.382776 25.451836 
L 11.338228 15.167786 
L 11.394981 23.95265 
L 11.51764 15.079049 
L 11.473092 25.508879 
L 11.531065 17.041757 
L 11.653114 25.584791 
L 11.607956 15.035753 
L 11.666539 23.630861 
L 11.788588 14.936011 
L 11.742819 25.649155 
L 11.799572 16.520806 
L 11.922231 25.760009 
L 11.878293 14.814286 
L 11.936266 23.766831 
L 12.057705 14.664919 
L 12.013157 25.794421 
L 12.06991 16.451489 
L 12.193179 25.882277 
L 12.148631 14.712129 
L 12.205384 24.139685 
L 12.238337 14.577525 
L 12.283495 25.875839 
L 12.343909 17.647814 
L 12.462906 26.007212 
L 12.418358 14.476086 
L 12.476331 23.986562 
L 12.59838 14.348758 
L 12.553222 26.055901 
L 12.609364 15.932748 
L 12.733854 26.188746 
L 12.688696 14.447605 
L 12.744228 24.717399 
L 12.778402 14.249448 
L 12.82417 26.22795 
L 12.882143 16.833239 
L 13.003581 26.359241 
L 12.958423 14.171048 
L 13.015786 24.439558 
L 13.138445 14.093068 
L 13.093287 26.35796 
L 13.152481 16.768455 
L 13.273919 26.4747 
L 13.228761 14.103303 
L 13.284903 24.761022 
L 13.408783 13.968168 
L 13.363625 26.584532 
L 13.421598 16.451831 
L 13.543646 26.65686 
L 13.499099 13.946841 
L 13.555851 24.578844 
L 13.67851 13.810281 
L 13.632742 26.736032 
L 13.691935 16.385542 
L 13.813374 26.872098 
L 13.768826 13.733633 
L 13.826189 24.559851 
L 13.948848 13.619104 
L 13.90369 26.874832 
L 13.961053 15.886737 
L 14.083711 26.976342 
L 14.038553 13.626657 
L 14.094696 25.228869 
L 14.128869 13.520042 
L 14.174027 27.107886 
L 14.233221 16.697024 
L 14.354659 27.283543 
L 14.308891 13.414881 
L 14.365644 25.034305 
L 14.488913 13.306749 
L 14.443755 27.22112 
L 14.501728 15.819556 
L 14.534071 27.411401 
L 14.579229 13.33862 
L 14.635371 25.280105 
L 14.668935 13.18002 
L 14.714092 27.479467 
L 14.773896 16.720728 
L 14.894724 27.547949 
L 14.848956 13.052464 
L 14.905709 25.292681 
L 15.028978 12.958734 
L 14.98382 27.639808 
L 15.043013 16.092777 
L 15.163842 27.714611 
L 15.119294 13.012965 
L 15.174826 25.677395 
L 15.209 12.890805 
L 15.254158 27.706399 
L 15.314572 16.762885 
L 15.344474 27.869734 
L 15.389021 12.801625 
L 15.445774 25.532748 
L 15.569653 12.678377 
L 15.523885 27.992397 
L 15.583689 16.174032 
L 15.703907 28.088504 
L 15.659359 12.710525 
L 15.714891 25.946102 
L 15.749065 12.582779 
L 15.794223 28.029384 
L 15.854026 16.232665 
L 15.883928 28.296086 
L 15.929697 12.500571 
L 15.986449 25.588407 
L 16.109108 12.423021 
L 16.06456 28.486365 
L 16.124364 16.23922 
L 16.244582 28.572413 
L 16.200034 12.270982 
L 16.255566 26.097626 
L 16.379446 12.182313 
L 16.335508 28.582672 
L 16.393481 15.567809 
L 16.424604 28.711253 
L 16.469762 12.188473 
L 16.524073 26.831396 
L 16.559467 12.027298 
L 16.604625 28.87373 
L 16.663209 15.331513 
L 16.785257 28.957559 
L 16.739489 11.912353 
L 16.795021 26.69841 
L 16.920121 11.861875 
L 16.874963 28.95308 
L 16.932326 14.816301 
L 17.054374 29.057423 
L 17.010437 11.900603 
L 17.06963 24.736051 
L 17.100143 11.770241 
L 17.14469 29.053503 
L 17.201443 14.474238 
L 17.235006 29.146926 
L 17.280164 11.66135 
L 17.339358 24.992628 
L 17.460186 11.602578 
L 17.415028 29.272274 
L 17.47117 14.070861 
L 17.59566 29.392441 
L 17.549892 11.56641 
L 17.607865 25.794641 
L 17.729913 11.431951 
L 17.684755 29.364367 
L 17.743339 14.889148 
L 17.775071 29.519999 
L 17.820229 11.408219 
L 17.878202 25.749289 
L 18.000861 11.299391 
L 17.955093 29.575678 
L 18.013066 14.641836 
L 18.135115 29.677281 
L 18.089957 11.26468 
L 18.14915 25.497448 
L 18.270589 11.10646 
L 18.226041 29.64033 
L 18.282183 14.030552 
L 18.315747 29.833472 
L 18.360294 11.151703 
L 18.417657 26.422824 
L 18.45061 11.043711 
L 18.495158 29.928515 
L 18.5513 13.427057 
L 18.67579 30.012006 
L 18.630632 10.990971 
L 18.689215 25.828451 
L 18.810654 10.795194 
L 18.765496 30.046376 
L 18.822859 13.974834 
L 18.856422 30.148654 
L 18.90097 10.951787 
L 18.957112 27.081373 
L 18.991286 10.780626 
L 19.035833 30.247395 
L 19.093807 14.40671 
L 19.215855 30.282414 
L 19.171307 10.788659 
L 19.22928 26.109259 
L 19.351329 10.598082 
L 19.306171 30.381506 
L 19.362313 13.393806 
L 19.396487 30.408848 
L 19.441035 10.708122 
L 19.499618 26.064277 
L 19.530741 10.510128 
L 19.576509 30.486869 
L 19.632651 13.52072 
L 19.75653 30.566508 
L 19.711372 10.576374 
L 19.768735 26.715182 
L 19.801078 10.351547 
L 19.846236 30.634837 
L 19.901158 12.553342 
L 20.026258 30.714609 
L 19.9811 10.336646 
L 20.041514 25.308601 
L 20.071416 10.225712 
L 20.117184 30.729487 
L 20.172716 13.161597 
L 20.296595 30.805082 
L 20.251437 10.308544 
L 20.311241 25.548041 
L 20.341143 10.073005 
L 20.386301 30.829353 
L 20.444274 13.832409 
L 20.566933 30.956188 
L 20.521775 10.04654 
L 20.578528 27.444159 
L 20.701797 10.041902 
L 20.656639 30.935724 
L 20.712781 12.874658 
L 20.836661 31.047866 
L 20.791503 10.021748 
L 20.850696 26.140155 
L 20.971524 9.87361 
L 20.926976 31.0085 
L 20.983119 12.967758 
L 21.106388 31.272019 
L 21.06184 9.745753 
L 21.119813 26.923962 
L 21.241862 9.710594 
L 21.196704 31.179775 
L 21.253456 12.869985 
L 21.377336 31.403215 
L 21.332178 9.609255 
L 21.390761 26.490074 
L 21.5122 9.530544 
L 21.467042 31.325446 
L 21.521963 11.97237 
L 21.647673 31.506918 
L 21.602515 9.460683 
L 21.660489 26.928163 
L 21.782537 9.401803 
L 21.737989 31.43947 
L 21.791691 11.658152 
L 21.827695 31.624733 
L 21.872243 9.377218 
L 21.933267 25.235072 
L 21.962559 9.376465 
L 22.007717 31.571604 
L 22.064469 13.011517 
L 22.187739 31.635251 
L 22.142581 9.242359 
L 22.200554 27.130806 
L 22.322602 9.14454 
L 22.277444 31.545983 
L 22.335417 13.271983 
L 22.36776 31.774359 
L 22.412918 9.253304 
L 22.470891 27.176725 
L 22.59294 9.110055 
L 22.547782 31.781171 
L 22.603924 12.353725 
L 22.728414 31.774796 
L 22.682646 9.111337 
L 22.740619 27.419618 
L 22.862667 9.019245 
L 22.817509 31.712312 
L 22.874872 12.714466 
L 22.907825 31.951307 
L 22.953593 8.930866 
L 23.010956 27.518766 
L 23.133005 8.803812 
L 23.087847 31.9724 
L 23.143989 11.960227 
L 23.268479 31.937079 
L 23.223321 8.870212 
L 23.280684 27.689775 
L 23.312416 8.782332 
L 23.357574 32.01042 
L 23.415547 12.865475 
L 23.449111 32.079509 
L 23.493048 8.690765 
L 23.551632 27.366363 
L 23.67368 8.525983 
L 23.628522 32.151947 
L 23.685275 12.385265 
L 23.718228 32.168141 
L 23.763386 8.668506 
L 23.820749 28.142299 
L 23.853092 8.494496 
L 23.89886 32.307309 
L 23.953172 11.156627 
L 24.078271 32.335414 
L 24.033724 8.495832 
L 24.092307 27.179512 
L 24.213135 8.362681 
L 24.168587 32.322286 
L 24.224119 11.449331 
L 24.349219 32.373393 
L 24.304061 8.469202 
L 24.362645 27.089917 
L 24.393767 8.254882 
L 24.438315 32.555388 
L 24.493237 10.936406 
L 24.618947 32.601478 
L 24.573789 8.321667 
L 24.633592 26.475043 
L 24.663494 8.275288 
L 24.708652 32.461766 
L 24.762964 10.655855 
L 24.888674 32.569974 
L 24.843516 8.288874 
L 24.905761 25.042283 
L 25.023538 8.148876 
L 24.97899 32.765076 
L 25.035132 11.682096 
L 25.159012 32.851826 
L 25.114464 8.166738 
L 25.171827 28.041975 
L 25.20417 8.002718 
L 25.249328 32.736375 
L 25.30425 11.027911 
L 25.429349 32.786819 
L 25.384191 7.926416 
L 25.443385 27.271356 
L 25.564213 7.889702 
L 25.519055 32.865174 
L 25.573977 10.845776 
L 25.699687 32.951692 
L 25.654529 8.044786 
L 25.714943 25.91512 
L 25.744235 7.787562 
L 25.789393 32.906549 
L 25.845535 11.539903 
L 25.969414 32.99475 
L 25.924256 7.725802 
L 25.981619 28.805835 
L 26.104278 7.699574 
L 26.05973 32.986807 
L 26.114652 10.906335 
L 26.239752 33.05574 
L 26.194594 7.873752 
L 26.253788 27.159164 
L 26.2843 7.635613 
L 26.329458 33.051478 
L 26.38499 10.925518 
L 26.509479 33.12432 
L 26.464932 7.559913 
L 26.523515 27.538194 
L 26.644343 7.529184 
L 26.599795 33.140121 
L 26.654717 10.774055 
L 26.779817 33.185256 
L 26.735269 7.698849 
L 26.794463 26.985468 
L 26.824975 7.49758 
L 26.870133 33.211872 
L 26.924445 10.366407 
L 27.050155 33.258037 
L 27.004997 7.448343 
L 27.065411 26.183162 
L 27.185018 7.525058 
L 27.13986 33.251836 
L 27.195393 10.98995 
L 27.229566 33.329855 
L 27.274724 7.494605 
L 27.335138 26.606742 
L 27.454746 7.438819 
L 27.410198 33.288146 
L 27.46451 10.294158 
L 27.58961 33.326808 
L 27.545062 7.371248 
L 27.604866 26.898406 
L 27.634768 7.424845 
L 27.680536 33.401755 
L 27.734237 10.13859 
L 27.859947 33.48409 
L 27.815399 7.274736 
L 27.875814 26.313467 
L 27.995421 7.176345 
L 27.950263 33.461069 
L 28.005795 10.733084 
L 28.040579 33.467687 
L 28.085127 7.322628 
L 28.14432 27.504372 
L 28.174833 7.169003 
L 28.220601 33.511959 
L 28.276743 11.271295 
L 28.400623 33.583044 
L 28.354854 7.038418 
L 28.412217 29.296271 
L 28.535486 6.936402 
L 28.490328 33.64827 
L 28.548301 12.093132 
L 28.67035 33.678047 
L 28.625192 7.075133 
L 28.681334 30.05694 
L 28.714898 6.847037 
L 28.760666 33.694889 
L 28.816808 10.988852 
L 28.940688 33.740455 
L 28.89553 6.830346 
L 28.952892 29.080075 
L 29.075551 6.827615 
L 29.030393 33.730481 
L 29.089587 12.838165 
L 29.210415 33.820595 
L 29.165867 6.925165 
L 29.22201 29.866904 
L 29.256183 6.788282 
L 29.300731 33.830301 
L 29.356873 10.781289 
L 29.391047 33.851106 
L 29.435595 6.755088 
L 29.492957 29.240385 
L 29.616227 6.845626 
L 29.571069 33.829338 
L 29.629652 12.674828 
L 29.75109 33.866508 
L 29.705932 6.926084 
L 29.761464 30.372811 
L 29.796248 6.776361 
L 29.840796 33.935106 
L 29.89999 13.003122 
L 30.020818 33.951211 
L 29.97627 6.814763 
L 30.032412 29.851409 
L 30.065976 6.723886 
L 30.111134 33.972634 
L 30.166666 10.497032 
L 30.291155 33.993002 
L 30.245387 6.738849 
L 30.305801 27.303942 
L 30.426019 6.653281 
L 30.380861 34.0047 
L 30.436393 10.380621 
L 30.560883 34.029741 
L 30.515725 6.715282 
L 30.576139 27.000452 
L 30.606041 6.557033 
L 30.651199 34.025414 
L 30.70551 9.62241 
L 30.83122 34.05008 
L 30.786062 6.519596 
L 30.846476 26.983755 
L 30.966084 6.502796 
L 30.920926 34.055315 
L 30.975238 9.509203 
L 31.011242 34.152045 
L 31.05579 6.663145 
L 31.114983 28.28846 
L 31.146106 6.470334 
L 31.191874 34.198613 
L 31.245575 9.430166 
L 31.371285 34.207465 
L 31.326738 6.434237 
L 31.385931 27.652019 
L 31.506149 6.442178 
L 31.460991 34.187911 
L 31.518354 11.217377 
L 31.641623 34.185275 
L 31.596465 6.651169 
L 31.654438 28.937279 
L 31.686781 6.463443 
L 31.731939 34.236022 
L 31.787471 10.435132 
L 31.911961 34.269916 
L 31.866803 6.436941 
L 31.925386 28.27349 
L 32.046824 6.502181 
L 32.001056 34.219417 
L 32.056588 9.886356 
L 32.181688 34.215223 
L 32.13653 6.513317 
L 32.196334 27.629693 
L 32.226846 6.488446 
L 32.272004 34.220394 
L 32.326926 10.070377 
L 32.452026 34.264351 
L 32.406868 6.491465 
L 32.466061 27.845681 
L 32.496574 6.384821 
L 32.542342 34.289201 
L 32.597264 10.134513 
L 32.722363 34.354853 
L 32.676595 6.343054 
L 32.737009 27.408451 
L 32.857227 6.334686 
L 32.812069 34.335217 
L 32.866991 9.807302 
L 32.992091 34.319087 
L 32.946933 6.51391 
L 33.006126 28.126553 
L 33.037249 6.319279 
L 33.082407 34.352329 
L 33.136108 9.19032 
L 33.262429 34.348076 
L 33.217271 6.284031 
L 33.275854 28.567571 
L 33.397292 6.255318 
L 33.352134 34.352774 
L 33.407666 10.020417 
L 33.532156 34.377203 
L 33.486998 6.505178 
L 33.546192 28.276699 
L 33.577314 6.231007 
L 33.622472 34.355498 
L 33.676173 9.039993 
L 33.712788 34.396181 
L 33.757336 6.170002 
L 33.817139 27.441971 
L 33.937357 6.16281 
L 33.89281 34.397737 
L 33.947731 9.923171 
L 34.072221 34.429867 
L 34.027673 6.335336 
L 34.086867 27.800073 
L 34.117989 6.159026 
L 34.162537 34.421018 
L 34.218069 10.139683 
L 34.252853 34.458152 
L 34.297401 6.193208 
L 34.355984 28.697972 
L 34.477422 6.216516 
L 34.432264 34.43365 
L 34.487796 9.871534 
L 34.612286 34.494586 
L 34.567738 6.254849 
L 34.626932 28.003605 
L 34.74776 6.220803 
L 34.702602 34.526258 
L 34.758134 9.947942 
L 34.882624 34.55028 
L 34.837466 6.214984 
L 34.89727 27.718897 
L 34.927782 6.119334 
L 34.972329 34.548062 
L 35.027862 9.803117 
L 35.062645 34.597364 
L 35.108414 6.032451 
L 35.166997 28.122044 
L 35.287825 5.974021 
L 35.242667 34.575026 
L 35.296979 9.101764 
L 35.423299 34.584615 
L 35.378141 6.169078 
L 35.436724 28.400158 
L 35.467847 5.965655 
L 35.512394 34.546847 
L 35.567316 9.227987 
L 35.60271 34.630948 
L 35.647868 5.912098 
L 35.707062 28.269075 
L 35.82789 5.913186 
L 35.783342 34.617294 
L 35.837654 9.531589 
L 35.962754 34.642357 
L 35.917596 6.133277 
L 35.976789 28.515514 
L 36.007912 5.87318 
L 36.05307 34.669486 
L 36.107992 9.372656 
L 36.233091 34.703817 
L 36.188544 5.817179 
L 36.247737 27.914694 
L 36.367955 5.820101 
L 36.323407 34.684604 
L 36.377719 9.317766 
L 36.413113 34.713645 
L 36.458271 6.061776 
L 36.516854 28.760486 
L 36.548587 5.798143 
L 36.593135 34.710483 
L 36.648667 9.652745 
L 36.773767 34.713621 
L 36.727999 5.802411 
L 36.787802 28.042816 
L 36.90863 5.866529 
L 36.863472 34.651408 
L 36.919005 10.012089 
L 37.043494 34.692154 
L 36.998336 6.074854 
L 37.056919 28.891318 
L 37.088652 5.918371 
L 37.1332 34.752966 
L 37.189952 10.422258 
L 37.313222 34.778193 
L 37.268674 5.93994 
L 37.326037 29.68485 
L 37.448695 5.923108 
L 37.403538 34.717978 
L 37.45968 10.218169 
L 37.493853 34.776635 
L 37.538401 5.942123 
L 37.596985 28.98272 
L 37.718423 5.94453 
L 37.673875 34.762716 
L 37.730628 10.899292 
L 37.853897 34.76508 
L 37.808739 5.997277 
L 37.866102 29.77512 
L 37.898445 5.828421 
L 37.943603 34.772757 
L 37.999135 9.767111 
L 38.123624 34.776712 
L 38.079077 5.8143 
L 38.13827 28.09084 
L 38.258488 5.792517 
L 38.21394 34.738107 
L 38.269472 9.978596 
L 38.304256 34.74018 
L 38.348804 6.078501 
L 38.407997 28.28776 
L 38.43912 5.803098 
L 38.483668 34.773069 
L 38.537979 8.917952 
L 38.663689 34.769411 
L 38.619142 5.756724 
L 38.678945 27.597952 
L 38.799163 5.780829 
L 38.754005 34.779476 
L 38.809537 9.758275 
L 38.844321 34.766392 
L 38.888869 6.079456 
L 38.948063 28.495054 
L 38.979185 5.826357 
L 39.023733 34.774338 
L 39.077434 8.507065 
L 39.114049 34.76699 
L 39.159207 5.856082 
L 39.219621 27.066591 
L 39.339228 5.865309 
L 39.29407 34.760246 
L 39.348382 8.874849 
L 39.474092 34.729542 
L 39.428934 5.985333 
L 39.488738 28.001466 
L 39.51925 5.926113 
L 39.563798 34.714581 
L 39.61872 9.217954 
L 39.743819 34.752167 
L 39.699272 5.885847 
L 39.757855 28.836791 
L 39.788977 5.950892 
L 39.834135 34.771381 
L 39.890278 10.224867 
L 39.924451 34.746929 
L 39.968999 5.898801 
L 40.028193 28.604746 
L 40.149631 5.888942 
L 40.104473 34.771005 
L 40.159395 9.483659 
L 40.284495 34.794689 
L 40.239337 5.974343 
L 40.29792 28.890653 
L 40.329042 5.825612 
L 40.3742 34.803881 
L 40.430343 10.15589 
L 40.554832 34.785742 
L 40.509674 5.839706 
L 40.569478 27.59142 
L 40.689696 5.803787 
L 40.644538 34.795469 
L 40.70007 9.784903 
L 40.82456 34.79728 
L 40.780012 6.01389 
L 40.837985 28.997095 
L 40.869718 5.787041 
L 40.914876 34.767585 
L 40.971018 10.369351 
L 41.004581 34.79026 
L 41.049739 5.826968 
L 41.108323 28.786715 
L 41.229761 5.846041 
L 41.184603 34.762968 
L 41.239525 9.428296 
L 41.274919 34.732023 
L 41.319467 6.02195 
L 41.37805 29.07256 
L 41.409783 5.906213 
L 41.454331 34.733957 
L 41.511083 10.323467 
L 41.544647 34.776303 
L 41.590415 5.954291 
L 41.648998 28.249795 
L 41.68012 5.931023 
L 41.725278 34.740412 
L 41.77898 8.9629 
L 41.9053 34.783881 
L 41.860142 5.929533 
L 41.918725 28.667107 
L 42.040164 5.833233 
L 41.995006 34.788666 
L 42.050538 9.897169 
L 42.175028 34.829832 
L 42.12987 5.975764 
L 42.189063 28.389543 
L 42.220186 5.810091 
L 42.265344 34.775618 
L 42.319045 8.832816 
L 42.355659 34.822712 
L 42.399597 5.79228 
L 42.458791 28.787506 
L 42.580229 5.809124 
L 42.535071 34.814557 
L 42.590603 9.786692 
L 42.715703 34.847048 
L 42.669935 5.953553 
L 42.728518 29.088656 
L 42.760251 5.77998 
L 42.804798 34.806026 
L 42.862161 10.752863 
L 42.895114 34.854077 
L 42.940883 5.806928 
L 42.998245 29.362015 
L 43.120904 5.821075 
L 43.075136 34.810216 
L 43.133109 11.347987 
L 43.165452 34.839594 
L 43.21 5.887233 
L 43.267363 30.197034 
L 43.300926 5.842578 
L 43.345474 34.845201 
L 43.402226 10.584019 
L 43.43579 34.8641 
L 43.480337 5.87323 
L 43.539531 28.635886 
L 43.570653 5.793611 
L 43.615811 34.850428 
L 43.669513 8.665105 
L 43.705517 34.876509 
L 43.750675 5.736135 
L 43.809869 28.386278 
L 43.930697 5.757714 
L 43.886149 34.872251 
L 43.93985 8.748868 
L 44.066171 34.888114 
L 44.021013 5.817966 
L 44.080206 28.078965 
L 44.110718 5.687136 
L 44.155876 34.870425 
L 44.210188 8.982686 
L 44.246192 34.912247 
L 44.29074 5.669848 
L 44.349934 28.50271 
L 44.470762 5.707329 
L 44.426214 34.87685 
L 44.480526 9.050299 
L 44.605625 34.858236 
L 44.561078 5.832537 
L 44.619051 29.243433 
L 44.650783 5.69308 
L 44.695941 34.878853 
L 44.753914 11.432305 
L 44.876573 34.861486 
L 44.830805 5.697409 
L 44.887558 30.523844 
L 45.010827 5.673274 
L 44.966279 34.902834 
L 45.025473 12.555406 
L 45.146301 34.906525 
L 45.101753 5.821952 
L 45.157285 30.909291 
L 45.191459 5.660677 
L 45.236006 34.946738 
L 45.29581 12.802467 
L 45.416638 34.985936 
L 45.37148 5.610537 
L 45.427623 30.755742 
L 45.551502 5.590289 
L 45.506344 34.974675 
L 45.565538 12.441467 
L 45.59666 34.987629 
L 45.641208 5.759397 
L 45.698571 30.207299 
L 45.731524 5.565799 
L 45.776682 35.021222 
L 45.832214 9.787461 
L 45.956703 35.008951 
L 45.911545 5.604281 
L 45.971349 27.827911 
L 46.091567 5.604717 
L 46.047019 34.980093 
L 46.101331 9.129014 
L 46.226431 35.014485 
L 46.181273 5.736164 
L 46.239856 29.358007 
L 46.272199 5.65567 
L 46.316747 34.984641 
L 46.373499 10.497838 
L 46.496768 35.013689 
L 46.45161 5.678444 
L 46.510194 29.189572 
L 46.631632 5.631909 
L 46.587084 34.966204 
L 46.643227 10.226464 
L 46.67679 35.012729 
L 46.721948 5.681719 
L 46.781142 28.57137 
L 46.90197 5.650321 
L 46.856812 35.00357 
L 46.912344 9.558932 
L 46.947128 35.008792 
L 46.992286 5.776045 
L 47.050869 28.807602 
L 47.082602 5.605556 
L 47.127149 34.937194 
L 47.181461 8.800632 
L 47.217465 35.00633 
L 47.262013 5.577717 
L 47.321207 28.771317 
L 47.442645 5.586832 
L 47.397487 34.975653 
L 47.453019 9.799135 
L 47.487803 35.026772 
L 47.532351 5.776171 
L 47.590934 29.065577 
L 47.622057 5.59106 
L 47.667825 35.010381 
L 47.723967 10.309065 
L 47.757531 35.007102 
L 47.802688 5.597044 
L 47.860662 29.340927 
L 47.9821 5.642904 
L 47.937552 34.966628 
L 47.996136 11.896131 
L 48.027868 35.016991 
L 48.073026 5.767525 
L 48.128558 30.984306 
L 48.162732 5.631528 
L 48.20789 34.99674 
L 48.266473 12.120628 
L 48.297596 34.996215 
L 48.342754 5.671382 
L 48.398896 30.796684 
L 48.522775 5.727126 
L 48.477617 34.997556 
L 48.536811 12.274241 
L 48.567933 34.962529 
L 48.613091 5.680674 
L 48.669234 30.586315 
L 48.702797 5.704742 
L 48.747955 34.978421 
L 48.807148 12.502699 
L 48.838271 34.972863 
L 48.882819 5.68314 
L 48.938961 30.897771 
L 48.973135 5.700701 
L 49.018293 34.989013 
L 49.077486 12.746343 
L 49.197704 34.994399 
L 49.153156 5.626015 
L 49.209909 30.314527 
L 49.333178 5.61938 
L 49.28802 34.982464 
L 49.345993 11.325982 
L 49.468042 34.998562 
L 49.422884 5.703143 
L 49.479026 31.054752 
L 49.5132 5.637032 
L 49.558358 34.997876 
L 49.617551 12.655489 
L 49.738379 35.01639 
L 49.693221 5.61859 
L 49.749974 30.509626 
L 49.873853 5.621438 
L 49.828085 35.02142 
L 49.886668 11.665478 
L 50.008717 35.024554 
L 49.963559 5.739716 
L 50.019701 30.804224 
L 50.053875 5.627251 
L 50.098423 35.003977 
L 50.158226 12.963291 
L 50.278444 35.005629 
L 50.233897 5.632143 
L 50.289429 31.065753 
L 50.413918 5.616408 
L 50.36876 35.02354 
L 50.427344 12.140001 
L 50.548782 35.009302 
L 50.503624 5.739232 
L 50.560377 30.480364 
L 50.683646 5.678579 
L 50.638488 34.94535 
L 50.69524 10.44512 
L 50.818509 34.99949 
L 50.773962 5.71499 
L 50.831935 29.169308 
L 50.863667 5.683205 
L 50.908825 34.990181 
L 50.965578 10.685826 
L 51.088847 35.025215 
L 51.043689 5.712109 
L 51.101662 29.499673 
L 51.223711 5.631201 
L 51.179163 34.985146 
L 51.236526 11.258744 
L 51.359185 35.000629 
L 51.314027 5.7902 
L 51.370779 30.346678 
L 51.403732 5.647149 
L 51.44889 34.928257 
L 51.504423 9.759348 
L 51.628912 35.005472 
L 51.583754 5.647077 
L 51.642948 28.618499 
L 51.764386 5.613966 
L 51.719228 34.994358 
L 51.77415 9.503683 
L 51.89925 34.996114 
L 51.854092 5.822887 
L 51.912065 29.364516 
L 51.944408 5.595409 
L 51.988955 34.961499 
L 52.045708 10.453436 
L 52.079271 35.005266 
L 52.124429 5.596301 
L 52.183013 28.758468 
L 52.304451 5.581611 
L 52.259293 35.00243 
L 52.314215 9.309032 
L 52.348999 34.971387 
L 52.394157 5.778475 
L 52.45213 29.546267 
L 52.484473 5.646522 
L 52.529631 34.962111 
L 52.586994 11.182015 
L 52.619337 34.972925 
L 52.664494 5.665882 
L 52.720027 31.150147 
L 52.844516 5.674262 
L 52.799358 34.966779 
L 52.857942 11.834284 
L 52.889674 34.980428 
L 52.934832 5.745947 
L 52.990974 30.540548 
L 53.024538 5.692394 
L 53.069696 34.978799 
L 53.1295 13.12968 
L 53.249718 34.9659 
L 53.20456 5.701576 
L 53.260702 30.819664 
L 53.294265 5.724655 
L 53.339423 34.949251 
L 53.399227 12.752555 
L 53.429739 34.968908 
L 53.474287 5.70421 
L 53.53165 30.27697 
L 53.654919 5.719562 
L 53.610371 34.948225 
L 53.667734 11.373046 
L 53.789783 34.980999 
L 53.744625 5.690295 
L 53.800157 31.404458 
L 53.834941 5.668263 
L 53.880099 35.009163 
L 53.938682 12.123504 
L 54.06012 34.993528 
L 54.014962 5.605642 
L 54.071715 30.464223 
L 54.194984 5.641728 
L 54.149826 35.000978 
L 54.20902 12.231118 
L 54.329848 35.009117 
L 54.2853 5.697209 
L 54.341442 30.795955 
L 54.375006 5.621246 
L 54.420164 35.036912 
L 54.479357 12.473356 
L 54.600185 35.01574 
L 54.555638 5.620894 
L 54.61178 30.661447 
L 54.735049 5.605082 
L 54.690501 35.004384 
L 54.749085 12.080105 
L 54.870523 35.045253 
L 54.825365 5.743495 
L 54.882118 30.585296 
L 54.915681 5.58575 
L 54.960839 35.026749 
L 55.018202 11.170902 
L 55.140861 35.022763 
L 55.095703 5.607196 
L 55.152455 30.411834 
L 55.275724 5.626455 
L 55.230566 34.945753 
L 55.286709 10.194283 
L 55.410588 35.018013 
L 55.36543 5.763715 
L 55.424624 28.636959 
L 55.546062 5.636827 
L 55.500904 34.976045 
L 55.555826 9.367733 
L 55.59061 35.005667 
L 55.635768 5.686622 
L 55.64126 6.753769 
" clip-path="url(#p0261e07c3e)" style="fill: none; stroke: #f08080; stroke-width: 0.04; stroke-linecap: square"/>
   </g>
   <g id="patch_3">
    <path d="M 0.72 40.008189 
L 0.72 0.72 
" style="fill: none; stroke: #f08080; stroke-width: 0.5; stroke-linejoin: miter; stroke-linecap: square"/>
   </g>
   <g id="patch_4">
    <path d="M 55.64126 40.008189 
L 55.64126 0.72 
" style="fill: none; stroke: #f08080; stroke-width: 0.5; stroke-linejoin: miter; stroke-linecap: square"/>
   </g>
   <g id="patch_5">
    <path d="M 0.72 40.008189 
L 55.64126 40.008189 
" style="fill: none; stroke: #f08080; stroke-width: 0.5; stroke-linejoin: miter; stroke-linecap: square"/>
   </g>
   <g id="patch_6">
    <path d="M 0.72 0.72 
L 55.64126 0.72 
" style="fill: none; stroke: #f08080; stroke-width: 0.5; stroke-linejoin: miter; stroke-linecap: square"/>
   </g>
  </g>
 </g>
 <defs>
  <clipPath id="p0261e07c3e">
   <rect x="0.72" y="0.72" width="54.92126" height="39.288189"/>
  </clipPath>
 </defs>
</svg>
