<?xml version="1.0" encoding="utf-8" standalone="no"?>
<!DOCTYPE svg PUBLIC "-//W3C//DTD SVG 1.1//EN"
  "http://www.w3.org/Graphics/SVG/1.1/DTD/svg11.dtd">
<svg height="43.462835pt" version="1.1" viewBox="0 0 59.86126 43.462835" width="59.86126pt" xmlns="http://www.w3.org/2000/svg" xmlns:xlink="http://www.w3.org/1999/xlink">
 <metadata>
  <rdf:RDF xmlns:cc="http://creativecommons.org/ns#" xmlns:dc="http://purl.org/dc/elements/1.1/" xmlns:rdf="http://www.w3.org/1999/02/22-rdf-syntax-ns#">
   <cc:Work>
    <dc:type rdf:resource="http://purl.org/dc/dcmitype/StillImage"/>
    <dc:date>2025-02-16T20:28:53.891943</dc:date>
    <dc:format>image/svg+xml</dc:format>
    <dc:creator>
     <cc:Agent>
      <dc:title>Matplotlib v3.4.3, https://matplotlib.org/</dc:title>
     </cc:Agent>
    </dc:creator>
   </cc:Work>
  </rdf:RDF>
 </metadata>
 <defs>
  <style type="text/css">*{stroke-linecap:butt;stroke-linejoin:round;}</style>
 </defs>
 <g id="figure_1">
  <g id="patch_1">
   <path d="M 0 43.462835 
L 59.86126 43.462835 
L 59.86126 0 
L 0 0 
z
" style="fill:none;"/>
  </g>
  <g id="axes_1">
   <g id="patch_2">
    <path d="M 4.22 39.242835 
L 59.14126 39.242835 
L 59.14126 0.72 
L 4.22 0.72 
z
" style="fill:#ffffff;"/>
   </g>
   <g id="matplotlib.axis_1"/>
   <g id="matplotlib.axis_2"/>
   <g id="line2d_1">
    <path clip-path="url(#p90d4bf6d92)" d="M 4.22 18.740389 
L 4.22122 18.738098 
L 4.232205 19.17734 
L 4.354253 21.302771 
L 4.307265 18.78286 
L 4.367679 20.795416 
L 4.398801 18.615186 
L 4.443959 21.287356 
L 4.500102 19.002631 
L 4.534885 21.362721 
L 4.578213 18.551104 
L 4.638016 20.664812 
L 4.758234 18.490016 
L 4.714907 21.464779 
L 4.771049 19.024636 
L 4.890657 21.471978 
L 4.84855 18.519456 
L 4.904082 21.036652 
L 5.027351 18.435193 
L 4.981583 21.477907 
L 5.037115 18.797758 
L 5.071899 21.49776 
L 5.116447 18.505369 
L 5.177471 20.548466 
L 5.206763 18.359379 
L 5.2507 21.573271 
L 5.304402 18.711856 
L 5.430112 21.714398 
L 5.386174 18.269082 
L 5.447199 20.608752 
L 5.565586 18.267444 
L 5.517987 21.677141 
L 5.574739 18.726173 
L 5.698009 21.755958 
L 5.652851 18.253291 
L 5.719367 20.120603 
L 5.833482 18.219993 
L 5.787104 21.713112 
L 5.843246 18.706604 
L 5.966515 21.84281 
L 5.921968 18.130963 
L 5.976279 21.460816 
L 6.011673 18.043614 
L 6.057442 21.880213 
L 6.119686 19.366391 
L 6.236853 21.959128 
L 6.189864 17.928432 
L 6.244786 21.574435 
L 6.370496 17.889723 
L 6.325949 21.992026 
L 6.385752 19.084891 
L 6.50536 22.119149 
L 6.460812 17.88849 
L 6.515124 21.584923 
L 6.549908 17.756224 
L 6.594456 22.163671 
L 6.653649 18.833038 
L 6.773257 22.270573 
L 6.729319 17.655068 
L 6.786682 21.327759 
L 6.90751 17.622883 
L 6.862962 22.356788 
L 6.919715 18.423802 
L 7.041153 22.421332 
L 6.997216 17.619552 
L 7.053968 21.587967 
L 7.174186 17.513016 
L 7.131469 22.437639 
L 7.188222 18.301297 
L 7.311491 22.559014 
L 7.266333 17.462674 
L 7.322475 21.688023 
L 7.445745 17.33792 
L 7.398756 22.672957 
L 7.457949 18.335217 
L 7.579998 22.762071 
L 7.53545 17.268181 
L 7.589762 22.083859 
L 7.713641 17.1439 
L 7.668483 22.834451 
L 7.728287 18.458445 
L 7.847895 22.978563 
L 7.803957 17.093759 
L 7.86132 21.801375 
L 7.892442 17.001514 
L 7.938211 23.017837 
L 7.993132 17.805487 
L 8.117012 23.070286 
L 8.072464 16.962913 
L 8.129217 22.038792 
L 8.251265 16.833314 
L 8.207328 23.123083 
L 8.26408 17.885635 
L 8.386739 23.22596 
L 8.340971 16.755596 
L 8.400165 21.847638 
L 8.520993 16.65252 
L 8.475224 23.318156 
L 8.532587 17.694615 
L 8.655246 23.46583 
L 8.610088 16.598884 
L 8.668061 22.152853 
L 8.79011 16.481491 
L 8.744952 23.422065 
L 8.802925 17.79894 
L 8.835878 23.613114 
L 8.878595 16.370478 
L 8.936568 22.42286 
L 9.058617 16.324161 
L 9.013459 23.718245 
L 9.070822 17.541357 
L 9.194091 23.841493 
L 9.148933 16.290344 
L 9.208737 21.785269 
L 9.328344 16.166065 
L 9.283186 23.883614 
L 9.338718 17.151429 
L 9.462598 24.008391 
L 9.41744 16.031192 
L 9.474192 22.70128 
L 9.596851 15.926334 
L 9.552303 24.091294 
L 9.610887 17.654731 
L 9.732325 24.163907 
L 9.687167 15.888678 
L 9.74514 22.467031 
L 9.865968 15.803244 
L 9.821421 24.260352 
L 9.876953 16.89507 
L 10.000832 24.378188 
L 9.956284 15.695711 
L 10.014257 22.533609 
L 10.135696 15.601029 
L 10.089927 24.397848 
L 10.14546 16.643811 
L 10.269949 24.560058 
L 10.225401 15.479438 
L 10.283985 22.55149 
L 10.404203 15.271857 
L 10.360265 24.675336 
L 10.417628 17.08884 
L 10.539677 24.784646 
L 10.494519 15.216099 
L 10.551881 23.027731 
L 10.67393 15.040725 
L 10.629382 24.891526 
L 10.686745 16.87735 
L 10.808794 25.010769 
L 10.763025 14.838163 
L 10.819168 23.65816 
L 10.943047 14.665882 
L 10.897889 25.05009 
L 10.955252 16.634975 
L 10.988205 25.196902 
L 11.033363 14.738559 
L 11.088895 23.71919 
L 11.212164 14.571647 
L 11.167617 25.340784 
L 11.2262 16.933004 
L 11.347028 25.521575 
L 11.30248 14.445394 
L 11.357402 24.082327 
L 11.481281 14.275834 
L 11.436734 25.545641 
L 11.495927 17.008419 
L 11.615535 25.717912 
L 11.571597 14.353884 
L 11.626519 24.222962 
L 11.750399 14.107271 
L 11.706461 25.804378 
L 11.763824 16.366421 
L 11.885873 25.968221 
L 11.840715 14.0305 
L 11.899908 23.165231 
L 12.019516 13.799703 
L 11.974968 26.049884 
L 12.02989 15.244507 
L 12.154379 26.309408 
L 12.109832 13.846109 
L 12.167805 23.831563 
L 12.289243 13.548114 
L 12.244085 26.370436 
L 12.299007 14.980755 
L 12.333791 26.478616 
L 12.378949 13.551463 
L 12.438142 23.584922 
L 12.468655 13.37704 
L 12.513202 26.662129 
L 12.569345 15.123209 
L 12.693834 26.918346 
L 12.648676 13.250632 
L 12.706649 24.058742 
L 12.827478 13.037193 
L 12.78354 26.936604 
L 12.840903 15.77402 
L 12.873246 27.065742 
L 12.917793 13.099117 
L 12.975767 24.09398 
L 13.007499 12.887198 
L 13.052047 27.230426 
L 13.1088 15.058639 
L 13.231458 27.399316 
L 13.1863 12.774302 
L 13.245494 24.226131 
L 13.366322 12.544098 
L 13.321774 27.38548 
L 13.378527 14.946016 
L 13.501186 27.690591 
L 13.456638 12.569664 
L 13.513391 24.916454 
L 13.545734 12.352189 
L 13.590892 27.765426 
L 13.649475 15.424584 
L 13.770303 27.928707 
L 13.725755 12.250616 
L 13.781287 25.65222 
L 13.815461 12.097688 
L 13.861229 28.037839 
L 13.917372 14.752125 
L 14.04003 28.241537 
L 13.994872 11.994946 
L 14.052845 24.93898 
L 14.174284 11.764586 
L 14.129736 28.352988 
L 14.188319 15.185798 
L 14.219442 28.5291 
L 14.2646 11.601732 
L 14.320742 25.737799 
L 14.444011 11.407319 
L 14.399463 28.655065 
L 14.455606 14.221082 
L 14.489169 28.733241 
L 14.534327 11.274014 
L 14.59169 25.208144 
L 14.713128 11.083879 
L 14.668581 28.924024 
L 14.725333 14.164932 
L 14.847382 28.994122 
L 14.802834 10.984231 
L 14.859587 26.023149 
L 14.982856 10.927296 
L 14.937698 29.158294 
L 14.99323 13.458763 
L 15.028014 29.261162 
L 15.072562 10.823884 
L 15.131145 24.957423 
L 15.251973 10.642594 
L 15.207425 29.451948 
L 15.262957 13.576017 
L 15.386837 29.499907 
L 15.341679 10.53087 
L 15.400262 25.111407 
L 15.52109 10.467366 
L 15.475932 29.59862 
L 15.532685 13.594144 
L 15.655344 29.641146 
L 15.610796 10.474896 
L 15.668159 25.915998 
L 15.700502 10.347855 
L 15.74566 29.766714 
L 15.801192 13.174844 
L 15.925071 29.802132 
L 15.879913 10.1712 
L 15.937886 25.805384 
L 16.059324 10.078675 
L 16.014166 30.03126 
L 16.069088 12.396264 
L 16.193578 30.125169 
L 16.14903 10.142668 
L 16.207003 25.93803 
L 16.329052 9.969912 
L 16.283284 30.028702 
L 16.340036 13.059928 
L 16.463305 30.153261 
L 16.418147 9.822878 
L 16.47612 26.314356 
L 16.598169 9.763871 
L 16.553011 30.36077 
L 16.609153 12.863322 
L 16.732422 30.528574 
L 16.687265 9.671652 
L 16.745848 25.956007 
L 16.867286 9.462156 
L 16.822128 30.350704 
L 16.87705 11.990227 
L 17.00154 30.514385 
L 16.956992 9.542394 
L 17.014355 26.659772 
L 17.046698 9.338443 
L 17.091856 30.631206 
L 17.148608 12.991645 
L 17.271267 30.912399 
L 17.226109 9.164695 
L 17.284082 26.51058 
L 17.405521 9.031964 
L 17.360973 30.753569 
L 17.416505 12.079303 
L 17.540384 30.928933 
L 17.495226 8.994591 
L 17.55381 26.462459 
L 17.585542 8.864296 
L 17.63009 30.961589 
L 17.687453 12.839088 
L 17.810112 31.080106 
L 17.764954 8.791427 
L 17.822927 26.699025 
L 17.944365 8.722511 
L 17.899207 31.133763 
L 17.95596 12.242969 
L 18.079229 31.294303 
L 18.034071 8.721651 
L 18.091434 27.341439 
L 18.123777 8.653685 
L 18.168935 31.196927 
L 18.225077 12.1256 
L 18.25803 31.379815 
L 18.303798 8.669666 
L 18.360551 27.446251 
L 18.48321 8.645459 
L 18.438662 31.336667 
L 18.494194 11.965558 
L 18.618073 31.456433 
L 18.572915 8.588773 
L 18.630278 27.227634 
L 18.752327 8.534417 
L 18.707779 31.37544 
L 18.763311 11.800601 
L 18.796875 31.546495 
L 18.842033 8.536669 
L 18.899395 27.438605 
L 18.932349 8.432323 
L 18.976896 31.55494 
L 19.033039 11.994827 
L 19.156308 31.546671 
L 19.11115 8.389263 
L 19.167292 28.346775 
L 19.291171 8.30937 
L 19.246013 31.548355 
L 19.302766 12.267344 
L 19.335719 31.640408 
L 19.380877 8.391738 
L 19.437019 28.018521 
L 19.560289 8.263999 
L 19.515131 31.656376 
L 19.572493 12.589303 
L 19.695152 31.668518 
L 19.649994 8.226517 
L 19.707357 27.380803 
L 19.829406 8.142706 
L 19.784858 31.625034 
L 19.841 11.98647 
L 19.964269 31.726458 
L 19.918501 8.226421 
L 19.975864 27.911741 
L 20.008817 8.08748 
L 20.053365 31.716032 
L 20.110728 12.226037 
L 20.233387 31.805874 
L 20.188229 8.079042 
L 20.245591 27.660592 
L 20.36825 7.951564 
L 20.323092 31.898508 
L 20.378624 11.284133 
L 20.502504 31.936145 
L 20.457346 8.101031 
L 20.515319 27.435042 
L 20.547662 7.962682 
L 20.59282 31.949538 
L 20.647742 11.127359 
L 20.771621 31.995345 
L 20.727073 7.976911 
L 20.784436 27.601009 
L 20.816779 7.968069 
L 20.861937 32.103346 
L 20.917469 11.409392 
L 21.041348 32.119214 
L 20.99619 7.988619 
L 21.053553 27.75669 
L 21.175602 7.948782 
L 21.131054 32.102292 
L 21.185366 10.518777 
L 21.310465 32.144283 
L 21.265308 7.959035 
L 21.324501 26.56171 
L 21.355013 7.892732 
L 21.400171 32.169262 
L 21.455703 11.144414 
L 21.579583 32.17329 
L 21.535035 7.849815 
L 21.592398 27.485104 
L 21.713836 7.742417 
L 21.669288 32.135861 
L 21.726041 11.780543 
L 21.84931 32.185333 
L 21.803542 7.854386 
L 21.860294 28.503984 
L 21.893858 7.652666 
L 21.939016 32.191131 
L 21.996989 12.869193 
L 22.118427 32.259545 
L 22.073269 7.58606 
L 22.130022 28.304255 
L 22.252681 7.564604 
L 22.208133 32.201943 
L 22.263665 10.983396 
L 22.297228 32.312462 
L 22.342386 7.624196 
L 22.399749 28.117211 
L 22.432702 7.474252 
L 22.47786 32.35461 
L 22.533392 11.281388 
L 22.657272 32.405437 
L 22.612114 7.410442 
L 22.670697 26.898144 
L 22.791525 7.45061 
L 22.746367 32.416217 
L 22.80251 11.001327 
L 22.926389 32.429032 
L 22.881231 7.497438 
L 22.938594 28.101263 
L 22.970937 7.412499 
L 23.016095 32.382884 
L 23.071627 10.986269 
L 23.1058 32.473976 
L 23.150958 7.449091 
L 23.208931 27.269867 
L 23.33037 7.49496 
L 23.285212 32.445389 
L 23.340744 10.819142 
L 23.465234 32.464318 
L 23.420076 7.56663 
L 23.476828 28.26962 
L 23.509781 7.55429 
L 23.554329 32.38924 
L 23.609861 10.79684 
L 23.644035 32.497105 
L 23.689193 7.612195 
L 23.747166 27.47264 
L 23.868604 7.587426 
L 23.823446 32.402435 
L 23.879589 11.026357 
L 24.003468 32.464552 
L 23.95831 7.557607 
L 24.015062 28.520091 
L 24.137721 7.454958 
L 24.093174 32.458843 
L 24.149926 11.708648 
L 24.182879 32.517357 
L 24.228037 7.477491 
L 24.28418 28.55927 
L 24.317743 7.373718 
L 24.362291 32.55179 
L 24.421484 13.314735 
L 24.452607 32.619753 
L 24.497154 7.279405 
L 24.553297 28.829276 
L 24.676566 7.230903 
L 24.632018 32.620883 
L 24.691822 13.909181 
L 24.81143 32.605058 
L 24.766272 7.359632 
L 24.823024 28.5174 
L 24.855977 7.221502 
L 24.901135 32.656797 
L 24.959108 12.438715 
L 24.991451 32.673856 
L 25.035389 7.216632 
L 25.092141 28.651373 
L 25.21541 7.170548 
L 25.170252 32.69745 
L 25.230056 13.610581 
L 25.349664 32.704633 
L 25.304506 7.311272 
L 25.361259 28.715567 
L 25.394822 7.181147 
L 25.43998 32.738478 
L 25.499173 13.540156 
L 25.529686 32.734789 
L 25.574233 7.183032 
L 25.630376 28.925204 
L 25.753645 7.185213 
L 25.709097 32.766129 
L 25.76768 12.894599 
L 25.888508 32.797055 
L 25.84335 7.218534 
L 25.900713 28.371168 
L 25.933056 7.183664 
L 25.977604 32.77202 
L 26.034967 11.47623 
L 26.157626 32.813718 
L 26.112468 7.185553 
L 26.16922 28.82588 
L 26.292489 7.152196 
L 26.247331 32.821474 
L 26.305915 12.63789 
L 26.426743 32.865074 
L 26.382195 7.116949 
L 26.438948 28.680118 
L 26.562217 7.024591 
L 26.517059 32.889075 
L 26.575032 12.424073 
L 26.69647 32.92075 
L 26.651312 7.077729 
L 26.707455 29.105054 
L 26.741628 7.017225 
L 26.786176 32.922201 
L 26.844149 12.353703 
L 26.875882 32.897028 
L 26.920429 7.00639 
L 26.977182 28.867626 
L 27.100451 7.034079 
L 27.055293 32.853056 
L 27.113266 12.214873 
L 27.144999 32.851049 
L 27.190157 7.101962 
L 27.245689 29.179409 
L 27.279863 7.050976 
L 27.32441 32.781271 
L 27.382994 12.692935 
L 27.504432 32.879558 
L 27.459274 7.042832 
L 27.516637 28.216631 
L 27.639296 6.997363 
L 27.593527 32.881593 
L 27.65028 11.099243 
L 27.773549 32.968709 
L 27.728391 7.018699 
L 27.785754 28.350968 
L 27.818097 6.980391 
L 27.863255 32.900111 
L 27.920618 11.921512 
L 27.952961 32.951598 
L 27.998119 7.003589 
L 28.05304 29.583885 
L 28.17753 7.022695 
L 28.132372 32.960597 
L 28.190345 12.176855 
L 28.311783 32.943456 
L 28.266625 7.084494 
L 28.322768 29.39152 
L 28.356941 7.015233 
L 28.401489 32.948081 
L 28.457632 10.818552 
L 28.491805 32.976563 
L 28.536353 7.03169 
L 28.593716 28.223518 
L 28.626059 7.057928 
L 28.670606 32.955383 
L 28.727359 11.122664 
L 28.850628 32.969394 
L 28.80547 7.045802 
L 28.862223 28.703588 
L 28.895176 7.051247 
L 28.940334 32.936772 
L 28.998917 12.833192 
L 29.030039 32.943883 
L 29.074587 7.120773 
L 29.13195 28.379153 
L 29.164293 7.069248 
L 29.209451 32.91598 
L 29.267424 12.232485 
L 29.389473 32.923741 
L 29.343704 7.045295 
L 29.399847 29.359148 
L 29.523726 7.024292 
L 29.479178 32.93771 
L 29.53471 10.768952 
L 29.568884 32.935915 
L 29.612822 7.08655 
L 29.670795 28.220291 
L 29.702527 7.039 
L 29.748295 32.966836 
L 29.805048 11.537718 
L 29.837391 32.96604 
L 29.882549 7.00629 
L 29.939302 28.704047 
L 29.972255 7.021701 
L 30.017413 32.971677 
L 30.075996 12.781739 
L 30.196824 32.928154 
L 30.151666 7.114319 
L 30.208419 28.800097 
L 30.241982 7.098641 
L 30.28653 32.906407 
L 30.345113 12.714838 
L 30.466551 32.904839 
L 30.421393 7.107585 
L 30.478146 28.523027 
L 30.511099 7.086764 
L 30.556257 32.919905 
L 30.61423 12.543014 
L 30.735058 32.89563 
L 30.690511 7.095713 
L 30.746653 29.093679 
L 30.869922 7.045799 
L 30.825374 32.877385 
L 30.882737 11.961479 
L 31.004786 32.921063 
L 30.959628 7.10152 
L 31.01577 29.073359 
L 31.049944 7.08832 
L 31.094492 32.85789 
L 31.152465 12.409938 
L 31.273903 32.894514 
L 31.229355 7.065862 
L 31.284887 29.278242 
L 31.408156 7.029918 
L 31.363609 32.869273 
L 31.420972 11.791883 
L 31.54302 32.920742 
L 31.497862 7.076296 
L 31.555225 28.541057 
L 31.588178 7.057008 
L 31.632726 32.858461 
L 31.690699 12.083026 
L 31.812748 32.919375 
L 31.76759 7.045098 
L 31.823732 29.072246 
L 31.947001 7.040809 
L 31.902453 32.876078 
L 31.959816 11.924977 
L 31.991549 32.940973 
L 32.036707 7.059451 
L 32.092849 29.143788 
L 32.126412 7.03057 
L 32.17157 32.845349 
L 32.230764 13.250585 
L 32.261276 32.919422 
L 32.306434 7.074268 
L 32.361966 29.24003 
L 32.485846 7.089024 
L 32.440688 32.912369 
L 32.498661 12.177972 
L 32.530393 32.906537 
L 32.574941 7.074466 
L 32.631083 29.402053 
L 32.754352 7.06649 
L 32.710415 32.855977 
L 32.766557 11.204403 
L 32.800121 32.90947 
L 32.844058 7.114236 
L 32.900811 29.005847 
L 32.934374 7.083595 
L 32.979532 32.90273 
L 33.038115 12.947568 
L 33.069238 32.889545 
L 33.114396 7.131845 
L 33.170538 28.674135 
L 33.293197 7.147905 
L 33.248039 32.828807 
L 33.307233 12.82386 
L 33.338355 32.868915 
L 33.382903 7.162241 
L 33.439655 28.721152 
L 33.473219 7.13603 
L 33.517766 32.847251 
L 33.57696 13.218585 
L 33.607472 32.842781 
L 33.65263 7.122908 
L 33.710603 27.568199 
L 33.832042 7.145013 
L 33.786884 32.843126 
L 33.841806 10.09887 
L 33.876589 32.880171 
L 33.921747 7.130753 
L 33.980331 27.271259 
L 34.100549 7.080351 
L 34.056611 32.886379 
L 34.111533 10.351343 
L 34.236022 32.874062 
L 34.190865 7.059419 
L 34.249448 27.356728 
L 34.28057 7.082586 
L 34.325728 32.892406 
L 34.38126 10.606812 
L 34.415434 32.842464 
L 34.459982 7.125483 
L 34.517345 28.319649 
L 34.639393 7.148753 
L 34.594845 32.827812 
L 34.652208 11.871946 
L 34.774257 32.814 
L 34.729709 7.135507 
L 34.785241 29.231355 
L 34.90851 7.146839 
L 34.863963 32.893717 
L 34.921325 11.661362 
L 35.043984 32.937371 
L 34.998826 7.117565 
L 35.054969 29.066673 
L 35.087922 7.060749 
L 35.13369 32.881811 
L 35.190443 11.505581 
L 35.313101 32.858556 
L 35.268554 7.092826 
L 35.324696 28.765202 
L 35.447965 7.058463 
L 35.402807 32.891558 
L 35.462001 13.157303 
L 35.582219 32.977695 
L 35.537671 7.113598 
L 35.595034 28.192601 
L 35.627377 6.978645 
L 35.672535 32.963144 
L 35.728067 10.80344 
L 35.851946 33.009262 
L 35.807398 7.008823 
L 35.864761 27.884381 
L 35.98681 7.033852 
L 35.941652 32.961895 
L 35.997184 10.587002 
L 36.031357 32.917593 
L 36.075905 7.064439 
L 36.133268 28.478103 
L 36.255927 7.059277 
L 36.210769 32.87812 
L 36.267521 11.310881 
L 36.39018 32.985813 
L 36.345022 7.046556 
L 36.401165 29.312186 
L 36.435338 7.034954 
L 36.479886 32.950727 
L 36.537859 12.102722 
L 36.570202 32.990906 
L 36.61475 6.976078 
L 36.670892 29.141962 
L 36.794161 6.985994 
L 36.749613 32.920818 
L 36.807586 12.405267 
L 36.929025 33.025053 
L 36.883867 7.01367 
L 36.940009 29.180493 
L 36.974183 6.973248 
L 37.018731 32.956605 
L 37.076704 12.306152 
L 37.108436 32.989422 
L 37.153594 6.969339 
L 37.209126 29.283451 
L 37.333006 6.999087 
L 37.287848 32.959782 
L 37.345211 11.72332 
L 37.377553 33.001301 
L 37.422101 7.051066 
L 37.479464 28.593087 
L 37.512417 7.014959 
L 37.557575 32.919713 
L 37.615548 12.582552 
L 37.646671 32.91742 
L 37.691829 7.075621 
L 37.748581 28.597106 
L 37.87063 7.054941 
L 37.826692 32.947038 
L 37.884665 12.403093 
L 37.916398 33.004453 
L 37.960946 7.010597 
L 38.017088 29.171287 
L 38.140357 7.008339 
L 38.095809 32.942903 
L 38.153783 12.265745 
L 38.185515 32.970231 
L 38.230673 7.068981 
L 38.285595 29.708296 
L 38.320379 7.055947 
L 38.365537 32.926403 
L 38.4229 12.130639 
L 38.455243 32.942611 
L 38.49979 7.057325 
L 38.555322 29.477057 
L 38.679202 6.949513 
L 38.634654 32.977746 
L 38.690186 10.584874 
L 38.72436 33.007986 
L 38.769518 6.984448 
L 38.827491 27.512283 
L 38.859223 6.976188 
L 38.903771 33.073618 
L 38.958693 10.083203 
L 38.994087 33.00402 
L 39.038635 6.979355 
L 39.097218 27.148019 
L 39.218046 6.995334 
L 39.173499 32.992175 
L 39.229031 10.690061 
L 39.3523 33.047596 
L 39.308362 6.98222 
L 39.364505 28.68622 
L 39.487164 6.926203 
L 39.442616 33.104484 
L 39.501199 12.84482 
L 39.622027 33.093479 
L 39.576869 6.938559 
L 39.634232 28.380675 
L 39.666575 6.880644 
L 39.711733 33.093088 
L 39.769706 12.227147 
L 39.891144 33.060334 
L 39.846597 6.941119 
L 39.901519 29.687384 
L 40.026008 6.932482 
L 39.98085 33.076363 
L 40.038213 11.691599 
L 40.160872 33.055626 
L 40.115104 6.940992 
L 40.172466 28.622285 
L 40.204809 6.912786 
L 40.249967 33.050936 
L 40.308551 12.540354 
L 40.429379 33.03462 
L 40.384831 6.97952 
L 40.440363 29.456397 
L 40.564242 6.990928 
L 40.519695 32.982568 
L 40.576447 11.521467 
L 40.698496 33.033588 
L 40.653338 6.933526 
L 40.71009 29.144492 
L 40.83336 6.9793 
L 40.788812 32.974613 
L 40.848005 13.275687 
L 40.968223 33.015858 
L 40.923676 7.059632 
L 40.979818 28.869342 
L 41.012771 6.970856 
L 41.057929 32.95048 
L 41.115902 12.186253 
L 41.23734 33.072238 
L 41.192182 6.905559 
L 41.248325 29.383266 
L 41.371594 6.964826 
L 41.327046 32.971743 
L 41.38624 12.997462 
L 41.416752 33.046354 
L 41.46191 7.053511 
L 41.517442 29.529729 
L 41.551616 6.970345 
L 41.596163 32.940953 
L 41.653526 11.464341 
L 41.775575 33.046576 
L 41.731027 6.941155 
L 41.787169 29.151504 
L 41.820733 6.95645 
L 41.865891 33.002894 
L 41.923864 12.312802 
L 41.955596 33.056915 
L 42.000144 6.966767 
L 42.056287 29.281006 
L 42.179556 6.965661 
L 42.135008 32.991169 
L 42.192981 12.153519 
L 42.225324 33.014632 
L 42.269872 7.040559 
L 42.325404 29.408969 
L 42.359577 6.984541 
L 42.404125 32.971965 
L 42.460878 11.171417 
L 42.494441 33.034724 
L 42.538989 6.963727 
L 42.595741 28.639477 
L 42.7184 6.976696 
L 42.673852 32.991518 
L 42.731826 12.391665 
L 42.763558 32.981607 
L 42.808106 7.071264 
L 42.863638 29.520187 
L 42.897812 7.068783 
L 42.94297 32.952039 
L 42.999112 11.102592 
L 43.032675 32.948818 
L 43.077223 7.062657 
L 43.134586 28.32041 
L 43.166929 7.060544 
L 43.212087 32.916296 
L 43.26945 11.823266 
L 43.301793 32.928318 
L 43.34695 7.075398 
L 43.403093 28.850151 
L 43.525752 7.074799 
L 43.481204 32.925957 
L 43.539787 12.59761 
L 43.661226 32.936905 
L 43.616068 7.062804 
L 43.67282 28.592176 
L 43.705773 7.019768 
L 43.750931 32.954185 
L 43.809515 12.932939 
L 43.930343 32.919307 
L 43.885185 7.083416 
L 43.942548 28.373413 
L 44.064596 7.088954 
L 44.020049 32.893099 
L 44.078022 12.218145 
L 44.19946 32.881622 
L 44.154302 7.117905 
L 44.210444 29.275633 
L 44.244008 7.094612 
L 44.289776 32.934539 
L 44.347139 12.108012 
L 44.468577 32.936559 
L 44.424029 7.090079 
L 44.478951 29.818968 
L 44.513735 7.058444 
L 44.558893 32.898547 
L 44.617476 12.906706 
L 44.738305 32.890799 
L 44.693147 7.09771 
L 44.750509 28.448577 
L 44.873168 7.053817 
L 44.82801 32.927241 
L 44.885983 12.2484 
L 45.007422 32.926212 
L 44.962264 7.127771 
L 45.018406 29.333812 
L 45.05258 7.038692 
L 45.097738 32.919577 
L 45.15449 11.638952 
L 45.277149 32.907591 
L 45.231381 7.072911 
L 45.287523 29.440393 
L 45.411403 7.117138 
L 45.366245 32.862336 
L 45.424218 12.019967 
L 45.456561 32.841677 
L 45.501108 7.162391 
L 45.557861 28.777671 
L 45.590814 7.153984 
L 45.635972 32.808137 
L 45.694555 12.841529 
L 45.815383 32.869451 
L 45.770836 7.182562 
L 45.826978 28.851785 
L 45.950247 7.165201 
L 45.905089 32.802241 
L 45.963672 12.676333 
L 45.994795 32.889421 
L 46.039343 7.109506 
L 46.096095 28.988466 
L 46.219364 7.106544 
L 46.174817 32.838585 
L 46.2334 12.977821 
L 46.354228 32.898075 
L 46.30907 7.125029 
L 46.365212 29.051764 
L 46.398776 7.110372 
L 46.443934 32.875301 
L 46.501907 12.425094 
L 46.533639 32.935451 
L 46.578187 7.056342 
L 46.633719 29.538489 
L 46.757599 7.029643 
L 46.713051 32.886028 
L 46.770414 11.819913 
L 46.802757 32.945956 
L 46.847304 7.101802 
L 46.904667 28.454304 
L 46.93762 7.03013 
L 46.982168 32.968226 
L 47.040751 12.636165 
L 47.071874 32.964088 
L 47.116422 7.04522 
L 47.172564 29.329714 
L 47.296443 7.03627 
L 47.251285 32.89441 
L 47.307428 10.811458 
L 47.341601 32.943075 
L 47.386149 7.051125 
L 47.442291 28.92369 
L 47.56556 7.084088 
L 47.520402 32.934799 
L 47.578986 12.516625 
L 47.699814 32.873413 
L 47.655266 7.086854 
L 47.710798 29.486715 
L 47.744972 7.094751 
L 47.79013 32.901077 
L 47.846272 11.065926 
L 47.969541 32.900808 
L 47.924383 7.117477 
L 47.981136 28.695926 
L 48.103795 7.051609 
L 48.059247 32.949491 
L 48.118441 13.225175 
L 48.238658 32.952668 
L 48.194111 7.04432 
L 48.250863 28.435275 
L 48.283206 6.98116 
L 48.328974 32.99306 
L 48.386337 12.085404 
L 48.508386 32.97539 
L 48.463228 7.046815 
L 48.51815 29.789316 
L 48.642639 7.030124 
L 48.598092 32.980622 
L 48.656065 12.432452 
L 48.777503 32.997508 
L 48.732955 6.996853 
L 48.787877 29.604555 
L 48.822051 6.971356 
L 48.867209 33.007895 
L 48.924572 11.787113 
L 49.04662 32.961903 
L 49.001462 7.068966 
L 49.057604 29.307463 
L 49.091168 7.018567 
L 49.136326 32.94053 
L 49.194299 12.126047 
L 49.316348 32.945218 
L 49.27119 7.058643 
L 49.326722 29.387886 
L 49.450601 7.060914 
L 49.406053 32.906892 
L 49.464637 12.973391 
L 49.585465 32.926946 
L 49.540307 7.116819 
L 49.597059 28.777362 
L 49.719718 7.068086 
L 49.67517 32.865138 
L 49.733143 12.340849 
L 49.854582 32.968557 
L 49.809424 7.057147 
L 49.866176 28.877654 
L 49.89913 7.102786 
L 49.944288 32.849489 
L 50.002871 12.712176 
L 50.034604 32.890924 
L 50.078541 7.095561 
L 50.135294 28.920469 
L 50.168857 7.124467 
L 50.214015 32.787766 
L 50.271988 12.650724 
L 50.393426 32.908702 
L 50.347658 7.128433 
L 50.404411 28.964327 
L 50.437974 7.10432 
L 50.482522 32.852872 
L 50.541715 12.965391 
L 50.572838 32.920158 
L 50.617386 7.072365 
L 50.673528 29.071493 
L 50.796797 7.077983 
L 50.752249 32.835856 
L 50.810833 12.878239 
L 50.841955 32.870553 
L 50.886503 7.168714 
L 50.943255 28.701559 
L 50.976208 7.109401 
L 51.021366 32.839189 
L 51.07995 12.816053 
L 51.111072 32.857374 
L 51.15562 7.121406 
L 51.212373 28.802937 
L 51.335031 7.104331 
L 51.291094 32.84699 
L 51.349067 12.652063 
L 51.3808 32.913597 
L 51.425347 7.119086 
L 51.48149 28.911719 
L 51.604759 7.055295 
L 51.560211 32.915161 
L 51.618184 12.517452 
L 51.649307 32.931842 
L 51.694465 7.077431 
L 51.749997 29.497132 
L 51.873876 7.055464 
L 51.829328 32.910318 
L 51.886081 11.433102 
L 51.919034 32.952164 
L 51.963582 7.083584 
L 52.020945 28.311198 
L 52.143603 7.03198 
L 52.098445 32.960143 
L 52.156418 12.270622 
L 52.188151 32.898692 
L 52.232699 7.071512 
L 52.288231 29.621274 
L 52.322405 7.053791 
L 52.368173 32.928467 
L 52.426146 12.653899 
L 52.547584 32.95772 
L 52.502426 7.02688 
L 52.559179 28.598958 
L 52.681838 7.02586 
L 52.63729 32.983685 
L 52.695263 12.409312 
L 52.726996 32.932195 
L 52.771543 7.10131 
L 52.827076 29.452024 
L 52.861249 7.050849 
L 52.905797 32.943378 
L 52.96316 11.475864 
L 53.085819 32.915689 
L 53.041271 7.050519 
L 53.098023 28.356885 
L 53.220682 7.02608 
L 53.175524 32.929627 
L 53.232277 11.375733 
L 53.354936 32.94399 
L 53.309778 7.055037 
L 53.367751 28.074753 
L 53.399483 7.029514 
L 53.444641 32.963049 
L 53.501394 11.306363 
L 53.624663 32.930094 
L 53.579505 7.030484 
L 53.635647 28.971485 
L 53.669211 6.991364 
L 53.714369 32.944595 
L 53.771732 12.032579 
L 53.89378 32.942472 
L 53.848622 7.06872 
L 53.904154 29.448607 
L 53.938328 7.013083 
L 53.983486 32.929968 
L 54.041459 12.39776 
L 54.162897 32.919678 
L 54.117739 7.047456 
L 54.173882 29.18173 
L 54.207445 7.00892 
L 54.252603 32.936256 
L 54.311186 12.686319 
L 54.432015 32.955755 
L 54.386857 7.039677 
L 54.442999 29.322092 
L 54.476562 7.010851 
L 54.52172 32.896879 
L 54.579083 11.682897 
L 54.611426 32.93079 
L 54.656584 7.038812 
L 54.712726 29.008049 
L 54.835995 7.046601 
L 54.790837 32.905032 
L 54.850031 13.032906 
L 54.970859 32.93696 
L 54.925701 7.121189 
L 54.981844 29.096022 
L 55.015407 7.017317 
L 55.059955 32.876713 
L 55.118538 12.365431 
L 55.239366 33.016118 
L 55.194818 6.973821 
L 55.250961 29.16918 
L 55.37423 7.003943 
L 55.329682 32.953584 
L 55.389486 13.624806 
L 55.419388 32.970879 
L 55.463936 7.066282 
L 55.521298 28.582982 
L 55.643957 7.000506 
L 55.598799 32.899481 
L 55.655552 11.196193 
L 55.778211 32.956764 
L 55.733053 7.023474 
L 55.789805 29.018599 
L 55.823369 6.99848 
L 55.868527 32.974198 
L 55.925889 11.976406 
L 55.957622 33.042877 
L 56.00278 6.957496 
L 56.058312 29.676994 
L 56.182192 6.929578 
L 56.137644 32.966642 
L 56.193786 10.89457 
L 56.22735 32.968085 
L 56.271897 6.998291 
L 56.32804 29.246019 
L 56.361603 6.945523 
L 56.406761 32.984822 
L 56.464124 11.81398 
L 56.496467 32.995059 
L 56.541625 6.951033 
L 56.596547 29.745352 
L 56.721036 6.936209 
L 56.675878 33.014612 
L 56.733851 12.063702 
L 56.765584 33.020827 
L 56.810742 7.029155 
L 56.866884 28.93315 
L 56.900448 6.976386 
L 56.945606 32.974769 
L 57.003579 12.511885 
L 57.035311 32.938983 
L 57.079859 6.993615 
L 57.136001 29.102572 
L 57.169565 7.065265 
L 57.214723 32.920223 
L 57.270865 10.992458 
L 57.394134 32.968873 
L 57.349586 6.996088 
L 57.405119 29.280672 
L 57.528998 6.95677 
L 57.48384 33.020835 
L 57.540592 11.270706 
L 57.573546 32.962999 
L 57.618704 7.03028 
L 57.674846 28.976001 
L 57.707799 6.944016 
L 57.753567 33.002411 
L 57.81032 11.577375 
L 57.932979 32.993737 
L 57.887821 6.995556 
L 57.943963 29.124059 
L 58.067232 7.008722 
L 58.022684 32.997568 
L 58.079437 11.466392 
L 58.202096 32.94258 
L 58.157548 7.073083 
L 58.214911 27.959227 
L 58.246644 6.974098 
L 58.292412 32.981306 
L 58.347944 10.954761 
L 58.471213 32.966495 
L 58.426055 7.002241 
L 58.484028 28.129149 
L 58.606077 7.025918 
L 58.560919 32.913139 
L 58.616451 10.349046 
L 58.74033 32.934258 
L 58.695782 7.036613 
L 58.752535 28.689778 
L 58.785488 7.02288 
L 58.830646 32.94433 
L 58.888619 12.45879 
L 59.010058 32.97344 
L 58.96551 7.060771 
L 59.021042 29.167011 
L 59.054605 7.011474 
L 59.099763 32.932242 
L 59.14126 7.384206 
" style="fill:none;stroke:#f08080;stroke-linecap:square;stroke-width:0.04;"/>
   </g>
   <g id="patch_3">
    <path d="M 4.22 39.242835 
L 4.22 0.72 
" style="fill:none;stroke:#f08080;stroke-linecap:square;stroke-linejoin:miter;stroke-width:0.5;"/>
   </g>
   <g id="patch_4">
    <path d="M 59.14126 39.242835 
L 59.14126 0.72 
" style="fill:none;stroke:#f08080;stroke-linecap:square;stroke-linejoin:miter;stroke-width:0.5;"/>
   </g>
   <g id="patch_5">
    <path d="M 4.22 39.242835 
L 59.14126 39.242835 
" style="fill:none;stroke:#f08080;stroke-linecap:square;stroke-linejoin:miter;stroke-width:0.5;"/>
   </g>
   <g id="patch_6">
    <path d="M 4.22 0.72 
L 59.14126 0.72 
" style="fill:none;stroke:#f08080;stroke-linecap:square;stroke-linejoin:miter;stroke-width:0.5;"/>
   </g>
  </g>
 </g>
 <defs>
  <clipPath id="p90d4bf6d92">
   <rect height="38.522835" width="54.92126" x="4.22" y="0.72"/>
  </clipPath>
 </defs>
</svg>
