<?xml version="1.0" encoding="utf-8" standalone="no"?>
<!DOCTYPE svg PUBLIC "-//W3C//DTD SVG 1.1//EN"
  "http://www.w3.org/Graphics/SVG/1.1/DTD/svg11.dtd">
<svg xmlns:xlink="http://www.w3.org/1999/xlink" width="56.36126pt" height="40.728189pt" viewBox="0 0 56.36126 40.728189" xmlns="http://www.w3.org/2000/svg" version="1.1">
 <metadata>
  <rdf:RDF xmlns:dc="http://purl.org/dc/elements/1.1/" xmlns:cc="http://creativecommons.org/ns#" xmlns:rdf="http://www.w3.org/1999/02/22-rdf-syntax-ns#">
   <cc:Work>
    <dc:type rdf:resource="http://purl.org/dc/dcmitype/StillImage"/>
    <dc:date>2025-02-16T20:55:21.844229</dc:date>
    <dc:format>image/svg+xml</dc:format>
    <dc:creator>
     <cc:Agent>
      <dc:title>Matplotlib v3.7.5, https://matplotlib.org/</dc:title>
     </cc:Agent>
    </dc:creator>
   </cc:Work>
  </rdf:RDF>
 </metadata>
 <defs>
  <style type="text/css">*{stroke-linejoin: round; stroke-linecap: butt}</style>
 </defs>
 <g id="figure_1">
  <g id="patch_1">
   <path d="M 0 40.728189 
L 56.36126 40.728189 
L 56.36126 0 
L 0 0 
z
" style="fill: #ffffff"/>
  </g>
  <g id="axes_1">
   <g id="patch_2">
    <path d="M 0.72 40.008189 
L 55.64126 40.008189 
L 55.64126 0.72 
L 0.72 0.72 
z
" style="fill: #ffffff"/>
   </g>
   <g id="matplotlib.axis_1"/>
   <g id="matplotlib.axis_2"/>
   <g id="line2d_1">
    <path d="M 0.72 19.09841 
L 0.72122 19.096073 
L 0.732205 19.544042 
L 0.854253 21.7117 
L 0.807265 19.141725 
L 0.867679 21.194266 
L 0.898801 18.97072 
L 0.943959 21.695979 
L 1.000102 19.365863 
L 1.034885 21.772841 
L 1.078213 18.905364 
L 1.138016 21.061066 
L 1.258234 18.843062 
L 1.214907 21.876927 
L 1.271049 19.388305 
L 1.390657 21.884269 
L 1.34855 18.873088 
L 1.404082 21.440294 
L 1.527351 18.78715 
L 1.481583 21.890315 
L 1.537115 19.156919 
L 1.571899 21.910564 
L 1.616447 18.858721 
L 1.677471 20.942409 
L 1.706763 18.70983 
L 1.7507 21.987574 
L 1.804402 19.06931 
L 1.930112 22.131505 
L 1.886174 18.617739 
L 1.947199 21.003893 
L 2.065586 18.616069 
L 2.017987 22.093508 
L 2.074739 19.083912 
L 2.198009 22.173891 
L 2.152851 18.601635 
L 2.219367 20.506046 
L 2.333482 18.567675 
L 2.287104 22.130194 
L 2.343246 19.063953 
L 2.466515 22.262468 
L 2.421968 18.476876 
L 2.476279 21.872885 
L 2.511673 18.387792 
L 2.557442 22.300615 
L 2.619686 19.736849 
L 2.736853 22.381097 
L 2.689864 18.270321 
L 2.744786 21.988761 
L 2.870496 18.230843 
L 2.825949 22.414649 
L 2.885752 19.449756 
L 3.00536 22.544298 
L 2.960812 18.229586 
L 3.015124 21.999458 
L 3.049908 18.094692 
L 3.094456 22.589705 
L 3.153649 19.192899 
L 3.273257 22.69873 
L 3.229319 17.991526 
L 3.286682 21.737185 
L 3.40751 17.958702 
L 3.362962 22.786658 
L 3.419715 18.775533 
L 3.541153 22.852484 
L 3.497216 17.955305 
L 3.553968 22.002562 
L 3.674186 17.846653 
L 3.631469 22.869115 
L 3.688222 18.650594 
L 3.811491 22.992902 
L 3.766333 17.79531 
L 3.822475 22.104606 
L 3.945745 17.668077 
L 3.898756 23.109109 
L 3.957949 18.685188 
L 4.079998 23.199993 
L 4.03545 17.596953 
L 4.089762 22.508306 
L 4.213641 17.470203 
L 4.168483 23.273811 
L 4.228287 18.810865 
L 4.347895 23.420787 
L 4.303957 17.419065 
L 4.36132 22.220211 
L 4.392442 17.324987 
L 4.438211 23.460841 
L 4.493132 18.144934 
L 4.617012 23.514331 
L 4.572464 17.28562 
L 4.629217 22.462344 
L 4.751265 17.153446 
L 4.707328 23.568177 
L 4.76408 18.226674 
L 4.886739 23.673098 
L 4.840971 17.074184 
L 4.900165 22.267392 
L 5.020993 16.969061 
L 4.975224 23.767126 
L 5.032587 18.031859 
L 5.155246 23.917734 
L 5.110088 16.914358 
L 5.168061 22.578672 
L 5.29011 16.794633 
L 5.244952 23.873099 
L 5.302925 18.138257 
L 5.335878 24.067944 
L 5.378595 16.681415 
L 5.436568 22.854043 
L 5.558617 16.634177 
L 5.513459 24.175163 
L 5.570822 17.875556 
L 5.694091 24.300861 
L 5.648933 16.599689 
L 5.708737 22.203784 
L 5.828344 16.47294 
L 5.783186 24.343819 
L 5.838718 17.477881 
L 5.962598 24.471074 
L 5.91744 16.335388 
L 5.974192 23.137994 
L 6.096851 16.228447 
L 6.052303 24.555625 
L 6.110887 17.991182 
L 6.232325 24.62968 
L 6.187167 16.190042 
L 6.24514 22.899091 
L 6.365968 16.102911 
L 6.321421 24.728041 
L 6.376953 17.216429 
L 6.500832 24.848218 
L 6.456284 15.993242 
L 6.514257 22.966992 
L 6.635696 15.896679 
L 6.589927 24.868268 
L 6.64546 16.960178 
L 6.769949 25.033701 
L 6.725401 15.772672 
L 6.783985 22.985228 
L 6.904203 15.560967 
L 6.860265 25.15127 
L 6.917628 17.414049 
L 7.039677 25.262752 
L 6.994519 15.504101 
L 7.051881 23.470931 
L 7.17393 15.325243 
L 7.129382 25.371755 
L 7.186745 17.198357 
L 7.308794 25.493368 
L 7.263025 15.118657 
L 7.319168 24.113885 
L 7.443047 14.942952 
L 7.397889 25.533469 
L 7.455252 16.951167 
L 7.488205 25.683198 
L 7.533363 15.017073 
L 7.588895 24.176128 
L 7.712164 14.846845 
L 7.667617 25.829939 
L 7.7262 17.255116 
L 7.847028 26.014321 
L 7.80248 14.718084 
L 7.857402 24.546479 
L 7.981281 14.545155 
L 7.936734 26.038865 
L 7.995927 17.33203 
L 8.115535 26.214559 
L 8.071597 14.624756 
L 8.126519 24.689908 
L 8.250399 14.373243 
L 8.206461 26.302743 
L 8.263824 16.677277 
L 8.385873 26.469841 
L 8.340715 14.294947 
L 8.399908 23.611163 
L 8.519516 14.059565 
L 8.474968 26.553126 
L 8.52989 15.533073 
L 8.654379 26.817807 
L 8.609832 14.106893 
L 8.667805 24.290733 
L 8.789243 13.802977 
L 8.744085 26.880048 
L 8.799007 15.264082 
L 8.833791 26.990377 
L 8.878949 13.806393 
L 8.938142 24.039192 
L 8.968655 13.628505 
L 9.013202 27.177536 
L 9.069345 15.409365 
L 9.193834 27.438843 
L 9.148676 13.499585 
L 9.206649 24.522425 
L 9.327478 13.281906 
L 9.28354 27.457464 
L 9.340903 16.073106 
L 9.373246 27.589167 
L 9.417793 13.34506 
L 9.475767 24.558363 
L 9.507499 13.128931 
L 9.552047 27.757123 
L 9.6088 15.343513 
L 9.731458 27.929369 
L 9.6863 13.013791 
L 9.745494 24.69314 
L 9.866322 12.779014 
L 9.821774 27.915258 
L 9.878527 15.228652 
L 10.001186 28.226431 
L 9.956638 12.805088 
L 10.013391 25.397178 
L 10.045734 12.583293 
L 10.090892 28.302752 
L 10.149475 15.716728 
L 10.270303 28.469278 
L 10.225755 12.479701 
L 10.281287 26.147562 
L 10.315461 12.323735 
L 10.361229 28.580578 
L 10.417372 15.030909 
L 10.54003 28.788322 
L 10.494872 12.218952 
L 10.552845 25.420152 
L 10.674284 11.984015 
L 10.629736 28.901988 
L 10.688319 15.473198 
L 10.719442 29.081599 
L 10.7646 11.817925 
L 10.820742 26.234842 
L 10.944011 11.61965 
L 10.899463 29.210066 
L 10.955606 14.489315 
L 10.989169 29.289796 
L 11.034327 11.483696 
L 11.09169 25.694663 
L 11.213128 11.289784 
L 11.168581 29.484369 
L 11.225333 14.43205 
L 11.347382 29.55586 
L 11.302834 11.188156 
L 11.359587 26.52586 
L 11.482856 11.13009 
L 11.437698 29.723293 
L 11.49323 13.711851 
L 11.528014 29.828205 
L 11.572562 11.024624 
L 11.631145 25.438961 
L 11.751973 10.839732 
L 11.707425 30.022782 
L 11.762957 13.831434 
L 11.886837 30.071693 
L 11.841679 10.725788 
L 11.900262 25.596004 
L 12.02109 10.661023 
L 11.975932 30.172367 
L 12.032685 13.849922 
L 12.155344 30.215738 
L 12.110796 10.668702 
L 12.168159 26.41658 
L 12.200502 10.539137 
L 12.24566 30.343801 
L 12.301192 13.422291 
L 12.425071 30.379923 
L 12.379913 10.358972 
L 12.437886 26.303769 
L 12.559324 10.264609 
L 12.514166 30.613602 
L 12.569088 12.628243 
L 12.693578 30.709378 
L 12.64903 10.329873 
L 12.707003 26.439051 
L 12.829052 10.153685 
L 12.783284 30.610994 
L 12.840036 13.305092 
L 12.963305 30.738028 
L 12.918147 10.00373 
L 12.97612 26.822853 
L 13.098169 9.943551 
L 13.053011 30.94966 
L 13.109153 13.10458 
L 13.232422 31.120797 
L 13.187265 9.849499 
L 13.245848 26.457385 
L 13.367286 9.635842 
L 13.322128 30.939394 
L 13.37705 12.214139 
L 13.50154 31.106326 
L 13.456992 9.717673 
L 13.514355 27.175132 
L 13.546698 9.50967 
L 13.591856 31.225468 
L 13.648608 13.235452 
L 13.771267 31.512248 
L 13.726109 9.33247 
L 13.784082 27.022976 
L 13.905521 9.197103 
L 13.860973 31.350262 
L 13.916505 12.304984 
L 14.040384 31.52911 
L 13.995226 9.158987 
L 14.05381 26.973899 
L 14.085542 9.026103 
L 14.13009 31.562416 
L 14.187453 13.079865 
L 14.310112 31.683287 
L 14.264954 8.951787 
L 14.322927 27.215165 
L 14.444365 8.881502 
L 14.399207 31.73801 
L 14.45596 12.471902 
L 14.579229 31.901739 
L 14.534071 8.880625 
L 14.591434 27.870342 
L 14.623777 8.811308 
L 14.668935 31.802428 
L 14.725077 12.352201 
L 14.75803 31.988951 
L 14.803798 8.827606 
L 14.860551 27.977236 
L 14.98321 8.802919 
L 14.938662 31.944945 
L 14.994194 12.18898 
L 15.118073 32.067091 
L 15.072915 8.745106 
L 15.130278 27.754275 
L 15.252327 8.68967 
L 15.207779 31.984488 
L 15.263311 12.020745 
L 15.296875 32.158942 
L 15.342033 8.691967 
L 15.399395 27.969439 
L 15.432349 8.585548 
L 15.476896 32.167555 
L 15.533039 12.21883 
L 15.656308 32.159122 
L 15.61115 8.541632 
L 15.667292 28.895651 
L 15.791171 8.460152 
L 15.746013 32.160839 
L 15.802766 12.496761 
L 15.835719 32.254721 
L 15.880877 8.544156 
L 15.937019 28.560876 
L 16.060289 8.413879 
L 16.015131 32.271006 
L 16.072493 12.825117 
L 16.195152 32.28339 
L 16.149994 8.375653 
L 16.207357 27.910487 
L 16.329406 8.290177 
L 16.284858 32.239041 
L 16.341 12.210307 
L 16.464269 32.34248 
L 16.418501 8.375555 
L 16.475864 28.451975 
L 16.508817 8.233854 
L 16.553365 32.331847 
L 16.610728 12.454634 
L 16.733387 32.423474 
L 16.688229 8.225248 
L 16.745591 28.195836 
L 16.86825 8.095237 
L 16.823092 32.517949 
L 16.878624 11.494017 
L 17.002504 32.556333 
L 16.957346 8.247674 
L 17.015319 27.965804 
L 17.047662 8.106576 
L 17.09282 32.569992 
L 17.147742 11.334128 
L 17.271621 32.616709 
L 17.227073 8.121088 
L 17.284436 28.135069 
L 17.316779 8.11207 
L 17.361937 32.726856 
L 17.417469 11.621764 
L 17.541348 32.743039 
L 17.49619 8.133028 
L 17.553553 28.293843 
L 17.675602 8.092401 
L 17.631054 32.725781 
L 17.685366 10.713455 
L 17.810465 32.768606 
L 17.765308 8.102857 
L 17.824501 27.075121 
L 17.855013 8.035237 
L 17.900171 32.794082 
L 17.955703 11.351522 
L 18.079583 32.798189 
L 18.035035 7.991467 
L 18.092398 28.016861 
L 18.213836 7.881936 
L 18.169288 32.760017 
L 18.226041 12.000288 
L 18.34931 32.810472 
L 18.303542 7.996129 
L 18.360294 29.055984 
L 18.393858 7.790401 
L 18.439016 32.816386 
L 18.496989 13.110567 
L 18.618427 32.886159 
L 18.573269 7.722472 
L 18.630022 28.852287 
L 18.752681 7.70059 
L 18.708133 32.827412 
L 18.763665 11.187305 
L 18.797228 32.940127 
L 18.842386 7.761365 
L 18.899749 28.661527 
L 18.932702 7.608443 
L 18.97786 32.983112 
L 19.033392 11.491217 
L 19.157272 33.034949 
L 19.112114 7.543364 
L 19.170697 27.41824 
L 19.291525 7.58433 
L 19.246367 33.045943 
L 19.30251 11.205591 
L 19.426389 33.059012 
L 19.381231 7.632089 
L 19.438594 28.645261 
L 19.470937 7.545463 
L 19.516095 33.011948 
L 19.571627 11.190235 
L 19.6058 33.10485 
L 19.650958 7.582781 
L 19.708931 27.797347 
L 19.83037 7.629561 
L 19.785212 33.075694 
L 19.840744 11.019787 
L 19.965234 33.095 
L 19.920076 7.702655 
L 19.976828 28.816963 
L 20.009781 7.690071 
L 20.054329 33.01843 
L 20.109861 10.997043 
L 20.144035 33.128438 
L 20.189193 7.749126 
L 20.247166 28.004149 
L 20.368604 7.723864 
L 20.323446 33.031887 
L 20.379589 11.231119 
L 20.503468 33.095239 
L 20.45831 7.693453 
L 20.515062 29.072411 
L 20.637721 7.588765 
L 20.593174 33.089416 
L 20.649926 11.926966 
L 20.682879 33.149092 
L 20.728037 7.611746 
L 20.78418 29.112368 
L 20.817743 7.505911 
L 20.862291 33.184209 
L 20.921484 13.564962 
L 20.952607 33.253523 
L 20.997154 7.409724 
L 21.053297 29.387739 
L 21.176566 7.360258 
L 21.132018 33.254675 
L 21.191822 14.171217 
L 21.31143 33.238536 
L 21.266272 7.491545 
L 21.323024 29.069666 
L 21.355977 7.35067 
L 21.401135 33.291303 
L 21.459108 12.671537 
L 21.491451 33.308701 
L 21.535389 7.345704 
L 21.592141 29.2063 
L 21.71541 7.298705 
L 21.670252 33.332764 
L 21.730056 13.866685 
L 21.849664 33.34009 
L 21.804506 7.442224 
L 21.861259 29.27177 
L 21.894822 7.309514 
L 21.93998 33.374606 
L 21.999173 13.794862 
L 22.029686 33.370844 
L 22.074233 7.311436 
L 22.130376 29.485572 
L 22.253645 7.313661 
L 22.209097 33.402807 
L 22.26768 13.136478 
L 22.388508 33.434347 
L 22.34335 7.347644 
L 22.400713 28.920529 
L 22.433056 7.312081 
L 22.477604 33.408815 
L 22.534967 11.68993 
L 22.657626 33.451342 
L 22.612468 7.314007 
L 22.66922 29.384275 
L 22.792489 7.279988 
L 22.747331 33.459252 
L 22.805915 12.874669 
L 22.926743 33.503717 
L 22.882195 7.244041 
L 22.938948 29.235618 
L 23.062217 7.149848 
L 23.017059 33.528196 
L 23.075032 12.656605 
L 23.19647 33.5605 
L 23.151312 7.204042 
L 23.207455 29.668996 
L 23.241628 7.142335 
L 23.286176 33.56198 
L 23.344149 12.584836 
L 23.375882 33.536307 
L 23.420429 7.131285 
L 23.477182 29.42685 
L 23.600451 7.159524 
L 23.555293 33.491461 
L 23.613266 12.443248 
L 23.644999 33.489414 
L 23.690157 7.228756 
L 23.745689 29.744828 
L 23.779863 7.176757 
L 23.82441 33.41825 
L 23.882994 12.930808 
L 24.004432 33.51849 
L 23.959274 7.168451 
L 24.016637 28.762922 
L 24.139296 7.122079 
L 24.093527 33.520566 
L 24.15028 11.305453 
L 24.273549 33.609412 
L 24.228391 7.143839 
L 24.285754 28.899928 
L 24.318097 7.10477 
L 24.363255 33.539451 
L 24.420618 12.144059 
L 24.452961 33.591961 
L 24.498119 7.128429 
L 24.55304 30.15734 
L 24.67753 7.147914 
L 24.632372 33.601138 
L 24.690345 12.404475 
L 24.811783 33.583657 
L 24.766625 7.210941 
L 24.822768 29.961153 
L 24.856941 7.140304 
L 24.901489 33.588374 
L 24.957632 11.019186 
L 24.991805 33.617422 
L 25.036353 7.157088 
L 25.093716 28.769946 
L 25.126059 7.183847 
L 25.170606 33.595822 
L 25.227359 11.32934 
L 25.350628 33.61011 
L 25.30547 7.17148 
L 25.362223 29.259553 
L 25.395176 7.177034 
L 25.440334 33.57684 
L 25.498917 13.073851 
L 25.530039 33.584093 
L 25.574587 7.24794 
L 25.63195 28.928673 
L 25.664293 7.195392 
L 25.709451 33.555635 
L 25.767424 12.46121 
L 25.889473 33.56355 
L 25.843704 7.170963 
L 25.899847 29.928138 
L 26.023726 7.149543 
L 25.979178 33.577797 
L 26.03471 10.9686 
L 26.068884 33.575966 
L 26.112822 7.213038 
L 26.170795 28.766655 
L 26.202527 7.164543 
L 26.248295 33.607502 
L 26.305048 11.75264 
L 26.337391 33.60669 
L 26.382549 7.131183 
L 26.439302 29.260022 
L 26.472255 7.1469 
L 26.517413 33.612439 
L 26.575996 13.021376 
L 26.696824 33.568052 
L 26.651666 7.241358 
L 26.708419 29.35798 
L 26.741982 7.225369 
L 26.78653 33.545872 
L 26.845113 12.953146 
L 26.966551 33.544273 
L 26.921393 7.234491 
L 26.978146 29.075405 
L 27.011099 7.213256 
L 27.056257 33.559638 
L 27.11423 12.777908 
L 27.235058 33.534881 
L 27.190511 7.222383 
L 27.246653 29.657395 
L 27.369922 7.171477 
L 27.325374 33.516274 
L 27.382737 12.184819 
L 27.504786 33.560819 
L 27.459628 7.228305 
L 27.51577 29.636671 
L 27.549944 7.214843 
L 27.594492 33.496391 
L 27.652465 12.642189 
L 27.773903 33.533743 
L 27.729355 7.191938 
L 27.784887 29.845624 
L 27.908156 7.155281 
L 27.863609 33.508 
L 27.920972 12.011855 
L 28.04302 33.560492 
L 27.997862 7.20258 
L 28.055225 29.093793 
L 28.088178 7.182909 
L 28.132726 33.496973 
L 28.190699 12.308781 
L 28.312748 33.559098 
L 28.26759 7.170762 
L 28.323732 29.635535 
L 28.447001 7.166388 
L 28.402453 33.514941 
L 28.459816 12.147593 
L 28.491549 33.581125 
L 28.536707 7.1854 
L 28.592849 29.708499 
L 28.626412 7.155946 
L 28.67157 33.483601 
L 28.730764 13.499537 
L 28.761276 33.559146 
L 28.806434 7.200512 
L 28.861966 29.806653 
L 28.985846 7.215561 
L 28.940688 33.551952 
L 28.998661 12.405614 
L 29.030393 33.546005 
L 29.074941 7.200714 
L 29.131083 29.971895 
L 29.254352 7.192579 
L 29.210415 33.49444 
L 29.266557 11.412702 
L 29.300121 33.548996 
L 29.344058 7.241274 
L 29.400811 29.567818 
L 29.434374 7.210024 
L 29.479532 33.542122 
L 29.538115 13.1905 
L 29.569238 33.528675 
L 29.614396 7.259233 
L 29.670538 29.229516 
L 29.793197 7.275612 
L 29.748039 33.466731 
L 29.807233 13.064334 
L 29.838355 33.507635 
L 29.882903 7.290233 
L 29.939655 29.277466 
L 29.973219 7.263501 
L 30.017766 33.485541 
L 30.07696 13.466901 
L 30.107472 33.480982 
L 30.15263 7.250118 
L 30.210603 28.101607 
L 30.332042 7.272663 
L 30.286884 33.481334 
L 30.341806 10.285205 
L 30.376589 33.519115 
L 30.421747 7.258119 
L 30.480331 27.798767 
L 30.600549 7.206715 
L 30.556611 33.525446 
L 30.611533 10.542694 
L 30.736022 33.512885 
L 30.690865 7.185368 
L 30.749448 27.885935 
L 30.78057 7.208995 
L 30.825728 33.531593 
L 30.88126 10.803238 
L 30.915434 33.480658 
L 30.959982 7.252745 
L 31.017345 28.867986 
L 31.139393 7.276476 
L 31.094845 33.465716 
L 31.152208 12.093508 
L 31.274257 33.451629 
L 31.229709 7.262968 
L 31.285241 29.797806 
L 31.40851 7.274524 
L 31.363963 33.53293 
L 31.421325 11.878741 
L 31.543984 33.577451 
L 31.498826 7.244669 
L 31.554969 29.629851 
L 31.587922 7.186724 
L 31.63369 33.520787 
L 31.690443 11.719864 
L 31.813101 33.49707 
L 31.768554 7.219438 
L 31.824696 29.322392 
L 31.947965 7.184392 
L 31.902807 33.530728 
L 31.962001 13.404401 
L 32.082219 33.618576 
L 32.037671 7.240623 
L 32.095034 28.738414 
L 32.127377 7.102989 
L 32.172535 33.603736 
L 32.228067 11.003773 
L 32.351946 33.650771 
L 32.307398 7.133767 
L 32.364761 28.424071 
L 32.48681 7.159293 
L 32.441652 33.602463 
L 32.497184 10.783036 
L 32.531357 33.557281 
L 32.575905 7.190487 
L 32.633268 29.029589 
L 32.755927 7.185223 
L 32.710769 33.517023 
L 32.767521 11.521296 
L 32.89018 33.626856 
L 32.845022 7.172249 
L 32.901165 29.880243 
L 32.935338 7.160417 
L 32.979886 33.591073 
L 33.037859 12.328869 
L 33.070202 33.632049 
L 33.11475 7.100371 
L 33.170892 29.706636 
L 33.294161 7.110484 
L 33.249613 33.56057 
L 33.307586 12.637424 
L 33.429025 33.666876 
L 33.383867 7.13871 
L 33.440009 29.745934 
L 33.474183 7.097485 
L 33.518731 33.597067 
L 33.576704 12.536341 
L 33.608436 33.630536 
L 33.653594 7.093498 
L 33.709126 29.850936 
L 33.833006 7.123837 
L 33.787848 33.600307 
L 33.845211 11.941929 
L 33.877553 33.642652 
L 33.922101 7.176849 
L 33.979464 29.146857 
L 34.012417 7.140024 
L 34.057575 33.559442 
L 34.115548 12.818232 
L 34.146671 33.557104 
L 34.191829 7.201892 
L 34.248581 29.150956 
L 34.37063 7.180801 
L 34.326692 33.58731 
L 34.384665 12.635208 
L 34.416398 33.645866 
L 34.460946 7.135576 
L 34.517088 29.736545 
L 34.640357 7.133273 
L 34.595809 33.583093 
L 34.653783 12.495131 
L 34.685515 33.610964 
L 34.730673 7.19512 
L 34.785595 30.284222 
L 34.820379 7.181826 
L 34.865537 33.566266 
L 34.9229 12.357341 
L 34.955243 33.582795 
L 34.99979 7.183232 
L 35.055322 30.048389 
L 35.179202 7.073278 
L 35.134654 33.618628 
L 35.190186 10.780865 
L 35.22436 33.649469 
L 35.269518 7.108907 
L 35.327491 28.04458 
L 35.359223 7.100484 
L 35.403771 33.716405 
L 35.458693 10.269227 
L 35.494087 33.645424 
L 35.538635 7.103713 
L 35.597218 27.673079 
L 35.718046 7.120009 
L 35.673499 33.633344 
L 35.729031 10.888142 
L 35.8523 33.689866 
L 35.808362 7.106635 
L 35.864505 29.24184 
L 35.987164 7.049505 
L 35.942616 33.747884 
L 36.001199 13.085711 
L 36.122027 33.736661 
L 36.076869 7.062107 
L 36.134232 28.930225 
L 36.166575 7.003041 
L 36.211733 33.736262 
L 36.269706 12.455766 
L 36.391144 33.702858 
L 36.346597 7.064717 
L 36.401519 30.262895 
L 36.526008 7.055909 
L 36.48085 33.719204 
L 36.538213 11.909578 
L 36.660872 33.698055 
L 36.615104 7.064588 
L 36.672466 29.176635 
L 36.704809 7.035822 
L 36.749967 33.693273 
L 36.808551 12.775196 
L 36.929379 33.676633 
L 36.884831 7.103881 
L 36.940363 30.027319 
L 37.064242 7.115516 
L 37.019695 33.623546 
L 37.076447 11.736066 
L 37.198496 33.67558 
L 37.153338 7.056973 
L 37.21009 29.709217 
L 37.33336 7.103657 
L 37.288812 33.615433 
L 37.348005 13.525137 
L 37.468223 33.657498 
L 37.423676 7.185585 
L 37.479818 29.4286 
L 37.512771 7.095046 
L 37.557929 33.590821 
L 37.615902 12.41406 
L 37.73734 33.714998 
L 37.692182 7.028451 
L 37.748325 29.952735 
L 37.871594 7.088896 
L 37.827046 33.612507 
L 37.88624 13.241385 
L 37.916752 33.6886 
L 37.96191 7.179342 
L 38.017442 30.102107 
L 38.051616 7.094524 
L 38.096163 33.581104 
L 38.153526 11.677804 
L 38.275575 33.688826 
L 38.231027 7.064755 
L 38.287169 29.716369 
L 38.320733 7.080353 
L 38.365891 33.644276 
L 38.423864 12.543123 
L 38.455596 33.699371 
L 38.500144 7.090875 
L 38.556287 29.848443 
L 38.679556 7.089747 
L 38.635008 33.632318 
L 38.692981 12.380675 
L 38.725324 33.656247 
L 38.769872 7.166133 
L 38.825404 29.978949 
L 38.859577 7.109002 
L 38.904125 33.612732 
L 38.960878 11.379061 
L 38.994441 33.676738 
L 39.038989 7.087774 
L 39.095741 29.194169 
L 39.2184 7.101001 
L 39.173852 33.632674 
L 39.231826 12.623552 
L 39.263558 33.622566 
L 39.308106 7.197448 
L 39.363638 30.092376 
L 39.397812 7.194918 
L 39.44297 33.592411 
L 39.499112 11.308868 
L 39.532675 33.589125 
L 39.577223 7.18867 
L 39.634586 28.868763 
L 39.666929 7.186515 
L 39.712087 33.555958 
L 39.76945 12.043861 
L 39.801793 33.568219 
L 39.84695 7.201664 
L 39.903093 29.409028 
L 40.025752 7.201053 
L 39.981204 33.56581 
L 40.039787 12.833589 
L 40.161226 33.576976 
L 40.116068 7.18882 
L 40.17282 29.145928 
L 40.205773 7.144929 
L 40.250931 33.594599 
L 40.309515 13.17558 
L 40.430343 33.559028 
L 40.385185 7.209841 
L 40.442548 28.922819 
L 40.564596 7.215489 
L 40.520049 33.532299 
L 40.578022 12.446585 
L 40.69946 33.520595 
L 40.654302 7.245016 
L 40.710444 29.842963 
L 40.744008 7.22126 
L 40.789776 33.574563 
L 40.847139 12.334264 
L 40.968577 33.576623 
L 40.924029 7.216637 
L 40.978951 30.397093 
L 41.013735 7.184373 
L 41.058893 33.537856 
L 41.117476 13.148826 
L 41.238305 33.529954 
L 41.193147 7.22442 
L 41.250509 28.999476 
L 41.373168 7.179654 
L 41.32801 33.56712 
L 41.385983 12.477441 
L 41.507422 33.56607 
L 41.462264 7.255078 
L 41.518406 29.902298 
L 41.55258 7.164229 
L 41.597738 33.559304 
L 41.65449 11.855885 
L 41.777149 33.547079 
L 41.731381 7.199128 
L 41.787523 30.010997 
L 41.911403 7.244233 
L 41.866245 33.500926 
L 41.924218 12.24447 
L 41.956561 33.479856 
L 42.001108 7.290385 
L 42.057861 29.335109 
L 42.090814 7.281811 
L 42.135972 33.445649 
L 42.194555 13.082354 
L 42.315383 33.508181 
L 42.270836 7.310957 
L 42.326978 29.410695 
L 42.450247 7.293252 
L 42.405089 33.439637 
L 42.463672 12.913876 
L 42.494795 33.528549 
L 42.539343 7.236449 
L 42.596095 29.550091 
L 42.719364 7.233429 
L 42.674817 33.476703 
L 42.7334 13.221354 
L 42.854228 33.537375 
L 42.80907 7.252282 
L 42.865212 29.614647 
L 42.898776 7.237333 
L 42.943934 33.514148 
L 43.001907 12.657645 
L 43.033639 33.575493 
L 43.078187 7.18223 
L 43.133719 30.111042 
L 43.257599 7.155 
L 43.213051 33.525088 
L 43.270414 12.040441 
L 43.302757 33.586207 
L 43.347304 7.228592 
L 43.404667 29.005316 
L 43.43762 7.155497 
L 43.482168 33.60892 
L 43.540751 12.87291 
L 43.571874 33.604699 
L 43.616422 7.170887 
L 43.672564 29.898119 
L 43.796443 7.161759 
L 43.751285 33.533637 
L 43.807428 11.01195 
L 43.841601 33.583268 
L 43.886149 7.176909 
L 43.942291 29.484028 
L 44.06556 7.210527 
L 44.020402 33.574828 
L 44.078986 12.750995 
L 44.199814 33.512223 
L 44.155266 7.213348 
L 44.210798 30.058239 
L 44.244972 7.221402 
L 44.29013 33.540436 
L 44.346272 11.271475 
L 44.469541 33.540162 
L 44.424383 7.244579 
L 44.481136 29.251739 
L 44.603795 7.177403 
L 44.559247 33.589812 
L 44.618441 13.473622 
L 44.738658 33.593052 
L 44.694111 7.169969 
L 44.750863 28.98591 
L 44.783206 7.105554 
L 44.828974 33.634246 
L 44.886337 12.311206 
L 45.008386 33.616226 
L 44.963228 7.172514 
L 45.01815 30.366852 
L 45.142639 7.155491 
L 45.098092 33.621561 
L 45.156065 12.66515 
L 45.277503 33.638783 
L 45.232955 7.121559 
L 45.287877 30.178421 
L 45.322051 7.095555 
L 45.367209 33.649376 
L 45.424572 12.00699 
L 45.54662 33.602471 
L 45.501462 7.195105 
L 45.557604 29.875425 
L 45.591168 7.143704 
L 45.636326 33.580673 
L 45.694299 12.352657 
L 45.816348 33.585454 
L 45.77119 7.184576 
L 45.826722 29.957446 
L 45.950601 7.186892 
L 45.906053 33.546366 
L 45.964637 13.216835 
L 46.085465 33.566819 
L 46.040307 7.243908 
L 46.097059 29.334793 
L 46.219718 7.194207 
L 46.17517 33.503784 
L 46.233143 12.571726 
L 46.354582 33.609257 
L 46.309424 7.183051 
L 46.366176 29.437077 
L 46.39913 7.229596 
L 46.444288 33.487823 
L 46.502871 12.950432 
L 46.534604 33.530081 
L 46.578541 7.222228 
L 46.635294 29.480743 
L 46.668857 7.251708 
L 46.714015 33.424874 
L 46.771988 12.887758 
L 46.893426 33.548213 
L 46.847658 7.255753 
L 46.904411 29.525473 
L 46.937974 7.23116 
L 46.982522 33.491273 
L 47.041715 13.208677 
L 47.072838 33.559896 
L 47.117386 7.198571 
L 47.173528 29.634767 
L 47.296797 7.2043 
L 47.252249 33.473919 
L 47.310833 13.119793 
L 47.341955 33.509306 
L 47.386503 7.296834 
L 47.443255 29.257484 
L 47.476208 7.236342 
L 47.521366 33.477318 
L 47.57995 13.056372 
L 47.611072 33.495865 
L 47.65562 7.248586 
L 47.712373 29.360876 
L 47.835031 7.231172 
L 47.791094 33.485274 
L 47.849067 12.889124 
L 47.8808 33.553205 
L 47.925347 7.24622 
L 47.98149 29.47182 
L 48.104759 7.181162 
L 48.060211 33.5548 
L 48.118184 12.751838 
L 48.149307 33.571812 
L 48.194465 7.203738 
L 48.249997 30.068863 
L 48.373876 7.181334 
L 48.329328 33.549861 
L 48.386081 11.645945 
L 48.419034 33.592539 
L 48.463582 7.210013 
L 48.520945 28.859367 
L 48.643603 7.157384 
L 48.598445 33.600676 
L 48.656418 12.500105 
L 48.688151 33.538004 
L 48.732699 7.197701 
L 48.788231 30.195471 
L 48.822405 7.179628 
L 48.868173 33.56837 
L 48.926146 12.890997 
L 49.047584 33.598204 
L 49.002426 7.152182 
L 49.059179 29.152844 
L 49.181838 7.151142 
L 49.13729 33.624686 
L 49.195263 12.64155 
L 49.226996 33.572173 
L 49.271543 7.228091 
L 49.327076 30.022859 
L 49.361249 7.176628 
L 49.405797 33.583578 
L 49.46316 11.689557 
L 49.585819 33.555339 
L 49.541271 7.176291 
L 49.598023 28.905963 
L 49.720682 7.151367 
L 49.675524 33.569553 
L 49.732277 11.587436 
L 49.854936 33.584201 
L 49.809778 7.180898 
L 49.867751 28.618225 
L 49.899483 7.154869 
L 49.944641 33.603639 
L 50.001394 11.516688 
L 50.124663 33.570029 
L 50.079505 7.155858 
L 50.135647 29.532772 
L 50.169211 7.115961 
L 50.214369 33.584819 
L 50.271732 12.257332 
L 50.39378 33.582654 
L 50.348622 7.194854 
L 50.404154 30.019374 
L 50.438328 7.138111 
L 50.483486 33.569901 
L 50.541459 12.629768 
L 50.662897 33.559407 
L 50.617739 7.173167 
L 50.673882 29.747195 
L 50.707445 7.133865 
L 50.752603 33.576315 
L 50.811186 12.92406 
L 50.932015 33.5962 
L 50.886857 7.165233 
L 50.942999 29.890346 
L 50.976562 7.135834 
L 51.02172 33.536154 
L 51.079083 11.900703 
L 51.111426 33.570739 
L 51.156584 7.164351 
L 51.212726 29.570064 
L 51.335995 7.172295 
L 51.290837 33.54447 
L 51.350031 13.277533 
L 51.470859 33.577032 
L 51.425701 7.248365 
L 51.481844 29.659784 
L 51.515407 7.142429 
L 51.559955 33.515588 
L 51.618538 12.596797 
L 51.739366 33.657762 
L 51.694818 7.098069 
L 51.750961 29.734395 
L 51.87423 7.128789 
L 51.829682 33.593986 
L 51.889486 13.881193 
L 51.919388 33.611625 
L 51.963936 7.192367 
L 52.021298 29.136551 
L 52.143957 7.125284 
L 52.098799 33.538809 
L 52.155552 11.40433 
L 52.278211 33.59723 
L 52.233053 7.148709 
L 52.289805 29.580823 
L 52.323369 7.123218 
L 52.368527 33.61501 
L 52.425889 12.200043 
L 52.457622 33.685053 
L 52.50278 7.08142 
L 52.558312 30.252298 
L 52.682192 7.052947 
L 52.637644 33.607303 
L 52.693786 11.096714 
L 52.72735 33.608775 
L 52.771897 7.123025 
L 52.82804 29.812761 
L 52.861603 7.069208 
L 52.906761 33.625845 
L 52.964124 12.03439 
L 52.996467 33.636285 
L 53.041625 7.074829 
L 53.096547 30.322015 
L 53.221036 7.05971 
L 53.175878 33.656226 
L 53.233851 12.289073 
L 53.265584 33.662566 
L 53.310742 7.154502 
L 53.366884 29.493676 
L 53.400448 7.100685 
L 53.445606 33.615592 
L 53.503579 12.74616 
L 53.535311 33.579096 
L 53.579859 7.118256 
L 53.636001 29.666464 
L 53.669565 7.191329 
L 53.714723 33.559963 
L 53.770865 11.196546 
L 53.894134 33.609579 
L 53.849586 7.120779 
L 53.905119 29.848103 
L 54.028998 7.080679 
L 53.98384 33.662574 
L 54.040592 11.480323 
L 54.073546 33.603589 
L 54.118704 7.15565 
L 54.174846 29.537378 
L 54.207799 7.067672 
L 54.253567 33.643783 
L 54.31032 11.793085 
L 54.432979 33.634937 
L 54.387821 7.120236 
L 54.443963 29.688378 
L 54.567232 7.133663 
L 54.522684 33.638844 
L 54.579437 11.679897 
L 54.702096 33.582763 
L 54.657548 7.199304 
L 54.714911 28.500404 
L 54.746644 7.098352 
L 54.792412 33.622259 
L 54.847944 11.158101 
L 54.971213 33.607154 
L 54.926055 7.127054 
L 54.984028 28.673702 
L 55.106077 7.151201 
L 55.060919 33.552738 
L 55.116451 10.540352 
L 55.24033 33.574276 
L 55.195782 7.162109 
L 55.252535 29.245469 
L 55.285488 7.148102 
L 55.330646 33.584548 
L 55.388619 12.692011 
L 55.510058 33.614237 
L 55.46551 7.186746 
L 55.521042 29.732183 
L 55.554605 7.13647 
L 55.599763 33.572221 
L 55.64126 7.516608 
" clip-path="url(#p917f2b5767)" style="fill: none; stroke: #f08080; stroke-width: 0.04; stroke-linecap: square"/>
   </g>
   <g id="patch_3">
    <path d="M 0.72 40.008189 
L 0.72 0.72 
" style="fill: none; stroke: #f08080; stroke-width: 0.5; stroke-linejoin: miter; stroke-linecap: square"/>
   </g>
   <g id="patch_4">
    <path d="M 55.64126 40.008189 
L 55.64126 0.72 
" style="fill: none; stroke: #f08080; stroke-width: 0.5; stroke-linejoin: miter; stroke-linecap: square"/>
   </g>
   <g id="patch_5">
    <path d="M 0.72 40.008189 
L 55.64126 40.008189 
" style="fill: none; stroke: #f08080; stroke-width: 0.5; stroke-linejoin: miter; stroke-linecap: square"/>
   </g>
   <g id="patch_6">
    <path d="M 0.72 0.72 
L 55.64126 0.72 
" style="fill: none; stroke: #f08080; stroke-width: 0.5; stroke-linejoin: miter; stroke-linecap: square"/>
   </g>
  </g>
 </g>
 <defs>
  <clipPath id="p917f2b5767">
   <rect x="0.72" y="0.72" width="54.92126" height="39.288189"/>
  </clipPath>
 </defs>
</svg>
