<?xml version="1.0" encoding="utf-8" standalone="no"?>
<!DOCTYPE svg PUBLIC "-//W3C//DTD SVG 1.1//EN"
  "http://www.w3.org/Graphics/SVG/1.1/DTD/svg11.dtd">
<svg xmlns:xlink="http://www.w3.org/1999/xlink" width="56.36126pt" height="40.728189pt" viewBox="0 0 56.36126 40.728189" xmlns="http://www.w3.org/2000/svg" version="1.1">
 <metadata>
  <rdf:RDF xmlns:dc="http://purl.org/dc/elements/1.1/" xmlns:cc="http://creativecommons.org/ns#" xmlns:rdf="http://www.w3.org/1999/02/22-rdf-syntax-ns#">
   <cc:Work>
    <dc:type rdf:resource="http://purl.org/dc/dcmitype/StillImage"/>
    <dc:date>2025-02-16T20:55:21.949617</dc:date>
    <dc:format>image/svg+xml</dc:format>
    <dc:creator>
     <cc:Agent>
      <dc:title>Matplotlib v3.7.5, https://matplotlib.org/</dc:title>
     </cc:Agent>
    </dc:creator>
   </cc:Work>
  </rdf:RDF>
 </metadata>
 <defs>
  <style type="text/css">*{stroke-linejoin: round; stroke-linecap: butt}</style>
 </defs>
 <g id="figure_1">
  <g id="patch_1">
   <path d="M 0 40.728189 
L 56.36126 40.728189 
L 56.36126 0 
L 0 0 
z
" style="fill: #ffffff"/>
  </g>
  <g id="axes_1">
   <g id="patch_2">
    <path d="M 0.72 40.008189 
L 55.64126 40.008189 
L 55.64126 0.72 
L 0.72 0.72 
z
" style="fill: #ffffff"/>
   </g>
   <g id="matplotlib.axis_1"/>
   <g id="matplotlib.axis_2"/>
   <g id="line2d_1">
    <path d="M 0.72 18.977162 
L 0.722885 18.976074 
L 0.743799 20.058747 
L 0.77553 21.825908 
L 0.826012 19.002904 
L 0.872166 21.59286 
L 0.882263 21.806276 
L 0.925533 19.129214 
L 0.932023 18.940261 
L 0.983947 21.674638 
L 0.986111 21.696835 
L 1.011352 20.560668 
L 1.144047 18.811278 
L 1.09068 21.7885 
L 1.14621 18.830165 
L 1.198855 21.844233 
L 1.324339 20.753341 
L 1.35607 18.802596 
L 1.407994 21.942029 
L 1.451985 19.162427 
L 1.461361 18.940669 
L 1.513285 21.895482 
L 1.514006 21.89424 
L 1.515448 21.900413 
L 1.526266 21.571826 
L 1.567372 18.808875 
L 1.618575 21.856519 
L 1.682759 19.235082 
L 1.723866 22.023534 
L 1.778674 18.629533 
L 1.824108 21.893399 
L 1.830599 22.028093 
L 1.863772 19.871279 
L 1.883244 18.915922 
L 1.934447 21.985724 
L 1.940216 21.9569 
L 1.969063 19.744089 
L 1.988534 18.705844 
L 2.036131 21.973129 
L 2.043343 22.067719 
L 2.071469 20.082962 
L 2.094546 18.718371 
L 2.14647 22.052962 
L 2.194788 18.927788 
L 2.202 18.786024 
L 2.225077 20.263174 
L 2.357051 22.204365 
L 2.306569 18.582512 
L 2.358493 22.197221 
L 2.359215 22.21588 
L 2.389504 20.15269 
L 2.464505 22.187038 
L 2.512823 18.686152 
L 2.51715 18.61033 
L 2.547439 20.822501 
L 2.567632 22.185038 
L 2.623162 18.664066 
L 2.667874 22.075497 
L 2.675807 22.303352 
L 2.71475 19.050279 
L 2.728453 18.458245 
L 2.779655 22.243233 
L 2.781098 22.25662 
L 2.799848 21.233784 
L 2.939034 18.251128 
L 2.887109 22.36845 
L 2.947688 18.464837 
L 2.9924 22.355606 
L 3.10995 21.856332 
L 3.148893 18.281038 
L 3.202981 22.48222 
L 3.261396 18.51143 
L 3.309714 22.505488 
L 3.36308 18.273429 
L 3.363801 18.266909 
L 3.378225 19.118803 
L 3.521016 22.599785 
L 3.46765 18.366389 
L 3.522458 22.578057 
L 3.575104 18.125498 
L 3.625585 22.593081 
L 3.705635 20.51886 
L 3.732318 22.66418 
L 3.787848 18.152413 
L 3.832561 22.628333 
L 3.837609 22.756798 
L 3.875831 18.89779 
L 3.890975 18.076215 
L 3.941457 22.688852 
L 3.942899 22.716861 
L 3.963813 21.283111 
L 4.049632 22.751424 
L 4.100835 17.989904 
L 4.102277 17.980961 
L 4.113816 18.501301 
L 4.207568 18.182474 
L 4.260934 22.758739 
L 4.286175 20.450763 
L 4.313579 18.032953 
L 4.366225 22.83558 
L 4.413822 18.155305 
L 4.41887 18.088128 
L 4.444832 20.351993 
L 4.471515 22.884995 
L 4.524882 17.875686 
L 4.569594 22.563847 
L 4.577527 22.899431 
L 4.62296 18.32251 
L 4.631614 17.951037 
L 4.677769 22.783758 
L 4.683539 22.960008 
L 4.72753 18.081363 
L 4.736905 17.748897 
L 4.774406 22.00424 
L 4.78955 22.945999 
L 4.842196 17.911251 
L 4.893398 22.921378 
L 4.896283 22.937008 
L 4.907822 22.199703 
L 4.948928 17.830869 
L 5.000131 22.975105 
L 5.056382 17.909984 
L 5.093883 22.313947 
L 5.106864 23.055725 
L 5.158788 17.821095 
L 5.163115 17.876685 
L 5.188356 20.741831 
L 5.211433 23.02089 
L 5.2648 17.837388 
L 5.312397 22.991293 
L 5.317445 23.131479 
L 5.356388 18.685929 
L 5.371533 17.641335 
L 5.424178 23.074043 
L 5.473939 17.777802 
L 5.476102 17.73283 
L 5.498458 19.792433 
L 5.583556 17.669862 
L 5.633317 23.116888 
L 5.636201 23.125915 
L 5.651346 21.984337 
L 5.688125 17.635787 
L 5.741492 23.124111 
L 5.78981 17.715054 
L 5.793416 17.602034 
L 5.82659 21.420284 
L 5.899428 17.541423 
L 5.952073 23.308315 
L 5.962169 22.886824 
L 6.111451 17.567494 
L 6.059527 23.218753 
L 6.122268 18.123819 
L 6.270108 23.277047 
L 6.218184 17.563076 
L 6.281647 22.644331 
L 6.428044 17.521432 
L 6.37612 23.245218 
L 6.438861 18.033571 
L 6.535498 17.405773 
L 6.586701 23.367841 
L 6.597518 22.879167 
L 6.745358 17.326009 
L 6.693433 23.335024 
L 6.75329 17.63479 
L 6.799445 23.50504 
L 6.852812 17.256445 
L 6.921322 22.21458 
L 7.063393 17.171502 
L 7.010747 23.58615 
L 7.066998 17.239272 
L 7.095124 21.412941 
L 7.170125 17.05285 
L 7.219165 23.687593 
L 7.222049 23.747134 
L 7.245127 21.145668 
L 7.274695 17.049953 
L 7.328061 23.655873 
L 7.374937 17.235303 
L 7.380706 16.995186 
L 7.411717 21.267829 
L 7.434073 23.898801 
L 7.486718 16.92317 
L 7.533594 23.595926 
L 7.539363 23.840326 
L 7.571816 19.356658 
L 7.593451 16.870257 
L 7.644654 23.952507 
L 7.693693 16.968972 
L 7.698741 16.821949 
L 7.726146 20.687594 
L 7.751387 24.049218 
L 7.804753 16.742536 
L 7.850908 23.824131 
L 7.857398 24.085423 
L 7.887687 19.4705 
L 7.910044 16.660632 
L 7.96341 24.160059 
L 8.012449 16.73988 
L 8.015334 16.661796 
L 8.040575 20.090902 
L 8.069422 24.183677 
L 8.120625 16.613367 
L 8.166058 23.766371 
L 8.174712 24.221479 
L 8.21654 17.30192 
L 8.226636 16.600795 
L 8.273512 23.906463 
L 8.280003 24.268356 
L 8.31534 18.476574 
L 8.33409 16.533548 
L 8.385293 24.379735 
L 8.394668 23.905976 
L 8.545392 16.421987 
L 8.492026 24.377664 
L 8.557652 17.406003 
L 8.704049 24.513545 
L 8.651404 16.30897 
L 8.705492 24.482369 
L 8.706213 24.485013 
L 8.711261 24.093906 
L 8.863428 16.204629 
L 8.810782 24.586475 
L 8.872803 16.852497 
L 9.022084 24.75189 
L 8.968718 16.085414 
L 9.034344 23.540537 
L 9.18002 15.941876 
L 9.127375 24.822791 
L 9.183626 16.056199 
L 9.338677 24.863412 
L 9.286753 15.954394 
L 9.363197 21.026423 
L 9.392044 15.811816 
L 9.444689 24.903083 
L 9.493007 15.997231 
L 9.498055 15.798633 
L 9.529065 21.764568 
L 9.5507 25.03479 
L 9.603346 15.6843 
L 9.653106 24.956432 
L 9.656712 25.048839 
L 9.680511 21.078804 
L 9.708636 15.677571 
L 9.763445 25.123105 
L 9.811042 15.726668 
L 9.81609 15.570917 
L 9.844216 21.06357 
L 9.868014 25.106312 
L 9.922102 15.507843 
L 9.967536 24.855901 
L 9.973305 25.221622 
L 10.0072 18.462359 
L 10.026671 15.480204 
L 10.080038 25.212924 
L 10.127635 15.742442 
L 10.132683 15.481049 
L 10.165136 21.980527 
L 10.186049 25.333729 
L 10.239416 15.322409 
L 10.287734 25.205336 
L 10.29134 25.353764 
L 10.318023 20.457219 
L 10.345427 15.392644 
L 10.39663 25.422916 
L 10.444227 15.559679 
L 10.451439 15.25689 
L 10.481007 21.53886 
L 10.503363 25.478074 
L 10.557451 15.101887 
L 10.60649 25.456947 
L 10.610096 25.536658 
L 10.627404 22.868737 
L 10.662741 15.133545 
L 10.714665 25.598223 
L 10.765868 15.179419 
L 10.768032 15.118254 
L 10.79183 19.40346 
L 10.873322 14.934228 
L 10.924525 25.72749 
L 10.926689 25.795564 
L 10.94616 22.706931 
L 10.979334 14.962091 
L 11.0327 25.817096 
L 11.079576 15.208817 
L 11.086788 14.881693 
L 11.117077 21.876261 
L 11.139433 25.893055 
L 11.192079 14.723712 
L 11.241839 25.835379 
L 11.244003 25.913068 
L 11.264917 22.364035 
L 11.351457 26.040309 
L 11.399775 14.788181 
L 11.404102 14.666229 
L 11.425016 18.719251 
L 11.456747 26.064356 
L 11.510114 14.576731 
L 11.554826 25.586527 
L 11.561316 26.160783 
L 11.600981 16.501279 
L 11.614683 14.574444 
L 11.667328 26.202678 
L 11.675982 25.538998 
L 11.826706 14.389482 
L 11.774782 26.331747 
L 11.84113 16.402107 
L 11.986084 26.467346 
L 11.932718 14.336112 
L 11.990411 26.211796 
L 12.03873 14.163855 
L 12.092096 26.509412 
L 12.163492 17.591242 
L 12.198108 26.632497 
L 12.250753 14.128583 
L 12.29835 26.303924 
L 12.304119 26.586278 
L 12.33513 18.50078 
L 12.356043 14.070386 
L 12.408689 26.711915 
L 12.457728 14.185548 
L 12.461334 14.003909 
L 12.488017 20.249397 
L 12.5147 26.727513 
L 12.567346 14.034569 
L 12.6135 26.216767 
L 12.620712 26.79385 
L 12.658934 16.131639 
L 12.673357 13.92996 
L 12.726003 26.846107 
L 12.775763 14.109883 
L 12.779369 13.942054 
L 12.805331 20.185244 
L 12.832014 26.945275 
L 12.885381 13.819506 
L 12.930814 26.308787 
L 12.938747 26.944936 
L 12.975527 16.462752 
L 12.990671 13.756077 
L 13.044759 27.033372 
L 13.093077 13.888217 
L 13.096683 13.723879 
L 13.121203 19.465171 
L 13.15077 27.108878 
L 13.202695 13.67935 
L 13.248128 26.431305 
L 13.25534 27.141817 
L 13.293562 16.070689 
L 13.309427 13.595217 
L 13.361351 27.278966 
L 13.410391 13.820776 
L 13.413997 13.586118 
L 13.442122 20.815812 
L 13.468084 27.320719 
L 13.52073 13.446159 
L 13.569769 27.266394 
L 13.573375 27.463413 
L 13.597895 21.268236 
L 13.626741 13.375016 
L 13.680108 27.501972 
L 13.726984 13.630411 
L 13.732753 13.313094 
L 13.7616 21.635829 
L 13.785398 27.683624 
L 13.838765 13.190249 
L 13.888525 27.574044 
L 13.890689 27.68188 
L 13.914487 21.704471 
L 13.944055 13.13362 
L 13.997422 27.832115 
L 14.048624 13.170237 
L 14.049346 13.151398 
L 14.06449 15.561343 
L 14.208724 27.917882 
L 14.155357 12.985519 
L 14.21233 27.745867 
L 14.248388 15.129245 
L 14.261369 12.969374 
L 14.309687 27.601385 
L 14.314735 27.957792 
L 14.347909 17.481383 
L 14.367381 12.863697 
L 14.420747 28.090398 
L 14.468344 13.209587 
L 14.473392 12.801243 
L 14.50873 24.146951 
L 14.579404 12.711617 
L 14.630607 28.119041 
L 14.63277 28.176297 
L 14.647915 24.994853 
L 14.791427 12.591387 
L 14.738061 28.231304 
L 14.796476 13.011251 
L 14.950084 28.436601 
L 14.897439 12.529812 
L 14.968113 24.171653 
L 15.108741 12.37245 
L 15.056817 28.488766 
L 15.110184 12.385216 
L 15.131097 18.217891 
L 15.162108 28.556889 
L 15.214753 12.298407 
L 15.263071 28.283016 
L 15.267398 28.631269 
L 15.29913 18.052649 
L 15.320765 12.269125 
L 15.37341 28.660734 
L 15.420286 12.838302 
L 15.426776 12.173191 
L 15.462835 24.770958 
L 15.532788 12.134657 
L 15.584712 28.786876 
L 15.585433 28.805138 
L 15.598414 26.319878 
L 15.6388 12.045158 
L 15.691445 28.835124 
L 15.741927 12.10375 
L 15.744811 12.001161 
L 15.76861 19.182916 
L 15.797457 28.916521 
L 15.850102 11.924272 
L 15.894093 27.654061 
L 15.902747 28.961089 
L 15.948902 12.669933 
L 15.956113 11.875197 
L 15.993614 25.424079 
L 16.061404 11.783121 
L 16.114049 29.035207 
L 16.11477 29.047651 
L 16.124867 27.51454 
L 16.273427 11.616412 
L 16.220782 29.136201 
L 16.282803 12.981271 
L 16.432084 29.259386 
L 16.38016 11.525786 
L 16.442902 27.633756 
L 16.592184 11.388536 
L 16.538817 29.336328 
L 16.597232 11.967461 
L 16.750119 29.450044 
L 16.697474 11.289786 
L 16.770312 23.707595 
L 16.803486 11.239513 
L 16.856131 29.582608 
L 16.907334 11.247557 
L 16.909497 11.181343 
L 16.927527 16.078747 
L 16.962143 29.591435 
L 17.014788 11.100366 
L 17.063827 29.314497 
L 17.067433 29.622879 
L 17.094838 20.303341 
L 17.121521 11.065764 
L 17.174166 29.721978 
L 17.221763 11.52724 
L 17.227532 11.01372 
L 17.259985 23.71174 
L 17.279456 29.769724 
L 17.332823 10.876742 
L 17.381141 29.40928 
L 17.386189 29.834864 
L 17.415757 18.552117 
L 17.438835 10.855653 
L 17.49148 29.941708 
L 17.538356 11.588683 
L 17.544846 10.796213 
L 17.580905 25.337741 
L 17.650858 10.692199 
L 17.702782 30.0336 
L 17.703503 30.03394 
L 17.705667 29.956409 
L 17.733071 18.777168 
L 17.75687 10.6909 
L 17.809515 30.079925 
L 17.854948 11.783618 
L 17.862881 10.727803 
L 17.90543 28.343945 
L 17.916248 30.027348 
L 17.965287 10.853381 
L 17.968893 10.636017 
L 17.993413 19.473069 
L 18.021538 30.128919 
L 18.074183 10.612866 
L 18.118896 28.948627 
L 18.12755 30.189081 
L 18.167214 13.547461 
L 18.180195 10.550493 
L 18.228513 29.710247 
L 18.233562 30.187831 
L 18.271062 14.326107 
L 18.286207 10.496374 
L 18.339573 30.242851 
L 18.351112 27.832018 
L 18.49823 10.376682 
L 18.445585 30.319162 
L 18.501115 10.533716 
L 18.540779 28.54521 
L 18.550875 30.313323 
L 18.597751 11.085617 
L 18.604242 10.355334 
L 18.641021 26.072036 
L 18.656887 30.414121 
L 18.709532 10.347701 
L 18.759293 30.236472 
L 18.762899 30.399266 
L 18.785976 22.273423 
L 18.815544 10.228801 
L 18.868189 30.427325 
L 18.918671 10.400747 
L 18.921556 10.23359 
L 18.946075 19.106812 
L 18.974201 30.496653 
L 19.027567 10.246341 
L 19.07228 29.27845 
L 19.080934 30.482901 
L 19.120598 13.132893 
L 19.132858 10.155156 
L 19.186224 30.519921 
L 19.193436 29.643186 
L 19.345602 10.094723 
L 19.292236 30.596519 
L 19.358583 13.359934 
L 19.504259 30.647025 
L 19.451614 10.025566 
L 19.514356 28.849088 
L 19.662916 9.999649 
L 19.610271 30.677967 
L 19.675176 12.673337 
L 19.821573 30.724592 
L 19.768928 9.968527 
L 19.823016 30.70392 
L 19.841045 24.590119 
L 19.874218 9.95793 
L 19.927585 30.741246 
L 19.976624 10.191442 
L 19.98023 9.911998 
L 20.006913 20.230584 
L 20.033597 30.697425 
L 20.086963 9.898693 
L 20.132397 29.882048 
L 20.138887 30.730475 
L 20.180715 12.511786 
L 20.192253 9.964652 
L 20.24562 30.7253 
L 20.246341 30.701178 
L 20.262207 25.789298 
L 20.298265 9.863663 
L 20.351632 30.768993 
L 20.401392 10.027136 
L 20.404277 9.841413 
L 20.427354 18.250542 
L 20.457643 30.834427 
L 20.510289 9.8565 
L 20.559328 30.547518 
L 20.562934 30.771582 
L 20.586732 22.099038 
L 20.668945 30.783215 
L 20.72087 9.839955 
L 20.722312 9.821027 
L 20.732408 11.86263 
L 20.774957 30.863349 
L 20.827602 9.785742 
L 20.887459 30.128111 
L 21.039626 9.68467 
L 20.986259 30.889375 
L 21.051886 12.489194 
L 21.092992 31.016643 
L 21.145637 9.640431 
L 21.201167 30.838865 
L 21.232899 15.468042 
L 21.251649 9.636292 
L 21.304294 31.095865 
L 21.355497 9.672406 
L 21.35694 9.578089 
L 21.377853 16.597286 
L 21.463672 9.565674 
L 21.516318 31.082746 
L 21.527135 28.90839 
L 21.674975 9.552554 
L 21.622329 31.076395 
L 21.68435 11.222652 
L 21.834353 31.078347 
L 21.780986 9.585273 
L 21.843007 29.534352 
L 21.99301 9.454262 
L 21.940364 31.212163 
L 22.00527 12.421222 
L 22.151667 31.214046 
L 22.099021 9.399965 
L 22.152388 31.201477 
L 22.165369 27.753898 
L 22.310324 9.366646 
L 22.257678 31.269668 
L 22.313208 9.502406 
L 22.355757 30.16438 
L 22.36369 31.227191 
L 22.400469 14.026975 
L 22.416335 9.399292 
L 22.46898 31.256289 
L 22.479798 29.214483 
L 22.628359 9.341255 
L 22.574992 31.307849 
L 22.639897 12.007671 
L 22.681004 31.325626 
L 22.733649 9.280243 
L 22.793506 30.549097 
L 22.945672 9.223257 
L 22.893027 31.413579 
L 22.966586 16.568867 
L 23.104329 31.446475 
L 23.051684 9.261497 
L 23.106493 31.347477 
L 23.133897 18.606672 
L 23.157696 9.228438 
L 23.210341 31.364157 
L 23.257217 9.990891 
L 23.263707 9.236951 
L 23.295439 23.74845 
L 23.316353 31.445214 
L 23.369719 9.164032 
L 23.417316 30.951944 
L 23.423086 31.462993 
L 23.451211 18.79571 
L 23.47501 9.13493 
L 23.528376 31.496382 
L 23.576694 9.564495 
L 23.581742 9.124428 
L 23.61131 22.780149 
L 23.633667 31.452092 
L 23.687033 9.145977 
L 23.736072 31.214289 
L 23.739678 31.56703 
L 23.769246 18.712663 
L 23.793045 9.115455 
L 23.84569 31.439122 
L 23.893287 9.764106 
L 23.899056 9.116487 
L 23.930067 23.440063 
L 24.005068 9.087434 
L 24.056271 31.52703 
L 24.058434 31.574115 
L 24.072858 27.348534 
L 24.163725 31.571228 
L 24.21637 9.083193 
L 24.226467 10.947884 
L 24.375748 31.651012 
L 24.322382 9.027085 
L 24.383681 30.407316 
L 24.534405 8.992352 
L 24.48176 31.619884 
L 24.54955 13.470183 
L 24.58705 31.663392 
L 24.640417 8.989181 
L 24.696668 31.437596 
L 24.746429 8.997552 
L 24.799074 31.536746 
L 24.87696 19.362665 
L 24.904364 31.656138 
L 24.957731 9.00904 
L 25.003164 30.448221 
L 25.011097 31.562859 
L 25.045713 15.015212 
L 25.063742 9.07568 
L 25.117109 31.582853 
L 25.165427 9.472656 
L 25.169754 9.061171 
L 25.200043 22.9884 
L 25.222399 31.517594 
L 25.275766 9.115568 
L 25.325526 31.336559 
L 25.328411 31.54592 
L 25.351488 22.661008 
L 25.381056 9.081668 
L 25.434423 31.452422 
L 25.481299 9.882674 
L 25.487068 9.125983 
L 25.521684 25.301476 
L 25.540434 31.626391 
L 25.59308 9.062516 
L 25.643561 31.359621 
L 25.646446 31.506806 
L 25.665918 24.601014 
L 25.699091 9.08424 
L 25.751737 31.596134 
L 25.800776 9.423416 
L 25.805103 9.052006 
L 25.83395 22.052961 
L 25.857748 31.578197 
L 25.910393 9.108906 
L 25.958712 30.991246 
L 25.963039 31.559653 
L 25.996934 16.034089 
L 26.016405 9.048813 
L 26.069772 31.555735 
L 26.11809 9.511674 
L 26.123138 9.053324 
L 26.154148 23.598333 
L 26.175783 31.658989 
L 26.22915 9.036227 
L 26.277468 31.219594 
L 26.281795 31.542091 
L 26.309199 19.585316 
L 26.335161 9.080116 
L 26.387085 31.601296 
L 26.432519 10.336519 
L 26.440452 9.028573 
L 26.480116 28.328064 
L 26.493097 31.571712 
L 26.545742 9.052435 
L 26.555839 10.84484 
L 26.70512 31.615525 
L 26.652475 9.075589 
L 26.713774 30.187427 
L 26.757766 9.059472 
L 26.810411 31.554584 
L 26.876037 11.939658 
L 26.917144 31.57483 
L 26.969789 9.058008 
L 27.028925 30.873097 
L 27.181812 9.02351 
L 27.129167 31.604903 
L 27.20489 17.97691 
L 27.235179 31.541941 
L 27.287824 9.063383 
L 27.335421 31.072247 
L 27.340469 31.670547 
L 27.374364 15.636463 
L 27.393836 9.003395 
L 27.446481 31.597049 
L 27.497684 9.124879 
L 27.499847 9.056857 
L 27.517877 15.099054 
L 27.552493 31.649634 
L 27.605859 8.9832 
L 27.659947 31.576838 
L 27.684466 20.729462 
L 27.71115 9.066477 
L 27.764516 31.608107 
L 27.812834 9.38811 
L 27.817161 8.959333 
L 27.849614 24.113598 
L 27.869807 31.635594 
L 27.923173 9.051593 
L 27.97077 31.027248 
L 27.975818 31.641821 
L 28.00755 17.032264 
L 28.029185 8.97495 
L 28.08183 31.60691 
L 28.134475 9.066548 
L 28.135196 9.066391 
L 28.13736 9.161102 
L 28.16837 24.870648 
L 28.187842 31.577775 
L 28.240487 9.019518 
L 28.290969 31.481223 
L 28.293853 31.624219 
L 28.312604 25.085881 
L 28.45251 9.064178 
L 28.399865 31.547844 
L 28.456837 9.440997 
L 28.505155 31.545566 
L 28.558522 9.109371 
L 28.633523 23.21516 
L 28.663812 9.114532 
L 28.717179 31.523048 
L 28.766939 9.353674 
L 28.769824 9.121244 
L 28.797228 20.776812 
L 28.82319 31.525429 
L 28.876557 9.090808 
L 28.924154 31.061083 
L 28.929202 31.588816 
L 28.960934 16.87599 
L 28.981847 9.091704 
L 29.035214 31.511349 
L 29.083532 9.529109 
L 29.087859 9.116149 
L 29.116706 21.984017 
L 29.141226 31.567991 
L 29.193871 9.060998 
L 29.241468 30.91498 
L 29.246516 31.509938 
L 29.277526 17.511008 
L 29.299882 9.118193 
L 29.352528 31.482523 
L 29.400846 9.571184 
L 29.405173 9.075733 
L 29.438347 24.446042 
L 29.458539 31.592074 
L 29.511185 9.128252 
L 29.561666 31.316585 
L 29.564551 31.480883 
L 29.586186 23.306931 
L 29.617196 9.103204 
L 29.669842 31.545838 
L 29.72465 9.205463 
L 29.746285 18.007465 
L 29.775853 31.458034 
L 29.82922 9.144229 
L 29.876817 30.869456 
L 29.881865 31.465033 
L 29.912875 17.552311 
L 29.935231 9.209798 
L 29.987877 31.383482 
L 30.035474 9.777764 
L 30.041243 9.158369 
L 30.070811 22.579198 
L 30.093888 31.539935 
L 30.147255 9.160213 
L 30.194852 30.934351 
L 30.199179 31.417119 
L 30.228025 19.194167 
L 30.252545 9.133978 
L 30.305912 31.560565 
L 30.351345 10.230388 
L 30.358557 9.104155 
L 30.395336 26.612698 
L 30.411923 31.471351 
L 30.464569 9.118164 
L 30.51505 31.418537 
L 30.517214 31.540408 
L 30.538128 23.991354 
L 30.57058 9.141021 
L 30.623225 31.448138 
L 30.668659 10.340311 
L 30.676592 9.152505 
L 30.715535 27.986722 
L 30.729237 31.498875 
L 30.782604 9.152669 
L 30.789815 10.31137 
L 30.835249 31.4512 
L 30.887894 9.194723 
L 30.955684 27.455239 
L 30.993906 9.104999 
L 31.047272 31.473143 
L 31.10136 9.218079 
L 31.117225 14.707896 
L 31.258574 31.492534 
L 31.205929 9.138637 
L 31.259296 31.490519 
L 31.272277 28.056387 
L 31.364586 31.343506 
L 31.415789 9.216467 
L 31.417952 9.148623 
L 31.43526 14.870202 
L 31.470598 31.497227 
L 31.523243 9.225749 
L 31.576609 31.351739 
L 31.58959 28.248713 
L 31.629255 9.141695 
L 31.6819 31.536372 
L 31.736709 9.248191 
L 31.759786 19.045852 
L 31.788633 31.355057 
L 31.841278 9.112231 
L 31.885269 30.141638 
L 31.893923 31.594736 
L 31.937914 10.745173 
L 31.94729 9.13453 
L 31.992002 30.3034 
L 31.999935 31.43067 
L 32.035272 14.802641 
L 32.05258 9.03785 
L 32.105947 31.673651 
L 32.154986 9.325307 
L 32.158592 9.008925 
L 32.186717 21.325746 
L 32.211237 31.534637 
L 32.264604 8.965018 
L 32.312201 30.947677 
L 32.31797 31.603293 
L 32.351144 15.956772 
L 32.370615 9.096614 
L 32.423982 31.532613 
L 32.4723 9.405183 
L 32.476627 9.043152 
L 32.505474 21.966997 
L 32.529272 31.628677 
L 32.581917 9.086602 
L 32.629514 30.844969 
L 32.635284 31.581991 
L 32.668458 16.038139 
L 32.687929 9.013792 
L 32.741295 31.59665 
L 32.790335 9.321957 
L 32.794662 9.013162 
L 32.821345 20.843783 
L 32.847307 31.650557 
L 32.899952 9.004922 
L 32.948992 31.190278 
L 32.953319 31.566268 
L 32.981444 19.257265 
L 33.005964 8.985748 
L 33.059331 31.753252 
L 33.105485 9.857652 
L 33.111976 9.016986 
L 33.148755 26.801965 
L 33.217987 8.9648 
L 33.268469 31.645387 
L 33.270633 31.754174 
L 33.289383 25.329085 
L 33.430011 8.934823 
L 33.377366 31.678511 
L 33.430732 8.947799 
L 33.448761 15.407496 
L 33.482656 31.782695 
L 33.536022 8.930548 
L 33.585062 31.327698 
L 33.587947 31.598375 
L 33.616072 19.72847 
L 33.641313 8.934266 
L 33.694679 31.800291 
L 33.741555 9.666844 
L 33.747325 8.944378 
L 33.781941 25.492611 
L 33.79997 31.616307 
L 33.853336 8.886871 
L 33.902376 31.523928 
L 33.906703 31.798304 
L 33.931222 21.339853 
L 33.959348 8.85645 
L 34.011993 31.702977 
L 34.061754 9.056313 
L 34.064639 8.886081 
L 34.085552 16.325532 
L 34.118005 31.77884 
L 34.17065 8.934391 
L 34.221132 31.573889 
L 34.224017 31.718017 
L 34.248536 21.640504 
L 34.277383 8.87473 
L 34.330028 31.799243 
L 34.379068 9.177417 
L 34.382674 8.89358 
L 34.408636 20.040547 
L 34.435319 31.767169 
L 34.487964 8.833862 
L 34.534119 30.693567 
L 34.54133 31.837644 
L 34.577389 14.442418 
L 34.594697 8.810953 
L 34.647342 31.823235 
L 34.697824 8.955639 
L 34.699987 8.835581 
L 34.72018 15.728467 
L 34.754075 31.750716 
L 34.80672 8.833699 
L 34.854317 31.355552 
L 34.859366 31.871672 
L 34.889655 17.746173 
L 34.912732 8.851949 
L 34.964656 31.690333 
L 35.011532 9.75419 
L 35.018022 8.844818 
L 35.051917 25.006507 
L 35.071389 31.892801 
L 35.124034 8.835119 
L 35.173795 31.576368 
L 35.176679 31.849031 
L 35.201199 21.951919 
L 35.230046 8.82809 
L 35.283412 31.875242 
L 35.332452 9.020621 
L 35.335336 8.788596 
L 35.359135 18.09878 
L 35.388703 31.725349 
L 35.441348 8.900047 
L 35.49183 31.706291 
L 35.494714 31.869759 
L 35.516349 23.579514 
L 35.548081 8.818592 
L 35.600005 31.747632 
L 35.655535 8.898992 
L 35.676449 17.800594 
L 35.706738 31.899453 
L 35.760104 8.748554 
L 35.806259 30.996601 
L 35.812749 31.869558 
L 35.848808 14.090998 
L 35.865395 8.810774 
L 35.918761 31.892198 
L 35.969243 8.886566 
L 35.972128 8.798345 
L 35.988714 14.385023 
L 36.024773 31.840236 
L 36.077418 8.890364 
L 36.128621 31.769193 
L 36.130784 31.849869 
L 36.147371 26.303368 
L 36.18343 8.831166 
L 36.236796 31.800702 
L 36.280787 10.270763 
L 36.28872 8.905376 
L 36.332711 30.177429 
L 36.342087 31.839864 
L 36.384636 10.985547 
L 36.395453 8.780719 
L 36.440887 30.8752 
L 36.448098 31.881727 
L 36.484878 13.800974 
L 36.500744 8.828123 
L 36.55411 31.764203 
L 36.605313 8.895255 
L 36.606755 8.849843 
L 36.622621 13.652353 
L 36.6594 31.821756 
L 36.712767 8.903092 
L 36.767576 31.660107 
L 36.792095 20.448238 
L 36.818779 8.863792 
L 36.872145 31.792909 
L 36.921906 9.039078 
L 36.92479 8.907442 
L 36.946425 17.154412 
L 36.977436 31.76306 
L 37.030802 8.976044 
L 37.07912 31.299601 
L 37.083447 31.722365 
L 37.111573 19.338034 
L 37.136814 8.925855 
L 37.189459 31.61289 
L 37.237056 9.572062 
L 37.242104 8.991771 
L 37.275999 24.977659 
L 37.295471 31.740902 
L 37.348116 8.981685 
L 37.40004 31.59905 
L 37.401482 31.625383 
L 37.413021 28.946458 
L 37.560139 8.919197 
L 37.507494 31.675837 
L 37.568793 10.549342 
L 37.718796 31.72536 
L 37.66543 8.975886 
L 37.731777 28.513916 
L 37.771441 8.911111 
L 37.824808 31.776318 
L 37.878174 8.94892 
L 37.889713 11.859463 
L 38.036831 31.744935 
L 37.983465 8.88891 
L 38.041879 31.089707 
L 38.195488 8.883659 
L 38.142843 31.749441 
L 38.217844 17.580865 
L 38.248133 31.770137 
L 38.300779 8.916672 
L 38.345491 30.221211 
L 38.354145 31.668568 
L 38.395252 11.786461 
L 38.40679 8.946822 
L 38.458714 31.728983 
L 38.460878 31.778891 
L 38.476022 26.954027 
L 38.513523 8.927563 
L 38.566168 31.634589 
L 38.61665 8.979815 
L 38.618814 8.88531 
L 38.636122 14.480681 
L 38.67218 31.72742 
L 38.724825 8.917449 
L 38.776028 31.702458 
L 38.777471 31.758396 
L 38.794779 26.294542 
L 38.831558 8.927988 
L 38.883482 31.734384 
L 38.930358 9.698862 
L 38.936849 8.911191 
L 38.972186 26.013952 
L 38.989494 31.694886 
L 39.04286 8.962261 
L 39.090457 31.201058 
L 39.095506 31.763128 
L 39.128679 15.938206 
L 39.148151 8.942842 
L 39.201517 31.697374 
L 39.250557 9.177643 
L 39.254162 8.891543 
L 39.280125 19.906312 
L 39.306808 31.682317 
L 39.359453 8.877048 
L 39.40705 31.001191 
L 39.412819 31.771886 
L 39.448878 14.367253 
L 39.466186 8.975949 
L 39.518831 31.693043 
L 39.5246 30.984158 
L 39.571476 8.921668 
L 39.624843 31.79541 
L 39.697681 15.956981 
L 39.730854 31.683234 
L 39.7835 8.919505 
L 39.832539 31.367944 
L 39.836866 31.780088 
L 39.865713 18.652902 
L 39.889511 8.962162 
L 39.942157 31.693399 
L 39.989754 9.622746 
L 39.995523 8.875831 
L 40.030139 25.499207 
L 40.048889 31.790097 
L 40.101535 8.911463 
L 40.151295 31.465764 
L 40.15418 31.692489 
L 40.181584 19.871765 
L 40.206825 8.922369 
L 40.260192 31.872318 
L 40.309231 9.199983 
L 40.312837 8.850522 
L 40.341684 21.654116 
L 40.418849 8.840675 
L 40.470051 31.735234 
L 40.471494 31.808739 
L 40.488802 26.459991 
L 40.52486 8.824699 
L 40.578227 31.850087 
L 40.627987 8.991527 
L 40.630872 8.843135 
L 40.653228 17.396711 
L 40.683517 31.802651 
L 40.736884 8.873488 
L 40.78376 31.044627 
L 40.790971 31.77344 
L 40.825587 14.528025 
L 40.842174 8.862371 
L 40.895541 31.831423 
L 40.945301 9.102397 
L 40.948907 8.876832 
L 40.972705 18.817094 
L 41.001552 31.813856 
L 41.054197 8.807647 
L 41.102516 31.251962 
L 41.107564 31.809526 
L 41.141459 15.530867 
L 41.160209 8.829796 
L 41.213576 31.833332 
L 41.263336 9.008039 
L 41.266221 8.828535 
L 41.290019 18.276127 
L 41.319587 31.735886 
L 41.372232 8.925408 
L 41.417666 30.720852 
L 41.424878 31.817932 
L 41.461657 14.088692 
L 41.478244 8.873257 
L 41.531611 31.677546 
L 41.582092 9.005157 
L 41.583535 8.926249 
L 41.602285 14.958733 
L 41.637622 31.820366 
L 41.690268 8.873847 
L 41.740749 31.585142 
L 41.743634 31.728672 
L 41.76599 22.716735 
L 41.796279 8.858253 
L 41.848924 31.850766 
L 41.8958 9.581224 
L 41.90157 8.835406 
L 41.936186 25.339969 
L 42.007581 8.87488 
L 42.058063 31.779071 
L 42.060948 31.904135 
L 42.080419 24.741882 
L 42.112872 8.848318 
L 42.166959 31.724166 
L 42.21672 9.003356 
L 42.220326 8.85091 
L 42.241961 17.466665 
L 42.272971 31.842602 
L 42.325616 8.833192 
L 42.368886 29.932386 
L 42.378262 31.736026 
L 42.429465 8.975815 
L 42.430907 8.911819 
L 42.446773 13.565235 
L 42.484995 31.791294 
L 42.536919 8.911839 
L 42.593891 31.439395 
L 42.748942 8.869278 
L 42.696297 31.889144 
L 42.772019 17.857879 
L 42.802308 31.791527 
L 42.854954 8.864017 
L 42.900387 30.662111 
L 42.90832 31.807206 
L 42.943657 14.562745 
L 42.960965 8.815124 
L 43.013611 31.85217 
L 43.064813 8.856778 
L 43.066977 8.779982 
L 43.083564 14.138015 
L 43.172989 8.846399 
L 43.224913 31.847706 
L 43.226355 31.85024 
L 43.22924 31.626935 
L 43.279 8.836609 
L 43.331646 31.746126 
L 43.410253 19.846902 
L 43.437657 31.862109 
L 43.490303 8.839572 
L 43.536457 30.793164 
L 43.543669 31.800189 
L 43.578285 15.067938 
L 43.596314 8.884634 
L 43.649681 31.805466 
L 43.699441 8.956391 
L 43.702326 8.819155 
L 43.722519 16.149975 
L 43.754971 31.693239 
L 43.808338 8.913321 
L 43.853771 30.73335 
L 43.860983 31.838363 
L 43.897762 13.941205 
L 43.913628 8.870517 
L 43.966994 31.729258 
L 43.977812 29.496615 
L 44.125651 8.832709 
L 44.073006 31.837331 
L 44.138632 12.070328 
L 44.285029 31.82219 
L 44.231663 8.929996 
L 44.290799 31.066298 
L 44.337675 8.860101 
L 44.39032 31.761096 
L 44.462437 15.331842 
L 44.496332 31.821915 
L 44.549698 8.870945 
L 44.60667 31.46384 
L 44.761721 8.784441 
L 44.709076 31.846151 
L 44.783356 17.180821 
L 44.813646 31.845199 
L 44.867012 8.82916 
L 44.914609 31.093081 
L 44.920378 31.818093 
L 44.957158 13.83794 
L 44.973745 8.831197 
L 45.02639 31.894459 
L 45.030717 31.471706 
L 45.079035 8.802847 
L 45.132402 31.849958 
L 45.205961 16.610099 
L 45.343704 31.901947 
L 45.290337 8.835884 
L 45.344425 31.900904 
L 45.354521 29.761287 
L 45.503082 8.741858 
L 45.449716 31.869616 
L 45.512457 10.59599 
L 45.661739 31.91572 
L 45.608373 8.807327 
L 45.671114 30.153982 
L 45.714384 8.774074 
L 45.767751 31.851024 
L 45.829771 10.459861 
L 45.979053 31.890277 
L 45.927129 8.795077 
L 45.990591 29.504684 
L 46.138431 8.781449 
L 46.085064 31.810963 
L 46.147806 10.582268 
L 46.297088 31.849039 
L 46.244443 8.850176 
L 46.307184 29.935593 
L 46.350454 8.784958 
L 46.4031 31.809107 
L 46.465841 10.720135 
L 46.615123 31.805599 
L 46.562478 8.849006 
L 46.625219 29.725724 
L 46.77378 8.865338 
L 46.721135 31.734676 
L 46.785318 11.57324 
L 46.827146 31.787711 
L 46.879791 8.898985 
L 46.936764 31.399955 
L 47.091094 8.90731 
L 47.038448 31.729145 
L 47.112008 16.390158 
L 47.14446 31.787134 
L 47.197105 8.902144 
L 47.246145 31.409195 
L 47.250472 31.77472 
L 47.28004 18.239459 
L 47.303117 8.877472 
L 47.356483 31.793769 
L 47.401917 9.934753 
L 47.409129 8.852041 
L 47.446629 27.25764 
L 47.461774 31.820363 
L 47.51514 8.858322 
L 47.564901 31.647824 
L 47.567786 31.845846 
L 47.590863 22.76225 
L 47.621152 8.842338 
L 47.673797 31.757471 
L 47.720673 9.622112 
L 47.726443 8.827211 
L 47.762501 26.157765 
L 47.779809 31.880602 
L 47.832454 8.87423 
L 47.882215 31.497763 
L 47.885821 31.751774 
L 47.911783 20.706893 
L 47.938466 8.854596 
L 47.991832 31.857142 
L 48.038708 9.593028 
L 48.044478 8.861866 
L 48.083421 28.056016 
L 48.097844 31.807255 
L 48.149768 8.783398 
L 48.159864 10.573871 
L 48.203134 31.87475 
L 48.25578 8.870541 
L 48.319243 29.855125 
L 48.362513 8.811995 
L 48.415879 31.893304 
L 48.477899 10.659588 
L 48.627181 31.892273 
L 48.574536 8.80893 
L 48.635114 30.618087 
L 48.786559 8.767982 
L 48.733193 31.771186 
L 48.804588 15.155819 
L 48.945216 31.883029 
L 48.89185 8.792326 
L 48.94738 31.770313 
L 48.972621 19.56709 
L 48.998583 8.769656 
L 49.051228 31.852244 
L 49.093777 10.806201 
L 49.103873 8.830223 
L 49.150028 30.910533 
L 49.156518 31.842814 
L 49.194019 13.579905 
L 49.209885 8.734562 
L 49.26253 31.906794 
L 49.268299 31.243826 
L 49.421908 8.740565 
L 49.368542 31.85039 
L 49.437774 13.893417 
L 49.580565 31.878419 
L 49.527199 8.776574 
L 49.582729 31.782521 
L 49.611575 17.10382 
L 49.633932 8.791011 
L 49.686577 31.763335 
L 49.73778 8.874376 
L 49.739222 8.833508 
L 49.754367 13.318349 
L 49.791867 31.890304 
L 49.845234 8.811567 
L 49.897879 31.769522 
L 49.900764 31.626908 
L 49.931774 15.605634 
L 49.951245 8.880953 
L 50.003891 31.806184 
L 50.054372 8.993521 
L 50.057257 8.865637 
L 50.076729 15.909115 
L 50.109181 31.755625 
L 50.162548 8.864268 
L 50.208702 30.793212 
L 50.215914 31.86901 
L 50.251251 14.543736 
L 50.26928 8.829974 
L 50.321926 31.775654 
L 50.333464 29.096387 
L 50.480583 8.824238 
L 50.427216 31.884595 
L 50.489958 10.584577 
L 50.63924 31.843652 
L 50.586594 8.842663 
L 50.649336 29.888819 
L 50.798618 8.819102 
L 50.745251 31.857178 
L 50.803666 9.394864 
L 50.851984 31.872633 
L 50.904629 8.862711 
L 50.976746 24.747836 
L 51.00992 8.862414 
L 51.062565 31.871464 
L 51.111604 9.288442 
L 51.115931 8.870178 
L 51.148384 24.085503 
L 51.169298 31.772569 
L 51.221943 8.799231 
L 51.26954 31.18136 
L 51.274588 31.823083 
L 51.309204 15.397347 
L 51.327955 8.842025 
L 51.3806 31.844055 
L 51.431803 8.851724 
L 51.433967 8.780659 
L 51.451275 14.547352 
L 51.539978 8.852386 
L 51.592623 31.841043 
L 51.601277 30.404275 
L 51.645269 8.8133 
L 51.698635 31.807975 
L 51.765704 12.749647 
L 51.804647 31.847332 
L 51.858013 8.784209 
L 51.907774 31.676198 
L 51.910658 31.827502 
L 51.931572 23.866275 
L 51.964025 8.856119 
L 52.015949 31.83798 
L 52.066431 8.986665 
L 52.069315 8.832956 
L 52.091672 17.38961 
L 52.121961 31.72353 
L 52.175327 8.904747 
L 52.222203 31.106716 
L 52.228694 31.857848 
L 52.264031 14.385821 
L 52.280618 8.867244 
L 52.333984 31.73705 
L 52.385187 8.958916 
L 52.38735 8.889077 
L 52.403937 14.243552 
L 52.439996 31.813628 
L 52.492641 8.863345 
L 52.544565 31.750398 
L 52.546007 31.7884 
L 52.560431 27.814171 
L 52.652019 31.796504 
L 52.703943 8.912355 
L 52.704664 8.886919 
L 52.717645 12.255876 
L 52.864042 31.843406 
L 52.810676 8.922248 
L 52.870533 30.922575 
L 53.022699 8.881787 
L 52.970054 31.760746 
L 53.040007 14.641128 
L 53.075345 31.80112 
L 53.128711 8.890253 
L 53.182077 31.671206 
L 53.200107 25.25326 
L 53.234002 8.878223 
L 53.287368 31.701492 
L 53.340013 8.96173 
L 53.35011 10.892708 
L 53.499391 31.744964 
L 53.446025 8.908872 
L 53.508045 30.264943 
L 53.657327 8.860944 
L 53.604682 31.708478 
L 53.665981 10.233752 
L 53.817426 31.765943 
L 53.76406 8.921969 
L 53.83185 27.405377 
L 53.870072 8.829591 
L 53.922717 31.7249 
L 53.974641 8.96713 
L 53.975362 8.948923 
L 53.98618 11.155442 
L 54.028728 31.77175 
L 54.081374 8.846883 
L 54.141952 30.617725 
L 54.293397 8.838496 
L 54.240031 31.671958 
L 54.311426 14.906797 
L 54.346764 31.778719 
L 54.399409 8.961724 
L 54.454218 31.603484 
L 54.484507 16.540476 
L 54.50542 8.882841 
L 54.558066 31.677992 
L 54.605663 9.591413 
L 54.610711 8.970656 
L 54.644606 24.971931 
L 54.664077 31.729015 
L 54.717444 8.91486 
L 54.766483 31.451038 
L 54.770089 31.717739 
L 54.796051 20.66281 
L 54.823455 9.014935 
L 54.87538 31.68258 
L 54.92514 9.195208 
L 54.929467 8.919688 
L 54.953987 19.564952 
L 54.982112 31.671158 
L 55.034758 8.981645 
L 55.078749 30.196368 
L 55.087403 31.727591 
L 55.127788 12.239899 
L 55.193415 31.679332 
L 55.245339 8.91572 
L 55.246781 8.89576 
L 55.256877 11.099206 
L 55.299426 31.815208 
L 55.352793 8.951564 
L 55.411207 30.996312 
L 55.564095 8.968803 
L 55.510728 31.770234 
L 55.585009 16.55963 
L 55.61674 31.653197 
L 55.64126 21.945322 
" clip-path="url(#p50b0feaf29)" style="fill: none; stroke: #f08080; stroke-width: 0.04; stroke-linecap: square"/>
   </g>
   <g id="patch_3">
    <path d="M 0.72 40.008189 
L 0.72 0.72 
" style="fill: none; stroke: #f08080; stroke-width: 0.5; stroke-linejoin: miter; stroke-linecap: square"/>
   </g>
   <g id="patch_4">
    <path d="M 55.64126 40.008189 
L 55.64126 0.72 
" style="fill: none; stroke: #f08080; stroke-width: 0.5; stroke-linejoin: miter; stroke-linecap: square"/>
   </g>
   <g id="patch_5">
    <path d="M 0.72 40.008189 
L 55.64126 40.008189 
" style="fill: none; stroke: #f08080; stroke-width: 0.5; stroke-linejoin: miter; stroke-linecap: square"/>
   </g>
   <g id="patch_6">
    <path d="M 0.72 0.72 
L 55.64126 0.72 
" style="fill: none; stroke: #f08080; stroke-width: 0.5; stroke-linejoin: miter; stroke-linecap: square"/>
   </g>
  </g>
 </g>
 <defs>
  <clipPath id="p50b0feaf29">
   <rect x="0.72" y="0.72" width="54.92126" height="39.288189"/>
  </clipPath>
 </defs>
</svg>
