<?xml version="1.0" encoding="utf-8" standalone="no"?>
<!DOCTYPE svg PUBLIC "-//W3C//DTD SVG 1.1//EN"
  "http://www.w3.org/Graphics/SVG/1.1/DTD/svg11.dtd">
<svg height="43.462835pt" version="1.1" viewBox="0 0 59.86126 43.462835" width="59.86126pt" xmlns="http://www.w3.org/2000/svg" xmlns:xlink="http://www.w3.org/1999/xlink">
 <metadata>
  <rdf:RDF xmlns:cc="http://creativecommons.org/ns#" xmlns:dc="http://purl.org/dc/elements/1.1/" xmlns:rdf="http://www.w3.org/1999/02/22-rdf-syntax-ns#">
   <cc:Work>
    <dc:type rdf:resource="http://purl.org/dc/dcmitype/StillImage"/>
    <dc:date>2025-02-16T20:28:53.994363</dc:date>
    <dc:format>image/svg+xml</dc:format>
    <dc:creator>
     <cc:Agent>
      <dc:title>Matplotlib v3.4.3, https://matplotlib.org/</dc:title>
     </cc:Agent>
    </dc:creator>
   </cc:Work>
  </rdf:RDF>
 </metadata>
 <defs>
  <style type="text/css">*{stroke-linecap:butt;stroke-linejoin:round;}</style>
 </defs>
 <g id="figure_1">
  <g id="patch_1">
   <path d="M 0 43.462835 
L 59.86126 43.462835 
L 59.86126 0 
L 0 0 
z
" style="fill:none;"/>
  </g>
  <g id="axes_1">
   <g id="patch_2">
    <path d="M 4.22 39.242835 
L 59.14126 39.242835 
L 59.14126 0.72 
L 4.22 0.72 
z
" style="fill:#ffffff;"/>
   </g>
   <g id="matplotlib.axis_1"/>
   <g id="matplotlib.axis_2"/>
   <g id="line2d_1">
    <path clip-path="url(#pdb444619db)" d="M 4.22 18.621503 
L 4.222885 18.620436 
L 4.243799 19.682019 
L 4.27553 21.414754 
L 4.326012 18.646744 
L 4.372166 21.186246 
L 4.382263 21.395504 
L 4.425533 18.770593 
L 4.432023 18.585321 
L 4.483947 21.266431 
L 4.486111 21.288195 
L 4.511352 20.174162 
L 4.644047 18.45885 
L 4.59068 21.378075 
L 4.64621 18.47737 
L 4.698855 21.432722 
L 4.824339 20.363081 
L 4.85607 18.450337 
L 4.907994 21.528613 
L 4.951985 18.803159 
L 4.961361 18.585721 
L 5.013285 21.482973 
L 5.014006 21.481754 
L 5.015448 21.487808 
L 5.026266 21.165621 
L 5.067372 18.456494 
L 5.118575 21.444769 
L 5.182759 18.874398 
L 5.223866 21.60853 
L 5.278674 18.280646 
L 5.324108 21.48093 
L 5.330599 21.613 
L 5.363772 19.498202 
L 5.383244 18.561456 
L 5.434447 21.571457 
L 5.440216 21.543194 
L 5.469063 19.37349 
L 5.488534 18.355471 
L 5.536131 21.559107 
L 5.543343 21.651855 
L 5.571469 19.705761 
L 5.594546 18.367754 
L 5.64647 21.637384 
L 5.694788 18.573091 
L 5.702 18.434088 
L 5.725077 19.882463 
L 5.857051 21.785839 
L 5.806569 18.234541 
L 5.858493 21.778834 
L 5.859215 21.797129 
L 5.889504 19.774131 
L 5.964505 21.768848 
L 6.012823 18.336162 
L 6.01715 18.261817 
L 6.047439 20.430894 
L 6.067632 21.766888 
L 6.123162 18.314507 
L 6.167874 21.659481 
L 6.175807 21.882897 
L 6.21475 18.693196 
L 6.228453 18.112695 
L 6.279655 21.82395 
L 6.281098 21.837075 
L 6.299848 20.834165 
L 6.439034 17.909612 
L 6.387109 21.946727 
L 6.447688 18.119159 
L 6.4924 21.934133 
L 6.60995 21.444585 
L 6.648893 17.93894 
L 6.702981 22.058281 
L 6.761396 18.164844 
L 6.809714 22.081095 
L 6.86308 17.931479 
L 6.863801 17.925086 
L 6.878225 18.760385 
L 7.021016 22.173556 
L 6.96765 18.022628 
L 7.022458 22.152251 
L 7.075104 17.78643 
L 7.125585 22.166982 
L 7.205635 20.133168 
L 7.232318 22.236696 
L 7.287848 17.81282 
L 7.332561 22.201547 
L 7.337609 22.32751 
L 7.375831 18.543677 
L 7.390975 17.738107 
L 7.441457 22.260887 
L 7.442899 22.288351 
L 7.463813 20.882531 
L 7.549632 22.32224 
L 7.600835 17.653477 
L 7.602277 17.644708 
L 7.613816 18.154912 
L 7.707568 17.842295 
L 7.760934 22.329413 
L 7.786175 20.066398 
L 7.813579 17.695687 
L 7.866225 22.404757 
L 7.913822 17.815656 
L 7.91887 17.749788 
L 7.944832 19.969551 
L 7.971515 22.453209 
L 8.024882 17.541484 
L 8.069594 22.138318 
L 8.077527 22.467364 
L 8.12296 17.979604 
L 8.131614 17.615367 
L 8.177769 22.353945 
L 8.183539 22.526761 
L 8.22753 17.743155 
L 8.236905 17.417166 
L 8.274406 21.589612 
L 8.28955 22.513025 
L 8.342196 17.576357 
L 8.393398 22.488884 
L 8.396283 22.504209 
L 8.407822 21.781267 
L 8.448928 17.49754 
L 8.500131 22.541564 
L 8.556382 17.575115 
L 8.593883 21.893285 
L 8.606864 22.620614 
L 8.658788 17.487957 
L 8.663115 17.542464 
L 8.688356 20.351795 
L 8.711433 22.586457 
L 8.7648 17.503932 
L 8.812397 22.557436 
L 8.817445 22.694892 
L 8.856388 18.335944 
L 8.871533 17.311699 
L 8.924178 22.638574 
L 8.973939 17.445507 
L 8.976102 17.401412 
L 8.998458 19.420892 
L 9.083556 17.33967 
L 9.133317 22.680585 
L 9.136201 22.689436 
L 9.151346 21.570097 
L 9.188125 17.306259 
L 9.241492 22.687667 
L 9.28981 17.383982 
L 9.293416 17.273164 
L 9.32659 21.017032 
L 9.399428 17.213733 
L 9.452073 22.868283 
L 9.462169 22.455003 
L 9.611451 17.239296 
L 9.559527 22.780465 
L 9.622268 17.784784 
L 9.770108 22.837624 
L 9.718184 17.234964 
L 9.781647 22.217233 
L 9.928044 17.194131 
L 9.87612 22.806415 
L 9.938861 17.696293 
L 10.035498 17.080726 
L 10.086701 22.926649 
L 10.097518 22.447495 
L 10.245358 17.002515 
L 10.193433 22.894472 
L 10.25329 17.305281 
L 10.299445 23.061175 
L 10.352812 16.934306 
L 10.421322 21.795854 
L 10.563393 16.851018 
L 10.510747 23.140706 
L 10.566998 16.917468 
L 10.595124 21.009832 
L 10.670125 16.734678 
L 10.719165 23.240172 
L 10.722049 23.298554 
L 10.745127 20.747765 
L 10.774695 16.731837 
L 10.828061 23.20907 
L 10.874937 16.913576 
L 10.880706 16.678137 
L 10.911717 20.867547 
L 10.934073 23.447266 
L 10.986718 16.607524 
L 11.033594 23.150292 
L 11.039363 23.38993 
L 11.071816 18.993606 
L 11.093451 16.555641 
L 11.144654 23.499926 
L 11.193693 16.652434 
L 11.198741 16.508275 
L 11.226146 20.298615 
L 11.251387 23.594753 
L 11.304753 16.430408 
L 11.350908 23.37405 
L 11.357398 23.630253 
L 11.387687 19.105231 
L 11.410044 16.3501 
L 11.46341 23.703435 
L 11.512449 16.427805 
L 11.515334 16.351241 
L 11.540575 19.713547 
L 11.569422 23.726593 
L 11.620625 16.303756 
L 11.666058 23.317416 
L 11.674712 23.763658 
L 11.71654 16.978896 
L 11.726636 16.291429 
L 11.773512 23.454779 
L 11.780003 23.809622 
L 11.81534 18.130666 
L 11.83409 16.225492 
L 11.885293 23.918831 
L 11.894668 23.454301 
L 12.045392 16.116104 
L 11.992026 23.916801 
L 12.057652 17.080951 
L 12.204049 24.050035 
L 12.151404 16.005289 
L 12.205492 24.019466 
L 12.206213 24.022058 
L 12.211261 23.63857 
L 12.363428 15.902981 
L 12.310782 24.121544 
L 12.372803 16.538227 
L 12.522084 24.283737 
L 12.468718 15.786087 
L 12.534344 23.095981 
L 12.68002 15.645346 
L 12.627375 24.353256 
L 12.683626 15.757442 
L 12.838677 24.393086 
L 12.786753 15.65762 
L 12.863197 20.630844 
L 12.892044 15.51782 
L 12.944689 24.431984 
L 12.993007 15.699623 
L 12.998055 15.504893 
L 13.029065 21.354609 
L 13.0507 24.561125 
L 13.103346 15.392787 
L 13.153106 24.484294 
L 13.156712 24.574901 
L 13.180511 20.682204 
L 13.208636 15.38619 
L 13.263445 24.64772 
L 13.311042 15.43433 
L 13.31609 15.281613 
L 13.344216 20.667267 
L 13.368014 24.631254 
L 13.422102 15.219768 
L 13.467536 24.385722 
L 13.473305 24.744318 
L 13.5072 18.116728 
L 13.526671 15.192668 
L 13.580038 24.735789 
L 13.627635 15.449797 
L 13.632683 15.193496 
L 13.665136 21.566361 
L 13.686049 24.854241 
L 13.739416 15.037947 
L 13.787734 24.728349 
L 13.79134 24.873885 
L 13.818023 20.072727 
L 13.845427 15.106813 
L 13.89663 24.94169 
L 13.944227 15.270595 
L 13.951439 14.973704 
L 13.981007 21.133298 
L 14.003363 24.995774 
L 14.057451 14.82172 
L 14.10649 24.975058 
L 14.110096 25.053217 
L 14.127404 22.437268 
L 14.162741 14.852761 
L 14.214665 25.113582 
L 14.265868 14.897742 
L 14.268032 14.837768 
L 14.29183 19.039497 
L 14.373322 14.657327 
L 14.424525 25.240331 
L 14.426689 25.307079 
L 14.44616 22.278614 
L 14.479334 14.684647 
L 14.5327 25.328192 
L 14.579576 14.926567 
L 14.586788 14.605816 
L 14.617077 21.464126 
L 14.639433 25.402671 
L 14.692079 14.450912 
L 14.741839 25.346119 
L 14.744003 25.422294 
L 14.764917 21.942398 
L 14.851457 25.547057 
L 14.899775 14.514126 
L 14.904102 14.394549 
L 14.925016 18.368617 
L 14.956747 25.570635 
L 15.010114 14.306795 
L 15.054826 25.102114 
L 15.061316 25.665184 
L 15.100981 16.193852 
L 15.114683 14.304552 
L 15.167328 25.706262 
L 15.175982 25.055512 
L 15.326706 14.123193 
L 15.274782 25.832817 
L 15.34113 16.096611 
L 15.486084 25.965775 
L 15.432718 14.070863 
L 15.490411 25.715202 
L 15.53873 13.901962 
L 15.592096 26.007021 
L 15.663492 17.262581 
L 15.698108 26.127708 
L 15.750753 13.867377 
L 15.79835 25.805536 
L 15.804119 26.08239 
L 15.83513 18.154401 
L 15.856043 13.810313 
L 15.908689 26.205579 
L 15.957728 13.923232 
L 15.961334 13.745132 
L 15.988017 19.868954 
L 16.0147 26.220873 
L 16.067346 13.775194 
L 16.1135 25.720076 
L 16.120712 26.285918 
L 16.158934 15.831412 
L 16.173357 13.672624 
L 16.226003 26.337157 
L 16.275763 13.849042 
L 16.279369 13.684482 
L 16.305331 19.806051 
L 16.332014 26.434393 
L 16.385381 13.56432 
L 16.430814 25.810305 
L 16.438747 26.434061 
L 16.475527 16.156075 
L 16.490671 13.502128 
L 16.544759 26.520773 
L 16.593077 13.631693 
L 16.596683 13.470557 
L 16.621203 19.100006 
L 16.65077 26.594809 
L 16.702695 13.426895 
L 16.748128 25.930435 
L 16.75534 26.627106 
L 16.793562 15.77165 
L 16.809427 13.344401 
L 16.861351 26.761584 
L 16.910391 13.565567 
L 16.913997 13.335479 
L 16.942122 20.424335 
L 16.968084 26.802523 
L 17.02073 13.198247 
L 17.069769 26.749257 
L 17.073375 26.942437 
L 17.097895 20.867945 
L 17.126741 13.12849 
L 17.180108 26.980246 
L 17.226984 13.37891 
L 17.232753 13.067774 
L 17.2616 21.228378 
L 17.285398 27.158358 
L 17.338765 12.947322 
L 17.388525 27.050914 
L 17.390689 27.156649 
L 17.414487 21.295682 
L 17.444055 12.891796 
L 17.497422 27.303957 
L 17.548624 12.9277 
L 17.549346 12.909228 
L 17.56449 15.272226 
L 17.708724 27.388053 
L 17.655357 12.74658 
L 17.71233 27.219389 
L 17.748388 14.848546 
L 17.761369 12.73075 
L 17.809687 27.077722 
L 17.814735 27.427186 
L 17.847909 17.154863 
L 17.867381 12.627132 
L 17.920747 27.557208 
L 17.968344 12.966283 
L 17.973392 12.565894 
L 18.00873 23.690582 
L 18.079404 12.478014 
L 18.130607 27.585293 
L 18.13277 27.641434 
L 18.147915 24.521966 
L 18.291427 12.360127 
L 18.238061 27.695369 
L 18.296476 12.771811 
L 18.450084 27.896667 
L 18.397439 12.299751 
L 18.468113 23.714803 
L 18.608741 12.145455 
L 18.556817 27.947816 
L 18.610184 12.157971 
L 18.631097 17.877023 
L 18.662108 28.014612 
L 18.714753 12.072854 
L 18.763071 27.746074 
L 18.767398 28.087543 
L 18.79913 17.715 
L 18.820765 12.044142 
L 18.87341 28.116434 
L 18.920286 12.602231 
L 18.926776 11.950077 
L 18.962835 24.302433 
L 19.032788 11.912294 
L 19.084712 28.240119 
L 19.085433 28.258025 
L 19.098414 25.821179 
L 19.1388 11.824538 
L 19.191445 28.287427 
L 19.241927 11.881989 
L 19.244811 11.781399 
L 19.26861 18.823249 
L 19.297457 28.367238 
L 19.350102 11.706007 
L 19.394093 27.129372 
L 19.402747 28.410938 
L 19.448902 12.437142 
L 19.456113 11.657888 
L 19.493614 24.942831 
L 19.561404 11.567606 
L 19.614049 28.483612 
L 19.61477 28.495814 
L 19.624867 26.992568 
L 19.773427 11.404144 
L 19.720782 28.582639 
L 19.782803 12.742415 
L 19.932084 28.703424 
L 19.88016 11.315283 
L 19.942902 27.109462 
L 20.092184 11.180707 
L 20.038817 28.778867 
L 20.097232 11.748355 
L 20.250119 28.890367 
L 20.197474 11.083881 
L 20.270312 23.259784 
L 20.303486 11.034588 
L 20.356131 29.020349 
L 20.407334 11.042474 
L 20.409497 10.97755 
L 20.427527 15.779551 
L 20.462143 29.029004 
L 20.514788 10.898151 
L 20.563827 28.757461 
L 20.567433 29.059836 
L 20.594838 19.921848 
L 20.621521 10.864223 
L 20.674166 29.157005 
L 20.721763 11.31671 
L 20.727532 10.813193 
L 20.759985 23.263849 
L 20.779456 29.20382 
L 20.832823 10.678883 
L 20.881141 28.850398 
L 20.886189 29.267691 
L 20.915757 18.204738 
L 20.938835 10.658205 
L 20.99148 29.372454 
L 21.038356 11.376955 
L 21.044846 10.599923 
L 21.080905 24.858175 
L 21.150858 10.497935 
L 21.202782 29.462556 
L 21.203503 29.462889 
L 21.205667 29.386868 
L 21.233071 18.425405 
L 21.25687 10.496661 
L 21.309515 29.507979 
L 21.354948 11.568093 
L 21.362881 10.532845 
L 21.40543 27.805816 
L 21.416248 29.456426 
L 21.465287 10.655978 
L 21.468893 10.442848 
L 21.493413 19.107749 
L 21.521538 29.556018 
L 21.574183 10.420148 
L 21.618896 28.398719 
L 21.62755 29.615008 
L 21.667214 13.297575 
L 21.680195 10.35899 
L 21.728513 29.145502 
L 21.733562 29.613783 
L 21.771062 14.061053 
L 21.786207 10.305925 
L 21.839573 29.667731 
L 21.851112 27.303862 
L 21.99823 10.188565 
L 21.945585 29.742555 
L 22.001115 10.342539 
L 22.040779 28.00316 
L 22.050875 29.736829 
L 22.097751 10.883689 
L 22.104242 10.167633 
L 22.141021 25.578165 
L 22.156887 29.835664 
L 22.209532 10.160148 
L 22.259293 29.661476 
L 22.262899 29.821099 
L 22.285976 21.853551 
L 22.315544 10.043564 
L 22.368189 29.848611 
L 22.418671 10.212161 
L 22.421556 10.04826 
L 22.446075 18.748627 
L 22.474201 29.916589 
L 22.527567 10.060763 
L 22.57228 28.722117 
L 22.580934 29.903105 
L 22.620598 12.891084 
L 22.632858 9.971355 
L 22.686224 29.939403 
L 22.693436 29.079747 
L 22.845602 9.912099 
L 22.792236 30.014509 
L 22.858583 13.113701 
L 23.004259 30.064031 
L 22.951614 9.844288 
L 23.014356 28.301119 
L 23.162916 9.818877 
L 23.110271 30.09437 
L 23.175176 12.44048 
L 23.321573 30.140087 
L 23.268928 9.788361 
L 23.323016 30.119818 
L 23.341045 24.125117 
L 23.374218 9.777971 
L 23.427585 30.156417 
L 23.476624 10.006933 
L 23.48023 9.732933 
L 23.506913 19.850507 
L 23.533597 30.113449 
L 23.586963 9.719887 
L 23.632397 29.313956 
L 23.638887 30.145855 
L 23.680715 12.282076 
L 23.692253 9.784562 
L 23.74562 30.140782 
L 23.746341 30.117129 
L 23.762207 25.300935 
L 23.798265 9.685539 
L 23.851632 30.183623 
L 23.901392 9.845828 
L 23.904277 9.663723 
L 23.927354 17.909038 
L 23.957643 30.247783 
L 24.010289 9.678516 
L 24.059328 29.966462 
L 24.062934 30.186161 
L 24.086732 21.682563 
L 24.168945 30.197568 
L 24.22087 9.662293 
L 24.222312 9.643735 
L 24.232408 11.645566 
L 24.274957 30.276141 
L 24.327602 9.609137 
L 24.387459 29.555226 
L 24.539626 9.510033 
L 24.486259 30.30166 
L 24.551886 12.259924 
L 24.592992 30.426449 
L 24.645637 9.466656 
L 24.701167 30.252134 
L 24.732899 15.180743 
L 24.751649 9.462598 
L 24.804294 30.504128 
L 24.855497 9.498008 
L 24.85694 9.405529 
L 24.877853 16.287989 
L 24.963672 9.393356 
L 25.016318 30.491264 
L 25.027135 28.359265 
L 25.174975 9.380491 
L 25.122329 30.485037 
L 25.18435 11.018055 
L 25.334353 30.486951 
L 25.280986 9.412573 
L 25.343007 28.973034 
L 25.49301 9.284115 
L 25.440364 30.618159 
L 25.50527 12.193276 
L 25.651667 30.620006 
L 25.599021 9.230874 
L 25.652388 30.607682 
L 25.665369 27.227263 
L 25.810324 9.198205 
L 25.757678 30.674544 
L 25.813208 9.331321 
L 25.855757 29.590788 
L 25.86369 30.632895 
L 25.900469 13.767748 
L 25.916335 9.230215 
L 25.96898 30.661426 
L 25.979798 28.659396 
L 26.128359 9.173309 
L 26.074992 30.711981 
L 26.139897 11.787781 
L 26.181004 30.729412 
L 26.233649 9.113485 
L 26.293506 29.968011 
L 26.445672 9.057609 
L 26.393027 30.815652 
L 26.466586 16.260122 
L 26.604329 30.847907 
L 26.551684 9.095104 
L 26.606493 30.750837 
L 26.633897 18.25823 
L 26.657696 9.062689 
L 26.710341 30.767193 
L 26.757217 9.810289 
L 26.763707 9.071036 
L 26.795439 23.299844 
L 26.816353 30.846671 
L 26.869719 8.999538 
L 26.917316 30.36301 
L 26.923086 30.864103 
L 26.951211 18.443586 
L 26.97501 8.971003 
L 27.028376 30.896843 
L 27.076694 9.3922 
L 27.081742 8.960705 
L 27.11131 22.350406 
L 27.133667 30.853415 
L 27.187033 8.981835 
L 27.236072 30.620244 
L 27.239678 30.966113 
L 27.269246 18.362156 
L 27.293045 8.951907 
L 27.34569 30.840697 
L 27.393287 9.587922 
L 27.399056 8.952919 
L 27.430067 22.997464 
L 27.505068 8.924432 
L 27.556271 30.926893 
L 27.558434 30.973061 
L 27.572858 26.829796 
L 27.663725 30.97023 
L 27.71637 8.920274 
L 27.726467 10.74864 
L 27.875748 31.04846 
L 27.822382 8.865259 
L 27.883681 29.828992 
L 28.034405 8.831202 
L 27.98176 31.017938 
L 28.04955 13.221803 
L 28.08705 31.060598 
L 28.140417 8.828093 
L 28.196668 30.839202 
L 28.246429 8.836301 
L 28.299074 30.93642 
L 28.37696 18.999496 
L 28.404364 31.053486 
L 28.457731 8.847566 
L 28.503164 29.8691 
L 28.511097 30.962024 
L 28.545713 14.736734 
L 28.563742 8.912907 
L 28.617109 30.981629 
L 28.665427 9.30215 
L 28.669754 8.898681 
L 28.700043 22.5546 
L 28.722399 30.917641 
L 28.775766 8.952018 
L 28.825526 30.740133 
L 28.828411 30.945415 
L 28.851488 22.233586 
L 28.881056 8.918779 
L 28.934423 30.853739 
L 28.981299 9.704181 
L 28.987068 8.96223 
L 29.021684 24.822617 
L 29.040434 31.024318 
L 29.09308 8.9 
L 29.143561 30.762745 
L 29.146446 30.907063 
L 29.165918 24.135799 
L 29.199091 8.921301 
L 29.251737 30.994651 
L 29.300776 9.253869 
L 29.305103 8.889694 
L 29.33395 21.637384 
L 29.357748 30.977063 
L 29.410393 8.945486 
L 29.458712 30.401546 
L 29.463039 30.958881 
L 29.496934 15.735763 
L 29.516405 8.886563 
L 29.569772 30.955038 
L 29.61809 9.340407 
L 29.623138 8.890987 
L 29.654148 23.152651 
L 29.675783 31.056281 
L 29.72915 8.874222 
L 29.777468 30.625446 
L 29.781795 30.941661 
L 29.809199 19.21781 
L 29.835161 8.917256 
L 29.887085 30.999712 
L 29.932519 10.149185 
L 29.940452 8.866717 
L 29.980116 27.790245 
L 29.993097 30.970705 
L 30.045742 8.890115 
L 30.055839 10.647603 
L 30.20512 31.013664 
L 30.152475 8.912817 
L 30.213774 29.613386 
L 30.257766 8.897015 
L 30.310411 30.95391 
L 30.376037 11.721094 
L 30.417144 30.973762 
L 30.469789 8.89558 
L 30.528925 30.285699 
L 30.681812 8.861753 
L 30.629167 31.003249 
L 30.70489 17.640736 
L 30.735179 30.941513 
L 30.787824 8.90085 
L 30.835421 30.480969 
L 30.840469 31.067614 
L 30.874364 15.345882 
L 30.893836 8.84203 
L 30.946481 30.995548 
L 30.997684 8.961147 
L 30.999847 8.89445 
L 31.017877 14.818943 
L 31.052493 31.047108 
L 31.105859 8.822228 
L 31.159947 30.975731 
L 31.184466 20.339668 
L 31.21115 8.903883 
L 31.264516 31.006391 
L 31.312834 9.219251 
L 31.317161 8.798827 
L 31.349614 23.657879 
L 31.369807 31.033343 
L 31.423173 8.889289 
L 31.47077 30.436847 
L 31.475818 31.039447 
L 31.50755 16.714492 
L 31.529185 8.814139 
L 31.58183 31.005217 
L 31.634475 8.903953 
L 31.635196 8.903799 
L 31.63736 8.996665 
L 31.66837 24.400181 
L 31.687842 30.976649 
L 31.740487 8.857839 
L 31.790969 30.881978 
L 31.793853 31.022189 
L 31.812604 24.611221 
L 31.95251 8.901629 
L 31.899865 30.947302 
L 31.956837 9.271107 
L 32.005155 30.945068 
L 32.058522 8.945942 
L 32.133523 22.776943 
L 32.163812 8.951002 
L 32.217179 30.922989 
L 32.266939 9.185485 
L 32.269824 8.957584 
L 32.297228 20.386095 
L 32.32319 30.925323 
L 32.376557 8.927741 
L 32.424154 30.470023 
L 32.429202 30.987475 
L 32.460934 16.561263 
L 32.481847 8.928619 
L 32.535214 30.911518 
L 32.583532 9.357503 
L 32.587859 8.952587 
L 32.616706 21.569783 
L 32.641226 30.967056 
L 32.693871 8.898511 
L 32.741468 30.326766 
L 32.746516 30.910134 
L 32.777526 17.18391 
L 32.799882 8.954592 
L 32.852528 30.883253 
L 32.900846 9.398758 
L 32.905173 8.912959 
L 32.938347 23.983846 
L 32.958539 30.99067 
L 33.011185 8.964455 
L 33.061666 30.720547 
L 33.064551 30.881645 
L 33.086186 22.866926 
L 33.117196 8.939895 
L 33.169842 30.945335 
L 33.22465 9.040162 
L 33.246285 17.670696 
L 33.275853 30.859241 
L 33.32922 8.98012 
L 33.376817 30.282129 
L 33.381865 30.866104 
L 33.412875 17.224409 
L 33.435231 9.044412 
L 33.487877 30.786142 
L 33.535474 9.601314 
L 33.541243 8.993986 
L 33.570811 22.153369 
L 33.593888 30.939547 
L 33.647255 8.995793 
L 33.694852 30.34576 
L 33.699179 30.819123 
L 33.728025 18.83428 
L 33.752545 8.97007 
L 33.805912 30.959775 
L 33.851345 10.045121 
L 33.858557 8.940827 
L 33.895336 26.108295 
L 33.911923 30.872298 
L 33.964569 8.954564 
L 34.01505 30.820513 
L 34.017214 30.94001 
L 34.038128 23.538016 
L 34.07058 8.976975 
L 34.123225 30.849538 
L 34.168659 10.152902 
L 34.176592 8.988235 
L 34.215535 27.455552 
L 34.229237 30.899286 
L 34.282604 8.988397 
L 34.289815 10.124526 
L 34.335249 30.85254 
L 34.387894 9.029631 
L 34.455684 26.934423 
L 34.493906 8.941655 
L 34.547272 30.874056 
L 34.60136 9.052532 
L 34.617225 14.435405 
L 34.758574 30.893069 
L 34.705929 8.974637 
L 34.759296 30.891093 
L 34.772277 27.52386 
L 34.864586 30.746944 
L 34.915789 9.050952 
L 34.917952 8.984429 
L 34.93526 14.594548 
L 34.970598 30.897671 
L 35.023243 9.060052 
L 35.076609 30.755017 
L 35.08959 27.712439 
L 35.129255 8.977636 
L 35.1819 30.936053 
L 35.236709 9.082057 
L 35.259786 18.688855 
L 35.288633 30.75827 
L 35.341278 8.948746 
L 35.385269 29.568489 
L 35.393923 30.993281 
L 35.437914 10.549877 
L 35.44729 8.97061 
L 35.492002 29.7271 
L 35.499935 30.83241 
L 35.535272 14.528303 
L 35.55258 8.875814 
L 35.605947 31.070658 
L 35.654986 9.157672 
L 35.658592 8.847452 
L 35.686717 20.924335 
L 35.711237 30.934352 
L 35.764604 8.804401 
L 35.812201 30.358826 
L 35.81797 31.001671 
L 35.851144 15.659952 
L 35.870615 8.933433 
L 35.923982 30.932368 
L 35.9723 9.235992 
L 35.976627 8.881013 
L 36.005474 21.553095 
L 36.029272 31.02656 
L 36.081917 8.923616 
L 36.129514 30.258119 
L 36.135284 30.980783 
L 36.168458 15.739733 
L 36.187929 8.852225 
L 36.241295 30.995156 
L 36.290335 9.154387 
L 36.294662 8.851607 
L 36.321345 20.451762 
L 36.347307 31.048014 
L 36.399952 8.843528 
L 36.448992 30.596701 
L 36.453319 30.965366 
L 36.481444 18.896149 
L 36.505964 8.824726 
L 36.559331 31.148708 
L 36.605485 9.679646 
L 36.611976 8.855356 
L 36.648755 26.293875 
L 36.717987 8.804187 
L 36.768469 31.042945 
L 36.770633 31.149613 
L 36.789383 24.849687 
L 36.930011 8.774794 
L 36.877366 31.075423 
L 36.930732 8.787517 
L 36.948761 15.121376 
L 36.982656 31.177578 
L 37.036022 8.770602 
L 37.085062 30.731444 
L 37.087947 30.996848 
L 37.116072 19.358175 
L 37.141313 8.774247 
L 37.194679 31.194831 
L 37.241555 9.492555 
L 37.247325 8.784163 
L 37.281941 25.010027 
L 37.29997 31.014431 
L 37.353336 8.727776 
L 37.402376 30.923852 
L 37.406703 31.192882 
L 37.431222 20.938167 
L 37.459348 8.697948 
L 37.511993 31.099412 
L 37.561754 8.893917 
L 37.564639 8.727001 
L 37.585552 16.021528 
L 37.618005 31.173798 
L 37.67065 8.77437 
L 37.721132 30.97284 
L 37.724017 31.114159 
L 37.748536 21.232961 
L 37.777383 8.715872 
L 37.830028 31.193803 
L 37.879068 9.012662 
L 37.882674 8.734355 
L 37.908636 19.664172 
L 37.935319 31.162354 
L 37.987964 8.6758 
L 38.034119 30.109666 
L 38.04133 31.231456 
L 38.077389 14.175098 
L 38.094697 8.653337 
L 38.147342 31.217328 
L 38.197824 8.795204 
L 38.199987 8.677485 
L 38.22018 15.436094 
L 38.254075 31.146222 
L 38.30672 8.67564 
L 38.354317 30.758756 
L 38.359366 31.264821 
L 38.389655 17.414495 
L 38.412732 8.693534 
L 38.464656 31.087015 
L 38.511532 9.578199 
L 38.518022 8.686543 
L 38.551917 24.533393 
L 38.571389 31.285538 
L 38.624034 8.677032 
L 38.673795 30.97527 
L 38.676679 31.242621 
L 38.701199 21.53831 
L 38.730046 8.67014 
L 38.783412 31.268322 
L 38.832452 8.85892 
L 38.835336 8.631416 
L 38.859135 17.760232 
L 38.888703 31.121349 
L 38.941348 8.740695 
L 38.99183 31.102662 
L 38.994714 31.262945 
L 39.016349 23.134198 
L 39.048081 8.660827 
L 39.100005 31.143197 
L 39.155535 8.739661 
L 39.176449 17.467855 
L 39.206738 31.292061 
L 39.260104 8.592153 
L 39.306259 30.406797 
L 39.312749 31.262748 
L 39.348808 13.830524 
L 39.365395 8.653161 
L 39.418761 31.284947 
L 39.469243 8.727477 
L 39.472128 8.640975 
L 39.488714 14.118821 
L 39.524773 31.233998 
L 39.577418 8.731201 
L 39.628621 31.164339 
L 39.630784 31.243443 
L 39.647371 25.80499 
L 39.68343 8.673156 
L 39.736796 31.195234 
L 39.780787 10.08471 
L 39.78872 8.74592 
L 39.832711 29.603583 
L 39.842087 31.233632 
L 39.884636 10.785568 
L 39.895453 8.623692 
L 39.940887 30.287761 
L 39.948098 31.27468 
L 39.984878 13.54615 
L 40.000744 8.670173 
L 40.05411 31.159445 
L 40.105313 8.735997 
L 40.106755 8.691469 
L 40.122621 13.400424 
L 40.1594 31.215878 
L 40.212767 8.743681 
L 40.267576 31.057378 
L 40.292095 20.063922 
L 40.318779 8.705147 
L 40.372145 31.187593 
L 40.421906 8.877018 
L 40.42479 8.747946 
L 40.446425 16.834261 
L 40.477436 31.158325 
L 40.530802 8.815212 
L 40.57912 30.703895 
L 40.583447 31.118422 
L 40.611573 18.975345 
L 40.636814 8.766001 
L 40.689459 31.01108 
L 40.737056 9.399619 
L 40.742104 8.830633 
L 40.775999 24.505107 
L 40.795471 31.136599 
L 40.848116 8.820743 
L 40.90004 30.99751 
L 40.901482 31.02333 
L 40.913021 28.396592 
L 41.060139 8.759472 
L 41.007494 31.072801 
L 41.068793 10.357861 
L 41.218796 31.121359 
L 41.16543 8.815057 
L 41.231777 27.972476 
L 41.271441 8.751544 
L 41.324808 31.171325 
L 41.378174 8.788616 
L 41.389713 11.642461 
L 41.536831 31.140553 
L 41.483465 8.729775 
L 41.541879 30.498089 
L 41.695488 8.724627 
L 41.642843 31.144972 
L 41.717844 17.252407 
L 41.748133 31.165264 
L 41.800779 8.756997 
L 41.845491 29.646512 
L 41.854145 31.065674 
L 41.895252 11.57088 
L 41.90679 8.786559 
L 41.958714 31.124912 
L 41.960878 31.173848 
L 41.976022 26.442974 
L 42.013523 8.767676 
L 42.066168 31.032357 
L 42.11665 8.818909 
L 42.118814 8.726246 
L 42.136122 14.212616 
L 42.17218 31.123379 
L 42.224825 8.757759 
L 42.276028 31.098903 
L 42.277471 31.153752 
L 42.294779 25.796337 
L 42.331558 8.768092 
L 42.383482 31.130208 
L 42.430358 9.52395 
L 42.436849 8.751622 
L 42.472186 25.521212 
L 42.489494 31.091479 
L 42.54286 8.801698 
L 42.590457 30.607271 
L 42.595506 31.158392 
L 42.628679 15.641747 
L 42.648151 8.782656 
L 42.701517 31.093918 
L 42.750557 9.012883 
L 42.754162 8.732357 
L 42.780125 19.532553 
L 42.806808 31.079155 
L 42.859453 8.718144 
L 42.90705 30.411298 
L 42.912819 31.16698 
L 42.948878 14.101398 
L 42.966186 8.815119 
L 43.018831 31.089672 
L 43.0246 30.394596 
L 43.071476 8.761895 
L 43.124843 31.190044 
L 43.197681 15.660156 
L 43.230854 31.080054 
L 43.2835 8.759775 
L 43.332539 30.770906 
L 43.336866 31.175022 
L 43.365713 18.30356 
L 43.389511 8.8016 
L 43.442157 31.090021 
L 43.489754 9.449316 
L 43.495523 8.716951 
L 43.530139 25.016495 
L 43.548889 31.184836 
L 43.601535 8.751889 
L 43.651295 30.86682 
L 43.65418 31.089129 
L 43.681584 19.498679 
L 43.706825 8.762583 
L 43.760192 31.265454 
L 43.809231 9.034788 
L 43.812837 8.692135 
L 43.841684 21.246308 
L 43.918849 8.68248 
L 43.970051 31.131041 
L 43.971494 31.203114 
L 43.988802 25.958562 
L 44.02486 8.666816 
L 44.078227 31.243657 
L 44.127987 8.830393 
L 44.130872 8.684892 
L 44.153228 17.07184 
L 44.183517 31.197144 
L 44.236884 8.714653 
L 44.28376 30.453888 
L 44.290971 31.168503 
L 44.325587 14.259038 
L 44.342174 8.703753 
L 44.395541 31.225356 
L 44.445301 8.939103 
L 44.448907 8.717933 
L 44.472705 18.464553 
L 44.501552 31.208132 
L 44.554197 8.650095 
L 44.602516 30.657183 
L 44.607564 31.203886 
L 44.641459 15.242344 
L 44.660209 8.671813 
L 44.713576 31.227228 
L 44.763336 8.846584 
L 44.766221 8.670576 
L 44.790019 17.934125 
L 44.819587 31.13168 
L 44.872232 8.765563 
L 44.917666 30.13642 
L 44.924878 31.212129 
L 44.961657 13.828263 
L 44.978244 8.714427 
L 45.031611 31.074477 
L 45.082092 8.843758 
L 45.083535 8.766387 
L 45.102285 14.681356 
L 45.137622 31.214514 
L 45.190268 8.715006 
L 45.240749 30.983873 
L 45.243634 31.124607 
L 45.26599 22.288227 
L 45.296279 8.699715 
L 45.348924 31.244322 
L 45.3958 9.408603 
L 45.40157 8.677314 
L 45.436186 24.860359 
L 45.507581 8.716019 
L 45.558063 31.174024 
L 45.560948 31.296652 
L 45.580419 24.273923 
L 45.612872 8.689974 
L 45.666959 31.120188 
L 45.71672 8.841992 
L 45.720326 8.692516 
L 45.741961 17.140432 
L 45.772971 31.236317 
L 45.825616 8.675143 
L 45.868886 29.363314 
L 45.878262 31.131818 
L 45.929465 8.814987 
L 45.930907 8.752238 
L 45.946773 13.315003 
L 45.984995 31.186009 
L 46.036919 8.752258 
L 46.093891 30.840965 
L 46.248942 8.710526 
L 46.196297 31.281953 
L 46.272019 17.524024 
L 46.302308 31.186237 
L 46.354954 8.705368 
L 46.400387 30.078823 
L 46.40832 31.201611 
L 46.443657 14.293082 
L 46.460965 8.657427 
L 46.513611 31.245699 
L 46.564813 8.698269 
L 46.566977 8.622969 
L 46.583564 13.876625 
L 46.672989 8.688093 
L 46.724913 31.241322 
L 46.726355 31.243807 
L 46.72924 31.024852 
L 46.779 8.678494 
L 46.831646 31.141721 
L 46.910253 19.4743 
L 46.937657 31.255445 
L 46.990303 8.681398 
L 47.036457 30.207323 
L 47.043669 31.19473 
L 47.078285 14.788433 
L 47.096314 8.725583 
L 47.149681 31.199905 
L 47.199441 8.795942 
L 47.202326 8.661379 
L 47.222519 15.849391 
L 47.254971 31.089864 
L 47.308338 8.753711 
L 47.353771 30.148675 
L 47.360983 31.232161 
L 47.397762 13.683649 
L 47.413628 8.711741 
L 47.466994 31.125182 
L 47.477812 28.936031 
L 47.625651 8.674669 
L 47.573006 31.231149 
L 47.638632 11.849218 
L 47.785029 31.216303 
L 47.731663 8.770061 
L 47.790799 30.475136 
L 47.837675 8.701527 
L 47.89032 31.156399 
L 47.962437 15.047195 
L 47.996332 31.216033 
L 48.049698 8.712161 
L 48.10667 30.864934 
L 48.261721 8.627341 
L 48.209076 31.239797 
L 48.283356 16.860155 
L 48.313646 31.238864 
L 48.367012 8.67119 
L 48.414609 30.501397 
L 48.420378 31.212286 
L 48.457158 13.582396 
L 48.473745 8.673187 
L 48.52639 31.287165 
L 48.530717 30.872647 
L 48.579035 8.645389 
L 48.632402 31.24353 
L 48.705961 16.300551 
L 48.843704 31.294507 
L 48.790337 8.677783 
L 48.844425 31.293483 
L 48.854521 29.195548 
L 49.003082 8.585588 
L 48.949716 31.262805 
L 49.012457 10.403601 
L 49.161739 31.308011 
L 49.108373 8.649782 
L 49.171114 29.580593 
L 49.214384 8.617176 
L 49.267751 31.244575 
L 49.329771 10.270123 
L 49.479053 31.283064 
L 49.427129 8.63777 
L 49.490591 28.943943 
L 49.638431 8.624408 
L 49.585064 31.205295 
L 49.647806 10.390146 
L 49.797088 31.242629 
L 49.744443 8.691796 
L 49.807184 29.366458 
L 49.850454 8.627849 
L 49.9031 31.203475 
L 49.965841 10.525327 
L 50.115123 31.200036 
L 50.062478 8.690649 
L 50.125219 29.160677 
L 50.27378 8.706663 
L 50.221135 31.130494 
L 50.285318 11.361813 
L 50.327146 31.182496 
L 50.379791 8.739654 
L 50.436764 30.802293 
L 50.591094 8.747817 
L 50.538448 31.12507 
L 50.612008 16.084895 
L 50.64446 31.18193 
L 50.697105 8.742752 
L 50.746145 30.811353 
L 50.750472 31.169758 
L 50.78004 17.898171 
L 50.803117 8.71856 
L 50.856483 31.188435 
L 50.901917 9.755245 
L 50.909129 8.693625 
L 50.946629 26.740673 
L 50.961774 31.214512 
L 51.01514 8.699783 
L 51.064901 31.045334 
L 51.067786 31.239499 
L 51.090863 22.332855 
L 51.121152 8.684111 
L 51.173797 31.152845 
L 51.220673 9.448694 
L 51.226443 8.669278 
L 51.262501 25.662225 
L 51.279809 31.273577 
L 51.332454 8.715381 
L 51.382215 30.898196 
L 51.385821 31.147259 
L 51.411783 20.317538 
L 51.438466 8.69613 
L 51.491832 31.250575 
L 51.538708 9.420177 
L 51.544478 8.703258 
L 51.583421 27.523496 
L 51.597844 31.201659 
L 51.649768 8.626319 
L 51.659864 10.381913 
L 51.703134 31.267839 
L 51.75578 8.711765 
L 51.819243 29.287558 
L 51.862513 8.654359 
L 51.915879 31.286031 
L 51.977899 10.46596 
L 52.127181 31.285021 
L 52.074536 8.651354 
L 52.135114 30.035657 
L 52.286559 8.611203 
L 52.233193 31.166292 
L 52.304588 14.874602 
L 52.445216 31.275957 
L 52.39185 8.635073 
L 52.44738 31.165437 
L 52.472621 19.199939 
L 52.498583 8.612845 
L 52.551228 31.245772 
L 52.593777 10.609717 
L 52.603873 8.672231 
L 52.650028 30.322405 
L 52.656518 31.236526 
L 52.694019 13.329388 
L 52.709885 8.578434 
L 52.76253 31.299259 
L 52.768299 30.649206 
L 52.921908 8.58432 
L 52.868542 31.243954 
L 52.937774 13.636792 
L 53.080565 31.271436 
L 53.027199 8.619628 
L 53.082729 31.177407 
L 53.111575 16.784655 
L 53.133932 8.633784 
L 53.186577 31.158595 
L 53.23778 8.715525 
L 53.239222 8.675453 
L 53.254367 13.072927 
L 53.291867 31.28309 
L 53.345234 8.653939 
L 53.397879 31.164661 
L 53.400764 31.024826 
L 53.431774 15.315654 
L 53.451245 8.721974 
L 53.503891 31.200609 
L 53.554372 8.832348 
L 53.557257 8.706956 
L 53.576729 15.613223 
L 53.609181 31.151035 
L 53.662548 8.705613 
L 53.708702 30.207371 
L 53.715914 31.262211 
L 53.751251 14.274443 
L 53.76928 8.671988 
L 53.821926 31.170673 
L 53.833464 28.5436 
L 53.980583 8.666364 
L 53.927216 31.277492 
L 53.989958 10.39241 
L 54.13924 31.237347 
L 54.086594 8.684429 
L 54.149336 29.320596 
L 54.298618 8.661327 
L 54.245251 31.250609 
L 54.303666 9.225873 
L 54.351984 31.265763 
L 54.404629 8.704087 
L 54.476746 24.279761 
L 54.50992 8.703795 
L 54.562565 31.264617 
L 54.611604 9.121524 
L 54.615931 8.711408 
L 54.648384 23.63033 
L 54.669298 31.167648 
L 54.721943 8.641843 
L 54.76954 30.587957 
L 54.774588 31.217179 
L 54.809204 15.111425 
L 54.827955 8.683804 
L 54.8806 31.237743 
L 54.931803 8.693314 
L 54.933967 8.623634 
L 54.951275 14.277988 
L 55.039978 8.693962 
L 55.092623 31.234789 
L 55.101277 29.82601 
L 55.145269 8.655638 
L 55.198635 31.202365 
L 55.265704 12.515303 
L 55.304647 31.240955 
L 55.358013 8.627114 
L 55.407774 31.073155 
L 55.410658 31.221512 
L 55.431572 23.415374 
L 55.464025 8.697623 
L 55.515949 31.231786 
L 55.566431 8.825626 
L 55.569315 8.674911 
L 55.591672 17.064877 
L 55.621961 31.119565 
L 55.675327 8.745303 
L 55.722203 30.514767 
L 55.728694 31.251267 
L 55.764031 14.119603 
L 55.780618 8.708531 
L 55.833984 31.132822 
L 55.885187 8.798418 
L 55.88735 8.729939 
L 55.903937 13.980106 
L 55.939996 31.207908 
L 55.992641 8.704709 
L 56.044565 31.14591 
L 56.046007 31.183171 
L 56.060431 27.286363 
L 56.152019 31.191118 
L 56.203943 8.752764 
L 56.204664 8.727823 
L 56.217645 12.031151 
L 56.364042 31.237106 
L 56.310676 8.762464 
L 56.370533 30.334213 
L 56.522699 8.722791 
L 56.470054 31.156056 
L 56.540007 14.369937 
L 56.575345 31.195644 
L 56.628711 8.731092 
L 56.682077 31.068261 
L 56.700107 24.775339 
L 56.734002 8.719296 
L 56.787368 31.097956 
L 56.840013 8.801177 
L 56.85011 10.694538 
L 56.999391 31.140581 
L 56.946025 8.749348 
L 57.008045 29.689392 
L 57.157327 8.702354 
L 57.104682 31.104807 
L 57.165981 10.048419 
L 57.317426 31.161152 
L 57.26406 8.76219 
L 57.33185 26.885532 
L 57.370072 8.671611 
L 57.422717 31.120908 
L 57.474641 8.806472 
L 57.475362 8.788619 
L 57.48618 10.952154 
L 57.528728 31.166845 
L 57.581374 8.688567 
L 57.641952 30.035302 
L 57.793397 8.680343 
L 57.740031 31.068998 
L 57.811426 14.630431 
L 57.846764 31.173679 
L 57.899409 8.801171 
L 57.954218 31.001857 
L 57.984507 16.232284 
L 58.00542 8.723825 
L 58.058066 31.074914 
L 58.105663 9.418594 
L 58.110711 8.809929 
L 58.144606 24.499491 
L 58.164077 31.124943 
L 58.217444 8.75522 
L 58.266483 30.852381 
L 58.270089 31.113887 
L 58.296051 20.274313 
L 58.323455 8.853346 
L 58.37538 31.079413 
L 58.42514 9.030107 
L 58.429467 8.759954 
L 58.453987 19.197842 
L 58.482112 31.068214 
L 58.534758 8.820704 
L 58.578749 29.622153 
L 58.587403 31.123547 
L 58.627788 12.015486 
L 58.693415 31.076228 
L 58.745339 8.756063 
L 58.746781 8.736492 
L 58.756877 10.897014 
L 58.799426 31.209457 
L 58.852793 8.791208 
L 58.911207 30.406513 
L 59.064095 8.808112 
L 59.010728 31.16536 
L 59.085009 16.251065 
L 59.11674 31.050603 
L 59.14126 21.531842 
" style="fill:none;stroke:#f08080;stroke-linecap:square;stroke-width:0.04;"/>
   </g>
   <g id="patch_3">
    <path d="M 4.22 39.242835 
L 4.22 0.72 
" style="fill:none;stroke:#f08080;stroke-linecap:square;stroke-linejoin:miter;stroke-width:0.5;"/>
   </g>
   <g id="patch_4">
    <path d="M 59.14126 39.242835 
L 59.14126 0.72 
" style="fill:none;stroke:#f08080;stroke-linecap:square;stroke-linejoin:miter;stroke-width:0.5;"/>
   </g>
   <g id="patch_5">
    <path d="M 4.22 39.242835 
L 59.14126 39.242835 
" style="fill:none;stroke:#f08080;stroke-linecap:square;stroke-linejoin:miter;stroke-width:0.5;"/>
   </g>
   <g id="patch_6">
    <path d="M 4.22 0.72 
L 59.14126 0.72 
" style="fill:none;stroke:#f08080;stroke-linecap:square;stroke-linejoin:miter;stroke-width:0.5;"/>
   </g>
  </g>
 </g>
 <defs>
  <clipPath id="pdb444619db">
   <rect height="38.522835" width="54.92126" x="4.22" y="0.72"/>
  </clipPath>
 </defs>
</svg>
