<?xml version="1.0" encoding="utf-8" standalone="no"?>
<!DOCTYPE svg PUBLIC "-//W3C//DTD SVG 1.1//EN"
  "http://www.w3.org/Graphics/SVG/1.1/DTD/svg11.dtd">
<svg height="43.462835pt" version="1.1" viewBox="0 0 59.86126 43.462835" width="59.86126pt" xmlns="http://www.w3.org/2000/svg" xmlns:xlink="http://www.w3.org/1999/xlink">
 <metadata>
  <rdf:RDF xmlns:cc="http://creativecommons.org/ns#" xmlns:dc="http://purl.org/dc/elements/1.1/" xmlns:rdf="http://www.w3.org/1999/02/22-rdf-syntax-ns#">
   <cc:Work>
    <dc:type rdf:resource="http://purl.org/dc/dcmitype/StillImage"/>
    <dc:date>2025-02-16T20:28:54.106092</dc:date>
    <dc:format>image/svg+xml</dc:format>
    <dc:creator>
     <cc:Agent>
      <dc:title>Matplotlib v3.4.3, https://matplotlib.org/</dc:title>
     </cc:Agent>
    </dc:creator>
   </cc:Work>
  </rdf:RDF>
 </metadata>
 <defs>
  <style type="text/css">*{stroke-linecap:butt;stroke-linejoin:round;}</style>
 </defs>
 <g id="figure_1">
  <g id="patch_1">
   <path d="M 0 43.462835 
L 59.86126 43.462835 
L 59.86126 0 
L 0 0 
z
" style="fill:none;"/>
  </g>
  <g id="axes_1">
   <g id="patch_2">
    <path d="M 4.22 39.242835 
L 59.14126 39.242835 
L 59.14126 0.72 
L 4.22 0.72 
z
" style="fill:#ffffff;"/>
   </g>
   <g id="matplotlib.axis_1"/>
   <g id="matplotlib.axis_2"/>
   <g id="line2d_1">
    <path clip-path="url(#p940c6382f6)" d="M 4.22 18.874517 
L 4.264548 21.148766 
L 4.373781 20.113326 
L 4.397581 19.027847 
L 4.443959 21.141029 
L 4.49705 19.24013 
L 4.619099 21.14876 
L 4.577602 18.906286 
L 4.635575 20.666729 
L 4.757014 18.770992 
L 4.708805 21.179008 
L 4.765557 19.074406 
L 4.799731 21.21182 
L 4.842448 18.905863 
L 4.89798 20.889612 
L 5.02247 18.995732 
L 4.979142 21.183263 
L 5.040167 19.704646 
L 5.156113 21.130845 
L 5.112175 19.083749 
L 5.165266 20.92637 
L 5.203101 18.836515 
L 5.245818 21.224504 
L 5.305622 19.466292 
L 5.337355 21.203742 
L 5.378851 18.746266 
L 5.440486 20.523991 
L 5.557653 18.801079 
L 5.512495 21.233998 
L 5.568027 19.198707 
L 5.691906 21.216148 
L 5.646138 18.911305 
L 5.705942 20.723092 
L 5.738285 18.708018 
L 5.781612 21.346967 
L 5.835923 19.09905 
L 5.960413 21.363935 
L 5.914035 18.692746 
L 5.973838 20.769697 
L 6.094666 18.642173 
L 6.050119 21.3515 
L 6.10443 19.015414 
L 6.225869 21.397588 
L 6.181321 18.753568 
L 6.237463 21.072683 
L 6.272247 18.548079 
L 6.314964 21.528967 
L 6.373548 19.215966 
L 6.493765 21.563402 
L 6.451659 18.688985 
L 6.507801 21.008559 
L 6.540144 18.539207 
L 6.585302 21.413546 
L 6.641444 19.202492 
L 6.761052 21.535587 
L 6.717725 18.409338 
L 6.774477 21.067987 
L 6.896526 18.389395 
L 6.854419 21.5008 
L 6.910561 19.139419 
L 7.030169 21.609435 
L 6.985621 18.606526 
L 7.041153 21.244797 
L 7.073496 18.335173 
L 7.119875 21.505692 
L 7.180289 19.465683 
L 7.296845 21.630613 
L 7.253518 18.332622 
L 7.30783 21.296045 
L 7.43415 18.242896 
L 7.387771 21.553608 
L 7.448185 19.288371 
L 7.476257 21.714897 
L 7.519584 18.380786 
L 7.576337 21.336217 
L 7.61112 18.211525 
L 7.655058 21.727606 
L 7.7112 18.996038 
L 7.833859 21.830417 
L 7.788701 18.268433 
L 7.847895 20.943902 
L 7.967502 18.223053 
L 7.922344 21.709488 
L 7.977266 18.600092 
L 8.01205 21.930471 
L 8.055988 18.089597 
L 8.120673 20.448628 
L 8.234178 18.023294 
L 8.190241 21.816391 
L 8.248214 18.887104 
L 8.279336 21.872533 
L 8.325105 18.21715 
L 8.381247 21.30638 
L 8.41359 18.046372 
L 8.458138 21.875957 
L 8.51489 18.848361 
L 8.547843 21.971298 
L 8.591781 17.983335 
L 8.647313 21.327715 
L 8.771192 17.970317 
L 8.724814 21.900758 
L 8.785838 19.060847 
L 8.81574 21.96924 
L 8.859067 18.217372 
L 8.913989 21.431896 
L 8.948163 17.942076 
L 8.993321 22.035439 
L 9.055566 19.310118 
L 9.172732 22.016513 
L 9.128795 17.932342 
L 9.183106 21.495936 
L 9.307596 17.876689 
L 9.261217 22.082647 
L 9.321021 18.983036 
L 9.350923 22.131986 
L 9.396081 17.980958 
L 9.451003 21.464538 
L 9.574272 17.789998 
L 9.529724 22.235225 
L 9.588918 18.827178 
L 9.61821 22.164273 
L 9.663978 17.822975 
L 9.718289 21.634287 
L 9.753684 17.76629 
L 9.798231 22.215342 
L 9.858645 19.156791 
L 9.976422 22.257269 
L 9.932485 17.828931 
L 9.985576 21.769495 
L 10.02158 17.695739 
L 10.066128 22.310155 
L 10.124101 18.733013 
L 10.243098 22.304375 
L 10.199161 17.74597 
L 10.254693 21.625272 
L 10.287036 17.711312 
L 10.332804 22.288225 
L 10.392608 18.940536 
L 10.511605 22.379431 
L 10.467668 17.635004 
L 10.52259 21.702964 
L 10.646469 17.606438 
L 10.601311 22.355895 
L 10.659284 18.626455 
L 10.780112 22.4906 
L 10.736175 17.559345 
L 10.792927 21.571065 
L 10.82466 17.519054 
L 10.869818 22.472468 
L 10.929622 18.916355 
L 11.048619 22.603845 
L 11.002851 17.39497 
L 11.059604 21.752075 
L 11.181652 17.393826 
L 11.138325 22.53667 
L 11.195078 18.466593 
L 11.316516 22.607748 
L 11.271358 17.424437 
L 11.32811 21.743613 
L 11.360453 17.319264 
L 11.406222 22.4767 
L 11.462364 18.408918 
L 11.583802 22.69185 
L 11.539865 17.34764 
L 11.597228 21.644861 
L 11.718666 17.202793 
L 11.673508 22.680604 
L 11.730261 18.251789 
L 11.762603 22.82329 
L 11.807151 17.317254 
L 11.863294 21.862607 
L 11.897467 17.196423 
L 11.941405 22.623313 
L 11.998157 18.324107 
L 12.03111 22.830084 
L 12.075048 17.116575 
L 12.13119 21.901834 
L 12.253849 17.107987 
L 12.209301 22.820299 
L 12.268495 18.511431 
L 12.297787 22.943438 
L 12.342945 17.069588 
L 12.399697 21.921705 
L 12.521746 16.993439 
L 12.477198 22.904998 
L 12.535171 18.292391 
L 12.566294 22.950518 
L 12.611452 17.048385 
L 12.665763 22.212268 
L 12.789642 16.946795 
L 12.745095 22.978459 
L 12.804288 18.309827 
L 12.83419 23.081413 
L 12.878738 16.867601 
L 12.93305 22.402552 
L 13.057539 16.792432 
L 13.013602 23.147235 
L 13.075236 19.025544 
L 13.190572 23.061576 
L 13.147245 16.864839 
L 13.201556 22.391794 
L 13.236951 16.749606 
L 13.280888 23.15816 
L 13.339471 18.121986 
L 13.369984 23.173628 
L 13.416362 16.750104 
L 13.471894 22.032582 
L 13.594553 16.653676 
L 13.548785 23.234091 
L 13.606148 17.747909 
L 13.728196 23.207243 
L 13.683038 16.799079 
L 13.739181 22.348794 
L 13.773964 16.689171 
L 13.817292 23.252475 
L 13.875265 18.043655 
L 13.996703 23.276577 
L 13.953376 16.666244 
L 14.007687 22.344073 
L 14.131567 16.627715 
L 14.085799 23.275802 
L 14.143161 17.77358 
L 14.2646 23.342938 
L 14.220052 16.635073 
L 14.276805 22.271286 
L 14.398243 16.508196 
L 14.354306 23.473454 
L 14.411058 17.707 
L 14.533717 23.55645 
L 14.487949 16.532058 
L 14.54226 22.849216 
L 14.577654 16.465986 
L 14.622202 23.450958 
L 14.683226 18.498946 
L 14.801003 23.548244 
L 14.756456 16.354641 
L 14.812598 22.56316 
L 14.935257 16.247139 
L 14.890709 23.656937 
L 14.947462 17.415531 
L 15.06951 23.728575 
L 15.024963 16.384381 
L 15.082325 22.350063 
L 15.113448 16.195388 
L 15.159216 23.642673 
L 15.215358 17.490388 
L 15.338017 23.843179 
L 15.292859 16.089421 
L 15.349612 22.635851 
L 15.47105 16.007362 
L 15.425892 23.82555 
L 15.482645 17.048813 
L 15.605914 23.936082 
L 15.560756 16.072308 
L 15.61995 22.18254 
L 15.651072 15.92081 
L 15.695009 23.95578 
L 15.750542 16.980244 
L 15.8732 24.100113 
L 15.829263 15.830176 
L 15.887846 22.341823 
L 15.918358 15.738721 
L 15.963516 24.141503 
L 16.020269 17.154196 
L 16.053222 24.225427 
L 16.09777 15.688614 
L 16.153302 23.003358 
L 16.276571 15.547028 
L 16.232023 24.250494 
L 16.291827 17.927793 
L 16.410824 24.344201 
L 16.366277 15.625773 
L 16.421809 23.032008 
L 16.454762 15.46546 
L 16.49931 24.391755 
L 16.560944 18.148668 
L 16.678721 24.443835 
L 16.633563 15.398546 
L 16.689705 23.166165 
L 16.813585 15.326341 
L 16.769037 24.524966 
L 16.829451 18.012699 
L 16.857522 24.569973 
L 16.903291 15.31746 
L 16.958823 23.116202 
L 17.081481 15.22944 
L 17.036934 24.620748 
L 17.094907 17.201828 
L 17.215125 24.654636 
L 17.170577 15.263346 
L 17.226109 23.372471 
L 17.349378 15.135355 
L 17.30483 24.686609 
L 17.364024 17.322602 
L 17.483632 24.80985 
L 17.439084 15.074867 
L 17.493396 23.770093 
L 17.617885 14.988835 
L 17.572727 24.844807 
L 17.631921 17.068129 
L 17.752139 24.962843 
L 17.708201 14.951465 
L 17.763123 23.533889 
L 17.885782 14.860244 
L 17.841844 24.986551 
L 17.899817 16.948903 
L 18.020645 25.069235 
L 17.975487 14.812709 
L 18.03102 23.715706 
L 18.154289 14.76086 
L 18.110351 25.080908 
L 18.167104 16.595662 
L 18.288542 25.212655 
L 18.244605 14.723725 
L 18.303188 22.778673 
L 18.422796 14.651986 
L 18.378248 25.232844 
L 18.43439 16.37845 
L 18.556439 25.26876 
L 18.511891 14.655053 
L 18.570474 23.084624 
L 18.690692 14.513233 
L 18.646145 25.352649 
L 18.705338 16.89806 
L 18.825556 25.451406 
L 18.780398 14.470291 
L 18.83654 23.787999 
L 18.959199 14.325471 
L 18.914651 25.573491 
L 18.971404 16.251253 
L 19.093453 25.662284 
L 19.048905 14.333168 
L 19.105658 23.675241 
L 19.138 14.177909 
L 19.183769 25.729751 
L 19.239301 16.024447 
L 19.36257 25.796254 
L 19.316802 14.110941 
L 19.372334 24.260691 
L 19.496213 13.990506 
L 19.451055 25.868923 
L 19.509028 16.38377 
L 19.629856 26.0031 
L 19.584698 13.978054 
L 19.643892 23.260378 
L 19.76411 13.866383 
L 19.719562 26.09235 
L 19.777535 16.394637 
L 19.897753 26.153744 
L 19.853815 13.820405 
L 19.912399 23.254066 
L 20.032617 13.730083 
L 19.988069 26.194496 
L 20.045432 16.060619 
L 20.16687 26.27694 
L 20.121712 13.703334 
L 20.178465 24.208269 
L 20.300513 13.594777 
L 20.256576 26.368003 
L 20.312718 15.54589 
L 20.434767 26.471083 
L 20.390219 13.573512 
L 20.446361 24.455592 
L 20.56902 13.441558 
L 20.524472 26.54608 
L 20.582446 16.006239 
L 20.703274 26.667943 
L 20.659336 13.382313 
L 20.713648 24.844094 
L 20.837527 13.33092 
L 20.792369 26.668611 
L 20.853393 16.828203 
L 20.971781 26.784287 
L 20.927233 13.277357 
L 20.982765 24.721606 
L 21.106034 13.198274 
L 21.060876 26.860911 
L 21.12068 16.459938 
L 21.240288 26.967734 
L 21.19574 13.159494 
L 21.252492 24.35213 
L 21.373931 13.053628 
L 21.329993 27.02108 
L 21.385525 15.058075 
L 21.419089 27.107287 
L 21.463636 13.01772 
L 21.52344 23.287632 
L 21.553342 12.985153 
L 21.59789 27.139497 
L 21.654032 15.059224 
L 21.776691 27.175982 
L 21.732143 12.983157 
L 21.791337 23.469972 
L 21.910945 12.90323 
L 21.866397 27.168897 
L 21.921929 14.880405 
L 22.044588 27.264786 
L 22.00065 12.869378 
L 22.059844 23.471389 
L 22.089746 12.837956 
L 22.134294 27.30333 
L 22.189826 14.691621 
L 22.313095 27.326537 
L 22.268547 12.787046 
L 22.327741 23.643784 
L 22.447348 12.747393 
L 22.4028 27.336256 
L 22.457722 14.542716 
L 22.581602 27.472349 
L 22.536444 12.641653 
L 22.595027 24.223149 
L 22.715855 12.593267 
L 22.670697 27.50527 
L 22.726229 14.460962 
L 22.850109 27.573541 
L 22.805561 12.546101 
L 22.862924 24.457649 
L 22.983752 12.509337 
L 22.939204 27.594203 
L 22.996567 15.163613 
L 23.118005 27.661 
L 23.073458 12.401036 
L 23.132651 23.841071 
L 23.252259 12.417386 
L 23.207711 27.65011 
L 23.262633 14.302464 
L 23.386512 27.714329 
L 23.341354 12.368756 
L 23.398107 25.009292 
L 23.520766 12.269497 
L 23.476218 27.723593 
L 23.534191 15.423706 
L 23.655019 27.823738 
L 23.609861 12.265601 
L 23.666614 25.072882 
L 23.698957 12.246824 
L 23.744115 27.816714 
L 23.802088 15.199313 
L 23.923526 27.863068 
L 23.878368 12.225969 
L 23.938172 23.687137 
L 23.968074 12.225807 
L 24.013232 27.842676 
L 24.067543 14.173967 
L 24.192033 27.881046 
L 24.146875 12.218911 
L 24.204848 24.452769 
L 24.325676 12.147969 
L 24.280518 27.927579 
L 24.337271 14.625051 
L 24.45993 27.934072 
L 24.415382 12.132179 
L 24.474575 23.909501 
L 24.594183 12.127239 
L 24.549635 27.911445 
L 24.605167 14.424993 
L 24.639341 27.926239 
L 24.683889 12.169717 
L 24.741862 24.3934 
L 24.86208 12.095545 
L 24.816922 27.963473 
L 24.873674 14.499784 
L 24.996943 27.97947 
L 24.951785 12.119759 
L 25.009759 24.591649 
L 25.041491 12.094433 
L 25.086649 27.914496 
L 25.142792 14.749487 
L 25.175745 27.902015 
L 25.220292 12.160911 
L 25.277045 24.906057 
L 25.398483 12.115401 
L 25.353936 27.96443 
L 25.411909 15.138814 
L 25.533347 28.03176 
L 25.488189 12.133668 
L 25.547383 24.13464 
L 25.667601 12.039608 
L 25.623053 28.04456 
L 25.676754 13.744733 
L 25.801244 28.075323 
L 25.757306 12.050545 
L 25.818331 22.904861 
L 25.846402 11.976444 
L 25.890339 28.123814 
L 25.947092 14.463371 
L 26.069751 28.12088 
L 26.025203 11.986916 
L 26.082566 24.816003 
L 26.204614 11.928415 
L 26.158846 28.158213 
L 26.216819 14.971533 
L 26.248552 28.154656 
L 26.29371 11.938515 
L 26.351683 24.53088 
L 26.382805 11.929851 
L 26.426743 28.155553 
L 26.482885 14.047335 
L 26.606154 28.189992 
L 26.560996 11.871988 
L 26.61958 24.694915 
L 26.740408 11.858962 
L 26.69586 28.241137 
L 26.755054 15.569685 
L 26.874051 28.256298 
L 26.829503 11.816991 
L 26.884425 26.296341 
L 26.919209 11.875069 
L 26.963757 28.209094 
L 27.02356 15.67127 
L 27.053462 28.273577 
L 27.09862 11.808234 
L 27.152932 26.218115 
L 27.277422 11.785329 
L 27.232874 28.294285 
L 27.289626 14.722945 
L 27.411675 28.316195 
L 27.367127 11.741929 
L 27.4251 24.504643 
L 27.545928 11.741336 
L 27.50077 28.292099 
L 27.558133 14.810769 
L 27.590476 28.357365 
L 27.635024 11.706988 
L 27.694218 24.199691 
L 27.813215 11.676878 
L 27.769277 28.365647 
L 27.824199 13.800104 
L 27.948079 28.403914 
L 27.903531 11.646442 
L 27.962114 24.416241 
L 28.082332 11.566914 
L 28.037784 28.453875 
L 28.094537 14.610544 
L 28.12688 28.478513 
L 28.171428 11.572086 
L 28.230011 24.654211 
L 28.350839 11.509306 
L 28.305681 28.518725 
L 28.363654 14.888661 
L 28.395387 28.525914 
L 28.439934 11.481483 
L 28.498518 24.578782 
L 28.52964 11.509314 
L 28.572967 28.509311 
L 28.630941 14.498148 
L 28.663283 28.5053 
L 28.707831 11.549506 
L 28.765194 25.223656 
L 28.887243 11.559234 
L 28.842695 28.426389 
L 28.898837 14.37743 
L 29.020886 28.461196 
L 28.976338 11.613558 
L 29.033091 25.408666 
L 29.066044 11.581125 
L 29.110592 28.453977 
L 29.167344 14.479985 
L 29.289393 28.47248 
L 29.244235 11.610622 
L 29.301598 25.31518 
L 29.423646 11.553389 
L 29.378488 28.449479 
L 29.434631 13.967078 
L 29.468194 28.502318 
L 29.512742 11.565751 
L 29.571325 24.690589 
L 29.692153 11.532132 
L 29.647605 28.517795 
L 29.704968 14.836788 
L 29.825796 28.508412 
L 29.781249 11.516892 
L 29.840442 24.35275 
L 29.870954 11.512318 
L 29.915502 28.513721 
L 29.971034 13.864143 
L 30.093693 28.497258 
L 30.049756 11.543034 
L 30.108339 24.53409 
L 30.139461 11.525011 
L 30.184009 28.500595 
L 30.239541 13.939779 
L 30.36281 28.511908 
L 30.318262 11.498078 
L 30.375625 25.001292 
L 30.497064 11.440439 
L 30.452516 28.546776 
L 30.510489 15.025058 
L 30.631317 28.565961 
L 30.586159 11.458894 
L 30.645963 24.177201 
L 30.765571 11.452015 
L 30.720413 28.568935 
L 30.775945 13.758298 
L 30.899214 28.597115 
L 30.854666 11.409063 
L 30.91386 24.408865 
L 30.944372 11.430588 
L 30.988919 28.582331 
L 31.044452 13.840824 
L 31.078015 28.568272 
L 31.123173 11.403734 
L 31.181756 24.558196 
L 31.212879 11.423105 
L 31.257426 28.58599 
L 31.313569 14.150823 
L 31.346522 28.622985 
L 31.39168 11.398768 
L 31.446602 26.279721 
L 31.570481 11.359103 
L 31.525933 28.624053 
L 31.582686 14.469599 
L 31.615029 28.680974 
L 31.660187 11.309678 
L 31.716329 25.589239 
L 31.748672 11.286424 
L 31.79444 28.691881 
L 31.848752 13.506689 
L 31.882925 28.69955 
L 31.928083 11.320174 
L 31.987887 24.005604 
L 32.106274 11.313032 
L 32.061727 28.673615 
L 32.116038 13.219011 
L 32.150822 28.737762 
L 32.19659 11.291778 
L 32.257004 23.606763 
L 32.285686 11.251415 
L 32.330234 28.684189 
L 32.385155 13.396502 
L 32.509645 28.756091 
L 32.465097 11.214654 
L 32.524901 23.93477 
L 32.643288 11.223057 
L 32.598741 28.737176 
L 32.653662 13.394759 
L 32.688446 28.758352 
L 32.732994 11.259743 
L 32.792798 24.202934 
L 32.911795 11.257573 
L 32.867247 28.716564 
L 32.922169 13.429815 
L 33.046049 28.769952 
L 33.001501 11.245954 
L 33.061305 24.110513 
L 33.180912 11.162497 
L 33.135144 28.791522 
L 33.190676 13.475691 
L 33.313945 28.845282 
L 33.269398 11.150539 
L 33.329812 24.073909 
L 33.359103 11.157757 
L 33.403651 28.80078 
L 33.458573 13.307567 
L 33.582452 28.746686 
L 33.538515 11.262312 
L 33.598319 23.872421 
L 33.62761 11.226827 
L 33.672768 28.756632 
L 33.72769 13.63941 
L 33.850959 28.769517 
L 33.806411 11.235866 
L 33.866215 24.136835 
L 33.985213 11.230315 
L 33.940665 28.748118 
L 33.996197 13.691292 
L 34.119466 28.732817 
L 34.074918 11.264744 
L 34.133502 24.621114 
L 34.164014 11.223719 
L 34.208562 28.76086 
L 34.265314 14.050572 
L 34.387363 28.801206 
L 34.342815 11.229911 
L 34.399568 25.766513 
L 34.43191 11.17279 
L 34.477679 28.839904 
L 34.53199 13.348723 
L 34.566774 28.753892 
L 34.611322 11.234381 
L 34.671736 23.980109 
L 34.790733 11.208438 
L 34.745575 28.784962 
L 34.801108 13.626326 
L 34.834671 28.736554 
L 34.879829 11.26775 
L 34.939633 24.198395 
L 34.969535 11.221406 
L 35.014082 28.738452 
L 35.070225 13.905833 
L 35.103178 28.76568 
L 35.148336 11.208631 
L 35.207529 24.48467 
L 35.327137 11.1491 
L 35.282589 28.779954 
L 35.338121 13.718831 
L 35.462001 28.815485 
L 35.416843 11.160231 
L 35.476036 24.43266 
L 35.596254 11.073868 
L 35.551096 28.818051 
L 35.607239 13.904774 
L 35.640802 28.90711 
L 35.68596 11.094905 
L 35.743323 24.987533 
L 35.774445 11.051233 
L 35.818993 28.851553 
L 35.876356 14.345655 
L 35.908699 28.889388 
L 35.953246 11.075619 
L 36.011219 25.199885 
L 36.043562 11.109045 
L 36.08811 28.800712 
L 36.144252 14.043653 
L 36.266301 28.857978 
L 36.221753 11.106569 
L 36.279116 25.448239 
L 36.311459 11.078193 
L 36.356617 28.802319 
L 36.411539 13.66752 
L 36.445712 28.878578 
L 36.49026 11.042037 
L 36.550064 24.16556 
L 36.579966 11.104385 
L 36.624514 28.904969 
L 36.679435 13.400708 
L 36.803315 28.89324 
L 36.758157 11.076103 
L 36.817961 24.466207 
L 36.847863 11.091236 
L 36.893021 28.823057 
L 36.947942 13.470016 
L 36.982726 28.825728 
L 37.027274 11.155035 
L 37.086468 24.310443 
L 37.206075 11.121797 
L 37.160917 28.850476 
L 37.216449 13.520564 
L 37.340329 28.906301 
L 37.295171 11.119492 
L 37.354974 24.288671 
L 37.384876 11.104305 
L 37.429424 28.831002 
L 37.485566 13.777371 
L 37.608836 28.852708 
L 37.563678 11.084017 
L 37.622871 24.628518 
L 37.653383 11.045193 
L 37.698541 28.853614 
L 37.754684 14.070287 
L 37.876732 28.910841 
L 37.832184 11.080903 
L 37.888937 25.721243 
L 38.011596 11.034538 
L 37.966438 28.914941 
L 38.02197 13.546993 
L 38.145849 28.877202 
L 38.100691 11.057024 
L 38.159885 24.557833 
L 38.279493 11.018236 
L 38.234945 28.90502 
L 38.291087 13.876628 
L 38.413746 28.951071 
L 38.369198 11.004479 
L 38.427171 25.09299 
L 38.548 10.936422 
L 38.502842 28.959003 
L 38.560204 14.106272 
L 38.681643 28.969401 
L 38.637095 10.972619 
L 38.693848 26.01531 
L 38.816506 10.993083 
L 38.771959 28.890479 
L 38.82566 13.016201 
L 38.860444 28.875874 
L 38.906212 11.080871 
L 38.965406 24.324072 
L 38.995308 11.115372 
L 39.039245 28.790493 
L 39.095998 13.79003 
L 39.219267 28.83971 
L 39.174719 11.123157 
L 39.232692 24.851273 
L 39.35352 11.078462 
L 39.308973 28.841674 
L 39.366335 14.654657 
L 39.398678 28.927976 
L 39.442616 11.05749 
L 39.499979 25.488308 
L 39.621417 11.04871 
L 39.576259 28.903112 
L 39.631791 13.355481 
L 39.756281 28.88783 
L 39.711123 11.04816 
L 39.770927 24.180012 
L 39.800218 10.992607 
L 39.845376 28.826644 
L 39.900908 13.634463 
L 39.935082 28.991634 
L 39.97963 11.027871 
L 40.038213 24.697388 
L 40.068725 11.036879 
L 40.113273 28.931677 
L 40.170636 14.336419 
L 40.202979 28.911754 
L 40.247526 11.021637 
L 40.304279 25.755643 
L 40.337232 11.019592 
L 40.38178 28.873174 
L 40.437312 13.642711 
L 40.470875 28.872931 
L 40.516033 11.060511 
L 40.576447 23.746936 
L 40.605739 11.069917 
L 40.650287 28.82291 
L 40.705209 13.508126 
L 40.739382 28.897757 
L 40.78454 11.077422 
L 40.843734 24.276953 
L 40.873636 11.086603 
L 40.918183 28.880317 
L 40.973715 13.55094 
L 41.096374 28.911173 
L 41.052437 11.055231 
L 41.11102 24.837606 
L 41.141532 11.07442 
L 41.18669 28.890174 
L 41.244053 14.384546 
L 41.275786 28.868433 
L 41.320944 11.146542 
L 41.377086 26.02762 
L 41.410039 11.130654 
L 41.454587 28.895666 
L 41.51134 13.905485 
L 41.633998 28.899592 
L 41.589451 11.132686 
L 41.646813 25.273205 
L 41.679156 11.094227 
L 41.723704 28.822796 
L 41.781067 14.52532 
L 41.8128 28.84006 
L 41.857958 11.123656 
L 41.91471 25.60249 
L 42.036759 11.129837 
L 41.991601 28.823218 
L 42.047133 13.493714 
L 42.170402 28.820545 
L 42.126464 11.159191 
L 42.185658 24.282527 
L 42.21556 11.137556 
L 42.260718 28.794925 
L 42.31564 13.60773 
L 42.349813 28.818073 
L 42.394361 11.162733 
L 42.454165 24.182136 
L 42.573162 11.117092 
L 42.528615 28.806262 
L 42.583536 13.446434 
L 42.61771 28.860316 
L 42.662868 11.126115 
L 42.722672 24.178944 
L 42.752574 11.089327 
L 42.797122 28.850166 
L 42.852043 13.396024 
L 42.975923 28.88992 
L 42.931375 11.105527 
L 42.990569 24.431263 
L 43.110176 11.077225 
L 43.065018 28.847543 
L 43.122381 14.206324 
L 43.154724 28.945986 
L 43.199272 11.04731 
L 43.257245 25.323649 
L 43.288977 10.9777 
L 43.333525 28.910743 
L 43.389057 13.45865 
L 43.423841 28.929672 
L 43.468389 11.002449 
L 43.528193 24.001995 
L 43.64719 11.031205 
L 43.602032 28.863652 
L 43.655733 12.859184 
L 43.691128 28.935895 
L 43.736286 11.030201 
L 43.794869 24.862487 
L 43.825991 11.060229 
L 43.870539 28.870722 
L 43.927292 14.083765 
L 44.04934 28.857618 
L 44.004792 11.098975 
L 44.060935 25.954759 
L 44.094498 11.040984 
L 44.139046 28.918384 
L 44.194578 13.649651 
L 44.317847 28.917701 
L 44.273299 11.041665 
L 44.332493 24.403824 
L 44.452101 11.004429 
L 44.406943 28.881259 
L 44.463085 13.688917 
L 44.586354 28.914668 
L 44.541806 11.033524 
L 44.601 24.336661 
L 44.631512 11.032176 
L 44.67545 28.881915 
L 44.730982 13.521723 
L 44.854861 28.881417 
L 44.809703 11.060255 
L 44.870727 23.562917 
L 44.989114 11.025794 
L 44.943956 28.94382 
L 44.998878 13.33006 
L 45.122758 28.899789 
L 45.07821 11.085512 
L 45.138014 24.148734 
L 45.167916 11.060957 
L 45.212463 28.900173 
L 45.267385 13.404563 
L 45.301559 28.888954 
L 45.346717 11.090657 
L 45.406521 24.030835 
L 45.436423 11.147862 
L 45.48097 28.872404 
L 45.537113 13.953322 
L 45.659161 28.80968 
L 45.615224 11.168574 
L 45.672587 25.293732 
L 45.794025 11.131571 
L 45.748257 28.825483 
L 45.803789 13.269155 
L 45.838573 28.8264 
L 45.883731 11.184328 
L 45.942924 24.264053 
L 46.062532 11.126338 
L 46.017984 28.809428 
L 46.072296 13.315879 
L 46.10708 28.894059 
L 46.151627 11.06714 
L 46.211431 24.270827 
L 46.241333 11.078971 
L 46.285881 28.916573 
L 46.341413 13.626558 
L 46.465292 28.873087 
L 46.420744 11.100535 
L 46.479328 24.51073 
L 46.50984 11.059536 
L 46.554388 28.8559 
L 46.61053 13.823544 
L 46.643483 28.907439 
L 46.688641 11.031967 
L 46.746614 25.105884 
L 46.867442 11.029448 
L 46.822895 28.948237 
L 46.880257 14.435116 
L 47.001696 28.958625 
L 46.956538 11.011291 
L 47.014511 25.424976 
L 47.135949 11.015681 
L 47.091402 28.924303 
L 47.146323 13.370197 
L 47.181107 28.937378 
L 47.225655 11.008046 
L 47.284849 24.522783 
L 47.404456 10.958244 
L 47.359908 28.955822 
L 47.415441 13.56918 
L 47.53871 28.958058 
L 47.494162 10.95976 
L 47.553966 24.171413 
L 47.672963 10.953417 
L 47.628415 28.937428 
L 47.682727 13.158698 
L 47.807217 29.056754 
L 47.762059 10.954592 
L 47.821862 24.42821 
L 47.94147 10.908423 
L 47.896312 28.958228 
L 47.951844 13.382906 
L 47.986018 29.02831 
L 48.031176 10.937442 
L 48.089759 24.710604 
L 48.209977 10.819308 
L 48.165429 29.072915 
L 48.222792 14.501267 
L 48.34423 29.202063 
L 48.299072 10.85446 
L 48.356435 25.710688 
L 48.478484 10.795328 
L 48.433936 29.015312 
L 48.488248 13.13942 
L 48.523032 29.183819 
L 48.567579 10.826047 
L 48.626163 24.924195 
L 48.657285 10.792044 
L 48.701833 29.089149 
L 48.759196 14.249108 
L 48.880634 29.130159 
L 48.836086 10.838331 
L 48.891618 26.554775 
L 48.925792 10.787084 
L 48.96973 29.050843 
L 49.027092 14.005852 
L 49.149141 29.112247 
L 49.104593 10.831347 
L 49.160125 26.460841 
L 49.193078 10.71924 
L 49.237626 29.110604 
L 49.295599 14.044301 
L 49.327942 29.237938 
L 49.37249 10.796489 
L 49.429853 25.752749 
L 49.462196 10.729989 
L 49.506743 29.163662 
L 49.561055 12.848455 
L 49.686155 29.214603 
L 49.640997 10.781759 
L 49.69958 24.994813 
L 49.730703 10.688739 
L 49.77464 29.105514 
L 49.832003 13.893379 
L 49.864956 29.255964 
L 49.909504 10.761319 
L 49.966867 25.654247 
L 49.999209 10.712957 
L 50.044367 29.258662 
L 50.099289 13.389524 
L 50.132853 29.127067 
L 50.178621 10.74358 
L 50.236594 24.93961 
L 50.267716 10.763815 
L 50.312264 29.115378 
L 50.367796 13.478192 
L 50.491065 29.143507 
L 50.446518 10.746852 
L 50.505101 24.955565 
L 50.535613 10.71137 
L 50.580161 29.196632 
L 50.637524 14.009156 
L 50.670477 29.191315 
L 50.714414 10.64076 
L 50.772998 25.141621 
L 50.893826 10.726401 
L 50.848668 29.283848 
L 50.906031 14.006032 
L 51.028079 29.326699 
L 50.983531 10.620927 
L 51.040284 25.856126 
L 51.162333 10.67377 
L 51.117785 29.203786 
L 51.173317 13.517212 
L 51.20627 29.30017 
L 51.251428 10.623299 
L 51.310622 24.840591 
L 51.43084 10.655817 
L 51.386292 29.382045 
L 51.443044 14.011073 
L 51.564483 29.30485 
L 51.520545 10.622238 
L 51.576688 26.162002 
L 51.699346 10.564561 
L 51.654799 29.216882 
L 51.709721 13.24145 
L 51.8336 29.27582 
L 51.789052 10.590196 
L 51.847025 25.050247 
L 51.877537 10.609447 
L 51.922085 29.26136 
L 51.979448 13.849344 
L 52.012401 29.315029 
L 52.056949 10.632661 
L 52.113701 25.922552 
L 52.23575 10.647459 
L 52.190592 29.298022 
L 52.245514 12.88572 
L 52.370004 29.217213 
L 52.325456 10.735837 
L 52.384649 24.636873 
L 52.504257 10.644354 
L 52.459709 29.148025 
L 52.515852 13.766451 
L 52.548805 29.227869 
L 52.593352 10.764311 
L 52.652546 24.808177 
L 52.772764 10.703108 
L 52.727606 29.14827 
L 52.784969 14.08559 
L 52.907017 29.189777 
L 52.861859 10.800163 
L 52.918002 26.345548 
L 53.040661 10.663225 
L 52.995503 29.145311 
L 53.053476 14.165964 
L 53.085819 29.223726 
L 53.130366 10.728826 
L 53.187119 25.987948 
L 53.220072 10.630067 
L 53.26523 29.140071 
L 53.319542 13.05325 
L 53.354325 29.138916 
L 53.398873 10.778573 
L 53.456846 25.201151 
L 53.488579 10.738835 
L 53.533127 29.136252 
L 53.589879 14.006844 
L 53.622832 29.200001 
L 53.66677 10.832706 
L 53.724133 25.793365 
L 53.756476 10.799166 
L 53.801023 29.03865 
L 53.857776 13.881274 
L 53.890729 29.006331 
L 53.935887 10.841317 
L 53.99264 25.590761 
L 54.024983 10.74348 
L 54.06953 29.025655 
L 54.125062 13.438281 
L 54.159236 29.161006 
L 54.203784 10.779226 
L 54.263588 24.342102 
L 54.292879 10.853055 
L 54.337427 29.068812 
L 54.392959 13.359826 
L 54.516228 29.039028 
L 54.472291 10.839826 
L 54.530874 24.778195 
L 54.561996 10.831936 
L 54.605934 29.019298 
L 54.663297 14.01246 
L 54.69625 29.121946 
L 54.740187 10.801213 
L 54.799381 24.83856 
L 54.830503 10.865834 
L 54.874441 29.107951 
L 54.931804 14.182611 
L 55.053852 29.030142 
L 55.009304 10.883554 
L 55.065447 25.994514 
L 55.09779 10.912103 
L 55.143558 29.015551 
L 55.1997 13.865824 
L 55.232653 29.014701 
L 55.277201 10.880935 
L 55.335784 24.97173 
L 55.456002 10.927197 
L 55.411455 28.973474 
L 55.468817 14.287719 
L 55.50116 28.962162 
L 55.545708 10.919223 
L 55.603681 25.246402 
L 55.635414 10.940237 
L 55.679962 29.059954 
L 55.736104 13.758769 
L 55.858763 29.037861 
L 55.814825 10.946076 
L 55.872798 24.84513 
L 55.993626 10.960763 
L 55.949079 28.899004 
L 56.005831 14.306283 
L 56.038174 28.996823 
L 56.082722 10.952482 
L 56.140085 25.503014 
L 56.172428 10.976777 
L 56.216975 28.978088 
L 56.272507 13.620009 
L 56.395777 28.990113 
L 56.351229 11.0334 
L 56.410422 24.338887 
L 56.52942 11.025954 
L 56.484872 28.830777 
L 56.541625 13.972524 
L 56.664284 28.891872 
L 56.619126 11.054607 
L 56.675878 25.92798 
L 56.797927 10.947341 
L 56.753379 28.947546 
L 56.807691 13.028041 
L 56.93279 28.977037 
L 56.887632 10.996428 
L 56.947436 24.273997 
L 57.067044 10.94863 
L 57.021886 28.941808 
L 57.077418 13.479064 
L 57.200687 28.970108 
L 57.156139 11.049297 
L 57.214723 24.810568 
L 57.245845 11.01193 
L 57.290393 28.835474 
L 57.349586 15.332782 
L 57.379488 28.89368 
L 57.424036 11.094802 
L 57.480789 25.922347 
L 57.513742 11.059294 
L 57.557679 28.828804 
L 57.613211 13.198537 
L 57.737701 28.811744 
L 57.692543 11.153227 
L 57.751126 24.819598 
L 57.871954 11.122229 
L 57.826796 28.803171 
L 57.88477 14.673544 
L 57.915892 28.900253 
L 57.96166 11.187758 
L 58.018413 25.40002 
L 58.050756 11.137971 
L 58.095303 28.752225 
L 58.150835 13.631036 
L 58.274715 28.742528 
L 58.229557 11.181494 
L 58.28875 24.445803 
L 58.319263 11.188406 
L 58.36381 28.749684 
L 58.419953 13.940796 
L 58.453516 28.807294 
L 58.497453 11.198977 
L 58.556037 25.015394 
L 58.676865 11.223402 
L 58.632317 28.748629 
L 58.68968 14.580205 
L 58.810508 28.694286 
L 58.766571 11.229827 
L 58.824544 24.850009 
L 58.855666 11.20062 
L 58.900214 28.705906 
L 58.957577 14.341588 
L 58.98992 28.743675 
L 59.034467 11.188359 
L 59.09183 25.464973 
L 59.124173 11.248631 
L 59.14126 16.797888 
" style="fill:none;stroke:#f08080;stroke-linecap:square;stroke-width:0.04;"/>
   </g>
   <g id="patch_3">
    <path d="M 4.22 39.242835 
L 4.22 0.72 
" style="fill:none;stroke:#f08080;stroke-linecap:square;stroke-linejoin:miter;stroke-width:0.5;"/>
   </g>
   <g id="patch_4">
    <path d="M 59.14126 39.242835 
L 59.14126 0.72 
" style="fill:none;stroke:#f08080;stroke-linecap:square;stroke-linejoin:miter;stroke-width:0.5;"/>
   </g>
   <g id="patch_5">
    <path d="M 4.22 39.242835 
L 59.14126 39.242835 
" style="fill:none;stroke:#f08080;stroke-linecap:square;stroke-linejoin:miter;stroke-width:0.5;"/>
   </g>
   <g id="patch_6">
    <path d="M 4.22 0.72 
L 59.14126 0.72 
" style="fill:none;stroke:#f08080;stroke-linecap:square;stroke-linejoin:miter;stroke-width:0.5;"/>
   </g>
  </g>
 </g>
 <defs>
  <clipPath id="p940c6382f6">
   <rect height="38.522835" width="54.92126" x="4.22" y="0.72"/>
  </clipPath>
 </defs>
</svg>
