<?xml version="1.0" encoding="utf-8" standalone="no"?>
<!DOCTYPE svg PUBLIC "-//W3C//DTD SVG 1.1//EN"
  "http://www.w3.org/Graphics/SVG/1.1/DTD/svg11.dtd">
<svg xmlns:xlink="http://www.w3.org/1999/xlink" width="56.36126pt" height="40.728189pt" viewBox="0 0 56.36126 40.728189" xmlns="http://www.w3.org/2000/svg" version="1.1">
 <metadata>
  <rdf:RDF xmlns:dc="http://purl.org/dc/elements/1.1/" xmlns:cc="http://creativecommons.org/ns#" xmlns:rdf="http://www.w3.org/1999/02/22-rdf-syntax-ns#">
   <cc:Work>
    <dc:type rdf:resource="http://purl.org/dc/dcmitype/StillImage"/>
    <dc:date>2025-02-16T20:55:22.065227</dc:date>
    <dc:format>image/svg+xml</dc:format>
    <dc:creator>
     <cc:Agent>
      <dc:title>Matplotlib v3.7.5, https://matplotlib.org/</dc:title>
     </cc:Agent>
    </dc:creator>
   </cc:Work>
  </rdf:RDF>
 </metadata>
 <defs>
  <style type="text/css">*{stroke-linejoin: round; stroke-linecap: butt}</style>
 </defs>
 <g id="figure_1">
  <g id="patch_1">
   <path d="M 0 40.728189 
L 56.36126 40.728189 
L 56.36126 0 
L 0 0 
z
" style="fill: #ffffff"/>
  </g>
  <g id="axes_1">
   <g id="patch_2">
    <path d="M 0.72 40.008189 
L 55.64126 40.008189 
L 55.64126 0.72 
L 0.72 0.72 
z
" style="fill: #ffffff"/>
   </g>
   <g id="matplotlib.axis_1"/>
   <g id="matplotlib.axis_2"/>
   <g id="line2d_1">
    <path d="M 0.72 19.235203 
L 0.764548 21.554636 
L 0.873781 20.498624 
L 0.897581 19.391579 
L 0.943959 21.546745 
L 0.99705 19.608079 
L 1.119099 21.554629 
L 1.077602 19.267602 
L 1.135575 21.063022 
L 1.257014 19.129621 
L 1.208805 21.585479 
L 1.265557 19.439063 
L 1.299731 21.618942 
L 1.342448 19.267171 
L 1.39798 21.290333 
L 1.52247 19.358826 
L 1.479142 21.589818 
L 1.540167 20.081824 
L 1.656113 21.536359 
L 1.612175 19.448591 
L 1.665266 21.327822 
L 1.703101 19.196446 
L 1.745818 21.631879 
L 1.805622 19.838735 
L 1.837355 21.610704 
L 1.878851 19.104404 
L 1.940486 20.917448 
L 2.057653 19.160306 
L 2.012495 21.641561 
L 2.068027 19.565833 
L 2.191906 21.623356 
L 2.146138 19.272721 
L 2.205942 21.120505 
L 2.238285 19.065396 
L 2.281612 21.756774 
L 2.335923 19.464197 
L 2.460413 21.774079 
L 2.414035 19.04982 
L 2.473838 21.168035 
L 2.594666 18.998243 
L 2.550119 21.761397 
L 2.60443 19.378899 
L 2.725869 21.808401 
L 2.681321 19.11185 
L 2.737463 21.477041 
L 2.772247 18.90228 
L 2.814964 21.94239 
L 2.873548 19.583436 
L 2.993765 21.977509 
L 2.951659 19.045985 
L 3.007801 21.411643 
L 3.040144 18.893231 
L 3.085302 21.824676 
L 3.141444 19.569694 
L 3.261052 21.949141 
L 3.217725 18.760781 
L 3.274477 21.472251 
L 3.396526 18.740442 
L 3.354419 21.913663 
L 3.410561 19.505368 
L 3.530169 22.024457 
L 3.485621 18.961887 
L 3.541153 21.652574 
L 3.573496 18.685144 
L 3.619875 21.918653 
L 3.680289 19.838114 
L 3.796845 22.046055 
L 3.753518 18.682542 
L 3.80783 21.70484 
L 3.93415 18.591033 
L 3.887771 21.967521 
L 3.948185 19.657279 
L 3.976257 22.132014 
L 4.019584 18.731662 
L 4.076337 21.74581 
L 4.11112 18.559039 
L 4.155058 22.144975 
L 4.2112 19.359138 
L 4.333859 22.249829 
L 4.288701 18.617077 
L 4.347895 21.345701 
L 4.467502 18.570796 
L 4.422344 22.126498 
L 4.477266 18.955325 
L 4.51205 22.351871 
L 4.555988 18.434689 
L 4.620673 20.840588 
L 4.734178 18.367068 
L 4.690241 22.235525 
L 4.748214 19.24804 
L 4.779336 22.292782 
L 4.825105 18.564775 
L 4.881247 21.715381 
L 4.91359 18.390605 
L 4.958138 22.296274 
L 5.01489 19.208527 
L 5.047843 22.393509 
L 5.091781 18.326315 
L 5.147313 21.73714 
L 5.271192 18.313038 
L 5.224814 22.321568 
L 5.285838 19.425234 
L 5.31574 22.391411 
L 5.359067 18.565002 
L 5.413989 21.843391 
L 5.448163 18.284236 
L 5.493321 22.458924 
L 5.555566 19.679459 
L 5.672732 22.439622 
L 5.628795 18.274309 
L 5.683106 21.908703 
L 5.807596 18.217551 
L 5.761217 22.507071 
L 5.821021 19.345878 
L 5.850923 22.557389 
L 5.896081 18.323891 
L 5.951003 21.876681 
L 6.074272 18.129137 
L 6.029724 22.66268 
L 6.088918 19.186923 
L 6.11821 22.590318 
L 6.163978 18.162769 
L 6.218289 22.049803 
L 6.253684 18.104958 
L 6.298231 22.642402 
L 6.358645 19.523085 
L 6.476422 22.685162 
L 6.432485 18.168843 
L 6.485576 22.187697 
L 6.52158 18.033005 
L 6.566128 22.739098 
L 6.624101 19.090888 
L 6.743098 22.733204 
L 6.699161 18.084234 
L 6.754693 22.040609 
L 6.787036 18.048888 
L 6.832804 22.716733 
L 6.892608 19.302533 
L 7.011605 22.809751 
L 6.967668 17.971063 
L 7.02259 22.119844 
L 7.146469 17.941931 
L 7.101311 22.785747 
L 7.159284 18.982213 
L 7.280112 22.923128 
L 7.236175 17.893901 
L 7.292927 21.985325 
L 7.32466 17.85281 
L 7.369818 22.904636 
L 7.429622 19.277872 
L 7.548619 23.038623 
L 7.502851 17.72626 
L 7.559604 22.169931 
L 7.681652 17.725094 
L 7.638325 22.970114 
L 7.695078 18.819175 
L 7.816516 23.042604 
L 7.771358 17.756313 
L 7.82811 22.161301 
L 7.860453 17.649051 
L 7.906222 22.908953 
L 7.962364 18.760353 
L 8.083802 23.128376 
L 8.039865 17.67799 
L 8.097228 22.060587 
L 8.218666 17.530265 
L 8.173508 23.116907 
L 8.230261 18.600103 
L 8.262603 23.262428 
L 8.307151 17.647001 
L 8.363294 22.282658 
L 8.397467 17.523769 
L 8.441405 23.058478 
L 8.498157 18.673857 
L 8.53111 23.269357 
L 8.575048 17.442335 
L 8.63119 22.322666 
L 8.753849 17.433576 
L 8.709301 23.259378 
L 8.768495 18.864903 
L 8.797787 23.384963 
L 8.842945 17.394415 
L 8.899697 22.342931 
L 9.021746 17.316753 
L 8.977198 23.345759 
L 9.035171 18.641511 
L 9.066294 23.392184 
L 9.111452 17.37279 
L 9.165763 22.639266 
L 9.289642 17.269182 
L 9.245095 23.42068 
L 9.304288 18.659294 
L 9.33419 23.525679 
L 9.378738 17.188414 
L 9.43305 22.833331 
L 9.557539 17.111752 
L 9.513602 23.592809 
L 9.575236 19.389231 
L 9.690572 23.505449 
L 9.647245 17.185598 
L 9.701556 22.82236 
L 9.736951 17.068075 
L 9.780888 23.603952 
L 9.839471 18.467721 
L 9.869984 23.619726 
L 9.916362 17.068583 
L 9.971894 22.456011 
L 10.094553 16.970239 
L 10.048785 23.681391 
L 10.106148 18.086212 
L 10.228196 23.654009 
L 10.183038 17.118531 
L 10.239181 22.778505 
L 10.273964 17.006439 
L 10.317292 23.70014 
L 10.375265 18.387834 
L 10.496703 23.72472 
L 10.453376 16.983057 
L 10.507687 22.77369 
L 10.631567 16.943762 
L 10.585799 23.723931 
L 10.643161 18.112393 
L 10.7646 23.792401 
L 10.720052 16.951267 
L 10.776805 22.699457 
L 10.898243 16.821869 
L 10.854306 23.925509 
L 10.911058 18.04449 
L 11.033717 24.010155 
L 10.987949 16.846205 
L 11.04226 23.288869 
L 11.077654 16.77882 
L 11.122202 23.902566 
L 11.183226 18.85217 
L 11.301003 24.001786 
L 11.256456 16.665264 
L 11.312598 22.99713 
L 11.435257 16.555625 
L 11.390709 24.112638 
L 11.447462 17.74723 
L 11.56951 24.185699 
L 11.524963 16.695594 
L 11.582325 22.779799 
L 11.613448 16.502846 
L 11.659216 24.09809 
L 11.715358 17.823574 
L 11.838017 24.30258 
L 11.792859 16.394774 
L 11.849612 23.071266 
L 11.97105 16.311085 
L 11.925892 24.2846 
L 11.982645 17.373226 
L 12.105914 24.397329 
L 12.060756 16.37732 
L 12.11995 22.608949 
L 12.151072 16.222813 
L 12.195009 24.417418 
L 12.250542 17.303295 
L 12.3732 24.564619 
L 12.329263 16.130378 
L 12.387846 22.771396 
L 12.418358 16.037107 
L 12.463516 24.606831 
L 12.520269 17.480703 
L 12.553222 24.692422 
L 12.59777 15.986004 
L 12.653302 23.446074 
L 12.776571 15.841605 
L 12.732023 24.717987 
L 12.791827 18.26967 
L 12.910824 24.813556 
L 12.866277 15.921914 
L 12.921809 23.475293 
L 12.954762 15.758416 
L 12.99931 24.862055 
L 13.060944 18.494933 
L 13.178721 24.915169 
L 13.133563 15.690173 
L 13.189705 23.612115 
L 13.313585 15.616533 
L 13.269037 24.997912 
L 13.329451 18.356262 
L 13.357522 25.043813 
L 13.403291 15.607476 
L 13.458823 23.561159 
L 13.581481 15.517707 
L 13.536934 25.095598 
L 13.594907 17.529282 
L 13.715125 25.130159 
L 13.670577 15.552287 
L 13.726109 23.82252 
L 13.849378 15.421753 
L 13.80483 25.162767 
L 13.864024 17.652455 
L 13.983632 25.288456 
L 13.939084 15.360063 
L 13.993396 24.228042 
L 14.117885 15.272322 
L 14.072727 25.324108 
L 14.131921 17.392926 
L 14.252139 25.444489 
L 14.208201 15.234209 
L 14.263123 23.987146 
L 14.385782 15.141176 
L 14.341844 25.468668 
L 14.399817 17.271331 
L 14.520645 25.552994 
L 14.475487 15.092696 
L 14.53102 24.172575 
L 14.654289 15.039818 
L 14.610351 25.5649 
L 14.667104 16.911073 
L 14.788542 25.699264 
L 14.744605 15.001944 
L 14.803188 23.216925 
L 14.922796 14.92878 
L 14.878248 25.719854 
L 14.93439 16.689545 
L 15.056439 25.756484 
L 15.011891 14.931908 
L 15.070474 23.528954 
L 15.190692 14.787271 
L 15.146145 25.84204 
L 15.205338 17.219479 
L 15.325556 25.942758 
L 15.280398 14.743476 
L 15.33654 24.246304 
L 15.459199 14.595779 
L 15.414651 26.067269 
L 15.471404 16.55982 
L 15.593453 26.157826 
L 15.548905 14.603628 
L 15.605658 24.131305 
L 15.638 14.445284 
L 15.683769 26.226634 
L 15.739301 16.328509 
L 15.86257 26.294457 
L 15.816802 14.376986 
L 15.872334 24.728386 
L 15.996213 14.254158 
L 15.951055 26.368571 
L 16.009028 16.69497 
L 16.129856 26.505413 
L 16.084698 14.241459 
L 16.143892 23.7082 
L 16.26411 14.12757 
L 16.219562 26.596436 
L 16.277535 16.706054 
L 16.397753 26.659051 
L 16.353815 14.080678 
L 16.412399 23.701763 
L 16.532617 13.988561 
L 16.488069 26.700612 
L 16.545432 16.365399 
L 16.66687 26.784693 
L 16.621712 13.961281 
L 16.678465 24.674923 
L 16.800513 13.850567 
L 16.756576 26.877566 
L 16.812718 15.840444 
L 16.934767 26.982693 
L 16.890219 13.82888 
L 16.946361 24.92716 
L 17.06902 13.694304 
L 17.024472 27.059181 
L 17.082446 16.309939 
L 17.203274 27.183465 
L 17.159336 13.633882 
L 17.213648 25.323381 
L 17.337527 13.581468 
L 17.292369 27.184147 
L 17.353393 17.148234 
L 17.471781 27.30212 
L 17.427233 13.526841 
L 17.482765 25.198459 
L 17.606034 13.446187 
L 17.560876 27.380266 
L 17.62068 16.772652 
L 17.740288 27.489212 
L 17.69574 13.406636 
L 17.752492 24.821643 
L 17.873931 13.298667 
L 17.829993 27.543618 
L 17.885525 15.342937 
L 17.919089 27.631538 
L 17.963636 13.262046 
L 18.02344 23.735996 
L 18.053342 13.228832 
L 18.09789 27.664387 
L 18.154032 15.344109 
L 18.276691 27.701597 
L 18.232143 13.226796 
L 18.291337 23.921958 
L 18.410945 13.145281 
L 18.366397 27.694372 
L 18.421929 15.161737 
L 18.544588 27.792166 
L 18.50065 13.110756 
L 18.559844 23.923403 
L 18.589746 13.07871 
L 18.634294 27.831475 
L 18.689826 14.969203 
L 18.813095 27.855144 
L 18.768547 13.026788 
L 18.827741 24.099223 
L 18.947348 12.986347 
L 18.9028 27.865055 
L 18.957722 14.817339 
L 19.081602 28.003852 
L 19.036444 12.878507 
L 19.095027 24.690099 
L 19.215855 12.82916 
L 19.170697 28.037427 
L 19.226229 14.733961 
L 19.350109 28.107056 
L 19.305561 12.781057 
L 19.362924 24.929258 
L 19.483752 12.743563 
L 19.439204 28.128128 
L 19.496567 15.450573 
L 19.618005 28.196251 
L 19.573458 12.633109 
L 19.632651 24.30043 
L 19.752259 12.649784 
L 19.707711 28.185145 
L 19.762633 14.572315 
L 19.886512 28.250641 
L 19.841354 12.600189 
L 19.898107 25.491861 
L 20.020766 12.498957 
L 19.976218 28.260088 
L 20.034191 15.715832 
L 20.155019 28.362223 
L 20.109861 12.494984 
L 20.166614 25.556714 
L 20.198957 12.475833 
L 20.244115 28.355059 
L 20.302088 15.486982 
L 20.423526 28.402334 
L 20.378368 12.454564 
L 20.438172 24.143438 
L 20.468074 12.454399 
L 20.513232 28.381537 
L 20.567543 14.441264 
L 20.692033 28.420669 
L 20.646875 12.447366 
L 20.704848 24.924281 
L 20.825676 12.375014 
L 20.780518 28.468127 
L 20.837271 14.90131 
L 20.95993 28.474749 
L 20.915382 12.358911 
L 20.974575 24.370219 
L 21.094183 12.353872 
L 21.049635 28.451673 
L 21.105167 14.697278 
L 21.139341 28.466761 
L 21.183889 12.397195 
L 21.241862 24.863733 
L 21.36208 12.321549 
L 21.316922 28.504734 
L 21.373674 14.773555 
L 21.496943 28.521049 
L 21.451785 12.346244 
L 21.509759 25.06592 
L 21.541491 12.320415 
L 21.586649 28.454784 
L 21.642792 15.028219 
L 21.675745 28.442055 
L 21.720292 12.388214 
L 21.777045 25.386575 
L 21.898483 12.341799 
L 21.853936 28.50571 
L 21.911909 15.42528 
L 22.033347 28.574378 
L 21.988189 12.36043 
L 22.047383 24.599832 
L 22.167601 12.2645 
L 22.123053 28.587432 
L 22.176754 14.003502 
L 22.301244 28.618806 
L 22.257306 12.275655 
L 22.318331 23.34562 
L 22.346402 12.200082 
L 22.390339 28.668261 
L 22.447092 14.736418 
L 22.569751 28.665268 
L 22.525203 12.210762 
L 22.582566 25.294732 
L 22.704614 12.151098 
L 22.658846 28.703343 
L 22.716819 15.254676 
L 22.748552 28.699715 
L 22.79371 12.161399 
L 22.851683 25.003944 
L 22.882805 12.152564 
L 22.926743 28.70063 
L 22.982885 14.312117 
L 23.106154 28.735754 
L 23.060996 12.093551 
L 23.11958 25.171237 
L 23.240408 12.080266 
L 23.19586 28.787914 
L 23.255054 15.864712 
L 23.374051 28.803377 
L 23.329503 12.037461 
L 23.384425 26.80448 
L 23.419209 12.096693 
L 23.463757 28.755235 
L 23.52356 15.968315 
L 23.553462 28.820999 
L 23.59862 12.02853 
L 23.652932 26.7247 
L 23.777422 12.00517 
L 23.732874 28.842118 
L 23.789626 15.001149 
L 23.911675 28.864464 
L 23.867127 11.960907 
L 23.9251 24.977186 
L 24.045928 11.960303 
L 24.00077 28.839889 
L 24.058133 15.090718 
L 24.090476 28.906451 
L 24.135024 11.925273 
L 24.194218 24.666175 
L 24.313215 11.894565 
L 24.269277 28.914898 
L 24.324199 14.059974 
L 24.448079 28.953925 
L 24.403531 11.863524 
L 24.462114 24.887027 
L 24.582332 11.782415 
L 24.537784 29.004879 
L 24.594537 14.886515 
L 24.62688 29.030006 
L 24.671428 11.78769 
L 24.730011 25.129726 
L 24.850839 11.723664 
L 24.805681 29.071017 
L 24.863654 15.170157 
L 24.895387 29.078349 
L 24.939934 11.695288 
L 24.998518 25.052797 
L 25.02964 11.723672 
L 25.072967 29.061417 
L 25.130941 14.771886 
L 25.163283 29.057326 
L 25.207831 11.764661 
L 25.265194 25.710484 
L 25.387243 11.774583 
L 25.342695 28.976847 
L 25.398837 14.64877 
L 25.520886 29.012345 
L 25.476338 11.829986 
L 25.533091 25.89917 
L 25.566044 11.796909 
L 25.610592 29.004984 
L 25.667344 14.753362 
L 25.789393 29.023854 
L 25.744235 11.826992 
L 25.801598 25.803826 
L 25.923646 11.768622 
L 25.878488 29.000396 
L 25.934631 14.230265 
L 25.968194 29.054284 
L 26.012742 11.78123 
L 26.071325 25.166826 
L 26.192153 11.746942 
L 26.147605 29.070069 
L 26.204968 15.117254 
L 26.325796 29.0605 
L 26.281249 11.7314 
L 26.340442 24.822275 
L 26.370954 11.726735 
L 26.415502 29.065915 
L 26.471034 14.125285 
L 26.593693 29.049124 
L 26.549756 11.758061 
L 26.608339 25.007218 
L 26.639461 11.73968 
L 26.684009 29.052527 
L 26.739541 14.202424 
L 26.86281 29.064065 
L 26.818262 11.712212 
L 26.875625 25.483702 
L 26.997064 11.653428 
L 26.952516 29.099626 
L 27.010489 15.309265 
L 27.131317 29.119192 
L 27.086159 11.67225 
L 27.145963 24.643238 
L 27.265571 11.665234 
L 27.220413 29.122225 
L 27.275945 14.017337 
L 27.399214 29.150965 
L 27.354666 11.621429 
L 27.41386 24.879505 
L 27.444372 11.643381 
L 27.488919 29.135887 
L 27.544452 14.101502 
L 27.578015 29.121549 
L 27.623173 11.615994 
L 27.681756 25.031802 
L 27.712879 11.63575 
L 27.757426 29.139619 
L 27.813569 14.417661 
L 27.846522 29.177349 
L 27.89168 11.610929 
L 27.946602 26.78753 
L 28.070481 11.570475 
L 28.025933 29.178438 
L 28.082686 14.74277 
L 28.115029 29.23649 
L 28.160187 11.520069 
L 28.216329 26.08333 
L 28.248672 11.496353 
L 28.29444 29.247614 
L 28.348752 13.760729 
L 28.382925 29.255435 
L 28.428083 11.530774 
L 28.487887 24.468232 
L 28.606274 11.52349 
L 28.561727 29.228985 
L 28.616038 13.467336 
L 28.650822 29.294407 
L 28.69659 11.501814 
L 28.757004 24.061467 
L 28.785686 11.460649 
L 28.830234 29.239769 
L 28.885155 13.648353 
L 29.009645 29.3131 
L 28.965097 11.423157 
L 29.024901 24.395991 
L 29.143288 11.431727 
L 29.098741 29.293809 
L 29.153662 13.646576 
L 29.188446 29.315405 
L 29.232994 11.469142 
L 29.292798 24.669483 
L 29.411795 11.466929 
L 29.367247 29.272787 
L 29.422169 13.682328 
L 29.546049 29.327236 
L 29.501501 11.455079 
L 29.561305 24.575225 
L 29.680912 11.369964 
L 29.635144 29.349234 
L 29.690676 13.729115 
L 29.813945 29.404062 
L 29.769398 11.357768 
L 29.829812 24.537894 
L 29.859103 11.36513 
L 29.903651 29.358677 
L 29.958573 13.557651 
L 30.082452 29.303508 
L 30.038515 11.471762 
L 30.098319 24.332403 
L 30.12761 11.435572 
L 30.172768 29.313652 
L 30.22769 13.896087 
L 30.350959 29.326792 
L 30.306411 11.44479 
L 30.366215 24.602071 
L 30.485213 11.439129 
L 30.440665 29.304968 
L 30.496197 13.949 
L 30.619466 29.289364 
L 30.574918 11.474242 
L 30.633502 25.095971 
L 30.664014 11.432402 
L 30.708562 29.317963 
L 30.765314 14.315418 
L 30.887363 29.359111 
L 30.842815 11.438717 
L 30.899568 26.264126 
L 30.93191 11.380461 
L 30.977679 29.398578 
L 31.03199 13.599625 
L 31.066774 29.310857 
L 31.111322 11.443276 
L 31.171736 24.44223 
L 31.290733 11.416817 
L 31.245575 29.342544 
L 31.301108 13.882744 
L 31.334671 29.293174 
L 31.379829 11.477307 
L 31.439633 24.664853 
L 31.469535 11.430043 
L 31.514082 29.29511 
L 31.570225 14.167803 
L 31.603178 29.322879 
L 31.648336 11.417014 
L 31.707529 24.956816 
L 31.827137 11.356301 
L 31.782589 29.337436 
L 31.838121 13.977086 
L 31.962001 29.373673 
L 31.916843 11.367653 
L 31.976036 24.903773 
L 32.096254 11.279574 
L 32.051096 29.37629 
L 32.107239 14.166724 
L 32.140802 29.467118 
L 32.18596 11.301029 
L 32.243323 25.46967 
L 32.274445 11.25649 
L 32.318993 29.410458 
L 32.376356 14.616364 
L 32.408699 29.449044 
L 32.453246 11.28136 
L 32.511219 25.68624 
L 32.543562 11.31545 
L 32.58811 29.358607 
L 32.644252 14.308361 
L 32.766301 29.417011 
L 32.721753 11.312925 
L 32.779116 25.939528 
L 32.811459 11.283985 
L 32.856617 29.360246 
L 32.911539 13.924755 
L 32.945712 29.43802 
L 32.99026 11.24711 
L 33.050064 24.631366 
L 33.079966 11.310697 
L 33.124514 29.464935 
L 33.179435 13.652642 
L 33.303315 29.452973 
L 33.258157 11.281854 
L 33.317961 24.937986 
L 33.347863 11.297287 
L 33.393021 29.381396 
L 33.447942 13.723327 
L 33.482726 29.38412 
L 33.527274 11.362353 
L 33.586468 24.779127 
L 33.706075 11.328455 
L 33.660917 29.409359 
L 33.716449 13.77488 
L 33.840329 29.466293 
L 33.795171 11.326104 
L 33.854974 24.756923 
L 33.884876 11.310616 
L 33.929424 29.389499 
L 33.985566 14.036789 
L 34.108836 29.411636 
L 34.063678 11.289924 
L 34.122871 25.103521 
L 34.153383 11.250329 
L 34.198541 29.41256 
L 34.254684 14.335524 
L 34.376732 29.470924 
L 34.332184 11.286749 
L 34.388937 26.217957 
L 34.511596 11.239463 
L 34.466438 29.475106 
L 34.52197 13.801834 
L 34.645849 29.436616 
L 34.600691 11.262396 
L 34.659885 25.031433 
L 34.779493 11.222837 
L 34.734945 29.464988 
L 34.791087 14.138018 
L 34.913746 29.511953 
L 34.869198 11.208806 
L 34.927171 25.577221 
L 35.048 11.139397 
L 35.002842 29.520043 
L 35.060204 14.372225 
L 35.181643 29.530647 
L 35.137095 11.176314 
L 35.193848 26.517866 
L 35.316506 11.197184 
L 35.271959 29.450158 
L 35.32566 13.260497 
L 35.360444 29.435262 
L 35.406212 11.286716 
L 35.465406 24.793027 
L 35.495308 11.321903 
L 35.539245 29.348184 
L 35.595998 14.0497 
L 35.719267 29.39838 
L 35.674719 11.329842 
L 35.732692 25.330703 
L 35.85352 11.284259 
L 35.808973 29.400382 
L 35.866335 14.931504 
L 35.898678 29.488399 
L 35.942616 11.262871 
L 35.999979 25.980394 
L 36.121417 11.253917 
L 36.076259 29.463041 
L 36.131791 13.606517 
L 36.256281 29.447456 
L 36.211123 11.253355 
L 36.270927 24.646105 
L 36.300218 11.196698 
L 36.345376 29.385054 
L 36.400908 13.891042 
L 36.435082 29.553322 
L 36.47963 11.232663 
L 36.538213 25.17376 
L 36.568725 11.24185 
L 36.613273 29.492174 
L 36.670636 14.606944 
L 36.702979 29.471855 
L 36.747526 11.226305 
L 36.804279 26.25304 
L 36.837232 11.22422 
L 36.88178 29.432508 
L 36.937312 13.899453 
L 36.970875 29.432261 
L 37.016033 11.265952 
L 37.076447 24.204425 
L 37.105739 11.275545 
L 37.150287 29.381246 
L 37.205209 13.762195 
L 37.239382 29.45758 
L 37.28454 11.283199 
L 37.343734 24.744972 
L 37.373636 11.292562 
L 37.418183 29.439793 
L 37.473715 13.805859 
L 37.596374 29.471262 
L 37.552437 11.260567 
L 37.61102 25.316764 
L 37.641532 11.280137 
L 37.68669 29.449847 
L 37.744053 14.656027 
L 37.775786 29.427674 
L 37.820944 11.353692 
L 37.877086 26.53042 
L 37.910039 11.337488 
L 37.954587 29.455447 
L 38.01134 14.167449 
L 38.133998 29.459452 
L 38.089451 11.339561 
L 38.146813 25.761017 
L 38.179156 11.300337 
L 38.223704 29.38113 
L 38.281067 14.799598 
L 38.3128 29.398736 
L 38.357958 11.330351 
L 38.41471 26.096844 
L 38.536759 11.336654 
L 38.491601 29.381561 
L 38.547133 13.747496 
L 38.670402 29.378834 
L 38.626464 11.366592 
L 38.685658 24.750657 
L 38.71556 11.344528 
L 38.760718 29.352705 
L 38.81564 13.863778 
L 38.849813 29.376313 
L 38.894361 11.370204 
L 38.954165 24.648271 
L 39.073162 11.323657 
L 39.028615 29.364267 
L 39.083536 13.699277 
L 39.11771 29.419395 
L 39.162868 11.332859 
L 39.222672 24.645015 
L 39.252574 11.29534 
L 39.297122 29.409043 
L 39.352043 13.647866 
L 39.475923 29.449587 
L 39.431375 11.311862 
L 39.490569 24.902348 
L 39.610176 11.282998 
L 39.565018 29.406369 
L 39.622381 14.474264 
L 39.654724 29.506767 
L 39.699272 11.252488 
L 39.757245 25.812463 
L 39.788977 11.181496 
L 39.833525 29.470824 
L 39.889057 13.711736 
L 39.923841 29.490129 
L 39.968389 11.206736 
L 40.028193 24.464551 
L 40.14719 11.236064 
L 40.102032 29.422798 
L 40.155733 13.10036 
L 40.191128 29.496476 
L 40.236286 11.23504 
L 40.294869 25.342139 
L 40.325991 11.265664 
L 40.370539 29.430008 
L 40.427292 14.349271 
L 40.54934 29.416643 
L 40.504792 11.305179 
L 40.560935 26.456112 
L 40.594498 11.246037 
L 40.639046 29.478617 
L 40.694578 13.906531 
L 40.817847 29.47792 
L 40.773299 11.246731 
L 40.832493 24.874363 
L 40.952101 11.208755 
L 40.906943 29.440754 
L 40.963085 13.946578 
L 41.086354 29.474827 
L 41.041806 11.238428 
L 41.101 24.805867 
L 41.131512 11.237054 
L 41.17545 29.441423 
L 41.230982 13.776061 
L 41.354861 29.440916 
L 41.309703 11.265691 
L 41.370727 24.01675 
L 41.489114 11.230544 
L 41.443956 29.504558 
L 41.498878 13.580591 
L 41.622758 29.459652 
L 41.57821 11.29145 
L 41.638014 24.614205 
L 41.667916 11.266406 
L 41.712463 29.460044 
L 41.767385 13.656574 
L 41.801559 29.448602 
L 41.846717 11.296696 
L 41.906521 24.493964 
L 41.936423 11.355038 
L 41.98097 29.431723 
L 42.037113 14.216236 
L 42.159161 29.367753 
L 42.115224 11.376161 
L 42.172587 25.781952 
L 42.294025 11.338423 
L 42.248257 29.383871 
L 42.303789 13.518476 
L 42.338573 29.384805 
L 42.383731 11.392229 
L 42.442924 24.731816 
L 42.562532 11.333086 
L 42.517984 29.367496 
L 42.572296 13.566128 
L 42.60708 29.453809 
L 42.651627 11.272712 
L 42.711431 24.738724 
L 42.741333 11.284778 
L 42.785881 29.47677 
L 42.841413 13.88298 
L 42.965292 29.43242 
L 42.920744 11.306771 
L 42.979328 24.983394 
L 43.00984 11.264958 
L 43.054388 29.414891 
L 43.11053 14.08388 
L 43.143483 29.467454 
L 43.188641 11.236841 
L 43.246614 25.590372 
L 43.367442 11.234272 
L 43.322895 29.509063 
L 43.380257 14.707602 
L 43.501696 29.519657 
L 43.456538 11.215754 
L 43.514511 25.915804 
L 43.635949 11.220231 
L 43.591402 29.484653 
L 43.646323 13.621526 
L 43.681107 29.497988 
L 43.725655 11.212445 
L 43.784849 24.995686 
L 43.904456 11.161653 
L 43.859908 29.516799 
L 43.915441 13.824462 
L 44.03871 29.519079 
L 43.994162 11.163199 
L 44.053966 24.637335 
L 44.172963 11.15673 
L 44.128415 29.498039 
L 44.182727 13.405825 
L 44.307217 29.619736 
L 44.262059 11.157929 
L 44.321862 24.899234 
L 44.44147 11.110841 
L 44.396312 29.519252 
L 44.451844 13.634487 
L 44.486018 29.590727 
L 44.531176 11.140437 
L 44.589759 25.187238 
L 44.709977 11.019956 
L 44.665429 29.636218 
L 44.722792 14.775067 
L 44.84423 29.767932 
L 44.799072 11.055807 
L 44.856435 26.207192 
L 44.978484 10.9955 
L 44.933936 29.57747 
L 44.988248 13.386163 
L 45.023032 29.749325 
L 45.067579 11.026829 
L 45.126163 25.405073 
L 45.157285 10.992151 
L 45.201833 29.652774 
L 45.259196 14.517898 
L 45.380634 29.694599 
L 45.336086 11.039357 
L 45.391618 27.068049 
L 45.425792 10.987092 
L 45.46973 29.613708 
L 45.527092 14.26981 
L 45.649141 29.676332 
L 45.604593 11.032235 
L 45.660125 26.972249 
L 45.693078 10.917901 
L 45.737626 29.674656 
L 45.795599 14.309022 
L 45.827942 29.804519 
L 45.87249 10.996684 
L 45.929853 26.250089 
L 45.962196 10.928863 
L 46.006743 29.728767 
L 46.061055 13.089418 
L 46.186155 29.78072 
L 46.140997 10.981662 
L 46.19958 25.477095 
L 46.230703 10.886794 
L 46.27464 29.669465 
L 46.332003 14.155102 
L 46.364956 29.822904 
L 46.409504 10.960816 
L 46.466867 26.149629 
L 46.499209 10.911493 
L 46.544367 29.825655 
L 46.599289 13.641237 
L 46.632853 29.691446 
L 46.678621 10.942724 
L 46.736594 25.420794 
L 46.767716 10.963361 
L 46.812264 29.679525 
L 46.867796 13.731666 
L 46.991065 29.708212 
L 46.946518 10.946061 
L 47.005101 25.437066 
L 47.035613 10.909874 
L 47.080161 29.762393 
L 47.137524 14.273179 
L 47.170477 29.75697 
L 47.214414 10.837861 
L 47.272998 25.626818 
L 47.393826 10.925203 
L 47.348668 29.851342 
L 47.406031 14.269993 
L 47.528079 29.895044 
L 47.483531 10.817634 
L 47.540284 26.355519 
L 47.662333 10.871527 
L 47.617785 29.769689 
L 47.673317 13.771461 
L 47.70627 29.867988 
L 47.751428 10.820054 
L 47.810622 25.319808 
L 47.93084 10.853217 
L 47.886292 29.95149 
L 47.943044 14.275134 
L 48.064483 29.872761 
L 48.020545 10.818971 
L 48.076688 26.667473 
L 48.199346 10.760149 
L 48.154799 29.783046 
L 48.209721 13.490221 
L 48.3336 29.843154 
L 48.289052 10.786293 
L 48.347025 25.533629 
L 48.377537 10.805926 
L 48.422085 29.828407 
L 48.479448 14.110192 
L 48.512401 29.883142 
L 48.556949 10.829602 
L 48.613701 26.423265 
L 48.73575 10.844693 
L 48.690592 29.865798 
L 48.745514 13.127423 
L 48.870004 29.783383 
L 48.825456 10.934827 
L 48.884649 25.112043 
L 49.004257 10.841527 
L 48.959709 29.71282 
L 49.015852 14.025652 
L 49.048805 29.79425 
L 49.093352 10.963867 
L 49.152546 25.28675 
L 49.272764 10.901448 
L 49.227606 29.71307 
L 49.284969 14.351132 
L 49.407017 29.755402 
L 49.361859 11.000431 
L 49.418002 26.854665 
L 49.540661 10.860773 
L 49.495503 29.710052 
L 49.553476 14.433103 
L 49.585819 29.790025 
L 49.630366 10.927676 
L 49.687119 26.48996 
L 49.720072 10.826956 
L 49.76523 29.704708 
L 49.819542 13.298281 
L 49.854325 29.70353 
L 49.898873 10.978412 
L 49.956846 25.687531 
L 49.988579 10.937885 
L 50.033127 29.700813 
L 50.089879 14.270821 
L 50.122832 29.765829 
L 50.16677 11.033621 
L 50.224133 26.291511 
L 50.256476 10.999414 
L 50.301023 29.601272 
L 50.357776 14.142756 
L 50.390729 29.568311 
L 50.435887 11.042403 
L 50.49264 26.084882 
L 50.524983 10.942622 
L 50.56953 29.588019 
L 50.625062 13.690963 
L 50.659236 29.72606 
L 50.703784 10.979078 
L 50.763588 24.811415 
L 50.792879 11.054374 
L 50.837427 29.632034 
L 50.892959 13.610948 
L 51.016228 29.601658 
L 50.972291 11.040882 
L 51.030874 25.256172 
L 51.061996 11.032835 
L 51.105934 29.581536 
L 51.163297 14.276549 
L 51.19625 29.686223 
L 51.240187 11.001502 
L 51.299381 25.317737 
L 51.330503 11.067407 
L 51.374441 29.67195 
L 51.431804 14.45008 
L 51.553852 29.592595 
L 51.509304 11.085478 
L 51.565447 26.496656 
L 51.59779 11.114595 
L 51.643558 29.577714 
L 51.6997 14.126999 
L 51.732653 29.576848 
L 51.777201 11.082808 
L 51.835784 25.453553 
L 51.956002 11.129989 
L 51.911455 29.534801 
L 51.968817 14.557276 
L 52.00116 29.523265 
L 52.045708 11.121856 
L 52.103681 25.733681 
L 52.135414 11.143288 
L 52.179962 29.623 
L 52.236104 14.017817 
L 52.358763 29.600467 
L 52.314825 11.149243 
L 52.372798 25.324438 
L 52.493626 11.164222 
L 52.449079 29.458852 
L 52.505831 14.576209 
L 52.538174 29.558614 
L 52.582722 11.155776 
L 52.640085 25.995392 
L 52.672428 11.180554 
L 52.716975 29.539507 
L 52.772507 13.8763 
L 52.895777 29.551771 
L 52.851229 11.238302 
L 52.910422 24.808137 
L 53.02942 11.230709 
L 52.984872 29.389269 
L 53.041625 14.235819 
L 53.164284 29.451579 
L 53.119126 11.25993 
L 53.175878 26.428801 
L 53.297927 11.150533 
L 53.253379 29.508358 
L 53.307691 13.272572 
L 53.43279 29.538435 
L 53.387632 11.200596 
L 53.447436 24.741957 
L 53.567044 11.151848 
L 53.521886 29.502506 
L 53.577418 13.732555 
L 53.700687 29.531369 
L 53.656139 11.254515 
L 53.714723 25.289189 
L 53.745845 11.216405 
L 53.790393 29.394059 
L 53.849586 15.623103 
L 53.879488 29.453422 
L 53.924036 11.300924 
L 53.980789 26.423056 
L 54.013742 11.26471 
L 54.057679 29.387257 
L 54.113211 13.446454 
L 54.237701 29.369858 
L 54.192543 11.36051 
L 54.251126 25.298398 
L 54.371954 11.328896 
L 54.326796 29.361114 
L 54.38477 14.950766 
L 54.415892 29.460126 
L 54.46166 11.395727 
L 54.518413 25.890351 
L 54.550756 11.34495 
L 54.595303 29.309156 
L 54.650835 13.887547 
L 54.774715 29.299267 
L 54.729557 11.389338 
L 54.78875 24.917176 
L 54.819263 11.396388 
L 54.86381 29.306565 
L 54.919953 14.203461 
L 54.953516 29.36532 
L 54.997453 11.407168 
L 55.056037 25.498084 
L 55.176865 11.432079 
L 55.132317 29.305489 
L 55.18968 14.855574 
L 55.310508 29.250066 
L 55.266571 11.438632 
L 55.324544 25.329413 
L 55.355666 11.408844 
L 55.400214 29.261918 
L 55.457577 14.612216 
L 55.48992 29.300437 
L 55.534467 11.39634 
L 55.59183 25.956595 
L 55.624173 11.457809 
L 55.64126 17.117317 
" clip-path="url(#p79ff5f47f8)" style="fill: none; stroke: #f08080; stroke-width: 0.04; stroke-linecap: square"/>
   </g>
   <g id="patch_3">
    <path d="M 0.72 40.008189 
L 0.72 0.72 
" style="fill: none; stroke: #f08080; stroke-width: 0.5; stroke-linejoin: miter; stroke-linecap: square"/>
   </g>
   <g id="patch_4">
    <path d="M 55.64126 40.008189 
L 55.64126 0.72 
" style="fill: none; stroke: #f08080; stroke-width: 0.5; stroke-linejoin: miter; stroke-linecap: square"/>
   </g>
   <g id="patch_5">
    <path d="M 0.72 40.008189 
L 55.64126 40.008189 
" style="fill: none; stroke: #f08080; stroke-width: 0.5; stroke-linejoin: miter; stroke-linecap: square"/>
   </g>
   <g id="patch_6">
    <path d="M 0.72 0.72 
L 55.64126 0.72 
" style="fill: none; stroke: #f08080; stroke-width: 0.5; stroke-linejoin: miter; stroke-linecap: square"/>
   </g>
  </g>
 </g>
 <defs>
  <clipPath id="p79ff5f47f8">
   <rect x="0.72" y="0.72" width="54.92126" height="39.288189"/>
  </clipPath>
 </defs>
</svg>
