<?xml version="1.0" encoding="utf-8" standalone="no"?>
<!DOCTYPE svg PUBLIC "-//W3C//DTD SVG 1.1//EN"
  "http://www.w3.org/Graphics/SVG/1.1/DTD/svg11.dtd">
<svg xmlns:xlink="http://www.w3.org/1999/xlink" width="56.36126pt" height="40.728189pt" viewBox="0 0 56.36126 40.728189" xmlns="http://www.w3.org/2000/svg" version="1.1">
 <metadata>
  <rdf:RDF xmlns:dc="http://purl.org/dc/elements/1.1/" xmlns:cc="http://creativecommons.org/ns#" xmlns:rdf="http://www.w3.org/1999/02/22-rdf-syntax-ns#">
   <cc:Work>
    <dc:type rdf:resource="http://purl.org/dc/dcmitype/StillImage"/>
    <dc:date>2025-02-17T13:49:16.022733</dc:date>
    <dc:format>image/svg+xml</dc:format>
    <dc:creator>
     <cc:Agent>
      <dc:title>Matplotlib v3.8.0, https://matplotlib.org/</dc:title>
     </cc:Agent>
    </dc:creator>
   </cc:Work>
  </rdf:RDF>
 </metadata>
 <defs>
  <style type="text/css">*{stroke-linejoin: round; stroke-linecap: butt}</style>
 </defs>
 <g id="figure_1">
  <g id="patch_1">
   <path d="M 0 40.728189 
L 56.36126 40.728189 
L 56.36126 0 
L 0 0 
z
" style="fill: #ffffff"/>
  </g>
  <g id="axes_1">
   <g id="patch_2">
    <path d="M 0.72 40.008189 
L 55.64126 40.008189 
L 55.64126 0.72 
L 0.72 0.72 
z
" style="fill: #ffffff"/>
   </g>
   <g id="matplotlib.axis_1"/>
   <g id="matplotlib.axis_2"/>
   <g id="line2d_1">
    <path d="M 0.72 2.226159 
L 0.727323 3.59763 
L 0.859135 37.651191 
L 0.815198 3.01453 
L 0.882935 16.840575 
L 0.903073 2.87189 
L 0.9464 37.161411 
L 1.001322 7.005823 
L 1.126422 36.068365 
L 1.082484 4.418183 
L 1.142898 26.354941 
L 1.17097 4.613987 
L 1.215517 35.270252 
L 1.270439 8.79945 
L 1.304613 34.834257 
L 1.350991 5.907934 
L 1.410185 26.795063 
L 1.438866 6.094652 
L 1.482804 34.282927 
L 1.538946 10.399275 
L 1.57312 33.626878 
L 1.619498 7.136002 
L 1.676251 27.786184 
L 1.708594 7.341736 
L 1.751921 32.989918 
L 1.807453 11.084158 
L 1.839796 32.601838 
L 1.886174 7.963446 
L 1.944147 27.43477 
L 1.97466 8.256424 
L 2.019818 32.157504 
L 2.07657 12.44275 
L 2.109523 31.856329 
L 2.154681 8.835728 
L 2.212044 27.049659 
L 2.243777 9.0045 
L 2.287714 31.356977 
L 2.345077 13.299793 
L 2.37803 31.20743 
L 2.421968 9.574819 
L 2.479941 26.531311 
L 2.511673 9.763977 
L 2.555611 30.818917 
L 2.613584 13.872469 
L 2.645317 30.571684 
L 2.690475 10.085247 
L 2.746617 27.088583 
L 2.77957 10.406667 
L 2.824118 30.065858 
L 2.882091 14.715179 
L 2.913213 29.963108 
L 2.958982 10.684073 
L 3.016955 25.360419 
L 3.046246 10.817423 
L 3.091404 29.602803 
L 3.147547 13.964009 
L 3.17989 29.540874 
L 3.225658 11.238895 
L 3.283631 25.534865 
L 3.315363 11.582764 
L 3.359301 29.01534 
L 3.415443 14.131504 
L 3.538712 29.074883 
L 3.492944 11.945438 
L 3.549697 26.055374 
L 3.58204 12.002877 
L 3.626587 28.823303 
L 3.685171 15.288267 
L 3.716293 28.611272 
L 3.761451 12.164117 
L 3.818814 25.165518 
L 3.850547 12.108423 
L 3.895094 28.537193 
L 3.950626 14.841448 
L 4.073285 28.283775 
L 4.028127 12.402595 
L 4.089762 23.493143 
L 4.119054 12.557516 
L 4.16116 27.979873 
L 4.217913 14.673734 
L 4.341182 27.937618 
L 4.296634 12.506724 
L 4.355828 24.135945 
L 4.38573 12.547993 
L 4.431498 27.879341 
L 4.48642 15.076259 
L 4.519373 27.785508 
L 4.565141 12.988033 
L 4.619453 25.620345 
L 4.654847 12.962389 
L 4.698174 27.724228 
L 4.756757 16.464121 
L 4.786049 27.442491 
L 4.829987 13.210011 
L 4.886739 25.41324 
L 4.921523 13.15388 
L 4.966071 27.468332 
L 5.024654 16.578845 
L 5.055777 27.428569 
L 5.097273 13.51849 
L 5.154636 25.40883 
L 5.188809 13.275679 
L 5.232137 27.371283 
L 5.291941 16.674851 
L 5.322453 27.093268 
L 5.367 13.576402 
L 5.424363 24.6767 
L 5.456096 13.617544 
L 5.501254 27.106407 
L 5.558617 16.293883 
L 5.589129 26.918111 
L 5.635507 13.78977 
L 5.69348 23.992627 
L 5.813698 13.660831 
L 5.769761 26.88843 
L 5.824683 15.783705 
L 5.860077 26.793518 
L 5.903404 13.983623 
L 5.960767 24.223567 
L 5.990669 13.817426 
L 6.036437 26.970591 
L 6.092579 15.829944 
L 6.215238 26.938314 
L 6.173131 13.817613 
L 6.228053 24.160815 
L 6.348271 13.900966 
L 6.305554 26.771147 
L 6.360476 15.888482 
L 6.482525 26.718315 
L 6.436146 13.976693 
L 6.49595 24.038657 
L 6.617999 13.842964 
L 6.574061 26.650057 
L 6.628373 15.939675 
L 6.660716 26.567079 
L 6.705263 14.185348 
L 6.763847 23.96217 
L 6.884675 14.031469 
L 6.840127 26.504746 
L 6.896269 16.056762 
L 6.929223 26.531933 
L 6.974381 14.422666 
L 7.033574 23.070211 
L 7.062866 14.237046 
L 7.105583 26.289995 
L 7.163556 16.096855 
L 7.197119 26.291948 
L 7.241667 14.308648 
L 7.30025 23.69428 
L 7.329542 14.51951 
L 7.37531 26.0536 
L 7.432063 16.318299 
L 7.552891 26.165277 
L 7.508953 14.403008 
L 7.566316 24.0063 
L 7.59988 14.611041 
L 7.643207 25.941502 
L 7.699349 16.372347 
L 7.821398 26.059535 
L 7.77685 14.619094 
L 7.836654 23.228561 
L 7.865946 14.704536 
L 7.910493 25.893825 
L 7.967246 16.449233 
L 8.001419 25.95705 
L 8.044136 14.65098 
L 8.10272 23.549094 
L 8.222938 14.687905 
L 8.17961 25.754919 
L 8.235753 16.864465 
L 8.357191 25.84983 
L 8.312643 14.628371 
L 8.370617 23.447089 
L 8.402349 14.796196 
L 8.445676 25.845919 
L 8.501819 16.362872 
L 8.535992 25.791905 
L 8.578709 14.824409 
L 8.639123 23.226337 
L 8.669025 14.788495 
L 8.714794 25.604526 
L 8.769105 16.385134 
L 8.803279 25.690808 
L 8.850268 15.03363 
L 8.908241 22.663106 
L 8.939363 15.040366 
L 8.98208 25.654141 
L 9.037612 16.712202 
L 9.15844 25.62653 
L 9.115113 15.070515 
L 9.176748 22.343647 
L 9.204208 15.045686 
L 9.249977 25.669368 
L 9.303678 16.409852 
L 9.337852 25.516227 
L 9.38301 15.113563 
L 9.445254 22.162483 
L 9.470885 15.13157 
L 9.516043 25.497301 
L 9.571575 16.479469 
L 9.606359 25.324858 
L 9.649686 15.092876 
L 9.70949 23.207243 
L 9.740002 15.141644 
L 9.783939 25.51853 
L 9.840692 16.933861 
L 9.874255 25.353211 
L 9.918803 15.296835 
L 9.976776 23.082696 
L 10.096384 15.151498 
L 10.051226 25.398652 
L 10.110419 17.387733 
L 10.231247 25.405237 
L 10.183038 15.467509 
L 10.241622 23.870693 
L 10.36428 15.324506 
L 10.319733 25.330936 
L 10.378316 17.478613 
L 10.499144 25.328809 
L 10.454596 15.349931 
L 10.509518 23.831149 
L 10.631567 15.319313 
L 10.587629 25.216361 
L 10.643161 16.889253 
L 10.76582 25.32463 
L 10.721883 15.406942 
L 10.779246 23.309716 
L 10.810368 15.372265 
L 10.854916 25.122474 
L 10.911668 17.112114 
L 11.032496 25.320508 
L 10.989779 15.496447 
L 11.046532 23.313781 
L 11.16614 15.401795 
L 11.122202 25.308942 
L 11.178955 16.968641 
L 11.211298 25.28795 
L 11.257066 15.278698 
L 11.315039 22.874442 
L 11.345551 15.511417 
L 11.388268 25.127429 
L 11.445631 16.581785 
L 11.5689 25.231261 
L 11.523132 15.676885 
L 11.582936 22.970689 
L 11.703154 15.459586 
L 11.657385 25.145672 
L 11.714748 17.350898 
L 11.835576 25.129483 
L 11.791029 15.930829 
L 11.846561 23.870506 
L 11.880124 15.491562 
L 11.925282 25.054218 
L 11.982645 17.224131 
L 12.013767 25.057124 
L 12.057705 15.627276 
L 12.114457 23.628372 
L 12.148021 15.674499 
L 12.191958 24.879054 
L 12.252372 17.975831 
L 12.281664 25.071449 
L 12.326822 15.811293 
L 12.382354 23.504489 
L 12.415917 15.735427 
L 12.461075 24.933191 
L 12.520879 18.239974 
L 12.550781 24.992979 
L 12.594719 15.856202 
L 12.650861 23.421175 
L 12.685035 15.794791 
L 12.727752 24.910963 
L 12.785725 17.387674 
L 12.818067 24.954224 
L 12.862005 15.732862 
L 12.920588 22.841862 
L 13.040196 15.788471 
L 12.995648 24.983503 
L 13.05118 17.086277 
L 13.173229 24.90439 
L 13.129291 15.714319 
L 13.185434 23.53576 
L 13.218387 15.817331 
L 13.264155 24.786404 
L 13.320908 17.352864 
L 13.35142 24.78266 
L 13.397798 15.779167 
L 13.453941 22.984606 
L 13.5766 15.939761 
L 13.531442 24.79105 
L 13.587584 17.339259 
L 13.620537 24.771038 
L 13.665085 15.804192 
L 13.721837 23.129186 
L 13.75418 15.724023 
L 13.797508 24.846089 
L 13.856091 17.563914 
L 13.976309 24.868028 
L 13.932981 15.878793 
L 13.989734 23.050411 
L 14.110562 16.002587 
L 14.066014 24.677168 
L 14.122767 17.485968 
L 14.15572 24.851092 
L 14.199658 15.85934 
L 14.257631 22.831955 
L 14.377849 15.82119 
L 14.332691 24.499796 
L 14.387002 16.76463 
L 14.512712 24.621836 
L 14.465724 16.292513 
L 14.524307 22.961459 
L 14.55665 16.095952 
L 14.602418 24.394962 
L 14.65673 17.435542 
L 14.779999 24.494662 
L 14.734231 16.132763 
L 14.792204 22.84154 
L 14.913032 16.006025 
L 14.867874 24.444912 
L 14.924016 17.27594 
L 15.046675 24.51531 
L 15.001517 16.373149 
L 15.05888 23.026276 
L 15.090612 16.116196 
L 15.13577 24.52453 
L 15.193133 17.732352 
L 15.313961 24.474914 
L 15.271855 16.318759 
L 15.323725 23.491702 
L 15.447605 16.187884 
L 15.403667 24.427036 
L 15.46164 18.053748 
L 15.492763 24.4513 
L 15.537921 16.398116 
L 15.594673 22.863721 
L 15.626406 16.288185 
L 15.672174 24.400166 
L 15.728316 17.725855 
L 15.849144 24.393041 
L 15.805207 16.425999 
L 15.86196 22.816254 
L 15.891861 16.207229 
L 15.93885 24.062182 
L 15.995603 17.946251 
L 16.028556 24.187717 
L 16.073714 16.441565 
L 16.128026 22.91755 
L 16.250684 16.430216 
L 16.205526 24.111832 
L 16.263499 17.866641 
L 16.297063 24.20929 
L 16.338559 16.536866 
L 16.397143 22.778336 
L 16.430096 16.262454 
L 16.474033 24.140637 
L 16.532006 18.016088 
L 16.563129 24.215451 
L 16.608897 16.536323 
L 16.66565 22.663134 
L 16.785257 16.529611 
L 16.74193 24.101723 
L 16.798072 17.850354 
L 16.920731 24.171144 
L 16.874353 16.318696 
L 16.932936 22.690966 
L 16.964669 16.431899 
L 17.009827 24.15549 
L 17.064138 17.428284 
L 17.189238 24.030871 
L 17.14286 16.537588 
L 17.199612 22.858971 
L 17.231955 16.619732 
L 17.277113 23.933891 
L 17.335696 18.138677 
L 17.455304 23.984427 
L 17.410756 16.490656 
L 17.468729 22.442748 
L 17.589558 16.647187 
L 17.54501 23.927731 
L 17.602983 18.165865 
L 17.634716 24.045137 
L 17.678653 16.712805 
L 17.735406 22.55323 
L 17.856234 16.677586 
L 17.812296 23.961925 
L 17.867218 17.715542 
L 17.900171 23.965653 
L 17.945939 16.770225 
L 18.002692 22.654087 
L 18.035035 16.793292 
L 18.080193 23.781287 
L 18.138776 18.469673 
L 18.168678 23.941247 
L 18.213226 16.69923 
L 18.270589 22.470113 
L 18.390807 16.70061 
L 18.346869 23.872442 
L 18.401791 17.731759 
L 18.52567 23.707981 
L 18.481123 16.867327 
L 18.537875 22.540011 
L 18.569608 16.978009 
L 18.614156 23.659613 
L 18.671518 18.225424 
L 18.791736 23.587332 
L 18.747799 17.024752 
L 18.803941 22.673499 
L 18.92721 16.864218 
L 18.880832 23.434704 
L 18.939415 18.123526 
L 18.973589 23.551801 
L 19.015695 17.129922 
L 19.071228 22.717668 
L 19.107232 17.032204 
L 19.149949 23.605317 
L 19.206701 18.272554 
L 19.240265 23.463903 
L 19.282982 17.257438 
L 19.340345 22.504801 
L 19.461783 17.106486 
L 19.417235 23.39254 
L 19.47826 18.9834 
L 19.506331 23.407195 
L 19.549658 17.144105 
L 19.607021 22.37292 
L 19.728459 17.196658 
L 19.685132 23.409765 
L 19.743715 18.72509 
L 19.773617 23.35551 
L 19.818775 17.177011 
L 19.874918 22.366838 
L 19.908481 17.192848 
L 19.951198 23.43502 
L 20.009781 18.523432 
L 20.129999 23.451945 
L 20.086062 17.228497 
L 20.140984 22.555963 
L 20.264253 17.365602 
L 20.218484 23.191592 
L 20.277068 18.470166 
L 20.3088 23.296909 
L 20.353348 17.307026 
L 20.410101 21.972504 
L 20.442444 17.393375 
L 20.48455 23.20156 
L 20.542523 18.420845 
L 20.664572 23.268753 
L 20.620024 17.417125 
L 20.676777 22.256951 
L 20.796995 17.421571 
L 20.754888 23.155248 
L 20.80981 18.520777 
L 20.841542 23.232347 
L 20.887921 17.529327 
L 20.942843 22.185528 
L 20.978237 17.442885 
L 21.021564 23.17153 
L 21.076486 18.308542 
L 21.200365 22.957297 
L 21.153987 17.654475 
L 21.21196 22.191643 
L 21.243693 17.453243 
L 21.288851 23.087426 
L 21.344993 18.550169 
L 21.467042 23.106399 
L 21.421884 17.612765 
L 21.479246 22.051101 
L 21.5122 17.597871 
L 21.554917 23.029465 
L 21.615331 18.988899 
L 21.645233 23.115025 
L 21.68856 17.617668 
L 21.744702 22.233345 
L 21.868581 17.623453 
L 21.824034 22.948876 
L 21.882617 19.019562 
L 21.999784 23.039114 
L 21.956456 17.593376 
L 22.011989 22.361725 
L 22.135868 17.693342 
L 22.09071 22.954032 
L 22.150514 19.089964 
L 22.179805 23.063418 
L 22.224963 17.781913 
L 22.278054 22.383881 
L 22.402544 17.630583 
L 22.357996 22.948479 
L 22.41841 19.136345 
L 22.536798 22.858979 
L 22.49225 17.765135 
L 22.54351 22.517402 
L 22.580735 17.751154 
L 22.624062 22.723033 
L 22.686917 19.467303 
L 22.803474 22.829072 
L 22.760146 17.83645 
L 22.813848 22.233318 
L 22.848632 17.848456 
L 22.892569 22.742472 
L 22.954814 19.420004 
L 22.982275 22.819515 
L 23.026823 17.828616 
L 23.082965 21.979764 
L 23.206234 17.865061 
L 23.160466 22.798424 
L 23.217829 18.830555 
L 23.339267 22.745261 
L 23.29533 18.022258 
L 23.352082 21.703425 
L 23.474131 17.949413 
L 23.428973 22.590969 
L 23.485115 18.799164 
L 23.516848 22.752723 
L 23.561396 18.0109 
L 23.616928 22.025848 
L 23.739586 17.962097 
L 23.695649 22.742234 
L 23.756063 19.20226 
L 23.785355 22.672822 
L 23.829292 18.035689 
L 23.886045 21.968488 
L 23.917777 17.848175 
L 23.962325 22.571191 
L 24.022739 19.340835 
L 24.140516 22.678283 
L 24.097189 18.050576 
L 24.15089 22.148592 
L 24.185674 18.100985 
L 24.231442 22.490844 
L 24.290026 19.261305 
L 24.319928 22.633298 
L 24.363255 18.028785 
L 24.418177 22.005897 
L 24.45235 17.987958 
L 24.498729 22.665845 
L 24.554871 18.97516 
L 24.674479 22.645502 
L 24.631152 18.034815 
L 24.686073 22.148945 
L 24.721467 17.996843 
L 24.764795 22.442749 
L 24.825819 19.492296 
L 24.855111 22.598088 
L 24.897217 18.08997 
L 24.950919 22.156918 
L 25.077239 18.121788 
L 25.033912 22.63833 
L 25.094326 19.665057 
L 25.121177 22.508827 
L 25.165114 18.189861 
L 25.220036 22.109191 
L 25.257871 18.090438 
L 25.299368 22.602043 
L 25.359782 19.354758 
L 25.477559 22.543322 
L 25.434231 18.034149 
L 25.490374 21.842197 
L 25.611812 18.115104 
L 25.567264 22.44101 
L 25.627068 19.395843 
L 25.65697 22.568887 
L 25.700907 18.155516 
L 25.755219 21.920673 
L 25.879098 18.075204 
L 25.83394 22.544312 
L 25.894355 19.335214 
L 26.013352 22.461535 
L 25.968804 18.183387 
L 26.024336 21.900196 
L 26.148216 18.247161 
L 26.103058 22.359399 
L 26.162861 19.415856 
L 26.192153 22.493045 
L 26.23426 18.180685 
L 26.291012 21.884286 
L 26.413671 18.108444 
L 26.371565 22.421402 
L 26.428927 19.117345 
L 26.548535 22.404703 
L 26.503987 18.330499 
L 26.56013 21.841633 
L 26.592473 18.261115 
L 26.63702 22.372777 
L 26.696824 19.338261 
L 26.813991 22.508072 
L 26.771274 18.232577 
L 26.826196 21.957928 
L 26.860369 18.248633 
L 26.905527 22.228885 
L 26.967162 19.698853 
L 26.994623 22.469187 
L 27.03795 18.434602 
L 27.093482 21.763806 
L 27.128266 18.331333 
L 27.172203 22.269875 
L 27.234448 19.759119 
L 27.349784 22.395753 
L 27.305847 18.569178 
L 27.361379 21.772916 
L 27.392501 18.394634 
L 27.43949 22.050606 
L 27.492581 18.833166 
L 27.529806 22.245318 
L 27.573133 18.51238 
L 27.631716 21.432305 
L 27.751934 18.458954 
L 27.707386 22.151444 
L 27.76597 19.387042 
L 27.795872 22.268702 
L 27.840419 18.573161 
L 27.894121 21.866817 
L 27.929515 18.303803 
L 27.972842 22.269728 
L 28.035697 19.91626 
L 28.151643 22.276761 
L 28.106485 18.457875 
L 28.162628 21.747653 
L 28.196191 18.448135 
L 28.238908 22.136847 
L 28.300543 19.592124 
L 28.329834 22.307399 
L 28.374992 18.358396 
L 28.427473 21.796583 
L 28.463478 18.3574 
L 28.507415 22.415521 
L 28.567829 19.610377 
L 28.685606 22.368152 
L 28.642889 18.342765 
L 28.697811 21.755749 
L 28.731374 18.26675 
L 28.775312 22.31367 
L 28.829623 18.930516 
L 28.865017 22.359007 
L 28.908345 18.19615 
L 28.965708 21.492421 
L 29.088977 18.33114 
L 29.042598 22.395441 
L 29.09813 19.005511 
L 29.129253 22.309954 
L 29.175631 18.372906 
L 29.231773 21.69163 
L 29.268388 18.396229 
L 29.310495 22.429522 
L 29.371519 19.675078 
L 29.489296 22.380472 
L 29.443528 18.294526 
L 29.500891 21.709782 
L 29.622939 18.308691 
L 29.577171 22.235392 
L 29.634534 19.14806 
L 29.666877 22.400658 
L 29.710204 18.300903 
L 29.765126 21.811026 
L 29.889615 18.365232 
L 29.844457 22.351835 
L 29.903651 19.387578 
L 30.023259 22.355066 
L 29.978711 18.404408 
L 30.032412 21.894886 
L 30.156902 18.418913 
L 30.111744 22.214166 
L 30.170327 19.288402 
L 30.288714 22.293602 
L 30.245387 18.366508 
L 30.30214 21.615308 
L 30.424188 18.272721 
L 30.380251 22.164417 
L 30.439444 19.424257 
L 30.557832 22.343075 
L 30.512674 18.468138 
L 30.568206 21.835033 
L 30.690865 18.364088 
L 30.646927 22.331581 
L 30.707341 19.596436 
L 30.823897 22.413086 
L 30.78057 18.393039 
L 30.834882 21.850522 
L 30.867835 18.354897 
L 30.912993 22.116279 
L 30.972187 19.228492 
L 31.003919 22.334762 
L 31.047857 18.57451 
L 31.100338 21.915956 
L 31.225437 18.291514 
L 31.18211 22.290041 
L 31.240693 19.340231 
L 31.360301 22.396452 
L 31.315143 18.37993 
L 31.370065 21.831538 
L 31.405459 18.324038 
L 31.448176 22.27967 
L 31.503708 18.920193 
L 31.537882 22.336219 
L 31.58426 18.419303 
L 31.637962 21.71186 
L 31.76001 18.373024 
L 31.717293 22.153569 
L 31.775877 19.500832 
L 31.804558 22.283944 
L 31.848495 18.449636 
L 31.904028 21.824606 
L 31.938811 18.210409 
L 31.981528 22.460398 
L 32.040722 19.279363 
L 32.16155 22.376244 
L 32.117613 18.35346 
L 32.171924 21.816117 
L 32.205488 18.313169 
L 32.250035 22.199448 
L 32.306178 19.106248 
L 32.33791 22.448132 
L 32.384289 18.269777 
L 32.439211 21.567457 
L 32.469723 18.362869 
L 32.517322 22.445822 
L 32.572244 19.042959 
L 32.694292 22.277312 
L 32.650355 18.441763 
L 32.708938 21.53127 
L 32.740671 18.36522 
L 32.783998 22.253753 
L 32.83892 18.910751 
L 32.874314 22.283202 
L 32.917641 18.378186 
L 32.974394 21.486949 
L 33.007347 18.372224 
L 33.051284 22.304608 
L 33.109868 19.360987 
L 33.139159 22.218924 
L 33.184317 18.507543 
L 33.23985 21.739466 
L 33.363729 18.406832 
L 33.317961 22.302321 
L 33.383867 20.091226 
L 33.497372 22.343316 
L 33.455265 18.421264 
L 33.507746 21.822318 
L 33.629795 18.408674 
L 33.585247 22.228594 
L 33.646882 19.694487 
L 33.675563 22.327198 
L 33.719501 18.439991 
L 33.771981 21.891764 
L 33.896471 18.412555 
L 33.854364 22.316548 
L 33.912948 19.453154 
L 34.031945 22.280889 
L 33.988007 18.473193 
L 34.041099 21.921169 
L 34.166198 18.554118 
L 34.121651 22.078547 
L 34.179013 19.448236 
L 34.297401 22.21534 
L 34.254684 18.455961 
L 34.309606 21.725892 
L 34.432875 18.409029 
L 34.387106 22.108426 
L 34.44569 19.205517 
L 34.565908 22.157611 
L 34.52075 18.547779 
L 34.575671 21.810275 
L 34.609235 18.451852 
L 34.653783 22.223667 
L 34.719079 20.04742 
L 34.831974 22.260867 
L 34.788646 18.590914 
L 34.843568 21.742152 
L 34.965617 18.342935 
L 34.9229 22.130891 
L 34.981483 19.378596 
L 35.009554 22.283029 
L 35.054102 18.506206 
L 35.109024 21.819793 
L 35.143197 18.411881 
L 35.189576 22.241778 
L 35.24999 19.612933 
L 35.367767 22.1777 
L 35.321388 18.595908 
L 35.37448 22.028425 
L 35.409874 18.456554 
L 35.520328 19.989953 
L 35.546568 22.175137 
L 35.589895 18.550699 
L 35.644817 21.724085 
L 35.768697 18.528818 
L 35.723539 22.03314 
L 35.787614 19.936208 
L 35.812634 22.185232 
L 35.857182 18.534012 
L 35.912714 21.703754 
L 35.948718 18.436223 
L 35.992045 22.186921 
L 36.056731 20.151038 
L 36.170847 22.170199 
L 36.126909 18.45896 
L 36.181831 21.684064 
L 36.214784 18.449661 
L 36.258722 22.061235 
L 36.316695 19.31748 
L 36.348427 22.196933 
L 36.392365 18.449446 
L 36.451558 21.245486 
L 36.48024 18.462902 
L 36.526618 22.180011 
L 36.584591 19.491765 
L 36.615104 22.077777 
L 36.660262 18.53899 
L 36.717624 21.504532 
L 36.751188 18.519106 
L 36.793905 22.124173 
L 36.855539 19.873229 
L 36.884221 22.034552 
L 36.926327 18.497941 
L 36.98308 21.559528 
L 37.105739 18.590219 
L 37.060581 22.105271 
L 37.119164 19.448049 
L 37.148456 22.028053 
L 37.195445 18.638615 
L 37.250367 21.505049 
L 37.28454 18.737995 
L 37.327867 21.996087 
L 37.389502 19.825232 
L 37.507279 22.026323 
L 37.463341 18.706012 
L 37.516432 21.678833 
L 37.640922 18.67194 
L 37.595154 21.948825 
L 37.652517 19.399461 
L 37.68669 21.962386 
L 37.729407 18.687657 
L 37.78555 21.459296 
L 37.908208 18.744819 
L 37.86305 21.942443 
L 37.921634 19.52963 
L 38.042462 21.903414 
L 37.997304 18.844205 
L 38.053446 21.459196 
L 38.176105 18.865978 
L 38.130947 21.857471 
L 38.1877 19.42906 
L 38.309138 21.869508 
L 38.26459 18.790126 
L 38.321343 21.394325 
L 38.443392 18.795596 
L 38.397623 21.795571 
L 38.455596 19.434386 
L 38.577035 21.843315 
L 38.531267 18.870735 
L 38.586799 21.53821 
L 38.711288 18.859878 
L 38.66552 21.886292 
L 38.725934 19.702646 
L 38.844931 21.868744 
L 38.800384 18.919108 
L 38.855916 21.363092 
L 38.978575 18.863109 
L 38.935247 21.709689 
L 38.986508 19.128628 
L 39.019461 21.858709 
L 39.06706 18.998652 
L 39.125033 21.206613 
L 39.24342 18.878381 
L 39.200093 21.799052 
L 39.257456 19.432047 
L 39.380115 21.864148 
L 39.333736 19.023352 
L 39.389878 21.425518 
L 39.423442 18.791052 
L 39.46799 21.698658 
L 39.523522 19.36265 
L 39.557085 21.828779 
L 39.601023 19.012419 
L 39.658385 21.344624 
L 39.691339 18.908135 
L 39.734056 21.670843 
L 39.793249 19.480087 
L 39.824372 21.817802 
L 39.868309 19.081566 
L 39.923841 21.432366 
L 39.959235 18.915066 
L 40.001342 21.788857 
L 40.064807 20.043748 
L 40.180143 21.840038 
L 40.134375 18.968326 
L 40.191128 21.484233 
L 40.225911 18.878247 
L 40.267408 21.668436 
L 40.327212 19.604404 
L 40.357114 21.789947 
L 40.401051 18.994177 
L 40.462686 21.128315 
L 40.493198 19.032086 
L 40.537135 21.780416 
L 40.594498 19.655859 
L 40.626841 21.746418 
L 40.670779 18.983139 
L 40.728141 21.247243 
L 40.759264 18.89408 
L 40.803201 21.727403 
L 40.859344 19.516984 
L 40.892297 21.717964 
L 40.939285 18.946846 
L 40.994207 21.251663 
L 41.028991 19.105129 
L 41.071708 21.721084 
L 41.129071 19.781616 
L 41.160193 21.688704 
L 41.205351 19.104762 
L 41.258443 21.374356 
L 41.383542 19.122226 
L 41.337774 21.687672 
L 41.396357 19.738221 
L 41.514745 21.70733 
L 41.471417 19.041347 
L 41.52878 21.220675 
L 41.650829 19.078059 
L 41.605671 21.709453 
L 41.660593 19.571256 
L 41.695377 21.669519 
L 41.737483 19.016022 
L 41.796067 21.109305 
L 41.914454 19.035464 
L 41.871737 21.733357 
L 41.927879 19.593104 
L 42.049928 21.663292 
L 42.00477 19.114121 
L 42.060302 21.366684 
L 42.18235 19.18062 
L 42.139023 21.610149 
L 42.198827 19.887196 
L 42.317214 21.626555 
L 42.273887 19.051314 
L 42.327588 21.303091 
L 42.451468 19.075026 
L 42.40692 21.59334 
L 42.463672 19.637594 
L 42.58328 21.603884 
L 42.539953 19.130631 
L 42.593044 21.34713 
L 42.717534 19.23376 
L 42.671765 21.634882 
L 42.737672 20.219823 
L 42.851787 21.521894 
L 42.806629 19.293063 
L 42.862161 21.217324 
L 42.98543 19.14663 
L 42.939662 21.44563 
L 42.998245 19.720194 
L 43.028757 21.575848 
L 43.073915 19.393142 
L 43.128837 21.247613 
L 43.252106 19.231664 
L 43.209389 21.496059 
L 43.267973 19.967923 
L 43.385139 21.477547 
L 43.341812 19.416877 
L 43.396124 21.153721 
L 43.429077 19.229726 
L 43.475455 21.401373 
L 43.528547 19.515048 
L 43.652426 21.500363 
L 43.607268 19.485151 
L 43.670123 20.805602 
L 43.697584 19.279335 
L 43.740911 21.379423 
L 43.794002 19.45585 
L 43.830617 21.476294 
L 43.875775 19.417068 
L 43.933138 21.092432 
L 43.96487 19.286949 
L 44.009418 21.439211 
L 44.062509 19.623246 
L 44.186388 21.460247 
L 44.142451 19.408191 
L 44.206526 20.594902 
L 44.230936 19.315433 
L 44.273653 21.427928 
L 44.329185 19.576441 
L 44.3658 21.46095 
L 44.408517 19.313991 
L 44.471372 20.836073 
L 44.500664 19.309399 
L 44.544601 21.440399 
L 44.597082 19.774938 
L 44.631866 21.409901 
L 44.674583 19.401457 
L 44.736217 20.85912 
L 44.766119 19.274746 
L 44.810057 21.414873 
L 44.865589 19.811383 
L 44.900983 21.396468 
L 44.946751 19.384248 
L 44.99496 21.206763 
L 45.034016 19.473047 
L 45.077343 21.37675 
L 45.140198 20.320531 
L 45.167659 21.413394 
L 45.207935 19.373181 
L 45.264078 21.08319 
L 45.303133 19.459022 
L 45.34585 21.310497 
L 45.409926 20.290686 
L 45.523431 21.382653 
L 45.478883 19.492837 
L 45.533805 21.130417 
L 45.657074 19.460207 
L 45.611916 21.366186 
L 45.667448 19.775808 
L 45.702232 21.3841 
L 45.74617 19.359753 
L 45.79682 21.26687 
L 45.92375 19.352385 
L 45.879203 21.413488 
L 45.940227 20.036325 
L 46.057394 21.396044 
L 46.013456 19.423981 
L 46.069598 21.120176 
L 46.192867 19.477924 
L 46.145879 21.35725 
L 46.212395 20.266314 
L 46.32529 21.309682 
L 46.283794 19.403131 
L 46.332613 21.263841 
L 46.462595 19.382837 
L 46.417437 21.358479 
L 46.480902 20.370539 
L 46.591966 21.424929 
L 46.55047 19.450029 
L 46.602951 21.194045 
L 46.72744 19.336808 
L 46.679231 21.484902 
L 46.745748 20.207856 
L 46.859863 21.418493 
L 46.815926 19.441532 
L 46.868406 21.234781 
L 46.995337 19.411445 
L 46.950179 21.300289 
L 47.013644 20.191578 
L 47.038054 21.411287 
L 47.084432 19.537501 
L 47.139354 21.125465 
L 47.260182 19.377378 
L 47.215635 21.391185 
L 47.277269 19.975272 
L 47.30534 21.358174 
L 47.350498 19.515253 
L 47.40359 21.114042 
L 47.436543 19.448739 
L 47.482311 21.244667 
L 47.538453 19.740327 
L 47.572627 21.35439 
L 47.615344 19.638626 
L 47.672707 21.063669 
L 47.795976 19.426854 
L 47.749597 21.246438 
L 47.805129 19.690493 
L 47.838693 21.315157 
L 47.885071 19.605401 
L 47.940603 20.988913 
L 47.974777 19.469131 
L 48.016274 21.287458 
L 48.076688 20.022712 
L 48.195075 21.322439 
L 48.147476 19.647133 
L 48.210331 20.77852 
L 48.238402 19.493097 
L 48.285391 21.256708 
L 48.343364 19.930379 
L 48.376317 21.261399 
L 48.418424 19.674211 
L 48.477007 20.86493 
L 48.50874 19.622806 
L 48.555118 21.180704 
L 48.614922 20.194135 
L 48.733309 21.184091 
L 48.686931 19.685051 
L 48.743683 20.928579 
L 48.776636 19.608158 
L 48.819353 21.152571 
L 48.872444 19.832142 
L 48.996934 21.183946 
L 48.954217 19.63185 
L 49.016462 20.677997 
L 49.043923 19.626953 
L 49.08725 21.224383 
L 49.142172 19.946658 
L 49.177566 21.218721 
L 49.220893 19.65143 
L 49.273984 21.005156 
L 49.31243 19.667881 
L 49.356367 21.124698 
L 49.41434 20.091455 
L 49.533948 21.254173 
L 49.4894 19.596617 
L 49.549814 20.791233 
L 49.579716 19.614939 
L 49.621823 21.212801 
L 49.680406 20.081182 
L 49.713359 21.199105 
L 49.754246 19.615997 
L 49.811608 20.938569 
L 49.843951 19.728118 
L 49.892161 21.145767 
L 49.951354 20.208925 
L 50.0673 21.144838 
L 50.024583 19.688566 
L 50.076454 21.047261 
L 50.202774 19.68905 
L 50.158837 21.144947 
L 50.21803 20.124444 
L 50.337028 21.152821 
L 50.29187 19.607945 
L 50.347402 20.942277 
L 50.46884 19.685903 
L 50.425513 21.13226 
L 50.484706 20.150015 
L 50.513388 21.158432 
L 50.559156 19.703218 
L 50.607976 21.05964 
L 50.736737 19.689054 
L 50.691579 21.147185 
L 50.763588 20.658126 
L 50.780674 21.07071 
L 50.829494 19.745739 
L 50.878923 20.967222 
L 51.004634 19.665972 
L 50.961917 21.142154 
L 51.016228 19.932431 
L 51.04674 21.202002 
L 51.093119 19.694107 
L 51.149871 20.898322 
L 51.269479 19.588576 
L 51.224321 21.191639 
L 51.287176 20.069576 
L 51.315247 21.129291 
L 51.361015 19.783585 
L 51.419599 20.685557 
L 51.451331 19.746821 
L 51.495879 21.034238 
L 51.557514 20.197773 
L 51.582534 21.056444 
L 51.631353 19.923268 
L 51.693598 20.481734 
L 51.805883 19.712081 
L 51.761945 21.001269 
L 51.818698 19.905697 
L 51.938916 21.121481 
L 51.894368 19.842894 
L 51.956613 20.62039 
L 51.983463 19.674086 
L 52.02618 21.110072 
L 52.085374 19.960277 
L 52.118327 21.10976 
L 52.164095 19.873612 
L 52.217797 20.883757 
L 52.25075 19.77226 
L 52.296518 21.020592 
L 52.359373 20.221463 
L 52.47715 21.050779 
L 52.430771 19.883925 
L 52.485693 20.899441 
L 52.496067 20.457692 
L 52.519257 19.767568 
L 52.561974 21.087816 
L 52.617506 19.894737 
L 52.654731 21.077676 
L 52.696837 19.805612 
L 52.759692 20.636916 
L 52.787153 19.755219 
L 52.82926 21.015503 
L 52.888454 20.075409 
L 53.011113 21.012863 
L 52.961073 19.844115 
L 53.026369 20.677479 
L 53.052609 19.823639 
L 53.098988 21.040814 
L 53.150248 20.047396 
L 53.185642 20.930977 
L 53.227749 19.872472 
L 53.290604 20.686463 
L 53.321116 19.866696 
L 53.363833 20.969296 
L 53.424247 20.250129 
L 53.451708 21.00795 
L 53.496256 19.842595 
L 53.548737 20.899868 
L 53.587182 19.866062 
L 53.630509 21.014671 
L 53.684821 20.112167 
L 53.719605 20.954247 
L 53.761711 19.842293 
L 53.822736 20.700405 
L 53.853248 19.958767 
L 53.895965 20.876507 
L 53.950276 20.125214 
L 53.985671 20.936874 
L 54.030218 19.904104 
L 54.082699 20.841073 
L 54.207189 19.974829 
L 54.166303 20.908373 
L 54.23587 20.564348 
L 54.255398 20.929781 
L 54.301166 19.879245 
L 54.354868 20.787569 
L 54.474475 19.935496 
L 54.433589 20.933011 
L 54.48546 20.054558 
L 54.523295 20.949035 
L 54.570283 19.954522 
L 54.613 20.909113 
L 54.743592 19.880104 
L 54.695993 20.919544 
L 54.7619 20.274007 
L 54.78875 20.937581 
L 54.835129 19.918075 
L 54.88761 20.801299 
L 55.01393 19.90929 
L 54.966331 20.934696 
L 55.031017 20.30536 
L 55.146353 20.987016 
L 55.103026 19.911971 
L 55.153676 20.911821 
L 55.278165 19.819953 
L 55.236058 20.983439 
L 55.293421 20.043071 
L 55.41608 20.979387 
L 55.371532 19.943417 
L 55.418521 20.959183 
L 55.547282 19.870312 
L 55.499683 20.971458 
L 55.556436 19.954909 
L 55.59183 20.983708 
L 55.639429 19.921764 
L 55.64126 19.94552 
" clip-path="url(#pc0a652fe66)" style="fill: none; stroke: #a9a9a9; stroke-width: 0.04; stroke-linecap: square"/>
   </g>
   <g id="patch_3">
    <path d="M 0.72 40.008189 
L 0.72 0.72 
" style="fill: none; stroke: #a9a9a9; stroke-width: 0.5; stroke-linejoin: miter; stroke-linecap: square"/>
   </g>
   <g id="patch_4">
    <path d="M 55.64126 40.008189 
L 55.64126 0.72 
" style="fill: none; stroke: #a9a9a9; stroke-width: 0.5; stroke-linejoin: miter; stroke-linecap: square"/>
   </g>
   <g id="patch_5">
    <path d="M 0.72 40.008189 
L 55.64126 40.008189 
" style="fill: none; stroke: #a9a9a9; stroke-width: 0.5; stroke-linejoin: miter; stroke-linecap: square"/>
   </g>
   <g id="patch_6">
    <path d="M 0.72 0.72 
L 55.64126 0.72 
" style="fill: none; stroke: #a9a9a9; stroke-width: 0.5; stroke-linejoin: miter; stroke-linecap: square"/>
   </g>
  </g>
 </g>
 <defs>
  <clipPath id="pc0a652fe66">
   <rect x="0.72" y="0.72" width="54.92126" height="39.288189"/>
  </clipPath>
 </defs>
</svg>
