<?xml version="1.0" encoding="utf-8" standalone="no"?>
<!DOCTYPE svg PUBLIC "-//W3C//DTD SVG 1.1//EN"
  "http://www.w3.org/Graphics/SVG/1.1/DTD/svg11.dtd">
<svg xmlns:xlink="http://www.w3.org/1999/xlink" width="350.293731pt" height="100.438628pt" viewBox="0 0 350.293731 100.438628" xmlns="http://www.w3.org/2000/svg" version="1.1">
 <metadata>
  <rdf:RDF xmlns:dc="http://purl.org/dc/elements/1.1/" xmlns:cc="http://creativecommons.org/ns#" xmlns:rdf="http://www.w3.org/1999/02/22-rdf-syntax-ns#">
   <cc:Work>
    <dc:type rdf:resource="http://purl.org/dc/dcmitype/StillImage"/>
    <dc:date>2025-03-06T18:10:54.133496</dc:date>
    <dc:format>image/svg+xml</dc:format>
    <dc:creator>
     <cc:Agent>
      <dc:title>Matplotlib v3.8.0, https://matplotlib.org/</dc:title>
     </cc:Agent>
    </dc:creator>
   </cc:Work>
  </rdf:RDF>
 </metadata>
 <defs>
  <style type="text/css">*{stroke-linejoin: round; stroke-linecap: butt}</style>
 </defs>
 <g id="figure_1">
  <g id="patch_1">
   <path d="M 0 100.438628 
L 350.293731 100.438628 
L 350.293731 0 
L 0 0 
L 0 100.438628 
z
" style="fill: none"/>
  </g>
  <g id="axes_1">
   <g id="patch_2">
    <path d="M 17.54375 83.344409 
L 164.000443 83.344409 
L 164.000443 17.864094 
L 17.54375 17.864094 
L 17.54375 83.344409 
z
" style="fill: none"/>
   </g>
   <g id="PathCollection_1">
    <defs>
     <path id="C0_0_be7dd3b0ea" d="M -1.118034 1.118034 
L 1.118034 1.118034 
L 1.118034 -1.118034 
L -1.118034 -1.118034 
z
"/>
    </defs>
    <g clip-path="url(#p19850e4e22)">
     <use xlink:href="#C0_0_be7dd3b0ea" x="17.782965" y="77.900575" style="fill: none; stroke: #808080"/>
    </g>
    <g clip-path="url(#p19850e4e22)">
     <use xlink:href="#C0_0_be7dd3b0ea" x="20.188136" y="76.806059" style="fill: none; stroke: #808080"/>
    </g>
    <g clip-path="url(#p19850e4e22)">
     <use xlink:href="#C0_0_be7dd3b0ea" x="22.593307" y="76.115003" style="fill: none; stroke: #808080"/>
    </g>
    <g clip-path="url(#p19850e4e22)">
     <use xlink:href="#C0_0_be7dd3b0ea" x="24.998478" y="74.877762" style="fill: none; stroke: #808080"/>
    </g>
    <g clip-path="url(#p19850e4e22)">
     <use xlink:href="#C0_0_be7dd3b0ea" x="27.40365" y="73.819186" style="fill: none; stroke: #808080"/>
    </g>
    <g clip-path="url(#p19850e4e22)">
     <use xlink:href="#C0_0_be7dd3b0ea" x="29.807193" y="73.00454" style="fill: none; stroke: #808080"/>
    </g>
    <g clip-path="url(#p19850e4e22)">
     <use xlink:href="#C0_0_be7dd3b0ea" x="32.212364" y="71.598481" style="fill: none; stroke: #808080"/>
    </g>
    <g clip-path="url(#p19850e4e22)">
     <use xlink:href="#C0_0_be7dd3b0ea" x="34.617536" y="69.9721" style="fill: none; stroke: #808080"/>
    </g>
    <g clip-path="url(#p19850e4e22)">
     <use xlink:href="#C0_0_be7dd3b0ea" x="37.022707" y="68.853417" style="fill: none; stroke: #808080"/>
    </g>
    <g clip-path="url(#p19850e4e22)">
     <use xlink:href="#C0_0_be7dd3b0ea" x="39.427878" y="66.802915" style="fill: none; stroke: #808080"/>
    </g>
    <g clip-path="url(#p19850e4e22)">
     <use xlink:href="#C0_0_be7dd3b0ea" x="41.833049" y="64.785793" style="fill: none; stroke: #808080"/>
    </g>
    <g clip-path="url(#p19850e4e22)">
     <use xlink:href="#C0_0_be7dd3b0ea" x="44.236593" y="62.823095" style="fill: none; stroke: #808080"/>
    </g>
    <g clip-path="url(#p19850e4e22)">
     <use xlink:href="#C0_0_be7dd3b0ea" x="46.641764" y="60.918889" style="fill: none; stroke: #808080"/>
    </g>
    <g clip-path="url(#p19850e4e22)">
     <use xlink:href="#C0_0_be7dd3b0ea" x="49.046935" y="58.686063" style="fill: none; stroke: #808080"/>
    </g>
    <g clip-path="url(#p19850e4e22)">
     <use xlink:href="#C0_0_be7dd3b0ea" x="51.452106" y="56.820716" style="fill: none; stroke: #808080"/>
    </g>
    <g clip-path="url(#p19850e4e22)">
     <use xlink:href="#C0_0_be7dd3b0ea" x="53.857277" y="54.398738" style="fill: none; stroke: #808080"/>
    </g>
    <g clip-path="url(#p19850e4e22)">
     <use xlink:href="#C0_0_be7dd3b0ea" x="56.262448" y="52.336096" style="fill: none; stroke: #808080"/>
    </g>
    <g clip-path="url(#p19850e4e22)">
     <use xlink:href="#C0_0_be7dd3b0ea" x="58.665992" y="49.640117" style="fill: none; stroke: #808080"/>
    </g>
    <g clip-path="url(#p19850e4e22)">
     <use xlink:href="#C0_0_be7dd3b0ea" x="61.071163" y="47.380136" style="fill: none; stroke: #808080"/>
    </g>
    <g clip-path="url(#p19850e4e22)">
     <use xlink:href="#C0_0_be7dd3b0ea" x="63.476334" y="45.313904" style="fill: none; stroke: #808080"/>
    </g>
    <g clip-path="url(#p19850e4e22)">
     <use xlink:href="#C0_0_be7dd3b0ea" x="65.881505" y="43.522987" style="fill: none; stroke: #808080"/>
    </g>
    <g clip-path="url(#p19850e4e22)">
     <use xlink:href="#C0_0_be7dd3b0ea" x="68.286676" y="41.29721" style="fill: none; stroke: #808080"/>
    </g>
    <g clip-path="url(#p19850e4e22)">
     <use xlink:href="#C0_0_be7dd3b0ea" x="70.691847" y="39.768118" style="fill: none; stroke: #808080"/>
    </g>
    <g clip-path="url(#p19850e4e22)">
     <use xlink:href="#C0_0_be7dd3b0ea" x="73.095391" y="37.487477" style="fill: none; stroke: #808080"/>
    </g>
    <g clip-path="url(#p19850e4e22)">
     <use xlink:href="#C0_0_be7dd3b0ea" x="75.500562" y="36.534727" style="fill: none; stroke: #808080"/>
    </g>
    <g clip-path="url(#p19850e4e22)">
     <use xlink:href="#C0_0_be7dd3b0ea" x="77.905733" y="34.968891" style="fill: none; stroke: #808080"/>
    </g>
    <g clip-path="url(#p19850e4e22)">
     <use xlink:href="#C0_0_be7dd3b0ea" x="80.310904" y="33.536373" style="fill: none; stroke: #808080"/>
    </g>
    <g clip-path="url(#p19850e4e22)">
     <use xlink:href="#C0_0_be7dd3b0ea" x="82.716075" y="31.674857" style="fill: none; stroke: #808080"/>
    </g>
    <g clip-path="url(#p19850e4e22)">
     <use xlink:href="#C0_0_be7dd3b0ea" x="85.121246" y="30.755449" style="fill: none; stroke: #808080"/>
    </g>
    <g clip-path="url(#p19850e4e22)">
     <use xlink:href="#C0_0_be7dd3b0ea" x="87.52479" y="29.602721" style="fill: none; stroke: #808080"/>
    </g>
    <g clip-path="url(#p19850e4e22)">
     <use xlink:href="#C0_0_be7dd3b0ea" x="89.929961" y="29.026179" style="fill: none; stroke: #808080"/>
    </g>
    <g clip-path="url(#p19850e4e22)">
     <use xlink:href="#C0_0_be7dd3b0ea" x="92.335132" y="27.935497" style="fill: none; stroke: #808080"/>
    </g>
    <g clip-path="url(#p19850e4e22)">
     <use xlink:href="#C0_0_be7dd3b0ea" x="94.740303" y="27.498093" style="fill: none; stroke: #808080"/>
    </g>
    <g clip-path="url(#p19850e4e22)">
     <use xlink:href="#C0_0_be7dd3b0ea" x="97.145474" y="26.402069" style="fill: none; stroke: #808080"/>
    </g>
    <g clip-path="url(#p19850e4e22)">
     <use xlink:href="#C0_0_be7dd3b0ea" x="99.550645" y="25.946402" style="fill: none; stroke: #808080"/>
    </g>
    <g clip-path="url(#p19850e4e22)">
     <use xlink:href="#C0_0_be7dd3b0ea" x="101.954189" y="25.680284" style="fill: none; stroke: #808080"/>
    </g>
    <g clip-path="url(#p19850e4e22)">
     <use xlink:href="#C0_0_be7dd3b0ea" x="104.35936" y="25.435931" style="fill: none; stroke: #808080"/>
    </g>
    <g clip-path="url(#p19850e4e22)">
     <use xlink:href="#C0_0_be7dd3b0ea" x="106.764531" y="24.996549" style="fill: none; stroke: #808080"/>
    </g>
    <g clip-path="url(#p19850e4e22)">
     <use xlink:href="#C0_0_be7dd3b0ea" x="109.169702" y="24.37329" style="fill: none; stroke: #808080"/>
    </g>
    <g clip-path="url(#p19850e4e22)">
     <use xlink:href="#C0_0_be7dd3b0ea" x="111.574874" y="23.727777" style="fill: none; stroke: #808080"/>
    </g>
    <g clip-path="url(#p19850e4e22)">
     <use xlink:href="#C0_0_be7dd3b0ea" x="113.980045" y="23.68857" style="fill: none; stroke: #808080"/>
    </g>
    <g clip-path="url(#p19850e4e22)">
     <use xlink:href="#C0_0_be7dd3b0ea" x="116.383588" y="23.554537" style="fill: none; stroke: #808080"/>
    </g>
    <g clip-path="url(#p19850e4e22)">
     <use xlink:href="#C0_0_be7dd3b0ea" x="118.788759" y="23.518842" style="fill: none; stroke: #808080"/>
    </g>
    <g clip-path="url(#p19850e4e22)">
     <use xlink:href="#C0_0_be7dd3b0ea" x="121.193931" y="23.779753" style="fill: none; stroke: #808080"/>
    </g>
    <g clip-path="url(#p19850e4e22)">
     <use xlink:href="#C0_0_be7dd3b0ea" x="123.599102" y="23.461333" style="fill: none; stroke: #808080"/>
    </g>
    <g clip-path="url(#p19850e4e22)">
     <use xlink:href="#C0_0_be7dd3b0ea" x="126.004273" y="23.655797" style="fill: none; stroke: #808080"/>
    </g>
    <g clip-path="url(#p19850e4e22)">
     <use xlink:href="#C0_0_be7dd3b0ea" x="128.409444" y="23.375564" style="fill: none; stroke: #808080"/>
    </g>
    <g clip-path="url(#p19850e4e22)">
     <use xlink:href="#C0_0_be7dd3b0ea" x="130.812988" y="23.392228" style="fill: none; stroke: #808080"/>
    </g>
    <g clip-path="url(#p19850e4e22)">
     <use xlink:href="#C0_0_be7dd3b0ea" x="133.218159" y="23.035944" style="fill: none; stroke: #808080"/>
    </g>
    <g clip-path="url(#p19850e4e22)">
     <use xlink:href="#C0_0_be7dd3b0ea" x="135.62333" y="22.991305" style="fill: none; stroke: #808080"/>
    </g>
    <g clip-path="url(#p19850e4e22)">
     <use xlink:href="#C0_0_be7dd3b0ea" x="138.028501" y="22.472979" style="fill: none; stroke: #808080"/>
    </g>
    <g clip-path="url(#p19850e4e22)">
     <use xlink:href="#C0_0_be7dd3b0ea" x="140.433672" y="22.684054" style="fill: none; stroke: #808080"/>
    </g>
    <g clip-path="url(#p19850e4e22)">
     <use xlink:href="#C0_0_be7dd3b0ea" x="142.838843" y="22.682458" style="fill: none; stroke: #808080"/>
    </g>
    <g clip-path="url(#p19850e4e22)">
     <use xlink:href="#C0_0_be7dd3b0ea" x="145.242387" y="22.78305" style="fill: none; stroke: #808080"/>
    </g>
    <g clip-path="url(#p19850e4e22)">
     <use xlink:href="#C0_0_be7dd3b0ea" x="147.647558" y="22.618687" style="fill: none; stroke: #808080"/>
    </g>
    <g clip-path="url(#p19850e4e22)">
     <use xlink:href="#C0_0_be7dd3b0ea" x="150.052729" y="22.648912" style="fill: none; stroke: #808080"/>
    </g>
    <g clip-path="url(#p19850e4e22)">
     <use xlink:href="#C0_0_be7dd3b0ea" x="152.4579" y="22.652278" style="fill: none; stroke: #808080"/>
    </g>
    <g clip-path="url(#p19850e4e22)">
     <use xlink:href="#C0_0_be7dd3b0ea" x="154.863071" y="22.519538" style="fill: none; stroke: #808080"/>
    </g>
    <g clip-path="url(#p19850e4e22)">
     <use xlink:href="#C0_0_be7dd3b0ea" x="157.268242" y="22.813861" style="fill: none; stroke: #808080"/>
    </g>
    <g clip-path="url(#p19850e4e22)">
     <use xlink:href="#C0_0_be7dd3b0ea" x="159.671786" y="22.657434" style="fill: none; stroke: #808080"/>
    </g>
    <g clip-path="url(#p19850e4e22)">
     <use xlink:href="#C0_0_be7dd3b0ea" x="162.076957" y="22.393052" style="fill: none; stroke: #808080"/>
    </g>
   </g>
   <g id="matplotlib.axis_1">
    <g id="xtick_1">
     <g id="line2d_1">
      <defs>
       <path id="m23e9db1eaa" d="M 0 0 
L 0 3.5 
" style="stroke: #000000; stroke-width: 0.8"/>
      </defs>
      <g>
       <use xlink:href="#m23e9db1eaa" x="17.54375" y="83.344409" style="stroke: #000000; stroke-width: 0.8"/>
      </g>
     </g>
     <g id="text_1">
      <!-- 0 -->
      <g transform="translate(16.709609 92.491753) scale(0.03 -0.03)">
       <defs>
        <path id="ArialMT-30" d="M 266 2259 
Q 266 3072 433 3567 
Q 600 4063 929 4331 
Q 1259 4600 1759 4600 
Q 2128 4600 2406 4451 
Q 2684 4303 2865 4023 
Q 3047 3744 3150 3342 
Q 3253 2941 3253 2259 
Q 3253 1453 3087 958 
Q 2922 463 2592 192 
Q 2263 -78 1759 -78 
Q 1097 -78 719 397 
Q 266 969 266 2259 
z
M 844 2259 
Q 844 1131 1108 757 
Q 1372 384 1759 384 
Q 2147 384 2411 759 
Q 2675 1134 2675 2259 
Q 2675 3391 2411 3762 
Q 2147 4134 1753 4134 
Q 1366 4134 1134 3806 
Q 844 3388 844 2259 
z
" transform="scale(0.015625)"/>
       </defs>
       <use xlink:href="#ArialMT-30"/>
      </g>
     </g>
    </g>
    <g id="xtick_2">
     <g id="line2d_2">
      <g>
       <use xlink:href="#m23e9db1eaa" x="41.953199" y="83.344409" style="stroke: #000000; stroke-width: 0.8"/>
      </g>
     </g>
     <g id="text_2">
      <!-- 50 -->
      <g transform="translate(40.284918 92.491753) scale(0.03 -0.03)">
       <defs>
        <path id="ArialMT-35" d="M 266 1200 
L 856 1250 
Q 922 819 1161 601 
Q 1400 384 1738 384 
Q 2144 384 2425 690 
Q 2706 997 2706 1503 
Q 2706 1984 2436 2262 
Q 2166 2541 1728 2541 
Q 1456 2541 1237 2417 
Q 1019 2294 894 2097 
L 366 2166 
L 809 4519 
L 3088 4519 
L 3088 3981 
L 1259 3981 
L 1013 2750 
Q 1425 3038 1878 3038 
Q 2478 3038 2890 2622 
Q 3303 2206 3303 1553 
Q 3303 931 2941 478 
Q 2500 -78 1738 -78 
Q 1113 -78 717 272 
Q 322 622 266 1200 
z
" transform="scale(0.015625)"/>
       </defs>
       <use xlink:href="#ArialMT-35"/>
       <use xlink:href="#ArialMT-30" x="55.615234"/>
      </g>
     </g>
    </g>
    <g id="xtick_3">
     <g id="line2d_3">
      <g>
       <use xlink:href="#m23e9db1eaa" x="66.362648" y="83.344409" style="stroke: #000000; stroke-width: 0.8"/>
      </g>
     </g>
     <g id="text_3">
      <!-- 100 -->
      <g transform="translate(63.860226 92.491753) scale(0.03 -0.03)">
       <defs>
        <path id="ArialMT-31" d="M 2384 0 
L 1822 0 
L 1822 3584 
Q 1619 3391 1289 3197 
Q 959 3003 697 2906 
L 697 3450 
Q 1169 3672 1522 3987 
Q 1875 4303 2022 4600 
L 2384 4600 
L 2384 0 
z
" transform="scale(0.015625)"/>
       </defs>
       <use xlink:href="#ArialMT-31"/>
       <use xlink:href="#ArialMT-30" x="55.615234"/>
       <use xlink:href="#ArialMT-30" x="111.230469"/>
      </g>
     </g>
    </g>
    <g id="xtick_4">
     <g id="line2d_4">
      <g>
       <use xlink:href="#m23e9db1eaa" x="90.772096" y="83.344409" style="stroke: #000000; stroke-width: 0.8"/>
      </g>
     </g>
     <g id="text_4">
      <!-- 150 -->
      <g transform="translate(88.269675 92.491753) scale(0.03 -0.03)">
       <use xlink:href="#ArialMT-31"/>
       <use xlink:href="#ArialMT-35" x="55.615234"/>
       <use xlink:href="#ArialMT-30" x="111.230469"/>
      </g>
     </g>
    </g>
    <g id="xtick_5">
     <g id="line2d_5">
      <g>
       <use xlink:href="#m23e9db1eaa" x="115.181545" y="83.344409" style="stroke: #000000; stroke-width: 0.8"/>
      </g>
     </g>
     <g id="text_5">
      <!-- 200 -->
      <g transform="translate(112.679123 92.491753) scale(0.03 -0.03)">
       <defs>
        <path id="ArialMT-32" d="M 3222 541 
L 3222 0 
L 194 0 
Q 188 203 259 391 
Q 375 700 629 1000 
Q 884 1300 1366 1694 
Q 2113 2306 2375 2664 
Q 2638 3022 2638 3341 
Q 2638 3675 2398 3904 
Q 2159 4134 1775 4134 
Q 1369 4134 1125 3890 
Q 881 3647 878 3216 
L 300 3275 
Q 359 3922 746 4261 
Q 1134 4600 1788 4600 
Q 2447 4600 2831 4234 
Q 3216 3869 3216 3328 
Q 3216 3053 3103 2787 
Q 2991 2522 2730 2228 
Q 2469 1934 1863 1422 
Q 1356 997 1212 845 
Q 1069 694 975 541 
L 3222 541 
z
" transform="scale(0.015625)"/>
       </defs>
       <use xlink:href="#ArialMT-32"/>
       <use xlink:href="#ArialMT-30" x="55.615234"/>
       <use xlink:href="#ArialMT-30" x="111.230469"/>
      </g>
     </g>
    </g>
    <g id="xtick_6">
     <g id="line2d_6">
      <g>
       <use xlink:href="#m23e9db1eaa" x="139.590994" y="83.344409" style="stroke: #000000; stroke-width: 0.8"/>
      </g>
     </g>
     <g id="text_6">
      <!-- 250 -->
      <g transform="translate(137.088572 92.491753) scale(0.03 -0.03)">
       <use xlink:href="#ArialMT-32"/>
       <use xlink:href="#ArialMT-35" x="55.615234"/>
       <use xlink:href="#ArialMT-30" x="111.230469"/>
      </g>
     </g>
    </g>
    <g id="xtick_7">
     <g id="line2d_7">
      <g>
       <use xlink:href="#m23e9db1eaa" x="164.000443" y="83.344409" style="stroke: #000000; stroke-width: 0.8"/>
      </g>
     </g>
     <g id="text_7">
      <!-- 300 -->
      <g transform="translate(161.498021 92.491753) scale(0.03 -0.03)">
       <defs>
        <path id="ArialMT-33" d="M 269 1209 
L 831 1284 
Q 928 806 1161 595 
Q 1394 384 1728 384 
Q 2125 384 2398 659 
Q 2672 934 2672 1341 
Q 2672 1728 2419 1979 
Q 2166 2231 1775 2231 
Q 1616 2231 1378 2169 
L 1441 2663 
Q 1497 2656 1531 2656 
Q 1891 2656 2178 2843 
Q 2466 3031 2466 3422 
Q 2466 3731 2256 3934 
Q 2047 4138 1716 4138 
Q 1388 4138 1169 3931 
Q 950 3725 888 3313 
L 325 3413 
Q 428 3978 793 4289 
Q 1159 4600 1703 4600 
Q 2078 4600 2393 4439 
Q 2709 4278 2876 4000 
Q 3044 3722 3044 3409 
Q 3044 3113 2884 2869 
Q 2725 2625 2413 2481 
Q 2819 2388 3044 2092 
Q 3269 1797 3269 1353 
Q 3269 753 2831 336 
Q 2394 -81 1725 -81 
Q 1122 -81 723 278 
Q 325 638 269 1209 
z
" transform="scale(0.015625)"/>
       </defs>
       <use xlink:href="#ArialMT-33"/>
       <use xlink:href="#ArialMT-30" x="55.615234"/>
       <use xlink:href="#ArialMT-30" x="111.230469"/>
      </g>
     </g>
    </g>
    <g id="text_8">
     <!-- Time (s) -->
     <g transform="translate(79.887253 98.455816) scale(0.06 -0.06)">
      <defs>
       <path id="ArialMT-54" d="M 1659 0 
L 1659 4041 
L 150 4041 
L 150 4581 
L 3781 4581 
L 3781 4041 
L 2266 4041 
L 2266 0 
L 1659 0 
z
" transform="scale(0.015625)"/>
       <path id="ArialMT-69" d="M 425 3934 
L 425 4581 
L 988 4581 
L 988 3934 
L 425 3934 
z
M 425 0 
L 425 3319 
L 988 3319 
L 988 0 
L 425 0 
z
" transform="scale(0.015625)"/>
       <path id="ArialMT-6d" d="M 422 0 
L 422 3319 
L 925 3319 
L 925 2853 
Q 1081 3097 1340 3245 
Q 1600 3394 1931 3394 
Q 2300 3394 2536 3241 
Q 2772 3088 2869 2813 
Q 3263 3394 3894 3394 
Q 4388 3394 4653 3120 
Q 4919 2847 4919 2278 
L 4919 0 
L 4359 0 
L 4359 2091 
Q 4359 2428 4304 2576 
Q 4250 2725 4106 2815 
Q 3963 2906 3769 2906 
Q 3419 2906 3187 2673 
Q 2956 2441 2956 1928 
L 2956 0 
L 2394 0 
L 2394 2156 
Q 2394 2531 2256 2718 
Q 2119 2906 1806 2906 
Q 1569 2906 1367 2781 
Q 1166 2656 1075 2415 
Q 984 2175 984 1722 
L 984 0 
L 422 0 
z
" transform="scale(0.015625)"/>
       <path id="ArialMT-65" d="M 2694 1069 
L 3275 997 
Q 3138 488 2766 206 
Q 2394 -75 1816 -75 
Q 1088 -75 661 373 
Q 234 822 234 1631 
Q 234 2469 665 2931 
Q 1097 3394 1784 3394 
Q 2450 3394 2872 2941 
Q 3294 2488 3294 1666 
Q 3294 1616 3291 1516 
L 816 1516 
Q 847 969 1125 678 
Q 1403 388 1819 388 
Q 2128 388 2347 550 
Q 2566 713 2694 1069 
z
M 847 1978 
L 2700 1978 
Q 2663 2397 2488 2606 
Q 2219 2931 1791 2931 
Q 1403 2931 1139 2672 
Q 875 2413 847 1978 
z
" transform="scale(0.015625)"/>
       <path id="ArialMT-20" transform="scale(0.015625)"/>
       <path id="ArialMT-28" d="M 1497 -1347 
Q 1031 -759 709 28 
Q 388 816 388 1659 
Q 388 2403 628 3084 
Q 909 3875 1497 4659 
L 1900 4659 
Q 1522 4009 1400 3731 
Q 1209 3300 1100 2831 
Q 966 2247 966 1656 
Q 966 153 1900 -1347 
L 1497 -1347 
z
" transform="scale(0.015625)"/>
       <path id="ArialMT-73" d="M 197 991 
L 753 1078 
Q 800 744 1014 566 
Q 1228 388 1613 388 
Q 2000 388 2187 545 
Q 2375 703 2375 916 
Q 2375 1106 2209 1216 
Q 2094 1291 1634 1406 
Q 1016 1563 777 1677 
Q 538 1791 414 1992 
Q 291 2194 291 2438 
Q 291 2659 392 2848 
Q 494 3038 669 3163 
Q 800 3259 1026 3326 
Q 1253 3394 1513 3394 
Q 1903 3394 2198 3281 
Q 2494 3169 2634 2976 
Q 2775 2784 2828 2463 
L 2278 2388 
Q 2241 2644 2061 2787 
Q 1881 2931 1553 2931 
Q 1166 2931 1000 2803 
Q 834 2675 834 2503 
Q 834 2394 903 2306 
Q 972 2216 1119 2156 
Q 1203 2125 1616 2013 
Q 2213 1853 2448 1751 
Q 2684 1650 2818 1456 
Q 2953 1263 2953 975 
Q 2953 694 2789 445 
Q 2625 197 2315 61 
Q 2006 -75 1616 -75 
Q 969 -75 630 194 
Q 291 463 197 991 
z
" transform="scale(0.015625)"/>
       <path id="ArialMT-29" d="M 791 -1347 
L 388 -1347 
Q 1322 153 1322 1656 
Q 1322 2244 1188 2822 
Q 1081 3291 891 3722 
Q 769 4003 388 4659 
L 791 4659 
Q 1378 3875 1659 3084 
Q 1900 2403 1900 1659 
Q 1900 816 1576 28 
Q 1253 -759 791 -1347 
z
" transform="scale(0.015625)"/>
      </defs>
      <use xlink:href="#ArialMT-54"/>
      <use xlink:href="#ArialMT-69" x="57.333984"/>
      <use xlink:href="#ArialMT-6d" x="79.550781"/>
      <use xlink:href="#ArialMT-65" x="162.851562"/>
      <use xlink:href="#ArialMT-20" x="218.466797"/>
      <use xlink:href="#ArialMT-28" x="246.25"/>
      <use xlink:href="#ArialMT-73" x="279.550781"/>
      <use xlink:href="#ArialMT-29" x="329.550781"/>
     </g>
    </g>
   </g>
   <g id="matplotlib.axis_2">
    <g id="ytick_1">
     <g id="line2d_8">
      <defs>
       <path id="m7b407dd6dc" d="M 0 0 
L -3.5 0 
" style="stroke: #000000; stroke-width: 0.8"/>
      </defs>
      <g>
       <use xlink:href="#m7b407dd6dc" x="17.54375" y="83.344409" style="stroke: #000000; stroke-width: 0.8"/>
      </g>
     </g>
     <g id="text_9">
      <!-- 0 -->
      <g transform="translate(8.875469 84.418081) scale(0.03 -0.03)">
       <use xlink:href="#ArialMT-30"/>
      </g>
     </g>
    </g>
    <g id="ytick_2">
     <g id="line2d_9">
      <g>
       <use xlink:href="#m7b407dd6dc" x="17.54375" y="72.431024" style="stroke: #000000; stroke-width: 0.8"/>
      </g>
     </g>
     <g id="text_10">
      <!-- 2 -->
      <g transform="translate(8.875469 73.504695) scale(0.03 -0.03)">
       <use xlink:href="#ArialMT-32"/>
      </g>
     </g>
    </g>
    <g id="ytick_3">
     <g id="line2d_10">
      <g>
       <use xlink:href="#m7b407dd6dc" x="17.54375" y="61.517638" style="stroke: #000000; stroke-width: 0.8"/>
      </g>
     </g>
     <g id="text_11">
      <!-- 4 -->
      <g transform="translate(8.875469 62.59131) scale(0.03 -0.03)">
       <defs>
        <path id="ArialMT-34" d="M 2069 0 
L 2069 1097 
L 81 1097 
L 81 1613 
L 2172 4581 
L 2631 4581 
L 2631 1613 
L 3250 1613 
L 3250 1097 
L 2631 1097 
L 2631 0 
L 2069 0 
z
M 2069 1613 
L 2069 3678 
L 634 1613 
L 2069 1613 
z
" transform="scale(0.015625)"/>
       </defs>
       <use xlink:href="#ArialMT-34"/>
      </g>
     </g>
    </g>
    <g id="ytick_4">
     <g id="line2d_11">
      <g>
       <use xlink:href="#m7b407dd6dc" x="17.54375" y="50.604252" style="stroke: #000000; stroke-width: 0.8"/>
      </g>
     </g>
     <g id="text_12">
      <!-- 6 -->
      <g transform="translate(8.875469 51.677924) scale(0.03 -0.03)">
       <defs>
        <path id="ArialMT-36" d="M 3184 3459 
L 2625 3416 
Q 2550 3747 2413 3897 
Q 2184 4138 1850 4138 
Q 1581 4138 1378 3988 
Q 1113 3794 959 3422 
Q 806 3050 800 2363 
Q 1003 2672 1297 2822 
Q 1591 2972 1913 2972 
Q 2475 2972 2870 2558 
Q 3266 2144 3266 1488 
Q 3266 1056 3080 686 
Q 2894 316 2569 119 
Q 2244 -78 1831 -78 
Q 1128 -78 684 439 
Q 241 956 241 2144 
Q 241 3472 731 4075 
Q 1159 4600 1884 4600 
Q 2425 4600 2770 4297 
Q 3116 3994 3184 3459 
z
M 888 1484 
Q 888 1194 1011 928 
Q 1134 663 1356 523 
Q 1578 384 1822 384 
Q 2178 384 2434 671 
Q 2691 959 2691 1453 
Q 2691 1928 2437 2201 
Q 2184 2475 1800 2475 
Q 1419 2475 1153 2201 
Q 888 1928 888 1484 
z
" transform="scale(0.015625)"/>
       </defs>
       <use xlink:href="#ArialMT-36"/>
      </g>
     </g>
    </g>
    <g id="ytick_5">
     <g id="line2d_12">
      <g>
       <use xlink:href="#m7b407dd6dc" x="17.54375" y="39.690866" style="stroke: #000000; stroke-width: 0.8"/>
      </g>
     </g>
     <g id="text_13">
      <!-- 8 -->
      <g transform="translate(8.875469 40.764538) scale(0.03 -0.03)">
       <defs>
        <path id="ArialMT-38" d="M 1131 2484 
Q 781 2613 612 2850 
Q 444 3088 444 3419 
Q 444 3919 803 4259 
Q 1163 4600 1759 4600 
Q 2359 4600 2725 4251 
Q 3091 3903 3091 3403 
Q 3091 3084 2923 2848 
Q 2756 2613 2416 2484 
Q 2838 2347 3058 2040 
Q 3278 1734 3278 1309 
Q 3278 722 2862 322 
Q 2447 -78 1769 -78 
Q 1091 -78 675 323 
Q 259 725 259 1325 
Q 259 1772 486 2073 
Q 713 2375 1131 2484 
z
M 1019 3438 
Q 1019 3113 1228 2906 
Q 1438 2700 1772 2700 
Q 2097 2700 2305 2904 
Q 2513 3109 2513 3406 
Q 2513 3716 2298 3927 
Q 2084 4138 1766 4138 
Q 1444 4138 1231 3931 
Q 1019 3725 1019 3438 
z
M 838 1322 
Q 838 1081 952 856 
Q 1066 631 1291 507 
Q 1516 384 1775 384 
Q 2178 384 2440 643 
Q 2703 903 2703 1303 
Q 2703 1709 2433 1975 
Q 2163 2241 1756 2241 
Q 1359 2241 1098 1978 
Q 838 1716 838 1322 
z
" transform="scale(0.015625)"/>
       </defs>
       <use xlink:href="#ArialMT-38"/>
      </g>
     </g>
    </g>
    <g id="ytick_6">
     <g id="line2d_13">
      <g>
       <use xlink:href="#m7b407dd6dc" x="17.54375" y="28.77748" style="stroke: #000000; stroke-width: 0.8"/>
      </g>
     </g>
     <g id="text_14">
      <!-- 10 -->
      <g transform="translate(7.207188 29.851152) scale(0.03 -0.03)">
       <use xlink:href="#ArialMT-31"/>
       <use xlink:href="#ArialMT-30" x="55.615234"/>
      </g>
     </g>
    </g>
    <g id="ytick_7">
     <g id="line2d_14">
      <g>
       <use xlink:href="#m7b407dd6dc" x="17.54375" y="17.864094" style="stroke: #000000; stroke-width: 0.8"/>
      </g>
     </g>
     <g id="text_15">
      <!-- 12 -->
      <g transform="translate(7.207188 18.937766) scale(0.03 -0.03)">
       <use xlink:href="#ArialMT-31"/>
       <use xlink:href="#ArialMT-32" x="55.615234"/>
      </g>
     </g>
    </g>
    <g id="text_16">
     <!-- Amplitude -->
     <g transform="translate(5.014688 63.943939) rotate(-90) scale(0.06 -0.06)">
      <defs>
       <path id="ArialMT-41" d="M -9 0 
L 1750 4581 
L 2403 4581 
L 4278 0 
L 3588 0 
L 3053 1388 
L 1138 1388 
L 634 0 
L -9 0 
z
M 1313 1881 
L 2866 1881 
L 2388 3150 
Q 2169 3728 2063 4100 
Q 1975 3659 1816 3225 
L 1313 1881 
z
" transform="scale(0.015625)"/>
       <path id="ArialMT-70" d="M 422 -1272 
L 422 3319 
L 934 3319 
L 934 2888 
Q 1116 3141 1344 3267 
Q 1572 3394 1897 3394 
Q 2322 3394 2647 3175 
Q 2972 2956 3137 2557 
Q 3303 2159 3303 1684 
Q 3303 1175 3120 767 
Q 2938 359 2589 142 
Q 2241 -75 1856 -75 
Q 1575 -75 1351 44 
Q 1128 163 984 344 
L 984 -1272 
L 422 -1272 
z
M 931 1641 
Q 931 1000 1190 694 
Q 1450 388 1819 388 
Q 2194 388 2461 705 
Q 2728 1022 2728 1688 
Q 2728 2322 2467 2637 
Q 2206 2953 1844 2953 
Q 1484 2953 1207 2617 
Q 931 2281 931 1641 
z
" transform="scale(0.015625)"/>
       <path id="ArialMT-6c" d="M 409 0 
L 409 4581 
L 972 4581 
L 972 0 
L 409 0 
z
" transform="scale(0.015625)"/>
       <path id="ArialMT-74" d="M 1650 503 
L 1731 6 
Q 1494 -44 1306 -44 
Q 1000 -44 831 53 
Q 663 150 594 308 
Q 525 466 525 972 
L 525 2881 
L 113 2881 
L 113 3319 
L 525 3319 
L 525 4141 
L 1084 4478 
L 1084 3319 
L 1650 3319 
L 1650 2881 
L 1084 2881 
L 1084 941 
Q 1084 700 1114 631 
Q 1144 563 1211 522 
Q 1278 481 1403 481 
Q 1497 481 1650 503 
z
" transform="scale(0.015625)"/>
       <path id="ArialMT-75" d="M 2597 0 
L 2597 488 
Q 2209 -75 1544 -75 
Q 1250 -75 995 37 
Q 741 150 617 320 
Q 494 491 444 738 
Q 409 903 409 1263 
L 409 3319 
L 972 3319 
L 972 1478 
Q 972 1038 1006 884 
Q 1059 663 1231 536 
Q 1403 409 1656 409 
Q 1909 409 2131 539 
Q 2353 669 2445 892 
Q 2538 1116 2538 1541 
L 2538 3319 
L 3100 3319 
L 3100 0 
L 2597 0 
z
" transform="scale(0.015625)"/>
       <path id="ArialMT-64" d="M 2575 0 
L 2575 419 
Q 2259 -75 1647 -75 
Q 1250 -75 917 144 
Q 584 363 401 755 
Q 219 1147 219 1656 
Q 219 2153 384 2558 
Q 550 2963 881 3178 
Q 1213 3394 1622 3394 
Q 1922 3394 2156 3267 
Q 2391 3141 2538 2938 
L 2538 4581 
L 3097 4581 
L 3097 0 
L 2575 0 
z
M 797 1656 
Q 797 1019 1065 703 
Q 1334 388 1700 388 
Q 2069 388 2326 689 
Q 2584 991 2584 1609 
Q 2584 2291 2321 2609 
Q 2059 2928 1675 2928 
Q 1300 2928 1048 2622 
Q 797 2316 797 1656 
z
" transform="scale(0.015625)"/>
      </defs>
      <use xlink:href="#ArialMT-41"/>
      <use xlink:href="#ArialMT-6d" x="66.699219"/>
      <use xlink:href="#ArialMT-70" x="150"/>
      <use xlink:href="#ArialMT-6c" x="205.615234"/>
      <use xlink:href="#ArialMT-69" x="227.832031"/>
      <use xlink:href="#ArialMT-74" x="250.048828"/>
      <use xlink:href="#ArialMT-75" x="277.832031"/>
      <use xlink:href="#ArialMT-64" x="333.447266"/>
      <use xlink:href="#ArialMT-65" x="389.0625"/>
     </g>
    </g>
   </g>
   <g id="line2d_15">
    <path d="M 17.782965 77.82532 
L 20.428979 77.043861 
L 24.275951 75.775768 
L 27.883707 74.36908 
L 31.491464 72.721393 
L 34.858378 70.941131 
L 38.225292 68.906457 
L 41.592206 66.604731 
L 44.95912 64.03498 
L 48.566877 61.002967 
L 52.895534 57.049922 
L 61.79369 48.457279 
L 66.36319 44.221379 
L 69.969319 41.136798 
L 73.336233 38.522504 
L 76.703147 36.187863 
L 80.070062 34.135133 
L 83.436976 32.351692 
L 86.80389 30.815816 
L 90.411646 29.415119 
L 94.258618 28.164124 
L 98.34806 27.066917 
L 102.917559 26.074528 
L 107.967117 25.2084 
L 113.739202 24.449338 
L 120.47303 23.797036 
L 128.648659 23.245618 
L 138.508559 22.815194 
L 151.496157 22.486442 
L 163.279543 22.361755 
L 163.520385 22.44702 
L 163.520385 22.44702 
" clip-path="url(#p19850e4e22)" style="fill: none; stroke: #000000; stroke-width: 1.2; stroke-linecap: square"/>
   </g>
   <g id="line2d_16">
    <path d="M 17.782965 77.873465 
L 20.904155 77.898512 
L 163.520385 78.294844 
L 163.520385 78.294844 
" clip-path="url(#p19850e4e22)" style="fill: none; stroke-dasharray: 2.59,1.12; stroke-dashoffset: 0; stroke: #1f77b4; stroke-width: 0.7"/>
   </g>
   <g id="line2d_17">
    <path d="M 17.782965 77.396235 
L 18.023808 77.589511 
L 18.743081 77.50369 
L 21.384213 76.745938 
L 25.226303 75.426437 
L 29.066765 73.856494 
L 32.66964 72.126691 
L 36.030045 70.263022 
L 39.151234 68.300911 
L 42.513266 65.929656 
L 46.114514 63.095944 
L 49.956604 59.769133 
L 54.998024 55.047213 
L 65.801767 44.734131 
L 69.883072 41.219796 
L 73.245104 38.603899 
L 76.607136 36.266872 
L 79.728325 34.348404 
L 82.849515 32.662767 
L 86.20992 31.0887 
L 89.811167 29.651485 
L 93.653257 28.365868 
L 97.734562 27.237974 
L 102.295925 26.217075 
L 107.338973 25.325415 
L 112.860452 24.571919 
L 119.582889 23.89174 
L 127.506284 23.330175 
L 137.110695 22.884162 
L 149.595453 22.542115 
L 163.520385 22.294626 
L 163.520385 22.294626 
" clip-path="url(#p19850e4e22)" style="fill: none; stroke-dasharray: 2.59,1.12; stroke-dashoffset: 0; stroke: #ff7f0e; stroke-width: 0.7"/>
   </g>
   <g id="line2d_18">
    <path d="M 17.782965 77.795424 
L 22.585171 76.333296 
L 26.186418 74.992631 
L 29.54845 73.51116 
L 32.66964 71.900737 
L 35.790829 70.025795 
L 38.671176 68.021979 
L 41.312308 65.91897 
L 43.712597 63.754651 
L 46.114514 61.31425 
L 48.514803 58.55774 
L 50.675877 55.765465 
L 52.836951 52.629266 
L 54.757182 49.503065 
L 56.67904 45.991956 
L 58.599272 42.005359 
L 60.280288 38.021511 
L 61.961304 33.412504 
L 63.401477 28.775131 
L 64.602436 24.20791 
L 65.801767 18.687413 
L 66.761882 13.202349 
L 67.482783 8.086413 
L 67.96284 3.949786 
L 67.96284 3.949786 
" clip-path="url(#p19850e4e22)" style="fill: none; stroke-dasharray: 2.59,1.12; stroke-dashoffset: 0; stroke: #2ca02c; stroke-width: 0.7"/>
   </g>
   <g id="line2d_19">
    <path d="M 17.782965 77.580787 
L 18.263023 77.621299 
L 19.944039 77.182876 
L 23.786129 75.949338 
L 27.626592 74.477131 
L 30.988624 72.968036 
L 34.589871 71.095437 
L 37.950276 69.088572 
L 41.312308 66.818981 
L 44.67434 64.288832 
L 48.514803 61.104028 
L 52.836951 57.232378 
L 63.881535 47.228493 
L 67.24194 44.574688 
L 70.123914 42.560188 
L 73.004261 40.811334 
L 75.886236 39.328313 
L 78.766582 38.099103 
L 81.887772 37.024172 
L 85.249804 36.122581 
L 88.851051 35.396915 
L 92.932357 34.805984 
L 97.975405 34.319779 
L 103.976941 33.971064 
L 112.380394 33.720806 
L 125.586053 33.575781 
L 157.518849 33.522294 
L 163.520385 33.630845 
L 163.520385 33.630845 
" clip-path="url(#p19850e4e22)" style="fill: none; stroke-dasharray: 2.59,1.12; stroke-dashoffset: 0; stroke: #d62728; stroke-width: 0.7"/>
   </g>
   <g id="patch_3">
    <path d="M 17.54375 83.344409 
L 17.54375 17.864094 
" style="fill: none; stroke: #000000; stroke-width: 0.5; stroke-linejoin: miter; stroke-linecap: square"/>
   </g>
   <g id="patch_4">
    <path d="M 164.000443 83.344409 
L 164.000443 17.864094 
" style="fill: none; stroke: #000000; stroke-width: 0.5; stroke-linejoin: miter; stroke-linecap: square"/>
   </g>
   <g id="patch_5">
    <path d="M 17.54375 83.344409 
L 164.000443 83.344409 
" style="fill: none; stroke: #000000; stroke-width: 0.5; stroke-linejoin: miter; stroke-linecap: square"/>
   </g>
   <g id="patch_6">
    <path d="M 17.54375 17.864094 
L 164.000443 17.864094 
" style="fill: none; stroke: #000000; stroke-width: 0.5; stroke-linejoin: miter; stroke-linecap: square"/>
   </g>
   <g id="legend_1">
    <g id="PathCollection_2">
     <path d="M 69.419875 6.168503 
L 71.655943 6.168503 
L 71.655943 3.932435 
L 69.419875 3.932435 
L 69.419875 6.168503 
z
" style="fill: none; stroke: #808080"/>
    </g>
    <g id="text_17">
     <!-- Observation (undersampling 10%) -->
     <g transform="translate(79.537909 6.362969) scale(0.05 -0.05)">
      <defs>
       <path id="ArialMT-4f" d="M 309 2231 
Q 309 3372 921 4017 
Q 1534 4663 2503 4663 
Q 3138 4663 3647 4359 
Q 4156 4056 4423 3514 
Q 4691 2972 4691 2284 
Q 4691 1588 4409 1038 
Q 4128 488 3612 205 
Q 3097 -78 2500 -78 
Q 1853 -78 1343 234 
Q 834 547 571 1087 
Q 309 1628 309 2231 
z
M 934 2222 
Q 934 1394 1379 917 
Q 1825 441 2497 441 
Q 3181 441 3623 922 
Q 4066 1403 4066 2288 
Q 4066 2847 3877 3264 
Q 3688 3681 3323 3911 
Q 2959 4141 2506 4141 
Q 1863 4141 1398 3698 
Q 934 3256 934 2222 
z
" transform="scale(0.015625)"/>
       <path id="ArialMT-62" d="M 941 0 
L 419 0 
L 419 4581 
L 981 4581 
L 981 2947 
Q 1338 3394 1891 3394 
Q 2197 3394 2470 3270 
Q 2744 3147 2920 2923 
Q 3097 2700 3197 2384 
Q 3297 2069 3297 1709 
Q 3297 856 2875 390 
Q 2453 -75 1863 -75 
Q 1275 -75 941 416 
L 941 0 
z
M 934 1684 
Q 934 1088 1097 822 
Q 1363 388 1816 388 
Q 2184 388 2453 708 
Q 2722 1028 2722 1663 
Q 2722 2313 2464 2622 
Q 2206 2931 1841 2931 
Q 1472 2931 1203 2611 
Q 934 2291 934 1684 
z
" transform="scale(0.015625)"/>
       <path id="ArialMT-72" d="M 416 0 
L 416 3319 
L 922 3319 
L 922 2816 
Q 1116 3169 1280 3281 
Q 1444 3394 1641 3394 
Q 1925 3394 2219 3213 
L 2025 2691 
Q 1819 2813 1613 2813 
Q 1428 2813 1281 2702 
Q 1134 2591 1072 2394 
Q 978 2094 978 1738 
L 978 0 
L 416 0 
z
" transform="scale(0.015625)"/>
       <path id="ArialMT-76" d="M 1344 0 
L 81 3319 
L 675 3319 
L 1388 1331 
Q 1503 1009 1600 663 
Q 1675 925 1809 1294 
L 2547 3319 
L 3125 3319 
L 1869 0 
L 1344 0 
z
" transform="scale(0.015625)"/>
       <path id="ArialMT-61" d="M 2588 409 
Q 2275 144 1986 34 
Q 1697 -75 1366 -75 
Q 819 -75 525 192 
Q 231 459 231 875 
Q 231 1119 342 1320 
Q 453 1522 633 1644 
Q 813 1766 1038 1828 
Q 1203 1872 1538 1913 
Q 2219 1994 2541 2106 
Q 2544 2222 2544 2253 
Q 2544 2597 2384 2738 
Q 2169 2928 1744 2928 
Q 1347 2928 1158 2789 
Q 969 2650 878 2297 
L 328 2372 
Q 403 2725 575 2942 
Q 747 3159 1072 3276 
Q 1397 3394 1825 3394 
Q 2250 3394 2515 3294 
Q 2781 3194 2906 3042 
Q 3031 2891 3081 2659 
Q 3109 2516 3109 2141 
L 3109 1391 
Q 3109 606 3145 398 
Q 3181 191 3288 0 
L 2700 0 
Q 2613 175 2588 409 
z
M 2541 1666 
Q 2234 1541 1622 1453 
Q 1275 1403 1131 1340 
Q 988 1278 909 1158 
Q 831 1038 831 891 
Q 831 666 1001 516 
Q 1172 366 1500 366 
Q 1825 366 2078 508 
Q 2331 650 2450 897 
Q 2541 1088 2541 1459 
L 2541 1666 
z
" transform="scale(0.015625)"/>
       <path id="ArialMT-6f" d="M 213 1659 
Q 213 2581 725 3025 
Q 1153 3394 1769 3394 
Q 2453 3394 2887 2945 
Q 3322 2497 3322 1706 
Q 3322 1066 3130 698 
Q 2938 331 2570 128 
Q 2203 -75 1769 -75 
Q 1072 -75 642 372 
Q 213 819 213 1659 
z
M 791 1659 
Q 791 1022 1069 705 
Q 1347 388 1769 388 
Q 2188 388 2466 706 
Q 2744 1025 2744 1678 
Q 2744 2294 2464 2611 
Q 2184 2928 1769 2928 
Q 1347 2928 1069 2612 
Q 791 2297 791 1659 
z
" transform="scale(0.015625)"/>
       <path id="ArialMT-6e" d="M 422 0 
L 422 3319 
L 928 3319 
L 928 2847 
Q 1294 3394 1984 3394 
Q 2284 3394 2536 3286 
Q 2788 3178 2913 3003 
Q 3038 2828 3088 2588 
Q 3119 2431 3119 2041 
L 3119 0 
L 2556 0 
L 2556 2019 
Q 2556 2363 2490 2533 
Q 2425 2703 2258 2804 
Q 2091 2906 1866 2906 
Q 1506 2906 1245 2678 
Q 984 2450 984 1813 
L 984 0 
L 422 0 
z
" transform="scale(0.015625)"/>
       <path id="ArialMT-67" d="M 319 -275 
L 866 -356 
Q 900 -609 1056 -725 
Q 1266 -881 1628 -881 
Q 2019 -881 2231 -725 
Q 2444 -569 2519 -288 
Q 2563 -116 2559 434 
Q 2191 0 1641 0 
Q 956 0 581 494 
Q 206 988 206 1678 
Q 206 2153 378 2554 
Q 550 2956 876 3175 
Q 1203 3394 1644 3394 
Q 2231 3394 2613 2919 
L 2613 3319 
L 3131 3319 
L 3131 450 
Q 3131 -325 2973 -648 
Q 2816 -972 2473 -1159 
Q 2131 -1347 1631 -1347 
Q 1038 -1347 672 -1080 
Q 306 -813 319 -275 
z
M 784 1719 
Q 784 1066 1043 766 
Q 1303 466 1694 466 
Q 2081 466 2343 764 
Q 2606 1063 2606 1700 
Q 2606 2309 2336 2618 
Q 2066 2928 1684 2928 
Q 1309 2928 1046 2623 
Q 784 2319 784 1719 
z
" transform="scale(0.015625)"/>
       <path id="ArialMT-25" d="M 372 3481 
Q 372 3972 619 4315 
Q 866 4659 1334 4659 
Q 1766 4659 2048 4351 
Q 2331 4044 2331 3447 
Q 2331 2866 2045 2552 
Q 1759 2238 1341 2238 
Q 925 2238 648 2547 
Q 372 2856 372 3481 
z
M 1350 4272 
Q 1141 4272 1002 4090 
Q 863 3909 863 3425 
Q 863 2984 1003 2804 
Q 1144 2625 1350 2625 
Q 1563 2625 1702 2806 
Q 1841 2988 1841 3469 
Q 1841 3913 1700 4092 
Q 1559 4272 1350 4272 
z
M 1353 -169 
L 3859 4659 
L 4316 4659 
L 1819 -169 
L 1353 -169 
z
M 3334 1075 
Q 3334 1569 3581 1911 
Q 3828 2253 4300 2253 
Q 4731 2253 5014 1945 
Q 5297 1638 5297 1041 
Q 5297 459 5011 145 
Q 4725 -169 4303 -169 
Q 3888 -169 3611 142 
Q 3334 453 3334 1075 
z
M 4316 1866 
Q 4103 1866 3964 1684 
Q 3825 1503 3825 1019 
Q 3825 581 3965 400 
Q 4106 219 4313 219 
Q 4528 219 4667 400 
Q 4806 581 4806 1063 
Q 4806 1506 4665 1686 
Q 4525 1866 4316 1866 
z
" transform="scale(0.015625)"/>
      </defs>
      <use xlink:href="#ArialMT-4f"/>
      <use xlink:href="#ArialMT-62" x="77.783203"/>
      <use xlink:href="#ArialMT-73" x="133.398438"/>
      <use xlink:href="#ArialMT-65" x="183.398438"/>
      <use xlink:href="#ArialMT-72" x="239.013672"/>
      <use xlink:href="#ArialMT-76" x="272.314453"/>
      <use xlink:href="#ArialMT-61" x="322.314453"/>
      <use xlink:href="#ArialMT-74" x="377.929688"/>
      <use xlink:href="#ArialMT-69" x="405.712891"/>
      <use xlink:href="#ArialMT-6f" x="427.929688"/>
      <use xlink:href="#ArialMT-6e" x="483.544922"/>
      <use xlink:href="#ArialMT-20" x="539.160156"/>
      <use xlink:href="#ArialMT-28" x="566.943359"/>
      <use xlink:href="#ArialMT-75" x="600.244141"/>
      <use xlink:href="#ArialMT-6e" x="655.859375"/>
      <use xlink:href="#ArialMT-64" x="711.474609"/>
      <use xlink:href="#ArialMT-65" x="767.089844"/>
      <use xlink:href="#ArialMT-72" x="822.705078"/>
      <use xlink:href="#ArialMT-73" x="856.005859"/>
      <use xlink:href="#ArialMT-61" x="906.005859"/>
      <use xlink:href="#ArialMT-6d" x="961.621094"/>
      <use xlink:href="#ArialMT-70" x="1044.921875"/>
      <use xlink:href="#ArialMT-6c" x="1100.537109"/>
      <use xlink:href="#ArialMT-69" x="1122.753906"/>
      <use xlink:href="#ArialMT-6e" x="1144.970703"/>
      <use xlink:href="#ArialMT-67" x="1200.585938"/>
      <use xlink:href="#ArialMT-20" x="1256.201172"/>
      <use xlink:href="#ArialMT-31" x="1283.984375"/>
      <use xlink:href="#ArialMT-30" x="1339.599609"/>
      <use xlink:href="#ArialMT-25" x="1395.214844"/>
      <use xlink:href="#ArialMT-29" x="1484.130859"/>
     </g>
    </g>
    <g id="line2d_20">
     <path d="M 65.537909 11.805156 
L 70.537909 11.805156 
L 75.537909 11.805156 
" style="fill: none; stroke: #000000; stroke-width: 1.2; stroke-linecap: square"/>
    </g>
    <g id="text_18">
     <!-- full equation -->
     <g transform="translate(79.537909 13.555156) scale(0.05 -0.05)">
      <defs>
       <path id="ArialMT-66" d="M 556 0 
L 556 2881 
L 59 2881 
L 59 3319 
L 556 3319 
L 556 3672 
Q 556 4006 616 4169 
Q 697 4388 901 4523 
Q 1106 4659 1475 4659 
Q 1713 4659 2000 4603 
L 1916 4113 
Q 1741 4144 1584 4144 
Q 1328 4144 1222 4034 
Q 1116 3925 1116 3625 
L 1116 3319 
L 1763 3319 
L 1763 2881 
L 1116 2881 
L 1116 0 
L 556 0 
z
" transform="scale(0.015625)"/>
       <path id="ArialMT-71" d="M 2538 -1272 
L 2538 353 
Q 2406 169 2170 47 
Q 1934 -75 1669 -75 
Q 1078 -75 651 397 
Q 225 869 225 1691 
Q 225 2191 398 2587 
Q 572 2984 901 3189 
Q 1231 3394 1625 3394 
Q 2241 3394 2594 2875 
L 2594 3319 
L 3100 3319 
L 3100 -1272 
L 2538 -1272 
z
M 803 1669 
Q 803 1028 1072 708 
Q 1341 388 1716 388 
Q 2075 388 2334 692 
Q 2594 997 2594 1619 
Q 2594 2281 2320 2615 
Q 2047 2950 1678 2950 
Q 1313 2950 1058 2639 
Q 803 2328 803 1669 
z
" transform="scale(0.015625)"/>
      </defs>
      <use xlink:href="#ArialMT-66"/>
      <use xlink:href="#ArialMT-75" x="27.783203"/>
      <use xlink:href="#ArialMT-6c" x="83.398438"/>
      <use xlink:href="#ArialMT-6c" x="105.615234"/>
      <use xlink:href="#ArialMT-20" x="127.832031"/>
      <use xlink:href="#ArialMT-65" x="155.615234"/>
      <use xlink:href="#ArialMT-71" x="211.230469"/>
      <use xlink:href="#ArialMT-75" x="266.845703"/>
      <use xlink:href="#ArialMT-61" x="322.460938"/>
      <use xlink:href="#ArialMT-74" x="378.076172"/>
      <use xlink:href="#ArialMT-69" x="405.859375"/>
      <use xlink:href="#ArialMT-6f" x="428.076172"/>
      <use xlink:href="#ArialMT-6e" x="483.691406"/>
     </g>
    </g>
    <g id="line2d_21">
     <path d="M 165.404315 4.612969 
L 170.404315 4.612969 
L 175.404315 4.612969 
" style="fill: none; stroke-dasharray: 2.59,1.12; stroke-dashoffset: 0; stroke: #1f77b4; stroke-width: 0.7"/>
    </g>
    <g id="text_19">
     <!-- Ablate 4.742e-02$\dot{x}$ -->
     <g transform="translate(179.404315 6.362969) scale(0.05 -0.05)">
      <defs>
       <path id="ArialMT-2e" d="M 581 0 
L 581 641 
L 1222 641 
L 1222 0 
L 581 0 
z
" transform="scale(0.015625)"/>
       <path id="ArialMT-37" d="M 303 3981 
L 303 4522 
L 3269 4522 
L 3269 4084 
Q 2831 3619 2401 2847 
Q 1972 2075 1738 1259 
Q 1569 684 1522 0 
L 944 0 
Q 953 541 1156 1306 
Q 1359 2072 1739 2783 
Q 2119 3494 2547 3981 
L 303 3981 
z
" transform="scale(0.015625)"/>
       <path id="ArialMT-2d" d="M 203 1375 
L 203 1941 
L 1931 1941 
L 1931 1375 
L 203 1375 
z
" transform="scale(0.015625)"/>
       <path id="STIXGeneral-Regular-307" d="M -1158 3661 
Q -1158 3526 -1251 3436 
Q -1344 3347 -1478 3347 
Q -1606 3347 -1699 3440 
Q -1792 3533 -1792 3661 
Q -1792 3795 -1705 3888 
Q -1619 3981 -1478 3981 
Q -1331 3981 -1244 3891 
Q -1158 3802 -1158 3661 
z
" transform="scale(0.015625)"/>
       <path id="STIXGeneral-Italic-78" d="M 1555 2272 
L 1632 1907 
Q 1971 2426 2179 2624 
Q 2387 2822 2598 2822 
Q 2714 2822 2787 2755 
Q 2861 2688 2861 2585 
Q 2861 2483 2800 2419 
Q 2739 2355 2643 2355 
Q 2586 2355 2490 2409 
Q 2394 2464 2310 2464 
Q 2125 2464 1683 1690 
Q 1683 1606 1734 1402 
L 1939 544 
Q 2003 282 2131 282 
Q 2234 282 2432 538 
Q 2451 563 2476 598 
Q 2502 634 2521 662 
Q 2541 691 2566 717 
L 2662 659 
Q 2387 230 2227 80 
Q 2067 -70 1882 -70 
Q 1728 -70 1645 26 
Q 1562 122 1504 365 
L 1318 1126 
L 755 365 
Q 557 96 432 13 
Q 307 -70 147 -70 
Q 0 -70 -86 0 
Q -173 70 -173 198 
Q -173 294 -112 361 
Q -51 429 45 429 
Q 122 429 250 358 
Q 346 301 416 301 
Q 525 301 742 614 
L 1267 1357 
L 1088 2150 
Q 1024 2432 969 2509 
Q 915 2586 794 2586 
Q 717 2586 544 2541 
L 429 2509 
L 410 2611 
L 480 2637 
Q 992 2822 1229 2822 
Q 1350 2822 1420 2707 
Q 1491 2592 1555 2272 
z
" transform="scale(0.015625)"/>
      </defs>
      <use xlink:href="#ArialMT-41" transform="translate(0 0.125)"/>
      <use xlink:href="#ArialMT-62" transform="translate(66.699219 0.125)"/>
      <use xlink:href="#ArialMT-6c" transform="translate(122.314453 0.125)"/>
      <use xlink:href="#ArialMT-61" transform="translate(144.53125 0.125)"/>
      <use xlink:href="#ArialMT-74" transform="translate(200.146484 0.125)"/>
      <use xlink:href="#ArialMT-65" transform="translate(227.929688 0.125)"/>
      <use xlink:href="#ArialMT-20" transform="translate(283.544922 0.125)"/>
      <use xlink:href="#ArialMT-34" transform="translate(311.328125 0.125)"/>
      <use xlink:href="#ArialMT-2e" transform="translate(366.943359 0.125)"/>
      <use xlink:href="#ArialMT-37" transform="translate(394.726562 0.125)"/>
      <use xlink:href="#ArialMT-34" transform="translate(450.341797 0.125)"/>
      <use xlink:href="#ArialMT-32" transform="translate(505.957031 0.125)"/>
      <use xlink:href="#ArialMT-65" transform="translate(561.572266 0.125)"/>
      <use xlink:href="#ArialMT-2d" transform="translate(617.1875 0.125)"/>
      <use xlink:href="#ArialMT-30" transform="translate(650.488281 0.125)"/>
      <use xlink:href="#ArialMT-32" transform="translate(706.103516 0.125)"/>
      <use xlink:href="#STIXGeneral-Regular-307" transform="translate(812.818748 4.421875)"/>
      <use xlink:href="#STIXGeneral-Italic-78" transform="translate(761.71875 0.125)"/>
     </g>
    </g>
    <g id="line2d_22">
     <path d="M 165.404315 11.685625 
L 170.404315 11.685625 
L 175.404315 11.685625 
" style="fill: none; stroke-dasharray: 2.59,1.12; stroke-dashoffset: 0; stroke: #ff7f0e; stroke-width: 0.7"/>
    </g>
    <g id="text_20">
     <!-- Ablate -1.741e-03$x^3$ -->
     <g transform="translate(179.404315 13.435625) scale(0.05 -0.05)">
      <defs>
       <path id="STIXGeneral-Regular-33" d="M 390 3264 
L 288 3290 
Q 435 3770 748 4048 
Q 1062 4326 1542 4326 
Q 1990 4326 2265 4083 
Q 2541 3840 2541 3450 
Q 2541 2925 1946 2566 
Q 2298 2413 2477 2227 
Q 2758 1914 2758 1402 
Q 2758 890 2464 506 
Q 2246 211 1840 60 
Q 1434 -90 979 -90 
Q 262 -90 262 275 
Q 262 378 339 442 
Q 416 506 525 506 
Q 685 506 915 339 
Q 1197 141 1466 141 
Q 1818 141 2058 425 
Q 2298 710 2298 1120 
Q 2298 1856 1632 2048 
Q 1434 2112 979 2112 
L 979 2202 
Q 1338 2323 1517 2432 
Q 2035 2726 2035 3290 
Q 2035 3610 1852 3776 
Q 1670 3942 1344 3942 
Q 768 3942 390 3264 
z
" transform="scale(0.015625)"/>
      </defs>
      <use xlink:href="#ArialMT-41" transform="translate(0 0.409375)"/>
      <use xlink:href="#ArialMT-62" transform="translate(66.699219 0.409375)"/>
      <use xlink:href="#ArialMT-6c" transform="translate(122.314453 0.409375)"/>
      <use xlink:href="#ArialMT-61" transform="translate(144.53125 0.409375)"/>
      <use xlink:href="#ArialMT-74" transform="translate(200.146484 0.409375)"/>
      <use xlink:href="#ArialMT-65" transform="translate(227.929688 0.409375)"/>
      <use xlink:href="#ArialMT-20" transform="translate(283.544922 0.409375)"/>
      <use xlink:href="#ArialMT-2d" transform="translate(311.328125 0.409375)"/>
      <use xlink:href="#ArialMT-31" transform="translate(344.628906 0.409375)"/>
      <use xlink:href="#ArialMT-2e" transform="translate(400.244141 0.409375)"/>
      <use xlink:href="#ArialMT-37" transform="translate(428.027344 0.409375)"/>
      <use xlink:href="#ArialMT-34" transform="translate(483.642578 0.409375)"/>
      <use xlink:href="#ArialMT-31" transform="translate(539.257812 0.409375)"/>
      <use xlink:href="#ArialMT-65" transform="translate(594.873047 0.409375)"/>
      <use xlink:href="#ArialMT-2d" transform="translate(650.488281 0.409375)"/>
      <use xlink:href="#ArialMT-30" transform="translate(683.789062 0.409375)"/>
      <use xlink:href="#ArialMT-33" transform="translate(739.404297 0.409375)"/>
      <use xlink:href="#STIXGeneral-Italic-78" transform="translate(795.019531 0.409375)"/>
      <use xlink:href="#STIXGeneral-Regular-33" transform="translate(845.59265 35.684375) scale(0.7)"/>
     </g>
    </g>
    <g id="line2d_23">
     <path d="M 233.704315 4.612969 
L 238.704315 4.612969 
L 243.704315 4.612969 
" style="fill: none; stroke-dasharray: 2.59,1.12; stroke-dashoffset: 0; stroke: #2ca02c; stroke-width: 0.7"/>
    </g>
    <g id="text_21">
     <!-- Ablate -4.641e-06$\dot{x}^3$ -->
     <g transform="translate(247.704315 6.362969) scale(0.05 -0.05)">
      <use xlink:href="#ArialMT-41" transform="translate(0 0.409375)"/>
      <use xlink:href="#ArialMT-62" transform="translate(66.699219 0.409375)"/>
      <use xlink:href="#ArialMT-6c" transform="translate(122.314453 0.409375)"/>
      <use xlink:href="#ArialMT-61" transform="translate(144.53125 0.409375)"/>
      <use xlink:href="#ArialMT-74" transform="translate(200.146484 0.409375)"/>
      <use xlink:href="#ArialMT-65" transform="translate(227.929688 0.409375)"/>
      <use xlink:href="#ArialMT-20" transform="translate(283.544922 0.409375)"/>
      <use xlink:href="#ArialMT-2d" transform="translate(311.328125 0.409375)"/>
      <use xlink:href="#ArialMT-34" transform="translate(344.628906 0.409375)"/>
      <use xlink:href="#ArialMT-2e" transform="translate(400.244141 0.409375)"/>
      <use xlink:href="#ArialMT-36" transform="translate(428.027344 0.409375)"/>
      <use xlink:href="#ArialMT-34" transform="translate(483.642578 0.409375)"/>
      <use xlink:href="#ArialMT-31" transform="translate(539.257812 0.409375)"/>
      <use xlink:href="#ArialMT-65" transform="translate(594.873047 0.409375)"/>
      <use xlink:href="#ArialMT-2d" transform="translate(650.488281 0.409375)"/>
      <use xlink:href="#ArialMT-30" transform="translate(683.789062 0.409375)"/>
      <use xlink:href="#ArialMT-36" transform="translate(739.404297 0.409375)"/>
      <use xlink:href="#STIXGeneral-Regular-307" transform="translate(846.11953 4.70625)"/>
      <use xlink:href="#STIXGeneral-Italic-78" transform="translate(795.019531 0.409375)"/>
      <use xlink:href="#STIXGeneral-Regular-33" transform="translate(840.962806 35.684375) scale(0.7)"/>
     </g>
    </g>
    <g id="line2d_24">
     <path d="M 233.704315 11.685625 
L 238.704315 11.685625 
L 243.704315 11.685625 
" style="fill: none; stroke-dasharray: 2.59,1.12; stroke-dashoffset: 0; stroke: #d62728; stroke-width: 0.7"/>
    </g>
    <g id="text_22">
     <!-- Ablate 9.137e-11$\dot{x}^5$ -->
     <g transform="translate(247.704315 13.435625) scale(0.05 -0.05)">
      <defs>
       <path id="ArialMT-39" d="M 350 1059 
L 891 1109 
Q 959 728 1153 556 
Q 1347 384 1650 384 
Q 1909 384 2104 503 
Q 2300 622 2425 820 
Q 2550 1019 2634 1356 
Q 2719 1694 2719 2044 
Q 2719 2081 2716 2156 
Q 2547 1888 2255 1720 
Q 1963 1553 1622 1553 
Q 1053 1553 659 1965 
Q 266 2378 266 3053 
Q 266 3750 677 4175 
Q 1088 4600 1706 4600 
Q 2153 4600 2523 4359 
Q 2894 4119 3086 3673 
Q 3278 3228 3278 2384 
Q 3278 1506 3087 986 
Q 2897 466 2520 194 
Q 2144 -78 1638 -78 
Q 1100 -78 759 220 
Q 419 519 350 1059 
z
M 2653 3081 
Q 2653 3566 2395 3850 
Q 2138 4134 1775 4134 
Q 1400 4134 1122 3828 
Q 844 3522 844 3034 
Q 844 2597 1108 2323 
Q 1372 2050 1759 2050 
Q 2150 2050 2401 2323 
Q 2653 2597 2653 3081 
z
" transform="scale(0.015625)"/>
       <path id="STIXGeneral-Regular-35" d="M 2803 4358 
L 2573 3814 
Q 2534 3731 2400 3731 
L 1158 3731 
L 902 3187 
Q 1606 3053 1920 2896 
Q 2234 2739 2502 2368 
Q 2726 2061 2726 1555 
Q 2726 1094 2576 780 
Q 2426 467 2099 224 
Q 1664 -90 1011 -90 
Q 646 -90 422 19 
Q 198 128 198 307 
Q 198 550 486 550 
Q 717 550 960 352 
Q 1210 147 1414 147 
Q 1747 147 2012 480 
Q 2278 813 2278 1229 
Q 2278 1843 1850 2189 
Q 1293 2637 486 2637 
Q 410 2637 410 2688 
L 416 2720 
L 1114 4237 
L 2438 4237 
Q 2547 4237 2608 4269 
Q 2669 4301 2746 4403 
L 2803 4358 
z
" transform="scale(0.015625)"/>
      </defs>
      <use xlink:href="#ArialMT-41" transform="translate(0 0.567188)"/>
      <use xlink:href="#ArialMT-62" transform="translate(66.699219 0.567188)"/>
      <use xlink:href="#ArialMT-6c" transform="translate(122.314453 0.567188)"/>
      <use xlink:href="#ArialMT-61" transform="translate(144.53125 0.567188)"/>
      <use xlink:href="#ArialMT-74" transform="translate(200.146484 0.567188)"/>
      <use xlink:href="#ArialMT-65" transform="translate(227.929688 0.567188)"/>
      <use xlink:href="#ArialMT-20" transform="translate(283.544922 0.567188)"/>
      <use xlink:href="#ArialMT-39" transform="translate(311.328125 0.567188)"/>
      <use xlink:href="#ArialMT-2e" transform="translate(366.943359 0.567188)"/>
      <use xlink:href="#ArialMT-31" transform="translate(394.726562 0.567188)"/>
      <use xlink:href="#ArialMT-33" transform="translate(450.341797 0.567188)"/>
      <use xlink:href="#ArialMT-37" transform="translate(505.957031 0.567188)"/>
      <use xlink:href="#ArialMT-65" transform="translate(561.572266 0.567188)"/>
      <use xlink:href="#ArialMT-2d" transform="translate(617.1875 0.567188)"/>
      <use xlink:href="#ArialMT-31" transform="translate(650.488281 0.567188)"/>
      <use xlink:href="#ArialMT-31" transform="translate(706.103516 0.567188)"/>
      <use xlink:href="#STIXGeneral-Regular-307" transform="translate(812.818748 4.864063)"/>
      <use xlink:href="#STIXGeneral-Italic-78" transform="translate(761.71875 0.567188)"/>
      <use xlink:href="#STIXGeneral-Regular-35" transform="translate(807.662025 35.842188) scale(0.7)"/>
     </g>
    </g>
   </g>
  </g>
  <g id="axes_2">
   <g id="patch_7">
    <path d="M 200.614616 83.344409 
L 347.071309 83.344409 
L 347.071309 17.864094 
L 200.614616 17.864094 
L 200.614616 83.344409 
z
" style="fill: none"/>
   </g>
   <g id="PathCollection_3">
    <defs>
     <path id="C1_0_74af742bd9" d="M -1.118034 1.118034 
L 1.118034 1.118034 
L 1.118034 -1.118034 
L -1.118034 -1.118034 
z
"/>
    </defs>
    <g clip-path="url(#p77395bb68e)">
     <use xlink:href="#C1_0_74af742bd9" x="200.853831" y="50.626765" style="fill: none; stroke: #808080"/>
    </g>
    <g clip-path="url(#p77395bb68e)">
     <use xlink:href="#C1_0_74af742bd9" x="203.259002" y="50.260479" style="fill: none; stroke: #808080"/>
    </g>
    <g clip-path="url(#p77395bb68e)">
     <use xlink:href="#C1_0_74af742bd9" x="205.664174" y="49.690166" style="fill: none; stroke: #808080"/>
    </g>
    <g clip-path="url(#p77395bb68e)">
     <use xlink:href="#C1_0_74af742bd9" x="208.069345" y="49.260321" style="fill: none; stroke: #808080"/>
    </g>
    <g clip-path="url(#p77395bb68e)">
     <use xlink:href="#C1_0_74af742bd9" x="210.474516" y="49.209074" style="fill: none; stroke: #808080"/>
    </g>
    <g clip-path="url(#p77395bb68e)">
     <use xlink:href="#C1_0_74af742bd9" x="212.878059" y="48.706386" style="fill: none; stroke: #808080"/>
    </g>
    <g clip-path="url(#p77395bb68e)">
     <use xlink:href="#C1_0_74af742bd9" x="215.283231" y="48.205962" style="fill: none; stroke: #808080"/>
    </g>
    <g clip-path="url(#p77395bb68e)">
     <use xlink:href="#C1_0_74af742bd9" x="217.688402" y="47.845241" style="fill: none; stroke: #808080"/>
    </g>
    <g clip-path="url(#p77395bb68e)">
     <use xlink:href="#C1_0_74af742bd9" x="220.093573" y="47.56937" style="fill: none; stroke: #808080"/>
    </g>
    <g clip-path="url(#p77395bb68e)">
     <use xlink:href="#C1_0_74af742bd9" x="222.498744" y="47.198598" style="fill: none; stroke: #808080"/>
    </g>
    <g clip-path="url(#p77395bb68e)">
     <use xlink:href="#C1_0_74af742bd9" x="224.903915" y="47.068727" style="fill: none; stroke: #808080"/>
    </g>
    <g clip-path="url(#p77395bb68e)">
     <use xlink:href="#C1_0_74af742bd9" x="227.307459" y="46.956081" style="fill: none; stroke: #808080"/>
    </g>
    <g clip-path="url(#p77395bb68e)">
     <use xlink:href="#C1_0_74af742bd9" x="229.71263" y="46.669043" style="fill: none; stroke: #808080"/>
    </g>
    <g clip-path="url(#p77395bb68e)">
     <use xlink:href="#C1_0_74af742bd9" x="232.117801" y="46.45104" style="fill: none; stroke: #808080"/>
    </g>
    <g clip-path="url(#p77395bb68e)">
     <use xlink:href="#C1_0_74af742bd9" x="234.522972" y="46.276335" style="fill: none; stroke: #808080"/>
    </g>
    <g clip-path="url(#p77395bb68e)">
     <use xlink:href="#C1_0_74af742bd9" x="236.928143" y="46.085112" style="fill: none; stroke: #808080"/>
    </g>
    <g clip-path="url(#p77395bb68e)">
     <use xlink:href="#C1_0_74af742bd9" x="239.333314" y="45.916329" style="fill: none; stroke: #808080"/>
    </g>
    <g clip-path="url(#p77395bb68e)">
     <use xlink:href="#C1_0_74af742bd9" x="241.736858" y="45.810337" style="fill: none; stroke: #808080"/>
    </g>
    <g clip-path="url(#p77395bb68e)">
     <use xlink:href="#C1_0_74af742bd9" x="244.142029" y="45.646926" style="fill: none; stroke: #808080"/>
    </g>
    <g clip-path="url(#p77395bb68e)">
     <use xlink:href="#C1_0_74af742bd9" x="246.5472" y="45.504301" style="fill: none; stroke: #808080"/>
    </g>
    <g clip-path="url(#p77395bb68e)">
     <use xlink:href="#C1_0_74af742bd9" x="248.952371" y="45.493757" style="fill: none; stroke: #808080"/>
    </g>
    <g clip-path="url(#p77395bb68e)">
     <use xlink:href="#C1_0_74af742bd9" x="251.357542" y="45.367981" style="fill: none; stroke: #808080"/>
    </g>
    <g clip-path="url(#p77395bb68e)">
     <use xlink:href="#C1_0_74af742bd9" x="253.762713" y="45.239792" style="fill: none; stroke: #808080"/>
    </g>
    <g clip-path="url(#p77395bb68e)">
     <use xlink:href="#C1_0_74af742bd9" x="256.166257" y="45.155914" style="fill: none; stroke: #808080"/>
    </g>
    <g clip-path="url(#p77395bb68e)">
     <use xlink:href="#C1_0_74af742bd9" x="258.571428" y="45.11423" style="fill: none; stroke: #808080"/>
    </g>
    <g clip-path="url(#p77395bb68e)">
     <use xlink:href="#C1_0_74af742bd9" x="260.976599" y="45.018812" style="fill: none; stroke: #808080"/>
    </g>
    <g clip-path="url(#p77395bb68e)">
     <use xlink:href="#C1_0_74af742bd9" x="263.38177" y="44.874925" style="fill: none; stroke: #808080"/>
    </g>
    <g clip-path="url(#p77395bb68e)">
     <use xlink:href="#C1_0_74af742bd9" x="265.786941" y="44.770524" style="fill: none; stroke: #808080"/>
    </g>
    <g clip-path="url(#p77395bb68e)">
     <use xlink:href="#C1_0_74af742bd9" x="268.192112" y="44.642785" style="fill: none; stroke: #808080"/>
    </g>
    <g clip-path="url(#p77395bb68e)">
     <use xlink:href="#C1_0_74af742bd9" x="270.595656" y="44.528618" style="fill: none; stroke: #808080"/>
    </g>
    <g clip-path="url(#p77395bb68e)">
     <use xlink:href="#C1_0_74af742bd9" x="273.000827" y="44.353358" style="fill: none; stroke: #808080"/>
    </g>
    <g clip-path="url(#p77395bb68e)">
     <use xlink:href="#C1_0_74af742bd9" x="275.405998" y="44.229498" style="fill: none; stroke: #808080"/>
    </g>
    <g clip-path="url(#p77395bb68e)">
     <use xlink:href="#C1_0_74af742bd9" x="277.811169" y="44.076645" style="fill: none; stroke: #808080"/>
    </g>
    <g clip-path="url(#p77395bb68e)">
     <use xlink:href="#C1_0_74af742bd9" x="280.216341" y="43.886449" style="fill: none; stroke: #808080"/>
    </g>
    <g clip-path="url(#p77395bb68e)">
     <use xlink:href="#C1_0_74af742bd9" x="282.621512" y="43.738405" style="fill: none; stroke: #808080"/>
    </g>
    <g clip-path="url(#p77395bb68e)">
     <use xlink:href="#C1_0_74af742bd9" x="285.025055" y="43.633058" style="fill: none; stroke: #808080"/>
    </g>
    <g clip-path="url(#p77395bb68e)">
     <use xlink:href="#C1_0_74af742bd9" x="287.430226" y="43.48799" style="fill: none; stroke: #808080"/>
    </g>
    <g clip-path="url(#p77395bb68e)">
     <use xlink:href="#C1_0_74af742bd9" x="289.835398" y="43.290512" style="fill: none; stroke: #808080"/>
    </g>
    <g clip-path="url(#p77395bb68e)">
     <use xlink:href="#C1_0_74af742bd9" x="292.240569" y="43.140444" style="fill: none; stroke: #808080"/>
    </g>
    <g clip-path="url(#p77395bb68e)">
     <use xlink:href="#C1_0_74af742bd9" x="294.64574" y="42.986267" style="fill: none; stroke: #808080"/>
    </g>
    <g clip-path="url(#p77395bb68e)">
     <use xlink:href="#C1_0_74af742bd9" x="297.050911" y="42.863727" style="fill: none; stroke: #808080"/>
    </g>
    <g clip-path="url(#p77395bb68e)">
     <use xlink:href="#C1_0_74af742bd9" x="299.454455" y="42.674219" style="fill: none; stroke: #808080"/>
    </g>
    <g clip-path="url(#p77395bb68e)">
     <use xlink:href="#C1_0_74af742bd9" x="301.859626" y="42.497199" style="fill: none; stroke: #808080"/>
    </g>
    <g clip-path="url(#p77395bb68e)">
     <use xlink:href="#C1_0_74af742bd9" x="304.264797" y="42.318833" style="fill: none; stroke: #808080"/>
    </g>
    <g clip-path="url(#p77395bb68e)">
     <use xlink:href="#C1_0_74af742bd9" x="306.669968" y="42.153461" style="fill: none; stroke: #808080"/>
    </g>
    <g clip-path="url(#p77395bb68e)">
     <use xlink:href="#C1_0_74af742bd9" x="309.075139" y="42.006107" style="fill: none; stroke: #808080"/>
    </g>
    <g clip-path="url(#p77395bb68e)">
     <use xlink:href="#C1_0_74af742bd9" x="311.48031" y="41.821299" style="fill: none; stroke: #808080"/>
    </g>
    <g clip-path="url(#p77395bb68e)">
     <use xlink:href="#C1_0_74af742bd9" x="313.883854" y="41.709912" style="fill: none; stroke: #808080"/>
    </g>
    <g clip-path="url(#p77395bb68e)">
     <use xlink:href="#C1_0_74af742bd9" x="316.289025" y="41.560249" style="fill: none; stroke: #808080"/>
    </g>
    <g clip-path="url(#p77395bb68e)">
     <use xlink:href="#C1_0_74af742bd9" x="318.694196" y="41.44267" style="fill: none; stroke: #808080"/>
    </g>
    <g clip-path="url(#p77395bb68e)">
     <use xlink:href="#C1_0_74af742bd9" x="321.099367" y="41.302608" style="fill: none; stroke: #808080"/>
    </g>
    <g clip-path="url(#p77395bb68e)">
     <use xlink:href="#C1_0_74af742bd9" x="323.504538" y="41.224516" style="fill: none; stroke: #808080"/>
    </g>
    <g clip-path="url(#p77395bb68e)">
     <use xlink:href="#C1_0_74af742bd9" x="325.909709" y="41.104093" style="fill: none; stroke: #808080"/>
    </g>
    <g clip-path="url(#p77395bb68e)">
     <use xlink:href="#C1_0_74af742bd9" x="328.313253" y="40.971864" style="fill: none; stroke: #808080"/>
    </g>
    <g clip-path="url(#p77395bb68e)">
     <use xlink:href="#C1_0_74af742bd9" x="330.718424" y="40.81338" style="fill: none; stroke: #808080"/>
    </g>
    <g clip-path="url(#p77395bb68e)">
     <use xlink:href="#C1_0_74af742bd9" x="333.123595" y="40.674067" style="fill: none; stroke: #808080"/>
    </g>
    <g clip-path="url(#p77395bb68e)">
     <use xlink:href="#C1_0_74af742bd9" x="335.528766" y="40.503315" style="fill: none; stroke: #808080"/>
    </g>
    <g clip-path="url(#p77395bb68e)">
     <use xlink:href="#C1_0_74af742bd9" x="337.933937" y="40.368927" style="fill: none; stroke: #808080"/>
    </g>
    <g clip-path="url(#p77395bb68e)">
     <use xlink:href="#C1_0_74af742bd9" x="340.339108" y="40.248197" style="fill: none; stroke: #808080"/>
    </g>
    <g clip-path="url(#p77395bb68e)">
     <use xlink:href="#C1_0_74af742bd9" x="342.742652" y="40.138241" style="fill: none; stroke: #808080"/>
    </g>
    <g clip-path="url(#p77395bb68e)">
     <use xlink:href="#C1_0_74af742bd9" x="345.147823" y="40.039353" style="fill: none; stroke: #808080"/>
    </g>
   </g>
   <g id="matplotlib.axis_3">
    <g id="xtick_8">
     <g id="line2d_25">
      <g>
       <use xlink:href="#m23e9db1eaa" x="200.614616" y="83.344409" style="stroke: #000000; stroke-width: 0.8"/>
      </g>
     </g>
     <g id="text_23">
      <!-- 0 -->
      <g transform="translate(199.780476 92.491753) scale(0.03 -0.03)">
       <use xlink:href="#ArialMT-30"/>
      </g>
     </g>
    </g>
    <g id="xtick_9">
     <g id="line2d_26">
      <g>
       <use xlink:href="#m23e9db1eaa" x="225.024065" y="83.344409" style="stroke: #000000; stroke-width: 0.8"/>
      </g>
     </g>
     <g id="text_24">
      <!-- 50 -->
      <g transform="translate(223.355784 92.491753) scale(0.03 -0.03)">
       <use xlink:href="#ArialMT-35"/>
       <use xlink:href="#ArialMT-30" x="55.615234"/>
      </g>
     </g>
    </g>
    <g id="xtick_10">
     <g id="line2d_27">
      <g>
       <use xlink:href="#m23e9db1eaa" x="249.433514" y="83.344409" style="stroke: #000000; stroke-width: 0.8"/>
      </g>
     </g>
     <g id="text_25">
      <!-- 100 -->
      <g transform="translate(246.931092 92.491753) scale(0.03 -0.03)">
       <use xlink:href="#ArialMT-31"/>
       <use xlink:href="#ArialMT-30" x="55.615234"/>
       <use xlink:href="#ArialMT-30" x="111.230469"/>
      </g>
     </g>
    </g>
    <g id="xtick_11">
     <g id="line2d_28">
      <g>
       <use xlink:href="#m23e9db1eaa" x="273.842963" y="83.344409" style="stroke: #000000; stroke-width: 0.8"/>
      </g>
     </g>
     <g id="text_26">
      <!-- 150 -->
      <g transform="translate(271.340541 92.491753) scale(0.03 -0.03)">
       <use xlink:href="#ArialMT-31"/>
       <use xlink:href="#ArialMT-35" x="55.615234"/>
       <use xlink:href="#ArialMT-30" x="111.230469"/>
      </g>
     </g>
    </g>
    <g id="xtick_12">
     <g id="line2d_29">
      <g>
       <use xlink:href="#m23e9db1eaa" x="298.252411" y="83.344409" style="stroke: #000000; stroke-width: 0.8"/>
      </g>
     </g>
     <g id="text_27">
      <!-- 200 -->
      <g transform="translate(295.74999 92.491753) scale(0.03 -0.03)">
       <use xlink:href="#ArialMT-32"/>
       <use xlink:href="#ArialMT-30" x="55.615234"/>
       <use xlink:href="#ArialMT-30" x="111.230469"/>
      </g>
     </g>
    </g>
    <g id="xtick_13">
     <g id="line2d_30">
      <g>
       <use xlink:href="#m23e9db1eaa" x="322.66186" y="83.344409" style="stroke: #000000; stroke-width: 0.8"/>
      </g>
     </g>
     <g id="text_28">
      <!-- 250 -->
      <g transform="translate(320.159438 92.491753) scale(0.03 -0.03)">
       <use xlink:href="#ArialMT-32"/>
       <use xlink:href="#ArialMT-35" x="55.615234"/>
       <use xlink:href="#ArialMT-30" x="111.230469"/>
      </g>
     </g>
    </g>
    <g id="xtick_14">
     <g id="line2d_31">
      <g>
       <use xlink:href="#m23e9db1eaa" x="347.071309" y="83.344409" style="stroke: #000000; stroke-width: 0.8"/>
      </g>
     </g>
     <g id="text_29">
      <!-- 300 -->
      <g transform="translate(344.568887 92.491753) scale(0.03 -0.03)">
       <use xlink:href="#ArialMT-33"/>
       <use xlink:href="#ArialMT-30" x="55.615234"/>
       <use xlink:href="#ArialMT-30" x="111.230469"/>
      </g>
     </g>
    </g>
    <g id="text_30">
     <!-- Time (s) -->
     <g transform="translate(262.958119 98.455816) scale(0.06 -0.06)">
      <use xlink:href="#ArialMT-54"/>
      <use xlink:href="#ArialMT-69" x="57.333984"/>
      <use xlink:href="#ArialMT-6d" x="79.550781"/>
      <use xlink:href="#ArialMT-65" x="162.851562"/>
      <use xlink:href="#ArialMT-20" x="218.466797"/>
      <use xlink:href="#ArialMT-28" x="246.25"/>
      <use xlink:href="#ArialMT-73" x="279.550781"/>
      <use xlink:href="#ArialMT-29" x="329.550781"/>
     </g>
    </g>
   </g>
   <g id="matplotlib.axis_4">
    <g id="ytick_8">
     <g id="line2d_32">
      <g>
       <use xlink:href="#m7b407dd6dc" x="200.614616" y="83.344409" style="stroke: #000000; stroke-width: 0.8"/>
      </g>
     </g>
     <g id="text_31">
      <!-- $-2\pi$ -->
      <g transform="translate(188.544616 84.418081) scale(0.03 -0.03)">
       <defs>
        <path id="STIXGeneral-Regular-2212" d="M 3974 1408 
L 410 1408 
L 410 1830 
L 3974 1830 
L 3974 1408 
z
" transform="scale(0.015625)"/>
        <path id="STIXGeneral-Regular-32" d="M 3034 877 
L 2688 0 
L 186 0 
L 186 77 
L 1325 1286 
Q 1773 1754 1965 2144 
Q 2157 2534 2157 2950 
Q 2157 3379 1920 3616 
Q 1683 3853 1267 3853 
Q 922 3853 720 3673 
Q 518 3494 326 3021 
L 192 3053 
Q 301 3648 630 3987 
Q 960 4326 1523 4326 
Q 2054 4326 2380 4006 
Q 2707 3686 2707 3200 
Q 2707 2477 1888 1613 
L 832 486 
L 2330 486 
Q 2541 486 2665 569 
Q 2790 653 2944 915 
L 3034 877 
z
" transform="scale(0.015625)"/>
        <path id="STIXGeneral-Italic-3c0" d="M 3430 2739 
L 3296 2266 
L 2643 2266 
Q 2624 2195 2502 1782 
Q 2381 1370 2297 1072 
Q 2214 774 2214 717 
Q 2214 448 2413 448 
Q 2694 448 2867 838 
L 2970 838 
Q 2886 486 2652 208 
Q 2419 -70 2093 -70 
Q 1901 -70 1808 67 
Q 1715 205 1715 410 
Q 1715 627 1824 922 
L 2310 2266 
L 1645 2266 
Q 1568 2061 1401 1469 
Q 1235 877 1068 512 
Q 902 147 672 -38 
Q 563 -115 442 -115 
Q 314 -115 218 -32 
Q 122 51 122 166 
Q 122 429 314 480 
Q 634 563 774 928 
L 1299 2266 
L 1261 2266 
Q 973 2266 819 2208 
Q 666 2150 474 1914 
L 371 1914 
Q 640 2362 931 2550 
Q 1222 2739 1696 2739 
L 3430 2739 
z
" transform="scale(0.015625)"/>
       </defs>
       <use xlink:href="#STIXGeneral-Regular-2212" transform="translate(0 0.40625)"/>
       <use xlink:href="#STIXGeneral-Regular-32" transform="translate(68.499985 0.40625)"/>
       <use xlink:href="#STIXGeneral-Italic-3c0" transform="translate(118.499969 0.40625)"/>
      </g>
     </g>
    </g>
    <g id="ytick_9">
     <g id="line2d_33">
      <g>
       <use xlink:href="#m7b407dd6dc" x="200.614616" y="66.974331" style="stroke: #000000; stroke-width: 0.8"/>
      </g>
     </g>
     <g id="text_32">
      <!-- $-\pi$ -->
      <g transform="translate(190.044616 68.048003) scale(0.03 -0.03)">
       <use xlink:href="#STIXGeneral-Regular-2212" transform="translate(0 0.203125)"/>
       <use xlink:href="#STIXGeneral-Italic-3c0" transform="translate(68.499985 0.203125)"/>
      </g>
     </g>
    </g>
    <g id="ytick_10">
     <g id="line2d_34">
      <g>
       <use xlink:href="#m7b407dd6dc" x="200.614616" y="50.604252" style="stroke: #000000; stroke-width: 0.8"/>
      </g>
     </g>
     <g id="text_33">
      <!-- $0$ -->
      <g transform="translate(192.114616 51.677924) scale(0.03 -0.03)">
       <defs>
        <path id="STIXGeneral-Regular-30" d="M 3046 2112 
Q 3046 1683 2963 1302 
Q 2880 922 2717 602 
Q 2554 282 2266 96 
Q 1978 -90 1600 -90 
Q 1210 -90 915 108 
Q 621 307 461 640 
Q 301 973 227 1350 
Q 154 1728 154 2150 
Q 154 2746 301 3222 
Q 448 3699 790 4012 
Q 1133 4326 1626 4326 
Q 2253 4326 2649 3712 
Q 3046 3098 3046 2112 
z
M 2432 2080 
Q 2432 3091 2217 3625 
Q 2003 4160 1587 4160 
Q 1190 4160 979 3622 
Q 768 3085 768 2106 
Q 768 1120 979 598 
Q 1190 77 1600 77 
Q 2003 77 2217 598 
Q 2432 1120 2432 2080 
z
" transform="scale(0.015625)"/>
       </defs>
       <use xlink:href="#STIXGeneral-Regular-30" transform="translate(0 0.40625)"/>
      </g>
     </g>
    </g>
    <g id="ytick_11">
     <g id="line2d_35">
      <g>
       <use xlink:href="#m7b407dd6dc" x="200.614616" y="34.234173" style="stroke: #000000; stroke-width: 0.8"/>
      </g>
     </g>
     <g id="text_34">
      <!-- $\pi$ -->
      <g transform="translate(192.084616 35.307845) scale(0.03 -0.03)">
       <use xlink:href="#STIXGeneral-Italic-3c0" transform="translate(0 0.203125)"/>
      </g>
     </g>
    </g>
    <g id="ytick_12">
     <g id="line2d_36">
      <g>
       <use xlink:href="#m7b407dd6dc" x="200.614616" y="17.864094" style="stroke: #000000; stroke-width: 0.8"/>
      </g>
     </g>
     <g id="text_35">
      <!-- $2\pi$ -->
      <g transform="translate(190.584616 18.937766) scale(0.03 -0.03)">
       <use xlink:href="#STIXGeneral-Regular-32" transform="translate(0 0.40625)"/>
       <use xlink:href="#STIXGeneral-Italic-3c0" transform="translate(49.999985 0.40625)"/>
      </g>
     </g>
    </g>
    <g id="text_36">
     <!-- Phase -->
     <g transform="translate(186.352116 59.110189) rotate(-90) scale(0.06 -0.06)">
      <defs>
       <path id="ArialMT-50" d="M 494 0 
L 494 4581 
L 2222 4581 
Q 2678 4581 2919 4538 
Q 3256 4481 3484 4323 
Q 3713 4166 3852 3881 
Q 3991 3597 3991 3256 
Q 3991 2672 3619 2267 
Q 3247 1863 2275 1863 
L 1100 1863 
L 1100 0 
L 494 0 
z
M 1100 2403 
L 2284 2403 
Q 2872 2403 3119 2622 
Q 3366 2841 3366 3238 
Q 3366 3525 3220 3729 
Q 3075 3934 2838 4000 
Q 2684 4041 2272 4041 
L 1100 4041 
L 1100 2403 
z
" transform="scale(0.015625)"/>
       <path id="ArialMT-68" d="M 422 0 
L 422 4581 
L 984 4581 
L 984 2938 
Q 1378 3394 1978 3394 
Q 2347 3394 2619 3248 
Q 2891 3103 3008 2847 
Q 3125 2591 3125 2103 
L 3125 0 
L 2563 0 
L 2563 2103 
Q 2563 2525 2380 2717 
Q 2197 2909 1863 2909 
Q 1613 2909 1392 2779 
Q 1172 2650 1078 2428 
Q 984 2206 984 1816 
L 984 0 
L 422 0 
z
" transform="scale(0.015625)"/>
      </defs>
      <use xlink:href="#ArialMT-50"/>
      <use xlink:href="#ArialMT-68" x="66.699219"/>
      <use xlink:href="#ArialMT-61" x="122.314453"/>
      <use xlink:href="#ArialMT-73" x="177.929688"/>
      <use xlink:href="#ArialMT-65" x="227.929688"/>
     </g>
    </g>
   </g>
   <g id="line2d_37">
    <path d="M 200.853831 50.604417 
L 205.905016 50.592207 
L 237.649043 50.435253 
L 251.598385 50.128712 
L 265.305256 49.595716 
L 282.139826 48.703416 
L 307.872553 47.091377 
L 346.591251 44.476566 
L 346.591251 44.476566 
" clip-path="url(#p77395bb68e)" style="fill: none; stroke: #000000; stroke-width: 1.2; stroke-linecap: square"/>
   </g>
   <g id="line2d_38">
    <path d="M 200.853831 50.618984 
L 209.737342 51.073347 
L 346.591251 58.041645 
L 346.591251 58.041645 
" clip-path="url(#p77395bb68e)" style="fill: none; stroke-dasharray: 2.59,1.12; stroke-dashoffset: 0; stroke: #1f77b4; stroke-width: 0.7"/>
   </g>
   <g id="line2d_39">
    <path d="M 200.853831 50.596645 
L 202.534847 50.700456 
L 218.140795 51.50381 
L 346.591251 58.120565 
L 346.591251 58.120565 
" clip-path="url(#p77395bb68e)" style="fill: none; stroke-dasharray: 2.59,1.12; stroke-dashoffset: 0; stroke: #ff7f0e; stroke-width: 0.7"/>
   </g>
   <g id="line2d_40">
    <path d="M 200.853831 50.613875 
L 239.989122 52.371514 
L 247.432459 52.450854 
L 251.033707 52.33277 
L 251.033707 52.33277 
" clip-path="url(#p77395bb68e)" style="fill: none; stroke-dasharray: 2.59,1.12; stroke-dashoffset: 0; stroke: #2ca02c; stroke-width: 0.7"/>
   </g>
   <g id="line2d_41">
    <path d="M 200.853831 50.597284 
L 202.774063 50.709948 
L 221.502827 51.64091 
L 241.19008 52.467572 
L 255.355854 52.839444 
L 273.602934 53.075102 
L 323.302751 53.40151 
L 346.591251 53.55048 
L 346.591251 53.55048 
" clip-path="url(#p77395bb68e)" style="fill: none; stroke-dasharray: 2.59,1.12; stroke-dashoffset: 0; stroke: #d62728; stroke-width: 0.7"/>
   </g>
   <g id="patch_8">
    <path d="M 200.614616 83.344409 
L 200.614616 17.864094 
" style="fill: none; stroke: #000000; stroke-width: 0.5; stroke-linejoin: miter; stroke-linecap: square"/>
   </g>
   <g id="patch_9">
    <path d="M 347.071309 83.344409 
L 347.071309 17.864094 
" style="fill: none; stroke: #000000; stroke-width: 0.5; stroke-linejoin: miter; stroke-linecap: square"/>
   </g>
   <g id="patch_10">
    <path d="M 200.614616 83.344409 
L 347.071309 83.344409 
" style="fill: none; stroke: #000000; stroke-width: 0.5; stroke-linejoin: miter; stroke-linecap: square"/>
   </g>
   <g id="patch_11">
    <path d="M 200.614616 17.864094 
L 347.071309 17.864094 
" style="fill: none; stroke: #000000; stroke-width: 0.5; stroke-linejoin: miter; stroke-linecap: square"/>
   </g>
  </g>
 </g>
 <defs>
  <clipPath id="p19850e4e22">
   <rect x="17.54375" y="17.864094" width="146.456693" height="65.480315"/>
  </clipPath>
  <clipPath id="p77395bb68e">
   <rect x="200.614616" y="17.864094" width="146.456693" height="65.480315"/>
  </clipPath>
 </defs>
</svg>
