<?xml version="1.0" encoding="utf-8" standalone="no"?>
<!DOCTYPE svg PUBLIC "-//W3C//DTD SVG 1.1//EN"
  "http://www.w3.org/Graphics/SVG/1.1/DTD/svg11.dtd">
<svg xmlns:xlink="http://www.w3.org/1999/xlink" width="350.293731pt" height="100.438628pt" viewBox="0 0 350.293731 100.438628" xmlns="http://www.w3.org/2000/svg" version="1.1">
 <metadata>
  <rdf:RDF xmlns:dc="http://purl.org/dc/elements/1.1/" xmlns:cc="http://creativecommons.org/ns#" xmlns:rdf="http://www.w3.org/1999/02/22-rdf-syntax-ns#">
   <cc:Work>
    <dc:type rdf:resource="http://purl.org/dc/dcmitype/StillImage"/>
    <dc:date>2025-03-06T18:11:57.636837</dc:date>
    <dc:format>image/svg+xml</dc:format>
    <dc:creator>
     <cc:Agent>
      <dc:title>Matplotlib v3.8.0, https://matplotlib.org/</dc:title>
     </cc:Agent>
    </dc:creator>
   </cc:Work>
  </rdf:RDF>
 </metadata>
 <defs>
  <style type="text/css">*{stroke-linejoin: round; stroke-linecap: butt}</style>
 </defs>
 <g id="figure_1">
  <g id="patch_1">
   <path d="M 0 100.438628 
L 350.293731 100.438628 
L 350.293731 0 
L 0 0 
L 0 100.438628 
z
" style="fill: none"/>
  </g>
  <g id="axes_1">
   <g id="patch_2">
    <path d="M 17.54375 83.344409 
L 164.000443 83.344409 
L 164.000443 17.864094 
L 17.54375 17.864094 
L 17.54375 83.344409 
z
" style="fill: none"/>
   </g>
   <g id="PathCollection_1">
    <defs>
     <path id="C0_0_dc97d6c685" d="M -1.118034 1.118034 
L 1.118034 1.118034 
L 1.118034 -1.118034 
L -1.118034 -1.118034 
z
"/>
    </defs>
    <g clip-path="url(#p72314c7d9a)">
     <use xlink:href="#C0_0_dc97d6c685" x="17.782965" y="24.492201" style="fill: none; stroke: #808080"/>
    </g>
    <g clip-path="url(#p72314c7d9a)">
     <use xlink:href="#C0_0_dc97d6c685" x="20.188136" y="33.579541" style="fill: none; stroke: #808080"/>
    </g>
    <g clip-path="url(#p72314c7d9a)">
     <use xlink:href="#C0_0_dc97d6c685" x="22.593307" y="40.771786" style="fill: none; stroke: #808080"/>
    </g>
    <g clip-path="url(#p72314c7d9a)">
     <use xlink:href="#C0_0_dc97d6c685" x="24.998478" y="46.064142" style="fill: none; stroke: #808080"/>
    </g>
    <g clip-path="url(#p72314c7d9a)">
     <use xlink:href="#C0_0_dc97d6c685" x="27.40365" y="50.533452" style="fill: none; stroke: #808080"/>
    </g>
    <g clip-path="url(#p72314c7d9a)">
     <use xlink:href="#C0_0_dc97d6c685" x="29.807193" y="54.703079" style="fill: none; stroke: #808080"/>
    </g>
    <g clip-path="url(#p72314c7d9a)">
     <use xlink:href="#C0_0_dc97d6c685" x="32.212364" y="57.937243" style="fill: none; stroke: #808080"/>
    </g>
    <g clip-path="url(#p72314c7d9a)">
     <use xlink:href="#C0_0_dc97d6c685" x="34.617536" y="60.450037" style="fill: none; stroke: #808080"/>
    </g>
    <g clip-path="url(#p72314c7d9a)">
     <use xlink:href="#C0_0_dc97d6c685" x="37.022707" y="62.670189" style="fill: none; stroke: #808080"/>
    </g>
    <g clip-path="url(#p72314c7d9a)">
     <use xlink:href="#C0_0_dc97d6c685" x="39.427878" y="65.086554" style="fill: none; stroke: #808080"/>
    </g>
    <g clip-path="url(#p72314c7d9a)">
     <use xlink:href="#C0_0_dc97d6c685" x="41.833049" y="66.435877" style="fill: none; stroke: #808080"/>
    </g>
    <g clip-path="url(#p72314c7d9a)">
     <use xlink:href="#C0_0_dc97d6c685" x="44.236593" y="67.974877" style="fill: none; stroke: #808080"/>
    </g>
    <g clip-path="url(#p72314c7d9a)">
     <use xlink:href="#C0_0_dc97d6c685" x="46.641764" y="69.268668" style="fill: none; stroke: #808080"/>
    </g>
    <g clip-path="url(#p72314c7d9a)">
     <use xlink:href="#C0_0_dc97d6c685" x="49.046935" y="70.267598" style="fill: none; stroke: #808080"/>
    </g>
    <g clip-path="url(#p72314c7d9a)">
     <use xlink:href="#C0_0_dc97d6c685" x="51.452106" y="71.437605" style="fill: none; stroke: #808080"/>
    </g>
    <g clip-path="url(#p72314c7d9a)">
     <use xlink:href="#C0_0_dc97d6c685" x="53.857277" y="72.117013" style="fill: none; stroke: #808080"/>
    </g>
    <g clip-path="url(#p72314c7d9a)">
     <use xlink:href="#C0_0_dc97d6c685" x="56.262448" y="73.238336" style="fill: none; stroke: #808080"/>
    </g>
    <g clip-path="url(#p72314c7d9a)">
     <use xlink:href="#C0_0_dc97d6c685" x="58.665992" y="74.021719" style="fill: none; stroke: #808080"/>
    </g>
    <g clip-path="url(#p72314c7d9a)">
     <use xlink:href="#C0_0_dc97d6c685" x="61.071163" y="74.236325" style="fill: none; stroke: #808080"/>
    </g>
    <g clip-path="url(#p72314c7d9a)">
     <use xlink:href="#C0_0_dc97d6c685" x="63.476334" y="75.234533" style="fill: none; stroke: #808080"/>
    </g>
    <g clip-path="url(#p72314c7d9a)">
     <use xlink:href="#C0_0_dc97d6c685" x="65.881505" y="75.853313" style="fill: none; stroke: #808080"/>
    </g>
    <g clip-path="url(#p72314c7d9a)">
     <use xlink:href="#C0_0_dc97d6c685" x="68.286676" y="76.359481" style="fill: none; stroke: #808080"/>
    </g>
    <g clip-path="url(#p72314c7d9a)">
     <use xlink:href="#C0_0_dc97d6c685" x="70.691847" y="76.892812" style="fill: none; stroke: #808080"/>
    </g>
    <g clip-path="url(#p72314c7d9a)">
     <use xlink:href="#C0_0_dc97d6c685" x="73.095391" y="77.078624" style="fill: none; stroke: #808080"/>
    </g>
    <g clip-path="url(#p72314c7d9a)">
     <use xlink:href="#C0_0_dc97d6c685" x="75.500562" y="77.62784" style="fill: none; stroke: #808080"/>
    </g>
    <g clip-path="url(#p72314c7d9a)">
     <use xlink:href="#C0_0_dc97d6c685" x="77.905733" y="77.811589" style="fill: none; stroke: #808080"/>
    </g>
    <g clip-path="url(#p72314c7d9a)">
     <use xlink:href="#C0_0_dc97d6c685" x="80.310904" y="78.44878" style="fill: none; stroke: #808080"/>
    </g>
    <g clip-path="url(#p72314c7d9a)">
     <use xlink:href="#C0_0_dc97d6c685" x="82.716075" y="78.503929" style="fill: none; stroke: #808080"/>
    </g>
    <g clip-path="url(#p72314c7d9a)">
     <use xlink:href="#C0_0_dc97d6c685" x="85.121246" y="78.738726" style="fill: none; stroke: #808080"/>
    </g>
    <g clip-path="url(#p72314c7d9a)">
     <use xlink:href="#C0_0_dc97d6c685" x="87.52479" y="79.422239" style="fill: none; stroke: #808080"/>
    </g>
    <g clip-path="url(#p72314c7d9a)">
     <use xlink:href="#C0_0_dc97d6c685" x="89.929961" y="79.410509" style="fill: none; stroke: #808080"/>
    </g>
    <g clip-path="url(#p72314c7d9a)">
     <use xlink:href="#C0_0_dc97d6c685" x="92.335132" y="79.660351" style="fill: none; stroke: #808080"/>
    </g>
    <g clip-path="url(#p72314c7d9a)">
     <use xlink:href="#C0_0_dc97d6c685" x="94.740303" y="80.144754" style="fill: none; stroke: #808080"/>
    </g>
    <g clip-path="url(#p72314c7d9a)">
     <use xlink:href="#C0_0_dc97d6c685" x="97.145474" y="80.364297" style="fill: none; stroke: #808080"/>
    </g>
    <g clip-path="url(#p72314c7d9a)">
     <use xlink:href="#C0_0_dc97d6c685" x="99.550645" y="80.321633" style="fill: none; stroke: #808080"/>
    </g>
    <g clip-path="url(#p72314c7d9a)">
     <use xlink:href="#C0_0_dc97d6c685" x="101.954189" y="80.569543" style="fill: none; stroke: #808080"/>
    </g>
    <g clip-path="url(#p72314c7d9a)">
     <use xlink:href="#C0_0_dc97d6c685" x="104.35936" y="81.165285" style="fill: none; stroke: #808080"/>
    </g>
    <g clip-path="url(#p72314c7d9a)">
     <use xlink:href="#C0_0_dc97d6c685" x="106.764531" y="80.88662" style="fill: none; stroke: #808080"/>
    </g>
    <g clip-path="url(#p72314c7d9a)">
     <use xlink:href="#C0_0_dc97d6c685" x="109.169702" y="81.061793" style="fill: none; stroke: #808080"/>
    </g>
    <g clip-path="url(#p72314c7d9a)">
     <use xlink:href="#C0_0_dc97d6c685" x="111.574874" y="81.384996" style="fill: none; stroke: #808080"/>
    </g>
    <g clip-path="url(#p72314c7d9a)">
     <use xlink:href="#C0_0_dc97d6c685" x="113.980045" y="81.5936" style="fill: none; stroke: #808080"/>
    </g>
    <g clip-path="url(#p72314c7d9a)">
     <use xlink:href="#C0_0_dc97d6c685" x="116.383588" y="81.50636" style="fill: none; stroke: #808080"/>
    </g>
    <g clip-path="url(#p72314c7d9a)">
     <use xlink:href="#C0_0_dc97d6c685" x="118.788759" y="81.700572" style="fill: none; stroke: #808080"/>
    </g>
    <g clip-path="url(#p72314c7d9a)">
     <use xlink:href="#C0_0_dc97d6c685" x="121.193931" y="81.834359" style="fill: none; stroke: #808080"/>
    </g>
    <g clip-path="url(#p72314c7d9a)">
     <use xlink:href="#C0_0_dc97d6c685" x="123.599102" y="81.732124" style="fill: none; stroke: #808080"/>
    </g>
    <g clip-path="url(#p72314c7d9a)">
     <use xlink:href="#C0_0_dc97d6c685" x="126.004273" y="81.897685" style="fill: none; stroke: #808080"/>
    </g>
    <g clip-path="url(#p72314c7d9a)">
     <use xlink:href="#C0_0_dc97d6c685" x="128.409444" y="82.096576" style="fill: none; stroke: #808080"/>
    </g>
    <g clip-path="url(#p72314c7d9a)">
     <use xlink:href="#C0_0_dc97d6c685" x="130.812988" y="82.142696" style="fill: none; stroke: #808080"/>
    </g>
    <g clip-path="url(#p72314c7d9a)">
     <use xlink:href="#C0_0_dc97d6c685" x="133.218159" y="82.147172" style="fill: none; stroke: #808080"/>
    </g>
    <g clip-path="url(#p72314c7d9a)">
     <use xlink:href="#C0_0_dc97d6c685" x="135.62333" y="82.081513" style="fill: none; stroke: #808080"/>
    </g>
    <g clip-path="url(#p72314c7d9a)">
     <use xlink:href="#C0_0_dc97d6c685" x="138.028501" y="82.195732" style="fill: none; stroke: #808080"/>
    </g>
    <g clip-path="url(#p72314c7d9a)">
     <use xlink:href="#C0_0_dc97d6c685" x="140.433672" y="82.374636" style="fill: none; stroke: #808080"/>
    </g>
    <g clip-path="url(#p72314c7d9a)">
     <use xlink:href="#C0_0_dc97d6c685" x="142.838843" y="82.479672" style="fill: none; stroke: #808080"/>
    </g>
    <g clip-path="url(#p72314c7d9a)">
     <use xlink:href="#C0_0_dc97d6c685" x="145.242387" y="82.401377" style="fill: none; stroke: #808080"/>
    </g>
    <g clip-path="url(#p72314c7d9a)">
     <use xlink:href="#C0_0_dc97d6c685" x="147.647558" y="82.393655" style="fill: none; stroke: #808080"/>
    </g>
    <g clip-path="url(#p72314c7d9a)">
     <use xlink:href="#C0_0_dc97d6c685" x="150.052729" y="82.468826" style="fill: none; stroke: #808080"/>
    </g>
    <g clip-path="url(#p72314c7d9a)">
     <use xlink:href="#C0_0_dc97d6c685" x="152.4579" y="82.529908" style="fill: none; stroke: #808080"/>
    </g>
    <g clip-path="url(#p72314c7d9a)">
     <use xlink:href="#C0_0_dc97d6c685" x="154.863071" y="82.579879" style="fill: none; stroke: #808080"/>
    </g>
    <g clip-path="url(#p72314c7d9a)">
     <use xlink:href="#C0_0_dc97d6c685" x="157.268242" y="82.669271" style="fill: none; stroke: #808080"/>
    </g>
    <g clip-path="url(#p72314c7d9a)">
     <use xlink:href="#C0_0_dc97d6c685" x="159.671786" y="82.588544" style="fill: none; stroke: #808080"/>
    </g>
    <g clip-path="url(#p72314c7d9a)">
     <use xlink:href="#C0_0_dc97d6c685" x="162.076957" y="82.472628" style="fill: none; stroke: #808080"/>
    </g>
   </g>
   <g id="matplotlib.axis_1">
    <g id="xtick_1">
     <g id="line2d_1">
      <defs>
       <path id="md84e6ce87b" d="M 0 0 
L 0 3.5 
" style="stroke: #000000; stroke-width: 0.8"/>
      </defs>
      <g>
       <use xlink:href="#md84e6ce87b" x="17.54375" y="83.344409" style="stroke: #000000; stroke-width: 0.8"/>
      </g>
     </g>
     <g id="text_1">
      <!-- 0 -->
      <g transform="translate(16.709609 92.491753) scale(0.03 -0.03)">
       <defs>
        <path id="ArialMT-30" d="M 266 2259 
Q 266 3072 433 3567 
Q 600 4063 929 4331 
Q 1259 4600 1759 4600 
Q 2128 4600 2406 4451 
Q 2684 4303 2865 4023 
Q 3047 3744 3150 3342 
Q 3253 2941 3253 2259 
Q 3253 1453 3087 958 
Q 2922 463 2592 192 
Q 2263 -78 1759 -78 
Q 1097 -78 719 397 
Q 266 969 266 2259 
z
M 844 2259 
Q 844 1131 1108 757 
Q 1372 384 1759 384 
Q 2147 384 2411 759 
Q 2675 1134 2675 2259 
Q 2675 3391 2411 3762 
Q 2147 4134 1753 4134 
Q 1366 4134 1134 3806 
Q 844 3388 844 2259 
z
" transform="scale(0.015625)"/>
       </defs>
       <use xlink:href="#ArialMT-30"/>
      </g>
     </g>
    </g>
    <g id="xtick_2">
     <g id="line2d_2">
      <g>
       <use xlink:href="#md84e6ce87b" x="41.953199" y="83.344409" style="stroke: #000000; stroke-width: 0.8"/>
      </g>
     </g>
     <g id="text_2">
      <!-- 50 -->
      <g transform="translate(40.284918 92.491753) scale(0.03 -0.03)">
       <defs>
        <path id="ArialMT-35" d="M 266 1200 
L 856 1250 
Q 922 819 1161 601 
Q 1400 384 1738 384 
Q 2144 384 2425 690 
Q 2706 997 2706 1503 
Q 2706 1984 2436 2262 
Q 2166 2541 1728 2541 
Q 1456 2541 1237 2417 
Q 1019 2294 894 2097 
L 366 2166 
L 809 4519 
L 3088 4519 
L 3088 3981 
L 1259 3981 
L 1013 2750 
Q 1425 3038 1878 3038 
Q 2478 3038 2890 2622 
Q 3303 2206 3303 1553 
Q 3303 931 2941 478 
Q 2500 -78 1738 -78 
Q 1113 -78 717 272 
Q 322 622 266 1200 
z
" transform="scale(0.015625)"/>
       </defs>
       <use xlink:href="#ArialMT-35"/>
       <use xlink:href="#ArialMT-30" x="55.615234"/>
      </g>
     </g>
    </g>
    <g id="xtick_3">
     <g id="line2d_3">
      <g>
       <use xlink:href="#md84e6ce87b" x="66.362648" y="83.344409" style="stroke: #000000; stroke-width: 0.8"/>
      </g>
     </g>
     <g id="text_3">
      <!-- 100 -->
      <g transform="translate(63.860226 92.491753) scale(0.03 -0.03)">
       <defs>
        <path id="ArialMT-31" d="M 2384 0 
L 1822 0 
L 1822 3584 
Q 1619 3391 1289 3197 
Q 959 3003 697 2906 
L 697 3450 
Q 1169 3672 1522 3987 
Q 1875 4303 2022 4600 
L 2384 4600 
L 2384 0 
z
" transform="scale(0.015625)"/>
       </defs>
       <use xlink:href="#ArialMT-31"/>
       <use xlink:href="#ArialMT-30" x="55.615234"/>
       <use xlink:href="#ArialMT-30" x="111.230469"/>
      </g>
     </g>
    </g>
    <g id="xtick_4">
     <g id="line2d_4">
      <g>
       <use xlink:href="#md84e6ce87b" x="90.772096" y="83.344409" style="stroke: #000000; stroke-width: 0.8"/>
      </g>
     </g>
     <g id="text_4">
      <!-- 150 -->
      <g transform="translate(88.269675 92.491753) scale(0.03 -0.03)">
       <use xlink:href="#ArialMT-31"/>
       <use xlink:href="#ArialMT-35" x="55.615234"/>
       <use xlink:href="#ArialMT-30" x="111.230469"/>
      </g>
     </g>
    </g>
    <g id="xtick_5">
     <g id="line2d_5">
      <g>
       <use xlink:href="#md84e6ce87b" x="115.181545" y="83.344409" style="stroke: #000000; stroke-width: 0.8"/>
      </g>
     </g>
     <g id="text_5">
      <!-- 200 -->
      <g transform="translate(112.679123 92.491753) scale(0.03 -0.03)">
       <defs>
        <path id="ArialMT-32" d="M 3222 541 
L 3222 0 
L 194 0 
Q 188 203 259 391 
Q 375 700 629 1000 
Q 884 1300 1366 1694 
Q 2113 2306 2375 2664 
Q 2638 3022 2638 3341 
Q 2638 3675 2398 3904 
Q 2159 4134 1775 4134 
Q 1369 4134 1125 3890 
Q 881 3647 878 3216 
L 300 3275 
Q 359 3922 746 4261 
Q 1134 4600 1788 4600 
Q 2447 4600 2831 4234 
Q 3216 3869 3216 3328 
Q 3216 3053 3103 2787 
Q 2991 2522 2730 2228 
Q 2469 1934 1863 1422 
Q 1356 997 1212 845 
Q 1069 694 975 541 
L 3222 541 
z
" transform="scale(0.015625)"/>
       </defs>
       <use xlink:href="#ArialMT-32"/>
       <use xlink:href="#ArialMT-30" x="55.615234"/>
       <use xlink:href="#ArialMT-30" x="111.230469"/>
      </g>
     </g>
    </g>
    <g id="xtick_6">
     <g id="line2d_6">
      <g>
       <use xlink:href="#md84e6ce87b" x="139.590994" y="83.344409" style="stroke: #000000; stroke-width: 0.8"/>
      </g>
     </g>
     <g id="text_6">
      <!-- 250 -->
      <g transform="translate(137.088572 92.491753) scale(0.03 -0.03)">
       <use xlink:href="#ArialMT-32"/>
       <use xlink:href="#ArialMT-35" x="55.615234"/>
       <use xlink:href="#ArialMT-30" x="111.230469"/>
      </g>
     </g>
    </g>
    <g id="xtick_7">
     <g id="line2d_7">
      <g>
       <use xlink:href="#md84e6ce87b" x="164.000443" y="83.344409" style="stroke: #000000; stroke-width: 0.8"/>
      </g>
     </g>
     <g id="text_7">
      <!-- 300 -->
      <g transform="translate(161.498021 92.491753) scale(0.03 -0.03)">
       <defs>
        <path id="ArialMT-33" d="M 269 1209 
L 831 1284 
Q 928 806 1161 595 
Q 1394 384 1728 384 
Q 2125 384 2398 659 
Q 2672 934 2672 1341 
Q 2672 1728 2419 1979 
Q 2166 2231 1775 2231 
Q 1616 2231 1378 2169 
L 1441 2663 
Q 1497 2656 1531 2656 
Q 1891 2656 2178 2843 
Q 2466 3031 2466 3422 
Q 2466 3731 2256 3934 
Q 2047 4138 1716 4138 
Q 1388 4138 1169 3931 
Q 950 3725 888 3313 
L 325 3413 
Q 428 3978 793 4289 
Q 1159 4600 1703 4600 
Q 2078 4600 2393 4439 
Q 2709 4278 2876 4000 
Q 3044 3722 3044 3409 
Q 3044 3113 2884 2869 
Q 2725 2625 2413 2481 
Q 2819 2388 3044 2092 
Q 3269 1797 3269 1353 
Q 3269 753 2831 336 
Q 2394 -81 1725 -81 
Q 1122 -81 723 278 
Q 325 638 269 1209 
z
" transform="scale(0.015625)"/>
       </defs>
       <use xlink:href="#ArialMT-33"/>
       <use xlink:href="#ArialMT-30" x="55.615234"/>
       <use xlink:href="#ArialMT-30" x="111.230469"/>
      </g>
     </g>
    </g>
    <g id="text_8">
     <!-- Time (s) -->
     <g transform="translate(79.887253 98.455816) scale(0.06 -0.06)">
      <defs>
       <path id="ArialMT-54" d="M 1659 0 
L 1659 4041 
L 150 4041 
L 150 4581 
L 3781 4581 
L 3781 4041 
L 2266 4041 
L 2266 0 
L 1659 0 
z
" transform="scale(0.015625)"/>
       <path id="ArialMT-69" d="M 425 3934 
L 425 4581 
L 988 4581 
L 988 3934 
L 425 3934 
z
M 425 0 
L 425 3319 
L 988 3319 
L 988 0 
L 425 0 
z
" transform="scale(0.015625)"/>
       <path id="ArialMT-6d" d="M 422 0 
L 422 3319 
L 925 3319 
L 925 2853 
Q 1081 3097 1340 3245 
Q 1600 3394 1931 3394 
Q 2300 3394 2536 3241 
Q 2772 3088 2869 2813 
Q 3263 3394 3894 3394 
Q 4388 3394 4653 3120 
Q 4919 2847 4919 2278 
L 4919 0 
L 4359 0 
L 4359 2091 
Q 4359 2428 4304 2576 
Q 4250 2725 4106 2815 
Q 3963 2906 3769 2906 
Q 3419 2906 3187 2673 
Q 2956 2441 2956 1928 
L 2956 0 
L 2394 0 
L 2394 2156 
Q 2394 2531 2256 2718 
Q 2119 2906 1806 2906 
Q 1569 2906 1367 2781 
Q 1166 2656 1075 2415 
Q 984 2175 984 1722 
L 984 0 
L 422 0 
z
" transform="scale(0.015625)"/>
       <path id="ArialMT-65" d="M 2694 1069 
L 3275 997 
Q 3138 488 2766 206 
Q 2394 -75 1816 -75 
Q 1088 -75 661 373 
Q 234 822 234 1631 
Q 234 2469 665 2931 
Q 1097 3394 1784 3394 
Q 2450 3394 2872 2941 
Q 3294 2488 3294 1666 
Q 3294 1616 3291 1516 
L 816 1516 
Q 847 969 1125 678 
Q 1403 388 1819 388 
Q 2128 388 2347 550 
Q 2566 713 2694 1069 
z
M 847 1978 
L 2700 1978 
Q 2663 2397 2488 2606 
Q 2219 2931 1791 2931 
Q 1403 2931 1139 2672 
Q 875 2413 847 1978 
z
" transform="scale(0.015625)"/>
       <path id="ArialMT-20" transform="scale(0.015625)"/>
       <path id="ArialMT-28" d="M 1497 -1347 
Q 1031 -759 709 28 
Q 388 816 388 1659 
Q 388 2403 628 3084 
Q 909 3875 1497 4659 
L 1900 4659 
Q 1522 4009 1400 3731 
Q 1209 3300 1100 2831 
Q 966 2247 966 1656 
Q 966 153 1900 -1347 
L 1497 -1347 
z
" transform="scale(0.015625)"/>
       <path id="ArialMT-73" d="M 197 991 
L 753 1078 
Q 800 744 1014 566 
Q 1228 388 1613 388 
Q 2000 388 2187 545 
Q 2375 703 2375 916 
Q 2375 1106 2209 1216 
Q 2094 1291 1634 1406 
Q 1016 1563 777 1677 
Q 538 1791 414 1992 
Q 291 2194 291 2438 
Q 291 2659 392 2848 
Q 494 3038 669 3163 
Q 800 3259 1026 3326 
Q 1253 3394 1513 3394 
Q 1903 3394 2198 3281 
Q 2494 3169 2634 2976 
Q 2775 2784 2828 2463 
L 2278 2388 
Q 2241 2644 2061 2787 
Q 1881 2931 1553 2931 
Q 1166 2931 1000 2803 
Q 834 2675 834 2503 
Q 834 2394 903 2306 
Q 972 2216 1119 2156 
Q 1203 2125 1616 2013 
Q 2213 1853 2448 1751 
Q 2684 1650 2818 1456 
Q 2953 1263 2953 975 
Q 2953 694 2789 445 
Q 2625 197 2315 61 
Q 2006 -75 1616 -75 
Q 969 -75 630 194 
Q 291 463 197 991 
z
" transform="scale(0.015625)"/>
       <path id="ArialMT-29" d="M 791 -1347 
L 388 -1347 
Q 1322 153 1322 1656 
Q 1322 2244 1188 2822 
Q 1081 3291 891 3722 
Q 769 4003 388 4659 
L 791 4659 
Q 1378 3875 1659 3084 
Q 1900 2403 1900 1659 
Q 1900 816 1576 28 
Q 1253 -759 791 -1347 
z
" transform="scale(0.015625)"/>
      </defs>
      <use xlink:href="#ArialMT-54"/>
      <use xlink:href="#ArialMT-69" x="57.333984"/>
      <use xlink:href="#ArialMT-6d" x="79.550781"/>
      <use xlink:href="#ArialMT-65" x="162.851562"/>
      <use xlink:href="#ArialMT-20" x="218.466797"/>
      <use xlink:href="#ArialMT-28" x="246.25"/>
      <use xlink:href="#ArialMT-73" x="279.550781"/>
      <use xlink:href="#ArialMT-29" x="329.550781"/>
     </g>
    </g>
   </g>
   <g id="matplotlib.axis_2">
    <g id="ytick_1">
     <g id="line2d_8">
      <defs>
       <path id="m54bc545349" d="M 0 0 
L -3.5 0 
" style="stroke: #000000; stroke-width: 0.8"/>
      </defs>
      <g>
       <use xlink:href="#m54bc545349" x="17.54375" y="83.344409" style="stroke: #000000; stroke-width: 0.8"/>
      </g>
     </g>
     <g id="text_9">
      <!-- 0 -->
      <g transform="translate(8.875469 84.418081) scale(0.03 -0.03)">
       <use xlink:href="#ArialMT-30"/>
      </g>
     </g>
    </g>
    <g id="ytick_2">
     <g id="line2d_9">
      <g>
       <use xlink:href="#m54bc545349" x="17.54375" y="74.613701" style="stroke: #000000; stroke-width: 0.8"/>
      </g>
     </g>
     <g id="text_10">
      <!-- 2 -->
      <g transform="translate(8.875469 75.687373) scale(0.03 -0.03)">
       <use xlink:href="#ArialMT-32"/>
      </g>
     </g>
    </g>
    <g id="ytick_3">
     <g id="line2d_10">
      <g>
       <use xlink:href="#m54bc545349" x="17.54375" y="65.882992" style="stroke: #000000; stroke-width: 0.8"/>
      </g>
     </g>
     <g id="text_11">
      <!-- 4 -->
      <g transform="translate(8.875469 66.956664) scale(0.03 -0.03)">
       <defs>
        <path id="ArialMT-34" d="M 2069 0 
L 2069 1097 
L 81 1097 
L 81 1613 
L 2172 4581 
L 2631 4581 
L 2631 1613 
L 3250 1613 
L 3250 1097 
L 2631 1097 
L 2631 0 
L 2069 0 
z
M 2069 1613 
L 2069 3678 
L 634 1613 
L 2069 1613 
z
" transform="scale(0.015625)"/>
       </defs>
       <use xlink:href="#ArialMT-34"/>
      </g>
     </g>
    </g>
    <g id="ytick_4">
     <g id="line2d_11">
      <g>
       <use xlink:href="#m54bc545349" x="17.54375" y="57.152283" style="stroke: #000000; stroke-width: 0.8"/>
      </g>
     </g>
     <g id="text_12">
      <!-- 6 -->
      <g transform="translate(8.875469 58.225955) scale(0.03 -0.03)">
       <defs>
        <path id="ArialMT-36" d="M 3184 3459 
L 2625 3416 
Q 2550 3747 2413 3897 
Q 2184 4138 1850 4138 
Q 1581 4138 1378 3988 
Q 1113 3794 959 3422 
Q 806 3050 800 2363 
Q 1003 2672 1297 2822 
Q 1591 2972 1913 2972 
Q 2475 2972 2870 2558 
Q 3266 2144 3266 1488 
Q 3266 1056 3080 686 
Q 2894 316 2569 119 
Q 2244 -78 1831 -78 
Q 1128 -78 684 439 
Q 241 956 241 2144 
Q 241 3472 731 4075 
Q 1159 4600 1884 4600 
Q 2425 4600 2770 4297 
Q 3116 3994 3184 3459 
z
M 888 1484 
Q 888 1194 1011 928 
Q 1134 663 1356 523 
Q 1578 384 1822 384 
Q 2178 384 2434 671 
Q 2691 959 2691 1453 
Q 2691 1928 2437 2201 
Q 2184 2475 1800 2475 
Q 1419 2475 1153 2201 
Q 888 1928 888 1484 
z
" transform="scale(0.015625)"/>
       </defs>
       <use xlink:href="#ArialMT-36"/>
      </g>
     </g>
    </g>
    <g id="ytick_5">
     <g id="line2d_12">
      <g>
       <use xlink:href="#m54bc545349" x="17.54375" y="48.421575" style="stroke: #000000; stroke-width: 0.8"/>
      </g>
     </g>
     <g id="text_13">
      <!-- 8 -->
      <g transform="translate(8.875469 49.495247) scale(0.03 -0.03)">
       <defs>
        <path id="ArialMT-38" d="M 1131 2484 
Q 781 2613 612 2850 
Q 444 3088 444 3419 
Q 444 3919 803 4259 
Q 1163 4600 1759 4600 
Q 2359 4600 2725 4251 
Q 3091 3903 3091 3403 
Q 3091 3084 2923 2848 
Q 2756 2613 2416 2484 
Q 2838 2347 3058 2040 
Q 3278 1734 3278 1309 
Q 3278 722 2862 322 
Q 2447 -78 1769 -78 
Q 1091 -78 675 323 
Q 259 725 259 1325 
Q 259 1772 486 2073 
Q 713 2375 1131 2484 
z
M 1019 3438 
Q 1019 3113 1228 2906 
Q 1438 2700 1772 2700 
Q 2097 2700 2305 2904 
Q 2513 3109 2513 3406 
Q 2513 3716 2298 3927 
Q 2084 4138 1766 4138 
Q 1444 4138 1231 3931 
Q 1019 3725 1019 3438 
z
M 838 1322 
Q 838 1081 952 856 
Q 1066 631 1291 507 
Q 1516 384 1775 384 
Q 2178 384 2440 643 
Q 2703 903 2703 1303 
Q 2703 1709 2433 1975 
Q 2163 2241 1756 2241 
Q 1359 2241 1098 1978 
Q 838 1716 838 1322 
z
" transform="scale(0.015625)"/>
       </defs>
       <use xlink:href="#ArialMT-38"/>
      </g>
     </g>
    </g>
    <g id="ytick_6">
     <g id="line2d_13">
      <g>
       <use xlink:href="#m54bc545349" x="17.54375" y="39.690866" style="stroke: #000000; stroke-width: 0.8"/>
      </g>
     </g>
     <g id="text_14">
      <!-- 10 -->
      <g transform="translate(7.207188 40.764538) scale(0.03 -0.03)">
       <use xlink:href="#ArialMT-31"/>
       <use xlink:href="#ArialMT-30" x="55.615234"/>
      </g>
     </g>
    </g>
    <g id="ytick_7">
     <g id="line2d_14">
      <g>
       <use xlink:href="#m54bc545349" x="17.54375" y="30.960157" style="stroke: #000000; stroke-width: 0.8"/>
      </g>
     </g>
     <g id="text_15">
      <!-- 12 -->
      <g transform="translate(7.207188 32.033829) scale(0.03 -0.03)">
       <use xlink:href="#ArialMT-31"/>
       <use xlink:href="#ArialMT-32" x="55.615234"/>
      </g>
     </g>
    </g>
    <g id="ytick_8">
     <g id="line2d_15">
      <g>
       <use xlink:href="#m54bc545349" x="17.54375" y="22.229449" style="stroke: #000000; stroke-width: 0.8"/>
      </g>
     </g>
     <g id="text_16">
      <!-- 14 -->
      <g transform="translate(7.207188 23.303121) scale(0.03 -0.03)">
       <use xlink:href="#ArialMT-31"/>
       <use xlink:href="#ArialMT-34" x="55.615234"/>
      </g>
     </g>
    </g>
    <g id="text_17">
     <!-- Amplitude -->
     <g transform="translate(5.014688 63.943939) rotate(-90) scale(0.06 -0.06)">
      <defs>
       <path id="ArialMT-41" d="M -9 0 
L 1750 4581 
L 2403 4581 
L 4278 0 
L 3588 0 
L 3053 1388 
L 1138 1388 
L 634 0 
L -9 0 
z
M 1313 1881 
L 2866 1881 
L 2388 3150 
Q 2169 3728 2063 4100 
Q 1975 3659 1816 3225 
L 1313 1881 
z
" transform="scale(0.015625)"/>
       <path id="ArialMT-70" d="M 422 -1272 
L 422 3319 
L 934 3319 
L 934 2888 
Q 1116 3141 1344 3267 
Q 1572 3394 1897 3394 
Q 2322 3394 2647 3175 
Q 2972 2956 3137 2557 
Q 3303 2159 3303 1684 
Q 3303 1175 3120 767 
Q 2938 359 2589 142 
Q 2241 -75 1856 -75 
Q 1575 -75 1351 44 
Q 1128 163 984 344 
L 984 -1272 
L 422 -1272 
z
M 931 1641 
Q 931 1000 1190 694 
Q 1450 388 1819 388 
Q 2194 388 2461 705 
Q 2728 1022 2728 1688 
Q 2728 2322 2467 2637 
Q 2206 2953 1844 2953 
Q 1484 2953 1207 2617 
Q 931 2281 931 1641 
z
" transform="scale(0.015625)"/>
       <path id="ArialMT-6c" d="M 409 0 
L 409 4581 
L 972 4581 
L 972 0 
L 409 0 
z
" transform="scale(0.015625)"/>
       <path id="ArialMT-74" d="M 1650 503 
L 1731 6 
Q 1494 -44 1306 -44 
Q 1000 -44 831 53 
Q 663 150 594 308 
Q 525 466 525 972 
L 525 2881 
L 113 2881 
L 113 3319 
L 525 3319 
L 525 4141 
L 1084 4478 
L 1084 3319 
L 1650 3319 
L 1650 2881 
L 1084 2881 
L 1084 941 
Q 1084 700 1114 631 
Q 1144 563 1211 522 
Q 1278 481 1403 481 
Q 1497 481 1650 503 
z
" transform="scale(0.015625)"/>
       <path id="ArialMT-75" d="M 2597 0 
L 2597 488 
Q 2209 -75 1544 -75 
Q 1250 -75 995 37 
Q 741 150 617 320 
Q 494 491 444 738 
Q 409 903 409 1263 
L 409 3319 
L 972 3319 
L 972 1478 
Q 972 1038 1006 884 
Q 1059 663 1231 536 
Q 1403 409 1656 409 
Q 1909 409 2131 539 
Q 2353 669 2445 892 
Q 2538 1116 2538 1541 
L 2538 3319 
L 3100 3319 
L 3100 0 
L 2597 0 
z
" transform="scale(0.015625)"/>
       <path id="ArialMT-64" d="M 2575 0 
L 2575 419 
Q 2259 -75 1647 -75 
Q 1250 -75 917 144 
Q 584 363 401 755 
Q 219 1147 219 1656 
Q 219 2153 384 2558 
Q 550 2963 881 3178 
Q 1213 3394 1622 3394 
Q 1922 3394 2156 3267 
Q 2391 3141 2538 2938 
L 2538 4581 
L 3097 4581 
L 3097 0 
L 2575 0 
z
M 797 1656 
Q 797 1019 1065 703 
Q 1334 388 1700 388 
Q 2069 388 2326 689 
Q 2584 991 2584 1609 
Q 2584 2291 2321 2609 
Q 2059 2928 1675 2928 
Q 1300 2928 1048 2622 
Q 797 2316 797 1656 
z
" transform="scale(0.015625)"/>
      </defs>
      <use xlink:href="#ArialMT-41"/>
      <use xlink:href="#ArialMT-6d" x="66.699219"/>
      <use xlink:href="#ArialMT-70" x="150"/>
      <use xlink:href="#ArialMT-6c" x="205.615234"/>
      <use xlink:href="#ArialMT-69" x="227.832031"/>
      <use xlink:href="#ArialMT-74" x="250.048828"/>
      <use xlink:href="#ArialMT-75" x="277.832031"/>
      <use xlink:href="#ArialMT-64" x="333.447266"/>
      <use xlink:href="#ArialMT-65" x="389.0625"/>
     </g>
    </g>
   </g>
   <g id="line2d_16">
    <path d="M 17.782965 23.665972 
L 20.428979 33.388625 
L 22.111622 38.619841 
L 23.795893 43.085285 
L 25.478536 46.881291 
L 27.162807 50.131925 
L 29.086293 53.303413 
L 31.009779 56.015156 
L 32.934892 58.361912 
L 35.099221 60.651686 
L 37.263549 62.64428 
L 39.907935 64.754611 
L 42.553949 66.58056 
L 45.439178 68.310336 
L 48.566877 69.936034 
L 51.933791 71.451572 
L 55.780763 72.941464 
L 60.10942 74.367703 
L 64.919762 75.702635 
L 70.210162 76.926685 
L 75.982247 78.028504 
L 82.475233 79.03586 
L 89.689119 79.927882 
L 97.866375 80.714825 
L 107.485432 81.410014 
L 118.788759 81.994956 
L 132.497258 82.472029 
L 150.052729 82.845262 
L 163.520385 82.949989 
L 163.520385 82.949989 
" clip-path="url(#p72314c7d9a)" style="fill: none; stroke: #000000; stroke-width: 1.2; stroke-linecap: square"/>
   </g>
   <g id="line2d_17">
    <path d="M 17.782965 22.953276 
L 23.55505 34.098395 
L 25.719379 37.591132 
L 27.883707 40.64661 
L 30.048036 43.305275 
L 32.212364 45.619989 
L 34.617536 47.852025 
L 37.022707 49.786533 
L 39.66872 51.632582 
L 42.553949 53.373285 
L 45.680021 54.999649 
L 49.287777 56.610072 
L 53.375592 58.163509 
L 57.704249 59.56359 
L 62.755433 60.95111 
L 68.527519 62.28728 
L 74.779662 63.506588 
L 82.23439 64.725975 
L 90.652489 65.873157 
L 100.271546 66.962916 
L 111.815716 68.041696 
L 125.04253 69.054599 
L 140.674514 70.030932 
L 159.191728 70.967316 
L 163.520385 71.109072 
L 163.520385 71.109072 
" clip-path="url(#p72314c7d9a)" style="fill: none; stroke-dasharray: 2.59,1.12; stroke-dashoffset: 0; stroke: #1f77b4; stroke-width: 0.7"/>
   </g>
   <g id="line2d_18">
    <path d="M 17.782965 23.682948 
L 20.428979 33.362846 
L 22.111622 38.587693 
L 23.795893 43.052347 
L 25.478536 46.849706 
L 27.162807 50.10239 
L 29.086293 53.276346 
L 31.009779 55.9904 
L 32.934892 58.339283 
L 35.099221 60.631137 
L 37.263549 62.625534 
L 39.907935 64.737796 
L 42.553949 66.56541 
L 45.439178 68.296757 
L 48.566877 69.923936 
L 51.933791 71.440836 
L 55.780763 72.932074 
L 60.10942 74.3596 
L 64.919762 75.695737 
L 70.210162 76.920892 
L 75.982247 78.023705 
L 82.475233 79.031971 
L 89.689119 79.924798 
L 97.866375 80.712451 
L 107.485432 81.408267 
L 118.788759 81.993738 
L 132.497258 82.471242 
L 150.052729 82.844812 
L 163.520385 82.96698 
L 163.520385 82.96698 
" clip-path="url(#p72314c7d9a)" style="fill: none; stroke-dasharray: 2.59,1.12; stroke-dashoffset: 0; stroke: #ff7f0e; stroke-width: 0.7"/>
   </g>
   <g id="line2d_19">
    <path d="M 17.78622 21.627054 
L 18.02869 21.147364 
L 18.27116 20.663037 
L 18.51363 20.14792 
L 18.756099 19.595073 
L 18.998569 18.999323 
L 19.241039 18.35497 
L 19.483509 17.655622 
L 19.725979 16.893464 
L 19.968449 16.059287 
L 20.210919 15.141594 
L 20.453389 14.126368 
L 20.695859 12.9957 
L 20.938328 11.726895 
L 21.180798 10.28997 
L 21.423268 8.645028 
L 21.665738 6.736677 
L 21.908208 4.486044 
L 22.150678 1.774777 
L 22.350978 -1 
" clip-path="url(#p72314c7d9a)" style="fill: none; stroke-dasharray: 2.59,1.12; stroke-dashoffset: 0; stroke: #2ca02c; stroke-width: 0.7"/>
   </g>
   <g id="line2d_20">
    <path d="M 17.782965 24.808192 
L 18.744708 30.541231 
L 19.708079 35.128758 
L 20.909037 39.734839 
L 22.111622 43.477228 
L 23.55505 47.169046 
L 24.998478 50.232957 
L 26.681122 53.229469 
L 28.365393 55.767342 
L 30.288878 58.241344 
L 32.212364 60.367948 
L 34.376693 62.438968 
L 36.781864 64.427288 
L 39.427878 66.315694 
L 42.313107 68.093061 
L 45.439178 69.755165 
L 48.806092 71.299768 
L 52.654691 72.814744 
L 56.983348 74.262017 
L 61.552848 75.552697 
L 66.843248 76.802777 
L 72.615333 77.927051 
L 79.108319 78.954321 
L 86.323832 79.86369 
L 94.499461 80.665542 
L 103.879302 81.358711 
L 114.941788 81.948597 
L 128.648659 82.442038 
L 145.724072 82.820167 
L 163.279543 83.041806 
L 163.520385 82.964443 
L 163.520385 82.964443 
" clip-path="url(#p72314c7d9a)" style="fill: none; stroke-dasharray: 2.59,1.12; stroke-dashoffset: 0; stroke: #d62728; stroke-width: 0.7"/>
   </g>
   <g id="patch_3">
    <path d="M 17.54375 83.344409 
L 17.54375 17.864094 
" style="fill: none; stroke: #000000; stroke-width: 0.5; stroke-linejoin: miter; stroke-linecap: square"/>
   </g>
   <g id="patch_4">
    <path d="M 164.000443 83.344409 
L 164.000443 17.864094 
" style="fill: none; stroke: #000000; stroke-width: 0.5; stroke-linejoin: miter; stroke-linecap: square"/>
   </g>
   <g id="patch_5">
    <path d="M 17.54375 83.344409 
L 164.000443 83.344409 
" style="fill: none; stroke: #000000; stroke-width: 0.5; stroke-linejoin: miter; stroke-linecap: square"/>
   </g>
   <g id="patch_6">
    <path d="M 17.54375 17.864094 
L 164.000443 17.864094 
" style="fill: none; stroke: #000000; stroke-width: 0.5; stroke-linejoin: miter; stroke-linecap: square"/>
   </g>
   <g id="legend_1">
    <g id="PathCollection_2">
     <path d="M 70.269875 6.168503 
L 72.505943 6.168503 
L 72.505943 3.932435 
L 70.269875 3.932435 
L 70.269875 6.168503 
z
" style="fill: none; stroke: #808080"/>
    </g>
    <g id="text_18">
     <!-- Observation (undersampling 10%) -->
     <g transform="translate(80.387909 6.362969) scale(0.05 -0.05)">
      <defs>
       <path id="ArialMT-4f" d="M 309 2231 
Q 309 3372 921 4017 
Q 1534 4663 2503 4663 
Q 3138 4663 3647 4359 
Q 4156 4056 4423 3514 
Q 4691 2972 4691 2284 
Q 4691 1588 4409 1038 
Q 4128 488 3612 205 
Q 3097 -78 2500 -78 
Q 1853 -78 1343 234 
Q 834 547 571 1087 
Q 309 1628 309 2231 
z
M 934 2222 
Q 934 1394 1379 917 
Q 1825 441 2497 441 
Q 3181 441 3623 922 
Q 4066 1403 4066 2288 
Q 4066 2847 3877 3264 
Q 3688 3681 3323 3911 
Q 2959 4141 2506 4141 
Q 1863 4141 1398 3698 
Q 934 3256 934 2222 
z
" transform="scale(0.015625)"/>
       <path id="ArialMT-62" d="M 941 0 
L 419 0 
L 419 4581 
L 981 4581 
L 981 2947 
Q 1338 3394 1891 3394 
Q 2197 3394 2470 3270 
Q 2744 3147 2920 2923 
Q 3097 2700 3197 2384 
Q 3297 2069 3297 1709 
Q 3297 856 2875 390 
Q 2453 -75 1863 -75 
Q 1275 -75 941 416 
L 941 0 
z
M 934 1684 
Q 934 1088 1097 822 
Q 1363 388 1816 388 
Q 2184 388 2453 708 
Q 2722 1028 2722 1663 
Q 2722 2313 2464 2622 
Q 2206 2931 1841 2931 
Q 1472 2931 1203 2611 
Q 934 2291 934 1684 
z
" transform="scale(0.015625)"/>
       <path id="ArialMT-72" d="M 416 0 
L 416 3319 
L 922 3319 
L 922 2816 
Q 1116 3169 1280 3281 
Q 1444 3394 1641 3394 
Q 1925 3394 2219 3213 
L 2025 2691 
Q 1819 2813 1613 2813 
Q 1428 2813 1281 2702 
Q 1134 2591 1072 2394 
Q 978 2094 978 1738 
L 978 0 
L 416 0 
z
" transform="scale(0.015625)"/>
       <path id="ArialMT-76" d="M 1344 0 
L 81 3319 
L 675 3319 
L 1388 1331 
Q 1503 1009 1600 663 
Q 1675 925 1809 1294 
L 2547 3319 
L 3125 3319 
L 1869 0 
L 1344 0 
z
" transform="scale(0.015625)"/>
       <path id="ArialMT-61" d="M 2588 409 
Q 2275 144 1986 34 
Q 1697 -75 1366 -75 
Q 819 -75 525 192 
Q 231 459 231 875 
Q 231 1119 342 1320 
Q 453 1522 633 1644 
Q 813 1766 1038 1828 
Q 1203 1872 1538 1913 
Q 2219 1994 2541 2106 
Q 2544 2222 2544 2253 
Q 2544 2597 2384 2738 
Q 2169 2928 1744 2928 
Q 1347 2928 1158 2789 
Q 969 2650 878 2297 
L 328 2372 
Q 403 2725 575 2942 
Q 747 3159 1072 3276 
Q 1397 3394 1825 3394 
Q 2250 3394 2515 3294 
Q 2781 3194 2906 3042 
Q 3031 2891 3081 2659 
Q 3109 2516 3109 2141 
L 3109 1391 
Q 3109 606 3145 398 
Q 3181 191 3288 0 
L 2700 0 
Q 2613 175 2588 409 
z
M 2541 1666 
Q 2234 1541 1622 1453 
Q 1275 1403 1131 1340 
Q 988 1278 909 1158 
Q 831 1038 831 891 
Q 831 666 1001 516 
Q 1172 366 1500 366 
Q 1825 366 2078 508 
Q 2331 650 2450 897 
Q 2541 1088 2541 1459 
L 2541 1666 
z
" transform="scale(0.015625)"/>
       <path id="ArialMT-6f" d="M 213 1659 
Q 213 2581 725 3025 
Q 1153 3394 1769 3394 
Q 2453 3394 2887 2945 
Q 3322 2497 3322 1706 
Q 3322 1066 3130 698 
Q 2938 331 2570 128 
Q 2203 -75 1769 -75 
Q 1072 -75 642 372 
Q 213 819 213 1659 
z
M 791 1659 
Q 791 1022 1069 705 
Q 1347 388 1769 388 
Q 2188 388 2466 706 
Q 2744 1025 2744 1678 
Q 2744 2294 2464 2611 
Q 2184 2928 1769 2928 
Q 1347 2928 1069 2612 
Q 791 2297 791 1659 
z
" transform="scale(0.015625)"/>
       <path id="ArialMT-6e" d="M 422 0 
L 422 3319 
L 928 3319 
L 928 2847 
Q 1294 3394 1984 3394 
Q 2284 3394 2536 3286 
Q 2788 3178 2913 3003 
Q 3038 2828 3088 2588 
Q 3119 2431 3119 2041 
L 3119 0 
L 2556 0 
L 2556 2019 
Q 2556 2363 2490 2533 
Q 2425 2703 2258 2804 
Q 2091 2906 1866 2906 
Q 1506 2906 1245 2678 
Q 984 2450 984 1813 
L 984 0 
L 422 0 
z
" transform="scale(0.015625)"/>
       <path id="ArialMT-67" d="M 319 -275 
L 866 -356 
Q 900 -609 1056 -725 
Q 1266 -881 1628 -881 
Q 2019 -881 2231 -725 
Q 2444 -569 2519 -288 
Q 2563 -116 2559 434 
Q 2191 0 1641 0 
Q 956 0 581 494 
Q 206 988 206 1678 
Q 206 2153 378 2554 
Q 550 2956 876 3175 
Q 1203 3394 1644 3394 
Q 2231 3394 2613 2919 
L 2613 3319 
L 3131 3319 
L 3131 450 
Q 3131 -325 2973 -648 
Q 2816 -972 2473 -1159 
Q 2131 -1347 1631 -1347 
Q 1038 -1347 672 -1080 
Q 306 -813 319 -275 
z
M 784 1719 
Q 784 1066 1043 766 
Q 1303 466 1694 466 
Q 2081 466 2343 764 
Q 2606 1063 2606 1700 
Q 2606 2309 2336 2618 
Q 2066 2928 1684 2928 
Q 1309 2928 1046 2623 
Q 784 2319 784 1719 
z
" transform="scale(0.015625)"/>
       <path id="ArialMT-25" d="M 372 3481 
Q 372 3972 619 4315 
Q 866 4659 1334 4659 
Q 1766 4659 2048 4351 
Q 2331 4044 2331 3447 
Q 2331 2866 2045 2552 
Q 1759 2238 1341 2238 
Q 925 2238 648 2547 
Q 372 2856 372 3481 
z
M 1350 4272 
Q 1141 4272 1002 4090 
Q 863 3909 863 3425 
Q 863 2984 1003 2804 
Q 1144 2625 1350 2625 
Q 1563 2625 1702 2806 
Q 1841 2988 1841 3469 
Q 1841 3913 1700 4092 
Q 1559 4272 1350 4272 
z
M 1353 -169 
L 3859 4659 
L 4316 4659 
L 1819 -169 
L 1353 -169 
z
M 3334 1075 
Q 3334 1569 3581 1911 
Q 3828 2253 4300 2253 
Q 4731 2253 5014 1945 
Q 5297 1638 5297 1041 
Q 5297 459 5011 145 
Q 4725 -169 4303 -169 
Q 3888 -169 3611 142 
Q 3334 453 3334 1075 
z
M 4316 1866 
Q 4103 1866 3964 1684 
Q 3825 1503 3825 1019 
Q 3825 581 3965 400 
Q 4106 219 4313 219 
Q 4528 219 4667 400 
Q 4806 581 4806 1063 
Q 4806 1506 4665 1686 
Q 4525 1866 4316 1866 
z
" transform="scale(0.015625)"/>
      </defs>
      <use xlink:href="#ArialMT-4f"/>
      <use xlink:href="#ArialMT-62" x="77.783203"/>
      <use xlink:href="#ArialMT-73" x="133.398438"/>
      <use xlink:href="#ArialMT-65" x="183.398438"/>
      <use xlink:href="#ArialMT-72" x="239.013672"/>
      <use xlink:href="#ArialMT-76" x="272.314453"/>
      <use xlink:href="#ArialMT-61" x="322.314453"/>
      <use xlink:href="#ArialMT-74" x="377.929688"/>
      <use xlink:href="#ArialMT-69" x="405.712891"/>
      <use xlink:href="#ArialMT-6f" x="427.929688"/>
      <use xlink:href="#ArialMT-6e" x="483.544922"/>
      <use xlink:href="#ArialMT-20" x="539.160156"/>
      <use xlink:href="#ArialMT-28" x="566.943359"/>
      <use xlink:href="#ArialMT-75" x="600.244141"/>
      <use xlink:href="#ArialMT-6e" x="655.859375"/>
      <use xlink:href="#ArialMT-64" x="711.474609"/>
      <use xlink:href="#ArialMT-65" x="767.089844"/>
      <use xlink:href="#ArialMT-72" x="822.705078"/>
      <use xlink:href="#ArialMT-73" x="856.005859"/>
      <use xlink:href="#ArialMT-61" x="906.005859"/>
      <use xlink:href="#ArialMT-6d" x="961.621094"/>
      <use xlink:href="#ArialMT-70" x="1044.921875"/>
      <use xlink:href="#ArialMT-6c" x="1100.537109"/>
      <use xlink:href="#ArialMT-69" x="1122.753906"/>
      <use xlink:href="#ArialMT-6e" x="1144.970703"/>
      <use xlink:href="#ArialMT-67" x="1200.585938"/>
      <use xlink:href="#ArialMT-20" x="1256.201172"/>
      <use xlink:href="#ArialMT-31" x="1283.984375"/>
      <use xlink:href="#ArialMT-30" x="1339.599609"/>
      <use xlink:href="#ArialMT-25" x="1395.214844"/>
      <use xlink:href="#ArialMT-29" x="1484.130859"/>
     </g>
    </g>
    <g id="line2d_21">
     <path d="M 66.387909 11.805156 
L 71.387909 11.805156 
L 76.387909 11.805156 
" style="fill: none; stroke: #000000; stroke-width: 1.2; stroke-linecap: square"/>
    </g>
    <g id="text_19">
     <!-- full equation -->
     <g transform="translate(80.387909 13.555156) scale(0.05 -0.05)">
      <defs>
       <path id="ArialMT-66" d="M 556 0 
L 556 2881 
L 59 2881 
L 59 3319 
L 556 3319 
L 556 3672 
Q 556 4006 616 4169 
Q 697 4388 901 4523 
Q 1106 4659 1475 4659 
Q 1713 4659 2000 4603 
L 1916 4113 
Q 1741 4144 1584 4144 
Q 1328 4144 1222 4034 
Q 1116 3925 1116 3625 
L 1116 3319 
L 1763 3319 
L 1763 2881 
L 1116 2881 
L 1116 0 
L 556 0 
z
" transform="scale(0.015625)"/>
       <path id="ArialMT-71" d="M 2538 -1272 
L 2538 353 
Q 2406 169 2170 47 
Q 1934 -75 1669 -75 
Q 1078 -75 651 397 
Q 225 869 225 1691 
Q 225 2191 398 2587 
Q 572 2984 901 3189 
Q 1231 3394 1625 3394 
Q 2241 3394 2594 2875 
L 2594 3319 
L 3100 3319 
L 3100 -1272 
L 2538 -1272 
z
M 803 1669 
Q 803 1028 1072 708 
Q 1341 388 1716 388 
Q 2075 388 2334 692 
Q 2594 997 2594 1619 
Q 2594 2281 2320 2615 
Q 2047 2950 1678 2950 
Q 1313 2950 1058 2639 
Q 803 2328 803 1669 
z
" transform="scale(0.015625)"/>
      </defs>
      <use xlink:href="#ArialMT-66"/>
      <use xlink:href="#ArialMT-75" x="27.783203"/>
      <use xlink:href="#ArialMT-6c" x="83.398438"/>
      <use xlink:href="#ArialMT-6c" x="105.615234"/>
      <use xlink:href="#ArialMT-20" x="127.832031"/>
      <use xlink:href="#ArialMT-65" x="155.615234"/>
      <use xlink:href="#ArialMT-71" x="211.230469"/>
      <use xlink:href="#ArialMT-75" x="266.845703"/>
      <use xlink:href="#ArialMT-61" x="322.460938"/>
      <use xlink:href="#ArialMT-74" x="378.076172"/>
      <use xlink:href="#ArialMT-69" x="405.859375"/>
      <use xlink:href="#ArialMT-6f" x="428.076172"/>
      <use xlink:href="#ArialMT-6e" x="483.691406"/>
     </g>
    </g>
    <g id="line2d_22">
     <path d="M 166.254315 4.612969 
L 171.254315 4.612969 
L 176.254315 4.612969 
" style="fill: none; stroke-dasharray: 2.59,1.12; stroke-dashoffset: 0; stroke: #1f77b4; stroke-width: 0.7"/>
    </g>
    <g id="text_20">
     <!-- Ablate -3.104e-02$\dot{x}$ -->
     <g transform="translate(180.254315 6.362969) scale(0.05 -0.05)">
      <defs>
       <path id="ArialMT-2d" d="M 203 1375 
L 203 1941 
L 1931 1941 
L 1931 1375 
L 203 1375 
z
" transform="scale(0.015625)"/>
       <path id="ArialMT-2e" d="M 581 0 
L 581 641 
L 1222 641 
L 1222 0 
L 581 0 
z
" transform="scale(0.015625)"/>
       <path id="STIXGeneral-Regular-307" d="M -1158 3661 
Q -1158 3526 -1251 3436 
Q -1344 3347 -1478 3347 
Q -1606 3347 -1699 3440 
Q -1792 3533 -1792 3661 
Q -1792 3795 -1705 3888 
Q -1619 3981 -1478 3981 
Q -1331 3981 -1244 3891 
Q -1158 3802 -1158 3661 
z
" transform="scale(0.015625)"/>
       <path id="STIXGeneral-Italic-78" d="M 1555 2272 
L 1632 1907 
Q 1971 2426 2179 2624 
Q 2387 2822 2598 2822 
Q 2714 2822 2787 2755 
Q 2861 2688 2861 2585 
Q 2861 2483 2800 2419 
Q 2739 2355 2643 2355 
Q 2586 2355 2490 2409 
Q 2394 2464 2310 2464 
Q 2125 2464 1683 1690 
Q 1683 1606 1734 1402 
L 1939 544 
Q 2003 282 2131 282 
Q 2234 282 2432 538 
Q 2451 563 2476 598 
Q 2502 634 2521 662 
Q 2541 691 2566 717 
L 2662 659 
Q 2387 230 2227 80 
Q 2067 -70 1882 -70 
Q 1728 -70 1645 26 
Q 1562 122 1504 365 
L 1318 1126 
L 755 365 
Q 557 96 432 13 
Q 307 -70 147 -70 
Q 0 -70 -86 0 
Q -173 70 -173 198 
Q -173 294 -112 361 
Q -51 429 45 429 
Q 122 429 250 358 
Q 346 301 416 301 
Q 525 301 742 614 
L 1267 1357 
L 1088 2150 
Q 1024 2432 969 2509 
Q 915 2586 794 2586 
Q 717 2586 544 2541 
L 429 2509 
L 410 2611 
L 480 2637 
Q 992 2822 1229 2822 
Q 1350 2822 1420 2707 
Q 1491 2592 1555 2272 
z
" transform="scale(0.015625)"/>
      </defs>
      <use xlink:href="#ArialMT-41" transform="translate(0 0.125)"/>
      <use xlink:href="#ArialMT-62" transform="translate(66.699219 0.125)"/>
      <use xlink:href="#ArialMT-6c" transform="translate(122.314453 0.125)"/>
      <use xlink:href="#ArialMT-61" transform="translate(144.53125 0.125)"/>
      <use xlink:href="#ArialMT-74" transform="translate(200.146484 0.125)"/>
      <use xlink:href="#ArialMT-65" transform="translate(227.929688 0.125)"/>
      <use xlink:href="#ArialMT-20" transform="translate(283.544922 0.125)"/>
      <use xlink:href="#ArialMT-2d" transform="translate(311.328125 0.125)"/>
      <use xlink:href="#ArialMT-33" transform="translate(344.628906 0.125)"/>
      <use xlink:href="#ArialMT-2e" transform="translate(400.244141 0.125)"/>
      <use xlink:href="#ArialMT-31" transform="translate(428.027344 0.125)"/>
      <use xlink:href="#ArialMT-30" transform="translate(483.642578 0.125)"/>
      <use xlink:href="#ArialMT-34" transform="translate(539.257812 0.125)"/>
      <use xlink:href="#ArialMT-65" transform="translate(594.873047 0.125)"/>
      <use xlink:href="#ArialMT-2d" transform="translate(650.488281 0.125)"/>
      <use xlink:href="#ArialMT-30" transform="translate(683.789062 0.125)"/>
      <use xlink:href="#ArialMT-32" transform="translate(739.404297 0.125)"/>
      <use xlink:href="#STIXGeneral-Regular-307" transform="translate(846.11953 4.421875)"/>
      <use xlink:href="#STIXGeneral-Italic-78" transform="translate(795.019531 0.125)"/>
     </g>
    </g>
    <g id="line2d_23">
     <path d="M 166.254315 11.685625 
L 171.254315 11.685625 
L 176.254315 11.685625 
" style="fill: none; stroke-dasharray: 2.59,1.12; stroke-dashoffset: 0; stroke: #ff7f0e; stroke-width: 0.7"/>
    </g>
    <g id="text_21">
     <!-- Ablate 1.158e-02$x^3$ -->
     <g transform="translate(180.254315 13.435625) scale(0.05 -0.05)">
      <defs>
       <path id="STIXGeneral-Regular-33" d="M 390 3264 
L 288 3290 
Q 435 3770 748 4048 
Q 1062 4326 1542 4326 
Q 1990 4326 2265 4083 
Q 2541 3840 2541 3450 
Q 2541 2925 1946 2566 
Q 2298 2413 2477 2227 
Q 2758 1914 2758 1402 
Q 2758 890 2464 506 
Q 2246 211 1840 60 
Q 1434 -90 979 -90 
Q 262 -90 262 275 
Q 262 378 339 442 
Q 416 506 525 506 
Q 685 506 915 339 
Q 1197 141 1466 141 
Q 1818 141 2058 425 
Q 2298 710 2298 1120 
Q 2298 1856 1632 2048 
Q 1434 2112 979 2112 
L 979 2202 
Q 1338 2323 1517 2432 
Q 2035 2726 2035 3290 
Q 2035 3610 1852 3776 
Q 1670 3942 1344 3942 
Q 768 3942 390 3264 
z
" transform="scale(0.015625)"/>
      </defs>
      <use xlink:href="#ArialMT-41" transform="translate(0 0.409375)"/>
      <use xlink:href="#ArialMT-62" transform="translate(66.699219 0.409375)"/>
      <use xlink:href="#ArialMT-6c" transform="translate(122.314453 0.409375)"/>
      <use xlink:href="#ArialMT-61" transform="translate(144.53125 0.409375)"/>
      <use xlink:href="#ArialMT-74" transform="translate(200.146484 0.409375)"/>
      <use xlink:href="#ArialMT-65" transform="translate(227.929688 0.409375)"/>
      <use xlink:href="#ArialMT-20" transform="translate(283.544922 0.409375)"/>
      <use xlink:href="#ArialMT-31" transform="translate(311.328125 0.409375)"/>
      <use xlink:href="#ArialMT-2e" transform="translate(366.943359 0.409375)"/>
      <use xlink:href="#ArialMT-31" transform="translate(394.726562 0.409375)"/>
      <use xlink:href="#ArialMT-35" transform="translate(450.341797 0.409375)"/>
      <use xlink:href="#ArialMT-38" transform="translate(505.957031 0.409375)"/>
      <use xlink:href="#ArialMT-65" transform="translate(561.572266 0.409375)"/>
      <use xlink:href="#ArialMT-2d" transform="translate(617.1875 0.409375)"/>
      <use xlink:href="#ArialMT-30" transform="translate(650.488281 0.409375)"/>
      <use xlink:href="#ArialMT-32" transform="translate(706.103516 0.409375)"/>
      <use xlink:href="#STIXGeneral-Italic-78" transform="translate(761.71875 0.409375)"/>
      <use xlink:href="#STIXGeneral-Regular-33" transform="translate(812.291869 35.684375) scale(0.7)"/>
     </g>
    </g>
    <g id="line2d_24">
     <path d="M 232.854315 4.612969 
L 237.854315 4.612969 
L 242.854315 4.612969 
" style="fill: none; stroke-dasharray: 2.59,1.12; stroke-dashoffset: 0; stroke: #2ca02c; stroke-width: 0.7"/>
    </g>
    <g id="text_22">
     <!-- Ablate -3.748e-06$\dot{x}^3$ -->
     <g transform="translate(246.854315 6.362969) scale(0.05 -0.05)">
      <defs>
       <path id="ArialMT-37" d="M 303 3981 
L 303 4522 
L 3269 4522 
L 3269 4084 
Q 2831 3619 2401 2847 
Q 1972 2075 1738 1259 
Q 1569 684 1522 0 
L 944 0 
Q 953 541 1156 1306 
Q 1359 2072 1739 2783 
Q 2119 3494 2547 3981 
L 303 3981 
z
" transform="scale(0.015625)"/>
      </defs>
      <use xlink:href="#ArialMT-41" transform="translate(0 0.409375)"/>
      <use xlink:href="#ArialMT-62" transform="translate(66.699219 0.409375)"/>
      <use xlink:href="#ArialMT-6c" transform="translate(122.314453 0.409375)"/>
      <use xlink:href="#ArialMT-61" transform="translate(144.53125 0.409375)"/>
      <use xlink:href="#ArialMT-74" transform="translate(200.146484 0.409375)"/>
      <use xlink:href="#ArialMT-65" transform="translate(227.929688 0.409375)"/>
      <use xlink:href="#ArialMT-20" transform="translate(283.544922 0.409375)"/>
      <use xlink:href="#ArialMT-2d" transform="translate(311.328125 0.409375)"/>
      <use xlink:href="#ArialMT-33" transform="translate(344.628906 0.409375)"/>
      <use xlink:href="#ArialMT-2e" transform="translate(400.244141 0.409375)"/>
      <use xlink:href="#ArialMT-37" transform="translate(428.027344 0.409375)"/>
      <use xlink:href="#ArialMT-34" transform="translate(483.642578 0.409375)"/>
      <use xlink:href="#ArialMT-38" transform="translate(539.257812 0.409375)"/>
      <use xlink:href="#ArialMT-65" transform="translate(594.873047 0.409375)"/>
      <use xlink:href="#ArialMT-2d" transform="translate(650.488281 0.409375)"/>
      <use xlink:href="#ArialMT-30" transform="translate(683.789062 0.409375)"/>
      <use xlink:href="#ArialMT-36" transform="translate(739.404297 0.409375)"/>
      <use xlink:href="#STIXGeneral-Regular-307" transform="translate(846.11953 4.70625)"/>
      <use xlink:href="#STIXGeneral-Italic-78" transform="translate(795.019531 0.409375)"/>
      <use xlink:href="#STIXGeneral-Regular-33" transform="translate(840.962806 35.684375) scale(0.7)"/>
     </g>
    </g>
    <g id="line2d_25">
     <path d="M 232.854315 11.685625 
L 237.854315 11.685625 
L 242.854315 11.685625 
" style="fill: none; stroke-dasharray: 2.59,1.12; stroke-dashoffset: 0; stroke: #d62728; stroke-width: 0.7"/>
    </g>
    <g id="text_23">
     <!-- Ablate 9.043e-11$\dot{x}^5$ -->
     <g transform="translate(246.854315 13.435625) scale(0.05 -0.05)">
      <defs>
       <path id="ArialMT-39" d="M 350 1059 
L 891 1109 
Q 959 728 1153 556 
Q 1347 384 1650 384 
Q 1909 384 2104 503 
Q 2300 622 2425 820 
Q 2550 1019 2634 1356 
Q 2719 1694 2719 2044 
Q 2719 2081 2716 2156 
Q 2547 1888 2255 1720 
Q 1963 1553 1622 1553 
Q 1053 1553 659 1965 
Q 266 2378 266 3053 
Q 266 3750 677 4175 
Q 1088 4600 1706 4600 
Q 2153 4600 2523 4359 
Q 2894 4119 3086 3673 
Q 3278 3228 3278 2384 
Q 3278 1506 3087 986 
Q 2897 466 2520 194 
Q 2144 -78 1638 -78 
Q 1100 -78 759 220 
Q 419 519 350 1059 
z
M 2653 3081 
Q 2653 3566 2395 3850 
Q 2138 4134 1775 4134 
Q 1400 4134 1122 3828 
Q 844 3522 844 3034 
Q 844 2597 1108 2323 
Q 1372 2050 1759 2050 
Q 2150 2050 2401 2323 
Q 2653 2597 2653 3081 
z
" transform="scale(0.015625)"/>
       <path id="STIXGeneral-Regular-35" d="M 2803 4358 
L 2573 3814 
Q 2534 3731 2400 3731 
L 1158 3731 
L 902 3187 
Q 1606 3053 1920 2896 
Q 2234 2739 2502 2368 
Q 2726 2061 2726 1555 
Q 2726 1094 2576 780 
Q 2426 467 2099 224 
Q 1664 -90 1011 -90 
Q 646 -90 422 19 
Q 198 128 198 307 
Q 198 550 486 550 
Q 717 550 960 352 
Q 1210 147 1414 147 
Q 1747 147 2012 480 
Q 2278 813 2278 1229 
Q 2278 1843 1850 2189 
Q 1293 2637 486 2637 
Q 410 2637 410 2688 
L 416 2720 
L 1114 4237 
L 2438 4237 
Q 2547 4237 2608 4269 
Q 2669 4301 2746 4403 
L 2803 4358 
z
" transform="scale(0.015625)"/>
      </defs>
      <use xlink:href="#ArialMT-41" transform="translate(0 0.567188)"/>
      <use xlink:href="#ArialMT-62" transform="translate(66.699219 0.567188)"/>
      <use xlink:href="#ArialMT-6c" transform="translate(122.314453 0.567188)"/>
      <use xlink:href="#ArialMT-61" transform="translate(144.53125 0.567188)"/>
      <use xlink:href="#ArialMT-74" transform="translate(200.146484 0.567188)"/>
      <use xlink:href="#ArialMT-65" transform="translate(227.929688 0.567188)"/>
      <use xlink:href="#ArialMT-20" transform="translate(283.544922 0.567188)"/>
      <use xlink:href="#ArialMT-39" transform="translate(311.328125 0.567188)"/>
      <use xlink:href="#ArialMT-2e" transform="translate(366.943359 0.567188)"/>
      <use xlink:href="#ArialMT-30" transform="translate(394.726562 0.567188)"/>
      <use xlink:href="#ArialMT-34" transform="translate(450.341797 0.567188)"/>
      <use xlink:href="#ArialMT-33" transform="translate(505.957031 0.567188)"/>
      <use xlink:href="#ArialMT-65" transform="translate(561.572266 0.567188)"/>
      <use xlink:href="#ArialMT-2d" transform="translate(617.1875 0.567188)"/>
      <use xlink:href="#ArialMT-31" transform="translate(650.488281 0.567188)"/>
      <use xlink:href="#ArialMT-31" transform="translate(706.103516 0.567188)"/>
      <use xlink:href="#STIXGeneral-Regular-307" transform="translate(812.818748 4.864063)"/>
      <use xlink:href="#STIXGeneral-Italic-78" transform="translate(761.71875 0.567188)"/>
      <use xlink:href="#STIXGeneral-Regular-35" transform="translate(807.662025 35.842188) scale(0.7)"/>
     </g>
    </g>
   </g>
  </g>
  <g id="axes_2">
   <g id="patch_7">
    <path d="M 200.614616 83.344409 
L 347.071309 83.344409 
L 347.071309 17.864094 
L 200.614616 17.864094 
L 200.614616 83.344409 
z
" style="fill: none"/>
   </g>
   <g id="PathCollection_3">
    <defs>
     <path id="C1_0_0bd5c457e9" d="M -1.118034 1.118034 
L 1.118034 1.118034 
L 1.118034 -1.118034 
L -1.118034 -1.118034 
z
"/>
    </defs>
    <g clip-path="url(#p9e59093f87)">
     <use xlink:href="#C1_0_0bd5c457e9" x="200.853831" y="51.946364" style="fill: none; stroke: #808080"/>
    </g>
    <g clip-path="url(#p9e59093f87)">
     <use xlink:href="#C1_0_0bd5c457e9" x="203.259002" y="52.642629" style="fill: none; stroke: #808080"/>
    </g>
    <g clip-path="url(#p9e59093f87)">
     <use xlink:href="#C1_0_0bd5c457e9" x="205.664174" y="53.212212" style="fill: none; stroke: #808080"/>
    </g>
    <g clip-path="url(#p9e59093f87)">
     <use xlink:href="#C1_0_0bd5c457e9" x="208.069345" y="53.73827" style="fill: none; stroke: #808080"/>
    </g>
    <g clip-path="url(#p9e59093f87)">
     <use xlink:href="#C1_0_0bd5c457e9" x="210.474516" y="54.158899" style="fill: none; stroke: #808080"/>
    </g>
    <g clip-path="url(#p9e59093f87)">
     <use xlink:href="#C1_0_0bd5c457e9" x="212.878059" y="54.576853" style="fill: none; stroke: #808080"/>
    </g>
    <g clip-path="url(#p9e59093f87)">
     <use xlink:href="#C1_0_0bd5c457e9" x="215.283231" y="54.857617" style="fill: none; stroke: #808080"/>
    </g>
    <g clip-path="url(#p9e59093f87)">
     <use xlink:href="#C1_0_0bd5c457e9" x="217.688402" y="55.053357" style="fill: none; stroke: #808080"/>
    </g>
    <g clip-path="url(#p9e59093f87)">
     <use xlink:href="#C1_0_0bd5c457e9" x="220.093573" y="55.265759" style="fill: none; stroke: #808080"/>
    </g>
    <g clip-path="url(#p9e59093f87)">
     <use xlink:href="#C1_0_0bd5c457e9" x="222.498744" y="55.366109" style="fill: none; stroke: #808080"/>
    </g>
    <g clip-path="url(#p9e59093f87)">
     <use xlink:href="#C1_0_0bd5c457e9" x="224.903915" y="55.510406" style="fill: none; stroke: #808080"/>
    </g>
    <g clip-path="url(#p9e59093f87)">
     <use xlink:href="#C1_0_0bd5c457e9" x="227.307459" y="55.468154" style="fill: none; stroke: #808080"/>
    </g>
    <g clip-path="url(#p9e59093f87)">
     <use xlink:href="#C1_0_0bd5c457e9" x="229.71263" y="55.503553" style="fill: none; stroke: #808080"/>
    </g>
    <g clip-path="url(#p9e59093f87)">
     <use xlink:href="#C1_0_0bd5c457e9" x="232.117801" y="55.540711" style="fill: none; stroke: #808080"/>
    </g>
    <g clip-path="url(#p9e59093f87)">
     <use xlink:href="#C1_0_0bd5c457e9" x="234.522972" y="55.400161" style="fill: none; stroke: #808080"/>
    </g>
    <g clip-path="url(#p9e59093f87)">
     <use xlink:href="#C1_0_0bd5c457e9" x="236.928143" y="55.354066" style="fill: none; stroke: #808080"/>
    </g>
    <g clip-path="url(#p9e59093f87)">
     <use xlink:href="#C1_0_0bd5c457e9" x="239.333314" y="55.182354" style="fill: none; stroke: #808080"/>
    </g>
    <g clip-path="url(#p9e59093f87)">
     <use xlink:href="#C1_0_0bd5c457e9" x="241.736858" y="55.024013" style="fill: none; stroke: #808080"/>
    </g>
    <g clip-path="url(#p9e59093f87)">
     <use xlink:href="#C1_0_0bd5c457e9" x="244.142029" y="54.794" style="fill: none; stroke: #808080"/>
    </g>
    <g clip-path="url(#p9e59093f87)">
     <use xlink:href="#C1_0_0bd5c457e9" x="246.5472" y="54.314097" style="fill: none; stroke: #808080"/>
    </g>
    <g clip-path="url(#p9e59093f87)">
     <use xlink:href="#C1_0_0bd5c457e9" x="248.952371" y="54.460879" style="fill: none; stroke: #808080"/>
    </g>
    <g clip-path="url(#p9e59093f87)">
     <use xlink:href="#C1_0_0bd5c457e9" x="251.357542" y="54.051362" style="fill: none; stroke: #808080"/>
    </g>
    <g clip-path="url(#p9e59093f87)">
     <use xlink:href="#C1_0_0bd5c457e9" x="253.762713" y="53.999792" style="fill: none; stroke: #808080"/>
    </g>
    <g clip-path="url(#p9e59093f87)">
     <use xlink:href="#C1_0_0bd5c457e9" x="256.166257" y="53.274503" style="fill: none; stroke: #808080"/>
    </g>
    <g clip-path="url(#p9e59093f87)">
     <use xlink:href="#C1_0_0bd5c457e9" x="258.571428" y="53.585005" style="fill: none; stroke: #808080"/>
    </g>
    <g clip-path="url(#p9e59093f87)">
     <use xlink:href="#C1_0_0bd5c457e9" x="260.976599" y="52.606402" style="fill: none; stroke: #808080"/>
    </g>
    <g clip-path="url(#p9e59093f87)">
     <use xlink:href="#C1_0_0bd5c457e9" x="263.38177" y="52.823811" style="fill: none; stroke: #808080"/>
    </g>
    <g clip-path="url(#p9e59093f87)">
     <use xlink:href="#C1_0_0bd5c457e9" x="265.786941" y="52.122954" style="fill: none; stroke: #808080"/>
    </g>
    <g clip-path="url(#p9e59093f87)">
     <use xlink:href="#C1_0_0bd5c457e9" x="268.192112" y="51.81688" style="fill: none; stroke: #808080"/>
    </g>
    <g clip-path="url(#p9e59093f87)">
     <use xlink:href="#C1_0_0bd5c457e9" x="270.595656" y="50.927979" style="fill: none; stroke: #808080"/>
    </g>
    <g clip-path="url(#p9e59093f87)">
     <use xlink:href="#C1_0_0bd5c457e9" x="273.000827" y="51.129136" style="fill: none; stroke: #808080"/>
    </g>
    <g clip-path="url(#p9e59093f87)">
     <use xlink:href="#C1_0_0bd5c457e9" x="275.405998" y="49.920785" style="fill: none; stroke: #808080"/>
    </g>
    <g clip-path="url(#p9e59093f87)">
     <use xlink:href="#C1_0_0bd5c457e9" x="277.811169" y="50.36883" style="fill: none; stroke: #808080"/>
    </g>
    <g clip-path="url(#p9e59093f87)">
     <use xlink:href="#C1_0_0bd5c457e9" x="280.216341" y="48.674282" style="fill: none; stroke: #808080"/>
    </g>
    <g clip-path="url(#p9e59093f87)">
     <use xlink:href="#C1_0_0bd5c457e9" x="282.621512" y="49.029356" style="fill: none; stroke: #808080"/>
    </g>
    <g clip-path="url(#p9e59093f87)">
     <use xlink:href="#C1_0_0bd5c457e9" x="285.025055" y="47.931946" style="fill: none; stroke: #808080"/>
    </g>
    <g clip-path="url(#p9e59093f87)">
     <use xlink:href="#C1_0_0bd5c457e9" x="287.430226" y="48.070304" style="fill: none; stroke: #808080"/>
    </g>
    <g clip-path="url(#p9e59093f87)">
     <use xlink:href="#C1_0_0bd5c457e9" x="289.835398" y="46.975928" style="fill: none; stroke: #808080"/>
    </g>
    <g clip-path="url(#p9e59093f87)">
     <use xlink:href="#C1_0_0bd5c457e9" x="292.240569" y="46.803727" style="fill: none; stroke: #808080"/>
    </g>
    <g clip-path="url(#p9e59093f87)">
     <use xlink:href="#C1_0_0bd5c457e9" x="294.64574" y="45.22198" style="fill: none; stroke: #808080"/>
    </g>
    <g clip-path="url(#p9e59093f87)">
     <use xlink:href="#C1_0_0bd5c457e9" x="297.050911" y="45.210508" style="fill: none; stroke: #808080"/>
    </g>
    <g clip-path="url(#p9e59093f87)">
     <use xlink:href="#C1_0_0bd5c457e9" x="299.454455" y="44.282467" style="fill: none; stroke: #808080"/>
    </g>
    <g clip-path="url(#p9e59093f87)">
     <use xlink:href="#C1_0_0bd5c457e9" x="301.859626" y="44.043857" style="fill: none; stroke: #808080"/>
    </g>
    <g clip-path="url(#p9e59093f87)">
     <use xlink:href="#C1_0_0bd5c457e9" x="304.264797" y="42.574474" style="fill: none; stroke: #808080"/>
    </g>
    <g clip-path="url(#p9e59093f87)">
     <use xlink:href="#C1_0_0bd5c457e9" x="306.669968" y="42.115863" style="fill: none; stroke: #808080"/>
    </g>
    <g clip-path="url(#p9e59093f87)">
     <use xlink:href="#C1_0_0bd5c457e9" x="309.075139" y="40.367356" style="fill: none; stroke: #808080"/>
    </g>
    <g clip-path="url(#p9e59093f87)">
     <use xlink:href="#C1_0_0bd5c457e9" x="311.48031" y="40.613831" style="fill: none; stroke: #808080"/>
    </g>
    <g clip-path="url(#p9e59093f87)">
     <use xlink:href="#C1_0_0bd5c457e9" x="313.883854" y="39.300939" style="fill: none; stroke: #808080"/>
    </g>
    <g clip-path="url(#p9e59093f87)">
     <use xlink:href="#C1_0_0bd5c457e9" x="316.289025" y="38.871558" style="fill: none; stroke: #808080"/>
    </g>
    <g clip-path="url(#p9e59093f87)">
     <use xlink:href="#C1_0_0bd5c457e9" x="318.694196" y="37.846795" style="fill: none; stroke: #808080"/>
    </g>
    <g clip-path="url(#p9e59093f87)">
     <use xlink:href="#C1_0_0bd5c457e9" x="321.099367" y="37.030844" style="fill: none; stroke: #808080"/>
    </g>
    <g clip-path="url(#p9e59093f87)">
     <use xlink:href="#C1_0_0bd5c457e9" x="323.504538" y="35.871432" style="fill: none; stroke: #808080"/>
    </g>
    <g clip-path="url(#p9e59093f87)">
     <use xlink:href="#C1_0_0bd5c457e9" x="325.909709" y="35.609494" style="fill: none; stroke: #808080"/>
    </g>
    <g clip-path="url(#p9e59093f87)">
     <use xlink:href="#C1_0_0bd5c457e9" x="328.313253" y="34.512732" style="fill: none; stroke: #808080"/>
    </g>
    <g clip-path="url(#p9e59093f87)">
     <use xlink:href="#C1_0_0bd5c457e9" x="330.718424" y="33.625324" style="fill: none; stroke: #808080"/>
    </g>
    <g clip-path="url(#p9e59093f87)">
     <use xlink:href="#C1_0_0bd5c457e9" x="333.123595" y="33.10326" style="fill: none; stroke: #808080"/>
    </g>
    <g clip-path="url(#p9e59093f87)">
     <use xlink:href="#C1_0_0bd5c457e9" x="335.528766" y="32.033627" style="fill: none; stroke: #808080"/>
    </g>
    <g clip-path="url(#p9e59093f87)">
     <use xlink:href="#C1_0_0bd5c457e9" x="337.933937" y="30.691689" style="fill: none; stroke: #808080"/>
    </g>
    <g clip-path="url(#p9e59093f87)">
     <use xlink:href="#C1_0_0bd5c457e9" x="340.339108" y="29.812779" style="fill: none; stroke: #808080"/>
    </g>
    <g clip-path="url(#p9e59093f87)">
     <use xlink:href="#C1_0_0bd5c457e9" x="342.742652" y="28.855214" style="fill: none; stroke: #808080"/>
    </g>
    <g clip-path="url(#p9e59093f87)">
     <use xlink:href="#C1_0_0bd5c457e9" x="345.147823" y="27.843746" style="fill: none; stroke: #808080"/>
    </g>
   </g>
   <g id="matplotlib.axis_3">
    <g id="xtick_8">
     <g id="line2d_26">
      <g>
       <use xlink:href="#md84e6ce87b" x="200.614616" y="83.344409" style="stroke: #000000; stroke-width: 0.8"/>
      </g>
     </g>
     <g id="text_24">
      <!-- 0 -->
      <g transform="translate(199.780476 92.491753) scale(0.03 -0.03)">
       <use xlink:href="#ArialMT-30"/>
      </g>
     </g>
    </g>
    <g id="xtick_9">
     <g id="line2d_27">
      <g>
       <use xlink:href="#md84e6ce87b" x="225.024065" y="83.344409" style="stroke: #000000; stroke-width: 0.8"/>
      </g>
     </g>
     <g id="text_25">
      <!-- 50 -->
      <g transform="translate(223.355784 92.491753) scale(0.03 -0.03)">
       <use xlink:href="#ArialMT-35"/>
       <use xlink:href="#ArialMT-30" x="55.615234"/>
      </g>
     </g>
    </g>
    <g id="xtick_10">
     <g id="line2d_28">
      <g>
       <use xlink:href="#md84e6ce87b" x="249.433514" y="83.344409" style="stroke: #000000; stroke-width: 0.8"/>
      </g>
     </g>
     <g id="text_26">
      <!-- 100 -->
      <g transform="translate(246.931092 92.491753) scale(0.03 -0.03)">
       <use xlink:href="#ArialMT-31"/>
       <use xlink:href="#ArialMT-30" x="55.615234"/>
       <use xlink:href="#ArialMT-30" x="111.230469"/>
      </g>
     </g>
    </g>
    <g id="xtick_11">
     <g id="line2d_29">
      <g>
       <use xlink:href="#md84e6ce87b" x="273.842963" y="83.344409" style="stroke: #000000; stroke-width: 0.8"/>
      </g>
     </g>
     <g id="text_27">
      <!-- 150 -->
      <g transform="translate(271.340541 92.491753) scale(0.03 -0.03)">
       <use xlink:href="#ArialMT-31"/>
       <use xlink:href="#ArialMT-35" x="55.615234"/>
       <use xlink:href="#ArialMT-30" x="111.230469"/>
      </g>
     </g>
    </g>
    <g id="xtick_12">
     <g id="line2d_30">
      <g>
       <use xlink:href="#md84e6ce87b" x="298.252411" y="83.344409" style="stroke: #000000; stroke-width: 0.8"/>
      </g>
     </g>
     <g id="text_28">
      <!-- 200 -->
      <g transform="translate(295.74999 92.491753) scale(0.03 -0.03)">
       <use xlink:href="#ArialMT-32"/>
       <use xlink:href="#ArialMT-30" x="55.615234"/>
       <use xlink:href="#ArialMT-30" x="111.230469"/>
      </g>
     </g>
    </g>
    <g id="xtick_13">
     <g id="line2d_31">
      <g>
       <use xlink:href="#md84e6ce87b" x="322.66186" y="83.344409" style="stroke: #000000; stroke-width: 0.8"/>
      </g>
     </g>
     <g id="text_29">
      <!-- 250 -->
      <g transform="translate(320.159438 92.491753) scale(0.03 -0.03)">
       <use xlink:href="#ArialMT-32"/>
       <use xlink:href="#ArialMT-35" x="55.615234"/>
       <use xlink:href="#ArialMT-30" x="111.230469"/>
      </g>
     </g>
    </g>
    <g id="xtick_14">
     <g id="line2d_32">
      <g>
       <use xlink:href="#md84e6ce87b" x="347.071309" y="83.344409" style="stroke: #000000; stroke-width: 0.8"/>
      </g>
     </g>
     <g id="text_30">
      <!-- 300 -->
      <g transform="translate(344.568887 92.491753) scale(0.03 -0.03)">
       <use xlink:href="#ArialMT-33"/>
       <use xlink:href="#ArialMT-30" x="55.615234"/>
       <use xlink:href="#ArialMT-30" x="111.230469"/>
      </g>
     </g>
    </g>
    <g id="text_31">
     <!-- Time (s) -->
     <g transform="translate(262.958119 98.455816) scale(0.06 -0.06)">
      <use xlink:href="#ArialMT-54"/>
      <use xlink:href="#ArialMT-69" x="57.333984"/>
      <use xlink:href="#ArialMT-6d" x="79.550781"/>
      <use xlink:href="#ArialMT-65" x="162.851562"/>
      <use xlink:href="#ArialMT-20" x="218.466797"/>
      <use xlink:href="#ArialMT-28" x="246.25"/>
      <use xlink:href="#ArialMT-73" x="279.550781"/>
      <use xlink:href="#ArialMT-29" x="329.550781"/>
     </g>
    </g>
   </g>
   <g id="matplotlib.axis_4">
    <g id="ytick_9">
     <g id="line2d_33">
      <g>
       <use xlink:href="#m54bc545349" x="200.614616" y="83.344409" style="stroke: #000000; stroke-width: 0.8"/>
      </g>
     </g>
     <g id="text_32">
      <!-- $-2\pi$ -->
      <g transform="translate(188.544616 84.418081) scale(0.03 -0.03)">
       <defs>
        <path id="STIXGeneral-Regular-2212" d="M 3974 1408 
L 410 1408 
L 410 1830 
L 3974 1830 
L 3974 1408 
z
" transform="scale(0.015625)"/>
        <path id="STIXGeneral-Regular-32" d="M 3034 877 
L 2688 0 
L 186 0 
L 186 77 
L 1325 1286 
Q 1773 1754 1965 2144 
Q 2157 2534 2157 2950 
Q 2157 3379 1920 3616 
Q 1683 3853 1267 3853 
Q 922 3853 720 3673 
Q 518 3494 326 3021 
L 192 3053 
Q 301 3648 630 3987 
Q 960 4326 1523 4326 
Q 2054 4326 2380 4006 
Q 2707 3686 2707 3200 
Q 2707 2477 1888 1613 
L 832 486 
L 2330 486 
Q 2541 486 2665 569 
Q 2790 653 2944 915 
L 3034 877 
z
" transform="scale(0.015625)"/>
        <path id="STIXGeneral-Italic-3c0" d="M 3430 2739 
L 3296 2266 
L 2643 2266 
Q 2624 2195 2502 1782 
Q 2381 1370 2297 1072 
Q 2214 774 2214 717 
Q 2214 448 2413 448 
Q 2694 448 2867 838 
L 2970 838 
Q 2886 486 2652 208 
Q 2419 -70 2093 -70 
Q 1901 -70 1808 67 
Q 1715 205 1715 410 
Q 1715 627 1824 922 
L 2310 2266 
L 1645 2266 
Q 1568 2061 1401 1469 
Q 1235 877 1068 512 
Q 902 147 672 -38 
Q 563 -115 442 -115 
Q 314 -115 218 -32 
Q 122 51 122 166 
Q 122 429 314 480 
Q 634 563 774 928 
L 1299 2266 
L 1261 2266 
Q 973 2266 819 2208 
Q 666 2150 474 1914 
L 371 1914 
Q 640 2362 931 2550 
Q 1222 2739 1696 2739 
L 3430 2739 
z
" transform="scale(0.015625)"/>
       </defs>
       <use xlink:href="#STIXGeneral-Regular-2212" transform="translate(0 0.40625)"/>
       <use xlink:href="#STIXGeneral-Regular-32" transform="translate(68.499985 0.40625)"/>
       <use xlink:href="#STIXGeneral-Italic-3c0" transform="translate(118.499969 0.40625)"/>
      </g>
     </g>
    </g>
    <g id="ytick_10">
     <g id="line2d_34">
      <g>
       <use xlink:href="#m54bc545349" x="200.614616" y="66.974331" style="stroke: #000000; stroke-width: 0.8"/>
      </g>
     </g>
     <g id="text_33">
      <!-- $-\pi$ -->
      <g transform="translate(190.044616 68.048003) scale(0.03 -0.03)">
       <use xlink:href="#STIXGeneral-Regular-2212" transform="translate(0 0.203125)"/>
       <use xlink:href="#STIXGeneral-Italic-3c0" transform="translate(68.499985 0.203125)"/>
      </g>
     </g>
    </g>
    <g id="ytick_11">
     <g id="line2d_35">
      <g>
       <use xlink:href="#m54bc545349" x="200.614616" y="50.604252" style="stroke: #000000; stroke-width: 0.8"/>
      </g>
     </g>
     <g id="text_34">
      <!-- $0$ -->
      <g transform="translate(192.114616 51.677924) scale(0.03 -0.03)">
       <defs>
        <path id="STIXGeneral-Regular-30" d="M 3046 2112 
Q 3046 1683 2963 1302 
Q 2880 922 2717 602 
Q 2554 282 2266 96 
Q 1978 -90 1600 -90 
Q 1210 -90 915 108 
Q 621 307 461 640 
Q 301 973 227 1350 
Q 154 1728 154 2150 
Q 154 2746 301 3222 
Q 448 3699 790 4012 
Q 1133 4326 1626 4326 
Q 2253 4326 2649 3712 
Q 3046 3098 3046 2112 
z
M 2432 2080 
Q 2432 3091 2217 3625 
Q 2003 4160 1587 4160 
Q 1190 4160 979 3622 
Q 768 3085 768 2106 
Q 768 1120 979 598 
Q 1190 77 1600 77 
Q 2003 77 2217 598 
Q 2432 1120 2432 2080 
z
" transform="scale(0.015625)"/>
       </defs>
       <use xlink:href="#STIXGeneral-Regular-30" transform="translate(0 0.40625)"/>
      </g>
     </g>
    </g>
    <g id="ytick_12">
     <g id="line2d_36">
      <g>
       <use xlink:href="#m54bc545349" x="200.614616" y="34.234173" style="stroke: #000000; stroke-width: 0.8"/>
      </g>
     </g>
     <g id="text_35">
      <!-- $\pi$ -->
      <g transform="translate(192.084616 35.307845) scale(0.03 -0.03)">
       <use xlink:href="#STIXGeneral-Italic-3c0" transform="translate(0 0.203125)"/>
      </g>
     </g>
    </g>
    <g id="ytick_13">
     <g id="line2d_37">
      <g>
       <use xlink:href="#m54bc545349" x="200.614616" y="17.864094" style="stroke: #000000; stroke-width: 0.8"/>
      </g>
     </g>
     <g id="text_36">
      <!-- $2\pi$ -->
      <g transform="translate(190.584616 18.937766) scale(0.03 -0.03)">
       <use xlink:href="#STIXGeneral-Regular-32" transform="translate(0 0.40625)"/>
       <use xlink:href="#STIXGeneral-Italic-3c0" transform="translate(49.999985 0.40625)"/>
      </g>
     </g>
    </g>
    <g id="text_37">
     <!-- Phase -->
     <g transform="translate(186.352116 59.110189) rotate(-90) scale(0.06 -0.06)">
      <defs>
       <path id="ArialMT-50" d="M 494 0 
L 494 4581 
L 2222 4581 
Q 2678 4581 2919 4538 
Q 3256 4481 3484 4323 
Q 3713 4166 3852 3881 
Q 3991 3597 3991 3256 
Q 3991 2672 3619 2267 
Q 3247 1863 2275 1863 
L 1100 1863 
L 1100 0 
L 494 0 
z
M 1100 2403 
L 2284 2403 
Q 2872 2403 3119 2622 
Q 3366 2841 3366 3238 
Q 3366 3525 3220 3729 
Q 3075 3934 2838 4000 
Q 2684 4041 2272 4041 
L 1100 4041 
L 1100 2403 
z
" transform="scale(0.015625)"/>
       <path id="ArialMT-68" d="M 422 0 
L 422 4581 
L 984 4581 
L 984 2938 
Q 1378 3394 1978 3394 
Q 2347 3394 2619 3248 
Q 2891 3103 3008 2847 
Q 3125 2591 3125 2103 
L 3125 0 
L 2563 0 
L 2563 2103 
Q 2563 2525 2380 2717 
Q 2197 2909 1863 2909 
Q 1613 2909 1392 2779 
Q 1172 2650 1078 2428 
Q 984 2206 984 1816 
L 984 0 
L 422 0 
z
" transform="scale(0.015625)"/>
      </defs>
      <use xlink:href="#ArialMT-50"/>
      <use xlink:href="#ArialMT-68" x="66.699219"/>
      <use xlink:href="#ArialMT-61" x="122.314453"/>
      <use xlink:href="#ArialMT-73" x="177.929688"/>
      <use xlink:href="#ArialMT-65" x="227.929688"/>
     </g>
    </g>
   </g>
   <g id="line2d_38">
    <path d="M 200.853831 50.830241 
L 202.778945 51.769725 
L 204.702431 52.44775 
L 206.866759 52.976819 
L 209.511145 53.387235 
L 212.638844 53.646841 
L 216.726659 53.749404 
L 222.017059 53.638286 
L 228.991729 53.250206 
L 238.610786 52.476099 
L 253.281028 51.050791 
L 280.457183 48.14939 
L 346.350409 41.031281 
L 346.591251 44.478373 
L 346.591251 44.478373 
" clip-path="url(#p9e59093f87)" style="fill: none; stroke: #000000; stroke-width: 1.2; stroke-linecap: square"/>
   </g>
   <g id="line2d_39">
    <path d="M 200.853831 50.826083 
L 203.499845 52.215396 
L 206.145859 53.316554 
L 208.790245 54.181156 
L 211.916317 54.966931 
L 215.524073 55.637141 
L 219.85273 56.201572 
L 224.903915 56.629151 
L 230.915215 56.915534 
L 238.369944 57.043212 
L 247.508943 56.970446 
L 258.812271 56.650361 
L 272.759985 56.026329 
L 290.317083 55.007881 
L 312.681268 53.469229 
L 340.098266 51.347719 
L 346.591251 50.826994 
L 346.591251 50.826994 
" clip-path="url(#p9e59093f87)" style="fill: none; stroke-dasharray: 2.59,1.12; stroke-dashoffset: 0; stroke: #1f77b4; stroke-width: 0.7"/>
   </g>
   <g id="line2d_40">
    <path d="M 200.853831 50.626572 
L 207.346817 50.913252 
L 346.109566 56.849566 
L 346.350409 56.787513 
L 346.591251 56.398848 
L 346.591251 56.398848 
" clip-path="url(#p9e59093f87)" style="fill: none; stroke-dasharray: 2.59,1.12; stroke-dashoffset: 0; stroke: #ff7f0e; stroke-width: 0.7"/>
   </g>
   <g id="line2d_41">
    <path d="M 200.857086 50.489219 
L 201.099556 50.417406 
L 201.342026 50.347905 
L 201.584496 50.28123 
L 201.826966 50.217603 
L 202.069435 50.157375 
L 202.311905 50.100804 
L 202.554375 50.048289 
L 202.796845 50.000188 
L 203.039315 49.957006 
L 203.281785 49.91925 
L 203.524255 49.887597 
L 203.766725 49.862781 
L 204.009195 49.845766 
L 204.251664 49.837665 
L 204.494134 49.839945 
L 204.736604 49.854412 
L 204.979074 49.883515 
L 205.221544 49.93051 
L 205.464014 50.000095 
L 205.706484 50.099224 
L 205.948954 50.23925 
L 206.191424 50.440502 
L 206.433893 50.744039 
L 206.676363 52.698118 
" clip-path="url(#p9e59093f87)" style="fill: none; stroke-dasharray: 2.59,1.12; stroke-dashoffset: 0; stroke: #2ca02c; stroke-width: 0.7"/>
   </g>
   <g id="line2d_42">
    <path d="M 200.853831 50.832716 
L 202.29726 51.481848 
L 203.979903 52.000457 
L 206.145859 52.432916 
L 208.790245 52.738668 
L 212.398002 52.915112 
L 216.967501 52.900348 
L 222.978802 52.647249 
L 231.156058 52.06939 
L 243.180286 50.978384 
L 263.140928 48.915072 
L 310.757782 43.706981 
L 346.350409 39.866321 
L 346.591251 44.26857 
L 346.591251 44.26857 
" clip-path="url(#p9e59093f87)" style="fill: none; stroke-dasharray: 2.59,1.12; stroke-dashoffset: 0; stroke: #d62728; stroke-width: 0.7"/>
   </g>
   <g id="patch_8">
    <path d="M 200.614616 83.344409 
L 200.614616 17.864094 
" style="fill: none; stroke: #000000; stroke-width: 0.5; stroke-linejoin: miter; stroke-linecap: square"/>
   </g>
   <g id="patch_9">
    <path d="M 347.071309 83.344409 
L 347.071309 17.864094 
" style="fill: none; stroke: #000000; stroke-width: 0.5; stroke-linejoin: miter; stroke-linecap: square"/>
   </g>
   <g id="patch_10">
    <path d="M 200.614616 83.344409 
L 347.071309 83.344409 
" style="fill: none; stroke: #000000; stroke-width: 0.5; stroke-linejoin: miter; stroke-linecap: square"/>
   </g>
   <g id="patch_11">
    <path d="M 200.614616 17.864094 
L 347.071309 17.864094 
" style="fill: none; stroke: #000000; stroke-width: 0.5; stroke-linejoin: miter; stroke-linecap: square"/>
   </g>
  </g>
 </g>
 <defs>
  <clipPath id="p72314c7d9a">
   <rect x="17.54375" y="17.864094" width="146.456693" height="65.480315"/>
  </clipPath>
  <clipPath id="p9e59093f87">
   <rect x="200.614616" y="17.864094" width="146.456693" height="65.480315"/>
  </clipPath>
 </defs>
</svg>
