<?xml version="1.0" encoding="utf-8" standalone="no"?>
<!DOCTYPE svg PUBLIC "-//W3C//DTD SVG 1.1//EN"
  "http://www.w3.org/Graphics/SVG/1.1/DTD/svg11.dtd">
<svg xmlns:xlink="http://www.w3.org/1999/xlink" width="98.523983pt" height="69.915054pt" viewBox="0 0 98.523983 69.915054" xmlns="http://www.w3.org/2000/svg" version="1.1">
 <metadata>
  <rdf:RDF xmlns:dc="http://purl.org/dc/elements/1.1/" xmlns:cc="http://creativecommons.org/ns#" xmlns:rdf="http://www.w3.org/1999/02/22-rdf-syntax-ns#">
   <cc:Work>
    <dc:type rdf:resource="http://purl.org/dc/dcmitype/StillImage"/>
    <dc:date>2024-12-27T12:51:18.206535</dc:date>
    <dc:format>image/svg+xml</dc:format>
    <dc:creator>
     <cc:Agent>
      <dc:title>Matplotlib v3.7.5, https://matplotlib.org/</dc:title>
     </cc:Agent>
    </dc:creator>
   </cc:Work>
  </rdf:RDF>
 </metadata>
 <defs>
  <style type="text/css">*{stroke-linejoin: round; stroke-linecap: butt}</style>
 </defs>
 <g id="figure_1">
  <g id="patch_1">
   <path d="M 0 69.915054 
L 98.523983 69.915054 
L 98.523983 0 
L 0 0 
L 0 69.915054 
z
" style="fill: none"/>
  </g>
  <g id="axes_1">
   <g id="patch_2">
    <path d="M 17.577656 55.286929 
L 94.46742 55.286929 
L 94.46742 0.72 
L 17.577656 0.72 
L 17.577656 55.286929 
z
" style="fill: none"/>
   </g>
   <g id="matplotlib.axis_1">
    <g id="xtick_1">
     <g id="line2d_1">
      <defs>
       <path id="mb7c595cac6" d="M 0 0 
L 0 1 
" style="stroke: #000000; stroke-width: 0.5"/>
      </defs>
      <g>
       <use xlink:href="#mb7c595cac6" x="17.577656" y="55.286929" style="stroke: #000000; stroke-width: 0.5"/>
      </g>
     </g>
     <g id="text_1">
      <!-- 0 -->
      <g transform="translate(16.465469 62.650054) scale(0.04 -0.04)">
       <defs>
        <path id="ArialMT-30" d="M 266 2259 
Q 266 3072 433 3567 
Q 600 4063 929 4331 
Q 1259 4600 1759 4600 
Q 2128 4600 2406 4451 
Q 2684 4303 2865 4023 
Q 3047 3744 3150 3342 
Q 3253 2941 3253 2259 
Q 3253 1453 3087 958 
Q 2922 463 2592 192 
Q 2263 -78 1759 -78 
Q 1097 -78 719 397 
Q 266 969 266 2259 
z
M 844 2259 
Q 844 1131 1108 757 
Q 1372 384 1759 384 
Q 2147 384 2411 759 
Q 2675 1134 2675 2259 
Q 2675 3391 2411 3762 
Q 2147 4134 1753 4134 
Q 1366 4134 1134 3806 
Q 844 3388 844 2259 
z
" transform="scale(0.015625)"/>
       </defs>
       <use xlink:href="#ArialMT-30"/>
      </g>
     </g>
    </g>
    <g id="xtick_2">
     <g id="line2d_2">
      <g>
       <use xlink:href="#mb7c595cac6" x="30.392617" y="55.286929" style="stroke: #000000; stroke-width: 0.5"/>
      </g>
     </g>
     <g id="text_2">
      <!-- 50 -->
      <g transform="translate(28.168242 62.650054) scale(0.04 -0.04)">
       <defs>
        <path id="ArialMT-35" d="M 266 1200 
L 856 1250 
Q 922 819 1161 601 
Q 1400 384 1738 384 
Q 2144 384 2425 690 
Q 2706 997 2706 1503 
Q 2706 1984 2436 2262 
Q 2166 2541 1728 2541 
Q 1456 2541 1237 2417 
Q 1019 2294 894 2097 
L 366 2166 
L 809 4519 
L 3088 4519 
L 3088 3981 
L 1259 3981 
L 1013 2750 
Q 1425 3038 1878 3038 
Q 2478 3038 2890 2622 
Q 3303 2206 3303 1553 
Q 3303 931 2941 478 
Q 2500 -78 1738 -78 
Q 1113 -78 717 272 
Q 322 622 266 1200 
z
" transform="scale(0.015625)"/>
       </defs>
       <use xlink:href="#ArialMT-35"/>
       <use xlink:href="#ArialMT-30" x="55.615234"/>
      </g>
     </g>
    </g>
    <g id="xtick_3">
     <g id="line2d_3">
      <g>
       <use xlink:href="#mb7c595cac6" x="43.207578" y="55.286929" style="stroke: #000000; stroke-width: 0.5"/>
      </g>
     </g>
     <g id="text_3">
      <!-- 100 -->
      <g transform="translate(39.871015 62.650054) scale(0.04 -0.04)">
       <defs>
        <path id="ArialMT-31" d="M 2384 0 
L 1822 0 
L 1822 3584 
Q 1619 3391 1289 3197 
Q 959 3003 697 2906 
L 697 3450 
Q 1169 3672 1522 3987 
Q 1875 4303 2022 4600 
L 2384 4600 
L 2384 0 
z
" transform="scale(0.015625)"/>
       </defs>
       <use xlink:href="#ArialMT-31"/>
       <use xlink:href="#ArialMT-30" x="55.615234"/>
       <use xlink:href="#ArialMT-30" x="111.230469"/>
      </g>
     </g>
    </g>
    <g id="xtick_4">
     <g id="line2d_4">
      <g>
       <use xlink:href="#mb7c595cac6" x="56.022538" y="55.286929" style="stroke: #000000; stroke-width: 0.5"/>
      </g>
     </g>
     <g id="text_4">
      <!-- 150 -->
      <g transform="translate(52.685976 62.650054) scale(0.04 -0.04)">
       <use xlink:href="#ArialMT-31"/>
       <use xlink:href="#ArialMT-35" x="55.615234"/>
       <use xlink:href="#ArialMT-30" x="111.230469"/>
      </g>
     </g>
    </g>
    <g id="xtick_5">
     <g id="line2d_5">
      <g>
       <use xlink:href="#mb7c595cac6" x="68.837499" y="55.286929" style="stroke: #000000; stroke-width: 0.5"/>
      </g>
     </g>
     <g id="text_5">
      <!-- 200 -->
      <g transform="translate(65.500936 62.650054) scale(0.04 -0.04)">
       <defs>
        <path id="ArialMT-32" d="M 3222 541 
L 3222 0 
L 194 0 
Q 188 203 259 391 
Q 375 700 629 1000 
Q 884 1300 1366 1694 
Q 2113 2306 2375 2664 
Q 2638 3022 2638 3341 
Q 2638 3675 2398 3904 
Q 2159 4134 1775 4134 
Q 1369 4134 1125 3890 
Q 881 3647 878 3216 
L 300 3275 
Q 359 3922 746 4261 
Q 1134 4600 1788 4600 
Q 2447 4600 2831 4234 
Q 3216 3869 3216 3328 
Q 3216 3053 3103 2787 
Q 2991 2522 2730 2228 
Q 2469 1934 1863 1422 
Q 1356 997 1212 845 
Q 1069 694 975 541 
L 3222 541 
z
" transform="scale(0.015625)"/>
       </defs>
       <use xlink:href="#ArialMT-32"/>
       <use xlink:href="#ArialMT-30" x="55.615234"/>
       <use xlink:href="#ArialMT-30" x="111.230469"/>
      </g>
     </g>
    </g>
    <g id="xtick_6">
     <g id="line2d_6">
      <g>
       <use xlink:href="#mb7c595cac6" x="81.652459" y="55.286929" style="stroke: #000000; stroke-width: 0.5"/>
      </g>
     </g>
     <g id="text_6">
      <!-- 250 -->
      <g transform="translate(78.315897 62.650054) scale(0.04 -0.04)">
       <use xlink:href="#ArialMT-32"/>
       <use xlink:href="#ArialMT-35" x="55.615234"/>
       <use xlink:href="#ArialMT-30" x="111.230469"/>
      </g>
     </g>
    </g>
    <g id="xtick_7">
     <g id="line2d_7">
      <g>
       <use xlink:href="#mb7c595cac6" x="94.46742" y="55.286929" style="stroke: #000000; stroke-width: 0.5"/>
      </g>
     </g>
     <g id="text_7">
      <!-- 300 -->
      <g transform="translate(91.130858 62.650054) scale(0.04 -0.04)">
       <defs>
        <path id="ArialMT-33" d="M 269 1209 
L 831 1284 
Q 928 806 1161 595 
Q 1394 384 1728 384 
Q 2125 384 2398 659 
Q 2672 934 2672 1341 
Q 2672 1728 2419 1979 
Q 2166 2231 1775 2231 
Q 1616 2231 1378 2169 
L 1441 2663 
Q 1497 2656 1531 2656 
Q 1891 2656 2178 2843 
Q 2466 3031 2466 3422 
Q 2466 3731 2256 3934 
Q 2047 4138 1716 4138 
Q 1388 4138 1169 3931 
Q 950 3725 888 3313 
L 325 3413 
Q 428 3978 793 4289 
Q 1159 4600 1703 4600 
Q 2078 4600 2393 4439 
Q 2709 4278 2876 4000 
Q 3044 3722 3044 3409 
Q 3044 3113 2884 2869 
Q 2725 2625 2413 2481 
Q 2819 2388 3044 2092 
Q 3269 1797 3269 1353 
Q 3269 753 2831 336 
Q 2394 -81 1725 -81 
Q 1122 -81 723 278 
Q 325 638 269 1209 
z
" transform="scale(0.015625)"/>
       </defs>
       <use xlink:href="#ArialMT-33"/>
       <use xlink:href="#ArialMT-30" x="55.615234"/>
       <use xlink:href="#ArialMT-30" x="111.230469"/>
      </g>
     </g>
    </g>
    <g id="text_8">
     <!-- Time ($s$) -->
     <g transform="translate(47.122538 68.095054) scale(0.05 -0.05)">
      <defs>
       <path id="ArialMT-54" d="M 1659 0 
L 1659 4041 
L 150 4041 
L 150 4581 
L 3781 4581 
L 3781 4041 
L 2266 4041 
L 2266 0 
L 1659 0 
z
" transform="scale(0.015625)"/>
       <path id="ArialMT-69" d="M 425 3934 
L 425 4581 
L 988 4581 
L 988 3934 
L 425 3934 
z
M 425 0 
L 425 3319 
L 988 3319 
L 988 0 
L 425 0 
z
" transform="scale(0.015625)"/>
       <path id="ArialMT-6d" d="M 422 0 
L 422 3319 
L 925 3319 
L 925 2853 
Q 1081 3097 1340 3245 
Q 1600 3394 1931 3394 
Q 2300 3394 2536 3241 
Q 2772 3088 2869 2813 
Q 3263 3394 3894 3394 
Q 4388 3394 4653 3120 
Q 4919 2847 4919 2278 
L 4919 0 
L 4359 0 
L 4359 2091 
Q 4359 2428 4304 2576 
Q 4250 2725 4106 2815 
Q 3963 2906 3769 2906 
Q 3419 2906 3187 2673 
Q 2956 2441 2956 1928 
L 2956 0 
L 2394 0 
L 2394 2156 
Q 2394 2531 2256 2718 
Q 2119 2906 1806 2906 
Q 1569 2906 1367 2781 
Q 1166 2656 1075 2415 
Q 984 2175 984 1722 
L 984 0 
L 422 0 
z
" transform="scale(0.015625)"/>
       <path id="ArialMT-65" d="M 2694 1069 
L 3275 997 
Q 3138 488 2766 206 
Q 2394 -75 1816 -75 
Q 1088 -75 661 373 
Q 234 822 234 1631 
Q 234 2469 665 2931 
Q 1097 3394 1784 3394 
Q 2450 3394 2872 2941 
Q 3294 2488 3294 1666 
Q 3294 1616 3291 1516 
L 816 1516 
Q 847 969 1125 678 
Q 1403 388 1819 388 
Q 2128 388 2347 550 
Q 2566 713 2694 1069 
z
M 847 1978 
L 2700 1978 
Q 2663 2397 2488 2606 
Q 2219 2931 1791 2931 
Q 1403 2931 1139 2672 
Q 875 2413 847 1978 
z
" transform="scale(0.015625)"/>
       <path id="ArialMT-20" transform="scale(0.015625)"/>
       <path id="ArialMT-28" d="M 1497 -1347 
Q 1031 -759 709 28 
Q 388 816 388 1659 
Q 388 2403 628 3084 
Q 909 3875 1497 4659 
L 1900 4659 
Q 1522 4009 1400 3731 
Q 1209 3300 1100 2831 
Q 966 2247 966 1656 
Q 966 153 1900 -1347 
L 1497 -1347 
z
" transform="scale(0.015625)"/>
       <path id="STIXGeneral-Italic-73" d="M 2342 2829 
L 2214 1933 
L 2112 1933 
Q 2022 2675 1542 2675 
Q 1370 2675 1267 2579 
Q 1165 2483 1165 2310 
Q 1165 2067 1510 1658 
Q 1946 1152 1946 787 
Q 1946 397 1686 163 
Q 1427 -70 1024 -70 
Q 838 -70 672 -6 
Q 538 51 390 51 
Q 262 51 205 -83 
L 102 -83 
L 230 934 
L 333 934 
Q 461 64 973 64 
Q 1203 64 1331 192 
Q 1459 320 1459 557 
Q 1459 845 1101 1293 
Q 698 1798 698 2131 
Q 698 2451 909 2636 
Q 1120 2822 1472 2822 
Q 1600 2822 1830 2758 
Q 1971 2714 2061 2714 
Q 2189 2714 2253 2829 
L 2342 2829 
z
" transform="scale(0.015625)"/>
       <path id="ArialMT-29" d="M 791 -1347 
L 388 -1347 
Q 1322 153 1322 1656 
Q 1322 2244 1188 2822 
Q 1081 3291 891 3722 
Q 769 4003 388 4659 
L 791 4659 
Q 1378 3875 1659 3084 
Q 1900 2403 1900 1659 
Q 1900 816 1576 28 
Q 1253 -759 791 -1347 
z
" transform="scale(0.015625)"/>
      </defs>
      <use xlink:href="#ArialMT-54" transform="translate(0 0.203125)"/>
      <use xlink:href="#ArialMT-69" transform="translate(61.083984 0.203125)"/>
      <use xlink:href="#ArialMT-6d" transform="translate(83.300781 0.203125)"/>
      <use xlink:href="#ArialMT-65" transform="translate(166.601562 0.203125)"/>
      <use xlink:href="#ArialMT-20" transform="translate(222.216797 0.203125)"/>
      <use xlink:href="#ArialMT-28" transform="translate(250 0.203125)"/>
      <use xlink:href="#STIXGeneral-Italic-73" transform="translate(283.300781 0.203125)"/>
      <use xlink:href="#ArialMT-29" transform="translate(322.200775 0.203125)"/>
     </g>
    </g>
   </g>
   <g id="matplotlib.axis_2">
    <g id="ytick_1">
     <g id="line2d_8">
      <defs>
       <path id="m87a0d89582" d="M 0 0 
L -1 0 
" style="stroke: #000000; stroke-width: 0.5"/>
      </defs>
      <g>
       <use xlink:href="#m87a0d89582" x="17.577656" y="53.039486" style="stroke: #000000; stroke-width: 0.5"/>
      </g>
     </g>
     <g id="text_9">
      <!-- −15 -->
      <g transform="translate(6.292656 54.471049) scale(0.04 -0.04)">
       <defs>
        <path id="ArialMT-2212" d="M 3381 1997 
L 356 1997 
L 356 2522 
L 3381 2522 
L 3381 1997 
z
" transform="scale(0.015625)"/>
       </defs>
       <use xlink:href="#ArialMT-2212"/>
       <use xlink:href="#ArialMT-31" x="58.398438"/>
       <use xlink:href="#ArialMT-35" x="114.013672"/>
      </g>
     </g>
    </g>
    <g id="ytick_2">
     <g id="line2d_9">
      <g>
       <use xlink:href="#m87a0d89582" x="17.577656" y="28.24929" style="stroke: #000000; stroke-width: 0.5"/>
      </g>
     </g>
     <g id="text_10">
      <!-- 0 -->
      <g transform="translate(10.853281 29.680852) scale(0.04 -0.04)">
       <use xlink:href="#ArialMT-30"/>
      </g>
     </g>
    </g>
    <g id="ytick_3">
     <g id="line2d_10">
      <g>
       <use xlink:href="#m87a0d89582" x="17.577656" y="3.459093" style="stroke: #000000; stroke-width: 0.5"/>
      </g>
     </g>
     <g id="text_11">
      <!-- 15 -->
      <g transform="translate(8.628906 4.890655) scale(0.04 -0.04)">
       <use xlink:href="#ArialMT-31"/>
       <use xlink:href="#ArialMT-35" x="55.615234"/>
      </g>
     </g>
    </g>
    <g id="text_12">
     <!-- $x$ -->
     <g transform="translate(4.298906 29.128465) rotate(-90) scale(0.05 -0.05)">
      <defs>
       <path id="STIXGeneral-Italic-78" d="M 1555 2272 
L 1632 1907 
Q 1971 2426 2179 2624 
Q 2387 2822 2598 2822 
Q 2714 2822 2787 2755 
Q 2861 2688 2861 2585 
Q 2861 2483 2800 2419 
Q 2739 2355 2643 2355 
Q 2586 2355 2490 2409 
Q 2394 2464 2310 2464 
Q 2125 2464 1683 1690 
Q 1683 1606 1734 1402 
L 1939 544 
Q 2003 282 2131 282 
Q 2234 282 2432 538 
Q 2451 563 2476 598 
Q 2502 634 2521 662 
Q 2541 691 2566 717 
L 2662 659 
Q 2387 230 2227 80 
Q 2067 -70 1882 -70 
Q 1728 -70 1645 26 
Q 1562 122 1504 365 
L 1318 1126 
L 755 365 
Q 557 96 432 13 
Q 307 -70 147 -70 
Q 0 -70 -86 0 
Q -173 70 -173 198 
Q -173 294 -112 361 
Q -51 429 45 429 
Q 122 429 250 358 
Q 346 301 416 301 
Q 525 301 742 614 
L 1267 1357 
L 1088 2150 
Q 1024 2432 969 2509 
Q 915 2586 794 2586 
Q 717 2586 544 2541 
L 429 2509 
L 410 2611 
L 480 2637 
Q 992 2822 1229 2822 
Q 1350 2822 1420 2707 
Q 1491 2592 1555 2272 
z
" transform="scale(0.015625)"/>
      </defs>
      <use xlink:href="#STIXGeneral-Italic-78" transform="translate(0 0.90625)"/>
     </g>
    </g>
   </g>
   <g id="line2d_11">
    <path d="M 17.577656 34.506981 
L 17.599015 41.456088 
L 17.650275 17.507441 
L 17.662236 15.042192 
L 17.712642 38.869178 
L 17.725457 41.343707 
L 17.770737 20.291061 
L 17.787824 15.488077 
L 17.835667 37.592116 
L 17.851045 41.457511 
L 17.900597 18.189934 
L 17.914266 15.022244 
L 17.974924 41.27087 
L 17.976633 41.3364 
L 17.995428 36.173878 
L 18.040708 15.375024 
L 18.097095 40.520946 
L 18.102221 41.213079 
L 18.140666 24.25821 
L 18.165442 15.494117 
L 18.220119 39.96031 
L 18.228663 41.396717 
L 18.265399 24.689876 
L 18.29103 15.035833 
L 18.344853 39.554716 
L 18.354251 41.32941 
L 18.392696 24.095154 
L 18.417472 15.424798 
L 18.473858 40.376847 
L 18.480693 41.181873 
L 18.514867 26.426927 
L 18.543914 15.599705 
L 18.602864 41.079091 
L 18.606281 41.293146 
L 18.632765 31.644394 
L 18.668648 15.074783 
L 18.729306 41.137947 
L 18.732723 41.288131 
L 18.758353 31.726122 
L 18.795944 15.611677 
L 18.853185 40.646677 
L 18.858311 41.162558 
L 18.892485 26.414998 
L 18.920678 15.48871 
L 18.98219 41.254198 
L 18.983899 41.310527 
L 19.000986 36.873319 
L 19.04712 15.084143 
L 19.103506 40.370605 
L 19.109487 41.220388 
L 19.147078 24.571768 
L 19.171854 15.730576 
L 19.229094 40.269641 
L 19.235075 41.107414 
L 19.271811 25.054196 
L 19.298296 15.366022 
L 19.351265 39.320316 
L 19.362371 41.325419 
L 19.402525 22.360352 
L 19.424738 15.326243 
L 19.469164 36.392198 
L 19.487105 41.092916 
L 19.538365 17.810883 
L 19.549472 15.68491 
L 19.605004 39.789113 
L 19.613547 40.93365 
L 19.646012 27.262924 
L 19.675914 15.636402 
L 19.735718 40.838216 
L 19.738281 41.024659 
L 19.765619 31.340436 
L 19.802356 15.393512 
L 19.860451 40.551954 
L 19.864723 40.855517 
L 19.890353 31.833881 
L 19.927944 15.995186 
L 19.986893 40.48014 
L 19.990311 40.677051 
L 20.01765 30.958661 
L 20.052677 15.545671 
L 20.11419 40.57988 
L 20.116753 40.657105 
L 20.136403 34.686749 
L 20.17912 15.948104 
L 20.233797 39.778449 
L 20.241486 40.66137 
L 20.270534 29.783154 
L 20.303853 15.766478 
L 20.364511 40.382139 
L 20.367074 40.5309 
L 20.38587 35.357512 
L 20.429441 15.984724 
L 20.487536 39.907575 
L 20.492662 40.325929 
L 20.522564 29.223547 
L 20.555029 15.873011 
L 20.616541 40.40189 
L 20.617396 40.424721 
L 20.631065 38.07837 
L 20.680617 16.285438 
L 20.737858 39.706794 
L 20.742984 40.125542 
L 20.770323 31.06871 
L 20.805351 15.997164 
L 20.866863 40.032201 
L 20.868572 40.106818 
L 20.886513 35.821058 
L 20.930938 16.493649 
L 20.991596 39.95956 
L 20.99416 40.039194 
L 21.009538 36.781085 
L 21.056526 16.25119 
L 21.112913 39.319606 
L 21.119747 39.862979 
L 21.152212 27.288084 
L 21.182114 16.610257 
L 21.241064 39.690481 
L 21.243627 39.801516 
L 21.265839 33.764879 
L 21.307702 16.643278 
L 21.36836 39.653782 
L 21.369215 39.676141 
L 21.382884 37.242177 
L 21.431581 16.836282 
L 21.488822 39.112937 
L 21.494802 39.537729 
L 21.528122 26.866886 
L 21.556315 16.900549 
L 21.616119 39.285163 
L 21.619536 39.414686 
L 21.637477 34.882438 
L 21.681903 17.166309 
L 21.735726 38.414998 
L 21.743415 39.221723 
L 21.781006 25.024608 
L 21.805782 17.314671 
L 21.863877 38.69739 
L 21.869003 39.014898 
L 21.890362 33.258833 
L 21.93137 17.543307 
L 21.985193 38.048431 
L 21.993737 38.992736 
L 22.039871 21.338112 
L 22.055249 17.814199 
L 22.106509 36.991979 
L 22.117616 38.600059 
L 22.162041 22.230519 
L 22.179983 18.111052 
L 22.22868 36.244978 
L 22.241495 38.513985 
L 22.292755 19.991368 
L 22.303007 18.503612 
L 22.355977 36.996324 
L 22.365374 38.338287 
L 22.406383 23.807508 
L 22.426887 18.744764 
L 22.485836 37.606137 
L 22.489253 37.786776 
L 22.513175 32.255988 
L 22.549912 18.930142 
L 22.612278 37.602742 
L 22.621676 36.771722 
L 22.673791 19.215414 
L 22.731032 37.059684 
L 22.735303 37.278242 
L 22.760079 31.90834 
L 22.79767 19.337433 
L 22.858328 37.040605 
L 22.863454 36.877822 
L 22.901045 23.555572 
L 22.919841 19.601418 
L 22.979644 36.828999 
L 22.982207 36.862811 
L 22.99844 34.425372 
L 23.042011 19.756457 
L 23.103523 36.531835 
L 23.117193 34.855852 
L 23.164182 20.376071 
L 23.221422 36.154482 
L 23.226548 36.335119 
L 23.245344 32.512545 
L 23.284643 20.479602 
L 23.342739 36.28057 
L 23.346156 36.346732 
L 23.367514 31.424611 
L 23.405105 21.068874 
L 23.465763 35.856685 
L 23.470035 35.615572 
L 23.524713 21.377968 
L 23.581954 35.467168 
L 23.583662 35.49849 
L 23.595623 34.3536 
L 23.643466 21.651157 
L 23.701561 35.224317 
L 23.702415 35.227477 
L 23.708396 34.887019 
L 23.745132 24.196945 
L 23.761365 21.87888 
L 23.812625 34.395708 
L 23.817751 34.747502 
L 23.851925 27.165238 
L 23.878409 22.264484 
L 23.936504 34.240705 
L 23.940776 33.996117 
L 23.993745 22.477315 
L 24.053549 33.811728 
L 24.089431 25.934232 
L 24.107372 23.160643 
L 24.166322 33.485806 
L 24.194515 28.151337 
L 24.225271 23.357436 
L 24.280803 32.961117 
L 24.283366 32.806273 
L 24.336335 23.836503 
L 24.472175 26.741432 
L 24.508912 32.095614 
L 24.562735 24.584094 
L 24.571279 24.850609 
L 24.618267 32.275065 
L 24.676362 24.791276 
L 24.748981 30.221655 
L 24.788281 25.411322 
L 24.84125 31.402255 
L 24.87286 27.690402 
L 24.901054 25.339114 
L 24.953168 30.703012 
L 24.955731 30.701707 
L 25.011263 25.7722 
L 25.145395 27.661682 
L 25.174442 29.971455 
L 25.229974 26.239812 
L 25.271837 29.326882 
L 25.286361 29.699808 
L 25.323952 27.042982 
L 25.341038 26.380435 
L 25.393153 29.57388 
L 25.400842 29.463238 
L 25.44185 26.549222 
L 25.449539 26.447585 
L 25.482859 28.211496 
L 25.502509 29.392295 
L 25.560604 26.737049 
L 25.599903 28.688825 
L 25.61101 29.192339 
L 25.657998 26.783936 
L 25.669959 26.610368 
L 25.715239 28.720936 
L 25.720365 28.886841 
L 25.777606 26.940161 
L 25.82374 28.539749 
L 25.827157 28.583476 
L 25.88269 26.896829 
L 25.92028 28.017666 
L 25.930533 28.14067 
L 25.955308 27.515374 
L 26.076625 26.942453 
L 26.03049 28.032439 
L 26.077479 26.949206 
L 26.079188 26.929338 
L 26.110798 27.426377 
L 26.13472 27.81384 
L 26.184271 26.882291 
L 26.192815 26.948853 
L 26.193669 26.946204 
L 26.209047 27.255534 
L 26.244075 27.569685 
L 26.291918 26.993765 
L 26.336344 27.454542 
L 26.481581 26.814825 
L 26.34147 27.460743 
L 26.520881 27.079243 
L 26.540531 27.166937 
L 26.595209 26.766398 
L 26.614858 26.885531 
L 26.69004 26.579164 
L 26.643052 26.956002 
L 26.737883 26.878896 
L 26.738738 26.885767 
L 26.786581 26.48602 
L 26.817337 26.623128 
L 26.883975 26.326437 
L 26.834424 26.724684 
L 26.93609 26.435735 
L 26.945488 26.461254 
L 26.993331 26.048588 
L 27.029213 26.131184 
L 27.042028 26.202915 
L 27.083891 26.000159 
L 27.085599 26.003952 
L 27.239381 25.623519 
L 27.240235 25.62964 
L 27.30431 25.30119 
L 27.305165 25.311818 
L 27.41452 25.071058 
L 27.421355 25.088521 
L 27.423063 25.129047 
L 27.517041 24.752013 
L 27.654589 24.320033 
L 27.658861 24.33986 
L 27.659716 24.343729 
L 27.702432 24.033097 
L 27.704141 24.035349 
L 27.976675 22.437818 
L 27.97753 22.44544 
L 28.04246 22.040989 
L 28.044168 22.044943 
L 28.204784 21.385635 
L 28.04844 22.064214 
L 28.209056 21.386462 
L 28.237249 21.262115 
L 28.238103 21.265077 
L 28.400428 20.3673 
L 28.412389 20.375438 
L 28.452542 20.143885 
L 28.456814 20.158855 
L 28.606324 19.498004 
L 30.159513 12.110595 
L 30.308168 11.09594 
L 30.594371 9.590089 
L 30.31842 11.111426 
L 30.601206 9.643728 
L 30.664427 9.730276 
L 30.702872 9.548889 
L 30.790869 9.397917 
L 30.713125 9.609404 
L 30.814791 9.491969 
L 30.929272 9.666562 
L 30.874595 9.458234 
L 30.930981 9.639661 
L 30.959174 9.74272 
L 31.046317 9.460566 
L 31.174468 9.878521 
L 31.04888 9.440024 
L 31.20437 9.74849 
L 31.304327 9.404873 
L 31.209496 9.773256 
L 31.318851 9.480002 
L 31.438459 9.656212 
L 31.339355 9.460009 
L 31.441876 9.645984 
L 31.628976 9.458476 
L 31.636665 9.52744 
L 31.704158 9.790993 
L 31.638374 9.515234 
L 31.755419 9.551814 
L 31.810096 9.455313 
L 31.867337 9.510534 
L 31.879298 9.462854 
L 31.922015 9.796835 
L 31.946791 9.715109 
L 32.03137 9.417946 
L 31.953625 9.774914 
L 32.132182 9.536647 
L 32.21249 9.760102 
L 32.144997 9.499987 
L 32.241538 9.522779 
L 32.303904 9.448954 
L 32.25179 9.622957 
L 32.352602 9.506466 
L 32.485024 9.819786 
L 32.364563 9.464948 
L 32.49784 9.622203 
L 32.570458 9.45871 
L 32.610612 9.523849 
L 32.686649 9.790912 
L 32.616593 9.500939 
L 32.74987 9.657358 
L 32.772937 9.47447 
L 32.864351 9.49201 
L 32.989939 9.805167 
L 32.869477 9.464552 
L 32.993356 9.749591 
L 33.075373 9.456809 
L 33.106984 9.524991 
L 33.215485 9.896299 
L 33.130905 9.460764 
L 33.239406 9.679873 
L 33.252221 9.800592 
L 33.277851 9.518829 
L 33.35047 9.458274 
L 33.339364 9.559436 
L 33.388061 9.530954 
L 33.477767 9.813229 
L 33.399168 9.484029 
L 33.520484 9.599135 
L 33.555512 9.453178 
L 33.634965 9.496904 
L 33.719545 9.763536 
L 33.754573 9.590997 
L 33.756281 9.629945 
L 33.810105 9.500144 
L 33.847696 9.51314 
L 34.02369 9.703731 
L 33.856239 9.488019 
L 34.046757 9.57401 
L 34.118521 9.469217 
L 34.158675 9.528824 
L 34.234712 9.63354 
L 34.164656 9.475971 
L 34.23642 9.619003 
L 34.240692 9.679243 
L 34.329543 9.46475 
L 34.345776 9.53933 
L 34.389347 9.462817 
L 34.438899 9.573695 
L 34.450859 9.574644 
L 34.5081 9.80288 
L 34.467092 9.531983 
L 34.560215 9.545294 
L 34.71485 9.65898 
L 34.715705 9.648078 
L 34.767819 9.841074 
L 34.820788 9.542175 
L 34.82506 9.578001 
L 34.899388 9.450729 
L 34.934415 9.587838 
L 34.936124 9.566586 
L 34.948939 9.513338 
L 34.991656 9.759824 
L 35.039499 9.618765 
L 35.041208 9.657003 
L 35.095886 9.476326 
L 35.148 9.519737 
L 35.159107 9.465464 
L 35.230871 9.724353 
L 35.245395 9.679046 
L 35.377818 9.463608 
L 35.271025 9.775858 
L 35.389778 9.51105 
L 35.499134 9.792054 
L 35.469232 9.464359 
L 35.505114 9.627771 
L 35.585422 9.477315 
L 35.536725 9.772622 
L 35.618741 9.522307 
L 35.669147 9.445318 
L 35.701612 9.591788 
L 35.715282 9.557859 
L 35.800716 9.80616 
L 35.725534 9.530284 
L 35.825491 9.535695 
L 35.965603 9.52815 
L 35.971584 9.625402 
L 36.031387 9.824845 
L 35.985253 9.518708 
L 36.080939 9.580845 
L 36.168936 9.582269 
L 36.142451 9.463649 
L 36.182605 9.515827 
L 36.273165 9.865807 
L 36.203109 9.434811 
L 36.337241 9.621416 
L 36.409005 9.463051 
L 36.452577 9.476843 
L 36.453431 9.474192 
L 36.508109 9.660679 
L 36.529467 9.871726 
L 36.610629 9.48952 
L 36.612338 9.505159 
L 36.727674 9.815045 
L 36.750741 9.680151 
L 36.768682 9.651278 
L 36.798584 9.869281 
L 36.831049 9.841392 
L 36.948093 10.304659 
L 36.966889 10.218152 
L 36.989102 10.097594 
L 37.074536 9.712975 
L 37.112981 9.984146 
L 37.334255 9.430345 
L 37.166804 10.101108 
L 37.384661 9.715267 
L 37.41798 9.883662 
L 37.486327 9.584836 
L 37.694786 9.220758 
L 37.722125 9.45938 
L 37.781074 9.79 
L 37.826354 9.414863 
L 37.832335 9.44548 
L 37.906662 9.024595 
L 37.963049 9.237543 
L 38.033959 9.55106 
L 38.084365 9.463568 
L 38.14246 9.330647 
L 38.11683 9.485413 
L 38.197992 9.410045 
L 38.226185 9.318599 
L 38.249252 9.615291 
L 38.25865 9.719927 
L 38.351773 9.317494 
L 38.354336 9.338431 
L 38.474798 9.727395 
L 38.36886 9.285695 
L 38.475652 9.707169 
L 38.582445 9.343248 
L 38.526058 9.772146 
L 38.589279 9.405542 
L 38.726828 9.801576 
L 38.602095 9.346052 
L 38.732808 9.798296 
L 38.844727 9.527754 
L 38.759293 9.85083 
L 38.859251 9.6478 
L 38.92418 9.910756 
L 38.863522 9.610945 
L 38.980567 9.697372 
L 38.992528 9.629631 
L 39.084796 9.918382 
L 39.211239 9.465896 
L 39.122387 9.96732 
L 39.275314 9.766344 
L 39.335972 9.952981 
L 39.281294 9.752674 
L 39.395776 9.784356 
L 39.475229 9.495129 
L 39.50684 9.767248 
L 39.595691 9.971432 
L 39.513675 9.747065 
L 39.623884 9.809989 
L 39.697358 9.486635 
L 39.740075 9.643139 
L 39.857119 9.961752 
L 39.86908 9.902343 
L 39.943407 9.527637 
L 39.989542 9.681176 
L 40.066432 9.961079 
L 39.994668 9.675725 
L 40.113421 9.86375 
L 40.18604 9.480042 
L 40.12111 9.913128 
L 40.234737 9.666445 
L 40.291124 9.965585 
L 40.355199 9.896815 
L 40.368868 9.900406 
L 40.395353 9.607274 
L 40.435507 9.409965 
L 40.497874 9.793793 
L 40.498728 9.791897 
L 40.588434 9.944293 
L 40.612355 9.874575 
L 40.68412 9.444882 
L 40.730254 9.594277 
L 40.843881 9.95942 
L 40.84559 9.955987 
L 40.907102 9.478618 
L 40.907957 9.479602 
L 40.933587 9.388596 
L 41.006206 9.891005 
L 41.007914 9.881523 
L 41.050631 9.958395 
L 41.106163 9.605454 
L 41.109581 9.624652 
L 41.146317 9.414863 
L 41.183054 9.206458 
L 41.251401 9.556515 
L 41.296681 9.88488 
L 41.361611 9.545927 
L 41.423123 9.248449 
L 41.363319 9.55106 
L 41.482927 9.511207 
L 41.558963 9.868608 
L 41.598263 9.550943 
L 41.663193 9.228065 
L 41.713599 9.45298 
L 41.787072 9.872005 
L 41.838332 9.610275 
L 41.858836 9.486119 
L 41.916077 9.265827 
L 41.968192 9.522029 
L 41.969046 9.506426 
L 42.037393 9.833298 
L 42.089508 9.594394 
L 42.162981 9.242562 
L 42.207407 9.468745 
L 42.209115 9.460723 
L 42.266356 9.788144 
L 42.267211 9.774482 
L 42.285152 9.898316 
L 42.358625 9.391517 
L 42.362042 9.402734 
L 42.384255 9.205115 
L 42.458583 9.535659 
L 42.461146 9.516812 
L 42.515823 9.809041 
L 42.574773 9.587878 
L 42.645683 9.254017 
L 42.689254 9.463209 
L 42.768708 9.852057 
L 42.816551 9.598264 
L 42.88917 9.242207 
L 42.935304 9.530918 
L 43.01134 9.840719 
L 42.942139 9.505123 
L 43.055766 9.58764 
L 43.12155 9.276015 
L 43.170247 9.500616 
L 43.19246 9.510614 
L 43.202712 9.598663 
L 43.244575 9.828319 
L 43.310359 9.527048 
L 43.311213 9.529179 
L 43.34795 9.327133 
L 43.368454 9.260138 
L 43.430821 9.510969 
L 43.455597 9.590484 
L 43.456451 9.616949 
L 43.507711 9.812793 
L 43.552137 9.529574 
L 43.624756 9.234856 
L 43.656366 9.536962 
L 43.663201 9.531115 
L 43.666618 9.496355 
L 43.727277 9.77606 
L 43.736674 9.736954 
L 43.743509 9.803432 
L 43.828089 9.29387 
L 43.828943 9.296242 
L 43.834923 9.267365 
L 43.91694 9.535066 
L 43.923775 9.535066 
L 43.99383 9.786724 
L 43.926338 9.53072 
L 44.034839 9.544822 
L 44.085245 9.277004 
L 44.14932 9.491533 
L 44.155301 9.475459 
L 44.191183 9.635316 
L 44.235609 9.799599 
L 44.286869 9.464673 
L 44.287723 9.468309 
L 44.350944 9.242877 
L 44.391098 9.521553 
L 44.396224 9.499317 
L 44.461154 9.807068 
L 44.403059 9.497065 
L 44.51156 9.580651 
L 44.554277 9.283326 
L 44.626042 9.490585 
L 44.717456 9.752044 
L 44.74394 9.616594 
L 44.744795 9.624099 
L 44.808016 9.285061 
L 44.820831 9.32259 
L 44.825957 9.29901 
L 44.897722 9.559755 
L 44.905411 9.548062 
L 44.961797 9.739875 
L 45.012203 9.449034 
L 45.083968 9.296516 
L 45.113015 9.534432 
L 45.11985 9.524042 
L 45.191614 9.735848 
L 45.230914 9.545847 
L 45.276194 9.287632 
L 45.341978 9.524478 
L 45.439373 9.722969 
L 45.48209 9.580567 
L 45.541039 9.309041 
L 45.483798 9.580809 
L 45.599989 9.463289 
L 45.67517 9.736954 
L 45.601697 9.46191 
L 45.724722 9.577686 
L 45.763167 9.301181 
L 45.840058 9.507213 
L 45.916094 9.705986 
L 45.959665 9.568402 
L 46.004091 9.299877 
L 46.078419 9.467595 
L 46.170687 9.692554 
L 46.223656 9.534154 
L 46.252704 9.304497 
L 46.225365 9.53854 
L 46.337283 9.514052 
L 46.373166 9.618176 
L 46.402213 9.711438 
L 46.473123 9.372913 
L 46.486793 9.320455 
L 46.561975 9.520649 
L 46.655098 9.626548 
L 46.679019 9.551258 
L 46.751638 9.363943 
L 46.692689 9.56868 
L 46.796918 9.463051 
L 46.802898 9.44761 
L 46.860994 9.584795 
L 46.874663 9.577411 
L 46.905419 9.627932 
L 46.958388 9.480672 
L 47.019046 9.296282 
L 47.0592 9.526334 
L 47.123276 9.668696 
L 47.176245 9.573655 
L 47.235194 9.282181 
L 47.290726 9.500777 
L 47.365908 9.635828 
L 47.403499 9.557859 
L 47.495768 9.335429 
L 47.522252 9.363943 
L 47.614521 9.656805 
L 47.642714 9.612684 
L 47.708498 9.301891 
L 47.644423 9.613947 
L 47.769156 9.407358 
L 47.827251 9.657637 
L 47.897307 9.552206 
L 47.971635 9.380381 
L 47.899016 9.554025 
L 48.016915 9.498211 
L 48.087825 9.630183 
L 48.130542 9.540751 
L 48.221956 9.38168 
L 48.142503 9.563544 
L 48.261256 9.453416 
L 48.353524 9.655857 
L 48.3783 9.540319 
L 48.438104 9.311292 
L 48.390261 9.559912 
L 48.500471 9.479961 
L 48.557712 9.654635 
L 48.617515 9.548889 
L 48.681591 9.406212 
L 48.620078 9.559598 
L 48.738832 9.508795 
L 48.814868 9.60802 
L 48.853313 9.587366 
L 48.973775 9.383976 
L 49.0182 9.531467 
L 49.087402 9.611458 
L 49.020764 9.526968 
L 49.12841 9.527875 
L 49.182234 9.360586 
L 49.236057 9.555603 
L 49.23862 9.524595 
L 49.299278 9.638043 
L 49.251435 9.509509 
L 49.352247 9.561413 
L 49.353102 9.567813 
L 49.409488 9.452742 
L 49.452205 9.485134 
L 49.45904 9.446186 
L 49.554726 9.632947 
L 49.557289 9.607233 
L 49.564123 9.658863 
L 49.661518 9.397287 
L 49.662372 9.403646 
L 49.695692 9.341316 
L 49.759767 9.592223 
L 49.817862 9.658149 
L 49.862288 9.503739 
L 49.901587 9.302008 
L 49.966517 9.540674 
L 49.969935 9.529574 
L 50.030593 9.669249 
L 49.992147 9.52491 
L 50.090396 9.574765 
L 50.186937 9.342062 
L 50.21513 9.42541 
L 50.281768 9.706341 
L 50.333029 9.556555 
L 50.412482 9.302916 
L 50.338155 9.576855 
L 50.457762 9.459025 
L 50.515003 9.741219 
L 50.579079 9.568954 
L 50.645717 9.3011 
L 50.695269 9.494733 
L 50.774722 9.721311 
L 50.697832 9.482685 
L 50.80975 9.582108 
L 50.928503 9.312753 
L 50.937901 9.342655 
L 50.99087 9.446698 
L 51.042985 9.315206 
L 51.14636 8.804772 
L 51.168573 8.884129 
L 51.218979 9.035852 
L 51.280491 8.900878 
L 51.379595 8.456139 
L 51.423166 8.531821 
L 51.441961 8.584674 
L 51.521415 8.396411 
L 51.522269 8.402613 
L 51.527395 8.400168 
L 51.548754 8.264951 
L 51.737563 7.741646 
L 51.799075 7.86023 
L 51.842647 7.658459 
L 51.844355 7.680259 
L 51.87084 7.523404 
L 51.933207 7.873775 
L 51.951148 7.795132 
L 52.027184 7.87844 
L 51.991302 7.767324 
L 52.060503 7.780042 
L 52.119453 7.598731 
L 52.159606 7.8419 
L 52.166441 7.829299 
L 52.272379 7.91391 
L 52.207449 7.77597 
L 52.282631 7.893252 
L 52.28434 7.907668 
L 52.312533 7.767086 
L 52.314242 7.765702 
L 52.357813 7.553343 
L 52.412491 7.826023 
L 52.526118 7.894474 
L 52.472295 7.767364 
L 52.529535 7.884956 
L 52.602154 7.400716 
L 52.649143 7.706611 
L 52.651706 7.711033 
L 52.743975 7.323057 
L 52.868708 6.772298 
L 52.755935 7.365246 
L 52.876397 6.794575 
L 52.887504 6.900675 
L 52.972938 6.545006 
L 52.975501 6.579492 
L 53.104506 6.202378 
L 53.106215 6.204432 
L 53.113904 6.217347 
L 53.179688 6.086723 
L 53.195066 6.141427 
L 53.317236 5.765854 
L 53.318091 5.768537 
L 53.438553 5.642573 
L 53.355682 5.808281 
L 53.440261 5.644901 
L 53.441116 5.654185 
L 53.5069 5.307643 
L 53.521423 5.32214 
L 53.524841 5.283587 
L 53.581227 5.243654 
L 53.699126 4.880444 
L 53.700835 4.888187 
L 53.846927 4.389486 
L 53.702543 4.890358 
L 53.874266 4.497955 
L 53.951156 4.535955 
L 53.969097 4.382691 
L 54.016086 4.21284 
L 54.074181 4.517589 
L 54.139965 4.558272 
L 54.173284 4.472241 
L 54.23138 4.32103 
L 54.284349 4.449605 
L 54.388578 4.559935 
L 54.322794 4.428592 
L 54.399684 4.554681 
L 54.487681 4.31566 
L 54.531253 4.382102 
L 54.603017 4.562464 
L 54.541505 4.369146 
L 54.650006 4.504947 
L 54.733731 4.223742 
L 54.66453 4.560923 
L 54.771322 4.459245 
L 54.822582 4.566294 
L 54.796952 4.44135 
L 54.886658 4.498782 
L 54.991742 4.355004 
L 54.914851 4.526397 
L 55.009683 4.387589 
L 55.127582 4.561553 
L 55.139542 4.492823 
L 55.213015 4.208216 
L 55.167735 4.531771 
L 55.256587 4.403866 
L 55.335186 4.565067 
L 55.267693 4.37001 
L 55.371923 4.510282 
L 55.37534 4.547729 
L 55.433435 4.244993 
L 55.471026 4.350299 
L 55.472735 4.345679 
L 55.540227 4.582332 
L 55.541082 4.577749 
L 55.547917 4.608163 
L 55.629933 4.445696 
L 55.642748 4.49037 
L 55.758084 4.338255 
L 55.758938 4.366653 
L 55.798238 4.3981 
L 55.842664 4.210907 
L 55.856333 4.212525 
L 55.951165 3.587307 
L 56.010968 3.813683 
L 56.012677 3.818779 
L 56.06052 3.63123 
L 56.16475 3.478676 
L 56.114344 3.716394 
L 56.175856 3.505298 
L 56.266416 3.771417 
L 56.184399 3.49444 
L 56.293755 3.737053 
L 56.385169 3.718565 
L 56.302298 3.703947 
L 56.387732 3.679854 
L 56.450953 3.567713 
L 56.497088 3.710544 
L 56.501359 3.656589 
L 56.611569 3.749415 
L 56.686751 3.398334 
L 56.723488 3.68033 
L 56.753389 3.771377 
L 56.843949 3.731008 
L 56.892647 3.443956 
L 56.955014 3.698185 
L 57.002002 3.766003 
L 56.968683 3.689808 
L 57.066932 3.724924 
L 57.180559 3.576364 
L 57.202772 3.668044 
L 57.242926 3.752772 
L 57.290769 3.638731 
L 57.31469 3.713231 
L 57.352281 3.702926 
L 57.360825 3.634313 
L 57.386455 3.379725 
L 57.460782 3.769642 
L 57.467617 3.767387 
L 57.635068 3.401017 
L 57.47018 3.772087 
L 57.635922 3.437638 
L 57.714521 3.750009 
L 57.759801 3.705133 
L 57.898204 3.482626 
L 57.779451 3.738832 
L 57.930669 3.686056 
L 58.047714 3.765454 
L 58.005851 3.587226 
L 58.048568 3.756844 
L 58.11008 3.200315 
L 58.163049 3.687674 
L 58.186971 3.754669 
L 58.227979 3.567988 
L 58.275822 3.744005 
L 58.333917 3.335406 
L 58.281803 3.745582 
L 58.396284 3.705528 
L 58.541522 3.710269 
L 58.414225 3.772918 
L 58.553483 3.752062 
L 58.554337 3.766874 
L 58.601326 3.446405 
L 58.662838 3.728321 
L 58.726059 3.573596 
L 58.679925 3.758462 
L 58.773048 3.73792 
L 58.782445 3.765845 
L 58.816619 3.448495 
L 58.843104 3.269993 
L 58.906325 3.769085 
L 58.921703 3.668359 
L 58.998593 3.765297 
L 58.953313 3.600577 
L 59.02935 3.645925 
L 59.059251 3.462246 
L 59.117347 3.725678 
L 59.134433 3.713231 
L 59.227556 3.712642 
L 59.152374 3.768811 
L 59.233537 3.742895 
L 59.24208 3.77051 
L 59.333494 3.506287 
L 59.33862 3.589239 
L 59.350581 3.489344 
L 59.401842 3.739695 
L 59.402696 3.73144 
L 59.491547 3.771417 
L 59.463354 3.640627 
L 59.512906 3.718327 
L 59.51376 3.721841 
L 59.542808 3.391261 
L 59.56502 3.308465 
L 59.607737 3.76802 
L 59.640202 3.690163 
L 59.758101 3.527934 
L 59.705132 3.767701 
L 59.760664 3.608002 
L 59.801672 3.768258 
L 59.776042 3.572886 
L 59.875146 3.724056 
L 59.967414 3.731246 
L 59.880272 3.750049 
L 59.975103 3.770074 
L 59.980229 3.777381 
L 60.044305 3.606501 
L 60.080187 3.430802 
L 60.134865 3.772684 
L 60.149389 3.724016 
L 60.273268 3.216039 
L 60.204066 3.753878 
L 60.282665 3.396514 
L 60.349304 3.797011 
L 60.292918 3.385338 
L 60.410816 3.762605 
L 60.411671 3.76549 
L 60.461222 3.57028 
L 60.479164 3.613057 
L 60.481727 3.564114 
L 60.528715 3.773826 
L 60.584247 3.722753 
L 60.615858 3.69139 
L 60.678225 3.772918 
L 60.69104 3.753604 
L 60.740591 3.767427 
L 60.778182 3.500598 
L 60.780745 3.520191 
L 60.80723 3.392681 
L 60.85251 3.770784 
L 60.881557 3.68558 
L 60.94905 3.784809 
L 60.978098 3.532832 
L 61.001165 3.318262 
L 61.05328 3.736338 
L 61.08489 3.709123 
L 61.10454 3.699569 
L 61.146403 4.100856 
L 61.205352 50.949561 
L 61.265156 8.044813 
L 61.266864 7.580247 
L 61.315562 38.938501 
L 61.342046 49.986846 
L 61.397578 5.189736 
L 61.40185 4.136326 
L 61.430898 28.979117 
L 61.463363 52.806614 
L 61.521458 4.654774 
L 61.522312 4.589442 
L 61.536836 11.7701 
L 61.583824 49.791831 
L 61.641919 9.142227 
L 61.646191 8.302318 
L 61.682073 27.77817 
L 61.717101 49.681466 
L 61.77007 7.782055 
L 61.777759 4.750445 
L 61.817059 38.427835 
L 61.839272 52.086674 
L 61.897367 5.429859 
L 61.89993 5.085806 
L 61.926414 21.82255 
L 61.962297 49.766432 
L 62.023809 8.451987 
L 62.028935 8.089177 
L 62.050294 19.273323 
L 62.093011 48.778595 
L 62.149397 7.822311 
L 62.155377 6.659879 
L 62.192114 34.033289 
L 62.217744 51.329324 
L 62.274985 5.494445 
L 62.278402 4.978209 
L 62.310013 27.848758 
L 62.339915 49.978038 
L 62.405699 7.48979 
L 62.406553 7.44863 
L 62.418514 12.079586 
L 62.470629 48.310748 
L 62.525306 9.006543 
L 62.534704 7.011751 
L 62.570586 34.314139 
L 62.596217 50.882015 
L 62.654312 5.47331 
L 62.659438 5.325655 
L 62.66969 9.102335 
L 62.720096 50.436011 
L 62.779045 8.063934 
L 62.784171 7.521786 
L 62.808947 22.236716 
L 62.846538 48.031752 
L 62.907196 8.633536 
L 62.912322 8.011203 
L 62.94137 26.059056 
L 62.975543 50.458211 
L 63.03193 6.233111 
L 63.036201 5.189381 
L 63.066103 26.817233 
L 63.098568 50.088404 
L 63.158372 7.500809 
L 63.160935 7.264003 
L 63.184002 19.776523 
L 63.225865 47.721198 
L 63.280542 10.484784 
L 63.28994 7.651547 
L 63.340346 45.197212 
L 63.354016 49.482815 
L 63.399296 13.02761 
L 63.416382 5.703996 
L 63.471914 49.946873 
L 63.47704 50.63545 
L 63.506942 29.447635 
L 63.538553 6.882188 
L 63.60092 48.022155 
L 63.603483 48.117944 
L 63.619715 41.980699 
L 63.666704 8.839294 
L 63.722236 46.852139 
L 63.730779 49.051547 
L 63.771788 18.808204 
L 63.793146 6.396761 
L 63.853804 50.206591 
L 63.855513 50.276664 
L 63.871745 43.523522 
L 63.91788 6.920466 
L 63.976829 47.856844 
L 63.980246 48.174588 
L 64.005022 35.666411 
L 64.045176 9.31149 
L 64.104126 47.721434 
L 64.109252 48.302767 
L 64.136591 32.615801 
L 64.172473 6.645144 
L 64.228859 49.381694 
L 64.233131 50.209434 
L 64.264741 28.588135 
L 64.294643 6.97229 
L 64.357864 48.620434 
L 64.358719 48.633114 
L 64.365553 47.367191 
L 64.422794 9.020726 
L 64.479181 46.201324 
L 64.487724 47.936357 
L 64.523606 23.536095 
L 64.550945 7.472173 
L 64.608186 49.338559 
L 64.613312 49.855586 
L 64.637233 34.961912 
L 64.674824 7.020519 
L 64.732065 48.378689 
L 64.736337 48.765324 
L 64.760258 36.215314 
L 64.802121 8.763967 
L 64.859362 46.924505 
L 64.864488 47.347124 
L 64.890972 34.378168 
L 64.928563 7.571278 
L 64.986658 48.948924 
L 64.99093 49.619371 
L 65.020832 29.253923 
L 65.052442 6.761513 
L 65.113955 49.037643 
L 65.114809 49.028794 
L 65.127624 44.970043 
L 65.177176 8.850317 
L 65.236125 46.344396 
L 65.24296 47.272112 
L 65.275425 27.478319 
L 65.307035 8.287313 
L 65.361713 47.469616 
L 65.369402 48.969345 
L 65.406139 21.987584 
L 65.431769 6.989785 
L 65.490718 48.863403 
L 65.493281 49.049689 
L 65.513786 39.022836 
L 65.557357 8.811921 
L 65.616306 47.088631 
L 65.619724 47.443388 
L 65.6445 35.867943 
L 65.683799 8.953569 
L 65.742749 48.233721 
L 65.747875 48.760821 
L 65.774359 33.091784 
L 65.809387 7.172278 
L 65.870899 49.119212 
L 65.871754 49.104083 
L 65.885423 44.110624 
L 65.933266 8.372081 
L 65.992216 46.445873 
L 65.998196 47.237035 
L 66.030661 27.999061 
L 66.063126 9.062043 
L 66.119512 47.377896 
L 66.126347 48.585042 
L 66.162229 23.100758 
L 66.188714 7.05674 
L 66.250226 49.254739 
L 66.257915 47.933119 
L 66.312593 8.299756 
L 66.370688 46.711557 
L 66.376668 47.326702 
L 66.404007 32.448711 
L 66.443307 9.034037 
L 66.498839 47.393618 
L 66.503965 48.162027 
L 66.534721 29.268695 
L 66.565477 7.497137 
L 66.626136 48.884812 
L 66.628699 49.091877 
L 66.648348 39.812182 
L 66.691065 8.02317 
L 66.750015 47.110869 
L 66.755141 47.576823 
L 66.780771 33.155381 
L 66.818362 9.585865 
L 66.874748 46.03072 
L 66.882437 47.476371 
L 66.917465 24.616131 
L 66.94395 7.64349 
L 67.000336 47.692442 
L 67.007171 48.836584 
L 67.038781 28.05294 
L 67.069538 7.900599 
L 67.13105 47.901163 
L 67.131904 47.91167 
L 67.137885 46.83859 
L 67.19598 9.59554 
L 67.251512 45.827014 
L 67.259201 47.635046 
L 67.295938 24.137185 
L 67.323276 8.095059 
L 67.380517 48.182805 
L 67.385643 48.841994 
L 67.413836 31.340397 
L 67.447156 8.225454 
L 67.509522 47.995412 
L 67.523192 43.910591 
L 67.573598 9.67541 
L 67.629984 45.906965 
L 67.637673 47.308809 
L 67.673556 24.667164 
L 67.703457 8.712732 
L 67.755572 46.642667 
L 67.764116 48.597839 
L 67.801707 22.066074 
L 67.825628 8.198868 
L 67.883723 47.306675 
L 67.888849 47.950104 
L 67.917042 31.509422 
L 67.951216 9.517566 
L 68.012728 46.540438 
L 68.015291 46.754651 
L 68.038359 36.752881 
L 68.079367 9.141005 
L 68.134045 46.341552 
L 68.142588 48.101395 
L 68.17847 23.298579 
L 68.205809 8.228654 
L 68.263904 48.237473 
L 68.266467 48.406378 
L 68.284408 41.163545 
L 68.32798 9.267405 
L 68.389492 46.410955 
L 68.393764 46.892548 
L 68.425374 28.837741 
L 68.457839 9.127335 
L 68.51508 46.948363 
L 68.52106 47.942837 
L 68.552671 27.41283 
L 68.580864 7.911066 
L 68.643231 48.391488 
L 68.64494 48.491226 
L 68.661172 41.847857 
L 68.708161 9.358968 
L 68.765401 45.871532 
L 68.771382 46.75943 
L 68.807264 25.03077 
L 68.836312 9.527125 
L 68.891844 46.37402 
L 68.897824 47.589107 
L 68.934561 24.388762 
L 68.961899 8.487264 
L 69.024266 48.230402 
L 69.025121 48.202753 
L 69.046479 36.669613 
L 69.087487 8.959339 
L 69.147291 46.632988 
L 69.149854 46.743039 
L 69.16865 39.52817 
L 69.213075 9.768672 
L 69.269462 46.127655 
L 69.276296 47.439397 
L 69.314742 22.354905 
L 69.340372 8.400878 
L 69.395904 47.545894 
L 69.401884 48.553994 
L 69.436912 24.854829 
L 69.463397 8.603121 
L 69.524909 46.924505 
L 69.527472 47.044864 
L 69.547122 39.233771 
L 69.590693 10.57836 
L 69.647934 45.987349 
L 69.654769 47.000227 
L 69.688942 25.873443 
L 69.71799 9.248449 
L 69.776085 47.677904 
L 69.780357 48.222742 
L 69.809404 30.679785 
L 69.843578 8.646335 
L 69.905944 46.973169 
L 69.914488 45.258163 
L 69.968311 10.264528 
L 70.024698 44.967989 
L 70.03495 46.791979 
L 70.073395 20.666085 
L 70.096462 9.358101 
L 70.155412 47.318684 
L 70.158829 47.769034 
L 70.186168 32.302202 
L 70.220341 8.960207 
L 70.280145 46.673714 
L 70.284417 47.085748 
L 70.310047 33.585939 
L 70.347638 9.864343 
L 70.40915 46.650606 
L 70.411713 46.731822 
L 70.427946 40.624081 
L 70.475789 9.308133 
L 70.530467 46.476526 
L 70.537301 47.693902 
L 70.571475 25.514178 
L 70.599668 8.328553 
L 70.661181 47.448958 
L 70.662889 47.381134 
L 70.682539 38.453707 
L 70.723547 9.173828 
L 70.784205 46.001725 
L 70.788477 46.38279 
L 70.814962 33.573141 
L 70.851698 10.03716 
L 70.912356 47.416606 
L 70.916628 47.816869 
L 70.941404 33.23142 
L 70.97814 8.776213 
L 71.037944 47.307229 
L 71.040507 47.403412 
L 71.05674 41.434363 
L 71.103728 10.253114 
L 71.160115 45.452823 
L 71.166949 46.592223 
L 71.203686 23.790957 
L 71.232734 9.535735 
L 71.287411 46.294822 
L 71.293392 47.242922 
L 71.324148 29.359863 
L 71.355758 8.718857 
L 71.418125 47.882439 
L 71.420688 47.762041 
L 71.449736 28.633601 
L 71.481346 9.378678 
L 71.54115 46.25453 
L 71.543713 46.546087 
L 71.569343 34.931497 
L 71.610352 9.95875 
L 71.665884 45.94761 
L 71.671864 46.986127 
L 71.706892 25.186995 
L 71.735939 9.186506 
L 71.790617 46.493313 
L 71.797452 47.576863 
L 71.829062 27.529395 
L 71.859819 9.699071 
L 71.919622 46.495092 
L 71.92304 46.676084 
L 71.945253 36.499048 
L 71.987115 10.212067 
L 72.04521 46.207368 
L 72.050336 46.775271 
L 72.07853 31.385666 
L 72.111849 8.676197 
L 72.173361 47.316592 
L 72.175924 47.487156 
L 72.198137 36.426959 
L 72.237437 9.211119 
L 72.296386 46.164153 
L 72.300658 46.521281 
L 72.325434 34.998607 
L 72.364733 10.041267 
L 72.422828 46.053117 
L 72.428809 46.613751 
L 72.455293 32.552914 
L 72.49203 8.918494 
L 72.548416 46.991776 
L 72.553542 47.705872 
L 72.586007 27.435582 
L 72.615909 9.153759 
L 72.676567 46.883226 
L 72.67913 47.120589 
L 72.702197 36.01299 
L 72.743206 10.202827 
L 72.802155 46.31402 
L 72.805572 46.60688 
L 72.833766 32.148625 
L 72.870502 9.27823 
L 72.926889 46.59732 
L 72.932015 47.256667 
L 72.962771 29.209919 
L 72.995236 9.129231 
L 73.055894 47.12118 
L 73.057603 47.188725 
L 73.072126 42.160862 
L 73.119969 10.154005 
L 73.176356 44.984065 
L 73.184045 46.341435 
L 73.223344 21.864815 
L 73.24812 9.635869 
L 73.303652 46.214004 
L 73.310487 47.410484 
L 73.343806 26.274177 
L 73.371999 9.12169 
L 73.430949 46.565087 
L 73.435221 47.041548 
L 73.462559 32.375951 
L 73.499296 10.289649 
L 73.553119 44.681924 
L 73.561663 46.635437 
L 73.601817 21.471073 
L 73.625738 9.583649 
L 73.687251 46.925217 
L 73.688959 46.995686 
L 73.706046 40.858993 
L 73.750472 8.906091 
L 73.809421 46.528864 
L 73.813693 46.945203 
L 73.839323 34.232609 
L 73.87606 10.31402 
L 73.935863 45.945318 
L 73.940135 46.356404 
L 73.96662 33.231618 
L 74.005065 9.915731 
L 74.064869 46.810269 
L 74.066577 46.927428 
L 74.086227 39.141693 
L 74.129798 8.808092 
L 74.187894 46.791031 
L 74.192165 47.207607 
L 74.217795 33.851782 
L 74.253678 9.586768 
L 74.316044 46.245407 
L 74.318607 46.395944 
L 74.338257 38.491275 
L 74.381829 10.012866 
L 74.440778 46.410481 
L 74.44505 46.794586 
L 74.468971 35.288585 
L 74.508271 8.986401 
L 74.56722 46.93995 
L 74.570638 47.209069 
L 74.595413 34.360829 
L 74.633004 9.206733 
L 74.692808 46.03068 
L 74.696225 46.309753 
L 74.719293 36.152705 
L 74.760301 10.419883 
L 74.818396 46.308805 
L 74.822668 46.796956 
L 74.85257 30.538845 
L 74.885889 9.505797 
L 74.947401 47.162735 
L 74.94911 47.229411 
L 74.965342 41.239071 
L 75.012331 9.578949 
L 75.068717 45.867344 
L 75.074698 46.521912 
L 75.102891 31.537863 
L 75.137919 10.078005 
L 75.197723 46.392706 
L 75.201994 46.889113 
L 75.230188 31.085813 
L 75.265216 9.440024 
L 75.324165 46.984112 
L 75.327582 47.21215 
L 75.348941 37.302377 
L 75.389949 9.169128 
L 75.450607 46.560386 
L 75.452316 46.685762 
L 75.471966 38.9735 
L 75.516391 10.070895 
L 75.574486 45.883895 
L 75.579612 46.513499 
L 75.609514 29.96553 
L 75.643688 9.867107 
L 75.700074 46.691727 
L 75.7052 47.374105 
L 75.735102 30.010284 
L 75.769276 9.470088 
L 75.827371 46.392744 
L 75.830788 46.671779 
L 75.85471 35.493435 
L 75.894009 9.972178 
L 75.952959 45.896734 
L 75.958085 46.328003 
L 75.984569 32.909331 
L 76.021306 9.743551 
L 76.080255 46.732727 
L 76.083673 47.035027 
L 76.107594 35.44315 
L 76.146039 9.212184 
L 76.204989 46.358893 
L 76.209261 46.771004 
L 76.234891 33.487464 
L 76.271627 9.872005 
L 76.329722 45.679596 
L 76.335703 46.485455 
L 76.368168 27.626685 
L 76.398924 10.502597 
L 76.457873 46.380026 
L 76.462999 46.805212 
L 76.48863 32.929752 
L 76.524512 9.83049 
L 76.58517 46.824369 
L 76.586879 46.89176 
L 76.599694 43.574084 
L 76.6501 10.390416 
L 76.706486 45.363945 
L 76.713321 46.368412 
L 76.747494 26.261379 
L 76.777396 9.707802 
L 76.838909 46.685881 
L 76.839763 46.728896 
L 76.855141 42.036513 
L 76.902984 9.285219 
L 76.958516 46.000541 
L 76.965351 46.990313 
L 76.997816 27.545512 
L 77.029426 9.630381 
L 77.086667 45.916442 
L 77.091793 46.419487 
L 77.120841 30.677612 
L 77.15416 9.419564 
L 77.214818 46.562521 
L 77.218235 46.750029 
L 77.241303 35.902308 
L 77.280602 9.476681 
L 77.338697 46.527284 
L 77.343823 47.279974 
L 77.373725 29.803104 
L 77.407044 10.211869 
L 77.465139 46.189948 
L 77.470266 46.708198 
L 77.49675 32.714316 
L 77.533487 10.118886 
L 77.589873 45.502357 
L 77.596708 46.537951 
L 77.63259 24.129874 
L 77.660783 9.375047 
L 77.711189 44.481142 
L 77.721441 47.176877 
L 77.759887 22.48668 
L 77.784662 10.144128 
L 77.845321 46.586417 
L 77.847884 46.615214 
L 77.858136 44.334554 
L 77.911959 9.814964 
L 77.966637 45.088823 
L 77.97518 46.542217 
L 78.016188 19.364252 
L 78.037547 9.254251 
L 78.09137 45.241138 
L 78.100768 47.002835 
L 78.143485 17.917932 
L 78.163135 9.400091 
L 78.223793 46.53234 
L 78.226356 46.65499 
L 78.243443 40.151177 
L 78.288723 10.28258 
L 78.345963 45.387726 
L 78.352798 46.385041 
L 78.386972 26.098715 
L 78.416019 9.649143 
L 78.478386 46.965507 
L 78.47924 46.967639 
L 78.482658 46.693781 
L 78.511705 26.628934 
L 78.541607 9.988019 
L 78.600557 46.434892 
L 78.604828 46.849059 
L 78.629604 33.905186 
L 78.668049 10.570339 
L 78.726144 46.003307 
L 78.730416 46.383304 
L 78.756901 33.023173 
L 78.794492 10.374458 
L 78.851732 46.304737 
L 78.856858 46.847122 
L 78.885052 31.510487 
L 78.920079 9.258084 
L 78.982446 46.791386 
L 78.987572 46.277875 
L 79.045667 10.087406 
L 79.101199 45.229049 
L 79.108888 46.394009 
L 79.144771 24.553756 
L 79.17211 9.820024 
L 79.22935 46.096054 
L 79.235331 46.826582 
L 79.264378 30.292005 
L 79.296843 9.305248 
L 79.357501 46.641324 
L 79.360064 46.78159 
L 79.379714 38.913459 
L 79.421577 9.834957 
L 79.483089 46.302091 
L 79.487361 46.680549 
L 79.512991 33.216568 
L 79.549728 10.64962 
L 79.609531 46.580099 
L 79.612949 46.92403 
L 79.639433 33.290041 
L 79.67617 9.455074 
L 79.735119 46.476368 
L 79.738537 46.76749 
L 79.762458 35.36415 
L 79.801758 9.754094 
L 79.861561 46.503386 
L 79.864979 46.736678 
L 79.887192 36.226769 
L 79.929054 10.622207 
L 79.986295 46.267528 
L 79.990567 46.775033 
L 80.020469 30.59541 
L 80.053788 9.426951 
L 80.114446 46.722537 
L 80.117009 46.852575 
L 80.136659 38.751465 
L 80.179376 9.321638 
L 80.238325 46.088747 
L 80.242597 46.495328 
L 80.269936 32.723201 
L 80.305818 9.94615 
L 80.363059 45.69903 
L 80.370748 46.730042 
L 80.405776 23.875528 
L 80.431406 9.702702 
L 80.492064 46.566271 
L 80.494627 46.768162 
L 80.515131 38.455643 
L 80.556994 9.495601 
L 80.616798 46.278507 
L 80.621069 46.677942 
L 80.646699 33.594788 
L 80.68429 10.650209 
L 80.744094 46.380896 
L 80.748366 46.770966 
L 80.772287 34.502872 
L 80.810733 9.90179 
L 80.867119 45.895114 
L 80.873954 46.71594 
L 80.905564 27.642841 
L 80.937175 9.766102 
L 80.993561 45.922606 
L 81.000396 46.609289 
L 81.031152 27.789034 
L 81.062763 9.89456 
L 81.121712 46.083177 
L 81.125984 46.504493 
L 81.151614 33.41423 
L 81.188351 9.786212 
L 81.246446 46.176832 
L 81.252426 46.806398 
L 81.281474 29.936499 
L 81.314793 9.453493 
L 81.372034 46.088824 
L 81.37716 46.661115 
L 81.406207 31.031738 
L 81.439526 9.87813 
L 81.502747 46.194253 
L 81.504456 46.225222 
L 81.515563 43.61552 
L 81.566823 9.66822 
L 81.621501 45.357545 
L 81.62919 47.096135 
L 81.671907 19.050897 
L 81.693265 9.885792 
L 81.748797 45.901828 
L 81.755632 46.870825 
L 81.788097 27.427758 
L 81.818853 10.093091 
L 81.88122 46.310465 
L 81.882074 46.338076 
L 81.894035 43.51499 
L 81.94615 9.946109 
L 82.000827 45.733595 
L 82.007662 46.948403 
L 82.045253 23.378885 
L 82.070883 9.946662 
L 82.132396 46.851784 
L 82.134104 46.815363 
L 82.151191 40.342718 
L 82.196471 9.935009 
L 82.254566 45.609365 
L 82.259692 46.202706 
L 82.28874 31.183066 
L 82.322059 10.110748 
L 82.38528 46.80225 
L 82.386989 46.845423 
L 82.399804 42.885426 
L 82.449356 9.460134 
L 82.505742 46.086851 
L 82.512577 47.057978 
L 82.544187 27.536385 
L 82.575798 9.987705 
L 82.635602 46.244816 
L 82.638165 46.38678 
L 82.657814 38.475987 
L 82.701386 9.896335 
L 82.758626 46.050113 
L 82.765461 46.955553 
L 82.79878 25.998065 
L 82.826974 10.071484 
L 82.88934 47.060586 
L 82.891049 47.11241 
L 82.903864 43.012144 
L 82.95427 9.690541 
L 83.010657 45.632945 
L 83.016637 46.353916 
L 83.048247 28.143002 
L 83.080712 9.818365 
L 83.138807 46.212267 
L 83.143079 46.575989 
L 83.168709 33.691409 
L 83.2063 9.554619 
L 83.264395 46.331164 
L 83.269521 46.820262 
L 83.296006 32.377175 
L 83.331034 9.725378 
L 83.389129 45.90641 
L 83.394255 46.538306 
L 83.424157 30.242866 
L 83.45833 9.956499 
L 83.515571 45.904158 
L 83.520697 46.582033 
L 83.551453 29.34987 
L 83.583918 9.723365 
L 83.647139 46.702827 
L 83.655683 45.18074 
L 83.709506 9.540791 
L 83.765038 45.483516 
L 83.773582 46.827609 
L 83.80861 24.782545 
L 83.835948 10.423514 
L 83.893189 45.787751 
L 83.899169 46.492603 
L 83.929926 29.387239 
L 83.963245 9.673909 
L 84.025612 46.659257 
L 84.026466 46.644285 
L 84.04099 41.574867 
L 84.087979 9.658581 
L 84.145219 46.136028 
L 84.1512 46.829544 
L 84.179393 31.469051 
L 84.213566 10.123704 
L 84.276788 46.626433 
L 84.278496 46.572432 
L 84.300709 35.6672 
L 84.340863 9.75848 
L 84.399812 46.247816 
L 84.404084 46.509826 
L 84.425443 36.621066 
L 84.466451 9.771517 
L 84.523692 46.239046 
L 84.529672 47.01978 
L 84.560428 28.909001 
L 84.592039 9.938011 
L 84.651843 46.475063 
L 84.656114 46.843331 
L 84.682599 32.632548 
L 84.718481 10.067256 
L 84.775722 45.841432 
L 84.781702 46.571129 
L 84.812458 29.267944 
L 84.844069 9.407673 
L 84.906436 47.027444 
L 84.908144 47.051738 
L 84.917542 44.732564 
L 84.970511 10.080886 
L 85.026898 45.605849 
L 85.034587 46.726173 
L 85.070469 23.559522 
L 85.096953 9.839734 
L 85.156757 46.355694 
L 85.160174 46.581164 
L 85.183242 35.585434 
L 85.223396 9.092223 
L 85.279782 46.018276 
L 85.285762 46.793757 
L 85.316519 29.086242 
L 85.348983 9.642667 
L 85.412205 46.708869 
L 85.422457 44.312236 
L 85.474571 9.932366 
L 85.530103 45.230195 
L 85.538647 46.639782 
L 85.575383 23.290283 
L 85.601868 9.561175 
L 85.661672 46.681061 
L 85.66338 46.794312 
L 85.681321 40.418677 
L 85.726601 9.583807 
L 85.783842 45.6493 
L 85.790677 46.527601 
L 85.823996 26.027572 
L 85.853044 9.755914 
L 85.91541 46.850638 
L 85.916265 46.857907 
L 85.922245 45.968268 
L 85.979486 9.738536 
L 86.034164 45.298808 
L 86.041853 46.712741 
L 86.083715 19.644748 
L 86.105928 9.488649 
L 86.160606 45.070099 
L 86.168295 46.448046 
L 86.205032 23.823466 
L 86.231516 9.909174 
L 86.290465 46.466967 
L 86.294737 46.8568 
L 86.320367 33.507296 
L 86.357958 9.698046 
L 86.418616 46.970365 
L 86.420325 47.044035 
L 86.437412 40.490293 
L 86.483546 9.650285 
L 86.539078 45.36916 
L 86.546767 46.551893 
L 86.580941 25.387702 
L 86.609134 10.092736 
L 86.669792 46.77215 
L 86.672355 46.912142 
L 86.689442 40.501272 
L 86.736431 9.625995 
L 86.791963 46.031115 
L 86.797943 46.962228 
L 86.832117 26.138019 
L 86.861164 9.962422 
L 86.920968 46.11707 
L 86.92524 46.400804 
L 86.949161 34.30288 
L 86.987606 9.678017 
L 87.043993 45.788463 
L 87.050828 46.790162 
L 87.08671 24.164319 
L 87.113194 9.330175 
L 87.165309 43.995044 
L 87.17727 46.846095 
L 87.221695 16.63949 
L 87.239637 9.646573 
L 87.289188 42.717348 
L 87.302858 46.609327 
L 87.359244 10.728384 
L 87.365224 9.957249 
L 87.392563 23.757496 
L 87.4293 46.869836 
L 87.487395 10.23881 
L 87.491667 9.686591 
L 87.520714 26.0634 
L 87.554888 46.963215 
L 87.613837 9.961042 
L 87.618109 9.53605 
L 87.648011 26.768097 
L 87.68133 46.630028 
L 87.740279 10.180272 
L 87.744551 9.79711 
L 87.769327 23.002005 
L 87.807772 46.830256 
L 87.864159 10.797788 
L 87.870993 9.586692 
L 87.900041 26.767542 
L 87.93336 46.687382 
L 87.99231 9.960094 
L 87.996581 9.532616 
L 88.02392 24.8273 
L 88.058948 46.870825 
L 88.117897 10.068797 
L 88.122169 9.537551 
L 88.151217 25.774096 
L 88.18539 46.679758 
L 88.24434 10.068721 
L 88.247757 9.768398 
L 88.272533 22.015828 
L 88.310978 46.673518 
L 88.369073 10.215424 
L 88.374199 9.460134 
L 88.406664 29.151537 
L 88.43742 46.948086 
L 88.498933 10.245407 
L 88.500642 10.104389 
L 88.519437 18.076643 
L 88.563008 46.910719 
L 88.621103 10.642591 
L 88.626229 9.841199 
L 88.65784 27.971291 
L 88.689451 46.734111 
L 88.751817 9.326738 
L 88.753526 9.314375 
L 88.756943 9.820851 
L 88.815893 46.96768 
L 88.87057 11.049051 
L 88.87826 9.605417 
L 88.914142 32.29928 
L 88.940626 46.885794 
L 89.00043 10.209896 
L 89.004702 9.461195 
L 89.038021 30.018659 
L 89.067923 46.423713 
L 89.129435 9.798494 
L 89.131144 9.758678 
L 89.14225 12.848429 
L 89.193511 46.875049 
L 89.249897 10.929446 
L 89.256732 9.898514 
L 89.293468 33.191564 
L 89.319953 46.711319 
L 89.381465 9.873784 
L 89.38232 9.837402 
L 89.395989 13.81747 
L 89.445541 46.767332 
L 89.501073 11.008646 
L 89.508762 9.379824 
L 89.546353 33.880143 
L 89.571983 46.940543 
L 89.623243 12.868341 
L 89.635204 9.768079 
L 89.680484 40.10729 
L 89.697571 46.924307 
L 89.752249 11.555058 
L 89.760792 9.922687 
L 89.794111 29.902092 
L 89.824013 46.447255 
L 89.884671 9.864266 
L 89.887234 9.712817 
L 89.906884 18.205658 
L 89.948747 46.734031 
L 90.008551 10.145786 
L 90.012822 9.473994 
L 90.043578 27.660064 
L 90.076043 46.594277 
L 90.133284 10.756826 
L 90.139264 9.923869 
L 90.169166 26.666814 
L 90.202486 46.843965 
L 90.260581 10.214085 
L 90.264852 9.606164 
L 90.294754 26.181232 
L 90.328073 47.005642 
L 90.386169 10.100479 
L 90.39044 9.575116 
L 90.419488 25.55834 
L 90.454516 46.751966 
L 90.514319 9.788935 
L 90.517737 9.615529 
L 90.537387 18.675401 
L 90.580104 46.785897 
L 90.63649 11.268362 
L 90.643325 10.228618 
L 90.677498 30.865873 
L 90.706546 47.029459 
L 90.768058 9.735175 
L 90.768913 9.699268 
L 90.782582 13.660373 
L 90.832134 46.704249 
L 90.887666 10.959384 
L 90.895355 9.488455 
L 90.932091 33.308012 
L 90.958576 46.903848 
L 91.014962 10.683787 
L 91.021797 9.648865 
L 91.055116 30.202614 
L 91.084164 47.023296 
L 91.146531 9.440222 
L 91.147385 9.380341 
L 91.163617 15.431274 
L 91.210606 46.581045 
L 91.268701 10.516699 
L 91.273827 9.839577 
L 91.305438 28.60121 
L 91.336194 46.946309 
L 91.397706 10.185288 
L 91.400269 10.084755 
L 91.415648 15.781726 
L 91.462636 46.817577 
L 91.519023 10.941687 
L 91.525857 9.686672 
L 91.56174 32.634956 
L 91.589078 46.843252 
L 91.649737 9.618414 
L 91.6523 9.498526 
L 91.670241 16.946922 
L 91.715521 46.918027 
L 91.773616 9.998921 
L 91.777887 9.594354 
L 91.804372 23.989961 
L 91.841109 46.901792 
L 91.894932 11.761332 
L 91.90433 9.796242 
L 91.940212 32.657868 
L 91.967551 46.647092 
L 92.019665 12.042935 
L 92.030772 9.3978 
L 92.070072 36.007698 
L 92.093139 46.8506 
L 92.147816 11.289807 
L 92.155505 9.779929 
L 92.194805 34.69868 
L 92.219581 46.602692 
L 92.281093 10.017175 
L 92.282802 9.968273 
L 92.297326 14.526311 
L 92.345169 46.913721 
L 92.40241 10.403098 
L 92.40839 9.528747 
L 92.438292 26.750596 
L 92.470757 46.988457 
L 92.529706 9.958436 
L 92.533978 9.456809 
L 92.564734 27.445377 
L 92.597199 46.755678 
L 92.655294 10.589343 
L 92.66042 9.783996 
L 92.695448 31.638904 
L 92.723641 46.854352 
L 92.782591 9.951956 
L 92.786862 9.529732 
L 92.81591 26.364161 
L 92.849229 47.017647 
L 92.909033 10.082508 
L 92.91245 9.6414 
L 92.942352 26.967141 
L 92.975671 46.663996 
L 93.035475 10.077412 
L 93.038892 9.824962 
L 93.063668 22.577017 
L 93.101259 46.994068 
L 93.161917 9.744774 
L 93.16448 9.51247 
L 93.187547 21.299716 
L 93.227701 47.105815 
L 93.284942 10.58413 
L 93.291777 9.340327 
L 93.32595 32.066422 
L 93.354144 46.60755 
L 93.40455 12.912305 
L 93.41651 9.765117 
L 93.459227 38.158518 
L 93.479732 47.033765 
L 93.536972 10.280482 
L 93.541244 9.531789 
L 93.574563 28.789827 
L 93.606174 46.998332 
L 93.665123 10.075673 
L 93.668541 9.670036 
L 93.696734 25.006121 
L 93.732616 46.819237 
L 93.791565 9.834678 
L 93.794128 9.541461 
L 93.820613 23.318172 
L 93.858204 46.952589 
L 93.91459 10.543245 
L 93.921425 9.667825 
L 93.953036 29.148139 
L 93.983792 47.040362 
L 94.043596 9.941449 
L 94.046159 9.716493 
L 94.069226 20.558722 
L 94.110234 46.654911 
L 94.168329 10.133698 
L 94.172601 9.636111 
L 94.201648 25.538787 
L 94.235822 46.95263 
L 94.294771 10.060308 
L 94.299043 9.502 
L 94.328945 26.945098 
L 94.362264 46.743513 
L 94.421214 10.129591 
L 94.424631 9.677347 
L 94.454533 26.272755 
L 94.468202 38.687 
L 94.468202 38.687 
" clip-path="url(#p369d042d24)" style="fill: none; stroke: #1f77b4; stroke-width: 0.05; stroke-linecap: square"/>
   </g>
   <g id="patch_3">
    <path d="M 17.577656 55.286929 
L 17.577656 0.72 
" style="fill: none; stroke: #000000; stroke-width: 0.5; stroke-linejoin: miter; stroke-linecap: square"/>
   </g>
   <g id="patch_4">
    <path d="M 94.46742 55.286929 
L 94.46742 0.72 
" style="fill: none; stroke: #000000; stroke-width: 0.5; stroke-linejoin: miter; stroke-linecap: square"/>
   </g>
   <g id="patch_5">
    <path d="M 17.577656 55.286929 
L 94.46742 55.286929 
" style="fill: none; stroke: #000000; stroke-width: 0.5; stroke-linejoin: miter; stroke-linecap: square"/>
   </g>
   <g id="patch_6">
    <path d="M 17.577656 0.72 
L 94.46742 0.72 
" style="fill: none; stroke: #000000; stroke-width: 0.5; stroke-linejoin: miter; stroke-linecap: square"/>
   </g>
  </g>
 </g>
 <defs>
  <clipPath id="p369d042d24">
   <rect x="17.577656" y="0.72" width="76.889764" height="54.566929"/>
  </clipPath>
 </defs>
</svg>
