<?xml version="1.0" encoding="utf-8" standalone="no"?>
<!DOCTYPE svg PUBLIC "-//W3C//DTD SVG 1.1//EN"
  "http://www.w3.org/Graphics/SVG/1.1/DTD/svg11.dtd">
<svg xmlns:xlink="http://www.w3.org/1999/xlink" width="82.204724pt" height="85.03937pt" viewBox="0 0 82.204724 85.03937" xmlns="http://www.w3.org/2000/svg" version="1.1">
 <metadata>
  <rdf:RDF xmlns:dc="http://purl.org/dc/elements/1.1/" xmlns:cc="http://creativecommons.org/ns#" xmlns:rdf="http://www.w3.org/1999/02/22-rdf-syntax-ns#">
   <cc:Work>
    <dc:type rdf:resource="http://purl.org/dc/dcmitype/StillImage"/>
    <dc:date>2025-03-02T23:59:21.413058</dc:date>
    <dc:format>image/svg+xml</dc:format>
    <dc:creator>
     <cc:Agent>
      <dc:title>Matplotlib v3.7.5, https://matplotlib.org/</dc:title>
     </cc:Agent>
    </dc:creator>
   </cc:Work>
  </rdf:RDF>
 </metadata>
 <defs>
  <style type="text/css">*{stroke-linejoin: round; stroke-linecap: butt}</style>
 </defs>
 <g id="figure_1">
  <g id="patch_1">
   <path d="M 0 85.03937 
L 82.204724 85.03937 
L 82.204724 0 
L 0 0 
L 0 85.03937 
z
" style="fill: none"/>
  </g>
  <g id="patch_2">
   <path d="M 10.275591 74.799213 
L 73.984252 74.799213 
L 73.984252 11.090551 
L 10.275591 11.090551 
L 10.275591 74.799213 
z
" style="fill: none"/>
  </g>
  <g id="axes_1">
   <g id="line2d_1">
    <path d="M 62.030559 50.07759 
L 63.094713 45.586953 
L 62.697029 40.920667 
L 60.897128 36.402366 
L 57.839893 32.333565 
L 53.741935 28.980044 
L 48.878144 26.56124 
L 43.568453 25.241401 
L 38.164295 25.12148 
L 33.033503 26.231238 
L 28.541977 28.521894 
L 25.031083 31.860936 
L 22.790688 36.031428 
L 22.029574 40.738828 
L 22.847291 45.62793 
L 25.21328 50.310693 
L 28.959316 54.402973 
L 33.789589 57.564998 
L 39.308672 59.538502 
L 45.063353 60.173569 
L 50.590655 59.440538 
L 55.463553 57.426212 
L 59.32747 54.317002 
L 61.923899 50.373898 
L 63.100835 45.904549 
L 62.81243 41.236687 
L 61.111289 36.695305 
L 58.1366 32.584365 
L 54.100588 29.17278 
L 49.274915 26.683613 
L 43.977397 25.28515 
L 38.55844 25.082739 
L 33.385949 26.110936 
L 28.827295 28.326208 
L 25.226972 31.601525 
L 22.879894 35.725363 
L 22.001952 40.40801 
L 22.70166 45.297741 
L 24.958553 50.007877 
L 28.61448 54.152916 
L 33.382264 57.388901 
L 38.872421 59.450945 
L 44.634095 60.180938 
L 50.202879 59.540631 
L 55.146966 57.608943 
L 59.104563 54.565991 
L 61.80863 50.66855 
L 63.098451 46.222175 
L 62.92003 41.55434 
L 61.318838 36.991275 
L 58.428197 32.839324 
L 54.455832 29.37054 
L 49.670133 26.811618 
L 44.386728 25.334851 
L 38.954894 25.049994 
L 33.742587 25.996393 
L 29.118536 28.135678 
L 25.430247 31.346308 
L 22.977566 35.422197 
L 21.983354 40.078492 
L 22.564903 44.96703 
L 24.711732 49.702646 
L 28.275781 53.898712 
L 32.978679 57.207292 
L 38.437128 59.357045 
L 44.202942 60.181766 
L 49.810592 59.634612 
L 54.823756 57.786543 
L 58.873597 54.811229 
L 61.684627 50.961036 
L 63.087331 46.539257 
L 63.019499 41.873031 
L 61.5194 37.289719 
L 58.714358 33.097951 
L 54.807436 29.57289 
L 50.063628 26.944868 
L 44.796326 25.390211 
L 39.353634 25.023047 
L 34.103448 25.887503 
L 29.415802 27.950377 
L 25.641094 31.095534 
L 23.083957 35.122313 
L 21.974084 39.750761 
L 22.437474 44.636371 
L 24.473571 49.395612 
L 27.944367 53.64089 
L 32.580342 57.020501 
L 38.004565 59.256833 
L 43.771798 60.175709 
L 49.41567 59.721709 
L 54.495574 57.957802 
L 58.63583 55.05113 
L 61.552602 51.249511 
L 63.06762 46.853822 
L 63.110367 42.190737 
L 61.711885 37.588735 
L 58.99352 33.358621 
L 55.153581 29.778551 
L 50.453555 27.08242 
L 45.204455 25.450535 
L 39.753122 25.001385 
L 34.46731 25.783805 
L 29.718163 27.769714 
L 25.858816 30.848426 
L 23.198518 34.82473 
L 21.973607 39.423627 
L 22.318621 44.304402 
L 24.242874 49.085376 
L 27.618504 53.378222 
L 32.185082 56.827668 
L 37.57234 59.149947 
L 43.338223 60.162965 
L 49.015813 59.802765 
L 54.16049 58.124197 
L 58.38986 55.287717 
L 61.411825 51.536424 
L 63.039339 47.168598 
L 63.193496 42.510287 
L 61.897907 37.89096 
L 59.267829 33.623621 
L 55.496784 29.989365 
L 50.842625 27.225616 
L 45.61389 25.516645 
L 40.155993 24.985286 
L 34.836435 25.685145 
L 30.02744 27.593251 
L 26.084729 30.604335 
L 23.322036 34.528685 
L 21.982247 39.096351 
L 22.208372 43.970503 
L 24.019532 48.771452 
L 27.298073 53.110321 
L 31.792791 56.628431 
L 37.140292 59.036027 
L 42.902075 60.143167 
L 48.610927 59.877256 
L 53.818379 58.284989 
L 58.135497 55.520004 
L 61.26194 51.820536 
L 63.001894 47.482141 
L 63.267987 42.830125 
L 62.076342 38.194863 
L 59.535956 33.891469 
L 55.835421 30.204028 
L 51.228961 27.37348 
L 46.022576 25.588021 
L 40.560229 24.974793 
L 35.209031 25.592074 
L 30.342135 27.422043 
L 26.317803 30.36484 
L 23.454104 34.2362 
L 22.0003 38.771239 
L 22.10774 43.637106 
L 23.805295 48.456217 
L 26.985473 52.839292 
L 31.406352 56.424464 
L 36.711604 58.916169 
L 42.466499 60.116754 
L 48.203852 59.94509 
L 53.471646 58.439627 
L 57.874558 55.747118 
L 61.104179 52.100816 
L 62.955937 47.793397 
L 63.334005 43.149287 
L 62.246907 38.499635 
L 59.797289 34.161608 
L 56.168715 30.422185 
L 51.611644 27.525822 
L 46.429496 25.664618 
L 40.964715 24.969989 
L 35.583998 25.504859 
L 30.661288 27.25643 
L 26.557198 30.130278 
L 23.594038 33.947607 
L 22.027268 38.448588 
L 22.016378 43.304424 
L 23.599871 48.139792 
L 26.680407 52.56522 
L 31.025444 56.215848 
L 36.2859 58.790497 
L 42.031101 60.08395 
L 47.794191 60.006584 
L 53.119894 58.588606 
L 57.606755 55.96972 
L 60.938362 52.378034 
L 62.901456 48.103208 
L 63.391694 43.468635 
L 62.409927 38.806115 
L 60.052313 34.434765 
L 56.497271 30.644448 
L 51.991399 27.683078 
L 46.835413 25.746673 
L 41.370173 24.970922 
L 35.961908 25.423397 
L 30.985326 27.096305 
L 26.803249 29.900527 
L 23.742017 33.662751 
L 22.063199 38.128272 
L 21.934299 42.97239 
L 23.403313 47.822165 
L 26.383003 52.288111 
L 30.650286 56.002586 
L 35.863508 58.65897 
L 41.596299 60.044605 
L 47.382414 60.061443 
L 52.763588 58.731414 
L 57.332435 56.187114 
L 60.764699 52.65135 
L 62.838421 48.410587 
L 63.440724 43.787086 
L 62.564743 39.113215 
L 60.30009 34.709951 
L 56.819928 30.869961 
L 52.366901 27.844607 
L 47.238962 25.833781 
L 41.775297 24.977405 
L 36.341571 25.347683 
L 31.313182 26.941797 
L 27.055086 29.675915 
L 23.897487 33.382114 
L 22.107795 37.810815 
L 21.861384 42.641539 
L 23.215674 47.503852 
L 26.093506 52.008419 
L 30.2813 55.785011 
L 35.445013 58.521778 
L 41.162811 59.998749 
L 46.969322 60.109515 
L 52.403544 58.867726 
L 57.052364 56.398781 
L 60.583804 52.920091 
L 62.767301 48.714806 
L 63.481406 44.10388 
L 62.71145 39.420168 
L 60.54048 34.986467 
L 57.136374 31.098159 
L 52.737729 28.00997 
L 47.639648 25.925629 
L 42.179573 24.989261 
L 36.722512 25.277612 
L 31.644415 26.792824 
L 27.312261 29.456318 
L 24.059987 33.105554 
L 22.160713 37.496078 
L 21.797428 42.311675 
L 23.036832 47.184611 
L 25.811833 51.725891 
L 29.918423 55.562917 
L 35.030326 58.378789 
L 40.730517 59.946384 
L 46.554799 60.150972 
L 52.039678 58.997889 
L 56.766523 56.605266 
L 60.395779 53.184983 
L 62.688326 49.01673 
L 63.514173 44.420042 
L 62.850828 39.728089 
L 60.774581 35.265362 
L 57.447942 31.329959 
L 53.105427 28.179906 
L 48.03916 26.022697 
L 42.584719 25.006635 
L 37.10636 25.213012 
L 31.980477 26.648888 
L 27.575941 29.240962 
L 24.230315 32.832102 
L 22.22226 37.183013 
L 21.742301 41.981798 
L 22.866256 46.863513 
L 25.537059 51.439751 
L 29.560393 55.33574 
L 34.617931 58.229727 
L 40.297726 59.88756 
L 46.137068 60.186245 
L 51.670289 59.122755 
L 56.473448 56.807806 
L 60.199528 53.447586 
L 62.600893 49.318149 
L 63.538952 44.737432 
L 62.983258 40.038799 
L 61.003284 35.548347 
L 57.755948 31.56677 
L 53.471507 28.355463 
L 48.439095 26.125696 
L 42.992307 25.029918 
L 37.494536 25.154001 
L 32.322572 26.509937 
L 27.847078 29.029678 
L 24.409117 32.561504 
L 22.292804 36.871333 
L 21.696103 41.651679 
L 22.703902 46.540463 
L 25.269023 51.149979 
L 29.206884 55.103545 
L 34.207337 58.074731 
L 39.863792 59.822482 
L 45.715343 60.215609 
L 51.294473 59.242682 
L 56.172196 57.006868 
L 59.994165 53.708451 
L 62.504231 49.619645 
L 63.555134 45.056625 
L 63.108356 40.352811 
L 61.226348 35.835818 
L 58.060323 31.808931 
L 53.836099 28.536839 
L 48.839627 26.23468 
L 43.402541 25.059106 
L 37.887308 25.100511 
L 32.670979 26.37585 
L 28.125969 28.822357 
L 24.596759 32.293728 
L 22.372797 36.56109 
L 21.659369 41.321423 
L 22.550383 46.215635 
L 25.008608 50.856825 
L 28.859215 54.866496 
L 33.800314 57.913718 
L 39.430867 59.750668 
L 45.292004 60.238019 
L 50.914584 59.35595 
L 55.864789 57.20003 
L 59.7811 53.964537 
L 62.398911 49.917695 
L 63.562269 45.373809 
L 63.224552 40.666281 
L 61.441153 36.124169 
L 58.357507 32.053295 
L 54.195001 28.721611 
L 49.236321 26.348003 
L 43.810981 25.093316 
L 38.280497 25.052466 
L 33.022106 26.247241 
L 28.409747 28.620097 
L 24.791169 32.030154 
L 22.460978 36.253773 
L 21.63159 40.99246 
L 22.405773 45.890246 
L 24.756204 50.561236 
L 28.517869 54.625314 
L 33.397311 57.74725 
L 38.999307 59.672592 
L 44.867319 60.25393 
L 50.530827 59.46303 
L 55.551386 57.387812 
L 59.560467 54.216442 
L 62.285108 50.213014 
L 63.560657 45.689789 
L 63.332275 40.980037 
L 61.648236 36.414209 
L 58.648116 32.300588 
L 54.548749 28.910374 
L 49.629553 26.466205 
L 44.217884 25.133029 
L 38.67418 25.010252 
L 33.375812 26.124499 
L 28.698175 28.423355 
L 24.992057 31.771294 
L 22.557058 35.949939 
L 21.612552 40.665377 
L 22.270025 45.564882 
L 24.51197 50.263731 
L 28.183212 54.380412 
L 32.99885 57.575578 
L 38.569685 59.588346 
L 44.441828 60.263325 
L 50.143705 59.563853 
L 55.232451 57.570086 
L 59.332654 54.463974 
L 62.163095 50.505375 
L 63.550457 46.004355 
L 63.431656 41.293906 
L 61.847721 36.705778 
L 58.932302 32.550681 
L 54.8976 29.102997 
L 50.019642 26.589089 
L 44.623577 25.17801 
L 39.068719 24.973574 
L 33.732432 26.007211 
L 28.991479 28.231634 
L 25.199578 31.516626 
L 22.661084 35.649041 
L 21.602161 40.339623 
L 22.142865 45.239012 
L 24.275451 49.963849 
L 27.854626 54.131426 
L 32.604195 57.398502 
L 38.141243 59.497894 
L 44.014795 60.266331 
L 49.752529 59.658733 
L 54.907437 57.7474 
L 59.097359 54.707883 
L 62.032829 50.795652 
L 63.53188 46.318461 
L 63.523141 41.608879 
L 62.040266 36.999827 
L 59.210823 32.804413 
L 55.242316 29.300198 
L 50.40733 26.717237 
L 45.028705 25.228667 
L 39.464573 24.942738 
L 34.092265 25.895614 
L 29.289778 28.045101 
L 25.413665 31.266298 
L 22.772927 35.351287 
L 21.600298 40.015472 
L 22.024228 44.912953 
L 24.046626 49.661911 
L 27.532106 53.878663 
L 32.21332 57.216282 
L 37.71387 59.401481 
L 43.58602 60.263199 
L 49.357013 59.747945 
L 54.575982 57.920079 
L 58.854218 54.948592 
L 61.894067 51.084345 
L 63.504835 46.632639 
L 63.606814 41.92551 
L 62.226202 37.296922 
L 59.48431 33.062283 
L 55.583771 29.502329 
L 50.793625 26.850838 
L 45.434365 25.285042 
L 39.862857 24.917612 
L 34.456325 25.789477 
L 29.593969 27.863492 
L 25.635047 31.020027 
L 22.893097 35.056403 
L 21.607343 39.692741 
L 21.914546 44.586667 
L 23.826165 49.357989 
L 27.216647 53.622215 
L 31.827562 57.028923 
L 37.289211 59.298882 
L 43.157347 60.253347 
L 48.959028 59.83045 
L 54.239766 58.086589 
L 58.604504 55.18411 
L 61.747515 51.369137 
L 63.469399 46.944351 
L 63.682044 42.241184 
L 62.4042 37.594588 
L 59.750889 33.322149 
L 55.919771 29.707683 
L 51.176224 26.988633 
L 45.838282 25.346306 
L 40.261506 24.89776 
L 34.822897 25.68862 
L 29.902704 27.686791 
L 25.862783 30.777905 
L 23.021025 34.764508 
L 21.622961 39.37147 
L 21.813502 44.260064 
L 23.613605 49.051911 
L 26.90762 53.361911 
L 31.446188 56.836322 
L 36.866468 59.190116 
L 42.727929 60.236999 
L 48.557771 59.906756 
L 53.89812 58.247735 
L 58.34775 55.415528 
L 61.592986 51.651367 
L 63.425741 47.255148 
L 63.74942 42.557512 
L 62.575183 37.894344 
L 60.011775 33.585367 
L 56.251796 29.917369 
L 51.556839 27.131409 
L 46.242344 25.412824 
L 40.662391 24.883072 
L 35.193697 25.592493 
L 30.217451 27.513992 
L 26.097929 30.53849 
L 23.157262 34.473833 
L 21.647183 39.049734 
L 21.720646 43.931212 
L 23.408061 48.741873 
L 26.60375 53.09618 
L 31.067532 56.637262 
L 36.443738 59.074432 
L 42.295877 60.21383 
L 48.151472 59.97686 
L 53.549512 58.403783 
L 58.082738 55.643276 
L 61.429582 51.931539 
L 63.373269 47.565525 
L 63.808666 42.874978 
L 62.739231 38.196568 
L 60.267186 33.852136 
L 56.580036 30.131487 
L 51.935534 27.279251 
L 46.646458 25.48479 
L 41.06535 24.87391 
L 35.568474 25.501667 
L 30.537914 27.346025 
L 26.340316 30.303144 
L 23.301905 34.186146 
L 21.680486 38.729625 
L 21.636981 43.602416 
L 23.21117 48.430192 
L 26.307284 52.827127 
L 30.694409 56.433396 
L 36.024166 58.952816 
L 41.864315 60.184136 
L 47.74305 60.040418 
L 53.196418 58.553765 
L 57.811342 55.865909 
L 61.258484 52.207876 
L 63.31244 47.873554 
L 63.85952 43.19163 
L 62.895391 38.499474 
L 60.515706 34.120945 
L 56.902703 30.34881 
L 52.310224 27.431293 
L 47.048354 25.561737 
L 41.468037 24.870278 
L 35.945063 25.416593 
L 30.862222 27.183647 
L 26.588431 30.07288 
L 23.453911 33.902648 
L 21.722335 38.412402 
L 21.562401 43.27488 
L 23.023154 48.117949 
L 26.0187 52.555674 
L 30.327414 56.225474 
L 35.608366 58.825888 
L 41.433829 60.148414 
L 47.332941 60.097866 
L 52.83916 58.698182 
L 57.533796 56.083994 
L 61.079895 52.48105 
L 63.243483 48.179998 
L 63.902294 43.508319 
L 63.044135 38.80393 
L 60.75794 34.392628 
L 57.220588 30.570087 
L 52.681867 27.588083 
L 47.449059 25.643957 
L 41.87146 24.872168 
L 36.324325 25.337039 
L 31.191121 27.026446 
L 26.842833 29.847047 
L 23.613552 33.622506 
L 21.77274 38.097163 
L 21.496718 42.947692 
L 22.843657 47.804287 
L 25.737494 52.281078 
L 29.965985 56.012914 
L 35.19581 58.693202 
L 41.003974 60.106322 
L 46.920841 60.148897 
L 52.477518 58.836688 
L 57.249952 56.297163 
L 60.893686 52.7506 
L 63.166199 48.484286 
L 63.936654 43.824382 
L 63.184944 39.109249 
L 60.993199 34.666523 
L 57.53282 30.794737 
L 53.049478 27.749188 
L 47.847561 25.73118 
L 42.274616 24.879478 
L 36.705306 25.263045 
L 31.523712 26.874668 
L 27.102822 29.626144 
L 23.780378 33.34636 
L 21.831431 37.784604 
L 21.439823 42.621579 
L 22.672757 47.489911 
L 25.463957 52.003949 
L 29.6106 55.79617 
L 34.787126 58.555033 
L 40.575485 60.057936 
L 46.50752 60.193381 
L 52.112256 58.968944 
L 56.960465 56.50485 
L 60.700345 53.015823 
L 63.080908 48.785621 
L 63.962674 44.138947 
L 63.317597 39.41455 
L 61.22099 34.94183 
L 57.838707 31.022086 
L 53.412203 27.914088 
L 48.242911 25.823068 
L 42.676573 24.892052 
L 37.087138 25.194574 
L 31.85921 26.728327 
L 27.367681 29.41022 
L 23.953842 33.074347 
L 21.898137 37.474902 
L 21.391689 42.296707 
L 22.510648 47.174968 
L 25.198489 51.724411 
L 29.261831 55.575325 
L 34.382997 58.411429 
L 40.149137 60.003269 
L 46.093812 60.231277 
L 51.744197 59.094857 
L 56.666113 56.706942 
L 60.500566 53.276597 
L 62.988192 49.08394 
L 63.980954 44.452084 
L 63.442777 39.719978 
L 61.442049 35.218732 
L 58.139079 31.252353 
L 53.771013 28.082976 
L 48.636197 25.919707 
L 43.078452 24.909815 
L 37.470934 25.13138 
L 32.198629 26.586955 
L 27.638222 29.198599 
L 24.134417 32.805601 
L 21.972925 37.167106 
L 21.352029 41.972082 
L 22.356635 46.858467 
L 24.939963 51.441583 
L 28.918155 55.349721 
L 33.981595 58.26203 
L 39.722866 59.942344 
L 45.677567 60.263092 
L 51.371305 59.215439 
L 56.365154 56.904918 
L 60.293066 53.534786 
L 62.887346 49.381353 
L 63.991355 44.765974 
L 63.560952 40.027705 
L 61.657482 35.499196 
L 58.43545 31.487134 
L 54.127649 28.257067 
L 49.029266 26.021924 
L 43.482068 24.933208 
L 37.858333 25.073569 
L 32.543365 26.450418 
L 27.915531 28.990938 
L 24.322857 32.539657 
L 22.056221 36.860716 
L 21.320973 41.647295 
L 22.210658 46.540106 
L 24.688097 51.155253 
L 28.579057 55.119267 
L 33.582168 58.106898 
L 39.295707 59.875403 
L 45.25763 60.289277 
L 50.992315 59.331422 
L 56.056359 57.099813 
L 60.076794 53.791699 
L 62.777628 49.679375 
L 63.993564 45.082258 
L 63.672232 40.339334 
L 61.867753 35.784745 
L 58.728703 31.727772 
L 54.483242 28.437372 
L 49.423314 26.130423 
L 43.888629 24.962657 
L 38.250463 25.021304 
L 32.894386 26.318702 
L 28.200418 28.787171 
L 24.519826 32.276466 
L 22.148565 36.555737 
L 21.298968 41.322435 
L 22.073215 46.220132 
L 24.443709 50.865757 
L 28.245777 54.884217 
L 33.186393 57.946046 
L 38.86971 59.802049 
L 44.836264 60.308861 
L 50.609454 59.441139 
L 55.74163 57.289256 
L 59.853075 54.044323 
L 62.659555 49.974479 
L 63.987106 45.397087 
L 63.77511 40.650972 
L 62.070399 36.07167 
L 59.015545 31.971028 
L 54.834052 28.621322 
L 49.814441 26.243313 
L 44.294268 24.997012 
L 38.643813 24.974176 
L 33.248749 26.191968 
L 28.490599 28.587861 
L 24.723753 32.016841 
L 22.249088 36.25308 
L 21.285749 40.998358 
L 21.94442 45.89924 
L 24.207088 50.573642 
L 27.918702 54.644999 
L 32.794706 57.779787 
L 38.445341 59.722492 
L 44.413961 60.321948 
L 50.223201 59.544582 
L 55.421382 57.473128 
L 59.622209 54.292469 
L 62.53331 50.266444 
L 63.972031 45.710208 
L 63.869442 40.96235 
L 62.26505 36.359726 
L 59.295335 32.216677 
L 55.179081 28.808805 
L 50.201408 26.360689 
L 44.697602 25.036535 
L 39.036855 24.932637 
L 33.604934 26.070942 
L 28.784708 28.393947 
L 24.933497 31.761863 
L 22.356941 35.953897 
L 21.280822 40.676212 
L 21.824173 45.578482 
L 23.978465 50.279781 
L 27.598283 54.402272 
L 32.407633 57.608579 
L 38.023078 59.637057 
L 43.991101 60.32882 
L 49.833868 59.642035 
L 55.095865 57.651728 
L 59.384389 54.536473 
L 62.399051 50.555671 
L 63.948548 46.022116 
L 63.955583 41.274003 
L 62.452227 36.649445 
L 59.568805 32.465211 
L 55.519262 29.000169 
L 50.585209 26.482725 
L 45.099659 25.081259 
L 39.430604 24.896522 
L 33.963806 25.955254 
L 29.083428 28.204964 
L 25.14957 31.511 
L 22.472431 35.657626 
L 21.284285 40.35545 
L 21.712383 45.257362 
L 23.757608 49.983762 
L 27.284203 54.155724 
L 32.024875 57.432212 
L 37.602688 59.545583 
L 43.567505 60.329357 
L 49.441326 59.73346 
L 54.76506 57.825109 
L 59.139708 54.776424 
L 62.256934 50.84227 
L 63.916849 46.332943 
L 64.033744 41.586095 
L 62.632134 36.940977 
L 59.836084 32.716772 
L 55.854657 29.195574 
L 50.965867 26.609566 
L 45.500351 25.131299 
L 39.824892 24.865972 
L 34.325142 25.845035 
L 29.386454 28.021016 
L 25.371619 31.264399 
L 22.595242 35.364458 
L 21.295862 40.036277 
L 21.608786 44.936076 
L 23.54423 49.685754 
L 26.976107 53.905511 
L 31.64594 57.250851 
L 37.18353 59.448325 
L 43.142422 60.323942 
L 49.044755 59.819403 
L 54.42815 57.994032 
L 58.887516 55.013323 
L 62.106595 51.127407 
L 63.876884 46.643959 
L 64.104236 41.899945 
L 62.805507 37.235618 
L 60.098303 32.972494 
L 56.186661 29.395905 
L 51.344933 26.741831 
L 45.901306 25.186981 
L 40.221255 24.841023 
L 34.690306 25.740136 
L 29.694919 27.841795 
L 25.600476 31.021626 
L 22.725901 35.073946 
L 21.315918 39.718349 
L 21.51376 44.61443 
L 23.338845 49.385689 
L 26.674719 53.651624 
L 31.271804 57.06446 
L 36.766818 59.345093 
L 42.71722 60.312118 
L 48.645548 59.899053 
L 54.086383 58.157303 
L 58.628742 55.245635 
L 61.948572 51.409293 
L 63.828732 46.953179 
L 64.166611 42.213516 
L 62.971386 37.531446 
L 60.354125 33.230711 
L 56.513709 29.59982 
L 51.720705 26.878522 
L 46.300797 25.247694 
L 40.618103 24.821429 
L 35.057908 25.640609 
L 30.007712 27.667666 
L 25.835377 30.783304 
L 22.86399 34.786859 
L 21.344298 39.402468 
L 21.427348 44.293192 
L 23.141684 49.084273 
L 26.380484 53.394663 
L 30.903107 56.873482 
L 36.353293 59.236152 
L 42.292669 60.294011 
L 48.244451 59.972414 
L 53.740418 58.314827 
L 58.363916 55.47321 
L 61.783233 51.687783 
L 63.772652 47.260503 
L 64.221015 42.5267 
L 63.129808 37.828386 
L 60.603576 33.491397 
L 56.835934 29.807305 
L 52.093538 27.019569 
L 46.699397 25.313187 
L 41.016165 24.806695 
L 35.428806 25.545631 
L 30.325684 27.497359 
L 26.076997 30.547721 
L 23.009877 34.501131 
L 21.380958 39.086329 
L 21.348954 43.969968 
L 22.951515 48.779203 
L 26.091487 53.132618 
L 30.537343 56.676425 
L 35.940152 59.120656 
L 41.865911 60.269401 
L 47.838751 60.039903 
L 53.387916 58.467591 
L 58.091216 55.697484 
L 61.609384 51.964621 
L 63.708118 47.567855 
L 64.267676 42.841473 
L 63.281638 38.128208 
L 60.847885 33.75603 
L 57.154734 30.01954 
L 52.464821 27.16588 
L 47.098421 25.384157 
L 41.416575 24.797321 
L 35.803823 25.455651 
L 30.649393 27.331441 
L 26.325717 30.315629 
L 23.163846 34.217725 
L 21.42622 38.77113 
L 21.279157 43.646137 
L 22.769313 48.471899 
L 25.809185 52.86679 
L 30.176422 56.474247 
L 35.52952 58.999095 
L 41.439131 60.238311 
L 47.430564 60.100984 
L 53.030701 58.614513 
L 57.812039 55.916895 
L 61.427842 52.237871 
L 63.635306 47.873061 
L 64.306055 43.155574 
L 63.425742 38.428779 
L 61.085446 34.02267 
L 57.468047 30.234891 
L 52.832147 27.316252 
L 47.495219 25.459934 
L 41.816685 24.793269 
L 36.18055 25.371163 
L 30.976752 27.170874 
L 26.579924 30.088433 
L 23.324908 33.938378 
L 21.479755 38.458776 
L 21.218248 43.323634 
L 22.595948 48.164211 
L 25.534928 52.598802 
L 29.822006 56.268281 
L 35.123246 58.872455 
L 41.014151 60.201337 
L 47.021498 60.155994 
L 52.670132 58.755741 
L 57.527421 56.131494 
L 61.239374 52.507582 
L 63.554735 48.176234 
L 64.33653 43.469223 
L 63.562394 38.730408 
L 61.316518 34.291725 
L 57.776229 30.453774 
L 53.195946 27.471016 
L 47.890275 25.540699 
L 42.216936 24.794527 
L 36.55938 25.292024 
L 31.30814 27.015304 
L 26.839861 29.86552 
L 23.493109 33.662293 
L 21.541429 38.148352 
L 21.165888 43.001478 
L 22.43083 47.855161 
L 25.267885 52.327796 
L 29.473117 56.057848 
L 34.720288 58.740265 
L 40.589971 60.158229 
L 46.610665 60.204837 
L 52.30544 58.891343 
L 57.236793 56.341453 
L 61.043555 52.773941 
L 63.466112 48.477531 
L 64.358877 43.782526 
L 63.691411 39.03315 
L 61.540893 34.56319 
L 58.079008 30.676172 
L 53.555914 27.630156 
L 48.283235 25.626452 
L 42.61692 24.801139 
L 36.939812 25.218367 
L 31.643026 26.865086 
L 27.105106 29.647448 
L 23.668132 33.390146 
L 21.611032 37.84063 
L 21.12205 42.6805 
L 22.274185 47.545575 
L 25.008549 52.054497 
L 29.130483 55.843511 
L 34.321557 58.602877 
L 40.167608 60.109088 
L 46.199111 60.247354 
L 51.937611 59.020861 
L 56.940951 56.546073 
L 60.840979 53.036088 
L 63.369745 48.775943 
L 64.373043 44.094386 
L 63.812364 39.335922 
L 61.757842 34.836088 
L 58.375423 30.901247 
L 53.91092 27.793033 
L 48.672919 25.716769 
L 43.015514 24.812857 
L 37.320834 25.150064 
L 31.980504 26.720147 
L 27.374895 29.434248 
L 23.849475 33.122063 
L 21.688305 37.535751 
L 21.086644 42.36084 
L 22.126077 47.235588 
L 24.757147 51.779023 
L 28.794456 55.625351 
L 33.92753 58.460338 
L 39.747666 60.053898 
L 45.787529 60.283434 
L 51.567377 59.144089 
L 56.640611 56.745034 
L 60.632251 53.293611 
L 63.266151 49.07108 
L 64.379515 44.404443 
L 63.925673 39.638385 
L 61.967725 35.110139 
L 58.665846 31.128804 
L 54.261387 27.959492 
L 49.059785 25.81151 
L 43.4132 24.829553 
L 37.702954 25.086923 
L 32.321042 26.580199 
L 27.649567 29.225499 
L 24.037252 32.857514 
L 21.773187 37.233128 
L 21.059438 42.041836 
L 21.986024 46.924513 
L 24.512899 51.500745 
L 28.463989 55.402889 
L 33.536899 58.312386 
L 39.328622 59.992734 
L 45.37431 60.313571 
L 51.193191 59.261963 
L 56.334443 56.93971 
L 60.416415 53.548259 
L 63.15483 49.364928 
L 64.378308 44.714848 
L 64.032016 39.942715 
L 62.171782 35.387317 
L 58.951881 31.360513 
L 54.609176 28.130857 
L 49.445823 25.911587 
L 43.811931 24.851705 
L 38.087948 25.029071 
L 32.666162 26.445054 
L 27.930306 29.020774 
L 24.232295 32.595951 
L 21.866145 36.932221 
L 21.040635 41.723059 
L 21.854035 46.612009 
L 24.27562 51.219433 
L 28.13871 55.176018 
L 33.149125 58.159057 
L 38.909777 59.925776 
L 44.958601 60.338133 
L 50.814123 59.375103 
L 56.02155 57.130982 
L 60.192725 53.801163 
L 63.03531 49.65883 
L 64.369314 45.027046 
L 64.131587 40.250368 
L 62.370612 35.669051 
L 59.234536 31.597582 
L 54.955503 28.308036 
L 49.832374 26.017622 
L 44.213095 24.879627 
L 38.477121 24.976533 
L 33.01701 26.314544 
L 28.218063 28.819771 
L 24.435292 32.336969 
L 21.967562 36.632569 
L 21.030324 41.404099 
L 21.730082 46.297815 
L 24.045313 50.934914 
L 27.818709 54.944605 
L 32.764435 58.000191 
L 38.491507 59.85274 
L 44.540884 60.356622 
L 50.430664 59.482717 
L 55.702337 57.317747 
L 59.961388 54.05089 
L 62.907472 49.951049 
L 64.35198 45.339086 
L 64.223405 40.559298 
L 62.562753 35.953319 
L 59.511982 31.838237 
L 55.29838 28.48954 
L 50.217322 26.128454 
L 44.614595 24.912593 
L 38.868605 24.928976 
L 33.372019 26.188642 
L 28.511643 28.622721 
L 24.645494 32.081007 
L 22.077156 36.33472 
L 21.0286 41.085501 
L 21.614494 45.982437 
L 23.82254 50.647666 
L 27.504824 54.709027 
L 32.383929 57.835983 
L 38.075139 59.773574 
L 44.122631 60.368644 
L 50.044285 59.584023 
L 55.378091 57.498827 
L 59.72336 54.295939 
L 62.771822 50.239828 
L 64.326236 45.649048 
L 64.306731 40.867562 
L 62.746795 36.238291 
L 59.782123 32.080881 
L 55.635164 28.674208 
L 50.597747 26.243404 
L 45.013362 24.950385 
L 39.259347 24.886717 
L 33.728428 26.068157 
L 28.808709 28.430787 
L 24.861078 31.82944 
L 22.19367 36.040142 
L 21.034803 40.768698 
L 21.507152 45.667136 
L 23.60755 50.358706 
L 27.197474 54.470059 
L 32.008028 57.667027 
L 37.660997 59.688775 
L 43.704055 60.37469 
L 49.655109 59.679539 
L 55.048861 57.674806 
L 59.478651 54.536988 
L 62.628413 50.525988 
L 64.292316 45.95787 
L 64.382016 41.176137 
L 62.923443 36.524937 
L 60.045935 32.326376 
L 55.966959 28.862702 
L 50.974772 26.362966 
L 45.410524 24.993316 
L 39.65036 24.849841 
L 34.087023 25.953031 
L 29.109871 28.24385 
L 25.082459 31.582113 
L 22.317338 35.74868 
L 21.049028 40.453567 
L 21.408071 45.351841 
L 23.400366 50.068 
L 26.896772 54.22769 
L 31.636997 57.493269 
L 37.249464 59.598198 
L 43.285601 60.374532 
L 49.263633 59.768987 
L 54.715186 57.845321 
L 59.227751 54.77357 
L 62.477611 50.808978 
L 64.250408 46.264982 
L 64.449319 41.484467 
L 63.092595 36.812721 
L 60.303173 32.574276 
L 56.293477 29.054673 
L 51.348073 26.486843 
L 45.80572 25.041168 
L 40.041328 24.818184 
L 34.447519 25.84309 
L 29.414823 28.061737 
L 25.309379 31.338885 
L 22.447937 35.460191 
L 21.071034 40.139943 
L 21.316937 45.036363 
L 23.200535 49.775366 
L 26.602076 53.981774 
L 31.269974 57.314684 
L 36.839516 59.502003 
L 42.866134 60.36855 
L 48.868675 59.85301 
L 54.375974 58.011348 
L 58.969847 55.006959 
L 62.318959 51.090286 
L 64.200457 46.572005 
L 64.509015 41.794232 
L 63.255081 37.103251 
L 60.555013 32.82598 
L 56.616102 29.251258 
L 51.719163 26.615876 
L 46.200455 25.094444 
L 40.43359 24.791989 
L 34.811057 25.738366 
L 29.724441 27.884292 
L 25.542388 31.09949 
L 22.585778 35.174433 
L 21.101029 39.82768 
L 21.233965 44.720662 
L 23.008334 49.480844 
L 26.313768 53.7324 
L 30.907471 57.131337 
L 36.431761 59.400173 
L 42.446318 60.356592 
L 48.47088 59.931293 
L 54.031762 58.172397 
L 58.70532 55.236543 
L 62.152692 51.369188 
L 64.142515 46.878132 
L 64.560965 42.104616 
L 63.410616 37.395782 
L 60.801111 33.080841 
L 56.934459 29.451899 
L 52.087613 26.749628 
L 46.594298 25.152871 
L 40.826753 24.771119 
L 35.177258 25.638916 
L 30.038434 27.711803 
L 25.781316 30.864408 
L 22.730795 34.892014 
L 21.139069 39.517491 
L 21.159437 44.405533 
L 22.824411 49.185239 
L 26.032918 53.480271 
L 30.550947 56.94372 
L 36.027952 59.292892 
L 42.028086 60.338463 
L 48.072198 60.003201 
L 53.684325 58.3274 
L 58.435588 55.460886 
L 61.979759 51.644008 
L 64.077013 47.181527 
L 64.604995 42.413741 
L 63.558488 37.688581 
L 61.040399 33.337389 
L 57.247347 29.655436 
L 52.452292 26.887195 
L 46.986282 25.215717 
L 41.22012 24.754936 
L 35.545748 25.544015 
L 30.356652 27.543337 
L 26.026149 30.632475 
L 22.882997 34.611535 
L 21.184989 39.207743 
L 21.092762 44.089193 
L 22.647541 48.886783 
L 25.757605 53.223852 
L 30.197914 56.750734 
L 35.625246 59.179611 
L 41.608406 60.314261 
L 47.669665 60.069553 
L 53.331018 58.477864 
L 58.158537 55.682087 
L 61.798747 51.917304 
L 64.003396 47.485066 
L 64.641499 42.724523 
L 63.699858 37.984334 
L 61.274609 33.597955 
L 57.556878 29.863745 
L 52.815519 27.029966 
L 47.378786 25.283849 
L 41.615879 24.743813 
L 35.918374 25.453697 
L 30.680565 27.378693 
L 26.277923 30.403323 
L 23.042983 34.332571 
L 21.239087 38.898082 
L 21.034116 43.7714 
L 22.477944 48.585334 
L 25.488217 52.963032 
L 29.848896 56.552213 
L 35.224263 59.060112 
L 41.188058 60.283627 
L 47.264128 60.129721 
L 52.972661 58.622857 
L 57.874836 55.898886 
L 61.610042 52.187521 
L 63.921631 47.786958 
L 64.669993 43.035108 
L 63.83388 38.281216 
L 61.502469 33.86081 
L 57.861342 30.075364 
L 53.175209 27.176878 
L 47.769477 25.356754 
L 42.01171 24.737808 
L 36.292944 25.368541 
L 31.008238 27.219002 
L 26.535169 30.178613 
L 23.209907 34.0572 
L 21.301197 38.590854 
L 20.984065 43.454621 
L 22.316934 48.283295 
L 25.226713 52.699959 
L 29.506379 56.349903 
L 34.827807 58.935567 
L 40.76983 60.247157 
L 46.858192 60.183809 
L 52.611479 58.762042 
L 57.586227 56.11066 
L 61.414858 52.453878 
L 63.832439 48.086416 
L 64.690749 43.344767 
L 63.960422 38.578659 
L 61.723621 34.125583 
L 58.160243 30.290054 
L 53.530767 27.327806 
L 48.15769 25.434374 
L 42.406876 24.736982 
L 36.668802 25.288701 
L 31.339103 27.064396 
L 26.797371 29.958443 
L 23.383333 33.785488 
L 21.370964 38.286057 
L 20.942268 43.138769 
L 22.164093 47.980524 
L 24.972582 52.434496 
L 29.169743 56.143708 
L 34.435162 58.805992 
L 40.352978 60.204989 
L 46.451065 60.232107 
L 52.246741 58.895923 
L 57.292099 56.318058 
L 61.212747 52.717138 
L 63.73556 48.384251 
L 64.703705 43.65433 
L 64.079634 38.877433 
L 61.938364 34.392944 
L 58.454029 30.508363 
L 53.882739 27.483125 
L 48.543983 25.516914 
L 42.801868 24.741368 
L 37.046276 25.214163 
L 31.67341 26.914885 
L 27.064694 29.742795 
L 23.563299 33.517414 
L 21.448359 37.98372 
L 20.908711 42.823931 
L 22.0195 47.677145 
L 24.726019 52.166775 
L 28.839341 55.933736 
L 34.046845 58.671408 
L 39.938151 60.157013 
L 46.043503 60.274308 
L 51.879182 59.023954 
L 56.993098 56.520354 
L 61.0042 52.976381 
L 63.631211 48.679377 
L 64.708726 43.962616 
L 64.191023 39.17638 
L 62.145911 34.661827 
L 58.741651 30.729386 
L 54.229913 27.642159 
L 48.927106 25.603932 
L 43.195477 24.750732 
L 37.424251 25.144832 
L 32.010135 26.770544 
L 27.336345 29.53195 
L 23.749295 33.253363 
L 21.533073 37.684261 
L 20.883254 42.51054 
L 21.883185 47.373581 
L 24.487241 51.897155 
L 28.515541 55.72026 
L 33.663379 58.531983 
L 39.526 60.103261 
L 45.636237 60.310293 
L 51.509568 59.145843 
L 56.689924 56.717063 
L 60.789784 53.23102 
L 63.519856 48.971159 
L 64.706133 44.268943 
L 64.294707 39.474825 
L 62.346201 34.931648 
L 59.022945 30.952651 
L 54.572068 27.80454 
L 49.306808 25.695172 
L 43.587493 24.764912 
L 37.802564 25.080576 
L 32.349146 26.631201 
L 27.612141 29.32567 
L 23.941125 32.993088 
L 21.62498 37.387398 
L 20.86579 42.198258 
L 21.755007 47.069472 
L 24.25603 51.625316 
L 28.198043 55.503032 
L 33.284347 58.387602 
L 39.116034 60.043809 
L 45.228747 60.340351 
L 51.137401 59.262118 
L 56.382179 56.90896 
L 60.569259 53.482029 
L 63.401439 49.260755 
L 64.696218 44.574659 
L 64.391424 39.774145 
L 62.540334 35.203682 
L 59.299318 31.179286 
L 54.910872 27.971165 
L 49.684926 25.791211 
L 43.979778 24.784127 
L 38.183004 25.02127 
L 32.69203 26.496393 
L 27.893366 29.123229 
L 24.139649 32.735677 
L 21.724472 37.092178 
L 20.85631 41.886148 
L 21.634538 46.763936 
L 24.031566 51.350505 
L 27.885679 55.281503 
L 32.908301 58.237971 
L 38.706577 59.978675 
L 44.819244 60.364894 
L 50.760937 59.373602 
L 56.068318 57.097256 
L 60.341434 53.730953 
L 63.275256 49.549935 
L 64.678748 44.881591 
L 64.481414 40.076175 
L 62.729091 35.479611 
L 59.571908 31.41065 
L 55.247658 28.143071 
L 50.06289 25.892759 
L 44.373722 24.808781 
L 38.566805 24.967081 
L 33.039823 26.366135 
L 28.180809 28.924506 
L 24.345379 32.480918 
L 21.831774 36.798357 
L 20.854815 41.574051 
L 21.521687 46.4569 
L 23.813653 51.072705 
L 27.578153 55.055709 
L 32.53486 58.083166 
L 38.297159 59.907966 
L 44.407164 60.384052 
L 50.379538 59.480479 
L 55.747691 57.282188 
L 60.10569 53.978048 
L 63.140734 49.838935 
L 64.653242 45.189946 
L 64.564281 40.381025 
L 62.91209 35.7595 
L 59.840459 31.64677 
L 55.582217 28.320171 
L 50.440448 25.999696 
L 44.769104 24.838756 
L 38.953784 24.91787 
L 33.392368 26.240298 
L 28.474382 28.729448 
L 24.558365 32.228861 
L 21.947082 36.506065 
L 20.861608 41.262151 
L 21.41693 46.148655 
L 23.603153 50.792252 
L 27.276814 54.825892 
L 32.165883 57.923187 
L 37.890113 59.831269 
L 43.995149 60.396828 
L 49.995897 59.581049 
L 55.422725 57.461348 
L 59.863906 54.220273 
L 62.998938 50.124214 
L 64.619725 45.495891 
L 64.638923 40.684852 
L 63.087134 36.039733 
L 60.101792 31.884551 
L 55.910764 28.500091 
L 50.813521 26.110378 
L 45.161762 24.873191 
L 39.340039 24.873563 
L 33.746279 26.119424 
L 28.771343 28.539031 
L 24.776563 31.980737 
L 22.069084 36.216627 
L 20.87606 40.95171 
L 21.320132 45.840272 
L 23.400189 50.510006 
L 26.981861 54.592732 
L 31.801522 57.758596 
L 37.485485 59.749099 
L 43.583153 60.403744 
L 49.609884 59.675878 
L 55.093236 57.635378 
L 59.615886 54.458388 
L 62.84978 50.406674 
L 64.578298 45.800405 
L 64.705633 40.988654 
L 63.254731 36.32127 
L 60.356542 32.124809 
L 56.233897 28.683521 
L 51.182658 26.225405 
L 45.552159 24.912545 
L 39.725831 24.83451 
L 34.101641 26.003869 
L 29.071664 28.353624 
L 24.999858 31.736937 
L 22.197619 35.930462 
L 20.898028 40.643171 
L 21.231256 45.532186 
L 23.204867 50.226357 
L 26.693577 54.356532 
L 31.442196 57.589567 
L 37.083755 59.661514 
L 43.17167 60.404787 
L 49.22201 59.764891 
L 54.759713 57.804113 
L 59.36204 54.69215 
L 62.69354 50.68603 
L 64.529147 46.103227 
L 64.76456 41.292177 
L 63.414983 36.603885 
L 60.60485 32.367369 
L 56.551842 28.870266 
L 51.54811 26.344555 
L 45.940612 24.956586 
L 40.111536 24.800398 
L 34.458796 25.893218 
L 29.375631 28.172777 
L 25.228492 31.496976 
L 22.332833 35.647053 
L 20.927517 40.335995 
L 21.150104 45.223872 
L 23.016779 49.940833 
L 26.411324 54.11693 
L 31.087099 57.4159 
L 36.684009 59.568479 
L 42.759719 60.40012 
L 48.831297 59.848506 
L 54.421321 57.968251 
L 59.101768 54.922468 
L 62.529877 50.963342 
L 64.472213 46.405511 
L 64.815941 41.596611 
L 63.568384 36.888686 
L 60.847345 32.613199 
L 56.865307 29.06115 
L 51.910616 26.468453 
L 46.327746 25.005753 
L 40.497645 24.771555 
L 34.818088 25.787682 
L 29.683393 27.99661 
L 25.462445 31.260981 
L 22.474649 35.366582 
L 20.964457 40.030426 
L 21.076657 44.915605 
L 22.835944 49.653716 
L 26.135161 53.874183 
L 30.736276 57.237815 
L 36.286249 59.470208 
L 42.347237 60.389943 
L 48.437599 59.926927 
L 54.077837 58.128045 
L 58.834863 55.149674 
L 62.358663 51.238984 
L 64.407456 46.707664 
L 64.859873 41.902403 
L 63.715257 37.176134 
L 61.084595 32.86269 
L 57.175017 29.256439 
L 52.270991 26.597259 
L 46.714447 25.060077 
L 40.884996 24.747892 
L 35.180268 25.68714 
L 29.995597 27.824979 
L 25.70221 31.028789 
L 22.623385 35.088927 
L 21.009114 39.726463 
L 21.011322 44.607534 
L 22.66307 49.365249 
L 25.866177 53.628545 
L 30.391237 57.055451 
L 35.892375 59.366571 
L 41.936411 60.373727 
L 48.043198 59.999124 
L 53.731399 58.281933 
L 58.563073 55.371739 
L 62.181115 51.510575 
L 64.335411 47.007056 
L 64.896111 42.206882 
L 63.854633 37.463749 
L 61.315098 33.113725 
L 57.479178 29.45445 
L 52.62733 26.729714 
L 47.098863 25.118719 
L 41.271986 24.728897 
L 35.544039 25.591272 
L 30.311279 27.657707 
L 25.947167 30.800291 
L 22.778694 34.813942 
L 21.061218 39.423831 
L 20.953664 44.299252 
L 22.497421 49.074975 
L 25.603326 53.379604 
L 30.050679 56.868524 
L 35.500852 59.2575 
L 41.525553 60.351739 
L 47.646398 60.065751 
L 53.380444 58.430967 
L 58.285116 55.590092 
L 61.996359 51.779878 
L 64.255788 47.305679 
L 64.924954 42.512049 
L 63.987326 37.75342 
L 61.540138 33.36797 
L 57.779475 29.656532 
L 52.981663 26.866762 
L 47.483212 25.182114 
L 41.660817 24.714507 
L 35.911479 25.499536 
L 30.632237 27.493762 
L 26.198671 30.57404 
L 22.941421 34.539919 
L 21.121127 39.120719 
L 20.903618 43.988981 
L 22.338585 48.781258 
L 25.345874 53.125945 
L 29.713572 56.675961 
L 35.110553 59.142308 
L 41.113583 60.323576 
L 47.246232 60.126647 
L 53.024188 58.575145 
L 58.00039 55.804801 
L 61.803951 52.046958 
L 64.168245 47.603579 
L 64.946239 42.817927 
L 64.113257 38.045035 
L 61.759513 33.625224 
L 58.075486 29.862486 
L 53.333281 27.008313 
L 47.866578 25.250396 
L 42.050426 24.705091 
L 36.281389 25.412646 
L 30.9573 27.334312 
L 26.455774 30.351668 
L 23.11098 34.268888 
L 21.188759 38.819475 
L 20.861765 43.679238 
L 22.187866 48.486571 
L 25.095842 52.869791 
L 29.382577 56.479481 
L 34.724483 59.022059 
L 40.703597 60.28967 
L 46.845677 60.181569 
L 52.665229 58.713633 
L 57.710959 56.014565 
L 61.605299 52.310207 
L 64.073507 47.89899 
L 64.959944 43.122748 
L 64.231793 38.33701 
L 61.972149 33.884118 
L 58.365754 30.071212 
L 53.680458 27.153599 
L 48.247031 25.323168 
L 42.438881 24.700692 
L 36.652013 25.330965 
L 31.284919 27.179973 
L 26.717222 30.134008 
L 23.286498 34.001811 
L 21.263604 38.521072 
L 20.827871 43.370934 
L 22.045229 48.191735 
L 24.853319 52.611841 
L 29.057799 56.279683 
L 34.342728 58.897281 
L 40.29558 60.250476 
L 46.444578 60.231035 
L 52.303355 58.84703 
L 57.416578 56.220092 
L 61.400212 52.570442 
L 63.971481 48.192831 
L 64.966181 43.427493 
L 64.343257 38.630309 
L 62.178597 34.145568 
L 58.651087 30.283474 
L 54.024176 27.303144 
L 48.625649 25.400677 
L 42.827191 24.701282 
L 37.024266 25.25429 
L 31.615916 27.030316 
L 26.983614 29.920405 
L 23.468304 33.737906 
L 21.345765 38.224686 
L 20.801857 43.063259 
L 21.910442 47.896001 
L 24.617977 52.35147 
L 28.738918 56.076075 
L 33.965042 58.767582 
L 39.889428 60.205665 
L 46.04297 60.274675 
L 51.938678 58.974931 
L 57.117437 56.420891 
L 61.188847 52.82704 
L 63.862198 48.484346 
L 64.964761 43.73133 
L 64.447235 38.924097 
L 62.378208 34.408781 
L 58.930623 30.498608 
L 54.363452 27.456454 
L 49.001392 25.482604 
L 43.214326 24.706704 
L 37.397118 25.18263 
L 31.949352 26.885609 
L 27.254243 29.711326 
L 23.655893 33.47773 
L 21.434892 37.930922 
L 20.78353 42.756834 
L 21.783508 47.599961 
L 24.39001 52.089172 
L 28.426299 55.869023 
L 33.591941 58.633179 
L 39.485765 60.155281 
L 45.64155 60.312349 
L 51.571901 59.096963 
L 56.81413 56.6164 
L 60.971688 53.079318 
L 63.74599 48.772736 
L 64.955781 44.033382 
L 64.543553 39.217511 
L 62.570582 34.672986 
L 59.203788 30.715966 
L 54.697582 27.613038 
L 49.373511 25.568641 
L 43.599578 24.716786 
L 37.769938 25.115893 
L 32.284642 26.74578 
L 27.528585 29.506773 
L 23.848938 33.221365 
L 21.530872 37.639881 
L 20.772962 42.45177 
L 21.664655 47.30373 
L 24.16979 51.825068 
L 28.120406 55.658645 
L 33.22396 58.494196 
L 39.085191 60.099436 
L 45.240937 60.344145 
L 51.20363 59.213213 
L 56.507231 56.806708 
L 60.749219 53.327391 
L 63.623314 49.058253 
L 64.939819 44.334025 
L 64.632914 39.510974 
L 62.756554 34.938645 
L 59.471604 30.936006 
L 55.027786 27.77327 
L 49.743368 25.658989 
L 43.984373 24.731543 
L 38.144144 25.053847 
L 32.623082 26.610348 
L 27.807679 29.306013 
L 24.048065 32.967891 
L 21.633932 37.350544 
L 20.769946 42.146966 
L 21.55319 47.00622 
L 23.956136 51.558185 
L 27.819626 55.444189 
L 32.859114 58.350188 
L 38.685436 60.038116 
L 44.838767 60.37056 
L 50.831598 59.324695 
L 56.194766 56.99331 
L 60.519946 53.573143 
L 63.493241 49.342983 
L 64.916511 44.635439 
L 64.715639 39.80663 
L 62.937031 35.207626 
L 59.735347 31.16025 
L 55.35558 27.938302 
L 50.112579 25.754422 
L 44.370271 24.751384 
L 38.521134 24.996623 
L 32.965847 26.479199 
L 28.092412 29.108742 
L 24.253863 32.716901 
L 21.744339 37.062506 
L 20.774538 41.842097 
L 21.448967 46.707155 
L 23.748667 51.28833 
L 27.523345 55.225567 
L 32.496557 58.201201 
L 38.285439 59.971533 
L 44.433781 60.392037 
L 50.454467 59.432151 
L 55.875453 57.177251 
L 60.282782 53.817879 
L 63.355006 49.628437 
L 64.885514 44.939205 
L 64.791727 40.106017 
L 63.112402 35.481391 
L 59.995749 31.389896 
L 55.681814 28.109029 
L 50.482026 25.855565 
L 44.758127 24.776665 
L 38.901635 24.944364 
L 33.313507 26.352378 
L 28.383234 28.915006 
L 24.46669 32.468477 
L 21.862395 36.775913 
L 20.787033 41.537449 
L 21.352543 46.406991 
L 23.548414 51.01599 
L 27.233155 55.003151 
L 32.138463 58.047324 
L 37.887883 59.899289 
L 44.028984 60.407514 
L 50.075258 59.533741 
L 55.552024 57.355912 
L 60.039844 54.058269 
L 63.209816 49.910725 
L 64.846914 45.241133 
L 64.860111 40.404928 
L 63.280463 35.755998 
L 60.249746 31.621593 
L 56.002944 28.282778 
L 50.847895 25.960486 
L 45.144162 24.80627 
L 39.282233 24.896655 
L 33.663176 26.230005 
L 28.67788 28.725295 
L 24.684957 32.223341 
L 21.987161 36.491557 
L 20.807012 41.233734 
L 21.26379 46.106313 
L 23.355398 50.741646 
L 26.949143 54.777326 
L 31.784945 57.888862 
L 37.492899 59.82162 
L 43.624518 60.417143 
L 49.694102 59.629535 
L 55.224553 57.529297 
L 59.791162 54.294298 
L 63.057678 50.189808 
L 64.800656 45.541152 
L 64.920644 40.703281 
L 63.440952 36.031344 
L 60.496824 31.85524 
L 56.318198 28.459574 
L 51.209268 26.06933 
L 45.52729 24.840444 
L 39.661712 24.853944 
L 34.013666 26.112732 
L 28.975264 28.540414 
L 24.907733 31.982391 
L 22.117924 36.210382 
L 20.834045 40.931884 
L 21.182572 45.805953 
L 23.169731 50.465987 
L 26.671586 54.548614 
L 31.436324 57.726194 
L 37.100766 59.738838 
L 43.220611 60.42123 
L 49.311184 59.719841 
L 54.89317 57.697723 
L 59.536809 54.526316 
L 62.89865 50.466124 
L 64.746906 45.839771 
L 64.973628 41.001607 
L 63.594358 36.30797 
L 60.737723 32.091302 
L 56.628478 28.639724 
L 51.567137 26.182277 
L 45.908588 24.879201 
L 40.041114 24.816025 
L 34.365875 26.000207 
L 29.276154 28.359917 
L 25.135615 31.74511 
L 22.255076 35.931839 
L 20.868299 40.631348 
L 21.108837 45.50541 
L 22.991167 50.188585 
L 26.400111 54.316697 
L 31.092189 57.559089 
L 36.71106 59.650779 
L 42.816837 60.419706 
L 48.926137 59.804728 
L 54.557632 57.861365 
L 59.276644 54.754554 
L 62.732681 50.739944 
L 64.685682 46.137306 
L 65.019165 41.300226 
L 63.740786 36.586157 
L 60.972514 32.330053 
L 56.933859 28.823478 
L 51.921529 26.299507 
L 46.288001 24.922711 
L 40.420354 24.783048 
L 34.719658 25.892529 
L 29.58031 28.183904 
L 25.368356 31.511644 
L 22.398401 35.656097 
L 20.909586 40.332299 
L 21.042401 45.204834 
L 22.819489 49.909565 
L 26.134405 54.081677 
L 30.752069 57.387694 
L 36.323161 59.557681 
L 42.412432 60.412942 
L 48.538087 59.884744 
L 54.217076 58.021017 
L 59.009971 54.980028 
L 62.559309 51.012444 
L 64.616816 46.435045 
L 65.05747 41.600488 
L 63.880894 36.867195 
L 61.202221 32.572591 
L 57.235603 29.011698 
L 52.273874 26.421621 
L 46.66699 24.971269 
L 40.800778 24.755084 
L 35.076209 25.789588 
L 29.888702 28.012097 
L 25.606619 31.281619 
L 22.548316 35.382826 
L 20.958237 40.034541 
L 20.983678 44.904179 
L 22.655309 49.628998 
L 25.875373 53.843676 
L 30.417218 57.212057 
L 35.938651 59.459393 
L 42.009225 60.40046 
L 48.148944 59.959007 
L 53.873274 58.175365 
L 58.738266 55.20106 
L 62.37959 51.281634 
L 64.540794 46.730802 
L 65.088383 41.900191 
L 64.013946 37.149058 
L 61.425681 32.817185 
L 57.532258 29.202994 
L 52.622534 26.547618 
L 47.043911 25.024279 
L 41.180864 24.731869 
L 35.434181 25.691443 
L 30.200263 27.844851 
L 25.849666 31.055593 
L 22.704364 35.112653 
L 21.013969 39.738685 
L 20.932477 44.604012 
L 22.498535 49.347392 
L 25.623037 53.603109 
L 30.087738 57.03248 
L 35.557646 59.356127 
L 41.607334 60.382406 
L 47.75881 60.027606 
L 53.526299 58.324471 
L 58.461554 55.417725 
L 62.19355 51.547652 
L 64.457697 47.024726 
L 65.112005 42.199489 
L 64.140113 37.431925 
L 61.643229 33.064026 
L 57.824427 29.39752 
L 52.968435 26.677495 
L 47.419933 25.081497 
L 41.561985 24.712858 
L 35.795065 25.597124 
L 30.516401 27.680723 
L 26.098664 30.831705 
L 22.86735 34.843408 
L 21.07711 39.442369 
L 20.888556 44.301935 
L 22.348271 49.062475 
L 25.375802 53.358048 
L 29.761489 56.847571 
L 35.177716 59.247071 
L 41.204202 60.358581 
L 47.365229 60.090955 
L 53.173981 58.469281 
L 58.178097 55.631386 
L 61.999972 51.812154 
L 64.366941 47.318675 
L 65.128435 42.500197 
L 64.25994 37.717395 
L 61.855646 33.31445 
L 58.112928 29.596343 
L 53.312309 26.812113 
L 47.795657 25.14359 
L 41.944469 24.698605 
L 36.158899 25.50726 
L 30.836975 27.520519 
L 26.35338 30.610978 
L 23.037061 34.576358 
L 21.14767 39.147104 
L 20.85234 43.999597 
L 22.205484 48.775903 
L 25.135275 53.109947 
L 29.440599 56.658379 
L 34.801305 59.132823 
L 40.802483 60.329039 
L 46.970814 60.148493 
L 52.818687 58.608659 
L 57.889808 55.840394 
L 61.800165 52.07311 
L 64.269087 47.610361 
L 65.137461 42.800012 
L 64.372594 38.003278 
L 62.061504 33.566479 
L 58.395831 29.797848 
L 53.651836 26.950319 
L 48.168528 25.210005 
L 42.325806 24.689133 
L 36.523343 25.422355 
L 31.159931 27.365213 
L 26.612221 30.394788 
L 23.212462 34.313143 
L 21.225163 38.854652 
L 20.823862 43.698778 
L 22.07069 48.489348 
L 24.902323 52.860282 
L 29.126178 56.466136 
L 34.429639 59.014287 
L 40.403302 60.294413 
L 46.576551 60.200674 
L 52.461185 58.74292 
L 57.597245 56.045035 
L 61.594497 52.330827 
L 64.164398 47.900184 
L 65.139315 43.099404 
L 64.478325 38.290129 
L 62.261204 33.820703 
L 58.673704 30.00254 
L 53.987721 27.092476 
L 48.539319 25.280877 
L 42.706749 24.684405 
L 36.889174 25.342169 
L 31.485968 27.214276 
L 26.875685 30.182363 
L 23.393832 34.052827 
L 21.309637 38.563966 
L 20.802898 43.398381 
L 21.94336 48.201768 
L 24.676189 52.608154 
L 28.817333 56.270129 
L 34.061781 58.890972 
L 40.005797 60.254394 
L 46.181656 60.247347 
L 52.100863 58.872064 
L 57.299966 56.245346 
L 61.382662 52.58533 
L 64.052647 48.188117 
L 65.133797 43.398301 
L 64.576905 38.577818 
L 62.454417 34.076968 
L 58.946136 30.210286 
L 54.319473 27.238469 
L 48.907458 25.35615 
L 43.086632 24.684433 
L 37.255626 25.266908 
L 31.814386 27.068151 
L 27.143191 29.97429 
L 23.580687 33.796098 
L 21.400747 38.275818 
L 20.789314 43.099218 
L 21.823632 47.913933 
L 24.45727 52.354229 
L 28.514698 56.070868 
L 33.698558 58.763184 
L 39.61092 60.209058 
L 45.787152 60.288312 
L 51.73867 58.995605 
L 56.998792 56.440644 
L 61.165306 52.835749 
L 63.934192 48.473129 
L 65.120911 43.695603 
L 64.668008 38.865285 
L 62.640555 34.334313 
L 59.212309 30.42028 
L 54.646148 27.387698 
L 49.271994 25.435414 
L 43.464564 24.688951 
L 37.621899 25.196372 
L 32.144453 26.926725 
L 27.414191 29.770586 
L 23.772719 33.543033 
L 21.498366 37.990304 
L 20.783136 42.801405 
L 21.711676 47.625977 
L 24.245856 52.098632 
L 28.218653 55.868475 
L 33.340462 58.631019 
L 39.219262 60.158437 
L 45.39369 60.323522 
L 51.375287 59.113401 
L 56.694337 56.630671 
L 60.942931 53.081809 
L 63.809519 48.754992 
L 65.101128 43.991099 
L 64.752074 39.152367 
L 62.820082 34.592655 
L 59.472791 30.632494 
L 54.968412 27.540149 
L 49.633663 25.518652 
L 43.841371 24.697884 
L 37.988835 25.130373 
L 32.476947 26.789656 
L 27.689255 29.570736 
L 23.970253 33.293012 
L 21.602602 37.706698 
L 20.784163 42.504126 
L 21.60691 47.337073 
L 24.040981 51.840624 
L 27.927876 55.66237 
L 32.985817 58.494181 
L 38.828898 60.102636 
L 44.999242 60.353546 
L 51.008749 59.226513 
L 56.384901 56.816964 
L 60.714261 53.325407 
L 63.677832 49.035857 
L 65.074311 44.287113 
L 64.82967 39.441307 
L 62.994083 34.853993 
L 59.729045 30.848615 
L 55.287992 27.697119 
L 49.994295 25.606721 
L 44.218799 24.711696 
L 38.358016 25.069036 
L 32.813176 26.656767 
L 27.96937 29.374377 
L 24.173931 33.045597 
L 21.713793 37.424615 
L 20.792536 42.20706 
L 21.50928 47.046963 
L 23.842403 51.580035 
L 27.641939 55.452496 
L 32.634019 58.352727 
L 38.43903 60.041863 
L 44.602855 60.378825 
L 50.63804 59.335656 
L 56.069512 57.000523 
L 60.478494 53.567818 
L 63.538645 49.3172 
L 65.040279 44.585182 
L 64.900954 39.733689 
L 63.16318 35.119786 
L 59.981994 31.069823 
L 55.605986 27.859504 
L 50.355102 25.700209 
L 44.598057 24.730658 
L 38.730534 25.01238 
L 33.154085 26.527916 
L 28.255291 29.181226 
L 24.384268 32.800403 
L 21.832185 37.143654 
L 20.808348 41.909927 
L 21.418933 46.755487 
L 23.650426 51.316774 
L 27.361381 55.23877 
L 32.285895 58.20649 
L 38.050755 59.975751 
L 44.205806 60.398668 
L 50.264486 59.439759 
L 55.749394 57.179854 
L 60.236558 53.807119 
L 63.392394 49.59674 
L 64.99888 44.882822 
L 64.965121 40.026947 
L 63.325904 35.387645 
L 60.229754 31.294043 
L 55.920196 28.025578 
L 50.713687 25.797863 
L 44.976814 24.754009 
L 39.10428 24.960048 
L 33.497887 26.40308 
L 28.545644 28.991549 
L 24.600368 32.557893 
L 21.957332 36.864345 
L 20.831465 41.613246 
L 21.335966 46.463161 
L 23.465393 51.051317 
L 27.086797 55.021562 
L 31.942286 58.055675 
L 37.665149 59.904257 
L 43.809319 60.412712 
L 49.889323 59.538089 
L 55.425649 57.353886 
L 59.98932 54.041947 
L 63.239571 49.872873 
L 64.950104 45.178285 
L 65.021599 40.319324 
L 63.481063 35.655895 
L 60.470509 31.519887 
L 56.228398 28.194357 
L 51.067566 25.899091 
L 45.352411 24.781615 
L 39.476671 24.912398 
L 33.842242 26.283001 
L 28.838438 28.806355 
L 24.820658 32.319237 
L 22.088142 36.587921 
L 20.861293 41.318185 
L 21.260198 46.170992 
L 23.28739 50.784472 
L 26.818374 54.801507 
L 31.603345 57.900805 
L 37.282263 59.82787 
L 43.41335 60.421461 
L 49.512415 59.631199 
L 55.09807 57.523249 
L 59.736545 54.273061 
L 63.080063 50.146512 
L 64.89405 45.472573 
L 65.070743 40.611862 
L 63.629345 35.925544 
L 60.705216 31.748195 
L 56.531676 28.366509 
L 51.417924 26.004388 
L 45.726042 24.813734 
L 39.848742 24.869483 
L 34.18802 26.167631 
L 29.134368 28.625513 
L 25.045634 32.084259 
L 22.224919 36.314199 
L 20.897967 41.024584 
L 21.191651 45.878856 
L 23.116403 50.516161 
L 26.556168 54.578537 
L 31.269231 57.741767 
L 36.902339 59.746429 
L 43.018212 60.424728 
L 49.134166 59.718857 
L 54.767095 57.687618 
L 59.478629 54.500045 
L 62.914147 50.417185 
L 64.830885 45.76521 
L 65.112593 40.904074 
L 63.770625 36.196153 
L 60.933671 31.978621 
L 56.829799 28.541737 
L 51.764482 26.113521 
L 46.097471 24.850201 
L 40.220319 24.83114 
L 34.535044 26.056788 
L 29.433279 28.448875 
L 25.275191 31.852816 
L 22.367571 36.043008 
L 20.941358 40.732238 
L 21.13009 45.586521 
L 22.952027 50.246148 
L 26.29952 54.352475 
L 30.939036 57.578528 
L 36.524244 59.660085 
L 42.622594 60.422907 
L 48.753183 59.801785 
L 54.431446 57.848074 
L 59.214544 54.724267 
L 62.74113 50.686476 
L 64.760329 46.057922 
L 65.14737 41.19772 
L 63.905599 36.469347 
L 61.156911 32.212561 
L 57.124058 28.72116 
L 52.10867 26.227267 
L 46.46807 24.891481 
L 40.592658 24.797586 
L 34.884381 25.950453 
L 29.735949 28.276231 
L 25.509817 31.624647 
L 22.516405 35.774149 
L 20.991714 40.441049 
L 21.075795 45.293992 
L 22.794637 49.974523 
L 26.048977 54.123442 
L 30.613489 57.411166 
L 36.148884 59.568812 
L 42.227508 60.415803 
L 48.370482 59.879581 
L 54.092035 58.004027 
L 58.945069 54.944974 
L 62.561576 50.953485 
L 64.682662 46.349734 
L 65.175054 41.491847 
L 64.034023 36.744269 
L 61.374533 32.449262 
L 57.413879 28.90416 
L 52.449798 26.345197 
L 46.837118 24.937327 
L 40.964995 24.768779 
L 35.23531 25.848849 
L 30.041782 28.108044 
L 25.749057 31.40038 
L 22.671091 35.508367 
L 21.048879 40.151867 
L 21.028895 45.002179 
L 22.64475 49.702167 
L 25.805458 53.892191 
L 30.293869 57.240209 
L 35.777823 59.472832 
L 41.834705 60.403256 
L 47.987845 59.951665 
L 53.750501 58.154499 
L 58.671541 55.160886 
L 62.376471 51.216703 
L 64.598397 46.638989 
L 65.195675 41.784833 
L 64.155569 37.019476 
L 61.586045 32.687544 
L 57.698829 29.089801 
L 52.787595 26.466541 
L 47.204591 24.987061 
L 41.337634 24.743982 
L 35.588372 25.751023 
L 30.351438 27.943102 
L 25.99358 31.178537 
L 22.832147 35.243908 
L 21.112984 39.862703 
L 20.988902 44.708987 
L 22.501086 49.427075 
L 25.566903 53.657033 
L 29.977504 57.064446 
L 35.407929 59.371532 
L 41.440812 60.385377 
L 47.601935 60.018899 
L 53.403806 58.301057 
L 58.39146 55.374165 
L 62.184048 51.47878 
L 64.506722 46.928588 
L 65.209306 42.079501 
L 64.271002 37.297539 
L 61.792713 32.929592 
L 57.980473 29.27982 
L 53.123807 26.592549 
L 47.572199 25.041436 
L 41.712059 24.723577 
L 35.944786 25.657111 
L 30.665828 27.781355 
L 26.243955 30.958973 
L 22.999887 34.980667 
L 21.184265 39.573557 
L 20.956141 44.414528 
L 22.364235 49.149424 
L 25.334217 53.418103 
L 29.665536 56.883941 
L 35.040615 59.264851 
L 41.047452 60.361824 
L 47.214449 60.0806 
L 53.053571 58.442623 
L 58.106188 55.583354 
L 61.985239 51.737912 
L 64.407992 47.216538 
L 65.215784 42.373824 
L 64.379622 37.576452 
L 61.993258 33.173592 
L 58.257017 29.472745 
L 53.456187 26.722247 
L 47.937495 25.100061 
L 42.085793 24.707706 
L 36.302151 25.567808 
L 30.982835 27.624068 
L 26.498549 30.743444 
L 23.173258 34.720753 
L 21.262309 39.286774 
L 20.930904 44.121224 
L 22.23516 48.871528 
L 25.108947 53.177464 
L 29.36 56.700323 
L 34.678138 59.153887 
L 40.656907 60.333224 
L 46.827519 60.136926 
L 52.701612 58.579004 
L 57.817147 55.788015 
L 61.781039 51.993567 
L 64.302815 47.502296 
L 65.215335 42.667338 
L 64.481411 37.855916 
L 62.187553 33.419353 
L 58.528256 29.668467 
L 53.784514 26.855567 
L 48.300186 25.162922 
L 42.45858 24.696431 
L 36.66029 25.483139 
L 31.302284 27.471192 
L 26.75718 30.531841 
L 23.352084 34.463982 
L 21.346898 39.002069 
L 20.912839 43.828711 
L 22.113333 48.593014 
L 24.890399 52.934774 
L 29.060038 56.513351 
L 34.319543 59.038545 
L 40.268136 60.299629 
L 46.4401 60.188164 
L 52.346992 58.710669 
L 57.523547 55.988768 
L 61.570856 52.246452 
L 64.190803 47.78662 
L 65.207801 42.960785 
L 64.576382 38.136591 
L 62.375754 33.667447 
L 58.79447 29.867417 
L 54.109101 26.992785 
L 48.660572 25.230136 
L 42.830576 24.689797 
L 37.019271 25.403188 
L 31.624213 27.322804 
L 27.0198 30.32423 
L 23.536246 34.21046 
L 21.437918 38.719608 
L 20.901924 43.537207 
L 21.998874 48.314117 
L 24.678872 52.690265 
L 28.766155 56.3232 
L 33.965529 58.918887 
L 39.882023 60.260935 
L 46.053157 60.233958 
L 51.99065 58.837054 
L 57.226261 56.184832 
L 61.355363 52.495565 
L 64.07231 48.06834 
L 65.19316 43.252942 
L 64.66418 38.4173 
L 62.557196 33.916809 
L 59.054747 30.068729 
L 54.428914 27.133263 
L 49.017587 25.30128 
L 43.200771 24.687536 
L 37.378122 25.327833 
L 31.947783 27.178998 
L 27.285825 30.120849 
L 23.725369 33.960478 
L 21.535152 38.439714 
L 20.898082 43.247051 
L 21.891856 48.035156 
L 24.474553 52.444206 
L 28.478656 56.130081 
L 33.616523 58.795035 
L 39.499093 60.217148 
L 45.667295 60.27418 
L 51.633206 58.957847 
L 56.925815 56.375759 
L 61.13502 52.740403 
L 63.947731 48.346892 
L 65.171669 43.543217 
L 64.744919 38.697505 
L 62.731919 34.166999 
L 59.3091 30.272056 
L 54.74396 27.276754 
L 49.371287 25.376204 
L 43.56929 24.689523 
L 37.737025 25.256918 
L 32.273141 27.039525 
L 27.555315 29.921405 
L 23.919506 33.713707 
L 21.638613 38.161989 
L 20.901223 42.957796 
L 21.792031 47.755693 
L 24.277039 52.196216 
L 28.196952 55.93372 
L 33.271769 58.666907 
L 39.11848 60.168418 
L 45.281597 60.309246 
L 51.273782 59.073759 
L 56.621476 56.56253 
L 60.909274 52.982178 
L 63.816823 48.62375 
L 65.143585 43.833215 
L 64.81931 38.978768 
L 62.901015 34.419462 
L 59.558974 30.478644 
L 55.055955 27.424201 
L 49.723516 25.455479 
L 43.937989 24.695977 
L 38.097725 25.19029 
L 32.601796 26.903924 
L 27.829445 29.725194 
L 24.119406 33.469328 
L 21.748679 37.885578 
L 20.911349 42.668578 
L 21.69902 47.474921 
L 24.085583 51.945614 
L 27.919971 55.733627 
L 32.9299 58.534247 
L 38.73858 60.114822 
L 44.894354 60.339626 
L 50.910702 59.185663 
L 56.311752 56.746405 
L 60.676988 53.22247 
L 63.678871 48.900648 
L 65.108588 44.124754 
L 64.887566 39.262876 
L 63.065146 34.67574 
L 59.8053 30.68974 
L 55.36601 27.576541 
L 50.075448 25.539732 
L 44.307964 24.707251 
L 38.461178 25.128117 
L 32.934539 26.772198 
L 28.108781 29.532083 
L 24.325378 33.227116 
L 21.86542 37.610287 
L 20.928431 42.379281 
L 21.612743 47.192769 
L 23.900074 51.692374 
L 27.647588 55.529803 
L 32.590774 58.397074 
L 38.359221 60.056376 
L 44.505339 60.365344 
L 50.543712 59.2936 
L 55.996379 56.927409 
L 60.437868 53.46125 
L 63.533553 49.177508 
L 65.06635 44.417665 
L 64.949243 39.549594 
L 63.22385 34.935604 
L 60.047605 30.905043 
L 55.673543 27.733457 
L 50.426455 25.628692 
L 44.678614 24.723099 
L 38.826816 25.07019 
L 33.270868 26.644226 
L 28.392978 29.342079 
L 24.537272 32.987186 
L 21.988838 37.336291 
L 20.952613 42.090189 
L 21.533644 46.909631 
L 23.721389 51.436895 
L 27.381198 55.322534 
L 32.25635 58.255404 
L 37.982869 59.992635 
L 44.117356 60.385331 
L 50.175678 59.395795 
L 55.677999 57.103074 
L 60.194033 53.695427 
L 63.382169 49.450767 
L 65.01714 44.708164 
L 65.003522 39.835168 
L 63.375198 35.195616 
L 60.283117 31.121719 
L 55.975257 27.892783 
L 50.772913 25.720923 
L 45.046289 24.742882 
L 39.191268 25.016544 
L 33.607862 26.520559 
L 28.679653 29.156078 
L 24.753315 32.750629 
L 22.117797 37.064732 
L 20.9833 41.802343 
L 21.461482 46.626382 
L 23.54945 51.17989 
L 27.120726 55.112404 
L 31.926459 58.109754 
L 37.609237 59.924112 
L 43.73 60.400132 
L 49.806099 59.492866 
L 55.356054 57.274136 
L 59.944991 53.925911 
L 63.224418 49.721466 
L 64.960899 44.99736 
L 65.050638 40.120719 
L 63.519703 35.456789 
L 60.512457 31.340628 
L 56.271819 28.055269 
L 51.115499 25.817013 
L 45.411533 24.767013 
L 39.554898 24.967535 
L 33.945756 26.401524 
L 28.968913 28.974389 
L 24.9735 32.517759 
L 22.252213 36.795933 
L 21.020403 41.516072 
L 21.396217 46.343337 
L 23.384341 50.921632 
L 26.866407 54.899602 
L 31.601443 57.960216 
L 37.23873 59.850835 
L 43.343743 60.409725 
L 49.435488 59.584698 
L 55.031029 57.44038 
L 59.691126 54.152401 
L 63.060574 49.989292 
L 64.897839 45.284937 
L 65.090713 40.405943 
L 63.657461 35.718883 
L 60.735779 31.561553 
L 56.563418 28.220686 
L 51.454474 25.916753 
L 45.774719 24.795243 
L 39.918108 24.922822 
L 34.28492 26.286741 
L 29.261129 28.796602 
L 25.198157 32.288118 
L 22.392318 36.529393 
L 21.063979 41.23085 
L 21.337689 46.059975 
L 23.225626 50.661653 
L 26.617533 54.68378 
L 31.280371 57.806594 
L 36.870229 59.77279 
L 42.95733 60.414348 
L 49.062596 59.671852 
L 54.70182 57.602645 
L 59.431549 54.375958 
L 62.890023 50.25547 
L 64.827677 45.57222 
L 65.12382 40.692142 
L 63.788802 35.983074 
L 60.953602 31.785521 
L 56.85071 28.389858 
L 51.790484 26.020739 
L 51.790484 26.020739 
" clip-path="url(#p838644df74)" style="fill: none; stroke: #495373; stroke-width: 0.01; stroke-linecap: square"/>
   </g>
  </g>
 </g>
 <defs>
  <clipPath id="p838644df74">
   <rect x="10.275591" y="11.090551" width="63.708661" height="63.708661"/>
  </clipPath>
 </defs>
</svg>
