<?xml version="1.0" encoding="utf-8" standalone="no"?>
<!DOCTYPE svg PUBLIC "-//W3C//DTD SVG 1.1//EN"
  "http://www.w3.org/Graphics/SVG/1.1/DTD/svg11.dtd">
<svg xmlns:xlink="http://www.w3.org/1999/xlink" width="83.514697pt" height="101.864352pt" viewBox="0 0 83.514697 101.864352" xmlns="http://www.w3.org/2000/svg" version="1.1">
 <metadata>
  <rdf:RDF xmlns:dc="http://purl.org/dc/elements/1.1/" xmlns:cc="http://creativecommons.org/ns#" xmlns:rdf="http://www.w3.org/1999/02/22-rdf-syntax-ns#">
   <cc:Work>
    <dc:type rdf:resource="http://purl.org/dc/dcmitype/StillImage"/>
    <dc:date>2025-03-02T23:59:22.401516</dc:date>
    <dc:format>image/svg+xml</dc:format>
    <dc:creator>
     <cc:Agent>
      <dc:title>Matplotlib v3.7.5, https://matplotlib.org/</dc:title>
     </cc:Agent>
    </dc:creator>
   </cc:Work>
  </rdf:RDF>
 </metadata>
 <defs>
  <style type="text/css">*{stroke-linejoin: round; stroke-linecap: butt}</style>
 </defs>
 <g id="figure_1">
  <g id="patch_1">
   <path d="M 0 101.864352 
L 83.514697 101.864352 
L 83.514697 0 
L 0 0 
L 0 101.864352 
z
" style="fill: none"/>
  </g>
  <g id="axes_1">
   <g id="patch_2">
    <path d="M 18.303438 29.077136 
L 73.224697 29.077136 
L 73.224697 1.793672 
L 18.303438 1.793672 
L 18.303438 29.077136 
z
" style="fill: none"/>
   </g>
   <g id="matplotlib.axis_1"/>
   <g id="matplotlib.axis_2">
    <g id="ytick_1">
     <g id="line2d_1">
      <defs>
       <path id="m8c01247fa9" d="M 0 0 
L -1 0 
" style="stroke: #000000; stroke-width: 0.5"/>
      </defs>
      <g>
       <use xlink:href="#m8c01247fa9" x="18.303438" y="25.353253" style="stroke: #000000; stroke-width: 0.5"/>
      </g>
     </g>
     <g id="text_1">
      <!-- −5000 -->
      <g transform="translate(5.378125 26.426925) scale(0.03 -0.03)">
       <defs>
        <path id="ArialMT-2212" d="M 3381 1997 
L 356 1997 
L 356 2522 
L 3381 2522 
L 3381 1997 
z
" transform="scale(0.015625)"/>
        <path id="ArialMT-35" d="M 266 1200 
L 856 1250 
Q 922 819 1161 601 
Q 1400 384 1738 384 
Q 2144 384 2425 690 
Q 2706 997 2706 1503 
Q 2706 1984 2436 2262 
Q 2166 2541 1728 2541 
Q 1456 2541 1237 2417 
Q 1019 2294 894 2097 
L 366 2166 
L 809 4519 
L 3088 4519 
L 3088 3981 
L 1259 3981 
L 1013 2750 
Q 1425 3038 1878 3038 
Q 2478 3038 2890 2622 
Q 3303 2206 3303 1553 
Q 3303 931 2941 478 
Q 2500 -78 1738 -78 
Q 1113 -78 717 272 
Q 322 622 266 1200 
z
" transform="scale(0.015625)"/>
        <path id="ArialMT-30" d="M 266 2259 
Q 266 3072 433 3567 
Q 600 4063 929 4331 
Q 1259 4600 1759 4600 
Q 2128 4600 2406 4451 
Q 2684 4303 2865 4023 
Q 3047 3744 3150 3342 
Q 3253 2941 3253 2259 
Q 3253 1453 3087 958 
Q 2922 463 2592 192 
Q 2263 -78 1759 -78 
Q 1097 -78 719 397 
Q 266 969 266 2259 
z
M 844 2259 
Q 844 1131 1108 757 
Q 1372 384 1759 384 
Q 2147 384 2411 759 
Q 2675 1134 2675 2259 
Q 2675 3391 2411 3762 
Q 2147 4134 1753 4134 
Q 1366 4134 1134 3806 
Q 844 3388 844 2259 
z
" transform="scale(0.015625)"/>
       </defs>
       <use xlink:href="#ArialMT-2212"/>
       <use xlink:href="#ArialMT-35" x="58.398438"/>
       <use xlink:href="#ArialMT-30" x="114.013672"/>
       <use xlink:href="#ArialMT-30" x="169.628906"/>
       <use xlink:href="#ArialMT-30" x="225.244141"/>
      </g>
     </g>
    </g>
    <g id="ytick_2">
     <g id="line2d_2">
      <g>
       <use xlink:href="#m8c01247fa9" x="18.303438" y="15.427755" style="stroke: #000000; stroke-width: 0.5"/>
      </g>
     </g>
     <g id="text_2">
      <!-- 0 -->
      <g transform="translate(12.135156 16.501427) scale(0.03 -0.03)">
       <use xlink:href="#ArialMT-30"/>
      </g>
     </g>
    </g>
    <g id="ytick_3">
     <g id="line2d_3">
      <g>
       <use xlink:href="#m8c01247fa9" x="18.303438" y="5.502257" style="stroke: #000000; stroke-width: 0.5"/>
      </g>
     </g>
     <g id="text_3">
      <!-- 5000 -->
      <g transform="translate(7.130313 6.575929) scale(0.03 -0.03)">
       <use xlink:href="#ArialMT-35"/>
       <use xlink:href="#ArialMT-30" x="55.615234"/>
       <use xlink:href="#ArialMT-30" x="111.230469"/>
       <use xlink:href="#ArialMT-30" x="166.845703"/>
      </g>
     </g>
    </g>
    <g id="text_4">
     <!-- $x_1(t)$ -->
     <g transform="translate(3.583125 19.015404) rotate(-90) scale(0.04 -0.04)">
      <defs>
       <path id="STIXGeneral-Italic-78" d="M 1555 2272 
L 1632 1907 
Q 1971 2426 2179 2624 
Q 2387 2822 2598 2822 
Q 2714 2822 2787 2755 
Q 2861 2688 2861 2585 
Q 2861 2483 2800 2419 
Q 2739 2355 2643 2355 
Q 2586 2355 2490 2409 
Q 2394 2464 2310 2464 
Q 2125 2464 1683 1690 
Q 1683 1606 1734 1402 
L 1939 544 
Q 2003 282 2131 282 
Q 2234 282 2432 538 
Q 2451 563 2476 598 
Q 2502 634 2521 662 
Q 2541 691 2566 717 
L 2662 659 
Q 2387 230 2227 80 
Q 2067 -70 1882 -70 
Q 1728 -70 1645 26 
Q 1562 122 1504 365 
L 1318 1126 
L 755 365 
Q 557 96 432 13 
Q 307 -70 147 -70 
Q 0 -70 -86 0 
Q -173 70 -173 198 
Q -173 294 -112 361 
Q -51 429 45 429 
Q 122 429 250 358 
Q 346 301 416 301 
Q 525 301 742 614 
L 1267 1357 
L 1088 2150 
Q 1024 2432 969 2509 
Q 915 2586 794 2586 
Q 717 2586 544 2541 
L 429 2509 
L 410 2611 
L 480 2637 
Q 992 2822 1229 2822 
Q 1350 2822 1420 2707 
Q 1491 2592 1555 2272 
z
" transform="scale(0.015625)"/>
       <path id="STIXGeneral-Regular-31" d="M 2522 0 
L 755 0 
L 755 96 
Q 1107 115 1235 227 
Q 1363 339 1363 608 
L 1363 3482 
Q 1363 3795 1171 3795 
Q 1082 3795 883 3718 
L 710 3654 
L 710 3744 
L 1856 4326 
L 1914 4307 
L 1914 486 
Q 1914 275 2042 185 
Q 2170 96 2522 96 
L 2522 0 
z
" transform="scale(0.015625)"/>
       <path id="STIXGeneral-Regular-28" d="M 1946 -1030 
L 1869 -1133 
Q 1126 -710 716 32 
Q 307 774 307 1613 
Q 307 3386 1888 4326 
L 1946 4224 
Q 1293 3667 1075 3126 
Q 858 2586 858 1632 
Q 858 685 1082 96 
Q 1306 -493 1946 -1030 
z
" transform="scale(0.015625)"/>
       <path id="STIXGeneral-Italic-74" d="M 1894 2739 
L 1862 2534 
L 1325 2534 
L 768 435 
Q 755 384 755 346 
Q 755 243 851 243 
Q 928 243 1030 342 
Q 1133 442 1370 749 
L 1453 704 
Q 1158 256 969 93 
Q 781 -70 538 -70 
Q 243 -70 243 166 
Q 243 230 346 640 
L 845 2534 
L 365 2534 
L 358 2573 
Q 358 2688 570 2733 
Q 730 2771 992 2979 
Q 1254 3187 1421 3437 
Q 1459 3494 1510 3494 
Q 1568 3494 1568 3443 
Q 1568 3411 1562 3398 
L 1382 2739 
L 1894 2739 
z
" transform="scale(0.015625)"/>
       <path id="STIXGeneral-Regular-29" d="M 186 4224 
L 262 4326 
Q 992 3891 1408 3148 
Q 1824 2406 1824 1581 
Q 1824 -166 243 -1133 
L 186 -1030 
Q 845 -486 1059 54 
Q 1274 595 1274 1562 
Q 1274 2534 1059 3120 
Q 845 3706 186 4224 
z
" transform="scale(0.015625)"/>
      </defs>
      <use xlink:href="#STIXGeneral-Italic-78" transform="translate(0 0.40625)"/>
      <use xlink:href="#STIXGeneral-Regular-31" transform="translate(44.399994 -12.821875) scale(0.7)"/>
      <use xlink:href="#STIXGeneral-Regular-28" transform="translate(83.809358 0.40625)"/>
      <use xlink:href="#STIXGeneral-Italic-74" transform="translate(117.109346 0.40625)"/>
      <use xlink:href="#STIXGeneral-Regular-29" transform="translate(144.909334 0.40625)"/>
     </g>
    </g>
   </g>
   <g id="line2d_4">
    <path d="M 18.303438 18.39014 
L 18.412408 27.836979 
L 18.455997 25.833455 
L 18.652144 3.094423 
L 18.717526 5.959896 
L 18.913674 27.822092 
L 18.979056 23.803366 
L 19.153409 3.145943 
L 19.218792 5.812674 
L 19.414939 27.801662 
L 19.480322 23.974959 
L 19.676469 3.141891 
L 19.720057 5.670161 
L 19.916205 27.775734 
L 19.981587 24.142103 
L 20.177734 3.135156 
L 20.221323 5.532891 
L 20.41747 27.744814 
L 20.482853 24.30504 
L 20.679 3.133572 
L 20.722588 5.399636 
L 20.918736 27.708436 
L 20.984118 24.464223 
L 21.180265 3.137714 
L 21.223854 5.271274 
L 21.420001 27.666716 
L 21.485384 24.618524 
L 21.681531 3.147406 
L 21.725119 5.148377 
L 21.921267 27.619949 
L 21.986649 24.768002 
L 22.182796 3.162366 
L 22.248179 7.161154 
L 22.422532 27.567933 
L 22.487914 24.912738 
L 22.684062 3.182629 
L 22.749444 6.99218 
L 22.945592 27.56624 
L 22.98918 25.052409 
L 23.185327 3.208132 
L 23.25071 6.827967 
L 23.446857 27.571998 
L 23.490445 25.18712 
L 23.686593 3.238781 
L 23.751975 6.668152 
L 23.948123 27.572747 
L 23.991711 25.317574 
L 24.187858 3.2746 
L 24.253241 6.512102 
L 24.449388 27.568302 
L 24.492976 25.443922 
L 24.689124 3.315648 
L 24.754506 6.359911 
L 24.950653 27.55839 
L 24.994242 25.565748 
L 25.190389 3.361984 
L 25.255772 6.212656 
L 25.451919 27.543225 
L 25.517301 23.567224 
L 25.691655 3.41322 
L 25.757037 6.070002 
L 25.953184 27.522886 
L 26.018567 23.734181 
L 26.214714 3.427875 
L 26.258303 5.932013 
L 26.45445 27.497463 
L 26.519832 23.896746 
L 26.71598 3.421714 
L 26.759568 5.798277 
L 26.955715 27.466769 
L 27.021098 24.055026 
L 27.217245 3.420681 
L 27.260833 5.668919 
L 27.456981 27.430736 
L 27.522363 24.209111 
L 27.718511 3.425024 
L 27.762099 5.544764 
L 27.958246 27.389898 
L 28.023629 24.35876 
L 28.219776 3.434216 
L 28.263364 5.424821 
L 28.459512 27.344122 
L 28.524894 24.504807 
L 28.721042 3.448886 
L 28.786424 7.404778 
L 28.960777 27.293099 
L 29.02616 24.64629 
L 29.222307 3.468933 
L 29.287689 7.239525 
L 29.483837 27.272228 
L 29.527425 24.782813 
L 29.723572 3.493974 
L 29.788955 7.07862 
L 29.985102 27.277762 
L 30.028691 24.914798 
L 30.224838 3.524105 
L 30.29022 6.9222 
L 30.486368 27.278093 
L 30.529956 25.041896 
L 30.726103 3.559159 
L 30.791486 6.770354 
L 30.987633 27.273348 
L 31.031222 25.164065 
L 31.227369 3.599149 
L 31.292751 6.623132 
L 31.488899 27.263831 
L 31.532487 25.281914 
L 31.728634 3.644026 
L 31.794017 6.479677 
L 31.990164 27.249334 
L 32.055547 23.31673 
L 32.2299 3.693812 
L 32.295282 6.339748 
L 32.49143 27.229577 
L 32.556812 23.481041 
L 32.752959 3.727338 
L 32.796548 6.204712 
L 32.992695 27.204761 
L 33.058078 23.640758 
L 33.254225 3.721534 
L 33.297813 6.074309 
L 33.493961 27.175034 
L 33.559343 23.795662 
L 33.75549 3.720623 
L 33.799079 5.948456 
L 33.995226 27.140485 
L 34.060608 23.946267 
L 34.256756 3.724521 
L 34.300344 5.826896 
L 34.496491 27.101016 
L 34.561874 24.092567 
L 34.758021 3.733279 
L 34.80161 5.70949 
L 34.997757 27.056429 
L 35.063139 24.234822 
L 35.259287 3.747204 
L 35.324669 7.65468 
L 35.499022 27.007069 
L 35.564405 24.37254 
L 35.760552 3.765817 
L 35.825935 7.493109 
L 36.022082 26.968461 
L 36.06567 24.506616 
L 36.261818 3.789513 
L 36.3272 7.334749 
L 36.523348 26.974467 
L 36.566936 24.636439 
L 36.763083 3.8185 
L 36.828466 7.180965 
L 37.024613 26.975342 
L 37.068201 24.761307 
L 37.264349 3.852322 
L 37.329731 7.031724 
L 37.525878 26.971351 
L 37.569467 24.881741 
L 37.765614 3.890979 
L 37.830997 6.886757 
L 38.027144 26.962318 
L 38.070732 24.997403 
L 38.26688 3.934315 
L 38.332262 6.746356 
L 38.528409 26.948431 
L 38.593792 23.06838 
L 38.768145 3.982338 
L 38.833527 6.610548 
L 39.029675 26.929949 
L 39.095057 23.227741 
L 39.291205 4.031837 
L 39.334793 6.478523 
L 39.53094 26.906741 
L 39.596323 23.383806 
L 39.79247 4.025109 
L 39.836058 6.350127 
L 40.032206 26.878589 
L 40.097588 23.536685 
L 40.293736 4.023523 
L 40.337324 6.22623 
L 40.533471 26.845405 
L 40.598854 23.685337 
L 40.795001 4.026891 
L 40.838589 6.107014 
L 41.034737 26.807582 
L 41.100119 23.829162 
L 41.296267 4.034966 
L 41.339855 5.992229 
L 41.536002 26.765164 
L 41.601385 23.968656 
L 41.797532 4.047648 
L 41.84112 5.881847 
L 42.037268 26.718224 
L 42.10265 24.103892 
L 42.298797 4.064952 
L 42.36418 7.740941 
L 42.538533 26.666451 
L 42.603916 24.235102 
L 42.800063 4.087115 
L 42.865445 7.586166 
L 43.061593 26.671003 
L 43.105181 24.361838 
L 43.301328 4.113952 
L 43.366711 7.43582 
L 43.562858 26.673301 
L 43.606446 24.484771 
L 43.802594 4.145324 
L 43.867976 7.28842 
L 44.064124 26.670706 
L 44.107712 24.603878 
L 44.303859 4.181933 
L 44.369242 7.145271 
L 44.565389 26.663108 
L 44.608977 24.718187 
L 44.805125 4.223263 
L 44.870507 7.006786 
L 45.066655 26.650865 
L 45.110243 24.827989 
L 45.30639 4.269068 
L 45.371773 6.872403 
L 45.56792 26.633785 
L 45.633303 22.985505 
L 45.807656 4.319379 
L 45.873038 6.742542 
L 46.069186 26.612053 
L 46.134568 23.138165 
L 46.330715 4.32409 
L 46.374304 6.617183 
L 46.570451 26.585911 
L 46.635833 23.286892 
L 46.831981 4.321165 
L 46.875569 6.495851 
L 47.071716 26.555434 
L 47.137099 23.432338 
L 47.333246 4.322736 
L 47.376835 6.378119 
L 47.572982 26.520246 
L 47.638364 23.574531 
L 47.834512 4.329054 
L 47.8781 6.264302 
L 48.074247 26.480029 
L 48.13963 23.712867 
L 48.335777 4.340258 
L 48.379366 6.155283 
L 48.575513 26.435449 
L 48.640895 23.846505 
L 48.837043 4.355991 
L 48.902425 7.977071 
L 49.076778 26.386555 
L 49.142161 23.975743 
L 49.338308 4.376133 
L 49.403691 7.825532 
L 49.599838 26.378089 
L 49.643426 24.100846 
L 49.839574 4.400637 
L 49.904956 7.677245 
L 50.101103 26.381832 
L 50.144692 24.221898 
L 50.340839 4.429656 
L 50.406222 7.532401 
L 50.602369 26.380727 
L 50.645957 24.338764 
L 50.842105 4.46332 
L 50.907487 7.392082 
L 51.103634 26.375319 
L 51.147223 24.451571 
L 51.34337 4.50107 
L 51.408752 7.254894 
L 51.6049 26.365593 
L 51.648488 24.560991 
L 51.844635 4.543829 
L 51.910018 7.121461 
L 52.106165 26.350936 
L 52.171548 22.75612 
L 52.345901 4.591221 
L 52.411283 6.992646 
L 52.607431 26.331756 
L 52.672813 22.907195 
L 52.868961 4.607625 
L 52.912549 6.867862 
L 53.108696 26.30803 
L 53.174079 23.054527 
L 53.370226 4.602867 
L 53.413814 6.747404 
L 53.609962 26.27983 
L 53.675344 23.197768 
L 53.871491 4.602631 
L 53.91508 6.631269 
L 54.111227 26.247407 
L 54.17661 23.337025 
L 54.372757 4.606786 
L 54.416345 6.519318 
L 54.612493 26.210967 
L 54.677875 23.472993 
L 54.874022 4.615208 
L 54.917611 6.410879 
L 55.113758 26.170107 
L 55.179141 23.605772 
L 55.375288 4.627981 
L 55.44067 8.195068 
L 55.615024 26.124346 
L 55.680406 23.734988 
L 55.876553 4.645563 
L 55.941936 8.044833 
L 56.138083 26.104976 
L 56.181671 23.859769 
L 56.377819 4.667565 
L 56.443201 7.898499 
L 56.639349 26.110952 
L 56.682937 23.98011 
L 56.879084 4.693788 
L 56.944467 7.755924 
L 57.140614 26.112585 
L 57.184202 24.096436 
L 57.38035 4.724121 
L 57.445732 7.616702 
L 57.64188 26.109856 
L 57.685468 24.208822 
L 57.881615 4.758682 
L 57.946998 7.480602 
L 58.143145 26.102545 
L 58.186733 24.317295 
L 58.382881 4.79775 
L 58.448263 7.348727 
L 58.644411 26.090855 
L 58.709793 22.547262 
L 58.884146 4.840702 
L 58.949529 7.220456 
L 59.145676 26.075294 
L 59.211058 22.697519 
L 59.407206 4.866063 
L 59.450794 7.095383 
L 59.646941 26.054946 
L 59.712324 22.844339 
L 59.908471 4.858583 
L 59.95206 6.974774 
L 60.148207 26.030139 
L 60.213589 22.987017 
L 60.409737 4.8555 
L 60.453325 6.858305 
L 60.649472 26.001133 
L 60.714855 23.126156 
L 60.911002 4.856837 
L 60.95459 6.74587 
L 61.150738 25.967778 
L 61.21612 23.261303 
L 61.412268 4.862506 
L 61.455856 6.637669 
L 61.652003 25.930378 
L 61.717386 23.392497 
L 61.913533 4.872405 
L 61.978916 8.388892 
L 62.153269 25.889187 
L 62.218651 23.520311 
L 62.414799 4.886287 
L 62.480181 8.240053 
L 62.676328 25.861957 
L 62.719917 23.644961 
L 62.916064 4.90422 
L 62.981446 8.093673 
L 63.177594 25.871324 
L 63.221182 23.766348 
L 63.41733 4.926828 
L 63.482712 7.951054 
L 63.678859 25.875984 
L 63.722448 23.8836 
L 63.918595 4.953775 
L 63.983977 7.812431 
L 64.180125 25.876326 
L 64.223713 23.996468 
L 64.41986 4.984785 
L 64.485243 7.67743 
L 64.68139 25.8725 
L 64.724979 24.105354 
L 64.921126 5.019708 
L 64.986508 7.545983 
L 65.182656 25.864616 
L 65.248038 22.367649 
L 65.422391 5.05862 
L 65.487774 7.417517 
L 65.683921 25.852456 
L 65.749304 22.516595 
L 65.945451 5.09062 
L 65.989039 7.29277 
L 66.185187 25.835814 
L 66.250569 22.661873 
L 66.446716 5.079525 
L 66.490305 7.17206 
L 66.686452 25.8156 
L 66.751835 22.804497 
L 66.947982 5.072293 
L 66.99157 7.054122 
L 67.187718 25.790938 
L 67.2531 22.944265 
L 67.449247 5.06987 
L 67.492836 6.940319 
L 67.688983 25.761838 
L 67.754366 23.080029 
L 67.950513 5.071825 
L 67.994101 6.830763 
L 68.190249 25.728796 
L 68.255631 23.212209 
L 68.451778 5.077874 
L 68.517161 8.551633 
L 68.691514 25.691542 
L 68.756896 23.340591 
L 68.953044 5.088144 
L 69.018426 8.40325 
L 69.214574 25.658144 
L 69.258162 23.465083 
L 69.454309 5.102452 
L 69.519692 8.258463 
L 69.715839 25.67095 
L 69.759427 23.586098 
L 69.955575 5.120528 
L 70.020957 8.116637 
L 70.217105 25.679965 
L 70.260693 23.704079 
L 70.45684 5.142506 
L 70.522223 7.977301 
L 70.71837 25.684831 
L 70.761958 23.818899 
L 70.958106 5.168815 
L 71.023488 7.840939 
L 71.219635 25.68503 
L 71.263224 23.929907 
L 71.459371 5.199434 
L 71.524754 7.708725 
L 71.720901 25.681067 
L 71.764489 24.036676 
L 71.960637 5.23397 
L 72.047813 9.645027 
L 72.222166 25.673118 
L 72.265755 24.139474 
L 72.483696 5.271516 
L 72.549079 9.478887 
L 72.723432 25.661294 
L 72.76702 24.238569 
L 72.984962 5.256372 
L 73.050344 9.314938 
L 73.224697 25.645456 
L 73.224697 25.645456 
" clip-path="url(#p7d169b44dd)" style="fill: none; stroke: #f9d5dd; stroke-width: 0.05; stroke-linecap: square"/>
   </g>
   <g id="line2d_5">
    <path d="M 18.804703 3.033829 
L 19.305968 3.055302 
L 19.807234 3.074377 
L 20.308499 3.096693 
L 20.809765 3.116749 
L 21.31103 3.139028 
L 21.812296 3.164072 
L 22.335355 3.181624 
L 22.836621 3.203881 
L 23.337886 3.224995 
L 23.839152 3.247105 
L 24.340417 3.268365 
L 24.841683 3.290801 
L 25.342948 3.3124 
L 25.844214 3.336866 
L 26.367273 3.357519 
L 26.868539 3.379267 
L 27.369804 3.401872 
L 27.87107 3.423717 
L 28.372335 3.446305 
L 28.873601 3.468633 
L 29.374866 3.491486 
L 29.876132 3.515669 
L 30.399191 3.537595 
L 30.900457 3.560558 
L 31.401722 3.582979 
L 31.902988 3.605817 
L 32.404253 3.628525 
L 32.905518 3.65166 
L 33.406784 3.674302 
L 33.908049 3.698417 
L 34.431109 3.720907 
L 34.932375 3.743659 
L 35.43364 3.766594 
L 35.934905 3.789165 
L 36.436171 3.812385 
L 36.937436 3.835307 
L 37.438702 3.859489 
L 37.961761 3.882556 
L 38.463027 3.905441 
L 38.964292 3.928402 
L 39.465558 3.950972 
L 39.966823 3.973993 
L 40.468089 3.996838 
L 40.969354 4.019805 
L 41.47062 4.043224 
L 41.993679 4.065811 
L 42.494945 4.088515 
L 42.99621 4.110954 
L 43.497476 4.133314 
L 43.998741 4.155738 
L 44.500007 4.178479 
L 45.001272 4.200814 
L 45.502538 4.223994 
L 46.025597 4.246638 
L 46.526863 4.268597 
L 47.028128 4.290537 
L 47.529394 4.312284 
L 48.030659 4.334409 
L 48.531925 4.356124 
L 49.03319 4.377821 
L 49.534455 4.39964 
L 50.057515 4.421234 
L 50.558781 4.442633 
L 51.060046 4.46336 
L 51.561312 4.48439 
L 52.062577 4.505361 
L 52.563842 4.526314 
L 53.065108 4.546974 
L 53.566373 4.568043 
L 54.089433 4.588813 
L 54.590698 4.608671 
L 55.091964 4.628527 
L 55.593229 4.648367 
L 56.094495 4.668254 
L 56.59576 4.687634 
L 57.097026 4.707176 
L 57.620085 4.726553 
L 58.121351 4.745387 
L 58.622616 4.763894 
L 59.123882 4.782062 
L 59.625147 4.800615 
L 60.126413 4.818762 
L 60.627678 4.836923 
L 61.128944 4.854919 
L 61.652003 4.872871 
L 62.153269 4.889943 
L 62.654534 4.906509 
L 63.1558 4.923349 
L 63.657065 4.939929 
L 64.158331 4.956369 
L 64.659596 4.972166 
L 65.160862 4.987897 
L 65.683921 5.003788 
L 66.185187 5.018767 
L 66.686452 5.033358 
L 67.187718 5.047957 
L 67.688983 5.062574 
L 68.190249 5.076554 
L 68.691514 5.090526 
L 69.192779 5.103695 
L 69.715839 5.116638 
L 70.217105 5.128337 
L 70.71837 5.139088 
L 71.219635 5.148398 
L 71.720901 5.15231 
L 72.222166 5.137738 
" clip-path="url(#p7d169b44dd)" style="fill: none; stroke: #e3738b; stroke-width: 0.5; stroke-linecap: square"/>
   </g>
   <g id="patch_3">
    <path d="M 18.303438 29.077136 
L 18.303438 1.793672 
" style="fill: none; stroke: #000000; stroke-width: 0.2; stroke-linejoin: miter; stroke-linecap: square"/>
   </g>
   <g id="patch_4">
    <path d="M 73.224697 29.077136 
L 73.224697 1.793672 
" style="fill: none; stroke: #000000; stroke-width: 0.2; stroke-linejoin: miter; stroke-linecap: square"/>
   </g>
   <g id="patch_5">
    <path d="M 18.303438 29.077136 
L 73.224697 29.077136 
" style="fill: none; stroke: #000000; stroke-width: 0.2; stroke-linejoin: miter; stroke-linecap: square"/>
   </g>
   <g id="patch_6">
    <path d="M 18.303438 1.793672 
L 73.224697 1.793672 
" style="fill: none; stroke: #000000; stroke-width: 0.2; stroke-linejoin: miter; stroke-linecap: square"/>
   </g>
   <g id="text_5">
    <!-- $A_1$ -->
    <g style="fill: #e3738b" transform="translate(50.981696 9.472456) scale(0.08 -0.08)">
     <defs>
      <path id="STIXGeneral-Italic-41" d="M 3610 0 
L 2042 0 
L 2042 102 
Q 2330 115 2432 192 
Q 2534 269 2534 442 
Q 2534 493 2522 608 
L 2394 1446 
L 986 1446 
L 608 736 
Q 467 474 467 314 
Q 467 122 864 102 
L 864 0 
L -326 0 
L -326 102 
Q -109 147 28 307 
Q 166 467 531 1101 
L 2355 4275 
L 2522 4275 
L 3110 736 
Q 3174 339 3264 230 
Q 3354 122 3610 102 
L 3610 0 
z
M 2362 1677 
L 2074 3360 
L 1120 1677 
L 2362 1677 
z
" transform="scale(0.015625)"/>
     </defs>
     <use xlink:href="#STIXGeneral-Italic-41" transform="translate(0 0.203125)"/>
     <use xlink:href="#STIXGeneral-Regular-31" transform="translate(61.099991 -13.025) scale(0.7)"/>
    </g>
   </g>
   <g id="text_6">
    <!-- $\beta_1$ -->
    <g style="fill: #713948" transform="translate(34.642567 19.397954) scale(0.08 -0.08)">
     <defs>
      <path id="STIXGeneral-Italic-3b2" d="M -58 -813 
L 819 2355 
Q 902 2662 995 2908 
Q 1088 3155 1235 3433 
Q 1382 3712 1555 3901 
Q 1728 4090 1977 4214 
Q 2227 4339 2515 4339 
Q 2816 4339 3053 4182 
Q 3290 4026 3290 3693 
Q 3290 3328 3037 3001 
Q 2784 2675 2470 2534 
L 2470 2528 
Q 2682 2509 2858 2320 
Q 3034 2131 3034 1818 
Q 3034 1376 2694 873 
Q 2355 371 1901 122 
Q 1562 -70 1107 -70 
Q 922 -70 685 38 
L 442 -813 
Q 352 -1126 243 -1312 
L -256 -1312 
Q -154 -1158 -58 -813 
z
M 1491 3053 
L 762 288 
Q 762 186 848 118 
Q 934 51 1069 51 
Q 1594 51 2029 704 
Q 2464 1357 2464 2029 
Q 2464 2406 2208 2406 
Q 2150 2406 2044 2380 
Q 1939 2355 1888 2355 
Q 1805 2355 1750 2396 
Q 1696 2438 1696 2496 
Q 1696 2650 1978 2650 
Q 1997 2650 2099 2630 
Q 2202 2611 2253 2611 
Q 2451 2611 2640 2969 
Q 2829 3328 2829 3622 
Q 2829 3962 2713 4083 
Q 2598 4205 2400 4205 
Q 2080 4205 1846 3865 
Q 1613 3526 1491 3053 
z
" transform="scale(0.015625)"/>
     </defs>
     <use xlink:href="#STIXGeneral-Italic-3b2" transform="translate(0 0.203125)"/>
     <use xlink:href="#STIXGeneral-Regular-31" transform="translate(50.599991 -13.025) scale(0.7)"/>
    </g>
   </g>
  </g>
  <g id="axes_2">
   <g id="patch_7">
    <path d="M 18.303438 59.088947 
L 73.224697 59.088947 
L 73.224697 31.805483 
L 18.303438 31.805483 
L 18.303438 59.088947 
z
" style="fill: none"/>
   </g>
   <g id="matplotlib.axis_3"/>
   <g id="matplotlib.axis_4">
    <g id="ytick_4">
     <g id="line2d_6">
      <g>
       <use xlink:href="#m8c01247fa9" x="18.303438" y="54.741079" style="stroke: #000000; stroke-width: 0.5"/>
      </g>
     </g>
     <g id="text_7">
      <!-- −5000 -->
      <g transform="translate(5.378125 55.814751) scale(0.03 -0.03)">
       <use xlink:href="#ArialMT-2212"/>
       <use xlink:href="#ArialMT-35" x="58.398438"/>
       <use xlink:href="#ArialMT-30" x="114.013672"/>
       <use xlink:href="#ArialMT-30" x="169.628906"/>
       <use xlink:href="#ArialMT-30" x="225.244141"/>
      </g>
     </g>
    </g>
    <g id="ytick_5">
     <g id="line2d_7">
      <g>
       <use xlink:href="#m8c01247fa9" x="18.303438" y="45.462405" style="stroke: #000000; stroke-width: 0.5"/>
      </g>
     </g>
     <g id="text_8">
      <!-- 0 -->
      <g transform="translate(12.135156 46.536077) scale(0.03 -0.03)">
       <use xlink:href="#ArialMT-30"/>
      </g>
     </g>
    </g>
    <g id="ytick_6">
     <g id="line2d_8">
      <g>
       <use xlink:href="#m8c01247fa9" x="18.303438" y="36.183731" style="stroke: #000000; stroke-width: 0.5"/>
      </g>
     </g>
     <g id="text_9">
      <!-- 5000 -->
      <g transform="translate(7.130313 37.257403) scale(0.03 -0.03)">
       <use xlink:href="#ArialMT-35"/>
       <use xlink:href="#ArialMT-30" x="55.615234"/>
       <use xlink:href="#ArialMT-30" x="111.230469"/>
       <use xlink:href="#ArialMT-30" x="166.845703"/>
      </g>
     </g>
    </g>
    <g id="text_10">
     <!-- $x_2(t)$ -->
     <g transform="translate(3.583125 49.027215) rotate(-90) scale(0.04 -0.04)">
      <defs>
       <path id="STIXGeneral-Regular-32" d="M 3034 877 
L 2688 0 
L 186 0 
L 186 77 
L 1325 1286 
Q 1773 1754 1965 2144 
Q 2157 2534 2157 2950 
Q 2157 3379 1920 3616 
Q 1683 3853 1267 3853 
Q 922 3853 720 3673 
Q 518 3494 326 3021 
L 192 3053 
Q 301 3648 630 3987 
Q 960 4326 1523 4326 
Q 2054 4326 2380 4006 
Q 2707 3686 2707 3200 
Q 2707 2477 1888 1613 
L 832 486 
L 2330 486 
Q 2541 486 2665 569 
Q 2790 653 2944 915 
L 3034 877 
z
" transform="scale(0.015625)"/>
      </defs>
      <use xlink:href="#STIXGeneral-Italic-78" transform="translate(0 0.40625)"/>
      <use xlink:href="#STIXGeneral-Regular-32" transform="translate(44.399994 -12.821875) scale(0.7)"/>
      <use xlink:href="#STIXGeneral-Regular-28" transform="translate(83.809358 0.40625)"/>
      <use xlink:href="#STIXGeneral-Italic-74" transform="translate(117.109346 0.40625)"/>
      <use xlink:href="#STIXGeneral-Regular-29" transform="translate(144.909334 0.40625)"/>
     </g>
    </g>
   </g>
   <g id="line2d_9">
    <path d="M 18.303438 34.919299 
L 18.347026 36.286376 
L 18.564967 55.959575 
L 18.63035 51.894575 
L 18.804703 34.907724 
L 18.848291 36.1572 
L 19.066233 56.000318 
L 19.131615 52.088231 
L 19.305968 34.900892 
L 19.349557 36.031785 
L 19.567498 56.036285 
L 19.632881 52.279169 
L 19.807234 34.899058 
L 19.872616 37.504223 
L 20.068764 56.067148 
L 20.112352 54.3531 
L 20.308499 34.902171 
L 20.373882 37.338528 
L 20.570029 56.093429 
L 20.635412 52.652032 
L 20.831559 34.907102 
L 20.875147 37.175559 
L 21.071295 56.11487 
L 21.136677 52.835004 
L 21.332824 34.857689 
L 21.376413 37.01623 
L 21.57256 56.131047 
L 21.637943 53.014344 
L 21.83409 34.813239 
L 21.877678 36.860896 
L 22.073826 56.142322 
L 22.139208 53.190163 
L 22.335355 34.77356 
L 22.378944 36.709215 
L 22.575091 56.148594 
L 22.640473 53.362396 
L 22.836621 34.738877 
L 22.880209 36.561761 
L 23.076357 56.149991 
L 23.141739 53.530926 
L 23.337886 34.708982 
L 23.403269 38.31867 
L 23.577622 56.14684 
L 23.643004 53.695835 
L 23.839152 34.683574 
L 23.904534 38.135448 
L 24.100682 56.147639 
L 24.14427 53.857592 
L 24.340417 34.662677 
L 24.4058 37.954248 
L 24.601947 56.197061 
L 24.645535 54.016236 
L 24.841683 34.646709 
L 24.907065 37.775162 
L 25.103213 56.241372 
L 25.146801 54.171307 
L 25.342948 34.636003 
L 25.408331 37.600258 
L 25.604478 56.280761 
L 25.648066 54.322416 
L 25.844214 34.630276 
L 25.909596 37.429108 
L 26.105743 56.315378 
L 26.149332 54.469518 
L 26.345479 34.629408 
L 26.410862 37.261669 
L 26.607009 56.345338 
L 26.672391 52.687782 
L 26.846745 34.633186 
L 26.912127 37.097378 
L 27.108274 56.370707 
L 27.173657 52.871201 
L 27.369804 34.627753 
L 27.413393 36.935971 
L 27.60954 56.391187 
L 27.674922 53.051432 
L 27.87107 34.579248 
L 27.914658 36.778653 
L 28.110805 56.407023 
L 28.176188 53.22869 
L 28.372335 34.53517 
L 28.415923 36.624618 
L 28.612071 56.418362 
L 28.677453 53.403832 
L 28.873601 34.495833 
L 28.917189 36.47376 
L 29.113336 56.424557 
L 29.178719 53.575542 
L 29.374866 34.461407 
L 29.418454 36.326967 
L 29.614602 56.42593 
L 29.679984 53.743481 
L 29.876132 34.431582 
L 29.941514 38.13268 
L 30.115867 56.422519 
L 30.18125 53.907947 
L 30.377397 34.406596 
L 30.442779 37.949939 
L 30.638927 56.421431 
L 30.682515 54.068756 
L 30.878662 34.386356 
L 30.944045 37.770813 
L 31.140192 56.470397 
L 31.183781 54.225768 
L 31.379928 34.370517 
L 31.44531 37.594885 
L 31.641458 56.514991 
L 31.685046 54.379548 
L 31.881193 34.359084 
L 31.946576 37.421226 
L 32.142723 56.55506 
L 32.186312 54.530178 
L 32.382459 34.352271 
L 32.447841 37.249375 
L 32.643989 56.590202 
L 32.687577 54.6773 
L 32.883724 34.350508 
L 32.949107 37.081311 
L 33.145254 56.620453 
L 33.188842 54.820573 
L 33.38499 34.353654 
L 33.450372 36.917296 
L 33.64652 56.646093 
L 33.711902 53.019725 
L 33.886255 34.36155 
L 33.951638 36.756957 
L 34.147785 56.66714 
L 34.213168 53.199355 
L 34.409315 34.313323 
L 34.452903 36.600118 
L 34.649051 56.683767 
L 34.714433 53.376216 
L 34.91058 34.26865 
L 34.954169 36.446147 
L 35.150316 56.695742 
L 35.215698 53.550023 
L 35.411846 34.228691 
L 35.455434 36.295939 
L 35.651581 56.703051 
L 35.716964 53.720437 
L 35.913111 34.193249 
L 35.9567 36.149496 
L 36.152847 56.705987 
L 36.218229 53.888582 
L 36.414377 34.162242 
L 36.457965 36.00599 
L 36.654112 56.704065 
L 36.719495 54.053694 
L 36.915642 34.136073 
L 36.981025 37.839793 
L 37.155378 56.697378 
L 37.22076 54.214918 
L 37.416908 34.114417 
L 37.48229 37.660022 
L 37.678438 56.726805 
L 37.722026 54.37271 
L 37.918173 34.097398 
L 37.983556 37.483324 
L 38.179703 56.772419 
L 38.223291 54.526766 
L 38.419439 34.085017 
L 38.484821 37.310281 
L 38.680968 56.813504 
L 38.724557 54.677029 
L 38.920704 34.076986 
L 38.986087 37.140721 
L 39.182234 56.850279 
L 39.225822 54.823869 
L 39.42197 34.073222 
L 39.487352 36.973664 
L 39.683499 56.882586 
L 39.727088 54.967349 
L 39.923235 34.073813 
L 39.988617 36.808582 
L 40.184765 56.910269 
L 40.250147 53.090522 
L 40.4245 34.079225 
L 40.489883 36.64659 
L 40.68603 56.933116 
L 40.751413 53.270549 
L 40.94756 34.069759 
L 40.991148 36.488822 
L 41.187296 56.951487 
L 41.252678 53.447415 
L 41.448826 34.023461 
L 41.492414 36.334728 
L 41.688561 56.965382 
L 41.753944 53.621105 
L 41.950091 33.981717 
L 41.993679 36.184427 
L 42.189827 56.974991 
L 42.255209 53.791969 
L 42.451357 33.944233 
L 42.494945 36.037167 
L 42.691092 56.980192 
L 42.756475 53.959873 
L 42.952622 33.91119 
L 42.99621 35.893241 
L 43.192358 56.980796 
L 43.25774 54.124226 
L 43.453887 33.882673 
L 43.497476 35.753388 
L 43.693623 56.977128 
L 43.759006 54.286005 
L 43.955153 33.858387 
L 44.020535 37.632399 
L 44.194889 56.96892 
L 44.260271 54.445195 
L 44.456418 33.838765 
L 44.521801 37.455138 
L 44.717948 57.002799 
L 44.761536 54.600571 
L 44.957684 33.823577 
L 45.023066 37.281089 
L 45.219214 57.046537 
L 45.262802 54.752346 
L 45.458949 33.812786 
L 45.524332 37.10996 
L 45.720479 57.085776 
L 45.764067 54.900423 
L 45.960215 33.80649 
L 46.025597 36.942389 
L 46.221745 57.120587 
L 46.265333 55.04471 
L 46.46148 33.804463 
L 46.526863 36.778484 
L 46.72301 57.151114 
L 46.766598 55.185302 
L 46.962746 33.806522 
L 47.028128 36.617465 
L 47.224276 57.177367 
L 47.289658 53.254479 
L 47.464011 33.812777 
L 47.529394 36.458624 
L 47.725541 57.199243 
L 47.790923 53.431864 
L 47.987071 33.811631 
L 48.030659 36.30215 
L 48.226806 57.216423 
L 48.292189 53.60645 
L 48.488336 33.766476 
L 48.531925 36.149908 
L 48.728072 57.229228 
L 48.793454 53.777945 
L 48.989602 33.725846 
L 49.03319 36.001468 
L 49.229337 57.237763 
L 49.29472 53.946198 
L 49.490867 33.689667 
L 49.534455 35.856795 
L 49.730603 57.242092 
L 49.795985 54.11156 
L 49.992133 33.657709 
L 50.035721 35.715398 
L 50.231868 57.242257 
L 50.297251 54.274036 
L 50.493398 33.629955 
L 50.536986 35.577011 
L 50.733134 57.238018 
L 50.798516 54.433118 
L 50.994664 33.60662 
L 51.060046 37.518886 
L 51.234399 57.229587 
L 51.299782 54.589214 
L 51.495929 33.587409 
L 51.561312 37.344262 
L 51.757459 57.240799 
L 51.801047 54.742968 
L 51.997195 33.572563 
L 52.062577 37.172036 
L 52.258724 57.283995 
L 52.302313 54.893158 
L 52.49846 33.562051 
L 52.563842 37.003099 
L 52.75999 57.322801 
L 52.803578 55.039603 
L 52.999725 33.555725 
L 53.065108 36.837003 
L 53.261255 57.357288 
L 53.304844 55.18253 
L 53.500991 33.553729 
L 53.566373 36.674259 
L 53.762521 57.38751 
L 53.806109 55.321815 
L 54.002256 33.55596 
L 54.067639 36.515211 
L 54.263786 57.413506 
L 54.307375 55.457278 
L 54.503522 33.562089 
L 54.568904 36.359338 
L 54.765052 57.435416 
L 54.830434 53.496032 
L 55.004787 33.572274 
L 55.07017 36.205816 
L 55.266317 57.453144 
L 55.3317 53.668592 
L 55.527847 33.551539 
L 55.571435 36.054209 
L 55.767583 57.466383 
L 55.832965 53.838405 
L 56.029112 33.510473 
L 56.072701 35.906395 
L 56.268848 57.475296 
L 56.334231 54.005269 
L 56.530378 33.473899 
L 56.573966 35.762581 
L 56.770114 57.480148 
L 56.835496 54.168953 
L 57.031643 33.441633 
L 57.075232 35.622397 
L 57.271379 57.480894 
L 57.336761 54.329676 
L 57.532909 33.413545 
L 57.576497 35.485705 
L 57.772644 57.477679 
L 57.838027 54.487623 
L 58.034174 33.389503 
L 58.077763 35.351903 
L 58.27391 57.470272 
L 58.339292 54.642419 
L 58.53544 33.369678 
L 58.600822 37.331362 
L 58.775175 57.458753 
L 58.840558 54.793889 
L 59.036705 33.353951 
L 59.102088 37.161391 
L 59.298235 57.475504 
L 59.341823 54.94306 
L 59.537971 33.342293 
L 59.603353 36.993453 
L 59.7995 57.515252 
L 59.843089 55.0891 
L 60.039236 33.334881 
L 60.104619 36.828706 
L 60.300766 57.550682 
L 60.344354 55.231334 
L 60.540502 33.331484 
L 60.605884 36.666888 
L 60.802031 57.581972 
L 60.84562 55.370213 
L 61.041767 33.332232 
L 61.10715 36.508197 
L 61.303297 57.609124 
L 61.346885 55.505481 
L 61.543033 33.337097 
L 61.608415 36.353145 
L 61.804562 57.632179 
L 61.848151 55.637012 
L 62.044298 33.345784 
L 62.10968 36.201474 
L 62.305828 57.651275 
L 62.37121 53.631312 
L 62.545563 33.358362 
L 62.610946 36.052266 
L 62.807093 57.666282 
L 62.872476 53.799477 
L 63.068623 33.345625 
L 63.112211 35.904949 
L 63.308359 57.677103 
L 63.373741 53.965251 
L 63.569889 33.307234 
L 63.613477 35.760686 
L 63.809624 57.683667 
L 63.875007 54.12822 
L 64.071154 33.273258 
L 64.114742 35.620504 
L 64.31089 57.686328 
L 64.376272 54.288142 
L 64.57242 33.243454 
L 64.616008 35.483852 
L 64.812155 57.685023 
L 64.877538 54.444997 
L 65.073685 33.217767 
L 65.117273 35.350847 
L 65.313421 57.679907 
L 65.378803 54.599147 
L 65.57495 33.19602 
L 65.618539 35.220803 
L 65.814686 57.670827 
L 65.880069 54.750391 
L 66.076216 33.178272 
L 66.141598 37.251139 
L 66.315952 57.657731 
L 66.381334 54.898152 
L 66.577481 33.164535 
L 66.642864 37.085056 
L 66.839011 57.653008 
L 66.882599 55.043532 
L 67.078747 33.154682 
L 67.144129 36.920858 
L 67.340277 57.690686 
L 67.383865 55.186289 
L 67.580012 33.14893 
L 67.645395 36.759549 
L 67.841542 57.724157 
L 67.88513 55.325342 
L 68.081278 33.147063 
L 68.14666 36.601327 
L 68.342808 57.753611 
L 68.386396 55.461007 
L 68.582543 33.149142 
L 68.647926 36.44598 
L 68.844073 57.779033 
L 68.887661 55.593146 
L 69.083809 33.155194 
L 69.149191 36.294093 
L 69.345339 57.800488 
L 69.388927 55.721654 
L 69.585074 33.16502 
L 69.650457 36.145705 
L 69.846604 57.818045 
L 69.911986 53.659413 
L 70.08634 33.178505 
L 70.151722 35.999999 
L 70.347869 57.831692 
L 70.413252 53.823893 
L 70.587605 33.195784 
L 70.652988 35.856325 
L 70.849135 57.841416 
L 70.914517 53.986295 
L 71.110665 33.163186 
L 71.154253 35.714932 
L 71.3504 57.847009 
L 71.415783 54.145929 
L 71.61193 33.13051 
L 71.655518 35.577551 
L 71.851666 57.84879 
L 71.917048 54.302649 
L 72.113196 33.10191 
L 72.156784 35.443753 
L 72.352931 57.846812 
L 72.418314 54.456305 
L 72.614461 33.0773 
L 72.658049 35.313498 
L 72.854197 57.841101 
L 72.919579 54.607279 
L 73.115727 33.056557 
L 73.159315 35.18638 
L 73.224697 43.525201 
L 73.224697 43.525201 
" clip-path="url(#p60731ac097)" style="fill: none; stroke: #dce4fa; stroke-width: 0.05; stroke-linecap: square"/>
   </g>
   <g id="line2d_10">
    <path d="M 18.804703 34.844154 
L 19.305968 34.850581 
L 19.807234 34.838599 
L 20.308499 34.8207 
L 20.809765 34.801648 
L 21.31103 34.781438 
L 21.812296 34.761435 
L 22.335355 34.739739 
L 22.836621 34.718953 
L 23.337886 34.697959 
L 23.839152 34.676542 
L 24.340417 34.655209 
L 24.841683 34.634003 
L 25.342948 34.613091 
L 25.844214 34.591562 
L 26.367273 34.570072 
L 26.868539 34.548798 
L 27.369804 34.527639 
L 27.87107 34.506393 
L 28.372335 34.484926 
L 28.873601 34.463769 
L 29.374866 34.442637 
L 29.876132 34.420953 
L 30.399191 34.399682 
L 30.900457 34.378622 
L 31.401722 34.357302 
L 31.902988 34.335994 
L 32.404253 34.314937 
L 32.905518 34.294189 
L 33.406784 34.273505 
L 33.908049 34.252101 
L 34.431109 34.231243 
L 34.932375 34.21051 
L 35.43364 34.18997 
L 35.934905 34.169187 
L 36.436171 34.148692 
L 36.937436 34.128335 
L 37.438702 34.107297 
L 37.961761 34.087132 
L 38.463027 34.066949 
L 38.964292 34.04678 
L 39.465558 34.02648 
L 39.966823 34.006505 
L 40.468089 33.986802 
L 40.969354 33.967348 
L 41.47062 33.947205 
L 41.993679 33.92765 
L 42.494945 33.908362 
L 42.99621 33.889129 
L 43.497476 33.869983 
L 43.998741 33.850812 
L 44.500007 33.832075 
L 45.001272 33.813301 
L 45.502538 33.794171 
L 46.025597 33.77569 
L 46.526863 33.757165 
L 47.028128 33.738845 
L 47.529394 33.72049 
L 48.030659 33.702739 
L 48.531925 33.685034 
L 49.03319 33.667666 
L 49.534455 33.649727 
L 50.057515 33.632092 
L 50.558781 33.615117 
L 51.060046 33.597955 
L 51.561312 33.581095 
L 52.062577 33.564329 
L 52.563842 33.547962 
L 53.065108 33.531573 
L 53.566373 33.515252 
L 54.089433 33.498936 
L 54.590698 33.482794 
L 55.091964 33.467085 
L 55.593229 33.451472 
L 56.094495 33.43649 
L 56.59576 33.421385 
L 57.097026 33.406633 
L 57.620085 33.391417 
L 58.121351 33.376717 
L 58.622616 33.362598 
L 59.123882 33.348142 
L 59.625147 33.33439 
L 60.126413 33.320466 
L 60.627678 33.307165 
L 61.128944 33.29426 
L 61.652003 33.28002 
L 62.153269 33.26723 
L 62.654534 33.254025 
L 63.1558 33.241707 
L 63.657065 33.229211 
L 64.158331 33.217526 
L 64.659596 33.205425 
L 65.160862 33.195165 
L 65.683921 33.182239 
L 66.185187 33.170584 
L 66.686452 33.159917 
L 67.187718 33.148533 
L 67.688983 33.138443 
L 68.190249 33.127419 
L 68.691514 33.117842 
L 69.192779 33.111277 
L 69.715839 33.097146 
L 70.217105 33.088272 
L 70.71837 33.077156 
L 71.219635 33.068798 
L 71.720901 33.05588 
L 72.222166 33.04564 
" clip-path="url(#p60731ac097)" style="fill: none; stroke: #8ca5ea; stroke-width: 0.5; stroke-linecap: square"/>
   </g>
   <g id="patch_8">
    <path d="M 18.303438 59.088947 
L 18.303438 31.805483 
" style="fill: none; stroke: #000000; stroke-width: 0.2; stroke-linejoin: miter; stroke-linecap: square"/>
   </g>
   <g id="patch_9">
    <path d="M 73.224697 59.088947 
L 73.224697 31.805483 
" style="fill: none; stroke: #000000; stroke-width: 0.2; stroke-linejoin: miter; stroke-linecap: square"/>
   </g>
   <g id="patch_10">
    <path d="M 18.303438 59.088947 
L 73.224697 59.088947 
" style="fill: none; stroke: #000000; stroke-width: 0.2; stroke-linejoin: miter; stroke-linecap: square"/>
   </g>
   <g id="patch_11">
    <path d="M 18.303438 31.805483 
L 73.224697 31.805483 
" style="fill: none; stroke: #000000; stroke-width: 0.2; stroke-linejoin: miter; stroke-linecap: square"/>
   </g>
   <g id="text_11">
    <!-- $A_2$ -->
    <g style="fill: #8ca5ea" transform="translate(50.981696 39.895201) scale(0.08 -0.08)">
     <use xlink:href="#STIXGeneral-Italic-41" transform="translate(0 0.203125)"/>
     <use xlink:href="#STIXGeneral-Regular-32" transform="translate(61.099991 -13.025) scale(0.7)"/>
    </g>
   </g>
   <g id="text_12">
    <!-- $\beta_2$ -->
    <g style="fill: #495373" transform="translate(34.642567 49.173875) scale(0.08 -0.08)">
     <use xlink:href="#STIXGeneral-Italic-3b2" transform="translate(0 0.203125)"/>
     <use xlink:href="#STIXGeneral-Regular-32" transform="translate(50.599991 -13.025) scale(0.7)"/>
    </g>
   </g>
  </g>
  <g id="axes_3">
   <g id="patch_12">
    <path d="M 18.303438 89.100758 
L 73.224697 89.100758 
L 73.224697 61.817294 
L 18.303438 61.817294 
L 18.303438 89.100758 
z
" style="fill: none"/>
   </g>
   <g id="matplotlib.axis_5">
    <g id="xtick_1">
     <g id="line2d_11">
      <defs>
       <path id="m7bc805a43d" d="M 0 0 
L 0 1 
" style="stroke: #000000; stroke-width: 0.5"/>
      </defs>
      <g>
       <use xlink:href="#m7bc805a43d" x="18.303438" y="89.100758" style="stroke: #000000; stroke-width: 0.5"/>
      </g>
     </g>
     <g id="text_13">
      <!-- 0 -->
      <g transform="translate(17.469297 95.748102) scale(0.03 -0.03)">
       <use xlink:href="#ArialMT-30"/>
      </g>
     </g>
    </g>
    <g id="xtick_2">
     <g id="line2d_12">
      <g>
       <use xlink:href="#m7bc805a43d" x="34.642567" y="89.100758" style="stroke: #000000; stroke-width: 0.5"/>
      </g>
     </g>
     <g id="text_14">
      <!-- 50 -->
      <g transform="translate(32.974286 95.748102) scale(0.03 -0.03)">
       <use xlink:href="#ArialMT-35"/>
       <use xlink:href="#ArialMT-30" x="55.615234"/>
      </g>
     </g>
    </g>
    <g id="xtick_3">
     <g id="line2d_13">
      <g>
       <use xlink:href="#m7bc805a43d" x="50.981696" y="89.100758" style="stroke: #000000; stroke-width: 0.5"/>
      </g>
     </g>
     <g id="text_15">
      <!-- 100 -->
      <g transform="translate(48.479274 95.748102) scale(0.03 -0.03)">
       <defs>
        <path id="ArialMT-31" d="M 2384 0 
L 1822 0 
L 1822 3584 
Q 1619 3391 1289 3197 
Q 959 3003 697 2906 
L 697 3450 
Q 1169 3672 1522 3987 
Q 1875 4303 2022 4600 
L 2384 4600 
L 2384 0 
z
" transform="scale(0.015625)"/>
       </defs>
       <use xlink:href="#ArialMT-31"/>
       <use xlink:href="#ArialMT-30" x="55.615234"/>
       <use xlink:href="#ArialMT-30" x="111.230469"/>
      </g>
     </g>
    </g>
    <g id="xtick_4">
     <g id="line2d_14">
      <g>
       <use xlink:href="#m7bc805a43d" x="67.320825" y="89.100758" style="stroke: #000000; stroke-width: 0.5"/>
      </g>
     </g>
     <g id="text_16">
      <!-- 150 -->
      <g transform="translate(64.818403 95.748102) scale(0.03 -0.03)">
       <use xlink:href="#ArialMT-31"/>
       <use xlink:href="#ArialMT-35" x="55.615234"/>
       <use xlink:href="#ArialMT-30" x="111.230469"/>
      </g>
     </g>
    </g>
    <g id="text_17">
     <!-- Time ($h$) -->
     <g transform="translate(38.424067 100.264352) scale(0.04 -0.04)">
      <defs>
       <path id="ArialMT-54" d="M 1659 0 
L 1659 4041 
L 150 4041 
L 150 4581 
L 3781 4581 
L 3781 4041 
L 2266 4041 
L 2266 0 
L 1659 0 
z
" transform="scale(0.015625)"/>
       <path id="ArialMT-69" d="M 425 3934 
L 425 4581 
L 988 4581 
L 988 3934 
L 425 3934 
z
M 425 0 
L 425 3319 
L 988 3319 
L 988 0 
L 425 0 
z
" transform="scale(0.015625)"/>
       <path id="ArialMT-6d" d="M 422 0 
L 422 3319 
L 925 3319 
L 925 2853 
Q 1081 3097 1340 3245 
Q 1600 3394 1931 3394 
Q 2300 3394 2536 3241 
Q 2772 3088 2869 2813 
Q 3263 3394 3894 3394 
Q 4388 3394 4653 3120 
Q 4919 2847 4919 2278 
L 4919 0 
L 4359 0 
L 4359 2091 
Q 4359 2428 4304 2576 
Q 4250 2725 4106 2815 
Q 3963 2906 3769 2906 
Q 3419 2906 3187 2673 
Q 2956 2441 2956 1928 
L 2956 0 
L 2394 0 
L 2394 2156 
Q 2394 2531 2256 2718 
Q 2119 2906 1806 2906 
Q 1569 2906 1367 2781 
Q 1166 2656 1075 2415 
Q 984 2175 984 1722 
L 984 0 
L 422 0 
z
" transform="scale(0.015625)"/>
       <path id="ArialMT-65" d="M 2694 1069 
L 3275 997 
Q 3138 488 2766 206 
Q 2394 -75 1816 -75 
Q 1088 -75 661 373 
Q 234 822 234 1631 
Q 234 2469 665 2931 
Q 1097 3394 1784 3394 
Q 2450 3394 2872 2941 
Q 3294 2488 3294 1666 
Q 3294 1616 3291 1516 
L 816 1516 
Q 847 969 1125 678 
Q 1403 388 1819 388 
Q 2128 388 2347 550 
Q 2566 713 2694 1069 
z
M 847 1978 
L 2700 1978 
Q 2663 2397 2488 2606 
Q 2219 2931 1791 2931 
Q 1403 2931 1139 2672 
Q 875 2413 847 1978 
z
" transform="scale(0.015625)"/>
       <path id="ArialMT-20" transform="scale(0.015625)"/>
       <path id="ArialMT-28" d="M 1497 -1347 
Q 1031 -759 709 28 
Q 388 816 388 1659 
Q 388 2403 628 3084 
Q 909 3875 1497 4659 
L 1900 4659 
Q 1522 4009 1400 3731 
Q 1209 3300 1100 2831 
Q 966 2247 966 1656 
Q 966 153 1900 -1347 
L 1497 -1347 
z
" transform="scale(0.015625)"/>
       <path id="STIXGeneral-Italic-68" d="M 2976 755 
L 3059 672 
Q 2765 256 2566 99 
Q 2368 -58 2125 -58 
Q 1997 -58 1920 16 
Q 1843 90 1843 211 
Q 1843 320 1971 800 
L 2323 2125 
Q 2368 2304 2368 2336 
Q 2368 2496 2189 2496 
Q 2016 2496 1744 2240 
Q 1472 1984 1216 1600 
Q 1018 1293 902 1001 
Q 787 710 602 0 
L 122 0 
L 1056 3546 
Q 1139 3866 1139 3942 
Q 1139 4019 1056 4060 
Q 973 4102 877 4102 
L 704 4102 
L 704 4198 
Q 1190 4256 1709 4371 
L 1754 4333 
L 979 1472 
Q 1811 2822 2451 2822 
Q 2662 2822 2764 2704 
Q 2867 2586 2867 2394 
Q 2867 2118 2560 1158 
Q 2349 512 2349 358 
Q 2349 243 2451 243 
Q 2528 243 2621 336 
Q 2714 429 2976 755 
z
" transform="scale(0.015625)"/>
       <path id="ArialMT-29" d="M 791 -1347 
L 388 -1347 
Q 1322 153 1322 1656 
Q 1322 2244 1188 2822 
Q 1081 3291 891 3722 
Q 769 4003 388 4659 
L 791 4659 
Q 1378 3875 1659 3084 
Q 1900 2403 1900 1659 
Q 1900 816 1576 28 
Q 1253 -759 791 -1347 
z
" transform="scale(0.015625)"/>
      </defs>
      <use xlink:href="#ArialMT-54" transform="translate(0 0.203125)"/>
      <use xlink:href="#ArialMT-69" transform="translate(61.083984 0.203125)"/>
      <use xlink:href="#ArialMT-6d" transform="translate(83.300781 0.203125)"/>
      <use xlink:href="#ArialMT-65" transform="translate(166.601562 0.203125)"/>
      <use xlink:href="#ArialMT-20" transform="translate(222.216797 0.203125)"/>
      <use xlink:href="#ArialMT-28" transform="translate(250 0.203125)"/>
      <use xlink:href="#STIXGeneral-Italic-68" transform="translate(283.300781 0.203125)"/>
      <use xlink:href="#ArialMT-29" transform="translate(333.300766 0.203125)"/>
     </g>
    </g>
   </g>
   <g id="matplotlib.axis_6">
    <g id="ytick_7">
     <g id="line2d_15">
      <g>
       <use xlink:href="#m8c01247fa9" x="18.303438" y="82.36155" style="stroke: #000000; stroke-width: 0.5"/>
      </g>
     </g>
     <g id="text_18">
      <!-- −2500 -->
      <g transform="translate(5.378125 83.435222) scale(0.03 -0.03)">
       <defs>
        <path id="ArialMT-32" d="M 3222 541 
L 3222 0 
L 194 0 
Q 188 203 259 391 
Q 375 700 629 1000 
Q 884 1300 1366 1694 
Q 2113 2306 2375 2664 
Q 2638 3022 2638 3341 
Q 2638 3675 2398 3904 
Q 2159 4134 1775 4134 
Q 1369 4134 1125 3890 
Q 881 3647 878 3216 
L 300 3275 
Q 359 3922 746 4261 
Q 1134 4600 1788 4600 
Q 2447 4600 2831 4234 
Q 3216 3869 3216 3328 
Q 3216 3053 3103 2787 
Q 2991 2522 2730 2228 
Q 2469 1934 1863 1422 
Q 1356 997 1212 845 
Q 1069 694 975 541 
L 3222 541 
z
" transform="scale(0.015625)"/>
       </defs>
       <use xlink:href="#ArialMT-2212"/>
       <use xlink:href="#ArialMT-32" x="58.398438"/>
       <use xlink:href="#ArialMT-35" x="114.013672"/>
       <use xlink:href="#ArialMT-30" x="169.628906"/>
       <use xlink:href="#ArialMT-30" x="225.244141"/>
      </g>
     </g>
    </g>
    <g id="ytick_8">
     <g id="line2d_16">
      <g>
       <use xlink:href="#m8c01247fa9" x="18.303438" y="75.457713" style="stroke: #000000; stroke-width: 0.5"/>
      </g>
     </g>
     <g id="text_19">
      <!-- 0 -->
      <g transform="translate(12.135156 76.531385) scale(0.03 -0.03)">
       <use xlink:href="#ArialMT-30"/>
      </g>
     </g>
    </g>
    <g id="ytick_9">
     <g id="line2d_17">
      <g>
       <use xlink:href="#m8c01247fa9" x="18.303438" y="68.553875" style="stroke: #000000; stroke-width: 0.5"/>
      </g>
     </g>
     <g id="text_20">
      <!-- 2500 -->
      <g transform="translate(7.130313 69.627547) scale(0.03 -0.03)">
       <use xlink:href="#ArialMT-32"/>
       <use xlink:href="#ArialMT-35" x="55.615234"/>
       <use xlink:href="#ArialMT-30" x="111.230469"/>
       <use xlink:href="#ArialMT-30" x="166.845703"/>
      </g>
     </g>
    </g>
    <g id="text_21">
     <!-- $x_3(t)$ -->
     <g transform="translate(3.583125 79.039026) rotate(-90) scale(0.04 -0.04)">
      <defs>
       <path id="STIXGeneral-Regular-33" d="M 390 3264 
L 288 3290 
Q 435 3770 748 4048 
Q 1062 4326 1542 4326 
Q 1990 4326 2265 4083 
Q 2541 3840 2541 3450 
Q 2541 2925 1946 2566 
Q 2298 2413 2477 2227 
Q 2758 1914 2758 1402 
Q 2758 890 2464 506 
Q 2246 211 1840 60 
Q 1434 -90 979 -90 
Q 262 -90 262 275 
Q 262 378 339 442 
Q 416 506 525 506 
Q 685 506 915 339 
Q 1197 141 1466 141 
Q 1818 141 2058 425 
Q 2298 710 2298 1120 
Q 2298 1856 1632 2048 
Q 1434 2112 979 2112 
L 979 2202 
Q 1338 2323 1517 2432 
Q 2035 2726 2035 3290 
Q 2035 3610 1852 3776 
Q 1670 3942 1344 3942 
Q 768 3942 390 3264 
z
" transform="scale(0.015625)"/>
      </defs>
      <use xlink:href="#STIXGeneral-Italic-78" transform="translate(0 0.40625)"/>
      <use xlink:href="#STIXGeneral-Regular-33" transform="translate(44.399994 -12.821875) scale(0.7)"/>
      <use xlink:href="#STIXGeneral-Regular-28" transform="translate(83.809358 0.40625)"/>
      <use xlink:href="#STIXGeneral-Italic-74" transform="translate(117.109346 0.40625)"/>
      <use xlink:href="#STIXGeneral-Regular-29" transform="translate(144.909334 0.40625)"/>
     </g>
    </g>
   </g>
   <g id="line2d_18">
    <path d="M 18.303438 84.748821 
L 18.499585 63.087023 
L 18.543173 65.110194 
L 18.739321 87.780442 
L 18.804703 84.867888 
L 19.00085 63.081722 
L 19.066233 67.187221 
L 19.240586 87.759696 
L 19.305968 84.98496 
L 19.502116 63.079495 
L 19.567498 67.053645 
L 19.763646 87.740307 
L 19.807234 85.100181 
L 20.003381 63.079819 
L 20.068764 66.922299 
L 20.264911 87.763404 
L 20.308499 85.212469 
L 20.504647 63.082689 
L 20.570029 66.792657 
L 20.766177 87.783528 
L 20.809765 85.3227 
L 21.005912 63.088053 
L 21.071295 66.664248 
L 21.267442 87.801285 
L 21.31103 85.430919 
L 21.507178 63.095574 
L 21.57256 66.537859 
L 21.768707 87.816607 
L 21.812296 85.536704 
L 22.008443 63.105829 
L 22.073826 66.413944 
L 22.269973 87.829448 
L 22.313561 85.640319 
L 22.509709 63.118676 
L 22.575091 66.292337 
L 22.771238 87.839718 
L 22.814827 85.741455 
L 23.010974 63.133956 
L 23.076357 66.173231 
L 23.272504 87.847017 
L 23.316092 85.839396 
L 23.51224 63.15179 
L 23.577622 66.056713 
L 23.773769 87.851296 
L 23.839152 83.7664 
L 24.013505 63.17248 
L 24.078887 65.942364 
L 24.275035 87.853078 
L 24.340417 83.89682 
L 24.536565 63.189262 
L 24.580153 65.83001 
L 24.7763 87.853164 
L 24.841683 84.026949 
L 25.03783 63.166725 
L 25.081418 65.719023 
L 25.277566 87.850626 
L 25.342948 84.154677 
L 25.539096 63.14623 
L 25.582684 65.609899 
L 25.778831 87.845547 
L 25.844214 84.280237 
L 26.040361 63.128525 
L 26.083949 65.5034 
L 26.280097 87.837862 
L 26.345479 84.403492 
L 26.541626 63.113392 
L 26.585215 65.399254 
L 26.781362 87.827462 
L 26.846745 84.524694 
L 27.042892 63.101235 
L 27.08648 65.297759 
L 27.282628 87.814927 
L 27.34801 84.644462 
L 27.544157 63.091647 
L 27.587746 65.198527 
L 27.783893 87.799925 
L 27.849276 84.761711 
L 28.045423 63.08446 
L 28.089011 65.101546 
L 28.285159 87.781793 
L 28.350541 84.876528 
L 28.546688 63.079705 
L 28.612071 67.180665 
L 28.786424 87.76126 
L 28.851806 84.989804 
L 29.047954 63.076988 
L 29.113336 67.050445 
L 29.309484 87.742165 
L 29.353072 85.100858 
L 29.549219 63.076773 
L 29.614602 66.922664 
L 29.810749 87.764804 
L 29.854337 85.209892 
L 30.050485 63.079093 
L 30.115867 66.796823 
L 30.312015 87.785051 
L 30.355603 85.316803 
L 30.55175 63.083769 
L 30.617133 66.673239 
L 30.81328 87.80252 
L 30.856868 85.42091 
L 31.053016 63.090876 
L 31.118398 66.552039 
L 31.314545 87.816983 
L 31.358134 85.521993 
L 31.554281 63.100631 
L 31.619664 66.432971 
L 31.815811 87.828925 
L 31.859399 85.621197 
L 32.055547 63.113181 
L 32.120929 66.315707 
L 32.317076 87.839165 
L 32.360665 85.719773 
L 32.556812 63.128379 
L 32.622195 66.199859 
L 32.818342 87.847259 
L 32.86193 85.81637 
L 33.058078 63.145166 
L 33.12346 66.085311 
L 33.319607 87.852801 
L 33.38499 83.731836 
L 33.559343 63.164248 
L 33.624725 65.973106 
L 33.820873 87.855992 
L 33.886255 83.859553 
L 34.060608 63.185729 
L 34.125991 65.863089 
L 34.322138 87.856427 
L 34.387521 83.985119 
L 34.583668 63.171312 
L 34.627256 65.755527 
L 34.823404 87.854691 
L 34.888786 84.109381 
L 35.084934 63.151375 
L 35.128522 65.650084 
L 35.324669 87.850755 
L 35.390052 84.231693 
L 35.586199 63.133783 
L 35.629787 65.54693 
L 35.825935 87.843947 
L 35.891317 84.351526 
L 36.087464 63.118444 
L 36.131053 65.445226 
L 36.3272 87.834617 
L 36.392583 84.469979 
L 36.58873 63.105091 
L 36.632318 65.34504 
L 36.828466 87.82328 
L 36.893848 84.586517 
L 37.089995 63.093903 
L 37.133584 65.247144 
L 37.329731 87.809933 
L 37.395114 84.701048 
L 37.591261 63.085216 
L 37.634849 65.151434 
L 37.830997 87.794359 
L 37.896379 84.813696 
L 38.092526 63.078879 
L 38.157909 67.254347 
L 38.332262 87.776466 
L 38.397644 84.923901 
L 38.593792 63.074832 
L 38.659174 67.128512 
L 38.833527 87.755982 
L 38.89891 85.031116 
L 39.095057 63.073272 
L 39.16044 67.004806 
L 39.356587 87.751468 
L 39.400175 85.136383 
L 39.596323 63.074454 
L 39.661705 66.882859 
L 39.857853 87.772106 
L 39.901441 85.240788 
L 40.097588 63.078257 
L 40.162971 66.76226 
L 40.359118 87.791121 
L 40.402706 85.344045 
L 40.598854 63.083603 
L 40.664236 66.642566 
L 40.860384 87.80765 
L 40.903972 85.444949 
L 41.100119 63.090966 
L 41.165502 66.524831 
L 41.361649 87.821972 
L 41.405237 85.543854 
L 41.601385 63.100754 
L 41.666767 66.409259 
L 41.862914 87.833638 
L 41.906503 85.640239 
L 42.10265 63.112909 
L 42.168033 66.295878 
L 42.36418 87.843066 
L 42.407768 85.734831 
L 42.603916 63.127701 
L 42.669298 66.184581 
L 42.865445 87.850538 
L 42.909034 85.827738 
L 43.105181 63.144596 
L 43.170563 66.075378 
L 43.366711 87.85544 
L 43.432093 83.740802 
L 43.606446 63.163607 
L 43.671829 65.96771 
L 43.867976 87.85773 
L 43.933359 83.863928 
L 44.107712 63.184732 
L 44.173094 65.86121 
L 44.369242 87.858047 
L 44.434624 83.985493 
L 44.630772 63.169953 
L 44.67436 65.756555 
L 44.870507 87.856401 
L 44.93589 84.105065 
L 45.132037 63.150022 
L 45.175625 65.65416 
L 45.371773 87.852671 
L 45.437155 84.222984 
L 45.633303 63.132383 
L 45.676891 65.553915 
L 45.873038 87.846813 
L 45.938421 84.338839 
L 46.134568 63.116938 
L 46.178156 65.455949 
L 46.374304 87.838468 
L 46.439686 84.451878 
L 46.635833 63.103864 
L 46.679422 65.360368 
L 46.875569 87.827558 
L 46.940952 84.562654 
L 47.137099 63.093294 
L 47.180687 65.266794 
L 47.376835 87.814541 
L 47.442217 84.672381 
L 47.638364 63.085213 
L 47.681953 65.175071 
L 47.8781 87.800146 
L 47.943482 84.781829 
L 48.13963 63.07888 
L 48.183218 65.084492 
L 48.379366 87.783534 
L 48.444748 84.889048 
L 48.640895 63.074198 
L 48.706278 67.16906 
L 48.880631 87.764847 
L 48.946013 84.994297 
L 49.142161 63.071876 
L 49.207543 67.048571 
L 49.403691 87.745001 
L 49.447279 85.097373 
L 49.643426 63.071709 
L 49.708809 66.929941 
L 49.904956 87.765891 
L 49.948544 85.198585 
L 50.144692 63.074111 
L 50.210074 66.813425 
L 50.406222 87.785045 
L 50.44981 85.298506 
L 50.645957 63.078654 
L 50.71134 66.698664 
L 50.907487 87.801923 
L 50.951075 85.39608 
L 51.147223 63.085164 
L 51.212605 66.58562 
L 51.408752 87.816058 
L 51.452341 85.491458 
L 51.648488 63.093771 
L 51.713871 66.473467 
L 51.910018 87.828295 
L 51.953606 85.585433 
L 52.149754 63.104009 
L 52.215136 66.362722 
L 52.411283 87.838665 
L 52.454872 85.677426 
L 52.651019 63.116313 
L 52.716402 66.254219 
L 52.912549 87.847148 
L 52.956137 85.767626 
L 53.152285 63.13072 
L 53.217667 66.147528 
L 53.413814 87.853642 
L 53.457403 85.855921 
L 53.65355 63.147026 
L 53.718932 66.042901 
L 53.91508 87.857792 
L 53.980462 83.772526 
L 54.154815 63.165299 
L 54.220198 65.940469 
L 54.416345 87.859387 
L 54.481728 83.888464 
L 54.677875 63.185207 
L 54.721463 65.839991 
L 54.917611 87.858834 
L 54.982993 84.003221 
L 55.179141 63.165052 
L 55.222729 65.741157 
L 55.418876 87.856921 
L 55.484259 84.118147 
L 55.680406 63.146871 
L 55.723994 65.643552 
L 55.920142 87.853209 
L 55.985524 84.231422 
L 56.181671 63.129986 
L 56.22526 65.547081 
L 56.421407 87.847379 
L 56.48679 84.342702 
L 56.682937 63.115245 
L 56.726525 65.452758 
L 56.922673 87.839598 
L 56.988055 84.452221 
L 57.184202 63.102597 
L 57.227791 65.360398 
L 57.423938 87.829483 
L 57.489321 84.55978 
L 57.685468 63.092339 
L 57.729056 65.270279 
L 57.925204 87.817615 
L 57.990586 84.666214 
L 58.186733 63.084309 
L 58.230322 65.182057 
L 58.426469 87.80395 
L 58.491851 84.770854 
L 58.687999 63.078205 
L 58.731587 65.095837 
L 58.927734 87.787814 
L 58.993117 84.873204 
L 59.189264 63.073988 
L 59.254647 67.190772 
L 59.429 87.769543 
L 59.494382 84.974349 
L 59.69053 63.07139 
L 59.755912 67.074359 
L 59.930265 87.749692 
L 59.995648 85.073792 
L 60.191795 63.070558 
L 60.257178 66.959915 
L 60.453325 87.761405 
L 60.496913 85.171481 
L 60.693061 63.07181 
L 60.758443 66.847076 
L 60.95459 87.780336 
L 60.998179 85.267505 
L 61.194326 63.074978 
L 61.259709 66.736187 
L 61.455856 87.797107 
L 61.499444 85.361302 
L 61.695592 63.08001 
L 61.760974 66.627273 
L 61.957121 87.811386 
L 62.00071 85.452378 
L 62.196857 63.08711 
L 62.26224 66.520288 
L 62.458387 87.823496 
L 62.501975 85.541754 
L 62.698123 63.096578 
L 62.763505 66.414893 
L 62.959652 87.83413 
L 63.003241 85.630522 
L 63.199388 63.108331 
L 63.26477 66.310648 
L 63.460918 87.843454 
L 63.504506 85.718301 
L 63.700653 63.12122 
L 63.766036 66.207109 
L 63.962183 87.850694 
L 64.005772 85.80401 
L 64.201919 63.135714 
L 64.267301 66.105338 
L 64.463449 87.856128 
L 64.528831 83.697748 
L 64.703184 63.15221 
L 64.768567 66.005486 
L 64.964714 87.859285 
L 65.030097 83.811147 
L 65.20445 63.170679 
L 65.269832 65.907609 
L 65.46598 87.860601 
L 65.531362 83.923406 
L 65.727509 63.1785 
L 65.771098 65.811553 
L 65.967245 87.86033 
L 66.032628 84.034452 
L 66.228775 63.159602 
L 66.272363 65.717355 
L 66.468511 87.85788 
L 66.533893 84.143255 
L 66.73004 63.142487 
L 66.773629 65.624414 
L 66.969776 87.8532 
L 67.035159 84.250972 
L 67.231306 63.12695 
L 67.274894 65.532424 
L 67.471042 87.846939 
L 67.536424 84.357337 
L 67.732571 63.112895 
L 67.77616 65.442027 
L 67.972307 87.839131 
L 68.037689 84.461959 
L 68.233837 63.100914 
L 68.277425 65.353586 
L 68.473572 87.829612 
L 68.538955 84.565149 
L 68.735102 63.090831 
L 68.778691 65.267035 
L 68.974838 87.818357 
L 69.04022 84.666495 
L 69.236368 63.082548 
L 69.279956 65.182465 
L 69.476103 87.805021 
L 69.541486 84.765267 
L 69.737633 63.076245 
L 69.781222 65.099991 
L 69.977369 87.789511 
L 70.042751 84.862072 
L 70.238899 63.072098 
L 70.304281 67.203596 
L 70.478634 87.772277 
L 70.544017 84.958095 
L 70.740164 63.070097 
L 70.805547 67.093283 
L 70.9799 87.754001 
L 71.045282 85.054005 
L 71.24143 63.069447 
L 71.306812 66.983522 
L 71.502959 87.756933 
L 71.546548 85.147946 
L 71.742695 63.070095 
L 71.808078 66.875034 
L 72.004225 87.775448 
L 72.047813 85.240205 
L 72.243961 63.072726 
L 72.309343 66.768426 
L 72.50549 87.791969 
L 72.549079 85.330528 
L 72.745226 63.077137 
L 72.810608 66.663462 
L 73.006756 87.806571 
L 73.050344 85.419281 
L 73.224697 63.704529 
L 73.224697 63.704529 
" clip-path="url(#pff83611c8c)" style="fill: none; stroke: #ffe8ce; stroke-width: 0.05; stroke-linecap: square"/>
   </g>
   <g id="line2d_19">
    <path d="M 18.804703 63.098086 
L 19.305968 63.079821 
L 19.807234 63.072619 
L 20.308499 63.072837 
L 20.809765 63.070691 
L 21.31103 63.071024 
L 21.812296 63.070404 
L 22.335355 63.068683 
L 22.836621 63.069334 
L 23.337886 63.068321 
L 23.839152 63.069298 
L 24.340417 63.068659 
L 24.841683 63.069195 
L 25.342948 63.068081 
L 25.844214 63.068207 
L 26.367273 63.068136 
L 26.868539 63.067397 
L 27.369804 63.067957 
L 27.87107 63.067514 
L 28.372335 63.068168 
L 28.873601 63.067414 
L 29.374866 63.06754 
L 29.876132 63.066985 
L 30.399191 63.066292 
L 30.900457 63.066736 
L 31.401722 63.066409 
L 31.902988 63.067025 
L 32.404253 63.066618 
L 32.905518 63.066669 
L 33.406784 63.065854 
L 33.908049 63.065883 
L 34.431109 63.065993 
L 34.932375 63.065505 
L 35.43364 63.0661 
L 35.934905 63.065837 
L 36.436171 63.066143 
L 36.937436 63.065338 
L 37.438702 63.06512 
L 37.961761 63.065004 
L 38.463027 63.064444 
L 38.964292 63.064998 
L 39.465558 63.064823 
L 39.966823 63.065326 
L 40.468089 63.06464 
L 40.969354 63.064602 
L 41.47062 63.064227 
L 41.993679 63.063948 
L 42.494945 63.064316 
L 42.99621 63.063986 
L 43.497476 63.064585 
L 43.998741 63.064193 
L 44.500007 63.064253 
L 45.001272 63.06352 
L 45.502538 63.063313 
L 46.025597 63.063364 
L 46.526863 63.063121 
L 47.028128 63.063816 
L 47.529394 63.063457 
L 48.030659 63.063719 
L 48.531925 63.062927 
L 49.03319 63.063126 
L 49.534455 63.062809 
L 50.057515 63.062557 
L 50.558781 63.062928 
L 51.060046 63.062786 
L 51.561312 63.063335 
L 52.062577 63.062734 
L 52.563842 63.062838 
L 53.065108 63.062076 
L 53.566373 63.061996 
L 54.089433 63.062335 
L 54.590698 63.062264 
L 55.091964 63.062784 
L 55.593229 63.062323 
L 56.094495 63.062433 
L 56.59576 63.061689 
L 57.097026 63.061839 
L 57.620085 63.062001 
L 58.121351 63.06156 
L 58.622616 63.062228 
L 59.123882 63.062011 
L 59.625147 63.062369 
L 60.126413 63.061561 
L 60.627678 63.06171 
L 61.128944 63.061096 
L 61.652003 63.060951 
L 62.153269 63.061712 
L 62.654534 63.06153 
L 63.1558 63.062 
L 63.657065 63.061211 
L 64.158331 63.061409 
L 64.659596 63.060747 
L 65.160862 63.061028 
L 65.683921 63.061263 
L 66.185187 63.060844 
L 66.686452 63.061679 
L 67.187718 63.061002 
L 67.688983 63.061415 
L 68.190249 63.060274 
L 68.691514 63.060818 
L 69.192779 63.059822 
L 69.715839 63.059882 
L 70.217105 63.060987 
L 70.71837 63.059537 
L 71.219635 63.060323 
L 71.720901 63.057451 
L 72.222166 63.063179 
" clip-path="url(#pff83611c8c)" style="fill: none; stroke: #fcb462; stroke-width: 0.5; stroke-linecap: square"/>
   </g>
   <g id="patch_13">
    <path d="M 18.303438 89.100758 
L 18.303438 61.817294 
" style="fill: none; stroke: #000000; stroke-width: 0.2; stroke-linejoin: miter; stroke-linecap: square"/>
   </g>
   <g id="patch_14">
    <path d="M 73.224697 89.100758 
L 73.224697 61.817294 
" style="fill: none; stroke: #000000; stroke-width: 0.2; stroke-linejoin: miter; stroke-linecap: square"/>
   </g>
   <g id="patch_15">
    <path d="M 18.303438 89.100758 
L 73.224697 89.100758 
" style="fill: none; stroke: #000000; stroke-width: 0.2; stroke-linejoin: miter; stroke-linecap: square"/>
   </g>
   <g id="patch_16">
    <path d="M 18.303438 61.817294 
L 73.224697 61.817294 
" style="fill: none; stroke: #000000; stroke-width: 0.2; stroke-linejoin: miter; stroke-linecap: square"/>
   </g>
   <g id="text_22">
    <!-- $A_3$ -->
    <g style="fill: #fcb462" transform="translate(50.981696 67.173108) scale(0.08 -0.08)">
     <use xlink:href="#STIXGeneral-Italic-41" transform="translate(0 0.203125)"/>
     <use xlink:href="#STIXGeneral-Regular-33" transform="translate(61.099991 -13.025) scale(0.7)"/>
    </g>
   </g>
   <g id="text_23">
    <!-- $\beta_3$ -->
    <g style="fill: #795b34" transform="translate(34.642567 80.980783) scale(0.08 -0.08)">
     <use xlink:href="#STIXGeneral-Italic-3b2" transform="translate(0 0.203125)"/>
     <use xlink:href="#STIXGeneral-Regular-33" transform="translate(50.599991 -13.025) scale(0.7)"/>
    </g>
   </g>
  </g>
  <g id="axes_4">
   <g id="matplotlib.axis_7">
    <g id="ytick_10">
     <g id="line2d_20">
      <defs>
       <path id="m38d23d1b28" d="M 0 0 
L 1 0 
" style="stroke: #000000; stroke-width: 0.5"/>
      </defs>
      <g>
       <use xlink:href="#m38d23d1b28" x="73.224697" y="29.077136" style="stroke: #000000; stroke-width: 0.5"/>
      </g>
     </g>
     <g id="text_24">
      <!-- $-2\pi$ -->
      <g transform="translate(77.724697 30.150808) scale(0.03 -0.03)">
       <defs>
        <path id="STIXGeneral-Regular-2212" d="M 3974 1408 
L 410 1408 
L 410 1830 
L 3974 1830 
L 3974 1408 
z
" transform="scale(0.015625)"/>
        <path id="STIXGeneral-Italic-3c0" d="M 3430 2739 
L 3296 2266 
L 2643 2266 
Q 2624 2195 2502 1782 
Q 2381 1370 2297 1072 
Q 2214 774 2214 717 
Q 2214 448 2413 448 
Q 2694 448 2867 838 
L 2970 838 
Q 2886 486 2652 208 
Q 2419 -70 2093 -70 
Q 1901 -70 1808 67 
Q 1715 205 1715 410 
Q 1715 627 1824 922 
L 2310 2266 
L 1645 2266 
Q 1568 2061 1401 1469 
Q 1235 877 1068 512 
Q 902 147 672 -38 
Q 563 -115 442 -115 
Q 314 -115 218 -32 
Q 122 51 122 166 
Q 122 429 314 480 
Q 634 563 774 928 
L 1299 2266 
L 1261 2266 
Q 973 2266 819 2208 
Q 666 2150 474 1914 
L 371 1914 
Q 640 2362 931 2550 
Q 1222 2739 1696 2739 
L 3430 2739 
z
" transform="scale(0.015625)"/>
       </defs>
       <use xlink:href="#STIXGeneral-Regular-2212" transform="translate(0 0.40625)"/>
       <use xlink:href="#STIXGeneral-Regular-32" transform="translate(68.499985 0.40625)"/>
       <use xlink:href="#STIXGeneral-Italic-3c0" transform="translate(118.499969 0.40625)"/>
      </g>
     </g>
    </g>
    <g id="ytick_11">
     <g id="line2d_21">
      <g>
       <use xlink:href="#m38d23d1b28" x="73.224697" y="22.25627" style="stroke: #000000; stroke-width: 0.5"/>
      </g>
     </g>
     <g id="text_25">
      <!-- $-\pi$ -->
      <g transform="translate(77.724697 23.329942) scale(0.03 -0.03)">
       <use xlink:href="#STIXGeneral-Regular-2212" transform="translate(0 0.203125)"/>
       <use xlink:href="#STIXGeneral-Italic-3c0" transform="translate(68.499985 0.203125)"/>
      </g>
     </g>
    </g>
    <g id="ytick_12">
     <g id="line2d_22">
      <g>
       <use xlink:href="#m38d23d1b28" x="73.224697" y="15.435404" style="stroke: #000000; stroke-width: 0.5"/>
      </g>
     </g>
     <g id="text_26">
      <!-- $0$ -->
      <g transform="translate(77.724697 16.509076) scale(0.03 -0.03)">
       <defs>
        <path id="STIXGeneral-Regular-30" d="M 3046 2112 
Q 3046 1683 2963 1302 
Q 2880 922 2717 602 
Q 2554 282 2266 96 
Q 1978 -90 1600 -90 
Q 1210 -90 915 108 
Q 621 307 461 640 
Q 301 973 227 1350 
Q 154 1728 154 2150 
Q 154 2746 301 3222 
Q 448 3699 790 4012 
Q 1133 4326 1626 4326 
Q 2253 4326 2649 3712 
Q 3046 3098 3046 2112 
z
M 2432 2080 
Q 2432 3091 2217 3625 
Q 2003 4160 1587 4160 
Q 1190 4160 979 3622 
Q 768 3085 768 2106 
Q 768 1120 979 598 
Q 1190 77 1600 77 
Q 2003 77 2217 598 
Q 2432 1120 2432 2080 
z
" transform="scale(0.015625)"/>
       </defs>
       <use xlink:href="#STIXGeneral-Regular-30" transform="translate(0 0.40625)"/>
      </g>
     </g>
    </g>
    <g id="ytick_13">
     <g id="line2d_23">
      <g>
       <use xlink:href="#m38d23d1b28" x="73.224697" y="8.614538" style="stroke: #000000; stroke-width: 0.5"/>
      </g>
     </g>
     <g id="text_27">
      <!-- $\pi$ -->
      <g transform="translate(77.724697 9.68821) scale(0.03 -0.03)">
       <use xlink:href="#STIXGeneral-Italic-3c0" transform="translate(0 0.203125)"/>
      </g>
     </g>
    </g>
    <g id="ytick_14">
     <g id="line2d_24">
      <g>
       <use xlink:href="#m38d23d1b28" x="73.224697" y="1.793672" style="stroke: #000000; stroke-width: 0.5"/>
      </g>
     </g>
     <g id="text_28">
      <!-- $2\pi$ -->
      <g transform="translate(77.724697 2.867344) scale(0.03 -0.03)">
       <use xlink:href="#STIXGeneral-Regular-32" transform="translate(0 0.40625)"/>
       <use xlink:href="#STIXGeneral-Italic-3c0" transform="translate(49.999985 0.40625)"/>
      </g>
     </g>
    </g>
   </g>
   <g id="line2d_25">
    <path d="M 18.804703 15.367522 
L 19.305968 15.368295 
L 19.807234 15.369006 
L 20.308499 15.369669 
L 20.809765 15.37035 
L 21.31103 15.37101 
L 21.812296 15.371692 
L 22.335355 15.372372 
L 22.836621 15.373027 
L 23.337886 15.37369 
L 23.839152 15.374345 
L 24.340417 15.375012 
L 24.841683 15.375672 
L 25.342948 15.376337 
L 25.844214 15.377009 
L 26.367273 15.377682 
L 26.868539 15.378345 
L 27.369804 15.379002 
L 27.87107 15.379664 
L 28.372335 15.380324 
L 28.873601 15.380989 
L 29.374866 15.381648 
L 29.876132 15.382324 
L 30.399191 15.382997 
L 30.900457 15.383652 
L 31.401722 15.384312 
L 31.902988 15.384971 
L 32.404253 15.385637 
L 32.905518 15.386297 
L 33.406784 15.386958 
L 33.908049 15.387631 
L 34.431109 15.388305 
L 34.932375 15.388967 
L 35.43364 15.389625 
L 35.934905 15.39029 
L 36.436171 15.390952 
L 36.937436 15.391615 
L 37.438702 15.392291 
L 37.961761 15.392965 
L 38.463027 15.393624 
L 38.964292 15.394282 
L 39.465558 15.394945 
L 39.966823 15.395608 
L 40.468089 15.396273 
L 40.969354 15.396934 
L 41.47062 15.39761 
L 41.993679 15.398285 
L 42.494945 15.398947 
L 42.99621 15.399609 
L 43.497476 15.400272 
L 43.998741 15.400938 
L 44.500007 15.401602 
L 45.001272 15.402266 
L 45.502538 15.402943 
L 46.025597 15.403616 
L 46.526863 15.404277 
L 47.028128 15.404939 
L 47.529394 15.405605 
L 48.030659 15.40627 
L 48.531925 15.406934 
L 49.03319 15.407595 
L 49.534455 15.408274 
L 50.057515 15.40895 
L 50.558781 15.409613 
L 51.060046 15.410276 
L 51.561312 15.410944 
L 52.062577 15.41161 
L 52.563842 15.412275 
L 53.065108 15.412939 
L 53.566373 15.413618 
L 54.089433 15.414291 
L 54.590698 15.414954 
L 55.091964 15.415622 
L 55.593229 15.416289 
L 56.094495 15.416955 
L 56.59576 15.417619 
L 57.097026 15.4183 
L 57.620085 15.418978 
L 58.121351 15.419642 
L 58.622616 15.420307 
L 59.123882 15.420975 
L 59.625147 15.421644 
L 60.126413 15.42231 
L 60.627678 15.422977 
L 61.128944 15.42366 
L 61.652003 15.424333 
L 62.153269 15.424998 
L 62.654534 15.425665 
L 63.1558 15.426335 
L 63.657065 15.427002 
L 64.158331 15.427669 
L 64.659596 15.428332 
L 65.160862 15.42902 
L 65.683921 15.429696 
L 66.185187 15.430359 
L 66.686452 15.431029 
L 67.187718 15.431696 
L 67.688983 15.432366 
L 68.190249 15.433031 
L 68.691514 15.433699 
L 69.192779 15.434389 
L 69.715839 15.435052 
L 70.217105 15.435722 
L 70.71837 15.436385 
L 71.219635 15.437059 
L 71.720901 15.437715 
L 72.222166 15.438406 
" clip-path="url(#p7d169b44dd)" style="fill: none; stroke: #713948; stroke-width: 0.5; stroke-linecap: square"/>
   </g>
   <g id="patch_17">
    <path d="M 18.303438 29.077136 
L 18.303438 1.793672 
" style="fill: none; stroke: #000000; stroke-width: 0.2; stroke-linejoin: miter; stroke-linecap: square"/>
   </g>
   <g id="patch_18">
    <path d="M 73.224697 29.077136 
L 73.224697 1.793672 
" style="fill: none; stroke: #000000; stroke-width: 0.2; stroke-linejoin: miter; stroke-linecap: square"/>
   </g>
   <g id="patch_19">
    <path d="M 18.303438 29.077136 
L 73.224697 29.077136 
" style="fill: none; stroke: #000000; stroke-width: 0.2; stroke-linejoin: miter; stroke-linecap: square"/>
   </g>
   <g id="patch_20">
    <path d="M 18.303438 1.793672 
L 73.224697 1.793672 
" style="fill: none; stroke: #000000; stroke-width: 0.2; stroke-linejoin: miter; stroke-linecap: square"/>
   </g>
  </g>
  <g id="axes_5">
   <g id="matplotlib.axis_8">
    <g id="ytick_15">
     <g id="line2d_26">
      <g>
       <use xlink:href="#m38d23d1b28" x="73.224697" y="59.088947" style="stroke: #000000; stroke-width: 0.5"/>
      </g>
     </g>
     <g id="text_29">
      <!-- $-2\pi$ -->
      <g transform="translate(77.724697 60.162619) scale(0.03 -0.03)">
       <use xlink:href="#STIXGeneral-Regular-2212" transform="translate(0 0.40625)"/>
       <use xlink:href="#STIXGeneral-Regular-32" transform="translate(68.499985 0.40625)"/>
       <use xlink:href="#STIXGeneral-Italic-3c0" transform="translate(118.499969 0.40625)"/>
      </g>
     </g>
    </g>
    <g id="ytick_16">
     <g id="line2d_27">
      <g>
       <use xlink:href="#m38d23d1b28" x="73.224697" y="52.268081" style="stroke: #000000; stroke-width: 0.5"/>
      </g>
     </g>
     <g id="text_30">
      <!-- $-\pi$ -->
      <g transform="translate(77.724697 53.341753) scale(0.03 -0.03)">
       <use xlink:href="#STIXGeneral-Regular-2212" transform="translate(0 0.203125)"/>
       <use xlink:href="#STIXGeneral-Italic-3c0" transform="translate(68.499985 0.203125)"/>
      </g>
     </g>
    </g>
    <g id="ytick_17">
     <g id="line2d_28">
      <g>
       <use xlink:href="#m38d23d1b28" x="73.224697" y="45.447215" style="stroke: #000000; stroke-width: 0.5"/>
      </g>
     </g>
     <g id="text_31">
      <!-- $0$ -->
      <g transform="translate(77.724697 46.520887) scale(0.03 -0.03)">
       <use xlink:href="#STIXGeneral-Regular-30" transform="translate(0 0.40625)"/>
      </g>
     </g>
    </g>
    <g id="ytick_18">
     <g id="line2d_29">
      <g>
       <use xlink:href="#m38d23d1b28" x="73.224697" y="38.626349" style="stroke: #000000; stroke-width: 0.5"/>
      </g>
     </g>
     <g id="text_32">
      <!-- $\pi$ -->
      <g transform="translate(77.724697 39.700021) scale(0.03 -0.03)">
       <use xlink:href="#STIXGeneral-Italic-3c0" transform="translate(0 0.203125)"/>
      </g>
     </g>
    </g>
    <g id="ytick_19">
     <g id="line2d_30">
      <g>
       <use xlink:href="#m38d23d1b28" x="73.224697" y="31.805483" style="stroke: #000000; stroke-width: 0.5"/>
      </g>
     </g>
     <g id="text_33">
      <!-- $2\pi$ -->
      <g transform="translate(77.724697 32.879155) scale(0.03 -0.03)">
       <use xlink:href="#STIXGeneral-Regular-32" transform="translate(0 0.40625)"/>
       <use xlink:href="#STIXGeneral-Italic-3c0" transform="translate(49.999985 0.40625)"/>
      </g>
     </g>
    </g>
   </g>
   <g id="line2d_31">
    <path d="M 18.804703 45.449239 
L 19.305968 45.449991 
L 19.807234 45.450716 
L 20.308499 45.451416 
L 20.809765 45.452127 
L 21.31103 45.452826 
L 21.812296 45.453529 
L 22.335355 45.454256 
L 22.836621 45.454945 
L 23.337886 45.455634 
L 23.839152 45.456318 
L 24.340417 45.457008 
L 24.841683 45.457695 
L 25.342948 45.458381 
L 25.844214 45.459069 
L 26.367273 45.459767 
L 26.868539 45.460445 
L 27.369804 45.461119 
L 27.87107 45.461792 
L 28.372335 45.462464 
L 28.873601 45.463137 
L 29.374866 45.463805 
L 29.876132 45.464483 
L 30.399191 45.465164 
L 30.900457 45.465821 
L 31.401722 45.466479 
L 31.902988 45.467136 
L 32.404253 45.467796 
L 32.905518 45.468452 
L 33.406784 45.469106 
L 33.908049 45.469768 
L 34.431109 45.470432 
L 34.932375 45.47108 
L 35.43364 45.471724 
L 35.934905 45.472369 
L 36.436171 45.473014 
L 36.937436 45.473656 
L 37.438702 45.474308 
L 37.961761 45.474959 
L 38.463027 45.475591 
L 38.964292 45.476221 
L 39.465558 45.476851 
L 39.966823 45.477482 
L 40.468089 45.478113 
L 40.969354 45.47874 
L 41.47062 45.479377 
L 41.993679 45.480012 
L 42.494945 45.480633 
L 42.99621 45.481251 
L 43.497476 45.481869 
L 43.998741 45.482488 
L 44.500007 45.483104 
L 45.001272 45.483717 
L 45.502538 45.484342 
L 46.025597 45.484961 
L 46.526863 45.485563 
L 47.028128 45.486167 
L 47.529394 45.486771 
L 48.030659 45.487377 
L 48.531925 45.487977 
L 49.03319 45.488576 
L 49.534455 45.489186 
L 50.057515 45.489792 
L 50.558781 45.490386 
L 51.060046 45.490976 
L 51.561312 45.49157 
L 52.062577 45.49216 
L 52.563842 45.492749 
L 53.065108 45.493334 
L 53.566373 45.493932 
L 54.089433 45.494522 
L 54.590698 45.495099 
L 55.091964 45.49568 
L 55.593229 45.49626 
L 56.094495 45.496839 
L 56.59576 45.497412 
L 57.097026 45.498 
L 57.620085 45.498583 
L 58.121351 45.499152 
L 58.622616 45.499721 
L 59.123882 45.500289 
L 59.625147 45.50086 
L 60.126413 45.501424 
L 60.627678 45.501989 
L 61.128944 45.502564 
L 61.652003 45.50313 
L 62.153269 45.503688 
L 62.654534 45.504243 
L 63.1558 45.504804 
L 63.657065 45.505358 
L 64.158331 45.505915 
L 64.659596 45.506463 
L 65.160862 45.50703 
L 65.683921 45.507591 
L 66.185187 45.508135 
L 66.686452 45.508687 
L 67.187718 45.509232 
L 67.688983 45.509783 
L 68.190249 45.510323 
L 68.691514 45.510871 
L 69.192779 45.511423 
L 69.715839 45.511965 
L 70.217105 45.512513 
L 70.71837 45.513048 
L 71.219635 45.513611 
L 71.720901 45.514158 
L 72.222166 45.514844 
" clip-path="url(#p60731ac097)" style="fill: none; stroke: #495373; stroke-width: 0.5; stroke-linecap: square"/>
   </g>
   <g id="patch_21">
    <path d="M 18.303438 59.088947 
L 18.303438 31.805483 
" style="fill: none; stroke: #000000; stroke-width: 0.2; stroke-linejoin: miter; stroke-linecap: square"/>
   </g>
   <g id="patch_22">
    <path d="M 73.224697 59.088947 
L 73.224697 31.805483 
" style="fill: none; stroke: #000000; stroke-width: 0.2; stroke-linejoin: miter; stroke-linecap: square"/>
   </g>
   <g id="patch_23">
    <path d="M 18.303438 59.088947 
L 73.224697 59.088947 
" style="fill: none; stroke: #000000; stroke-width: 0.2; stroke-linejoin: miter; stroke-linecap: square"/>
   </g>
   <g id="patch_24">
    <path d="M 18.303438 31.805483 
L 73.224697 31.805483 
" style="fill: none; stroke: #000000; stroke-width: 0.2; stroke-linejoin: miter; stroke-linecap: square"/>
   </g>
  </g>
  <g id="axes_6">
   <g id="matplotlib.axis_9">
    <g id="ytick_20">
     <g id="line2d_32">
      <g>
       <use xlink:href="#m38d23d1b28" x="73.224697" y="89.100758" style="stroke: #000000; stroke-width: 0.5"/>
      </g>
     </g>
     <g id="text_34">
      <!-- $-2\pi$ -->
      <g transform="translate(77.724697 90.17443) scale(0.03 -0.03)">
       <use xlink:href="#STIXGeneral-Regular-2212" transform="translate(0 0.40625)"/>
       <use xlink:href="#STIXGeneral-Regular-32" transform="translate(68.499985 0.40625)"/>
       <use xlink:href="#STIXGeneral-Italic-3c0" transform="translate(118.499969 0.40625)"/>
      </g>
     </g>
    </g>
    <g id="ytick_21">
     <g id="line2d_33">
      <g>
       <use xlink:href="#m38d23d1b28" x="73.224697" y="82.279892" style="stroke: #000000; stroke-width: 0.5"/>
      </g>
     </g>
     <g id="text_35">
      <!-- $-\pi$ -->
      <g transform="translate(77.724697 83.353564) scale(0.03 -0.03)">
       <use xlink:href="#STIXGeneral-Regular-2212" transform="translate(0 0.203125)"/>
       <use xlink:href="#STIXGeneral-Italic-3c0" transform="translate(68.499985 0.203125)"/>
      </g>
     </g>
    </g>
    <g id="ytick_22">
     <g id="line2d_34">
      <g>
       <use xlink:href="#m38d23d1b28" x="73.224697" y="75.459026" style="stroke: #000000; stroke-width: 0.5"/>
      </g>
     </g>
     <g id="text_36">
      <!-- $0$ -->
      <g transform="translate(77.724697 76.532698) scale(0.03 -0.03)">
       <use xlink:href="#STIXGeneral-Regular-30" transform="translate(0 0.40625)"/>
      </g>
     </g>
    </g>
    <g id="ytick_23">
     <g id="line2d_35">
      <g>
       <use xlink:href="#m38d23d1b28" x="73.224697" y="68.63816" style="stroke: #000000; stroke-width: 0.5"/>
      </g>
     </g>
     <g id="text_37">
      <!-- $\pi$ -->
      <g transform="translate(77.724697 69.711832) scale(0.03 -0.03)">
       <use xlink:href="#STIXGeneral-Italic-3c0" transform="translate(0 0.203125)"/>
      </g>
     </g>
    </g>
    <g id="ytick_24">
     <g id="line2d_36">
      <g>
       <use xlink:href="#m38d23d1b28" x="73.224697" y="61.817294" style="stroke: #000000; stroke-width: 0.5"/>
      </g>
     </g>
     <g id="text_38">
      <!-- $2\pi$ -->
      <g transform="translate(77.724697 62.890966) scale(0.03 -0.03)">
       <use xlink:href="#STIXGeneral-Regular-32" transform="translate(0 0.40625)"/>
       <use xlink:href="#STIXGeneral-Italic-3c0" transform="translate(49.999985 0.40625)"/>
      </g>
     </g>
    </g>
   </g>
   <g id="line2d_37">
    <path d="M 18.804703 75.551221 
L 19.305968 75.551698 
L 19.807234 75.552146 
L 20.308499 75.552583 
L 20.809765 75.553023 
L 21.31103 75.553458 
L 21.812296 75.553905 
L 22.335355 75.554343 
L 22.836621 75.55477 
L 23.337886 75.555197 
L 23.839152 75.555622 
L 24.340417 75.55605 
L 24.841683 75.556477 
L 25.342948 75.556905 
L 25.844214 75.557342 
L 26.367273 75.557771 
L 26.868539 75.558195 
L 27.369804 75.558616 
L 27.87107 75.559037 
L 28.372335 75.559458 
L 28.873601 75.55988 
L 29.374866 75.560297 
L 29.876132 75.560726 
L 30.399191 75.561148 
L 30.900457 75.561559 
L 31.401722 75.561971 
L 31.902988 75.562383 
L 32.404253 75.562798 
L 32.905518 75.563211 
L 33.406784 75.563622 
L 33.908049 75.564044 
L 34.431109 75.564459 
L 34.932375 75.564868 
L 35.43364 75.565274 
L 35.934905 75.565683 
L 36.436171 75.56609 
L 36.937436 75.566496 
L 37.438702 75.56691 
L 37.961761 75.567318 
L 38.463027 75.567718 
L 38.964292 75.568114 
L 39.465558 75.568513 
L 39.966823 75.568912 
L 40.468089 75.569312 
L 40.969354 75.56971 
L 41.47062 75.570117 
L 41.993679 75.570519 
L 42.494945 75.570913 
L 42.99621 75.571306 
L 43.497476 75.571699 
L 43.998741 75.572093 
L 44.500007 75.572484 
L 45.001272 75.572874 
L 45.502538 75.573272 
L 46.025597 75.573663 
L 46.526863 75.574046 
L 47.028128 75.574428 
L 47.529394 75.574813 
L 48.030659 75.575197 
L 48.531925 75.575581 
L 49.03319 75.575962 
L 49.534455 75.576352 
L 50.057515 75.576738 
L 50.558781 75.577115 
L 51.060046 75.577492 
L 51.561312 75.577871 
L 52.062577 75.578247 
L 52.563842 75.578622 
L 53.065108 75.578995 
L 53.566373 75.579375 
L 54.089433 75.579749 
L 54.590698 75.580116 
L 55.091964 75.580485 
L 55.593229 75.580855 
L 56.094495 75.581223 
L 56.59576 75.58159 
L 57.097026 75.581965 
L 57.620085 75.582336 
L 58.121351 75.5827 
L 58.622616 75.583062 
L 59.123882 75.583425 
L 59.625147 75.583788 
L 60.126413 75.584147 
L 60.627678 75.584507 
L 61.128944 75.584873 
L 61.652003 75.585231 
L 62.153269 75.585584 
L 62.654534 75.585938 
L 63.1558 75.586293 
L 63.657065 75.586647 
L 64.158331 75.587 
L 64.659596 75.587351 
L 65.160862 75.587711 
L 65.683921 75.588067 
L 66.185187 75.588413 
L 66.686452 75.588762 
L 67.187718 75.58911 
L 67.688983 75.589457 
L 68.190249 75.589801 
L 68.691514 75.590145 
L 69.192779 75.590495 
L 69.715839 75.590836 
L 70.217105 75.591176 
L 70.71837 75.591515 
L 71.219635 75.591857 
L 71.720901 75.592193 
L 72.222166 75.592542 
" clip-path="url(#pff83611c8c)" style="fill: none; stroke: #795b34; stroke-width: 0.5; stroke-linecap: square"/>
   </g>
   <g id="patch_25">
    <path d="M 18.303438 89.100758 
L 18.303438 61.817294 
" style="fill: none; stroke: #000000; stroke-width: 0.2; stroke-linejoin: miter; stroke-linecap: square"/>
   </g>
   <g id="patch_26">
    <path d="M 73.224697 89.100758 
L 73.224697 61.817294 
" style="fill: none; stroke: #000000; stroke-width: 0.2; stroke-linejoin: miter; stroke-linecap: square"/>
   </g>
   <g id="patch_27">
    <path d="M 18.303438 89.100758 
L 73.224697 89.100758 
" style="fill: none; stroke: #000000; stroke-width: 0.2; stroke-linejoin: miter; stroke-linecap: square"/>
   </g>
   <g id="patch_28">
    <path d="M 18.303438 61.817294 
L 73.224697 61.817294 
" style="fill: none; stroke: #000000; stroke-width: 0.2; stroke-linejoin: miter; stroke-linecap: square"/>
   </g>
  </g>
 </g>
 <defs>
  <clipPath id="p7d169b44dd">
   <rect x="18.303438" y="1.793672" width="54.92126" height="27.283465"/>
  </clipPath>
  <clipPath id="p60731ac097">
   <rect x="18.303438" y="31.805483" width="54.92126" height="27.283465"/>
  </clipPath>
  <clipPath id="pff83611c8c">
   <rect x="18.303438" y="61.817294" width="54.92126" height="27.283465"/>
  </clipPath>
 </defs>
</svg>
