<?xml version="1.0" encoding="utf-8" standalone="no"?>
<!DOCTYPE svg PUBLIC "-//W3C//DTD SVG 1.1//EN"
  "http://www.w3.org/Graphics/SVG/1.1/DTD/svg11.dtd">
<svg xmlns:xlink="http://www.w3.org/1999/xlink" width="85.03937pt" height="85.03937pt" viewBox="0 0 85.03937 85.03937" xmlns="http://www.w3.org/2000/svg" version="1.1">
 <metadata>
  <rdf:RDF xmlns:dc="http://purl.org/dc/elements/1.1/" xmlns:cc="http://creativecommons.org/ns#" xmlns:rdf="http://www.w3.org/1999/02/22-rdf-syntax-ns#">
   <cc:Work>
    <dc:type rdf:resource="http://purl.org/dc/dcmitype/StillImage"/>
    <dc:date>2025-01-13T14:27:23.311872</dc:date>
    <dc:format>image/svg+xml</dc:format>
    <dc:creator>
     <cc:Agent>
      <dc:title>Matplotlib v3.8.0, https://matplotlib.org/</dc:title>
     </cc:Agent>
    </dc:creator>
   </cc:Work>
  </rdf:RDF>
 </metadata>
 <defs>
  <style type="text/css">*{stroke-linejoin: round; stroke-linecap: butt}</style>
 </defs>
 <g id="figure_1">
  <g id="patch_1">
   <path d="M 0 85.03937 
L 85.03937 85.03937 
L 85.03937 0 
L 0 0 
L 0 85.03937 
z
" style="fill: none"/>
  </g>
  <g id="patch_2">
   <path d="M 10.84252 75.685039 
L 76.322835 75.685039 
L 76.322835 10.204724 
L 10.84252 10.204724 
L 10.84252 75.685039 
z
" style="fill: none"/>
  </g>
  <g id="pane3d_1">
   <g id="patch_3">
    <path d="M 32.898237 42.227698 
L 70.108731 49.075565 
L 71.243793 22.247933 
L 32.403399 16.013508 
" style="fill: #f2f2f2; opacity: 0.5; stroke: #f2f2f2; stroke-linejoin: miter"/>
   </g>
  </g>
  <g id="pane3d_2">
   <g id="patch_4">
    <path d="M 32.898237 42.227698 
L 17.232851 62.211304 
L 15.948794 34.257144 
L 32.403399 16.013508 
" style="fill: #e6e6e6; opacity: 0.5; stroke: #e6e6e6; stroke-linejoin: miter"/>
   </g>
  </g>
  <g id="pane3d_3">
   <g id="patch_5">
    <path d="M 32.898237 42.227698 
L 17.232851 62.211304 
L 57.635596 70.489844 
L 70.108731 49.075565 
" style="fill: #ececec; opacity: 0.5; stroke: #ececec; stroke-linejoin: miter"/>
   </g>
  </g>
  <g id="grid3d_1">
   <g id="Line3DCollection_1">
    <path d="M 68.035781 52.634473 
L 30.287635 45.557922 
L 29.670832 19.043174 
" style="fill: none; stroke: #b0b0b0; stroke-width: 0.1"/>
    <path d="M 64.172855 59.266468 
L 25.430386 51.754089 
L 24.576508 24.69138 
" style="fill: none; stroke: #b0b0b0; stroke-width: 0.1"/>
    <path d="M 60.06394 66.320784 
L 20.274642 58.331033 
L 19.154626 30.702757 
" style="fill: none; stroke: #b0b0b0; stroke-width: 0.1"/>
   </g>
  </g>
  <g id="grid3d_2">
   <g id="Line3DCollection_2">
    <path d="M 39.199809 17.104427 
L 39.417144 43.427376 
L 24.291898 63.657706 
" style="fill: none; stroke: #b0b0b0; stroke-width: 0.1"/>
    <path d="M 51.489917 19.077161 
L 51.197136 45.595254 
L 37.068504 66.275638 
" style="fill: none; stroke: #b0b0b0; stroke-width: 0.1"/>
    <path d="M 64.053327 21.093763 
L 63.228048 47.809309 
L 50.14465 68.954946 
" style="fill: none; stroke: #b0b0b0; stroke-width: 0.1"/>
   </g>
  </g>
  <g id="grid3d_3">
   <g id="Line3DCollection_3">
    <path d="M 17.010324 57.366848 
L 32.812184 37.669029 
L 70.305886 44.415739 
" style="fill: none; stroke: #b0b0b0; stroke-width: 0.1"/>
    <path d="M 16.605609 48.55613 
L 32.655999 29.39504 
L 70.663973 35.952216 
" style="fill: none; stroke: #b0b0b0; stroke-width: 0.1"/>
    <path d="M 16.188785 39.481789 
L 32.49557 20.89629 
L 71.032124 27.250809 
" style="fill: none; stroke: #b0b0b0; stroke-width: 0.1"/>
   </g>
  </g>
  <g id="axis3d_1">
   <g id="line2d_1">
    <path d="M 70.108731 49.075565 
L 57.635596 70.489844 
" style="fill: none; stroke: #000000; stroke-width: 0.2; stroke-linecap: square"/>
   </g>
   <g id="xtick_1">
    <g id="line2d_2">
     <path d="M 67.723599 52.575949 
L 68.660655 52.751616 
" style="fill: none; stroke: #000000; stroke-width: 0.8; stroke-linecap: square"/>
    </g>
    <g id="text_1">
     <!-- −4000 -->
     <g transform="translate(69.38943 59.655521) scale(0.03 -0.03)">
      <defs>
       <path id="ArialMT-2212" d="M 3381 1997 
L 356 1997 
L 356 2522 
L 3381 2522 
L 3381 1997 
z
" transform="scale(0.015625)"/>
       <path id="ArialMT-34" d="M 2069 0 
L 2069 1097 
L 81 1097 
L 81 1613 
L 2172 4581 
L 2631 4581 
L 2631 1613 
L 3250 1613 
L 3250 1097 
L 2631 1097 
L 2631 0 
L 2069 0 
z
M 2069 1613 
L 2069 3678 
L 634 1613 
L 2069 1613 
z
" transform="scale(0.015625)"/>
       <path id="ArialMT-30" d="M 266 2259 
Q 266 3072 433 3567 
Q 600 4063 929 4331 
Q 1259 4600 1759 4600 
Q 2128 4600 2406 4451 
Q 2684 4303 2865 4023 
Q 3047 3744 3150 3342 
Q 3253 2941 3253 2259 
Q 3253 1453 3087 958 
Q 2922 463 2592 192 
Q 2263 -78 1759 -78 
Q 1097 -78 719 397 
Q 266 969 266 2259 
z
M 844 2259 
Q 844 1131 1108 757 
Q 1372 384 1759 384 
Q 2147 384 2411 759 
Q 2675 1134 2675 2259 
Q 2675 3391 2411 3762 
Q 2147 4134 1753 4134 
Q 1366 4134 1134 3806 
Q 844 3388 844 2259 
z
" transform="scale(0.015625)"/>
      </defs>
      <use xlink:href="#ArialMT-2212"/>
      <use xlink:href="#ArialMT-34" x="58.398438"/>
      <use xlink:href="#ArialMT-30" x="114.013672"/>
      <use xlink:href="#ArialMT-30" x="169.628906"/>
      <use xlink:href="#ArialMT-30" x="225.244141"/>
     </g>
    </g>
   </g>
   <g id="xtick_2">
    <g id="line2d_3">
     <path d="M 63.852127 59.204277 
L 64.814851 59.390955 
" style="fill: none; stroke: #000000; stroke-width: 0.8; stroke-linecap: square"/>
    </g>
    <g id="text_2">
     <!-- 0 -->
     <g transform="translate(69.081825 66.428633) scale(0.03 -0.03)">
      <use xlink:href="#ArialMT-30"/>
     </g>
    </g>
   </g>
   <g id="xtick_3">
    <g id="line2d_4">
     <path d="M 59.734194 66.25457 
L 60.724007 66.453326 
" style="fill: none; stroke: #000000; stroke-width: 0.8; stroke-linecap: square"/>
    </g>
    <g id="text_3">
     <!-- 4000 -->
     <g transform="translate(62.658886 73.632442) scale(0.03 -0.03)">
      <use xlink:href="#ArialMT-34"/>
      <use xlink:href="#ArialMT-30" x="55.615234"/>
      <use xlink:href="#ArialMT-30" x="111.230469"/>
      <use xlink:href="#ArialMT-30" x="166.845703"/>
     </g>
    </g>
   </g>
   <g id="text_4">
    <!-- $x_1\ (km)$ -->
    <g transform="translate(74.741196 75.847831) rotate(-59.780562) scale(0.04 -0.04)">
     <defs>
      <path id="STIXGeneral-Italic-78" d="M 1555 2272 
L 1632 1907 
Q 1971 2426 2179 2624 
Q 2387 2822 2598 2822 
Q 2714 2822 2787 2755 
Q 2861 2688 2861 2585 
Q 2861 2483 2800 2419 
Q 2739 2355 2643 2355 
Q 2586 2355 2490 2409 
Q 2394 2464 2310 2464 
Q 2125 2464 1683 1690 
Q 1683 1606 1734 1402 
L 1939 544 
Q 2003 282 2131 282 
Q 2234 282 2432 538 
Q 2451 563 2476 598 
Q 2502 634 2521 662 
Q 2541 691 2566 717 
L 2662 659 
Q 2387 230 2227 80 
Q 2067 -70 1882 -70 
Q 1728 -70 1645 26 
Q 1562 122 1504 365 
L 1318 1126 
L 755 365 
Q 557 96 432 13 
Q 307 -70 147 -70 
Q 0 -70 -86 0 
Q -173 70 -173 198 
Q -173 294 -112 361 
Q -51 429 45 429 
Q 122 429 250 358 
Q 346 301 416 301 
Q 525 301 742 614 
L 1267 1357 
L 1088 2150 
Q 1024 2432 969 2509 
Q 915 2586 794 2586 
Q 717 2586 544 2541 
L 429 2509 
L 410 2611 
L 480 2637 
Q 992 2822 1229 2822 
Q 1350 2822 1420 2707 
Q 1491 2592 1555 2272 
z
" transform="scale(0.015625)"/>
      <path id="STIXGeneral-Regular-31" d="M 2522 0 
L 755 0 
L 755 96 
Q 1107 115 1235 227 
Q 1363 339 1363 608 
L 1363 3482 
Q 1363 3795 1171 3795 
Q 1082 3795 883 3718 
L 710 3654 
L 710 3744 
L 1856 4326 
L 1914 4307 
L 1914 486 
Q 1914 275 2042 185 
Q 2170 96 2522 96 
L 2522 0 
z
" transform="scale(0.015625)"/>
      <path id="STIXGeneral-Regular-28" d="M 1946 -1030 
L 1869 -1133 
Q 1126 -710 716 32 
Q 307 774 307 1613 
Q 307 3386 1888 4326 
L 1946 4224 
Q 1293 3667 1075 3126 
Q 858 2586 858 1632 
Q 858 685 1082 96 
Q 1306 -493 1946 -1030 
z
" transform="scale(0.015625)"/>
      <path id="STIXGeneral-Italic-6b" d="M 2950 2739 
L 2950 2637 
Q 2720 2624 2464 2448 
Q 2208 2272 1510 1651 
L 1747 1088 
Q 2099 262 2266 262 
Q 2400 262 2554 531 
Q 2586 582 2650 698 
L 2746 627 
Q 2522 224 2374 77 
Q 2227 -70 2035 -70 
Q 1894 -70 1782 42 
Q 1670 154 1517 454 
Q 1325 826 1133 1357 
L 877 1152 
L 570 0 
L 90 0 
L 992 3379 
Q 1082 3699 1107 3942 
Q 1088 4096 781 4096 
L 666 4096 
L 666 4198 
Q 1146 4256 1670 4371 
L 1709 4333 
L 941 1414 
L 1216 1626 
Q 2131 2330 2131 2522 
Q 2131 2637 1894 2637 
L 1805 2637 
L 1805 2739 
L 2950 2739 
z
" transform="scale(0.015625)"/>
      <path id="STIXGeneral-Italic-6d" d="M 4506 672 
L 4474 627 
Q 3981 -58 3552 -58 
Q 3296 -58 3296 237 
Q 3296 333 3379 659 
L 3750 2112 
Q 3795 2291 3795 2355 
Q 3795 2413 3756 2451 
Q 3718 2490 3667 2490 
Q 3366 2490 2829 1741 
Q 2592 1408 2457 1072 
Q 2323 736 2138 0 
L 1658 0 
L 1830 595 
Q 2266 2099 2266 2330 
Q 2266 2490 2125 2490 
Q 1965 2490 1702 2237 
Q 1440 1984 1171 1574 
Q 1011 1325 899 1043 
Q 787 762 557 0 
L 77 0 
L 352 922 
Q 704 2093 704 2381 
Q 704 2522 442 2522 
L 282 2522 
L 282 2624 
L 1318 2822 
L 1338 2810 
L 966 1472 
Q 1798 2822 2374 2822 
Q 2560 2822 2659 2720 
Q 2758 2618 2758 2438 
Q 2758 2195 2502 1466 
Q 2842 2003 3069 2275 
Q 3296 2547 3526 2694 
Q 3731 2822 3930 2822 
Q 4102 2822 4201 2710 
Q 4301 2598 4301 2419 
Q 4301 2336 4282 2240 
L 3846 634 
Q 3782 390 3782 346 
Q 3782 243 3859 243 
Q 4000 243 4275 582 
L 4410 749 
L 4506 672 
z
" transform="scale(0.015625)"/>
      <path id="STIXGeneral-Regular-29" d="M 186 4224 
L 262 4326 
Q 992 3891 1408 3148 
Q 1824 2406 1824 1581 
Q 1824 -166 243 -1133 
L 186 -1030 
Q 845 -486 1059 54 
Q 1274 595 1274 1562 
Q 1274 2534 1059 3120 
Q 845 3706 186 4224 
z
" transform="scale(0.015625)"/>
     </defs>
     <use xlink:href="#STIXGeneral-Italic-78" transform="translate(0 0.703125)"/>
     <use xlink:href="#STIXGeneral-Regular-31" transform="translate(44.399994 -12.525) scale(0.7)"/>
     <use xlink:href="#STIXGeneral-Regular-28" transform="translate(107.875778 0.703125)"/>
     <use xlink:href="#STIXGeneral-Italic-6b" transform="translate(141.175766 0.703125)"/>
     <use xlink:href="#STIXGeneral-Italic-6d" transform="translate(185.57576 0.703125)"/>
     <use xlink:href="#STIXGeneral-Regular-29" transform="translate(257.775741 0.703125)"/>
    </g>
   </g>
  </g>
  <g id="axis3d_2">
   <g id="line2d_5">
    <path d="M 17.232851 62.211304 
L 57.635596 70.489844 
" style="fill: none; stroke: #000000; stroke-width: 0.2; stroke-linecap: square"/>
   </g>
   <g id="xtick_4">
    <g id="line2d_6">
     <path d="M 24.424694 63.480087 
L 24.025676 64.013782 
" style="fill: none; stroke: #000000; stroke-width: 0.8; stroke-linecap: square"/>
    </g>
    <g id="text_5">
     <!-- −4000 -->
     <g transform="translate(18.691855 70.137473) scale(0.03 -0.03)">
      <use xlink:href="#ArialMT-2212"/>
      <use xlink:href="#ArialMT-34" x="58.398438"/>
      <use xlink:href="#ArialMT-30" x="114.013672"/>
      <use xlink:href="#ArialMT-30" x="169.628906"/>
      <use xlink:href="#ArialMT-30" x="225.244141"/>
     </g>
    </g>
   </g>
   <g id="xtick_5">
    <g id="line2d_7">
     <path d="M 37.192678 66.093881 
L 36.819562 66.64002 
" style="fill: none; stroke: #000000; stroke-width: 0.8; stroke-linecap: square"/>
    </g>
    <g id="text_6">
     <!-- 0 -->
     <g transform="translate(34.891397 72.818251) scale(0.03 -0.03)">
      <use xlink:href="#ArialMT-30"/>
     </g>
    </g>
   </g>
   <g id="xtick_6">
    <g id="line2d_8">
     <path d="M 50.259759 68.768905 
L 49.913875 69.327928 
" style="fill: none; stroke: #000000; stroke-width: 0.8; stroke-linecap: square"/>
    </g>
    <g id="text_7">
     <!-- 4000 -->
     <g transform="translate(45.512023 75.562179) scale(0.03 -0.03)">
      <use xlink:href="#ArialMT-34"/>
      <use xlink:href="#ArialMT-30" x="55.615234"/>
      <use xlink:href="#ArialMT-30" x="111.230469"/>
      <use xlink:href="#ArialMT-30" x="166.845703"/>
     </g>
    </g>
   </g>
   <g id="text_8">
    <!-- $x_2\ (km)$ -->
    <g transform="translate(27.072335 79.428415) rotate(-348.420349) scale(0.04 -0.04)">
     <defs>
      <path id="STIXGeneral-Regular-32" d="M 3034 877 
L 2688 0 
L 186 0 
L 186 77 
L 1325 1286 
Q 1773 1754 1965 2144 
Q 2157 2534 2157 2950 
Q 2157 3379 1920 3616 
Q 1683 3853 1267 3853 
Q 922 3853 720 3673 
Q 518 3494 326 3021 
L 192 3053 
Q 301 3648 630 3987 
Q 960 4326 1523 4326 
Q 2054 4326 2380 4006 
Q 2707 3686 2707 3200 
Q 2707 2477 1888 1613 
L 832 486 
L 2330 486 
Q 2541 486 2665 569 
Q 2790 653 2944 915 
L 3034 877 
z
" transform="scale(0.015625)"/>
     </defs>
     <use xlink:href="#STIXGeneral-Italic-78" transform="translate(0 0.703125)"/>
     <use xlink:href="#STIXGeneral-Regular-32" transform="translate(44.399994 -12.525) scale(0.7)"/>
     <use xlink:href="#STIXGeneral-Regular-28" transform="translate(107.875778 0.703125)"/>
     <use xlink:href="#STIXGeneral-Italic-6b" transform="translate(141.175766 0.703125)"/>
     <use xlink:href="#STIXGeneral-Italic-6d" transform="translate(185.57576 0.703125)"/>
     <use xlink:href="#STIXGeneral-Regular-29" transform="translate(257.775741 0.703125)"/>
    </g>
   </g>
  </g>
  <g id="axis3d_3">
   <g id="line2d_9">
    <path d="M 17.232851 62.211304 
L 15.948794 34.257144 
" style="fill: none; stroke: #000000; stroke-width: 0.2; stroke-linecap: square"/>
   </g>
   <g id="xtick_7">
    <g id="line2d_10">
     <path d="M 17.149083 57.193878 
L 16.73215 57.713606 
" style="fill: none; stroke: #000000; stroke-width: 0.8; stroke-linecap: square"/>
    </g>
    <g id="text_9">
     <!-- −4000 -->
     <g transform="translate(4.417529 61.550611) scale(0.03 -0.03)">
      <use xlink:href="#ArialMT-2212"/>
      <use xlink:href="#ArialMT-34" x="58.398438"/>
      <use xlink:href="#ArialMT-30" x="114.013672"/>
      <use xlink:href="#ArialMT-30" x="169.628906"/>
      <use xlink:href="#ArialMT-30" x="225.244141"/>
     </g>
    </g>
   </g>
   <g id="xtick_8">
    <g id="line2d_11">
     <path d="M 16.746735 48.387653 
L 16.32268 48.893893 
" style="fill: none; stroke: #000000; stroke-width: 0.8; stroke-linecap: square"/>
    </g>
    <g id="text_10">
     <!-- 0 -->
     <g transform="translate(7.262837 52.687294) scale(0.03 -0.03)">
      <use xlink:href="#ArialMT-30"/>
     </g>
    </g>
   </g>
   <g id="xtick_9">
    <g id="line2d_12">
     <path d="M 16.332358 39.318153 
L 15.900938 39.80986 
" style="fill: none; stroke: #000000; stroke-width: 0.8; stroke-linecap: square"/>
    </g>
    <g id="text_11">
     <!-- 4000 -->
     <g transform="translate(4.211102 43.556247) scale(0.03 -0.03)">
      <use xlink:href="#ArialMT-34"/>
      <use xlink:href="#ArialMT-30" x="55.615234"/>
      <use xlink:href="#ArialMT-30" x="111.230469"/>
      <use xlink:href="#ArialMT-30" x="166.845703"/>
     </g>
    </g>
   </g>
   <g id="text_12">
    <!-- $x_3\ (km)$ -->
    <g transform="translate(-0.12703 46.367688) rotate(-272.629999) scale(0.04 -0.04)">
     <defs>
      <path id="STIXGeneral-Regular-33" d="M 390 3264 
L 288 3290 
Q 435 3770 748 4048 
Q 1062 4326 1542 4326 
Q 1990 4326 2265 4083 
Q 2541 3840 2541 3450 
Q 2541 2925 1946 2566 
Q 2298 2413 2477 2227 
Q 2758 1914 2758 1402 
Q 2758 890 2464 506 
Q 2246 211 1840 60 
Q 1434 -90 979 -90 
Q 262 -90 262 275 
Q 262 378 339 442 
Q 416 506 525 506 
Q 685 506 915 339 
Q 1197 141 1466 141 
Q 1818 141 2058 425 
Q 2298 710 2298 1120 
Q 2298 1856 1632 2048 
Q 1434 2112 979 2112 
L 979 2202 
Q 1338 2323 1517 2432 
Q 2035 2726 2035 3290 
Q 2035 3610 1852 3776 
Q 1670 3942 1344 3942 
Q 768 3942 390 3264 
z
" transform="scale(0.015625)"/>
     </defs>
     <use xlink:href="#STIXGeneral-Italic-78" transform="translate(0 0.703125)"/>
     <use xlink:href="#STIXGeneral-Regular-33" transform="translate(44.399994 -12.525) scale(0.7)"/>
     <use xlink:href="#STIXGeneral-Regular-28" transform="translate(107.875778 0.703125)"/>
     <use xlink:href="#STIXGeneral-Italic-6b" transform="translate(141.175766 0.703125)"/>
     <use xlink:href="#STIXGeneral-Italic-6d" transform="translate(185.57576 0.703125)"/>
     <use xlink:href="#STIXGeneral-Regular-29" transform="translate(257.775741 0.703125)"/>
    </g>
   </g>
  </g>
  <g id="axes_1">
   <g id="line2d_13">
    <path d="M 64.036725 50.275941 
L 65.127408 45.657883 
L 64.709118 40.859009 
L 62.845226 36.213294 
L 59.686801 32.031308 
L 55.458395 28.586491 
L 50.444209 26.104569 
L 44.974762 24.754588 
L 39.413157 24.640416 
L 34.139424 25.792315 
L 29.531337 28.159202 
L 25.940657 31.603271 
L 23.664992 35.899564 
L 22.917347 40.743449 
L 23.797499 45.768383 
L 26.270978 50.574632 
L 30.161624 54.766877 
L 35.161946 57.995664 
L 40.861811 59.99566 
L 46.791509 60.613591 
L 52.471639 59.820948 
L 57.460958 57.710235 
L 61.394722 54.477331 
L 64.009347 50.395021 
L 65.152947 45.783383 
L 64.784179 40.981725 
L 62.963228 36.324862 
L 59.838753 32.124601 
L 55.633638 28.655824 
L 50.631065 26.145793 
L 45.161081 24.765131 
L 39.586806 24.619332 
L 34.288768 25.740379 
L 29.645784 28.079036 
L 26.011311 31.49947 
L 23.685429 35.778727 
L 22.884438 40.614019 
L 23.712145 45.640193 
L 26.138556 50.458127 
L 29.99194 54.672051 
L 34.968562 57.930886 
L 40.660766 59.966615 
L 46.599617 60.622571 
L 52.304663 59.866639 
L 57.332003 57.788034 
L 61.3131 54.580069 
L 63.980028 50.513909 
L 65.176568 45.908988 
L 64.857477 41.104812 
L 63.079732 36.437021 
L 59.989551 32.218649 
L 55.808127 28.726023 
L 50.817599 26.187942 
L 45.347529 24.77661 
L 39.761035 24.599149 
L 34.439126 25.68926 
L 29.761636 27.999554 
L 26.083697 31.396167 
L 23.707824 35.658153 
L 22.853577 40.484573 
L 23.62877 45.511685 
L 26.00787 50.341003 
L 29.823582 54.576342 
L 34.775962 57.865033 
L 40.459885 59.936405 
L 46.407258 60.630408 
L 52.136649 59.91132 
L 57.201556 57.865046 
L 61.229681 54.6823 
L 63.948771 50.632596 
L 65.198266 46.034691 
L 64.929005 41.228263 
L 63.194725 36.549763 
L 60.139181 32.313447 
L 55.981845 28.797085 
L 51.003796 26.231017 
L 45.53409 24.789027 
L 39.935829 24.579869 
L 34.590482 25.638962 
L 29.878883 27.920761 
L 26.157805 31.29337 
L 23.73217 35.537851 
L 22.824767 40.355123 
L 23.547383 45.382871 
L 25.878934 50.223271 
L 29.65657 54.479758 
L 34.584167 57.798111 
L 40.259191 59.905029 
L 46.214455 60.637097 
L 51.967616 59.954984 
L 57.069628 57.94126 
L 61.144472 54.784014 
L 63.915577 50.751071 
L 65.218037 46.160481 
L 64.998754 41.352068 
L 63.308197 36.663081 
L 60.287628 32.408991 
L 56.154776 28.869009 
L 51.189639 26.275015 
L 45.720748 24.802382 
L 40.111172 24.561495 
L 34.742823 25.589489 
L 29.997512 27.842664 
L 26.233626 31.191088 
L 23.758462 35.417831 
L 22.798004 40.225679 
L 23.467986 45.253759 
L 25.751759 50.10494 
L 29.490919 54.382308 
L 34.3932 57.730124 
L 40.058707 59.87249 
L 46.02123 60.642639 
L 51.797584 59.997625 
L 56.936235 58.016669 
L 61.057482 54.885201 
L 63.880449 50.869324 
L 65.23588 46.286348 
L 65.066716 41.47622 
L 63.420136 36.77697 
L 60.43488 32.505275 
L 56.326907 28.941788 
L 51.375112 26.319935 
L 45.907486 24.816675 
L 40.287047 24.544027 
L 34.896132 25.540844 
L 30.117507 27.765266 
L 26.311148 31.089325 
L 23.786693 35.2981 
L 22.773288 40.096251 
L 23.390585 45.124362 
L 25.626354 49.98602 
L 29.326647 54.284 
L 34.203081 57.661079 
L 39.858454 59.83879 
L 45.827604 60.64703 
L 51.62657 60.039237 
L 56.801391 58.091265 
L 60.968717 54.985851 
L 63.843389 50.987345 
L 65.251789 46.412282 
L 65.132884 41.60071 
L 63.530531 36.891421 
L 60.580921 32.602294 
L 56.498222 29.015422 
L 51.560199 26.365776 
L 46.094288 24.831906 
L 40.463438 24.527468 
L 35.050395 25.493032 
L 30.238857 27.688575 
L 26.390361 30.988091 
L 23.816857 35.178669 
L 22.750617 39.966849 
L 23.315185 44.994691 
L 25.502732 49.866523 
L 29.163771 54.184844 
L 34.01383 57.590982 
L 39.658457 59.80393 
L 45.6336 60.650267 
L 51.454595 60.079814 
L 56.665109 58.165037 
L 60.878186 55.085954 
L 63.804396 51.105123 
L 65.265761 46.538274 
L 65.197248 41.72553 
L 63.63937 37.00643 
L 60.72574 32.700045 
L 56.668705 29.089908 
L 51.744886 26.412537 
L 46.281139 24.848077 
L 40.640331 24.511821 
L 35.205598 25.446056 
L 30.361549 27.612595 
L 26.471257 30.887392 
L 23.848948 35.059546 
L 22.729991 39.837483 
L 23.24179 44.864755 
L 25.380903 49.746459 
L 29.002306 54.084846 
L 33.825469 57.519837 
L 39.458738 59.767913 
L 45.43924 60.65235 
L 51.281676 60.119352 
L 56.527403 58.237978 
L 60.785898 55.185499 
L 63.763475 51.222646 
L 65.277792 46.664313 
L 65.259801 41.85067 
L 63.74664 37.121988 
L 60.869319 32.798523 
L 56.83834 29.165242 
L 51.929153 26.460217 
L 46.46802 24.865188 
L 40.817708 24.497088 
L 35.361726 25.399921 
L 30.485571 27.537334 
L 26.553824 30.787238 
L 23.88296 34.940741 
L 22.71141 39.708165 
L 23.170408 44.734567 
L 25.260881 49.625837 
L 28.842272 53.984016 
L 33.63802 57.447649 
L 39.259321 59.730738 
L 45.244547 60.653273 
L 51.107834 60.157841 
L 56.388288 58.310077 
L 60.69186 55.284476 
L 63.720629 51.339905 
L 65.287881 46.790389 
L 65.320536 41.976122 
L 63.852334 37.238088 
L 61.01165 32.89772 
L 57.007114 29.24142 
L 52.112987 26.508812 
L 46.654917 24.883237 
L 40.995555 24.483269 
L 35.518762 25.354628 
L 30.610906 27.462794 
L 26.63805 30.687632 
L 23.918884 34.822262 
L 22.694868 39.578904 
L 23.101037 44.604136 
L 25.142671 49.504668 
L 28.68368 53.882364 
L 33.451501 57.374426 
L 39.060227 59.692411 
L 45.049542 60.653039 
L 50.933088 60.195279 
L 56.24778 58.38133 
L 60.596083 55.382875 
L 63.675859 51.456889 
L 65.296025 46.916494 
L 65.379446 42.101878 
L 63.956438 37.354724 
L 61.152715 32.997633 
L 57.17501 29.31844 
L 52.296371 26.558322 
L 46.841813 24.902226 
L 41.173853 24.470367 
L 35.676691 25.310182 
L 30.737542 27.388982 
L 26.723925 30.588583 
L 23.956714 34.704118 
L 22.680364 39.44971 
L 23.033684 44.473474 
L 25.026285 49.382964 
L 28.526549 53.779897 
L 33.265933 57.300175 
L 38.861479 59.652933 
L 44.854249 60.651645 
L 50.757458 60.231662 
L 56.105893 58.451726 
L 60.498575 55.480687 
L 63.62917 51.573588 
L 65.30222 47.042615 
L 65.436522 42.227928 
L 64.058941 37.471888 
L 61.292503 33.098256 
L 57.342014 29.396297 
L 52.479289 26.608746 
L 47.028692 24.922154 
L 41.352589 24.458383 
L 35.8355 25.266586 
L 30.865466 27.315902 
L 26.811438 30.490099 
L 23.996443 34.586317 
L 22.667897 39.320593 
L 22.968353 44.342591 
L 24.911734 49.260733 
L 28.370895 53.676625 
L 33.081337 57.2249 
L 38.6631 59.612307 
L 44.65869 60.649088 
L 50.580964 60.266981 
L 55.962641 58.521258 
L 60.399346 55.5779 
L 63.580564 51.68999 
L 65.306464 47.168744 
L 65.491758 42.354263 
L 64.159835 37.589574 
L 61.430999 33.199583 
L 57.508111 29.474989 
L 52.661725 26.660082 
L 47.215537 24.943022 
L 41.531745 24.447319 
L 35.995171 25.223844 
L 30.994665 27.243561 
L 26.900578 30.392185 
L 24.038063 34.468869 
L 22.657465 39.191564 
L 22.905046 44.211499 
L 24.799027 49.137988 
L 28.216731 53.572558 
L 32.897732 57.148608 
L 38.465113 59.570535 
L 44.462886 60.645368 
L 50.403624 60.301233 
L 55.818041 58.589917 
L 60.298405 55.674507 
L 63.530045 51.806087 
L 65.308756 47.29487 
L 65.545148 42.480876 
L 64.259106 37.707773 
L 61.568191 33.301611 
L 57.673285 29.554512 
L 52.843663 26.712327 
L 47.402332 24.964829 
L 41.711305 24.437177 
L 36.155692 25.181958 
L 31.125124 27.171962 
L 26.991335 30.294849 
L 24.081569 34.351782 
L 22.649064 39.062632 
L 22.843767 44.080207 
L 24.688174 49.014737 
L 28.064076 53.467702 
L 32.715139 57.071305 
L 38.26754 59.527618 
L 44.266862 60.640482 
L 50.22546 60.334412 
L 55.672108 58.657693 
L 60.19576 55.770494 
L 63.477614 51.921865 
L 65.309091 47.420983 
L 65.596681 42.607756 
L 64.356744 37.82648 
L 61.704065 33.404333 
L 57.837522 29.634863 
L 53.025088 26.765482 
L 47.589061 24.987576 
L 41.891255 24.427959 
L 36.317045 25.140934 
L 31.256831 27.101112 
L 27.083697 30.198099 
L 24.12695 34.235065 
L 22.642693 38.933808 
L 22.78452 43.948727 
L 24.579184 48.890993 
L 27.912944 53.362068 
L 32.533578 56.992997 
L 38.070404 59.483562 
L 44.070638 60.63443 
L 50.046492 60.366513 
L 55.524856 58.724581 
L 60.091423 55.865853 
L 63.423278 52.037314 
L 65.307469 47.547072 
L 65.646354 42.734895 
L 64.452739 37.945685 
L 61.838607 33.507744 
L 58.000806 29.716039 
L 53.205982 26.819543 
L 47.775707 25.011264 
L 42.071576 24.419667 
L 36.479216 25.100774 
L 31.389771 27.031017 
L 27.177654 30.101941 
L 24.174202 34.118726 
L 22.638348 38.805102 
L 22.727307 43.81707 
L 24.472067 48.766764 
L 27.763348 53.255665 
L 32.353068 56.913692 
L 37.873727 59.438368 
L 43.874239 60.627211 
L 49.866739 60.397532 
L 55.376303 58.790572 
L 59.985404 55.960575 
L 63.367039 52.152426 
L 65.303888 47.673128 
L 65.694159 42.862284 
L 64.547081 38.065383 
L 61.971805 33.611838 
L 58.163123 29.798034 
L 53.38633 26.874509 
L 47.962254 25.03589 
L 42.252254 24.412301 
L 36.642189 25.061479 
L 31.523929 26.961678 
L 27.273191 30.00638 
L 24.223314 34.002774 
L 22.636025 38.676523 
L 22.672131 43.685246 
L 24.366829 48.642063 
L 27.615305 53.148503 
L 32.17363 56.833396 
L 37.677531 59.39204 
L 43.677686 60.618825 
L 49.686223 60.427463 
L 55.226464 58.855657 
L 59.877712 56.05465 
L 63.308903 52.267188 
L 65.298347 47.799139 
L 65.740089 42.989913 
L 64.639759 38.185565 
L 62.103645 33.71661 
L 58.324456 29.880846 
L 53.566117 26.930378 
L 48.148686 25.061457 
L 42.433272 24.405864 
L 36.80595 25.023056 
L 31.659294 26.893104 
L 27.370301 29.911426 
L 24.274281 33.887218 
L 22.635723 38.548082 
L 22.618994 43.553266 
L 24.263482 48.516899 
L 27.468829 53.04059 
L 31.995282 56.752116 
L 37.48184 59.34458 
L 43.481003 60.609268 
L 49.504963 60.456301 
L 55.075355 58.91983 
L 59.768358 56.148066 
L 63.248872 52.38159 
L 65.290842 47.925097 
L 65.784138 43.117773 
L 64.730761 38.306225 
L 62.234114 33.822054 
L 58.484793 29.964472 
L 53.745325 26.987149 
L 48.334986 25.087962 
L 42.614613 24.400356 
L 36.970482 24.985506 
L 31.795851 26.825298 
L 27.46897 29.817083 
L 24.327092 33.772065 
L 22.637437 38.419788 
L 22.567897 43.421141 
L 24.162032 48.391284 
L 27.323934 52.931935 
L 31.818044 56.669858 
L 37.286674 59.295993 
L 43.284211 60.598543 
L 49.32298 60.484044 
L 54.922993 58.983082 
L 59.657354 56.240816 
L 63.186953 52.495622 
L 65.281376 48.050991 
L 65.826302 43.245856 
L 64.820081 38.427354 
L 62.363201 33.928164 
L 58.644119 30.048905 
L 53.923942 27.044816 
L 48.521139 25.115405 
L 42.796263 24.395778 
L 37.135769 24.94883 
L 31.933583 26.758263 
L 27.569184 29.723358 
L 24.381738 33.657323 
L 22.641161 38.29165 
L 22.518842 43.288881 
L 24.062487 48.265228 
L 27.180633 52.822551 
L 31.641934 56.58663 
L 37.092057 59.246283 
L 43.087334 60.586649 
L 49.140296 60.510686 
L 54.769395 59.045407 
L 59.544711 56.332889 
L 63.123151 52.609273 
L 65.269946 48.176809 
L 65.866573 43.374152 
L 64.907707 38.548944 
L 62.490892 34.034934 
L 58.802417 30.134144 
L 54.101948 27.103381 
L 48.707127 25.143786 
L 42.978204 24.392132 
L 37.301797 24.913033 
L 32.072479 26.692006 
L 27.670935 29.630258 
L 24.438213 33.543002 
L 22.646894 38.16368 
L 22.471831 43.156498 
L 23.964854 48.138742 
L 27.038941 52.712444 
L 31.466971 56.502441 
L 36.898009 59.195453 
L 42.890395 60.573585 
L 48.956931 60.536224 
L 54.614578 59.106797 
L 59.430439 56.424276 
L 63.05747 52.722532 
L 65.256552 48.302542 
L 65.904947 43.502651 
L 64.99363 38.670988 
L 62.617174 34.142358 
L 58.959675 30.220183 
L 54.27933 27.162839 
L 48.892935 25.173104 
L 43.160419 24.389418 
L 37.468549 24.878118 
L 32.212523 26.62653 
L 27.774209 29.537789 
L 24.496507 33.429109 
L 22.654631 38.035886 
L 22.426867 43.024002 
L 23.869145 48.011836 
L 26.898873 52.601625 
L 31.293175 56.417294 
L 36.704554 59.143506 
L 42.693416 60.55935 
L 48.772905 60.560653 
L 54.458557 59.167244 
L 59.31455 56.514966 
L 62.989915 52.835389 
L 65.241193 48.42818 
L 65.941415 43.631345 
L 65.077839 38.793479 
L 62.742034 34.250431 
L 59.115877 30.307019 
L 54.456071 27.22319 
L 49.078547 25.203359 
L 43.342895 24.38764 
L 37.636011 24.844088 
L 32.353703 26.561841 
L 27.878994 29.445958 
L 24.556611 33.315652 
L 22.664368 37.908278 
L 22.383949 42.891403 
L 23.775361 47.884522 
L 26.760438 52.490104 
L 31.120563 56.3312 
L 36.511712 59.090447 
L 42.49642 60.543947 
L 48.58824 60.58397 
L 54.30135 59.226743 
L 59.197056 56.604953 
L 62.920494 52.947834 
L 65.223869 48.553713 
L 65.975975 43.760223 
L 65.160326 38.916407 
L 62.865461 34.359146 
L 59.27101 30.394648 
L 54.632156 27.28443 
L 49.263946 25.23455 
L 43.525612 24.386795 
L 37.804167 24.810944 
L 32.496002 26.497943 
L 27.985278 29.354769 
L 24.618517 33.20264 
L 22.676098 37.780866 
L 22.343077 42.758712 
L 23.683512 47.75681 
L 26.623653 52.37789 
L 30.949154 56.244165 
L 36.319507 59.036281 
L 42.299429 60.527374 
L 48.402958 60.60617 
L 54.142976 59.285284 
L 59.077969 56.694224 
L 62.849211 53.059857 
L 65.20458 48.679129 
L 66.008621 43.889277 
L 65.241081 39.039766 
L 62.987443 34.468497 
L 59.425058 30.483064 
L 54.807569 27.346556 
L 49.449116 25.266675 
L 43.708557 24.386886 
L 37.973 24.778689 
L 32.639406 26.434839 
L 28.093048 29.264231 
L 24.682214 33.09008 
L 22.689819 37.653659 
L 22.304254 42.62594 
L 23.593606 47.628711 
L 26.488531 52.264993 
L 30.778967 56.156197 
L 36.127958 58.981011 
L 42.102467 60.509631 
L 48.217078 60.627251 
L 53.98345 59.342862 
L 58.957301 56.782771 
L 62.776072 53.171445 
L 65.183325 48.804418 
L 66.039347 44.018496 
L 65.320094 39.163548 
L 63.107965 34.578478 
L 59.578006 30.572265 
L 54.982294 27.409568 
L 49.63404 25.299736 
L 43.891712 24.387914 
L 38.142495 24.747326 
L 32.783902 26.372534 
L 28.202292 29.174348 
L 24.747695 32.97798 
L 22.705525 37.526667 
L 22.267481 42.493098 
L 23.505649 47.500235 
L 26.355083 52.151423 
L 30.610019 56.067303 
L 35.937089 58.92464 
L 41.905556 60.490719 
L 48.030623 60.647206 
L 53.82279 59.399467 
L 58.835063 56.870585 
L 62.701083 53.282589 
L 65.160104 48.929569 
L 66.068147 44.147872 
L 65.397356 39.287744 
L 63.227016 34.689084 
L 59.729841 30.662246 
L 55.156315 27.473462 
L 49.818703 25.333731 
L 44.07506 24.389881 
L 38.312636 24.716859 
L 32.929475 26.311034 
L 28.313 29.085129 
L 24.81495 32.866349 
L 22.723212 37.399899 
L 22.232756 42.360196 
L 23.419646 47.371394 
L 26.223322 52.03719 
L 30.442328 55.977492 
L 35.746921 58.867176 
L 41.708719 60.47064 
L 47.843615 60.666036 
L 53.661016 59.455097 
L 58.711269 56.957656 
L 62.624252 53.393279 
L 65.134921 49.054573 
L 66.09502 44.277394 
L 65.472859 39.412346 
L 63.344585 34.800306 
L 59.880549 30.753001 
L 55.329618 27.538234 
L 50.003088 25.368658 
L 44.258587 24.392784 
L 38.483408 24.687288 
L 33.076109 26.250341 
L 28.425155 28.996576 
L 24.883968 32.755193 
L 22.742873 37.273365 
L 22.200079 42.227244 
L 23.335603 47.242198 
L 26.09326 51.922304 
L 30.275912 55.886771 
L 35.557473 58.808621 
L 41.511978 60.449393 
L 47.656074 60.683737 
L 53.498143 59.509742 
L 58.585932 57.043976 
L 62.545584 53.503505 
L 65.107773 49.179419 
L 66.119959 44.407054 
L 65.546594 39.537346 
L 63.460659 34.91214 
L 60.030115 30.844527 
L 55.502187 27.603884 
L 50.187179 25.404517 
L 44.442274 24.396627 
L 38.654795 24.658616 
L 33.223791 26.190459 
L 28.538747 28.908697 
L 24.954741 32.644521 
L 22.764503 37.147074 
L 22.169451 42.094252 
L 23.253527 47.112659 
L 25.96491 51.806775 
L 30.110788 55.795148 
L 35.36877 58.748981 
L 41.315357 60.426979 
L 47.468022 60.700303 
L 53.334192 59.563396 
L 58.459064 57.129534 
L 62.465088 53.613255 
L 65.078663 49.304096 
L 66.142959 44.536841 
L 65.618552 39.662736 
L 63.575226 35.024579 
L 60.178524 30.936819 
L 55.674005 27.670407 
L 50.37096 25.441307 
L 44.626107 24.40141 
L 38.826781 24.630847 
L 33.372505 26.131394 
L 28.653763 28.821499 
L 25.027259 32.534341 
L 22.788097 37.021036 
L 22.140872 41.961233 
L 23.173425 46.982786 
L 25.838284 51.690613 
L 29.946974 55.702631 
L 35.18083 58.68826 
L 41.118878 60.403399 
L 47.279481 60.715733 
L 53.169178 59.616053 
L 58.330678 57.214323 
L 62.382768 53.722518 
L 65.047591 49.428593 
L 66.164015 44.666745 
L 65.688723 39.788507 
L 63.688273 35.137616 
L 60.325763 31.029874 
L 55.845058 27.737802 
L 50.554414 25.479027 
L 44.810069 24.407133 
L 38.999349 24.603982 
L 33.522238 26.07315 
L 28.77019 28.734987 
L 25.101512 32.424661 
L 22.81365 36.895259 
L 22.114342 41.828196 
L 23.095301 46.852591 
L 25.713393 51.573828 
L 29.784488 55.609228 
L 34.993677 58.626464 
L 40.922565 60.378655 
L 47.090473 60.730024 
L 53.003123 59.667705 
L 58.200787 57.298331 
L 62.298634 53.831286 
L 65.014558 49.5529 
L 66.183125 44.796757 
L 65.757099 39.914652 
L 63.799789 35.251244 
L 60.471817 31.123684 
L 56.015329 27.806064 
L 50.737525 25.517676 
L 44.994142 24.413797 
L 39.172485 24.578023 
L 33.672973 26.015729 
L 28.888015 28.649166 
L 25.17749 32.315487 
L 22.841155 36.769754 
L 22.089859 41.695151 
L 23.019161 46.722086 
L 25.590249 51.45643 
L 29.623346 55.514947 
L 34.807331 58.563597 
L 40.726439 60.352748 
L 46.901019 60.743172 
L 52.836043 59.718346 
L 58.069406 57.381552 
L 62.212692 53.939547 
L 64.979567 49.677006 
L 66.200284 44.926866 
L 65.823673 40.041161 
L 63.909763 35.365457 
L 60.616672 31.218247 
L 56.184803 27.875193 
L 50.920278 25.557252 
L 45.178312 24.421403 
L 39.346172 24.552972 
L 33.824696 25.959136 
L 29.007226 28.564042 
L 25.255183 32.206827 
L 22.870606 36.644529 
L 22.067423 41.562109 
L 22.945008 46.591279 
L 25.468863 51.338429 
L 29.463564 55.419797 
L 34.621811 58.499665 
L 40.530523 60.325678 
L 46.711142 60.755176 
L 52.667957 59.767972 
L 57.936548 57.463976 
L 62.12495 54.04729 
L 64.942618 49.800901 
L 66.215489 45.057064 
L 65.888435 40.168026 
L 64.018182 35.480249 
L 60.760315 31.313557 
L 56.353466 27.945184 
L 51.102655 25.597755 
L 45.362562 24.429951 
L 39.520394 24.528832 
L 33.977393 25.903375 
L 29.127807 28.479621 
L 25.33458 32.098688 
L 22.901996 36.519593 
L 22.047031 41.42908 
L 22.872848 46.460183 
L 25.349245 51.219837 
L 29.305159 55.323787 
L 34.437139 58.434673 
L 40.33484 60.297449 
L 46.520862 60.766033 
L 52.498885 59.816575 
L 57.802226 57.545594 
L 62.035417 54.154508 
L 64.903714 49.924574 
L 66.228736 45.187339 
L 65.951379 40.29524 
L 64.125036 35.595612 
L 60.902732 31.409609 
L 56.521301 28.016034 
L 51.284641 25.639183 
L 45.546875 24.439441 
L 39.695136 24.505605 
L 34.131048 25.848449 
L 29.249749 28.395909 
L 25.415672 31.99108 
L 22.935321 36.394955 
L 22.028683 41.296075 
L 22.802688 46.328808 
L 25.231408 51.100661 
L 29.148149 55.226923 
L 34.253337 58.368626 
L 40.139413 60.26806 
L 46.330203 60.77574 
L 52.328844 59.864149 
L 57.666455 57.626397 
L 61.9441 54.261186 
L 64.862856 50.048014 
L 66.24002 45.317683 
L 66.012493 40.422792 
L 64.230311 35.71154 
L 61.043908 31.506399 
L 56.688293 28.087741 
L 51.46622 25.681535 
L 45.731235 24.449875 
L 39.87038 24.483293 
L 34.285647 25.794364 
L 29.373036 28.312911 
L 25.498448 31.884008 
L 22.970572 36.270625 
L 22.012379 41.163104 
L 22.734529 46.197166 
L 25.115362 50.980914 
L 28.99255 55.129215 
L 34.070425 58.30153 
L 39.944264 60.237513 
L 46.139187 60.784294 
L 52.157855 59.910687 
L 57.529249 57.706376 
L 61.851008 54.367317 
L 64.820047 50.171211 
L 66.249339 45.448084 
L 66.071773 40.550675 
L 64.333998 35.828026 
L 61.18383 31.603922 
L 56.854426 28.160301 
L 51.647374 25.724809 
L 45.915625 24.46125 
L 40.046112 24.461898 
L 34.441174 25.74112 
L 29.497655 28.230632 
L 25.582897 31.777479 
L 23.007743 36.146612 
L 21.998114 41.030177 
L 22.668377 46.065266 
L 25.001115 50.860606 
L 28.838375 55.030673 
L 33.888421 58.233392 
L 39.749416 60.205814 
L 45.947835 60.791696 
L 51.985938 59.956187 
L 57.390623 57.785525 
L 61.75615 54.47289 
L 64.775291 50.294155 
L 66.256692 45.578534 
L 66.129211 40.678879 
L 64.436086 35.945062 
L 61.322485 31.702171 
L 57.019687 28.233711 
L 51.82809 25.769003 
L 46.10003 24.473569 
L 40.222315 24.44142 
L 34.597613 25.688723 
L 29.623592 28.149078 
L 25.669007 31.671501 
L 23.046827 36.022923 
L 21.985888 40.897304 
L 22.604233 45.93312 
L 24.888678 50.739747 
L 28.685643 54.931305 
L 33.707347 58.164217 
L 39.554891 60.172961 
L 45.756171 60.797942 
L 51.81311 60.00064 
L 57.250592 57.863833 
L 61.659535 54.577895 
L 64.72859 50.416834 
L 66.262074 45.709022 
L 66.184799 40.807397 
L 64.536563 36.062642 
L 61.459858 31.801143 
L 57.184059 28.307967 
L 52.00835 25.814117 
L 46.284433 24.486831 
L 40.398974 24.421863 
L 34.754951 25.637176 
L 29.750835 28.068254 
L 25.75677 31.566081 
L 23.087817 35.899569 
L 21.975697 40.764496 
L 22.542104 45.800739 
L 24.778063 50.618347 
L 28.534368 54.831118 
L 33.527223 58.09401 
L 39.360711 60.138958 
L 45.564215 60.803031 
L 51.639392 60.044042 
L 57.10917 57.941292 
L 61.561171 54.682321 
L 64.679946 50.539238 
L 66.265483 45.839537 
L 66.238528 40.936218 
L 64.635417 36.18076 
L 61.595935 31.900831 
L 57.347527 28.383066 
L 52.188137 25.860149 
L 46.468817 24.501036 
L 40.576071 24.403228 
L 34.913172 25.586483 
L 29.87937 27.988165 
L 25.846173 31.461227 
L 23.130706 35.776558 
L 21.967542 40.631763 
L 22.481993 45.668133 
L 24.669277 50.496417 
L 28.384567 54.730122 
L 33.34807 58.022777 
L 39.1669 60.103805 
L 45.37199 60.806958 
L 51.464803 60.086385 
L 56.966371 58.017892 
L 61.461066 54.786157 
L 64.629361 50.661354 
L 66.266914 45.97007 
L 66.290392 41.065335 
L 64.732638 36.299406 
L 61.730704 32.001232 
L 57.510075 28.459006 
L 52.367436 25.907097 
L 46.653166 24.516185 
L 40.753591 24.385518 
L 35.07226 25.536647 
L 30.009184 27.908818 
L 25.937206 31.356946 
L 23.175487 35.653899 
L 21.961419 40.499115 
L 22.423902 45.535313 
L 24.562332 50.373968 
L 28.236255 54.628326 
L 33.169906 57.950526 
L 38.973479 60.067508 
L 45.17952 60.809727 
L 51.289364 60.127669 
L 56.822214 58.093629 
L 61.359235 54.889397 
L 64.576843 50.783176 
L 66.26637 46.100611 
L 66.340385 41.194739 
L 64.828216 36.418574 
L 61.864152 32.102338 
L 57.671691 28.535781 
L 52.546232 25.954957 
L 46.837465 24.532276 
L 40.931518 24.368731 
L 35.232199 25.48767 
L 30.140261 27.830214 
L 26.029857 31.253242 
L 23.222151 35.5316 
L 21.957323 40.366562 
L 22.367834 45.402291 
L 24.457234 50.251009 
L 28.089445 54.52574 
L 32.992752 57.877262 
L 38.780471 60.030068 
L 44.986825 60.811333 
L 51.113094 60.167883 
L 56.676711 58.168491 
L 61.255682 54.992026 
L 64.522391 50.90469 
L 66.263844 46.231148 
L 66.388499 41.324419 
L 64.92214 36.538258 
L 61.996265 32.204145 
L 57.832356 28.613388 
L 52.724508 26.003731 
L 47.021696 24.549311 
L 41.109836 24.352871 
L 35.392976 25.439556 
L 30.272588 27.752362 
L 26.124113 31.150124 
L 23.270689 35.409669 
L 21.955251 40.234113 
L 22.31379 45.269076 
L 24.353992 50.127553 
L 27.944151 54.422373 
L 32.816625 57.802994 
L 38.587896 59.99149 
L 44.793929 60.811779 
L 50.936014 60.207028 
L 56.52988 58.242474 
L 61.150421 55.094039 
L 64.466014 51.025887 
L 66.259339 46.361674 
L 66.434729 41.454369 
L 65.0144 36.658449 
L 62.12703 32.306646 
L 57.992059 28.691824 
L 52.902249 26.053414 
L 47.205843 24.567287 
L 41.288527 24.337939 
L 35.554574 25.392309 
L 30.406152 27.675265 
L 26.219966 31.047599 
L 23.321097 35.288117 
L 21.955202 40.10178 
L 22.261775 45.13568 
L 24.252617 50.003609 
L 27.800391 54.318233 
L 32.641547 57.727726 
L 38.395779 59.951774 
L 44.600853 60.811059 
L 50.758143 60.245095 
L 56.381736 58.315567 
L 61.043461 55.195423 
L 64.407712 51.146755 
L 66.25285 46.492176 
L 66.479067 41.584577 
L 65.104986 36.77914 
L 62.256434 32.409837 
L 58.150783 28.771085 
L 53.079438 26.104006 
L 47.38989 24.586206 
L 41.467577 24.323935 
L 35.716977 25.34593 
L 30.540938 27.598927 
L 26.317401 30.945673 
L 23.373363 35.166949 
L 21.957171 39.969571 
L 22.21179 45.002114 
L 24.153115 49.879187 
L 27.658176 54.21333 
L 32.467536 57.651465 
L 38.204141 59.910924 
L 44.407622 60.809174 
L 50.579502 60.28208 
L 56.232295 58.387762 
L 60.934811 55.296168 
L 64.34749 51.267284 
L 66.244375 46.622643 
L 66.521504 41.715035 
L 65.193883 36.900324 
L 62.384462 32.513713 
L 58.308511 28.851168 
L 53.256058 26.155505 
L 47.57382 24.606068 
L 41.646969 24.310865 
L 35.880171 25.300425 
L 30.676934 27.523356 
L 26.41641 30.844354 
L 23.427483 35.046178 
L 21.961157 39.837498 
L 22.163839 44.868388 
L 24.055499 49.754299 
L 27.517526 54.107672 
L 32.294613 57.574216 
L 38.013005 59.868942 
L 44.214256 60.806121 
L 50.400112 60.317976 
L 56.081572 58.45905 
L 60.824482 55.396264 
L 64.285352 51.387462 
L 66.233913 46.753067 
L 66.562036 41.845734 
L 65.281086 37.021992 
L 62.511102 32.618267 
L 58.465231 28.932069 
L 53.432094 26.207908 
L 47.757617 24.626872 
L 41.826687 24.298726 
L 36.04414 25.255796 
L 30.814123 27.448555 
L 26.516979 30.743648 
L 23.483445 34.925809 
L 21.967154 39.705569 
L 22.117922 44.734513 
L 23.959771 49.628955 
L 27.378448 54.001271 
L 32.122794 57.49599 
L 37.822391 59.825835 
L 44.020779 60.801905 
L 50.219992 60.352783 
L 55.929586 58.529427 
L 60.712487 55.495703 
L 64.221305 51.507281 
L 66.221466 46.883437 
L 66.600659 41.976665 
L 65.366584 37.144138 
L 62.636343 32.723493 
L 58.620928 29.013782 
L 53.607531 26.261213 
L 47.941265 24.648616 
L 42.006715 24.287519 
L 36.208868 25.212044 
L 30.952493 27.374527 
L 26.619095 30.64356 
L 23.541241 34.80585 
L 21.975158 39.573795 
L 22.07404 44.600499 
L 23.865941 49.503166 
L 27.24096 53.894134 
L 31.9521 57.416791 
L 37.632323 59.781603 
L 43.827213 60.79652 
L 50.039165 60.386494 
L 55.776352 58.598883 
L 60.598835 55.594473 
L 64.155352 51.626728 
L 66.20703 47.013742 
L 66.637365 42.107818 
L 65.450365 37.266754 
L 62.760169 32.829385 
L 58.775586 29.096305 
L 53.782353 26.315417 
L 48.124747 24.671301 
L 42.187035 24.277248 
L 36.37434 25.169174 
L 31.092029 27.30128 
L 26.722749 30.544099 
L 23.600865 34.686312 
L 21.985166 39.442185 
L 22.032196 44.466359 
L 23.774018 49.376942 
L 27.105074 53.786272 
L 31.782548 57.336628 
L 37.442821 59.736252 
L 43.633581 60.789969 
L 49.85765 60.419105 
L 55.621888 58.667411 
L 60.483539 55.692567 
L 64.0875 51.745794 
L 66.190607 47.143972 
L 66.672149 42.239184 
L 65.532422 37.389831 
L 62.88257 32.935938 
L 58.929191 29.179633 
L 53.956543 26.370519 
L 48.308047 24.694926 
L 42.367632 24.267911 
L 36.540539 25.127187 
L 31.232716 27.228816 
L 26.827926 30.445268 
L 23.662304 34.5672 
L 21.99717 39.310749 
L 21.992389 44.332101 
L 23.684006 49.250296 
L 26.970802 53.677695 
L 31.614156 57.255508 
L 37.253907 59.689786 
L 43.439904 60.782251 
L 49.675468 60.450614 
L 55.46621 58.735004 
L 60.366609 55.789974 
L 64.017754 51.864468 
L 66.172195 47.274117 
L 66.705004 42.370753 
L 65.612744 37.513362 
L 63.003533 33.043145 
L 59.081728 29.263763 
L 54.130086 26.426517 
L 48.491149 24.719492 
L 42.54849 24.259512 
L 36.707452 25.086088 
L 31.374541 27.157141 
L 26.934617 30.347078 
L 23.725554 34.448526 
L 22.011173 39.179498 
L 21.954625 44.197738 
L 23.595917 49.123235 
L 26.838161 53.56841 
L 31.446946 57.173434 
L 37.065604 59.642205 
L 43.246207 60.773363 
L 49.49264 60.481012 
L 55.309333 58.801652 
L 60.248056 55.886681 
L 63.946117 51.982738 
L 66.15179 47.404164 
L 66.735924 42.502516 
L 65.691319 37.63734 
L 63.123042 33.151002 
L 59.233183 29.34869 
L 54.302966 26.483408 
L 48.674036 24.744996 
L 42.729592 24.252051 
L 36.875061 25.045878 
L 31.517489 27.086258 
L 27.042806 30.249531 
L 23.790602 34.330294 
L 22.027163 39.04844 
L 21.918897 44.063278 
L 23.509752 48.995773 
L 26.70716 53.45843 
L 31.280931 57.090419 
L 36.877932 59.593517 
L 43.052511 60.763309 
L 49.309188 60.5103 
L 55.151278 58.867352 
L 60.127895 55.982685 
L 63.872598 52.100595 
L 66.129398 47.534106 
L 66.764907 42.634464 
L 65.768142 37.761756 
L 63.241089 33.259501 
L 59.383542 29.43441 
L 54.475167 26.541189 
L 48.856692 24.771438 
L 42.910923 24.245527 
L 37.04335 25.00656 
L 31.661546 27.016172 
L 27.152484 30.152636 
L 23.857441 34.212515 
L 22.045139 38.917585 
L 21.885213 43.928734 
L 23.425523 48.867919 
L 26.577815 53.347763 
L 31.116133 57.006468 
L 36.690914 59.543724 
L 42.85884 60.752086 
L 49.125133 60.538471 
L 54.992061 58.932093 
L 60.006135 56.077971 
L 63.797201 52.218026 
L 66.105016 47.66393 
L 66.791944 42.766587 
L 65.843199 37.886602 
L 63.357658 33.368636 
L 59.532787 29.520919 
L 54.646673 26.599859 
L 49.0391 24.798819 
L 43.092465 24.239945 
L 37.212306 24.968138 
L 31.806697 26.946889 
L 27.263637 30.056398 
L 23.926062 34.095196 
L 22.065096 38.786942 
L 21.853569 43.794116 
L 23.343233 48.739684 
L 26.450136 53.236418 
L 30.952568 56.921589 
L 36.50457 59.492831 
L 42.665215 60.739697 
L 48.940496 60.565522 
L 54.8317 58.995869 
L 59.88279 56.172532 
L 63.719935 52.335024 
L 66.078645 47.793627 
L 66.817033 42.898875 
L 65.916485 38.01187 
L 63.47274 33.4784 
L 59.680908 29.608212 
L 54.817469 26.659413 
L 49.221245 24.827135 
L 43.274202 24.2353 
L 37.381909 24.930612 
L 31.952926 26.87841 
L 27.376253 29.960823 
L 23.996453 33.978345 
L 22.087026 38.656522 
L 21.823965 43.659434 
L 23.262889 48.61108 
L 26.324136 53.124407 
L 30.790254 56.835789 
L 36.318921 59.440843 
L 42.471659 60.726141 
L 48.755298 60.591452 
L 54.670212 59.058675 
L 59.757872 56.266359 
L 63.640805 52.451577 
L 66.050286 47.923185 
L 66.840168 43.031318 
L 65.987989 38.137552 
L 63.58632 33.588789 
L 59.827889 29.696284 
L 54.98754 26.719851 
L 49.403111 24.856387 
L 43.456118 24.231598 
L 37.552147 24.893985 
L 32.100221 26.810742 
L 27.490317 29.865916 
L 24.068605 33.861969 
L 22.110924 38.526333 
L 21.796402 43.524699 
L 23.184496 48.482118 
L 26.199826 53.011739 
L 30.629207 56.749078 
L 36.133989 59.387765 
L 42.278195 60.71142 
L 48.56956 60.616255 
L 54.507615 59.120503 
L 59.631395 56.359441 
L 63.559816 52.567673 
L 66.019938 48.052594 
L 66.861344 43.163908 
L 66.057701 38.263641 
L 63.698386 33.699795 
L 59.973714 29.785132 
L 55.156868 26.781169 
L 49.584679 24.886575 
L 43.638198 24.228838 
L 37.723003 24.858262 
L 32.248566 26.743888 
L 27.605821 29.771686 
L 24.142511 33.746077 
L 22.136789 38.396386 
L 21.770881 43.389921 
L 23.108059 48.352807 
L 26.077219 52.898424 
L 30.469445 56.661462 
L 35.949795 59.333601 
L 42.084845 60.695535 
L 48.383305 60.63993 
L 54.343929 59.181347 
L 59.503372 56.451772 
L 63.47698 52.683304 
L 65.987607 48.181845 
L 66.880561 43.296634 
L 66.125617 38.390125 
L 63.808931 33.81141 
L 60.118373 29.874749 
L 55.325441 26.843361 
L 49.765936 24.917692 
L 43.820423 24.227017 
L 37.894459 24.823439 
L 32.397944 26.67785 
L 27.722746 29.678134 
L 24.218156 33.630674 
L 22.164607 38.266688 
L 21.747396 43.255112 
L 23.033587 48.223158 
L 25.956327 52.784472 
L 30.310987 56.572949 
L 35.766359 59.278354 
L 41.891632 60.678484 
L 48.196554 60.662471 
L 54.17917 59.241198 
L 59.373814 56.543339 
L 63.392299 52.798458 
L 65.953288 48.310925 
L 66.897808 43.429486 
L 66.191723 38.517 
L 63.917936 33.923631 
L 60.261848 29.965133 
L 55.49324 26.90643 
L 49.946864 24.949744 
L 44.002779 24.22614 
L 38.066503 24.789525 
L 32.548345 26.612635 
L 27.841084 29.585271 
L 24.295536 33.515771 
L 22.19438 38.13725 
L 21.725953 43.12028 
L 22.961082 48.093183 
L 25.83716 52.669892 
L 30.153847 56.483547 
L 35.583703 59.222032 
L 41.698578 60.660271 
L 48.009327 60.683877 
L 54.013357 59.300052 
L 59.242736 56.634136 
L 63.305782 52.913124 
L 65.916986 48.439825 
L 66.913085 43.562455 
L 66.256012 38.644256 
L 64.025393 34.03645 
L 60.404125 30.056278 
L 55.660252 26.97037 
L 50.127448 24.982727 
L 44.185248 24.226207 
L 38.239116 24.756519 
L 32.69975 26.548245 
L 27.960821 29.4931 
L 24.374637 33.401374 
L 22.226098 38.008081 
L 21.706547 42.985437 
L 22.89055 47.962892 
L 25.719728 52.554696 
L 29.998041 56.393265 
L 35.401846 59.164639 
L 41.505706 60.640896 
L 47.821648 60.704145 
L 53.846508 59.357901 
L 59.110151 56.724152 
L 63.217438 53.027294 
L 65.878701 48.568533 
L 66.926387 43.695531 
L 66.318477 38.771884 
L 64.131291 34.149859 
L 60.545193 30.14818 
L 55.82646 27.035179 
L 50.30767 25.01664 
L 44.367815 24.227217 
L 38.412283 24.724423 
L 32.852147 26.484685 
L 28.081943 29.401626 
L 24.45545 33.287491 
L 22.259755 37.879189 
L 21.689178 42.850593 
L 22.821994 47.832296 
L 25.604045 52.438892 
L 29.843588 56.302111 
L 35.22081 59.106179 
L 41.313038 60.620361 
L 47.633538 60.723272 
L 53.678644 59.41474 
L 58.976073 56.813379 
L 63.127274 53.140955 
L 65.838436 48.69704 
L 66.937711 43.828704 
L 66.379109 38.899876 
L 64.235615 34.263853 
L 60.685035 30.240833 
L 55.991849 27.100852 
L 50.487515 25.051482 
L 44.550463 24.229171 
L 38.585989 24.69324 
L 33.005518 26.421959 
L 28.204437 29.310857 
L 24.537964 33.174129 
L 22.295346 37.750585 
L 21.673845 42.715759 
L 22.755422 47.701406 
L 25.49012 52.322492 
L 29.690505 56.210092 
L 35.040616 59.046657 
L 41.120598 60.598665 
L 47.445019 60.741255 
L 53.509781 59.470561 
L 58.840516 56.901807 
L 63.035297 53.254097 
L 65.796191 48.825333 
L 66.947052 43.961964 
L 66.437898 39.028224 
L 64.338356 34.378424 
L 60.823637 30.334233 
L 56.156403 27.167389 
L 50.666966 25.087251 
L 44.733175 24.232069 
L 38.760216 24.662972 
L 33.159851 26.36007 
L 28.328291 29.220797 
L 24.62217 33.061296 
L 22.332864 37.622277 
L 21.660546 42.580945 
L 22.690837 47.570233 
L 25.377964 52.205506 
L 29.538806 56.117218 
L 34.861283 58.986081 
L 40.928406 60.575813 
L 47.256113 60.758092 
L 53.33994 59.52536 
L 58.703495 56.989428 
L 62.941517 53.36671 
L 65.75197 48.953404 
L 66.954408 44.0953 
L 66.494839 39.156918 
L 64.439501 34.493566 
L 60.960987 30.428374 
L 56.320107 27.234785 
L 50.846008 25.123946 
L 44.915935 24.235912 
L 38.934949 24.63362 
L 33.31513 26.299022 
L 28.45349 29.131452 
L 24.708057 32.948998 
L 22.372301 37.494274 
L 21.64928 42.446161 
L 22.628242 47.438787 
L 25.267587 52.087944 
L 29.388507 56.023497 
L 34.682833 58.924454 
L 40.736487 60.551804 
L 47.066842 60.77378 
L 53.16914 59.579129 
L 58.565023 57.076232 
L 62.845941 53.478783 
L 65.705774 49.081239 
L 66.959773 44.228703 
L 66.549921 39.28595 
L 64.539039 34.609272 
L 61.097068 30.523253 
L 56.482945 27.303037 
L 51.024622 25.161567 
L 45.098726 24.240702 
L 39.110172 24.605188 
L 33.471339 26.23882 
L 28.580022 29.042828 
L 24.795615 32.837245 
L 22.413654 37.366587 
L 21.640047 42.311418 
L 22.567644 47.30708 
L 25.159003 51.969815 
L 29.239628 55.928936 
L 34.505286 58.86178 
L 40.544862 60.526639 
L 46.877228 60.788315 
L 52.997399 59.63186 
L 58.425114 57.16221 
L 62.748578 53.590306 
L 65.657606 49.208829 
L 66.963146 44.362163 
L 66.603138 39.415311 
L 64.636957 34.725535 
L 61.231869 30.618863 
L 56.644902 27.372143 
L 51.202795 25.20011 
L 45.281533 24.246436 
L 39.285869 24.577677 
L 33.628464 26.179466 
L 28.707874 28.95493 
L 24.884831 32.726043 
L 22.456911 37.239222 
L 21.63284 42.176726 
L 22.509043 47.175122 
L 25.052214 51.851131 
L 29.092178 55.833546 
L 34.328659 58.798071 
L 40.353553 60.500324 
L 46.687293 60.8017 
L 52.824738 59.683554 
L 58.283786 57.247357 
L 62.649439 53.701271 
L 65.607471 49.336165 
L 66.964527 44.495669 
L 66.654484 39.544993 
L 64.733249 34.842346 
L 61.365377 30.715199 
L 56.805963 27.442097 
L 51.38051 25.239574 
L 45.464339 24.253114 
L 39.462024 24.551086 
L 33.786488 26.120962 
L 28.837029 28.867762 
L 24.975695 32.615397 
L 22.502067 37.112189 
L 21.627659 42.042094 
L 22.452443 47.042925 
L 24.947234 51.731903 
L 28.946176 55.737335 
L 34.152975 58.733327 
L 40.162583 60.472859 
L 46.49706 60.81393 
L 52.651176 59.7342 
L 58.141051 57.331661 
L 62.548531 53.811663 
L 65.555369 49.463233 
L 66.963909 44.629211 
L 66.703948 39.674987 
L 64.827898 34.959701 
L 61.497575 30.812256 
L 56.966112 27.512897 
L 51.557749 25.279959 
L 45.647126 24.260738 
L 39.63862 24.525421 
L 33.945397 26.063315 
L 28.967478 28.781331 
L 25.068198 32.505317 
L 22.549116 36.985498 
L 21.624503 41.907534 
L 22.397849 46.910498 
L 24.844074 51.612139 
L 28.801638 55.640312 
L 33.978253 58.667556 
L 39.971975 60.444245 
L 46.30655 60.825002 
L 52.476733 59.783793 
L 57.996926 57.415115 
L 62.445864 53.921476 
L 65.501306 49.590025 
L 66.961292 44.76278 
L 66.751527 39.805283 
L 64.920898 35.077591 
L 61.628453 30.910029 
L 57.125337 27.58454 
L 51.7345 25.321259 
L 45.829881 24.269306 
L 39.815641 24.500679 
L 34.105176 26.006524 
L 29.099203 28.69564 
L 25.162323 32.395808 
L 22.598046 36.859155 
L 21.623364 41.773055 
L 22.345261 46.777853 
L 24.742737 51.491852 
L 28.658574 55.542486 
L 33.80451 58.600767 
L 39.781748 60.414489 
L 46.115786 60.834919 
L 52.301429 59.832332 
L 57.851427 57.497711 
L 62.34145 54.0307 
L 65.445287 49.71653 
L 66.956676 44.896365 
L 66.797213 39.935873 
L 65.012238 35.196008 
L 61.757998 31.008511 
L 57.28362 27.657021 
L 51.910743 25.363477 
L 46.012584 24.278819 
L 39.993071 24.476864 
L 34.265808 25.950596 
L 29.232193 28.610696 
L 25.258064 32.286877 
L 22.648853 36.733171 
L 21.624244 41.638667 
L 22.294683 46.645 
L 24.643237 51.371051 
L 28.517003 55.443865 
L 33.631768 58.532962 
L 39.591927 60.383589 
L 45.92479 60.843675 
L 52.125283 59.879807 
L 57.704567 57.57944 
L 62.235296 54.139322 
L 65.387311 49.842736 
L 66.950055 45.029956 
L 66.840998 40.066748 
L 65.101904 35.314947 
L 61.886193 31.107699 
L 57.440946 27.730337 
L 52.086464 25.406608 
L 46.195222 24.289276 
L 40.170895 24.453977 
L 34.427279 25.895531 
L 29.366433 28.526502 
L 25.355409 32.178532 
L 22.701528 36.607554 
L 21.627139 41.504381 
L 22.246118 46.511951 
L 24.545582 51.249747 
L 28.376939 55.344459 
L 33.460047 58.464149 
L 39.402533 60.351549 
L 45.733584 60.851271 
L 51.948316 59.926214 
L 57.556363 57.660293 
L 62.127412 54.247333 
L 65.327384 49.968632 
L 66.941428 45.163541 
L 66.882874 40.197898 
L 65.189887 35.434398 
L 62.013027 31.207586 
L 57.597299 27.804485 
L 52.261646 25.450652 
L 46.377776 24.300678 
L 40.349095 24.432021 
L 34.589574 25.841335 
L 29.501909 28.443066 
L 25.454345 32.070779 
L 22.756064 36.482312 
L 21.632046 41.370206 
L 22.19957 46.378716 
L 24.44978 51.127951 
L 28.238397 55.244276 
L 33.289365 58.394333 
L 39.213589 60.318371 
L 45.542192 60.857703 
L 51.770548 59.971546 
L 57.406831 57.740262 
L 62.017809 54.354723 
L 65.26551 50.094207 
L 66.930793 45.297112 
L 66.922835 40.329315 
L 65.276175 35.554356 
L 62.138485 31.308167 
L 57.752666 27.879462 
L 52.436272 25.495608 
L 46.560229 24.313026 
L 40.527656 24.410997 
L 34.752677 25.788012 
L 29.638609 28.360392 
L 25.554863 31.963627 
L 22.812454 36.357455 
L 21.638961 41.236153 
L 22.155039 46.245306 
L 24.35584 51.005672 
L 28.10139 55.143326 
L 33.11974 58.323523 
L 39.025116 60.28406 
L 45.350635 60.862973 
L 51.591999 60.015802 
L 57.255988 57.81934 
L 61.906498 54.461481 
L 65.201695 50.219452 
L 66.91815 45.430657 
L 66.960877 40.460988 
L 65.36076 35.674812 
L 62.262555 31.409436 
L 57.90703 27.955262 
L 52.610328 25.541471 
L 46.742567 24.326317 
L 40.70656 24.390906 
L 34.916573 25.735562 
L 29.776517 28.278484 
L 25.656948 31.85708 
L 22.870687 36.232991 
L 21.647879 41.102231 
L 22.112528 46.111731 
L 24.263768 50.882922 
L 27.965932 55.041618 
L 32.951193 58.251724 
L 38.837136 60.248617 
L 45.158936 60.867078 
L 51.41269 60.058974 
L 57.103848 57.897518 
L 61.793489 54.567599 
L 65.135941 50.344354 
L 66.903497 45.564166 
L 66.99699 40.59291 
L 65.443629 35.795758 
L 62.385223 31.511387 
L 58.060377 28.031884 
L 52.783796 25.588241 
L 46.924772 24.340552 
L 40.885793 24.371749 
L 35.081245 25.683989 
L 29.915619 28.197347 
L 25.76059 31.751145 
L 22.930755 36.108928 
L 21.658798 40.96845 
L 22.072037 45.978003 
L 24.173573 50.759711 
L 27.832037 54.939161 
L 32.78374 58.178944 
L 38.649671 60.212047 
L 44.967116 60.87002 
L 51.232642 60.10106 
L 56.95043 57.97479 
L 61.678795 54.673066 
L 65.068255 50.468906 
L 66.886834 45.697629 
L 67.031171 40.725071 
L 65.524777 35.917188 
L 62.50648 31.614015 
L 58.212695 28.10932 
L 52.956664 25.635913 
L 47.10683 24.355727 
L 41.065338 24.353524 
L 35.246677 25.633295 
L 30.055901 28.116984 
L 25.865776 31.645828 
L 22.992649 35.985273 
L 21.671711 40.83482 
L 22.033567 45.844132 
L 24.085262 50.636051 
L 27.699717 54.835966 
L 32.617402 58.105188 
L 38.462742 60.174352 
L 44.7752 60.871795 
L 51.051874 60.142053 
L 56.79575 58.051146 
L 61.562425 54.777872 
L 64.998641 50.593093 
L 66.868158 45.831035 
L 67.063412 40.857461 
L 65.604188 36.039093 
L 62.626307 31.717313 
L 58.363965 28.187569 
L 53.128911 25.684489 
L 47.288721 24.371848 
L 41.245178 24.336237 
L 35.412856 25.583484 
L 30.197348 28.037402 
L 25.972494 31.541138 
L 23.056362 35.862036 
L 21.686617 40.701352 
L 21.997121 45.710128 
L 23.998842 50.511951 
L 27.568986 54.732041 
L 32.452195 58.030466 
L 38.276371 60.135538 
L 44.583209 60.872406 
L 50.870409 60.181952 
L 56.639825 58.126581 
L 61.444392 54.882009 
L 64.927107 50.716908 
L 66.847474 45.964374 
L 67.093712 40.990071 
L 65.681858 36.161465 
L 62.744698 31.821275 
L 58.514175 28.266625 
L 53.300525 25.733962 
L 47.470431 24.388907 
L 41.425297 24.319886 
L 35.579764 25.534558 
L 30.339947 27.958604 
L 26.080734 31.437078 
L 23.121885 35.739224 
L 21.70351 40.568053 
L 21.962699 45.576003 
L 23.914321 50.387422 
L 27.439859 54.627396 
L 32.288138 57.954783 
L 38.090579 60.095606 
L 44.391165 60.87185 
L 50.688266 60.220749 
L 56.482672 58.201086 
L 61.324706 54.985466 
L 64.853656 50.840338 
L 66.824775 46.097636 
L 67.12206 41.122893 
L 65.757774 36.284297 
L 62.861636 31.925896 
L 58.66331 28.346486 
L 53.471489 25.784333 
L 47.651944 24.406909 
L 41.605679 24.304473 
L 35.747387 25.48652 
L 30.483683 27.880594 
L 26.19048 31.333656 
L 23.189205 35.616846 
L 21.722383 40.434934 
L 21.9303 45.441767 
L 23.831702 50.262476 
L 27.312344 54.522041 
L 32.125249 57.878147 
L 37.905388 60.054562 
L 44.199091 60.870129 
L 50.505467 60.258444 
L 56.324308 58.274654 
L 61.203382 55.088234 
L 64.778295 50.963374 
L 66.800066 46.23081 
L 67.148454 41.255915 
L 65.831928 36.407581 
L 62.977111 32.031169 
L 58.811355 28.427145 
L 53.641788 25.835598 
L 47.833243 24.425849 
L 41.786308 24.289997 
L 35.915708 25.439371 
L 30.62854 27.803378 
L 26.301722 31.230878 
L 23.258318 35.494909 
L 21.743234 40.302005 
L 21.899927 45.307431 
L 23.750996 50.137122 
L 27.186458 54.415984 
L 31.963546 57.800564 
L 37.72082 60.012408 
L 44.00701 60.867241 
L 50.322033 60.295029 
L 56.16475 58.347276 
L 61.080428 55.190301 
L 64.701028 51.086003 
L 66.773342 46.363885 
L 67.172886 41.389128 
L 65.904308 36.531309 
L 63.091106 32.137089 
L 58.958294 28.508601 
L 53.811404 25.887756 
L 48.01431 24.445731 
L 41.967167 24.276463 
L 36.084712 25.393118 
L 30.774507 27.72696 
L 26.414448 31.128751 
L 23.329212 35.373423 
L 21.766058 40.169276 
L 21.87158 45.173005 
L 23.672209 50.011371 
L 27.062212 54.309237 
L 31.803047 57.722044 
L 37.536894 59.96915 
L 43.814944 60.863188 
L 50.137985 60.330503 
L 56.004016 58.418948 
L 60.95586 55.29166 
L 64.621864 51.208217 
L 66.744609 46.496851 
L 67.195354 41.522524 
L 65.974908 36.655472 
L 63.203614 32.243649 
L 59.104115 28.590847 
L 53.980323 25.940802 
L 48.195132 24.466549 
L 42.14824 24.263868 
L 36.254383 25.347758 
L 30.921566 27.651343 
L 26.528645 31.02728 
L 23.401879 35.252394 
L 21.790849 40.036756 
L 21.845258 45.0385 
L 23.595345 49.885235 
L 26.939619 54.201807 
L 31.64377 57.642591 
L 37.353635 59.924789 
L 43.622916 60.857966 
L 49.953344 60.364858 
L 55.842124 58.489657 
L 60.829686 55.392298 
L 64.540806 51.330002 
L 66.71386 46.629696 
L 67.215848 41.656092 
L 66.043714 36.780064 
L 63.314616 32.350843 
L 59.2488 28.67388 
L 54.148527 25.994737 
L 48.375688 24.488307 
L 42.329509 24.252217 
L 36.424705 25.303299 
L 31.069705 27.576535 
L 26.644302 30.926473 
L 23.47631 35.131832 
L 21.817605 39.904454 
L 21.820965 44.903926 
L 23.520413 49.758724 
L 26.818691 54.093706 
L 31.485731 57.562215 
L 37.171061 59.879333 
L 43.430948 60.851581 
L 49.768133 60.398095 
L 55.679092 58.559403 
L 60.701924 55.492211 
L 64.457865 51.451351 
L 66.681103 46.762412 
L 67.23437 41.789822 
L 66.110723 36.905074 
L 63.424108 32.458664 
L 59.392339 28.757695 
L 54.316004 26.049553 
L 48.555967 24.511 
L 42.510961 24.241505 
L 36.595662 25.259739 
L 31.218907 27.502535 
L 26.761402 30.826334 
L 23.552492 35.011743 
L 21.846314 39.77238 
L 21.798694 44.769294 
L 23.447414 49.631848 
L 26.699437 53.984944 
L 31.328947 57.480924 
L 36.989193 59.832785 
L 43.239062 60.844031 
L 49.582371 60.430209 
L 55.514937 58.628176 
L 60.572584 55.591386 
L 64.373045 51.572251 
L 66.646336 46.894986 
L 67.250912 41.923705 
L 66.175922 37.030496 
L 63.532072 32.567106 
L 59.534715 28.842287 
L 54.482735 26.105252 
L 48.73595 24.534629 
L 42.692577 24.231737 
L 36.767238 25.217081 
L 31.36916 27.42935 
L 26.879937 30.72687 
L 23.63042 34.892135 
L 21.876977 39.640544 
L 21.778451 44.634615 
L 23.376359 49.504619 
L 26.581874 53.875529 
L 31.173438 57.398723 
L 36.808053 59.785147 
L 43.047282 60.835314 
L 49.396081 60.461195 
L 55.349678 58.695966 
L 60.441677 55.689813 
L 64.286353 51.692692 
L 66.609558 47.027408 
L 67.265467 42.057732 
L 66.239302 37.156321 
L 63.638497 32.676163 
L 59.675913 28.927653 
L 54.648706 26.161831 
L 48.91562 24.559193 
L 42.874341 24.222912 
L 36.939418 25.17533 
L 31.520447 27.356984 
L 26.99989 30.628085 
L 23.710079 34.773016 
L 21.909582 39.508953 
L 21.76023 44.499899 
L 23.307248 49.377047 
L 26.466007 53.765472 
L 31.019216 57.315624 
L 36.627662 59.736427 
L 42.855629 60.825435 
L 49.209285 60.491052 
L 55.183334 58.762771 
L 60.309222 55.787485 
L 64.197798 51.812664 
L 66.570773 47.159668 
L 67.278036 42.191891 
L 66.300858 37.28254 
L 63.743371 32.785828 
L 59.81592 29.013786 
L 54.8139 26.219285 
L 49.094961 24.584691 
L 43.056237 24.215032 
L 37.112186 25.134486 
L 31.672754 27.285441 
L 27.121253 30.529989 
L 23.791464 34.654395 
L 21.94413 39.37762 
L 21.744036 44.365156 
L 23.240092 49.249143 
L 26.351855 53.654782 
L 30.866304 57.231629 
L 36.448041 59.686626 
L 42.664128 60.81439 
L 49.022004 60.519772 
L 55.015921 58.828579 
L 60.175225 55.884388 
L 64.107383 51.932153 
L 66.529978 47.291753 
L 67.288608 42.326174 
L 66.360574 37.409146 
L 63.846681 32.896095 
L 59.95472 29.100685 
L 54.978302 26.277612 
L 49.273957 24.611122 
L 43.238249 24.208097 
L 37.285525 25.094553 
L 31.826066 27.214725 
L 27.24401 30.432584 
L 23.874562 34.536278 
L 21.98061 39.246552 
L 21.729863 44.230397 
L 23.174891 49.120918 
L 26.239421 53.543471 
L 30.714713 57.146752 
L 36.269209 59.635754 
L 42.472798 60.802186 
L 48.83426 60.54736 
L 54.847461 58.893389 
L 60.039707 55.98052 
L 64.015122 52.051153 
L 66.487181 47.423654 
L 67.297187 42.46057 
L 66.41845 37.536129 
L 63.948418 33.006956 
L 60.092302 29.188341 
L 55.141898 26.336809 
L 49.452592 24.638482 
L 43.420359 24.202105 
L 37.45942 25.05553 
L 31.980368 27.144838 
L 27.368146 30.335876 
L 23.959363 34.418673 
L 22.019015 39.115757 
L 21.71771 44.095633 
L 23.11165 48.992382 
L 26.12872 53.431548 
L 30.564462 57.060998 
L 36.091188 59.583813 
L 42.281664 60.788819 
L 48.646075 60.573806 
L 54.67797 58.957191 
L 59.902678 56.075865 
L 63.921019 52.169651 
L 66.44238 47.55536 
L 67.303763 42.595069 
L 66.474472 37.663482 
L 64.048568 33.118406 
L 60.228649 29.276752 
L 55.30467 26.396874 
L 49.63085 24.666774 
L 43.602552 24.19706 
L 37.633855 25.017422 
L 32.135646 27.075788 
L 27.493653 30.239874 
L 24.045858 34.301588 
L 22.059343 38.985247 
L 21.707579 43.960873 
L 23.050377 48.863546 
L 26.019762 53.319022 
L 30.415565 56.974376 
L 35.913996 59.530808 
L 42.090747 60.774294 
L 48.45747 60.599112 
L 54.50747 59.019981 
L 59.764154 56.17042 
L 63.825086 52.287638 
L 66.395581 47.686862 
L 67.30834 42.729663 
L 66.528638 37.791196 
L 64.147124 33.230436 
L 60.363752 29.36591 
L 55.466606 26.4578 
L 49.808715 24.695991 
L 43.784813 24.192956 
L 37.808812 24.980227 
L 32.291882 27.007571 
L 27.620511 30.144577 
L 24.134032 34.185027 
L 22.10158 38.855029 
L 21.699462 43.826128 
L 22.991069 48.734423 
L 25.912553 53.205907 
L 30.268038 56.886896 
L 35.737654 59.476748 
L 41.900069 60.758613 
L 48.268468 60.623275 
L 54.335978 59.081754 
L 59.624149 56.264175 
L 63.72733 52.405104 
L 66.346784 47.818148 
L 67.31091 42.864339 
L 66.580937 37.919261 
L 64.244072 33.34304 
L 60.497594 29.455811 
L 55.627689 26.519586 
L 49.986171 24.726135 
L 43.967123 24.189798 
L 37.984277 24.943948 
L 32.449063 26.940196 
L 27.748711 30.049995 
L 24.223877 34.069001 
L 22.145723 38.725112 
L 21.69336 43.691408 
L 22.933733 48.605021 
L 25.807106 53.09221 
L 30.121896 56.798565 
L 35.562182 59.421636 
L 41.709653 60.741776 
L 48.079091 60.646292 
L 54.163515 59.142502 
L 59.482678 56.357119 
L 63.627759 52.522038 
L 66.295992 47.949207 
L 67.311472 42.99909 
L 66.631362 38.047669 
L 64.339399 33.456211 
L 60.630161 29.546452 
L 55.787903 26.582229 
L 50.163201 24.757204 
L 44.149466 24.187585 
L 38.160234 24.908589 
L 32.607173 26.873666 
L 27.878238 29.956133 
L 24.315384 33.953516 
L 22.191767 38.595506 
L 21.689274 43.556723 
L 22.878376 48.475351 
L 25.703434 52.977941 
L 29.977159 56.70939 
L 35.387603 59.365474 
L 41.519522 60.723782 
L 47.889361 60.668158 
L 53.990098 59.202216 
L 59.339754 56.449242 
L 63.52638 52.638427 
L 66.243205 48.080027 
L 67.310018 43.133903 
L 66.6799 38.176413 
L 64.433093 33.569943 
L 60.761437 29.637827 
L 55.947232 26.645727 
L 50.339789 24.789197 
L 44.331827 24.18632 
L 38.336666 24.874153 
L 32.766199 26.807986 
L 28.009081 29.862996 
L 24.408541 33.83858 
L 22.239704 38.466219 
L 21.687199 43.422084 
L 22.824998 48.345426 
L 25.601542 52.863111 
L 29.833837 56.619381 
L 35.213932 59.308273 
L 41.329697 60.704638 
L 47.6993 60.688875 
L 53.815748 59.260895 
L 59.195393 56.540539 
L 63.423206 52.754265 
L 66.18843 48.2106 
L 67.306551 43.268769 
L 66.726552 38.305481 
L 64.525147 33.684228 
L 60.891413 29.729929 
L 56.105662 26.710074 
L 50.515919 24.822111 
L 44.514188 24.185998 
L 38.513557 24.840637 
L 32.926124 26.743155 
L 28.141223 29.770589 
L 24.503335 33.724198 
L 22.289524 38.33726 
L 21.687131 43.287501 
L 22.773603 48.215254 
L 25.501441 52.747731 
L 29.691948 56.528548 
L 35.041191 59.250037 
L 41.1402 60.684343 
L 47.508929 60.708438 
L 53.640485 59.318531 
L 59.049611 56.630999 
L 63.318244 52.869538 
L 66.131668 48.340913 
L 67.301066 43.403679 
L 66.771305 38.434867 
L 64.615547 33.799059 
L 61.020072 29.822755 
L 56.263178 26.775269 
L 50.691574 24.855945 
L 44.696534 24.186622 
L 38.690891 24.808046 
L 33.086933 26.679181 
L 28.274653 29.678917 
L 24.599758 33.61038 
L 22.341223 38.208638 
L 21.689071 43.152984 
L 22.724194 48.084848 
L 25.40314 52.631811 
L 29.551507 56.436897 
L 34.869399 59.190771 
L 40.951054 60.6629 
L 47.318272 60.726847 
L 53.464328 59.375119 
L 58.902422 56.720615 
L 63.211504 52.984238 
L 66.072923 48.470956 
L 67.293562 43.53862 
L 66.814154 38.564561 
L 64.704283 33.914429 
L 61.147401 29.916297 
L 56.419764 26.841306 
L 50.866739 24.890698 
L 44.878847 24.188191 
L 38.868652 24.77638 
L 33.24861 26.616064 
L 28.409356 29.587986 
L 24.697797 33.497131 
L 22.394791 38.080363 
L 21.693014 43.018543 
L 22.676775 47.954218 
L 25.306649 52.515361 
L 29.412527 56.344438 
L 34.698577 59.130481 
L 40.762281 60.640311 
L 47.127351 60.744099 
L 53.287298 59.430652 
L 58.753843 56.809376 
L 63.102996 53.098353 
L 66.012199 48.600718 
L 67.284036 43.673585 
L 66.855091 38.694553 
L 64.791344 34.03033 
L 61.273388 30.010553 
L 56.575405 26.908184 
L 51.041398 24.926366 
L 45.061112 24.190705 
L 39.046824 24.745642 
L 33.41114 26.553809 
L 28.545318 29.4978 
L 24.797441 33.384458 
L 22.450221 37.952441 
L 21.698956 42.884188 
L 22.631346 47.823374 
L 25.211974 52.398392 
L 29.275024 56.251181 
L 34.528742 59.069174 
L 40.573903 60.616579 
L 46.936188 60.760193 
L 53.109414 59.485126 
L 58.603888 56.897276 
L 62.992731 53.211874 
L 65.9495 48.730188 
L 67.272486 43.808561 
L 66.89411 38.824836 
L 64.87672 34.146756 
L 61.398019 30.105515 
L 56.730086 26.975897 
L 51.215534 24.96295 
L 45.243313 24.194164 
L 39.22539 24.715832 
L 33.574509 26.492419 
L 28.682526 29.408364 
L 24.898679 33.272368 
L 22.507505 37.824883 
L 21.706895 42.749929 
L 22.587912 47.692327 
L 25.119126 52.280914 
L 29.139012 56.157132 
L 34.359915 59.006855 
L 40.385942 60.591705 
L 46.744804 60.775126 
L 52.930697 59.538535 
L 58.452573 56.984305 
L 62.880717 53.32479 
L 65.884828 48.859355 
L 67.258908 43.943539 
L 66.931202 38.955399 
L 64.960397 34.263699 
L 61.521279 30.201179 
L 56.883791 27.044444 
L 51.389131 25.000447 
L 45.425431 24.19857 
L 39.404334 24.686953 
L 33.738701 26.431898 
L 28.820967 29.319686 
L 25.001501 33.16087 
L 22.566638 37.697697 
L 21.71683 42.615776 
L 22.546476 47.561088 
L 25.028115 52.162937 
L 29.004506 56.062302 
L 34.192115 58.94353 
L 40.19842 60.565692 
L 46.553224 60.788898 
L 52.751166 59.590873 
L 58.299915 57.070455 
L 62.766966 53.437091 
L 65.81819 48.988209 
L 67.243305 44.078508 
L 66.966363 39.086234 
L 65.042369 34.38115 
L 61.643156 30.297538 
L 57.036506 27.113819 
L 51.562174 25.038854 
L 45.607452 24.203918 
L 39.583641 24.659005 
L 33.903699 26.372247 
L 28.960624 29.231767 
L 25.105891 33.049967 
L 22.627606 37.570891 
L 21.728753 42.481739 
L 22.507036 47.429668 
L 24.938944 52.044472 
L 28.871519 55.9667 
L 34.025359 58.879208 
L 40.011358 60.538544 
L 46.361469 60.801507 
L 52.570843 59.642136 
L 58.14593 57.155717 
L 62.651487 53.548766 
L 65.749588 49.116738 
L 67.22567 44.213457 
L 66.999584 39.217331 
L 65.122622 34.499104 
L 61.763635 30.394588 
L 57.188214 27.18402 
L 51.734645 25.078171 
L 45.789358 24.210213 
L 39.763293 24.631992 
L 34.06949 26.313472 
L 29.101487 29.144615 
L 25.211844 32.93967 
L 22.690408 37.444474 
L 21.742666 42.347829 
L 22.469598 47.298077 
L 24.851626 51.925529 
L 28.740066 55.870335 
L 33.859668 58.813892 
L 39.82478 60.510262 
L 46.169562 60.812952 
L 52.389748 59.692319 
L 57.990635 57.240085 
L 62.534292 53.659806 
L 65.679028 49.244931 
L 67.206007 44.348377 
L 67.030861 39.348681 
L 65.201148 34.617553 
L 61.882707 30.492321 
L 57.338903 27.255041 
L 51.906529 25.118394 
L 45.971134 24.21745 
L 39.943275 24.605912 
L 34.236057 26.255573 
L 29.243539 29.058232 
L 25.319343 32.829983 
L 22.755031 37.318455 
L 21.758561 42.214055 
L 22.434163 47.166327 
L 24.766167 51.806118 
L 28.61016 55.773214 
L 33.69506 58.747589 
L 39.638706 60.480849 
L 45.977525 60.82323 
L 52.207901 59.741415 
L 57.834045 57.323548 
L 62.415393 53.7702 
L 65.606515 49.372779 
L 67.184312 44.483257 
L 67.060186 39.480275 
L 65.277935 34.736488 
L 62.000354 30.590734 
L 57.488555 27.326881 
L 52.07781 25.159522 
L 46.152762 24.225632 
L 40.12357 24.580768 
L 34.403385 26.198555 
L 29.386767 28.972625 
L 25.428377 32.720912 
L 22.821466 37.19284 
L 21.776433 42.080426 
L 22.400728 47.034427 
L 24.68257 51.686253 
L 28.481811 55.675351 
L 33.53155 58.680311 
L 39.453156 60.450314 
L 45.785381 60.832348 
L 52.025325 59.789425 
L 57.67618 57.406104 
L 62.294803 53.879942 
L 65.532058 49.500271 
L 67.16059 44.618086 
L 67.08756 39.612104 
L 65.352978 34.855901 
L 62.116569 30.689818 
L 57.63716 27.399531 
L 52.248474 25.20155 
L 46.334228 24.234753 
L 40.304162 24.556558 
L 34.571456 26.142418 
L 29.531155 28.887795 
L 25.538933 32.612463 
L 22.889703 37.067638 
L 21.796276 41.946952 
L 22.369296 46.902389 
L 24.600845 51.565941 
L 28.355035 55.576753 
L 33.369159 58.612061 
L 39.268154 60.418655 
L 45.593151 60.840299 
L 51.842039 59.836341 
L 57.517056 57.487741 
L 62.172531 53.989018 
L 65.455659 49.627395 
L 67.134835 44.752855 
L 67.11297 39.744157 
L 65.426264 34.975785 
L 62.231336 30.789568 
L 57.7847 27.47299 
L 52.418504 25.244478 
L 46.515514 24.244816 
L 40.485035 24.533286 
L 34.740256 26.087166 
L 29.676689 28.803749 
L 25.650999 32.504644 
L 22.959735 36.942859 
L 21.818089 41.813643 
L 22.339868 46.770223 
L 24.520999 51.445195 
L 28.229845 55.477429 
L 33.207905 58.542847 
L 39.08372 60.385878 
L 45.400859 60.847085 
L 51.658064 59.882159 
L 57.356689 57.568452 
L 62.04859 54.09742 
L 65.377323 49.754142 
L 67.107049 44.887552 
L 67.136413 39.876426 
L 65.497784 35.096132 
L 62.344644 30.889979 
L 57.931162 27.547253 
L 52.587884 25.288301 
L 46.696604 24.255819 
L 40.666172 24.510949 
L 34.90977 26.0328 
L 29.823355 28.72049 
L 25.764563 32.39746 
L 23.031552 36.818508 
L 21.841864 41.680509 
L 22.312443 46.637939 
L 24.443036 51.324025 
L 28.10625 55.377389 
L 33.047804 58.472676 
L 38.899876 60.351986 
L 45.208528 60.852705 
L 51.473423 59.926875 
L 57.195097 57.64823 
L 61.922992 54.205138 
L 65.297058 49.880499 
L 67.077231 45.022166 
L 67.157884 40.008901 
L 65.567527 35.216934 
L 62.456478 30.991044 
L 58.076529 27.622318 
L 52.756596 25.333021 
L 46.877481 24.267764 
L 40.847557 24.489554 
L 35.079982 25.979328 
L 29.971141 28.638027 
L 25.879618 32.29092 
L 23.10515 36.694598 
L 21.867606 41.54756 
L 22.28703 46.505549 
L 24.366972 51.202438 
L 27.984272 55.27664 
L 32.888879 58.40155 
L 38.716645 60.316978 
L 45.016179 60.857153 
L 51.288134 59.970479 
L 57.032296 57.727063 
L 61.795745 54.312158 
L 65.214866 50.006455 
L 67.045377 45.156687 
L 67.177373 40.141573 
L 65.635481 35.338184 
L 62.566824 31.092759 
L 58.220786 27.698179 
L 52.924627 25.378633 
L 47.058129 24.280649 
L 41.029174 24.469099 
L 35.250876 25.926748 
L 30.120029 28.556358 
L 25.996143 32.185027 
L 23.180511 36.571132 
L 21.895295 41.414805 
L 22.263616 46.373062 
L 24.2928 51.080451 
L 27.863911 55.175196 
L 32.731141 58.329485 
L 38.534045 60.280866 
L 44.823835 60.86044 
L 51.102221 60.012978 
L 56.868307 57.804952 
L 61.666871 54.418479 
L 65.130761 50.132003 
L 67.011498 45.291106 
L 67.194885 40.274431 
L 65.701645 35.459872 
L 62.675676 31.195113 
L 58.363923 27.774829 
L 53.091961 25.425132 
L 47.238533 24.29447 
L 41.211006 24.449581 
L 35.422436 25.875061 
L 30.270005 28.475489 
L 30.270005 28.475489 
" clip-path="url(#p247f81507d)" style="fill: none; stroke: #8ca5ea; stroke-width: 0.01; stroke-linecap: square"/>
   </g>
  </g>
 </g>
 <defs>
  <clipPath id="p247f81507d">
   <rect x="10.84252" y="10.204724" width="65.480315" height="65.480315"/>
  </clipPath>
 </defs>
</svg>
