<?xml version="1.0" encoding="utf-8" standalone="no"?>
<!DOCTYPE svg PUBLIC "-//W3C//DTD SVG 1.1//EN"
  "http://www.w3.org/Graphics/SVG/1.1/DTD/svg11.dtd">
<svg xmlns:xlink="http://www.w3.org/1999/xlink" width="97.74108pt" height="101.864352pt" viewBox="0 0 97.74108 101.864352" xmlns="http://www.w3.org/2000/svg" version="1.1">
 <metadata>
  <rdf:RDF xmlns:dc="http://purl.org/dc/elements/1.1/" xmlns:cc="http://creativecommons.org/ns#" xmlns:rdf="http://www.w3.org/1999/02/22-rdf-syntax-ns#">
   <cc:Work>
    <dc:type rdf:resource="http://purl.org/dc/dcmitype/StillImage"/>
    <dc:date>2025-03-03T18:38:20.025803</dc:date>
    <dc:format>image/svg+xml</dc:format>
    <dc:creator>
     <cc:Agent>
      <dc:title>Matplotlib v3.8.0, https://matplotlib.org/</dc:title>
     </cc:Agent>
    </dc:creator>
   </cc:Work>
  </rdf:RDF>
 </metadata>
 <defs>
  <style type="text/css">*{stroke-linejoin: round; stroke-linecap: butt}</style>
 </defs>
 <g id="figure_1">
  <g id="patch_1">
   <path d="M 0 101.864352 
L 97.74108 101.864352 
L 97.74108 0 
L 0 0 
L 0 101.864352 
z
" style="fill: none"/>
  </g>
  <g id="axes_1">
   <g id="patch_2">
    <path d="M 18.303438 29.077136 
L 73.224697 29.077136 
L 73.224697 1.793672 
L 18.303438 1.793672 
L 18.303438 29.077136 
z
" style="fill: none"/>
   </g>
   <g id="matplotlib.axis_1"/>
   <g id="matplotlib.axis_2">
    <g id="ytick_1">
     <g id="line2d_1">
      <defs>
       <path id="m2596f91739" d="M 0 0 
L -1 0 
" style="stroke: #000000; stroke-width: 0.5"/>
      </defs>
      <g>
       <use xlink:href="#m2596f91739" x="18.303438" y="26.560001" style="stroke: #000000; stroke-width: 0.5"/>
      </g>
     </g>
     <g id="text_1">
      <!-- −5000 -->
      <g transform="translate(5.378125 27.633673) scale(0.03 -0.03)">
       <defs>
        <path id="ArialMT-2212" d="M 3381 1997 
L 356 1997 
L 356 2522 
L 3381 2522 
L 3381 1997 
z
" transform="scale(0.015625)"/>
        <path id="ArialMT-35" d="M 266 1200 
L 856 1250 
Q 922 819 1161 601 
Q 1400 384 1738 384 
Q 2144 384 2425 690 
Q 2706 997 2706 1503 
Q 2706 1984 2436 2262 
Q 2166 2541 1728 2541 
Q 1456 2541 1237 2417 
Q 1019 2294 894 2097 
L 366 2166 
L 809 4519 
L 3088 4519 
L 3088 3981 
L 1259 3981 
L 1013 2750 
Q 1425 3038 1878 3038 
Q 2478 3038 2890 2622 
Q 3303 2206 3303 1553 
Q 3303 931 2941 478 
Q 2500 -78 1738 -78 
Q 1113 -78 717 272 
Q 322 622 266 1200 
z
" transform="scale(0.015625)"/>
        <path id="ArialMT-30" d="M 266 2259 
Q 266 3072 433 3567 
Q 600 4063 929 4331 
Q 1259 4600 1759 4600 
Q 2128 4600 2406 4451 
Q 2684 4303 2865 4023 
Q 3047 3744 3150 3342 
Q 3253 2941 3253 2259 
Q 3253 1453 3087 958 
Q 2922 463 2592 192 
Q 2263 -78 1759 -78 
Q 1097 -78 719 397 
Q 266 969 266 2259 
z
M 844 2259 
Q 844 1131 1108 757 
Q 1372 384 1759 384 
Q 2147 384 2411 759 
Q 2675 1134 2675 2259 
Q 2675 3391 2411 3762 
Q 2147 4134 1753 4134 
Q 1366 4134 1134 3806 
Q 844 3388 844 2259 
z
" transform="scale(0.015625)"/>
       </defs>
       <use xlink:href="#ArialMT-2212"/>
       <use xlink:href="#ArialMT-35" x="58.398438"/>
       <use xlink:href="#ArialMT-30" x="114.013672"/>
       <use xlink:href="#ArialMT-30" x="169.628906"/>
       <use xlink:href="#ArialMT-30" x="225.244141"/>
      </g>
     </g>
    </g>
    <g id="ytick_2">
     <g id="line2d_2">
      <g>
       <use xlink:href="#m2596f91739" x="18.303438" y="15.472023" style="stroke: #000000; stroke-width: 0.5"/>
      </g>
     </g>
     <g id="text_2">
      <!-- 0 -->
      <g transform="translate(12.135156 16.545695) scale(0.03 -0.03)">
       <use xlink:href="#ArialMT-30"/>
      </g>
     </g>
    </g>
    <g id="ytick_3">
     <g id="line2d_3">
      <g>
       <use xlink:href="#m2596f91739" x="18.303438" y="4.384045" style="stroke: #000000; stroke-width: 0.5"/>
      </g>
     </g>
     <g id="text_3">
      <!-- 5000 -->
      <g transform="translate(7.130313 5.457717) scale(0.03 -0.03)">
       <use xlink:href="#ArialMT-35"/>
       <use xlink:href="#ArialMT-30" x="55.615234"/>
       <use xlink:href="#ArialMT-30" x="111.230469"/>
       <use xlink:href="#ArialMT-30" x="166.845703"/>
      </g>
     </g>
    </g>
    <g id="text_4">
     <!-- $x_1(t)$ -->
     <g transform="translate(3.583125 19.015404) rotate(-90) scale(0.04 -0.04)">
      <defs>
       <path id="STIXGeneral-Italic-78" d="M 1555 2272 
L 1632 1907 
Q 1971 2426 2179 2624 
Q 2387 2822 2598 2822 
Q 2714 2822 2787 2755 
Q 2861 2688 2861 2585 
Q 2861 2483 2800 2419 
Q 2739 2355 2643 2355 
Q 2586 2355 2490 2409 
Q 2394 2464 2310 2464 
Q 2125 2464 1683 1690 
Q 1683 1606 1734 1402 
L 1939 544 
Q 2003 282 2131 282 
Q 2234 282 2432 538 
Q 2451 563 2476 598 
Q 2502 634 2521 662 
Q 2541 691 2566 717 
L 2662 659 
Q 2387 230 2227 80 
Q 2067 -70 1882 -70 
Q 1728 -70 1645 26 
Q 1562 122 1504 365 
L 1318 1126 
L 755 365 
Q 557 96 432 13 
Q 307 -70 147 -70 
Q 0 -70 -86 0 
Q -173 70 -173 198 
Q -173 294 -112 361 
Q -51 429 45 429 
Q 122 429 250 358 
Q 346 301 416 301 
Q 525 301 742 614 
L 1267 1357 
L 1088 2150 
Q 1024 2432 969 2509 
Q 915 2586 794 2586 
Q 717 2586 544 2541 
L 429 2509 
L 410 2611 
L 480 2637 
Q 992 2822 1229 2822 
Q 1350 2822 1420 2707 
Q 1491 2592 1555 2272 
z
" transform="scale(0.015625)"/>
       <path id="STIXGeneral-Regular-31" d="M 2522 0 
L 755 0 
L 755 96 
Q 1107 115 1235 227 
Q 1363 339 1363 608 
L 1363 3482 
Q 1363 3795 1171 3795 
Q 1082 3795 883 3718 
L 710 3654 
L 710 3744 
L 1856 4326 
L 1914 4307 
L 1914 486 
Q 1914 275 2042 185 
Q 2170 96 2522 96 
L 2522 0 
z
" transform="scale(0.015625)"/>
       <path id="STIXGeneral-Regular-28" d="M 1946 -1030 
L 1869 -1133 
Q 1126 -710 716 32 
Q 307 774 307 1613 
Q 307 3386 1888 4326 
L 1946 4224 
Q 1293 3667 1075 3126 
Q 858 2586 858 1632 
Q 858 685 1082 96 
Q 1306 -493 1946 -1030 
z
" transform="scale(0.015625)"/>
       <path id="STIXGeneral-Italic-74" d="M 1894 2739 
L 1862 2534 
L 1325 2534 
L 768 435 
Q 755 384 755 346 
Q 755 243 851 243 
Q 928 243 1030 342 
Q 1133 442 1370 749 
L 1453 704 
Q 1158 256 969 93 
Q 781 -70 538 -70 
Q 243 -70 243 166 
Q 243 230 346 640 
L 845 2534 
L 365 2534 
L 358 2573 
Q 358 2688 570 2733 
Q 730 2771 992 2979 
Q 1254 3187 1421 3437 
Q 1459 3494 1510 3494 
Q 1568 3494 1568 3443 
Q 1568 3411 1562 3398 
L 1382 2739 
L 1894 2739 
z
" transform="scale(0.015625)"/>
       <path id="STIXGeneral-Regular-29" d="M 186 4224 
L 262 4326 
Q 992 3891 1408 3148 
Q 1824 2406 1824 1581 
Q 1824 -166 243 -1133 
L 186 -1030 
Q 845 -486 1059 54 
Q 1274 595 1274 1562 
Q 1274 2534 1059 3120 
Q 845 3706 186 4224 
z
" transform="scale(0.015625)"/>
      </defs>
      <use xlink:href="#STIXGeneral-Italic-78" transform="translate(0 0.40625)"/>
      <use xlink:href="#STIXGeneral-Regular-31" transform="translate(44.399994 -12.821875) scale(0.7)"/>
      <use xlink:href="#STIXGeneral-Regular-28" transform="translate(83.809358 0.40625)"/>
      <use xlink:href="#STIXGeneral-Italic-74" transform="translate(117.109346 0.40625)"/>
      <use xlink:href="#STIXGeneral-Regular-29" transform="translate(144.909334 0.40625)"/>
     </g>
    </g>
   </g>
   <g id="line2d_4">
    <path d="M 18.303438 18.275126 
L 18.398721 24.799451 
L 18.436834 23.05113 
L 18.608344 6.11595 
L 18.68457 10.375029 
L 18.837024 24.839701 
L 18.875137 23.411756 
L 19.065703 6.144321 
L 19.122873 9.849707 
L 19.275327 24.837414 
L 19.332496 22.251637 
L 19.504006 6.082043 
L 19.561176 9.349065 
L 19.713629 24.791821 
L 19.770799 22.680555 
L 19.942309 6.062536 
L 19.999479 8.876667 
L 20.170989 24.829389 
L 20.209102 23.076628 
L 20.380612 6.085408 
L 20.456839 10.356807 
L 20.609292 24.870536 
L 20.647405 23.438413 
L 20.837972 6.112972 
L 20.895142 9.83144 
L 21.047595 24.869594 
L 21.104765 22.273652 
L 21.276275 6.048863 
L 21.333445 9.330005 
L 21.485898 24.826499 
L 21.543068 22.704169 
L 21.714578 6.026854 
L 21.771747 8.854739 
L 21.943257 24.865238 
L 21.981371 23.102577 
L 22.15288 6.047526 
L 22.229107 10.341085 
L 22.38156 24.908972 
L 22.419673 23.467212 
L 22.61024 6.073753 
L 22.66741 9.812333 
L 22.819863 24.910853 
L 22.877033 22.29819 
L 23.048543 6.007268 
L 23.105713 9.307265 
L 23.258166 24.86943 
L 23.315336 22.732196 
L 23.486846 5.98355 
L 23.544016 8.829396 
L 23.715526 24.908423 
L 23.753639 23.133742 
L 23.925149 6.002232 
L 24.001375 10.323197 
L 24.153828 24.954309 
L 24.191942 23.501438 
L 24.382508 6.029315 
L 24.439678 9.791753 
L 24.592131 24.957569 
L 24.649301 22.324769 
L 24.820811 5.960857 
L 24.877981 9.285151 
L 25.030434 24.918722 
L 25.087604 22.761159 
L 25.259114 5.934106 
L 25.316284 8.804392 
L 25.487794 24.957544 
L 25.525907 23.166258 
L 25.697417 5.949476 
L 25.773644 10.307518 
L 25.926097 25.006996 
L 25.96421 23.538381 
L 26.154777 5.97718 
L 26.211946 8.465972 
L 26.383456 25.015207 
L 26.440626 21.753191 
L 26.593079 5.96816 
L 26.650249 8.034378 
L 26.821759 25.033904 
L 26.878929 22.23257 
L 27.050439 5.903892 
L 27.107609 9.395326 
L 27.260062 25.00991 
L 27.317232 22.682229 
L 27.488742 5.862139 
L 27.545912 8.90275 
L 27.717422 25.00876 
L 27.755535 23.100709 
L 27.927045 5.862423 
L 27.984215 8.437701 
L 28.155725 25.073774 
L 28.212895 21.775381 
L 28.365348 5.905132 
L 28.422518 8.001896 
L 28.594027 25.0961 
L 28.651197 22.258376 
L 28.822707 5.843389 
L 28.879877 9.374989 
L 29.03233 25.075479 
L 29.0895 22.712178 
L 29.26101 5.797662 
L 29.31818 8.877853 
L 29.48969 25.070981 
L 29.527803 23.136073 
L 29.699313 5.794449 
L 29.756483 8.40725 
L 29.927993 25.139623 
L 29.985163 21.798333 
L 30.137616 5.834656 
L 30.194786 7.967024 
L 30.366296 25.165082 
L 30.423466 22.286213 
L 30.594976 5.776827 
L 30.652145 9.354146 
L 30.804599 25.147618 
L 30.861769 22.745076 
L 31.033278 5.728093 
L 31.090448 8.851962 
L 31.261958 25.137377 
L 31.300072 23.172832 
L 31.471581 5.7221 
L 31.528751 8.37817 
L 31.700261 25.209666 
L 31.757431 21.819029 
L 31.909884 5.758417 
L 31.967054 7.933628 
L 32.138564 25.239612 
L 32.195734 22.311728 
L 32.367244 5.705325 
L 32.405357 7.520085 
L 32.576867 25.22669 
L 32.653094 20.766492 
L 32.805547 5.65146 
L 32.84366 7.139288 
L 33.034226 25.210154 
L 33.091396 21.315488 
L 33.24385 5.641367 
L 33.30102 8.347505 
L 33.472529 25.28652 
L 33.529699 21.840207 
L 33.682153 5.674508 
L 33.739322 7.897561 
L 33.910832 25.31982 
L 33.968002 22.337946 
L 34.139512 5.628957 
L 34.177625 7.479621 
L 34.349135 25.310026 
L 34.425362 20.77254 
L 34.577815 5.571556 
L 34.615928 7.09512 
L 34.806495 25.285291 
L 34.863665 21.325948 
L 35.016118 5.556811 
L 35.073288 8.321694 
L 35.244798 25.366889 
L 35.301968 21.855724 
L 35.454421 5.585451 
L 35.511591 7.865451 
L 35.683101 25.40513 
L 35.740271 22.359002 
L 35.91178 5.548334 
L 35.949894 7.441458 
L 36.121403 25.400665 
L 36.178573 22.834767 
L 36.350083 5.48533 
L 36.407253 8.788228 
L 36.578763 25.365705 
L 36.616876 23.28063 
L 36.788386 5.466158 
L 36.845556 8.296119 
L 37.017066 25.452355 
L 37.074236 21.870178 
L 37.226689 5.490584 
L 37.283859 7.833725 
L 37.455369 25.495719 
L 37.512539 22.380424 
L 37.684049 5.463805 
L 37.741219 8.151205 
L 37.912728 25.507156 
L 37.969898 22.022894 
L 38.122352 5.462914 
L 38.179521 7.695324 
L 38.351031 25.54048 
L 38.408201 22.527682 
L 38.579711 5.402639 
L 38.636881 7.688139 
L 38.808391 25.564935 
L 38.865561 22.532226 
L 39.037071 5.379753 
L 39.075184 7.261465 
L 39.246694 25.556772 
L 39.32292 20.930138 
L 39.475374 5.319423 
L 39.513487 6.867584 
L 39.704053 25.539552 
L 39.761223 21.494962 
L 39.913676 5.303329 
L 39.970846 8.121924 
L 40.142356 25.62368 
L 40.199526 22.035769 
L 40.351979 5.331323 
L 40.409149 7.65665 
L 40.580659 25.664065 
L 40.637829 22.549777 
L 40.809339 5.287473 
L 40.847452 7.223438 
L 41.018962 25.660661 
L 41.076132 23.034931 
L 41.247642 5.222161 
L 41.304812 8.607426 
L 41.476322 25.628448 
L 41.514435 23.48967 
L 41.685945 5.200084 
L 41.743115 8.105038 
L 41.914625 25.719456 
L 41.971794 22.038967 
L 42.124248 5.221934 
L 42.181418 7.631627 
L 42.352927 25.766521 
L 42.410097 22.560182 
L 42.581607 5.193387 
L 42.61972 7.190607 
L 42.79123 25.769913 
L 42.8484 23.053514 
L 43.01991 5.120562 
L 43.07708 8.601311 
L 43.229533 25.729229 
L 43.286703 23.517412 
L 43.458213 5.092121 
L 43.515383 8.090288 
L 43.686893 25.8188 
L 43.744063 22.038922 
L 43.896516 5.108105 
L 43.953686 7.608946 
L 44.125196 25.872741 
L 44.182366 22.568808 
L 44.353875 5.096661 
L 44.391989 7.159024 
L 44.563499 25.882313 
L 44.620669 23.070364 
L 44.792178 5.017607 
L 44.849348 8.59978 
L 45.001801 25.847476 
L 45.058971 23.541516 
L 45.230481 4.982344 
L 45.287651 8.08173 
L 45.459161 25.919418 
L 45.516331 22.03182 
L 45.668784 4.990786 
L 45.725954 7.591901 
L 45.897464 25.981442 
L 45.954634 22.570198 
L 46.126144 4.99802 
L 46.164257 7.132278 
L 46.335767 25.9989 
L 46.392937 23.081334 
L 46.564447 4.910347 
L 46.621617 8.602947 
L 46.77407 25.970881 
L 46.83124 23.562233 
L 47.00275 4.867616 
L 47.059919 8.075206 
L 47.231429 26.022423 
L 47.269543 24.010493 
L 47.441052 4.869569 
L 47.498222 7.576829 
L 47.669732 26.091519 
L 47.726902 22.566928 
L 47.898412 4.89937 
L 47.936525 7.109917 
L 48.108035 26.116234 
L 48.165205 23.086085 
L 48.336715 4.804016 
L 48.393885 8.615891 
L 48.546338 26.09628 
L 48.603508 23.575721 
L 48.775018 4.752861 
L 48.832188 8.078744 
L 49.003698 26.125349 
L 49.041811 24.033193 
L 49.213321 4.746692 
L 49.270491 7.570774 
L 49.442001 26.203355 
L 49.49917 22.554766 
L 49.651624 4.78484 
L 49.708794 7.093443 
L 49.880303 26.237078 
L 49.937473 23.084704 
L 50.108983 4.695491 
L 50.166153 8.633939 
L 50.318606 26.225038 
L 50.375776 23.584975 
L 50.547286 4.636021 
L 50.604456 8.087197 
L 50.775966 26.229448 
L 50.814079 24.052926 
L 50.985589 4.621564 
L 51.042759 7.568913 
L 51.214269 26.316288 
L 51.271439 22.538707 
L 51.423892 4.652409 
L 51.481062 7.081469 
L 51.652572 26.358017 
L 51.709742 23.077381 
L 51.881251 4.588079 
L 51.919365 6.627323 
L 52.090875 26.354775 
L 52.167101 21.336536 
L 52.319554 4.518972 
L 52.357668 6.207241 
L 52.548234 26.332574 
L 52.605404 21.936472 
L 52.757857 4.494616 
L 52.815027 7.575291 
L 52.986537 26.429813 
L 53.043707 22.513051 
L 53.19616 4.515835 
L 53.25333 7.07558 
L 53.42484 26.481168 
L 53.48201 23.062918 
L 53.65352 4.478653 
L 53.691633 6.609598 
L 53.863143 26.486531 
L 53.920313 23.583542 
L 54.091823 4.400369 
L 54.148993 8.125771 
L 54.301446 26.446149 
L 54.358616 24.07227 
L 54.530126 4.367587 
L 54.587295 7.58759 
L 54.758805 26.541343 
L 54.815975 22.479081 
L 54.968428 4.380138 
L 55.025598 7.079203 
L 55.197108 26.602849 
L 55.254278 23.038871 
L 55.425788 4.372793 
L 55.463901 6.602238 
L 55.635411 26.618477 
L 55.692581 23.569972 
L 55.864091 4.283917 
L 55.921261 8.159758 
L 56.073714 26.588013 
L 56.130884 24.069729 
L 56.302394 4.240414 
L 56.359564 7.610394 
L 56.531074 26.652752 
L 56.569187 24.537484 
L 56.740697 4.242713 
L 56.816923 9.402752 
L 56.969377 26.725049 
L 57.00749 24.970228 
L 57.198056 4.26788 
L 57.255226 8.789517 
L 57.407679 26.750907 
L 57.464849 23.550237 
L 57.636359 4.168172 
L 57.693529 8.201027 
L 57.845982 26.730359 
L 57.903152 24.062255 
L 58.074662 4.114341 
L 58.131832 7.639589 
L 58.303342 26.761598 
L 58.341455 24.541062 
L 58.512965 4.106716 
L 58.570135 7.108425 
L 58.741645 26.844814 
L 58.798815 22.96565 
L 58.951268 4.144948 
L 59.008438 6.608582 
L 59.179948 26.882206 
L 59.237118 23.51981 
L 59.408627 4.05446 
L 59.465797 8.253699 
L 59.618251 26.873135 
L 59.675421 24.044248 
L 59.84693 3.988138 
L 59.9041 7.679043 
L 60.07561 26.868809 
L 60.113723 24.536146 
L 60.285233 3.969009 
L 60.342403 7.134153 
L 60.513913 26.963671 
L 60.571083 22.915602 
L 60.723536 3.996827 
L 60.780706 6.621625 
L 60.952216 27.011958 
L 61.009386 23.481612 
L 61.180896 3.942923 
L 61.219009 6.143043 
L 61.390519 27.013516 
L 61.447689 24.017402 
L 61.619199 3.86577 
L 61.676369 7.729597 
L 61.847878 26.971144 
L 61.885992 24.521304 
L 62.057502 3.834926 
L 62.114671 7.173395 
L 62.286181 27.078721 
L 62.343351 22.852857 
L 62.495804 3.851053 
L 62.552974 6.647828 
L 62.724484 27.13949 
L 62.781654 23.430598 
L 62.953164 3.835869 
L 62.991277 6.156298 
L 63.162787 27.153727 
L 63.219957 23.979693 
L 63.391467 3.745465 
L 63.448637 7.790451 
L 63.60109 27.12047 
L 63.65826 24.497685 
L 63.82977 3.702357 
L 63.88694 7.221049 
L 64.05845 27.190984 
L 64.096563 24.981214 
L 64.268073 3.706618 
L 64.344299 9.105659 
L 64.496753 27.264627 
L 64.534866 25.428185 
L 64.725432 3.732556 
L 64.782602 8.470831 
L 64.935055 27.29086 
L 64.992225 23.933832 
L 65.163735 3.62975 
L 65.220905 7.862008 
L 65.373358 27.269686 
L 65.430528 24.46379 
L 65.602038 3.573647 
L 65.659208 7.281054 
L 65.830718 27.298292 
L 65.868831 24.960379 
L 66.040341 3.564385 
L 66.097511 6.729327 
L 66.269021 27.385966 
L 66.326191 23.299906 
L 66.478644 3.602398 
L 66.535814 6.208741 
L 66.707324 27.425895 
L 66.764494 23.875483 
L 66.936003 3.516145 
L 66.993173 7.943517 
L 67.145627 27.417447 
L 67.202797 24.419901 
L 67.374306 3.446484 
L 67.431476 7.348623 
L 67.602986 27.400904 
L 67.641099 24.93056 
L 67.812609 3.424582 
L 67.869779 6.783866 
L 68.041289 27.501942 
L 68.098459 23.216825 
L 68.250912 3.45046 
L 68.308082 6.251603 
L 68.479592 27.555641 
L 68.536762 23.805041 
L 68.708272 3.410068 
L 68.746385 5.7529 
L 68.917895 27.561401 
L 68.975065 24.362949 
L 69.146575 3.325971 
L 69.203745 7.432573 
L 69.356198 27.5188 
L 69.413368 24.887536 
L 69.584878 3.289816 
L 69.642047 6.854089 
L 69.813557 27.613179 
L 69.870727 23.119814 
L 70.02318 3.301286 
L 70.08035 6.306405 
L 70.25186 27.681836 
L 70.30903 23.722953 
L 70.48054 3.308978 
L 70.518653 5.792199 
L 70.690163 27.701871 
L 70.747333 24.295855 
L 70.918843 3.210207 
L 70.976013 7.527096 
L 71.128466 27.673227 
L 71.185636 24.835729 
L 71.357146 3.159438 
L 71.414316 6.933775 
L 71.585826 27.718618 
L 71.623939 25.340565 
L 71.795449 3.157135 
L 71.852619 6.372032 
L 72.024129 27.801819 
L 72.081298 23.628991 
L 72.233752 3.203158 
L 72.290922 5.844212 
L 72.462431 27.836979 
L 72.519601 24.215139 
L 72.691111 3.100821 
L 72.748281 7.635975 
L 72.900734 27.823554 
L 72.957904 24.769652 
L 73.129414 3.033829 
L 73.186584 7.027635 
L 73.224697 12.935628 
L 73.224697 12.935628 
" clip-path="url(#p65429386c8)" style="fill: none; stroke: #f9d5dd; stroke-width: 0.05; stroke-linecap: square"/>
   </g>
   <g id="line2d_5">
    <path d="M 18.74174 6.088079 
L 19.180043 6.079 
L 19.637403 6.073809 
L 20.075706 6.065087 
L 20.533065 6.057604 
L 20.971368 6.047768 
L 21.428728 6.038131 
L 21.867031 6.028485 
L 22.305334 6.017652 
L 22.762693 6.00615 
L 23.200996 5.995481 
L 23.658356 5.983513 
L 24.096659 5.972444 
L 24.554018 5.959595 
L 24.992321 5.948982 
L 25.449681 5.941255 
L 25.887983 5.757048 
L 26.326286 5.907659 
L 26.783646 5.891626 
L 27.221949 5.874871 
L 27.679308 5.859149 
L 28.117611 5.84281 
L 28.574971 5.826277 
L 29.013274 5.809477 
L 29.451577 5.79221 
L 29.908936 5.774464 
L 30.347239 5.757144 
L 30.804599 5.738626 
L 31.242902 5.720716 
L 31.700261 5.701018 
L 32.138564 5.681609 
L 32.595924 5.660779 
L 33.034226 5.641216 
L 33.472529 5.621608 
L 33.929889 5.600727 
L 34.368192 5.580135 
L 34.825551 5.558171 
L 35.263854 5.536798 
L 35.721214 5.514785 
L 36.159517 5.492249 
L 36.616876 5.471162 
L 37.055179 5.455904 
L 37.493482 5.381868 
L 37.950842 5.420419 
L 38.389145 5.226544 
L 38.846504 5.365286 
L 39.284807 5.331733 
L 39.742167 5.303537 
L 40.18047 5.278552 
L 40.618772 5.25418 
L 41.076132 5.227559 
L 41.514435 5.202337 
L 41.971794 5.175186 
L 42.410097 5.149682 
L 42.867457 5.121784 
L 43.30576 5.095664 
L 43.763119 5.068002 
L 44.201422 5.0415 
L 44.639725 5.01487 
L 45.097085 4.986476 
L 45.535388 4.958652 
L 45.992747 4.929361 
L 46.43105 4.901312 
L 46.88841 4.872561 
L 47.326713 4.844738 
L 47.765015 4.816381 
L 48.222375 4.786835 
L 48.660678 4.757842 
L 49.118037 4.728162 
L 49.55634 4.698342 
L 50.0137 4.668303 
L 50.452003 4.638683 
L 50.909362 4.608689 
L 51.347665 4.579362 
L 51.785968 4.549051 
L 52.243328 4.518153 
L 52.681631 4.486927 
L 53.13899 4.456061 
L 53.577293 4.425265 
L 54.034653 4.394722 
L 54.472956 4.363644 
L 54.930315 4.332631 
L 55.368618 4.301958 
L 55.806921 4.270392 
L 56.264281 4.23884 
L 56.702583 4.20684 
L 57.159943 4.175684 
L 57.598246 4.143777 
L 58.055605 4.112614 
L 58.493908 4.081477 
L 58.932211 4.04881 
L 59.389571 4.016724 
L 59.827874 3.98398 
L 60.285233 3.952548 
L 60.723536 3.920179 
L 61.180896 3.888737 
L 61.619199 3.85599 
L 62.076558 3.824206 
L 62.514861 3.792736 
L 62.953164 3.759699 
L 63.410524 3.727732 
L 63.848826 3.69508 
L 64.306186 3.663323 
L 64.744489 3.630825 
L 65.201848 3.598986 
L 65.640151 3.566998 
L 66.078454 3.533843 
L 66.535814 3.501548 
L 66.974117 3.469171 
L 67.431476 3.437238 
L 67.869779 3.405173 
L 68.327139 3.372969 
L 68.765442 3.340828 
L 69.222801 3.308442 
L 69.661104 3.276859 
L 70.099407 3.244999 
L 70.556767 3.212198 
L 70.99507 3.181378 
L 71.452429 3.148431 
L 71.890732 3.118645 
L 72.348092 3.083069 
" clip-path="url(#p65429386c8)" style="fill: none; stroke: #e3738b; stroke-width: 0.5; stroke-linecap: square"/>
   </g>
   <g id="patch_3">
    <path d="M 18.303438 29.077136 
L 18.303438 1.793672 
" style="fill: none; stroke: #000000; stroke-width: 0.2; stroke-linejoin: miter; stroke-linecap: square"/>
   </g>
   <g id="patch_4">
    <path d="M 73.224697 29.077136 
L 73.224697 1.793672 
" style="fill: none; stroke: #000000; stroke-width: 0.2; stroke-linejoin: miter; stroke-linecap: square"/>
   </g>
   <g id="patch_5">
    <path d="M 18.303438 29.077136 
L 73.224697 29.077136 
" style="fill: none; stroke: #000000; stroke-width: 0.2; stroke-linejoin: miter; stroke-linecap: square"/>
   </g>
   <g id="patch_6">
    <path d="M 18.303438 1.793672 
L 73.224697 1.793672 
" style="fill: none; stroke: #000000; stroke-width: 0.2; stroke-linejoin: miter; stroke-linecap: square"/>
   </g>
   <g id="text_5">
    <!-- $A_1$ -->
    <g style="fill: #e3738b" transform="translate(46.878495 8.819236) scale(0.08 -0.08)">
     <defs>
      <path id="STIXGeneral-Italic-41" d="M 3610 0 
L 2042 0 
L 2042 102 
Q 2330 115 2432 192 
Q 2534 269 2534 442 
Q 2534 493 2522 608 
L 2394 1446 
L 986 1446 
L 608 736 
Q 467 474 467 314 
Q 467 122 864 102 
L 864 0 
L -326 0 
L -326 102 
Q -109 147 28 307 
Q 166 467 531 1101 
L 2355 4275 
L 2522 4275 
L 3110 736 
Q 3174 339 3264 230 
Q 3354 122 3610 102 
L 3610 0 
z
M 2362 1677 
L 2074 3360 
L 1120 1677 
L 2362 1677 
z
" transform="scale(0.015625)"/>
     </defs>
     <use xlink:href="#STIXGeneral-Italic-41" transform="translate(0 0.203125)"/>
     <use xlink:href="#STIXGeneral-Regular-31" transform="translate(61.099991 -13.025) scale(0.7)"/>
    </g>
   </g>
   <g id="text_6">
    <!-- $\beta_1$ -->
    <g style="fill: #713948" transform="translate(89.74108 19.907214) scale(0.08 -0.08)">
     <defs>
      <path id="STIXGeneral-Italic-3b2" d="M -58 -813 
L 819 2355 
Q 902 2662 995 2908 
Q 1088 3155 1235 3433 
Q 1382 3712 1555 3901 
Q 1728 4090 1977 4214 
Q 2227 4339 2515 4339 
Q 2816 4339 3053 4182 
Q 3290 4026 3290 3693 
Q 3290 3328 3037 3001 
Q 2784 2675 2470 2534 
L 2470 2528 
Q 2682 2509 2858 2320 
Q 3034 2131 3034 1818 
Q 3034 1376 2694 873 
Q 2355 371 1901 122 
Q 1562 -70 1107 -70 
Q 922 -70 685 38 
L 442 -813 
Q 352 -1126 243 -1312 
L -256 -1312 
Q -154 -1158 -58 -813 
z
M 1491 3053 
L 762 288 
Q 762 186 848 118 
Q 934 51 1069 51 
Q 1594 51 2029 704 
Q 2464 1357 2464 2029 
Q 2464 2406 2208 2406 
Q 2150 2406 2044 2380 
Q 1939 2355 1888 2355 
Q 1805 2355 1750 2396 
Q 1696 2438 1696 2496 
Q 1696 2650 1978 2650 
Q 1997 2650 2099 2630 
Q 2202 2611 2253 2611 
Q 2451 2611 2640 2969 
Q 2829 3328 2829 3622 
Q 2829 3962 2713 4083 
Q 2598 4205 2400 4205 
Q 2080 4205 1846 3865 
Q 1613 3526 1491 3053 
z
" transform="scale(0.015625)"/>
     </defs>
     <use xlink:href="#STIXGeneral-Italic-3b2" transform="translate(0 0.203125)"/>
     <use xlink:href="#STIXGeneral-Regular-31" transform="translate(50.599991 -13.025) scale(0.7)"/>
    </g>
   </g>
  </g>
  <g id="axes_2">
   <g id="patch_7">
    <path d="M 18.303438 59.088947 
L 73.224697 59.088947 
L 73.224697 31.805483 
L 18.303438 31.805483 
L 18.303438 59.088947 
z
" style="fill: none"/>
   </g>
   <g id="matplotlib.axis_3"/>
   <g id="matplotlib.axis_4">
    <g id="ytick_4">
     <g id="line2d_6">
      <g>
       <use xlink:href="#m2596f91739" x="18.303438" y="54.608191" style="stroke: #000000; stroke-width: 0.5"/>
      </g>
     </g>
     <g id="text_7">
      <!-- −5000 -->
      <g transform="translate(5.378125 55.681863) scale(0.03 -0.03)">
       <use xlink:href="#ArialMT-2212"/>
       <use xlink:href="#ArialMT-35" x="58.398438"/>
       <use xlink:href="#ArialMT-30" x="114.013672"/>
       <use xlink:href="#ArialMT-30" x="169.628906"/>
       <use xlink:href="#ArialMT-30" x="225.244141"/>
      </g>
     </g>
    </g>
    <g id="ytick_5">
     <g id="line2d_7">
      <g>
       <use xlink:href="#m2596f91739" x="18.303438" y="45.45863" style="stroke: #000000; stroke-width: 0.5"/>
      </g>
     </g>
     <g id="text_8">
      <!-- 0 -->
      <g transform="translate(12.135156 46.532302) scale(0.03 -0.03)">
       <use xlink:href="#ArialMT-30"/>
      </g>
     </g>
    </g>
    <g id="ytick_6">
     <g id="line2d_8">
      <g>
       <use xlink:href="#m2596f91739" x="18.303438" y="36.309069" style="stroke: #000000; stroke-width: 0.5"/>
      </g>
     </g>
     <g id="text_9">
      <!-- 5000 -->
      <g transform="translate(7.130313 37.382741) scale(0.03 -0.03)">
       <use xlink:href="#ArialMT-35"/>
       <use xlink:href="#ArialMT-30" x="55.615234"/>
       <use xlink:href="#ArialMT-30" x="111.230469"/>
       <use xlink:href="#ArialMT-30" x="166.845703"/>
      </g>
     </g>
    </g>
    <g id="text_10">
     <!-- $x_2(t)$ -->
     <g transform="translate(3.583125 49.027215) rotate(-90) scale(0.04 -0.04)">
      <defs>
       <path id="STIXGeneral-Regular-32" d="M 3034 877 
L 2688 0 
L 186 0 
L 186 77 
L 1325 1286 
Q 1773 1754 1965 2144 
Q 2157 2534 2157 2950 
Q 2157 3379 1920 3616 
Q 1683 3853 1267 3853 
Q 922 3853 720 3673 
Q 518 3494 326 3021 
L 192 3053 
Q 301 3648 630 3987 
Q 960 4326 1523 4326 
Q 2054 4326 2380 4006 
Q 2707 3686 2707 3200 
Q 2707 2477 1888 1613 
L 832 486 
L 2330 486 
Q 2541 486 2665 569 
Q 2790 653 2944 915 
L 3034 877 
z
" transform="scale(0.015625)"/>
      </defs>
      <use xlink:href="#STIXGeneral-Italic-78" transform="translate(0 0.40625)"/>
      <use xlink:href="#STIXGeneral-Regular-32" transform="translate(44.399994 -12.821875) scale(0.7)"/>
      <use xlink:href="#STIXGeneral-Regular-28" transform="translate(83.809358 0.40625)"/>
      <use xlink:href="#STIXGeneral-Italic-74" transform="translate(117.109346 0.40625)"/>
      <use xlink:href="#STIXGeneral-Regular-29" transform="translate(144.909334 0.40625)"/>
     </g>
    </g>
   </g>
   <g id="line2d_9">
    <path d="M 18.303438 33.930174 
L 18.494004 57.84879 
L 18.570231 51.856101 
L 18.722684 33.05585 
L 18.760797 35.13834 
L 18.932307 57.780214 
L 19.008533 52.502243 
L 19.160987 33.04564 
L 19.218157 36.791112 
L 19.389666 57.805125 
L 19.42778 55.446899 
L 19.59929 33.083771 
L 19.65646 36.256998 
L 19.827969 57.848631 
L 19.885139 53.709345 
L 20.056649 33.16089 
L 20.094762 35.760271 
L 20.266272 57.843995 
L 20.323442 54.265126 
L 20.494952 33.08729 
L 20.552122 37.57323 
L 20.704575 57.791335 
L 20.761745 54.786019 
L 20.933255 33.061757 
L 20.990425 36.997677 
L 21.161935 57.759779 
L 21.200048 55.270697 
L 21.371558 33.084265 
L 21.428728 36.455075 
L 21.600238 57.819496 
L 21.657408 53.494001 
L 21.809861 33.154844 
L 21.867031 35.947454 
L 22.038541 57.830951 
L 22.09571 54.059222 
L 22.26722 33.129623 
L 22.305334 35.477542 
L 22.476843 57.794436 
L 22.534013 54.590673 
L 22.705523 33.088097 
L 22.762693 37.212698 
L 22.915146 57.709931 
L 22.972316 55.087348 
L 23.143826 33.094664 
L 23.200996 36.659079 
L 23.372506 57.780777 
L 23.429676 53.273224 
L 23.582129 33.149233 
L 23.639299 36.140628 
L 23.810809 57.808094 
L 23.867979 53.848338 
L 24.039489 33.181078 
L 24.077602 35.658829 
L 24.249112 57.787296 
L 24.306282 54.390026 
L 24.477791 33.123908 
L 24.534961 37.432795 
L 24.687415 57.718692 
L 24.744585 54.896256 
L 24.916094 33.114595 
L 24.973264 36.870901 
L 25.144774 57.731977 
L 25.182887 55.365474 
L 25.354397 33.152918 
L 25.411567 36.342531 
L 25.583077 57.775078 
L 25.640247 53.628071 
L 25.7927 33.238661 
L 25.84987 35.849171 
L 26.02138 57.770144 
L 26.07855 54.179876 
L 26.25006 33.208972 
L 26.30723 36.047172 
L 26.47874 57.767043 
L 26.535909 53.957566 
L 26.707419 33.20251 
L 26.745533 35.57735 
L 26.917042 57.733017 
L 26.974212 54.487802 
L 27.145722 33.158711 
L 27.202892 37.317765 
L 27.355345 57.651635 
L 27.412515 54.982095 
L 27.584025 33.162512 
L 27.641195 36.767213 
L 27.812705 57.702853 
L 27.869875 53.163267 
L 28.022328 33.213783 
L 28.079498 36.250849 
L 28.251008 57.732997 
L 28.308178 53.736316 
L 28.479688 33.265527 
L 28.517801 35.770353 
L 28.689311 57.715403 
L 28.746481 54.276224 
L 28.91799 33.205938 
L 28.97516 37.54859 
L 29.127614 57.650442 
L 29.184784 54.780896 
L 29.356293 33.193602 
L 29.413463 36.988245 
L 29.584973 57.643495 
L 29.623086 55.249988 
L 29.794596 33.228766 
L 29.851766 36.460692 
L 30.023276 57.689427 
L 30.080446 53.51004 
L 30.232899 33.31124 
L 30.290069 35.969235 
L 30.461579 57.687827 
L 30.518749 54.059595 
L 30.690259 33.262427 
L 30.747429 37.782694 
L 30.899882 57.638807 
L 30.957052 54.574891 
L 31.128562 33.234254 
L 31.185732 37.213344 
L 31.357241 57.57418 
L 31.395355 55.053704 
L 31.566865 33.253319 
L 31.624035 36.677571 
L 31.795544 57.635802 
L 31.852714 53.276437 
L 32.005167 33.31934 
L 32.062337 36.176373 
L 32.233847 57.650205 
L 32.291017 53.834367 
L 32.462527 33.328559 
L 32.50064 35.711129 
L 32.67215 57.617241 
L 32.72932 54.359548 
L 32.90083 33.284118 
L 32.958 37.444963 
L 33.110453 57.537052 
L 33.167623 54.849274 
L 33.339133 33.286966 
L 33.396303 36.898501 
L 33.567813 57.571841 
L 33.605926 55.301819 
L 33.777436 33.336895 
L 33.853662 38.881872 
L 34.006116 57.602094 
L 34.044229 55.715362 
L 34.234795 33.403637 
L 34.291965 38.267989 
L 34.444418 57.585571 
L 34.501588 54.138239 
L 34.673098 33.343835 
L 34.730268 37.683107 
L 34.882721 57.522347 
L 34.939891 54.638231 
L 35.111401 33.330855 
L 35.168571 37.128872 
L 35.340081 57.499457 
L 35.378194 55.1018 
L 35.549704 33.364749 
L 35.606874 36.607921 
L 35.778384 57.545745 
L 35.835554 53.3682 
L 35.988007 33.444888 
L 36.045177 36.122288 
L 36.216687 57.54545 
L 36.273857 53.911778 
L 36.445366 33.413417 
L 36.48348 35.672828 
L 36.65499 57.498212 
L 36.731216 51.935879 
L 36.883669 33.384479 
L 36.921783 35.262379 
L 37.112349 57.41774 
L 37.169519 52.547092 
L 37.321972 33.402164 
L 37.379142 36.832691 
L 37.550652 57.479734 
L 37.607822 53.12951 
L 37.779332 33.408708 
L 37.817445 35.23393 
L 38.008012 57.403776 
L 38.065182 52.607846 
L 38.217635 33.432632 
L 38.274805 36.786452 
L 38.446315 57.459297 
L 38.503484 53.184231 
L 38.674994 33.443347 
L 38.713108 34.91569 
L 38.903674 57.441309 
L 38.960844 53.123042 
L 39.113297 33.509273 
L 39.170467 36.351698 
L 39.341977 57.45428 
L 39.399147 53.671192 
L 39.570657 33.530453 
L 39.60877 35.89452 
L 39.78028 57.420674 
L 39.83745 54.186487 
L 40.00896 33.487914 
L 40.06613 37.609364 
L 40.218583 57.34092 
L 40.275753 54.666739 
L 40.447263 33.491803 
L 40.504433 37.074 
L 40.675942 57.362899 
L 40.714056 55.110304 
L 40.885566 33.541745 
L 40.961792 39.032214 
L 41.114245 57.391843 
L 41.152359 55.515625 
L 41.342925 33.620147 
L 41.400095 38.430062 
L 41.552548 57.374908 
L 41.609718 53.956437 
L 41.781228 33.562224 
L 41.838398 37.855984 
L 41.990851 57.311987 
L 42.048021 54.446652 
L 42.219531 33.550345 
L 42.276701 37.312454 
L 42.448211 57.276529 
L 42.486324 54.900337 
L 42.657834 33.584165 
L 42.715004 36.801941 
L 42.886514 57.321368 
L 42.943684 53.189917 
L 43.096137 33.663589 
L 43.153307 36.325231 
L 43.324816 57.320211 
L 43.381986 53.722922 
L 43.553496 33.645679 
L 43.59161 35.8851 
L 43.763119 57.273119 
L 43.820289 54.222397 
L 43.991799 33.618015 
L 44.048969 37.553116 
L 44.220479 57.181323 
L 44.258592 54.686576 
L 44.430102 33.636012 
L 44.487272 37.033561 
L 44.658782 57.241281 
L 44.715952 52.944892 
L 44.868405 33.699443 
L 44.925575 36.548322 
L 45.097085 57.255719 
L 45.154255 53.484386 
L 45.325765 33.73819 
L 45.363878 36.098995 
L 45.535388 57.224684 
L 45.592558 53.99175 
L 45.764067 33.694851 
L 45.821237 37.799245 
L 45.973691 57.148215 
L 46.03086 54.465223 
L 46.20237 33.696791 
L 46.25954 37.270716 
L 46.43105 57.151737 
L 46.469163 54.902868 
L 46.640673 33.744221 
L 46.697843 36.775051 
L 46.869353 57.181434 
L 46.926523 53.241994 
L 47.078976 33.836696 
L 47.136146 36.315405 
L 47.307656 57.16593 
L 47.364826 53.757602 
L 47.536336 33.780054 
L 47.593506 38.045576 
L 47.745959 57.105523 
L 47.803129 54.239574 
L 47.974639 33.766681 
L 48.031809 37.511232 
L 48.203318 57.053672 
L 48.241432 54.686832 
L 48.412942 33.798335 
L 48.470111 37.008709 
L 48.641621 57.099279 
L 48.698791 52.996017 
L 48.851244 33.87498 
L 48.908414 36.539951 
L 49.079924 57.099639 
L 49.137094 53.519205 
L 49.308604 33.874729 
L 49.346717 36.107263 
L 49.518227 57.055265 
L 49.575397 54.009998 
L 49.746907 33.845762 
L 49.804077 37.756054 
L 49.95653 56.966075 
L 50.0137 54.467329 
L 50.18521 33.861849 
L 50.24238 37.244659 
L 50.41389 57.008526 
L 50.47106 52.748517 
L 50.623513 33.922688 
L 50.680683 36.767035 
L 50.852192 57.024224 
L 50.909362 53.279407 
L 51.080872 33.977331 
L 51.118986 36.324392 
L 51.290495 56.995126 
L 51.347665 53.778186 
L 51.519175 33.933467 
L 51.576345 38.002473 
L 51.728798 56.921621 
L 51.785968 54.24307 
L 51.957478 33.934136 
L 52.014648 37.484811 
L 52.186158 56.908952 
L 52.224271 54.672808 
L 52.395781 33.979149 
L 52.452951 36.999176 
L 52.624461 56.939739 
L 52.681631 53.034263 
L 52.834084 34.068191 
L 52.891254 36.546885 
L 53.062764 56.925873 
L 53.119934 53.541126 
L 53.291443 34.029027 
L 53.348613 38.250553 
L 53.501067 56.86758 
L 53.558236 54.014736 
L 53.729746 34.014522 
L 53.786916 37.724915 
L 53.958426 56.800678 
L 53.996539 54.45374 
L 54.168049 34.044305 
L 54.225219 37.231683 
L 54.396729 56.846268 
L 54.453899 52.787697 
L 54.606352 34.117883 
L 54.663522 36.772178 
L 54.835032 56.848002 
L 54.892202 53.301061 
L 55.063712 34.13306 
L 55.101825 36.347536 
L 55.273335 56.805801 
L 55.330505 53.782962 
L 55.502015 34.103687 
L 55.559185 37.971167 
L 55.711638 56.719716 
L 55.768808 54.230705 
L 55.940318 34.118337 
L 55.997487 37.47065 
L 56.168997 56.74617 
L 56.226167 52.539182 
L 56.37862 34.176375 
L 56.43579 37.002389 
L 56.6073 56.762915 
L 56.66447 53.060059 
L 56.83598 34.244841 
L 56.874093 36.567924 
L 57.045603 56.735578 
L 57.102773 53.549543 
L 57.274283 34.200855 
L 57.331453 38.217464 
L 57.483906 56.664691 
L 57.541076 54.00563 
L 57.712586 34.200469 
L 57.769756 37.70969 
L 57.941266 56.638109 
L 57.979379 54.426946 
L 58.150889 34.243631 
L 58.208059 37.233901 
L 58.379568 56.66909 
L 58.436738 52.816906 
L 58.589192 34.329814 
L 58.646362 36.792232 
L 58.817871 56.656769 
L 58.875041 53.312205 
L 59.046551 34.305755 
L 59.084664 36.385409 
L 59.256174 56.601093 
L 59.332401 51.480641 
L 59.484854 34.290467 
L 59.522967 36.014531 
L 59.713534 56.522065 
L 59.770704 52.040226 
L 59.923157 34.318554 
L 59.980327 37.467973 
L 60.151837 56.567224 
L 60.209007 52.57186 
L 60.36146 34.389774 
L 60.41863 37.017251 
L 60.59014 56.569193 
L 60.64731 53.073793 
L 60.818819 34.417436 
L 60.856933 36.601737 
L 61.028443 56.528309 
L 61.085612 53.544176 
L 61.257122 34.388053 
L 61.314292 38.194102 
L 61.466745 56.444989 
L 61.523915 53.98166 
L 61.695425 34.401482 
L 61.752595 37.705089 
L 61.924105 56.458592 
L 61.962218 54.385069 
L 62.133728 34.457738 
L 62.209955 39.516314 
L 62.362408 56.475412 
L 62.400521 54.752276 
L 62.591088 34.536843 
L 62.648258 38.964283 
L 62.800711 56.449454 
L 62.857881 53.310688 
L 63.029391 34.493197 
L 63.086561 38.439476 
L 63.239014 56.38111 
L 63.296184 53.756507 
L 63.467694 34.492174 
L 63.524863 37.943104 
L 63.696373 56.343536 
L 63.734487 54.168433 
L 63.905996 34.533876 
L 63.963166 37.478339 
L 64.134676 56.374215 
L 64.191846 52.593983 
L 64.344299 34.617715 
L 64.401469 37.04662 
L 64.572979 56.362458 
L 64.630149 53.077785 
L 64.801659 34.605088 
L 64.839772 36.649333 
L 65.011282 56.308352 
L 65.087509 51.289141 
L 65.239962 34.590188 
L 65.278075 36.288322 
L 65.468642 56.221322 
L 65.525812 51.833804 
L 65.678265 34.617354 
L 65.735435 37.711735 
L 65.906944 56.265786 
L 65.964114 52.351873 
L 66.116568 34.686371 
L 66.173738 37.272551 
L 66.345247 56.268062 
L 66.402417 52.841634 
L 66.573927 34.723354 
L 66.61204 36.866329 
L 66.78355 56.22806 
L 66.84072 53.300565 
L 67.01223 34.694563 
L 67.0694 38.419758 
L 67.221853 56.14631 
L 67.279023 53.726788 
L 67.450533 34.70783 
L 67.507703 37.943011 
L 67.679213 56.150261 
L 67.717326 54.119049 
L 67.888836 34.7627 
L 67.965062 39.708442 
L 68.117516 56.166376 
L 68.155629 54.476073 
L 68.346195 34.847874 
L 68.403365 39.171236 
L 68.555819 56.141054 
L 68.612989 53.070194 
L 68.784498 34.805648 
L 68.841668 38.660364 
L 68.994121 56.074224 
L 69.051291 53.503838 
L 69.222801 34.805182 
L 69.279971 38.178126 
L 69.451481 56.029943 
L 69.489594 53.903617 
L 69.661104 34.84592 
L 69.718274 37.726419 
L 69.889784 56.059807 
L 69.946954 52.37002 
L 70.099407 34.927682 
L 70.156577 37.305932 
L 70.328087 56.048003 
L 70.385257 52.841184 
L 70.556767 34.922657 
L 70.59488 36.919337 
L 70.76639 55.994794 
L 70.82356 53.281163 
L 70.99507 34.908695 
L 71.052239 38.410898 
L 71.223749 55.904067 
L 71.261863 53.688602 
L 71.433372 34.935868 
L 71.490542 37.953042 
L 71.662052 55.946502 
L 71.719222 52.13621 
L 71.871675 35.003884 
L 71.928845 37.526884 
L 72.100355 55.947974 
L 72.157525 52.611272 
L 72.329035 35.045454 
L 72.367148 37.133671 
L 72.538658 55.90862 
L 72.595828 53.056684 
L 72.767338 35.018189 
L 72.824508 38.644404 
L 72.976961 55.828605 
L 73.034131 53.470906 
L 73.205641 35.031724 
L 73.224697 35.374031 
" clip-path="url(#p77729e8045)" style="fill: none; stroke: #dce4fa; stroke-width: 0.05; stroke-linecap: square"/>
   </g>
   <g id="line2d_10">
    <path d="M 18.74174 33.04867 
L 19.180043 33.052879 
L 19.637403 33.057807 
L 20.075706 33.061848 
L 20.533065 33.06681 
L 20.971368 33.071242 
L 21.428728 33.076618 
L 21.867031 33.081719 
L 22.305334 33.086887 
L 22.762693 33.092795 
L 23.200996 33.098577 
L 23.658356 33.104942 
L 24.096659 33.111343 
L 24.554018 33.117861 
L 24.992321 33.124908 
L 25.449681 33.131936 
L 25.887983 33.314639 
L 26.326286 33.128619 
L 26.783646 33.152961 
L 27.221949 33.16183 
L 27.679308 33.171306 
L 28.117611 33.179183 
L 28.574971 33.188316 
L 29.013274 33.197394 
L 29.451577 33.206118 
L 29.908936 33.215738 
L 30.347239 33.225436 
L 30.804599 33.235662 
L 31.242902 33.245685 
L 31.700261 33.25593 
L 32.138564 33.266716 
L 32.595924 33.27758 
L 33.034226 33.288193 
L 33.472529 33.299994 
L 33.929889 33.311421 
L 34.368192 33.323387 
L 34.825551 33.334775 
L 35.263854 33.347872 
L 35.721214 33.359963 
L 36.159517 33.37379 
L 36.616876 33.386749 
L 37.055179 33.405584 
L 37.493482 33.333947 
L 37.950842 33.436297 
L 38.389145 33.462492 
L 38.846504 33.457495 
L 39.284807 33.465748 
L 39.742167 33.48128 
L 40.18047 33.494711 
L 40.618772 33.508341 
L 41.076132 33.524083 
L 41.514435 33.538325 
L 41.971794 33.554232 
L 42.410097 33.569301 
L 42.867457 33.58529 
L 43.30576 33.600997 
L 43.763119 33.617359 
L 44.201422 33.633386 
L 44.639725 33.649824 
L 45.097085 33.666662 
L 45.535388 33.683596 
L 45.992747 33.700677 
L 46.43105 33.718209 
L 46.88841 33.735666 
L 47.326713 33.753049 
L 47.765015 33.771075 
L 48.222375 33.78885 
L 48.660678 33.807423 
L 49.118037 33.825571 
L 49.55634 33.844402 
L 50.0137 33.862896 
L 50.452003 33.882351 
L 50.909362 33.901155 
L 51.347665 33.920154 
L 51.785968 33.940079 
L 52.243328 33.9594 
L 52.681631 33.979704 
L 53.13899 33.999424 
L 53.577293 34.02021 
L 54.034653 34.040204 
L 54.472956 34.061158 
L 54.930315 34.08126 
L 55.368618 34.101736 
L 55.806921 34.123238 
L 56.264281 34.143805 
L 56.702583 34.16562 
L 57.159943 34.18681 
L 57.598246 34.208867 
L 58.055605 34.23037 
L 58.493908 34.251897 
L 58.932211 34.274319 
L 59.389571 34.296284 
L 59.827874 34.319115 
L 60.285233 34.341586 
L 60.723536 34.364537 
L 61.180896 34.387075 
L 61.619199 34.410072 
L 62.076558 34.432998 
L 62.514861 34.455722 
L 62.953164 34.479039 
L 63.410524 34.502453 
L 63.848826 34.526172 
L 64.306186 34.549869 
L 64.744489 34.573826 
L 65.201848 34.597836 
L 65.640151 34.621354 
L 66.078454 34.645536 
L 66.535814 34.670114 
L 66.974117 34.694577 
L 67.431476 34.719291 
L 67.869779 34.743778 
L 68.327139 34.768481 
L 68.765442 34.79308 
L 69.222801 34.818127 
L 69.661104 34.842428 
L 70.099407 34.867315 
L 70.556767 34.892634 
L 70.99507 34.917785 
L 71.452429 34.942909 
L 71.890732 34.96771 
L 72.348092 34.989877 
" clip-path="url(#p77729e8045)" style="fill: none; stroke: #8ca5ea; stroke-width: 0.5; stroke-linecap: square"/>
   </g>
   <g id="patch_8">
    <path d="M 18.303438 59.088947 
L 18.303438 31.805483 
" style="fill: none; stroke: #000000; stroke-width: 0.2; stroke-linejoin: miter; stroke-linecap: square"/>
   </g>
   <g id="patch_9">
    <path d="M 73.224697 59.088947 
L 73.224697 31.805483 
" style="fill: none; stroke: #000000; stroke-width: 0.2; stroke-linejoin: miter; stroke-linecap: square"/>
   </g>
   <g id="patch_10">
    <path d="M 18.303438 59.088947 
L 73.224697 59.088947 
" style="fill: none; stroke: #000000; stroke-width: 0.2; stroke-linejoin: miter; stroke-linecap: square"/>
   </g>
   <g id="patch_11">
    <path d="M 18.303438 31.805483 
L 73.224697 31.805483 
" style="fill: none; stroke: #000000; stroke-width: 0.2; stroke-linejoin: miter; stroke-linecap: square"/>
   </g>
   <g id="text_11">
    <!-- $A_2$ -->
    <g style="fill: #8ca5ea" transform="translate(46.878495 39.968894) scale(0.08 -0.08)">
     <use xlink:href="#STIXGeneral-Italic-41" transform="translate(0 0.203125)"/>
     <use xlink:href="#STIXGeneral-Regular-32" transform="translate(61.099991 -13.025) scale(0.7)"/>
    </g>
   </g>
   <g id="text_12">
    <!-- $\beta_2$ -->
    <g style="fill: #495373" transform="translate(89.74108 49.118454) scale(0.08 -0.08)">
     <use xlink:href="#STIXGeneral-Italic-3b2" transform="translate(0 0.203125)"/>
     <use xlink:href="#STIXGeneral-Regular-32" transform="translate(50.599991 -13.025) scale(0.7)"/>
    </g>
   </g>
  </g>
  <g id="axes_3">
   <g id="patch_12">
    <path d="M 18.303438 89.100758 
L 73.224697 89.100758 
L 73.224697 61.817294 
L 18.303438 61.817294 
L 18.303438 89.100758 
z
" style="fill: none"/>
   </g>
   <g id="matplotlib.axis_5">
    <g id="xtick_1">
     <g id="line2d_11">
      <defs>
       <path id="m7463280d05" d="M 0 0 
L 0 1 
" style="stroke: #000000; stroke-width: 0.5"/>
      </defs>
      <g>
       <use xlink:href="#m7463280d05" x="18.303438" y="89.100758" style="stroke: #000000; stroke-width: 0.5"/>
      </g>
     </g>
     <g id="text_13">
      <!-- 0 -->
      <g transform="translate(17.469297 95.748102) scale(0.03 -0.03)">
       <use xlink:href="#ArialMT-30"/>
      </g>
     </g>
    </g>
    <g id="xtick_2">
     <g id="line2d_12">
      <g>
       <use xlink:href="#m7463280d05" x="32.590966" y="89.100758" style="stroke: #000000; stroke-width: 0.5"/>
      </g>
     </g>
     <g id="text_14">
      <!-- 50 -->
      <g transform="translate(30.922685 95.748102) scale(0.03 -0.03)">
       <use xlink:href="#ArialMT-35"/>
       <use xlink:href="#ArialMT-30" x="55.615234"/>
      </g>
     </g>
    </g>
    <g id="xtick_3">
     <g id="line2d_13">
      <g>
       <use xlink:href="#m7463280d05" x="46.878495" y="89.100758" style="stroke: #000000; stroke-width: 0.5"/>
      </g>
     </g>
     <g id="text_15">
      <!-- 100 -->
      <g transform="translate(44.376073 95.748102) scale(0.03 -0.03)">
       <defs>
        <path id="ArialMT-31" d="M 2384 0 
L 1822 0 
L 1822 3584 
Q 1619 3391 1289 3197 
Q 959 3003 697 2906 
L 697 3450 
Q 1169 3672 1522 3987 
Q 1875 4303 2022 4600 
L 2384 4600 
L 2384 0 
z
" transform="scale(0.015625)"/>
       </defs>
       <use xlink:href="#ArialMT-31"/>
       <use xlink:href="#ArialMT-30" x="55.615234"/>
       <use xlink:href="#ArialMT-30" x="111.230469"/>
      </g>
     </g>
    </g>
    <g id="xtick_4">
     <g id="line2d_14">
      <g>
       <use xlink:href="#m7463280d05" x="61.166023" y="89.100758" style="stroke: #000000; stroke-width: 0.5"/>
      </g>
     </g>
     <g id="text_16">
      <!-- 150 -->
      <g transform="translate(58.663601 95.748102) scale(0.03 -0.03)">
       <use xlink:href="#ArialMT-31"/>
       <use xlink:href="#ArialMT-35" x="55.615234"/>
       <use xlink:href="#ArialMT-30" x="111.230469"/>
      </g>
     </g>
    </g>
    <g id="text_17">
     <!-- Time ($h$) -->
     <g transform="translate(38.424067 100.264352) scale(0.04 -0.04)">
      <defs>
       <path id="ArialMT-54" d="M 1659 0 
L 1659 4041 
L 150 4041 
L 150 4581 
L 3781 4581 
L 3781 4041 
L 2266 4041 
L 2266 0 
L 1659 0 
z
" transform="scale(0.015625)"/>
       <path id="ArialMT-69" d="M 425 3934 
L 425 4581 
L 988 4581 
L 988 3934 
L 425 3934 
z
M 425 0 
L 425 3319 
L 988 3319 
L 988 0 
L 425 0 
z
" transform="scale(0.015625)"/>
       <path id="ArialMT-6d" d="M 422 0 
L 422 3319 
L 925 3319 
L 925 2853 
Q 1081 3097 1340 3245 
Q 1600 3394 1931 3394 
Q 2300 3394 2536 3241 
Q 2772 3088 2869 2813 
Q 3263 3394 3894 3394 
Q 4388 3394 4653 3120 
Q 4919 2847 4919 2278 
L 4919 0 
L 4359 0 
L 4359 2091 
Q 4359 2428 4304 2576 
Q 4250 2725 4106 2815 
Q 3963 2906 3769 2906 
Q 3419 2906 3187 2673 
Q 2956 2441 2956 1928 
L 2956 0 
L 2394 0 
L 2394 2156 
Q 2394 2531 2256 2718 
Q 2119 2906 1806 2906 
Q 1569 2906 1367 2781 
Q 1166 2656 1075 2415 
Q 984 2175 984 1722 
L 984 0 
L 422 0 
z
" transform="scale(0.015625)"/>
       <path id="ArialMT-65" d="M 2694 1069 
L 3275 997 
Q 3138 488 2766 206 
Q 2394 -75 1816 -75 
Q 1088 -75 661 373 
Q 234 822 234 1631 
Q 234 2469 665 2931 
Q 1097 3394 1784 3394 
Q 2450 3394 2872 2941 
Q 3294 2488 3294 1666 
Q 3294 1616 3291 1516 
L 816 1516 
Q 847 969 1125 678 
Q 1403 388 1819 388 
Q 2128 388 2347 550 
Q 2566 713 2694 1069 
z
M 847 1978 
L 2700 1978 
Q 2663 2397 2488 2606 
Q 2219 2931 1791 2931 
Q 1403 2931 1139 2672 
Q 875 2413 847 1978 
z
" transform="scale(0.015625)"/>
       <path id="ArialMT-20" transform="scale(0.015625)"/>
       <path id="ArialMT-28" d="M 1497 -1347 
Q 1031 -759 709 28 
Q 388 816 388 1659 
Q 388 2403 628 3084 
Q 909 3875 1497 4659 
L 1900 4659 
Q 1522 4009 1400 3731 
Q 1209 3300 1100 2831 
Q 966 2247 966 1656 
Q 966 153 1900 -1347 
L 1497 -1347 
z
" transform="scale(0.015625)"/>
       <path id="STIXGeneral-Italic-68" d="M 2976 755 
L 3059 672 
Q 2765 256 2566 99 
Q 2368 -58 2125 -58 
Q 1997 -58 1920 16 
Q 1843 90 1843 211 
Q 1843 320 1971 800 
L 2323 2125 
Q 2368 2304 2368 2336 
Q 2368 2496 2189 2496 
Q 2016 2496 1744 2240 
Q 1472 1984 1216 1600 
Q 1018 1293 902 1001 
Q 787 710 602 0 
L 122 0 
L 1056 3546 
Q 1139 3866 1139 3942 
Q 1139 4019 1056 4060 
Q 973 4102 877 4102 
L 704 4102 
L 704 4198 
Q 1190 4256 1709 4371 
L 1754 4333 
L 979 1472 
Q 1811 2822 2451 2822 
Q 2662 2822 2764 2704 
Q 2867 2586 2867 2394 
Q 2867 2118 2560 1158 
Q 2349 512 2349 358 
Q 2349 243 2451 243 
Q 2528 243 2621 336 
Q 2714 429 2976 755 
z
" transform="scale(0.015625)"/>
       <path id="ArialMT-29" d="M 791 -1347 
L 388 -1347 
Q 1322 153 1322 1656 
Q 1322 2244 1188 2822 
Q 1081 3291 891 3722 
Q 769 4003 388 4659 
L 791 4659 
Q 1378 3875 1659 3084 
Q 1900 2403 1900 1659 
Q 1900 816 1576 28 
Q 1253 -759 791 -1347 
z
" transform="scale(0.015625)"/>
      </defs>
      <use xlink:href="#ArialMT-54" transform="translate(0 0.203125)"/>
      <use xlink:href="#ArialMT-69" transform="translate(61.083984 0.203125)"/>
      <use xlink:href="#ArialMT-6d" transform="translate(83.300781 0.203125)"/>
      <use xlink:href="#ArialMT-65" transform="translate(166.601562 0.203125)"/>
      <use xlink:href="#ArialMT-20" transform="translate(222.216797 0.203125)"/>
      <use xlink:href="#ArialMT-28" transform="translate(250 0.203125)"/>
      <use xlink:href="#STIXGeneral-Italic-68" transform="translate(283.300781 0.203125)"/>
      <use xlink:href="#ArialMT-29" transform="translate(333.300766 0.203125)"/>
     </g>
    </g>
   </g>
   <g id="matplotlib.axis_6">
    <g id="ytick_7">
     <g id="line2d_15">
      <g>
       <use xlink:href="#m2596f91739" x="18.303438" y="87.07066" style="stroke: #000000; stroke-width: 0.5"/>
      </g>
     </g>
     <g id="text_18">
      <!-- −5000 -->
      <g transform="translate(5.378125 88.144332) scale(0.03 -0.03)">
       <use xlink:href="#ArialMT-2212"/>
       <use xlink:href="#ArialMT-35" x="58.398438"/>
       <use xlink:href="#ArialMT-30" x="114.013672"/>
       <use xlink:href="#ArialMT-30" x="169.628906"/>
       <use xlink:href="#ArialMT-30" x="225.244141"/>
      </g>
     </g>
    </g>
    <g id="ytick_8">
     <g id="line2d_16">
      <g>
       <use xlink:href="#m2596f91739" x="18.303438" y="75.530886" style="stroke: #000000; stroke-width: 0.5"/>
      </g>
     </g>
     <g id="text_19">
      <!-- 0 -->
      <g transform="translate(12.135156 76.604558) scale(0.03 -0.03)">
       <use xlink:href="#ArialMT-30"/>
      </g>
     </g>
    </g>
    <g id="ytick_9">
     <g id="line2d_17">
      <g>
       <use xlink:href="#m2596f91739" x="18.303438" y="63.991112" style="stroke: #000000; stroke-width: 0.5"/>
      </g>
     </g>
     <g id="text_20">
      <!-- 5000 -->
      <g transform="translate(7.130313 65.064784) scale(0.03 -0.03)">
       <use xlink:href="#ArialMT-35"/>
       <use xlink:href="#ArialMT-30" x="55.615234"/>
       <use xlink:href="#ArialMT-30" x="111.230469"/>
       <use xlink:href="#ArialMT-30" x="166.845703"/>
      </g>
     </g>
    </g>
    <g id="text_21">
     <!-- $x_3(t)$ -->
     <g transform="translate(3.583125 79.039026) rotate(-90) scale(0.04 -0.04)">
      <defs>
       <path id="STIXGeneral-Regular-33" d="M 390 3264 
L 288 3290 
Q 435 3770 748 4048 
Q 1062 4326 1542 4326 
Q 1990 4326 2265 4083 
Q 2541 3840 2541 3450 
Q 2541 2925 1946 2566 
Q 2298 2413 2477 2227 
Q 2758 1914 2758 1402 
Q 2758 890 2464 506 
Q 2246 211 1840 60 
Q 1434 -90 979 -90 
Q 262 -90 262 275 
Q 262 378 339 442 
Q 416 506 525 506 
Q 685 506 915 339 
Q 1197 141 1466 141 
Q 1818 141 2058 425 
Q 2298 710 2298 1120 
Q 2298 1856 1632 2048 
Q 1434 2112 979 2112 
L 979 2202 
Q 1338 2323 1517 2432 
Q 2035 2726 2035 3290 
Q 2035 3610 1852 3776 
Q 1670 3942 1344 3942 
Q 768 3942 390 3264 
z
" transform="scale(0.015625)"/>
      </defs>
      <use xlink:href="#STIXGeneral-Italic-78" transform="translate(0 0.40625)"/>
      <use xlink:href="#STIXGeneral-Regular-33" transform="translate(44.399994 -12.821875) scale(0.7)"/>
      <use xlink:href="#STIXGeneral-Regular-28" transform="translate(83.809358 0.40625)"/>
      <use xlink:href="#STIXGeneral-Italic-74" transform="translate(117.109346 0.40625)"/>
      <use xlink:href="#STIXGeneral-Regular-29" transform="translate(144.909334 0.40625)"/>
     </g>
    </g>
   </g>
   <g id="line2d_18">
    <path d="M 18.303438 70.418702 
L 18.379664 63.248918 
L 18.436834 66.566722 
L 18.608344 87.84671 
L 18.665514 83.588465 
L 18.817967 63.312718 
L 18.875137 66.086752 
L 19.046647 87.860235 
L 19.103817 84.12192 
L 19.275327 63.283505 
L 19.31344 65.639074 
L 19.48495 87.83182 
L 19.54212 84.626563 
L 19.713629 63.236453 
L 19.770799 67.401193 
L 19.923253 87.760897 
L 19.980423 85.099026 
L 20.151932 63.23154 
L 20.209102 66.871429 
L 20.380612 87.81797 
L 20.418725 85.538269 
L 20.590235 63.26935 
L 20.666462 68.907288 
L 20.818915 87.857277 
L 20.857028 85.942687 
L 21.047595 63.332087 
L 21.104765 68.309169 
L 21.257218 87.854133 
L 21.314388 84.323828 
L 21.485898 63.259411 
L 21.543068 67.736244 
L 21.695521 87.808965 
L 21.752691 84.815525 
L 21.924201 63.22936 
L 21.981371 67.190533 
L 22.15288 87.773337 
L 22.190994 85.274671 
L 22.362504 63.241596 
L 22.419673 66.673974 
L 22.591183 87.83801 
L 22.648353 83.470473 
L 22.800806 63.296185 
L 22.857976 66.187157 
L 23.029486 87.860601 
L 23.086656 84.009665 
L 23.258166 63.299283 
L 23.296279 65.732417 
L 23.467789 87.840999 
L 23.524959 84.519476 
L 23.696469 63.24283 
L 23.753639 67.519733 
L 23.906092 87.779337 
L 23.963262 84.998337 
L 24.134772 63.228918 
L 24.191942 66.984807 
L 24.363452 87.803277 
L 24.401565 85.444438 
L 24.573075 63.257341 
L 24.630245 66.479766 
L 24.801755 87.851607 
L 24.858924 83.682857 
L 25.011378 63.328021 
L 25.068548 66.006572 
L 25.240057 87.857658 
L 25.297227 84.209176 
L 25.468737 63.272232 
L 25.50685 65.566302 
L 25.67836 87.821596 
L 25.754587 82.17541 
L 25.90704 63.232598 
L 25.945153 65.16004 
L 26.13572 87.751529 
L 26.19289 84.471493 
L 26.3644 63.246792 
L 26.42157 67.572397 
L 26.574023 87.786608 
L 26.631193 84.952891 
L 26.802703 63.2286 
L 26.859872 67.034858 
L 27.031382 87.795525 
L 27.069496 85.401545 
L 27.241005 63.252861 
L 27.298175 66.527401 
L 27.469685 87.848219 
L 27.526855 83.628803 
L 27.679308 63.319298 
L 27.736478 66.051296 
L 27.907988 87.858612 
L 27.965158 84.157814 
L 28.136668 63.278377 
L 28.174781 65.608023 
L 28.346291 87.827084 
L 28.403461 84.658024 
L 28.574971 63.234681 
L 28.632141 67.364935 
L 28.784594 87.753784 
L 28.841764 85.126763 
L 29.013274 63.233138 
L 29.070444 66.840249 
L 29.241954 87.820045 
L 29.299123 83.285021 
L 29.451577 63.273554 
L 29.508747 66.344747 
L 29.680256 87.856535 
L 29.737426 83.832 
L 29.908936 63.327678 
L 29.947049 65.88032 
L 30.118559 87.851051 
L 30.175729 84.350433 
L 30.347239 63.257194 
L 30.404409 67.705836 
L 30.556862 87.803698 
L 30.614032 84.838553 
L 30.785542 63.228975 
L 30.842712 67.162745 
L 31.014222 87.775845 
L 31.052335 85.294783 
L 31.223845 63.242998 
L 31.281015 66.648804 
L 31.452525 87.838475 
L 31.509695 83.493758 
L 31.662148 63.298988 
L 31.719318 66.166032 
L 31.890828 87.8591 
L 31.947998 84.028495 
L 32.119507 63.296047 
L 32.157621 65.715446 
L 32.329131 87.837692 
L 32.3863 84.534403 
L 32.55781 63.241779 
L 32.61498 67.500993 
L 32.767433 87.774701 
L 32.824603 85.010657 
L 32.996113 63.229793 
L 33.053283 66.968925 
L 33.224793 87.803273 
L 33.262906 85.454578 
L 33.434416 63.259396 
L 33.491586 66.465956 
L 33.663096 87.850512 
L 33.720266 83.694951 
L 33.872719 63.330873 
L 33.929889 65.994673 
L 34.101399 87.856009 
L 34.158569 84.219312 
L 34.330079 63.270935 
L 34.387249 67.849547 
L 34.539702 87.819363 
L 34.596872 84.713654 
L 34.768381 63.23202 
L 34.825551 67.300919 
L 34.997061 87.751469 
L 35.035175 85.177344 
L 35.206684 63.235466 
L 35.263854 66.780698 
L 35.435364 87.8254 
L 35.492534 83.347877 
L 35.644987 63.280908 
L 35.702157 66.290811 
L 35.873667 87.857181 
L 35.930837 83.889186 
L 36.102347 63.318246 
L 36.14046 65.832161 
L 36.31197 87.846968 
L 36.36914 84.402886 
L 36.54065 63.252665 
L 36.59782 67.646913 
L 36.750273 87.795015 
L 36.807443 84.886511 
L 36.978953 63.228822 
L 37.036123 67.107891 
L 37.207632 87.782759 
L 37.245746 85.338154 
L 37.417256 63.247121 
L 37.474425 66.598153 
L 37.645935 87.841304 
L 37.703105 83.548025 
L 37.874615 63.228604 
L 37.912728 65.010665 
L 38.103295 87.783519 
L 38.160465 82.993828 
L 38.312918 63.247138 
L 38.370088 66.593993 
L 38.541598 87.841261 
L 38.598768 83.55124 
L 38.636881 79.995305 
L 38.770278 63.24129 
L 38.808391 64.711212 
L 38.998957 87.83429 
L 39.056127 83.462625 
L 39.20858 63.29535 
L 39.26575 66.191247 
L 39.43726 87.85722 
L 39.49443 83.998288 
L 39.66594 63.301083 
L 39.704053 65.739819 
L 39.875563 87.838863 
L 39.932733 84.505703 
L 40.104243 63.244337 
L 40.161413 67.53223 
L 40.313866 87.77855 
L 40.371036 84.98173 
L 40.542546 63.229182 
L 40.599716 67.000193 
L 40.771226 87.797559 
L 40.809339 85.42564 
L 40.980849 63.256041 
L 41.038019 66.497831 
L 41.209529 87.847259 
L 41.266698 83.656354 
L 41.419152 63.324555 
L 41.476322 66.026454 
L 41.647831 87.855354 
L 41.705001 84.181164 
L 41.876511 63.275939 
L 41.914625 65.587618 
L 42.086134 87.822165 
L 42.162361 82.139538 
L 42.314814 63.234458 
L 42.352927 65.182828 
L 42.524437 87.747412 
L 42.600664 82.732423 
L 42.753117 63.234429 
L 42.810287 66.821392 
L 42.981797 87.819331 
L 43.038967 83.301342 
L 43.19142 63.276182 
L 43.24859 66.329377 
L 43.4201 87.85434 
L 43.47727 83.844362 
L 43.648779 63.325754 
L 43.686893 65.868611 
L 43.858403 87.847818 
L 43.915573 84.359001 
L 44.087082 63.256755 
L 44.144252 67.69435 
L 44.296706 87.799903 
L 44.353875 84.843827 
L 44.525385 63.229547 
L 44.582555 67.155096 
L 44.754065 87.774097 
L 44.792178 85.296686 
L 44.963688 63.24384 
L 45.020858 66.644646 
L 45.192368 87.8359 
L 45.249538 83.493476 
L 45.401991 63.299853 
L 45.459161 66.164914 
L 45.630671 87.856186 
L 45.687841 84.025215 
L 45.859351 63.29712 
L 45.897464 65.717004 
L 46.068974 87.835105 
L 46.126144 84.528971 
L 46.297654 63.243068 
L 46.354824 67.505286 
L 46.507277 87.773022 
L 46.564447 85.003196 
L 46.735956 63.230526 
L 46.793126 66.97571 
L 46.964636 87.799424 
L 47.00275 85.444708 
L 47.174259 63.259144 
L 47.231429 66.475284 
L 47.402939 87.847234 
L 47.460109 83.680118 
L 47.612562 63.329409 
L 47.669732 66.006304 
L 47.841242 87.853566 
L 47.898412 84.201959 
L 48.069922 63.273626 
L 48.108035 65.569801 
L 48.279545 87.818312 
L 48.355772 82.162033 
L 48.508225 63.23373 
L 48.546338 65.1672 
L 48.736905 87.74515 
L 48.794074 82.753696 
L 48.946528 63.235633 
L 49.003698 66.80196 
L 49.175207 87.820229 
L 49.232377 83.320233 
L 49.384831 63.278852 
L 49.442001 66.313446 
L 49.61351 87.853525 
L 49.67068 83.860119 
L 49.84219 63.323775 
L 49.880303 65.85528 
L 50.051813 87.845509 
L 50.108983 84.372839 
L 50.280493 63.256206 
L 50.337663 67.678185 
L 50.490116 87.796239 
L 50.547286 84.855597 
L 50.718796 63.230133 
L 50.775966 67.140816 
L 50.947476 87.774638 
L 50.985589 85.306926 
L 51.157099 63.245709 
L 51.214269 66.632019 
L 51.385779 87.835669 
L 51.442949 83.506506 
L 51.595402 63.302632 
L 51.652572 66.153654 
L 51.824082 87.855042 
L 51.881251 84.036402 
L 52.052761 63.295924 
L 52.090875 65.707543 
L 52.262384 87.833001 
L 52.319554 84.537557 
L 52.491064 63.242679 
L 52.548234 67.495082 
L 52.700687 87.769773 
L 52.757857 85.00888 
L 52.929367 63.230993 
L 52.986537 66.967808 
L 53.158047 87.798661 
L 53.19616 85.449408 
L 53.36767 63.260912 
L 53.42484 66.469143 
L 53.59635 87.845898 
L 53.65352 83.685885 
L 53.805973 63.331545 
L 53.863143 66.000918 
L 54.034653 87.851698 
L 54.091823 84.206665 
L 54.263332 63.2738 
L 54.301446 65.565553 
L 54.472956 87.816358 
L 54.549182 82.166467 
L 54.701635 63.234118 
L 54.739749 65.164098 
L 54.930315 87.744015 
L 54.987485 82.755516 
L 55.139938 63.235994 
L 55.197108 66.798667 
L 55.368618 87.818588 
L 55.425788 83.321122 
L 55.578241 63.279537 
L 55.635411 66.311208 
L 55.806921 87.852215 
L 55.864091 83.860317 
L 56.035601 63.324253 
L 56.073714 65.855205 
L 56.245224 87.844181 
L 56.302394 84.370622 
L 56.473904 63.257059 
L 56.531074 67.67992 
L 56.683527 87.794913 
L 56.740697 84.852351 
L 56.912207 63.231038 
L 56.969377 67.14331 
L 57.140886 87.772389 
L 57.179 85.302788 
L 57.350509 63.246246 
L 57.407679 66.635402 
L 57.579189 87.833467 
L 57.636359 83.500746 
L 57.788812 63.302813 
L 57.845982 66.157672 
L 58.017492 87.853488 
L 58.074662 84.030644 
L 58.246172 63.297354 
L 58.284285 65.711818 
L 58.455795 87.832107 
L 58.512965 84.531137 
L 58.684475 63.243559 
L 58.741645 67.50146 
L 58.894098 87.769634 
L 58.951268 85.001312 
L 59.122778 63.231085 
L 59.179948 66.975669 
L 59.351458 87.795703 
L 59.389571 85.439961 
L 59.561081 63.260042 
L 59.618251 66.47842 
L 59.78976 87.843393 
L 59.84693 83.673208 
L 59.999384 63.330442 
L 60.056554 66.011218 
L 60.228063 87.850295 
L 60.285233 84.194037 
L 60.456743 63.276119 
L 60.494856 65.575659 
L 60.666366 87.815828 
L 60.742593 82.150793 
L 60.895046 63.23545 
L 60.933159 65.174023 
L 61.104669 87.740623 
L 61.180896 82.739195 
L 61.333349 63.236068 
L 61.390519 66.812402 
L 61.562029 87.815297 
L 61.619199 83.303066 
L 61.771652 63.277878 
L 61.828822 66.325245 
L 62.000332 87.849772 
L 62.057502 83.841681 
L 62.229011 63.32735 
L 62.267125 65.869155 
L 62.438635 87.843583 
L 62.495804 84.352862 
L 62.667314 63.259316 
L 62.724484 67.699301 
L 62.876937 87.796167 
L 62.934107 84.833492 
L 63.105617 63.231972 
L 63.162787 67.164149 
L 63.334297 87.767581 
L 63.37241 85.283789 
L 63.54392 63.24575 
L 63.60109 66.656183 
L 63.7726 87.82998 
L 63.82977 83.476139 
L 63.982223 63.300354 
L 64.039393 66.178088 
L 64.210903 87.851566 
L 64.268073 84.005891 
L 64.439583 63.301553 
L 64.477696 65.731762 
L 64.649206 87.832292 
L 64.706376 84.5074 
L 64.877885 63.246051 
L 64.935055 67.526846 
L 65.087509 87.77207 
L 65.144679 84.978278 
L 65.316188 63.23138 
L 65.373358 67.000912 
L 65.544868 87.790982 
L 65.582981 85.417321 
L 65.754491 63.257895 
L 65.811661 66.503847 
L 65.983171 87.840275 
L 66.040341 83.642157 
L 66.192794 63.325523 
L 66.249964 66.036847 
L 66.421474 87.848996 
L 66.478644 84.162831 
L 66.650154 63.28067 
L 66.688267 65.60116 
L 66.859777 87.817293 
L 66.916947 84.655332 
L 67.088457 63.237902 
L 67.145627 67.361824 
L 67.29808 87.744554 
L 67.35525 85.11657 
L 67.52676 63.235821 
L 67.58393 66.844317 
L 67.755439 87.810175 
L 67.812609 83.266694 
L 67.965062 63.274847 
L 68.022232 66.356415 
L 68.193742 87.847165 
L 68.250912 83.804896 
L 68.422422 63.333944 
L 68.460535 65.899329 
L 68.632045 87.84336 
L 68.689215 84.31611 
L 68.860725 63.26315 
L 68.917895 67.737711 
L 69.070348 87.799136 
L 69.127518 84.798786 
L 69.299028 63.233296 
L 69.356198 67.202399 
L 69.527708 87.759954 
L 69.565821 85.249814 
L 69.737331 63.244019 
L 69.794501 66.69486 
L 69.966011 87.825069 
L 70.02318 83.43203 
L 70.175634 63.295623 
L 70.232804 66.215817 
L 70.404313 87.849619 
L 70.461483 83.962744 
L 70.632993 63.309003 
L 70.671106 65.76773 
L 70.842616 87.833496 
L 70.899786 84.465253 
L 71.071296 63.250176 
L 71.128466 67.572731 
L 71.280919 87.776868 
L 71.338089 84.938193 
L 71.509599 63.232282 
L 71.566769 67.045355 
L 71.738279 87.783338 
L 71.776392 85.379521 
L 71.947902 63.255 
L 72.005072 66.546546 
L 72.176582 87.836172 
L 72.233752 83.593582 
L 72.386205 63.318504 
L 72.443375 66.078158 
L 72.614885 87.848316 
L 72.672055 84.114405 
L 72.843564 63.287379 
L 72.881678 65.641229 
L 73.053188 87.819943 
L 73.110357 84.607497 
L 73.224697 66.749597 
L 73.224697 66.749597 
" clip-path="url(#p5e1c1044e8)" style="fill: none; stroke: #ffe8ce; stroke-width: 0.05; stroke-linecap: square"/>
   </g>
   <g id="line2d_19">
    <path d="M 18.74174 63.209466 
L 19.180043 63.215954 
L 19.637403 63.211938 
L 20.075706 63.214411 
L 20.533065 63.211507 
L 20.971368 63.21424 
L 21.428728 63.212422 
L 21.867031 63.212255 
L 22.305334 63.214622 
L 22.762693 63.213247 
L 23.200996 63.214868 
L 23.658356 63.21321 
L 24.096659 63.21511 
L 24.554018 63.214377 
L 24.992321 63.21819 
L 25.449681 63.227353 
L 25.887983 63.057451 
L 26.326286 63.224292 
L 26.783646 63.217249 
L 27.221949 63.215285 
L 27.679308 63.214426 
L 28.117611 63.214714 
L 28.574971 63.214006 
L 29.013274 63.214145 
L 29.451577 63.21488 
L 29.908936 63.214246 
L 30.347239 63.214684 
L 30.804599 63.213926 
L 31.242902 63.214462 
L 31.700261 63.214088 
L 32.138564 63.214853 
L 32.595924 63.214712 
L 33.034226 63.214543 
L 33.472529 63.214764 
L 33.929889 63.214413 
L 34.368192 63.214601 
L 34.825551 63.214716 
L 35.263854 63.214674 
L 35.721214 63.21537 
L 36.159517 63.215011 
L 36.616876 63.216005 
L 37.055179 63.219495 
L 37.493482 63.321253 
L 37.950842 63.220963 
L 38.389145 63.244037 
L 38.846504 63.219856 
L 39.284807 63.218552 
L 39.742167 63.21609 
L 40.18047 63.215203 
L 40.618772 63.216008 
L 41.076132 63.215266 
L 41.514435 63.215873 
L 41.971794 63.215153 
L 42.410097 63.21584 
L 42.867457 63.215756 
L 43.30576 63.215989 
L 43.763119 63.215524 
L 44.201422 63.215715 
L 44.639725 63.215664 
L 45.097085 63.215485 
L 45.535388 63.216023 
L 45.992747 63.216412 
L 46.43105 63.216322 
L 46.88841 63.216083 
L 47.326713 63.216184 
L 47.765015 63.215966 
L 48.222375 63.216178 
L 48.660678 63.216275 
L 49.118037 63.21666 
L 49.55634 63.216607 
L 50.0137 63.216892 
L 50.452003 63.216637 
L 50.909362 63.216897 
L 51.347665 63.216716 
L 51.785968 63.21658 
L 52.243328 63.217206 
L 52.681631 63.217128 
L 53.13899 63.217686 
L 53.577293 63.217137 
L 54.034653 63.217419 
L 54.472956 63.216958 
L 54.930315 63.217489 
L 55.368618 63.217718 
L 55.806921 63.217515 
L 56.264281 63.218139 
L 56.702583 63.217851 
L 57.159943 63.21818 
L 57.598246 63.217664 
L 58.055605 63.218135 
L 58.493908 63.21812 
L 58.932211 63.217956 
L 59.389571 63.218714 
L 59.827874 63.218502 
L 60.285233 63.218769 
L 60.723536 63.218226 
L 61.180896 63.218742 
L 61.619199 63.218368 
L 62.076558 63.218825 
L 62.514861 63.219268 
L 62.953164 63.218953 
L 63.410524 63.219456 
L 63.848826 63.21905 
L 64.306186 63.219501 
L 64.744489 63.218984 
L 65.201848 63.219288 
L 65.640151 63.219809 
L 66.078454 63.219556 
L 66.535814 63.219964 
L 66.974117 63.219712 
L 67.431476 63.220133 
L 67.869779 63.219539 
L 68.327139 63.219876 
L 68.765442 63.219634 
L 69.222801 63.220491 
L 69.661104 63.220293 
L 70.099407 63.21988 
L 70.556767 63.220864 
L 70.99507 63.219062 
L 71.452429 63.218985 
L 71.890732 63.215975 
L 72.348092 63.214091 
" clip-path="url(#p5e1c1044e8)" style="fill: none; stroke: #fcb462; stroke-width: 0.5; stroke-linecap: square"/>
   </g>
   <g id="patch_13">
    <path d="M 18.303438 89.100758 
L 18.303438 61.817294 
" style="fill: none; stroke: #000000; stroke-width: 0.2; stroke-linejoin: miter; stroke-linecap: square"/>
   </g>
   <g id="patch_14">
    <path d="M 73.224697 89.100758 
L 73.224697 61.817294 
" style="fill: none; stroke: #000000; stroke-width: 0.2; stroke-linejoin: miter; stroke-linecap: square"/>
   </g>
   <g id="patch_15">
    <path d="M 18.303438 89.100758 
L 73.224697 89.100758 
" style="fill: none; stroke: #000000; stroke-width: 0.2; stroke-linejoin: miter; stroke-linecap: square"/>
   </g>
   <g id="patch_16">
    <path d="M 18.303438 61.817294 
L 73.224697 61.817294 
" style="fill: none; stroke: #000000; stroke-width: 0.2; stroke-linejoin: miter; stroke-linecap: square"/>
   </g>
   <g id="text_22">
    <!-- $A_3$ -->
    <g style="fill: #fcb462" transform="translate(46.878495 68.607022) scale(0.08 -0.08)">
     <use xlink:href="#STIXGeneral-Italic-41" transform="translate(0 0.203125)"/>
     <use xlink:href="#STIXGeneral-Regular-33" transform="translate(61.099991 -13.025) scale(0.7)"/>
    </g>
   </g>
   <g id="text_23">
    <!-- $\beta_3$ -->
    <g style="fill: #795b34" transform="translate(89.74108 80.146796) scale(0.08 -0.08)">
     <use xlink:href="#STIXGeneral-Italic-3b2" transform="translate(0 0.203125)"/>
     <use xlink:href="#STIXGeneral-Regular-33" transform="translate(50.599991 -13.025) scale(0.7)"/>
    </g>
   </g>
  </g>
  <g id="axes_4">
   <g id="matplotlib.axis_7">
    <g id="ytick_10">
     <g id="line2d_20">
      <defs>
       <path id="mda1ffb5bf2" d="M 0 0 
L 1 0 
" style="stroke: #000000; stroke-width: 0.5"/>
      </defs>
      <g>
       <use xlink:href="#mda1ffb5bf2" x="73.224697" y="29.077136" style="stroke: #000000; stroke-width: 0.5"/>
      </g>
     </g>
     <g id="text_24">
      <!-- $-2\pi$ -->
      <g transform="translate(77.724697 30.150808) scale(0.03 -0.03)">
       <defs>
        <path id="STIXGeneral-Regular-2212" d="M 3974 1408 
L 410 1408 
L 410 1830 
L 3974 1830 
L 3974 1408 
z
" transform="scale(0.015625)"/>
        <path id="STIXGeneral-Italic-3c0" d="M 3430 2739 
L 3296 2266 
L 2643 2266 
Q 2624 2195 2502 1782 
Q 2381 1370 2297 1072 
Q 2214 774 2214 717 
Q 2214 448 2413 448 
Q 2694 448 2867 838 
L 2970 838 
Q 2886 486 2652 208 
Q 2419 -70 2093 -70 
Q 1901 -70 1808 67 
Q 1715 205 1715 410 
Q 1715 627 1824 922 
L 2310 2266 
L 1645 2266 
Q 1568 2061 1401 1469 
Q 1235 877 1068 512 
Q 902 147 672 -38 
Q 563 -115 442 -115 
Q 314 -115 218 -32 
Q 122 51 122 166 
Q 122 429 314 480 
Q 634 563 774 928 
L 1299 2266 
L 1261 2266 
Q 973 2266 819 2208 
Q 666 2150 474 1914 
L 371 1914 
Q 640 2362 931 2550 
Q 1222 2739 1696 2739 
L 3430 2739 
z
" transform="scale(0.015625)"/>
       </defs>
       <use xlink:href="#STIXGeneral-Regular-2212" transform="translate(0 0.40625)"/>
       <use xlink:href="#STIXGeneral-Regular-32" transform="translate(68.499985 0.40625)"/>
       <use xlink:href="#STIXGeneral-Italic-3c0" transform="translate(118.499969 0.40625)"/>
      </g>
     </g>
    </g>
    <g id="ytick_11">
     <g id="line2d_21">
      <g>
       <use xlink:href="#mda1ffb5bf2" x="73.224697" y="22.25627" style="stroke: #000000; stroke-width: 0.5"/>
      </g>
     </g>
     <g id="text_25">
      <!-- $-\pi$ -->
      <g transform="translate(77.724697 23.329942) scale(0.03 -0.03)">
       <use xlink:href="#STIXGeneral-Regular-2212" transform="translate(0 0.203125)"/>
       <use xlink:href="#STIXGeneral-Italic-3c0" transform="translate(68.499985 0.203125)"/>
      </g>
     </g>
    </g>
    <g id="ytick_12">
     <g id="line2d_22">
      <g>
       <use xlink:href="#mda1ffb5bf2" x="73.224697" y="15.435404" style="stroke: #000000; stroke-width: 0.5"/>
      </g>
     </g>
     <g id="text_26">
      <!-- $0$ -->
      <g transform="translate(77.724697 16.509076) scale(0.03 -0.03)">
       <defs>
        <path id="STIXGeneral-Regular-30" d="M 3046 2112 
Q 3046 1683 2963 1302 
Q 2880 922 2717 602 
Q 2554 282 2266 96 
Q 1978 -90 1600 -90 
Q 1210 -90 915 108 
Q 621 307 461 640 
Q 301 973 227 1350 
Q 154 1728 154 2150 
Q 154 2746 301 3222 
Q 448 3699 790 4012 
Q 1133 4326 1626 4326 
Q 2253 4326 2649 3712 
Q 3046 3098 3046 2112 
z
M 2432 2080 
Q 2432 3091 2217 3625 
Q 2003 4160 1587 4160 
Q 1190 4160 979 3622 
Q 768 3085 768 2106 
Q 768 1120 979 598 
Q 1190 77 1600 77 
Q 2003 77 2217 598 
Q 2432 1120 2432 2080 
z
" transform="scale(0.015625)"/>
       </defs>
       <use xlink:href="#STIXGeneral-Regular-30" transform="translate(0 0.40625)"/>
      </g>
     </g>
    </g>
    <g id="ytick_13">
     <g id="line2d_23">
      <g>
       <use xlink:href="#mda1ffb5bf2" x="73.224697" y="8.614538" style="stroke: #000000; stroke-width: 0.5"/>
      </g>
     </g>
     <g id="text_27">
      <!-- $\pi$ -->
      <g transform="translate(77.724697 9.68821) scale(0.03 -0.03)">
       <use xlink:href="#STIXGeneral-Italic-3c0" transform="translate(0 0.203125)"/>
      </g>
     </g>
    </g>
    <g id="ytick_14">
     <g id="line2d_24">
      <g>
       <use xlink:href="#mda1ffb5bf2" x="73.224697" y="1.793672" style="stroke: #000000; stroke-width: 0.5"/>
      </g>
     </g>
     <g id="text_28">
      <!-- $2\pi$ -->
      <g transform="translate(77.724697 2.867344) scale(0.03 -0.03)">
       <use xlink:href="#STIXGeneral-Regular-32" transform="translate(0 0.40625)"/>
       <use xlink:href="#STIXGeneral-Italic-3c0" transform="translate(49.999985 0.40625)"/>
      </g>
     </g>
    </g>
   </g>
   <g id="line2d_25">
    <path d="M 18.74174 15.363966 
L 19.180043 15.36371 
L 19.637403 15.36349 
L 20.075706 15.363245 
L 20.533065 15.363011 
L 20.971368 15.362764 
L 21.428728 15.362527 
L 21.867031 15.36229 
L 22.305334 15.362043 
L 22.762693 15.361804 
L 23.200996 15.361561 
L 23.658356 15.361319 
L 24.096659 15.36107 
L 24.554018 15.360824 
L 24.992321 15.36057 
L 25.449681 15.360336 
L 25.887983 15.362537 
L 26.326286 15.366854 
L 26.783646 15.366537 
L 27.221949 15.366276 
L 27.679308 15.366009 
L 28.117611 15.365751 
L 28.574971 15.365486 
L 29.013274 15.365227 
L 29.451577 15.364967 
L 29.908936 15.364702 
L 30.347239 15.364438 
L 30.804599 15.364169 
L 31.242902 15.363898 
L 31.700261 15.363623 
L 32.138564 15.363349 
L 32.595924 15.363078 
L 33.034226 15.362811 
L 33.472529 15.362532 
L 33.929889 15.362252 
L 34.368192 15.361965 
L 34.825551 15.361682 
L 35.263854 15.361393 
L 35.721214 15.361106 
L 36.159517 15.360811 
L 36.616876 15.360524 
L 37.055179 15.36022 
L 37.493482 15.363135 
L 37.950842 15.365456 
L 38.389145 15.369536 
L 38.846504 15.372572 
L 39.284807 15.372286 
L 39.742167 15.371981 
L 40.18047 15.371685 
L 40.618772 15.37138 
L 41.076132 15.371066 
L 41.514435 15.370755 
L 41.971794 15.370442 
L 42.410097 15.370125 
L 42.867457 15.36981 
L 43.30576 15.369494 
L 43.763119 15.369177 
L 44.201422 15.368864 
L 44.639725 15.368538 
L 45.097085 15.368212 
L 45.535388 15.367881 
L 45.992747 15.367557 
L 46.43105 15.367228 
L 46.88841 15.3669 
L 47.326713 15.366572 
L 47.765015 15.36623 
L 48.222375 15.365893 
L 48.660678 15.36555 
L 49.118037 15.36521 
L 49.55634 15.364862 
L 50.0137 15.364525 
L 50.452003 15.364176 
L 50.909362 15.363832 
L 51.347665 15.363489 
L 51.785968 15.36313 
L 52.243328 15.362778 
L 52.681631 15.36242 
L 53.13899 15.362071 
L 53.577293 15.361711 
L 54.034653 15.361353 
L 54.472956 15.360985 
L 54.930315 15.360622 
L 55.368618 15.360263 
L 55.806921 15.359891 
L 56.264281 15.359523 
L 56.702583 15.359152 
L 57.159943 15.358783 
L 57.598246 15.358408 
L 58.055605 15.358034 
L 58.493908 15.357661 
L 58.932211 15.357277 
L 59.389571 15.356898 
L 59.827874 15.356517 
L 60.285233 15.356137 
L 60.723536 15.35575 
L 61.180896 15.35536 
L 61.619199 15.354968 
L 62.076558 15.354576 
L 62.514861 15.35419 
L 62.953164 15.353795 
L 63.410524 15.353401 
L 63.848826 15.353006 
L 64.306186 15.352607 
L 64.744489 15.352208 
L 65.201848 15.351801 
L 65.640151 15.351403 
L 66.078454 15.350999 
L 66.535814 15.350593 
L 66.974117 15.35019 
L 67.431476 15.349777 
L 67.869779 15.349367 
L 68.327139 15.348948 
L 68.765442 15.348537 
L 69.222801 15.348114 
L 69.661104 15.347703 
L 70.099407 15.347292 
L 70.556767 15.346866 
L 70.99507 15.346453 
L 71.452429 15.346018 
L 71.890732 15.345599 
L 72.348092 15.345135 
" clip-path="url(#p65429386c8)" style="fill: none; stroke: #713948; stroke-width: 0.5; stroke-linecap: square"/>
   </g>
   <g id="patch_17">
    <path d="M 18.303438 29.077136 
L 18.303438 1.793672 
" style="fill: none; stroke: #000000; stroke-width: 0.2; stroke-linejoin: miter; stroke-linecap: square"/>
   </g>
   <g id="patch_18">
    <path d="M 73.224697 29.077136 
L 73.224697 1.793672 
" style="fill: none; stroke: #000000; stroke-width: 0.2; stroke-linejoin: miter; stroke-linecap: square"/>
   </g>
   <g id="patch_19">
    <path d="M 18.303438 29.077136 
L 73.224697 29.077136 
" style="fill: none; stroke: #000000; stroke-width: 0.2; stroke-linejoin: miter; stroke-linecap: square"/>
   </g>
   <g id="patch_20">
    <path d="M 18.303438 1.793672 
L 73.224697 1.793672 
" style="fill: none; stroke: #000000; stroke-width: 0.2; stroke-linejoin: miter; stroke-linecap: square"/>
   </g>
  </g>
  <g id="axes_5">
   <g id="matplotlib.axis_8">
    <g id="ytick_15">
     <g id="line2d_26">
      <g>
       <use xlink:href="#mda1ffb5bf2" x="73.224697" y="59.088947" style="stroke: #000000; stroke-width: 0.5"/>
      </g>
     </g>
     <g id="text_29">
      <!-- $-2\pi$ -->
      <g transform="translate(77.724697 60.162619) scale(0.03 -0.03)">
       <use xlink:href="#STIXGeneral-Regular-2212" transform="translate(0 0.40625)"/>
       <use xlink:href="#STIXGeneral-Regular-32" transform="translate(68.499985 0.40625)"/>
       <use xlink:href="#STIXGeneral-Italic-3c0" transform="translate(118.499969 0.40625)"/>
      </g>
     </g>
    </g>
    <g id="ytick_16">
     <g id="line2d_27">
      <g>
       <use xlink:href="#mda1ffb5bf2" x="73.224697" y="52.268081" style="stroke: #000000; stroke-width: 0.5"/>
      </g>
     </g>
     <g id="text_30">
      <!-- $-\pi$ -->
      <g transform="translate(77.724697 53.341753) scale(0.03 -0.03)">
       <use xlink:href="#STIXGeneral-Regular-2212" transform="translate(0 0.203125)"/>
       <use xlink:href="#STIXGeneral-Italic-3c0" transform="translate(68.499985 0.203125)"/>
      </g>
     </g>
    </g>
    <g id="ytick_17">
     <g id="line2d_28">
      <g>
       <use xlink:href="#mda1ffb5bf2" x="73.224697" y="45.447215" style="stroke: #000000; stroke-width: 0.5"/>
      </g>
     </g>
     <g id="text_31">
      <!-- $0$ -->
      <g transform="translate(77.724697 46.520887) scale(0.03 -0.03)">
       <use xlink:href="#STIXGeneral-Regular-30" transform="translate(0 0.40625)"/>
      </g>
     </g>
    </g>
    <g id="ytick_18">
     <g id="line2d_29">
      <g>
       <use xlink:href="#mda1ffb5bf2" x="73.224697" y="38.626349" style="stroke: #000000; stroke-width: 0.5"/>
      </g>
     </g>
     <g id="text_32">
      <!-- $\pi$ -->
      <g transform="translate(77.724697 39.700021) scale(0.03 -0.03)">
       <use xlink:href="#STIXGeneral-Italic-3c0" transform="translate(0 0.203125)"/>
      </g>
     </g>
    </g>
    <g id="ytick_19">
     <g id="line2d_30">
      <g>
       <use xlink:href="#mda1ffb5bf2" x="73.224697" y="31.805483" style="stroke: #000000; stroke-width: 0.5"/>
      </g>
     </g>
     <g id="text_33">
      <!-- $2\pi$ -->
      <g transform="translate(77.724697 32.879155) scale(0.03 -0.03)">
       <use xlink:href="#STIXGeneral-Regular-32" transform="translate(0 0.40625)"/>
       <use xlink:href="#STIXGeneral-Italic-3c0" transform="translate(49.999985 0.40625)"/>
      </g>
     </g>
    </g>
   </g>
   <g id="line2d_31">
    <path d="M 18.74174 45.432047 
L 19.180043 45.431615 
L 19.637403 45.431201 
L 20.075706 45.430749 
L 20.533065 45.430315 
L 20.971368 45.429863 
L 21.428728 45.429425 
L 21.867031 45.428989 
L 22.305334 45.428539 
L 22.762693 45.4281 
L 23.200996 45.427656 
L 23.658356 45.427214 
L 24.096659 45.426767 
L 24.554018 45.42632 
L 24.992321 45.425873 
L 25.449681 45.425428 
L 25.887983 45.426994 
L 26.326286 45.431525 
L 26.783646 45.431067 
L 27.221949 45.430614 
L 27.679308 45.430164 
L 28.117611 45.429716 
L 28.574971 45.429267 
L 29.013274 45.428826 
L 29.451577 45.42838 
L 29.908936 45.427934 
L 30.347239 45.427486 
L 30.804599 45.427037 
L 31.242902 45.426587 
L 31.700261 45.426135 
L 32.138564 45.425685 
L 32.595924 45.425238 
L 33.034226 45.4248 
L 33.472529 45.424351 
L 33.929889 45.423899 
L 34.368192 45.423447 
L 34.825551 45.422997 
L 35.263854 45.422545 
L 35.721214 45.422093 
L 36.159517 45.421643 
L 36.616876 45.421202 
L 37.055179 45.420772 
L 37.493482 45.422468 
L 37.950842 45.425763 
L 38.389145 45.42838 
L 38.846504 45.432535 
L 39.284807 45.432047 
L 39.742167 45.431585 
L 40.18047 45.431142 
L 40.618772 45.430691 
L 41.076132 45.430232 
L 41.514435 45.429782 
L 41.971794 45.429328 
L 42.410097 45.428875 
L 42.867457 45.428422 
L 43.30576 45.427975 
L 43.763119 45.427523 
L 44.201422 45.427081 
L 44.639725 45.426629 
L 45.097085 45.426173 
L 45.535388 45.425721 
L 45.992747 45.425271 
L 46.43105 45.424823 
L 46.88841 45.424372 
L 47.326713 45.423929 
L 47.765015 45.423474 
L 48.222375 45.423022 
L 48.660678 45.422571 
L 49.118037 45.422118 
L 49.55634 45.421667 
L 50.0137 45.42122 
L 50.452003 45.42077 
L 50.909362 45.42032 
L 51.347665 45.419879 
L 51.785968 45.419425 
L 52.243328 45.418974 
L 52.681631 45.418525 
L 53.13899 45.418081 
L 53.577293 45.417631 
L 54.034653 45.417182 
L 54.472956 45.416729 
L 54.930315 45.41628 
L 55.368618 45.415841 
L 55.806921 45.415389 
L 56.264281 45.414942 
L 56.702583 45.414495 
L 57.159943 45.41405 
L 57.598246 45.413602 
L 58.055605 45.413155 
L 58.493908 45.412714 
L 58.932211 45.412264 
L 59.389571 45.411821 
L 59.827874 45.411376 
L 60.285233 45.410933 
L 60.723536 45.410485 
L 61.180896 45.410038 
L 61.619199 45.40959 
L 62.076558 45.409146 
L 62.514861 45.408709 
L 62.953164 45.408263 
L 63.410524 45.407823 
L 63.848826 45.40738 
L 64.306186 45.406938 
L 64.744489 45.406494 
L 65.201848 45.406048 
L 65.640151 45.405613 
L 66.078454 45.405173 
L 66.535814 45.404734 
L 66.974117 45.404296 
L 67.431476 45.403853 
L 67.869779 45.403411 
L 68.327139 45.402967 
L 68.765442 45.40253 
L 69.222801 45.402086 
L 69.661104 45.401655 
L 70.099407 45.401223 
L 70.556767 45.400781 
L 70.99507 45.400349 
L 71.452429 45.399898 
L 71.890732 45.399465 
L 72.348092 45.398982 
" clip-path="url(#p77729e8045)" style="fill: none; stroke: #495373; stroke-width: 0.5; stroke-linecap: square"/>
   </g>
   <g id="patch_21">
    <path d="M 18.303438 59.088947 
L 18.303438 31.805483 
" style="fill: none; stroke: #000000; stroke-width: 0.2; stroke-linejoin: miter; stroke-linecap: square"/>
   </g>
   <g id="patch_22">
    <path d="M 73.224697 59.088947 
L 73.224697 31.805483 
" style="fill: none; stroke: #000000; stroke-width: 0.2; stroke-linejoin: miter; stroke-linecap: square"/>
   </g>
   <g id="patch_23">
    <path d="M 18.303438 59.088947 
L 73.224697 59.088947 
" style="fill: none; stroke: #000000; stroke-width: 0.2; stroke-linejoin: miter; stroke-linecap: square"/>
   </g>
   <g id="patch_24">
    <path d="M 18.303438 31.805483 
L 73.224697 31.805483 
" style="fill: none; stroke: #000000; stroke-width: 0.2; stroke-linejoin: miter; stroke-linecap: square"/>
   </g>
  </g>
  <g id="axes_6">
   <g id="matplotlib.axis_9">
    <g id="ytick_20">
     <g id="line2d_32">
      <g>
       <use xlink:href="#mda1ffb5bf2" x="73.224697" y="89.100758" style="stroke: #000000; stroke-width: 0.5"/>
      </g>
     </g>
     <g id="text_34">
      <!-- $-2\pi$ -->
      <g transform="translate(77.724697 90.17443) scale(0.03 -0.03)">
       <use xlink:href="#STIXGeneral-Regular-2212" transform="translate(0 0.40625)"/>
       <use xlink:href="#STIXGeneral-Regular-32" transform="translate(68.499985 0.40625)"/>
       <use xlink:href="#STIXGeneral-Italic-3c0" transform="translate(118.499969 0.40625)"/>
      </g>
     </g>
    </g>
    <g id="ytick_21">
     <g id="line2d_33">
      <g>
       <use xlink:href="#mda1ffb5bf2" x="73.224697" y="82.279892" style="stroke: #000000; stroke-width: 0.5"/>
      </g>
     </g>
     <g id="text_35">
      <!-- $-\pi$ -->
      <g transform="translate(77.724697 83.353564) scale(0.03 -0.03)">
       <use xlink:href="#STIXGeneral-Regular-2212" transform="translate(0 0.203125)"/>
       <use xlink:href="#STIXGeneral-Italic-3c0" transform="translate(68.499985 0.203125)"/>
      </g>
     </g>
    </g>
    <g id="ytick_22">
     <g id="line2d_34">
      <g>
       <use xlink:href="#mda1ffb5bf2" x="73.224697" y="75.459026" style="stroke: #000000; stroke-width: 0.5"/>
      </g>
     </g>
     <g id="text_36">
      <!-- $0$ -->
      <g transform="translate(77.724697 76.532698) scale(0.03 -0.03)">
       <use xlink:href="#STIXGeneral-Regular-30" transform="translate(0 0.40625)"/>
      </g>
     </g>
    </g>
    <g id="ytick_23">
     <g id="line2d_35">
      <g>
       <use xlink:href="#mda1ffb5bf2" x="73.224697" y="68.63816" style="stroke: #000000; stroke-width: 0.5"/>
      </g>
     </g>
     <g id="text_37">
      <!-- $\pi$ -->
      <g transform="translate(77.724697 69.711832) scale(0.03 -0.03)">
       <use xlink:href="#STIXGeneral-Italic-3c0" transform="translate(0 0.203125)"/>
      </g>
     </g>
    </g>
    <g id="ytick_24">
     <g id="line2d_36">
      <g>
       <use xlink:href="#mda1ffb5bf2" x="73.224697" y="61.817294" style="stroke: #000000; stroke-width: 0.5"/>
      </g>
     </g>
     <g id="text_38">
      <!-- $2\pi$ -->
      <g transform="translate(77.724697 62.890966) scale(0.03 -0.03)">
       <use xlink:href="#STIXGeneral-Regular-32" transform="translate(0 0.40625)"/>
       <use xlink:href="#STIXGeneral-Italic-3c0" transform="translate(49.999985 0.40625)"/>
      </g>
     </g>
    </g>
   </g>
   <g id="line2d_37">
    <path d="M 18.74174 75.501313 
L 19.180043 75.500791 
L 19.637403 75.500253 
L 20.075706 75.499674 
L 20.533065 75.499111 
L 20.971368 75.498525 
L 21.428728 75.497956 
L 21.867031 75.497392 
L 22.305334 75.496806 
L 22.762693 75.496235 
L 23.200996 75.495655 
L 23.658356 75.495084 
L 24.096659 75.494498 
L 24.554018 75.493923 
L 24.992321 75.493333 
L 25.449681 75.492764 
L 25.887983 75.494975 
L 26.326286 75.498625 
L 26.783646 75.498 
L 27.221949 75.497414 
L 27.679308 75.496827 
L 28.117611 75.496244 
L 28.574971 75.49566 
L 29.013274 75.495086 
L 29.451577 75.494503 
L 29.908936 75.493921 
L 30.347239 75.493336 
L 30.804599 75.492753 
L 31.242902 75.492164 
L 31.700261 75.491576 
L 32.138564 75.490986 
L 32.595924 75.490403 
L 33.034226 75.489829 
L 33.472529 75.489239 
L 33.929889 75.488652 
L 34.368192 75.488059 
L 34.825551 75.487472 
L 35.263854 75.486878 
L 35.721214 75.486289 
L 36.159517 75.485694 
L 36.616876 75.485105 
L 37.055179 75.484506 
L 37.493482 75.486992 
L 37.950842 75.48915 
L 38.389145 75.493163 
L 38.846504 75.495686 
L 39.284807 75.495108 
L 39.742167 75.494518 
L 40.18047 75.493937 
L 40.618772 75.493342 
L 41.076132 75.492746 
L 41.514435 75.492148 
L 41.971794 75.491555 
L 42.410097 75.490954 
L 42.867457 75.490361 
L 43.30576 75.489763 
L 43.763119 75.48917 
L 44.201422 75.488586 
L 44.639725 75.487984 
L 45.097085 75.487386 
L 45.535388 75.486781 
L 45.992747 75.486186 
L 46.43105 75.485586 
L 46.88841 75.48499 
L 47.326713 75.484402 
L 47.765015 75.483795 
L 48.222375 75.483197 
L 48.660678 75.482592 
L 49.118037 75.481992 
L 49.55634 75.481386 
L 50.0137 75.48079 
L 50.452003 75.480185 
L 50.909362 75.479586 
L 51.347665 75.478995 
L 51.785968 75.478385 
L 52.243328 75.477781 
L 52.681631 75.477174 
L 53.13899 75.476575 
L 53.577293 75.475968 
L 54.034653 75.475363 
L 54.472956 75.474753 
L 54.930315 75.474148 
L 55.368618 75.473554 
L 55.806921 75.472943 
L 56.264281 75.472337 
L 56.702583 75.47173 
L 57.159943 75.471124 
L 57.598246 75.470515 
L 58.055605 75.469907 
L 58.493908 75.469307 
L 58.932211 75.468694 
L 59.389571 75.468084 
L 59.827874 75.467474 
L 60.285233 75.466865 
L 60.723536 75.466253 
L 61.180896 75.465639 
L 61.619199 75.465026 
L 62.076558 75.464412 
L 62.514861 75.463811 
L 62.953164 75.463196 
L 63.410524 75.462584 
L 63.848826 75.461973 
L 64.306186 75.461357 
L 64.744489 75.460743 
L 65.201848 75.460123 
L 65.640151 75.459518 
L 66.078454 75.458902 
L 66.535814 75.458285 
L 66.974117 75.457671 
L 67.431476 75.45705 
L 67.869779 75.456433 
L 68.327139 75.45581 
L 68.765442 75.455194 
L 69.222801 75.454568 
L 69.661104 75.45396 
L 70.099407 75.453346 
L 70.556767 75.452718 
L 70.99507 75.452104 
L 71.452429 75.451467 
L 71.890732 75.450845 
L 72.348092 75.450148 
" clip-path="url(#p5e1c1044e8)" style="fill: none; stroke: #795b34; stroke-width: 0.5; stroke-linecap: square"/>
   </g>
   <g id="patch_25">
    <path d="M 18.303438 89.100758 
L 18.303438 61.817294 
" style="fill: none; stroke: #000000; stroke-width: 0.2; stroke-linejoin: miter; stroke-linecap: square"/>
   </g>
   <g id="patch_26">
    <path d="M 73.224697 89.100758 
L 73.224697 61.817294 
" style="fill: none; stroke: #000000; stroke-width: 0.2; stroke-linejoin: miter; stroke-linecap: square"/>
   </g>
   <g id="patch_27">
    <path d="M 18.303438 89.100758 
L 73.224697 89.100758 
" style="fill: none; stroke: #000000; stroke-width: 0.2; stroke-linejoin: miter; stroke-linecap: square"/>
   </g>
   <g id="patch_28">
    <path d="M 18.303438 61.817294 
L 73.224697 61.817294 
" style="fill: none; stroke: #000000; stroke-width: 0.2; stroke-linejoin: miter; stroke-linecap: square"/>
   </g>
  </g>
 </g>
 <defs>
  <clipPath id="p65429386c8">
   <rect x="18.303438" y="1.793672" width="54.92126" height="27.283465"/>
  </clipPath>
  <clipPath id="p77729e8045">
   <rect x="18.303438" y="31.805483" width="54.92126" height="27.283465"/>
  </clipPath>
  <clipPath id="p5e1c1044e8">
   <rect x="18.303438" y="61.817294" width="54.92126" height="27.283465"/>
  </clipPath>
 </defs>
</svg>
