<?xml version="1.0" encoding="utf-8" standalone="no"?>
<!DOCTYPE svg PUBLIC "-//W3C//DTD SVG 1.1//EN"
  "http://www.w3.org/Graphics/SVG/1.1/DTD/svg11.dtd">
<svg xmlns:xlink="http://www.w3.org/1999/xlink" width="85.03937pt" height="85.03937pt" viewBox="0 0 85.03937 85.03937" xmlns="http://www.w3.org/2000/svg" version="1.1">
 <metadata>
  <rdf:RDF xmlns:dc="http://purl.org/dc/elements/1.1/" xmlns:cc="http://creativecommons.org/ns#" xmlns:rdf="http://www.w3.org/1999/02/22-rdf-syntax-ns#">
   <cc:Work>
    <dc:type rdf:resource="http://purl.org/dc/dcmitype/StillImage"/>
    <dc:date>2025-03-03T18:38:18.592261</dc:date>
    <dc:format>image/svg+xml</dc:format>
    <dc:creator>
     <cc:Agent>
      <dc:title>Matplotlib v3.8.0, https://matplotlib.org/</dc:title>
     </cc:Agent>
    </dc:creator>
   </cc:Work>
  </rdf:RDF>
 </metadata>
 <defs>
  <style type="text/css">*{stroke-linejoin: round; stroke-linecap: butt}</style>
 </defs>
 <g id="figure_1">
  <g id="patch_1">
   <path d="M 0 85.03937 
L 85.03937 85.03937 
L 85.03937 0 
L 0 0 
L 0 85.03937 
z
" style="fill: none"/>
  </g>
  <g id="patch_2">
   <path d="M 17.433071 75.685039 
L 76.110236 75.685039 
L 76.110236 17.007874 
L 17.433071 17.007874 
L 17.433071 75.685039 
z
" style="fill: none"/>
  </g>
  <g id="pane3d_1">
   <g id="patch_3">
    <path d="M 37.197285 45.703786 
L 70.541754 51.840186 
L 71.558887 27.799841 
L 36.753859 22.213148 
" style="fill: #f2f2f2; opacity: 0.5; stroke: #f2f2f2; stroke-linejoin: miter"/>
   </g>
  </g>
  <g id="pane3d_2">
   <g id="patch_4">
    <path d="M 37.197285 45.703786 
L 23.159472 63.611173 
L 22.008823 38.561341 
L 36.753859 22.213148 
" style="fill: #e6e6e6; opacity: 0.5; stroke: #e6e6e6; stroke-linejoin: miter"/>
   </g>
  </g>
  <g id="pane3d_3">
   <g id="patch_5">
    <path d="M 37.197285 45.703786 
L 23.159472 63.611173 
L 59.364529 71.029604 
L 70.541754 51.840186 
" style="fill: #ececec; opacity: 0.5; stroke: #ececec; stroke-linejoin: miter"/>
   </g>
  </g>
  <g id="grid3d_1">
   <g id="Line3DCollection_1">
    <path d="M 68.684175 55.029337 
L 34.857914 48.688013 
L 34.305195 24.928043 
" style="fill: none; stroke: #b0b0b0; stroke-width: 0.1"/>
    <path d="M 65.222592 60.972294 
L 30.505315 54.240422 
L 29.740151 29.989422 
" style="fill: none; stroke: #b0b0b0; stroke-width: 0.1"/>
    <path d="M 61.540578 67.293693 
L 25.885233 60.134046 
L 24.881581 35.376241 
" style="fill: none; stroke: #b0b0b0; stroke-width: 0.1"/>
   </g>
  </g>
  <g id="grid3d_2">
   <g id="Line3DCollection_2">
    <path d="M 42.844148 23.190724 
L 43.038903 46.778822 
L 29.485111 64.907299 
" style="fill: none; stroke: #b0b0b0; stroke-width: 0.1"/>
    <path d="M 53.857362 24.958499 
L 53.595 48.721466 
L 40.934278 67.253238 
" style="fill: none; stroke: #b0b0b0; stroke-width: 0.1"/>
    <path d="M 65.115483 26.765584 
L 64.375947 50.705489 
L 52.651863 69.654176 
" style="fill: none; stroke: #b0b0b0; stroke-width: 0.1"/>
   </g>
  </g>
  <g id="grid3d_3">
   <g id="Line3DCollection_3">
    <path d="M 22.960064 59.270037 
L 37.120173 41.618744 
L 70.718425 47.664497 
" style="fill: none; stroke: #b0b0b0; stroke-width: 0.1"/>
    <path d="M 22.597398 51.374718 
L 36.980214 34.204391 
L 71.039308 40.080301 
" style="fill: none; stroke: #b0b0b0; stroke-width: 0.1"/>
    <path d="M 22.22388 43.243166 
L 36.836454 26.588628 
L 71.36921 32.282936 
" style="fill: none; stroke: #b0b0b0; stroke-width: 0.1"/>
   </g>
  </g>
  <g id="axis3d_1">
   <g id="line2d_1">
    <path d="M 70.541754 51.840186 
L 59.364529 71.029604 
" style="fill: none; stroke: #000000; stroke-width: 0.2; stroke-linecap: square"/>
   </g>
   <g id="xtick_1">
    <g id="line2d_2">
     <path d="M 68.404428 54.976893 
L 69.244127 55.13431 
" style="fill: none; stroke: #000000; stroke-width: 0.8; stroke-linecap: square"/>
    </g>
    <g id="text_1">
     <!-- −4000 -->
     <g transform="translate(67.812766 60.102185) scale(0.03 -0.03)">
      <defs>
       <path id="ArialMT-2212" d="M 3381 1997 
L 356 1997 
L 356 2522 
L 3381 2522 
L 3381 1997 
z
" transform="scale(0.015625)"/>
       <path id="ArialMT-34" d="M 2069 0 
L 2069 1097 
L 81 1097 
L 81 1613 
L 2172 4581 
L 2631 4581 
L 2631 1613 
L 3250 1613 
L 3250 1097 
L 2631 1097 
L 2631 0 
L 2069 0 
z
M 2069 1613 
L 2069 3678 
L 634 1613 
L 2069 1613 
z
" transform="scale(0.015625)"/>
       <path id="ArialMT-30" d="M 266 2259 
Q 266 3072 433 3567 
Q 600 4063 929 4331 
Q 1259 4600 1759 4600 
Q 2128 4600 2406 4451 
Q 2684 4303 2865 4023 
Q 3047 3744 3150 3342 
Q 3253 2941 3253 2259 
Q 3253 1453 3087 958 
Q 2922 463 2592 192 
Q 2263 -78 1759 -78 
Q 1097 -78 719 397 
Q 266 969 266 2259 
z
M 844 2259 
Q 844 1131 1108 757 
Q 1372 384 1759 384 
Q 2147 384 2411 759 
Q 2675 1134 2675 2259 
Q 2675 3391 2411 3762 
Q 2147 4134 1753 4134 
Q 1366 4134 1134 3806 
Q 844 3388 844 2259 
z
" transform="scale(0.015625)"/>
      </defs>
      <use xlink:href="#ArialMT-2212"/>
      <use xlink:href="#ArialMT-34" x="58.398438"/>
      <use xlink:href="#ArialMT-30" x="114.013672"/>
      <use xlink:href="#ArialMT-30" x="169.628906"/>
      <use xlink:href="#ArialMT-30" x="225.244141"/>
     </g>
    </g>
   </g>
   <g id="xtick_2">
    <g id="line2d_3">
     <path d="M 64.935186 60.916564 
L 65.797887 61.083847 
" style="fill: none; stroke: #000000; stroke-width: 0.8; stroke-linecap: square"/>
    </g>
    <g id="text_2">
     <!-- 0 -->
     <g transform="translate(67.835875 66.12989) scale(0.03 -0.03)">
      <use xlink:href="#ArialMT-30"/>
     </g>
    </g>
   </g>
   <g id="xtick_3">
    <g id="line2d_4">
     <path d="M 61.245091 67.234359 
L 62.132066 67.412465 
" style="fill: none; stroke: #000000; stroke-width: 0.8; stroke-linecap: square"/>
    </g>
    <g id="text_3">
     <!-- 4000 -->
     <g transform="translate(61.764579 72.541071) scale(0.03 -0.03)">
      <use xlink:href="#ArialMT-34"/>
      <use xlink:href="#ArialMT-30" x="55.615234"/>
      <use xlink:href="#ArialMT-30" x="111.230469"/>
      <use xlink:href="#ArialMT-30" x="166.845703"/>
     </g>
    </g>
   </g>
   <g id="text_4">
    <!-- $x_1\ (km)$ -->
    <g transform="translate(71.210961 73.554476) rotate(-59.780562) scale(0.04 -0.04)">
     <defs>
      <path id="STIXGeneral-Italic-78" d="M 1555 2272 
L 1632 1907 
Q 1971 2426 2179 2624 
Q 2387 2822 2598 2822 
Q 2714 2822 2787 2755 
Q 2861 2688 2861 2585 
Q 2861 2483 2800 2419 
Q 2739 2355 2643 2355 
Q 2586 2355 2490 2409 
Q 2394 2464 2310 2464 
Q 2125 2464 1683 1690 
Q 1683 1606 1734 1402 
L 1939 544 
Q 2003 282 2131 282 
Q 2234 282 2432 538 
Q 2451 563 2476 598 
Q 2502 634 2521 662 
Q 2541 691 2566 717 
L 2662 659 
Q 2387 230 2227 80 
Q 2067 -70 1882 -70 
Q 1728 -70 1645 26 
Q 1562 122 1504 365 
L 1318 1126 
L 755 365 
Q 557 96 432 13 
Q 307 -70 147 -70 
Q 0 -70 -86 0 
Q -173 70 -173 198 
Q -173 294 -112 361 
Q -51 429 45 429 
Q 122 429 250 358 
Q 346 301 416 301 
Q 525 301 742 614 
L 1267 1357 
L 1088 2150 
Q 1024 2432 969 2509 
Q 915 2586 794 2586 
Q 717 2586 544 2541 
L 429 2509 
L 410 2611 
L 480 2637 
Q 992 2822 1229 2822 
Q 1350 2822 1420 2707 
Q 1491 2592 1555 2272 
z
" transform="scale(0.015625)"/>
      <path id="STIXGeneral-Regular-31" d="M 2522 0 
L 755 0 
L 755 96 
Q 1107 115 1235 227 
Q 1363 339 1363 608 
L 1363 3482 
Q 1363 3795 1171 3795 
Q 1082 3795 883 3718 
L 710 3654 
L 710 3744 
L 1856 4326 
L 1914 4307 
L 1914 486 
Q 1914 275 2042 185 
Q 2170 96 2522 96 
L 2522 0 
z
" transform="scale(0.015625)"/>
      <path id="STIXGeneral-Regular-28" d="M 1946 -1030 
L 1869 -1133 
Q 1126 -710 716 32 
Q 307 774 307 1613 
Q 307 3386 1888 4326 
L 1946 4224 
Q 1293 3667 1075 3126 
Q 858 2586 858 1632 
Q 858 685 1082 96 
Q 1306 -493 1946 -1030 
z
" transform="scale(0.015625)"/>
      <path id="STIXGeneral-Italic-6b" d="M 2950 2739 
L 2950 2637 
Q 2720 2624 2464 2448 
Q 2208 2272 1510 1651 
L 1747 1088 
Q 2099 262 2266 262 
Q 2400 262 2554 531 
Q 2586 582 2650 698 
L 2746 627 
Q 2522 224 2374 77 
Q 2227 -70 2035 -70 
Q 1894 -70 1782 42 
Q 1670 154 1517 454 
Q 1325 826 1133 1357 
L 877 1152 
L 570 0 
L 90 0 
L 992 3379 
Q 1082 3699 1107 3942 
Q 1088 4096 781 4096 
L 666 4096 
L 666 4198 
Q 1146 4256 1670 4371 
L 1709 4333 
L 941 1414 
L 1216 1626 
Q 2131 2330 2131 2522 
Q 2131 2637 1894 2637 
L 1805 2637 
L 1805 2739 
L 2950 2739 
z
" transform="scale(0.015625)"/>
      <path id="STIXGeneral-Italic-6d" d="M 4506 672 
L 4474 627 
Q 3981 -58 3552 -58 
Q 3296 -58 3296 237 
Q 3296 333 3379 659 
L 3750 2112 
Q 3795 2291 3795 2355 
Q 3795 2413 3756 2451 
Q 3718 2490 3667 2490 
Q 3366 2490 2829 1741 
Q 2592 1408 2457 1072 
Q 2323 736 2138 0 
L 1658 0 
L 1830 595 
Q 2266 2099 2266 2330 
Q 2266 2490 2125 2490 
Q 1965 2490 1702 2237 
Q 1440 1984 1171 1574 
Q 1011 1325 899 1043 
Q 787 762 557 0 
L 77 0 
L 352 922 
Q 704 2093 704 2381 
Q 704 2522 442 2522 
L 282 2522 
L 282 2624 
L 1318 2822 
L 1338 2810 
L 966 1472 
Q 1798 2822 2374 2822 
Q 2560 2822 2659 2720 
Q 2758 2618 2758 2438 
Q 2758 2195 2502 1466 
Q 2842 2003 3069 2275 
Q 3296 2547 3526 2694 
Q 3731 2822 3930 2822 
Q 4102 2822 4201 2710 
Q 4301 2598 4301 2419 
Q 4301 2336 4282 2240 
L 3846 634 
Q 3782 390 3782 346 
Q 3782 243 3859 243 
Q 4000 243 4275 582 
L 4410 749 
L 4506 672 
z
" transform="scale(0.015625)"/>
      <path id="STIXGeneral-Regular-29" d="M 186 4224 
L 262 4326 
Q 992 3891 1408 3148 
Q 1824 2406 1824 1581 
Q 1824 -166 243 -1133 
L 186 -1030 
Q 845 -486 1059 54 
Q 1274 595 1274 1562 
Q 1274 2534 1059 3120 
Q 845 3706 186 4224 
z
" transform="scale(0.015625)"/>
     </defs>
     <use xlink:href="#STIXGeneral-Italic-78" transform="translate(0 0.703125)"/>
     <use xlink:href="#STIXGeneral-Regular-31" transform="translate(44.399994 -12.525) scale(0.7)"/>
     <use xlink:href="#STIXGeneral-Regular-28" transform="translate(107.875778 0.703125)"/>
     <use xlink:href="#STIXGeneral-Italic-6b" transform="translate(141.175766 0.703125)"/>
     <use xlink:href="#STIXGeneral-Italic-6d" transform="translate(185.57576 0.703125)"/>
     <use xlink:href="#STIXGeneral-Regular-29" transform="translate(257.775741 0.703125)"/>
    </g>
   </g>
  </g>
  <g id="axis3d_2">
   <g id="line2d_5">
    <path d="M 23.159472 63.611173 
L 59.364529 71.029604 
" style="fill: none; stroke: #000000; stroke-width: 0.2; stroke-linecap: square"/>
   </g>
   <g id="xtick_4">
    <g id="line2d_6">
     <path d="M 29.604111 64.748134 
L 29.246549 65.22638 
" style="fill: none; stroke: #000000; stroke-width: 0.8; stroke-linecap: square"/>
    </g>
    <g id="text_5">
     <!-- −4000 -->
     <g transform="translate(24.81135 68.494546) scale(0.03 -0.03)">
      <use xlink:href="#ArialMT-2212"/>
      <use xlink:href="#ArialMT-34" x="58.398438"/>
      <use xlink:href="#ArialMT-30" x="114.013672"/>
      <use xlink:href="#ArialMT-30" x="169.628906"/>
      <use xlink:href="#ArialMT-30" x="225.244141"/>
     </g>
    </g>
   </g>
   <g id="xtick_5">
    <g id="line2d_7">
     <path d="M 41.045551 67.090365 
L 40.711199 67.579762 
" style="fill: none; stroke: #000000; stroke-width: 0.8; stroke-linecap: square"/>
    </g>
    <g id="text_6">
     <!-- 0 -->
     <g transform="translate(39.65381 70.861322) scale(0.03 -0.03)">
      <use xlink:href="#ArialMT-30"/>
     </g>
    </g>
   </g>
   <g id="xtick_6">
    <g id="line2d_8">
     <path d="M 52.755012 69.487464 
L 52.445065 69.988407 
" style="fill: none; stroke: #000000; stroke-width: 0.8; stroke-linecap: square"/>
    </g>
    <g id="text_7">
     <!-- 4000 -->
     <g transform="translate(48.884576 73.283685) scale(0.03 -0.03)">
      <use xlink:href="#ArialMT-34"/>
      <use xlink:href="#ArialMT-30" x="55.615234"/>
      <use xlink:href="#ArialMT-30" x="111.230469"/>
      <use xlink:href="#ArialMT-30" x="166.845703"/>
     </g>
    </g>
   </g>
   <g id="text_8">
    <!-- $x_2\ (km)$ -->
    <g transform="translate(32.758134 74.449424) rotate(-348.420349) scale(0.04 -0.04)">
     <defs>
      <path id="STIXGeneral-Regular-32" d="M 3034 877 
L 2688 0 
L 186 0 
L 186 77 
L 1325 1286 
Q 1773 1754 1965 2144 
Q 2157 2534 2157 2950 
Q 2157 3379 1920 3616 
Q 1683 3853 1267 3853 
Q 922 3853 720 3673 
Q 518 3494 326 3021 
L 192 3053 
Q 301 3648 630 3987 
Q 960 4326 1523 4326 
Q 2054 4326 2380 4006 
Q 2707 3686 2707 3200 
Q 2707 2477 1888 1613 
L 832 486 
L 2330 486 
Q 2541 486 2665 569 
Q 2790 653 2944 915 
L 3034 877 
z
" transform="scale(0.015625)"/>
     </defs>
     <use xlink:href="#STIXGeneral-Italic-78" transform="translate(0 0.703125)"/>
     <use xlink:href="#STIXGeneral-Regular-32" transform="translate(44.399994 -12.525) scale(0.7)"/>
     <use xlink:href="#STIXGeneral-Regular-28" transform="translate(107.875778 0.703125)"/>
     <use xlink:href="#STIXGeneral-Italic-6b" transform="translate(141.175766 0.703125)"/>
     <use xlink:href="#STIXGeneral-Italic-6d" transform="translate(185.57576 0.703125)"/>
     <use xlink:href="#STIXGeneral-Regular-29" transform="translate(257.775741 0.703125)"/>
    </g>
   </g>
  </g>
  <g id="axis3d_3">
   <g id="line2d_9">
    <path d="M 23.159472 63.611173 
L 22.008823 38.561341 
" style="fill: none; stroke: #000000; stroke-width: 0.2; stroke-linecap: square"/>
   </g>
   <g id="xtick_7">
    <g id="line2d_10">
     <path d="M 23.084406 59.115038 
L 22.710792 59.580768 
" style="fill: none; stroke: #000000; stroke-width: 0.8; stroke-linecap: square"/>
    </g>
    <g id="text_9">
     <!-- −4000 -->
     <g transform="translate(13.734681 62.6355) scale(0.03 -0.03)">
      <use xlink:href="#ArialMT-2212"/>
      <use xlink:href="#ArialMT-34" x="58.398438"/>
      <use xlink:href="#ArialMT-30" x="114.013672"/>
      <use xlink:href="#ArialMT-30" x="169.628906"/>
      <use xlink:href="#ArialMT-30" x="225.244141"/>
     </g>
    </g>
   </g>
   <g id="xtick_8">
    <g id="line2d_11">
     <path d="M 22.723861 51.223745 
L 22.343864 51.677389 
" style="fill: none; stroke: #000000; stroke-width: 0.8; stroke-linecap: square"/>
    </g>
    <g id="text_10">
     <!-- 0 -->
     <g transform="translate(16.673901 54.708665) scale(0.03 -0.03)">
      <use xlink:href="#ArialMT-30"/>
     </g>
    </g>
   </g>
   <g id="xtick_9">
    <g id="line2d_12">
     <path d="M 22.352536 43.096531 
L 21.965939 43.537151 
" style="fill: none; stroke: #000000; stroke-width: 0.8; stroke-linecap: square"/>
    </g>
    <g id="text_11">
     <!-- 4000 -->
     <g transform="translate(13.718956 46.543141) scale(0.03 -0.03)">
      <use xlink:href="#ArialMT-34"/>
      <use xlink:href="#ArialMT-30" x="55.615234"/>
      <use xlink:href="#ArialMT-30" x="111.230469"/>
      <use xlink:href="#ArialMT-30" x="166.845703"/>
     </g>
    </g>
   </g>
   <g id="text_12">
    <!-- $x_3\ (km)$ -->
    <g transform="translate(12.778527 47.574305) rotate(-272.629999) scale(0.04 -0.04)">
     <defs>
      <path id="STIXGeneral-Regular-33" d="M 390 3264 
L 288 3290 
Q 435 3770 748 4048 
Q 1062 4326 1542 4326 
Q 1990 4326 2265 4083 
Q 2541 3840 2541 3450 
Q 2541 2925 1946 2566 
Q 2298 2413 2477 2227 
Q 2758 1914 2758 1402 
Q 2758 890 2464 506 
Q 2246 211 1840 60 
Q 1434 -90 979 -90 
Q 262 -90 262 275 
Q 262 378 339 442 
Q 416 506 525 506 
Q 685 506 915 339 
Q 1197 141 1466 141 
Q 1818 141 2058 425 
Q 2298 710 2298 1120 
Q 2298 1856 1632 2048 
Q 1434 2112 979 2112 
L 979 2202 
Q 1338 2323 1517 2432 
Q 2035 2726 2035 3290 
Q 2035 3610 1852 3776 
Q 1670 3942 1344 3942 
Q 768 3942 390 3264 
z
" transform="scale(0.015625)"/>
     </defs>
     <use xlink:href="#STIXGeneral-Italic-78" transform="translate(0 0.703125)"/>
     <use xlink:href="#STIXGeneral-Regular-33" transform="translate(44.399994 -12.525) scale(0.7)"/>
     <use xlink:href="#STIXGeneral-Regular-28" transform="translate(107.875778 0.703125)"/>
     <use xlink:href="#STIXGeneral-Italic-6b" transform="translate(141.175766 0.703125)"/>
     <use xlink:href="#STIXGeneral-Italic-6d" transform="translate(185.57576 0.703125)"/>
     <use xlink:href="#STIXGeneral-Regular-29" transform="translate(257.775741 0.703125)"/>
    </g>
   </g>
  </g>
  <g id="axes_1">
   <g id="line2d_13">
    <path d="M 67.063029 42.621455 
L 65.424501 38.280502 
L 62.504643 34.528472 
L 58.543358 31.629114 
L 53.846644 29.773499 
L 48.759601 29.072276 
L 43.640965 29.55466 
L 38.840753 31.172208 
L 34.681253 33.805613 
L 31.440819 37.273402 
L 29.339889 41.34221 
L 28.528725 45.738668 
L 29.077027 50.16345 
L 30.966204 54.307664 
L 34.085265 57.871702 
L 38.231866 60.586151 
L 43.120088 62.233724 
L 48.396337 62.670273 
L 53.663789 61.842181 
L 58.514471 59.796959 
L 62.566073 56.68406 
L 65.498773 52.744248 
L 67.08647 48.287931 
L 67.21746 43.665237 
L 65.901366 39.232398 
L 63.262291 35.319834 
L 59.521077 32.206043 
L 54.970729 30.099593 
L 49.949357 29.129612 
L 44.814176 29.343492 
L 39.918397 30.709793 
L 35.59152 33.124539 
L 32.122639 36.419583 
L 29.74606 40.372555 
L 28.62882 44.718368 
L 28.859895 49.162594 
L 30.441772 53.397264 
L 33.285374 57.119089 
L 37.209713 60.049892 
L 41.947847 61.958417 
L 47.160691 62.681805 
L 52.459439 62.14415 
L 57.435979 60.36902 
L 61.698962 57.48283 
L 64.91115 53.706935 
L 66.822534 49.338336 
L 67.293814 44.721206 
L 66.306675 40.213663 
L 63.960077 36.15484 
L 60.45449 32.837083 
L 56.068433 30.486055 
L 51.131684 29.249363 
L 45.998768 29.192774 
L 41.0251 30.302215 
L 36.546577 32.489473 
L 32.862294 35.600198 
L 30.219784 39.423528 
L 28.802158 43.703233 
L 28.71706 48.150624 
L 29.987673 52.459621 
L 32.54669 56.324358 
L 36.23469 59.459121 
L 40.804426 61.619913 
L 45.932581 62.626202 
L 51.240077 62.380475 
L 56.320718 60.882505 
L 60.776235 58.235169 
L 64.253835 54.639287 
L 66.480856 50.376844 
L 67.290968 45.784282 
L 66.637712 41.219782 
L 64.593907 37.0298 
L 61.338412 33.519638 
L 57.133932 30.931519 
L 52.300518 29.431363 
L 47.188794 29.103495 
L 42.15537 29.95149 
L 37.541637 31.903276 
L 33.655902 34.818762 
L 30.758209 38.499153 
L 29.047141 42.697683 
L 28.648407 47.13209 
L 29.605388 51.499103 
L 31.872327 55.49136 
L 35.311494 58.816784 
L 39.695873 61.219851 
L 44.718987 62.503469 
L 50.013065 62.549307 
L 55.175757 61.333664 
L 59.803944 58.935589 
L 63.531197 55.534467 
L 66.06368 51.395839 
L 67.208797 46.84667 
L 66.89199 42.243502 
L 65.159356 37.938537 
L 62.166974 34.24889 
L 58.160397 31.432727 
L 53.448669 29.673988 
L 48.377211 29.07552 
L 43.302691 29.658809 
L 38.571047 31.368273 
L 34.498939 34.078497 
L 31.358099 37.603241 
L 29.361837 41.705845 
L 28.653295 46.111221 
L 29.295535 50.519803 
L 31.264069 54.623814 
L 34.44293 58.12601 
L 38.625835 60.760555 
L 43.52411 62.314921 
L 48.782765 62.650867 
L 54.005216 61.721667 
L 58.785628 59.582374 
L 62.745917 56.390086 
L 65.572624 52.392554 
L 67.04784 47.905549 
L 67.069018 43.282159 
L 65.65495 38.878799 
L 62.937928 35.023202 
L 59.144996 31.988699 
L 54.572803 29.976996 
L 49.560407 29.109444 
L 44.463395 29.425574 
L 39.63126 30.88664 
L 35.388176 33.382304 
L 32.016797 36.739345 
L 29.744427 40.731766 
L 28.73097 45.092352 
L 29.058629 49.526089 
L 30.723802 53.725793 
L 33.632202 57.390245 
L 37.598641 60.244554 
L 42.353117 62.061942 
L 47.55478 62.685196 
L 52.814607 62.045141 
L 57.726138 60.172851 
L 61.901746 57.202498 
L 65.010082 53.362735 
L 66.808961 48.956484 
L 67.168213 44.331584 
L 66.078918 39.846968 
L 63.648566 35.839699 
L 60.084431 32.597445 
L 55.669368 30.339215 
L 50.734723 29.204866 
L 45.633945 29.252148 
L 40.719073 30.459393 
L 36.320869 32.731738 
L 32.732111 35.909461 
L 30.193357 39.777782 
L 28.880602 44.078045 
L 28.894612 48.520608 
L 30.252286 52.799885 
L 32.88091 56.611809 
L 36.616657 59.673676 
L 41.208963 61.745679 
L 46.332422 62.652654 
L 51.607304 62.303586 
L 56.628542 60.705689 
L 61.001087 57.969698 
L 64.377547 54.303991 
L 66.492677 49.996956 
L 67.189091 45.389378 
L 66.429875 40.841019 
L 64.296829 36.69687 
L 60.976143 33.258015 
L 56.735484 30.760335 
L 51.897155 29.362074 
L 46.811257 29.139396 
L 41.831454 30.088046 
L 37.294271 32.128976 
L 33.501805 35.116374 
L 30.707114 38.847185 
L 29.101587 43.071939 
L 28.803963 47.507151 
L 29.851184 51.849764 
L 32.191907 55.793975 
L 35.683809 59.050486 
L 40.096376 61.36772 
L 45.120815 62.553671 
L 50.38839 62.496247 
L 55.497454 61.178991 
L 60.047607 58.688799 
L 63.677352 55.212776 
L 66.099844 51.023201 
L 67.1311 46.451921 
L 66.705996 41.857748 
L 64.879791 37.592166 
L 61.81639 33.968675 
L 57.766894 31.239476 
L 53.043195 29.581067 
L 47.99086 29.088159 
L 42.964131 29.774198 
L 38.304457 31.576356 
L 34.322531 34.363153 
L 31.283231 37.943726 
L 29.392669 42.078332 
L 28.786903 46.490323 
L 29.5224 50.880031 
L 31.568846 54.94095 
L 34.805445 58.378378 
L 39.02218 60.930182 
L 43.927806 62.388697 
L 49.16608 62.621669 
L 54.340716 61.589412 
L 59.0481 59.354766 
L 62.914584 56.08273 
L 65.633339 52.028136 
L 66.994781 47.512112 
L 66.905709 42.890654 
L 65.394221 38.520115 
L 62.600748 34.725229 
L 58.758445 31.773849 
L 54.167436 29.860432 
L 49.167458 29.098271 
L 44.112245 29.51878 
L 39.347219 31.075677 
L 35.190831 33.652245 
L 31.919016 37.070298 
L 29.751907 41.100396 
L 28.842255 45.473431 
L 29.26555 49.893979 
L 31.012231 54.055826 
L 33.982963 57.66 
L 37.98857 60.43509 
L 42.756243 62.158939 
L 47.9436 62.680092 
L 53.161582 61.936195 
L 58.005488 59.965971 
L 62.0916 56.911555 
L 65.094708 53.008998 
L 66.780691 48.567078 
L 67.0286 43.937093 
L 65.838876 39.478556 
L 63.327455 35.526127 
L 59.708147 32.362464 
L 55.267825 30.199681 
L 50.339092 29.169667 
L 45.273992 29.322017 
L 40.420943 30.627411 
L 36.105345 32.984329 
L 32.613443 36.227754 
L 30.178691 40.139134 
L 28.969938 44.4576 
L 29.081182 48.892786 
L 30.52323 53.139769 
L 33.218171 56.896438 
L 36.998003 59.883239 
L 41.609094 61.864711 
L 46.724229 62.671186 
L 51.963305 62.218235 
L 56.922602 60.520541 
L 61.210429 57.696766 
L 64.485003 53.962926 
L 66.488746 49.613723 
L 67.073285 44.994009 
L 66.2111 40.464782 
L 63.992673 36.369274 
L 60.611213 33.004095 
L 56.338961 30.598538 
L 51.50001 29.303073 
L 46.443603 29.18572 
L 41.52019 30.234418 
L 37.061263 32.363261 
L 33.362658 35.420866 
L 30.670489 39.200065 
L 29.169029 43.448809 
L 28.97017 47.88254 
L 30.104645 52.19854 
L 32.515741 56.092634 
L 36.056755 59.278369 
L 40.493859 61.508179 
L 45.516108 62.595273 
L 50.754015 62.433929 
L 55.806838 61.015028 
L 60.277068 58.433372 
L 63.808255 54.883875 
L 66.120772 50.645608 
L 67.039486 46.055118 
L 66.508719 41.47313 
L 64.59272 37.25001 
L 61.462838 33.695296 
L 57.375318 31.054962 
L 52.644433 29.497844 
L 47.615366 29.110502 
L 42.6396 29.898479 
L 38.053876 31.791829 
L 34.162808 34.653212 
L 31.224429 38.287346 
L 29.437762 42.451593 
L 28.93199 46.867916 
L 29.757266 51.236673 
L 31.877775 55.252693 
L 35.168153 58.623818 
L 39.414842 61.091651 
L 44.324197 62.45344 
L 49.538865 62.58303 
L 54.663068 61.447913 
L 59.295624 59.118772 
L 63.067464 55.768508 
L 65.678462 51.659045 
L 66.927525 47.11681 
L 66.730857 42.500409 
L 65.125742 38.165761 
L 62.260479 34.434219 
L 58.373907 31.567821 
L 53.76912 29.753593 
L 48.786039 29.096692 
L 43.776053 29.620511 
L 39.080259 31.271512 
L 35.011334 33.926817 
L 31.838516 37.403488 
L 29.774894 41.468852 
L 28.966311 45.852079 
L 29.48184 50.257434 
L 31.306218 54.37973 
L 34.33535 57.922253 
L 38.376299 60.617013 
L 43.153574 62.246487 
L 48.323376 62.665059 
L 53.496727 61.817321 
L 58.270879 59.749799 
L 62.266234 56.612631 
L 65.16387 52.649233 
L 66.737772 48.174137 
L 66.876215 43.541974 
L 65.588998 39.112571 
L 63.00032 35.217842 
L 59.330216 32.135124 
L 54.86919 30.069363 
L 49.950641 29.144367 
L 44.924822 29.401593 
L 40.136188 30.804195 
L 35.90462 33.244235 
L 32.509872 36.5516 
L 30.178438 40.504119 
L 29.0722 44.838802 
L 29.278584 49.264621 
L 30.802509 53.477334 
L 33.561029 57.176771 
L 37.382071 60.08656 
L 42.009021 61.975616 
L 47.112879 62.67988 
L 52.313234 62.121722 
L 57.207853 60.323546 
L 61.408644 57.412146 
L 64.57968 53.611261 
L 66.471258 49.221882 
L 66.944189 44.5928 
L 65.980429 40.086008 
L 63.679105 36.042632 
L 60.24018 32.754418 
L 55.940137 30.4438 
L 51.104527 29.253203 
L 46.081321 29.242362 
L 41.217423 30.391445 
L 36.83906 32.607785 
L 33.235666 35.734562 
L 30.646425 39.560671 
L 29.248619 43.831597 
L 29.147448 48.261779 
L 30.367576 52.548872 
L 32.847038 56.39037 
L 36.434827 59.502711 
L 40.893833 61.642464 
L 45.911029 62.628219 
L 51.116235 62.360847 
L 56.109768 60.838869 
L 60.497248 58.165273 
L 63.927631 54.542931 
L 66.128767 50.257667 
L 66.934569 45.650629 
L 66.298983 41.084187 
L 64.29517 36.9072 
L 61.101703 33.42486 
L 56.979634 30.876604 
L 52.245284 29.423395 
L 47.243151 29.143455 
L 42.321596 30.034327 
L 37.812393 32.019037 
L 34.013965 34.954472 
L 31.177447 38.641038 
L 29.494838 42.833333 
L 29.088565 47.251995 
L 30.002569 51.59745 
L 32.195615 55.5659 
L 35.537832 58.867796 
L 39.812145 61.248584 
L 44.722515 62.510631 
L 49.910566 62.534161 
L 54.981151 61.294138 
L 59.535744 58.869434 
L 63.210196 55.441094 
L 65.711491 51.278193 
L 66.847327 46.712288 
L 66.543466 42.104348 
L 64.846411 37.809451 
L 61.912127 34.145099 
L 57.984727 31.36716 
L 53.369882 29.655021 
L 48.407366 29.105552 
L 43.445957 29.734039 
L 38.822148 31.479635 
L 34.842636 34.213399 
L 31.769904 37.747731 
L 29.809996 41.846833 
L 29.101922 46.238264 
L 29.708457 50.626066 
L 31.608784 54.706137 
L 34.69413 58.184092 
L 38.767857 60.795501 
L 43.551837 62.327669 
L 48.700932 62.641095 
L 50.367244 62.472732 
L 55.399893 61.11933 
L 59.883461 58.593427 
L 63.459006 55.084885 
L 65.841605 50.869835 
L 66.849105 46.284225 
L 66.418206 41.690177 
L 64.605805 37.440798 
L 61.576682 33.848909 
L 57.581399 31.163738 
L 52.929395 29.557035 
L 47.96172 29.117809 
L 43.026229 29.853779 
L 38.456681 31.697237 
L 34.555628 34.513309 
L 31.580329 38.109523 
L 29.730728 42.246315 
L 29.139063 46.64872 
L 29.860862 51.019637 
L 31.867829 55.055314 
L 35.04375 58.463391 
L 39.185003 60.983304 
L 44.00752 62.408111 
L 49.161917 62.60581 
L 54.257647 61.537126 
L 58.895339 59.266146 
L 62.704246 55.960357 
L 65.379582 51.878239 
L 66.713584 47.345089 
L 66.614918 42.720484 
L 65.113385 38.362784 
L 62.350463 34.596538 
L 58.559064 31.68706 
L 54.037194 29.824347 
L 49.120391 29.116116 
L 44.156305 29.588006 
L 39.482863 31.188633 
L 35.410397 33.797518 
L 32.207031 37.234457 
L 30.086366 41.269802 
L 29.196796 45.635799 
L 29.612211 50.039414 
L 31.32442 54.177189 
L 34.238188 57.752606 
L 38.170431 60.495964 
L 42.855414 62.186018 
L 47.957791 62.671673 
L 53.094575 61.890943 
L 57.865697 59.883622 
L 61.89065 56.794107 
L 64.846495 52.861934 
L 66.500962 48.400006 
L 66.734921 43.763493 
L 65.550626 39.314391 
L 63.065279 35.38767 
L 59.492756 32.26393 
L 55.118271 30.151145 
L 50.270656 29.175709 
L 45.296183 29.381369 
L 40.536002 30.733452 
L 36.307439 33.126287 
L 32.888768 36.392386 
L 30.506553 40.31254 
L 29.324713 44.626845 
L 29.434946 49.047097 
L 30.848719 53.271065 
L 33.491588 56.999202 
L 37.201211 59.953897 
L 41.730874 61.900803 
L 46.760455 62.670779 
L 51.916222 62.179836 
L 56.799491 60.443645 
L 61.022177 57.582957 
L 64.245011 53.817114 
L 66.21244 49.444979 
L 66.778049 44.815432 
L 65.9162 40.292325 
L 63.718854 36.219709 
L 60.379613 32.892566 
L 56.16944 30.536394 
L 51.40914 29.2963 
L 46.442551 29.234307 
L 41.613031 30.33274 
L 37.244032 32.501175 
L 33.623258 35.585307 
L 30.989554 39.376882 
L 29.52172 43.624465 
L 29.328695 48.045421 
L 30.441174 52.339653 
L 32.805279 56.205643 
L 36.279528 59.35908 
L 40.636812 61.553756 
L 45.573347 62.603564 
L 50.726246 62.403262 
L 55.700188 60.944678 
L 60.101669 58.324536 
L 63.577062 54.740887 
L 65.848893 50.476882 
L 66.744043 45.873273 
L 66.208846 41.293979 
L 64.309182 37.090624 
L 61.217072 33.571599 
L 57.187838 30.979455 
L 52.532869 29.477882 
L 47.592379 29.147432 
L 42.711025 29.987764 
L 38.217563 31.924055 
L 34.408353 34.815623 
L 31.533831 38.465667 
L 29.787043 42.63181 
L 29.293589 47.037693 
L 30.102909 51.386211 
L 32.181414 55.374908 
L 35.40849 58.713949 
L 39.577084 61.14652 
L 44.400755 62.470713 
L 49.529014 62.560894 
L 54.571834 61.38537 
L 59.132404 59.01659 
L 62.844797 55.630386 
L 65.411205 51.492624 
L 66.632563 46.934009 
L 66.427076 42.316681 
L 64.833778 37.998316 
L 62.00192 34.299637 
L 58.169769 31.479665 
L 53.63792 29.720566 
L 48.741738 29.121561 
L 43.826156 29.700001 
L 39.224447 31.397092 
L 35.240956 34.086197 
L 32.137073 37.582409 
L 30.119444 41.652913 
L 29.329708 46.028261 
L 29.835516 50.415122 
L 31.623178 54.511067 
L 34.592863 58.021862 
L 38.557855 60.681306 
L 43.249838 62.272919 
L 48.332091 62.651669 
L 53.421752 61.762899 
L 58.120809 59.654669 
L 62.053077 56.479871 
L 64.902181 52.485744 
L 66.444208 47.991116 
L 66.569455 43.354418 
L 65.289539 38.937692 
L 62.729781 35.072778 
L 59.110034 32.034473 
L 54.718722 30.023129 
L 49.885072 29.156733 
L 44.953229 29.470605 
L 40.260065 30.922353 
L 36.117145 33.399821 
L 32.796128 36.730472 
L 30.516632 40.691563 
L 29.435742 45.021169 
L 29.638818 49.430482 
L 31.131674 53.617995 
L 33.835041 57.286167 
L 37.582731 60.160643 
L 42.125221 62.011569 
L 47.140742 62.675597 
L 52.255337 62.075805 
L 57.071889 60.235977 
L 61.206081 57.285434 
L 64.324731 53.451588 
L 66.180392 49.039739 
L 66.635942 44.402647 
L 65.675213 39.904913 
L 63.398629 35.888074 
L 60.006216 32.641816 
L 55.772753 30.384341 
L 51.019998 29.25238 
L 46.090102 29.29949 
L 41.322592 30.500099 
L 37.035448 32.756981 
L 33.509879 35.910455 
L 30.977822 39.74842 
L 29.611233 44.017117 
L 29.512621 48.433019 
L 30.70692 52.696482 
L 33.135322 56.507695 
L 36.652323 59.585285 
L 41.027795 61.687258 
L 45.956071 62.633002 
L 51.073733 62.32406 
L 55.986613 60.760129 
L 60.30442 58.046448 
L 63.679067 54.389352 
L 65.840743 50.078909 
L 66.625421 45.460391 
L 65.98891 40.899158 
L 64.005787 36.745031 
L 60.855003 33.301666 
L 56.796241 30.804656 
L 52.142412 29.409531 
L 47.232571 29.188342 
L 42.407929 30.132705 
L 37.992102 32.16078 
L 34.27521 35.126209 
L 31.500905 38.827999 
L 29.855385 43.021095 
L 29.45775 47.427929 
L 30.351576 51.751524 
L 32.498187 55.690822 
L 35.772787 58.958606 
L 39.965075 61.301918 
L 44.786428 62.524042 
L 49.885474 62.505852 
L 54.872916 61.223346 
L 59.354652 58.757404 
L 62.969702 55.292325 
L 65.427473 51.101381 
L 66.537781 46.520457 
L 66.228348 41.913873 
L 64.54721 37.638195 
L 61.650992 34.009977 
L 57.782931 31.281654 
L 53.245731 29.627346 
L 48.374096 29.137782 
L 43.509957 29.822128 
L 38.981732 31.6143 
L 35.087691 34.381696 
L 32.08253 37.934916 
L 30.166079 42.038144 
L 29.473432 46.420397 
L 30.066268 50.788172 
L 31.925686 54.840139 
L 34.947491 58.284377 
L 38.941525 60.858238 
L 43.637042 62.35009 
L 48.696085 62.621128 
L 53.736125 61.624177 
L 58.361392 59.415655 
L 62.200148 56.156999 
L 64.942698 52.103211 
L 66.373694 47.578955 
L 66.392927 42.945571 
L 65.021237 38.564715 
L 62.391773 34.764656 
L 58.729911 31.814024 
L 54.326779 29.905336 
L 49.511486 29.148062 
L 44.625564 29.569232 
L 40.001402 31.118984 
L 35.944725 33.678883 
L 32.720599 37.071575 
L 30.541842 41.071012 
L 29.558953 45.413426 
L 29.851208 49.809533 
L 31.419068 53.958645 
L 34.178773 57.565236 
L 37.960509 60.358182 
L 42.512096 62.112176 
L 47.510262 62.669764 
L 52.580972 61.96124 
L 57.328906 60.018633 
L 61.373712 56.979852 
L 64.388416 53.080302 
L 66.133664 48.63161 
L 66.48164 43.990235 
L 65.425555 39.521182 
L 63.074035 35.563116 
L 59.633192 32.400087 
L 55.381168 30.242742 
L 50.640217 29.219372 
L 45.75042 29.3751 
L 41.047149 30.676648 
L 36.842831 33.020249 
L 33.412282 36.241049 
L 30.980697 40.123251 
L 29.713386 44.410877 
L 29.706664 48.81958 
L 30.979929 53.050172 
L 33.469612 56.804556 
L 37.026323 59.804317 
L 41.416994 61.811697 
L 46.334106 62.651714 
L 51.413779 62.232908 
L 56.263131 60.563107 
L 60.495306 57.756259 
L 63.767988 54.027061 
L 65.819213 49.67245 
L 66.494154 45.04206 
L 65.758135 40.502439 
L 63.694362 36.401218 
L 60.488416 33.03691 
L 56.404005 30.637859 
L 51.755198 29.351165 
L 46.879497 29.240288 
L 42.114364 30.288848 
L 37.778064 32.408111 
L 34.154392 35.446212 
L 31.480292 39.198134 
L 29.935276 43.416256 
L 29.632113 47.821847 
L 30.608654 52.118104 
L 32.821273 56.005396 
L 36.141053 59.199171 
L 40.354491 61.450459 
L 45.170825 62.5679 
L 50.237848 62.439136 
L 55.167126 61.04817 
L 59.567505 58.48462 
L 63.083277 54.941381 
L 65.431291 50.69912 
L 66.430463 46.09878 
L 66.018155 41.506559 
L 64.251323 37.277503 
L 61.293735 33.723573 
L 57.393238 31.090292 
L 52.854319 29.543498 
L 48.010698 29.165222 
L 43.200955 29.956384 
L 38.74844 31.843722 
L 34.945257 34.688761 
L 32.039378 38.297724 
L 30.223906 42.431939 
L 29.627535 46.818953 
L 30.306098 51.165138 
L 32.235584 55.170305 
L 35.30751 58.544909 
L 39.328294 61.029971 
L 44.02477 62.418931 
L 49.057823 62.579481 
L 54.045349 61.472258 
L 58.594036 59.162396 
L 62.336916 55.820121 
L 64.971343 51.708239 
L 66.290763 47.157071 
L 66.204608 42.530632 
L 64.742969 38.189743 
L 62.046582 34.458621 
L 58.345938 31.599379 
L 53.934516 29.796459 
L 49.140994 29.150658 
L 44.304046 29.680593 
L 39.751299 31.328912 
L 35.782502 33.97101 
L 32.6561 37.424793 
L 30.578127 41.461014 
L 29.692608 45.814164 
L 30.072879 50.19455 
L 31.714169 54.302343 
L 34.528279 57.844116 
L 38.34181 60.552118 
L 42.899938 62.205791 
L 47.877932 62.653895 
L 52.901849 61.834292 
L 57.578367 59.787579 
L 61.531394 56.66053 
L 64.440512 52.696668 
L 66.074845 48.213843 
L 66.31607 43.571838 
L 65.16673 39.135615 
L 62.743448 35.240456 
L 59.257989 32.164311 
L 54.991338 30.110029 
L 50.265858 29.197348 
L 45.419262 29.462924 
L 40.782598 30.865775 
L 36.66258 33.295625 
L 33.327547 36.582558 
L 30.995978 40.507218 
L 29.826636 44.811545 
L 29.909786 49.210492 
L 31.259462 53.405454 
L 33.807507 57.100142 
L 37.400771 60.019221 
L 41.803346 61.929374 
L 46.706001 62.661504 
L 51.744582 62.131441 
L 56.527794 60.355422 
L 60.672566 57.456252 
L 63.84264 53.656966 
L 65.784104 49.261206 
L 66.351442 44.622632 
L 65.519385 40.108473 
L 63.379411 36.063688 
L 60.12327 32.781253 
L 56.018097 30.481993 
L 51.378549 29.304574 
L 46.540235 29.303987 
L 41.836697 30.456006 
L 37.580819 32.665138 
L 34.050129 35.774124 
L 31.474917 39.574031 
L 30.028129 43.81481 
L 29.816416 48.216719 
L 30.872167 52.48322 
L 33.147022 56.316172 
L 36.508125 59.43378 
L 40.738915 61.591184 
L 45.546638 62.602584 
L 50.57846 62.362616 
L 55.447066 60.863472 
L 59.764523 58.203625 
L 63.180695 54.584585 
L 65.420115 50.294171 
L 66.31074 45.678018 
L 65.799385 41.103826 
L 63.951648 36.924691 
L 60.937965 33.447592 
L 57.01024 30.910897 
L 52.474167 29.47208 
L 47.662016 29.20463 
L 42.90883 30.101473 
L 38.532872 32.082322 
L 34.820163 35.003006 
L 32.012153 38.665504 
L 30.295368 42.828338 
L 29.792265 47.217719 
L 30.553069 51.539978 
L 32.54887 55.496123 
L 35.667056 58.799055 
L 39.710777 61.19358 
L 44.404597 62.478365 
L 49.408417 62.52781 
L 54.340816 61.310544 
L 58.811197 58.900493 
L 62.457585 55.476666 
L 64.984536 51.309551 
L 66.194394 46.734858 
L 66.006059 42.118837 
L 64.458512 37.821169 
L 61.699752 34.161724 
L 57.965003 31.395803 
L 53.549618 29.699628 
L 48.781419 29.165332 
L 43.995902 29.803275 
L 39.515847 31.548822 
L 35.635083 34.27135 
L 32.605582 37.784214 
L 30.62684 41.855043 
L 29.836557 46.216616 
L 30.302284 50.578901 
L 32.014177 54.642974 
L 34.879729 58.11756 
L 38.722058 60.738359 
L 43.283805 62.289693 
L 48.238868 62.626703 
L 53.213494 61.695055 
L 57.816547 59.544117 
L 61.676363 56.329635 
L 64.479244 52.30328 
L 66.002921 47.789027 
L 66.138642 43.149755 
L 64.898238 38.750009 
L 62.406106 34.921333 
L 58.879428 31.935281 
L 54.601784 29.986569 
L 49.895268 29.18616 
L 45.094867 29.56218 
L 40.527018 31.066006 
L 36.492582 33.581016 
L 33.253407 36.93242 
L 31.021349 40.897477 
L 29.948783 45.216154 
L 30.12007 49.602782 
L 31.544027 53.759419 
L 34.148059 57.391673 
L 37.775408 60.227364 
L 42.187442 62.037704 
L 47.073279 62.659625 
L 52.068536 62.016462 
L 56.783574 60.133117 
L 60.839227 57.141461 
L 63.905432 53.273 
L 65.736477 48.838105 
L 66.196264 44.194345 
L 65.269005 39.709398 
L 63.054474 35.725168 
L 59.750439 32.528691 
L 55.627282 30.332933 
L 51.000075 29.267767 
L 46.202204 29.37944 
L 41.562957 30.635783 
L 37.389572 32.934591 
L 33.953143 36.113348 
L 31.47728 39.959406 
L 30.128429 44.220465 
L 30.007199 48.615893 
L 31.140591 52.849565 
L 33.475651 56.625 
L 36.875756 59.66331 
L 41.121469 61.723869 
L 45.918176 62.626554 
L 50.912487 62.273178 
L 55.718277 60.664385 
L 59.950998 57.907748 
L 63.266232 54.21349 
L 65.396277 49.876626 
L 66.178269 45.247412 
L 65.56854 40.694809 
L 63.641272 36.569663 
L 60.573521 33.173606 
L 56.621077 30.73745 
L 52.090647 29.410017 
L 47.312901 29.255943 
L 42.619041 30.259906 
L 38.321937 32.334574 
L 34.701316 35.330163 
L 31.991972 39.044569 
L 30.373865 43.233726 
L 29.963312 47.622646 
L 30.804999 51.917774 
L 32.865212 55.8215 
L 36.027381 59.049376 
L 40.09159 61.35015 
L 44.780308 62.527859 
L 49.752561 62.463758 
L 54.627665 61.134699 
L 59.017846 58.623695 
L 62.56633 55.118764 
L 64.985115 50.89808 
L 66.085516 46.302616 
L 65.795994 41.700644 
L 64.164416 37.4503 
L 61.345829 33.866705 
L 57.579966 31.197993 
L 53.163791 29.611812 
L 48.423989 29.191403 
L 43.692685 29.938704 
L 39.287554 31.781695 
L 35.496248 34.58381 
L 32.564116 38.153995 
L 30.684052 42.256982 
L 29.987525 46.624084 
L 30.536459 50.965121 
L 32.316118 54.982277 
L 35.229897 58.386614 
L 39.097674 60.917501 
L 43.659809 62.364309 
L 48.589079 62.588707 
L 53.512109 61.544272 
L 58.040064 59.289299 
L 61.805913 55.988654 
L 64.50289 51.90212 
L 65.91742 47.359558 
L 65.950225 42.726589 
L 64.622174 38.366984 
L 62.065166 34.608194 
L 58.50143 31.715042 
L 54.216734 29.873942 
L 49.532583 29.186967 
L 44.780988 29.673693 
L 40.283639 31.27791 
L 36.335485 33.876744 
L 33.191869 37.290647 
L 31.058051 41.293647 
L 30.080119 45.623932 
L 30.336721 49.995383 
L 31.831654 54.110859 
L 34.4881 57.678 
L 38.145887 60.427923 
L 42.563867 62.136556 
L 47.429743 62.647028 
L 52.379133 61.890314 
L 57.02423 59.900061 
L 60.989895 56.817327 
L 63.952479 52.882139 
L 65.674651 48.411388 
L 66.029708 43.766151 
L 65.011111 39.314107 
L 62.726538 35.393734 
L 59.379398 32.285803 
L 55.242861 30.195173 
L 50.631931 29.242889 
L 45.877484 29.466523 
L 41.304355 30.826066 
L 37.214051 33.212782 
L 33.871287 36.459112 
L 31.493124 40.348845 
L 30.239695 44.627578 
L 30.205803 49.013923 
L 31.41333 53.212259 
L 33.804953 56.927818 
L 37.240477 59.884682 
L 41.497733 61.84656 
L 46.280378 62.639186 
L 51.234643 62.171743 
L 55.975772 60.45347 
L 60.122729 57.601137 
L 63.336932 53.833776 
L 65.358676 49.453575 
L 66.034414 44.815068 
L 65.329884 40.288004 
L 63.32759 36.220477 
L 60.210767 32.908351 
L 56.238602 30.574593 
L 51.718302 29.359202 
L 46.978429 29.318041 
L 42.346103 30.427764 
L 38.128688 32.594194 
L 34.599613 35.662186 
L 31.987137 39.425775 
L 30.464861 43.638507 
L 30.143219 48.024362 
L 31.06168 52.29002 
L 33.182073 56.139296 
L 36.38412 59.290391 
L 40.465 61.496064 
L 45.145244 62.565835 
L 50.083148 62.387985 
L 54.898985 60.947752 
L 59.208011 58.337284 
L 60.812476 56.903577 
L 63.803536 52.985517 
L 65.564986 48.523112 
L 65.966483 43.877333 
L 64.997627 39.41663 
L 62.762424 35.480836 
L 59.461057 32.352383 
L 55.364071 30.237774 
L 50.784342 29.259555 
L 46.051051 29.456696 
L 41.487838 30.79055 
L 37.395537 33.15367 
L 34.038686 36.379774 
L 31.634802 40.253976 
L 30.345225 44.523156 
L 30.266809 48.907036 
L 31.424284 53.11073 
L 33.763897 56.839686 
L 37.149545 59.817475 
L 41.363311 61.806464 
L 46.112781 62.630218 
L 51.047272 62.195114 
L 55.783814 60.507328 
L 59.941628 57.680737 
L 63.180849 53.932075 
L 65.239159 49.562126 
L 65.959528 44.925082 
L 65.303885 40.391271 
L 63.351017 36.310013 
L 60.280816 32.978753 
L 56.349704 30.622121 
L 51.862669 29.381644 
L 47.146524 29.314543 
L 42.52703 30.398742 
L 38.310676 32.541362 
L 34.770592 35.588553 
L 32.13535 39.335651 
L 30.579573 43.537481 
L 30.215505 47.919166 
L 31.085255 52.188231 
L 33.154067 56.048834 
L 36.305637 59.21884 
L 40.34137 61.449876 
L 44.985821 62.549504 
L 49.900605 62.403373 
L 54.708113 60.993714 
L 55.84782 60.451944 
L 59.983902 57.600918 
L 63.197554 53.833733 
L 65.228529 49.453021 
L 65.922201 44.814033 
L 65.242881 40.287226 
L 63.271421 36.221157 
L 60.189233 32.911743 
L 56.25354 30.581572 
L 51.769415 29.369913 
L 47.063114 29.331729 
L 42.459343 30.442904 
L 38.263191 32.608828 
L 34.74616 35.674291 
L 32.135168 39.433703 
L 30.60329 43.6413 
L 30.26132 48.021948 
L 31.150093 52.283235 
L 33.233757 56.129683 
L 36.395099 59.279829 
L 40.434786 61.486321 
L 45.076878 62.558145 
L 49.98281 62.382783 
L 54.775214 60.944651 
L 59.070747 58.335357 
L 62.518402 54.751786 
L 64.837248 50.480079 
L 65.846651 45.866978 
L 65.483248 41.283098 
L 63.801941 37.085067 
L 60.962658 33.582941 
L 57.207175 31.017048 
L 52.831423 29.545659 
L 48.15823 29.242286 
L 43.513607 30.099793 
L 39.20768 32.038505 
L 35.51995 34.915971 
L 32.687766 38.537179 
L 30.896875 42.664787 
L 30.272946 47.029617 
L 30.873696 51.342333 
L 32.681861 55.30704 
L 35.599893 58.637615 
L 39.448009 61.077096 
L 43.967933 62.419595 
L 48.834692 62.532764 
L 53.678034 61.377525 
L 58.113336 59.020659 
L 61.77908 55.635979 
L 64.375379 51.491562 
L 65.696547 46.923575 
L 65.651449 42.300838 
L 64.268329 37.986485 
L 61.684459 34.303569 
L 58.124679 31.509606 
L 53.874343 29.781862 
L 49.251644 29.212656 
L 44.582924 29.812289 
L 40.182605 31.516516 
L 36.337588 34.19612 
L 33.295181 37.667134 
L 31.253293 41.701038 
L 30.351878 46.035177 
L 30.66502 50.383983 
L 32.193619 54.451986 
L 34.859533 57.949446 
L 38.502643 60.61101 
L 42.882956 62.217138 
L 47.690244 62.616721 
L 52.563095 61.747848 
L 57.117707 59.652505 
L 60.984236 56.480726 
L 63.845666 52.481082 
L 65.472412 47.977323 
L 65.745956 43.334426 
L 64.667291 38.920254 
L 62.349904 35.069681 
L 59.000388 32.056712 
L 54.89209 30.077361 
L 50.337272 29.242964 
L 45.661588 29.581623 
L 41.182914 31.044978 
L 37.194869 33.517541 
L 33.954114 36.826873 
L 31.670204 40.753769 
L 30.496863 45.042585 
L 30.524007 49.412162 
L 31.770262 53.568276 
L 34.176634 57.21855 
L 37.602665 60.090383 
L 41.827092 61.951826 
L 46.555443 62.634138 
L 51.436703 62.053367 
L 56.08987 60.226928 
L 60.138907 57.280587 
L 63.251622 53.442209 
L 65.175883 49.021354 
L 65.766332 44.377228 
L 64.996527 39.880581 
L 62.955225 35.876645 
L 59.829431 32.655103 
L 55.879169 30.430378 
L 51.409452 29.332805 
L 46.744086 29.408624 
L 42.203523 30.625795 
L 38.087363 32.883004 
L 34.660984 36.019793 
L 32.144995 39.826771 
L 30.706329 44.055843 
L 30.450181 48.430891 
L 31.41241 52.659746 
L 33.552857 56.448378 
L 36.750695 59.518075 
L 40.803747 61.625693 
L 45.43418 62.586048 
L 50.302856 62.294061 
L 55.033559 60.742934 
L 59.246237 58.033764 
L 62.5955 54.372602 
L 64.808203 50.053137 
L 65.712841 45.426787 
L 65.25534 40.865323 
L 63.498923 36.722871 
L 60.609744 33.303783 
L 56.833033 30.840537 
L 52.465321 29.482502 
L 47.827445 29.294263 
L 43.241462 30.260524 
L 39.012234 32.294614 
L 35.413235 35.248507 
L 32.675567 38.92309 
L 30.978824 43.078325 
L 30.442936 47.44373 
L 31.120497 51.729916 
L 32.989777 55.642142 
L 35.949449 58.896712 
L 39.816686 61.24051 
L 44.331049 62.473084 
L 49.166579 62.469207 
L 53.953692 61.198403 
L 58.310492 58.736941 
L 61.880515 55.268085 
L 64.371192 51.068057 
L 65.585804 46.478566 
L 65.442731 41.870436 
L 63.978928 37.605053 
L 61.338496 34.000389 
L 57.750474 31.30639 
L 53.501485 29.691429 
L 48.908288 29.23871 
L 44.293609 29.950022 
L 39.966737 31.753772 
L 36.208584 34.514855 
L 33.260145 38.0449 
L 31.313131 42.112445 
L 30.501674 46.453229 
L 30.894592 50.781371 
L 32.4882 54.802311 
L 35.200475 58.228445 
L 38.868122 60.797919 
L 43.248776 62.296237 
L 48.0309 62.579022 
L 52.853263 61.59271 
L 57.334253 59.388734 
L 61.108515 56.126749 
L 63.865827 52.063949 
L 65.385251 47.5304 
L 65.557787 42.894015 
L 64.393543 38.521751 
L 62.013404 34.744007 
L 58.628805 31.827627 
L 54.515069 29.959857 
L 49.983616 29.242757 
L 45.35691 29.695644 
L 40.94795 31.26245 
L 37.044451 33.821398 
L 33.896726 37.1953 
L 31.708025 41.161731 
L 30.626133 45.463198 
L 30.735562 49.817984 
L 32.050218 53.932552 
L 34.507106 57.516422 
L 37.962486 60.30021 
L 42.192601 62.056651 
L 46.901447 62.623338 
L 51.737834 61.924316 
L 56.322456 59.986277 
L 60.283248 56.944688 
L 63.294303 53.036355 
L 65.111713 48.57776 
L 65.599469 43.931876 
L 64.740345 39.469453 
L 62.63096 35.532044 
L 59.463796 32.40265 
L 55.501465 30.28719 
L 51.048788 29.306762 
L 46.426903 29.49857 
L 41.951712 30.822547 
L 37.917109 33.170724 
L 34.582203 36.377535 
L 32.161278 40.230011 
L 30.815234 44.477896 
L 30.643733 48.844224 
L 31.67774 53.037226 
L 33.87292 56.764523 
L 37.105021 59.750326 
L 41.169196 61.755854 
L 45.785862 62.60189 
L 50.615353 62.190998 
L 55.282654 60.525457 
L 59.41112 57.716149 
L 62.661199 53.978432 
L 64.767629 49.613474 
L 65.568099 44.977237 
L 65.017892 40.442315 
L 63.188422 36.359891 
L 60.251869 33.028232 
L 56.456711 30.671548 
L 52.09982 29.430003 
L 47.499872 29.359048 
L 42.974764 30.435039 
L 38.823826 32.5643 
L 35.31433 35.593351 
L 32.671028 39.319167 
L 31.067401 43.499258 
L 30.617758 47.86204 
L 31.369718 52.118269 
L 33.29728 55.974559 
L 36.295536 59.149869 
L 40.178861 61.395135 
L 44.684882 62.515523 
L 49.486861 62.393078 
L 54.215995 61.006092 
L 58.493255 58.440543 
L 61.967432 54.889235 
L 64.353426 50.636414 
L 65.463494 46.029017 
L 65.225354 41.439496 
L 63.684443 37.227086 
L 60.991369 33.70426 
L 57.378974 31.113118 
L 53.134809 29.612954 
L 48.573916 29.277755 
L 44.015244 30.100809 
L 39.76287 32.003232 
L 36.091661 34.844118 
L 33.2363 38.430852 
L 31.382347 42.529219 
L 30.658261 46.873573 
L 31.127796 51.177889 
L 32.782888 55.148678 
L 35.537844 58.500642 
L 39.226401 60.975619 
L 43.604069 62.364365 
L 48.358243 62.529406 
L 53.128101 61.425637 
L 57.534352 59.114034 
L 61.2163 55.763987 
L 63.870728 51.641217 
L 65.285391 47.081739 
L 65.360625 42.455934 
L 64.115273 38.129402 
L 61.677227 34.427711 
L 58.26233 31.61022 
L 54.14739 29.855268 
L 49.642624 29.255685 
L 45.067081 29.822069 
L 40.728779 31.490802 
L 36.909555 34.134031 
L 33.853505 37.570006 
L 31.757738 41.573218 
L 30.764299 45.88448 
L 30.952551 50.221647 
L 32.331926 54.291943 
L 34.835642 57.806869 
L 38.316857 60.50035 
L 42.549455 62.149966 
L 47.236067 62.599863 
L 52.025501 61.782256 
L 56.540297 59.73325 
L 60.412458 56.598122 
L 63.322522 52.622686 
L 65.03502 48.130133 
L 65.423264 43.486742 
L 64.479042 39.062731 
L 62.306442 35.195464 
L 59.10295 32.160902 
L 55.133278 30.156196 
L 50.70153 29.29315 
L 46.125832 29.600118 
L 41.717386 31.029185 
L 37.764323 33.465976 
L 34.51956 36.740052 
L 32.19121 40.635073 
L 30.934378 44.89882 
L 30.843507 49.253639 
L 31.945019 53.408263 
L 34.190703 57.071988 
L 37.453077 59.972015 
L 41.5248 61.874036 
L 46.124678 62.604968 
L 50.912708 62.075225 
L 55.51529 60.296281 
L 59.559341 57.388819 
L 62.711178 53.577451 
L 64.71347 49.170698 
L 65.413088 44.528696 
L 64.774474 40.024388 
L 62.876922 36.005531 
L 59.898192 32.763892 
L 56.089493 30.515186 
L 51.747569 29.390306 
L 47.188506 29.435666 
L 42.725814 30.619582 
L 38.653323 32.841649 
L 35.232222 35.94316 
L 32.681099 39.717382 
L 31.167586 43.919545 
L 30.800685 48.277064 
L 31.623303 52.500885 
L 33.605399 56.299019 
L 36.6387 59.393064 
L 40.534882 61.538062 
L 45.02972 62.544942 
L 49.795773 62.303236 
L 54.465158 60.800248 
L 58.661901 58.131804 
L 62.040209 54.50026 
L 64.322525 50.197757 
L 65.330063 45.576249 
L 64.999848 41.009467 
L 63.385598 36.854005 
L 60.644068 33.416424 
L 57.011524 30.930626 
L 52.776016 29.546647 
L 48.250516 29.329264 
L 43.749908 30.263378 
L 39.572912 32.263054 
L 35.988413 35.181819 
L 33.224965 38.823001 
L 31.462214 42.949753 
L 30.823162 47.295109 
L 31.366715 51.572951 
L 33.08062 55.49087 
L 35.875611 58.765928 
L 39.58254 61.143741 
L 43.954802 62.420474 
L 48.678764 62.465836 
L 53.394096 61.243507 
L 57.724015 58.824296 
L 61.312686 55.387444 
L 63.864067 51.207171 
L 65.174752 46.625271 
L 65.154463 42.014241 
L 63.830675 37.737865 
L 61.337973 34.116383 
L 57.896254 31.401329 
L 53.783499 29.761844 
L 49.308377 29.281353 
L 44.786253 29.96178 
L 40.520017 31.732076 
L 36.785561 34.45844 
L 33.820806 37.954743 
L 31.816894 41.992539 
L 30.91031 46.31103 
L 31.175449 50.627704 
L 32.617411 54.650602 
L 35.165717 58.093285 
L 38.670459 60.693137 
L 42.903211 62.232813 
L 47.565281 62.563285 
L 52.305573 61.625308 
L 56.748653 59.464738 
L 60.530876 56.23688 
L 63.339466 52.1965 
L 64.947485 47.673334 
L 65.237697 43.036631 
L 64.210798 38.655559 
L 61.978027 34.862814 
L 58.741503 31.926942 
L 54.767708 30.036078 
L 50.359771 29.292569 
L 45.832545 29.715817 
L 41.492344 31.250156 
L 37.621512 33.774912 
L 34.466805 37.11489 
L 32.230294 41.050527 
L 31.061457 45.327714 
L 31.049661 49.668161 
L 32.216894 53.781151 
L 34.511144 57.377755 
L 37.801747 60.188295 
L 41.878857 61.983173 
L 46.459719 62.595786 
L 51.204077 61.944757 
L 55.739884 60.051158 
L 59.697877 57.04578 
L 62.750577 53.162582 
L 64.648864 48.717244 
L 65.248874 44.073709 
L 64.524169 39.604752 
L 62.561658 35.654123 
L 59.544235 32.506619 
L 55.725406 30.369217 
L 51.401466 29.36339 
L 46.885701 29.526469 
L 42.487068 30.818702 
L 38.493762 33.133046 
L 35.160908 36.305696 
L 32.701024 40.126342 
L 31.276025 44.348062 
L 30.989754 48.69738 
L 31.880601 52.88554 
L 33.91463 56.622044 
L 36.980289 59.631302 
L 40.886622 61.672703 
L 45.367631 62.563263 
L 50.095337 62.200381 
L 54.703035 60.580693 
L 58.818062 57.810078 
L 62.100283 54.100489 
L 64.279911 49.751795 
L 65.187231 45.120518 
L 64.768392 40.58108 
L 63.085038 36.486896 
L 60.299598 33.138125 
L 56.651162 30.760213 
L 52.427835 29.493915 
L 47.940252 29.394862 
L 43.499141 30.439686 
L 39.397871 32.535481 
L 35.899381 35.530334 
L 33.226191 39.223645 
L 31.552182 43.37608 
L 30.995125 47.719502 
L 31.609313 51.967803 
L 33.37848 55.829775 
L 36.209958 59.024968 
L 39.931822 61.302989 
L 44.2955 62.465694 
L 48.986517 62.390269 
L 53.645278 61.049454 
L 57.897826 58.524078 
L 61.393497 55.003171 
L 63.843536 50.769176 
L 65.053338 46.169258 
L 64.941828 41.577485 
L 63.54471 37.355254 
L 61.002741 33.81705 
L 57.539281 31.206293 
L 53.432882 29.682907 
L 48.990306 29.321123 
L 44.523113 30.114406 
L 40.329096 31.984465 
L 36.678368 34.791729 
L 33.802876 38.345785 
L 31.887947 42.415375 
L 31.064751 46.738229 
L 31.402963 51.031565 
L 32.903571 55.004323 
L 35.49257 58.372221 
L 39.017138 60.876259 
L 43.246661 62.304395 
L 47.881308 62.514702 
L 52.570324 61.456691 
L 56.94055 59.18609 
L 60.632911 55.868218 
L 63.341517 51.766608 
L 64.847985 47.217075 
L 65.044217 42.591353 
L 63.939471 38.257131 
L 61.65173 34.541988 
L 58.387196 31.706766 
L 54.413591 29.930488 
L 50.032617 29.306145 
L 45.555641 29.844463 
L 41.284128 31.482247 
L 37.494768 34.092726 
L 34.428398 37.496116 
L 32.281273 41.469684 
L 31.197443 45.757538 
L 31.261431 50.08083 
L 32.490975 54.149455 
L 34.830409 57.676321 
L 38.145997 60.395001 
L 42.22551 62.080783 
L 46.784726 62.573776 
L 51.4833 61.801075 
L 55.950936 59.793504 
L 59.822362 56.692025 
L 62.776436 52.739877 
L 64.572313 48.259666 
L 65.075358 43.618714 
L 64.267968 39.189177 
L 62.24434 35.310441 
L 59.19219 32.259994 
L 55.366953 30.235795 
L 51.064096 29.349822 
L 46.593799 29.630389 
L 42.260325 31.029855 
L 38.346279 33.434754 
L 35.100839 36.676385 
L 32.730666 40.541011 
L 31.392179 44.779617 
L 31.184229 49.117901 
L 32.140847 53.267471 
L 34.224348 56.939386 
L 37.32001 59.860953 
L 41.234332 61.796037 
L 45.699586 62.567929 
L 50.387266 62.082165 
L 54.931897 60.345005 
L 58.964229 57.472586 
L 62.149893 53.686551 
L 64.226965 49.294456 
L 65.034885 44.657183 
L 64.528965 40.149459 
L 62.778669 36.121038 
L 59.951887 32.865264 
L 56.290357 30.598751 
L 52.081974 29.452628 
L 47.634727 29.473231 
L 43.254917 30.62893 
L 39.230401 32.819998 
L 35.818125 35.889265 
L 33.234637 39.632427 
L 31.648207 43.807829 
L 31.171504 48.146274 
L 31.854338 52.3618 
L 33.676605 56.164527 
L 36.542399 59.27662 
L 40.27717 61.451787 
L 44.630451 62.497736 
L 49.286951 62.299369 
L 53.887852 60.838789 
L 58.062096 58.207062 
L 61.464244 54.603153 
L 63.812919 50.317751 
L 64.922385 45.703223 
L 64.720744 41.134918 
L 63.251914 36.971458 
L 60.662717 33.521091 
L 57.179773 31.01874 
L 53.082082 29.614787 
L 48.674304 29.373942 
L 44.263929 30.281094 
L 40.143446 32.25075 
L 36.577072 35.137714 
L 33.790764 38.747511 
L 31.964135 42.84625 
L 31.223127 47.170332 
L 31.63278 51.436858 
L 33.190095 55.355851 
L 35.817715 58.645364 
L 39.360069 61.050178 
L 43.584499 62.363705 
L 48.190089 62.451317 
L 52.82644 61.271578 
L 57.122752 58.890413 
L 60.724687 55.483328 
L 63.333307 51.322589 
L 64.738825 46.749994 
L 64.842342 42.139447 
L 63.661565 37.856713 
L 61.321042 34.223849 
L 58.0309 31.493541 
L 54.059872 29.835368 
L 49.708098 29.332735 
L 45.2833 29.987465 
L 41.081844 31.728797 
L 37.374602 34.423976 
L 34.39642 37.888807 
L 32.337763 41.897616 
L 31.337357 46.19292 
L 31.475021 50.495499 
L 32.764413 54.51605 
L 35.146379 57.969554 
L 38.484333 60.593052 
L 42.563856 62.166912 
L 47.099434 62.538144 
L 51.750719 61.642519 
L 56.14926 59.520896 
L 59.933931 56.324579 
L 62.790087 52.306047 
L 64.485206 47.79456 
L 64.893764 43.160455 
L 64.006829 38.774819 
L 61.925592 34.972188 
L 58.842231 32.022389 
L 55.013786 30.114103 
L 50.734618 29.349652 
L 46.311651 29.748298 
L 42.044378 31.254535 
L 38.209729 33.748552 
L 35.050908 37.056909 
L 32.76876 40.962645 
L 31.514328 45.214886 
L 31.381677 49.538703 
L 32.400675 53.646248 
L 34.530102 57.250324 
L 37.652273 60.081355 
L 41.571375 61.907911 
L 46.018187 62.559764 
L 50.663902 61.950734 
L 55.144414 60.096827 
L 59.094032 57.124579 
L 62.184342 53.265268 
L 64.161351 48.833796 
L 64.873481 44.194918 
L 64.284854 39.723168 
L 62.472347 35.764239 
L 59.608898 32.604292 
L 55.938413 30.450923 
L 51.748216 29.425637 
L 47.343425 29.565524 
L 43.025827 30.830834 
L 39.077802 33.115205 
L 35.750433 36.256396 
L 33.254455 40.046547 
L 31.752697 44.241836 
L 31.352956 48.572164 
L 32.1008 52.75182 
L 33.972497 56.492364 
L 36.869091 59.518696 
L 40.613558 61.588815 
L 44.953709 62.516509 
L 49.573616 62.1946 
L 54.115405 60.614698 
L 58.210998 57.878226 
L 61.520315 54.194166 
L 63.76954 49.861264 
L 64.781796 45.236629 
L 64.494177 40.696331 
L 62.958407 36.595681 
L 60.326914 33.236298 
L 56.829115 30.844306 
L 52.743965 29.560452 
L 48.373678 29.440076 
L 44.021521 30.459642 
L 39.974633 32.526688 
L 36.491393 35.490628 
L 33.791931 39.153132 
L 32.050377 43.277874 
L 31.387733 47.600088 
L 31.864732 51.836876 
L 33.474677 55.699408 
L 36.137062 58.90816 
L 39.69374 61.211811 
L 43.910146 62.409414 
L 48.484444 62.373886 
L 53.066788 61.073003 
L 57.28888 58.582959 
L 60.801162 55.089443 
L 63.311713 50.873376 
L 64.61937 46.282161 
L 64.634281 41.691349 
L 63.382312 37.464234 
L 60.994148 33.916858 
L 57.683324 31.293457 
L 53.719106 29.754034 
L 49.399626 29.372464 
L 45.028701 30.141961 
L 40.897597 31.984476 
L 37.271455 34.761512 
L 34.379291 38.284698 
L 32.406035 42.325634 
L 31.485402 46.625384 
L 31.692765 50.904451 
L 33.037971 54.874412 
L 35.458635 58.252331 
L 38.815466 60.778773 
L 42.891979 62.239345 
L 47.401469 62.488155 
L 52.003727 61.469898 
L 56.332346 59.235595 
L 60.030494 55.946889 
L 62.790057 51.865345 
L 64.386766 47.326652 
L 64.704137 42.703785 
L 63.74169 38.36626 
L 61.607248 34.643316 
L 58.497056 31.79675 
L 54.669325 30.005782 
L 50.416957 29.363089 
L 46.043334 29.879004 
L 41.843032 31.490423 
L 38.087392 34.071446 
L 35.013847 37.444089 
L 32.817657 41.388299 
L 31.644729 45.651437 
L 31.584573 49.957993 
L 32.663104 54.020683 
L 34.835687 57.554109 
L 37.981778 60.291883 
L 41.903285 62.007421 
L 46.329522 62.53724 
L 50.931446 61.803767 
L 55.34646 59.833064 
L 59.212614 56.762214 
L 62.207608 52.832121 
L 64.085498 48.364859 
L 64.703714 43.728718 
L 64.035096 39.297578 
L 62.163654 35.412526 
L 59.266996 32.352153 
L 55.590885 30.314721 
L 51.421737 29.411933 
L 47.061538 29.671666 
L 42.807403 31.046177 
L 38.936171 33.422632 
L 35.693123 36.633922 
L 33.283369 40.468782 
L 31.864507 44.681327 
L 31.539662 49.000607 
L 32.350326 53.141224 
L 34.269249 56.816234 
L 37.194471 59.753407 
L 40.94653 61.715236 
L 45.27154 62.521858 
L 49.85299 62.074387 
L 54.334072 60.374315 
L 58.349934 57.533687 
L 61.566064 53.771501 
L 63.716325 49.394433 
L 64.632825 44.764003 
L 64.261557 40.256477 
L 62.66179 36.22332 
L 59.991195 32.959079 
L 56.481649 30.68079 
L 52.411782 29.519373 
L 48.081109 29.520687 
L 43.788488 30.652879 
L 39.815677 32.816655 
L 36.41527 35.856166 
L 33.801699 39.569394 
L 32.143799 43.717673 
L 31.557805 48.035128 
L 32.100281 52.238911 
L 33.760932 56.041412 
L 36.456166 59.16564 
L 40.025252 61.364392 
L 44.231735 62.442684 
L 48.772902 62.281337 
L 53.29954 60.857776 
L 57.446059 58.258807 
L 60.867966 54.680461 
L 63.280617 50.41216 
L 64.491571 45.80659 
L 64.420015 41.240438 
L 63.099762 37.073906 
L 60.667223 33.6165 
L 57.338915 31.103699 
L 53.384321 29.685747 
L 49.099352 29.426916 
L 44.783756 30.311781 
L 40.723582 32.255116 
L 37.178271 35.112816 
L 34.371112 38.692459 
L 32.481648 42.76305 
L 31.638758 47.064305 
L 31.913584 51.316535 
L 33.312301 55.23227 
L 35.769379 58.530805 
L 39.142861 60.956451 
L 43.214212 62.300363 
L 47.695632 62.424163 
L 52.247221 61.281843 
L 56.504792 58.934901 
L 60.116035 55.555475 
L 62.779618 51.414152 
L 64.279716 46.852651 
L 64.508799 42.245995 
L 63.474559 37.961516 
L 61.291041 34.322572 
L 58.157992 31.58256 
L 54.334341 29.911127 
L 50.11124 29.391308 
L 45.788403 30.024603 
L 41.655472 31.740378 
L 37.97822 34.406789 
L 34.988397 37.841456 
L 32.875839 41.821396 
L 31.781536 46.09235 
L 31.790675 50.378354 
L 32.925409 54.39281 
L 35.13787 57.85224 
L 38.304753 60.493646 
L 42.22579 62.095579 
L 46.62897 62.50163 
L 51.185199 61.643172 
L 55.533678 59.556583 
L 59.316475 56.389522 
L 62.217547 52.392329 
L 63.999032 47.893873 
L 64.527269 43.265399 
L 63.78347 38.879488 
L 61.858291 35.072098 
L 58.933443 32.113866 
L 55.255925 30.193617 
L 51.110842 29.413404 
L 46.796881 29.7921 
L 42.606492 31.274174 
L 38.811119 33.740506 
L 35.650421 37.019239 
L 33.324051 40.895851 
L 31.98462 45.122549 
L 31.730845 49.427662 
L 32.600385 53.526185 
L 34.562669 57.132777 
L 37.512886 59.978227 
L 41.26925 61.829752 
L 45.576324 62.514131 
L 50.117223 61.941033 
L 54.536434 60.122013 
L 58.47254 57.179805 
L 61.596845 53.343277 
L 63.65093 48.92657 
L 64.475636 44.295107 
L 64.025547 39.824833 
L 62.367065 35.862839 
L 59.66254 32.696237 
L 56.145748 30.532813 
L 52.094505 29.49373 
L 47.805372 29.615653 
L 43.572809 30.858654 
L 39.673324 33.116813 
L 36.35396 36.229227 
L 33.823693 39.990267 
L 32.246273 44.159049 
L 31.733415 48.468699 
L 32.337731 52.636494 
L 34.045498 56.376122 
L 36.770166 59.413255 
L 40.34855 61.50499 
L 44.542408 62.462556 
L 49.048314 62.174954 
L 53.517891 60.629434 
L 57.588435 57.923496 
L 60.920655 54.263433 
L 63.237245 49.946926 
L 64.354439 45.331462 
L 64.200144 40.794368 
L 62.815756 36.692355 
L 60.343059 33.328019 
L 57.001158 30.9278 
L 53.059357 29.632117 
L 48.811034 29.495728 
L 44.551739 30.49478 
L 40.562369 32.53708 
L 37.096821 35.473139 
L 34.372903 39.106648 
L 32.565016 43.204072 
L 31.797375 47.503851 
L 32.137049 51.726168 
L 33.586695 55.584583 
L 36.077744 58.800709 
L 39.465669 61.122748 
L 43.529951 62.347597 
L 47.981709 62.344661 
L 52.481412 61.077533 
L 56.667191 58.618384 
L 60.19134 55.149947 
L 62.759387 50.951773 
L 64.163992 46.37139 
L 64.306581 41.785449 
L 63.202885 37.558608 
L 60.972935 34.007921 
L 57.819783 31.378005 
L 54.002832 29.828602 
L 49.811199 29.432965 
L 45.540691 30.183773 
L 41.475889 32.003024 
L 37.876964 34.75311 
L 34.970071 38.247482 
L 32.939789 42.260393 
L 31.922341 46.536066 
L 31.998733 50.798207 
L 33.187527 54.761021 
L 35.437771 58.143079 
L 38.623551 60.684896 
L 42.542505 62.170323 
L 46.921316 62.450261 
L 51.43086 61.465341 
L 55.712163 59.262503 
L 59.411346 56.000152 
L 62.218687 51.938107 
L 63.904431 47.411882 
L 64.343796 42.795387 
L 63.526346 38.459497 
L 61.549287 34.734542 
L 58.598241 31.882792 
L 54.921339 30.083292 
L 50.80222 29.428114 
L 46.536045 29.926991 
L 42.410424 31.51663 
L 38.691308 34.071761 
L 35.612728 37.415987 
L 33.368969 41.331725 
L 32.107748 45.569419 
L 31.923467 49.856816 
L 32.850065 53.909492 
L 34.853802 57.443891 
L 37.827178 60.194003 
L 41.586226 61.931928 
L 45.874021 62.491296 
L 50.373313 61.79063 
L 54.729929 59.851885 
L 58.58601 56.80867 
L 61.618681 52.89973 
L 63.577261 48.4466 
L 64.311355 43.818313 
L 63.784038 39.390061 
L 62.06869 35.504137 
L 59.33222 32.439742 
L 55.81011 30.395059 
L 51.779278 29.48124 
L 47.533217 29.725488 
L 43.361783 31.079738 
L 39.536098 33.431543 
L 36.297592 36.615099 
L 33.849802 40.421384 
L 32.351502 44.607483 
L 31.910021 48.905689 
L 32.574144 53.033585 
L 34.326857 56.706391 
L 37.078841 59.652663 
L 40.664627 61.634004 
L 44.844326 62.46806 
L 49.313841 62.052256 
L 53.725672 60.383992 
L 57.720087 57.571724 
L 60.963142 53.832067 
L 63.184933 49.470758 
L 64.210298 44.849768 
L 63.975785 40.346593 
L 62.530138 36.31391 
L 60.020214 33.046984 
L 56.66743 30.762857 
L 52.740664 29.591888 
L 48.530632 29.579227 
L 44.328612 30.692554 
L 40.410246 32.832773 
L 37.023826 35.845153 
L 34.381692 39.529712 
L 32.653202 43.650625 
L 31.958092 47.945266 
L 32.359549 52.133897 
L 33.856915 55.931304 
L 36.378777 59.061661 
L 39.778257 61.277304 
L 43.833065 62.381109 
L 48.25344 62.250448 
L 52.700334 60.858684 
L 56.814311 58.288861 
L 60.252434 54.734314 
L 62.727162 50.483289 
L 64.039535 45.888643 
L 64.099623 41.328134 
L 62.930826 37.163273 
L 60.658784 33.704377 
L 57.489414 31.187026 
L 53.682231 29.76098 
L 49.524089 29.489716 
L 45.306808 30.357206 
L 41.309935 32.278238 
L 37.78816 35.109622 
L 34.962175 38.660794 
L 33.01145 42.703418 
L 32.067655 46.98039 
L 32.207841 51.215213 
L 33.447183 55.123036 
L 35.731837 58.424622 
L 38.933433 60.864204 
L 42.847685 62.231181 
L 47.200144 62.383995 
L 51.661812 61.272703 
L 55.875617 58.95496 
L 59.49184 55.600036 
L 62.207231 51.477072 
L 63.80017 46.927789 
L 64.154582 42.328181 
L 63.268007 38.046836 
L 61.243762 34.408016 
L 58.270959 31.66527 
L 54.598386 29.987722 
L 50.507872 29.457562 
L 46.290896 30.075518 
L 42.230177 31.770748 
L 38.586227 34.412072 
L 35.587621 37.818768 
L 33.4235 41.770378 
L 32.23696 46.015743 
L 32.118381 50.282168 
L 33.098252 54.285889 
L 35.139868 57.745231 
L 38.133201 60.397511 
L 41.892226 62.019919 
L 46.158662 62.453211 
L 50.615048 61.624977 
L 54.908678 59.567708 
L 58.68529 56.425959 
L 61.627914 52.448341 
L 63.493685 47.963444 
L 64.140881 43.343339 
L 63.54082 38.961858 
L 61.773474 35.155923 
L 59.009816 32.19644 
L 55.486572 30.271779 
L 51.479298 29.483074 
L 47.278136 29.848342 
L 43.168297 31.311636 
L 39.415556 33.754246 
L 36.255875 37.005723 
L 33.887597 40.853891 
L 32.46479 45.053973 
L 32.090652 49.33757 
L 32.810452 53.422678 
L 34.60417 57.026082 
L 37.379887 59.879306 
L 40.96999 61.748625 
L 45.133053 62.458313 
L 49.564458 61.914485 
L 53.917777 60.124837 
L 57.836396 57.208786 
L 60.991731 53.393118 
L 63.121208 48.991393 
L 64.058191 44.369641 
L 63.747631 39.904988 
L 62.245266 35.945575 
L 59.702624 32.778916 
L 56.342989 30.612454 
L 52.434441 29.56648 
L 48.264734 29.676667 
L 44.120723 30.902529 
L 40.272884 33.138349 
L 36.964118 36.224376 
L 34.401532 39.957107 
L 32.749691 44.098548 
L 32.124117 48.38507 
L 32.584338 52.537039 
L 34.126533 56.27052 
L 36.676574 59.312304 
L 40.085277 61.418984 
L 44.128607 62.399662 
L 48.515963 62.139996 
L 52.908874 60.623443 
L 56.950492 57.94411 
L 60.302788 54.305954 
L 62.685244 50.005744 
L 63.907276 45.401346 
L 63.887529 40.87116 
L 62.65683 36.772967 
L 60.346061 33.409898 
L 57.163691 31.008145 
L 53.369023 29.707291 
L 49.246395 29.56106 
L 45.083472 30.544843 
L 41.154696 32.566413 
L 37.709357 35.477213 
L 34.962879 39.082836 
L 33.089853 43.152464 
L 32.217603 47.427722 
L 32.419404 51.631973 
L 33.707177 55.481356 
L 36.024243 58.698942 
L 39.239809 61.03287 
L 43.147665 62.278341 
L 47.472245 62.301715 
L 51.884752 61.062876 
L 56.030197 58.630508 
L 59.563198 55.184815 
L 62.187111 51.004175 
L 63.688564 46.43621 
L 63.960139 41.85848 
L 63.007147 37.636711 
L 60.93868 34.088578 
L 57.947 31.458569 
L 54.281286 29.905642 
L 50.221309 29.501975 
L 46.054686 30.239381 
L 42.059212 32.039624 
L 38.490005 34.765745 
L 35.570293 38.23288 
L 33.484271 42.217819 
L 32.370607 46.467879 
L 32.315822 50.709973 
L 33.347084 54.661067 
L 35.424795 58.041472 
L 38.436409 60.592027 
L 42.193842 62.095321 
L 46.437463 62.399584 
L 50.849638 61.441923 
L 55.079261 59.265756 
L 58.775896 56.026797 
L 61.628699 51.983415 
L 63.402705 47.470979 
L 63.964902 42.864129 
L 63.294696 38.534683 
L 61.478282 34.813626 
L 58.690305 31.963199 
L 55.168431 30.161721 
L 51.186663 29.500207 
L 47.031636 29.987422 
L 42.983809 31.559661 
L 39.303659 34.092078 
L 36.221778 37.409704 
L 33.931465 41.297347 
L 32.582286 45.508469 
L 32.273515 49.774044 
L 33.047039 53.812553 
L 34.879908 57.34248 
L 37.677637 60.098507 
L 41.270444 61.851882 
L 45.415399 62.433935 
L 49.807447 61.759883 
L 54.101322 59.848128 
L 57.943711 56.82931 
L 61.011636 52.940433 
L 63.050077 48.502556 
L 63.900914 43.885218 
L 63.51733 39.464524 
L 61.961733 35.583416 
L 59.389819 32.521181 
L 56.026311 30.475453 
L 52.138207 29.556384 
L 48.010166 29.790209 
L 43.924579 31.128317 
L 40.146757 33.458494 
L 36.914281 36.616127 
L 34.429183 40.394355 
L 32.851431 44.553159 
L 32.292531 48.828051 
L 32.808555 52.939631 
L 34.392692 56.605379 
L 36.968192 59.554905 
L 40.38364 61.549363 
L 44.413346 62.404436 
L 48.766008 62.014477 
L 53.103979 60.373364 
L 57.073232 57.586391 
L 60.340802 53.868039 
L 62.633286 49.52328 
L 63.768445 44.914402 
L 63.673223 40.419739 
L 62.385445 36.392745 
L 60.040702 33.128877 
L 56.84941 30.844737 
L 53.070234 29.669814 
L 48.984803 29.648249 
L 44.876608 30.747053 
L 41.015122 32.867162 
L 37.64438 35.854788 
L 34.97471 39.511835 
L 33.176047 43.60517 
L 32.371639 47.8753 
L 32.631249 52.045545 
L 33.963741 55.833154 
L 36.309764 58.963664 
L 39.536199 61.189352 
L 43.435034 62.311542 
L 47.729756 62.204822 
L 52.09195 60.839164 
L 56.168927 58.294432 
L 59.619902 54.761666 
L 62.154889 50.52806 
L 63.568583 45.946607 
L 63.761968 41.395838 
L 62.747722 37.238006 
L 60.640169 33.783749 
L 57.634155 31.268243 
L 53.978731 29.84031 
L 49.95132 29.562384 
L 45.835654 30.417618 
L 41.904712 32.320589 
L 38.408459 35.128795 
L 35.565046 38.653325 
L 33.553918 42.668338 
L 32.509563 46.919764 
L 32.514879 51.134218 
L 33.593893 55.029489 
L 35.70426 58.328012 
L 38.731033 60.774354 
L 42.484173 62.156774 
L 46.702851 62.331293 
L 51.069458 61.244764 
L 55.234683 58.951641 
L 58.852062 55.618737 
L 61.61697 51.513937 
L 63.302316 46.978856 
L 63.783454 42.390125 
L 63.047489 38.117092 
L 61.186461 34.484358 
L 58.378254 31.745194 
L 54.861052 30.067801 
L 50.906961 29.533173 
L 46.798972 30.141086 
L 42.812882 31.820302 
L 39.204049 34.440071 
L 36.197978 37.821091 
L 33.983189 41.745207 
L 32.704931 45.964202 
L 32.458739 50.2085 
L 33.283266 54.197134 
L 35.152745 57.650383 
L 37.970215 60.306248 
L 41.563804 61.941165 
L 45.689102 62.393802 
L 50.040679 61.588796 
L 54.274539 59.555468 
L 58.040751 56.435779 
L 61.02201 52.476872 
L 62.970873 48.007049 
L 63.737706 43.398893 
L 63.28374 39.026954 
L 61.677771 35.22853 
L 59.07944 32.274291 
L 55.714652 30.351742 
L 51.849052 29.560779 
L 47.763978 29.91824 
L 43.737263 31.367566 
L 40.029061 33.790267 
L 36.871762 37.017086 
L 34.462513 40.837976 
L 32.956874 45.010987 
L 32.462509 49.270868 
L 33.032191 53.33856 
L 34.656265 56.933067 
L 37.255496 59.786949 
L 40.676311 61.666085 
L 44.691379 62.39299 
L 49.008679 61.871025 
L 53.291375 60.104787 
L 57.18827 57.210958 
L 60.371502 53.41461 
L 62.574789 49.02879 
L 63.624208 44.419909 
L 63.45499 39.965796 
L 62.111854 36.015029 
L 59.734924 32.854948 
L 56.536459 30.692198 
L 52.774358 29.645836 
L 48.727339 29.750281 
L 44.674574 30.964189 
L 40.880481 33.181792 
L 37.583858 36.244288 
L 34.990027 39.950104 
L 33.264391 44.063949 
L 32.526223 48.32534 
L 32.84188 52.457736 
L 34.217313 56.179675 
L 36.590642 59.21934 
L 39.826574 61.333325 
L 43.715353 62.329289 
L 47.979515 62.090351 
L 52.291055 60.596913 
L 56.299636 57.940225 
L 59.669041 54.32221 
L 62.115933 50.038817 
L 63.443081 45.448132 
L 63.559761 40.92923 
L 62.485892 36.840444 
L 60.340923 33.484872 
L 57.32212 31.088005 
L 53.678349 29.788251 
L 49.684619 29.638023 
L 45.620614 30.611733 
L 41.754406 32.616857 
L 38.330754 35.505496 
L 35.56275 39.08492 
L 33.625229 43.126844 
L 32.648613 47.375958 
L 32.71228 51.558752 
L 33.837232 55.394059 
L 35.978538 58.606657 
L 39.019011 60.945049 
L 42.766764 62.203375 
L 46.959795 62.245706 
L 51.280502 61.028985 
L 55.381389 58.619031 
L 58.92007 55.193899 
L 61.598171 51.030843 
L 63.196421 46.477469 
L 63.598523 41.911945 
L 62.799097 37.700565 
L 60.895781 34.161077 
L 58.069486 31.537349 
L 54.558709 29.987157 
L 50.633575 29.581333 
L 46.573382 30.310555 
L 42.64915 32.096089 
L 39.111048 34.801428 
L 36.179486 38.243133 
L 34.038284 42.200346 
L 32.828542 46.423392 
L 32.642218 50.642357 
L 33.514928 54.577046 
L 35.418262 57.949787 
L 38.252985 60.502164 
L 41.845323 62.016053 
L 45.949562 62.33768 
L 50.259984 61.40132 
L 54.433937 59.247453 
L 58.124992 56.029446 
L 61.021586 52.004381 
L 62.883777 47.507357 
L 63.57016 42.913465 
L 63.049693 38.595176 
L 61.397231 34.883645 
L 58.775959 32.040599 
L 55.412635 30.243258 
L 51.571329 29.581215 
L 47.530001 30.061988 
L 43.561959 31.621199 
L 39.9223 34.134236 
L 36.838324 37.427358 
L 34.502413 41.287521 
L 33.065912 45.47106 
L 32.632838 49.712123 
L 33.252864 53.73216 
L 34.913673 57.251879 
L 37.533699 60.007021 
L 40.957385 61.768466 
L 44.955927 62.365817 
L 49.236755 61.71164 
L 53.46392 59.821416 
L 57.289149 56.823361 
L 60.389804 52.953015 
L 62.506755 48.531059 
L 63.474227 43.927418 
L 63.235371 39.518804 
L 61.841391 35.648436 
L 59.436538 32.595137 
L 56.234467 30.555417 
L 52.491971 29.637963 
L 48.484702 29.86759 
L 44.487475 31.1948 
L 40.759721 33.50738 
L 37.53518 36.641725 
L 35.01439 40.39296 
L 33.358472 44.5238 
L 32.682993 48.77292 
L 33.051155 52.864009 
L 34.466205 56.517001 
L 36.863895 59.462862 
L 40.106857 61.462715 
L 43.983703 62.330851 
L 48.216136 61.959176 
L 52.476653 60.338714 
L 56.417302 57.57223 
L 59.706502 53.872584 
L 62.067694 49.544199 
L 63.311663 44.94966 
L 63.355772 40.467924 
L 62.22683 36.452756 
L 60.04896 33.199254 
L 57.021397 30.922935 
L 53.392377 29.751733 
L 49.434188 29.728271 
L 45.422402 30.818463 
L 41.620187 32.922968 
L 38.267228 35.888757 
L 35.571776 39.519518 
L 33.704298 43.58473 
L 32.791433 47.82801 
L 32.909361 51.975855 
L 34.07636 55.748201 
L 36.245099 58.872269 
L 39.296284 61.10067 
L 43.036296 62.233657 
L 47.202082 62.143641 
L 51.476223 60.797845 
L 55.513162 58.2735 
L 58.974594 54.759793 
L 61.568347 50.543141 
L 63.082907 45.976672 
L 63.4101 41.439488 
L 62.551748 37.294251 
L 60.610691 33.851361 
L 57.770414 31.345014 
L 54.269332 29.922519 
L 50.375261 29.64466 
L 46.36363 30.493349 
L 42.500763 32.382673 
L 39.031837 35.170616 
L 36.172396 38.669803 
L 34.101827 42.65684 
L 32.957368 46.880685 
L 32.827658 51.071131 
L 33.745457 54.948814 
L 35.679886 58.238152 
L 38.529508 60.684414 
L 42.118681 62.075144 
L 46.200402 62.26443 
L 50.468719 61.196517 
L 54.582442 58.923267 
L 58.198756 55.609495 
L 61.011903 51.52207 
L 62.789415 47.002577 
L 63.398054 42.428142 
L 62.814306 38.168531 
L 61.11873 34.548236 
L 58.477745 31.819638 
L 55.118631 30.149453 
L 51.303626 29.616984 
L 47.307114 30.220561 
L 43.397795 31.888227 
L 39.825796 34.489493 
L 36.813532 37.84635 
L 34.548879 41.742889 
L 33.179188 45.933803 
L 32.805046 50.152709 
L 33.473201 54.121601 
L 35.168763 57.562985 
L 37.807885 60.215929 
L 41.233018 61.85654 
L 45.213872 62.32186 
L 49.457332 61.534074 
L 53.628441 59.519902 
L 57.381966 56.419225 
L 60.400606 52.478015 
L 62.432477 48.024329 
L 63.31995 43.431124 
L 63.013942 39.073386 
L 61.57184 35.288385 
L 59.1417 32.346023 
L 55.938322 30.432369 
L 52.21716 29.64558 
L 48.250632 30.000937 
L 44.309144 31.440947 
L 40.647171 33.847093 
L 37.493494 37.051171 
L 35.04407 40.845161 
L 33.455938 44.989883 
L 32.84115 49.223239 
L 33.259909 53.269225 
L 34.712848 56.849273 
L 37.133378 59.697315 
L 40.382062 61.579291 
L 44.245869 62.316461 
L 48.44567 61.809964 
L 52.654539 60.061864 
L 56.527073 57.186702 
L 59.736504 53.408214 
L 62.013079 49.039046 
L 63.175664 44.445848 
L 63.149599 40.006796 
L 61.968255 36.070478 
L 59.760065 32.923556 
L 56.725963 30.771293 
L 53.113362 29.731011 
L 49.191697 29.835464 
L 45.232328 31.042189 
L 41.493581 33.245163 
L 38.210173 36.286366 
L 35.585675 39.966058 
L 33.786402 44.051579 
L 32.935401 48.285544 
L 33.105798 52.394522 
L 34.313231 56.099677 
L 36.508008 59.130844 
L 39.568702 61.245028 
L 43.299951 62.249008 
L 47.437673 62.023967 
L 51.664654 60.547866 
L 55.637397 57.909687 
L 59.021885 54.309865 
L 61.532358 50.043725 
L 62.965084 45.469416 
L 63.219918 40.966322 
L 62.30562 36.892756 
L 60.329798 33.551211 
L 57.478111 31.165933 
L 53.988635 29.87363 
L 50.126745 29.725039 
L 46.163963 30.693324 
L 42.361893 32.685498 
L 38.960808 35.554199 
L 36.171546 39.108279 
L 34.169239 43.121948 
L 33.087448 47.34294 
L 33.011692 51.500896 
L 33.972051 55.317415 
L 35.935264 58.519213 
L 38.797747 60.855548 
L 42.38203 62.120006 
L 46.439923 62.174989 
L 50.665424 60.9751 
L 54.718979 58.583797 
L 58.261528 55.17734 
L 60.993226 51.032128 
L 62.689104 46.495663 
L 63.223879 41.946366 
L 62.581186 37.75063 
L 60.84682 34.225713 
L 58.189859 31.614355 
L 54.837688 30.072778 
L 51.050512 29.670118 
L 47.099124 30.395701 
L 43.247737 32.170143 
L 39.741642 34.857232 
L 36.798543 38.274831 
L 34.602007 42.204335 
L 33.295656 46.39896 
L 32.976904 50.591909 
L 33.689758 54.50586 
L 35.416912 57.865283 
L 38.072326 60.412827 
L 41.496552 61.930172 
L 45.457938 62.262163 
L 49.662979 61.340933 
L 53.777913 59.204674 
L 57.460804 56.004895 
L 60.399754 51.997625 
L 62.350007 47.517765 
L 63.161864 42.940633 
L 62.793639 38.638793 
L 61.308388 34.943032 
L 58.857428 32.113993 
L 55.656163 30.327279 
L 51.958389 29.670762 
L 48.033232 30.15045 
L 44.146788 31.701085 
L 40.548817 34.198083 
L 37.463414 37.468754 
L 35.082152 41.302062 
L 33.55825 45.457083 
L 33.000491 49.671058 
L 33.466275 53.66839 
L 34.953773 57.17215 
L 37.394169 59.919451 
L 40.646037 61.681341 
L 44.494814 62.286405 
L 48.660714 61.645304 
L 52.817569 59.771309 
L 56.622673 56.79073 
L 59.754194 52.937954 
L 61.949206 48.533302 
L 63.034339 43.946845 
L 62.942528 39.555425 
L 61.713328 35.701925 
L 59.479022 32.664208 
L 56.441783 30.637177 
L 52.847833 29.72764 
L 48.963588 29.958775 
L 45.05629 31.280003 
L 41.379614 33.578863 
L 38.163603 36.692545 
L 35.60743 40.417953 
L 33.873464 44.520392 
L 33.081379 48.74156 
L 33.301405 52.808171 
L 34.546662 56.442713 
L 36.765187 59.377807 
L 39.833496 61.375078 
L 43.554505 62.248134 
L 47.663162 61.887269 
L 51.842559 60.281418 
L 55.751343 57.531427 
L 59.059845 53.848902 
L 61.48873 49.537796 
L 62.842008 44.960762 
L 63.027343 40.496877 
L 62.060123 36.499619 
L 60.052473 33.263156 
L 57.19196 31.001458 
L 53.716044 29.840531 
L 49.887446 29.821129 
L 45.973699 30.907866 
L 42.231762 33.000941 
L 38.897143 35.947869 
L 36.176192 39.553906 
L 34.240016 43.590958 
L 33.218691 47.805617 
L 33.194776 51.92746 
L 34.195811 55.679151 
L 36.186273 58.789828 
L 39.060491 61.01291 
L 42.639181 62.148278 
L 46.672902 62.066974 
L 50.855551 60.734298 
L 54.849194 58.225548 
L 58.318526 54.728525 
L 60.969614 50.529059 
L 62.584973 45.980272 
L 63.047279 41.461394 
L 62.347225 37.334857 
L 60.575675 33.910185 
L 57.904265 31.420073 
L 54.560369 30.009897 
L 50.801977 29.738487 
L 46.896152 30.586191 
L 43.102546 32.466357 
L 39.661643 35.237263 
L 36.786533 38.712889 
L 34.656633 42.672105 
L 33.411956 46.866777 
L 33.146858 51.029858 
L 33.902753 54.884874 
L 35.66006 58.158436 
L 38.33068 60.596948 
L 41.753319 61.98788 
L 45.694943 62.184187 
L 49.861633 61.128308 
L 53.920813 58.870147 
L 57.53378 55.572947 
L 60.394013 51.502762 
L 62.263873 47.001066 
L 63.00149 42.445111 
L 62.572475 38.204554 
L 61.045471 34.603149 
L 58.5749 31.891863 
L 55.376738 30.235533 
L 51.703082 29.711449 
L 47.819643 30.316267 
L 43.988137 31.977037 
L 40.453573 34.563272 
L 37.435409 37.898043 
L 35.120981 41.767494 
L 33.659793 45.929099 
L 33.157453 50.119601 
L 33.668665 54.06402 
L 35.189288 57.487278 
L 37.648419 60.129878 
L 40.902746 61.768192 
L 44.73619 62.238388 
L 48.868249 61.461007 
L 52.973475 59.460892 
L 56.711915 56.376317 
L 59.76666 52.452229 
L 61.881546 48.016412 
L 62.890961 43.441919 
L 62.735286 39.103669 
L 61.460058 35.33832 
L 59.201251 32.414451 
L 56.162123 30.516256 
L 52.587662 29.739848 
L 48.741255 30.098679 
L 44.885919 31.534061 
L 41.27062 33.927243 
L 38.120723 37.110821 
L 35.631075 40.878599 
L 33.96025 44.99406 
L 33.22469 49.198195 
L 33.491917 53.218084 
L 34.772684 56.777804 
L 37.012932 59.61303 
L 40.087281 61.490278 
L 43.797071 62.230237 
L 47.87633 61.73257 
L 52.008483 59.997486 
L 55.854388 57.137846 
L 59.088776 53.376309 
L 61.438692 49.02505 
L 62.715684 44.450691 
L 62.834958 40.031419 
L 61.818239 36.115304 
L 59.78181 32.987793 
L 56.914843 30.852341 
L 53.45398 29.824155 
L 49.659244 29.934051 
L 45.794227 31.138202 
L 42.111314 33.330129 
L 38.841339 36.3524 
L 36.18627 40.006883 
L 34.313357 44.063413 
L 33.349383 48.267633 
L 33.374138 52.349247 
L 34.412802 56.032184 
L 36.427742 59.04826 
L 39.311371 61.155347 
L 42.882747 62.159903 
L 46.891344 61.94184 
L 51.031036 60.47734 
L 54.965575 57.853707 
L 58.363526 54.270205 
L 60.936887 50.021657 
L 62.475485 45.466166 
L 62.869597 40.983113 
L 62.116576 36.930431 
L 60.311965 33.609463 
L 57.629526 31.242642 
L 54.296286 29.964527 
L 50.567867 29.823744 
L 46.707581 30.791873 
L 42.970618 32.775252 
L 39.592844 35.62688 
L 36.782957 39.157028 
L 34.716452 43.142211 
L 33.529983 47.33311 
L 33.315094 51.462533 
L 34.110812 55.254984 
L 35.895449 58.439358 
L 38.578954 60.766046 
L 41.998285 62.028608 
L 45.919123 62.088393 
L 50.047213 60.898369 
L 54.051182 58.520316 
L 57.595595 55.129291 
L 60.379424 51.001132 
L 62.172104 46.483296 
L 62.839416 41.954263 
L 62.353934 37.780085 
L 60.789462 34.276969 
L 58.303114 31.685863 
L 55.111012 30.16073 
L 51.463257 29.768482 
L 47.622064 30.496639 
L 43.844772 32.264852 
L 40.371764 34.937007 
L 37.418043 38.332168 
L 35.166954 42.23388 
L 33.764579 46.398211 
L 33.313679 50.56155 
L 33.866561 54.449624 
L 35.416955 57.789325 
L 37.892016 60.324727 
L 41.14665 61.837773 
L 44.963362 62.172537 
L 49.061075 61.259666 
L 53.115161 59.135672 
L 56.7884 55.950738 
L 59.768769 51.960201 
L 61.806821 47.498818 
L 62.744511 42.941966 
L 62.529397 38.661977 
L 61.212614 34.988713 
L 58.933385 32.181127 
L 55.89565 30.412602 
L 52.342817 29.768646 
L 48.535047 30.253322 
L 44.731201 31.800175 
L 41.175701 34.284438 
L 38.089443 37.534357 
L 35.663217 41.340848 
L 34.052104 45.465708 
L 33.369585 49.649306 
L 33.680678 53.61917 
L 34.993987 57.101008 
L 37.253473 59.833654 
L 40.331915 61.588729 
L 44.0291 62.194289 
L 48.078172 61.559703 
L 52.162986 59.696677 
L 55.946694 56.730138 
L 59.108456 52.893635 
L 61.381622 48.50725 
L 62.585199 43.941082 
L 62.641753 39.571776 
L 61.579011 35.741418 
L 59.517097 32.726284 
L 56.646459 30.719085 
L 53.202654 29.824234 
L 49.442801 30.062756 
L 45.626455 31.382658 
L 42.001523 33.671065 
L 38.794386 36.765839 
L 36.202897 40.465619 
L 34.390691 44.538267 
L 33.481496 48.728555 
L 33.552541 52.766355 
L 34.626763 56.376943 
L 36.664498 59.294935 
L 39.556249 61.282858 
L 43.119391 62.154079 
L 47.102287 61.797783 
L 51.198822 60.20141 
L 55.074503 57.464448 
L 58.401834 53.797606 
L 60.898808 49.504471 
L 62.362574 44.947662 
L 62.690888 40.506097 
L 61.887497 36.532551 
L 60.052308 33.319728 
L 57.360974 31.079453 
L 54.039955 29.935289 
L 50.342346 29.925724 
L 46.52765 31.013732 
L 42.846609 33.098815 
L 39.53057 36.028916 
L 36.78405 39.610774 
L 34.77884 43.618673 
L 33.648454 47.802185 
L 33.4818 51.894063 
L 34.315632 55.619876 
L 36.126197 58.710981 
L 38.821501 60.922018 
L 42.236732 62.052966 
L 46.13626 61.974008 
L 50.225517 60.649072 
L 54.174436 58.152119 
L 57.650978 54.67 
L 60.359614 50.488122 
L 62.07692 45.959496 
L 62.676233 41.463155 
L 62.136806 37.360891 
L 60.537271 33.960855 
L 58.037168 31.493657 
L 54.85258 30.102223 
L 51.23148 29.842998 
L 47.4325 30.69451 
L 43.708663 32.569169 
L 40.295848 35.325396 
L 37.404789 38.778434 
L 35.215057 42.709342 
L 33.869513 46.872849 
L 33.468228 51.005062 
L 34.061215 54.832522 
L 35.640149 58.084243 
L 38.130217 60.508131 
L 41.384512 61.89209 
L 45.184095 62.088524 
L 49.247281 61.038673 
L 53.250315 58.791107 
L 56.85887 55.508086 
L 59.765978 51.455136 
L 61.728945 46.973528 
L 62.597234 42.440309 
L 62.597234 42.440309 
" clip-path="url(#p9a3af4cbd8)" style="fill: none; stroke: #495373; stroke-width: 0.01; stroke-linecap: square"/>
   </g>
  </g>
 </g>
 <defs>
  <clipPath id="p9a3af4cbd8">
   <rect x="17.433071" y="17.007874" width="58.677165" height="58.677165"/>
  </clipPath>
 </defs>
</svg>
