<?xml version="1.0" encoding="utf-8" standalone="no"?>
<!DOCTYPE svg PUBLIC "-//W3C//DTD SVG 1.1//EN"
  "http://www.w3.org/Graphics/SVG/1.1/DTD/svg11.dtd">
<svg xmlns:xlink="http://www.w3.org/1999/xlink" width="85.03937pt" height="85.03937pt" viewBox="0 0 85.03937 85.03937" xmlns="http://www.w3.org/2000/svg" version="1.1">
 <metadata>
  <rdf:RDF xmlns:dc="http://purl.org/dc/elements/1.1/" xmlns:cc="http://creativecommons.org/ns#" xmlns:rdf="http://www.w3.org/1999/02/22-rdf-syntax-ns#">
   <cc:Work>
    <dc:type rdf:resource="http://purl.org/dc/dcmitype/StillImage"/>
    <dc:date>2025-03-03T18:38:27.665347</dc:date>
    <dc:format>image/svg+xml</dc:format>
    <dc:creator>
     <cc:Agent>
      <dc:title>Matplotlib v3.8.0, https://matplotlib.org/</dc:title>
     </cc:Agent>
    </dc:creator>
   </cc:Work>
  </rdf:RDF>
 </metadata>
 <defs>
  <style type="text/css">*{stroke-linejoin: round; stroke-linecap: butt}</style>
 </defs>
 <g id="figure_1">
  <g id="patch_1">
   <path d="M 0 85.03937 
L 85.03937 85.03937 
L 85.03937 0 
L 0 0 
L 0 85.03937 
z
" style="fill: none"/>
  </g>
  <g id="patch_2">
   <path d="M 10.84252 75.685039 
L 76.322835 75.685039 
L 76.322835 10.204724 
L 10.84252 10.204724 
L 10.84252 75.685039 
z
" style="fill: none"/>
  </g>
  <g id="pane3d_1">
   <g id="patch_3">
    <path d="M 32.898237 42.227698 
L 70.108731 49.075565 
L 71.243793 22.247933 
L 32.403399 16.013508 
" style="fill: #f2f2f2; opacity: 0.5; stroke: #f2f2f2; stroke-linejoin: miter"/>
   </g>
  </g>
  <g id="pane3d_2">
   <g id="patch_4">
    <path d="M 32.898237 42.227698 
L 17.232851 62.211304 
L 15.948794 34.257144 
L 32.403399 16.013508 
" style="fill: #e6e6e6; opacity: 0.5; stroke: #e6e6e6; stroke-linejoin: miter"/>
   </g>
  </g>
  <g id="pane3d_3">
   <g id="patch_5">
    <path d="M 32.898237 42.227698 
L 17.232851 62.211304 
L 57.635596 70.489844 
L 70.108731 49.075565 
" style="fill: #ececec; opacity: 0.5; stroke: #ececec; stroke-linejoin: miter"/>
   </g>
  </g>
  <g id="grid3d_1">
   <g id="Line3DCollection_1">
    <path d="M 68.035781 52.634473 
L 30.287635 45.557922 
L 29.670832 19.043174 
" style="fill: none; stroke: #b0b0b0; stroke-width: 0.1"/>
    <path d="M 64.172855 59.266468 
L 25.430386 51.754089 
L 24.576508 24.69138 
" style="fill: none; stroke: #b0b0b0; stroke-width: 0.1"/>
    <path d="M 60.06394 66.320784 
L 20.274642 58.331033 
L 19.154626 30.702757 
" style="fill: none; stroke: #b0b0b0; stroke-width: 0.1"/>
   </g>
  </g>
  <g id="grid3d_2">
   <g id="Line3DCollection_2">
    <path d="M 39.199809 17.104427 
L 39.417144 43.427376 
L 24.291898 63.657706 
" style="fill: none; stroke: #b0b0b0; stroke-width: 0.1"/>
    <path d="M 51.489917 19.077161 
L 51.197136 45.595254 
L 37.068504 66.275638 
" style="fill: none; stroke: #b0b0b0; stroke-width: 0.1"/>
    <path d="M 64.053327 21.093763 
L 63.228048 47.809309 
L 50.14465 68.954946 
" style="fill: none; stroke: #b0b0b0; stroke-width: 0.1"/>
   </g>
  </g>
  <g id="grid3d_3">
   <g id="Line3DCollection_3">
    <path d="M 17.010324 57.366848 
L 32.812184 37.669029 
L 70.305886 44.415739 
" style="fill: none; stroke: #b0b0b0; stroke-width: 0.1"/>
    <path d="M 16.605609 48.55613 
L 32.655999 29.39504 
L 70.663973 35.952216 
" style="fill: none; stroke: #b0b0b0; stroke-width: 0.1"/>
    <path d="M 16.188785 39.481789 
L 32.49557 20.89629 
L 71.032124 27.250809 
" style="fill: none; stroke: #b0b0b0; stroke-width: 0.1"/>
   </g>
  </g>
  <g id="axis3d_1">
   <g id="line2d_1">
    <path d="M 70.108731 49.075565 
L 57.635596 70.489844 
" style="fill: none; stroke: #000000; stroke-width: 0.2; stroke-linecap: square"/>
   </g>
   <g id="xtick_1">
    <g id="line2d_2">
     <path d="M 67.723599 52.575949 
L 68.660655 52.751616 
" style="fill: none; stroke: #000000; stroke-width: 0.8; stroke-linecap: square"/>
    </g>
    <g id="text_1">
     <!-- −4000 -->
     <g transform="translate(69.38943 59.655521) scale(0.03 -0.03)">
      <defs>
       <path id="ArialMT-2212" d="M 3381 1997 
L 356 1997 
L 356 2522 
L 3381 2522 
L 3381 1997 
z
" transform="scale(0.015625)"/>
       <path id="ArialMT-34" d="M 2069 0 
L 2069 1097 
L 81 1097 
L 81 1613 
L 2172 4581 
L 2631 4581 
L 2631 1613 
L 3250 1613 
L 3250 1097 
L 2631 1097 
L 2631 0 
L 2069 0 
z
M 2069 1613 
L 2069 3678 
L 634 1613 
L 2069 1613 
z
" transform="scale(0.015625)"/>
       <path id="ArialMT-30" d="M 266 2259 
Q 266 3072 433 3567 
Q 600 4063 929 4331 
Q 1259 4600 1759 4600 
Q 2128 4600 2406 4451 
Q 2684 4303 2865 4023 
Q 3047 3744 3150 3342 
Q 3253 2941 3253 2259 
Q 3253 1453 3087 958 
Q 2922 463 2592 192 
Q 2263 -78 1759 -78 
Q 1097 -78 719 397 
Q 266 969 266 2259 
z
M 844 2259 
Q 844 1131 1108 757 
Q 1372 384 1759 384 
Q 2147 384 2411 759 
Q 2675 1134 2675 2259 
Q 2675 3391 2411 3762 
Q 2147 4134 1753 4134 
Q 1366 4134 1134 3806 
Q 844 3388 844 2259 
z
" transform="scale(0.015625)"/>
      </defs>
      <use xlink:href="#ArialMT-2212"/>
      <use xlink:href="#ArialMT-34" x="58.398438"/>
      <use xlink:href="#ArialMT-30" x="114.013672"/>
      <use xlink:href="#ArialMT-30" x="169.628906"/>
      <use xlink:href="#ArialMT-30" x="225.244141"/>
     </g>
    </g>
   </g>
   <g id="xtick_2">
    <g id="line2d_3">
     <path d="M 63.852127 59.204277 
L 64.814851 59.390955 
" style="fill: none; stroke: #000000; stroke-width: 0.8; stroke-linecap: square"/>
    </g>
    <g id="text_2">
     <!-- 0 -->
     <g transform="translate(69.081825 66.428633) scale(0.03 -0.03)">
      <use xlink:href="#ArialMT-30"/>
     </g>
    </g>
   </g>
   <g id="xtick_3">
    <g id="line2d_4">
     <path d="M 59.734194 66.25457 
L 60.724007 66.453326 
" style="fill: none; stroke: #000000; stroke-width: 0.8; stroke-linecap: square"/>
    </g>
    <g id="text_3">
     <!-- 4000 -->
     <g transform="translate(62.658886 73.632442) scale(0.03 -0.03)">
      <use xlink:href="#ArialMT-34"/>
      <use xlink:href="#ArialMT-30" x="55.615234"/>
      <use xlink:href="#ArialMT-30" x="111.230469"/>
      <use xlink:href="#ArialMT-30" x="166.845703"/>
     </g>
    </g>
   </g>
   <g id="text_4">
    <!-- $x_1\ (km)$ -->
    <g transform="translate(74.741196 75.847831) rotate(-59.780562) scale(0.04 -0.04)">
     <defs>
      <path id="STIXGeneral-Italic-78" d="M 1555 2272 
L 1632 1907 
Q 1971 2426 2179 2624 
Q 2387 2822 2598 2822 
Q 2714 2822 2787 2755 
Q 2861 2688 2861 2585 
Q 2861 2483 2800 2419 
Q 2739 2355 2643 2355 
Q 2586 2355 2490 2409 
Q 2394 2464 2310 2464 
Q 2125 2464 1683 1690 
Q 1683 1606 1734 1402 
L 1939 544 
Q 2003 282 2131 282 
Q 2234 282 2432 538 
Q 2451 563 2476 598 
Q 2502 634 2521 662 
Q 2541 691 2566 717 
L 2662 659 
Q 2387 230 2227 80 
Q 2067 -70 1882 -70 
Q 1728 -70 1645 26 
Q 1562 122 1504 365 
L 1318 1126 
L 755 365 
Q 557 96 432 13 
Q 307 -70 147 -70 
Q 0 -70 -86 0 
Q -173 70 -173 198 
Q -173 294 -112 361 
Q -51 429 45 429 
Q 122 429 250 358 
Q 346 301 416 301 
Q 525 301 742 614 
L 1267 1357 
L 1088 2150 
Q 1024 2432 969 2509 
Q 915 2586 794 2586 
Q 717 2586 544 2541 
L 429 2509 
L 410 2611 
L 480 2637 
Q 992 2822 1229 2822 
Q 1350 2822 1420 2707 
Q 1491 2592 1555 2272 
z
" transform="scale(0.015625)"/>
      <path id="STIXGeneral-Regular-31" d="M 2522 0 
L 755 0 
L 755 96 
Q 1107 115 1235 227 
Q 1363 339 1363 608 
L 1363 3482 
Q 1363 3795 1171 3795 
Q 1082 3795 883 3718 
L 710 3654 
L 710 3744 
L 1856 4326 
L 1914 4307 
L 1914 486 
Q 1914 275 2042 185 
Q 2170 96 2522 96 
L 2522 0 
z
" transform="scale(0.015625)"/>
      <path id="STIXGeneral-Regular-28" d="M 1946 -1030 
L 1869 -1133 
Q 1126 -710 716 32 
Q 307 774 307 1613 
Q 307 3386 1888 4326 
L 1946 4224 
Q 1293 3667 1075 3126 
Q 858 2586 858 1632 
Q 858 685 1082 96 
Q 1306 -493 1946 -1030 
z
" transform="scale(0.015625)"/>
      <path id="STIXGeneral-Italic-6b" d="M 2950 2739 
L 2950 2637 
Q 2720 2624 2464 2448 
Q 2208 2272 1510 1651 
L 1747 1088 
Q 2099 262 2266 262 
Q 2400 262 2554 531 
Q 2586 582 2650 698 
L 2746 627 
Q 2522 224 2374 77 
Q 2227 -70 2035 -70 
Q 1894 -70 1782 42 
Q 1670 154 1517 454 
Q 1325 826 1133 1357 
L 877 1152 
L 570 0 
L 90 0 
L 992 3379 
Q 1082 3699 1107 3942 
Q 1088 4096 781 4096 
L 666 4096 
L 666 4198 
Q 1146 4256 1670 4371 
L 1709 4333 
L 941 1414 
L 1216 1626 
Q 2131 2330 2131 2522 
Q 2131 2637 1894 2637 
L 1805 2637 
L 1805 2739 
L 2950 2739 
z
" transform="scale(0.015625)"/>
      <path id="STIXGeneral-Italic-6d" d="M 4506 672 
L 4474 627 
Q 3981 -58 3552 -58 
Q 3296 -58 3296 237 
Q 3296 333 3379 659 
L 3750 2112 
Q 3795 2291 3795 2355 
Q 3795 2413 3756 2451 
Q 3718 2490 3667 2490 
Q 3366 2490 2829 1741 
Q 2592 1408 2457 1072 
Q 2323 736 2138 0 
L 1658 0 
L 1830 595 
Q 2266 2099 2266 2330 
Q 2266 2490 2125 2490 
Q 1965 2490 1702 2237 
Q 1440 1984 1171 1574 
Q 1011 1325 899 1043 
Q 787 762 557 0 
L 77 0 
L 352 922 
Q 704 2093 704 2381 
Q 704 2522 442 2522 
L 282 2522 
L 282 2624 
L 1318 2822 
L 1338 2810 
L 966 1472 
Q 1798 2822 2374 2822 
Q 2560 2822 2659 2720 
Q 2758 2618 2758 2438 
Q 2758 2195 2502 1466 
Q 2842 2003 3069 2275 
Q 3296 2547 3526 2694 
Q 3731 2822 3930 2822 
Q 4102 2822 4201 2710 
Q 4301 2598 4301 2419 
Q 4301 2336 4282 2240 
L 3846 634 
Q 3782 390 3782 346 
Q 3782 243 3859 243 
Q 4000 243 4275 582 
L 4410 749 
L 4506 672 
z
" transform="scale(0.015625)"/>
      <path id="STIXGeneral-Regular-29" d="M 186 4224 
L 262 4326 
Q 992 3891 1408 3148 
Q 1824 2406 1824 1581 
Q 1824 -166 243 -1133 
L 186 -1030 
Q 845 -486 1059 54 
Q 1274 595 1274 1562 
Q 1274 2534 1059 3120 
Q 845 3706 186 4224 
z
" transform="scale(0.015625)"/>
     </defs>
     <use xlink:href="#STIXGeneral-Italic-78" transform="translate(0 0.703125)"/>
     <use xlink:href="#STIXGeneral-Regular-31" transform="translate(44.399994 -12.525) scale(0.7)"/>
     <use xlink:href="#STIXGeneral-Regular-28" transform="translate(107.875778 0.703125)"/>
     <use xlink:href="#STIXGeneral-Italic-6b" transform="translate(141.175766 0.703125)"/>
     <use xlink:href="#STIXGeneral-Italic-6d" transform="translate(185.57576 0.703125)"/>
     <use xlink:href="#STIXGeneral-Regular-29" transform="translate(257.775741 0.703125)"/>
    </g>
   </g>
  </g>
  <g id="axis3d_2">
   <g id="line2d_5">
    <path d="M 17.232851 62.211304 
L 57.635596 70.489844 
" style="fill: none; stroke: #000000; stroke-width: 0.2; stroke-linecap: square"/>
   </g>
   <g id="xtick_4">
    <g id="line2d_6">
     <path d="M 24.424694 63.480087 
L 24.025676 64.013782 
" style="fill: none; stroke: #000000; stroke-width: 0.8; stroke-linecap: square"/>
    </g>
    <g id="text_5">
     <!-- −4000 -->
     <g transform="translate(18.691855 70.137473) scale(0.03 -0.03)">
      <use xlink:href="#ArialMT-2212"/>
      <use xlink:href="#ArialMT-34" x="58.398438"/>
      <use xlink:href="#ArialMT-30" x="114.013672"/>
      <use xlink:href="#ArialMT-30" x="169.628906"/>
      <use xlink:href="#ArialMT-30" x="225.244141"/>
     </g>
    </g>
   </g>
   <g id="xtick_5">
    <g id="line2d_7">
     <path d="M 37.192678 66.093881 
L 36.819562 66.64002 
" style="fill: none; stroke: #000000; stroke-width: 0.8; stroke-linecap: square"/>
    </g>
    <g id="text_6">
     <!-- 0 -->
     <g transform="translate(34.891397 72.818251) scale(0.03 -0.03)">
      <use xlink:href="#ArialMT-30"/>
     </g>
    </g>
   </g>
   <g id="xtick_6">
    <g id="line2d_8">
     <path d="M 50.259759 68.768905 
L 49.913875 69.327928 
" style="fill: none; stroke: #000000; stroke-width: 0.8; stroke-linecap: square"/>
    </g>
    <g id="text_7">
     <!-- 4000 -->
     <g transform="translate(45.512023 75.562179) scale(0.03 -0.03)">
      <use xlink:href="#ArialMT-34"/>
      <use xlink:href="#ArialMT-30" x="55.615234"/>
      <use xlink:href="#ArialMT-30" x="111.230469"/>
      <use xlink:href="#ArialMT-30" x="166.845703"/>
     </g>
    </g>
   </g>
   <g id="text_8">
    <!-- $x_2\ (km)$ -->
    <g transform="translate(27.072335 79.428415) rotate(-348.420349) scale(0.04 -0.04)">
     <defs>
      <path id="STIXGeneral-Regular-32" d="M 3034 877 
L 2688 0 
L 186 0 
L 186 77 
L 1325 1286 
Q 1773 1754 1965 2144 
Q 2157 2534 2157 2950 
Q 2157 3379 1920 3616 
Q 1683 3853 1267 3853 
Q 922 3853 720 3673 
Q 518 3494 326 3021 
L 192 3053 
Q 301 3648 630 3987 
Q 960 4326 1523 4326 
Q 2054 4326 2380 4006 
Q 2707 3686 2707 3200 
Q 2707 2477 1888 1613 
L 832 486 
L 2330 486 
Q 2541 486 2665 569 
Q 2790 653 2944 915 
L 3034 877 
z
" transform="scale(0.015625)"/>
     </defs>
     <use xlink:href="#STIXGeneral-Italic-78" transform="translate(0 0.703125)"/>
     <use xlink:href="#STIXGeneral-Regular-32" transform="translate(44.399994 -12.525) scale(0.7)"/>
     <use xlink:href="#STIXGeneral-Regular-28" transform="translate(107.875778 0.703125)"/>
     <use xlink:href="#STIXGeneral-Italic-6b" transform="translate(141.175766 0.703125)"/>
     <use xlink:href="#STIXGeneral-Italic-6d" transform="translate(185.57576 0.703125)"/>
     <use xlink:href="#STIXGeneral-Regular-29" transform="translate(257.775741 0.703125)"/>
    </g>
   </g>
  </g>
  <g id="axis3d_3">
   <g id="line2d_9">
    <path d="M 17.232851 62.211304 
L 15.948794 34.257144 
" style="fill: none; stroke: #000000; stroke-width: 0.2; stroke-linecap: square"/>
   </g>
   <g id="xtick_7">
    <g id="line2d_10">
     <path d="M 17.149083 57.193878 
L 16.73215 57.713606 
" style="fill: none; stroke: #000000; stroke-width: 0.8; stroke-linecap: square"/>
    </g>
    <g id="text_9">
     <!-- −4000 -->
     <g transform="translate(4.417529 61.550611) scale(0.03 -0.03)">
      <use xlink:href="#ArialMT-2212"/>
      <use xlink:href="#ArialMT-34" x="58.398438"/>
      <use xlink:href="#ArialMT-30" x="114.013672"/>
      <use xlink:href="#ArialMT-30" x="169.628906"/>
      <use xlink:href="#ArialMT-30" x="225.244141"/>
     </g>
    </g>
   </g>
   <g id="xtick_8">
    <g id="line2d_11">
     <path d="M 16.746735 48.387653 
L 16.32268 48.893893 
" style="fill: none; stroke: #000000; stroke-width: 0.8; stroke-linecap: square"/>
    </g>
    <g id="text_10">
     <!-- 0 -->
     <g transform="translate(7.262837 52.687294) scale(0.03 -0.03)">
      <use xlink:href="#ArialMT-30"/>
     </g>
    </g>
   </g>
   <g id="xtick_9">
    <g id="line2d_12">
     <path d="M 16.332358 39.318153 
L 15.900938 39.80986 
" style="fill: none; stroke: #000000; stroke-width: 0.8; stroke-linecap: square"/>
    </g>
    <g id="text_11">
     <!-- 4000 -->
     <g transform="translate(4.211102 43.556247) scale(0.03 -0.03)">
      <use xlink:href="#ArialMT-34"/>
      <use xlink:href="#ArialMT-30" x="55.615234"/>
      <use xlink:href="#ArialMT-30" x="111.230469"/>
      <use xlink:href="#ArialMT-30" x="166.845703"/>
     </g>
    </g>
   </g>
   <g id="text_12">
    <!-- $x_3\ (km)$ -->
    <g transform="translate(-0.12703 46.367688) rotate(-272.629999) scale(0.04 -0.04)">
     <defs>
      <path id="STIXGeneral-Regular-33" d="M 390 3264 
L 288 3290 
Q 435 3770 748 4048 
Q 1062 4326 1542 4326 
Q 1990 4326 2265 4083 
Q 2541 3840 2541 3450 
Q 2541 2925 1946 2566 
Q 2298 2413 2477 2227 
Q 2758 1914 2758 1402 
Q 2758 890 2464 506 
Q 2246 211 1840 60 
Q 1434 -90 979 -90 
Q 262 -90 262 275 
Q 262 378 339 442 
Q 416 506 525 506 
Q 685 506 915 339 
Q 1197 141 1466 141 
Q 1818 141 2058 425 
Q 2298 710 2298 1120 
Q 2298 1856 1632 2048 
Q 1434 2112 979 2112 
L 979 2202 
Q 1338 2323 1517 2432 
Q 2035 2726 2035 3290 
Q 2035 3610 1852 3776 
Q 1670 3942 1344 3942 
Q 768 3942 390 3264 
z
" transform="scale(0.015625)"/>
     </defs>
     <use xlink:href="#STIXGeneral-Italic-78" transform="translate(0 0.703125)"/>
     <use xlink:href="#STIXGeneral-Regular-33" transform="translate(44.399994 -12.525) scale(0.7)"/>
     <use xlink:href="#STIXGeneral-Regular-28" transform="translate(107.875778 0.703125)"/>
     <use xlink:href="#STIXGeneral-Italic-6b" transform="translate(141.175766 0.703125)"/>
     <use xlink:href="#STIXGeneral-Italic-6d" transform="translate(185.57576 0.703125)"/>
     <use xlink:href="#STIXGeneral-Regular-29" transform="translate(257.775741 0.703125)"/>
    </g>
   </g>
  </g>
  <g id="axes_1">
   <g id="line2d_13">
    <path d="M 66.226676 38.787996 
L 64.401978 33.940528 
L 61.15497 29.746021 
L 56.751302 26.497453 
L 51.529623 24.407599 
L 45.871863 23.600238 
L 40.174975 24.108901 
L 34.826032 25.881136 
L 30.181246 28.786309 
L 26.548502 32.625513 
L 24.17257 37.142856 
L 23.222246 42.038123 
L 23.77912 46.981355 
L 25.828445 51.63003 
L 29.253421 55.649399 
L 33.834936 58.735811 
L 39.25907 60.641857 
L 45.134287 61.200879 
L 51.018942 60.347366 
L 56.457681 58.129279 
L 61.023026 54.708977 
L 64.356525 50.351119 
L 66.203226 45.398408 
L 66.434222 40.238529 
L 65.05437 35.267364 
L 62.195277 30.85388 
L 58.096352 27.311125 
L 53.078218 24.875857 
L 47.513082 23.69735 
L 41.79578 23.834259 
L 36.317833 25.257624 
L 31.445421 27.857916 
L 27.501086 31.45451 
L 24.748383 35.806616 
L 23.378627 40.6255 
L 23.499262 45.588376 
L 25.124066 50.354701 
L 28.166258 54.585504 
L 32.436369 57.965857 
L 37.647178 60.229666 
L 43.427858 61.184697 
L 49.348446 60.734614 
L 54.953902 58.894095 
L 59.804695 55.793369 
L 63.518766 51.669927 
L 65.808604 46.847491 
L 66.507716 41.704942 
L 65.58275 36.639925 
L 63.13052 32.032634 
L 59.362022 28.214634 
L 54.577479 25.445868 
L 49.137088 23.900923 
L 43.431536 23.663849 
L 37.855058 24.729722 
L 32.782331 27.010818 
L 28.549268 30.345584 
L 25.437027 34.509235 
L 23.658338 39.225565 
L 23.34551 44.180258 
L 24.540082 49.036337 
L 27.184944 53.452503 
L 31.120556 57.104677 
L 36.08752 59.710231 
L 41.737777 61.053249 
L 47.655971 61.007844 
L 53.390875 59.555758 
L 58.494518 56.794328 
L 62.564399 52.932039 
L 65.282681 48.270982 
L 66.446275 43.178196 
L 65.983343 38.050132 
L 63.954564 33.275733 
L 60.540472 29.203312 
L 56.018535 26.114988 
L 50.734602 24.210328 
L 45.073097 23.598946 
L 39.429155 24.300442 
L 34.184418 26.249565 
L 29.686844 29.304605 
L 26.233997 33.25764 
L 24.058904 37.845996 
L 23.317708 42.765032 
L 24.078868 47.682832 
L 26.314448 52.257578 
L 29.894912 56.158104 
L 34.589541 59.087425 
L 40.074822 60.807941 
L 45.952696 61.165713 
L 51.77912 60.110191 
L 57.101321 57.705387 
L 61.499714 54.129234 
L 64.628684 49.659737 
L 66.249914 44.649106 
L 66.253161 39.489564 
L 64.661889 34.576148 
L 61.624284 30.271934 
L 57.39275 26.879998 
L 52.296414 24.624381 
L 46.711243 23.640309 
L 41.031374 23.972328 
L 35.643814 25.578293 
L 30.907199 28.337086 
L 27.134277 32.05848 
L 24.577239 36.494283 
L 23.415009 41.350664 
L 23.742053 46.302169 
L 25.558991 51.008171 
L 28.766171 55.132417 
L 33.162152 58.36573 
L 38.449468 60.450916 
L 44.249783 61.207665 
L 50.129451 60.554064 
L 55.63451 58.520694 
L 60.331797 55.253704 
L 63.850749 51.004775 
L 65.919563 46.1084 
L 66.390032 40.949502 
L 65.247639 35.926402 
L 62.606519 31.414738 
L 58.691776 27.737105 
L 53.813424 25.141328 
L 48.336713 23.78816 
L 42.652797 23.747434 
L 37.15237 25.000703 
L 32.203327 27.448166 
L 28.132356 30.9181 
L 25.209664 35.1777 
L 23.635878 39.945018 
L 23.530512 44.902371 
L 24.922017 49.711938 
L 27.740332 54.034301 
L 31.813659 57.550222 
L 36.871794 59.985056 
L 42.558287 61.133965 
L 48.452893 60.884853 
L 54.104012 59.235092 
L 59.068493 56.298132 
L 62.953918 52.297359 
L 65.457088 47.546797 
L 66.392659 42.420986 
L 65.707685 37.3186 
L 63.480777 32.625435 
L 59.907607 28.681942 
L 55.276696 25.758839 
L 49.940251 24.042174 
L 44.284375 23.627314 
L 38.701689 24.520049 
L 33.567871 26.642594 
L 29.222269 29.84252 
L 25.951943 33.90328 
L 23.978134 38.555821 
L 23.444401 43.491458 
L 24.406216 48.376693 
L 26.822664 52.870774 
L 30.551735 56.646492 
L 35.351431 59.413917 
L 40.889068 60.945646 
L 46.760582 61.100823 
L 52.520166 59.844132 
L 57.71833 57.255746 
L 61.944093 53.529065 
L 64.865284 48.955071 
L 66.260628 43.894877 
L 66.038658 38.744479 
L 64.24124 33.897241 
L 61.032628 29.709586 
L 56.677497 26.474017 
L 51.512643 24.401483 
L 45.916962 23.613019 
L 40.283162 24.139131 
L 34.993154 25.924722 
L 30.39763 28.837423 
L 26.79932 32.677792 
L 24.438975 37.190629 
L 23.48317 42.077402 
L 24.01352 47.010357 
L 26.01768 51.649147 
L 29.383371 55.660609 
L 33.897487 58.741699 
L 39.252707 60.644515 
L 45.063674 61.201051 
L 50.893656 60.344121 
L 56.290461 58.120382 
L 60.828004 54.691857 
L 64.147874 50.324129 
L 65.994446 45.361917 
L 66.238003 40.19545 
L 64.882739 35.2229 
L 62.059681 30.814554 
L 58.007359 27.283381 
L 53.044765 24.864646 
L 47.541358 23.705063 
L 41.887996 23.860266 
L 36.471206 25.298476 
L 31.651656 27.90813 
L 27.746542 31.507714 
L 25.015007 35.856802 
L 23.645592 40.668093 
L 23.745123 45.620913 
L 25.329139 50.376959 
L 28.314854 54.599059 
L 32.518501 57.973199 
L 37.659429 60.233106 
L 43.373253 61.18541 
L 49.235404 60.732145 
L 54.794576 58.886529 
L 59.613156 55.778153 
L 63.309486 51.645083 
L 65.595541 46.812799 
L 66.304008 41.662652 
L 65.400799 36.594718 
L 62.982108 31.990832 
L 59.258123 28.182876 
L 54.527627 25.429656 
L 49.148339 23.903433 
L 43.507247 23.685287 
L 37.993794 24.767348 
L 32.977198 27.059586 
L 28.787887 30.399218 
L 25.702267 34.561469 
L 23.929781 39.271301 
L 23.601488 44.21636 
L 24.760037 49.061931 
L 27.351743 53.468692 
L 31.222388 57.113763 
L 36.119034 59.714657 
L 41.700245 61.054571 
L 47.556487 61.006086 
L 53.240828 59.549382 
L 58.307769 56.780888 
L 62.35563 52.909322 
L 65.066278 48.238238 
L 66.235841 43.137009 
L 65.791687 38.004608 
L 63.793817 33.231891 
L 60.421998 29.167878 
L 55.952419 26.093932 
L 50.728703 24.207566 
L 45.131858 23.615525 
L 39.552457 24.334383 
L 34.366775 26.296348 
L 29.917202 29.358145 
L 26.496263 33.311514 
L 24.333224 37.894641 
L 23.582374 42.80467 
L 24.312621 47.711916 
L 26.49885 52.276671 
L 30.016405 56.169229 
L 34.640828 59.093067 
L 40.055331 60.809976 
L 45.868039 61.164629 
L 51.639744 60.104873 
L 56.920716 57.693583 
L 61.292662 54.10859 
L 64.409953 49.62904 
L 66.033579 44.609296 
L 66.052463 39.444125 
L 64.489332 34.53071 
L 61.491617 30.2332 
L 57.310566 26.854309 
L 52.273315 24.616335 
L 46.752697 23.651789 
L 41.138532 24.002158 
L 35.812598 25.622557 
L 31.127926 28.389991 
L 27.391994 32.113539 
L 24.852803 36.545548 
L 23.686846 41.39375 
L 23.988387 46.334848 
L 25.760232 51.030412 
L 28.907107 55.145885 
L 33.233562 58.372855 
L 38.448865 60.45382 
L 44.18116 61.207274 
L 50.002134 60.54971 
L 55.461447 58.510394 
L 60.127741 55.235057 
L 63.630784 50.976188 
L 65.698226 46.0702 
L 66.181021 40.904525 
L 65.063855 35.87981 
L 62.460094 31.373106 
L 58.593781 27.707045 
L 53.77315 25.128049 
L 48.360587 23.794358 
L 42.743193 23.772768 
L 37.306603 25.041931 
L 32.41312 27.499881 
L 28.383981 30.973851 
L 25.484826 35.231239 
L 23.91331 39.991403 
L 23.788101 44.938696 
L 25.139187 49.73754 
L 27.900334 54.050403 
L 31.905387 57.55911 
L 36.890801 59.989018 
L 42.506825 61.134318 
L 48.338996 60.881391 
L 53.939908 59.226163 
L 58.868765 56.281383 
L 62.73388 52.270901 
L 65.231714 47.510395 
L 66.176117 42.376817 
L 65.513299 37.271292 
L 63.321071 32.581334 
L 59.794111 28.647824 
L 55.219338 25.740445 
L 49.946356 24.042979 
L 44.357484 23.647822 
L 38.840486 24.557754 
L 33.765504 26.692568 
L 29.466308 29.898447 
L 26.225065 33.9587 
L 24.259541 38.605295 
L 23.711825 43.531422 
L 24.638269 48.405824 
L 27.001192 52.889786 
L 30.663811 56.657434 
L 35.390631 59.419154 
L 40.855798 60.946837 
L 46.661427 61.098214 
L 52.366455 59.836453 
L 57.524313 57.24078 
L 61.725211 53.50472 
L 64.636906 48.92061 
L 66.0374 43.851825 
L 65.83435 38.696878 
L 64.068783 33.851112 
L 60.903997 29.671761 
L 56.603213 26.450681 
L 51.500868 24.396839 
L 45.972348 23.62842 
L 40.405725 24.172857 
L 35.177478 25.972405 
L 30.632639 28.892984 
L 27.068776 32.734653 
L 24.722702 37.242925 
L 23.758925 42.120942 
L 24.25928 47.04314 
L 26.214034 51.671321 
L 29.515659 55.673901 
L 33.957312 58.74846 
L 39.238551 60.646674 
L 44.980525 61.199291 
L 50.751764 60.337591 
L 56.103577 58.107075 
L 60.611574 54.669577 
L 63.9176 50.291708 
L 65.765443 45.320251 
L 66.024508 40.147957 
L 64.69811 35.175192 
L 61.916331 30.773412 
L 57.916368 27.255334 
L 53.015077 24.854566 
L 47.578672 23.715139 
L 41.993621 23.889599 
L 36.641155 25.343336 
L 31.876255 27.962772 
L 28.010731 31.56554 
L 25.299378 35.911597 
L 23.928102 40.715084 
L 24.003295 45.65742 
L 25.542466 50.402517 
L 28.467049 54.614991 
L 32.599224 57.981753 
L 37.665185 60.236405 
L 43.307301 61.184538 
L 49.106741 60.726687 
L 54.616279 58.874763 
L 59.400535 55.757865 
L 63.078497 51.614759 
L 65.361745 46.772746 
L 66.082125 41.615641 
L 65.204634 36.545878 
L 62.824514 31.946787 
L 59.150711 28.150398 
L 54.480066 25.414211 
L 49.167321 23.90802 
L 43.595323 23.709854 
L 38.148391 24.808869 
L 33.190074 27.112744 
L 29.045244 30.457493 
L 25.985597 34.618387 
L 24.217408 39.321557 
L 23.870668 44.256608 
L 24.989334 49.091059 
L 27.523369 53.487546 
L 31.324117 57.124395 
L 36.14536 59.719302 
L 41.65259 61.054665 
L 47.442428 61.001656 
L 53.072587 59.539044 
L 58.100367 56.762505 
L 62.125178 52.881117 
L 64.828746 48.19998 
L 66.006435 43.090822 
L 65.584678 37.955072 
L 63.622507 33.185378 
L 60.29851 29.131294 
L 55.887102 26.073253 
L 50.729178 24.206562 
L 45.201868 23.635001 
L 39.690814 24.372076 
L 34.56669 26.347456 
L 30.16621 29.41633 
L 26.776873 33.370128 
L 24.624291 37.947918 
L 23.861064 42.848618 
L 24.556749 47.744754 
L 26.689269 52.298707 
L 30.139075 56.182232 
L 34.688233 59.099295 
L 40.026964 60.811157 
L 45.769906 61.161219 
L 51.48303 60.095869 
L 56.719988 57.677004 
L 61.064067 54.082492 
L 64.169812 49.59272 
L 65.79758 44.564238 
L 65.835359 39.394317 
L 64.304889 34.482177 
L 61.352454 30.192878 
L 57.227675 26.82859 
L 52.255188 24.609708 
L 46.804212 23.665912 
L 41.259857 24.035574 
L 35.998398 25.671062 
L 31.367124 28.447525 
L 27.668224 32.173382 
L 25.145601 36.601541 
L 23.973469 41.441296 
L 24.24608 46.371488 
L 25.968643 51.055865 
L 29.050486 55.161551 
L 33.302398 58.380927 
L 38.440657 60.456248 
L 44.100206 61.204914 
L 49.858405 60.541967 
L 55.268881 58.495518 
L 59.902384 55.211026 
L 63.389235 50.941902 
L 65.456632 46.026535 
L 65.954633 40.854844 
L 64.866914 35.82971 
L 62.305716 31.329444 
L 58.493566 27.676532 
L 53.736407 25.115826 
L 48.393272 23.802923 
L 42.846787 23.801501 
L 37.477222 25.087297 
L 32.641116 27.556197 
L 28.654208 31.034421 
L 25.777637 35.289593 
L 24.206228 40.042385 
L 24.057985 44.979175 
L 25.364646 49.766604 
L 28.064022 54.069012 
L 31.995843 57.569298 
L 36.903492 59.992876 
L 42.444216 61.133066 
L 48.209679 60.874856 
L 53.757008 59.212886 
L 58.648081 56.259356 
L 62.492193 52.238708 
L 64.985595 47.468346 
L 65.941319 42.327635 
L 65.304556 37.220076 
L 63.151995 32.534759 
L 59.676885 28.612816 
L 55.16404 25.72272 
L 49.959962 24.045841 
L 44.442742 23.671512 
L 38.994946 24.59947 
L 33.980976 26.747092 
L 29.728945 29.959207 
L 26.516169 34.019007 
L 24.557063 38.659492 
L 23.992422 43.575723 
L 24.879682 48.438657 
L 27.184617 52.911604 
L 30.775904 56.670026 
L 35.424808 59.424669 
L 40.8126 60.946801 
L 46.5479 61.092873 
L 52.194734 59.824689 
L 57.309788 57.220682 
L 61.484731 53.474647 
L 64.387415 48.880359 
L 65.795143 43.803482 
L 65.614567 38.644985 
L 63.885591 33.802066 
L 60.770144 29.632597 
L 56.529502 26.427603 
L 51.495239 24.393912 
L 46.038763 23.646753 
L 40.543143 24.210434 
L 35.379183 26.024562 
L 30.88615 28.953372 
L 27.356457 32.796455 
L 25.023092 37.300054 
L 24.048661 42.168985 
L 24.515417 47.079853 
L 26.416457 51.69659 
L 29.64923 55.689186 
L 34.013407 58.755881 
L 39.215708 60.648 
L 44.884104 61.195164 
L 50.592727 60.32727 
L 55.896731 58.088826 
L 60.373707 54.641619 
L 63.665955 50.253395 
L 65.516742 45.273048 
L 65.794508 40.095809 
L 64.50144 35.12413 
L 61.766293 30.730471 
L 57.824456 27.227112 
L 52.990136 24.845834 
L 47.625829 23.727863 
L 42.113209 23.922593 
L 36.827936 25.392565 
L 32.119165 28.022211 
L 28.293303 31.628341 
L 25.600884 35.971319 
L 24.225335 40.76673 
L 24.272808 45.69807 
L 25.762994 50.431446 
L 28.62177 54.633252 
L 32.677506 57.991347 
L 37.663512 60.239268 
L 43.229218 61.18168 
L 48.961867 60.717762 
L 54.418654 58.858277 
L 59.166743 55.731992 
L 62.825991 51.578486 
L 65.107691 46.726947 
L 65.842797 41.563639 
L 64.995185 36.493259 
L 62.658798 31.900481 
L 59.040879 28.117297 
L 54.435823 25.399721 
L 49.194897 23.914946 
L 43.696389 23.737864 
L 38.319181 24.854632 
L 33.420979 27.170651 
L 29.321056 30.520764 
L 26.286458 34.680311 
L 24.520438 39.376605 
L 24.1521 44.301197 
L 25.226925 49.123818 
L 27.698738 53.509053 
L 31.424683 57.13644 
L 36.165527 59.723913 
L 41.59398 61.053169 
L 47.313151 60.994107 
L 52.885738 59.524245 
L 57.872163 56.738667 
L 61.873174 52.846946 
L 64.570501 48.155807 
L 65.758736 43.039336 
L 65.363212 37.90135 
L 63.441679 33.136143 
L 60.171108 29.093627 
L 55.823641 26.053116 
L 50.736942 24.207563 
L 45.283817 23.65768 
L 39.844638 24.413863 
L 34.784263 26.403246 
L 30.433656 29.479512 
L 27.075331 33.433813 
L 24.931368 38.006109 
L 24.15286 42.89709 
L 24.810218 47.781471 
L 26.884617 52.323706 
L 30.261851 56.197013 
L 34.730756 59.105889 
L 39.98885 60.811151 
L 45.657603 61.155057 
L 51.308507 60.082693 
L 56.498923 57.655143 
L 60.813994 54.050454 
L 63.908615 49.550353 
L 65.542541 44.513605 
L 65.602706 39.339933 
L 64.109582 34.430467 
L 61.207901 30.151001 
L 57.145164 26.802977 
L 52.242999 24.604718 
L 46.866547 23.682961 
L 41.395836 24.072903 
L 36.201394 25.724156 
L 31.624656 28.51004 
L 27.962539 32.238344 
L 25.45495 36.662557 
L 24.273996 41.493534 
L 24.514119 46.412237 
L 26.183141 51.084574 
L 29.195221 55.179347 
L 33.36763 58.389758 
L 38.423933 60.457893 
L 44.006177 61.20018 
L 49.697735 60.530365 
L 55.056533 58.475564 
L 59.655727 55.181122 
L 63.126394 50.901481 
L 65.195353 45.977056 
L 65.711686 40.800223 
L 64.657821 35.775987 
L 62.144493 31.283753 
L 58.392242 27.645674 
L 53.704209 25.104852 
L 48.435591 23.81411 
L 42.964141 23.833938 
L 37.664483 25.137134 
L 32.88725 27.617455 
L 28.942668 31.100138 
L 26.087463 35.35306 
L 24.513782 40.098212 
L 24.339165 45.023981 
L 25.597307 49.799208 
L 28.230292 54.090094 
L 32.083968 57.580637 
L 36.908911 59.996369 
L 42.369669 61.129844 
L 48.064354 60.864806 
L 53.554972 59.194776 
L 58.40638 56.231565 
L 62.22909 52.200335 
L 64.719254 47.420281 
L 65.689045 42.273176 
L 65.082437 37.164804 
L 62.974655 32.485678 
L 59.557062 28.576994 
L 55.111861 25.705829 
L 49.981957 24.050993 
L 44.540787 23.698667 
L 39.165407 24.645511 
L 34.214301 26.806496 
L 30.00988 30.025126 
L 26.824673 34.084501 
L 24.869885 38.71867 
L 24.285209 43.624549 
L 25.129373 48.475296 
L 27.371823 52.936226 
L 30.886929 56.684153 
L 35.452971 59.430232 
L 40.758632 60.945206 
L 46.419359 61.084382 
L 52.004604 59.808367 
L 57.074626 57.194969 
L 61.222815 53.438388 
L 64.117262 48.833929 
L 65.534578 43.749553 
L 65.380251 38.588621 
L 63.69275 33.750043 
L 60.632206 29.592143 
L 56.457453 26.404926 
L 51.496694 24.392922 
L 46.116913 23.668292 
L 40.695832 24.252172 
L 35.598365 26.081522 
L 31.157938 29.018917 
L 27.661851 32.863508 
L 25.339388 37.362288 
L 24.351436 42.221739 
L 24.780872 47.120621 
L 26.62384 51.724978 
L 29.782991 55.706377 
L 34.064756 58.763756 
L 39.183296 60.648178 
L 44.773714 61.188266 
L 50.416082 60.312693 
L 55.669722 58.065143 
L 60.11449 54.60751 
L 63.393318 50.20878 
L 65.248999 45.219987 
L 65.548892 40.038798 
L 64.293783 35.069625 
L 61.610698 30.685757 
L 57.732728 27.198842 
L 52.970927 24.838659 
L 47.683598 23.743507 
L 42.247252 23.959558 
L 37.031729 25.446499 
L 32.380246 28.086787 
L 28.59382 31.69644 
L 25.918831 36.036255 
L 24.536398 40.823257 
L 24.552634 45.74301 
L 25.989626 50.463795 
L 28.777919 54.653779 
L 32.75231 58.001798 
L 37.653493 60.241404 
L 43.138259 61.176447 
L 48.800255 60.704909 
L 54.201432 58.836577 
L 58.911791 55.700044 
L 62.55227 51.535826 
L 64.833959 46.67505 
L 65.586851 41.506404 
L 64.773465 36.436743 
L 62.486071 31.851916 
L 58.929741 28.083681 
L 54.395913 25.386385 
L 49.231895 23.924476 
L 43.811012 23.76963 
L 38.506426 24.904977 
L 33.669859 27.233654 
L 29.614963 30.589364 
L 26.604224 34.747543 
L 24.838029 39.436692 
L 24.444794 44.350296 
L 25.471732 49.160283 
L 27.876758 53.533171 
L 31.52304 57.149738 
L 36.17859 59.728213 
L 41.523629 61.049702 
L 47.168073 60.982978 
L 52.679943 59.504483 
L 57.62309 56.708871 
L 61.599841 52.806346 
L 64.292048 48.105334 
L 65.493506 42.982277 
L 65.128254 37.84329 
L 63.25242 33.084163 
L 60.040907 29.054966 
L 55.763083 26.033707 
L 50.752876 24.210825 
L 45.378344 23.683869 
L 40.014272 24.460081 
L 35.019524 26.46407 
L 30.719263 29.548038 
L 27.391082 33.502886 
L 25.253676 38.06948 
L 24.456817 42.950276 
L 25.07198 47.822162 
L 27.083812 52.351652 
L 30.383676 56.213435 
L 34.767428 59.112591 
L 39.940162 60.809591 
L 45.530494 61.145688 
L 51.115769 60.064837 
L 56.257379 57.627478 
L 60.542584 54.011988 
L 63.626785 49.501526 
L 65.26915 44.457091 
L 65.35541 39.280791 
L 63.904462 34.375527 
L 61.059063 30.107639 
L 57.064095 26.777643 
L 52.237672 24.601622 
L 46.940405 23.703249 
L 41.546892 24.114491 
L 36.421697 25.782201 
L 31.900325 28.577894 
L 28.274456 32.308757 
L 25.780128 36.728878 
L 24.587524 41.550677 
L 24.79148 46.457218 
L 26.402652 51.116552 
L 29.340251 55.199164 
L 33.42827 58.399116 
L 38.39783 60.45841 
L 43.898388 61.192635 
L 49.519657 60.514399 
L 54.824192 58.450005 
L 59.387836 55.144836 
L 62.842608 50.854482 
L 64.915005 45.921422 
L 65.453028 40.740445 
L 64.437588 35.718557 
L 61.977521 31.236078 
L 58.290886 27.614624 
L 53.677519 25.09537 
L 48.488307 23.828228 
L 43.09575 23.870427 
L 37.86858 25.19181 
L 33.151406 27.684022 
L 29.248954 31.171349 
L 26.413644 35.421943 
L 24.835116 40.159118 
L 24.630649 45.073258 
L 25.836112 49.835388 
L 28.39808 54.113569 
L 32.168756 57.592921 
L 36.906165 59.999169 
L 42.282451 61.124224 
L 47.902499 60.850742 
L 53.333521 59.171299 
L 58.143655 56.197486 
L 61.944842 52.155313 
L 64.433233 47.365828 
L 65.420079 42.213188 
L 64.847914 37.105359 
L 62.790126 32.434107 
L 59.435727 28.540492 
L 55.063798 25.690001 
L 50.013157 24.058736 
L 44.652185 23.729637 
L 39.35214 24.696251 
L 34.465441 26.871158 
L 30.30878 30.096563 
L 27.149982 34.155504 
L 25.197206 38.783084 
L 24.589235 43.678072 
L 25.386303 48.515805 
L 27.561752 52.963599 
L 30.995869 56.699633 
L 35.4742 59.435538 
L 40.693122 60.941638 
L 46.275227 61.072248 
L 51.795721 59.786951 
L 56.818749 57.163103 
L 60.939664 53.395454 
L 63.826925 48.780917 
L 65.256433 43.689756 
L 65.13233 38.527636 
L 63.491315 33.695026 
L 60.491275 29.550506 
L 56.388094 26.382861 
L 51.506103 24.394156 
L 46.207435 23.693377 
L 40.864142 24.298443 
L 35.835068 26.143663 
L 31.447747 29.089983 
L 27.984427 32.936143 
L 25.670836 37.429898 
L 24.66633 42.279397 
L 25.054622 47.165537 
L 26.83512 51.756461 
L 29.915904 55.725324 
L 34.110407 58.771814 
L 39.1405 60.646824 
L 44.648727 61.178123 
L 50.221425 60.293331 
L 55.422405 58.035487 
L 59.834054 54.566746 
L 63.100101 50.157433 
L 64.962886 45.16075 
L 65.288547 39.976739 
L 64.076174 35.01163 
L 61.45064 30.639348 
L 57.642242 27.170708 
L 52.958369 24.833309 
L 47.752683 23.762396 
L 42.396178 24.000856 
L 37.252655 25.50551 
L 32.659312 28.156864 
L 28.911813 31.770176 
L 26.252513 36.10669 
L 24.860403 40.88488 
L 24.841766 45.792359 
L 26.221302 50.499569 
L 28.934445 54.676456 
L 32.822657 58.012868 
L 37.634273 60.242453 
L 43.033746 61.168385 
L 48.621445 60.687612 
L 53.964404 58.809125 
L 58.635745 55.661507 
L 62.257684 51.486331 
L 64.541169 46.616711 
L 65.315134 41.44372 
L 64.540488 36.376246 
L 62.307432 31.801136 
L 58.818382 28.049707 
L 54.361307 25.374447 
L 49.279084 23.936919 
L 43.939694 23.805499 
L 38.710327 24.960269 
L 33.936601 27.302116 
L 29.926559 30.663635 
L 26.938236 34.820379 
L 25.169324 39.502047 
L 24.747755 44.404048 
L 25.722693 49.200489 
L 28.056356 53.559822 
L 31.618175 57.164088 
L 36.183652 59.731885 
L 41.440805 61.043846 
L 47.006675 60.967781 
L 52.45493 59.479232 
L 57.353151 56.672602 
L 61.305466 52.758857 
L 63.993952 48.048195 
L 65.211552 42.919397 
L 64.880797 37.780776 
L 63.055829 33.029446 
L 59.909018 29.015434 
L 55.706443 26.015241 
L 50.777814 24.216634 
L 45.486028 23.713898 
L 40.199995 24.511087 
L 35.272433 26.530286 
L 31.022688 29.622247 
L 27.723517 33.577648 
L 25.590389 38.138275 
L 24.771955 43.008343 
L 25.340969 47.866895 
L 27.285768 52.382498 
L 30.503509 56.231332 
L 34.797312 59.119119 
L 39.88012 60.80609 
L 45.388002 61.132647 
L 50.904482 60.04179 
L 55.995296 57.593498 
L 60.250064 53.966623 
L 63.324833 49.445849 
L 64.978173 44.394417 
L 65.094438 39.216739 
L 63.690626 34.317333 
L 60.907069 30.062885 
L 56.985528 26.752777 
L 52.240103 24.600678 
L 47.026438 23.727084 
L 41.713381 24.160678 
L 36.659348 25.845545 
L 32.193858 28.651423 
L 28.603421 32.384927 
L 26.120351 36.800763 
L 24.913098 41.612909 
L 25.077106 46.506522 
L 26.626081 51.151784 
L 29.48451 55.220872 
L 33.483342 58.408754 
L 38.36152 60.457446 
L 43.776206 61.181837 
L 49.323778 60.493575 
L 54.571734 58.41833 
L 59.098871 55.101689 
L 62.538326 50.800496 
L 64.616303 45.859326 
L 65.17959 40.675326 
L 64.207295 35.657364 
L 61.805933 31.18648 
L 58.19059 27.583547 
L 53.657284 25.087623 
L 48.55214 23.845575 
L 43.242052 23.911301 
L 38.089633 25.251673 
L 33.433389 27.75624 
L 29.57258 31.24837 
L 26.755448 35.496511 
L 25.169313 40.225305 
L 24.9314 45.127122 
L 26.079969 49.875158 
L 28.566309 54.139333 
L 32.249204 57.605929 
L 36.894386 60.000945 
L 42.181878 61.115781 
L 47.723656 60.832175 
L 53.09246 59.141942 
L 57.859992 56.156626 
L 61.639828 52.103209 
L 64.128183 47.304649 
L 65.135305 42.147456 
L 64.602035 37.041655 
L 62.599539 32.380084 
L 59.313991 28.503453 
L 55.020842 25.675465 
L 50.05435 24.069361 
L 44.777449 23.764749 
L 39.555349 24.752038 
L 34.734283 26.941422 
L 30.62523 30.173841 
L 27.491425 34.232296 
L 25.538148 38.852955 
L 24.903484 43.736429 
L 25.649388 48.560223 
L 27.753314 52.993647 
L 31.101694 56.716277 
L 35.487584 59.440285 
L 40.615334 60.935697 
L 46.114985 61.055999 
L 51.567822 59.759932 
L 56.542174 57.124583 
L 60.635584 53.345392 
L 63.516991 48.72096 
L 64.961541 43.623842 
L 64.871822 38.461911 
L 63.28241 33.637023 
L 60.34848 29.507806 
L 56.322457 26.361617 
L 51.524315 24.39789 
L 46.310917 23.722329 
L 41.048358 24.349589 
L 36.089257 26.211333 
L 31.755233 29.166902 
L 28.323572 33.014654 
L 26.016604 37.503123 
L 24.992356 42.34212 
L 25.335593 47.214665 
L 27.049205 51.790994 
L 30.046923 55.745866 
L 34.149418 58.779776 
L 39.086538 60.643556 
L 44.508566 61.164274 
L 50.008427 60.268678 
L 55.154727 57.999348 
L 59.532634 54.518855 
L 62.786822 50.098964 
L 64.659176 45.095058 
L 65.014449 39.909478 
L 63.849714 34.950119 
L 61.287252 30.591339 
L 57.55406 27.142903 
L 52.953364 24.830051 
L 47.833743 23.784847 
L 42.560351 24.046833 
L 37.490762 25.569953 
L 32.9561 28.232785 
L 29.246739 31.849857 
L 26.601154 36.182881 
L 25.196401 40.95178 
L 25.139151 45.846206 
L 26.456932 50.538751 
L 29.090288 54.701147 
L 32.887575 58.024302 
L 37.605027 60.242058 
L 42.915046 61.157049 
L 48.425042 60.665369 
L 53.707444 58.775403 
L 58.338765 55.615893 
L 61.942679 51.429584 
L 64.23003 46.551618 
L 65.028575 41.375399 
L 64.297329 36.311716 
L 62.124012 31.748212 
L 58.70789 28.015548 
L 54.332953 25.364162 
L 49.337191 23.952586 
L 44.08288 23.845818 
L 38.931014 25.020867 
L 34.221021 27.376389 
L 30.255372 30.743898 
L 27.287776 34.899093 
L 25.513419 39.572874 
L 25.059961 44.462567 
L 25.978729 49.244445 
L 28.236469 53.588896 
L 31.709095 57.179258 
L 36.17985 59.734582 
L 41.344829 61.035162 
L 46.828501 60.948011 
L 52.210503 59.447965 
L 57.06243 56.629348 
L 60.990419 52.704031 
L 63.676852 47.984041 
L 64.913744 42.850474 
L 64.621876 37.713722 
L 62.853022 32.972038 
L 59.77654 28.97519 
L 55.654708 25.997966 
L 50.81254 24.225302 
L 45.607385 23.748119 
L 40.402018 24.567247 
L 35.54289 26.602257 
L 31.343536 29.702478 
L 28.071986 33.658394 
L 25.940656 38.21272 
L 25.097286 43.071427 
L 25.616125 47.915703 
L 27.48942 52.416161 
L 30.620342 56.250499 
L 34.819513 59.125149 
L 39.807996 60.800224 
L 45.229612 61.115435 
L 50.674383 60.013019 
L 55.712682 57.552675 
L 59.936726 53.913887 
L 63.003325 49.382944 
L 64.670419 44.325326 
L 64.820784 39.147659 
L 63.46917 34.255902 
L 60.753026 30.016876 
L 56.910482 26.728613 
L 52.251129 24.602194 
L 47.125234 23.754821 
L 41.895596 24.211837 
L 36.914326 25.914564 
L 32.504937 28.730982 
L 28.94885 32.467166 
L 26.474822 36.878457 
L 25.249767 41.680391 
L 25.369958 46.560208 
L 26.852367 51.190212 
L 29.626975 55.244287 
L 33.531924 58.418368 
L 38.314233 60.454589 
L 43.639061 61.167293 
L 49.109765 60.467355 
L 54.299092 58.379999 
L 58.78905 55.051185 
L 62.214043 50.739113 
L 64.299994 45.790478 
L 64.892322 40.604712 
L 63.968019 35.592393 
L 61.630841 31.135072 
L 58.092403 27.552659 
L 53.644399 25.081904 
L 48.627751 23.866497 
L 43.403417 23.956933 
L 38.327703 25.317097 
L 33.732953 27.834468 
L 29.913024 31.331522 
L 27.112125 35.577028 
L 25.515452 40.296957 
L 25.240392 45.18566 
L 26.327815 49.918489 
L 28.733939 54.167237 
L 32.324358 57.619388 
L 36.872759 60.001314 
L 42.067326 61.104044 
L 47.527433 60.808577 
L 52.831658 59.106164 
L 57.555542 56.108473 
L 61.314477 52.043588 
L 63.804797 47.236422 
L 64.835631 42.075789 
L 64.345857 36.973641 
L 62.404007 32.323687 
L 59.19293 28.466068 
L 54.983936 25.662497 
L 50.106258 24.083203 
L 44.917028 23.804373 
L 39.775175 24.813249 
L 35.020657 27.017656 
L 30.958777 30.257297 
L 27.848305 34.31516 
L 25.891832 38.92849 
L 25.226954 43.799733 
L 25.91757 48.608551 
L 27.945461 53.026253 
L 31.203426 56.733841 
L 35.492274 59.444112 
L 40.524595 60.926927 
L 45.938181 61.035112 
L 51.32071 59.726764 
L 56.24498 57.078882 
L 60.310936 53.287742 
L 63.188088 48.653701 
L 64.650759 43.551585 
L 64.599751 38.39136 
L 63.06714 33.576084 
L 60.204913 29.46421 
L 56.261527 26.341455 
L 51.552114 24.404449 
L 46.427881 23.755513 
L 41.2487 24.405991 
L 36.36084 26.284904 
L 32.080011 29.250018 
L 28.678645 33.099337 
L 26.375851 37.582189 
L 25.328536 42.410044 
L 25.622736 47.268035 
L 27.265037 51.828487 
L 30.175045 55.76779 
L 34.180899 58.787311 
L 39.020687 60.637942 
L 44.352721 61.146213 
L 49.776824 60.238191 
L 54.866698 57.95619 
L 59.210525 54.463357 
L 62.45405 50.032989 
L 64.33868 45.022653 
L 64.727593 39.836896 
L 63.615506 34.885111 
L 61.121647 30.541868 
L 57.469209 27.115665 
L 52.956758 24.829194 
L 47.927374 23.811215 
L 42.740072 24.097864 
L 37.746036 25.640201 
L 33.270294 28.3149 
L 29.598014 31.93579 
L 26.963953 36.26507 
L 25.543439 41.024116 
L 25.443746 45.904608 
L 26.69545 50.581283 
L 29.244423 54.727672 
L 32.946138 58.035802 
L 37.564985 60.23981 
L 42.781592 61.141949 
L 48.210719 60.637645 
L 53.430493 58.734872 
L 58.021077 55.562705 
L 61.607757 51.365174 
L 63.901298 46.479477 
L 64.728131 41.301286 
L 64.045074 36.243134 
L 61.936932 31.693253 
L 58.599322 27.981421 
L 54.311753 25.355825 
L 49.40688 23.971823 
L 44.240946 23.890956 
L 39.168552 25.087144 
L 34.522878 27.456828 
L 30.600882 30.830474 
L 27.652096 34.983945 
L 25.869395 39.649355 
L 25.380382 44.525936 
L 26.238772 49.292122 
L 28.416053 53.620243 
L 31.794843 57.194981 
L 36.16637 59.73593 
L 41.235075 61.023184 
L 46.633162 60.923148 
L 51.946537 59.410143 
L 56.751085 56.578605 
L 60.655143 52.641437 
L 63.341455 47.912552 
L 64.601007 42.775318 
L 64.352565 37.642076 
L 62.645132 32.912016 
L 59.644566 28.93442 
L 55.608836 25.982152 
L 50.857792 24.237154 
L 45.742873 23.78689 
L 40.620487 24.628929 
L 35.830727 26.680339 
L 31.681348 29.789055 
L 28.435784 33.745394 
L 26.303585 38.293014 
L 25.431794 43.139637 
L 25.896376 47.968587 
L 27.693704 52.452525 
L 30.733182 56.270701 
L 34.833171 59.130336 
L 39.723112 60.791553 
L 45.054875 61.093549 
L 50.425282 59.977993 
L 55.40963 57.504499 
L 59.602952 53.853329 
L 62.662916 49.31246 
L 64.346772 44.249596 
L 64.5355 39.073464 
L 63.241229 34.191278 
L 60.598054 29.969768 
L 56.839962 26.705399 
L 52.271556 24.606481 
L 47.237327 23.786805 
L 42.093763 24.268331 
L 37.186541 25.989611 
L 32.83317 28.816898 
L 29.310093 32.555755 
L 26.842682 36.962176 
L 25.596532 41.753256 
L 25.668962 46.618307 
L 27.080429 51.231754 
L 29.766626 55.269212 
L 33.573112 58.427646 
L 38.255237 60.449428 
L 43.486442 61.148521 
L 48.877363 60.435217 
L 54.006293 58.334498 
L 58.458689 54.992858 
L 61.870355 50.669957 
L 63.966917 45.714622 
L 64.592247 40.528483 
L 63.720887 35.523656 
L 61.453385 31.081984 
L 57.997372 27.522185 
L 53.639727 25.078508 
L 48.715747 23.891332 
L 43.580153 24.007679 
L 38.582779 25.38844 
L 34.04978 27.919041 
L 30.269695 31.421101 
L 27.482865 35.663727 
L 25.872564 40.374229 
L 25.556565 45.248928 
L 26.578565 49.965329 
L 28.899927 54.19711 
L 32.393279 57.633016 
L 36.840505 59.99989 
L 41.938223 61.088547 
L 47.313506 60.779436 
L 52.551069 59.063445 
L 57.230549 56.052549 
L 60.96932 51.976052 
L 63.463861 47.160862 
L 64.522048 41.998034 
L 64.080498 36.901297 
L 62.204685 32.265019 
L 59.073633 28.428538 
L 54.954005 25.651373 
L 50.169567 24.100584 
L 45.07131 23.848855 
L 40.011686 24.880235 
L 35.324317 27.100193 
L 31.308888 30.347227 
L 28.219852 34.40434 
L 26.25731 39.009858 
L 25.55859 43.868064 
L 26.189753 48.660766 
L 28.137123 53.061278 
L 31.300087 56.752075 
L 35.487438 59.446666 
L 40.420273 60.914888 
L 45.744427 61.009093 
L 51.054271 59.686935 
L 55.927344 57.025515 
L 59.96619 53.222087 
L 62.840954 48.578828 
L 64.325045 43.472799 
L 64.317224 38.31593 
L 62.846669 33.51228 
L 60.061697 29.419893 
L 56.206285 26.322629 
L 51.590257 24.414145 
L 46.558798 23.793269 
L 41.465319 24.467996 
L 36.649649 26.364713 
L 32.421618 29.339638 
L 29.048934 33.190451 
L 26.747671 37.667285 
L 25.673835 42.483273 
L 25.914955 47.32565 
L 27.481534 51.868834 
L 30.29926 55.790875 
L 34.203976 58.794092 
L 38.94226 60.629564 
L 44.180739 61.123457 
L 49.526434 60.201361 
L 54.558423 57.905521 
L 58.868125 54.399818 
L 62.10246 49.959167 
L 64.002307 44.943313 
L 64.429058 39.758907 
L 63.374708 34.816647 
L 60.954968 30.491089 
L 57.388716 27.089233 
L 52.969373 24.831038 
L 48.034124 23.841834 
L 42.935574 24.154295 
L 38.01839 25.716593 
L 33.601502 28.403524 
L 29.964983 32.028246 
L 27.340048 36.353467 
L 25.90051 41.102016 
L 25.754467 45.967596 
L 26.935766 50.627084 
L 29.395815 54.755838 
L 32.997435 58.047064 
L 37.513409 60.235312 
L 42.632871 61.122615 
L 47.978224 60.603932 
L 53.133586 58.68703 
L 57.683009 55.501487 
L 61.253533 51.292733 
L 63.555833 46.400038 
L 64.41485 41.221262 
L 63.784873 36.170512 
L 61.747353 31.636385 
L 58.493748 27.947545 
L 54.298589 25.349722 
L 49.488776 23.994957 
L 44.41421 23.94126 
L 39.422935 25.159446 
L 34.841853 27.543757 
L 30.962493 30.923642 
L 28.030375 35.075159 
L 26.236267 39.731636 
L 25.707944 44.59421 
L 26.501724 49.343469 
L 28.594051 53.6537 
L 31.87447 57.21098 
L 36.142426 59.73555 
L 41.110972 61.007456 
L 46.420337 60.892687 
L 51.662993 59.365257 
L 56.419373 56.5199 
L 60.300181 52.570679 
L 62.988561 47.833443 
L 64.274343 42.693775 
L 64.073994 37.565816 
L 62.433323 32.849481 
L 59.514193 28.893327 
L 55.569758 25.968078 
L 50.914261 24.252517 
L 45.892889 23.83056 
L 40.855479 24.696484 
L 36.135704 26.764865 
L 32.035599 29.882275 
L 28.814147 33.838891 
L 26.678234 38.379326 
L 25.774427 43.213053 
L 26.180629 48.025522 
L 27.897554 52.491453 
L 30.841055 56.291686 
L 34.837457 59.134321 
L 39.624841 60.779632 
L 44.863403 61.066488 
L 50.157065 59.936194 
L 55.08632 57.448476 
L 59.249211 53.784528 
L 62.30434 49.234082 
L 64.008189 44.167039 
L 64.239691 38.994099 
L 63.007967 34.123536 
L 60.443276 29.921745 
L 56.774952 26.683398 
L 52.302142 24.613856 
L 47.363195 23.823387 
L 42.308042 24.330514 
L 37.475833 26.071029 
L 33.178102 28.909482 
L 29.686443 32.650956 
L 27.223034 37.052111 
L 25.952368 41.831607 
L 25.973035 46.68082 
L 27.309194 51.276297 
L 29.902463 55.295417 
L 33.606041 58.436251 
L 38.183854 60.441535 
L 43.3179 61.125025 
L 48.62639 60.39664 
L 53.693442 58.28132 
L 58.108184 54.926261 
L 61.507932 50.59268 
L 63.617976 45.631534 
L 64.28044 40.446549 
L 63.467057 35.451196 
L 61.274704 31.027373 
L 57.906523 27.492374 
L 53.644091 25.077747 
L 48.816681 23.920426 
L 43.772501 24.0639 
L 38.854781 25.466053 
L 34.383488 28.010283 
L 30.641948 31.517382 
L 27.866812 35.75682 
L 26.239651 40.457248 
L 25.878845 45.316952 
L 26.831138 50.015593 
L 29.063252 54.228752 
L 32.455064 57.646498 
L 36.796894 59.996261 
L 41.794063 61.068803 
L 47.081626 60.744228 
L 52.250727 59.013266 
L 56.885338 55.988382 
L 60.60496 51.90022 
L 63.106223 47.077706 
L 64.195588 41.914066 
L 63.807094 36.824636 
L 62.002717 32.204216 
L 58.957154 28.391101 
L 54.931923 25.642401 
L 50.244897 24.121858 
L 45.240618 23.898567 
L 40.264886 24.953363 
L 35.64496 27.189376 
L 31.674988 30.443931 
L 28.605272 34.500069 
L 26.633629 39.097214 
L 25.897346 43.941476 
L 26.464865 48.716809 
L 28.32727 53.098545 
L 31.390747 56.770684 
L 35.472306 59.447546 
L 40.301805 60.899099 
L 45.533405 60.977412 
L 50.768462 59.639908 
L 55.589513 56.963985 
L 59.601873 53.148014 
L 62.47637 48.496044 
L 63.985382 43.387323 
L 64.025351 38.235602 
L 62.622144 33.445721 
L 59.919915 29.375075 
L 56.157656 26.305438 
L 51.639434 24.427325 
L 46.704066 23.835969 
L 41.698301 24.535978 
L 36.955457 26.451114 
L 32.779545 29.436075 
L 29.433692 33.288248 
L 27.131144 37.758587 
L 26.027226 42.561886 
L 26.211184 47.387479 
L 27.697651 51.911885 
L 30.418614 55.814852 
L 34.217839 58.799739 
L 38.850642 60.617952 
L 43.992241 61.095479 
L 49.257143 60.157643 
L 54.230075 57.846823 
L 58.505893 54.327792 
L 61.732771 49.877165 
L 63.650994 44.856843 
L 64.119929 39.675456 
L 63.128466 34.744807 
L 60.788323 30.439196 
L 57.313552 27.06389 
L 52.991962 24.835924 
L 48.154469 23.877077 
L 43.147023 24.216505 
L 38.307675 25.799494 
L 33.949285 28.498984 
L 30.346957 32.127496 
L 27.728558 36.448267 
L 26.266606 41.185582 
L 26.070251 46.035164 
L 27.176823 50.676035 
L 29.543484 54.785405 
L 33.040614 58.057734 
L 37.44963 60.228113 
L 42.46844 61.098531 
L 47.727376 60.563686 
L 52.816825 58.631347 
L 57.324949 55.431774 
L 60.880662 51.211896 
L 63.194524 46.313068 
L 64.089786 41.135235 
L 63.517867 36.093898 
L 61.5564 31.577781 
L 58.392181 27.914187 
L 54.294278 25.346185 
L 49.583429 24.022358 
L 44.602919 23.997113 
L 39.694095 25.238141 
L 35.177579 27.637514 
L 31.339579 31.023694 
L 28.42178 35.172953 
L 26.613063 39.819846 
L 26.041596 44.667413 
L 26.766526 49.398394 
L 28.769462 53.689055 
L 31.947088 57.226928 
L 36.107299 59.733012 
L 40.972018 60.987474 
L 46.189778 60.856084 
L 51.359902 59.312769 
L 56.06761 56.452742 
L 59.926125 52.491363 
L 62.619004 47.746445 
L 63.934774 42.605718 
L 63.787289 37.484959 
L 62.218735 32.784577 
L 59.386475 28.852157 
L 55.538354 25.95606 
L 50.982573 24.271754 
L 46.057759 23.879511 
L 41.107005 24.770288 
L 36.457528 26.856184 
L 32.405723 29.982441 
L 29.206288 33.939122 
L 27.063656 38.471809 
L 26.124145 43.291725 
L 26.467819 48.086445 
L 28.099944 52.532762 
L 30.943035 56.313154 
L 34.831607 59.1367 
L 39.512622 60.763975 
L 44.654883 61.033715 
L 49.869694 59.887078 
L 54.743 57.384104 
L 58.876033 53.707063 
L 61.928382 49.147506 
L 63.655655 44.07749 
L 63.93447 38.909547 
L 62.770533 34.052787 
L 60.289779 29.873029 
L 56.716383 26.662914 
L 52.343586 24.624674 
L 47.503243 23.864942 
L 42.538525 24.398764 
L 37.781982 26.159173 
L 33.539231 29.009047 
L 30.077162 32.753018 
L 27.614962 37.148435 
L 26.31625 41.91552 
L 26.281109 46.747713 
L 27.537618 51.323691 
L 30.033527 55.322635 
L 33.629896 58.443807 
L 38.099465 60.430444 
L 43.133055 61.096283 
L 48.356735 60.351082 
L 53.360717 58.21995 
L 57.737999 54.850952 
L 61.127501 50.50695 
L 63.254118 45.541017 
L 63.957994 40.358859 
L 63.207683 35.375096 
L 61.095917 30.971441 
L 57.820839 27.463513 
L 53.658256 25.079966 
L 48.931038 23.954156 
L 43.980635 24.125975 
L 39.143569 25.550298 
L 34.733643 28.108519 
L 31.0291 31.620633 
L 28.263093 35.856498 
L 26.615711 40.546113 
L 26.206169 45.389728 
L 27.084478 50.069159 
L 29.222928 54.261923 
L 32.508859 57.659483 
L 36.741257 59.989979 
L 41.634401 61.0443 
L 46.831614 60.702411 
L 51.930736 58.955101 
L 56.520302 55.915508 
L 60.222064 51.815728 
L 62.732781 46.986724 
L 63.857319 41.823797 
L 63.526799 36.743709 
L 61.799247 32.141448 
L 58.844525 28.35402 
L 54.918524 25.635909 
L 50.332814 24.147388 
L 45.425206 23.953882 
L 40.534713 25.032993 
L 35.982221 27.285535 
L 32.056449 30.547688 
L 29.003726 34.60256 
L 27.019805 39.19068 
L 26.24216 44.01999 
L 26.741837 48.776588 
L 28.514888 53.137848 
L 31.474511 56.789348 
L 35.446154 59.446334 
L 40.168687 60.879066 
L 45.304871 60.939536 
L 50.46332 59.585154 
L 55.231814 56.893813 
L 59.218594 53.065132 
L 62.095188 48.405083 
L 63.63281 43.295034 
L 63.725278 38.150391 
L 62.394723 33.376549 
L 59.780638 29.329998 
L 56.11653 26.290199 
L 51.700282 24.444349 
L 46.864023 23.883988 
L 41.947664 24.610306 
L 37.277974 26.544447 
L 33.153226 29.539624 
L 29.832132 33.392957 
L 27.525318 37.856242 
L 26.387662 42.645931 
L 26.510347 47.45346 
L 27.912353 51.95746 
L 30.532173 55.839429 
L 34.221713 58.803857 
L 38.745269 60.60263 
L 43.786913 61.061755 
L 48.968919 60.106506 
L 53.881913 57.779601 
L 58.12437 54.246866 
L 61.345784 49.786685 
L 63.285744 44.763081 
L 63.801336 39.586524 
L 62.877948 34.669705 
L 60.622816 30.386412 
L 57.244664 27.039938 
L 53.025236 24.844204 
L 48.288826 23.917317 
L 43.374519 24.284868 
L 38.613677 25.889252 
L 34.313143 28.601588 
L 30.743199 32.233788 
L 28.128567 36.549639 
L 26.6407 41.27489 
L 26.390024 46.107281 
L 27.417572 50.727987 
L 29.686464 54.816109 
L 33.074856 58.067443 
L 37.373029 60.217756 
L 42.287921 61.069182 
L 47.45807 60.516372 
L 52.480394 58.567316 
L 56.947372 55.353126 
L 60.489887 51.122334 
L 62.81833 46.218369 
L 63.754049 41.043153 
L 63.245225 36.013375 
L 61.365206 31.517637 
L 58.29562 27.881631 
L 54.299597 25.345556 
L 49.691337 24.054396 
L 44.807254 24.058886 
L 39.981895 25.323587 
L 35.529625 27.738417 
L 31.731456 31.13089 
L 28.825431 35.277514 
L 26.998772 39.914085 
L 26.380268 44.745539 
L 27.032113 49.456778 
L 28.941292 53.726071 
L 32.011837 57.242479 
L 36.060315 59.727879 
L 40.81777 60.962734 
L 45.94131 60.812809 
L 51.037377 59.252159 
L 55.696201 56.376676 
L 59.533656 52.40313 
L 62.233701 47.651328 
L 63.583384 42.51106 
L 63.493619 37.399555 
L 62.002521 32.717475 
L 59.262454 28.811176 
L 55.515462 25.946432 
L 51.063302 24.295232 
L 46.237748 23.934117 
L 41.375008 24.850702 
L 36.795837 26.954626 
L 32.791095 30.08983 
L 29.611373 34.046295 
L 27.458872 38.570586 
L 26.47989 43.375674 
L 26.756876 48.151266 
L 28.29986 52.576245 
L 31.038227 56.334786 
L 34.814895 59.137054 
L 39.385953 60.74409 
L 44.429072 60.9947 
L 49.563209 59.830119 
L 54.380003 57.310902 
L 58.48403 53.620544 
L 61.5359 49.052465 
L 63.290215 43.980824 
L 63.620988 38.819823 
L 62.530092 33.979178 
L 60.138639 29.823869 
L 56.665153 26.64427 
L 52.396529 24.639301 
L 47.657814 23.911853 
L 42.785236 24.473455 
L 38.104704 26.254388 
L 33.915996 29.115891 
L 30.481465 32.862175 
L 28.017519 37.251296 
L 26.687134 42.005044 
L 26.592114 46.818923 
L 27.764669 51.373757 
L 30.158891 55.350571 
L 33.643908 58.449913 
L 38.001511 60.415673 
L 42.931599 61.061764 
L 48.06837 60.298004 
L 53.008377 58.149887 
L 57.34868 54.76651 
L 60.729865 50.412462 
L 62.876347 45.442906 
L 63.626042 40.265392 
L 62.943934 35.295472 
L 60.918129 30.91441 
L 57.741271 27.435908 
L 53.682937 25.08552 
L 49.059241 23.992896 
L 44.204661 24.194278 
L 39.448932 25.641524 
L 35.099749 28.214054 
L 31.430415 31.731101 
L 28.67079 35.96293 
L 26.999713 40.640899 
L 26.537464 45.467222 
L 27.337534 50.125879 
L 29.377991 54.296359 
L 32.553845 57.6716 
L 36.672973 59.980589 
L 41.458863 61.014523 
L 46.563368 60.653451 
L 51.591288 58.888442 
L 56.135923 55.833487 
L 59.82138 51.722246 
L 62.344504 46.887718 
L 63.508359 41.727173 
L 63.24079 36.658597 
L 61.595412 32.076916 
L 58.73675 28.317584 
L 54.91459 25.632244 
L 50.433819 24.177548 
L 45.625263 24.015178 
L 40.821035 25.119486 
L 36.335673 27.388989 
L 32.45259 30.65876 
L 29.414337 34.711998 
L 27.414831 39.290354 
L 26.591963 44.1036 
L 27.019604 48.839984 
L 28.698984 53.178949 
L 31.550518 56.80772 
L 35.408308 59.442591 
L 40.020478 60.854284 
L 45.058652 60.894931 
L 50.138963 59.522154 
L 54.854657 56.814535 
L 58.817035 52.97308 
L 61.698327 48.30571 
L 63.268414 43.195839 
L 63.418175 38.060349 
L 62.165565 33.304939 
L 59.644912 29.284934 
L 56.083756 26.277246 
L 51.77338 24.465587 
L 47.03894 23.937706 
L 42.213357 24.691343 
L 37.616846 26.645043 
L 33.542042 29.650563 
L 30.243421 33.504788 
L 27.929214 37.96037 
L 26.754083 42.735429 
L 26.811376 47.523502 
L 28.124626 52.005353 
L 30.639041 55.864284 
L 34.214875 58.806027 
L 38.625638 60.583105 
L 43.564513 61.021751 
L 48.661803 60.047417 
L 53.514272 57.703372 
L 57.724175 54.156648 
L 60.942361 49.687458 
L 62.907609 44.661901 
L 63.474439 39.492128 
L 62.624324 34.591487 
L 60.459531 30.332987 
L 57.182959 27.017701 
L 53.069847 24.856244 
L 48.437547 23.962936 
L 43.618095 24.359753 
L 38.936116 25.98621 
L 34.692518 28.711628 
L 31.152925 32.347348 
L 28.539128 36.657727 
L 27.021747 41.369985 
L 26.712715 46.183881 
L 27.656979 50.782759 
L 29.823826 54.847654 
L 33.09939 58.075791 
L 37.283045 60.203761 
L 42.091005 61.034038 
L 47.170278 60.461454 
L 52.124558 58.494434 
L 56.550829 55.265125 
L 60.082015 51.023744 
L 62.428264 46.115778 
L 63.40878 40.944997 
L 62.968126 35.92906 
L 61.174887 31.456181 
L 58.205023 27.850187 
L 54.315269 25.348196 
L 49.812929 24.091453 
L 45.027329 24.126959 
L 40.286133 25.416135 
L 35.8975 27.846777 
L 32.137393 31.245476 
L 29.240419 35.389011 
L 27.392369 40.014422 
L 26.72289 44.828552 
L 27.297437 49.518468 
L 29.10858 53.764482 
L 32.0679 57.257259 
L 36.000857 59.719689 
L 40.647854 60.932715 
L 45.674834 60.76232 
L 50.695609 59.182914 
L 55.30563 56.291254 
L 59.123523 52.305643 
L 61.833619 47.547889 
L 63.22129 42.409744 
L 63.194163 37.309689 
L 61.785825 32.648379 
L 59.143139 28.770676 
L 55.501876 25.939543 
L 51.156957 24.323328 
L 46.433051 23.994759 
L 41.659367 24.938088 
L 37.150213 27.06051 
L 33.191041 30.204704 
L 30.028528 34.160596 
L 27.862873 38.675748 
L 26.840591 43.46489 
L 27.046735 48.219862 
L 28.496309 52.621664 
L 31.125767 56.356236 
L 34.786646 59.134945 
L 39.244392 60.719473 
L 44.185798 60.948908 
L 49.237731 59.764794 
L 53.997742 57.228408 
L 58.073894 53.524607 
L 61.127821 48.948727 
L 62.912965 43.876952 
L 63.300428 38.724979 
L 62.287812 33.902884 
L 59.990915 29.774536 
L 56.622119 26.627801 
L 52.461564 24.658106 
L 47.827191 23.964497 
L 43.048133 24.554948 
L 38.443652 26.357002 
L 34.307783 29.230287 
L 30.898523 32.978629 
L 28.429727 37.360808 
L 27.063961 42.100193 
L 26.904978 46.894356 
L 27.989329 51.426284 
L 30.277652 55.378904 
L 33.647351 58.454154 
L 37.889487 60.396733 
L 42.71329 61.020938 
L 47.761339 60.23688 
L 52.636766 58.07065 
L 56.940851 54.672545 
L 60.315897 50.30895 
L 62.485724 45.337076 
L 63.285755 40.166167 
L 62.676994 35.21247 
L 60.742439 30.856535 
L 57.668736 27.409885 
L 53.718796 25.094778 
L 49.201653 24.037032 
L 44.44462 24.269183 
L 39.770601 25.740076 
L 35.481256 28.327183 
L 31.845115 31.849012 
L 29.088961 36.076257 
L 27.390617 40.741647 
L 26.871658 45.549365 
L 27.589274 50.18557 
L 29.52751 54.331764 
L 32.589253 57.682451 
L 36.591484 59.967608 
L 41.26714 60.978942 
L 46.276862 60.596808 
L 51.232649 58.812784 
L 55.732754 55.741897 
L 59.403718 51.619467 
L 61.942406 46.780522 
L 63.14985 41.624175 
L 62.950249 36.56942 
L 61.392334 32.010852 
L 58.634794 28.282109 
L 54.920852 25.631772 
L 50.548352 24.212726 
L 45.840911 24.082838 
L 41.123661 25.213198 
L 36.704835 27.50005 
L 32.86269 30.777393 
L 29.836202 34.82855 
L 27.817688 39.396305 
L 26.945689 44.192265 
L 27.297122 48.906842 
L 28.8786 53.221578 
L 31.617953 56.825425 
L 35.358153 59.435851 
L 39.856806 60.824232 
L 44.794648 60.843055 
L 49.795585 59.450388 
L 54.458528 56.725705 
L 58.397952 52.871521 
L 61.286763 48.197727 
L 62.893323 43.089687 
L 63.105234 37.965561 
L 61.935822 33.231096 
L 59.513757 29.240179 
L 56.060136 26.266934 
L 51.859249 24.491421 
L 47.229021 23.997506 
L 42.495266 24.779452 
L 37.97166 26.753221 
L 33.945322 29.769151 
L 30.66669 33.623923 
L 28.341831 38.071063 
L 27.125424 42.830366 
L 27.113206 47.597478 
L 28.333478 52.055324 
L 30.738356 55.889071 
L 34.196651 58.805809 
L 38.491311 60.558873 
L 43.324873 60.974932 
L 48.335918 59.979855 
L 53.12757 57.617672 
L 57.306003 54.056772 
L 60.523434 49.57925 
L 62.517689 44.553212 
L 63.140423 39.392322 
L 62.36877 34.510331 
L 60.299535 30.279198 
L 57.129301 26.997522 
L 53.126393 24.872422 
L 48.600921 24.014318 
L 43.877715 24.44153 
L 39.274654 26.090697 
L 35.086804 28.829381 
L 31.575312 32.46838 
L 28.959267 36.772646 
L 27.408691 41.47088 
L 27.037252 46.264868 
L 27.894028 50.840139 
L 29.954668 54.879719 
L 33.11349 58.082361 
L 37.179174 60.185638 
L 41.877452 60.992569 
L 46.864047 60.398401 
L 51.749661 58.412221 
L 56.135947 55.167376 
L 59.657923 50.915855 
L 62.025392 46.00517 
L 63.055156 40.840786 
L 62.687759 35.841102 
L 60.986547 31.393671 
L 58.121316 27.820186 
L 54.341967 25.354477 
L 49.948578 24.133915 
L 45.263193 24.201706 
L 40.606546 25.51613 
L 36.280662 27.962883 
L 32.556617 31.367677 
L 29.665802 35.507581 
L 27.792814 40.120898 
L 27.06839 44.916382 
L 27.561464 49.583281 
L 29.270392 53.803991 
L 32.114505 57.27087 
L 35.928364 59.707964 
L 40.461962 60.896891 
L 45.390324 60.704081 
L 50.33487 59.104531 
L 54.896454 56.196055 
L 58.696545 52.198597 
L 61.419783 47.435967 
L 62.849649 42.301754 
L 62.890116 37.21548 
L 61.569781 32.577523 
L 59.029508 28.730977 
L 55.498334 25.935763 
L 51.263987 24.356434 
L 46.643799 24.061823 
L 41.959894 25.032801 
L 37.520179 27.174146 
L 33.60484 30.327308 
L 30.456853 34.282189 
L 28.274645 38.787366 
L 27.205185 43.559334 
L 27.336352 48.292077 
L 28.688332 52.668749 
L 31.204844 56.377126 
L 34.746247 59.129908 
L 39.087569 60.689598 
L 43.924965 60.895796 
L 48.893455 59.690584 
L 53.596706 57.136171 
L 57.646382 53.418912 
L 60.705121 48.836087 
L 62.525035 43.765818 
L 62.97398 38.625104 
L 62.044849 33.824115 
L 59.84763 29.725334 
L 56.588088 26.613871 
L 52.539214 24.681482 
L 48.011582 24.023267 
L 43.32711 24.643612 
L 38.798419 26.467338 
L 34.71393 29.352498 
L 31.327475 33.102565 
L 28.850591 37.477066 
L 27.445671 42.200957 
L 27.218643 46.973886 
L 28.210612 51.481031 
L 30.388956 55.407284 
L 33.639555 58.456083 
L 37.76296 60.373111 
L 42.477962 60.973263 
L 47.435766 60.167178 
L 52.246301 57.981767 
L 56.515208 54.568684 
L 59.886525 50.196173 
L 62.083351 45.223435 
L 62.938317 40.061237 
L 62.408038 35.126275 
L 60.569912 30.798099 
L 57.604102 27.385797 
L 53.766436 25.108129 
L 49.358566 24.086958 
L 44.700482 24.351066 
L 40.108242 25.846289 
L 35.877563 28.448186 
L 32.272385 31.974571 
L 29.51664 36.196597 
L 27.787374 40.848374 
L 27.207689 45.636061 
L 27.838687 50.248018 
L 29.670592 54.367812 
L 32.614359 57.691611 
L 36.496289 59.950541 
L 41.058995 60.937019 
L 45.972147 60.531947 
L 50.855167 58.727638 
L 55.311428 55.640338 
L 58.969959 51.507117 
L 61.527559 46.665007 
L 62.782975 41.514823 
L 62.656372 36.47633 
L 61.191123 31.943517 
L 58.539589 28.247931 
L 54.937989 25.634873 
L 50.676789 24.253316 
L 46.072204 24.157241 
L 41.44233 25.314473 
L 37.089168 27.61901 
L 33.285977 30.903813 
L 30.268383 34.952356 
L 28.227338 39.508573 
L 27.302269 44.285918 
L 27.573358 48.976979 
L 29.052803 53.265439 
L 31.676046 56.842064 
L 35.29513 59.425637 
L 39.677366 60.788378 
L 44.51284 60.783368 
L 49.433459 59.369352 
L 54.043989 56.626896 
L 57.962165 52.760143 
L 60.86152 48.080963 
L 62.508691 42.976557 
L 62.787646 37.86615 
L 61.706628 33.155261 
L 59.388152 29.196058 
L 56.04641 26.259642 
L 51.958341 24.522251 
L 47.434401 24.06378 
L 42.79321 24.874996 
L 38.341945 26.869297 
L 34.362354 29.895638 
L 31.101046 33.75053 
L 28.762157 38.188392 
L 27.500625 42.930703 
L 27.414802 47.675234 
L 28.537955 52.107099 
L 30.829309 55.913409 
L 34.166432 58.802735 
L 38.341919 60.529403 
L 43.067899 60.92075 
L 47.991466 59.903293 
L 52.722299 57.522045 
L 56.870613 53.946892 
L 60.089984 49.461851 
L 62.117117 44.436958 
L 62.800485 39.287194 
L 62.112446 34.426452 
L 60.143852 30.225353 
L 57.084501 26.979769 
L 53.195404 24.893136 
L 48.779163 24.07186 
L 44.153278 24.530572 
L 39.628887 26.203045 
L 35.495341 28.955113 
L 32.009505 32.597073 
L 29.387993 36.894491 
L 27.800476 41.577565 
L 27.362586 46.350116 
L 28.127737 50.899887 
L 30.07814 54.91195 
L 33.116492 58.086704 
L 37.060987 60.162868 
L 41.647099 60.944225 
L 46.539506 60.326676 
L 51.356126 58.320195 
L 55.703427 55.0595 
L 59.218545 50.798421 
L 61.610817 45.886446 
L 62.694363 40.730573 
L 62.405301 35.749687 
L 60.801255 31.330394 
L 58.04537 27.791987 
L 54.380296 25.364794 
L 50.098579 24.182184 
L 45.514821 24.28351 
L 40.942803 25.623911 
L 36.678511 28.087019 
L 32.988315 31.4977 
L 30.100616 35.633343 
L 28.19906 40.23353 
L 27.415706 45.008933 
L 27.823185 49.651005 
L 29.425836 53.844275 
L 32.150934 57.282889 
L 35.842341 59.692205 
L 40.259862 60.854722 
L 45.087836 60.637552 
L 49.955511 59.016516 
L 54.469311 56.090676 
L 58.253606 52.081714 
L 60.993267 47.315426 
L 62.469642 42.187108 
L 62.582674 37.117084 
L 61.355499 32.505173 
L 58.922493 28.692422 
L 55.50552 25.93548 
L 51.384773 24.394949 
L 46.870052 24.135693 
L 42.276336 25.135194 
L 37.905202 27.295832 
L 34.031731 30.45787 
L 30.895415 34.411214 
L 28.693154 38.905481 
L 27.572606 43.658936 
L 27.6247 48.367727 
L 28.875001 52.717201 
L 31.274688 56.397056 
L 34.693141 59.12146 
L 38.915181 60.653934 
L 43.646556 60.834817 
L 48.530661 59.606979 
L 53.177463 57.033759 
L 57.202319 53.303144 
L 60.268833 48.714374 
L 62.127586 43.647404 
L 62.642846 38.520321 
L 61.802345 33.743113 
L 59.709771 29.676593 
L 56.563811 26.602861 
L 52.629941 24.709832 
L 48.211131 24.088557 
L 43.62199 24.739814 
L 39.168539 26.585714 
L 35.133726 29.482775 
L 31.767428 33.23415 
L 29.279099 37.600138 
L 27.831203 42.307294 
L 27.53207 47.057356 
L 28.427562 51.537727 
L 30.491991 55.435332 
L 33.619909 58.455237 
L 37.621559 60.344283 
L 42.225523 60.918193 
L 47.091857 60.088375 
L 51.83748 57.882784 
L 56.072518 54.454583 
L 59.442742 50.073924 
L 61.670368 45.101926 
L 62.584935 39.950692 
L 62.138236 35.037101 
L 60.401584 30.739413 
L 57.548189 27.364016 
L 53.826396 25.125971 
L 49.530205 24.143072 
L 44.972154 24.440302 
L 40.461458 25.960494 
L 36.288016 28.57733 
L 32.71137 32.107966 
L 29.952836 36.324042 
L 28.188927 40.961065 
L 27.544502 45.727183 
L 28.084789 50.312981 
L 29.806382 54.404152 
L 32.628499 57.698637 
L 36.386958 59.928874 
L 40.834269 60.888209 
L 45.649353 60.458333 
L 50.459268 58.632527 
L 54.872647 55.528432 
L 58.521044 51.384951 
L 61.101072 46.541077 
L 62.408928 41.399169 
L 62.360343 36.379515 
L 60.992855 31.875203 
L 58.452012 28.215414 
L 54.966611 25.641947 
L 50.819436 24.299723 
L 46.319127 24.238776 
L 41.77672 25.42366 
L 37.488079 27.746157 
L 33.721647 31.038229 
L 30.709922 35.083534 
L 28.642739 39.627174 
L 27.660647 44.384461 
L 27.847309 49.050178 
L 29.220706 53.310205 
L 31.724081 56.857211 
L 35.218745 59.411445 
L 39.481926 60.74618 
L 44.213284 60.715326 
L 49.052941 59.278549 
L 53.611681 56.517701 
L 57.510564 52.638666 
L 60.42368 47.955286 
L 62.115709 42.856468 
L 62.466618 37.762272 
L 61.479103 33.077702 
L 59.26904 29.152919 
L 56.043272 26.255761 
L 52.071046 24.558479 
L 47.655148 24.136918 
L 43.106943 24.978329 
L 38.727173 26.993569 
L 34.792379 30.030251 
L 31.545557 33.884747 
L 29.189159 38.312395 
L 27.878621 43.03637 
L 27.71513 47.756583 
L 28.737127 52.160382 
L 30.911131 55.936899 
L 34.123657 58.796323 
L 38.17716 60.494166 
L 42.793575 60.858662 
L 47.628726 59.817226 
L 52.299032 57.416062 
L 56.418839 53.826694 
L 59.643051 49.335093 
L 61.707064 44.31312 
L 62.455835 39.176869 
L 61.856503 34.340094 
L 59.993481 30.171785 
L 57.049321 26.964829 
L 53.27735 24.91879 
L 48.972424 24.135961 
L 44.444615 24.627244 
L 39.998358 26.323567 
L 35.917426 29.089072 
L 32.45461 32.733589 
L 29.824297 37.023328 
L 28.196042 41.689996 
L 27.687672 46.439467 
L 28.357146 50.961728 
L 30.193428 54.943972 
L 33.10778 58.088357 
L 36.928113 60.134931 
L 41.399857 60.888466 
L 46.196861 60.24576 
L 50.944457 58.217907 
L 55.254042 54.941156 
L 58.76488 50.671239 
L 61.185693 45.759553 
L 62.32762 40.61445 
L 62.121936 35.655033 
L 60.620061 31.266665 
L 57.978018 27.765963 
L 54.430807 25.379549 
L 50.263169 24.236659 
L 45.782128 24.372744 
L 41.294517 25.739808 
L 37.0904 28.21945 
L 33.431637 31.63573 
L 30.543875 35.766388 
L 28.610053 40.3523 
L 27.763787 45.106075 
L 28.081616 49.721395 
L 29.574056 53.88498 
L 32.176515 57.292872 
L 35.742352 59.671902 
L 40.04139 60.805665 
L 44.767501 60.562203 
L 49.557963 58.918397 
L 54.024912 55.974741 
L 57.795657 51.954751 
L 60.555194 47.186176 
L 62.08248 42.065862 
L 62.273038 37.01469 
L 61.144072 32.431622 
L 58.822991 28.655374 
L 55.524061 25.93909 
L 51.519633 24.439275 
L 47.111803 24.216753 
L 42.608377 25.245605 
L 38.304692 27.425848 
L 34.470905 30.596592 
L 31.343252 34.547786 
L 29.117351 39.030102 
L 27.94179 43.763595 
L 27.910764 48.446598 
L 29.055417 52.766698 
L 31.334576 56.415605 
L 34.626829 59.109109 
L 38.726993 60.611946 
L 43.350627 60.765441 
L 48.149707 59.51349 
L 52.74066 56.920774 
L 56.742606 53.177029 
L 59.82005 48.58346 
L 61.721822 43.521731 
L 62.308246 38.410787 
L 61.561436 33.66015 
L 59.578295 29.628659 
L 56.549993 26.595163 
L 52.734147 24.743555 
L 48.425915 24.160754 
L 43.932534 24.8439 
L 39.55349 26.712421 
L 35.566414 29.621337 
L 32.217451 33.373518 
L 29.714217 37.730059 
L 28.219489 42.41913 
L 27.844223 47.14458 
L 28.639243 51.596074 
L 30.585982 55.462651 
L 33.587849 58.451136 
L 37.464981 60.309723 
L 41.955956 60.855191 
L 46.729895 59.999968 
L 51.410881 57.773275 
L 55.613623 54.329931 
L 58.985596 49.942035 
L 61.24796 44.972534 
L 62.226834 39.83466 
L 61.868755 34.945196 
L 60.23847 30.680811 
L 57.501774 27.344925 
L 53.899161 25.148709 
L 49.716731 24.205768 
L 45.259475 24.537249 
L 40.829796 26.082998 
L 36.711913 28.714852 
L 33.161178 32.249352 
L 30.396535 36.458652 
L 28.59421 41.079673 
L 27.881049 45.822571 
L 28.326612 50.380188 
L 29.934057 54.44041 
L 32.631048 57.703068 
L 36.263115 59.902091 
L 40.592865 60.831977 
L 45.308689 60.375454 
L 50.045459 58.527006 
L 54.417195 55.405842 
L 58.057981 51.252767 
L 60.664109 46.408682 
L 62.028941 41.277311 
L 62.063361 36.279197 
L 60.798597 31.806226 
L 58.372916 28.184931 
L 55.00729 25.653392 
L 50.976541 24.35234 
L 46.581602 24.327807 
L 42.126451 25.541074 
L 37.900925 27.881742 
L 34.168846 31.180816 
L 31.159826 35.222166 
L 29.062827 39.752086 
L 28.019758 44.48776 
L 28.117975 49.126198 
L 29.381439 53.355527 
L 31.761377 56.870427 
L 35.128554 59.392776 
L 39.270318 60.697107 
L 43.896111 60.638411 
L 48.654464 59.177515 
L 53.16232 56.397754 
L 57.04411 52.506854 
L 59.974377 47.820608 
L 61.715602 42.729482 
L 62.143367 37.65412 
L 61.254358 32.998715 
L 59.157333 29.111125 
L 56.051365 26.255688 
L 52.197695 24.600508 
L 47.891267 24.217298 
L 43.436157 25.089784 
L 39.126762 27.126311 
L 35.234593 30.173186 
L 31.999263 34.026682 
L 29.621788 38.443077 
L 28.258344 43.147263 
L 28.013174 47.841311 
L 28.930089 52.214849 
L 30.98309 55.959122 
L 34.067824 58.786085 
L 37.996795 60.452632 
L 42.501956 60.788139 
L 47.248059 59.721166 
L 51.858418 57.299326 
L 55.951587 53.695909 
L 59.183736 49.19885 
L 61.288746 44.181724 
L 62.107706 39.061509 
L 61.602091 34.25153 
L 59.849395 30.118844 
L 57.02448 26.953092 
L 53.372647 24.949786 
L 49.180794 24.207003 
L 44.751497 24.731891 
L 40.382549 26.452551 
L 36.352304 29.231472 
L 32.909701 32.878057 
L 30.267142 37.159187 
L 28.594317 41.808097 
L 28.011472 46.532734 
L 28.581315 51.025367 
L 30.29975 54.975388 
L 33.086787 58.086847 
L 36.780242 60.101306 
L 41.135705 60.824758 
L 45.836396 60.155155 
L 50.515231 58.104935 
L 54.788639 54.812038 
L 58.297986 50.534143 
L 60.751212 45.62448 
L 61.956162 40.492547 
L 61.838842 35.557391 
L 60.443989 31.202819 
L 57.920048 27.742504 
L 54.493995 25.399148 
L 50.442519 24.297734 
L 46.064963 24.469769 
L 41.66124 25.864127 
L 37.515632 28.360412 
L 33.885694 31.781919 
L 30.994564 35.906772 
L 29.024724 40.47716 
L 28.111578 45.207649 
L 28.335785 49.79418 
L 29.714228 53.925732 
L 32.190626 57.30036 
L 35.62802 59.646539 
L 39.806453 60.749184 
L 44.429528 60.47752 
L 49.142734 58.809726 
L 53.564039 55.847913 
L 57.323707 51.817506 
L 60.10673 47.048165 
L 61.689398 41.938114 
L 61.962411 36.908522 
L 60.936574 32.357191 
L 58.731856 28.620213 
L 55.55453 25.947002 
L 51.668823 24.489816 
L 47.368983 24.305376 
L 42.955644 25.36436 
L 38.718014 27.564452 
L 34.92152 30.743652 
L 31.799379 34.691987 
L 29.546182 39.161208 
L 28.31168 43.873179 
L 28.193554 48.528444 
L 29.228719 52.816886 
L 31.383831 56.432331 
L 34.546869 59.092345 
L 38.52284 60.563096 
L 43.03731 60.687139 
L 47.751025 59.409647 
L 52.287014 56.796844 
L 56.268203 53.040328 
L 59.359907 48.443256 
L 61.308972 43.388859 
L 61.9714 38.296701 
L 61.323235 33.575526 
L 59.454119 29.581905 
L 56.547282 26.591184 
L 52.852168 24.783063 
L 48.655946 24.240243 
L 44.258443 24.956212 
L 39.952695 26.847738 
L 36.011197 29.768384 
L 32.67659 33.520778 
L 30.154901 37.866835 
L 28.609467 42.536362 
L 28.15409 47.235341 
L 28.844756 51.655746 
L 30.670203 55.488819 
L 33.542875 58.443287 
L 37.292989 60.268894 
L 41.669318 60.78372 
L 46.350239 59.901467 
L 50.967155 57.652837 
L 55.139428 54.194452 
L 58.51619 49.800377 
L 60.817342 44.835281 
L 61.865244 39.713305 
L 61.600742 34.850838 
L 60.08154 30.622652 
L 57.465575 27.328932 
L 53.985145 25.176758 
L 49.918238 24.275445 
L 45.562221 24.642268 
L 41.212745 26.214102 
L 37.148508 28.860979 
L 33.620891 32.398866 
L 30.846714 36.600462 
L 29.002162 41.204125 
L 28.216302 45.922037 
L 28.563228 50.449338 
L 30.052848 54.476183 
L 32.62145 57.704423 
L 36.124457 59.869659 
L 40.334771 60.767777 
L 44.950439 60.282797 
L 49.614321 58.41064 
L 53.945916 55.272251 
L 57.581826 51.110394 
L 60.217864 46.267806 
L 61.644248 41.149378 
L 61.766601 36.175629 
L 60.60937 31.736931 
L 58.303084 28.156884 
L 55.060516 25.66963 
L 51.148277 24.41158 
L 46.859484 24.42471 
L 42.491079 25.667038 
L 38.327015 28.026017 
L 34.626697 31.331737 
L 31.617094 35.368316 
L 29.486549 39.883263 
L 28.378563 44.595656 
L 28.384402 49.204764 
L 29.53419 53.401026 
L 31.787321 56.881246 
L 35.024192 59.3691 
L 39.042456 60.640609 
L 43.561533 60.552092 
L 48.238537 59.065788 
L 52.696691 56.266703 
L 56.563809 52.364496 
L 59.514776 47.676873 
L 61.309599 42.595693 
L 61.81909 37.541922 
L 61.033459 32.918629 
L 59.053881 29.071072 
L 56.071259 26.259846 
L 52.338544 24.648754 
L 48.142691 24.305309 
L 43.780482 25.209701 
L 39.540081 27.267793 
L 35.68816 30.32463 
L 32.461189 34.176424 
L 30.058999 38.580422 
L 28.638748 43.263248 
L 28.307953 47.929167 
L 29.115991 52.270142 
L 31.044522 55.979628 
L 33.9985 58.7715 
L 37.800666 60.40425 
L 42.193178 60.70864 
L 46.849899 59.614631 
L 51.401176 57.171451 
L 55.469814 53.554284 
L 58.71317 49.053025 
L 60.863382 44.042828 
L 61.757311 38.941314 
L 61.350316 34.161071 
L 59.712503 30.066916 
L 57.010622 26.944984 
L 53.481631 24.986552 
L 49.404285 24.285391 
L 45.073627 24.844873 
L 40.780891 26.590291 
L 36.799188 29.382527 
L 33.373834 33.030596 
L 30.715498 37.30208 
L 28.994252 41.931765 
L 28.332986 46.629695 
L 28.799359 51.090471 
L 30.396392 55.005766 
L 33.053022 58.081665 
L 36.617148 60.061441 
L 40.854706 60.75255 
L 45.458474 60.054353 
L 50.069102 57.98086 
L 54.308122 54.671853 
L 57.818958 50.386996 
L 60.308582 45.481245 
L 61.581215 40.365032 
L 61.557161 35.457046 
L 60.274007 31.13923 
L 57.872178 27.722028 
L 54.570277 25.424021 
L 50.636724 24.365826 
L 46.363105 24.574958 
L 42.042469 25.99718 
L 37.953468 28.510141 
L 34.349577 31.936412 
L 31.45167 36.054534 
L 29.442025 40.608037 
L 28.458065 45.313462 
L 28.584775 49.869054 
L 29.84559 53.966123 
L 32.192716 57.304861 
L 35.499052 59.615572 
L 39.555041 60.684724 
L 44.074205 60.382978 
L 48.710405 58.690058 
L 53.087539 55.709863 
L 56.838813 51.6698 
L 59.649066 46.901373 
L 61.291627 41.803995 
L 61.651966 36.798842 
L 60.734022 32.282237 
L 58.649875 28.587354 
L 55.597424 25.95965 
L 51.832518 24.546996 
L 47.641449 24.40195 
L 43.3177 25.491789 
L 39.144483 27.7119 
L 35.382702 30.899218 
L 32.262804 34.843883 
L 29.978598 39.298755 
L 28.681244 43.987526 
L 28.472118 48.612987 
L 29.3941 52.867381 
L 31.421846 56.44676 
L 34.452899 59.070636 
L 38.302638 60.506828 
L 42.706819 60.599376 
L 47.335129 59.294981 
L 51.817311 56.66161 
L 55.780119 52.892821 
L 58.88957 48.2937 
L 60.890265 43.248886 
L 61.633506 38.178292 
L 61.08881 33.489577 
L 59.338097 29.536734 
L 56.556254 26.591354 
L 52.984265 24.828784 
L 48.901162 24.327424 
L 44.599353 25.077097 
L 40.365531 26.991942 
L 36.467246 29.924109 
L 33.143875 33.676021 
L 30.600112 38.01045 
L 29.000093 42.658857 
L 28.460694 47.329388 
L 29.043252 51.716384 
L 30.743989 55.513384 
L 33.484556 58.431169 
L 37.105426 60.221244 
L 41.365749 60.703238 
L 45.953329 59.792383 
L 50.507024 57.521083 
L 54.650897 54.047892 
L 58.03566 49.648853 
L 60.379741 44.690229 
L 61.50139 39.586829 
L 61.335317 34.754342 
L 59.931717 30.565326 
L 57.440251 27.316459 
L 54.084698 25.210545 
L 50.134748 24.352505 
L 45.880103 24.755713 
L 41.609743 26.354093 
L 37.597015 29.015918 
L 34.089565 32.556622 
L 31.302338 36.749481 
L 29.411731 41.334314 
L 28.549255 46.02536 
L 28.793743 50.5201 
L 30.162033 54.511045 
L 32.599208 57.702199 
L 35.970754 59.831034 
L 40.060048 60.695066 
L 44.57497 60.179862 
L 49.16651 58.283018 
L 53.459723 55.127374 
L 57.093686 50.957698 
L 59.763555 46.118471 
L 61.256087 41.01554 
L 61.471221 36.0691 
L 60.426158 31.66769 
L 58.243249 28.13169 
L 55.126721 25.691089 
L 51.334751 24.477852 
L 47.152559 24.529854 
L 42.870108 25.801858 
L 38.765613 28.179209 
L 35.094288 31.491128 
L 32.080708 35.522018 
L 29.912847 40.020628 
L 28.736039 44.707958 
L 28.64566 49.285572 
L 29.67819 53.446298 
L 31.801355 56.889183 
L 34.905355 59.339884 
L 38.798326 60.57614 
L 43.209838 60.455859 
L 47.805748 58.942934 
L 52.215648 56.124232 
L 56.070733 52.21142 
L 59.046082 47.524066 
L 60.898952 42.455237 
L 61.494982 37.42594 
L 60.817448 32.837798 
L 58.959491 29.033166 
L 56.103468 26.268661 
L 52.493784 24.703634 
L 48.409288 24.401328 
L 44.139489 25.338399 
L 39.966448 27.41826 
L 36.152204 30.484743 
L 32.930334 34.334034 
L 30.499735 38.72438 
L 29.01879 43.384165 
L 28.598505 48.01988 
L 29.294013 52.325884 
L 31.094805 55.997955 
L 33.915314 58.75205 
L 37.588684 60.348477 
L 41.867456 60.619645 
L 46.434765 59.497165 
L 50.928101 57.032093 
L 54.974546 53.401613 
L 58.23254 48.897565 
L 60.432229 43.896532 
L 61.405874 38.816516 
L 61.102274 34.06905 
L 59.583684 30.016396 
L 57.008344 26.940926 
L 53.604577 25.029506 
L 49.642848 24.371511 
L 45.410649 24.966521 
L 41.192761 26.73705 
L 37.257244 29.542416 
L 33.84603 33.191288 
L 31.168313 37.451984 
L 29.394791 42.060865 
L 28.651223 46.730105 
L 29.010412 51.156689 
L 30.482678 55.034666 
L 33.006045 58.072306 
L 36.438665 60.014799 
L 40.556996 60.671314 
L 45.063537 59.942881 
L 49.606798 57.845309 
L 53.813466 54.520363 
L 57.328953 50.229707 
L 59.859054 45.329913 
L 61.204024 40.232106 
L 61.278034 35.35431 
L 60.111059 31.076281 
L 57.835083 27.704953 
L 54.660016 25.45459 
L 50.845818 24.441326 
L 46.676274 24.688655 
L 42.437643 26.139247 
L 38.403123 28.668836 
L 34.822337 32.099315 
L 31.914152 36.209678 
L 29.860892 40.744823 
L 28.802231 45.423297 
L 28.827681 49.945692 
L 29.967411 54.005734 
L 32.182278 57.305884 
L 35.355207 59.578471 
L 39.287211 60.611753 
L 43.701898 60.278092 
L 48.261639 58.558994 
L 52.596335 55.560318 
L 56.342097 51.511507 
L 59.183441 46.74583 
L 60.890428 41.663676 
L 61.342884 36.685936 
L 60.537424 32.207126 
L 58.577801 28.557209 
L 55.653189 25.977455 
L 52.010838 24.611215 
L 47.928999 24.506832 
L 43.694051 25.628188 
L 39.583364 27.868413 
L 35.853538 31.06342 
L 32.732499 35.003504 
L 30.413535 39.442662 
L 29.049446 44.106445 
L 28.745519 48.699928 
L 29.550777 52.917787 
L 31.44805 56.458419 
L 34.34461 59.043459 
L 38.06637 60.442607 
L 42.359445 60.50165 
L 46.90261 59.169067 
L 51.332415 56.514762 
L 55.279438 52.734346 
L 58.410261 48.134783 
L 60.46697 43.101948 
L 61.295779 38.055825 
L 60.859223 33.402658 
L 59.231053 29.493552 
L 56.577438 26.596099 
L 53.130642 24.881128 
L 49.16144 24.422666 
L 44.954838 25.206868 
L 40.791316 27.145273 
L 36.933684 30.088663 
L 33.618302 33.839304 
L 31.048787 38.16085 
L 29.390321 42.786451 
L 28.763065 47.42645 
L 29.233905 51.777613 
L 30.806714 55.535886 
L 33.412515 58.414267 
L 36.9022 60.166236 
L 41.04546 60.613229 
L 45.539682 59.672267 
L 45.539682 59.672267 
" clip-path="url(#pfad2305cad)" style="fill: none; stroke: #8ca5ea; stroke-width: 0.01; stroke-linecap: square"/>
   </g>
  </g>
 </g>
 <defs>
  <clipPath id="pfad2305cad">
   <rect x="10.84252" y="10.204724" width="65.480315" height="65.480315"/>
  </clipPath>
 </defs>
</svg>
